<?xml version="1.0" encoding="UTF-8" standalone="no"?>
<!-- Generator: Adobe Illustrator 20.0.0, SVG Export Plug-In . SVG Version: 6.00 Build 0)  -->

<svg
   xmlns:dc="http://purl.org/dc/elements/1.1/"
   xmlns:cc="http://creativecommons.org/ns#"
   xmlns:rdf="http://www.w3.org/1999/02/22-rdf-syntax-ns#"
   xmlns:svg="http://www.w3.org/2000/svg"
   xmlns="http://www.w3.org/2000/svg"
   xmlns:xlink="http://www.w3.org/1999/xlink"
   xmlns:sodipodi="http://sodipodi.sourceforge.net/DTD/sodipodi-0.dtd"
   xmlns:inkscape="http://www.inkscape.org/namespaces/inkscape"
   version="1.1"
   id="svg16054"
   inkscape:version="0.91 r13725"
   sodipodi:docname="quiz10.svg"
   x="0px"
   y="0px"
   viewBox="0 0 2125.9999 1187"
   xml:space="preserve"
   width="2126"
   height="1187"><metadata
     id="metadata387"><rdf:RDF><cc:Work
         rdf:about=""><dc:format>image/svg+xml</dc:format><dc:type
           rdf:resource="http://purl.org/dc/dcmitype/StillImage" /><dc:title></dc:title></cc:Work></rdf:RDF></metadata><style
     type="text/css"
     id="style3">
	.st0{fill:#FFFFFF;}
	.st1{fill:#6B3C1F;stroke:#000000;}
	.st2{fill:#6B3C1F;stroke:#000000;stroke-linejoin:round;}
	.st3{fill:url(#SVGID_1_);stroke:#000000;}
	.st4{fill:#8D5027;stroke:#000000;}
	.st5{fill:url(#SVGID_2_);stroke:#000000;}
	.st6{fill:url(#SVGID_3_);stroke:#000000;}
	.st7{fill:#D28C5F;stroke:#000000;}
	.st8{fill:url(#SVGID_4_);stroke:#000000;}
	.st9{fill:url(#SVGID_5_);stroke:#000000;}
	.st10{fill:url(#SVGID_6_);stroke:#000000;}
	.st11{fill:url(#SVGID_7_);stroke:#000000;}
	.st12{fill:url(#SVGID_8_);stroke:#000000;stroke-width:1.02;}
	.st13{fill:url(#SVGID_9_);stroke:#000000;}
	.st14{fill:#855B3E;}
	.st15{fill:none;stroke:#000000;stroke-width:1.02;}
	.st16{fill:#A05B2B;stroke:#000000;stroke-width:1.02;}
	.st17{fill:#6C5353;stroke:#000000;stroke-width:1.02;}
	.st18{fill:#906F6F;stroke:#000000;stroke-width:1.02;}
	.st19{fill:none;stroke:#000000;}
	.st20{fill:#BEBA10;}
	.st21{fill:#6D1245;}
	.st22{fill:#C83D17;}
	.st23{fill:#F1C700;}
	.st24{fill:#E78700;}
	.st25{opacity:0.33;fill:#D99B17;enable-background:new    ;}
	.st26{fill:url(#SVGID_10_);}
	.st27{fill:url(#SVGID_11_);}
	.st28{fill:url(#SVGID_12_);}
	.st29{fill:#A06121;}
	.st30{fill:#B8854F;}
	.st31{fill:#834317;stroke:#000000;stroke-width:1.67;}
	.st32{fill:#834317;stroke:#000000;stroke-width:3.36;}
	.st33{fill:#834317;stroke:#000000;stroke-width:3.78;}
	.st34{fill:#834317;stroke:#000000;stroke-width:2.63;}
	.st35{fill:#834317;}
	.st36{fill:#956C45;stroke:#000000;stroke-width:2.83;}
	.st37{fill:#6E4A25;}
	.st38{fill:#5D381E;}
	.st39{fill:#DDCEBE;}
	.st40{fill:none;stroke:#000000;stroke-width:5;}
	.st41{fill:none;stroke:#000000;stroke-width:4;}
	.st42{stroke:#000000;stroke-width:5;}
	.st43{fill:#956C45;stroke:#000000;stroke-width:3;}
	.st44{fill:#834317;stroke:#000000;stroke-width:1.99;}
</style><defs
     id="defs5"><inkscape:path-effect
       effect="spiro"
       id="path-effect5341"
       is_visible="true" /><inkscape:path-effect
       effect="spiro"
       id="path-effect17606"
       is_visible="true" /><inkscape:path-effect
       effect="spiro"
       id="path-effect16830"
       is_visible="true" /><inkscape:path-effect
       effect="spiro"
       id="path-effect16826"
       is_visible="true" /><inkscape:path-effect
       effect="spiro"
       id="path-effect16822"
       is_visible="true" /><inkscape:path-effect
       effect="spiro"
       id="path-effect16818"
       is_visible="true" /><inkscape:path-effect
       effect="spiro"
       id="path-effect16814"
       is_visible="true" /><inkscape:path-effect
       effect="spiro"
       id="path-effect16810"
       is_visible="true" /><inkscape:path-effect
       effect="spiro"
       id="path-effect16806"
       is_visible="true" /><inkscape:path-effect
       effect="spiro"
       id="path-effect16802"
       is_visible="true" /><inkscape:path-effect
       effect="spiro"
       id="path-effect16798"
       is_visible="true" /><inkscape:path-effect
       effect="spiro"
       id="path-effect16794"
       is_visible="true" /><inkscape:path-effect
       effect="spiro"
       id="path-effect16790"
       is_visible="true" /><inkscape:path-effect
       effect="spiro"
       id="path-effect16786"
       is_visible="true" /><inkscape:path-effect
       effect="spiro"
       id="path-effect16782"
       is_visible="true" /><inkscape:path-effect
       effect="spiro"
       id="path-effect16778"
       is_visible="true" /><inkscape:path-effect
       effect="spiro"
       id="path-effect16774"
       is_visible="true" /></defs><sodipodi:namedview
     bordercolor="#666666"
     borderlayer="true"
     borderopacity="1.0"
     fit-margin-bottom="0"
     fit-margin-left="0"
     fit-margin-right="0"
     fit-margin-top="0"
     id="base"
     inkscape:current-layer="svg16054"
     inkscape:cx="930.44638"
     inkscape:cy="448.34105"
     inkscape:document-units="cm"
     inkscape:pageopacity="0.0"
     inkscape:pageshadow="2"
     inkscape:window-height="744"
     inkscape:window-maximized="1"
     inkscape:window-width="1366"
     inkscape:window-x="0"
     inkscape:window-y="24"
     inkscape:zoom="0.35"
     pagecolor="#ffffff"
     showgrid="false"
     units="cm" /><g
     id="layer2"
     inkscape:groupmode="layer"
     inkscape:label="background"
     transform="translate(0,237.40002)"><rect
       id="rect4177"
       y="-241.83704"
       class="st0"
       width="2146.4292"
       height="1191.437"
       x="0"
       style="fill:#ffffff" /></g><g
     id="g27"
     transform="matrix(1.5,0,0,1.5,-247.61074,-134.13157)">
     <!-- <image
       sodipodi:absref="/home/daniel/Projects/L2TOR_project/freeplay-sandbox/qt-gui/res/9E179A0D.png"
       xlink:href="9E179A0D.png"
       id="image29"
       transform="matrix(0.9968,0,0,0.9979,696,223)"
       height="481"
       width="308"
       style="overflow:visible;opacity:0.75;enable-background:new" /> -->
       <polygon
       class="st1"
       points="936.5,516.4 929.8,481.1 922.2,481.1 919.1,486.9 928.9,572.2 936.3,616.6 943.7,652.5 953.7,652.1 953.5,641.4 945.9,576.2 "
       id="polygon31"
       style="fill:#6b3c1f;stroke:#000000" /><polygon
       class="st2"
       points="796,632.4 807.8,633.3 813.3,568.7 817.7,523.9 818.3,493.6 805.1,493.6 799.4,561.8 796.9,614.2 "
       id="polygon33"
       style="fill:#6b3c1f;stroke:#000000;stroke-linejoin:round" /><g
       id="g8412"><linearGradient
         id="SVGID_1_"
         gradientUnits="userSpaceOnUse"
         x1="1305.8522"
         y1="785.30701"
         x2="1402.0522"
         y2="754.45697"
         gradientTransform="translate(-601.88,-192.22)"><stop
           offset="0"
           style="stop-color:#8D5027"
           id="stop37" /><stop
           offset="1"
           style="stop-color:#6B3C1F"
           id="stop39" /></linearGradient><path
         class="st3"
         d="M 720.1,593.9 808.8,565 c 0.8,-1.7 0.9,-3.7 0.4,-5.5 -1,-2.9 -4.6,-2.9 -4.6,-2.9 l -37.6,10.3 -49.2,18 2.3,9 z"
         id="path41"
         inkscape:connector-curvature="0"
         style="fill:url(#SVGID_1_);stroke:#000000" /><path
         class="st4"
         d="m 772.5,567.9 c 0,0 45.7,2.6 68.6,4.6 22.9,2 72.8,9.5 72.8,9.5 l -3.5,3.3 0.9,4.2 c 0,0 -45.8,-2.5 -69,-4.5 -23.2,-2 -70.5,-9 -70.5,-9 -0.8,-1.2 -1.3,-2.7 -1.4,-4.1 0,-2.1 2.1,-4 2.1,-4 l 0,0 z"
         id="path43"
         inkscape:connector-curvature="0"
         style="fill:#8d5027;stroke:#000000" /><linearGradient
         id="SVGID_2_"
         gradientUnits="userSpaceOnUse"
         x1="1294.1635"
         y1="792.58588"
         x2="1365.4835"
         y2="750.09589"
         gradientTransform="translate(-427.34,-177.79)"><stop
           offset="0"
           style="stop-color:#C28156"
           id="stop46" /><stop
           offset="1"
           style="stop-color:#6B3C1F"
           id="stop48" /></linearGradient><path
         class="st5"
         d="m 891.2,606.7 48.5,-30.9 c 0.8,-1.7 0.9,-3.7 0.4,-5.5 -1,-2.9 -4.6,-2.9 -4.6,-2.9 -9.2,5.9 -12.2,7.8 -20,12.5 -7.8,4.7 -26.8,15.7 -26.8,15.7 l 2.5,11.1 z"
         id="path50"
         inkscape:connector-curvature="0"
         style="fill:url(#SVGID_2_);stroke:#000000" /></g><linearGradient
       id="SVGID_3_"
       gradientUnits="userSpaceOnUse"
       x1="1299.1405"
       y1="773.85571"
       x2="1325.9905"
       y2="777.08569"
       gradientTransform="translate(-601.88,-192.22)"><stop
         offset="0"
         style="stop-color:#492A16"
         id="stop53" /><stop
         offset="0.49"
         style="stop-color:#D28C5F"
         id="stop55" /><stop
         offset="1"
         style="stop-color:#593219"
         id="stop57" /></linearGradient><polyline
       class="st6"
       points="707.2,683.6 697.2,682.5 705.6,581.1 717.3,484.1 730.6,484.7 727.4,548.5 719.8,609.1 711,681.7     "
       id="polyline59"
       style="fill:url(#SVGID_3_);stroke:#000000" /><g
       id="g8390"><path
         class="st7"
         d="m 810.2,250.5 c 0,0 62.1,5 75.3,5.8 13.2,0.8 80.6,-0.4 80.6,-0.4 l -6,34.6 c 0,0 -67.3,0.6 -75.3,0 -8,-0.6 -75.5,-6.2 -75.5,-6.2 l -0.6,-34.1 1.5,0.3 z"
         id="path62"
         inkscape:connector-curvature="0"
         style="fill:#d28c5f;stroke:#000000" /><linearGradient
         id="SVGID_4_"
         gradientUnits="userSpaceOnUse"
         x1="1435.7303"
         y1="563.02759"
         x2="1447.6504"
         y2="563.34747"
         gradientTransform="translate(-601.88,-192.22)"><stop
           offset="0"
           style="stop-color:#693B1D"
           id="stop65" /><stop
           offset="0.49"
           style="stop-color:#D28C5F"
           id="stop67" /><stop
           offset="1"
           style="stop-color:#563117"
           id="stop69" /></linearGradient><path
         class="st8"
         d="m 834.2,454.2 c 0,0 1.3,-76.5 1.3,-88.9 0,-12.4 3.8,-79.4 3.8,-79.4 l 4.9,0.5 c 0,0 -1.2,82.5 -1.2,97.3 0,14.8 -2,71.1 -2,71.1 -1,0.5 -2.2,0.8 -3.3,0.9 -1.3,-0.2 -2.5,-0.7 -3.5,-1.5 l 0,0 z"
         id="path71"
         inkscape:connector-curvature="0"
         style="fill:url(#SVGID_4_);stroke:#000000" /><linearGradient
         id="SVGID_5_"
         gradientUnits="userSpaceOnUse"
         x1="1459.851"
         y1="565.13861"
         x2="1475.5709"
         y2="566.42859"
         gradientTransform="translate(-601.88,-192.22)"><stop
           offset="0"
           style="stop-color:#492A16"
           id="stop74" /><stop
           offset="0.49"
           style="stop-color:#D28C5F"
           id="stop76" /><stop
           offset="1"
           style="stop-color:#5B3319"
           id="stop78" /></linearGradient><path
         class="st9"
         d="m 856,456.3 c 0,0 3.7,-63 5.3,-77.8 1.6,-14.8 8.8,-89.6 8.8,-89.6 l 5,0.5 -0.3,3.5 c 0,0 -4.5,87.2 -6.6,111.1 -2.1,23.9 -4.9,53.5 -4.9,53.5 -1.4,0.4 -2.8,0.6 -4.3,0.5 -1,-0.4 -2,-1 -3,-1.7 l 0,0 z"
         id="path80"
         inkscape:connector-curvature="0"
         style="fill:url(#SVGID_5_);stroke:#000000" /><linearGradient
         id="SVGID_6_"
         gradientUnits="userSpaceOnUse"
         x1="1487.7596"
         y1="566.11267"
         x2="1501.1296"
         y2="567.72278"
         gradientTransform="translate(-601.88,-192.22)"><stop
           offset="0"
           style="stop-color:#5D351A"
           id="stop83" /><stop
           offset="0.49"
           style="stop-color:#D28C5F"
           id="stop85" /><stop
           offset="1"
           style="stop-color:#673A1C"
           id="stop87" /></linearGradient><path
         class="st10"
         d="m 882.5,459.6 c -2.4,-0.5 -3,-1.5 -3,-1.5 0,0 5.7,-55.3 6.9,-65.9 1.2,-10.6 13.6,-102.3 13.6,-102.3 l 4.4,0.2 c 0,0 -8.9,89.7 -11.3,112.3 -2.4,22.6 -6.6,56.4 -6.6,56.4 -1.1,0.8 -2.6,1.1 -4,0.8 l 0,0 z"
         id="path89"
         inkscape:connector-curvature="0"
         style="fill:url(#SVGID_6_);stroke:#000000" /><linearGradient
         id="SVGID_7_"
         gradientUnits="userSpaceOnUse"
         x1="1515.0898"
         y1="567.02173"
         x2="1528.4598"
         y2="568.9317"
         gradientTransform="translate(-601.88,-192.22)"><stop
           offset="0"
           style="stop-color:#5D351A"
           id="stop92" /><stop
           offset="0.49"
           style="stop-color:#D28C5F"
           id="stop94" /><stop
           offset="1"
           style="stop-color:#5D351A"
           id="stop96" /></linearGradient><path
         class="st11"
         d="m 906.6,462 c -1.1,-0.6 -2.1,-1.3 -3.1,-2.1 0,0 7.2,-53 9.3,-64.1 2.1,-11.1 17,-106.1 17,-106.1 l 4.3,-0.1 c 0,0 -12.7,101.7 -14.8,119.8 -2.1,18.1 -7.7,52.1 -7.7,52.1 0,0 -3.5,1.2 -5,0.5 l 0,0 z"
         id="path98"
         inkscape:connector-curvature="0"
         style="fill:url(#SVGID_7_);stroke:#000000" /><linearGradient
         id="SVGID_8_"
         gradientUnits="userSpaceOnUse"
         x1="1548.146"
         y1="537.03809"
         x2="1564.606"
         y2="540.69818"
         gradientTransform="translate(-601.88,-192.22)"><stop
           offset="0"
           style="stop-color:#563117"
           id="stop101" /><stop
           offset="0.47"
           style="stop-color:#D28C5F"
           id="stop103" /><stop
           offset="1"
           style="stop-color:#4F2D17"
           id="stop105" /></linearGradient><path
         class="st12"
         d="m 927.4,461.8 c 0,0 11.8,-71.6 12,-73 0.2,-1.4 2.7,-6.1 2.7,-6.1 -0.8,-1.4 -1.2,-2.9 -1.1,-4.5 0.2,-1.4 1.1,-2.6 2.3,-3.2 0,0 -2.1,-6 -0.9,-10.5 1.2,-4.5 13.8,-55.9 14.3,-58.6 0.5,-2.7 -0.4,-6.9 -0.2,-8.3 0.1,-0.8 0.8,-1.4 1.6,-1.4 0,0 -1.4,-2 -1.2,-3.3 0.2,-1.3 2,-2.3 2,-2.3 0,0 1.7,-12.1 2.7,-18.1 1.1,-6 4.8,-18.4 4.8,-18.4 0,0 -1.3,-1 -0.1,-4.3 1.2,-3.3 2.4,-5.4 2.8,-6.3 0.4,-0.9 -0.7,-3.4 -0.7,-3.4 0,0 -3.3,-13 9.7,-10.6 13.2,2.5 1.9,13.1 1.4,14.1 -1.9,3.6 1.6,3.7 0.9,9.6 -0.3,2.1 -2.6,3.9 -2.6,3.9 l -1.7,18.3 -4.7,18 c 0,0 1.3,0.2 1,2.3 -0.2,1.1 -0.7,2.2 -1.5,3 0.1,1.1 0,2.2 -0.3,3.3 -0.4,1.4 -2.7,1.1 -3,2.9 -0.3,1.8 -9.5,62.7 -10.1,64.9 -0.6,2.2 -3.9,7.3 -3.9,7.3 1.2,0.8 1.7,2.3 1.4,3.7 -0.3,1.6 -1.1,3.1 -2.3,4.2 0,0 -1.5,17.6 -2.2,21 L 938,463.5 c 0,0 -3.9,1 -5.6,0.7 -1.7,-0.3 -5,-2.5 -5,-2.5 l 0,0.1 z"
         id="path107"
         inkscape:connector-curvature="0"
         style="fill:url(#SVGID_8_);stroke:#000000;stroke-width:1.01999998" /><linearGradient
         id="SVGID_9_"
         gradientUnits="userSpaceOnUse"
         x1="1396.488"
         y1="531.78857"
         x2="1415.8981"
         y2="532.43872"
         gradientTransform="translate(-601.88,-192.22)"><stop
           offset="0"
           style="stop-color:#4F2D17"
           id="stop110" /><stop
           offset="0.47"
           style="stop-color:#D28C5F"
           id="stop112" /><stop
           offset="1"
           style="stop-color:#4D2C16"
           id="stop114" /></linearGradient><path
         class="st13"
         d="m 796,454.3 c 0,0 0.3,-71.9 0.3,-73.2 0,-1.3 1.8,-6.7 1.8,-6.7 0,0 -2.7,-1.3 -2.2,-3.6 0.5,-2.3 3.1,-4 3.1,-4 0,0 -4.5,-4.5 -4,-8.9 0.5,-4.4 4.5,-54 4.5,-56.7 0,-2.7 -2.2,-5.8 -2.2,-7.1 0,-1.3 1.8,-4 1.8,-4 0,0 -2.2,-1.9 -2.2,-3.1 0,-1.2 1.9,-2.4 1.9,-2.4 l 0.8,-35.5 c 0,0 -2.7,-0.7 -2,-4 0.7,-3.3 3.8,-6.3 4,-7.1 0.2,-0.8 -2.5,-2 -2.5,-2 0,0 -6.9,-13.2 6.5,-12.1 13.4,1.1 4.8,12.3 4.5,13.4 -1.2,3.8 1.6,2.9 1.9,8.6 0.1,2 -1.9,4.1 -1.9,4.1 l 0,35.5 c 0,0 2.4,0.6 2.4,2.6 0,1.2 -0.8,2.2 -1.9,2.5 0.7,0.9 1.2,2 1.3,3.2 0,1.3 -2.2,2 -2.2,3.8 0,1.8 1.6,60.3 1.3,62.5 -0.3,2.2 -2.7,7.6 -2.7,7.6 0,0 2.5,1.6 2.5,4 -0.1,1.5 -0.9,3 -2.2,3.8 0,0 1.8,16.8 1.7,20.1 -0.3,7.4 -3.3,58.7 -3.3,58.7 0,0 -3.5,1.8 -5.4,1.9 -1.9,0.1 -5.6,-1.9 -5.6,-1.9 l 0,0 z"
         id="path116"
         inkscape:connector-curvature="0"
         style="fill:url(#SVGID_9_);stroke:#000000" /><path
         class="st14"
         d="m 810,282.9 c 0,0 66.3,6.4 76.1,6.4 9.8,0 72.9,-0.5 72.9,-0.5 l -0.7,1.6 c 0,0 -66.8,0.9 -74.1,0.5 -7.3,-0.4 -74.3,-6.2 -74.3,-6.2 l 0,-1.8 z"
         id="path118"
         inkscape:connector-curvature="0"
         style="fill:#855b3e" /><path
         class="st15"
         d="m 969.1,240.9 c 3.6,-0.5 7.2,0.1 10.5,1.6"
         id="path120"
         inkscape:connector-curvature="0"
         style="fill:none;stroke:#000000;stroke-width:1.01999998" /><path
         class="st15"
         d="m 966.3,253.4 c 0,0 8.3,-0.5 12.1,2.8"
         id="path122"
         inkscape:connector-curvature="0"
         style="fill:none;stroke:#000000;stroke-width:1.01999998" /><path
         class="st15"
         d="m 958.1,295.8 c 0,0 5.4,-1.4 12.5,2.2"
         id="path124"
         inkscape:connector-curvature="0"
         style="fill:none;stroke:#000000;stroke-width:1.01999998" /><path
         class="st16"
         d="m 956.8,301.5 c 0,0 7.3,-2 11.8,1.7"
         id="path126"
         inkscape:connector-curvature="0"
         style="fill:#a05b2b;stroke:#000000;stroke-width:1.01999998" /><path
         class="st17"
         d="m 943.6,374.8 c 0,0 8.1,-0.4 10.9,1.9"
         id="path128"
         inkscape:connector-curvature="0"
         style="fill:#6c5353;stroke:#000000;stroke-width:1.01999998" /><path
         class="st18"
         d="m 942.3,382.5 c 0,0 6.1,-0.3 10.7,2.5"
         id="path130"
         inkscape:connector-curvature="0"
         style="fill:#906f6f;stroke:#000000;stroke-width:1.01999998" /><path
         class="st19"
         d="m 801.1,237.1 c 0,0 3.2,-1.5 8.5,0.1"
         id="path132"
         inkscape:connector-curvature="0"
         style="fill:none;stroke:#000000" /><path
         class="st19"
         d="m 799.3,248.8 c 0,0 6.8,-2 11,0.4"
         id="path134"
         inkscape:connector-curvature="0"
         style="fill:none;stroke:#000000" /><path
         class="st19"
         d="m 799.1,289.7 c 0,0 4.2,-1.7 11.8,0.4"
         id="path136"
         inkscape:connector-curvature="0"
         style="fill:none;stroke:#000000" /><path
         class="st19"
         d="m 797.9,295.2 c 0,0 7.7,-2.4 12.8,0.2"
         id="path138"
         inkscape:connector-curvature="0"
         style="fill:none;stroke:#000000" /><path
         class="st19"
         d="m 798.9,366.7 c 0,0 5.8,-1.2 8.9,0.5"
         id="path140"
         inkscape:connector-curvature="0"
         style="fill:none;stroke:#000000" /><path
         class="st19"
         d="m 798.1,374.4 c 0,0 5.9,-1.5 10.9,0.3"
         id="path142"
         inkscape:connector-curvature="0"
         style="fill:none;stroke:#000000" /></g><g
       id="layer1">
       <!-- <image
         sodipodi:absref="/home/daniel/Projects/L2TOR_project/freeplay-sandbox/qt-gui/res/9E179A0F.png"
         xlink:href="9E179A0F.png"
         id="image145"
         transform="matrix(0.9945,0,0,0.9945,781.99,543.99)"
         height="183"
         width="183"
         style="overflow:visible;opacity:0.75;enable-background:new" /> -->
         <path
         class="st20"
         d="m 798.2,576.4 c 0.1,-0.1 0.2,-0.1 0.3,-0.1 l 0.2,0 0.3,0.1 0.8,0.3 c 0.7,0.3 1.6,0.7 2.6,1.1 2,0.9 4.3,1.9 5.6,2.6 18.3,9.6 38.7,25.9 54.8,43.8 4.5,4.3 12.4,14.3 13.6,18.4 3.7,6.8 5.2,12.3 3.8,15.7 -0.4,1.1 -1.7,2.6 -4.6,5.5 -0.4,0.4 -1.3,1.1 -2.5,2.1 -1.2,1 -2.8,2.2 -4.3,3.3 -4.9,3.7 -6.1,4.5 -9.4,6.1 -6.7,3.3 -14.8,5.8 -19.3,5.8 -4.2,0 -9.8,-1.9 -14,-4.8 -7.3,-5 -14.6,-14.3 -19.9,-25.2 -9.3,-19.1 -13.4,-43.9 -10.6,-63.5 0.3,-2 0.8,-4.7 1.3,-7 0.3,-1.1 0.5,-2.1 0.7,-2.9 0.1,-0.4 0.2,-0.7 0.3,-0.9 0.1,-0.2 0.1,-0.2 0.1,-0.3 0.1,0.1 0.2,0 0.2,-0.1 l 0,0 z"
         id="path147"
         inkscape:connector-curvature="0"
         style="fill:#beba10" /><path
         class="st21"
         d="m 782.5,575.1 c 0.8,-0.6 1.7,-0.9 2.7,-1.1 1.5,-0.2 3.1,-0.2 4.6,0 1.8,0.2 3.6,0.6 5.4,1.1 l 0,0 2.3,0.6 c 0.3,0.1 0.5,0.5 0.3,0.8 0,0.1 -0.1,0.2 -0.2,0.2 l -5.2,3.9 0,0 c -2.9,2.1 -5.5,4.5 -8,7 -9.6,10.1 -15.3,21.8 -16.4,33.6 -0.1,0.9 -0.2,1.7 -0.3,2.3 0,0.3 -0.1,0.5 -0.1,0.7 -0.1,1.5 0.2,4.5 0.3,6.1 -0.6,-2 -1.2,-4 -1.5,-6 0,-0.2 0,-0.3 -0.1,-0.6 0,-0.5 -0.1,-1.1 -0.2,-1.8 -0.1,-1.5 -0.1,-3.3 -0.1,-4.9 0.2,-13.7 4.8,-26.9 12.9,-37.9 0.9,-1.4 2,-2.6 3.3,-3.8 l 0.3,-0.2 0,0 z"
         id="path149"
         inkscape:connector-curvature="0"
         style="fill:#6d1245" /><path
         class="st22"
         d="m 798.8,575.8 0,0 0.7,-0.4 3.3,-1.8 c 18.5,-10 41.6,-12 59.7,-5.1 10.2,3.9 19.3,10.9 24.1,18.8 8.7,14.2 10.5,33.8 4.7,51.3 -1.9,5.3 -4.4,10.3 -7.4,15.1 -0.5,0.8 -1,1.5 -1.4,2 -0.2,0.3 -0.4,0.5 -0.5,0.7 -0.5,0.7 -1.1,1.4 -1.8,2.1 0.3,-1.2 0.5,-2.3 0.5,-3.5 -0.1,-3.5 -1.8,-8.1 -4.9,-13.3 -3.8,-6.1 -8.1,-11.8 -12.9,-17.1 -11.9,-13.3 -25.3,-25 -40,-35 -7.7,-5.2 -16.2,-9.9 -22,-12.3 l -2,-0.8 c -0.2,-0.1 -0.2,-0.3 -0.2,-0.5 0.1,-0.1 0.1,-0.1 0.1,-0.2 l 0,0 z"
         id="path151"
         inkscape:connector-curvature="0"
         style="fill:#c83d17" /><path
         class="st23"
         d="m 810.3,557.9 0.6,-0.4 c 2.2,-1.5 4.2,-2.2 7.7,-2.9 11,-2 22.4,-1.2 33,2.4 8.2,2.9 15.8,7.4 22.3,13.2 2.1,2 4.1,4.1 6,6.3 1,1.1 1.8,2.1 2.4,3 0.3,0.4 0.6,0.8 0.7,1 0.1,0.1 0.2,0.3 0.2,0.4 1,1.5 1.8,3.1 2.5,4.7 -0.2,0 -3.1,-3.9 -3.4,-4 -0.2,-0.2 -0.5,-0.4 -0.7,-0.6 -2.6,-2.6 -5.4,-4.9 -8.4,-7 -7.8,-5.1 -16,-8 -26.3,-9.1 -13.1,-1.4 -26.3,0.7 -38.4,6 -1.2,0.5 -3.3,1.5 -5.3,2.5 -1,0.5 -1.9,1 -2.6,1.3 -0.7,0.3 -1.3,0.7 -1.3,0.8 -0.1,0.1 -0.1,0.1 -0.2,0.1 -0.2,0 -0.3,-0.1 -0.5,-0.2 -0.2,-0.2 -0.1,-0.3 -0.1,-0.4 0,-0.2 0.1,-0.3 0.1,-0.5 0.1,-0.3 0.3,-0.8 0.5,-1.4 0.4,-1.1 1,-2.6 1.6,-3.8 0.8,-1.6 1.8,-3.2 2.8,-4.7 1.3,-2 2.9,-3.8 4.8,-5.3 0.9,-0.5 1.5,-0.9 2,-1.4 l 0,0 z"
         id="path153"
         inkscape:connector-curvature="0"
         style="fill:#f1c700" /><path
         class="st24"
         d="m 791.4,566.9 c 2.1,-1.6 4.2,-3.1 6.5,-4.4 3.4,-2 7,-3.6 10.7,-5 l 0,0 1.7,-0.5 c 0.7,-0.3 1.5,-0.5 2.3,-0.6 0.1,0.1 -1.8,1.1 -2,1.2 l -1,0.8 0,0 c -4.2,3.3 -8.1,9.1 -10.4,15.2 -0.2,0.6 -0.4,1.1 -0.6,1.5 -0.1,0.2 -0.1,0.3 -0.2,0.5 0,0.1 -0.1,0.1 -0.1,0.2 0,0 -0.1,0.1 -0.1,0.1 -0.1,0 -0.2,0.1 -0.3,0 l -0.4,-0.1 -0.7,-0.2 -2.1,-0.6 c -3.2,-0.9 -7.5,-1.4 -9.3,-1 l -1.4,0.3 c -0.1,0 -0.9,0.5 -1,0.4 -0.1,-0.1 0.6,-0.8 0.7,-0.9 l 1.9,-1.9 c 1.8,-1.8 3.7,-3.5 5.8,-5 l 0,0 z"
         id="path155"
         inkscape:connector-curvature="0"
         style="fill:#e78700" /><path
         class="st23"
         d="m 794.2,578.8 c 0.5,-0.4 1,-0.8 1.4,-1 0.4,-0.2 0.8,-0.5 1.1,-0.7 l 0.4,-0.2 c 0.4,-0.2 0.8,-0.4 1.1,-0.6 -0.2,0.3 -0.3,0.7 -0.3,1.1 0,0.2 -0.1,0.4 -0.1,0.6 -0.1,0.5 -0.4,1.2 -0.6,2 -5,19.7 -2.1,46 7.3,67.6 2.9,7.1 7,13.6 11.9,19.4 4.1,5.1 5.5,6.4 9.3,9.2 2.6,1.8 5.4,3.2 8.4,4.2 0.8,0.2 1.5,0.4 1.8,0.5 0.1,0 0.2,0.1 0.3,0.1 0.1,0.1 0.2,0.2 0.3,0.4 0,0.1 0,0.2 -0.1,0.3 0,0.1 -0.1,0.1 -0.2,0.2 -0.1,0 -0.2,0.1 -0.3,0.1 -0.8,0.1 -1.6,0.2 -2.5,0.2 -23.5,1.1 -45.6,-10.7 -57.9,-30.7 -7.7,-12.7 -9.8,-24.4 -6.7,-37.4 2.4,-10.1 8.9,-20.8 17.5,-28.9 1.4,-1.3 3.9,-3.4 6.2,-5.2 0.7,-0.4 1.2,-0.8 1.7,-1.2 l 0,0 z"
         id="path157"
         inkscape:connector-curvature="0"
         style="fill:#f1c700" /><ellipse
         transform="matrix(0.7915,-0.6111,0.6111,0.7915,-186.0203,607.817)"
         class="st0"
         cx="797.90002"
         cy="576.59998"
         rx="12.5"
         ry="7"
         id="ellipse159"
         style="fill:#ffffff" /><path
         class="st25"
         d="m 866.6,564.7 c 29.4,20 37,60.1 16.9,89.5 -20.1,29.4 -60.1,37 -89.5,16.9 -1.6,-1.1 -3.1,-2.2 -4.5,-3.4 29.4,19.9 69.5,12.2 89.4,-17.2 18.7,-27.5 13.3,-64.7 -12.3,-85.8 z"
         id="path161"
         inkscape:connector-curvature="0"
         style="opacity:0.33000004;fill:#d99b17;enable-background:new" /><linearGradient
         id="SVGID_10_"
         gradientUnits="userSpaceOnUse"
         x1="-2109.5308"
         y1="797.21259"
         x2="-2190.0808"
         y2="843.73273"
         gradientTransform="matrix(-0.87,0,0,0.87,-1070.1,-113.44)"><stop
           offset="0"
           style="stop-color:#FFFFFF;stop-opacity:0.67"
           id="stop164" /><stop
           offset="1"
           style="stop-color:#FFFFFF;stop-opacity:0"
           id="stop166" /></linearGradient><path
         class="st26"
         d="m 874.7,569.7 c -26.8,-24.1 -68.1,-21.8 -92.2,5 -24.1,26.8 -21.8,68.1 5,92.2 7.4,6.7 16.3,11.6 26,14.3"
         id="path168"
         inkscape:connector-curvature="0"
         style="fill:url(#SVGID_10_)" /></g><g
       id="path3334">
       <!-- <image
         sodipodi:absref="/home/daniel/Projects/L2TOR_project/freeplay-sandbox/qt-gui/res/9E179A0A.png"
         xlink:href="9E179A0A.png"
         id="image171"
         transform="matrix(0.9792,0,0,0.9957,877,493)"
         height="233"
         width="48"
         style="overflow:visible;opacity:0.75;enable-background:new" /> -->
         <linearGradient
         id="SVGID_11_"
         gradientUnits="userSpaceOnUse"
         x1="1479.13"
         y1="793.37952"
         x2="1506.4"
         y2="791.43951"
         gradientTransform="translate(-601.88,-192.22)"><stop
           offset="0"
           style="stop-color:#4F2D17"
           id="stop174" /><stop
           offset="0.49"
           style="stop-color:#D28C5F"
           id="stop176" /><stop
           offset="1"
           style="stop-color:#482914"
           id="stop178" /></linearGradient><polygon
         class="st27"
         points="903,667.8 904.9,706.1 892.2,706.4 881.8,617.1 877.7,531.5 877.7,494.2 888.4,494.2 894.8,531.5 899.2,594 "
         id="polygon180"
         style="fill:url(#SVGID_11_)" /><polygon
         class="st19"
         points="903,667.8 904.9,706.1 892.2,706.4 881.8,617.1 877.7,531.5 877.7,494.2 888.4,494.2 894.8,531.5 899.2,594 "
         id="polygon182"
         style="fill:none;stroke:#000000" /></g><g
       id="g8423">
       <!-- <image
         sodipodi:absref="/home/daniel/Projects/L2TOR_project/freeplay-sandbox/qt-gui/res/9E179A0B.png"
         xlink:href="9E179A0B.png"
         id="image185"
         transform="matrix(0.9961,0,0,0.9851,707,451)"
         height="67"
         width="258"
         style="overflow:visible;opacity:0.75;enable-background:new" /> -->
         <path
         class="st7"
         d="m 708.5,466.1 0,16.1 c 5.1,1.8 10.4,3.1 15.8,4.1 6.6,1 86.8,10.7 90,10.7 3.2,0 48.6,0.6 53,0.6 4.4,0 24.3,-1.6 28.1,-1.6 3.8,0 49.3,-16.7 49.3,-16.7 l 0.3,-4.1 -0.6,-12.6 -4.1,-1.6 -115.5,-8.2 -12.3,-1 -20.5,0.6 -52.4,7 -26.8,4.7 -4.3,2 z"
         id="path187"
         inkscape:connector-curvature="0"
         style="fill:#d28c5f;stroke:#000000" /><path
         class="st19"
         d="m 708.8,466.4 c 0,0 27.1,8.2 36.3,8.2 9.2,0 79.2,6.6 84.6,6.6 5.4,0 59.7,0.3 59.7,0.3 0,0 7,-0.6 12,-1 5,-0.4 39.8,-13.2 41.7,-14.8 1.9,-1.6 1.2,-2.9 1.2,-2.9"
         id="path189"
         inkscape:connector-curvature="0"
         style="fill:none;stroke:#000000" /><linearGradient
         id="SVGID_12_"
         gradientUnits="userSpaceOnUse"
         x1="1536.9264"
         y1="666.92877"
         x2="1489.4865"
         y2="682.02881"
         gradientTransform="translate(-601.88,-192.22)"><stop
           offset="0"
           style="stop-color:#8F5228"
           id="stop192" /><stop
           offset="1"
           style="stop-color:#D28C5F"
           id="stop194" /></linearGradient><path
         class="st28"
         d="m 885.2,481.8 0.7,14.1 11.1,-0.4 24.5,-8.2 22.8,-8.3 0.3,-6.4 -0.5,-7.1 -18.9,7.8 c 0,0 -19.3,6.8 -25.1,7.7 -5,0.7 -9.9,0.9 -14.9,0.8 l 0,0 z"
         id="path196"
         inkscape:connector-curvature="0"
         style="fill:url(#SVGID_12_)" /></g>
         <!-- <image
       sodipodi:absref="/home/daniel/Projects/L2TOR_project/freeplay-sandbox/qt-gui/res/9E179A15.png"
       xlink:href="9E179A15.png"
       id="image198"
       transform="matrix(0.9939,0,0,0.9953,779.99,301.99)"
       height="212"
       width="163"
       style="overflow:visible;opacity:0.75;enable-background:new" /> -->
       <g
       id="g5420"><path
         d="m 814.7,419.8 c 0,0.1 0,0.2 -0.1,0.3 -0.1,0.1 -0.2,0.2 -0.4,0.3 -0.2,0.1 -0.4,0.1 -0.6,0.2 -0.2,0 -0.4,0 -0.7,0 -0.5,0 -1.1,-0.2 -1.5,-0.4 L 811,420 c -0.6,-0.3 -1.1,-0.6 -1.5,-1.1 -0.1,-0.2 -0.3,-0.4 -0.3,-0.6 0,-0.1 0,-0.2 0,-0.3 0,0 0,-0.1 0,-0.1 l 0,0 0,-0.1 0,0 0,0 0.1,-0.1 0.1,-0.1 c 0.1,-0.1 0.1,-0.1 0.2,-0.1 0.2,-0.1 0.4,-0.1 0.7,-0.1 0.6,0 1.2,0.1 1.7,0.3 l 0.4,0.1 c 0.4,0.2 0.9,0.4 1.3,0.6 0.2,0.1 0.3,0.2 0.5,0.3 0.1,0.1 0.2,0.2 0.3,0.3 0.1,0.1 0.2,0.2 0.2,0.3 -0.1,0.3 0,0.5 0,0.5 l 0,0 z"
         id="path201"
         inkscape:connector-curvature="0" /><path
         d="m 815,416 c 0,0.1 0,0.2 0,0.4 -0.1,0.1 -0.1,0.2 -0.2,0.3 -0.3,0.2 -0.6,0.4 -0.9,0.4 -0.4,0.1 -0.8,0.1 -1.2,0 l -0.4,-0.1 c -1,-0.3 -1.7,-0.9 -1.6,-1.5 l 0,0 c 0.1,-0.6 1,-1 2,-0.9 l 0.4,0 c 0.3,0 0.7,0.1 1,0.3 0.3,0.1 0.5,0.3 0.7,0.5 0.1,0.1 0.2,0.2 0.2,0.3 0,0 0,0.2 0,0.3 l 0,0 z"
         id="path203"
         inkscape:connector-curvature="0" /><path
         d="m 814.4,425.3 c 0.1,0.4 0,0.7 -0.3,1 -0.3,0.3 -0.8,0.6 -1.3,0.6 -0.3,0.1 -0.7,0 -1,-0.1 -0.3,-0.1 -0.5,-0.2 -0.8,-0.5 -0.1,-0.1 -0.1,-0.2 -0.2,-0.3 0,-0.1 0,-0.2 0,-0.3 l 0,0 c 0,-0.1 0,-0.2 0.1,-0.3 0,-0.1 0.1,-0.2 0.2,-0.3 0.2,-0.2 0.4,-0.4 0.6,-0.5 0.2,-0.1 0.5,-0.2 0.8,-0.3 0.4,-0.1 0.8,0 1.2,0.1 0.4,0.3 0.6,0.6 0.7,0.9 l 0,0 z"
         id="path205"
         inkscape:connector-curvature="0" /><path
         class="st29"
         d="m 851.6,399.6 c -1,-0.7 -1.8,-0.4 -2.9,-0.2 -1.1,0.2 -2.2,1.4 -2.7,1.6 l -0.2,0 c -2.7,2.7 -6,4.8 -9.7,5.9 -9.6,3.3 -16.8,0.4 -24,9.4 -1.3,1.7 -0.2,8.1 1.8,11.3 2.5,4 8.9,4.3 15,2.1 7.7,-2.7 17.6,-11.4 22,-17.3 0.1,-0.4 0.3,-0.7 0.5,-1 0.5,-0.8 1,-1.6 1.4,-2.4 0.6,-1.3 1.1,-2.7 1.4,-4.1 0,-1.1 -0.2,-2.2 -0.6,-3.2 -0.3,-1 -0.9,-1.4 -2,-2.1 l 0,0 z"
         id="path207"
         inkscape:connector-curvature="0"
         style="fill:#a06121" /><path
         class="st30"
         d="m 854.2,403.6 c -0.3,0.7 -0.6,1.3 -1,2 -0.4,0.7 -0.9,1.7 -1.5,2.5 -0.5,0.8 -1.1,1.7 -1.8,2.4 -0.5,0.7 -1.2,1.4 -1.9,2.1 -0.7,0.7 -2.1,1.7 -3,2.5 -0.9,0.8 -1.7,1.7 -2.7,2.6 -1,0.9 -1.9,1.7 -2.9,2.5 -1,0.8 -2,1.6 -3.1,2.4 -1.1,0.8 -2.1,1.5 -3.2,2.1 -1.1,0.6 -2.1,1.2 -3.1,1.8 -1,0.5 -2,0.9 -3,1.3 -0.8,0.3 -1.5,0.5 -2.3,0.7 -0.7,0.2 -1.5,0.3 -2.3,0.5 -0.7,0.1 -1.5,0.2 -2.2,0.2 -0.7,0 -1.4,0 -2.1,-0.1 -0.6,-0.1 -1.3,-0.2 -1.9,-0.4 -0.6,-0.2 -1.2,-0.4 -1.7,-0.7 -0.2,-0.2 -0.5,-0.3 -0.7,-0.5 l 0,0 c 2.5,4 8.9,4.3 15,2.1 7.7,-2.7 17.6,-11.4 22,-17.3 0.1,-0.4 0.3,-0.7 0.5,-1 0.5,-0.8 1,-1.6 1.4,-2.4 0.6,-1.3 1.1,-2.7 1.4,-4.1 0.1,-0.4 0.1,-0.8 0.1,-1.2 l 0,0 z"
         id="path209"
         inkscape:connector-curvature="0"
         style="fill:#b8854f" /><path
         d="m 853.9,401.9 0.2,2.5 c -0.2,1.4 -0.6,2.8 -1.3,4.1 -0.6,1.2 -1.4,2.3 -2.2,3.4 -0.7,0.9 -1.4,1.8 -2.1,2.6 -0.7,0.8 -1.4,1.5 -2.1,2.2 -1.8,1.8 -3.7,3.4 -5.6,5 -2,1.6 -4.1,3 -6.3,4.3 -1.3,0.8 -2.5,1.4 -3.5,1.9 -0.7,0.3 -1.5,0.7 -2.5,1.1 -1.3,0.5 -2.6,0.8 -3.9,1.1 -1.5,0.3 -3.1,0.4 -4.6,0.3 l 0,0 c -1.2,-0.1 -2.3,-0.4 -3.4,-0.9 -0.9,-0.4 -1.7,-1.1 -2.3,-2 -0.5,-0.8 -1,-1.8 -1.3,-2.7 l 0,0 c -0.4,-1 -0.7,-2.1 -0.9,-3.2 -0.1,-0.3 -0.1,-0.6 -0.2,-0.9 -0.1,-0.7 -0.1,-1.4 -0.1,-2.1 0,-0.4 0.1,-0.7 0.2,-1.1 0.1,-0.2 0.2,-0.5 0.3,-0.6 0.7,-0.9 1.5,-1.7 2.4,-2.4 1,-0.8 2,-1.5 3.1,-2.1 l 0,0 c 0.9,-0.5 1.8,-0.8 2.7,-1.1 0.9,-0.3 1.9,-0.5 2.9,-0.7 1.1,-0.2 2.2,-0.3 3.2,-0.5 1,-0.2 2,-0.2 3,-0.4 1,-0.2 2,-0.3 2.8,-0.5 0.8,-0.2 1.5,-0.3 1.9,-0.5 0.6,-0.2 1.4,-0.4 2.3,-0.8 1.6,-0.6 3.1,-1.2 4.6,-2 1,-0.5 1.9,-1.2 2.8,-1.9 0.7,-0.6 1.3,-1.2 2,-1.8 l 0,0 c 0.7,-0.7 1.5,-1.3 2.3,-1.8 0.7,-0.5 1.5,-0.7 2.3,-0.7 0.6,0 1.1,0.2 1.6,0.6 l 0.7,0.9 c 0.5,0.6 0.8,0.9 0.9,0.9 l 0,0 c 0.7,-0.5 0.7,-0.5 0,0 l 0,0 c -0.3,-0.8 -0.7,-1.5 -1.3,-2.1 -0.2,-0.2 -0.5,-0.4 -0.8,-0.6 -0.3,-0.2 -0.7,-0.3 -1.1,-0.4 -0.5,-0.1 -0.9,-0.1 -1.4,0 -0.5,0.1 -1,0.3 -1.5,0.5 -0.9,0.5 -1.8,1.1 -2.7,1.7 -0.7,0.5 -1.4,1.1 -2,1.6 -0.8,0.6 -1.7,1.1 -2.6,1.5 -1.4,0.7 -2.9,1.2 -4.5,1.7 -2.2,0.7 -4.3,1.1 -6,1.5 l -0.7,0.1 c -2,0.4 -4.1,0.7 -6.2,1.3 -2,0.5 -4,1.3 -5.8,2.4 -1.1,0.7 -2.2,1.5 -3.1,2.4 -0.9,0.8 -1.7,1.7 -2.4,2.7 -0.2,0.3 -0.4,0.6 -0.4,0.9 -0.1,0.4 -0.2,0.8 -0.2,1.2 0,1 0,2.1 0.2,3.1 0.1,0.4 0.1,0.8 0.2,1.1 0.1,0.8 0.3,1.5 0.6,2.3 0.3,1 0.7,2.1 1.3,3 l 0,0 c 0.3,0.5 0.7,1 1.1,1.4 0.5,0.4 1,0.8 1.5,1.1 1.2,0.6 2.5,1 3.8,1.2 1.6,0.2 3.1,0.2 4.7,0 1.6,-0.2 3.1,-0.6 4.6,-1.1 l 0,0 c 2.2,-0.8 4.3,-1.8 6.3,-3.1 1.7,-1 3.2,-2.1 4.7,-3.4 0.5,-0.4 1,-0.8 1.5,-1.3 1.9,-1.7 3.7,-3.5 5.4,-5.4 l 0,0 c 1.5,-1.6 2.8,-3.3 4,-5.1 0.5,-0.7 0.9,-1.5 1.3,-2.2 0.4,-0.7 0.7,-1.4 1,-2.1 0.3,-0.6 0.5,-1.3 0.6,-1.9 0.1,-0.5 0.2,-1.1 0.3,-1.6 l -0.3,-2.6 0,0 z"
         id="path211"
         inkscape:connector-curvature="0" /><path
         class="st31"
         d="m 817.7,421 c 0,0.9 0.8,1.7 1.7,1.6 0,0 0,0 0,0 0.2,0 0.4,0.1 0.5,0.4 0.1,1.2 1.1,2.2 2.4,2.1 0,0 0,0 0,0 1.2,-0.1 2.6,-1.2 2.1,-2.4 -0.8,-1.9 -0.4,-2.8 -0.2,-4.4 0,-1.2 -0.9,-2.1 -2.1,-2.1 -0.1,0 -0.2,0 -0.3,0 -1.2,0.1 -2.2,1.1 -2.1,2.4 0,0 0,0 0,0 0,0.3 0.1,0.5 -0.4,0.6 -0.9,0.1 -1.6,0.9 -1.6,1.8 z"
         id="path213"
         inkscape:connector-curvature="0"
         style="fill:#834317;stroke:#000000;stroke-width:1.66999996" /><circle
         transform="matrix(0.9986,-0.05285883,0.05285883,0.9986,-21.2813,43.7945)"
         class="st32"
         cx="817.29999"
         cy="424.20001"
         id="ellipse215"
         r="1.4"
         style="fill:#834317;stroke:#000000;stroke-width:3.3599999" /><circle
         transform="matrix(0.9986,-0.05285883,0.05285883,0.9986,-21.0638,43.6957)"
         class="st33"
         cx="815.5"
         cy="420.10001"
         id="ellipse217"
         r="1.3"
         style="fill:#834317;stroke:#000000;stroke-width:3.77999997" /><circle
         transform="matrix(0.9986,-0.05285883,0.05285883,0.9986,-20.8747,43.8124)"
         class="st34"
         cx="817.79999"
         cy="416.5"
         id="ellipse219"
         r="1.4"
         style="fill:#834317;stroke:#000000;stroke-width:2.63000011" /></g><path
       class="st29"
       d="m 815.2,435.9 c 0,0 2.8,6 3,9.1 0.2,3.1 -3.3,8 -3.8,9.9 -0.5,1.9 -5,8.6 -5,8.6 l 12,-0.1 5.9,-22 -1.4,-6.3 c -0.8,0 -1.5,-0.2 -2.3,-0.4 -2,-0.3 -4.1,-0.2 -6,0.4 -0.7,0.4 -1.5,0.7 -2.4,0.8 l 0,0 z"
       id="path221"
       inkscape:connector-curvature="0"
       style="fill:#a06121" /><path
       d="m 806.9,464.3 c 0.8,0 1.7,0 2.5,0.1 0.7,0.1 1.3,0.2 2,0.3 0.2,0 0.4,0.1 0.6,0.1 0.3,0 0.6,0 0.9,-0.1 0.7,-0.1 1.5,-0.3 2.3,-0.5 0.8,-0.2 1.6,-0.5 2.1,-0.6 0,0 -0.6,-0.1 -1.5,-0.3 -0.9,-0.2 -2,-0.2 -3,-0.3 -0.5,0 -1,-0.1 -1.4,-0.1 -0.2,0 -0.5,0 -0.8,0 l -1.3,0.5 -2.4,0.9 0,0 z"
       id="path223"
       inkscape:connector-curvature="0" /><path
       class="st29"
       d="m 804,431.5 c 7.8,-1.2 14.6,6.7 14.4,16.2 -0.2,9.8 -7.9,17.9 -14.2,16.8 -4.5,-0.8 -9,-1.9 -10.7,-7.9 -0.6,-3.1 -0.9,-6.2 -0.7,-9.3 0.9,-9.2 5.2,-14.9 11.2,-15.8 l 0,0 z"
       id="path225"
       inkscape:connector-curvature="0"
       style="fill:#a06121" /><path
       d="m 812.6,460.4 c -0.4,0.7 -1,1.4 -1.6,2 -0.6,0.5 -1.2,0.9 -1.9,1.2 -1,0.4 -2,0.6 -3.1,0.5 -1.4,0 -2.7,-0.2 -4.1,-0.6 -1.1,-0.3 -2.1,-0.7 -3,-1.3 -0.5,-0.3 -1,-0.7 -1.5,-1.2 -0.4,-0.4 -0.8,-0.8 -1.1,-1.2 -0.4,-0.6 -0.8,-1.2 -1.1,-1.9 -0.2,-0.5 -0.4,-1.1 -0.6,-1.7 -0.1,-0.3 -0.2,-0.6 -0.2,-0.9 0,-0.3 -0.1,-0.6 -0.2,-0.9 -0.1,-0.7 -0.2,-1.5 -0.3,-2.4 -0.2,-1.6 -0.3,-3.1 -0.2,-4.7 0.1,-1 0.2,-2 0.4,-3 0.2,-0.9 0.4,-1.8 0.6,-2.8 0.2,-0.7 0.5,-1.5 0.8,-2.2 0.3,-0.6 0.5,-1.1 0.7,-1.4 0.4,-0.7 0.8,-1.4 1.3,-2 0.5,-0.6 1.1,-1.2 1.7,-1.7 0.7,-0.6 1.4,-1.1 2.2,-1.5 0.7,-0.3 1.5,-0.6 2.2,-0.8 0.8,-0.2 1.5,-0.2 2.3,-0.2 0.9,0 1.7,0.2 2.5,0.5 0.7,0.2 1.3,0.5 1.9,0.9 0.6,0.4 1,0.7 1.3,0.9 0.4,0.3 0.8,0.6 1.2,0.9 0.5,0.4 0.9,0.9 1.3,1.4 0.6,0.7 1.1,1.4 1.5,2.2 0.5,0.9 0.9,1.7 1.2,2.7 0.3,0.9 0.6,1.9 0.7,2.8 0.2,0.9 0.3,1.8 0.3,2.7 0,0.3 0,0.6 0.1,0.8 0,0.1 0.1,0.1 0.1,-0.1 0.2,-0.8 0.3,-1.7 0.3,-2.5 0,-1.6 -0.1,-3.1 -0.5,-4.6 -0.2,-0.9 -0.5,-1.8 -0.9,-2.6 -0.4,-0.9 -0.8,-1.7 -1.4,-2.5 l 0,0 c -0.6,-0.9 -1.2,-1.6 -2,-2.3 -0.7,-0.6 -1.4,-1.2 -2.3,-1.6 -0.3,-0.2 -0.7,-0.3 -1,-0.5 -3.1,-1.2 -6.7,-0.9 -9.6,0.9 -1.5,1 -2.8,2.2 -3.9,3.7 -0.7,1.1 -1.4,2.2 -2,3.4 -0.5,1 -1,2.1 -1.4,3.1 -0.3,0.7 -0.5,1.5 -0.7,2.4 -0.2,0.9 -0.4,1.8 -0.5,2.8 -0.2,1.7 -0.3,3.3 -0.1,5 0,0.9 0.1,1.7 0.2,2.6 0.1,0.7 0.2,1.4 0.4,2.1 0.2,0.8 0.6,1.6 1,2.3 0.3,0.6 0.7,1.2 1.2,1.8 0.3,0.4 0.7,0.8 1.1,1.1 0.7,0.5 1.4,1 2.2,1.4 1.2,0.6 2.4,0.9 3.6,1.1 1.4,0.2 2.7,0.3 4.1,0.2 1.1,0 2.2,-0.3 3.3,-0.8 0.6,-0.3 1.1,-0.7 1.6,-1.1 0.4,-0.4 0.7,-0.8 1,-1.2 0.2,-0.3 0.4,-0.6 0.6,-0.9 l 0.3,-0.3 0,0 z"
       id="path227"
       inkscape:connector-curvature="0" /><path
       class="st35"
       d="m 795.8,461 c 1,1.4 2.5,1.5 3.8,0.2 2,-1.8 3.1,-6.5 2.5,-10.3 -0.6,-3.8 -2.7,-6.7 -4.7,-4.9 -2,1.8 -3.3,7.7 -2.6,11.5 0,1.2 0.4,2.4 1,3.5 l 0,0 z"
       id="path229"
       inkscape:connector-curvature="0"
       style="fill:#834317" /><path
       d="m 795.4,461 c 0.2,0.4 0.6,0.7 0.9,0.9 0.4,0.3 0.8,0.4 1.2,0.5 0.5,0 1,0 1.4,-0.2 0.4,-0.2 0.7,-0.4 1,-0.7 0.4,-0.4 0.8,-0.8 1.1,-1.3 0.3,-0.4 0.5,-0.8 0.7,-1.2 0.3,-0.7 0.6,-1.4 0.8,-2.1 0.2,-0.6 0.3,-1.2 0.5,-1.8 0.1,-0.5 0.2,-0.9 0.2,-1.4 0,-0.4 0,-0.8 0,-1.3 -0.1,-0.6 -0.1,-1.1 -0.3,-1.7 -0.2,-0.9 -0.5,-1.8 -0.9,-2.6 -0.2,-0.4 -0.4,-0.8 -0.7,-1.2 -0.2,-0.3 -0.5,-0.6 -0.8,-0.9 -0.2,-0.2 -0.4,-0.4 -0.6,-0.5 -0.2,-0.1 -0.4,-0.2 -0.5,-0.3 -0.2,-0.1 -0.3,-0.1 -0.5,-0.1 -0.3,0 -0.6,0 -0.9,0.1 -0.4,0.1 -0.7,0.3 -1,0.5 -0.3,0.3 -0.7,0.6 -0.9,1 -0.3,0.4 -0.5,0.8 -0.8,1.2 -0.5,1 -1,2 -1.3,3.1 -0.2,0.6 -0.4,1.3 -0.4,2 0,0.5 0,1.2 0,2.1 0,0.9 0.1,1.9 0.3,2.8 0.2,0.5 0.3,1 0.6,1.5 0.2,0.5 0.5,0.9 0.8,1.3 0.1,0.1 0.2,0.3 0.3,0.4 l 0,0 0,0 c -0.1,-0.4 -0.3,-0.7 -0.4,-1.1 -0.1,-0.3 -0.1,-0.7 -0.1,-1 0,-0.4 0,-0.8 0,-1.2 0,-0.5 0.1,-1 0.1,-1.5 0,-0.5 0.1,-1 0.2,-1.5 0.2,-1 0.4,-1.9 0.4,-2.6 0,-0.2 0,-0.4 0,-0.6 0.1,-1 0.3,-2 0.6,-3 0.1,-0.4 0.3,-0.8 0.4,-1.1 0.2,-0.3 0.4,-0.6 0.6,-0.9 0.2,-0.2 0.4,-0.3 0.6,-0.5 0.2,-0.1 0.4,-0.1 0.6,-0.1 0.2,0 0.3,0.1 0.5,0.2 0.1,0.1 0.3,0.2 0.4,0.3 0.1,0.1 0.2,0.3 0.3,0.4 0.2,0.2 0.3,0.5 0.5,0.8 0.2,0.3 0.3,0.7 0.4,1 0.2,0.9 0.4,1.8 0.5,2.7 0.1,1 0.1,2.1 0,3.1 -0.1,1 -0.3,1.8 -0.3,2.4 l 0,0.2 c -0.1,0.7 -0.2,1.3 -0.3,2 -0.1,0.4 -0.2,0.8 -0.4,1.2 -0.2,0.4 -0.4,0.8 -0.7,1.1 l 0,0 c -0.2,0.3 -0.5,0.6 -0.9,0.8 -0.3,0.2 -0.7,0.3 -1.1,0.3 -0.3,0 -0.7,-0.1 -1,-0.2 -0.2,-0.1 -0.5,-0.2 -0.7,-0.4 -0.1,-0.1 -0.3,-0.2 -0.4,-0.4 l 0,-0.5 0,0 z"
       id="path231"
       inkscape:connector-curvature="0" /><path
       class="st31"
       d="m 806.8,437.9 c -0.7,1.1 -1.1,2.3 -1.3,3.6 -0.4,2.2 -0.2,3.7 0.7,3.5 0.9,-0.2 2,-1.9 2.5,-4.1 0.5,-2.2 -0.1,-4 -1,-3.7 -0.4,0.1 -0.7,0.4 -0.9,0.7 l 0,0 z"
       id="path233"
       inkscape:connector-curvature="0"
       style="fill:#834317;stroke:#000000;stroke-width:1.66999996" /><path
       class="st31"
       d="m 803.7,435.1 c -0.7,0.7 -1.3,1.5 -1.6,2.5 -0.8,1.8 -1,3.5 -0.5,4.1 0.5,0.6 1.6,-0.1 2.4,-1.9 0.8,-1.8 0.9,-4.1 0.4,-4.6 -0.2,-0.2 -0.5,-0.2 -0.7,-0.1 l 0,0 z"
       id="path235"
       inkscape:connector-curvature="0"
       style="fill:#834317;stroke:#000000;stroke-width:1.66999996" /><path
       class="st31"
       d="m 799.3,435.4 c -0.6,0.6 -1,1.3 -1.2,2.2 -0.5,1.6 -0.6,3.1 -0.1,3.6 0.5,0.5 1.3,0 1.9,-1.6 0.6,-1.6 0.5,-3.6 0,-4.1 -0.2,-0.2 -0.5,-0.2 -0.6,-0.1 l 0,0 z"
       id="path237"
       inkscape:connector-curvature="0"
       style="fill:#834317;stroke:#000000;stroke-width:1.66999996" /><path
       d="m 803,432.7 1,0.1 c 0.7,0.2 1.4,0.5 2,0.9 0.5,0.3 0.9,0.7 1.3,1.2 0.3,0.4 0.6,0.8 0.8,1.3 0.2,0.5 0.4,1.1 0.6,1.6 0.1,0.4 0.2,0.9 0.2,1.3 0.1,0.8 0.1,1.4 0.1,2 0,0 0,0.1 0,0.1 0,0.7 0.1,1.9 0.2,3.2 0.1,1.3 0.1,2.7 0.1,3.8 0,0.8 0,1.5 0,1.9 -0.1,0.7 -0.2,1.5 -0.4,2.2 -0.3,1.1 -0.6,2.2 -1,3.2 -0.3,0.8 -0.6,1.6 -0.9,2.2 -0.3,0.6 -0.5,1.1 -0.6,1.4 -0.3,0.7 -0.6,1.5 -1.1,2.1 -0.5,0.7 -1,1.3 -1.7,1.8 -0.5,0.4 -1.1,0.6 -1.8,0.7 -0.3,0 -0.4,0.1 -0.4,0.1 0,0 0.1,0.1 0.3,0.2 0.3,0.1 0.7,0.1 1,0.1 0.5,0 1,-0.1 1.4,-0.3 0.5,-0.2 0.9,-0.4 1.3,-0.7 0.4,-0.3 0.8,-0.6 1.2,-1 0.5,-0.5 1,-1.2 1.4,-1.8 0.3,-0.5 0.6,-1.1 0.8,-1.8 0.2,-0.9 0.4,-1.8 0.5,-2.8 0.2,-1.3 0.3,-2.6 0.4,-3.8 0.1,-1.2 0.1,-2.1 0.3,-2.7 0,-0.3 0.1,-0.7 0.2,-1.2 l 0,0 c 0.2,-0.9 0.3,-2 0.5,-3.3 0.2,-1.3 0.2,-2.6 0.2,-3.8 0,-0.7 0,-1.4 -0.2,-2.1 -0.1,-0.5 -0.2,-1 -0.4,-1.5 -0.3,-0.7 -0.7,-1.4 -1.1,-2 -0.4,-0.5 -0.8,-1 -1.3,-1.4 -0.5,-0.4 -1,-0.7 -1.6,-1 -0.4,-0.2 -0.8,-0.3 -1.3,-0.4 -0.3,-0.1 -0.7,-0.1 -1,-0.1 l -1,0.3 0,0 z"
       id="path239"
       inkscape:connector-curvature="0" /><path
       class="st29"
       d="m 881.7,444.9 c 0,0 5,-4.3 8,-0.9 3,3.4 -2.1,12.4 -7.4,13.9 -5.3,1.5 -5.4,-0.3 -5.4,-0.3"
       id="path241"
       inkscape:connector-curvature="0"
       style="fill:#a06121" /><path
       class="st29"
       d="m 872.4,387.4 c 9.4,16.4 9.9,42.6 9.8,53.2 -0.1,7.8 -6.3,22.3 -16.9,25.6 -4.2,1.3 -25.6,12 -30.7,9.8 -8,-3.5 0.6,-22.7 -2.5,-24.4 -10.1,-5.7 -4.7,-23.1 -2.8,-29.6 2.3,-8.3 21.1,-29 39.5,-38.7"
       id="path243"
       inkscape:connector-curvature="0"
       style="fill:#a06121" /><path
       class="st36"
       d="m 837,414.4 c -4.7,0.2 -6.8,4.1 -9,11.8 -2.6,8.8 -2.4,20.1 2.3,22.9 4.7,2.8 10.4,-0.8 13,-9.6 2.6,-8.8 2.5,-22.5 -2.1,-24.5 -1.4,-0.3 -2.8,-0.6 -4.2,-0.6 l 0,0 z"
       id="path245"
       inkscape:connector-curvature="0"
       style="fill:#956c45;stroke:#000000;stroke-width:2.82999992" /><path
       d="m 830.5,448.3 c -0.3,-0.4 -0.5,-0.9 -0.7,-1.4 -0.2,-0.5 -0.4,-1 -0.5,-1.5 -0.1,-0.6 -0.2,-1.2 -0.1,-1.8 0,-0.5 0.1,-1 0.1,-1.5 0,-0.5 0,-1 0,-1.6 0,-1 0.2,-2.1 0.3,-3.2 0.1,-1.1 0.3,-2.2 0.5,-3.4 0.2,-1.3 0.5,-2.6 0.8,-3.8 0.3,-1.2 0.6,-2.5 1,-3.6 0.5,-1.5 1.1,-2.9 1.7,-4.3 0.6,-1.2 1.1,-2.1 1.4,-2.7 0.5,-0.8 1,-1.6 1.6,-2.4 0.3,-0.4 0.6,-0.7 1,-1 0.4,-0.4 0.8,-0.7 1.2,-1 0.9,-0.7 1.8,-1.3 2.8,-1.8 0.8,-0.5 1.6,-0.9 2.5,-1.4 0.3,-0.1 0.5,-0.3 0.8,-0.5 l 0.3,-0.2 c 0.1,-0.1 0.1,-0.1 0.2,-0.2 l 2.2,-4.5 c 0.5,-1.4 1.2,-2.7 2,-3.9 l 0.2,-0.3 c 0.2,-0.3 0.4,-0.5 0.5,-0.7 l 0.2,-0.3 0,-0.1 -0.1,-0.1 0,0 0,0 0,0 0,0 0,0 0.1,0.1 -0.1,0.1 -0.3,0.3 c -0.3,0.3 -0.6,0.7 -0.8,1 -0.4,0.5 -0.7,1.1 -1.1,1.6 -0.4,0.7 -0.8,1.5 -1.1,2.3 l -2.3,4.5 0,0 -0.1,0.1 0,0 -0.2,0.1 0,0 c -0.3,0.2 -0.5,0.3 -0.8,0.4 -0.8,0.4 -1.7,0.9 -2.5,1.3 -1,0.5 -2,1.1 -2.9,1.8 -0.9,0.6 -1.7,1.3 -2.3,2.1 -1.5,1.9 -2.7,4 -3.6,6.3 -0.5,1.1 -0.8,2.2 -1.2,3.4 -0.7,2.5 -1.3,5 -1.6,7.5 -0.3,2.2 -0.6,4.4 -0.7,6.7 0,1.1 0,2.1 -0.1,3.1 -0.1,0.6 0,1.2 0.1,1.8 0.1,0.5 0.3,1.1 0.5,1.6 0.3,0.6 0.5,1.2 0.9,1.7 0.3,0.5 0.6,1 0.9,1.3 l 0.1,0.1 c 0.8,1 1.7,1.9 2.7,2.8 -0.8,-1.1 -1.7,-2.1 -2.6,-3.1 -0.2,-0.6 -0.6,-1.2 -0.9,-1.7 l 0,0 z"
       id="path247"
       inkscape:connector-curvature="0" /><path
       d="m 846.1,412 c -0.4,0 -0.8,-0.1 -1.1,-0.1 -0.5,-0.1 -1,-0.2 -1.3,-0.2 l -0.1,0 c -0.3,0 -0.6,0 -0.9,0 -0.3,0 -0.7,-0.1 -1,-0.2 -0.1,0 -0.2,0 -0.1,0.1 0.1,0.1 0.3,0.2 0.5,0.3 0.3,0.1 0.5,0.2 0.8,0.3 0.3,0.1 0.6,0.1 0.8,0.1 l 0.2,0 1.4,-0.1 c 0.3,0 0.7,0 1,0 0.2,0 0.3,0 0.3,-0.1 0,-0.1 -0.2,-0.1 -0.5,-0.1 l 0,0 z"
       id="path249"
       inkscape:connector-curvature="0" /><path
       d="m 846.9,409.8 c -0.3,0 -0.5,-0.1 -0.8,-0.2 -0.3,-0.1 -0.5,-0.2 -0.8,-0.2 l 0,0 c -0.4,0 -0.8,-0.1 -1.2,-0.1 -0.2,0 0,0.1 0.2,0.3 0.3,0.2 0.6,0.4 0.9,0.5 0.1,0 0.2,0 0.3,0 l 0.9,-0.1 c 0.2,0 0.4,0 0.7,0 0.1,0 0.2,0 0.2,-0.1 0,-0.1 -0.1,-0.1 -0.4,-0.1 l 0,0 z"
       id="path251"
       inkscape:connector-curvature="0" /><path
       d="m 871.8,387.7 c 1.3,2.3 2.4,4.6 3.4,7 0.9,2.2 1.7,4.3 2.3,6.2 l 0,0 c 0.8,2.6 1.5,5.3 2.1,8 0.5,2.3 0.8,4.3 1,6.1 0.3,2 0.4,3.6 0.5,5 0.1,1.4 0.2,2.6 0.3,3.8 0.1,1.2 0.2,2.8 0.3,4.6 0.1,1.6 0.1,3.5 0.1,5.4 0,1.9 -0.1,3.9 -0.3,5.8 -0.1,1.4 -0.3,2.8 -0.5,4.1 -0.2,1.3 -0.4,2.3 -0.6,3.2 -0.2,0.9 -0.4,1.8 -0.6,2.5 -0.1,0.5 -0.3,0.9 -0.3,1.2 0,0.3 -0.4,1.2 -0.8,2 -0.4,1 -0.9,2 -1.4,2.9 -0.5,0.9 -1.1,1.9 -1.8,2.7 -0.7,0.9 -1.5,1.8 -2.4,2.6 l 0,0 c -1.1,1 -2.3,1.9 -3.6,2.6 -1.6,1 -3.3,1.8 -4.8,2.5 -2.7,1.3 -5,2.2 -6.1,2.7 -1.1,0.5 -3,1.3 -5.2,2.2 -1.6,0.6 -3.3,1.3 -5.2,1.9 -1.9,0.6 -3.7,1.3 -5.6,1.8 -1.4,0.4 -2.8,0.8 -4.1,1.2 l -1.4,0.4 c -0.6,0.1 -1,0.2 -1.2,0.3 -0.2,0.1 -0.2,0.1 0,0.1 0.3,0 0.6,0 1,0 0.5,0 1.1,-0.1 1.8,-0.2 1.2,-0.2 2.6,-0.4 4.3,-0.8 1.7,-0.4 3.5,-0.8 5.4,-1.3 1.9,-0.5 3.8,-1.1 5.7,-1.7 1.9,-0.6 3.5,-1.2 5,-1.8 1.5,-0.6 3,-1.3 4.1,-1.9 0.8,-0.4 1.5,-0.8 2.3,-1.2 1.6,-0.9 3.2,-1.9 4.8,-3 1.3,-0.9 2.5,-1.9 3.7,-3 1.6,-1.7 3,-3.7 4,-5.8 l 0,0 c 1,-2.1 1.8,-4.2 2.4,-6.4 l 0.2,-0.7 c 0.3,-1 0.8,-2.8 1.3,-5 0.3,-1.2 0.5,-2.6 0.7,-4.1 l 0,0 c 0.3,-1.7 0.5,-3.6 0.6,-5.5 0.1,-1.9 0.2,-3.9 0.1,-5.8 l 0,0 c 0,-2.7 -0.2,-5.3 -0.4,-7.7 -0.2,-2.4 -0.5,-4.4 -0.8,-6 -0.1,-0.4 -0.2,-0.8 -0.2,-1.1 -0.3,-1.4 -0.8,-3.5 -1.5,-5.7 -0.7,-2.2 -1.5,-4.8 -2.4,-7.2 -0.7,-1.7 -1.4,-3.4 -2.1,-5 -0.7,-1.6 -1.4,-3 -2.1,-4.1 -0.7,-1.1 -1.2,-2.1 -1.6,-2.8 -0.4,-0.7 -0.4,-0.9 -0.4,-1 l 0,0 z m -45.2,50.6 c 0,-1.9 0.1,-3.7 0.2,-5.6 0.1,-1.5 0.4,-3 0.8,-4.4 l 0,0 c 0.3,-1.2 0.8,-2.4 1.3,-3.6 0.5,-1 0.9,-1.9 1.3,-2.7 0.4,-0.8 0.8,-1.4 1.1,-1.9 0.3,-0.5 0.7,-1 1,-1.5 l 1.1,-1.5 c 0.5,-0.7 1.1,-1.7 2,-2.9 0.7,-0.9 1.4,-2 2.1,-3 0.7,-1 1.5,-2.1 2.3,-3.1 1.5,-2 2.9,-3.6 3.5,-4.4 l 0.4,-0.5 c 0.5,-0.6 1.3,-1.4 2.3,-2.3 1,-0.9 2.1,-1.9 3.3,-2.9 1.2,-1 2.4,-2 3.5,-2.9 1.1,-0.9 2.2,-1.7 2.9,-2.3 0.5,-0.4 0.8,-0.6 1.1,-0.9 1,-0.9 2.8,-2.4 5,-3.8 1.1,-0.7 2.2,-1.5 3.3,-2.1 1.1,-0.6 2.2,-1.3 3.2,-1.8 0.5,-0.2 0.7,-0.4 0.7,-0.4 0,0 -0.2,0 -0.5,0 -1.3,0.3 -2.5,0.8 -3.8,1.3 -1.9,0.8 -3.7,1.7 -5.4,2.7 -1.7,1 -3.3,2.1 -4.9,3.4 -0.3,0.3 -0.6,0.5 -0.8,0.7 -2,1.8 -3.9,3.8 -5.7,5.7 -1.8,1.9 -3.4,3.7 -4.6,5.1 -0.5,0.5 -0.9,1 -1.3,1.4 -0.6,0.6 -1.8,1.8 -3.3,3.4 -1.5,1.6 -3.2,3.5 -4.7,5.5 -1.2,1.5 -2.3,3.1 -3.2,4.5 l 0,0 c -0.5,0.7 -0.9,1.4 -1.2,2 -0.3,0.5 -0.6,1.1 -0.8,1.7 l 0,0.1 c -0.3,0.7 -0.7,1.7 -1,2.9 -0.4,1.3 -0.7,2.5 -1,3.8 -0.2,1.2 -0.3,2.4 -0.4,3.7 0,1.2 0,2.3 0,3.3 0,1 0.1,1.8 0.1,2.4 0,0.6 0.1,0.9 0.1,0.9 l 0,0 z"
       id="path253"
       inkscape:connector-curvature="0" /><g
       id="g4320"><path
         class="st29"
         d="m 874.1,392.8 c -1.3,-0.3 -2,0.4 -3,1 -1,0.6 -1.6,2.4 -2,2.8 l -0.2,0.1 c -1.6,3.9 -4.1,7.3 -7.2,10.1 -8.3,7.4 -16.7,7.5 -20.3,19.6 -0.7,2.2 3.2,8.2 6.6,10.6 4.2,3 10.8,0.6 16.1,-4.2 6.6,-6 13,-18.9 14.9,-26.7 0,-0.4 0,-0.8 0.1,-1.3 0.2,-1 0.3,-2 0.3,-3 0.1,-1.6 -0.1,-3.2 -0.4,-4.8 -0.4,-1.1 -1.1,-2.1 -1.9,-3 -0.8,-0.8 -1.6,-0.9 -3,-1.2 l 0,0 z"
         id="path256"
         inkscape:connector-curvature="0"
         style="fill:#a06121" /><path
         class="st30"
         d="m 878.4,395.8 c 0,0.8 -0.1,1.6 -0.2,2.5 -0.1,1 -0.2,2.1 -0.4,3.2 -0.2,1.1 -0.4,2.2 -0.8,3.2 -0.3,0.9 -0.6,1.9 -1,2.9 -0.4,1 -1.4,2.6 -1.9,3.8 -0.5,1.2 -1,2.5 -1.6,3.7 -0.6,1.2 -1.2,2.5 -1.9,3.8 -0.7,1.3 -1.4,2.5 -2.1,3.7 -0.7,1.2 -1.5,2.4 -2.3,3.5 -0.8,1.1 -1.6,2.1 -2.4,3.1 -0.8,0.9 -1.6,1.8 -2.5,2.6 -0.7,0.6 -1.3,1.1 -2,1.7 -0.7,0.5 -1.4,1 -2.1,1.4 -0.7,0.4 -1.4,0.8 -2.2,1.1 -0.7,0.3 -1.4,0.6 -2.2,0.8 -0.7,0.2 -1.4,0.3 -2.1,0.4 -0.7,0.1 -1.3,0.1 -2,0 -0.3,0 -0.6,-0.1 -0.9,-0.2 l 0,0 c 4.2,3 10.8,0.6 16.1,-4.2 6.6,-6 13,-18.9 14.9,-26.7 0,-0.4 0,-0.8 0.1,-1.3 0.2,-1 0.3,-2 0.3,-3 0.1,-1.6 -0.1,-3.2 -0.4,-4.8 0,-0.5 -0.2,-0.9 -0.4,-1.2 l 0,0 z"
         id="path258"
         inkscape:connector-curvature="0"
         style="fill:#b8854f" /><path
         d="m 877.4,394.1 1.3,2.4 c 0.4,1.5 0.5,3.1 0.4,4.7 -0.1,1.5 -0.4,2.9 -0.8,4.4 -0.3,1.2 -0.7,2.4 -1,3.5 -0.3,1.1 -0.8,2.1 -1.2,3.1 -1.1,2.5 -2.3,5 -3.6,7.4 -1.3,2.4 -2.9,4.8 -4.5,7 -1,1.3 -1.9,2.4 -2.8,3.4 -0.5,0.6 -1.2,1.3 -2.1,2.1 -1.1,1 -2.3,2 -3.5,2.8 -1.4,0.9 -2.9,1.7 -4.5,2.2 -1.2,0.4 -2.5,0.6 -3.8,0.5 -1.1,0 -2.3,-0.4 -3.2,-1 -0.9,-0.6 -1.8,-1.4 -2.5,-2.2 -0.8,-0.9 -1.6,-1.9 -2.3,-2.9 -0.2,-0.3 -0.4,-0.6 -0.5,-0.8 -0.1,-0.2 -0.3,-0.5 -0.5,-0.9 -0.2,-0.4 -0.4,-0.8 -0.5,-1.2 -0.1,-0.4 -0.2,-0.8 -0.2,-1.2 0,-0.3 0,-0.5 0,-0.8 0.4,-1.2 0.8,-2.3 1.4,-3.4 0.6,-1.2 1.4,-2.4 2.3,-3.5 l 0,0 c 0.7,-0.8 1.4,-1.6 2.3,-2.3 0.8,-0.7 1.7,-1.3 2.6,-1.9 l 0,0 c 1,-0.7 2,-1.3 3,-1.8 1,-0.5 2,-1.1 2.8,-1.6 0.8,-0.5 1.9,-1.2 2.7,-1.7 0.8,-0.5 1.3,-1 1.7,-1.3 0.4,-0.3 1.2,-1 2,-1.7 0.6,-0.5 1.2,-1.1 1.8,-1.8 0.7,-0.7 1.4,-1.4 2,-2.2 0.8,-1 1.4,-2 2,-3.1 0.5,-0.9 0.8,-1.8 1.2,-2.6 0.5,-1 1,-1.9 1.6,-2.8 0.5,-0.8 1.2,-1.4 2.1,-1.7 0.6,-0.2 1.3,-0.2 1.9,0 0.4,0.1 0.7,0.2 1.1,0.4 l 0.5,0.3 c 0.5,0.3 0.7,0.4 0.7,0.4 l 0,0 c 0.5,-0.7 0.5,-0.7 0,0 l 0,0 c 0,0 -0.2,-0.3 -0.5,-0.6 -0.2,-0.2 -0.4,-0.3 -0.7,-0.5 -0.3,-0.2 -0.6,-0.3 -0.9,-0.5 -0.3,-0.1 -0.7,-0.2 -1.1,-0.2 -0.4,0 -0.8,0 -1.2,0.1 -0.5,0.1 -1,0.3 -1.4,0.6 -0.5,0.3 -0.9,0.7 -1.3,1.2 -0.7,0.9 -1.4,1.8 -1.9,2.9 -0.5,0.8 -0.9,1.7 -1.4,2.5 -0.6,1 -1.3,1.9 -2,2.7 -1.2,1.3 -2.5,2.5 -3.8,3.6 -1.7,1.4 -3.6,2.8 -5.5,4 l -0.6,0.4 c -1.8,1.2 -3.8,2.5 -5.7,3.9 l 0,0 c -1.9,1.3 -3.5,3 -4.9,4.8 -0.8,1.2 -1.6,2.4 -2.1,3.7 -0.5,1.2 -1,2.4 -1.3,3.7 -0.1,0.4 -0.1,0.7 0,1.1 0.1,0.4 0.2,0.9 0.3,1.3 0.4,1 0.9,2.1 1.5,3 0.2,0.4 0.5,0.7 0.7,1 0.5,0.7 1,1.4 1.5,2 0.7,0.9 1.6,1.8 2.5,2.5 0.5,0.4 1.1,0.7 1.7,0.9 0.6,0.3 1.3,0.4 2,0.5 1.5,0.1 2.9,0 4.3,-0.4 1.7,-0.5 3.2,-1.1 4.7,-2 1.5,-0.9 2.9,-1.9 4.2,-3 1.9,-1.7 3.6,-3.7 5.1,-5.8 1.2,-1.7 2.4,-3.5 3.3,-5.4 0.3,-0.6 0.6,-1.3 1,-2 1.2,-2.5 2.3,-5.1 3.2,-7.7 l 0,0 c 0.8,-2.2 1.4,-4.5 1.9,-6.8 0.2,-0.9 0.3,-1.9 0.4,-2.7 0.1,-0.8 0.1,-1.6 0.1,-2.5 0,-0.7 -0.1,-1.5 -0.2,-2.2 -0.1,-0.6 -0.2,-1.2 -0.4,-1.8 l -1.4,-2.5 0,0 z"
         id="path260"
         inkscape:connector-curvature="0" /><path
         d="m 845.3,428.8 c 0,0.1 0,0.2 0,0.4 -0.1,0.2 -0.1,0.3 -0.3,0.4 -0.2,0.2 -0.3,0.3 -0.5,0.4 -0.2,0.1 -0.4,0.2 -0.7,0.3 -0.6,0.2 -1.1,0.3 -1.7,0.3 l -0.5,0 c -0.7,0 -1.3,-0.2 -1.9,-0.4 -0.2,-0.1 -0.4,-0.2 -0.6,-0.4 -0.1,-0.1 -0.1,-0.1 -0.2,-0.2 0,0 0,-0.1 0,-0.1 0,-0.1 0,-0.1 0,-0.1 l 0,0 0,0 0,0 c 0,0 0,0 0,-0.1 l 0,0 c 0,0 0,-0.1 0,-0.1 0,-0.1 0.1,-0.1 0.2,-0.2 0.2,-0.2 0.4,-0.3 0.6,-0.4 0.6,-0.2 1.2,-0.3 1.9,-0.4 l 0.5,0 c 0.5,0 1,0 1.5,0.1 0.2,0 0.4,0.1 0.6,0.1 0.2,0 0.3,0.1 0.5,0.2 0.1,0.1 0.2,0.1 0.3,0.2 0.1,-0.1 0.2,-0.1 0.3,0 l 0,0 z"
         id="path262"
         inkscape:connector-curvature="0" /><path
         d="m 844,424.9 c 0.1,0.2 0.1,0.5 0,0.7 -0.2,0.3 -0.5,0.6 -0.8,0.8 -0.3,0.2 -0.7,0.4 -1.1,0.5 l -0.4,0.1 c -0.5,0.1 -1,0.1 -1.5,0 -0.2,-0.1 -0.4,-0.1 -0.5,-0.3 -0.1,-0.1 -0.1,-0.1 -0.2,-0.2 l -0.1,-0.1 0,-0.1 0,0 0,0 0,0 0,-0.1 c 0,0 0,-0.1 0,-0.1 0,-0.1 0,-0.2 0.1,-0.2 0.1,-0.2 0.2,-0.3 0.3,-0.5 0.4,-0.3 0.8,-0.6 1.2,-0.7 l 0.4,-0.1 c 0.4,-0.1 0.7,-0.2 1.1,-0.2 0.3,0 0.6,0 0.9,0.1 0.3,0.1 0.5,0.2 0.6,0.4 l 0,0 z"
         id="path264"
         inkscape:connector-curvature="0" /><path
         d="m 847.4,434.5 c 0.2,0.3 0.2,0.7 0,1.1 -0.2,0.5 -0.6,0.9 -1,1.1 -0.3,0.2 -0.6,0.3 -1,0.4 -0.3,0.1 -0.6,0 -0.9,-0.1 -0.1,0 -0.2,-0.1 -0.3,-0.2 -0.1,-0.1 -0.1,-0.2 -0.2,-0.3 l 0,0 c 0,-0.1 0,-0.2 0,-0.3 0,-0.1 0,-0.2 0,-0.3 0.1,-0.3 0.2,-0.5 0.4,-0.7 0.2,-0.2 0.4,-0.4 0.7,-0.6 0.4,-0.2 0.8,-0.4 1.3,-0.4 0.3,-0.2 0.7,0 1,0.3 l 0,0 z"
         id="path266"
         inkscape:connector-curvature="0" /></g><g
       id="g4380"><g
         id="g4181"><path
           class="st29"
           d="m 844.8,352.3 c 0,0 -3.6,-1.9 -4,-2.7 -0.4,-0.8 -4.3,-7.1 -4.4,-10.5 -0.1,-3.4 0.1,-7.9 2,-10.7 1.9,-2.8 5.1,-5.6 6.4,-5.9 1.3,-0.3 4.6,1.9 5.2,2.9 0.6,1 4.9,7.4 5.2,8 0.3,0.6 -10.4,18.9 -10.4,18.9 l 0,0 z"
           id="path270"
           inkscape:connector-curvature="0"
           style="fill:#a06121" /><path
           class="st37"
           d="m 844.8,322.6 0,0 c -1.3,0.3 -4.5,3.1 -6.4,5.9 -1.9,2.8 -2,7.3 -2,10.7 0,3.4 3.8,9.6 4.3,10.5 0.5,0.9 4,2.7 4,2.7 l 1.2,-2.1 c -0.3,-0.2 -0.4,-0.2 -0.8,-0.4 -0.4,-0.2 -1,-0.6 -1.4,-0.9 -0.3,-0.2 -0.6,-0.5 -0.8,-0.8 -0.1,-0.2 -0.4,-0.8 -0.9,-1.5 -0.5,-0.7 -1,-1.7 -1.5,-2.8 -0.3,-0.5 -0.5,-1.1 -0.7,-1.6 -0.2,-0.5 -0.5,-1.1 -0.6,-1.6 -0.2,-0.5 -0.3,-1 -0.5,-1.5 -0.1,-0.5 -0.2,-0.9 -0.2,-1.4 0,-0.8 0,-1.8 0,-2.7 0,-1 0.1,-1.9 0.2,-2.9 0.1,-0.5 0.2,-1 0.3,-1.4 0.1,-0.4 0.2,-0.9 0.4,-1.3 0.1,-0.4 0.3,-0.8 0.5,-1.3 0.2,-0.4 0.4,-0.8 0.6,-1.1 0.5,-0.7 1,-1.4 1.6,-2 0.6,-0.6 1.2,-1.3 1.8,-1.8 0.4,-0.4 0.7,-0.5 0.9,-0.7 l 0,0 z"
           id="path272"
           inkscape:connector-curvature="0"
           style="fill:#6e4a25" /><path
           d="m 855.6,334.2 0,0 0,0 0,-0.1 -0.2,-0.4 c -0.2,-0.5 -0.4,-0.9 -0.6,-1.3 l 0,0 c -0.8,-1.6 -1.5,-2.9 -2.2,-4 -0.6,-1 -1.1,-1.8 -1.6,-2.5 -0.5,-0.7 -1,-1.3 -1.4,-1.8 -0.5,-0.6 -1.1,-1.2 -1.8,-1.7 -0.5,-0.5 -1.2,-0.8 -1.9,-1 -0.2,0 -0.3,-0.1 -0.5,-0.1 -0.3,0 -0.6,0 -0.9,0.1 -0.4,0.1 -0.7,0.3 -1.1,0.5 -0.4,0.3 -0.9,0.6 -1.2,1 -0.4,0.4 -0.8,0.9 -1.2,1.3 -0.4,0.5 -0.8,1.1 -1.2,1.7 -0.4,0.6 -0.7,1.1 -1,1.7 -0.6,1.1 -1,2 -1.2,2.5 -0.1,0.3 -0.4,0.8 -0.6,1.5 -0.2,0.5 -0.4,1.1 -0.5,1.6 -0.2,0.7 -0.3,1.3 -0.3,2 l 0,0 c -0.1,0.7 -0.1,1.3 -0.1,2 0,0.7 0,1.4 0.1,2 l 0,0 c 0.1,1.3 0.3,2.5 0.5,3.8 0.1,0.6 0.2,1.1 0.3,1.6 0.1,0.5 0.2,0.8 0.3,1.1 l 0,0 c 0.4,1 1,2 1.7,2.8 0.7,0.7 1.4,1.4 2.2,2 0.7,0.5 1.4,1 2.1,1.4 0.3,0.2 0.6,0.4 1,0.5 0.1,0.1 0.3,0.1 0.5,0.1 0.1,0 0,-0.1 0,-0.2 0,-0.1 -0.3,-0.2 -0.5,-0.4 l -0.8,-0.7 c -0.5,-0.5 -1.2,-1.1 -1.9,-1.9 -0.7,-0.7 -1.3,-1.5 -1.9,-2.3 -0.3,-0.4 -0.5,-0.8 -0.7,-1.2 -0.2,-0.4 -0.4,-0.8 -0.5,-1.2 -0.2,-0.7 -0.4,-1.3 -0.5,-1.9 l -0.1,-0.5 c -0.3,-1.1 -0.5,-2.2 -0.7,-3.4 -0.2,-1.2 -0.3,-2.5 -0.3,-3.7 l 0,0 c 0,-0.6 0.1,-1.2 0.2,-1.8 0.1,-0.5 0.2,-1 0.4,-1.5 0.3,-0.8 0.6,-1.6 1,-2.3 0.2,-0.4 0.6,-1.1 1.2,-1.8 0.6,-0.9 1.3,-1.7 2,-2.5 0.7,-0.7 1.4,-1.3 2.3,-1.8 0.3,-0.2 0.7,-0.3 1,-0.4 0.3,-0.1 0.6,-0.1 0.9,0 l 0,0 c 0.6,0.1 1.1,0.4 1.5,0.7 0.4,0.3 0.8,0.6 1,0.8 0.2,0.2 0.4,0.3 0.6,0.5 0.6,0.5 1.1,1 1.6,1.5 0.6,0.6 1.2,1.4 1.7,2.1 1,1.3 1.8,2.6 2.5,3.7 0.3,0.5 0.5,0.9 0.7,1.2 l 0.2,0.3 0,0 0,0.1 0,0 0,0 -0.1,0.3 z"
           id="path274"
           inkscape:connector-curvature="0" /><path
           class="st35"
           d="m 853.2,338.9 c -1.2,1.6 -2.2,3.2 -3.1,4.9 -0.6,1.5 -1.5,2.8 -2.5,4 -0.4,-0.1 -0.8,-0.2 -1.2,-0.4 -0.8,-1.3 -1.5,-2.8 -2.1,-4.2 -0.5,-1.6 -1.8,-3.1 -1.2,-5 0.6,-1.9 1.1,-5.1 2.4,-5.2 1.3,-0.2 2.6,-0.1 3.9,0.2 0.7,0.4 1.4,0.8 1.9,1.4 0.4,0.5 2.5,3.5 1.9,4.3 l 0,0 z"
           id="path276"
           inkscape:connector-curvature="0"
           style="fill:#834317" /><path
           class="st38"
           d="m 845.3,333.1 c -1.2,0.5 -1.7,3.3 -2.2,5.1 -0.5,1.8 0.7,3.3 1.2,5 0.6,1.5 1.3,2.9 2.1,4.2 0.4,0.2 0.8,0.3 1.2,0.4 0.3,-0.2 0.5,-0.5 0.7,-0.9 -0.2,0 -0.4,-0.1 -0.6,-0.1 -0.3,-0.1 -0.5,-0.2 -0.5,-0.2 0,0 -0.4,-0.6 -0.8,-1.5 -0.2,-0.4 -0.5,-0.9 -0.7,-1.4 -0.2,-0.4 -0.4,-0.9 -0.5,-1.4 -0.1,-0.4 -0.3,-0.8 -0.5,-1.2 -0.2,-0.4 -0.4,-0.8 -0.5,-1.2 -0.1,-0.2 -0.1,-0.4 -0.2,-0.6 -0.1,-0.2 -0.1,-0.4 -0.1,-0.6 -0.1,-0.4 0,-0.9 0.1,-1.3 0.1,-0.5 0.3,-1 0.4,-1.6 0.1,-0.6 0.3,-1.1 0.5,-1.7 0.1,-0.2 0.2,-0.5 0.3,-0.7 0,-0.1 0.1,-0.2 0.1,-0.3 l 0,0 z"
           id="path278"
           inkscape:connector-curvature="0"
           style="fill:#5d381e" /><path
           d="m 853.2,338.8 c -0.4,0.4 -0.9,0.8 -1.3,1.2 -0.4,0.4 -0.7,0.8 -1,1.2 -0.3,0.4 -0.7,0.9 -1,1.4 -0.3,0.4 -0.5,0.8 -0.7,1.3 -0.2,0.4 -0.4,0.8 -0.7,1.2 -0.2,0.3 -0.4,0.6 -0.6,0.8 -0.2,0.3 -0.4,0.5 -0.7,0.7 -0.2,0.1 -0.3,0.2 -0.4,0.2 l 0.2,0 -0.1,-0.1 c -0.2,-0.2 -0.4,-0.4 -0.5,-0.7 -0.2,-0.3 -0.5,-0.7 -0.8,-1.1 -0.3,-0.4 -0.5,-0.9 -0.8,-1.3 -0.3,-0.4 -0.6,-1.1 -0.8,-1.7 -0.2,-0.6 -0.4,-1 -0.5,-1.4 -0.1,-0.2 -0.1,-0.4 -0.2,-0.5 -0.1,-0.3 -0.1,-0.7 -0.2,-1 0,-0.4 0,-0.8 0.1,-1.1 l 0,0 c 0.2,-0.6 0.4,-1.2 0.8,-1.8 0.3,-0.5 0.7,-0.9 1.2,-1.3 0.3,-0.3 0.6,-0.5 1,-0.7 l 0.7,-0.3 c 0.2,-0.1 0.5,-0.2 0.7,-0.3 0.2,0 0.3,0 0.5,0 0.2,0 0.4,0.1 0.7,0.1 0.5,0.2 0.9,0.4 1.4,0.7 0.5,0.3 0.9,0.7 1.3,1 0.2,0.1 0.3,0.2 0.3,0.1 l 0,0 c -0.3,-0.7 -0.8,-1.4 -1.3,-2 -0.4,-0.5 -0.9,-0.9 -1.4,-1.2 -0.4,-0.3 -1,-0.5 -1.6,-0.5 -0.4,0 -0.7,0.1 -1.1,0.2 -0.3,0.1 -0.6,0.3 -0.9,0.5 -0.3,0.3 -0.7,0.6 -1,1 -0.5,0.6 -0.9,1.3 -1.2,2 -0.3,0.7 -0.5,1.5 -0.6,2.3 -0.1,0.5 -0.1,1 0,1.5 0.1,0.6 0.2,1.1 0.3,1.6 l 0,0.2 c 0.1,0.3 0.2,0.8 0.3,1.4 0.1,0.6 0.4,1.3 0.7,2 0.4,1 0.9,2 1.4,3 0.2,0.3 0.4,0.6 0.7,0.9 0.1,0.1 0.2,0.2 0.3,0.3 0.1,0.1 0.3,0.1 0.5,0.1 0.3,-0.1 0.6,-0.3 0.9,-0.5 0.3,-0.3 0.6,-0.6 0.8,-1 0.1,-0.2 0.2,-0.4 0.3,-0.6 0.3,-0.6 0.6,-1.3 0.8,-2 0.1,-0.4 0.3,-0.9 0.5,-1.3 0.2,-0.5 0.5,-1.1 0.8,-1.6 0.3,-0.5 0.5,-0.8 0.7,-1.2 0.2,-0.4 0.5,-0.7 0.6,-0.9 0.5,-0.2 0.7,-0.5 0.9,-0.8 l 0,0 z"
           id="path280"
           inkscape:connector-curvature="0" /><path
           d="m 839.1,331.3 0,0 0,0 0,0 0,0 c -0.1,0 -0.2,0 -0.2,0 -0.1,0 -0.2,-0.1 -0.3,-0.2 -0.3,-0.2 -0.5,-0.5 -0.7,-0.8 l -0.2,-0.4 c -0.1,-0.2 -0.2,-0.4 -0.3,-0.6 -0.1,-0.2 -0.2,-0.5 -0.3,-0.7 0,-0.1 -0.1,-0.2 -0.1,-0.4 0,-0.1 -0.1,-0.2 -0.1,-0.4 0,-0.1 0,-0.2 0.1,-0.4 0.1,-0.1 0.2,-0.2 0.3,-0.3 0.1,-0.1 0.3,-0.1 0.5,0 0.2,0 0.4,0.1 0.5,0.3 0.3,0.2 0.5,0.5 0.6,0.8 0.1,0.2 0.2,0.4 0.3,0.6 0.2,0.5 0.3,1 0.3,1.5 0,0.2 0,0.4 -0.1,0.6 0,0.1 -0.1,0.1 -0.1,0.2 l 0,0 -0.1,0.1 0,0 0,0 -0.1,0.1 z"
           id="path282"
           inkscape:connector-curvature="0" /><path
           d="m 838.1,333.8 c -0.1,0.3 -0.3,0.5 -0.6,0.5 -0.4,0 -0.8,-0.1 -1.1,-0.2 l -0.3,-0.1 c -0.4,-0.1 -0.7,-0.2 -1.1,-0.5 -0.1,-0.1 -0.2,-0.2 -0.3,-0.3 -0.1,-0.1 -0.1,-0.2 -0.2,-0.3 -0.1,-0.1 -0.1,-0.2 -0.2,-0.3 0,-0.1 -0.1,-0.2 -0.1,-0.3 0,-0.1 0,-0.2 0,-0.3 0,-0.1 0.1,-0.2 0.2,-0.3 0.1,-0.1 0.2,-0.2 0.3,-0.2 0.1,-0.1 0.3,-0.1 0.4,-0.1 0.4,-0.1 0.9,0 1.3,0.1 l 0.3,0.1 0,0 c 0.4,0.3 0.8,0.7 1.1,1.1 0.3,0.4 0.4,0.8 0.3,1.1 l 0,0 z"
           id="path284"
           inkscape:connector-curvature="0" /></g><path
         class="st29"
         d="m 833,359.4 c 0,0 0.5,-10.1 1.4,-12.4 0.9,-2.3 3.6,-9.6 5.9,-11.8 2.3,-2.2 4.9,-5.6 9,-7.8 4.1,-2.2 15.9,-4.1 18.5,-4.1 2.6,0 8.1,2 10,2.9 1.9,0.9 6.3,6.8 8.5,9.6 2.2,2.8 7,13.8 7.6,16 0.6,2.2 2.5,11.8 2.1,15.1 -0.4,3.3 -1.1,9.3 -3.1,12.1 -2,2.8 -8.8,8.9 -11.3,9.4 -2.5,0.5 -21.6,7.8 -27.1,6.1 -5.5,-1.7 -15.6,-11.3 -16,-13.8 -0.4,-2.5 -5.3,-18.2 -5.5,-21.3 l 0,0 z"
         id="path286"
         inkscape:connector-curvature="0"
         style="fill:#a06121" /><path
         class="st38"
         d="m 867.8,323.4 c -2.6,0 -14.4,2 -18.5,4.1 -4.1,2.1 -6.8,5.6 -9,7.8 -2.2,2.2 -5,9.5 -5.9,11.8 -0.9,2.3 -1.4,12.4 -1.4,12.4 0.1,3.1 5.1,18.9 5.5,21.4 0.4,2.5 9.1,11.9 14.6,13.6 1.1,0.4 2.2,0.3 4.5,-0.5 -1.6,0.2 -2.5,0.4 -3.4,0.1 -5.5,-1.8 -14.2,-10.8 -14.6,-13.3 -0.4,-2.5 -5.4,-18.3 -5.5,-21.4 0,0 0.5,-10.1 1.4,-12.4 0.9,-2.3 3.6,-9.6 5.9,-11.8 2.3,-2.2 4.9,-5.6 9,-7.8 4.1,-2.2 15.2,-4 18.2,-4.1 l -0.8,0.1 0,0 z"
         id="path288"
         inkscape:connector-curvature="0"
         style="fill:#5d381e" /><path
         d="m 837.2,356.1 c 0.1,-0.1 0.3,-0.1 0.5,-0.1 0.1,0 0.2,0 0.3,0 0.1,0 0.2,0 0.3,0.1 0.1,0 0.2,0.1 0.2,0.1 0.2,0 0.3,0.1 0.4,0.2 0.2,0.1 0.4,0.2 0.5,0.3 0.1,0 0.1,0 0.1,-0.1 0,-0.1 -0.1,-0.3 -0.2,-0.4 -0.1,-0.2 -0.2,-0.3 -0.4,-0.5 -0.1,-0.1 -0.3,-0.2 -0.5,-0.2 l -0.1,0 c -0.3,0 -0.6,0.1 -0.8,0.2 -0.2,0.1 -0.4,0.2 -0.5,0.3 -0.1,0.1 -0.2,0.1 -0.1,0.2 0.1,0.1 0.1,0 0.3,-0.1 l 0,0 z"
         id="path290"
         inkscape:connector-curvature="0" /><path
         d="m 837.9,354.2 c 0.1,-0.1 0.2,-0.1 0.3,-0.1 0.1,0 0.2,0 0.3,0 l 0,0 c 0.1,0 0.1,0 0.2,0 0.1,0 0.2,0.1 0.3,0.1 0,0 0.1,0 0,-0.1 0,-0.1 0,-0.2 -0.1,-0.3 -0.1,-0.1 -0.1,-0.2 -0.2,-0.3 -0.1,-0.1 -0.2,-0.1 -0.3,-0.1 l 0,0 c -0.2,0.1 -0.3,0.2 -0.4,0.3 -0.1,0.1 -0.2,0.2 -0.3,0.2 -0.1,0 0.1,0.2 0.2,0.3 0,0 0,0.1 0,0 0.1,0 0.1,0 0,0 l 0,0 z"
         id="path292"
         inkscape:connector-curvature="0" /><path
         d="m 838.4,355.2 c 0.1,-0.6 0.3,-1.8 0.7,-3.2 0.3,-1.7 0.8,-3.8 1.3,-6.1 0.3,-1.4 0.6,-2.8 0.8,-4.2 0.2,-1 0.6,-1.9 1.1,-2.7 0.6,-1.1 1.3,-2.1 2.1,-3.1 0.8,-1.1 1.6,-2 2,-2.5 l 0.4,-0.5 c 0.5,-0.6 1.2,-1.4 2.1,-2.3 0.6,-0.5 1.2,-1 1.8,-1.5 0.7,-0.5 1.4,-0.9 2.2,-1.4 1.5,-0.9 3.1,-1.6 4.7,-2.4 1.3,-0.6 2.6,-1.1 3.8,-1.6 l 0.4,-0.2 c 0.3,-0.1 0.5,-0.2 0.7,-0.3 0.1,0 0.2,-0.1 0.3,-0.2 0,-0.1 0,-0.2 0,-0.3 l 0,0 -0.1,-0.1 -0.1,-0.1 0.1,0.1 0.1,0.1 0,0 c 0,0.1 0,0.2 0,0.3 l 0,0 c -0.1,0.1 -0.2,0.1 -0.3,0.1 l -1.1,0.4 c -1,0.4 -2.3,0.8 -3.9,1.5 -1.6,0.7 -3.3,1.4 -4.8,2.2 -1.5,0.8 -2.9,1.7 -4.2,2.8 -0.8,0.7 -1.5,1.5 -2.2,2.3 l 0,0 c -0.9,1 -1.7,2 -2.4,3 l -0.1,0.1 c -0.7,1 -1.4,2.1 -2,3.2 l 0,0 c -0.5,0.9 -0.9,1.9 -1.1,2.9 -0.2,1.4 -0.5,2.8 -0.7,4.2 -0.4,2.2 -0.8,4.3 -1.1,6.1 -0.4,2 -0.7,3.7 -1,4.9 l -0.1,0.6 c -0.2,0.8 -0.3,1.3 -0.3,1.7 0,0.2 0,0.4 -0.1,0.5 0,0 0,0.1 0,0.1 l 0,0 0,0 0,0 0,-0.1 c 0,-0.1 0.1,-0.3 0.1,-0.5 0.1,-0.4 0.2,-1 0.4,-1.7 0.2,-0.7 0.3,-1.4 0.4,-2.3 l 0.1,0.2 z"
         id="path294"
         inkscape:connector-curvature="0" /><path
         class="st30"
         d="m 867.7,323.4 -0.4,0 c 1.7,0 2,0.9 3.8,1 3.8,0.1 11.7,8.5 13.6,11.5 2.9,5.1 5.5,10.5 7.6,16 0.6,2.3 2.5,11.8 2.1,15.1 -0.4,3.3 -1.1,9.3 -3.1,12.1 -2,2.8 -8.8,8.9 -11.3,9.4 -2,0.4 -12.5,4.4 -20,4.6 7.4,0.2 19.4,-4.2 21.5,-4.6 2.5,-0.5 9.3,-6.5 11.3,-9.4 2,-2.9 2.8,-8.8 3.1,-12.1 0.3,-3.3 -1.5,-12.9 -2.1,-15.1 -2.1,-5.5 -4.6,-10.9 -7.6,-16 -2,-2.9 -7.6,-11.6 -13.6,-11.5 -2,0 -2.2,-1 -4.9,-1 l 0,0 z"
         id="path296"
         inkscape:connector-curvature="0"
         style="fill:#b8854f" /><path
         class="st37"
         d="m 848.6,354.1 c -1,-0.5 -1.2,-2.6 -1.7,-1.6 -0.6,1.4 -0.4,3.1 0.5,4.3 0.7,0.7 4.8,1.2 4.8,0 0,-1.2 -2.6,-2.1 -3.6,-2.7 l 0,0 z"
         id="path298"
         inkscape:connector-curvature="0"
         style="fill:#6e4a25" /><path
         d="m 850.9,348.5 c -2.1,-0.2 -3.9,1.4 -4.1,3.5 0,0.1 0,0.2 0,0.3 0,2.3 1,4.5 3.3,4.7 2.1,0.2 3.9,-1.2 4.2,-3.3 0,-0.3 0,-0.6 0,-0.9 -0.2,-2.2 -1.1,-4.3 -3.4,-4.3 z"
         id="path300"
         inkscape:connector-curvature="0" /><path
         class="st39"
         d="m 851.2,350 c -0.3,-0.4 -1.4,0 -1.8,0.4 -0.5,0.2 -0.8,0.8 -0.6,1.3 0.2,0.5 0.8,0.8 1.3,0.6 0.2,-0.1 0.4,-0.2 0.5,-0.4 0.4,-0.4 0.9,-1.5 0.6,-1.9 l 0,0 z"
         id="path302"
         inkscape:connector-curvature="0"
         style="fill:#ddcebe" /><path
         class="st40"
         d="m 850.9,349.2 c 0,0 2.8,0.3 3.7,-1.5"
         id="path304"
         inkscape:connector-curvature="0"
         style="fill:none;stroke:#000000;stroke-width:5" /><path
         d="m 893,349.6 0,0 0,0 0,0.2 0.2,0.6 c 0.2,0.7 0.3,1.3 0.5,1.9 0.2,0.8 0.4,1.5 0.5,2.2 0.1,0.6 0.3,1.2 0.4,1.8 0.2,1.3 0.3,2.5 0.4,3.7 l 0,0 c 0.1,1.8 0.2,3.3 0.2,4.7 0,1.5 -0.1,3.1 -0.2,4.6 -0.1,0.7 -0.2,1.4 -0.3,1.9 -0.1,0.5 -0.2,1 -0.4,1.4 l -0.2,0.5 c -0.3,0.7 -0.6,1.8 -1,3.1 -0.4,1.4 -1,2.7 -1.7,3.9 -0.5,0.8 -1,1.6 -1.6,2.3 -0.6,0.7 -1.2,1.3 -1.9,1.9 -0.6,0.6 -1.3,1 -1.8,1.4 -0.5,0.4 -1,0.7 -1.3,0.9 -0.2,0.1 -0.4,0.2 -0.6,0.4 -0.5,0.3 -1,0.5 -1.5,0.7 -0.6,0.3 -1.3,0.5 -2.1,0.8 l 0,0 c -1.4,0.5 -3,0.9 -4.6,1.3 -1.9,0.5 -3.8,0.9 -5.5,1.2 -1.7,0.3 -2.9,0.6 -3.6,0.8 l -1.3,0.4 c -1.1,0.3 -2.6,0.7 -4.2,1 -1.6,0.3 -3.3,0.8 -4.9,1.1 -1.1,0.2 -2.1,0.5 -3.1,0.7 l -0.7,0.2 -0.3,0.1 c -0.2,0 -0.3,0.1 -0.5,0.2 -0.1,0.1 -0.2,0.1 -0.2,0.1 0,0 0.1,0 0.2,0 l 0.5,0 1.1,-0.1 c 0.8,0 1.9,-0.1 3.2,-0.2 2.8,-0.2 6.3,-0.6 9.3,-1.2 1.3,-0.2 2.6,-0.5 3.9,-0.9 2.1,-0.6 4.3,-1.4 6.4,-2.1 1.6,-0.6 3.1,-1.2 4.5,-1.8 1.2,-0.5 2.4,-1.1 3.6,-1.7 0.7,-0.4 1.3,-0.7 1.8,-1 1,-0.6 1.9,-1.2 2.8,-1.9 1.4,-1.1 2.6,-2.4 3.6,-3.8 0.8,-1.2 1.5,-2.5 2,-3.8 0.6,-1.3 1,-2.6 1.5,-3.8 0.2,-0.6 0.4,-1.3 0.5,-2 0.1,-0.6 0.2,-1.2 0.2,-1.8 0,-0.8 0,-1.5 0,-2.3 0,-0.7 -0.1,-1.5 -0.2,-2.5 -0.2,-1.4 -0.4,-3 -0.7,-4.7 -0.2,-1.2 -0.5,-2.5 -0.7,-3.7 -0.2,-0.6 -0.3,-1.3 -0.5,-1.8 -0.3,-0.8 -0.5,-1.5 -0.7,-2.2 -0.2,-0.7 -0.5,-1.4 -0.6,-1.8 l -0.2,-0.6 -0.2,-0.3 0,0 0,0 0,0 z"
         id="path306"
         inkscape:connector-curvature="0" /><path
         d="m 833.1,359.6 c 0,-0.8 0.1,-1.6 0.2,-2.4 0.2,-1.1 0.3,-2.2 0.6,-3.2 l 0,0 c 0.3,-1.6 0.7,-3.1 1.1,-4.4 0.4,-1.3 0.8,-2.4 1.1,-3.4 0.7,-1.9 1.3,-3.2 1.8,-4.4 0.5,-1.2 1,-2 1.4,-2.7 l 0.3,-0.6 c 0.4,-0.8 1,-1.8 1.6,-2.9 0.7,-1.1 1.5,-2.2 2.4,-3.2 l 0,0 c 1,-1 2.1,-2 3.3,-2.9 1,-0.8 2,-1.3 2.5,-1.6 0.6,-0.4 1.3,-0.7 2,-0.9 1.1,-0.4 2.2,-0.8 3.3,-1.1 1,-0.3 2.1,-0.5 3.2,-0.7 1.1,-0.2 2.2,-0.4 3.2,-0.5 2,-0.2 3.7,-0.3 4.4,-0.4 l 1,-0.1 c 1.2,-0.1 2.4,-0.1 3.7,0 1.5,0.2 2.9,0.5 4.3,0.9 0.9,0.3 1.8,0.6 2.7,1 0.3,0.1 0.6,0.3 0.9,0.4 0.3,0.1 0.5,0.2 0.8,0.2 0.1,0 0.1,0 0,-0.1 l -0.6,-0.3 c -0.3,-0.2 -0.6,-0.4 -1,-0.6 -0.8,-0.5 -1.7,-1 -2.5,-1.4 -1.3,-0.6 -2.6,-1.1 -4,-1.4 -1.4,-0.4 -2.9,-0.5 -4.4,-0.5 -1.1,0 -2.3,0.1 -3.4,0.3 -1.5,0.3 -3,0.6 -4.4,1 -1.4,0.4 -2.9,0.9 -4.2,1.4 -1.3,0.5 -2.7,1.1 -3.8,1.6 -1.1,0.5 -2,1 -2.7,1.4 -0.5,0.2 -1.3,0.6 -2.2,1.2 -1.1,0.7 -2.2,1.4 -3.2,2.3 -1,0.9 -1.9,1.8 -2.7,2.9 -0.8,1 -1.5,2.1 -2.1,3.3 -1.1,1.9 -2,3.9 -2.7,6 -0.2,0.6 -0.3,1.3 -0.6,2.1 -0.3,1.1 -0.6,2.5 -0.8,3.9 -0.2,1.4 -0.5,2.8 -0.6,4.2 -0.1,1.4 -0.2,2.4 -0.3,3.3 0,0.8 0,1.4 0,1.8 0,0.4 0.3,0.5 0.4,0.5 l 0,0 z"
         id="path308"
         inkscape:connector-curvature="0" /><path
         class="st29"
         d="m 872.4,335 c 0,0 5,-7.5 6.4,-8.8 1.4,-1.3 1.7,-2.9 4.8,-3.4 3.1,-0.5 8,1.5 9.1,2.2 1.1,0.7 5.3,3.6 6.1,4.6 0.8,1 1.4,4.2 1.3,6.4 -0.4,2.7 -1.4,5.4 -2.9,7.7 -0.8,0.8 -5.3,5 -6.7,5.5 -1.4,0.5 -9.3,1.7 -9.3,1.7 L 872.4,335 Z"
         id="path310"
         inkscape:connector-curvature="0"
         style="fill:#a06121" /><path
         class="st30"
         d="m 885.8,350 c 1.4,-0.2 2.7,-0.5 4.1,-0.8 1.5,-0.5 5.9,-4.7 6.7,-5.5 1.5,-2.3 2.5,-4.9 2.9,-7.7 0.1,-2.2 -0.5,-5.3 -1.3,-6.4 -0.8,-1.1 -5,-3.9 -6.1,-4.6 -2.5,-1.3 -5.2,-2.1 -8,-2.3 0.8,0.1 1.5,0.3 2.3,0.5 0.8,0.2 1.6,0.5 2.3,0.8 0.5,0.2 1,0.4 1.5,0.7 0.5,0.4 1.9,1.3 3.1,2.2 0.6,0.5 1.3,0.9 1.8,1.4 0.4,0.3 0.8,0.7 1.1,1 0.2,0.3 0.4,0.7 0.5,1.1 0.2,0.5 0.3,1.1 0.4,1.6 0.1,0.6 0.2,1.2 0.3,1.8 0.1,0.6 0.1,1.2 0.1,1.8 0,0.7 -0.2,1.3 -0.4,2 -0.2,0.8 -0.5,1.6 -0.8,2.3 -0.3,0.8 -0.7,1.5 -1,2.1 -0.2,0.4 -0.5,0.9 -0.8,1.2 -0.4,0.4 -1.7,1.6 -3.1,2.8 -0.7,0.6 -1.4,1.2 -2,1.7 -0.5,0.4 -1,0.7 -1.5,1 -0.5,0.2 -1.1,0.3 -1.6,0.4 l -2.5,0.5 2,0.4 z"
         id="path312"
         inkscape:connector-curvature="0"
         style="fill:#b8854f" /><path
         d="m 872.6,335 c 1.4,-1.9 2.6,-3.5 3.7,-5 1.1,-1.5 2,-2.6 2.9,-3.6 0.4,-0.5 0.8,-0.9 1.2,-1.3 0.2,-0.2 0.5,-0.5 0.8,-0.6 0.5,-0.3 1.1,-0.5 1.7,-0.7 0.5,-0.1 1,-0.2 1.5,-0.2 0.4,0 0.8,0 1.1,0 0.3,0 0.7,0.1 1,0.1 0.3,0 0.6,0.1 1,0.2 0.9,0.2 1.8,0.5 2.7,0.8 1,0.4 2,1 2.9,1.6 1.1,0.8 2.1,1.4 3,1.9 0.5,0.3 1,0.7 1.4,1.1 0.3,0.3 0.6,0.5 0.8,0.8 l 0.1,0.2 c 0.3,0.4 0.5,0.8 0.7,1.3 0.2,0.6 0.3,1.3 0.4,2 l 0,0 c 0,0.9 0,1.8 -0.2,2.7 -0.2,0.9 -0.4,1.9 -0.7,2.8 l 0,0 c -0.2,0.6 -0.4,1.1 -0.8,1.6 -0.3,0.5 -0.7,1 -1,1.4 -0.5,0.6 -0.8,1.1 -1,1.4 -0.6,0.8 -1.3,1.5 -2,2.2 -0.6,0.6 -1.2,1.1 -1.8,1.6 -0.7,0.5 -1.4,1 -2.1,1.4 -0.5,0.3 -1.1,0.6 -1.7,0.8 -0.5,0.2 -1.1,0.3 -1.6,0.4 -0.4,0 -0.6,0.1 -0.6,0.1 0,0 0.2,0.2 0.5,0.2 0.5,0.1 1.1,0.1 1.6,0 0.8,-0.1 1.6,-0.2 2.4,-0.4 l 0,0 c 0.8,-0.3 1.6,-0.6 2.3,-1.1 0.8,-0.4 1.5,-1 2.3,-1.5 0.7,-0.6 1.4,-1.2 2,-1.8 0.5,-0.6 1,-1.2 1.4,-1.9 l 0.2,-0.3 c 0.7,-1.1 1.1,-2.2 1.4,-3.5 l 0,0 c 0.2,-1 0.3,-2 0.4,-3 0.1,-1 0,-1.9 -0.1,-2.9 -0.1,-0.7 -0.3,-1.4 -0.6,-2 -0.2,-0.6 -0.5,-1.1 -0.9,-1.6 -0.3,-0.3 -0.5,-0.7 -0.8,-1 -0.2,-0.2 -0.3,-0.4 -0.6,-0.6 -0.3,-0.2 -0.6,-0.5 -0.9,-0.8 -0.3,-0.3 -0.8,-0.7 -1.3,-1 -0.5,-0.3 -1,-0.8 -1.5,-1.2 l 0,0 c -0.8,-0.7 -1.8,-1.4 -2.8,-1.9 -1,-0.6 -2.1,-1 -3.2,-1.3 l 0,0 c -0.6,-0.2 -1.3,-0.3 -1.9,-0.3 -0.6,-0.1 -1.2,-0.1 -1.8,0 -0.6,0.1 -1.2,0.2 -1.8,0.4 -0.4,0.1 -0.9,0.3 -1.3,0.6 -0.2,0.1 -0.5,0.3 -0.7,0.5 -0.4,0.3 -0.7,0.6 -0.9,1 l 0,0 c -0.4,0.5 -0.7,1 -1.1,1.5 l 0,0 c -0.8,1.2 -1.7,2.6 -2.5,3.9 l -3.2,5.3 0,-0.3 z"
         id="path314"
         inkscape:connector-curvature="0" /><path
         class="st35"
         d="m 875.2,338.3 c 0,0 4,1.7 4.9,3.1 0.9,1.4 3.8,5 4.1,5.1 0.6,-0.1 1.2,-0.2 1.8,-0.4 1.2,-1.3 2.3,-2.7 3.2,-4.2 0.8,-1.6 1.8,-3.5 0.9,-5.4 -0.9,-1.9 -1.6,-4.5 -2.8,-4.8 -2,-0.4 -4,-0.3 -6,0.2 -1,0.3 -2,0.8 -3,1.4 -0.5,0.5 -4.1,4.7 -3.1,5 l 0,0 z"
         id="path316"
         inkscape:connector-curvature="0"
         style="fill:#834317" /><path
         d="m 874.7,338.2 0,0 0.1,0 0.5,0.2 c 0.5,0.2 1,0.5 1.5,0.8 0.8,0.5 1.5,1 2.1,1.7 0.5,0.5 0.8,1.1 1.1,1.7 0.4,0.8 0.8,1.5 1.4,2.2 0.4,0.5 0.9,0.9 1.4,1.3 0.4,0.3 0.8,0.5 1.2,0.7 0.2,0.1 0.4,0.1 0.6,0.2 0.3,0.1 0.7,0.1 1,0 0.4,-0.1 0.7,-0.3 1,-0.6 0.1,-0.1 0.2,-0.3 0.4,-0.4 l 0.7,-0.7 c 0.6,-0.7 1.1,-1.4 1.6,-2.1 l 0,0 c 0.3,-0.5 0.6,-1 0.8,-1.5 0.2,-0.4 0.3,-0.9 0.4,-1.3 0.1,-0.2 0.1,-0.5 0.1,-0.7 0,-0.2 0.1,-0.6 0.2,-1.1 0.1,-0.6 0.1,-1.1 0,-1.7 -0.1,-0.8 -0.3,-1.6 -0.7,-2.3 -0.4,-0.7 -0.9,-1.4 -1.4,-1.9 -0.5,-0.5 -1,-0.9 -1.6,-1.3 -0.4,-0.2 -0.8,-0.4 -1.3,-0.5 -1.1,-0.3 -2.3,-0.3 -3.4,0.1 -0.6,0.2 -1.1,0.4 -1.7,0.7 l 0,0 c -0.6,0.3 -1.1,0.6 -1.5,1 -0.4,0.4 -0.8,0.8 -1.2,1.3 -0.1,0.1 -0.2,0.2 -0.2,0.4 0,0.1 0,0.1 0,0.1 0.2,-0.1 0.4,-0.2 0.6,-0.4 0.4,-0.3 0.8,-0.5 1.2,-0.7 0.5,-0.3 1.1,-0.5 1.7,-0.6 0.5,-0.1 0.9,-0.2 1.4,-0.2 0.4,-0.1 0.9,-0.1 1.3,0 0.7,0.1 1.5,0.4 2.1,0.8 0.4,0.2 0.9,0.4 1.3,0.7 0.6,0.4 1.1,0.9 1.5,1.4 0.4,0.5 0.7,1.1 0.9,1.7 0.2,0.6 0.2,1.2 0.2,1.8 0,0.5 -0.1,0.9 -0.3,1.3 l 0,0 c -0.1,0.3 -0.3,0.7 -0.5,1 -0.3,0.5 -0.6,0.9 -1,1.4 l 0,0 c -0.5,0.6 -1.1,1.2 -1.7,1.7 l 0,0 -0.7,0.6 c -0.2,0.2 -0.4,0.3 -0.5,0.5 l 0,0 c -0.1,0 -0.2,0 -0.2,0 -0.4,-0.1 -0.8,-0.3 -1.1,-0.5 -0.5,-0.4 -1.1,-0.8 -1.5,-1.3 -0.4,-0.4 -0.8,-0.8 -1.2,-1.2 -0.5,-0.7 -1.2,-1.4 -1.9,-1.9 -0.7,-0.5 -1.5,-0.9 -2.3,-1.2 -0.5,-0.2 -1.1,-0.4 -1.7,-0.5 l -0.7,-0.7 0,0 0,0 0,0 0,0 z"
         id="path318"
         inkscape:connector-curvature="0" /><path
         d="m 885.3,324.8 c -0.4,-0.1 -0.6,-0.3 -0.8,-0.7 -0.2,-0.4 -0.3,-0.9 -0.3,-1.4 0,-0.1 0,-0.1 0,-0.2 0,-0.5 0,-0.9 0.2,-1.4 0.1,-0.2 0.1,-0.4 0.2,-0.5 0.1,-0.1 0.2,-0.3 0.4,-0.3 0.2,-0.1 0.4,-0.1 0.5,0 0.2,0.1 0.4,0.2 0.5,0.4 0.2,0.2 0.3,0.5 0.5,0.8 0.1,0.3 0.2,0.7 0.2,1 0,0.1 0,0.2 0,0.3 l 0,0 c 0,0.6 -0.2,1.1 -0.5,1.6 -0.2,0.2 -0.5,0.4 -0.9,0.4 l 0,0 z"
         id="path320"
         inkscape:connector-curvature="0" /><path
         d="m 888.6,325 c -0.3,-0.1 -0.4,-0.5 -0.4,-1 0,-0.6 0.2,-1.2 0.4,-1.8 l 0,0 c 0.1,-0.2 0.1,-0.3 0.2,-0.5 0.3,-0.7 0.6,-1.3 1,-1.9 0.1,-0.2 0.3,-0.4 0.5,-0.6 0.1,-0.1 0.3,-0.2 0.5,-0.2 0.2,0 0.4,0.1 0.5,0.3 0.1,0.2 0.2,0.5 0.3,0.8 0.1,0.4 0.1,0.8 0,1.1 -0.1,0.4 -0.2,0.9 -0.3,1.3 -0.1,0.2 -0.2,0.4 -0.2,0.5 l 0,0 c -0.3,0.6 -0.7,1.2 -1.2,1.6 -0.6,0.5 -0.9,0.6 -1.3,0.4 l 0,0 z"
         id="path322"
         inkscape:connector-curvature="0" /><path
         class="st37"
         d="m 835.7,354.3 c 0.6,-0.5 1.2,-2.9 1.2,-1.7 0,1.2 0.2,3.1 -0.3,3.9 -0.5,0.8 -3.5,0.8 -3.5,-0.4 0,-1.2 2,-1.2 2.6,-1.8 l 0,0 z"
         id="path324"
         inkscape:connector-curvature="0"
         style="fill:#6e4a25" /><path
         d="m 834.2,348.3 c -1.5,0 -2.5,1.1 -2.5,3.4 0,2.3 1,4.7 2.5,4.9 1.6,0.3 2.8,-1.7 2.7,-4.2 -0.1,-2.5 -1.2,-4.1 -2.7,-4.1 z"
         id="path326"
         inkscape:connector-curvature="0" /><path
         class="st39"
         d="m 832.9,351.6 c 0.3,0.2 1,-0.6 1.3,-1 0.3,-0.4 0.4,-1 0.1,-1.2 -0.3,-0.2 -0.8,0 -1.1,0.5 -0.3,0.5 -0.6,1.6 -0.3,1.7 l 0,0 z"
         id="path328"
         inkscape:connector-curvature="0"
         style="fill:#ddcebe" /><path
         class="st41"
         d="m 834.1,349 c -1,0.2 -2,-0.5 -2.3,-1.5"
         id="path330"
         inkscape:connector-curvature="0"
         style="fill:none;stroke:#000000;stroke-width:4" /><path
         class="st35"
         d="m 844.3,360.7 c 0.7,1.5 3.4,6.4 4.3,8.4 0.2,0.5 3.8,3.9 4,4.4 5.6,11.2 7.5,20.6 -5.3,26.2 -16.8,0.4 -27.6,-19 -25.6,-31 0,0 1,-4.4 4.2,-6 2.6,-1.3 7.2,-1.9 17.4,-2.1"
         id="path332"
         inkscape:connector-curvature="0"
         style="fill:#834317" /><path
         class="st30"
         d="m 851.2,372.7 c 5.2,10 5.6,21.9 -5.7,26.7 1,0.1 2,0.2 3,0.1 12.2,-6.9 8.2,-15.2 4.3,-25.8 l -1.6,-1 z"
         id="path334"
         inkscape:connector-curvature="0"
         style="fill:#b8854f" /><path
         class="st38"
         d="m 822.5,374.7 c 0.8,1.3 1,0.8 1.2,2.2 0.2,1.4 1.5,7.1 4.6,10.5 l 0.1,-0.6 -3.5,-10 -2.4,-2.1 z"
         id="path336"
         inkscape:connector-curvature="0"
         style="fill:#5d381e" /><path
         d="m 825.1,365.1 c -2.8,0 -6.5,3.3 -5,6 1,2 2.9,5.8 5,6 2.1,0.2 3.6,-3.8 5,-6 1.7,-2.5 -2.2,-6 -5,-6 z"
         id="path338"
         inkscape:connector-curvature="0" /><path
         class="st38"
         d="m 823.2,365.3 c -0.5,0.9 -0.9,1.8 -1.1,2.8 -2,12 8.8,31.4 25.6,31 2.8,-1.1 5.1,-3.2 6.4,-6 -1.4,2.3 -3.4,4 -5.9,5 -16.8,0.4 -27.6,-19 -25.6,-31 0.1,-0.6 0.3,-1.2 0.6,-1.8 z"
         id="path340"
         inkscape:connector-curvature="0"
         style="fill:#5d381e" /><path
         d="m 844.6,360.7 c 0.6,1.4 1.2,2.7 1.8,4 0.6,1.2 1.2,2.4 1.8,3.6 0.7,1.1 1.5,2.2 2.5,3.2 0.9,1 1.6,2 2.2,3.2 0.6,1.2 1,2.5 1.4,3.8 0.3,1.1 0.6,2.2 0.8,3.4 0.2,1.3 0.3,2.6 0.3,3.9 0,1 -0.1,2.1 -0.3,3.1 -0.2,1 -0.5,1.9 -0.8,2.9 -0.3,0.7 -0.7,1.5 -1.1,2.1 -0.2,0.2 -0.3,0.5 -0.6,0.8 -0.6,0.8 -1.3,1.5 -2.1,2.1 -1,0.8 -2.1,1.4 -3.3,1.8 -0.9,0 -1.9,0 -2.8,-0.1 -1,-0.1 -1.9,-0.3 -2.9,-0.5 -1.8,-0.4 -3.5,-1.1 -5.2,-2 -1.1,-0.6 -2.1,-1.3 -3.1,-2 -0.8,-0.6 -1.5,-1.2 -1.9,-1.6 -0.5,-0.5 -1,-1 -1.5,-1.5 -0.7,-0.8 -1.3,-1.6 -1.9,-2.5 -2.1,-3.1 -3.7,-6.5 -4.6,-10.1 -0.2,-0.9 -0.4,-1.8 -0.6,-2.7 -0.1,-0.9 -0.2,-1.7 -0.3,-2.6 -0.1,-1.4 0,-2.8 0.3,-4.2 l 0,0 0,-0.1 c 0,-0.2 0.1,-0.3 0.1,-0.5 0.2,-0.5 0.3,-0.8 0.4,-1.1 l 0.2,-0.4 c 0.3,-0.6 0.6,-1.2 1,-1.7 0.5,-0.6 1.1,-1.2 1.8,-1.5 0.9,-0.5 1.8,-0.8 2.7,-1.1 1,-0.3 2.1,-0.5 3.2,-0.7 1.8,-0.3 3.6,-0.6 5.3,-0.7 1.7,-0.1 3.5,-0.2 5,-0.3 1.1,0 1.5,-0.1 1.3,-0.2 -0.6,-0.2 -1.3,-0.3 -1.9,-0.3 -1.1,-0.1 -2.5,-0.2 -4.2,-0.2 -1.9,0 -3.8,0.1 -5.7,0.3 -1.1,0.1 -2.2,0.3 -3.2,0.5 -1.1,0.2 -2.2,0.6 -3.2,1 l 0,0 c -0.9,0.4 -1.7,1 -2.3,1.7 -0.6,0.7 -1.1,1.4 -1.5,2.2 -0.3,0.6 -0.6,1.2 -0.8,1.8 -0.1,0.2 -0.1,0.4 -0.2,0.6 l 0,0 0,0.2 0,0 0,0.1 0,0 0,0 c -0.1,0.7 -0.2,1.4 -0.2,2.1 0,1.4 0.1,2.8 0.3,4.2 0.2,1.4 0.6,2.7 1,4.1 0.6,1.9 1.4,3.8 2.4,5.5 1.5,2.8 3.5,5.5 5.7,7.8 0.9,0.9 1.7,1.6 2.3,2.2 1.1,1 2.2,1.8 3.5,2.6 1.6,1 3.3,1.8 5.1,2.3 2.1,0.7 4.3,1 6.6,1 1.3,-0.4 2.5,-1 3.6,-1.7 1.1,-0.7 2.1,-1.6 3,-2.6 l 0,0 c 0.8,-1 1.5,-2.2 1.9,-3.4 0.4,-1.1 0.7,-2.2 0.9,-3.3 0.2,-1.4 0.2,-2.8 0.1,-4.1 -0.1,-1.2 -0.3,-2.3 -0.6,-3.5 -0.3,-1.2 -0.7,-2.4 -1.1,-3.5 -0.5,-1.3 -1,-2.5 -1.7,-3.7 l 0,0 c -0.7,-1.2 -1.5,-2.3 -2.5,-3.2 -0.9,-0.9 -1.8,-1.9 -2.6,-3 -0.7,-1 -1.2,-2 -1.7,-2.9 -0.5,-0.9 -0.9,-1.7 -1.2,-2.4 l -0.9,-2.2 0,0 z"
         id="path342"
         inkscape:connector-curvature="0" /><path
         class="st40"
         d="m 825,376.5 c 0,0 -0.2,4.6 3.7,9.5"
         id="path344"
         inkscape:connector-curvature="0"
         style="fill:none;stroke:#000000;stroke-width:5" /><path
         class="st42"
         d="m 830.3,385.4 c -1.3,0.4 -2,1.7 -1.7,3 0.3,1.4 1.5,1.1 2.7,0.8 1.2,-0.3 2.2,-0.6 1.8,-1.9 -0.2,-1.3 -1.5,-2.2 -2.8,-1.9 l 0,0 z"
         id="path346"
         inkscape:connector-curvature="0"
         style="stroke:#000000;stroke-width:5" /><path
         class="st43"
         d="m 834.5,375.7 c -0.5,0 -0.8,0.4 -0.8,0.9 0,0 0,0 0,0 0,0.5 0.2,0.6 0.6,0.6 0.4,0 0.8,-0.2 0.8,-0.6 0,-0.4 -0.2,-0.9 -0.6,-0.9 l 0,0 z"
         id="path348"
         inkscape:connector-curvature="0"
         style="fill:#956c45;stroke:#000000;stroke-width:3" /><path
         class="st43"
         d="m 839.6,373.1 c -0.8,0 -1.2,0.7 -1.2,1.6 0,0.9 0.3,1.1 1.1,1.1 0.8,0 1.5,-0.3 1.5,-1.1 0.1,-0.9 -0.6,-1.6 -1.4,-1.6 l 0,0 z"
         id="path350"
         inkscape:connector-curvature="0"
         style="fill:#956c45;stroke:#000000;stroke-width:3" /><path
         class="st43"
         d="m 838,378.8 c -0.6,0 -1.1,0.5 -1.1,1.1 0,0.6 0.4,1 1,1 0.5,0 0.9,-0.3 0.9,-0.8 0,-0.1 0,-0.1 0,-0.2 0.1,-0.6 -0.2,-1.2 -0.8,-1.1 l 0,0 z"
         id="path352"
         inkscape:connector-curvature="0"
         style="fill:#956c45;stroke:#000000;stroke-width:3" /><path
         class="st39"
         d="m 825.9,366.8 c -0.8,0 -1.6,0 -1.6,0.8 0,0.8 0.8,0.7 1.6,0.7 0.8,0 2.7,1.5 2.7,0.7 0,-0.8 -1.9,-2.2 -2.7,-2.2 l 0,0 z"
         id="path354"
         inkscape:connector-curvature="0"
         style="fill:#ddcebe" /></g><g
       id="g4371"><path
         class="st38"
         d="m 830.9,442.7 0,0 c -0.2,0.1 -0.4,0.1 -0.6,0.2 l -0.7,0.2 -0.7,0.2 c -0.1,0 -0.3,0.1 -0.4,0.1 -0.2,0.1 -0.3,0.1 -0.4,0.3 l -0.2,0.2 c -0.1,0.1 -0.1,0.1 -0.2,0.2 -0.4,0.2 -0.9,0.5 -1.2,0.7 -0.1,0.1 -0.1,0.1 0,0.1 0.1,0 0.2,0 0.4,0 0.3,-0.1 0.9,-0.2 1.3,-0.3 0.2,-0.1 0.4,-0.2 0.6,-0.3 l 0.3,-0.2 0,0 c 0.1,-0.1 0.2,-0.1 0.3,-0.2 l 0.6,-0.3 c 0.4,-0.2 0.8,-0.4 1.1,-0.5 l 0.3,-0.1 c 0.4,-0.3 0.2,-0.6 -0.5,-0.3 l 0,0 z"
         id="path357"
         inkscape:connector-curvature="0"
         style="fill:#5d381e" /><path
         d="m 830.9,442.5 0,0 c -0.4,0.1 -1,0.3 -1.6,0.5 -0.4,0.1 -0.8,0.3 -1.2,0.5 l -0.6,0.4 -0.6,0.4 c -0.2,0.1 -0.4,0.3 -0.6,0.4 -0.2,0.1 -0.1,0.1 0,0.1 0.1,0 0.3,0 0.4,-0.1 l 0.6,-0.2 0.7,-0.2 c 0.3,-0.1 0.7,-0.2 1,-0.4 l 0.6,-0.4 c 0.4,-0.3 0.9,-0.5 1.3,-0.7 l 0.3,-0.1 0.2,-0.1 c 0,0 0.1,0 0.1,-0.1 l 0,0 c 0,0 0,0 0,-0.1 l -0.2,0 c -0.1,0 -0.2,0 -0.4,0.1 l 0,0 z"
         id="path359"
         inkscape:connector-curvature="0" /><path
         d="m 830.8,445 0,0 c -0.3,-0.3 -0.6,-0.6 -0.8,-0.9 -0.2,-0.3 -0.4,-0.6 -0.7,-0.8 -0.2,-0.2 -0.4,-0.4 -0.6,-0.6 -0.2,-0.2 -0.4,-0.5 -0.6,-0.8 -0.1,-0.1 -0.1,-0.1 -0.2,0 0,0.2 0,0.4 0,0.5 0,0.3 0.1,0.5 0.3,0.8 0.1,0.2 0.3,0.4 0.5,0.6 l 0.7,0.5 c 0.4,0.3 0.9,0.6 1.1,0.8 l 0.2,0.1 c 0,0 0.1,0.1 0.1,0.1 l 0.1,0 0,0 c 0,0 0,0 0.1,0 l 0,0 c 0,0 0,-0.1 0,-0.1 0,0 -0.1,-0.1 -0.2,-0.2 l 0,0 z"
         id="path361"
         inkscape:connector-curvature="0" /></g><path
       class="st29"
       d="m 829.7,437.9 c 9.2,-1.5 17.4,8 17.2,19.3 -0.2,11.7 -9.4,21.3 -16.9,19.9 -5.3,-1 -10.7,-2.3 -12.7,-9.4 -0.8,-3.6 -1,-7.4 -0.8,-11.1 1,-10.8 6.1,-17.6 13.2,-18.7 l 0,0 z"
       id="path363"
       inkscape:connector-curvature="0"
       style="fill:#a06121" /><path
       class="st37"
       d="m 840.9,470.5 c -3.7,7.3 -5.5,6.5 -11.5,6.3 -4.5,-0.8 -9,-1.9 -11.5,-6.5 2.5,4.9 7.1,6 11.7,6.8 5.5,-1.2 7.6,-1.4 11.3,-6.6 l 0,0 z"
       id="path365"
       inkscape:connector-curvature="0"
       style="fill:#6e4a25" /><path
       d="m 840.1,472.4 c -0.5,0.9 -1.2,1.7 -1.9,2.3 -0.7,0.6 -1.5,1.1 -2.3,1.5 -1.2,0.5 -2.5,0.7 -3.7,0.6 -1.6,0 -3.3,-0.3 -4.9,-0.7 -1.3,-0.3 -2.5,-0.9 -3.6,-1.5 -0.7,-0.4 -1.3,-0.9 -1.8,-1.4 -0.5,-0.4 -0.9,-0.9 -1.3,-1.5 -0.5,-0.7 -1,-1.5 -1.3,-2.3 -0.3,-0.6 -0.5,-1.3 -0.7,-2 -0.1,-0.4 -0.2,-0.7 -0.3,-1.1 -0.1,-0.4 -0.1,-0.7 -0.2,-1.1 -0.1,-0.8 -0.3,-1.8 -0.4,-2.9 -0.2,-1.9 -0.3,-3.7 -0.2,-5.6 0.1,-1.2 0.3,-2.4 0.5,-3.6 0.2,-1.1 0.5,-2.2 0.8,-3.3 0.3,-0.9 0.6,-1.8 0.9,-2.6 0.3,-0.7 0.6,-1.3 0.8,-1.7 0.5,-0.9 1,-1.7 1.6,-2.4 0.6,-0.7 1.3,-1.4 2,-2 0.8,-0.7 1.7,-1.3 2.7,-1.8 l 0,0 c 0.9,-0.4 1.8,-0.7 2.7,-1 0.9,-0.2 1.8,-0.3 2.8,-0.3 l 0,0 c 1,0 2,0.2 3,0.5 0.8,0.3 1.6,0.6 2.3,1.1 0.6,0.3 1.1,0.7 1.6,1.1 0.5,0.3 0.9,0.7 1.4,1.1 0.6,0.5 1.1,1.1 1.6,1.7 0.7,0.8 1.3,1.7 1.8,2.7 0.6,1 1,2.1 1.4,3.2 0.4,1.1 0.7,2.2 0.9,3.4 0.2,1.1 0.3,2.1 0.3,3.2 0,0.3 0,0.7 0.1,1 0,0.1 0.1,0.1 0.1,-0.1 0.2,-1 0.3,-2 0.3,-3 0,-1.8 -0.2,-3.7 -0.7,-5.5 -0.3,-1.1 -0.6,-2.1 -1.1,-3.1 -0.5,-1 -1,-2.1 -1.6,-3 l 0,0 c -0.7,-1 -1.5,-1.9 -2.3,-2.7 -0.8,-0.7 -1.7,-1.4 -2.7,-1.9 -0.4,-0.2 -0.8,-0.4 -1.2,-0.5 -1.7,-0.7 -3.4,-1 -5.2,-0.9 l 0,0 c -1.1,0.1 -2.1,0.2 -3.2,0.6 -1,0.3 -1.9,0.7 -2.8,1.3 -1,0.6 -1.9,1.3 -2.7,2.1 -0.7,0.7 -1.4,1.5 -2,2.3 -0.9,1.3 -1.7,2.6 -2.4,4 -0.6,1.2 -1.2,2.4 -1.6,3.7 -0.3,0.9 -0.6,1.8 -0.8,2.9 -0.2,1.1 -0.5,2.2 -0.6,3.3 -0.1,1 -0.2,2 -0.2,3 0,1 0,2 0.1,3 0.1,1 0.2,2 0.3,3 0.1,0.8 0.3,1.6 0.5,2.4 0.3,0.9 0.7,1.8 1.1,2.7 0.4,0.7 0.9,1.4 1.4,2.1 0.4,0.5 0.8,0.9 1.3,1.3 0.8,0.7 1.6,1.2 2.5,1.7 0.6,0.3 1.3,0.6 2,0.8 0.7,0.2 1.5,0.4 2.3,0.6 1.6,0.3 3.2,0.4 4.9,0.3 0.7,0 1.4,-0.1 2.1,-0.3 0.6,-0.1 1.2,-0.4 1.8,-0.6 0.7,-0.3 1.4,-0.8 2,-1.3 0.5,-0.4 0.9,-0.9 1.3,-1.4 0.2,-0.3 0.5,-0.7 0.7,-1 -0.3,-0.3 -0.2,-0.5 -0.2,-0.4 l 0,0 z"
       id="path367"
       inkscape:connector-curvature="0" /><path
       class="st35"
       d="m 820,473 c 1.2,1.7 2.9,1.7 4.5,0.3 2.4,-2.2 3.7,-7.8 2.9,-12.3 -0.8,-4.5 -3.2,-8 -5.5,-5.8 -2.3,2.2 -3.9,9.2 -3.1,13.7 0.1,1.4 0.5,2.8 1.2,4.1 l 0,0 z"
       id="path369"
       inkscape:connector-curvature="0"
       style="fill:#834317" /><path
       d="m 819.5,472.9 c 0.3,0.4 0.7,0.8 1.1,1.1 0.4,0.3 0.9,0.5 1.4,0.6 0.6,0.1 1.1,0 1.6,-0.2 0.5,-0.2 0.9,-0.5 1.2,-0.8 0.4,-0.4 0.7,-0.7 1,-1.2 0.3,-0.4 0.5,-0.8 0.7,-1.2 0.3,-0.5 0.5,-1.1 0.8,-1.7 0.2,-0.5 0.4,-1 0.5,-1.4 0.2,-0.7 0.4,-1.4 0.5,-2.2 0.1,-0.5 0.2,-1.1 0.2,-1.6 0,-0.5 0,-1 0,-1.5 -0.1,-0.7 -0.2,-1.3 -0.3,-2 -0.2,-1.1 -0.6,-2.1 -1,-3.1 -0.2,-0.5 -0.5,-0.9 -0.8,-1.4 -0.3,-0.4 -0.6,-0.7 -0.9,-1.1 -0.2,-0.2 -0.5,-0.4 -0.7,-0.6 -0.2,-0.1 -0.4,-0.2 -0.6,-0.3 -0.2,-0.1 -0.4,-0.1 -0.6,-0.2 -0.3,0 -0.7,0 -1,0.1 -0.4,0.1 -0.8,0.3 -1.1,0.6 -0.4,0.3 -0.8,0.7 -1.1,1.1 -0.3,0.4 -0.6,0.9 -0.9,1.4 -0.3,0.6 -0.6,1.2 -0.8,1.9 -0.2,0.6 -0.4,1.2 -0.6,1.8 -0.2,0.8 -0.4,1.5 -0.5,2.3 0,0.6 -0.1,1.4 -0.1,2.5 0,1.1 0.1,2.2 0.3,3.3 0.2,0.6 0.4,1.2 0.6,1.7 0.2,0.5 0.5,1.1 0.9,1.5 0.1,0.2 0.2,0.3 0.4,0.4 l 0,0 c -0.2,-0.4 -0.3,-0.8 -0.5,-1.3 -0.1,-0.4 -0.2,-0.8 -0.2,-1.2 0,-0.5 0,-1 0,-1.5 0,-0.6 0,-1.2 0.1,-1.8 0.1,-0.6 0.1,-1.2 0.2,-1.8 0.2,-1.2 0.4,-2.3 0.5,-3.1 0,-0.2 0,-0.4 0.1,-0.7 0.1,-1.2 0.4,-2.4 0.7,-3.5 0.2,-0.5 0.3,-0.9 0.5,-1.3 0.2,-0.4 0.4,-0.8 0.7,-1.1 0.2,-0.2 0.5,-0.4 0.7,-0.5 0.2,-0.1 0.5,-0.2 0.8,-0.1 0.2,0 0.4,0.1 0.6,0.2 0.2,0.1 0.3,0.2 0.4,0.3 0.1,0.1 0.3,0.3 0.4,0.5 0.2,0.3 0.4,0.6 0.6,0.9 0.2,0.4 0.4,0.8 0.5,1.3 0.2,0.5 0.3,1 0.4,1.5 0.1,0.5 0.2,1.1 0.3,1.7 0.1,1.3 0.1,2.5 0,3.8 -0.1,1.1 -0.3,2.1 -0.4,2.8 l 0,0.2 c -0.1,1 -0.3,1.9 -0.6,2.8 -0.3,0.8 -0.7,1.6 -1.2,2.3 -0.3,0.4 -0.6,0.6 -1,0.9 -0.4,0.2 -0.8,0.3 -1.3,0.3 -0.4,0 -0.8,-0.1 -1.1,-0.3 -0.3,-0.1 -0.5,-0.3 -0.8,-0.5 -0.2,-0.1 -0.3,-0.3 -0.5,-0.4 l -0.2,-0.2 0.1,0 z"
       id="path371"
       inkscape:connector-curvature="0" /><path
       class="st44"
       d="m 822.5,442.1 c -0.6,1.4 -1,2.9 -1.1,4.4 -0.2,2.6 0.2,4.4 1.2,4 1,-0.4 2.2,-2.5 2.4,-5.1 0.2,-2.6 -0.6,-4.7 -1.6,-4.3 -0.3,0.2 -0.7,0.5 -0.9,1 l 0,0 z"
       id="path373"
       inkscape:connector-curvature="0"
       style="fill:#834317;stroke:#000000;stroke-width:1.99000001" /><path
       class="st44"
       d="m 829.5,442.1 c -0.8,0.9 -1.3,2 -1.6,3.1 -0.7,2.2 -0.8,4.3 0,4.9 0.8,0.6 1.9,-0.3 2.6,-2.5 0.7,-2.2 0.6,-4.9 -0.1,-5.5 -0.3,-0.2 -0.6,-0.2 -0.9,0 l 0,0 z"
       id="path375"
       inkscape:connector-curvature="0"
       style="fill:#834317;stroke:#000000;stroke-width:1.99000001" /><path
       class="st44"
       d="m 833.3,448.7 c -0.7,0.7 -1.2,1.6 -1.4,2.6 -0.6,1.9 -0.8,3.7 -0.2,4.3 0.6,0.6 1.6,-0.1 2.2,-1.9 0.6,-1.8 0.6,-4.3 0,-4.9 -0.1,-0.2 -0.4,-0.2 -0.6,-0.1 z"
       id="path377"
       inkscape:connector-curvature="0"
       style="fill:#834317;stroke:#000000;stroke-width:1.99000001" /><path
       d="m 828.6,439.3 0.3,0 c 0.3,0 0.5,0.1 0.8,0.1 l 0,0 c 1.6,0.3 3.1,1.2 4.1,2.5 0.4,0.5 0.7,1 1,1.6 0.3,0.6 0.5,1.3 0.7,2 0.1,0.5 0.2,1.1 0.3,1.6 0,0.5 0.1,0.9 0.1,1.3 0,0.4 0,0.7 0,1 l 0,0.2 c 0,0.9 0.1,2.3 0.2,3.8 0.1,1.5 0.1,3.2 0.1,4.5 0,1 0,1.8 0,2.2 -0.1,0.9 -0.2,1.8 -0.4,2.6 -0.3,1.3 -0.7,2.6 -1.2,3.8 -0.3,1 -0.7,1.9 -1,2.6 -0.3,0.7 -0.6,1.3 -0.7,1.6 -0.3,0.9 -0.8,1.7 -1.3,2.5 -0.6,0.8 -1.3,1.6 -2.1,2.1 -0.7,0.4 -1.4,0.7 -2.2,0.9 -0.3,0.1 -0.5,0.1 -0.5,0.2 0,0.1 0.1,0.1 0.4,0.2 0.4,0.1 0.8,0.1 1.1,0.1 0.6,0 1.1,-0.2 1.7,-0.4 0.5,-0.2 1,-0.5 1.5,-0.8 0.5,-0.4 1,-0.8 1.4,-1.2 0.6,-0.7 1.2,-1.4 1.6,-2.1 0.4,-0.7 0.7,-1.3 0.9,-2.1 0.3,-1.1 0.5,-2.1 0.7,-3.2 0.3,-1.6 0.4,-3.1 0.5,-4.4 0.1,-1.3 0.2,-2.4 0.3,-3.2 0,-0.3 0.1,-0.8 0.2,-1.4 0.2,-1 0.3,-2.4 0.5,-3.9 0.2,-1.5 0.2,-3.1 0.2,-4.5 0,-0.8 -0.1,-1.6 -0.2,-2.5 -0.1,-0.6 -0.3,-1.2 -0.5,-1.8 -0.3,-0.8 -0.7,-1.6 -1.2,-2.3 -0.4,-0.6 -0.9,-1.2 -1.5,-1.7 -0.5,-0.5 -1.2,-0.9 -1.8,-1.3 -0.5,-0.2 -1,-0.4 -1.5,-0.5 -0.4,-0.1 -0.8,-0.2 -1.3,-0.2 -0.3,0 -0.6,0 -0.8,0 l -0.2,0 -0.2,0.1 0,0 z"
       id="path379"
       inkscape:connector-curvature="0" /><path
       d="m 842.7,444 0,0 0.3,-0.1 0,0 0.8,-0.2 c 0.9,-0.2 1.7,-0.4 2.4,-0.6 1.2,-0.2 2.1,-0.4 2.8,-0.4 0.5,0 0.9,-0.1 1.2,-0.1 0.3,0 0.6,0 0.8,0 l 0.3,0 c 0.3,0 0.9,0 1.6,-0.1 0.7,-0.1 1.6,-0.1 2.5,-0.1 0.9,0 1.7,0.1 2.6,0.2 0.4,0.1 0.8,0.2 1.2,0.3 0.3,0.1 0.6,0.3 0.9,0.4 -0.1,-0.2 -0.3,-0.3 -0.4,-0.5 -0.2,-0.2 -0.4,-0.3 -0.6,-0.4 -0.3,-0.2 -0.6,-0.3 -0.8,-0.4 -0.9,-0.4 -1.8,-0.6 -2.7,-0.8 -0.8,-0.2 -1.6,-0.3 -2.5,-0.4 -0.8,-0.1 -1.5,-0.1 -2.3,-0.1 -0.4,0 -0.9,0.1 -1.3,0.1 -0.3,0 -0.5,0.1 -0.8,0.2 l -0.1,0 c -0.6,0.3 -1.7,0.7 -2.7,1.2 -0.8,0.4 -1.7,0.8 -2.3,1.1 l -0.7,0.4 -0.2,0.3 0,0 0,0 0,0 z"
       id="path381"
       inkscape:connector-curvature="0" /><path
       d="m 882.1,445.5 c 1.1,-0.7 2,-1.2 2.8,-1.7 l 0,0 c 0.4,-0.2 0.8,-0.3 1.2,-0.3 0.3,-0.1 0.7,-0.1 1,0 0.4,0.1 0.9,0.2 1.2,0.5 0.3,0.2 0.5,0.4 0.7,0.7 0.1,0.1 0.2,0.3 0.2,0.5 0.1,0.1 0.1,0.3 0.1,0.4 l 0.1,0.2 c 0.1,0.2 0.1,0.4 0.1,0.6 0,0.3 0,0.6 0,0.9 0,0.7 -0.1,1.5 -0.3,2.2 -0.2,0.6 -0.4,1.3 -0.6,1.9 -0.1,0.3 -0.2,0.5 -0.3,0.6 -0.3,0.5 -0.6,0.9 -1,1.3 -0.6,0.6 -1.2,1.2 -1.8,1.7 -0.6,0.4 -1.2,0.8 -1.8,1.1 -0.5,0.3 -1,0.5 -1.2,0.6 -0.2,0.1 -0.4,0.2 -0.6,0.3 l -1,0.4 c -0.4,0.1 -0.7,0.3 -1.1,0.4 -0.3,0.1 -0.7,0.2 -1.1,0.2 -0.3,0 -0.6,0 -0.9,-0.2 -0.1,0 -0.1,0 -0.2,-0.1 l 0,0 c 0,0 -0.1,-0.1 -0.1,-0.1 l 0,0 c -0.1,0 -0.1,0.1 -0.2,0.2 0,0.1 0,0.2 0,0.2 0.1,0.1 0.2,0.2 0.3,0.3 0.3,0.2 0.6,0.4 0.9,0.5 0.4,0.1 0.8,0.2 1.3,0.3 0.5,0 0.9,0 1.4,0 0.4,0 0.9,-0.1 1.3,-0.2 0.7,-0.1 1.4,-0.4 2,-0.9 0.7,-0.6 1.4,-1.3 2,-2 0.6,-0.8 1.1,-1.6 1.6,-2.4 0.4,-0.7 0.8,-1.4 1,-1.8 l 0.1,-0.1 c 0.4,-0.5 0.7,-1.1 1,-1.6 0.4,-0.8 0.8,-1.7 1,-2.7 0.1,-0.7 0.1,-1.4 0,-2.1 -0.1,-0.7 -0.4,-1.4 -0.9,-1.9 -0.4,-0.4 -0.8,-0.8 -1.3,-1 -0.6,-0.2 -1.2,-0.3 -1.8,-0.3 -0.5,0 -1,0.2 -1.4,0.3 -0.4,0.2 -0.9,0.4 -1.3,0.7 -1.4,1.2 -2.5,2.3 -2.5,2.3 l 0.1,0.1 z"
       id="path383"
       inkscape:connector-curvature="0" /><path
       d="m 814.4,436.3 c 1.2,-0.1 2.4,-0.1 3.5,-0.1 1.2,0.1 1.8,0.2 2.3,0.2 l 0.4,0 c 0.6,-0.1 1.2,-0.2 1.8,-0.3 0.3,-0.1 0.6,-0.1 1,-0.2 0.3,-0.1 0.6,-0.2 0.9,-0.2 0.3,-0.1 0.7,-0.1 1,-0.1 0.3,0 0.6,0.1 0.9,0.1 -0.2,-0.1 -0.3,-0.3 -0.5,-0.4 -0.5,-0.3 -1,-0.4 -1.5,-0.5 -0.3,0 -0.6,0 -1,-0.1 -0.4,-0.1 -0.6,0 -0.9,0 -0.6,0 -1.2,-0.1 -1.8,-0.1 -0.6,-0.1 -1.3,-0.1 -1.9,0.1 l -0.8,0.3 c -1.3,0.5 -3.4,1.4 -3.4,1.3 l 0,0 z"
       id="path385"
       inkscape:connector-curvature="0" /></g></svg>
