<?xml version="1.0" encoding="utf-8"?>
<!-- Generator: Adobe Illustrator 20.0.0, SVG Export Plug-In . SVG Version: 6.00 Build 0)  -->
<svg version="1.1"
	 id="svg16054" inkscape:version="0.91 r13725" sodipodi:docname="quiz4.svg" xmlns:cc="http://creativecommons.org/ns#" xmlns:dc="http://purl.org/dc/elements/1.1/" xmlns:inkscape="http://www.inkscape.org/namespaces/inkscape" xmlns:rdf="http://www.w3.org/1999/02/22-rdf-syntax-ns#" xmlns:sodipodi="http://sodipodi.sourceforge.net/DTD/sodipodi-0.dtd" xmlns:svg="http://www.w3.org/2000/svg"
	 xmlns="http://www.w3.org/2000/svg" xmlns:xlink="http://www.w3.org/1999/xlink" x="0px" y="0px" viewBox="0 0 2126 1187"
	 style="enable-background:new 0 0 2126 1187;" xml:space="preserve">
<style type="text/css">
	.st0{fill:#FFFFFF;}
	.st1{fill:#094B60;stroke:#000000;}
	.st2{fill:url(#path3332_1_);stroke:#000000;}
	.st3{fill:#0C566E;stroke:#000000;}
	.st4{fill:#0B536B;stroke:#000000;}
	.st5{fill:url(#path3340_1_);stroke:#000000;}
	.st6{fill:url(#path3342_1_);stroke:#000000;}
	.st7{fill:url(#path3334_1_);stroke:#000000;}
	.st8{fill:#089BC7;stroke:#000000;}
	.st9{fill:url(#path3393_1_);stroke:#000000;}
	.st10{fill:url(#path3395_1_);stroke:#000000;}
	.st11{fill:url(#path3397_1_);stroke:#000000;}
	.st12{fill:url(#path3399_1_);stroke:#000000;}
	.st13{fill:none;stroke:#000000;}
	.st14{fill:url(#path3377_1_);stroke:#000000;stroke-width:1.0198;}
	.st15{fill:url(#path3352_1_);stroke:#000000;}
	.st16{fill:#094F65;}
	.st17{fill:#089BC7;stroke:#000000;stroke-width:1.0198;}
	.st18{fill:url(#path4349_1_);}
	.st19{fill:#A06121;}
	.st20{fill:#B8854F;}
	.st21{fill:#834317;stroke:#000000;stroke-width:1.6701;}
	.st22{fill:#834317;stroke:#000000;stroke-width:3.3642;}
	.st23{fill:#834317;stroke:#000000;stroke-width:3.7847;}
	.st24{fill:#834317;stroke:#000000;stroke-width:2.6328;}
	.st25{fill:#834317;}
	.st26{fill:#956C45;stroke:#000000;stroke-width:2.8293;}
	.st27{fill:#6E4A25;}
	.st28{fill:#5D381E;}
	.st29{fill:#DDCEBE;}
	.st30{fill:none;stroke:#000000;stroke-width:5;}
	.st31{fill:none;stroke:#000000;stroke-width:4.0005;}
	.st32{stroke:#000000;stroke-width:5;}
	.st33{fill:#956C45;stroke:#000000;stroke-width:3;}
	.st34{fill:#834317;stroke:#000000;stroke-width:1.986;}
</style>
<defs>
	
	<inkscape:path-effect  effect="spiro" id="path-effect5341" is_visible="true"></inkscape:path-effect>
	<inkscape:path-effect  effect="spiro" id="path-effect17606" is_visible="true"></inkscape:path-effect>
	<inkscape:path-effect  effect="spiro" id="path-effect16830" is_visible="true"></inkscape:path-effect>
	<inkscape:path-effect  effect="spiro" id="path-effect16826" is_visible="true"></inkscape:path-effect>
	<inkscape:path-effect  effect="spiro" id="path-effect16822" is_visible="true"></inkscape:path-effect>
	<inkscape:path-effect  effect="spiro" id="path-effect16818" is_visible="true"></inkscape:path-effect>
	<inkscape:path-effect  effect="spiro" id="path-effect16814" is_visible="true"></inkscape:path-effect>
	<inkscape:path-effect  effect="spiro" id="path-effect16810" is_visible="true"></inkscape:path-effect>
	<inkscape:path-effect  effect="spiro" id="path-effect16806" is_visible="true"></inkscape:path-effect>
	<inkscape:path-effect  effect="spiro" id="path-effect16802" is_visible="true"></inkscape:path-effect>
	<inkscape:path-effect  effect="spiro" id="path-effect16798" is_visible="true"></inkscape:path-effect>
	<inkscape:path-effect  effect="spiro" id="path-effect16794" is_visible="true"></inkscape:path-effect>
	<inkscape:path-effect  effect="spiro" id="path-effect16790" is_visible="true"></inkscape:path-effect>
	<inkscape:path-effect  effect="spiro" id="path-effect16786" is_visible="true"></inkscape:path-effect>
	<inkscape:path-effect  effect="spiro" id="path-effect16782" is_visible="true"></inkscape:path-effect>
	<inkscape:path-effect  effect="spiro" id="path-effect16778" is_visible="true"></inkscape:path-effect>
	<inkscape:path-effect  effect="spiro" id="path-effect16774" is_visible="true"></inkscape:path-effect>
</defs>
<sodipodi:namedview  bordercolor="#666666" borderlayer="true" borderopacity="1.0" fit-margin-bottom="0" fit-margin-left="0" fit-margin-right="0" fit-margin-top="0" id="base" inkscape:current-layer="svg16054" inkscape:cx="701.87495" inkscape:cy="448.34105" inkscape:document-units="cm" inkscape:pageopacity="0.0" inkscape:pageshadow="2" inkscape:window-height="744" inkscape:window-maximized="1" inkscape:window-width="1366" inkscape:window-x="0" inkscape:window-y="24" inkscape:zoom="0.35" pagecolor="#ffffff" showgrid="false" units="cm">
	</sodipodi:namedview>
<g id="layer2" transform="translate(0,237.40002)" inkscape:groupmode="layer" inkscape:label="background">
	<rect id="rect4177" y="-241.8" class="st0" width="2146.4" height="1191.4"/>
</g>
<g id="layer1_1_" transform="translate(-138.38 -39.502)" inkscape:groupmode="layer" inkscape:label="Layer 1">
	<g id="g4378_1_" inkscape:export-filename="/Users/EIB/Desktop/stol.png" inkscape:export-xdpi="90" inkscape:export-ydpi="90">
		<path id="path3346" inkscape:connector-curvature="0" class="st1" d="M1161.5,689.4l156.4,14.4l2,12.4l-159.1-14.4L1161.5,689.4z"
			/>
		
			<linearGradient id="path3332_1_" gradientUnits="userSpaceOnUse" x1="1117.1357" y1="434.8644" x2="1158.7269" y2="430.0157" gradientTransform="matrix(1 0 0 -1 -138.38 1226.062)">
			<stop  offset="0" style="stop-color:#114F5F"/>
			<stop  offset="0.4869" style="stop-color:#1FB3D8"/>
			<stop  offset="1" style="stop-color:#0A3A47"/>
		</linearGradient>
		<path id="path3332" inkscape:connector-curvature="0" sodipodi:nodetypes="cccccccc" class="st2" d="M995,944.3l-16.1-5.7
			l13.6-148.1l17.6-145.5l19.9,0.9l-4.7,95.7l-11.4,90.9l-13.3,108.9"/>
		<path id="path3336" inkscape:connector-curvature="0" class="st3" d="M1126.7,869.5l15.2,2.8l12.3-100.4l6.6-67.2l0.9-45.5h-19.9
			l-8.5,102.3l-3.8,78.6L1126.7,869.5z"/>
		<path id="path3338" inkscape:connector-curvature="0" sodipodi:nodetypes="ccccccccccc" class="st4" d="M1317.5,640.5l-4.7,8.7
			l14.7,127.9l11,66.6l11,53.9l16.1,1.3l-1.3-18.1l-11.4-97.8l-14.1-89.7l-10-52.9L1317.5,640.5z"/>
		
			<linearGradient id="path3340_1_" gradientUnits="userSpaceOnUse" x1="1271.8091" y1="400.3133" x2="1275.229" y2="429.4058" gradientTransform="matrix(1 0 0 -1 -138.38 1226.062)">
			<stop  offset="0" style="stop-color:#114F5F"/>
			<stop  offset="0.4869" style="stop-color:#1FB3D8"/>
			<stop  offset="1" style="stop-color:#0A3A47"/>
		</linearGradient>
		<path id="path3340" inkscape:connector-curvature="0" sodipodi:nodetypes="csccccc" class="st5" d="M1020.2,789.5c0,0-6.9,3-7.4,7
			c-0.6,4.7,4,7.4,4,7.4l239.7,29.1l-0.3-15.1l-184.8-21.1L1020.2,789.5z"/>
		
			<linearGradient id="path3342_1_" gradientUnits="userSpaceOnUse" x1="1272.9758" y1="473.3689" x2="1276.2609" y2="507.3214" gradientTransform="matrix(1 0 0 -1 -138.38 1226.062)">
			<stop  offset="0" style="stop-color:#114F5F"/>
			<stop  offset="0.4869" style="stop-color:#1FB3D8"/>
			<stop  offset="1" style="stop-color:#0A3A47"/>
		</linearGradient>
		<path id="path3342" inkscape:connector-curvature="0" sodipodi:nodetypes="csccccc" class="st6" d="M1027.9,713.2
			c0,0-7.7,1.7-7.7,7.7c0,6,5,7.7,5,7.7l227,22.8l-0.7-15.1l-222.3-22.8L1027.9,713.2z"/>
		<path id="path3344" inkscape:connector-curvature="0" class="st4" d="M1156.1,756l171.4,19.1l2.3,12.7l-175.1-19.8L1156.1,756z"/>
		
			<linearGradient id="path3334_1_" gradientUnits="userSpaceOnUse" x1="1388.3948" y1="405.9451" x2="1429.2998" y2="408.8477" gradientTransform="matrix(1 0 0 -1 -138.38 1226.062)">
			<stop  offset="0" style="stop-color:#114F5F"/>
			<stop  offset="0.4869" style="stop-color:#1FB3D8"/>
			<stop  offset="1" style="stop-color:#0A3A47"/>
		</linearGradient>
		<path id="path3334" inkscape:connector-curvature="0" sodipodi:nodetypes="cccccccccc" class="st7" d="M1290.5,976.5l-18,1.9
			l-15.6-133.9l-6.2-128.5v-55.9h16.1l9.5,55.9l6.6,93.8l5.7,110.8L1290.5,976.5z"/>
		<path id="path3391" inkscape:connector-curvature="0" class="st8" d="M1149.4,294.7c0,0,93.2,7.4,112.9,8.6
			c19.7,1.2,121-0.6,121-0.6l-8.9,51.8c0,0-100.9,0.9-112.9,0c-12-0.9-113.2-9.3-113.2-9.3l-0.9-51.2L1149.4,294.7z"/>
		<path id="path3348" inkscape:connector-curvature="0" class="st8" d="M996.9,618v24.2c0,0,13.7,4.7,23.7,6.2
			c9.9,1.4,130.2,16.1,135,16.1c4.7,0,72.9,0.9,79.6,0.9s36.5-2.4,42.1-2.4c5.7,0,73.9-25.1,73.9-25.1l0.5-6.2l-0.9-18.9l-6.2-2.4
			l-173.3-12.3l-18.5-1.4l-30.8,0.9l-78.6,10.4l-40.3,7.1L996.9,618z"/>
		
			<linearGradient id="path3393_1_" gradientUnits="userSpaceOnUse" x1="1323.3422" y1="750.9685" x2="1341.2184" y2="750.4847" gradientTransform="matrix(1 0 0 -1 -138.38 1226.062)">
			<stop  offset="0" style="stop-color:#114F5F"/>
			<stop  offset="0.4869" style="stop-color:#1FB3D8"/>
			<stop  offset="1" style="stop-color:#0A3A47"/>
		</linearGradient>
		<path id="path3393" inkscape:connector-curvature="0" sodipodi:nodetypes="csccsczc" class="st9" d="M1185.5,600.2
			c0,0,1.9-114.8,1.9-133.3c0-18.5,5.6-119,5.6-119l7.3,0.8c0,0-1.9,123.8-1.9,146c0,22.2-2.9,106.7-2.9,106.7s-3.2,1.5-5,1.3
			S1185.5,600.2,1185.5,600.2L1185.5,600.2z"/>
		
			<linearGradient id="path3395_1_" gradientUnits="userSpaceOnUse" x1="1359.5204" y1="747.804" x2="1383.1003" y2="745.869" gradientTransform="matrix(1 0 0 -1 -138.38 1226.062)">
			<stop  offset="0" style="stop-color:#114F5F"/>
			<stop  offset="0.4869" style="stop-color:#1FB3D8"/>
			<stop  offset="1" style="stop-color:#0A3A47"/>
		</linearGradient>
		<path id="path3395" inkscape:connector-curvature="0" sodipodi:nodetypes="cscccsczc" class="st10" d="M1218.2,603.3
			c0,0,5.6-94.4,8-116.6c2.5-22.2,13.2-134.4,13.2-134.4l7.5,0.7l-0.4,5.3c0,0-6.8,130.8-9.9,166.6c-3.1,35.8-7.4,80.2-7.4,80.2
			s-4.5,1.1-6.4,0.8C1221,605.5,1218.2,603.3,1218.2,603.3L1218.2,603.3z"/>
		
			<linearGradient id="path3397_1_" gradientUnits="userSpaceOnUse" x1="1401.3751" y1="746.3631" x2="1421.434" y2="743.9444" gradientTransform="matrix(1 0 0 -1 -138.38 1226.062)">
			<stop  offset="0" style="stop-color:#114F5F"/>
			<stop  offset="0.4869" style="stop-color:#1FB3D8"/>
			<stop  offset="1" style="stop-color:#0A3A47"/>
		</linearGradient>
		<path id="path3397" inkscape:connector-curvature="0" sodipodi:nodetypes="zcsccscz" class="st11" d="M1258,608.2
			c-3.6-0.8-4.4-2.3-4.4-2.3s8.5-82.9,10.4-98.9c1.9-16,20.4-153.4,20.4-153.4l6.6,0.3c0,0-13.4,134.6-17.1,168.5
			c-3.7,33.9-9.9,84.5-9.9,84.5S1261.5,609,1258,608.2L1258,608.2z"/>
		
			<linearGradient id="path3399_1_" gradientUnits="userSpaceOnUse" x1="1442.3789" y1="744.9884" x2="1462.4264" y2="742.1197" gradientTransform="matrix(1 0 0 -1 -138.38 1226.062)">
			<stop  offset="0" style="stop-color:#114F5F"/>
			<stop  offset="0.4869" style="stop-color:#1FB3D8"/>
			<stop  offset="1" style="stop-color:#0A3A47"/>
		</linearGradient>
		<path id="path3399" inkscape:connector-curvature="0" sodipodi:nodetypes="zcsccscz" class="st12" d="M1294.1,611.9
			c-2.2-1.1-4.7-3.2-4.7-3.2s10.8-79.5,13.9-96.2c3.1-16.7,25.6-159.2,25.6-159.2l6.5-0.1c0,0-19.1,152.6-22.2,179.7
			c-3.1,27.2-11.6,78.2-11.6,78.2S1296.3,613,1294.1,611.9L1294.1,611.9z"/>
		<path id="path3350" inkscape:connector-curvature="0" sodipodi:nodetypes="csscszc" class="st13" d="M997.4,618.5
			c0,0,40.7,12.3,54.5,12.3c13.7,0,118.9,9.9,126.9,9.9c8.1,0,89.5,0.5,89.5,0.5s10.4-0.9,18-1.4c7.6-0.5,59.6-19.9,62.5-22.3
			c2.9-2.4,1.8-4.3,1.8-4.3"/>
		
			<linearGradient id="path3377_1_" gradientUnits="userSpaceOnUse" x1="1491.9343" y1="789.8587" x2="1516.6281" y2="784.3687" gradientTransform="matrix(1 0 0 -1 -138.38 1226.062)">
			<stop  offset="0" style="stop-color:#06485C"/>
			<stop  offset="0.4706" style="stop-color:#089BC7"/>
			<stop  offset="1" style="stop-color:#046480"/>
		</linearGradient>
		<path id="path3377" inkscape:connector-curvature="0" sodipodi:nodetypes="cscscsssczczcsscssscccscssscscsczc" class="st14" d="
			M1325.2,611.6c0,0,17.6-107.5,18-109.5c0.4-2.1,4-9.1,4-9.1s-2.1-3.3-1.7-6.8c0.4-3.3,3.5-4.9,3.5-4.9s-3.2-9-1.3-15.7
			c1.9-6.7,20.7-83.8,21.5-88c0.7-4.1-0.6-10.4-0.3-12.5c0.4-2.1,2.4-2.2,2.4-2.2s-2-3.1-1.8-5c0.2-1.9,3-3.4,3-3.4
			s2.5-18.1,4.1-27.2c1.6-9.1,7.1-27.6,7.1-27.6s-2-1.6-0.1-6.5s3.6-8.1,4.1-9.4c0.6-1.3-1.1-5.1-1.1-5.1s-4.9-19.5,14.6-15.8
			c19.9,3.8,2.9,19.6,2.1,21.2c-2.8,5.5,2.4,5.6,1.4,14.4c-0.4,3.1-3.9,5.8-3.9,5.8l-2.6,27.5l-7,27c0,0,2,0.3,1.5,3.4
			c-0.5,3.1-2.2,4.6-2.2,4.6s0.2,3-0.4,5c-0.6,2.1-4.1,1.6-4.5,4.3c-0.5,2.7-14.2,94-15.1,97.4c-0.9,3.4-5.8,10.9-5.8,10.9
			s2.8,1.8,2.1,5.5c-0.7,3.8-3.4,6.3-3.4,6.3s-2.3,26.4-3.4,31.5c-2.4,11.2-18.8,86.4-18.8,86.4s-5.8,1.5-8.4,1
			C1330,614.8,1325.2,611.6,1325.2,611.6L1325.2,611.6z"/>
		
			<linearGradient id="path3352_1_" gradientUnits="userSpaceOnUse" x1="1264.4684" y1="797.9202" x2="1293.5834" y2="796.9527" gradientTransform="matrix(1 0 0 -1 -138.38 1226.062)">
			<stop  offset="0" style="stop-color:#06485C"/>
			<stop  offset="0.4706" style="stop-color:#089BC7"/>
			<stop  offset="1" style="stop-color:#046480"/>
		</linearGradient>
		<path id="path3352" inkscape:connector-curvature="0" sodipodi:nodetypes="cscscsssczccsscsssccscssscscsczc" class="st15" d="
			M1128.2,600.3c0,0,0.4-107.8,0.4-109.8c0-2,2.7-10,2.7-10s-4-2-3.3-5.4s4.7-6,4.7-6s-6.7-6.7-6-13.4c0.7-6.7,6.7-81,6.7-85.1
			c0-4-3.3-8.7-3.3-10.7c0-2,2.7-6,2.7-6s-3.3-2.8-3.3-4.7c-0.1-1.9,2.8-3.6,2.8-3.6l1.2-53.3c0,0-4-1-3-6c1-5,5.7-9.4,6-10.7
			c0.3-1.3-3.7-3-3.7-3s-10.4-19.8,9.7-18.1c20.1,1.7,7.2,18.5,6.7,20.1c-1.8,5.7,2.4,4.4,2.8,12.9c0.2,3-2.8,6.2-2.8,6.2v53.2
			c0,0,3.5,0.9,3.5,3.9s-2.9,3.7-2.9,3.7s2,2.7,2,4.7s-3.3,3-3.3,5.7s2.3,90.4,2,93.8c-0.3,3.3-4,11.4-4,11.4s3.7,2.3,3.7,6
			s-3.3,5.7-3.3,5.7s2.7,25.1,2.5,30.2c-0.5,11.1-5,88-5,88s-5.2,2.8-8,2.8C1133.5,602.8,1128.2,600.3,1128.2,600.3L1128.2,600.3z"
			/>
		<path id="path4187_1_" inkscape:connector-curvature="0" class="st16" d="M1149.1,343.1c0,0,99.5,9.6,114.2,9.6
			c14.7,0,109.4-0.7,109.4-0.7l-1,2.4c0,0-100.1,1.4-111.1,0.7c-11-0.7-111.5-9.3-111.5-9.3L1149.1,343.1z"/>
		<path id="path3379" inkscape:connector-curvature="0" sodipodi:nodetypes="cc" class="st17" d="M1387.9,280.2
			c0,0,8.5-1.4,15.7,2.5"/>
		<path id="path3381" inkscape:connector-curvature="0" sodipodi:nodetypes="cc" class="st17" d="M1383.6,298.9
			c0,0,12.5-0.7,18.2,4.1"/>
		<path id="path3383" inkscape:connector-curvature="0" sodipodi:nodetypes="cc" class="st17" d="M1371.3,362.6c0,0,8.1-2,18.8,3.2"
			/>
		<path id="path3385" inkscape:connector-curvature="0" sodipodi:nodetypes="cc" class="st17" d="M1369.3,371.2c0,0,10.9-3,17.7,2.5
			"/>
		<path id="path3387" inkscape:connector-curvature="0" sodipodi:nodetypes="cc" class="st17" d="M1349.6,481.1
			c0,0,12.1-0.6,16.3,2.8"/>
		<path id="path3389" inkscape:connector-curvature="0" sodipodi:nodetypes="cc" class="st17" d="M1347.7,492.5c0,0,9.1-0.4,16,3.7"
			/>
		<path id="path3354" inkscape:connector-curvature="0" sodipodi:nodetypes="cc" class="st8" d="M1135.9,274.5c0,0,4.9-2.2,12.7,0.1
			"/>
		<path id="path3356" inkscape:connector-curvature="0" sodipodi:nodetypes="cc" class="st8" d="M1133.2,292c0,0,10.2-3,16.6,0.6"/>
		<path id="path3358" inkscape:connector-curvature="0" class="st8" d="M1132.8,353.4c0,0,6.3-2.5,17.6,0.6"/>
		<path id="path3360" inkscape:connector-curvature="0" class="st8" d="M1131,361.7c0,0,11.5-3.7,19.2,0.4"/>
		<path id="path3362" inkscape:connector-curvature="0" class="st8" d="M1132.6,468.9c0,0,8.6-1.8,13.4,0.7"/>
		<path id="path3364" inkscape:connector-curvature="0" class="st8" d="M1131.4,480.5c0,0,8.9-2.2,16.3,0.5"/>
		
			<linearGradient id="path4349_1_" gradientUnits="userSpaceOnUse" x1="1475.0718" y1="595.3148" x2="1336.3706" y2="550.6973" gradientTransform="matrix(1 0 0 -1 -138.38 1226.062)">
			<stop  offset="0" style="stop-color:#06627E"/>
			<stop  offset="1" style="stop-color:#089BC7;stop-opacity:0"/>
		</linearGradient>
		<path id="path4349" inkscape:connector-curvature="0" sodipodi:nodetypes="ccccccccsc" class="st18" d="M1262,641.6l1,21.2
			l16.6-0.6l36.9-12.2l34.2-12.5l0.4-9.5l-0.8-10.7l-28.4,11.8c0,0-29,10.2-37.6,11.5C1274.7,642,1262,641.6,1262,641.6L1262,641.6z
			"/>
	</g>
</g>
<g>
	<g id="g5420_1_" transform="translate(9.498 4.0487)">
		<path id="path5309" d="M824.5,844.4c0,0.3,0,0.5-0.2,0.8c-0.2,0.2-0.5,0.5-0.8,0.6c-0.4,0.2-0.8,0.3-1.3,0.4c-0.5,0.1-1,0.1-1.5,0
			c-1.1-0.1-2.3-0.4-3.5-0.8c-0.3-0.1-0.7-0.3-1-0.4c-1.4-0.7-2.6-1.6-3.3-2.4c-0.4-0.4-0.6-0.9-0.8-1.3c-0.1-0.2-0.1-0.4-0.1-0.6
			c0-0.1,0-0.2,0-0.3l0,0c0-0.1,0.1-0.2,0.1-0.2c0,0,0,0,0,0l0,0h0c0,0,0,0,0,0c0,0,0.1-0.1,0.1-0.2c0.1-0.1,0.1-0.1,0.2-0.2
			c0.1-0.1,0.3-0.2,0.5-0.3c0.4-0.2,0.9-0.2,1.5-0.3c1.1,0,2.4,0.2,3.8,0.7c0.3,0.1,0.6,0.2,0.9,0.3c1.1,0.4,2,0.9,2.8,1.4
			c0.5,0.2,0.8,0.5,1.1,0.8s0.5,0.5,0.7,0.7c0.2,0.2,0.4,0.5,0.5,0.7S824.5,844.2,824.5,844.4L824.5,844.4z"/>
		<path id="path5311" d="M825.1,835.9c0,0.3,0,0.5-0.1,0.8c-0.1,0.3-0.3,0.5-0.5,0.7c-0.5,0.4-1.3,0.8-2.1,0.9
			c-0.8,0.2-1.7,0.2-2.6,0.1c-0.3,0-0.6-0.1-0.9-0.2c-2.3-0.6-3.9-2-3.7-3.3l0,0c0,0,0,0,0,0c0.2-1.4,2.1-2.2,4.4-2.1
			c0.3,0,0.6,0,0.8,0.1c0.8,0.1,1.6,0.3,2.2,0.6c0.7,0.3,1.2,0.7,1.6,1.1c0.2,0.2,0.4,0.4,0.5,0.6
			C825,835.4,825.1,835.6,825.1,835.9L825.1,835.9z"/>
		<path id="path5313" d="M823.9,856.7c0.2,0.8-0.1,1.6-0.7,2.2c-0.6,0.7-1.6,1.2-2.8,1.4c-0.8,0.1-1.6,0.1-2.2-0.1
			c-0.7-0.2-1.3-0.6-1.7-1c-0.2-0.2-0.3-0.4-0.4-0.7c-0.1-0.2-0.1-0.5-0.1-0.7l0,0c0,0,0,0,0,0s0,0,0,0c0-0.2,0.1-0.5,0.2-0.7
			c0.1-0.2,0.2-0.4,0.4-0.6c0.3-0.4,0.8-0.8,1.3-1.1c0.5-0.3,1.1-0.5,1.8-0.6c1-0.1,2,0,2.8,0.3S823.7,856,823.9,856.7L823.9,856.7z
			"/>
		<path id="path5303" inkscape:connector-curvature="0" class="st19" d="M907.7,798.9c-2.3-1.6-4.2-0.8-6.6-0.5
			c-2.4,0.3-4.9,3.3-6,3.6l-0.5,0c-3.7,3.7-9.9,9.3-21.7,13.4c-21.6,7.4-37.7,1-54,21.1c-3,3.7-0.5,18.1,4,25.4
			c5.6,9,20.1,9.7,33.8,4.8c17.2-6.1,39.6-25.6,49.5-38.9c0.2-0.6,0.5-1.5,1.1-2.3c1-1.4,2.2-3.4,3.1-5.5c0.8-2.1,3-7.1,3.1-9.3
			c0.1-2.2-0.4-5.1-1.3-7.2C911.4,801.4,910,800.5,907.7,798.9L907.7,798.9z"/>
		<path id="path5305" inkscape:connector-curvature="0" class="st20" d="M913.4,808c-0.7,1.5-1.4,3-2.3,4.6c-1,1.9-2.1,3.8-3.3,5.7
			c-1.2,1.9-2.5,3.7-4,5.5c-1.2,1.5-2.6,3.1-4.2,4.7s-4.8,3.8-6.7,5.7c-1.9,1.9-3.9,3.9-6,5.8c-2.1,1.9-4.3,3.8-6.6,5.7
			c-2.3,1.8-4.6,3.6-6.9,5.3c-2.3,1.7-4.7,3.3-7.1,4.8c-2.4,1.5-4.7,2.8-7,4c-2.3,1.2-4.6,2.2-6.7,2.9c-1.7,0.6-3.4,1.1-5.2,1.6
			c-1.7,0.4-3.4,0.8-5.1,1c-1.7,0.2-3.4,0.4-5,0.4c-1.6,0-3.2,0-4.7-0.2c-1.5-0.2-2.9-0.5-4.3-0.9c-1.4-0.4-2.7-0.9-3.8-1.5
			c-0.6-0.3-1.1-0.7-1.6-1.1c0,0,0,0.1,0.1,0.1c5.6,9,20.1,9.7,33.8,4.8c17.2-6.1,39.6-25.6,49.5-38.9c0.2-0.6,0.5-1.5,1.1-2.3
			c1-1.4,2.2-3.4,3.1-5.5c0.8-2.1,3-7.1,3.1-9.3C913.6,809.9,913.5,808.9,913.4,808L913.4,808z"/>
		<path id="path5307" d="M912.8,804.2c0.2,1.9,0.4,3.8,0.5,5.6c-0.4,3.3-1.6,6.4-3,9.2c-1.5,2.8-3.2,5.3-4.9,7.7
			c-1.5,2.1-3.1,4-4.7,5.8c-1.6,1.8-3.2,3.4-4.7,4.9c-4.7,4.6-8.9,8.2-12.7,11.2c-5.7,4.4-10.3,7.4-14.2,9.7c-3,1.7-5.5,3.1-7.9,4.2
			c-1.5,0.7-3.4,1.6-5.7,2.4c-2.6,0.9-5.6,1.9-8.8,2.5c-3.3,0.6-6.8,0.9-10.4,0.6l0,0c-2.7-0.2-5.3-0.8-7.6-1.9
			c-2.2-1.1-4-2.6-5.3-4.5c-1.3-2-2.3-4.1-3-6.1l0,0c-1.1-2.8-1.7-5.4-2.1-7.3c-0.1-0.7-0.3-1.4-0.3-1.9c-0.2-1.1-0.3-2.7-0.2-4.7
			c0.1-0.8,0.2-1.6,0.4-2.4c0.2-0.6,0.4-1.1,0.7-1.5c1.5-1.8,3.3-3.6,5.4-5.4c2.1-1.8,4.4-3.4,7-4.8l0,0c1.9-1,4-1.8,6.1-2.5
			c2.1-0.7,4.3-1.2,6.5-1.6c2.4-0.4,4.9-0.8,7.2-1c2.3-0.3,4.6-0.5,6.7-0.8c2.4-0.3,4.6-0.7,6.4-1.1c1.8-0.4,3.3-0.7,4.3-1.1
			c1.4-0.4,3.1-1,5.1-1.7c3-1.1,6.7-2.5,10.4-4.6c2.1-1.2,4.2-2.6,6.2-4.3c1.6-1.3,3-2.7,4.4-4l0,0c1.7-1.5,3.4-2.9,5.3-4
			c1.7-1,3.5-1.7,5.2-1.6c1.3,0,2.5,0.5,3.5,1.3c0.6,0.7,1.1,1.3,1.6,1.9c1.2,1.5,1.9,2.1,2,2l0,0c1.6-1.1,1.6-1.1,0,0l0,0l0,0
			c0.2-0.1-0.9-1.8-2.8-4.8c-0.5-0.5-1.1-0.9-1.8-1.3c-0.7-0.4-1.5-0.7-2.4-0.8c-1-0.2-2.1-0.1-3.2,0.1c-1.1,0.2-2.2,0.6-3.3,1.2
			c-2,1-4,2.3-6,3.8c-1.6,1.2-3.1,2.5-4.6,3.6c-1.8,1.3-3.8,2.5-5.9,3.5c-3.3,1.5-6.7,2.7-10,3.8c-4.9,1.5-9.6,2.5-13.5,3.3
			c-0.5,0.1-1,0.2-1.6,0.3c-4.5,0.9-9.2,1.7-13.9,2.8c-4.6,1.2-9.2,2.9-13.1,5.3c-2.6,1.6-4.9,3.5-7,5.4c-2.1,2-3.8,4-5.4,6
			c-0.5,0.7-0.8,1.4-1,2.1c-0.2,1-0.3,1.9-0.4,2.8c-0.1,2.6,0.2,5,0.5,7c0.1,0.9,0.3,1.8,0.4,2.5c0.2,1.2,0.6,3,1.3,5.1
			c0.6,2,1.4,4.3,2.8,6.7l0,0c0.7,1.1,1.5,2.2,2.5,3.2s2.2,1.9,3.5,2.6c2.5,1.4,5.5,2.3,8.6,2.7c3.5,0.5,7,0.4,10.6,0
			c3.6-0.5,7.1-1.3,10.4-2.5l0,0c5.4-1.8,10.3-4.4,14.4-6.9c4.6-2.8,8.2-5.6,10.6-7.6c1-0.9,2.2-1.9,3.5-3
			c3.5-3.2,7.9-7.4,12.2-12.2l0,0c3.2-3.6,6.3-7.5,8.9-11.4c1.1-1.6,2.1-3.3,3-4.9c0.9-1.6,1.6-3.2,2.3-4.7s1.1-3,1.4-4.3
			c0.3-1.4,0.5-2.6,0.6-3.7C913.1,806.3,912.8,804.2,912.8,804.2L912.8,804.2z"/>
		<path id="path5329" inkscape:connector-curvature="0" sodipodi:nodetypes="ssssssssss" class="st21" d="M831.3,847.2
			c0.1,2.1,1.9,3.8,3.9,3.7c0.6,0,1,0.4,1.1,0.8c0.1,2.8,2.5,4.9,5.3,4.8s5.8-2.7,4.8-5.3c-1.8-4.3-1-6.3-0.5-9.8
			c0.4-2.8-2.5-4.9-5.3-4.8c-2.8,0.1-4.9,2.5-4.8,5.3c0,0.6,0.1,1.1-0.9,1.3C832.8,843.5,831.2,845,831.3,847.2L831.3,847.2z"/>
		<path id="path5336" class="st22" d="M830.2,851.2c1.8-0.1,3.3,1.3,3.4,3c0.1,1.8-1.3,3.3-3,3.4c-1.8,0.1-3.3-1.3-3.4-3
			C827,852.8,828.4,851.3,830.2,851.2z"/>
		<path id="path5338" class="st23" d="M826.3,842.2c1.6-0.1,2.9,1.1,3,2.7c0.1,1.6-1.1,2.9-2.7,3c-1.6,0.1-2.9-1.1-3-2.7
			C823.5,843.6,824.7,842.3,826.3,842.2z"/>
		<path id="path5340" class="st24" d="M831.4,833.9c1.8-0.1,3.3,1.3,3.4,3c0.1,1.8-1.3,3.3-3,3.4c-1.8,0.1-3.3-1.3-3.4-3
			C828.3,835.5,829.6,834,831.4,833.9z"/>
	</g>
	<path id="path5282" inkscape:connector-curvature="0" sodipodi:nodetypes="cssccccssc" class="st19" d="M835.3,884.6
		c0,0,6.2,13.5,6.8,20.5c0.6,7-7.3,18-8.4,22.2s-11.3,19.4-11.3,19.4l27-0.3l13.2-49.5l-3.1-14.1c0,0-1.7,0-5.1-0.8
		s-11.3-0.3-13.5,0.8S835.3,884.6,835.3,884.6L835.3,884.6z"/>
	<path id="path5278" d="M816.5,948.5c2.4,0,4.2,0.1,5.7,0.2c2.1,0.2,3.5,0.5,4.5,0.7c0.5,0.1,1,0.2,1.4,0.2c0.4,0,1.1,0,2.1-0.2
		c1.5-0.2,3.4-0.7,5.2-1.2s3.6-1,4.7-1.4c0,0-1.4-0.3-3.4-0.6c-2-0.3-4.6-0.5-6.8-0.6c-1.1-0.1-2.3-0.3-3.2-0.3
		c-0.8,0-1.3,0-1.7,0.1c-0.6,0.2-1.7,0.6-2.8,1C819.6,947.4,816.5,948.5,816.5,948.5L816.5,948.5z"/>
	<path id="path5234" inkscape:connector-curvature="0" sodipodi:nodetypes="ssssss" class="st19" d="M810,874.7
		c17.5-2.7,32.9,15.2,32.5,36.5c-0.4,22.1-17.7,40.3-32,37.7c-10.1-1.8-20.2-4.4-24-17.8c-1.3-4.5-2.1-15-1.5-20.9
		C786.8,889.5,796.4,876.8,810,874.7L810,874.7z"/>
	<path id="path5236" d="M829.4,939.7c-1,1.7-2.3,3.2-3.6,4.4c-1.4,1.2-2.8,2.1-4.3,2.7c-2.3,0.9-4.7,1.2-7,1.1
		c-3.4-0.1-6.5-0.6-9.1-1.3c-2.7-0.7-4.9-1.7-6.8-2.9c-1.3-0.8-2.4-1.7-3.4-2.6c-1-0.9-1.8-1.8-2.4-2.7c-1.1-1.5-1.9-2.9-2.4-4.2
		c-0.6-1.3-1-2.6-1.3-3.8c-0.2-0.7-0.3-1.3-0.5-2c-0.1-0.6-0.2-1.3-0.4-2.1c-0.3-1.5-0.5-3.3-0.7-5.4c-0.3-3.2-0.7-6.9-0.4-10.6
		c0.2-2.3,0.4-4.6,0.8-6.8c0.4-2.2,0.9-4.3,1.4-6.2c0.5-1.9,1.1-3.6,1.7-4.9s1.1-2.5,1.5-3.2c0.5-1,1.5-2.6,3-4.5
		c1-1.2,2.2-2.5,3.7-3.8c1.5-1.2,3.2-2.4,5-3.3c1.6-0.8,3.3-1.4,5-1.7c1.7-0.4,3.5-0.5,5.2-0.4c2,0.1,3.9,0.5,5.6,1.1
		c1.7,0.6,3.1,1.3,4.3,2c1.3,0.8,2.3,1.5,3,2c0.7,0.5,1.6,1.2,2.6,2.1c1,0.9,2,1.9,3,3.2c1.2,1.5,2.3,3.1,3.3,5c1,1.9,1.9,3.9,2.6,6
		c0.7,2.1,1.3,4.3,1.7,6.4c0.4,2.1,0.6,4.2,0.7,6.1c0,1,0.1,1.6,0.2,1.9s0.2,0.2,0.3-0.2c0.3-0.8,0.6-2.8,0.7-5.6
		c0.1-2.8-0.2-6.5-1.1-10.4c-0.5-1.9-1.1-3.9-2-5.9c-0.8-2-1.9-3.9-3.1-5.7l0,0c-1.3-2-2.8-3.8-4.5-5.3c-1.6-1.5-3.4-2.8-5.1-3.7
		c-0.8-0.4-1.5-0.7-2.2-1c-3.1-1.2-6.6-1.8-10-1.6c-4.2,0.2-8.2,1.6-11.5,3.6c-3.8,2.4-6.7,5.5-8.7,8.4c-2.1,2.9-3.5,5.6-4.5,7.5
		c-0.7,1.4-1.9,3.8-3.1,7c-0.6,1.6-1.1,3.4-1.6,5.4c-0.5,2-0.9,4.1-1.2,6.3c-0.5,3.7-0.5,7.5-0.3,11.3c0.1,1.9,0.3,3.9,0.5,5.8
		c0.2,1.6,0.5,3.1,1,4.7c0.6,1.9,1.3,3.6,2.1,5.2s1.8,2.9,2.7,4c0.9,1,1.7,1.8,2.4,2.4c1.2,1,2.9,2.2,4.9,3.1
		c2.4,1.2,5.2,2.1,8.2,2.6c3,0.5,6.2,0.6,9.2,0.5c2.7-0.1,5.3-0.8,7.4-1.8c1.5-0.7,2.7-1.6,3.7-2.6s1.7-1.9,2.3-2.7
		c0.6-0.8,1-1.5,1.3-2S829.4,939.7,829.4,939.7L829.4,939.7z"/>
	<path id="path5238" inkscape:connector-curvature="0" sodipodi:nodetypes="ssssss" class="st25" d="M791.5,941.1
		c2.2,3.1,5.6,3.3,8.5,0.5c4.5-4.1,7-14.7,5.5-23.2c-1.5-8.5-6-15.1-10.5-11c-4.5,4.1-7.4,17.4-5.9,25.9
		C789.6,936.3,790.3,939.4,791.5,941.1L791.5,941.1z"/>
	<path id="path5240" d="M790.5,941.1c0.6,0.8,1.3,1.6,2.1,2.1c0.8,0.6,1.7,1,2.7,1.1c1.2,0.1,2.3-0.1,3.2-0.5s1.7-0.9,2.4-1.5
		c1-0.9,1.8-1.9,2.5-2.9c0.7-1,1.2-1.9,1.6-2.8c0.9-1.8,1.4-3.4,1.8-4.7c0.5-1.6,0.8-2.9,1.1-4.1s0.4-2.2,0.4-3.1
		c0-0.7,0-1.7-0.1-2.8c-0.1-1.1-0.3-2.4-0.6-3.8c-0.4-1.9-1.1-4.1-2-6c-0.5-1-1-1.8-1.5-2.6c-0.6-0.8-1.1-1.5-1.7-2.1
		c-0.5-0.5-1-0.9-1.4-1.2c-0.5-0.3-0.9-0.5-1.2-0.6c-0.3-0.1-0.7-0.2-1.2-0.3c-0.6-0.1-1.3-0.1-2,0.1c-0.7,0.2-1.5,0.6-2.2,1.2
		c-0.7,0.6-1.4,1.3-2.1,2.1c-0.6,0.8-1.2,1.7-1.7,2.6c-1.3,2.3-2.2,4.8-2.9,6.9c-0.6,1.9-0.9,3.6-0.9,4.5c0,1.1-0.1,2.8-0.1,4.7
		c0.1,1.9,0.3,4.1,0.7,6.3c0.3,1.1,0.8,2.2,1.3,3.3c0.5,1.1,1.1,2.1,1.7,2.9c0.3,0.5,0.6,0.7,0.7,0.8l0,0c0.9-0.6,0.7-0.5,0.1-0.1
		c-0.1-0.3-0.5-1.1-0.8-2.4c-0.2-0.6-0.3-1.4-0.3-2.3c0-0.8,0-1.8,0.1-2.8c0.1-1.1,0.2-2.2,0.3-3.4c0.1-1.1,0.3-2.3,0.5-3.4
		c0.4-2.2,0.8-4.3,0.9-5.9c0-0.4,0.1-0.8,0.1-1.3c0.2-2.2,0.6-4.5,1.3-6.7c0.3-0.9,0.6-1.8,1-2.5c0.4-0.8,0.8-1.5,1.4-2
		c0.4-0.4,0.9-0.8,1.4-1c0.5-0.2,1-0.3,1.4-0.2c0.4,0,0.8,0.2,1.1,0.4c0.3,0.2,0.6,0.4,0.8,0.6c0.2,0.2,0.5,0.5,0.7,0.9
		c0.3,0.5,0.7,1,1,1.7s0.6,1.5,0.9,2.4c0.5,1.8,0.9,3.9,1.1,6c0.2,2.4,0.2,4.9-0.1,7c-0.2,2.2-0.6,4-0.7,5.3c0,0.1,0,0.3,0,0.4
		c-0.1,1.1-0.3,2.7-0.7,4.5c-0.2,0.9-0.5,1.8-0.9,2.7c-0.4,0.9-0.9,1.8-1.5,2.6l0,0c-0.5,0.7-1.2,1.3-1.9,1.7
		c-0.8,0.4-1.6,0.7-2.5,0.7c-0.8,0-1.6-0.2-2.2-0.5c-0.6-0.3-1.2-0.6-1.6-0.9c-0.4-0.3-0.7-0.6-0.9-0.8
		C790.6,941.2,790.5,941.1,790.5,941.1L790.5,941.1z"/>
	<path id="path5242" inkscape:connector-curvature="0" sodipodi:nodetypes="ssssss" class="st21" d="M816.3,889.2
		c-1.3,1.8-2.2,4.8-2.8,8c-0.9,4.8-0.4,8.3,1.5,7.8c1.9-0.5,4.6-4.3,5.5-9.1c0.9-4.8-0.2-8.9-2.2-8.4
		C817.7,887.7,817,888.3,816.3,889.2L816.3,889.2z"/>
	<path id="path5244" inkscape:connector-curvature="0" sodipodi:nodetypes="ssssss" class="st21" d="M809.2,882.8
		c-1.2,0.6-2.4,2.9-3.6,5.6c-1.7,4-2.3,8-1.1,9.2c1.2,1.2,3.6-0.2,5.4-4.3s2.1-9.1,0.9-10.4C810.4,882.4,809.8,882.4,809.2,882.8
		L809.2,882.8z"/>
	<path id="path5246" inkscape:connector-curvature="0" sodipodi:nodetypes="ssssss" class="st21" d="M799.3,883.5
		c-1,0.5-1.9,2.5-2.6,4.9c-1.2,3.6-1.4,7-0.3,8.2c1.1,1.1,3-0.1,4.2-3.7c1.2-3.6,1.2-8.1,0.1-9.2
		C800.3,883.3,799.8,883.3,799.3,883.5L799.3,883.5z"/>
	<path id="path5248" d="M807.7,877.4c0.8,0.1,1.5,0.2,2.2,0.2c1.8,0.4,3.3,1.1,4.6,2c1.2,0.8,2.2,1.8,2.9,2.8c0.8,1,1.3,2,1.8,2.9
		c0.6,1.3,1,2.6,1.3,3.7c0.3,1.1,0.4,2.1,0.5,3c0.2,1.8,0.1,3.2,0.1,4.4c0,0.1,0,0.2,0,0.3c0,1.6,0.3,4.3,0.4,7.1
		c0.2,2.9,0.3,6,0.3,8.5c0,1.8,0,3.3,0,4.2c0,0.9-0.3,2.7-0.9,4.9c-0.5,2.2-1.3,4.8-2.2,7.3c-0.7,1.8-1.4,3.6-2,5
		c-0.6,1.4-1.1,2.5-1.4,3.1c-0.4,1.1-1.2,2.9-2.4,4.8c-1,1.5-2.3,3-3.9,4c-1.3,0.9-2.7,1.4-4,1.7c-0.6,0.1-0.9,0.2-0.9,0.3
		c0,0.1,0.2,0.3,0.7,0.4c0.5,0.1,1.2,0.3,2.2,0.2c0.9,0,2.1-0.2,3.2-0.6c1-0.3,2-0.8,2.9-1.5c1-0.6,1.9-1.4,2.7-2.2
		c1.2-1.3,2.3-2.7,3.1-4.1c0.8-1.4,1.4-2.8,1.7-4c0.5-2,0.9-4.1,1.2-6.2c0.4-3,0.7-5.9,0.8-8.4c0.2-2.5,0.3-4.6,0.6-6
		c0.1-0.6,0.3-1.5,0.5-2.6l0,0c0.3-1.9,0.7-4.5,1-7.4c0.3-2.8,0.5-5.9,0.5-8.6c0-1.7-0.1-3.3-0.4-4.7c-0.2-1.4-0.6-2.6-0.9-3.4
		c-0.5-1.1-1.3-2.8-2.5-4.4c-0.8-1.1-1.8-2.2-2.9-3.2c-1.1-0.9-2.3-1.7-3.5-2.3c-1-0.5-2-0.8-2.9-1c-0.9-0.2-1.7-0.3-2.4-0.3
		C808.6,877.4,807.7,877.4,807.7,877.4L807.7,877.4z"/>
	<path id="path5207" inkscape:connector-curvature="0" sodipodi:nodetypes="czzc" class="st19" d="M984.9,904.9c0,0,11.2-9.7,18-2.1
		c6.8,7.6-4.7,27.8-16.6,31.4c-11.8,3.6-12.1-0.6-12.1-0.6"/>
	<path id="path4426" inkscape:connector-curvature="0" sodipodi:nodetypes="csssssc" class="st19" d="M963.8,775.5
		c21.1,36.8,22.4,95.9,22.1,119.7c-0.2,17.5-14.1,50.2-38,57.5c-9.4,2.9-57.5,27.1-69.1,22.1c-18-7.8,1.3-51-5.7-55
		c-22.7-12.8-10.5-52-6.4-66.7c5.2-18.7,47.5-65.2,88.9-87"/>
	<path id="path4328" inkscape:connector-curvature="0" sodipodi:nodetypes="ssssss" class="st26" d="M884.2,836.2
		c-10.5,0.5-15.2,9.2-20.4,26.6c-5.9,19.8-5.4,45.2,5.1,51.4c10.5,6.2,23.4-1.7,29.3-21.5c5.9-19.8,5.6-50.6-4.7-55
		C892.1,837,885.6,836.2,884.2,836.2L884.2,836.2z"/>
	<path id="path4330" d="M869.6,912.6c-0.4-0.7-1-1.8-1.6-3.1c-0.4-1-0.8-2.1-1.1-3.3c-0.3-1.3-0.4-2.6-0.2-4.1
		c0.1-1.1,0.2-2.2,0.2-3.4s0-2.4,0.1-3.6c0.1-2.3,0.3-4.8,0.6-7.3s0.7-5,1.1-7.6c0.5-2.9,1.1-5.8,1.7-8.6c0.7-2.8,1.4-5.5,2.2-8
		c1.2-3.7,2.6-7,3.8-9.7s2.4-4.7,3.2-6.1c0.9-1.5,2.1-3.4,3.6-5.4c0.6-0.8,1.3-1.6,2.2-2.4s1.8-1.5,2.8-2.3c1.9-1.4,4.1-2.8,6.3-4.1
		c1.8-1,3.7-2,5.6-3.1c0.6-0.3,1.2-0.7,1.8-1.1c0.2-0.1,0.4-0.3,0.6-0.4c0.1-0.1,0.3-0.2,0.4-0.5c1.7-3.4,3.4-6.9,5-10.2
		c1.2-3.3,2.8-6.3,4.5-8.8c0.2-0.2,0.3-0.5,0.5-0.7c0.5-0.7,0.9-1.2,1.2-1.6c0.2-0.3,0.4-0.5,0.5-0.6c0.1-0.1,0.1-0.1,0.1-0.2
		c-0.1-0.1-0.2-0.2-0.2-0.3l0,0c0-0.1-0.1-0.1-0.1-0.1l0,0c0,0,0,0,0.1,0.1l0,0c0,0.1,0.1,0.1,0.2,0.3c0,0-0.1,0.1-0.2,0.1
		c-0.1,0.1-0.3,0.3-0.6,0.6c-0.5,0.5-1.1,1.3-1.9,2.3c-0.7,1-1.6,2.2-2.4,3.7c-0.8,1.5-1.7,3.2-2.4,5.1c-1.6,3-3.4,6.4-5.3,10v0
		c0,0-0.1,0.1-0.2,0.1l0,0c-0.2,0.1-0.3,0.2-0.5,0.3l0,0c-0.6,0.3-1.2,0.7-1.8,1c-1.9,1-3.8,1.9-5.7,3c-2.2,1.2-4.4,2.5-6.5,4
		c-1.9,1.4-3.8,2.9-5.3,4.8c-3.7,4.9-6.3,9.9-8.1,14.1c-1,2.4-1.9,5-2.7,7.6c-1.7,5.5-2.8,11.3-3.6,16.9c-0.8,5.2-1.3,10.2-1.5,15
		c-0.1,2.4,0,4.8-0.2,6.9c-0.1,1.4,0,2.8,0.3,4.1c0.3,1.3,0.7,2.5,1.2,3.6c0.6,1.4,1.3,2.7,2,3.8c0.7,1.1,1.4,2.1,2,3
		c0.1,0.1,0.2,0.2,0.3,0.3c3.6,4.1,5.8,6.3,6,6.3c0.2,0-1.6-2.2-5.9-6.9C871.2,915.1,870.4,913.9,869.6,912.6L869.6,912.6z"/>
	<path id="path4332" d="M904.6,830.8c-0.4,0-1.4-0.1-2.6-0.3c-1.1-0.2-2.3-0.4-2.9-0.4c-0.1,0-0.2,0-0.3,0c-0.4,0-1.2,0-2,0
		c-0.8-0.1-1.7-0.2-2.3-0.4c-0.3-0.1-0.3,0-0.2,0.2c0.2,0.2,0.5,0.5,1,0.7c0.5,0.3,1.1,0.5,1.8,0.7c0.7,0.2,1.3,0.3,1.9,0.3
		c0.2,0,0.4,0,0.5,0c1-0.1,2.1-0.2,3.1-0.3c1-0.1,1.8-0.1,2.3,0c0.5,0.1,0.8-0.1,0.8-0.2C905.7,830.9,905.4,830.7,904.6,830.8
		L904.6,830.8z"/>
	<path id="path4334" d="M906.6,826c-0.3,0-1-0.2-1.8-0.4c-0.8-0.2-1.5-0.5-1.8-0.5c0,0,0,0-0.1,0c-0.6,0-1.9-0.1-2.8-0.3
		c-0.4-0.1-0.1,0.3,0.5,0.7c0.6,0.4,1.4,0.9,2.1,1.1c0.2,0.1,0.4,0.1,0.6,0.1c0.7,0,1.4-0.1,2-0.2c0.6,0,1.2-0.1,1.5,0
		c0.3,0.1,0.5-0.1,0.5-0.2C907.3,826.1,907.1,825.9,906.6,826L906.6,826z"/>
	<path id="path4376" d="M962.5,776.2c3.2,5.4,5.7,10.7,7.7,15.6c2.1,4.9,3.7,9.6,5.1,13.9l0,0c2.2,6.8,3.6,12.8,4.7,18.1
		c1.1,5.2,1.8,9.8,2.4,13.7c0.6,4.4,1,8.1,1.2,11.2s0.5,5.9,0.6,8.4c0.2,2.5,0.4,6.2,0.6,10.5c0.2,3.7,0.3,7.8,0.2,12
		c0,4.3-0.3,8.7-0.7,12.9c-0.3,3.2-0.7,6.3-1.1,9.2c-0.4,2.6-0.8,5.1-1.3,7.3c-0.5,2.2-0.9,4.1-1.4,5.7c-0.3,1.1-0.6,2-0.8,2.8
		c-0.3,1.1-0.9,2.6-1.7,4.6c-0.8,1.9-1.9,4.2-3.2,6.6c-1.1,2-2.5,4.1-4,6.1c-1.6,2.1-3.4,4.1-5.4,5.9l0,0c-2.5,2.2-5.3,4.1-8.2,5.9
		c-3.7,2.2-7.4,4.1-10.8,5.7c-6.1,2.9-11.2,4.9-13.7,6c-2.7,1.2-6.8,3-11.7,4.9c-3.6,1.4-7.5,2.9-11.6,4.3
		c-4.1,1.4-8.4,2.8-12.5,4.1c-3.2,1-6.4,1.9-9.3,2.7c-1.1,0.3-2.2,0.6-3.2,0.8c-1.3,0.3-2.2,0.5-2.6,0.7s-0.4,0.2-0.1,0.3
		c0.4,0,1.1,0,2.1-0.1s2.4-0.3,4-0.5c2.6-0.4,5.9-1,9.6-1.8c3.7-0.8,7.8-1.8,12.1-2.9c4.3-1.1,8.6-2.4,12.9-3.8
		c3.9-1.3,7.8-2.6,11.3-4c3.5-1.4,6.7-2.8,9.3-4.2c1.7-0.9,3.5-1.8,5.2-2.8c3.7-2,7.3-4.2,10.8-6.6c3-2.1,5.8-4.3,8.3-6.8
		c4-4.1,6.9-8.8,9.1-13.1l0,0c2.8-5.5,4.4-10.6,5.6-14.3c0.2-0.6,0.4-1.1,0.5-1.6c0.7-2.2,1.9-6.2,3-11.3c0.6-2.8,1.1-5.9,1.7-9.2
		l0,0c0.6-3.9,1.1-8.1,1.3-12.4c0.3-4.3,0.4-8.7,0.3-13.1l0,0c-0.1-6.1-0.4-12-0.9-17.2c-0.5-5.3-1.2-9.9-1.9-13.4
		c-0.2-0.9-0.3-1.8-0.5-2.5c-0.7-3.2-1.8-7.8-3.3-12.9c-1.5-5.1-3.3-10.8-5.4-16.3c-1.5-3.9-3.1-7.7-4.7-11.1
		c-1.6-3.5-3.2-6.6-4.7-9.3c-1.5-2.7-2.7-4.8-3.7-6.3C963.1,777,962.5,776.2,962.5,776.2L962.5,776.2z M860.8,889.9
		c0-4.6,0.1-8.8,0.5-12.5c0.4-3.7,1-7,1.8-10l0,0c0.8-3.1,1.8-5.7,2.9-8c1-2.3,2.1-4.3,3-6.1c0.9-1.6,1.7-3.1,2.5-4.3
		s1.6-2.4,2.2-3.4c0.9-1.3,1.7-2.4,2.4-3.5c1-1.5,2.6-3.8,4.4-6.5c1.5-2.1,3.1-4.5,4.8-6.8c1.7-2.4,3.5-4.7,5.2-6.9
		c3.4-4.4,6.5-8.1,7.8-9.8c0.2-0.3,0.6-0.6,0.9-1c1.2-1.3,3-3.1,5.2-5.1s4.7-4.3,7.4-6.6c2.7-2.3,5.4-4.5,7.9-6.5
		c2.5-2,4.8-3.7,6.6-5.1c1-0.8,1.9-1.5,2.5-1.9c2.3-2,6.4-5.3,11.2-8.6c2.4-1.7,4.9-3.3,7.4-4.8c2.5-1.5,5-2.9,7.2-4
		c1.1-0.5,1.5-0.8,1.6-1c0-0.1-0.4-0.1-1.2,0.1c-1.6,0.4-4.7,1.3-8.4,2.9c-3.7,1.5-8.1,3.7-12.2,6.1c-4.1,2.4-8,5.1-11,7.6
		c-0.7,0.6-1.3,1.1-1.9,1.7c-4.4,4.1-8.9,8.6-12.9,12.9c-4,4.3-7.6,8.4-10.3,11.4c-1.1,1.2-2.1,2.3-2.9,3.1
		c-1.4,1.4-4.1,4.1-7.4,7.7c-3.3,3.6-7.1,7.9-10.6,12.4c-2.7,3.4-5.2,6.9-7.2,10.1l0,0c-1,1.6-2,3.2-2.7,4.6s-1.4,2.7-1.8,3.8
		c0,0.1,0,0.1-0.1,0.2c-0.6,1.6-1.5,3.9-2.3,6.5c-0.8,2.6-1.6,5.6-2.1,8.6c-0.5,2.8-0.7,5.6-0.8,8.3c-0.1,2.7-0.1,5.2,0,7.4
		c0.1,2.2,0.2,4,0.3,5.3C860.8,889.2,860.8,889.9,860.8,889.9L860.8,889.9z"/>
	
		<g id="g4320_1_" transform="matrix(.98058 .19614 -.19614 .98058 -120.19 -208.99)" inkscape:transform-center-x="61.281973" inkscape:transform-center-y="72.044893">
		<path id="path4280" inkscape:connector-curvature="0" class="st19" d="M1262.3,763.9c-3.1,0-4.3,1.8-6.3,3.6c-2,1.8-2.5,6-3.2,7
			l-0.4,0.3c-1.1,5.6-3.3,14.5-11.5,25.4c-15.1,19.9-33.6,24-36.1,52.2c-0.5,5.2,10.7,16.7,19.2,20.5c10.5,4.7,24.2-3.5,33.6-16.3
			c11.9-16.1,20.3-47.5,21.1-65.6c-0.2-0.7-0.4-1.7-0.4-2.8c0.1-1.9-0.1-4.5-0.6-6.9c-0.5-2.4-1.6-8.2-2.9-10.3
			c-1.3-2.1-3.5-4.4-5.6-5.8C1267.2,763.8,1265.4,763.9,1262.3,763.9L1262.3,763.9z"/>
		<path id="path4282" inkscape:connector-curvature="0" class="st20" d="M1273,768.6c0.3,1.8,0.5,3.6,0.7,5.5
			c0.2,2.3,0.4,4.7,0.4,7.2c0,2.4,0,4.9-0.3,7.4c-0.2,2.1-0.5,4.4-0.9,6.8c-0.4,2.4-2,6.3-2.6,9.2c-0.5,2.9-1.2,5.9-1.9,8.9
			c-0.7,3-1.6,6.1-2.5,9.2c-0.9,3.1-1.9,6.1-3,9.1c-1.1,3-2.3,5.9-3.5,8.6c-1.2,2.8-2.6,5.4-3.9,7.9c-1.4,2.5-2.8,4.8-4.3,6.8
			c-1.2,1.6-2.4,3.1-3.7,4.6s-2.6,2.8-4,4s-2.8,2.4-4.3,3.4c-1.4,1-2.9,1.9-4.4,2.7c-1.5,0.8-3,1.4-4.4,1.9s-3,0.8-4.4,1
			c-0.7,0.1-1.4,0-2.1,0c0,0,0.1,0,0.1,0.1c10.5,4.7,24.2-3.5,33.6-16.3c11.9-16.1,20.3-47.5,21.1-65.6c-0.2-0.7-0.4-1.7-0.4-2.8
			c0.1-1.9-0.1-4.5-0.6-6.9c-0.5-2.4-1.6-8.2-2.9-10.3C1274.3,770.2,1273.7,769.4,1273,768.6L1273,768.6z"/>
		<path id="path4284" d="M1270.2,765.4c1.3,1.6,2.6,3.2,3.9,4.8c1.7,3.3,2.5,6.8,2.9,10.2c0.4,3.4,0.3,6.8,0.2,10
			c-0.1,2.8-0.4,5.5-0.8,8.1c-0.4,2.6-0.8,5-1.2,7.3c-1.4,7-3,12.9-4.7,17.9c-2.4,7.5-4.8,13-6.9,17.5c-1.6,3.4-3.1,6.2-4.6,8.6
			c-0.9,1.5-2.1,3.5-3.7,5.6c-1.8,2.4-3.9,5.1-6.5,7.7c-2.6,2.6-5.6,5-9.1,6.9c-2.6,1.4-5.4,2.5-8.2,2.9c-2.6,0.4-5.3,0.1-7.6-0.9
			c-2.4-1-4.6-2.4-6.5-3.7c-2.7-1.9-4.8-3.8-6.3-5.4c-0.6-0.6-1.1-1.1-1.5-1.5c-0.4-0.4-0.9-1-1.4-1.7s-1.1-1.5-1.6-2.5
			c-0.4-0.8-0.9-1.6-1.1-2.5c-0.2-0.6-0.3-1.3-0.2-1.8c0.3-2.5,0.8-5.3,1.6-8.2c0.8-2.9,1.9-5.8,3.4-8.6l0,0c1.1-2.1,2.5-4.1,4-6
			c1.5-1.9,3.2-3.7,4.9-5.4l0,0c1.9-1.9,4-3.7,5.9-5.4c1.9-1.7,3.8-3.3,5.5-4.8c2-1.8,3.7-3.4,5.1-4.9c1.4-1.5,2.5-2.7,3.3-3.6
			c1-1.2,2.3-2.8,3.6-4.6c1-1.4,2.2-3,3.3-4.8c1.1-1.8,2.3-3.7,3.3-5.8c1.2-2.4,2.2-4.9,3-7.6c0.6-2.1,1-4.3,1.5-6.3
			c0.6-2.4,1.4-4.7,2.3-6.9c0.9-2,2.2-3.8,3.8-4.7c1.3-0.7,2.8-1,4.2-1c0.9,0,1.7,0.2,2.5,0.4c0.4,0.1,0.8,0.2,1.2,0.4
			c1.1,0.5,1.7,0.6,1.7,0.5l0,0l0,0c0.9-1.7,0.9-1.7,0,0l0,0c0-0.1-0.5-0.5-1.5-1.1c-0.4-0.2-1-0.5-1.6-0.7
			c-0.6-0.2-1.4-0.5-2.3-0.6c-0.7-0.1-1.6-0.2-2.4-0.1c-0.9,0.1-1.8,0.3-2.7,0.7c-1,0.5-1.9,1.2-2.8,2c-0.9,0.9-1.6,2-2.3,3.1
			c-1.2,2.2-2.2,4.6-3,7.1c-0.7,2-1.2,4.1-1.9,6.1c-0.8,2.3-1.9,4.6-3.2,6.8c-2,3.4-4.4,6.6-6.8,9.6c-3.5,4.4-7.2,8.2-10.2,11.3
			c-0.4,0.4-0.8,0.8-1.2,1.3c-3.5,3.5-7.4,7.1-10.9,11l0,0c-3.5,3.9-6.6,8.2-8.7,12.8c-1.4,3-2.4,6.1-3,9.2c-0.7,3-1,6-1.2,8.7
			c-0.1,0.9,0.1,1.7,0.4,2.5c0.4,1,0.8,1.9,1.3,2.7c1.5,2.5,3.2,4.4,4.7,6c0.7,0.7,1.4,1.4,2,2c1,1,2.4,2.3,4.3,3.8
			c1.8,1.4,3.9,3,6.7,4.4c1.3,0.6,2.7,1.1,4.2,1.3s3.1,0.3,4.7,0.2c3.2-0.3,6.4-1.3,9.4-2.8c3.4-1.7,6.6-3.9,9.5-6.5
			c2.9-2.6,5.6-5.5,7.9-8.6c3.8-5,6.6-10.3,8.7-15.1c2.4-5.4,4.1-10.1,5-13.4c0.4-1.4,0.8-3,1.3-4.8c1.3-5,2.7-11.6,3.6-18.5l0,0
			c0.7-5.2,1.2-10.6,1.2-15.8c0-2.1-0.1-4.2-0.3-6.2c-0.2-2-0.4-3.9-0.8-5.7c-0.4-1.8-0.8-3.4-1.4-4.8c-0.5-1.4-1.1-2.7-1.8-3.7
			C1271.8,767.2,1270.2,765.4,1270.2,765.4L1270.2,765.4z"/>
		<path id="path4286" d="M1214.7,856c0.2,0.2,0.2,0.5,0.2,0.8c0,0.3-0.1,0.7-0.4,1s-0.6,0.7-1,1.1c-0.4,0.3-0.9,0.7-1.4,0.9
			c-1,0.6-2.3,1.1-3.7,1.4c-0.4,0.1-0.8,0.2-1.2,0.2c-1.7,0.3-3.3,0.2-4.5-0.1c-0.6-0.1-1.1-0.4-1.5-0.6c-0.2-0.1-0.3-0.3-0.4-0.4
			c-0.1-0.1-0.1-0.2-0.1-0.2c0-0.1,0-0.2-0.1-0.2c0,0,0,0,0,0l0,0l0,0c0,0,0,0,0,0c0,0,0-0.1,0-0.2l0,0c0-0.1,0-0.2,0.1-0.3
			c0.1-0.2,0.2-0.4,0.3-0.5c0.3-0.4,0.7-0.7,1.2-1c1-0.6,2.4-1.2,3.9-1.6c0.3-0.1,0.7-0.2,1.1-0.3c1.3-0.3,2.4-0.4,3.5-0.5
			c0.6-0.1,1-0.1,1.4,0c0.4,0,0.8,0.1,1.1,0.2c0.3,0.1,0.6,0.2,0.8,0.3C1214.3,855.7,1214.5,855.8,1214.7,856L1214.7,856z"/>
		<path id="path4288" d="M1210,847.9c0.4,0.4,0.5,1,0.3,1.6c-0.2,0.7-0.7,1.4-1.3,2c-0.6,0.6-1.4,1.2-2.3,1.6
			c-0.3,0.2-0.6,0.3-0.9,0.4c-1.2,0.5-2.3,0.6-3.3,0.6c-0.5,0-0.9-0.2-1.2-0.3c-0.2-0.1-0.3-0.2-0.4-0.3c-0.1-0.1-0.1-0.1-0.2-0.2
			c-0.1-0.1-0.1-0.2-0.1-0.2c0,0,0,0,0,0l0,0v0c0,0,0,0,0,0c0,0,0-0.1-0.1-0.2c0-0.1,0-0.2,0-0.3c0-0.2,0-0.4,0-0.6
			c0.1-0.4,0.3-0.8,0.5-1.2c0.5-0.8,1.3-1.5,2.4-2.2c0.3-0.2,0.5-0.3,0.8-0.5c0.8-0.4,1.6-0.7,2.4-0.9c0.8-0.2,1.5-0.2,2.1-0.1
			C1209.2,847.3,1209.7,847.5,1210,847.9L1210,847.9z"/>
		<path id="path4290" d="M1221.7,867.6c0.6,0.5,0.8,1.4,0.6,2.3c-0.2,1-0.8,2-1.8,2.9c-0.6,0.6-1.4,1-2.1,1.3
			c-0.7,0.3-1.5,0.3-2.1,0.2c-0.3-0.1-0.5-0.2-0.7-0.3c-0.2-0.1-0.4-0.3-0.5-0.5l0,0c0,0,0,0,0,0s0,0,0,0l0,0
			c-0.1-0.2-0.2-0.4-0.2-0.7c0-0.2-0.1-0.5,0-0.8c0.1-0.6,0.2-1.1,0.6-1.7c0.3-0.6,0.7-1.1,1.3-1.6c0.8-0.7,1.8-1.3,2.7-1.5
			C1220.2,867,1221.1,867.1,1221.7,867.6L1221.7,867.6z"/>
	</g>
	<g id="g4380_1_" transform="translate(9.498 4.0487)">
		<g id="g4181_1_" transform="matrix(.65034 0 0 1 869.17 0)">
			<path id="path4157" inkscape:connector-curvature="0" class="st19" d="M35.6,692.5c0,0-12.3-4.3-14-6.1
				c-1.6-1.8-14.8-15.9-15-23.5c-0.2-7.6,0.3-17.8,6.9-24c6.6-6.2,17.6-12.7,22-13.3c4.4-0.7,15.9,4.3,18.1,6.6
				c2.1,2.3,17.1,16.6,18.1,17.9C72.7,651.4,35.6,692.5,35.6,692.5L35.6,692.5z"/>
			<path id="path4159" inkscape:connector-curvature="0" class="st27" d="M35.7,625.6c0,0-0.1,0-0.2,0c-4.4,0.7-15.4,7.1-22,13.3
				c-6.6,6.2-7.1,16.4-6.9,24c0.2,7.6,13.3,21.7,15,23.5c1.6,1.8,14,6.1,14,6.1s3.3-3.7,4.1-4.7c-1.1-0.4-1.3-0.4-2.6-1
				c-1.6-0.6-3.3-1.3-4.7-2c-1.4-0.7-2.5-1.3-2.9-1.7c-0.4-0.5-1.5-1.7-3-3.4c-1.5-1.7-3.3-3.9-5-6.2c-0.9-1.2-1.8-2.4-2.6-3.6
				c-0.8-1.2-1.6-2.5-2.2-3.7c-0.6-1.2-1.2-2.4-1.5-3.5c-0.4-1.1-0.6-2.2-0.6-3.1c0-1.9-0.1-3.9,0.1-6.1c0.1-2.1,0.4-4.3,0.8-6.4
				c0.2-1.1,0.5-2.1,0.9-3.2c0.3-1,0.8-2,1.2-3c0.5-1,1-1.9,1.7-2.8c0.6-0.9,1.4-1.7,2.2-2.5c1.6-1.6,3.6-3.1,5.6-4.6
				c2-1.5,4.2-2.9,6.2-4.1C34.1,626.4,34.9,626,35.7,625.6L35.7,625.6z"/>
			<path id="path4161" d="M73,651.8C73,651.8,73,651.8,73,651.8C73,651.8,73,651.8,73,651.8C73,651.7,73,651.7,73,651.8
				c-0.1-0.2-0.2-0.2-0.2-0.3c-0.2-0.3-0.4-0.6-0.6-0.8c-0.7-1-1.5-2-2.2-2.9l0,0c-2.7-3.5-5.3-6.5-7.7-9.1c-2-2.2-3.9-4-5.7-5.6
				c-1.8-1.6-3.4-3-5-4.1c-2.2-1.6-4.2-2.9-6-3.8c-2.4-1.2-4.5-1.9-6.5-2.2c-0.6-0.1-1.2-0.1-1.8-0.1c-0.9,0-1.9,0.1-3.1,0.3
				c-1.2,0.2-2.4,0.6-3.7,1.2c-1.4,0.6-2.8,1.3-4.3,2.2c-1.4,0.9-2.8,1.9-4.1,3c-1.5,1.2-2.9,2.5-4.1,3.8c-1.3,1.3-2.4,2.6-3.4,3.8
				c-2,2.4-3.4,4.6-4.1,5.7c-0.4,0.7-1.2,1.8-2.2,3.3c-0.7,1-1.3,2.2-1.8,3.6c-0.5,1.4-0.9,3-1.1,4.6l0,0c-0.2,1.5-0.3,3-0.3,4.6
				c0,1.5,0.1,3.1,0.3,4.6l0,0c0.3,3.1,1,6,1.7,8.4c0.4,1.4,0.8,2.6,1.2,3.6c0.4,1,0.8,1.8,1.1,2.4c0,0,0,0,0,0.1
				c0.5,0.9,1.3,2,2.3,3.1s2.2,2.2,3.6,3.2c2.3,1.7,4.9,3.2,7.7,4.5c2.5,1.2,5,2.2,7.4,3.1c1.1,0.4,2.2,0.8,3.3,1.1
				c0.8,0.3,1.4,0.3,1.6,0.3c0.2,0,0.2-0.2-0.2-0.4s-0.9-0.5-1.6-1c-0.7-0.4-1.6-0.9-2.6-1.5c-1.9-1.1-4.2-2.5-6.6-4.2
				c-2.2-1.5-4.5-3.2-6.5-5.1c-0.9-0.9-1.8-1.8-2.5-2.6c-0.7-0.9-1.3-1.8-1.6-2.6c-0.7-1.5-1.3-3-1.9-4.3c-0.1-0.3-0.3-0.7-0.4-1
				c-1-2.4-1.9-5-2.5-7.6c-0.7-2.8-1.1-5.7-1-8.4l0,0c0-1.4,0.2-2.8,0.5-4.1c0.3-1.3,0.8-2.5,1.4-3.5c1.3-2.2,2.6-4,3.6-5.2
				c0.8-0.9,2.1-2.4,4-4.1c1.9-1.7,4.2-3.7,6.9-5.5c2.4-1.6,5.1-3.1,7.9-4c1.2-0.4,2.3-0.7,3.5-0.8c1.1-0.2,2.2-0.2,3.2,0l0,0
				c2,0.3,3.8,0.9,5.4,1.6c1.4,0.6,2.7,1.2,3.6,1.7c0.6,0.3,1.4,0.7,2.2,1.1c1.6,0.9,3.5,2.1,5.4,3.5c2,1.4,4,3,5.9,4.7
				c3.3,2.9,6.4,5.9,8.6,8.3c1.1,1.1,1.9,2.1,2.5,2.7c0.3,0.3,0.5,0.6,0.7,0.8l0,0C72.8,651.6,72.9,651.6,73,651.8
				C73,651.7,73,651.7,73,651.8C73,651.8,73,651.8,73,651.8C73,651.8,73,651.8,73,651.8L73,651.8z"/>
			<path id="path4163" inkscape:connector-curvature="0" class="st25" d="M64.5,662.4c0,0-8.7,7.8-10.7,11c-2,3.3-8,9-8.8,9.1
				c-0.8,0.1-4.1-0.8-4.1-0.8s-5.5-5.8-7.2-9.5c-1.7-3.7-6-7-4.2-11.2c1.9-4.2,3.7-11.4,8.4-11.6c4.7-0.2,11.2-0.3,13.6,0.5
				c2.4,0.8,5.3,2.2,6.6,3.1C59.4,653.9,66.6,660.7,64.5,662.4L64.5,662.4z"/>
			<path id="path4165" inkscape:connector-curvature="0" class="st28" d="M37.4,649.2c-4,1-5.8,7.5-7.5,11.4
				c-1.9,4.2,2.4,7.4,4.2,11.2c1.7,3.7,7.2,9.5,7.2,9.5s3.3,0.9,4.1,0.8c0.3,0,1.3-0.9,2.4-1.9c-0.5,0-1.2-0.1-2-0.3
				c-0.9-0.2-1.7-0.5-1.7-0.5s-1.4-1.5-3-3.4c-0.8-1-1.6-2-2.4-3.1c-0.8-1.1-1.4-2.1-1.9-3.1c-0.4-0.9-1-1.8-1.7-2.7
				c-0.6-0.9-1.3-1.8-1.8-2.7c-0.3-0.5-0.5-0.9-0.7-1.4c-0.2-0.5-0.3-0.9-0.4-1.4c-0.1-0.5-0.1-0.9-0.1-1.4c0.1-0.5,0.2-1,0.4-1.5
				c0.5-1,0.9-2.3,1.4-3.6c0.5-1.3,1-2.6,1.7-3.8c0.3-0.6,0.7-1.1,1-1.7C37.1,649.6,37.3,649.4,37.4,649.2L37.4,649.2z"/>
			<path id="path4167" d="M64.8,662.1c-1.6,0.9-3,1.8-4.3,2.8c-1.3,0.9-2.4,1.9-3.5,2.8c-1.3,1.1-2.4,2.1-3.4,3.1
				c-0.9,0.9-1.8,1.9-2.5,2.9c-0.7,1-1.5,1.9-2.2,2.6c-0.7,0.7-1.5,1.4-2.1,1.9c-0.9,0.7-1.7,1.2-2.4,1.6c-0.7,0.3-1.1,0.5-1.3,0.5
				c0.5,0,0.7,0,0.6,0c0,0,0,0,0,0c0,0-0.2-0.1-0.4-0.2c-0.5-0.3-1.1-0.8-1.9-1.5c-0.8-0.7-1.7-1.6-2.6-2.5c-0.9-0.9-1.8-2-2.7-3
				c-1.1-1.3-2-2.6-2.8-3.8c-0.8-1.2-1.4-2.3-1.8-3.1c-0.2-0.4-0.4-0.8-0.5-1.1c-0.2-0.5-0.4-1.2-0.5-2.3c-0.1-0.8,0-1.8,0.3-2.6
				l0,0c0.6-1.4,1.5-2.8,2.7-4c1.2-1.2,2.6-2.2,4-2.9c1.2-0.7,2.4-1.1,3.4-1.5c1-0.3,1.8-0.6,2.3-0.7c0.6-0.2,1.5-0.5,2.5-0.7
				c0.5-0.1,1.1-0.1,1.8-0.1c0.7,0.1,1.4,0.2,2.2,0.3c1.5,0.3,3.2,0.9,4.7,1.5c1.6,0.8,3.2,1.5,4.5,2.2c0.7,0.3,1,0.4,1.1,0.3l0,0
				c0.9-1.7,0.9-1.7,0,0l0,0l0,0l0,0l0,0l0,0l0,0c0.2-0.3-1.7-2.2-4.6-4.6c-1.4-1-3-2-4.8-2.8c-1.6-0.7-3.4-1.2-5.4-1.2
				c-1.3,0-2.6,0.2-3.7,0.5c-1.1,0.3-2.2,0.7-3,1.2c-1.1,0.6-2.2,1.4-3.3,2.2c-1.6,1.3-3.1,2.9-4.1,4.5c-1.1,1.7-1.8,3.5-2.2,5.2
				c-0.3,1.2-0.2,2.4,0,3.4c0.3,1.5,0.8,2.7,1.1,3.7c0,0.1,0.1,0.3,0.1,0.4c0.2,0.7,0.6,1.8,1.2,3.1c0.6,1.3,1.4,2.9,2.4,4.6
				c1.3,2.2,3,4.6,4.9,6.7c0.7,0.7,1.4,1.5,2.3,2.1c0.3,0.2,0.7,0.5,1.1,0.7c0.3,0.2,0.8,0.3,1.6,0.3c1.4-0.2,2.3-0.7,3-1.2
				c1.2-0.7,2.1-1.5,2.8-2.3c0.5-0.5,0.9-1,1.2-1.4c0.8-1.1,1.8-2.6,2.8-4.5c0.4-0.9,1-1.9,1.7-2.9c0.8-1.2,1.8-2.4,2.8-3.5
				c0.8-1,1.6-1.9,2.4-2.7c0.8-0.8,1.5-1.5,2.2-2.1C63.8,662.8,64.8,662.1,64.8,662.1L64.8,662.1z"/>
			<path id="path4169" d="M16,645.2c0,0-0.1,0-0.1,0.1l0,0c0,0-0.1,0-0.1,0c-0.1,0-0.2,0-0.3,0c-0.2,0-0.3,0-0.5,0
				c-0.4-0.1-0.7-0.2-1.1-0.4c-0.7-0.4-1.5-1-2.2-1.8c-0.3-0.3-0.5-0.5-0.8-0.8c-0.4-0.5-0.8-0.9-1.1-1.3c-0.4-0.5-0.8-1.1-1.1-1.6
				c-0.2-0.3-0.3-0.5-0.4-0.8c-0.1-0.3-0.2-0.5-0.2-0.8s0.1-0.6,0.3-0.8c0.2-0.2,0.5-0.5,1-0.6c0.4-0.1,1-0.2,1.6-0.1
				s1.2,0.3,1.8,0.6c0.8,0.4,1.6,1,2.2,1.7c0.4,0.4,0.7,0.9,0.9,1.3c0.7,1.2,1,2.4,1,3.3c0,0.5-0.1,0.9-0.3,1.3
				c-0.1,0.2-0.2,0.3-0.3,0.5l0,0c-0.1,0.1-0.1,0.1-0.2,0.2c0,0-0.1,0-0.1,0.1C16.1,645.1,16,645.1,16,645.2L16,645.2z"/>
			<path id="path4171" d="M12.5,651c-0.2,0.6-1,1-2.1,1.1c-1.1,0.1-2.5-0.1-3.9-0.5c-0.4,0-0.8-0.1-1.1-0.1
				c-1.4-0.2-2.7-0.6-3.7-1.1c-0.4-0.2-0.8-0.4-1.1-0.6c-0.3-0.2-0.5-0.4-0.7-0.6s-0.4-0.4-0.5-0.6s-0.3-0.4-0.3-0.6
				c0-0.2,0-0.5,0.1-0.7c0.1-0.2,0.3-0.5,0.7-0.7c0.3-0.2,0.7-0.4,1.1-0.5c0.4-0.1,0.9-0.2,1.3-0.3c1.3-0.1,2.8-0.1,4.4,0.2
				c0.4,0.1,0.8,0.2,1.2,0.2l0,0c1.6,0.7,2.9,1.6,3.7,2.4C12.4,649.5,12.7,650.3,12.5,651L12.5,651z"/>
		</g>
		<path id="path4192" inkscape:connector-curvature="0" sodipodi:nodetypes="cssssssssssssc" class="st19" d="M865.7,708.4
			c0,0,1.1-22.8,3.1-27.8s8.2-21.7,13.2-26.4s11-12.7,20.3-17.4s35.7-9.3,41.6-9.3s18.2,4.5,22.4,6.4c4.2,2,14.2,15.2,19.2,21.7
			s15.8,30.9,17.2,36s5.6,26.4,4.8,34s-2.5,20.8-7,27.3s-19.7,19.9-25.3,21s-48.7,17.6-61,13.7s-35.2-25.4-36-31.1
			S866,715.5,865.7,708.4L865.7,708.4z"/>
		<path id="path4272" inkscape:connector-curvature="0" sodipodi:nodetypes="sssscsscsscssscs" class="st28" d="M944,627.4
			c-5.9,0-32.3,4.5-41.6,9.3s-15.2,12.7-20.3,17.4s-11.3,21.4-13.2,26.4s-3.1,27.8-3.1,27.8c0.3,7,11.5,42.5,12.4,48.1
			s20.5,26.7,32.8,30.7c2.6,0.8,4.9,0.7,10.1-1.1c-3.6,0.4-5.6,0.9-7.6,0.3c-12.4-3.9-31.9-24.2-32.8-29.8
			c-0.8-5.6-12.1-41.1-12.4-48.1c0,0,1.1-22.8,3.1-27.8c2-5.1,8.2-21.7,13.2-26.4s11-12.7,20.3-17.4c9-4.6,34.2-9,41-9.3
			C945.4,627.4,944.7,627.4,944,627.4L944,627.4z"/>
		<path id="path4112" d="M875.1,701c0.1-0.1,0.6-0.3,1-0.3c0.2,0,0.5,0,0.7,0c0.2,0,0.4,0.1,0.6,0.2c0.2,0.1,0.4,0.2,0.5,0.2
			c0.2,0,0.6,0.1,1,0.4c0.4,0.2,0.9,0.5,1.2,0.7c0.2,0.1,0.2,0,0.2-0.2s-0.2-0.5-0.4-0.9c-0.2-0.4-0.5-0.7-0.8-1
			c-0.4-0.3-0.8-0.5-1.1-0.5c-0.1,0-0.2,0-0.3,0c-0.7,0-1.3,0.3-1.8,0.5c-0.5,0.3-0.9,0.5-1.1,0.6c-0.3,0.1-0.3,0.3-0.2,0.5
			C874.6,701.3,874.8,701.3,875.1,701L875.1,701z"/>
		<path id="path4114" d="M876.8,696.8c0.1-0.1,0.3-0.2,0.6-0.2c0.3,0,0.5,0,0.7,0.1c0.1,0,0.1,0,0.2,0c0.1,0,0.3-0.1,0.5,0
			s0.5,0.1,0.7,0.2c0.1,0,0.1,0,0.1-0.2c0-0.2-0.1-0.4-0.2-0.6s-0.3-0.5-0.5-0.7c-0.2-0.2-0.5-0.2-0.8-0.2c0,0,0,0-0.1,0
			c-0.4,0.2-0.7,0.5-1,0.7s-0.4,0.4-0.6,0.5c-0.2,0.1-0.1,0.2-0.1,0.4S876.6,697,876.8,696.8L876.8,696.8z"/>
		<path id="path4116" d="M877.8,699c0.3-1.4,0.8-4,1.5-7.3c0.8-3.8,1.8-8.6,2.9-13.7c0.6-3.1,1.3-6.3,1.9-9.4
			c0.4-2.2,1.5-4.2,2.5-6.1c1.5-2.7,3.2-5.1,4.7-7.1c1.9-2.6,3.5-4.5,4.5-5.7c0.3-0.3,0.6-0.7,0.9-1.1c1.2-1.4,2.8-3.2,4.7-5.1
			c1.2-1.1,2.5-2.2,4-3.3s3.2-2.1,4.9-3c3.4-1.9,7.1-3.7,10.6-5.3c3-1.3,5.9-2.5,8.6-3.7c0.3-0.1,0.6-0.2,0.8-0.4
			c0.7-0.3,1.2-0.5,1.6-0.7c0.2-0.1,0.5-0.3,0.6-0.4c0,0,0.1-0.3,0.1-0.7l0,0c-0.1-0.1-0.1-0.1-0.2-0.1c-0.2-0.1-0.2-0.1-0.2-0.1
			c0,0,0,0,0.2,0.2c0,0,0.1,0.1,0.1,0.1l0,0c0,0.3-0.1,0.6-0.1,0.6l0,0c-0.2,0.1-0.4,0.2-0.6,0.3c-0.6,0.2-1.4,0.5-2.5,0.9
			c-2.1,0.8-5.2,1.9-8.8,3.3c-3.3,1.4-7.1,3-10.9,5c-3.3,1.7-6.6,3.7-9.3,6.3c-1.8,1.7-3.4,3.4-4.8,5.1v0c-2.1,2.4-4,4.8-5.4,6.9
			c-0.1,0.1-0.1,0.1-0.2,0.2c-1.6,2.2-3.1,4.6-4.5,7.1l0,0c-1.1,2-2.1,4.2-2.5,6.5c-0.5,3.2-1.1,6.4-1.7,9.4
			c-0.9,5-1.8,9.6-2.6,13.7c-0.9,4.5-1.6,8.3-2.2,11c-0.1,0.5-0.2,1-0.3,1.4c-0.3,1.7-0.6,3-0.7,3.9c-0.1,0.5-0.1,0.8-0.1,1.1
			c0,0.1,0,0.2,0,0.3c0,0,0,0.1,0,0.1c0,0,0,0,0,0c0,0,0,0,0,0c0,0,0,0,0,0c0,0,0,0,0-0.1c0-0.1,0.1-0.2,0.1-0.3
			c0.1-0.2,0.2-0.6,0.3-1.1c0.2-0.9,0.5-2.2,0.9-3.9C877.1,702.6,877.4,701,877.8,699L877.8,699z"/>
		<path id="path4256" inkscape:connector-curvature="0" sodipodi:nodetypes="scsssssscsssssss" class="st20" d="M943.9,627.4
			c-0.3,0-0.6,0-0.9,0c3.8,0.1,4.6,2.1,8.5,2.2c8.6,0.3,26.3,19.1,30.7,25.9c4.5,6.9,15.8,30.9,17.2,36s5.6,26.4,4.8,34
			s-2.5,20.8-7,27.3s-19.7,19.9-25.3,21c-4.4,0.9-28.1,9.9-45.1,10.3c16.7,0.4,43.7-9.4,48.4-10.3c5.6-1.1,20.8-14.6,25.3-21
			s6.2-19.7,7-27.3s-3.4-29-4.8-34s-12.5-29.2-17.2-36c-4.5-6.6-17.1-26.1-30.7-25.9C950.2,629.8,949.8,627.4,943.9,627.4
			L943.9,627.4z"/>
		<path id="path4124" inkscape:connector-curvature="0" sodipodi:nodetypes="sssss" class="st27" d="M900.8,696.6
			c-2.2-1.2-2.7-5.9-3.9-3.5c-1.6,3.2-0.7,7.9,1.2,9.6c1.6,1.5,10.7,2.7,10.7,0C908.8,700,903,697.9,900.8,696.6L900.8,696.6z"/>
		<path id="path4127" inkscape:connector-curvature="0" sodipodi:nodetypes="sssss" d="M905.9,684c-5.2,0-9.2,3.4-9.2,8.6
			c0,5.2,2.2,10.1,7.4,10.6c5.7,0.6,9.7-3.9,9.4-9.4C913.1,688.7,911.1,684,905.9,684z"/>
		<path id="path4129" inkscape:connector-curvature="0" sodipodi:nodetypes="sssss" class="st29" d="M906.7,687.3
			c-0.8-0.9-3.1,0.1-4.1,0.9c-1,0.8-1.2,2.2-0.4,3.1c0.8,0.9,2.2,1,3.1,0.2C906.3,690.7,907.4,688.2,906.7,687.3L906.7,687.3z"/>
		<path id="path4131" inkscape:connector-curvature="0" sodipodi:nodetypes="cc" class="st30" d="M906,685.5c0,0,6.4,0.6,8.2-3.3"/>
		<path id="path4133" d="M1000.8,686.4C1000.8,686.4,1000.8,686.4,1000.8,686.4C1000.8,686.4,1000.8,686.5,1000.8,686.4
			c0,0.1,0,0.1,0,0.1c0,0.1,0.1,0.2,0.1,0.4c0.1,0.4,0.2,0.9,0.3,1.3c0.4,1.4,0.7,2.8,1.1,4.2c0.4,1.7,0.8,3.4,1.2,5
			c0.3,1.4,0.6,2.8,0.8,4.1c0.4,2.9,0.7,5.7,0.9,8.2l0,0c0.3,4,0.4,7.5,0.4,10.5c0,4.2-0.2,7.5-0.5,10.3c-0.2,1.6-0.4,3-0.6,4.3
			c-0.3,1.2-0.6,2.3-0.9,3.2c-0.1,0.4-0.3,0.8-0.4,1.1c-0.6,1.7-1.4,4.1-2.4,6.9c-1,2.8-2.2,5.9-3.8,8.8c-1.1,1.9-2.3,3.6-3.7,5.2
			c-1.4,1.6-2.8,3.1-4.3,4.3s-2.8,2.3-4,3.2c-1.2,0.9-2.2,1.5-2.9,2c-0.3,0.2-0.8,0.5-1.4,0.8c-0.9,0.5-2,1-3.4,1.6
			c-1.4,0.6-2.9,1.1-4.7,1.7l0,0c-3.1,1-6.7,2-10.3,2.9c-4.3,1.1-8.7,2-12.3,2.8c-3.6,0.8-6.6,1.4-8.1,1.8c-0.8,0.2-1.8,0.5-2.9,0.8
			c-2.6,0.7-5.8,1.5-9.4,2.4c-3.6,0.9-7.4,1.7-11.1,2.6c-2.4,0.6-4.8,1.1-7,1.6c-0.6,0.1-1.1,0.3-1.6,0.4c-0.2,0.1-0.5,0.1-0.7,0.2
			c-0.4,0.1-0.8,0.3-1.1,0.4s-0.4,0.3-0.3,0.3c0,0,0.2,0,0.5,0c0.3,0,0.7-0.1,1.1-0.1c0.6,0,1.4-0.1,2.4-0.2
			c1.9-0.1,4.4-0.3,7.2-0.5c6.3-0.5,14.2-1.4,21-2.7c3.3-0.6,6.3-1.3,8.7-2.1c4.7-1.5,9.7-3.1,14.4-4.8c3.6-1.3,7-2.6,10.2-3.9
			c3.1-1.3,5.8-2.6,8.1-3.9c1.6-0.9,2.9-1.7,4-2.3c1.3-0.8,3.6-2.1,6.2-4.2c2.6-2.1,5.6-4.9,8.1-8.5c1.8-2.6,3.3-5.6,4.6-8.5
			c1.3-3,2.3-5.9,3.3-8.7c0.6-1.6,0.9-3.1,1.1-4.6c0.2-1.4,0.3-2.8,0.4-4c0.1-2,0.1-3.8,0-5.1c-0.1-1.5-0.2-3.4-0.5-5.6
			c-0.3-3.2-0.8-6.9-1.5-10.6c-0.5-2.8-1-5.6-1.6-8.3c-0.3-1.4-0.8-2.8-1.2-4.1c-0.6-1.8-1.1-3.4-1.6-4.9c-0.6-1.7-1.1-3.1-1.4-4.1
			c-0.2-0.5-0.3-1-0.4-1.3c-0.1-0.2-0.1-0.3-0.1-0.3C1000.8,686.5,1000.8,686.5,1000.8,686.4
			C1000.8,686.5,1000.8,686.4,1000.8,686.4C1000.8,686.4,1000.8,686.4,1000.8,686.4L1000.8,686.4z"/>
		<path id="path4145" d="M866,709c0-1.9,0.2-3.7,0.4-5.5c0.3-2.6,0.8-5,1.3-7.3l0,0c0.8-3.7,1.6-6.9,2.5-9.8
			c0.9-2.9,1.7-5.4,2.5-7.6c1.5-4.2,2.9-7.3,4.2-9.8c1.2-2.5,2.3-4.4,3.2-6.1c0.2-0.4,0.5-0.8,0.7-1.3c0.9-1.7,2.1-4,3.6-6.5
			c1.5-2.4,3.3-5,5.5-7.1l0,0c2.4-2.5,5.1-4.7,7.5-6.4c2.4-1.7,4.4-2.9,5.5-3.6c0.9-0.5,2.5-1.3,4.6-2.1c2.1-0.8,4.7-1.7,7.5-2.4
			c2.3-0.6,4.8-1.2,7.2-1.6c2.5-0.4,4.9-0.8,7.1-1c4.5-0.5,8.3-0.6,10-0.8c0.6-0.1,1.4-0.1,2.2-0.2c2.2-0.2,5.1-0.2,8.2,0.1
			c3.1,0.3,6.5,1,9.7,2c2.1,0.6,4.1,1.4,6,2.2c0.6,0.3,1.3,0.6,2.1,0.8c0.9,0.3,1.5,0.4,1.8,0.4c0.3,0,0.3-0.1,0.1-0.3
			c-0.3-0.2-0.7-0.4-1.4-0.8c-0.6-0.4-1.3-0.9-2.2-1.4c-1.5-0.9-3.4-2.1-5.7-3.2c-2.6-1.3-5.7-2.4-9-3.2c-3.3-0.8-6.7-1.2-9.9-1.2
			c-2.9,0-5.6,0.2-7.7,0.6c-3.3,0.6-6.6,1.4-9.9,2.3c-3.3,0.9-6.5,2-9.4,3.1c-3.1,1.2-6,2.5-8.5,3.7c-2.4,1.2-4.5,2.3-6,3
			c-1.1,0.5-2.8,1.4-4.9,2.7c-2.1,1.3-4.6,3-7.1,5.1c-2.1,1.8-4.2,4-6,6.4c-1.8,2.4-3.4,4.9-4.8,7.4c-3.1,5.4-5.1,10.5-6,13.5
			c-0.4,1.3-0.8,2.9-1.3,4.8c-0.6,2.6-1.3,5.6-1.8,8.7c-0.6,3.1-1,6.4-1.4,9.4c-0.3,2.8-0.5,5.3-0.6,7.4c-0.1,1.7-0.1,3.1,0,4.1
			C865.9,708.5,866,709,866,709L866,709z"/>
		<path id="path4039" inkscape:connector-curvature="0" sodipodi:nodetypes="cssssssscc" class="st19" d="M954.4,653.5
			c0,0,11.3-16.9,14.3-19.7c3-2.8,3.8-6.6,10.7-7.6c6.9-1,17.9,3.3,20.4,4.9c2.5,1.6,11.8,8.1,13.6,10.4c1.8,2.3,3.1,9.4,3,14.3
			c-0.2,4.9-4.8,15.5-6.6,17.3c-1.8,1.8-11.8,11.2-15.1,12.3c-3.3,1.2-21,3.8-21,3.8L954.4,653.5z"/>
		<path id="path4264" inkscape:connector-curvature="0" sodipodi:nodetypes="cscccscccssscccccssccsssscc" class="st20" d="
			M984.4,687.3c4-0.7,7.8-1.4,9.2-1.9c3.3-1.2,13.3-10.5,15.1-12.3c1.8-1.8,6.4-12.3,6.6-17.3c0.2-4.9-1.1-12-3-14.3
			c-1.8-2.3-11.2-8.7-13.7-10.4c-2.2-1.5-11.1-5-17.9-5.1c1.7,0.3,3.5,0.7,5.2,1.1c2,0.6,3.8,1.2,5.3,1.8c1.5,0.6,2.6,1.2,3.3,1.6
			c1.2,0.8,4.2,2.8,7.1,4.9c1.4,1,2.9,2.1,4,3.1c1.2,1,2.1,1.8,2.5,2.4c0.5,0.6,0.9,1.4,1.2,2.5c0.4,1.1,0.7,2.3,1,3.6
			c0.3,1.3,0.5,2.8,0.6,4.1c0.1,1.4,0.2,2.8,0.1,4c0,1.2-0.4,2.8-0.8,4.5c-0.5,1.7-1.1,3.5-1.8,5.3c-0.7,1.7-1.5,3.4-2.1,4.7
			c-0.7,1.3-1.3,2.3-1.8,2.8c-0.9,0.9-3.9,3.7-7,6.4c-1.6,1.4-3.2,2.7-4.6,3.8c-1.4,1.1-2.7,1.9-3.5,2.2c-0.7,0.2-2,0.5-3.6,0.8
			l-5.6,1L984.4,687.3z"/>
		<path id="path4041" d="M954.9,653.5c3.1-4.2,5.8-7.9,8.2-11.2c2.4-3.1,4.6-5.8,6.6-8c1-1.1,1.9-2.1,2.8-2.9
			c0.7-0.6,1.2-1.2,1.7-1.4c1.3-0.8,2.6-1.2,3.8-1.5s2.3-0.5,3.3-0.5c0.9-0.1,1.8,0,2.5,0c0.8,0.1,1.5,0.1,2.2,0.2
			c0.6,0.1,1.4,0.2,2.4,0.4c1.7,0.4,3.8,0.9,6,1.8c2.2,0.9,4.4,2.1,6.5,3.6c2.4,1.7,4.8,3.1,6.8,4.3c1.3,0.8,2.4,1.6,3.2,2.4
			s1.5,1.4,1.9,1.9c0.1,0.1,0.2,0.2,0.3,0.4c0.5,0.6,1,1.6,1.5,2.9c0.5,1.3,0.8,2.9,0.9,4.6l0,0c0.1,1.9-0.1,4-0.5,6
			c-0.4,2.1-1,4.2-1.6,6.2l0,0c-0.4,1.3-1,2.5-1.8,3.6c-0.7,1.1-1.5,2.1-2.1,3.1c-1,1.3-1.9,2.4-2.4,3.1c-0.9,1.3-2.4,3.1-4.4,5
			c-1.2,1.2-2.5,2.4-4,3.5c-1.5,1.1-3,2.2-4.7,3.1c-1.3,0.7-2.6,1.3-3.8,1.7c-1.3,0.4-2.5,0.7-3.6,0.8c-1,0.1-1.4,0.1-1.4,0.3
			c0,0.1,0.4,0.3,1.2,0.5c0.8,0.2,2.1,0.2,3.6,0.1c1.5-0.2,3.3-0.6,5.2-1.2l0,0c1.7-0.6,3.5-1.4,5.2-2.4c1.7-1,3.5-2.1,5.1-3.4
			c1.7-1.3,3.2-2.7,4.5-4.1c1.3-1.4,2.5-2.9,3.3-4.3c0.2-0.2,0.3-0.5,0.4-0.7c1.4-2.3,2.6-4.9,3.2-7.8l0,0c0.4-2.3,0.7-4.6,0.8-6.9
			c0.1-2.3,0-4.5-0.3-6.5c-0.2-1.7-0.7-3.2-1.3-4.6c-0.6-1.4-1.2-2.5-1.9-3.5c-0.7-0.9-1.3-1.7-1.9-2.3c-0.3-0.4-0.8-0.9-1.4-1.4
			c-0.6-0.5-1.3-1.2-2.1-1.8c-0.9-0.7-1.9-1.5-2.9-2.3c-1.1-0.8-2.2-1.7-3.3-2.7l0,0c-1.8-1.6-3.9-3.1-6.2-4.3
			c-2.3-1.2-4.8-2.2-7.2-2.8l0,0c-1.5-0.4-2.9-0.6-4.4-0.7c-1.4-0.1-2.8-0.1-4.1,0.1c-1.5,0.2-2.8,0.5-3.9,0.9
			c-1.1,0.4-2.1,0.9-2.8,1.3c-0.5,0.3-1,0.7-1.6,1.1c-0.9,0.6-1.5,1.4-2.1,2.2l0,0c-0.8,1-1.7,2.2-2.5,3.4l0,0
			c-1.9,2.8-3.9,5.9-5.7,8.9C958.2,647.9,954.9,653.5,954.9,653.5L954.9,653.5z"/>
		<path id="path4043" inkscape:connector-curvature="0" sodipodi:nodetypes="csscsssssc" class="st25" d="M960.6,661c0,0,9,3.8,11,7
			c2,3.3,8.4,11.3,9.2,11.4c0.8,0.1,4.1-0.8,4.1-0.8s5.5-5.8,7.2-9.5c1.7-3.7,4-7.8,2.1-12c-1.9-4.2-3.5-10.1-6.3-10.8
			c-4.5-1.2-11.2-0.3-13.6,0.5c-2.4,0.8-5.3,2.2-6.6,3.1C966.4,650.8,958.4,660.4,960.6,661L960.6,661z"/>
		<path id="path4045" d="M959.5,660.8C959.5,660.8,959.5,660.8,959.5,660.8C959.5,660.9,959.5,660.9,959.5,660.8
			C959.6,660.9,959.6,660.9,959.5,660.8c0.2,0.1,0.3,0.1,0.4,0.1c0.3,0.1,0.7,0.3,1,0.4c1.2,0.5,2.4,1.1,3.4,1.7
			c1.9,1.2,3.5,2.5,4.7,3.8c1.2,1.3,2,2.6,2.5,3.8c1,2.1,2.1,3.7,3.2,5c1.1,1.3,2.1,2.2,3.1,2.9c0.8,0.7,1.7,1.2,2.7,1.5
			c0.4,0.1,0.8,0.3,1.3,0.4c0.6,0.1,1.3,0.1,2.3-0.1c0.8-0.2,1.5-0.6,2.1-1.3c0.2-0.3,0.5-0.6,0.9-1c0.5-0.5,1-1,1.5-1.6
			c1.3-1.4,2.5-3.1,3.5-4.7l0,0c0.7-1.2,1.3-2.4,1.7-3.5s0.7-2.2,0.9-3c0.1-0.7,0.2-1.3,0.3-1.7c0.1-0.5,0.2-1.3,0.3-2.4
			c0.1-1.1,0.2-2.4,0.1-3.8c-0.2-1.7-0.7-3.5-1.6-5.1s-2-3.2-3.2-4.4c-1.1-1.2-2.4-2.2-3.6-2.9c-1.2-0.7-2.2-1.1-2.8-1.2
			c-0.9-0.2-2.2-0.5-3.8-0.5c-1.2,0-2.5,0.2-3.8,0.6c-1.3,0.4-2.6,0.9-3.8,1.5l0,0c-1.2,0.6-2.4,1.4-3.5,2.3c-1,0.9-1.9,1.9-2.6,2.9
			c-0.3,0.4-0.4,0.7-0.5,0.8c-0.1,0.2,0,0.3,0.1,0.3c0.2,0,0.6-0.3,1.3-0.8c0.7-0.5,1.6-1.1,2.7-1.6c1.1-0.5,2.4-1,3.8-1.4
			c1.1-0.3,2.2-0.5,3.2-0.5c1.1-0.1,2.1-0.1,3,0.1c1.9,0.2,3.4,1.1,4.8,1.7c0.9,0.4,1.9,0.9,2.9,1.6c1.3,0.9,2.5,1.9,3.4,3.1
			c1,1.2,1.7,2.5,2,3.8c0.4,1.5,0.5,2.9,0.4,4.1c-0.1,1.2-0.3,2.3-0.6,3c0,0,0,0,0,0c-0.2,0.5-0.6,1.3-1.1,2.3s-1.3,2-2.2,3.1l0,0
			c-1.1,1.3-2.4,2.6-3.8,3.8l0,0c-0.5,0.5-1.1,0.9-1.6,1.4c-0.4,0.3-0.8,0.7-1.2,1.1c0,0,0-0.1-0.1-0.1c-0.1,0-0.3,0-0.5-0.1
			c-0.8-0.2-1.6-0.7-2.4-1.2c-1.5-1-2.7-2.1-3.5-2.8c-0.7-0.6-1.7-1.5-2.6-2.8c-1.1-1.6-2.6-3.1-4.2-4.3c-1.7-1.2-3.5-2.1-5.1-2.8
			c-1.5-0.6-2.8-1-3.8-1.2c-0.5-0.1-0.8-0.2-1.1-0.2l0,0C959.8,660.9,959.7,660.9,959.5,660.8C959.6,660.9,959.6,660.9,959.5,660.8
			C959.5,660.9,959.5,660.8,959.5,660.8C959.5,660.8,959.5,660.8,959.5,660.8L959.5,660.8z"/>
		<path id="path4050" d="M983.3,630.5c-0.7-0.1-1.3-0.7-1.7-1.6c-0.4-0.9-0.6-2-0.7-3c0-0.2,0-0.3,0-0.5c0-1.2,0.1-2.2,0.3-3.2
			c0.1-0.5,0.3-0.9,0.5-1.2c0.2-0.3,0.5-0.6,0.9-0.8s0.8-0.2,1.2,0s0.8,0.4,1.2,0.9c0.4,0.4,0.7,1,1,1.7c0.3,0.7,0.4,1.5,0.5,2.3
			c0,0.2,0,0.4,0,0.6l0,0c-0.1,1.5-0.6,2.7-1.2,3.5C984.8,630.2,984.1,630.6,983.3,630.5L983.3,630.5z"/>
		<path id="path4052" d="M990.9,631.2c-0.6-0.3-0.9-1.2-0.9-2.4c0-1.2,0.4-2.6,0.9-4.1l0,0c0.1-0.4,0.3-0.7,0.4-1.1
			c0.7-1.7,1.5-3.2,2.2-4.3c0.4-0.5,0.8-1,1.1-1.3c0.4-0.3,0.8-0.4,1.2-0.4s0.7,0.3,1,0.7c0.3,0.4,0.5,1,0.6,1.8
			c0.1,0.7,0.1,1.6,0,2.6c-0.1,0.9-0.4,1.9-0.8,2.9c-0.2,0.4-0.3,0.8-0.5,1.2l0,0c-0.8,1.6-1.8,2.8-2.7,3.6
			C992.4,631.2,991.5,631.5,990.9,631.2L990.9,631.2z"/>
		<path id="path4149" inkscape:connector-curvature="0" sodipodi:nodetypes="sssss" class="st27" d="M871.8,697.1
			c1.4-1.2,2.8-6.6,2.8-3.9c0,2.7,0.5,6.9-0.7,8.7c-1,1.5-7.8,1.8-7.8-0.9S870.4,698.3,871.8,697.1L871.8,697.1z"/>
		<path id="path4151" inkscape:connector-curvature="0" sodipodi:nodetypes="sssss" d="M868.4,683.6c-3.3,0-5.6,2.5-5.6,7.6
			c0,5.2,2.3,10.6,5.6,11.1c3.7,0.6,6.2-3.9,6-9.4C874.2,687.7,871.7,683.6,868.4,683.6z"/>
		<path id="path4153" inkscape:connector-curvature="0" sodipodi:nodetypes="sssss" class="st29" d="M865.4,691
			c0.6,0.4,2.2-1.3,2.9-2.3c0.7-1,0.8-2.2,0.2-2.7c-0.6-0.4-1.7,0.1-2.4,1.1C865.4,688.2,864.8,690.6,865.4,691L865.4,691z"/>
		<path id="path4155" inkscape:connector-curvature="0" sodipodi:nodetypes="cc" class="st31" d="M868.2,685c0,0-4.1,0.6-5.3-3.3"/>
		<path id="path4108" inkscape:connector-curvature="0" sodipodi:nodetypes="cssccsc" class="st25" d="M891.2,711.3
			c1.7,3.5,7.6,14.5,9.8,18.8c0.5,1,8.6,8.8,9.1,9.8c12.5,25.2,16.9,46.3-12,58.9c-37.8,0.9-62.1-42.8-57.6-69.7
			c0,0,2.3-9.8,9.5-13.5c5.9-3,16.3-4.3,39.1-4.6"/>
		<path id="path4243" inkscape:connector-curvature="0" sodipodi:nodetypes="ccccc" class="st20" d="M906.6,738.4
			c11.8,22.6,12.5,49.3-12.7,60.1c2.2,0.3,4.4,0.4,6.6,0.3c27.4-15.5,18.4-34.1,9.6-57.9L906.6,738.4z"/>
		<path id="path4110" inkscape:connector-curvature="0" sodipodi:nodetypes="cscccc" class="st28" d="M842,742.8
			c1.9,2.9,2.3,1.8,2.7,5c0.4,3.4,3.4,16,10.4,23.5l0.2-1.4l-7.8-22.5L842,742.8z"/>
		<path id="path3988" inkscape:connector-curvature="0" sodipodi:nodetypes="sssss" d="M848,721.3c-6.3,0-14.5,7.3-11.3,13.5
			c2.3,4.4,6.6,12.9,11.3,13.5c4.9,0.6,8.1-8.5,11.3-13.5C863.1,729.1,854.3,721.3,848,721.3z"/>
		<path id="path4250" inkscape:connector-curvature="0" class="st28" d="M843.6,721.7c-1.9,3.3-2.6,6.3-2.6,6.3
			c-4.5,26.9,19.8,70.6,57.6,69.7c7.4-3.2,12-7.9,14.4-13.6c-2.6,4.6-6.9,8.5-13.3,11.3c-37.8,0.9-62.1-42.8-57.6-69.7
			C842.2,725.8,842.6,724,843.6,721.7L843.6,721.7z"/>
		<path id="path3994" d="M891.8,711.5c1.4,3.1,2.7,6.1,4,9s2.7,5.6,4.2,8.1c1.7,2.8,3.7,5.1,5.5,7.2c2,2.4,3.8,4.8,4.9,7.2
			c1.4,2.9,2.4,5.8,3.2,8.5c0.8,2.7,1.4,5.2,1.8,7.6c0.5,3.2,0.8,6.2,0.7,8.8c0,2.6-0.3,5-0.6,7c-0.5,2.5-1.1,4.6-1.9,6.5
			c-0.8,1.8-1.6,3.4-2.5,4.8c-0.4,0.5-0.8,1.2-1.3,1.8c-1.1,1.5-2.7,3.2-4.7,4.8c-2,1.6-4.6,3-7.4,4.1c-2.1,0.1-4.2,0-6.4-0.2
			c-2.2-0.2-4.3-0.6-6.4-1.1c-4.2-1.1-8.3-2.7-11.7-4.6c-2.7-1.5-5.1-3.1-7-4.5c-1.9-1.4-3.4-2.7-4.3-3.6c-0.8-0.7-1.9-1.9-3.3-3.4
			s-2.8-3.4-4.3-5.6c-2-3-4.1-6.5-5.9-10.4c-1.8-3.9-3.3-8.1-4.4-12.3c-0.5-2.1-0.9-4.2-1.2-6.2c-0.3-2-0.5-4-0.6-5.8
			c-0.2-3.7,0.1-6.9,0.6-9.4v0h0l0,0c0,0,0,0,0,0c0-0.1,0-0.2,0.1-0.3c0.1-0.4,0.2-0.7,0.3-1c0.3-1,0.7-1.9,0.9-2.5
			c0.1-0.3,0.3-0.6,0.4-1c0.6-1.2,1.3-2.6,2.4-3.9c1-1.3,2.3-2.6,4-3.4c1.8-1,3.9-1.8,6.1-2.4c2.2-0.7,4.6-1.2,7.1-1.7
			c4-0.7,8-1.3,12-1.6c4-0.3,7.8-0.5,11.2-0.6c2.4-0.1,3.3-0.2,2.9-0.4c-0.3-0.2-1.9-0.4-4.3-0.6c-2.4-0.2-5.7-0.4-9.5-0.5
			c-3.8,0-8.3,0.1-12.9,0.6c-2.4,0.2-4.8,0.6-7.3,1.1c-2.5,0.5-4.9,1.3-7.3,2.4l0,0c-2,1-3.8,2.3-5.2,3.9c-1.4,1.5-2.6,3.3-3.5,5
			c-0.7,1.4-1.3,2.7-1.7,4.1c-0.1,0.4-0.3,0.9-0.4,1.3l0,0c0,0.1-0.1,0.2-0.1,0.4l0,0c0,0.1,0,0.1,0,0.2c0,0,0,0,0,0c0,0,0,0,0,0
			l0,0c-0.3,1.7-0.4,3.3-0.4,4.7c-0.1,3.1,0.2,6.3,0.7,9.4c0.5,3.1,1.3,6.2,2.3,9.2c1.4,4.4,3.3,8.6,5.4,12.5
			c2.1,3.8,4.4,7.3,6.7,10.4c2.1,2.8,4.2,5.1,6.2,7.2c2,2,3.8,3.7,5.2,4.9c1.5,1.4,4.1,3.6,7.8,5.9c3.1,1.9,7,3.9,11.5,5.3
			c4.5,1.4,9.5,2.3,14.8,2.3c2.8-0.9,5.6-2.2,8.2-3.9c2.5-1.7,4.8-3.7,6.7-6l0,0c1.9-2.4,3.3-5,4.3-7.6c1-2.6,1.6-5.1,2-7.5
			c0.6-3.7,0.5-6.9,0.3-9.3c-0.2-2.1-0.6-4.8-1.3-7.8c-0.6-2.5-1.4-5.2-2.5-8c-1-2.8-2.3-5.6-3.8-8.3l0,0c-1.5-2.7-3.5-5.1-5.6-7.3
			c-2.1-2.2-4.2-4.4-5.8-6.8c-1.5-2.2-2.7-4.4-3.8-6.4c-1.1-2-2-3.8-2.8-5.3C892.7,713.3,891.8,711.5,891.8,711.5L891.8,711.5z"/>
		<path id="path3996" inkscape:connector-curvature="0" sodipodi:nodetypes="cc" class="st30" d="M847.8,746.9
			c0,0-0.5,10.3,8.4,21.3"/>
		<path id="path3998" inkscape:connector-curvature="0" sodipodi:nodetypes="sssss" class="st32" d="M859.6,767
			c-2.9,0.7-4.6,3.7-3.8,6.8c0.7,3.1,3.3,2.6,6.2,1.9c2.9-0.7,4.9-1.3,4.2-4.4C865.4,768.2,862.5,766.3,859.6,767L859.6,767z"/>
		<path id="path4000" inkscape:connector-curvature="0" sodipodi:nodetypes="sssss" class="st33" d="M869.2,745.1
			c-1,0-1.8,0.9-1.8,1.9c0,1.1,0.3,1.5,1.4,1.5s1.9-0.4,1.9-1.4S870.2,745.1,869.2,745.1L869.2,745.1z"/>
		<path id="path4002" inkscape:connector-curvature="0" sodipodi:nodetypes="sssss" class="st33" d="M880.6,739.4
			c-1.8,0-2.6,1.7-2.6,3.6s0.7,2.4,2.5,2.4s3.4-0.6,3.4-2.5S882.4,739.4,880.6,739.4L880.6,739.4z"/>
		<path id="path4004" inkscape:connector-curvature="0" sodipodi:nodetypes="sssss" class="st33" d="M877,752.1
			c-1.3,0-2.4,1.1-2.4,2.5c0,1.4,0.9,2.3,2.2,2.3c1.3,0,2.1-0.8,2.1-2.2C879,753.3,878.4,752.1,877,752.1L877,752.1z"/>
		<path id="path4006" inkscape:connector-curvature="0" sodipodi:nodetypes="sssss" class="st29" d="M849.7,725.1
			c-1.8,0-3.5-0.1-3.5,1.8s1.7,1.6,3.5,1.6s6,3.5,6,1.6C855.7,728.3,851.5,725.1,849.7,725.1L849.7,725.1z"/>
	</g>
	<g id="g4371_1_" transform="matrix(1.4454 .17475 -.25653 .98461 -250.94 -126.32)">
		<path id="path4336" class="st28" d="M931.6,876.9c0,0-0.1,0.1-0.1,0.1c-0.1,0.1-0.4,0.3-0.7,0.5c-0.3,0.2-0.7,0.4-1,0.6
			c-0.3,0.2-0.7,0.4-1,0.6c-0.2,0.1-0.4,0.2-0.6,0.4c-0.3,0.3-0.5,0.5-0.5,0.7c-0.1,0.1-0.1,0.3-0.2,0.5c-0.1,0.2-0.2,0.4-0.3,0.5
			c-0.5,0.6-1.1,1.3-1.6,1.9c-0.1,0.2-0.1,0.2,0,0.2c0.1,0,0.3-0.1,0.5-0.2c0.5-0.2,1.2-0.6,1.9-1.1c0.4-0.3,0.6-0.6,0.8-0.9
			c0.2-0.3,0.3-0.4,0.3-0.5c0,0,0,0,0,0c0.1-0.1,0.2-0.3,0.4-0.4c0.3-0.3,0.5-0.6,0.8-0.9c0.5-0.6,1.1-1.1,1.5-1.5
			c0.1-0.1,0.3-0.2,0.4-0.3C932.8,876.6,932.4,876,931.6,876.9L931.6,876.9z"/>
		<path id="path4338" d="M931.4,876.5c0,0-0.1,0.1-0.1,0.1c-0.4,0.3-1.3,0.9-2.1,1.6c-0.7,0.5-1.4,1.1-1.6,1.3
			c-0.2,0.2-0.4,0.5-0.7,0.9c-0.3,0.3-0.5,0.7-0.8,1.1c-0.3,0.4-0.5,0.8-0.7,1.1c-0.1,0.2-0.1,0.3,0,0.2c0.1,0,0.3-0.1,0.6-0.3
			s0.6-0.4,0.9-0.6s0.7-0.4,1-0.7c0.5-0.4,1-0.8,1.3-1.2c0.2-0.4,0.5-0.7,0.8-1.1c0.6-0.8,1.2-1.5,1.7-2c0.1-0.1,0.3-0.2,0.4-0.3
			c0.1-0.1,0.2-0.1,0.2-0.2c0.1-0.1,0.1-0.1,0.1-0.2c0,0,0-0.1,0-0.1c0-0.1,0-0.1-0.1-0.1c0,0-0.1,0-0.1,0c-0.1,0-0.1,0-0.2,0.1
			C931.7,876.2,931.6,876.3,931.4,876.5L931.4,876.5z"/>
		<path id="path4340" d="M932.2,882.2C932.2,882.2,932.2,882.2,932.2,882.2c-0.4-0.3-1.1-1.1-1.7-1.9c-0.6-0.7-1.1-1.4-1.3-1.6
			c-0.3-0.2-0.7-0.6-1.2-1.1c-0.4-0.5-0.9-1-1.1-1.5c-0.1-0.2-0.2-0.2-0.2,0.1c0,0.3,0,0.7,0.2,1.2c0.2,0.5,0.4,1.1,0.7,1.6
			c0.3,0.5,0.7,0.9,1,1.2c0.4,0.3,0.8,0.6,1.2,0.9c0.8,0.5,1.5,1.1,2,1.5c0.1,0.1,0.2,0.2,0.3,0.3c0.1,0.1,0.2,0.2,0.3,0.2
			c0.1,0,0.2,0.1,0.2,0.1c0,0,0.1,0,0.1,0c0,0,0.1-0.1,0.1-0.1c0,0,0-0.1,0-0.1c0-0.1,0-0.1-0.1-0.2
			C932.6,882.5,932.5,882.4,932.2,882.2L932.2,882.2z"/>
	</g>
	<path id="path4488" inkscape:connector-curvature="0" sodipodi:nodetypes="ssssss" class="st19" d="M867.8,889.2
		c20.8-3.3,39.1,18,38.6,43.4c-0.5,26.3-21.1,48-38,44.8c-12-2.2-24-5.2-28.5-21.2c-1.5-5.4-2.4-17.9-1.8-24.9
		C840.3,906.8,851.8,891.7,867.8,889.2L867.8,889.2z"/>
	<path id="path5440" inkscape:connector-curvature="0" sodipodi:nodetypes="ccccc" class="st27" d="M893.1,962.4
		c-8.3,16.4-12.3,14.6-25.9,14.2c-10.1-1.9-20.2-4.3-25.9-14.6c5.5,11,15.9,13.5,26.3,15.4C879.9,974.7,884.7,974.1,893.1,962.4
		L893.1,962.4z"/>
	<path id="path4498" d="M891.2,966.7c-1.3,2-2.7,3.8-4.4,5.3c-1.6,1.4-3.4,2.6-5.2,3.3c-2.8,1.1-5.7,1.4-8.4,1.4
		c-4.1-0.1-7.7-0.7-10.9-1.6c-3.2-0.9-5.9-2.1-8.1-3.5c-1.6-1-2.9-2-4.1-3.1c-1.2-1.1-2.1-2.2-3-3.3c-1.3-1.8-2.3-3.5-3-5.1
		c-0.7-1.6-1.2-3.1-1.7-4.5c-0.2-0.8-0.4-1.6-0.6-2.4c-0.1-0.7-0.3-1.5-0.4-2.5c-0.3-1.8-0.6-4-0.9-6.5c-0.4-3.9-0.8-8.3-0.4-12.7
		c0.2-2.7,0.6-5.5,1-8.1c0.5-2.6,1.1-5.1,1.7-7.4c0.7-2.2,1.4-4.2,2.1-5.9c0.7-1.6,1.3-2.9,1.8-3.8c0.6-1.2,1.8-3.1,3.6-5.4
		c1.2-1.5,2.7-3.1,4.4-4.6c1.7-1.5,3.8-2.9,6-4l0,0c1.9-1,3.9-1.7,6-2.1c2.1-0.5,4.2-0.6,6.2-0.6l0,0c2.4,0.1,4.8,0.6,6.8,1.2
		s3.8,1.5,5.3,2.4c1.6,0.9,2.8,1.8,3.7,2.4c0.9,0.6,2,1.5,3.1,2.5c1.1,1.1,2.3,2.4,3.5,3.8c1.4,1.8,2.8,3.8,4,6
		c1.2,2.2,2.3,4.7,3.1,7.2c0.9,2.5,1.5,5.1,2,7.6c0.4,2.5,0.7,5,0.8,7.2c0.1,1.2,0.1,1.9,0.2,2.2c0.1,0.3,0.2,0.2,0.3-0.3
		c0.3-0.9,0.6-3.3,0.6-6.7c0-3.4-0.4-7.7-1.6-12.3c-0.6-2.3-1.4-4.6-2.4-6.9c-1-2.3-2.3-4.5-3.7-6.6l0,0c-1.6-2.3-3.4-4.4-5.3-6.2
		c-1.9-1.8-4-3.2-6-4.3c-0.9-0.5-1.8-0.9-2.6-1.2c-3.7-1.4-7.7-2.2-11.8-2l0,0c-2.5,0.1-4.9,0.6-7.1,1.3s-4.4,1.7-6.4,2.9
		c-2.3,1.4-4.3,3-6,4.7c-1.7,1.7-3.2,3.5-4.4,5.2c-2.5,3.5-4.2,6.7-5.4,8.9c-0.9,1.6-2.3,4.5-3.6,8.4c-0.7,1.9-1.3,4.1-1.9,6.4
		c-0.6,2.3-1,4.9-1.4,7.5c-0.3,2.2-0.4,4.4-0.5,6.6c0,2.2,0,4.5,0.2,6.7c0.1,2.3,0.3,4.6,0.7,6.8c0.3,1.8,0.6,3.7,1.1,5.5
		c0.7,2.2,1.5,4.3,2.5,6.1c1,1.8,2.1,3.4,3.1,4.7c1,1.2,2,2.1,2.9,2.9c1.4,1.2,3.3,2.6,5.7,3.8c1.4,0.7,2.9,1.3,4.5,1.9
		c1.6,0.5,3.3,1,5.1,1.3c3.6,0.6,7.3,0.8,10.9,0.7c1.6-0.1,3.2-0.3,4.7-0.6c1.5-0.3,2.9-0.8,4.1-1.4c1.8-0.8,3.2-1.9,4.4-3
		c1.2-1.1,2.1-2.2,2.8-3.2c0.7-1,1.2-1.8,1.5-2.3S891.2,966.7,891.2,966.7L891.2,966.7z"/>
	<path id="path4490" inkscape:connector-curvature="0" sodipodi:nodetypes="ssssss" class="st25" d="M845.9,968.1
		c2.6,3.7,6.6,3.9,10.2,0.7c5.4-4.9,8.3-17.5,6.6-27.6c-1.8-10.1-7.1-18-12.5-13.1c-5.4,4.9-8.8,20.7-7,30.8
		C843.7,962.4,844.5,966.2,845.9,968.1L845.9,968.1z"/>
	<path id="path4492" d="M845,968c0.7,1,1.5,1.8,2.4,2.5c0.9,0.7,2,1.1,3.1,1.3c1.4,0.1,2.6-0.1,3.7-0.5c1.1-0.4,2-1.1,2.7-1.8
		c0.9-0.8,1.7-1.7,2.3-2.6c0.6-0.9,1.2-1.8,1.6-2.6c0.7-1.3,1.3-2.6,1.7-3.8c0.5-1.2,0.8-2.2,1.1-3.2c0.6-1.9,0.9-3.5,1.2-4.9
		c0.3-1.4,0.4-2.6,0.5-3.7c0-0.8,0-2-0.1-3.3s-0.3-2.9-0.7-4.5c-0.5-2.3-1.2-4.8-2.3-7c-0.5-1.1-1.1-2.2-1.8-3.1
		c-0.6-0.9-1.3-1.8-2-2.4c-0.5-0.6-1.1-1-1.7-1.4c-0.5-0.3-1-0.6-1.4-0.7c-0.3-0.1-0.8-0.3-1.3-0.4c-0.7-0.1-1.5-0.1-2.3,0.2
		c-0.9,0.2-1.8,0.7-2.5,1.4c-0.9,0.7-1.7,1.6-2.4,2.5c-0.7,1-1.4,2-1.9,3.1c-0.7,1.4-1.4,2.8-1.9,4.2c-0.5,1.4-1,2.8-1.3,4
		c-0.7,2.3-1,4.2-1.1,5.3c-0.1,1.3-0.2,3.2-0.1,5.5s0.3,4.8,0.8,7.4c0.4,1.3,0.8,2.6,1.4,3.9c0.6,1.3,1.2,2.4,2,3.5
		c0.4,0.6,0.7,0.9,0.8,1c0.8-0.6,0.7-0.5,0.1-0.1c-0.1-0.3-0.6-1.3-1.1-2.8c-0.2-0.8-0.4-1.7-0.5-2.7c-0.1-1-0.1-2.1,0-3.3
		c0-1.3,0.1-2.7,0.2-4c0.1-1.4,0.3-2.7,0.5-4.1c0.4-2.7,0.9-5.1,1.1-7.1c0-0.5,0.1-1,0.2-1.5c0.3-2.7,0.8-5.4,1.7-7.9
		c0.4-1.1,0.8-2.1,1.2-3c0.5-0.9,1-1.8,1.7-2.4c0.5-0.5,1.1-1,1.7-1.2s1.2-0.4,1.7-0.3c0.5,0.1,1,0.2,1.3,0.4s0.7,0.5,1,0.8
		c0.2,0.3,0.6,0.6,0.9,1.1c0.4,0.6,0.8,1.2,1.3,2.1c0.4,0.8,0.8,1.8,1.1,2.8s0.6,2.2,0.8,3.4s0.4,2.5,0.6,3.8c0.3,2.9,0.3,5.9,0,8.5
		c-0.3,2.6-0.7,4.8-0.9,6.4c0,0.2,0,0.3-0.1,0.4c-0.2,1.5-0.5,3.8-1.4,6.3c-0.6,1.8-1.5,3.7-2.8,5.2c-0.7,0.8-1.5,1.5-2.4,2
		s-1.9,0.8-2.9,0.8c-1,0-1.8-0.3-2.5-0.6s-1.3-0.7-1.8-1.1c-0.5-0.4-0.8-0.7-1-0.9C845.1,968.1,845,968,845,968L845,968z"/>
	<path id="path4500" inkscape:connector-curvature="0" sodipodi:nodetypes="ssssss" class="st34" d="M851.5,898.6
		c-1.3,2.3-2.1,6-2.4,9.8c-0.5,5.8,0.5,9.9,2.7,9.1s4.9-5.6,5.5-11.4c0.5-5.8-1.3-10.5-3.5-9.7C853,896.6,852.2,897.4,851.5,898.6
		L851.5,898.6z"/>
	<path id="path4502" inkscape:connector-curvature="0" sodipodi:nodetypes="ssssss" class="st34" d="M867.4,898.7
		c-1.3,0.9-2.5,3.7-3.5,7c-1.5,5-1.7,9.7-0.1,11c1.6,1.3,4.3-0.7,5.8-5.7c1.5-5,1.3-11.1-0.3-12.4
		C868.7,898.1,868.1,898.2,867.4,898.7L867.4,898.7z"/>
	<path id="path4504" inkscape:connector-curvature="0" sodipodi:nodetypes="ssssss" class="st34" d="M875.9,913.4
		c-1.1,0.6-2.2,3-3.1,5.8c-1.4,4.2-1.7,8.3-0.4,9.7s3.6-0.1,5-4.4s1.4-9.6,0.1-11C877.1,913.1,876.5,913.1,875.9,913.4z"/>
	<path id="path4583" d="M865.4,892.2C865.4,892.2,865.4,892.2,865.4,892.2C865.4,892.2,865.4,892.2,865.4,892.2c0.1,0,0.1,0,0.2,0
		c0.2,0,0.3,0,0.5,0c0.6,0,1.2,0.1,1.8,0.3l0,0c2.2,0.4,4.1,1.3,5.6,2.4c1.5,1,2.6,2.1,3.5,3.3s1.6,2.4,2.2,3.5
		c0.8,1.6,1.2,3.1,1.5,4.4c0.3,1.3,0.5,2.6,0.6,3.6s0.2,2,0.2,2.9s0,1.6,0.1,2.4c0,0.1,0,0.2,0,0.4c0.1,1.9,0.3,5.1,0.4,8.5
		c0.2,3.4,0.2,7.2,0.2,10.1c0,2.2-0.1,4-0.1,4.9c0,1-0.4,3.2-1,5.9c-0.6,2.7-1.5,5.8-2.5,8.7c-0.8,2.2-1.6,4.3-2.3,6
		c-0.7,1.7-1.3,3-1.6,3.7c-0.5,1.4-1.5,3.5-3,5.7c-1.2,1.8-2.8,3.6-4.7,4.8c-1.6,1-3.3,1.7-4.9,2c-0.7,0.1-1,0.2-1.1,0.4
		c0,0.1,0.3,0.3,0.9,0.4c0.6,0.1,1.5,0.2,2.6,0.1c1.1-0.1,2.4-0.3,3.8-0.9c1.1-0.4,2.3-1.1,3.4-1.8c1.1-0.8,2.2-1.7,3.1-2.7
		c1.4-1.5,2.7-3.2,3.6-4.8c1-1.7,1.6-3.3,2-4.7c0.7-2.4,1.2-4.9,1.5-7.3c0.6-3.5,0.9-7,1.2-10c0.3-3,0.4-5.5,0.7-7.1
		c0.1-0.7,0.3-1.8,0.5-3.1c0.4-2.3,0.8-5.4,1.1-8.8c0.3-3.4,0.5-7,0.4-10.2c0-2-0.2-3.9-0.4-5.5c-0.3-1.6-0.7-3-1.1-4
		c-0.6-1.4-1.4-3.3-2.8-5.2c-0.9-1.3-2-2.6-3.3-3.8c-1.3-1.1-2.7-2.1-4.1-2.8c-1.2-0.6-2.3-1-3.4-1.2s-2-0.4-2.9-0.4
		c-0.8-0.1-1.4,0-1.9,0c-0.2,0-0.4,0-0.5,0C865.5,892.2,865.4,892.2,865.4,892.2C865.4,892.2,865.4,892.2,865.4,892.2
		C865.4,892.2,865.4,892.2,865.4,892.2L865.4,892.2z"/>
	<path id="path4617" d="M897.1,902.9C897.1,902.9,897.2,902.9,897.1,902.9C897.2,902.9,897.2,902.9,897.1,902.9c0.1,0,0.1,0,0.2,0
		c0.2,0,0.3-0.1,0.5-0.1l0,0c0.6-0.2,1.2-0.3,1.7-0.4c2.1-0.5,3.9-0.9,5.5-1.3c2.6-0.5,4.7-0.8,6.3-1c1.1-0.1,1.9-0.2,2.7-0.2
		c0.7,0,1.3,0,1.9,0c0.3,0,0.5,0,0.7,0c0.7,0,2-0.1,3.7-0.2c1.7-0.1,3.6-0.2,5.7-0.2c2,0,4,0.1,5.9,0.4c1,0.2,1.9,0.4,2.7,0.6
		s1.5,0.6,2,1c0,0-0.3-0.4-1-1c-0.3-0.3-0.8-0.6-1.3-1c-0.6-0.3-1.2-0.7-1.9-1c-1.7-0.7-3.8-1.4-6-1.8c-1.8-0.4-3.7-0.7-5.6-0.8
		s-3.6-0.2-5.1-0.2c-1.2,0-2.2,0.2-3,0.3c-0.8,0.1-1.4,0.3-1.8,0.5c-0.1,0-0.2,0.1-0.2,0.1c-1.4,0.6-3.7,1.6-6,2.7
		c-1.9,0.9-3.8,1.8-5.2,2.5c-0.7,0.3-1.2,0.6-1.6,0.8c-0.2,0.1-0.3,0.2-0.4,0.2C897.3,902.9,897.2,902.9,897.1,902.9
		C897.2,902.9,897.2,902.9,897.1,902.9C897.1,902.9,897.1,902.9,897.1,902.9L897.1,902.9z"/>
	<path id="path5177" d="M985.6,906.1c2.4-1.5,4.5-2.8,6.3-3.9l0,0c1-0.4,1.9-0.6,2.8-0.8s1.6-0.1,2.3,0c1.1,0.1,2,0.6,2.7,1.1
		c0.7,0.5,1.2,1.1,1.5,1.6c0.2,0.3,0.4,0.7,0.5,1c0.1,0.3,0.2,0.7,0.3,1c0,0.2,0.1,0.3,0.1,0.5c0.1,0.4,0.2,0.9,0.3,1.5
		c0.1,0.6,0.1,1.2,0.1,2c0,1.6-0.3,3.3-0.7,4.9c-0.4,1.6-1,3.2-1.4,4.3c-0.2,0.6-0.5,1.1-0.6,1.4c-0.3,0.6-1,1.7-2.2,3
		c-1.1,1.2-2.6,2.6-4.1,3.8c-1.4,1-2.8,1.9-4,2.5c-1.2,0.6-2.1,1-2.6,1.3c-0.4,0.2-0.8,0.4-1.4,0.7c-0.7,0.2-1.4,0.5-2.2,0.8
		c-0.8,0.3-1.6,0.6-2.5,0.8c-0.8,0.2-1.6,0.4-2.4,0.4s-1.5-0.1-2.1-0.4c-0.3-0.1-0.5-0.1-0.5-0.2c0,0,0,0,0,0
		c-0.1-0.1-0.2-0.2-0.3-0.2h0l0,0l0,0h0h0c-1.9,0.4-1.9,0.4,0,0h0l0,0c-0.1,0-0.3,0.2-0.3,0.5c-0.1,0.1,0,0.3,0.1,0.5
		c0.1,0.2,0.3,0.5,0.6,0.7c0.5,0.5,1.2,0.9,2,1.2c0.8,0.3,1.8,0.5,2.9,0.6s2.1,0.1,3.2,0c1.1-0.1,2.1-0.3,3-0.5
		c1.8-0.4,3.4-1.1,4.4-1.9c1.7-1.3,3.2-2.9,4.5-4.5c1.5-1.8,2.7-3.7,3.7-5.4c1-1.7,1.7-3.1,2.4-4c0.1-0.1,0.1-0.2,0.2-0.2
		c0.5-0.7,1.4-2,2.2-3.7c0.9-1.7,1.7-3.7,2.1-6c0.3-1.5,0.4-3.2,0.1-4.8c-0.3-1.7-1.1-3.2-2.1-4.3c-1-1.1-2.1-1.8-3-2.1
		c-1-0.4-2.5-0.7-4.1-0.6c-1.1,0.1-2.1,0.4-3.2,0.8c-1,0.4-2,0.9-2.8,1.5C988.3,903.7,985.6,906.1,985.6,906.1L985.6,906.1z"/>
	<path id="path5274" d="M833.5,885.5c3.5-0.3,6.1-0.3,8-0.2c2.7,0.1,4.1,0.5,5.2,0.5c0.2,0,0.5,0,0.9,0c1-0.1,2.4-0.3,4-0.6
		c0.7-0.1,1.5-0.3,2.1-0.5c0.7-0.2,1.3-0.4,1.9-0.5c0.8-0.2,1.6-0.3,2.4-0.2c0.8,0,1.5,0.1,2,0.3c0,0-0.4-0.4-1.1-0.8
		c-0.7-0.4-1.9-0.9-3.3-1.1c-0.7-0.1-1.4-0.1-2.1-0.1s-1.4,0-2.1-0.1c-1.4-0.1-2.8-0.2-4-0.3c-2-0.1-3.7-0.1-4.3,0.1
		c-0.4,0.2-1,0.4-1.7,0.6C838.2,883.6,833.5,885.5,833.5,885.5L833.5,885.5z"/>
</g>
</svg>
