<?xml version="1.0" encoding="UTF-8" standalone="no"?>
<!-- Generator: Adobe Illustrator 20.0.0, SVG Export Plug-In . SVG Version: 6.00 Build 0)  -->

<svg
   xmlns:dc="http://purl.org/dc/elements/1.1/"
   xmlns:cc="http://creativecommons.org/ns#"
   xmlns:rdf="http://www.w3.org/1999/02/22-rdf-syntax-ns#"
   xmlns:svg="http://www.w3.org/2000/svg"
   xmlns="http://www.w3.org/2000/svg"
   xmlns:xlink="http://www.w3.org/1999/xlink"
   xmlns:sodipodi="http://sodipodi.sourceforge.net/DTD/sodipodi-0.dtd"
   xmlns:inkscape="http://www.inkscape.org/namespaces/inkscape"
   version="1.1"
   id="svg16054"
   inkscape:version="0.91 r13725"
   sodipodi:docname="quiz1.svg"
   x="0px"
   y="0px"
   viewBox="0 0 2125.9999 1187"
   xml:space="preserve"
   width="2126"
   height="1187"><metadata
     id="metadata355"><rdf:RDF><cc:Work
         rdf:about=""><dc:format>image/svg+xml</dc:format><dc:type
           rdf:resource="http://purl.org/dc/dcmitype/StillImage" /><dc:title></dc:title></cc:Work></rdf:RDF></metadata><style
     type="text/css"
     id="style3">
	.st0{fill:#FFFFFF;}
	.st1{fill:#6B3C1F;stroke:#000000;}
	.st2{fill:#6B3C1F;stroke:#000000;stroke-linejoin:round;}
	.st3{fill:url(#SVGID_1_);stroke:#000000;}
	.st4{fill:#8D5027;stroke:#000000;}
	.st5{fill:url(#SVGID_2_);stroke:#000000;}
	.st6{fill:url(#SVGID_3_);stroke:#000000;}
	.st7{fill:url(#SVGID_4_);stroke:#000000;}
	.st8{fill:#D28C5F;stroke:#000000;}
	.st9{fill:url(#SVGID_5_);stroke:#000000;}
	.st10{fill:url(#SVGID_6_);stroke:#000000;}
	.st11{fill:url(#SVGID_7_);stroke:#000000;}
	.st12{fill:url(#SVGID_8_);stroke:#000000;}
	.st13{fill:url(#SVGID_9_);stroke:#000000;stroke-width:1.02;}
	.st14{fill:url(#SVGID_10_);stroke:#000000;}
	.st15{fill:#855B3E;}
	.st16{fill:none;stroke:#000000;stroke-width:1.02;}
	.st17{fill:#A05B2B;stroke:#000000;stroke-width:1.02;}
	.st18{fill:#6C5353;stroke:#000000;stroke-width:1.02;}
	.st19{fill:#906F6F;stroke:#000000;stroke-width:1.02;}
	.st20{fill:none;stroke:#000000;}
	.st21{fill:url(#SVGID_11_);}
	.st22{fill:#A06121;}
	.st23{fill:#6E4A25;}
	.st24{fill:#956C45;stroke:#000000;stroke-width:3;}
	.st25{fill:#B8854F;}
	.st26{fill:#834317;}
	.st27{fill:#5D381E;}
	.st28{fill:none;stroke:#000000;stroke-width:5;}
	.st29{fill:#DDCEBE;}
	.st30{stroke:#000000;stroke-width:5;}
	.st31{fill:#834317;stroke:#000000;stroke-width:3;}
</style><defs
     id="defs5"><inkscape:path-effect
       effect="spiro"
       id="path-effect5341"
       is_visible="true" /><inkscape:path-effect
       effect="spiro"
       id="path-effect17606"
       is_visible="true" /><inkscape:path-effect
       effect="spiro"
       id="path-effect16830"
       is_visible="true" /><inkscape:path-effect
       effect="spiro"
       id="path-effect16826"
       is_visible="true" /><inkscape:path-effect
       effect="spiro"
       id="path-effect16822"
       is_visible="true" /><inkscape:path-effect
       effect="spiro"
       id="path-effect16818"
       is_visible="true" /><inkscape:path-effect
       effect="spiro"
       id="path-effect16814"
       is_visible="true" /><inkscape:path-effect
       effect="spiro"
       id="path-effect16810"
       is_visible="true" /><inkscape:path-effect
       effect="spiro"
       id="path-effect16806"
       is_visible="true" /><inkscape:path-effect
       effect="spiro"
       id="path-effect16802"
       is_visible="true" /><inkscape:path-effect
       effect="spiro"
       id="path-effect16798"
       is_visible="true" /><inkscape:path-effect
       effect="spiro"
       id="path-effect16794"
       is_visible="true" /><inkscape:path-effect
       effect="spiro"
       id="path-effect16790"
       is_visible="true" /><inkscape:path-effect
       effect="spiro"
       id="path-effect16786"
       is_visible="true" /><inkscape:path-effect
       effect="spiro"
       id="path-effect16782"
       is_visible="true" /><inkscape:path-effect
       effect="spiro"
       id="path-effect16778"
       is_visible="true" /><inkscape:path-effect
       effect="spiro"
       id="path-effect16774"
       is_visible="true" /></defs><sodipodi:namedview
     bordercolor="#666666"
     borderlayer="true"
     borderopacity="1.0"
     fit-margin-bottom="0"
     fit-margin-left="0"
     fit-margin-right="0"
     fit-margin-top="0"
     id="base"
     inkscape:current-layer="svg16054"
     inkscape:cx="1010.4464"
     inkscape:cy="562.62677"
     inkscape:document-units="cm"
     inkscape:pageopacity="0.0"
     inkscape:pageshadow="2"
     inkscape:window-height="744"
     inkscape:window-maximized="1"
     inkscape:window-width="1366"
     inkscape:window-x="0"
     inkscape:window-y="24"
     inkscape:zoom="0.35"
     pagecolor="#ffffff"
     showgrid="false"
     units="cm" /><g
     id="layer2"
     inkscape:groupmode="layer"
     inkscape:label="background"
     transform="translate(0,237.40003)"><rect
       id="rect4177"
       y="-241.83704"
       class="st0"
       width="2146.4292"
       height="1191.437"
       x="0"
       style="fill:#ffffff" /></g><g
     id="layer1"
     transform="matrix(1.5,0,0,1.5,-228.11074,-148.6699)">
     <!-- <image
       sodipodi:absref="/home/daniel/Projects/L2TOR_project/freeplay-sandbox/qt-gui/res/1831B205.png"
       xlink:href="1831B205.png"
       style="overflow:visible;opacity:0.75;enable-background:new"
       width="308"
       height="503"
       transform="matrix(0.9968,0,0,0.998,697,224)"
       id="image28" /> -->
       <g
       id="g4249"><polygon
         class="st1"
         points="946.9,577.2 937.5,517.4 930.8,482.1 923.2,482.1 920.1,487.9 929.9,573.2 937.3,617.6 944.7,653.5 954.7,653.1 954.5,642.4 "
         id="polygon31"
         style="fill:#6b3c1f;stroke:#000000" /><polygon
         class="st2"
         points="808.8,634.3 814.3,569.7 818.7,524.9 819.3,494.6 806.1,494.6 800.4,562.8 797.9,615.2 797,633.4 "
         id="polygon33"
         style="fill:#6b3c1f;stroke:#000000;stroke-linejoin:round" /><g
         id="g8412"><linearGradient
           id="SVGID_1_"
           gradientUnits="userSpaceOnUse"
           x1="1306.8522"
           y1="786.30701"
           x2="1403.0522"
           y2="755.45697"
           gradientTransform="translate(-601.88,-192.22)"><stop
             offset="0"
             style="stop-color:#8D5027"
             id="stop37" /><stop
             offset="1"
             style="stop-color:#6B3C1F"
             id="stop39" /></linearGradient><path
           class="st3"
           d="M 721.1,594.9 809.8,566 c 0.8,-1.7 0.9,-3.7 0.4,-5.5 -1,-2.9 -4.6,-2.9 -4.6,-2.9 l -37.6,10.3 -49.2,18 2.3,9 z"
           id="path41"
           inkscape:connector-curvature="0"
           style="fill:url(#SVGID_1_);stroke:#000000" /><path
           class="st4"
           d="m 773.5,568.9 c 0,0 45.7,2.6 68.6,4.6 22.9,2 72.8,9.5 72.8,9.5 l -3.5,3.3 0.9,4.2 c 0,0 -45.8,-2.5 -69,-4.5 -23.2,-2 -70.5,-9 -70.5,-9 -0.8,-1.2 -1.3,-2.7 -1.4,-4.1 0,-2.1 2.1,-4 2.1,-4 l 0,0 z"
           id="path43"
           inkscape:connector-curvature="0"
           style="fill:#8d5027;stroke:#000000" /><linearGradient
           id="SVGID_2_"
           gradientUnits="userSpaceOnUse"
           x1="1295.1635"
           y1="793.58588"
           x2="1366.4835"
           y2="751.09589"
           gradientTransform="translate(-427.34,-177.79)"><stop
             offset="0"
             style="stop-color:#C28156"
             id="stop46" /><stop
             offset="1"
             style="stop-color:#6B3C1F"
             id="stop48" /></linearGradient><path
           class="st5"
           d="m 892.2,607.7 48.5,-30.9 c 0.8,-1.7 0.9,-3.7 0.4,-5.5 -1,-2.9 -4.6,-2.9 -4.6,-2.9 -9.2,5.9 -12.2,7.8 -20,12.5 -7.8,4.7 -26.8,15.7 -26.8,15.7 l 2.5,11.1 z"
           id="path50"
           inkscape:connector-curvature="0"
           style="fill:url(#SVGID_2_);stroke:#000000" /></g><linearGradient
         id="SVGID_3_"
         gradientUnits="userSpaceOnUse"
         x1="1300.1405"
         y1="774.85571"
         x2="1326.9905"
         y2="778.08569"
         gradientTransform="translate(-601.88,-192.22)"><stop
           offset="0"
           style="stop-color:#492A16"
           id="stop53" /><stop
           offset="0.49"
           style="stop-color:#D28C5F"
           id="stop55" /><stop
           offset="1"
           style="stop-color:#593219"
           id="stop57" /></linearGradient><polyline
         class="st6"
         points="708.2,684.6 698.2,683.5 706.6,582.1 718.3,485.1 731.6,485.7 728.4,549.5 720.8,610.1 712,682.7       "
         id="polyline59"
         style="fill:url(#SVGID_3_);stroke:#000000" /><linearGradient
         id="SVGID_4_"
         gradientUnits="userSpaceOnUse"
         x1="1480.1302"
         y1="794.37433"
         x2="1507.4003"
         y2="792.44427"
         gradientTransform="translate(-601.88,-192.22)"><stop
           offset="0"
           style="stop-color:#4F2D17"
           id="stop62" /><stop
           offset="0.49"
           style="stop-color:#D28C5F"
           id="stop64" /><stop
           offset="1"
           style="stop-color:#482914"
           id="stop66" /></linearGradient><polygon
         class="st7"
         points="904,668.8 905.9,707.1 893.2,707.4 882.8,618.1 878.7,532.5 878.7,495.2 889.4,495.2 895.8,532.5 900.2,595 "
         id="polygon68"
         style="fill:url(#SVGID_4_);stroke:#000000" /><g
         id="g8390"><path
           class="st8"
           d="m 811.2,251.5 c 0,0 62.1,5 75.3,5.8 13.2,0.8 80.6,-0.4 80.6,-0.4 l -6,34.6 c 0,0 -67.3,0.6 -75.3,0 -8,-0.6 -75.5,-6.2 -75.5,-6.2 l -0.6,-34.1 1.5,0.3 z"
           id="path71"
           inkscape:connector-curvature="0"
           style="fill:#d28c5f;stroke:#000000" /><linearGradient
           id="SVGID_5_"
           gradientUnits="userSpaceOnUse"
           x1="1436.7303"
           y1="564.02759"
           x2="1448.6504"
           y2="564.34747"
           gradientTransform="translate(-601.88,-192.22)"><stop
             offset="0"
             style="stop-color:#693B1D"
             id="stop74" /><stop
             offset="0.49"
             style="stop-color:#D28C5F"
             id="stop76" /><stop
             offset="1"
             style="stop-color:#563117"
             id="stop78" /></linearGradient><path
           class="st9"
           d="m 835.2,455.2 c 0,0 1.3,-76.5 1.3,-88.9 0,-12.4 3.8,-79.4 3.8,-79.4 l 4.9,0.5 c 0,0 -1.2,82.5 -1.2,97.3 0,14.8 -2,71.1 -2,71.1 -1,0.5 -2.2,0.8 -3.3,0.9 -1.3,-0.2 -2.5,-0.7 -3.5,-1.5 l 0,0 z"
           id="path80"
           inkscape:connector-curvature="0"
           style="fill:url(#SVGID_5_);stroke:#000000" /><linearGradient
           id="SVGID_6_"
           gradientUnits="userSpaceOnUse"
           x1="1460.8501"
           y1="566.13849"
           x2="1476.5702"
           y2="567.42853"
           gradientTransform="translate(-601.88,-192.22)"><stop
             offset="0"
             style="stop-color:#492A16"
             id="stop83" /><stop
             offset="0.49"
             style="stop-color:#D28C5F"
             id="stop85" /><stop
             offset="1"
             style="stop-color:#5B3319"
             id="stop87" /></linearGradient><path
           class="st10"
           d="m 857,457.3 c 0,0 3.7,-63 5.3,-77.8 1.6,-14.8 8.8,-89.6 8.8,-89.6 l 5,0.5 -0.3,3.5 c 0,0 -4.5,87.2 -6.6,111.1 -2.1,23.9 -4.9,53.5 -4.9,53.5 -1.4,0.4 -2.8,0.6 -4.3,0.5 -1,-0.4 -2,-1 -3,-1.7 l 0,0 z"
           id="path89"
           inkscape:connector-curvature="0"
           style="fill:url(#SVGID_6_);stroke:#000000" /><linearGradient
           id="SVGID_7_"
           gradientUnits="userSpaceOnUse"
           x1="1488.7596"
           y1="567.11267"
           x2="1502.1296"
           y2="568.72278"
           gradientTransform="translate(-601.88,-192.22)"><stop
             offset="0"
             style="stop-color:#5D351A"
             id="stop92" /><stop
             offset="0.49"
             style="stop-color:#D28C5F"
             id="stop94" /><stop
             offset="1"
             style="stop-color:#673A1C"
             id="stop96" /></linearGradient><path
           class="st11"
           d="m 883.5,460.6 c -2.4,-0.5 -3,-1.5 -3,-1.5 0,0 5.7,-55.3 6.9,-65.9 1.2,-10.6 13.6,-102.3 13.6,-102.3 l 4.4,0.2 c 0,0 -8.9,89.7 -11.3,112.3 -2.4,22.6 -6.6,56.4 -6.6,56.4 -1.1,0.8 -2.6,1.1 -4,0.8 l 0,0 z"
           id="path98"
           inkscape:connector-curvature="0"
           style="fill:url(#SVGID_7_);stroke:#000000" /><linearGradient
           id="SVGID_8_"
           gradientUnits="userSpaceOnUse"
           x1="1516.0898"
           y1="568.02173"
           x2="1529.4598"
           y2="569.9317"
           gradientTransform="translate(-601.88,-192.22)"><stop
             offset="0"
             style="stop-color:#5D351A"
             id="stop101" /><stop
             offset="0.49"
             style="stop-color:#D28C5F"
             id="stop103" /><stop
             offset="1"
             style="stop-color:#5D351A"
             id="stop105" /></linearGradient><path
           class="st12"
           d="m 907.6,463 c -1.1,-0.6 -2.1,-1.3 -3.1,-2.1 0,0 7.2,-53 9.3,-64.1 2.1,-11.1 17,-106.1 17,-106.1 l 4.3,-0.1 c 0,0 -12.7,101.7 -14.8,119.8 -2.1,18.1 -7.7,52.1 -7.7,52.1 0,0 -3.5,1.2 -5,0.5 l 0,0 z"
           id="path107"
           inkscape:connector-curvature="0"
           style="fill:url(#SVGID_8_);stroke:#000000" /><linearGradient
           id="SVGID_9_"
           gradientUnits="userSpaceOnUse"
           x1="1549.146"
           y1="538.03809"
           x2="1565.606"
           y2="541.69818"
           gradientTransform="translate(-601.88,-192.22)"><stop
             offset="0"
             style="stop-color:#563117"
             id="stop110" /><stop
             offset="0.47"
             style="stop-color:#D28C5F"
             id="stop112" /><stop
             offset="1"
             style="stop-color:#4F2D17"
             id="stop114" /></linearGradient><path
           class="st13"
           d="m 928.4,462.8 c 0,0 11.8,-71.6 12,-73 0.2,-1.4 2.7,-6.1 2.7,-6.1 -0.8,-1.4 -1.2,-2.9 -1.1,-4.5 0.2,-1.4 1.1,-2.6 2.3,-3.2 0,0 -2.1,-6 -0.9,-10.5 1.2,-4.5 13.8,-55.9 14.3,-58.6 0.5,-2.7 -0.4,-6.9 -0.2,-8.3 0.1,-0.8 0.8,-1.4 1.6,-1.4 0,0 -1.4,-2 -1.2,-3.3 0.2,-1.3 2,-2.3 2,-2.3 0,0 1.7,-12.1 2.7,-18.1 1.1,-6 4.8,-18.4 4.8,-18.4 0,0 -1.3,-1 -0.1,-4.3 1.2,-3.3 2.4,-5.4 2.8,-6.3 0.4,-0.9 -0.7,-3.4 -0.7,-3.4 0,0 -3.3,-13 9.7,-10.6 13.2,2.5 1.9,13.1 1.4,14.1 -1.9,3.6 1.6,3.7 0.9,9.6 -0.3,2.1 -2.6,3.9 -2.6,3.9 l -1.7,18.3 -4.7,18 c 0,0 1.3,0.2 1,2.3 -0.2,1.1 -0.7,2.2 -1.5,3 0.1,1.1 0,2.2 -0.3,3.3 -0.4,1.4 -2.7,1.1 -3,2.9 -0.3,1.8 -9.5,62.7 -10.1,64.9 -0.6,2.2 -3.9,7.3 -3.9,7.3 1.2,0.8 1.7,2.3 1.4,3.7 -0.3,1.6 -1.1,3.1 -2.3,4.2 0,0 -1.5,17.6 -2.2,21 L 939,464.5 c 0,0 -3.9,1 -5.6,0.7 -1.7,-0.3 -5,-2.5 -5,-2.5 l 0,0.1 z"
           id="path116"
           inkscape:connector-curvature="0"
           style="fill:url(#SVGID_9_);stroke:#000000;stroke-width:1.01999998" /><linearGradient
           id="SVGID_10_"
           gradientUnits="userSpaceOnUse"
           x1="1397.488"
           y1="532.78857"
           x2="1416.8981"
           y2="533.43872"
           gradientTransform="translate(-601.88,-192.22)"><stop
             offset="0"
             style="stop-color:#4F2D17"
             id="stop119" /><stop
             offset="0.47"
             style="stop-color:#D28C5F"
             id="stop121" /><stop
             offset="1"
             style="stop-color:#4D2C16"
             id="stop123" /></linearGradient><path
           class="st14"
           d="m 797,455.3 c 0,0 0.3,-71.9 0.3,-73.2 0,-1.3 1.8,-6.7 1.8,-6.7 0,0 -2.7,-1.3 -2.2,-3.6 0.5,-2.3 3.1,-4 3.1,-4 0,0 -4.5,-4.5 -4,-8.9 0.5,-4.4 4.5,-54 4.5,-56.7 0,-2.7 -2.2,-5.8 -2.2,-7.1 0,-1.3 1.8,-4 1.8,-4 0,0 -2.2,-1.9 -2.2,-3.1 0,-1.2 1.9,-2.4 1.9,-2.4 l 0.8,-35.5 c 0,0 -2.7,-0.7 -2,-4 0.7,-3.3 3.8,-6.3 4,-7.1 0.2,-0.8 -2.5,-2 -2.5,-2 0,0 -6.9,-13.2 6.5,-12.1 13.4,1.1 4.8,12.3 4.5,13.4 -1.2,3.8 1.6,2.9 1.9,8.6 0.1,2 -1.9,4.1 -1.9,4.1 l 0,35.5 c 0,0 2.4,0.6 2.4,2.6 0,1.2 -0.8,2.2 -1.9,2.5 0.7,0.9 1.2,2 1.3,3.2 0,1.3 -2.2,2 -2.2,3.8 0,1.8 1.6,60.3 1.3,62.5 -0.3,2.2 -2.7,7.6 -2.7,7.6 0,0 2.5,1.6 2.5,4 -0.1,1.5 -0.9,3 -2.2,3.8 0,0 1.8,16.8 1.7,20.1 -0.3,7.4 -3.3,58.7 -3.3,58.7 0,0 -3.5,1.8 -5.4,1.9 -1.9,0.1 -5.6,-1.9 -5.6,-1.9 l 0,0 z"
           id="path125"
           inkscape:connector-curvature="0"
           style="fill:url(#SVGID_10_);stroke:#000000" /><path
           class="st15"
           d="m 811,283.9 c 0,0 66.3,6.4 76.1,6.4 9.8,0 72.9,-0.5 72.9,-0.5 l -0.7,1.6 c 0,0 -66.8,0.9 -74.1,0.5 -7.3,-0.4 -74.3,-6.2 -74.3,-6.2 l 0,-1.8 z"
           id="path127"
           inkscape:connector-curvature="0"
           style="fill:#855b3e" /><path
           class="st16"
           d="m 970.1,241.9 c 3.6,-0.5 7.2,0.1 10.5,1.6"
           id="path129"
           inkscape:connector-curvature="0"
           style="fill:none;stroke:#000000;stroke-width:1.01999998" /><path
           class="st16"
           d="m 967.3,254.4 c 0,0 8.3,-0.5 12.1,2.8"
           id="path131"
           inkscape:connector-curvature="0"
           style="fill:none;stroke:#000000;stroke-width:1.01999998" /><path
           class="st16"
           d="m 959.1,296.8 c 0,0 5.4,-1.4 12.5,2.2"
           id="path133"
           inkscape:connector-curvature="0"
           style="fill:none;stroke:#000000;stroke-width:1.01999998" /><path
           class="st17"
           d="m 957.8,302.5 c 0,0 7.3,-2 11.8,1.7"
           id="path135"
           inkscape:connector-curvature="0"
           style="fill:#a05b2b;stroke:#000000;stroke-width:1.01999998" /><path
           class="st18"
           d="m 944.6,375.8 c 0,0 8.1,-0.4 10.9,1.9"
           id="path137"
           inkscape:connector-curvature="0"
           style="fill:#6c5353;stroke:#000000;stroke-width:1.01999998" /><path
           class="st19"
           d="m 943.3,383.5 c 0,0 6.1,-0.3 10.7,2.5"
           id="path139"
           inkscape:connector-curvature="0"
           style="fill:#906f6f;stroke:#000000;stroke-width:1.01999998" /><path
           class="st20"
           d="m 802.1,238.1 c 0,0 3.2,-1.5 8.5,0.1"
           id="path141"
           inkscape:connector-curvature="0"
           style="fill:none;stroke:#000000" /><path
           class="st20"
           d="m 800.3,249.8 c 0,0 6.8,-2 11,0.4"
           id="path143"
           inkscape:connector-curvature="0"
           style="fill:none;stroke:#000000" /><path
           class="st20"
           d="m 800.1,290.7 c 0,0 4.2,-1.7 11.8,0.4"
           id="path145"
           inkscape:connector-curvature="0"
           style="fill:none;stroke:#000000" /><path
           class="st20"
           d="m 798.9,296.2 c 0,0 7.7,-2.4 12.8,0.2"
           id="path147"
           inkscape:connector-curvature="0"
           style="fill:none;stroke:#000000" /><path
           class="st20"
           d="m 799.9,367.7 c 0,0 5.8,-1.2 8.9,0.5"
           id="path149"
           inkscape:connector-curvature="0"
           style="fill:none;stroke:#000000" /><path
           class="st20"
           d="m 799.1,375.4 c 0,0 5.9,-1.5 10.9,0.3"
           id="path151"
           inkscape:connector-curvature="0"
           style="fill:none;stroke:#000000" /></g><g
         id="g8423"><path
           class="st8"
           d="m 709.5,467.1 0,16.1 c 5.1,1.8 10.4,3.1 15.8,4.1 6.6,1 86.8,10.7 90,10.7 3.2,0 48.6,0.6 53,0.6 4.4,0 24.3,-1.6 28.1,-1.6 3.8,0 49.3,-16.7 49.3,-16.7 l 0.3,-4.1 -0.6,-12.6 -4.1,-1.6 -115.5,-8.2 -12.3,-1 -20.5,0.6 -52.4,7 -26.8,4.7 -4.3,2 z"
           id="path154"
           inkscape:connector-curvature="0"
           style="fill:#d28c5f;stroke:#000000" /><path
           class="st20"
           d="m 709.8,467.4 c 0,0 27.1,8.2 36.3,8.2 9.2,0 79.2,6.6 84.6,6.6 5.4,0 59.7,0.3 59.7,0.3 0,0 7,-0.6 12,-1 5,-0.4 39.8,-13.2 41.7,-14.8 1.9,-1.6 1.2,-2.9 1.2,-2.9"
           id="path156"
           inkscape:connector-curvature="0"
           style="fill:none;stroke:#000000" /><linearGradient
           id="SVGID_11_"
           gradientUnits="userSpaceOnUse"
           x1="1537.9264"
           y1="667.92877"
           x2="1490.4865"
           y2="683.02881"
           gradientTransform="translate(-601.88,-192.22)"><stop
             offset="0"
             style="stop-color:#8F5228"
             id="stop159" /><stop
             offset="1"
             style="stop-color:#D28C5F"
             id="stop161" /></linearGradient><path
           class="st21"
           d="m 886.2,482.8 0.7,14.1 11.1,-0.4 24.5,-8.2 22.8,-8.3 0.3,-6.4 -0.5,-7.1 -18.9,7.8 c 0,0 -19.3,6.8 -25.1,7.7 -5,0.7 -9.9,0.9 -14.9,0.8 l 0,0 z"
           id="path163"
           inkscape:connector-curvature="0"
           style="fill:url(#SVGID_11_)" /></g></g></g><path
     class="st22"
     d="m 1045.0893,457.6301 c 16.2,23.25 21.75,45.3 17.1,63.45 -5.85,22.8 -30,33.3 -54.9,34.05 -28.20004,0.75 -44.85004,-16.5 -49.95004,-27 -6.15,-12.9 -11.4,-44.85 16.35,-70.95"
     id="path167"
     inkscape:connector-curvature="0"
     style="fill:#a06121" /><path
     class="st23"
     d="m 973.23926,472.6301 0,0 c -26.7,21.6 -18.15,47.1 -12.15,57.75 4.8,8.7 17.25,24.6 44.10004,23.85 17.4,-0.45 34.5,-5.7 44.55,-15.75 l -0.3,0.3 c -1.05,0.75 -2.1,1.5 -3.15,2.1 -1.05,0.6 -2.25,1.35 -3.45,1.95 -1.2,0.6 -2.4,1.2 -3.6,1.65 -1.2,0.45 -2.55,1.05 -3.75,1.5 -1.2,0.45 -2.7,0.9 -4.05,1.2 -1.35,0.3 -2.7,0.75 -4.2,1.05 -1.5,0.3 -2.85,0.6 -4.2,0.9 -1.35,0.3 -2.85,0.45 -4.35,0.6 -1.5,0.15 -2.85,0.3 -4.35,0.45 -1.5,0.15 -3,0.15 -4.5,0.15 -1.5,0 -3.3,0 -4.95,0 -1.65,0 -3.15,-0.15 -4.65,-0.45 -1.50004,-0.3 -3.00004,-0.45 -4.35004,-0.75 -1.35,-0.3 -2.85,-0.6 -4.2,-0.9 -1.35,-0.3 -2.7,-0.75 -3.9,-1.2 -1.2,-0.45 -2.4,-0.9 -3.6,-1.35 -1.2,-0.45 -2.25,-1.05 -3.3,-1.5 -1.05,-0.45 -2.1,-1.2 -3.15,-1.65 -1.05,-0.45 -1.95,-1.2 -2.85,-1.8 -0.9,-0.6 -1.8,-1.2 -2.55,-1.95 -0.75,-0.75 -1.65,-1.35 -2.4,-1.95 -0.75,-0.6 -1.5,-1.35 -2.1,-1.95 -0.6,-0.6 -1.2,-1.35 -1.8,-1.95 -0.6,-0.6 -1.05,-1.35 -1.5,-1.95 -0.9,-1.05 -1.65,-2.25 -2.25,-3.6 -0.3,-0.6 -0.75,-1.35 -1.05,-2.25 -0.3,-0.9 -0.75,-1.65 -1.05,-2.55 -0.3,-0.9 -0.6,-1.8 -0.9,-2.85 -0.3,-1.05 -0.45,-2.1 -0.75,-3.15 -0.3,-1.05 -0.45,-2.25 -0.6,-3.3 -0.15,-1.05 -0.3,-2.4 -0.3,-3.6 0,-1.2 0,-2.4 0,-3.75 0,-1.35 0.15,-2.55 0.3,-3.9 0.15,-1.35 0.45,-2.7 0.75,-4.05 0.3,-1.35 0.75,-2.7 1.2,-4.2 0.45,-1.5 1.05,-2.85 1.65,-4.2 0.6,-1.35 1.35,-2.85 2.1,-4.2 0.75,-1.35 1.65,-2.85 2.7,-4.2 1.05,-1.35 2.1,-2.85 3.3,-4.2 1.2,-1.35 2.55,-2.85 3.9,-4.2 l -0.3,-0.15 0,0 z"
     id="path169"
     inkscape:connector-curvature="0"
     style="fill:#6e4a25" /><path
     class="st24"
     d="m 1010.1393,496.3301 c -11.10004,1.65 -16.20004,10.35 -18.75004,22.5 -3,13.8 9.00004,28.05 21.45004,30.75 12.3,2.85 24.6,-4.65 27.45,-16.8 0.15,-0.3 0.15,-0.75 0.3,-1.2 3,-13.8 -1.95,-33.9 -13.8,-35.55 -1.65,-0.3 -15.15,0 -16.65,0.3 l 0,0 z"
     id="path171"
     inkscape:connector-curvature="0"
     style="fill:#956c45;stroke:#000000;stroke-width:4.5" /><path
     d="m 1027.9893,436.9301 c 4.35,4.8 8.4,9.45 11.7,13.95 3.15,4.05 6.15,8.4 8.85,12.9 4.35,6.9 7.8,14.4 10.35,22.05 1.2,3.75 2.1,7.5 2.7,11.4 0.45,3 0.75,6.15 0.75,9.3 0,2.55 -0.15,4.95 -0.45,7.5 -0.3,1.95 -0.75,4.05 -1.2,6 -0.15,0.6 -0.3,1.35 -0.6,1.95 -0.6,1.95 -1.35,3.9 -2.25,5.7 -1.2,2.4 -2.7,4.65 -4.35,6.75 -1.65,2.1 -3.45,3.9 -5.4,5.55 -2.1,1.8 -4.35,3.45 -6.75,4.95 -2.55,1.5 -5.1,2.85 -7.8,3.9 -2.55,1.05 -5.25,1.95 -8.1,2.7 l 0,0 c -3.3,0.9 -6.75,1.65 -10.2,2.1 -3,0.45 -5.7,0.6 -7.65,0.75 l -1.8,0 c -2.25,0 -4.5,-0.15 -6.75004,-0.45 -3.45,-0.45 -6.75,-1.2 -10.05,-2.25 -9.45,-3.15 -17.85,-8.85 -24.15,-16.5 -1.2,-1.35 -2.25,-2.85 -3.15,-4.35 -0.9,-1.35 -1.8,-2.85 -2.4,-4.35 -1.05,-2.25 -1.8,-4.5 -2.55,-6.9 -0.6,-2.1 -1.05,-4.05 -1.35,-5.7 -0.15,-1.05 -0.3,-1.95 -0.45,-2.7 -0.3,-2.1 -0.6,-4.2 -0.75,-6.45 -0.15,-2.7 -0.15,-5.55 0.15,-8.25 0.3,-3.3 0.75,-6.6 1.65,-9.75 0.9,-3.45 2.1,-6.75 3.6,-10.05 1.5,-3.45 3.45,-6.6 5.55,-9.6 1.95,-2.85 4.2,-5.4 6.6,-7.95 l 1.95,-1.95 c 0.45,-0.45 0.45,-0.6 0.45,-0.6 -1.05,0.6 -1.95,1.35 -2.85,2.25 -5.4,4.95 -9.9,10.8 -13.35,17.25 l 0,0 c -1.65,3.15 -3,6.3 -4.05,9.75 -1.05,3.45 -1.8,7.05 -2.25,10.65 -0.3,3.15 -0.45,6.3 -0.3,9.45 0.15,3 0.45,5.85 1.05,8.7 0.45,2.55 1.2,5.1 1.95,7.65 0.6,1.95 1.5,3.75 2.4,5.55 1.65,3.3 3.9,6.3 6.3,9 l 0,0 c 6.9,7.65 15.75,13.2 25.65,16.05 l 0,0 c 3.45,1.05 6.9,1.65 10.5,2.1 2.85004,0.3 5.70004,0.45 8.70004,0.3 1.2,0 2.4,0 3.3,-0.15 1.5,0 3.6,-0.15 6,-0.6 3,-0.3 6,-0.9 8.85,-1.65 2.7,-0.6 5.4,-1.5 8.1,-2.4 3,-1.05 5.7,-2.4 8.55,-3.9 l 0,0 c 2.4,-1.35 4.8,-3 7.05,-4.65 2.25,-1.8 4.35,-3.75 6.15,-6 1.95,-2.25 3.6,-4.8 4.95,-7.35 1.35,-2.55 2.25,-5.25 3,-7.95 1.2,-4.35 1.65,-9 1.65,-13.5 0,-3.45 -0.45,-6.75 -1.05,-10.05 -0.3,-1.5 -0.75,-3.45 -1.35,-5.4 -0.6,-1.95 -1.2,-4.2 -2.1,-6.45 -1.05,-2.7 -2.25,-5.55 -3.6,-8.4 -1.35,-2.85 -2.85,-5.7 -4.5,-8.55 -1.65,-2.85 -3.45,-5.55 -5.25,-8.25 -1.8,-2.7 -3.75,-5.1 -5.55,-7.5 -3.75,-4.65 -7.2,-8.55 -9.75,-11.25 -2.55,-2.7 -4.35,-4.35 -4.35,-4.35 l 0,0 z"
     id="path173"
     inkscape:connector-curvature="0" /><path
     class="st22"
     d="m 954.78926,551.0801 c -0.6,-11.1 0.75,-25.65 14.25,-25.8 10.8,-0.15 21.45,9.6 23.7,21.15"
     id="path175"
     inkscape:connector-curvature="0"
     style="fill:#a06121" /><path
     class="st22"
     d="m 1084.2393,538.7801 c 0,0 -5.1,-15.15 -10.05,-20.1 -1.35,-1.35 -6.6,-5.25 -11.25,-4.2 -12.15,3 -18.9,16.35 -22.2,26.85 -0.45,1.5 -2.55,7.35 -0.75,11.4"
     id="path177"
     inkscape:connector-curvature="0"
     style="fill:#a06121" /><path
     class="st23"
     d="m 1041.4893,550.1801 c -1.95,-4.05 1.8,-9.45 2.1,-10.95 0.6,-1.95 2.7,-5.25 2.25,-7.5 -1.5,3 -4.05,7.05 -4.95,10.05 -0.45,1.5 -2.55,7.35 -0.75,11.4 15.75,-1.95 9.3,-5.1 1.35,-3 l 0,0 z"
     id="path179"
     inkscape:connector-curvature="0"
     style="fill:#6e4a25" /><path
     d="m 954.93926,551.3801 c -0.3,-2.85 -0.15,-5.7 0.15,-8.55 l 0,0 c 0.15,-1.65 0.45,-3.15 1.05,-4.8 0.3,-1.05 0.75,-2.25 1.2,-3.3 l 0,0 c 0.3,-0.75 0.75,-1.5 1.2,-2.1 0.45,-0.6 0.75,-1.05 1.2,-1.5 0.6,-0.75 1.35,-1.5 2.1,-2.1 1.05,-0.9 2.1,-1.5 3.3,-1.95 1.2,-0.45 2.55,-0.75 3.9,-0.9 1.2,-0.15 2.4,-0.15 3.75,0 0.6,0.15 1.05,0.3 1.65,0.45 0.9,0.3 1.65,0.6 2.4,1.05 1.2,0.6 2.4,1.5 3.6,2.25 1.05,0.9 2.1,1.8 3.15,2.85 1.2,1.2 1.95,2.25 2.55,2.7 0.6,0.6 1.2,1.2 1.65,1.8 0.75,0.9 1.35,1.8 1.95,2.7 0.6,1.05 1.2,2.1 1.65,3.15 0.45,1.05 0.75,2.1 1.05,3.15 0.15,0.45 0.15,0.75 0.3,0.75 0.15,0 0.15,-0.3 0.3,-0.6 0.15,-1.5 0,-2.85 -0.3,-4.35 -0.15,-1.05 -0.45,-1.95 -0.9,-3 -0.45,-1.05 -0.9,-2.1 -1.35,-3 -0.45,-0.9 -1.05,-1.8 -1.8,-2.7 -0.6,-0.75 -1.2,-1.35 -1.95,-1.95 -0.45,-0.3 -0.75,-0.6 -1.2,-0.9 -1.2,-0.9 -2.55,-1.8 -4.05,-2.55 -1.35,-0.75 -2.7,-1.2 -4.05,-1.8 -1.05,-0.3 -2.1,-0.6 -3.3,-0.75 -0.9,-0.15 -1.8,-0.3 -2.4,-0.45 -0.9,-0.15 -1.8,-0.3 -2.7,-0.45 -1.35,-0.15 -2.85,0 -4.2,0.3 -1.65,0.3 -3.3,1.05 -4.65,1.95 -1.35,0.9 -2.4,2.1 -3.45,3.45 -0.75,1.05 -1.35,2.25 -1.8,3.45 -0.15,0.45 -0.3,0.75 -0.3,1.2 -0.3,1.05 -0.45,2.25 -0.6,3.45 -0.15,1.5 -0.15,2.85 -0.15,4.35 0,1.95 0.3,4.05 0.6,6 0.3,1.65 0.45,2.7 0.45,2.7 l 0,0 z"
     id="path181"
     inkscape:connector-curvature="0" /><path
     class="st23"
     d="m 1063.9893,515.2301 c -0.6,0 -1.2,0 -1.8,0.15 -4.5,1.2 -8.55,3.6 -11.55,7.05 l 0.15,-0.15 c 0.6,-0.45 1.2,-1.05 1.8,-1.5 0.6,-0.45 1.2,-0.9 1.8,-1.35 0.6,-0.45 1.35,-0.75 1.95,-1.05 0.75,-0.3 1.35,-0.6 2.1,-0.9 0.75,-0.3 1.5,-0.45 2.25,-0.75 0.6,-0.15 1.2,-0.15 1.8,-0.15 0.6,0 1.2,0 1.8,0.15 0.6,0.15 1.2,0.3 1.8,0.45 0.6,0.15 1.05,0.45 1.65,0.75 0.9,0.45 1.8,1.05 2.7,1.65 0.6,0.45 1.2,0.9 1.65,1.35 0.75,0.75 1.35,1.5 1.8,2.25 0.6,0.9 1.2,1.95 1.8,3 0.6,1.05 1.2,2.1 1.65,3.3 0.45,1.2 1.05,2.25 1.5,3.45 0.9,2.25 1.8,4.2 2.25,5.7 0.3,0.9 0.45,1.05 0.45,1.5 l 1.95,-0.6 c 0,0 -5.1,-15.15 -10.05,-20.1 -1.05,-0.9 -5.25,-4.05 -9.45,-4.2 l 0,0 z"
     id="path183"
     inkscape:connector-curvature="0"
     style="fill:#6e4a25" /><path
     d="m 1084.0893,537.5801 c -1.05,-3 -1.95,-5.55 -2.7,-7.8 l 0,0 c -1.05,-2.55 -1.95,-4.65 -2.85,-6.6 -0.45,-1.05 -1.05,-2.1 -1.65,-3.15 -0.6,-0.9 -1.05,-1.65 -1.8,-2.4 -0.6,-0.6 -1.05,-1.05 -1.8,-1.5 -0.75,-0.6 -1.5,-1.2 -2.4,-1.65 l -0.45,-0.15 c -1.05,-0.6 -2.1,-0.9 -3.3,-1.2 -1.5,-0.3 -3.15,-0.3 -4.65,0.15 l 0,0 c -1.65,0.45 -3.3,1.2 -4.8,2.1 -1.2,0.75 -2.4,1.65 -3.45,2.55 -0.75,0.6 -1.2,1.2 -1.5,1.5 -0.3,0.3 -1.2,1.05 -1.95,1.95 -1.05,1.05 -2.1,2.1 -3,3.3 -0.75,1.05 -1.65,2.1 -2.4,3.3 -0.75,1.2 -1.5,2.25 -2.1,3.3 -0.9,1.65 -1.8,3.3 -2.4,4.95 -0.3,1.05 -0.9,2.85 -1.5,4.8 -0.45,1.95 -0.75,3.75 -0.9,5.7 -0.15,1.2 0,2.55 0.15,3.75 0.15,0.75 0.45,1.5 0.9,2.1 0.15,0.15 0.3,0.45 0.45,0.6 0.15,0.15 0.15,0.15 0.3,0.3 0.15,0 0.15,0 0,-0.3 -0.15,-0.3 -0.3,-0.75 -0.45,-1.05 -0.15,-0.6 -0.3,-1.2 -0.3,-1.8 0,-0.6 0,-1.05 0.15,-1.65 0.15,-0.6 0.3,-1.2 0.45,-1.8 0.45,-1.8 1.05,-3.45 1.65,-5.1 0.6,-1.35 1.2,-2.55 1.65,-3.75 0.45,-1.2 0.9,-2.25 1.2,-3.15 0.6,-1.5 1.2,-3.15 1.95,-4.8 0.75,-1.5 1.5,-3 2.4,-4.5 0.9,-1.35 1.8,-2.7 2.85,-3.9 0.75,-0.9 1.65,-1.65 2.55,-2.4 l 0.6,-0.45 c 1.05,-0.75 2.1,-1.35 3.3,-1.8 1.5,-0.75 3.15,-1.2 4.8,-1.5 l 0,0 c 1.05,-0.15 2.1,-0.15 3.15,0.15 1.05,0.3 2.1,0.75 3,1.2 0.9,0.45 1.65,0.9 2.55,1.5 0.45,0.3 1.05,0.75 1.5,1.2 0.45,0.45 0.9,0.9 1.35,1.35 0.45,0.45 0.75,0.75 1.05,1.35 0.3,0.6 0.9,1.2 1.35,1.8 1.35,1.95 2.4,3.9 3.6,6 l 3.45,7.5 0,0 z"
     id="path185"
     inkscape:connector-curvature="0" /><path
     class="st22"
     d="m 975.18926,453.5801 c 0,0 -13.8,7.95 -21.75,19.95 -6.6,10.05 -14.25,30.45 -14.1,43.65 0.15,10.5 5.85,20.85 13.5,22.2 6.15,1.2 15,-1.5 16.8,-4.35 9.6,-16.05 1.05,-25.2 0.6,-41.55 -0.45,-13.2 1.5,-16.95 3.45,-22.35 0.75,-2.1 7.5,-14.7 7.5,-14.7"
     id="path187"
     inkscape:connector-curvature="0"
     style="fill:#a06121" /><path
     class="st22"
     d="m 1047.3393,377.5301 c 0,0 7.5,-11.25 9.6,-13.2 2.1,-1.95 2.55,-4.35 7.2,-5.1 4.65,-0.75 12,2.25 13.65,3.3 1.65,1.05 7.95,5.4 9.15,6.9 1.2,1.5 2.1,6.3 1.95,9.6 -0.6,4.05 -2.1,8.1 -4.35,11.55 -1.2,1.2 -7.95,7.5 -10.05,8.25 -2.1,0.75 -13.95,2.55 -13.95,2.55 l -13.2,-23.85 z"
     id="path189"
     inkscape:connector-curvature="0"
     style="fill:#a06121" /><path
     class="st23"
     d="m 972.93926,454.7801 c -4.05,2.7 -13.5,9.3 -19.5,18.6 -6.6,10.05 -14.4,30.45 -14.1,43.65 0.15,10.5 5.85,20.7 13.5,22.2 5.85,1.2 14.4,-1.2 16.5,-4.05 -0.45,0.15 -0.75,0.45 -1.2,0.6 -0.75,0.3 -1.5,0.6 -2.25,0.75 -0.75,0.15 -1.65,0.45 -2.55,0.6 -0.9,0.15 -1.65,0.3 -2.55,0.3 -0.9,0 -1.65,0 -2.55,0 -0.75,0 -1.65,-0.15 -2.4,-0.3 -0.45,-0.15 -0.9,-0.15 -1.35,-0.45 -0.45,-0.15 -0.9,-0.3 -1.35,-0.6 -0.9,-0.45 -1.8,-1.05 -2.55,-1.65 -0.9,-0.75 -1.65,-1.5 -2.25,-2.25 -0.75,-0.9 -1.35,-1.8 -1.95,-2.85 -0.6,-1.05 -1.2,-2.1 -1.65,-3.3 -0.45,-1.2 -0.9,-2.4 -1.2,-3.6 -0.3,-1.2 -0.6,-2.55 -0.75,-3.75 -0.15,-1.35 -0.3,-2.55 -0.3,-3.9 0,-1.8 0.15,-3.6 0.3,-5.25 0.15,-1.8 0.45,-3.75 0.9,-5.7 0.45,-1.95 0.9,-3.9 1.5,-6 0.6,-2.1 1.2,-4.05 1.8,-6 0.6,-1.95 1.5,-3.9 2.25,-5.85 0.75,-1.95 1.5,-3.75 2.4,-5.55 0.9,-1.8 1.65,-3.45 2.55,-4.95 0.9,-1.5 1.65,-3 2.55,-4.2 1.05,-1.5 2.1,-3 3.15,-4.35 1.2,-1.35 2.25,-2.7 3.45,-3.9 1.2,-1.2 2.4,-2.4 3.6,-3.45 1.2,-1.05 2.4,-1.95 3.45,-2.85 1.05,-0.9 1.65,-1.2 2.55,-1.95 l 0,0 z"
     id="path191"
     inkscape:connector-curvature="0"
     style="fill:#6e4a25" /><path
     class="st22"
     d="m 954.48926,402.8801 c 0,0 -1.8,16.8 -0.9,19.5 0.9,2.7 4.95,18 5.55,19.2 0.6,1.2 11.1,13.35 14.25,14.85 3.15,1.5 13.65,5.55 13.65,5.55 0,0 25.80004,4.05 33.45004,3.15 7.65,-0.9 19.5,-2.25 22.95,-5.25 2.7,-2.4 8.7,-4.8 11.7,-7.5 4.05,-3.45 8.7,-4.35 10.8,-6.45 2.1,-2.1 6.75,-10.8 7.5,-17.4 0.75,-6.6 0,-17.4 -1.8,-21.45 -1.95,-4.35 -4.05,-8.1 -5.25,-10.5 -1.2,-2.4 -15.45,-20.4 -17.7,-23.85 -2.25,-3.45 -11.7,-11.1 -14.55,-11.85 -2.85,-0.75 -21.45,-4.05 -26.7,-3.45 -5.25,0.6 -18.00004,6.45 -20.70004,8.4 -2.7,1.95 -13.65,13.05 -15.15,14.85 -1.5,1.8 -17.1,18.45 -17.1,22.2 l 0,0 z"
     id="path193"
     inkscape:connector-curvature="0"
     style="fill:#a06121" /><path
     class="st25"
     d="m 999.78926,463.9301 c 7.80004,0.9 16.50004,1.8 20.70004,1.35 7.8,-0.9 19.5,-2.1 22.95,-5.25 2.7,-2.4 8.7,-4.8 11.85,-7.5 4.05,-3.45 8.7,-4.35 10.8,-6.45 2.1,-2.1 6.75,-10.8 7.5,-17.4 0.75,-6.6 0,-17.4 -1.8,-21.45 -1.2,-2.7 -2.55,-5.1 -3.6,-7.2 2.1,-0.3 4.05,-0.75 6.15,-1.2 2.25,-0.75 8.85,-7.05 10.05,-8.25 2.25,-3.45 3.75,-7.35 4.35,-11.55 0.15,-3.3 -0.75,-7.95 -1.95,-9.6 -1.2,-1.65 -7.5,-5.85 -9.15,-6.9 -3.75,-1.95 -7.8,-3.15 -12,-3.45 1.2,0.15 2.25,0.45 3.45,0.75 1.2,0.3 2.4,0.75 3.45,1.2 0.75,0.3 1.5,0.6 2.25,1.05 0.75,0.6 2.85,1.95 4.65,3.3 0.9,0.75 1.95,1.35 2.7,2.1 0.6,0.45 1.2,1.05 1.65,1.5 0.3,0.45 0.6,1.05 0.75,1.65 0.3,0.75 0.45,1.65 0.6,2.4 0.15,0.9 0.3,1.8 0.45,2.7 0.15,0.9 0.15,1.8 0.15,2.7 0,1.05 -0.3,1.95 -0.6,3 -0.3,1.2 -0.75,2.4 -1.2,3.45 -0.45,1.2 -1.05,2.25 -1.5,3.15 -0.3,0.6 -0.75,1.35 -1.2,1.8 -0.6,0.6 -2.55,2.4 -4.65,4.2 -1.05,0.9 -2.1,1.8 -3,2.55 -0.75,0.6 -1.5,1.05 -2.25,1.5 -0.75,0.3 -1.65,0.45 -2.4,0.6 -1.05,0.15 -2.4,0.45 -3.75,0.75 1.05,2.1 2.25,4.5 3.6,7.2 0.3,0.6 0.45,1.2 0.6,1.8 0.15,0.75 0.3,1.5 0.45,2.25 0.3,1.8 0.6,3.75 0.75,5.7 0.15,1.95 0.3,4.05 0.3,6.15 0,2.1 0,3.9 -0.3,5.55 -0.15,0.9 -0.15,1.65 -0.45,2.55 -0.15,0.9 -0.45,1.8 -0.75,2.7 -0.6,1.8 -1.2,3.45 -1.95,5.1 -0.75,1.5 -1.5,3 -2.25,4.35 -0.6,0.9 -1.2,1.95 -1.95,2.7 -0.3,0.3 -0.6,0.6 -0.9,0.75 -0.3,0.3 -0.75,0.45 -1.2,0.75 -0.75,0.45 -1.65,0.9 -2.7,1.35 -1.05,0.45 -1.95,0.9 -3,1.5 -1.05,0.6 -2.1,1.35 -3.15,2.1 -0.9,0.75 -1.8,1.35 -2.7,1.95 -1.05,0.6 -2.25,1.2 -3.3,1.8 -1.05,0.6 -2.25,1.2 -3.15,1.8 -0.9,0.6 -1.8,1.2 -2.55,1.8 -0.45,0.45 -1.05,0.75 -1.65,1.05 -0.75,0.3 -1.5,0.6 -2.25,0.9 -0.9,0.3 -1.8,0.6 -2.7,0.75 -0.9,0.15 -2.1,0.45 -3.15,0.6 -2.25,0.45 -4.5,0.75 -6.75,1.05 -2.25,0.3 -4.5,0.6 -6.45,0.75 -1.2,0.15 -2.4,0.15 -3.75,0.15 -1.5,0 -3.15,-0.15 -4.8,-0.15 -3,0.15 -6.15,-0.15 -9.30004,-0.45 l 0,0 z"
     id="path195"
     inkscape:connector-curvature="0"
     style="fill:#b8854f" /><path
     class="st23"
     d="m 1034.8893,406.1801 c -1.5,-0.75 -1.8,-3.9 -2.55,-2.4 -0.9,2.1 -0.6,4.65 0.75,6.45 1.05,1.05 7.2,1.8 7.2,0 0,-1.8 -3.9,-3.15 -5.4,-4.05 l 0,0 z"
     id="path197"
     inkscape:connector-curvature="0"
     style="fill:#6e4a25" /><path
     class="st23"
     d="m 1016.7393,409.0301 c 0,-1.35 0,-4.5 0.15,-8.25 0,-3.15 0.15,-6.9 0.3,-10.2 0,-1.35 0.15,-2.55 0.15,-3.75 0,-0.45 0,-0.9 0.15,-1.2 0,-0.3 0,-0.45 0.15,-0.75 0.15,-0.6 0.15,-1.05 0.3,-1.65 l 0,0 c 0.15,-1.05 0.15,-1.95 0.15,-2.55 0,0 0,-0.15 0,-0.15 0,-1.5 0,-3.9 -0.15,-6.6 0,-2.1 -0.15,-4.5 -0.45,-6.9 -0.15,-0.9 -0.3,-1.8 -0.45,-2.7 -0.15,-0.6 -0.3,-1.35 -0.6,-1.95 -0.6,-1.05 -1.05,-2.25 -1.65,-3.15 -0.15,-0.3 -0.3,-0.45 -0.45,-0.75 -0.15,-0.15 -0.3,-0.45 -0.6,-0.6 -0.15,-0.15 -0.3,-0.15 -0.45,-0.3 l -0.3,0 0,0 c 0.3,0.15 0.45,0.3 0.6,0.45 0.15,0.15 0.3,0.3 0.45,0.45 0.15,0.3 0.3,0.45 0.45,0.75 0.3,0.45 0.45,0.9 0.75,1.5 0.3,0.6 0.45,1.2 0.75,1.8 0.3,0.6 0.45,1.2 0.45,1.8 0.15,0.9 0.3,1.8 0.3,2.7 0.15,2.25 0.3,4.5 0.3,6.75 0,2.25 0,4.65 -0.15,6.75 l 0,0 c 0,0.9 0,1.65 -0.15,2.55 0,0.45 0,0.9 -0.15,1.2 0,0.15 0,0.15 0,0.3 l 0,0 c 0,0.3 -0.15,0.6 -0.15,0.9 l 0,0 c 0,0.45 0,0.9 0,1.35 l 0,0 c 0,1.2 0,2.55 -0.15,3.75 l 0,0 c 0,3.45 0,7.05 0,10.2 0,4.35 0,8.1 0,10.35 0.15,4.95 0.6,5.25 0.45,-2.1 l 0,0 z"
     id="path199"
     inkscape:connector-curvature="0"
     style="fill:#6e4a25" /><path
     d="m 976.23926,452.6801 -8.4,5.7 c -3,2.25 -5.85,4.65 -8.7,7.35 -2.4,2.25 -4.5,4.65 -6.45,7.2 l 0,0 c -1.2,1.65 -2.4,3.3 -3.3,4.95 -0.9,1.65 -1.8,3.15 -2.55,4.65 -1.05,2.25 -1.95,4.35 -2.85,6.15 -0.9,1.8 -1.5,3.6 -1.95,5.25 -0.9,2.4 -1.5,4.5 -1.95,6.45 -0.45,1.95 -0.9,3.6 -1.2,5.25 l 0,0.3 c -0.3,1.35 -0.45,2.85 -0.75,4.8 -0.15,2.1 -0.3,4.2 -0.3,6.45 0,2.1 0.15,4.05 0.45,6.15 0.3,2.25 0.9,4.35 1.8,6.3 0.9,1.65 1.95,3.3 3.3,4.65 1.2,1.2 2.7,2.4 4.2,3.3 l 0,0 c 1.2,0.75 2.55,1.35 4.05,1.8 1.2,0.45 2.55,0.6 3.75,0.75 1.95,0.15 3.75,0.15 5.7,-0.15 l 0.6,-0.15 c 0.6,-0.15 1.35,-0.3 2.25,-0.6 1.05,-0.3 2.1,-0.75 3.15,-1.2 0.9,-0.45 1.65,-0.9 2.4,-1.5 0.9,-0.6 1.65,-1.35 2.25,-2.25 l 0,0 c 1.05,-1.35 1.95,-2.7 2.55,-4.2 0.75,-1.65 1.2,-3.3 1.5,-5.1 l 0,0 c 0.3,-1.65 0.3,-3.3 0.15,-4.95 -0.15,-1.65 -0.3,-3.3 -0.6,-4.95 l 0,0 c -0.3,-1.95 -0.75,-3.75 -1.05,-5.55 -0.3,-1.8 -0.75,-3.45 -1.05,-4.95 -0.45,-2.25 -0.75,-4.2 -0.9,-5.85 -0.15,-1.65 -0.3,-3 -0.45,-3.9 0,-0.45 -0.15,-1.05 -0.15,-1.65 0,-1.65 -0.15,-3.75 -0.3,-6 0,-2.4 0,-4.8 0.3,-7.2 0.15,-1.35 0.45,-2.55 0.75,-3.75 0.45,-1.35 0.9,-2.55 1.35,-3.9 1.5,-4.05 3.3,-8.1 4.95,-11.7 l 1.65,-3.3 c 0.45,-0.75 0.75,-1.35 0.9,-2.25 l 0,0 c -1.35,1.5 -2.4,3.3 -3.45,5.1 -2.25,3.75 -4.2,7.5 -6,11.4 -1.2,2.55 -2.1,5.25 -2.7,8.1 -0.45,2.25 -0.6,4.65 -0.75,7.05 -0.15,2.25 0,4.5 0,6.6 0,3 0.45,6 1.05,9 0.15,0.9 0.45,1.95 0.6,2.85 0.9,3.45 1.95,6.9 2.7,10.35 0.3,1.5 0.6,3.15 0.75,4.65 0.15,1.5 0.15,3 0,4.65 -0.15,1.65 -0.45,3.15 -1.05,4.65 -0.6,1.5 -1.35,2.85 -2.25,4.05 -1.05,1.5 -2.55,2.7 -4.05,3.45 -2.7,1.5 -5.7,2.25 -8.7,2.25 -1.35,0 -2.7,-0.3 -4.05,-0.6 -1.95,-0.45 -3.75,-1.35 -5.4,-2.4 -1.35,-0.9 -2.55,-1.95 -3.6,-3.15 -1.2,-1.2 -2.1,-2.7 -2.85,-4.2 l 0,0 c -0.75,-1.8 -1.2,-3.6 -1.35,-5.55 -0.15,-1.95 -0.3,-4.05 -0.3,-6.15 0,-3.6 0.45,-7.2 1.2,-10.65 0.75,-3.9 1.8,-7.8 3,-11.7 0.6,-1.95 1.2,-3.75 1.65,-5.1 0.6,-1.65 1.35,-3.9 2.4,-6.3 1.35,-3.3 3.15,-6.6 5.25,-9.6 l 0,0 c 2.1,-3 4.35,-5.7 6.9,-8.25 2.25,-2.4 4.8,-4.5 7.35,-6.75 l 8.55,-6.15 0,0 z"
     id="path201"
     inkscape:connector-curvature="0" /><path
     class="st23"
     d="m 981.78926,370.3301 c -4.2,4.05 -9.3,9.3 -10.35,10.5 -1.5,1.8 -17.1,18.3 -17.1,22.05 0,0 -1.8,16.8 -0.9,19.5 0.9,2.7 4.95,18 5.55,19.2 0.6,1.2 11.1,13.35 14.25,14.85 3.15,1.5 13.65,5.55 13.65,5.55 0,0 25.80004,4.05 33.45004,3.15 7.65,-0.9 19.5,-2.1 22.95,-5.25 2.7,-2.4 8.7,-4.8 11.7,-7.5 4.05,-3.45 8.7,-4.35 10.8,-6.45 0.9,-1.05 1.65,-2.25 2.4,-3.45 l -1.8,0.9 c -1.05,0.45 -1.95,0.9 -3,1.5 -1.05,0.6 -2.1,1.35 -3,2.1 -0.9,0.75 -1.8,1.35 -2.7,1.95 -1.05,0.6 -2.25,1.2 -3.3,1.8 -1.05,0.6 -2.25,1.2 -3.15,1.8 -0.9,0.6 -1.8,1.2 -2.55,1.8 -0.45,0.45 -1.05,0.75 -1.65,1.05 -0.75,0.3 -1.5,0.6 -2.25,0.9 -0.9,0.3 -1.8,0.6 -2.85,0.75 -1.05,0.15 -2.1,0.45 -3.15,0.6 -2.25,0.45 -4.5,0.75 -6.75,1.05 -2.25,0.3 -4.5,0.6 -6.45,0.75 -1.2,0.15 -2.4,0.15 -3.6,0.15 -1.5,0 -3.15,-0.15 -4.8,-0.15 -3.45,-0.3 -7.5,-0.75 -11.1,-1.05 -7.35004,-0.9 -13.80004,-1.95 -13.80004,-1.95 0,0 -2.7,-1.05 -5.7,-2.25 -3,-1.2 -6.45,-2.4 -7.95,-3.15 -0.6,-0.3 -1.05,-0.6 -1.5,-1.05 -0.6,-0.45 -1.2,-1.05 -1.95,-1.8 -1.5,-1.35 -3,-3 -4.65,-4.8 -1.65,-1.8 -3,-3.3 -4.2,-4.65 -0.75,-0.9 -1.5,-1.65 -2.1,-2.7 -0.3,-0.6 -1.5,-4.8 -2.7,-9 -1.2,-4.2 -2.4,-8.85 -2.85,-10.2 -0.15,-0.6 -0.3,-1.05 -0.3,-1.65 0,-0.75 0,-1.65 0,-2.55 0,-1.95 0.15,-4.35 0.3,-6.6 0.3,-4.5 0.75,-8.7 0.75,-8.7 0,-0.3 0.15,-0.6 0.15,-0.9 0.15,-0.45 0.3,-0.75 0.45,-1.05 0.6,-0.9 1.2,-1.95 1.8,-2.85 0.75,-1.05 1.65,-2.25 2.55,-3.3 0.9,-1.05 1.95,-2.4 3,-3.6 2.1,-2.4 4.2,-4.8 5.85,-6.6 1.65,-1.8 3,-3.3 3.3,-3.75 0.3,-0.45 3.3,-2.7 5.25,-4.95 l 0,0 z"
     id="path203"
     inkscape:connector-curvature="0"
     style="fill:#6e4a25" /><path
     class="st22"
     d="m 1047.6393,453.4301 c 0,0 15.3,4.2 25.95,13.95 8.85,8.1 21.45,26.1 24.75,39.15 2.55,10.35 0.9,20.85 -6.15,24.15 -5.55,2.7 -16.2,3.45 -18.75,0.9 -13.35,-13.35 -7.5,-24.6 -11.1,-40.8 -3,-13.05 -9.45,-17.7 -10.2,-19.8 -0.75,-2.1 -9.45,-13.35 -9.45,-13.35"
     id="path205"
     inkscape:connector-curvature="0"
     style="fill:#a06121" /><path
     class="st25"
     d="m 1049.5893,454.3301 -2.7,2.55 c 0,0 1.95,-1.35 3.3,-0.9 1.35,0.45 3.3,1.35 5.55,2.55 1.2,0.6 2.25,1.2 3.6,1.95 1.35,0.75 2.55,1.5 3.75,2.4 1.2,0.9 2.55,1.8 3.9,2.85 1.35,1.05 2.55,2.1 3.75,3.3 1.05,1.05 1.95,2.1 3.15,3.45 1.2,1.35 2.4,3.75 3.6,5.25 1.2,1.5 2.55,3.15 3.75,4.8 1.2,1.65 2.4,3.45 3.6,5.25 1.2,1.8 2.25,3.6 3.3,5.4 1.05,1.8 1.95,3.75 2.85,5.55 0.9,1.8 1.65,3.6 2.4,5.4 0.6,1.65 1.2,3.45 1.65,5.1 0.3,1.35 0.6,2.55 0.75,3.9 0.15,1.2 0.3,2.55 0.3,3.75 0,1.2 0,2.4 0,3.6 -0.15,1.2 -0.3,2.25 -0.45,3.45 -0.3,1.05 -0.6,2.1 -0.9,3 -0.3,0.9 -0.9,1.8 -1.35,2.7 -0.3,0.45 -0.6,0.75 -0.9,1.05 l 0,0 c 6.9,-3.3 8.55,-13.8 6.15,-24.15 -3.15,-13.05 -15.75,-31.05 -24.75,-39.15 -7.35,-6.15 -15.6,-10.65 -24.3,-13.05 l 0,0 z"
     id="path207"
     inkscape:connector-curvature="0"
     style="fill:#b8854f" /><path
     d="m 1048.2393,453.4301 8.4,3.75 c 3.15,1.5 6.15,3.3 9.15,5.25 2.55,1.65 4.8,3.6 7.05,5.55 1.35,1.35 2.7,2.7 3.75,3.9 1.05,1.2 2.25,2.55 3.15,3.75 2.55,3.15 4.95,6.6 7.05,10.05 1.5,2.25 2.55,4.35 3.45,6.15 0.9,1.8 1.8,3.45 2.4,4.95 l 0.15,0.3 c 0.45,1.2 1.2,2.55 1.95,4.2 0.75,1.95 1.35,3.75 1.95,5.7 0.6,2.25 1.05,4.65 1.2,6.9 0.15,2.4 0.15,4.95 -0.45,7.35 -0.3,1.95 -1.05,3.75 -2.1,5.4 -0.45,0.75 -1.05,1.5 -1.65,2.1 -0.6,0.6 -1.35,1.05 -2.1,1.5 -1.5,0.75 -3.15,1.35 -4.65,1.65 -1.2,0.3 -2.25,0.45 -3.45,0.75 -0.45,0 -1.2,0.15 -1.95,0.15 -0.75,0 -1.35,0 -2.25,0 -0.9,0 -1.8,-0.15 -2.7,-0.3 -0.6,-0.15 -1.2,-0.3 -1.8,-0.45 -0.3,-0.15 -0.75,-0.3 -1.05,-0.6 -1.35,-1.35 -2.55,-2.85 -3.6,-4.35 -1.2,-1.65 -2.1,-3.45 -2.85,-5.4 l 0,0 c -1.2,-3 -1.8,-6.15 -2.1,-9.45 -0.15,-1.8 -0.15,-3.6 -0.3,-5.4 -0.15,-1.8 0,-3.3 -0.15,-4.95 -0.15,-1.65 -0.15,-3.15 -0.3,-4.5 -0.15,-1.35 -0.3,-2.4 -0.45,-3.15 -0.15,-1.2 -0.45,-2.55 -0.9,-4.2 -0.6,-2.7 -1.5,-5.55 -2.55,-8.1 l 0,0 c -0.75,-1.8 -1.5,-3.6 -2.55,-5.25 -0.75,-1.35 -1.65,-2.55 -2.7,-3.75 l 0,0 c -0.9,-1.2 -1.8,-2.25 -2.55,-3.45 -0.3,-0.45 -0.6,-0.75 -0.9,-1.05 l -1.35,-1.5 c -1.2,-1.35 -2.25,-2.55 -3.3,-3.75 l -2.85,-3.15 -0.3,-0.3 c -0.45,-0.45 -0.75,-0.75 -1.05,-1.05 l -0.3,-0.3 -0.15,0 0,0 -0.6,0.45 -0.15,0.15 0,0 0.15,-0.15 0.45,-0.45 0,0 0,0.15 0.15,0.3 c 0.15,0.3 0.45,0.75 0.75,1.2 0.6,0.9 1.5,2.25 2.7,3.75 l 3,4.05 1.2,1.65 c 0.3,0.3 0.45,0.75 0.75,1.05 0.75,1.2 1.5,2.4 2.4,3.6 0.75,1.2 1.65,2.4 2.25,3.6 0.9,1.65 1.5,3.3 2.1,5.1 0.75,2.55 1.5,5.25 1.95,7.95 0.45,1.95 0.75,3.9 0.9,5.7 0.15,1.8 0.45,3.6 0.45,5.1 l 0,0.45 c 0.3,3.3 0.45,6.75 0.9,10.35 l 0,0 c 0.45,3.45 1.35,6.75 2.85,9.9 1.8,3.75 4.35,7.05 7.35,9.9 0.45,0.45 0.9,0.75 1.5,0.9 0.6,0.3 1.35,0.45 1.95,0.45 1.65,0.15 3.45,0.3 5.1,0.15 1.8,-0.15 3.75,-0.45 5.55,-0.75 l 0.15,0 c 0.6,-0.15 1.35,-0.3 2.25,-0.6 1.05,-0.3 1.95,-0.6 2.85,-1.05 l 0,0 c 0.9,-0.45 1.65,-0.9 2.4,-1.5 0.75,-0.75 1.5,-1.5 2.1,-2.4 1.2,-1.8 2.1,-3.9 2.55,-6 0.6,-2.4 0.9,-4.95 0.75,-7.5 0,-2.7 -0.45,-5.25 -1.05,-7.8 -0.9,-3.75 -2.25,-7.35 -3.9,-10.95 -1.8,-3.9 -3.9,-7.65 -6.3,-11.25 -0.9,-1.35 -1.8,-2.55 -2.4,-3.45 -1.35,-1.65 -3.15,-4.05 -5.4,-6.45 -2.4,-2.7 -4.8,-5.25 -7.5,-7.5 -2.7,-2.25 -5.55,-4.2 -8.55,-6 -2.7,-1.5 -5.4,-3 -8.25,-4.2 l -7.65,-2.85 0,0 z"
     id="path209"
     inkscape:connector-curvature="0" /><path
     d="m 1079.5893,528.1301 c 0.15,0 0.3,0.15 0.45,0.15 0.15,0.15 0.3,0.45 0.3,0.6 0.15,0.3 0.15,0.6 0.15,0.9 0,0.3 0,0.75 -0.15,1.05 -0.15,0.9 -0.45,1.65 -0.9,2.4 -0.15,0.3 -0.3,0.45 -0.45,0.75 -0.45,0.9 -1.2,1.65 -1.95,2.25 -0.3,0.15 -0.6,0.45 -0.9,0.45 -0.15,0 -0.3,0 -0.45,0 l -0.15,0 -0.15,0 0,0 -0.15,-0.15 -0.15,-0.15 0,0 c 0,-0.15 -0.15,-0.3 -0.15,-0.45 0,-0.3 0,-0.75 0,-1.05 0.15,-0.9 0.45,-1.8 0.9,-2.7 l 0.3,-0.6 c 0.3,-0.75 0.75,-1.35 1.2,-1.95 0.15,-0.3 0.3,-0.45 0.6,-0.75 0.15,-0.15 0.3,-0.3 0.6,-0.45 0.15,-0.15 0.3,-0.15 0.45,-0.3 0.3,0 0.45,0 0.6,0 l 0,0 z"
     id="path211"
     inkscape:connector-curvature="0" /><path
     d="m 1073.4393,526.9301 c 0.15,0 0.3,0 0.45,0.15 0.15,0.15 0.3,0.3 0.45,0.45 0.3,0.45 0.45,0.9 0.45,1.5 0,0.6 0,1.2 -0.15,1.8 0,0.15 -0.15,0.45 -0.15,0.6 -0.15,0.75 -0.6,1.35 -1.2,1.95 -0.15,0.15 -0.45,0.45 -0.75,0.45 -0.15,0 -0.3,0.15 -0.3,0.15 l -0.15,0 -0.15,0 0,0 -0.15,0 -0.15,-0.15 c -0.15,0 -0.15,-0.15 -0.3,-0.3 -0.15,-0.3 -0.3,-0.45 -0.3,-0.75 -0.15,-0.75 -0.15,-1.35 -0.15,-2.1 0,-0.15 0,-0.45 0.15,-0.6 0.15,-0.6 0.3,-1.05 0.45,-1.65 0.15,-0.45 0.45,-0.75 0.9,-1.05 0.15,-0.15 0.3,-0.3 0.45,-0.3 0.3,0 0.45,0 0.6,-0.15 l 0,0 z"
     id="path213"
     inkscape:connector-curvature="0" /><path
     d="m 1088.4393,529.4801 c 0.6,-0.15 1.2,0.15 1.5,0.75 0.45,0.6 0.75,1.35 0.75,2.1 0,0.6 0,1.05 -0.3,1.65 -0.15,0.45 -0.45,0.9 -0.75,1.2 -0.15,0.15 -0.3,0.15 -0.45,0.3 -0.15,0 -0.3,0 -0.45,0 l 0,0 c -0.15,0 -0.3,-0.15 -0.45,-0.15 -0.15,-0.15 -0.3,-0.15 -0.45,-0.3 -0.3,-0.3 -0.45,-0.6 -0.6,-1.05 -0.15,-0.45 -0.3,-0.9 -0.3,-1.35 0,-0.75 0.15,-1.35 0.45,-1.95 0.15,-0.75 0.6,-1.05 1.05,-1.2 l 0,0 z"
     id="path215"
     inkscape:connector-curvature="0" /><path
     class="st26"
     d="m 1012.8393,416.0801 7.95,0 14.55,5.25 17.1,10.5 c 0,0 4.65,3.3 5.25,5.25 0.6,1.95 -1.5,10.8 -1.5,10.8 l -2.85,8.85 c 0,0 -16.95,13.65 -22.95,15.15 -6,1.5 -32.40004,1.05 -36.75004,-3.75 -4.35,-4.8 -13.95,-16.95 -13.95,-20.85 0,-3.9 0,-7.2 1.95,-9.15 1.95,-1.95 4.65,-3.3 13.2,-10.8 2.1,-1.8 7.95004,-7.05 10.50004,-9 2.55,-1.95 5.85,-2.85 7.5,-2.25 l 0,0 z"
     id="path217"
     inkscape:connector-curvature="0"
     style="fill:#834317" /><path
     class="st25"
     d="m 1011.7893,415.9301 c -1.65,0.15 -3.45,0.6 -4.95,1.5 0.45,-0.15 1.05,-0.15 1.5,-0.15 0.6,0 6.75,-0.75 7.2,-0.6 l 7.5,0.75 9.6,4.35 16.8,11.55 c 0,0 1.2,0.75 2.4,1.95 0.6,0.6 1.2,1.05 1.8,1.65 0.3,0.3 0.45,0.6 0.75,0.9 0.15,0.3 0.3,0.45 0.45,0.75 0.15,0.3 0.15,0.75 0.15,1.05 0,0.45 0,1.05 0,1.5 -0.15,1.05 -0.3,2.4 -0.6,3.6 -0.45,2.4 -1.05,4.65 -1.05,4.65 l -2.85,8.7 c 0,0 -1.05,0.9 -2.7,2.1 -1.65,1.2 -4.05,3 -6.45,4.8 -1.2,0.9 -2.55,1.8 -3.75,2.7 -1.2,0.9 -2.55,1.65 -3.75,2.4 -1.2,0.75 -2.25,1.35 -3.3,1.8 l 0.45,0 c 6.15,-1.5 22.2,-15.6 22.2,-15.6 l 3.75,-8.4 c 0,0 2.25,-8.85 1.5,-10.8 -0.75,-1.95 -5.55,-5.25 -5.55,-5.25 l -17.1,-10.5 -14.4,-5.25 -7.95,0 c -0.45,-0.15 -1.05,-0.3 -1.65,-0.15 l 0,0 z"
     id="path219"
     inkscape:connector-curvature="0"
     style="fill:#b8854f" /><path
     class="st27"
     d="m 984.03926,436.0301 c -0.9,0.6 -1.65,1.35 -2.55,2.1 -1.95,1.95 -1.95,5.1 -1.95,9.15 0,4.05 9.6,16.05 14.1,20.85 4.5,4.8 30.75004,5.25 36.75004,3.75 6,-1.5 22.95,-15.75 22.95,-15.75 l 0.3,-0.9 c -1.65,1.35 -3.45,3.45 -5.85,5.1 -1.2,0.9 -2.55,1.8 -3.75,2.7 -1.2,0.9 -2.55,1.65 -3.75,2.4 -1.2,0.75 -2.4,1.35 -3.45,1.95 -0.9,0.45 -1.8,0.75 -2.7,1.05 -1.05,0.3 -2.1,0.45 -3.15,0.45 -1.35,0.15 -2.85,0.15 -4.5,0.3 -1.65,0.15 -3.6,0 -5.4,0 -1.8,0 -3.9,-0.15 -5.85,-0.3 -1.95,-0.15 -3.9,-0.3 -5.85,-0.6 -1.95,-0.3 -3.6,-0.6 -5.25,-0.9 -0.75,-0.15 -1.5,-0.3 -2.25,-0.6 -0.6,-0.15 -1.35,-0.45 -1.95004,-0.75 -0.45,-0.15 -1.05,-0.45 -1.5,-0.75 -0.45,-0.3 -0.75,-0.45 -1.05,-0.9 -1.05,-1.2 -2.55,-2.85 -4.05,-4.8 -1.5,-1.95 -3.15,-3.9 -4.65,-6 -0.75,-1.05 -1.5,-2.1 -2.1,-3 -0.6,-0.9 -1.2,-1.95 -1.65,-2.85 -0.45,-0.75 -0.9,-1.65 -1.2,-2.4 -0.3,-0.6 -0.45,-1.2 -0.45,-1.8 0,-1.05 0,-1.95 0,-2.85 0,-0.9 0.15,-1.65 0.15,-2.4 0.15,-0.75 0.3,-1.5 0.6,-2.1 -0.15,0.15 0,0 0,-0.15 l 0,0 z"
     id="path221"
     inkscape:connector-curvature="0"
     style="fill:#5d381e" /><path
     class="st27"
     d="m 1012.9893,437.5301 c 0.45,2.25 1.35,2.4 2.85,3.9 1.5,1.5 1.5,6.9 1.2,12.6 l 2.4,0.9 -1.35,-13.8 -5.1,-3.6 z"
     id="path223"
     inkscape:connector-curvature="0"
     style="fill:#5d381e" /><path
     d="m 982.98926,437.2301 c 4.2,-3.3 8.1,-6.6 11.55,-9.45 2.7,-2.25 5.1,-4.5 7.50004,-6.3 l 0,0 c 1.65,-1.35 3.45,-2.55 5.55,-3.6 1.8,-0.75 3.6,-1.2 5.55,-1.35 l 0,0 c 1.8,-0.15 3.45,-0.15 5.25,0 1.5,0.15 3,0.3 4.5,0.6 1.35,0.3 2.7,0.75 4.05,1.35 1.2,0.45 2.25,1.05 3.3,1.65 1.8,0.9 3.3,1.95 4.65,2.7 1.35,0.75 2.7,1.65 3.9,2.4 l 1.5,0.9 c 2.55,1.5 6.6,3.75 11.55,6 1.5,0.6 2.7,1.8 3.6,3.15 0.9,1.5 1.5,3.15 1.65,4.95 l 0,0 c 0.3,2.1 0.15,4.2 -0.3,6.3 -0.45,1.95 -1.05,3.9 -1.8,5.7 l 0,0 c -0.6,1.35 -1.5,2.7 -2.4,3.9 -0.75,1.05 -1.65,1.95 -2.55,2.85 -0.75,0.75 -1.5,1.5 -1.95,1.95 -0.45,0.45 -1.5,1.2 -2.55,1.95 -1.05,0.75 -2.55,1.65 -4.05,2.7 -3.3,1.95 -6.9,3.6 -10.65,4.8 -1.8,0.6 -3.45,1.05 -5.4,1.35 -1.8,0.3 -3.6,0.6 -5.4,0.6 -2.25,0 -4.35,-0.15 -6.6,-0.3 -1.95,-0.3 -3.9,-0.6 -5.7,-1.05 -2.55,-0.6 -5.1,-1.5 -7.65,-2.55 l -0.30004,-0.15 c -1.35,-0.6 -2.55,-1.05 -3.9,-1.8 -1.65,-0.9 -3.15,-1.8 -4.5,-2.85 -2.25,-1.65 -4.2,-3.75 -5.7,-6.15 -1.05,-1.65 -2.1,-3.45 -3,-5.1 -0.9,-1.65 -1.65,-3.45 -2.25,-5.4 -0.45,-1.65 -0.6,-3.3 -0.15,-4.95 0.15,-1.2 0.75,-2.25 1.35,-3.15 0.3,-0.45 0.6,-0.9 1.05,-1.2 0.3,-0.3 0.45,-0.45 0.45,-0.45 l 0,0 0,0 c -0.15,0.15 -0.3,0.15 -0.45,0.3 -0.3,0.3 -0.6,0.6 -0.9,0.9 -0.45,0.45 -0.9,0.9 -1.2,1.5 -0.9,1.35 -1.5,3 -1.65,4.65 0,1.05 0,1.95 0.3,3 0.45,2.1 1.05,4.05 1.95,5.85 0.75,1.8 1.8,3.6 2.7,5.4 1.5,2.7 3.45,5.1 5.85,7.05 2.7,2.25 5.7,4.05 8.85,5.4 2.40004,1.05 4.95004,1.95 7.65004,2.55 2.25,0.45 4.65,0.9 7.05,1.05 2.4,0.15 4.8,0.15 7.2,0 3.9,-0.3 7.65,-1.2 11.25,-2.7 3.75,-1.5 7.35,-3.3 10.65,-5.4 l 0,0 c 1.95,-1.2 3.6,-2.4 4.95,-3.6 1.35,-1.2 2.7,-2.25 3.75,-3.15 l 0.6,-0.6 c 0.75,-0.75 1.5,-1.5 2.25,-2.4 1.05,-1.2 1.95,-2.55 2.7,-3.9 0.9,-1.8 1.65,-3.75 2.25,-5.85 0.6,-2.25 0.75,-4.65 0.6,-7.05 -0.15,-2.1 -0.75,-4.05 -1.65,-5.85 -1.05,-1.8 -2.55,-3.3 -4.5,-4.2 -4.5,-2.25 -8.7,-4.65 -12.6,-7.05 l 0,0 -4.5,-2.7 c -1.5,-0.9 -2.85,-1.65 -4.2,-2.4 -1.05,-0.6 -2.1,-1.05 -3.15,-1.5 -0.9,-0.3 -1.8,-0.6 -2.7,-0.9 -0.6,-0.15 -1.35,-0.3 -2.25,-0.45 -1.65,-0.3 -3.15,-0.45 -4.8,-0.45 -1.8,0 -3.75,0.15 -5.55,0.3 -2.1,0.15 -4.05,0.75 -6,1.8 -1.95,1.05 -3.9,2.4 -5.55,4.05 -2.55004,2.25 -4.95004,4.65 -7.20004,6.75 -3.15,2.85 -5.85,5.4 -7.95,7.2 -2.1,1.8 -3.75,2.4 -3.9,2.4 l 0,0 z"
     id="path225"
     inkscape:connector-curvature="0" /><path
     class="st23"
     d="m 993.03926,406.4801 c -1.5,-0.75 -2.85,-4.35 -2.85,-2.55 0,1.8 0.6,4.8 1.8,6 1.2,1.2 7.8,2.1 7.8,0.45 0,-1.65 -5.25,-3 -6.75,-3.9 l 0,0 z"
     id="path227"
     inkscape:connector-curvature="0"
     style="fill:#6e4a25" /><path
     d="m 996.33926,397.4801 c -3.45,0 -5.85,1.65 -5.85,5.1 0,3.45 2.4,7.05 5.85,7.35 3.15,0.3 5.85004,-1.8 6.30004,-4.95 0,-0.45 0,-0.9 0,-1.35 -0.15,-3.3 -2.85004,-6 -6.30004,-6.15 l 0,0 z"
     id="path229"
     inkscape:connector-curvature="0" /><path
     d="m 1038.1893,397.7801 c -3.15,-0.3 -5.85,2.1 -6.15,5.25 0,0.15 0,0.3 0,0.45 0,3.45 1.5,6.75 4.95,7.05 3.15,0.3 5.85,-1.8 6.3,-4.95 0,-0.45 0,-0.9 0,-1.35 -0.3,-3.3 -1.65,-6.45 -5.1,-6.45 z"
     id="path231"
     inkscape:connector-curvature="0" /><path
     class="st22"
     d="m 956.58926,403.4801 c 0,0 -8.25,-2.85 -9.3,-4.05 -1.05,-1.2 -9.9,-10.65 -10.05,-15.75 -0.15,-5.1 0.3,-11.85 4.65,-16.05 4.35,-4.2 11.7,-8.4 14.7,-8.85 3,-0.45 10.65,2.85 12,4.35 1.35,1.5 11.4,11.1 12,12 0.6,0.9 -24,28.35 -24,28.35 l 0,0 z"
     id="path233"
     inkscape:connector-curvature="0"
     style="fill:#a06121" /><path
     class="st23"
     d="m 956.73926,358.9301 0,0 c -3.15,0.45 -10.35,4.65 -14.85,8.85 -4.5,4.2 -4.65,10.95 -4.65,16.05 0,5.1 8.85,14.4 10.05,15.75 1.2,1.35 9.3,4.05 9.3,4.05 l 2.7,-3.15 c -0.75,-0.3 -0.9,-0.3 -1.8,-0.6 -0.9,-0.3 -2.25,-0.9 -3.15,-1.35 -0.75,-0.3 -1.35,-0.6 -1.95,-1.2 -0.3,-0.3 -1.05,-1.2 -1.95,-2.25 -0.9,-1.05 -2.25,-2.55 -3.3,-4.2 -0.6,-0.75 -1.2,-1.65 -1.65,-2.4 -0.45,-0.75 -1.05,-1.65 -1.5,-2.4 -0.45,-0.75 -0.75,-1.5 -1.05,-2.25 -0.15,-0.6 -0.3,-1.35 -0.3,-2.1 0,-1.2 0,-2.7 0,-4.05 0.15,-1.5 0.3,-2.85 0.6,-4.35 0.15,-0.75 0.3,-1.35 0.6,-2.1 0.3,-0.75 0.45,-1.35 0.75,-1.95 0.3,-0.6 0.75,-1.35 1.2,-1.95 0.45,-0.6 0.9,-1.2 1.5,-1.65 1.2,-1.05 2.4,-2.1 3.75,-3 1.35,-1.05 2.7,-1.95 4.2,-2.7 0.45,-0.6 0.9,-0.75 1.5,-1.05 l 0,0 z"
     id="path235"
     inkscape:connector-curvature="0"
     style="fill:#6e4a25" /><path
     d="m 981.63926,376.3301 0,0 0,0 -0.15,-0.15 -0.45,-0.6 c -0.45,-0.75 -1.05,-1.35 -1.5,-1.95 l 0,0 c -1.8,-2.4 -3.6,-4.35 -5.1,-6 -1.35,-1.5 -2.55,-2.7 -3.75,-3.75 -1.2,-1.05 -2.25,-1.95 -3.3,-2.7 -1.2,-0.9 -2.55,-1.8 -4.05,-2.55 -1.35,-0.75 -2.85,-1.2 -4.35,-1.5 -0.45,0 -0.75,-0.15 -1.2,-0.15 -0.75,0 -1.35,0 -2.1,0.15 -0.9,0.15 -1.65,0.45 -2.55,0.75 -1.05,0.45 -1.95,0.9 -2.85,1.5 -0.9,0.6 -1.8,1.2 -2.7,1.95 -0.9,0.75 -1.8,1.65 -2.7,2.55 -0.9,0.9 -1.65,1.65 -2.25,2.55 -1.05,1.2 -1.95,2.55 -2.7,3.75 -0.3,0.45 -0.75,1.2 -1.5,2.25 -0.45,0.75 -0.9,1.5 -1.2,2.4 -0.3,0.9 -0.6,1.95 -0.75,3 l 0,0 c -0.15,1.05 -0.15,1.95 -0.15,3 0,1.05 0,1.95 0.15,3 l 0,0 c 0.15,1.95 0.6,3.75 1.2,5.7 0.3,0.9 0.45,1.65 0.75,2.4 0.15,0.6 0.45,1.05 0.75,1.65 l 0,0 c 0.45,0.75 0.9,1.5 1.5,2.1 0.75,0.75 1.5,1.5 2.4,2.1 l 0,0 c 1.65,1.2 3.3,2.1 5.1,3 1.65,0.75 3.3,1.5 4.95,2.1 0.75,0.3 1.5,0.6 2.25,0.75 0.3,0.15 0.75,0.15 1.05,0.15 0.15,0 0.15,-0.15 -0.15,-0.3 -0.3,-0.15 -0.6,-0.3 -1.05,-0.6 l -1.8,-1.05 c -1.2,-0.75 -2.85,-1.65 -4.5,-2.85 -1.5,-1.05 -3,-2.1 -4.35,-3.45 -0.6,-0.6 -1.2,-1.2 -1.65,-1.8 -0.45,-0.6 -0.75,-1.05 -1.05,-1.8 -0.45,-1.05 -0.9,-1.95 -1.2,-2.85 l -0.3,-0.75 c -0.75,-1.65 -1.2,-3.3 -1.65,-5.1 -0.45,-1.8 -0.75,-3.75 -0.75,-5.55 l 0,0 c 0,-0.9 0.15,-1.8 0.3,-2.7 0.15,-0.75 0.45,-1.65 0.9,-2.25 0.75,-1.2 1.5,-2.4 2.4,-3.45 0.9,-0.9 1.8,-1.95 2.7,-2.7 1.5,-1.35 3,-2.55 4.65,-3.75 1.65,-1.05 3.45,-2.1 5.25,-2.7 0.75,-0.3 1.5,-0.45 2.25,-0.6 0.75,-0.15 1.35,-0.15 2.1,0 l 0,0 c 1.2,0.15 2.4,0.6 3.6,1.05 0.9,0.45 1.8,0.75 2.4,1.2 0.6,0.45 0.9,0.45 1.5,0.75 1.2,0.75 2.4,1.5 3.6,2.4 1.35,0.9 2.7,2.1 3.9,3.15 1.95,1.8 3.9,3.6 5.7,5.55 0.75,0.75 1.2,1.35 1.65,1.8 l 0.45,0.45 0,0 0.3,0.45 0,0 0,0 0,0 z"
     id="path237"
     inkscape:connector-curvature="0" /><path
     d="m 1047.6393,377.3801 0,0 0,0 0,0 0.45,-0.6 1.2,-1.65 c 1.35,-1.95 2.7,-3.6 3.75,-5.1 1.65,-2.1 3,-3.9 4.35,-5.4 0.6,-0.75 1.2,-1.35 1.8,-1.95 0.3,-0.3 0.75,-0.75 1.2,-0.9 0.75,-0.45 1.65,-0.75 2.55,-1.05 0.75,-0.15 1.5,-0.3 2.25,-0.3 0.6,0 1.2,0 1.65,0 0.45,0 1.05,0.15 1.5,0.15 0.45,0 0.9,0.15 1.5,0.3 1.35,0.3 2.7,0.75 4.05,1.2 1.5,0.6 3,1.5 4.35,2.4 1.65,1.2 3.15,2.1 4.5,2.85 0.75,0.45 1.5,1.05 2.1,1.65 0.45,0.45 0.9,0.75 1.2,1.2 l 0.15,0.3 c 0.45,0.6 0.75,1.2 1.05,1.95 0.3,0.9 0.45,1.95 0.6,3 l 0,0 c 0,1.35 0,2.7 -0.3,4.05 -0.3,1.35 -0.6,2.85 -1.05,4.2 l 0,0 c -0.3,0.9 -0.6,1.65 -1.2,2.4 -0.45,0.75 -1.05,1.5 -1.5,2.1 -0.75,0.9 -1.2,1.65 -1.5,2.1 -0.9,1.2 -1.95,2.25 -3,3.3 -0.9,0.9 -1.8,1.65 -2.7,2.4 -1.05,0.75 -2.1,1.5 -3.15,2.1 -0.75,0.45 -1.65,0.9 -2.55,1.2 -0.75,0.3 -1.5,0.45 -2.25,0.6 -0.6,0 -0.9,0.15 -0.9,0.15 0,0 0.3,0.3 0.75,0.3 0.75,0.15 1.65,0.15 2.4,0 1.2,-0.15 2.4,-0.45 3.45,-0.75 l 0,0 c 1.2,-0.45 2.4,-0.9 3.45,-1.65 1.2,-0.6 2.25,-1.5 3.45,-2.25 l 0,0 c 1.05,-0.9 2.1,-1.8 3,-2.7 0.9,-0.9 1.5,-1.8 2.25,-2.85 l 0.3,-0.45 c 1.05,-1.65 1.65,-3.3 2.1,-5.25 l 0,0 c 0.3,-1.5 0.45,-3 0.6,-4.5 0.15,-1.5 0,-2.85 -0.15,-4.35 -0.15,-1.05 -0.45,-2.1 -0.9,-3 -0.3,-0.9 -0.75,-1.65 -1.35,-2.4 -0.45,-0.45 -0.75,-1.05 -1.2,-1.5 -0.3,-0.3 -0.45,-0.6 -0.9,-0.9 -0.45,-0.3 -0.9,-0.75 -1.35,-1.2 -0.45,-0.45 -1.2,-1.05 -1.95,-1.5 -0.75,-0.45 -1.5,-1.2 -2.25,-1.8 l 0,0 c -1.2,-1.05 -2.7,-2.1 -4.2,-2.85 -1.5,-0.9 -3.15,-1.5 -4.8,-1.95 l 0,0 c -0.9,-0.3 -1.95,-0.45 -2.85,-0.45 -0.9,-0.15 -1.8,-0.15 -2.7,0 -0.9,0.15 -1.8,0.3 -2.7,0.6 -0.6,0.15 -1.35,0.45 -1.95,0.9 -0.3,0.15 -0.75,0.45 -1.05,0.75 -0.6,0.45 -1.05,0.9 -1.35,1.5 l 0,0 c -0.6,0.75 -1.05,1.5 -1.65,2.25 l 0,0 c -1.2,1.8 -2.55,3.9 -3.75,5.85 -1.2,1.95 -2.4,4.05 -3.3,5.55 l -1.05,1.8 -0.45,0.15 0,0 0.15,0.15 0,0 0,0 -0.15,-0.15 z"
     id="path239"
     inkscape:connector-curvature="0" /><path
     class="st26"
     d="m 975.93926,383.3801 c 0,0 -5.85,5.25 -7.2,7.35 -1.65,2.25 -3.6,4.35 -5.85,6 -0.9,-0.15 -1.8,-0.3 -2.7,-0.6 -1.8,-1.95 -3.45,-4.05 -4.8,-6.3 -1.2,-2.4 -4.05,-4.65 -2.85,-7.5 1.2,-2.85 2.55,-7.65 5.55,-7.8 3,-0.3 6,-0.15 9,0.3 1.5,0.45 3,1.2 4.5,2.1 0.9,0.75 5.7,5.25 4.35,6.45 l 0,0 z"
     id="path241"
     inkscape:connector-curvature="0"
     style="fill:#834317" /><path
     class="st27"
     d="m 957.93926,374.6801 c -2.7,0.75 -3.9,4.95 -4.95,7.65 -1.05,2.7 1.65,4.95 2.85,7.5 1.35,2.25 3,4.5 4.8,6.3 0.9,0.3 1.8,0.45 2.7,0.6 0.6,-0.3 1.2,-0.75 1.65,-1.35 -0.45,0 -0.9,-0.15 -1.35,-0.15 -0.6,-0.15 -1.2,-0.3 -1.2,-0.3 0,0 -0.9,-0.9 -1.95,-2.25 -0.45,-0.6 -1.05,-1.35 -1.65,-2.1 -0.45,-0.6 -0.9,-1.35 -1.2,-2.1 -0.3,-0.6 -0.75,-1.2 -1.05,-1.8 -0.45,-0.6 -0.9,-1.2 -1.2,-1.8 -0.15,-0.3 -0.3,-0.6 -0.45,-0.9 -0.15,-0.3 -0.15,-0.6 -0.3,-0.9 0,-0.3 0,-0.6 0,-0.9 0,-0.3 0.15,-0.75 0.3,-1.05 0.3,-0.75 0.6,-1.5 0.9,-2.4 0.3,-0.9 0.75,-1.65 1.2,-2.55 0.15,-0.45 0.45,-0.75 0.75,-1.05 -0.15,-0.15 0,-0.3 0.15,-0.45 l 0,0 z"
     id="path243"
     inkscape:connector-curvature="0"
     style="fill:#5d381e" /><path
     d="m 976.08926,383.2301 c -1.05,0.6 -1.95,1.2 -2.85,1.8 -0.9,0.6 -1.65,1.2 -2.25,1.8 -0.6,0.6 -1.65,1.35 -2.25,2.1 -0.6,0.6 -1.2,1.2 -1.65,1.95 -0.45,0.6 -0.9,1.2 -1.5,1.8 -0.45,0.45 -0.9,0.9 -1.35,1.2 -0.45,0.45 -1.05,0.75 -1.65,1.05 -0.45,0.15 -0.75,0.3 -0.9,0.3 l 0.45,0 -0.3,-0.15 0,0 c -0.45,-0.3 -0.9,-0.6 -1.2,-1.05 -0.6,-0.45 -1.2,-1.05 -1.8,-1.65 -0.6,-0.6 -1.2,-1.35 -1.8,-1.95 -0.6,-0.6 -1.35,-1.65 -1.95,-2.55 -0.45,-0.6 -0.9,-1.35 -1.2,-2.1 -0.15,-0.3 -0.3,-0.6 -0.3,-0.75 -0.15,-0.45 -0.3,-1.05 -0.3,-1.5 0,-0.6 0,-1.2 0.15,-1.65 l 0,0 c 0.45,-1.05 1.05,-1.95 1.8,-2.7 0.75,-0.75 1.65,-1.5 2.7,-1.95 0.75,-0.45 1.5,-0.75 2.25,-1.05 l 1.5,-0.45 c 0.6,-0.15 1.05,-0.3 1.65,-0.45 0.45,0 0.75,0 1.2,0 0.45,0 1.05,0.15 1.5,0.15 l 0,0 c 1.05,0.3 2.1,0.6 3.15,1.05 0.9,0.45 1.8,0.75 2.55,1.2 l 0.45,0.15 0.3,0.15 0.3,0 0,0 0.45,-0.6 0,0 0.15,-0.15 0,0 -0.15,0.15 -0.3,0.6 c 0,0 0,0 0,0 0,-0.15 -0.15,-0.15 -0.15,-0.3 -0.15,-0.3 -0.45,-0.45 -0.6,-0.75 l 0,0 c -0.75,-0.75 -1.5,-1.35 -2.25,-1.95 -1.05,-0.75 -2.1,-1.35 -3.15,-1.8 -1.2,-0.6 -2.4,-0.75 -3.6,-0.75 -0.9,0 -1.65,0.15 -2.55,0.3 -0.75,0.15 -1.35,0.45 -1.95,0.75 -0.75,0.45 -1.5,0.9 -2.25,1.5 -1.05,0.9 -1.95,1.8 -2.7,3 -0.75,1.05 -1.2,2.25 -1.5,3.45 -0.15,0.75 -0.15,1.5 0,2.25 0.15,0.9 0.45,1.65 0.75,2.4 l 0.15,0.3 c 0.3,0.75 0.45,1.35 0.75,2.1 0.45,1.05 1.05,2.1 1.65,3 0.9,1.65 2.1,3.15 3.3,4.5 0.45,0.45 0.9,1.05 1.5,1.35 0.3,0.15 0.45,0.3 0.75,0.45 l 0,0 c 0.3,0.15 0.75,0.15 1.05,0.15 0.75,-0.15 1.35,-0.45 1.95,-0.75 0.75,-0.45 1.35,-0.9 1.8,-1.5 0.3,-0.3 0.6,-0.6 0.75,-0.9 0.75,-0.9 1.35,-1.95 1.8,-3 0.3,-0.75 0.75,-1.35 1.2,-1.95 0.6,-0.75 1.2,-1.65 1.8,-2.4 0.6,-0.75 1.05,-1.2 1.65,-1.8 0.6,-0.6 1.05,-1.05 1.5,-1.35 0.45,-0.3 0.9,-0.75 1.5,-1.05 l 0,0 z"
     id="path245"
     inkscape:connector-curvature="0" /><path
     class="st26"
     d="m 1051.3893,382.4801 c 0,0 6,2.55 7.35,4.65 1.35,2.1 5.7,7.5 6.15,7.65 0.9,-0.15 1.8,-0.3 2.7,-0.6 1.8,-1.95 3.45,-4.05 4.8,-6.3 1.2,-2.4 2.7,-5.25 1.35,-8.1 -1.35,-2.85 -2.4,-6.75 -4.2,-7.2 -3,-0.6 -6,-0.45 -9,0.3 -1.5,0.45 -3,1.2 -4.5,2.1 -0.6,0.75 -6,7.05 -4.65,7.5 l 0,0 z"
     id="path247"
     inkscape:connector-curvature="0"
     style="fill:#834317" /><path
     d="m 1050.6393,382.3301 0,0 0.15,0 0.75,0.3 c 0.75,0.3 1.5,0.75 2.25,1.2 1.2,0.75 2.25,1.5 3.15,2.55 0.75,0.75 1.2,1.65 1.65,2.55 0.6,1.2 1.2,2.25 2.1,3.3 0.6,0.75 1.35,1.35 2.1,1.95 0.6,0.45 1.2,0.75 1.8,1.05 0.3,0.15 0.6,0.15 0.9,0.3 0.45,0.15 1.05,0.15 1.5,0 0.6,-0.15 1.05,-0.45 1.5,-0.9 0.15,-0.15 0.3,-0.45 0.6,-0.6 l 1.05,-1.05 c 0.9,-1.05 1.65,-2.1 2.4,-3.15 0.45,-0.75 0.9,-1.5 1.2,-2.25 0.3,-0.6 0.45,-1.35 0.6,-1.95 0.15,-0.3 0.15,-0.75 0.15,-1.05 0,-0.3 0.15,-0.9 0.3,-1.65 0.15,-0.9 0.15,-1.65 0,-2.55 -0.15,-1.2 -0.45,-2.4 -1.05,-3.45 -0.6,-1.05 -1.35,-2.1 -2.1,-2.85 -0.75,-0.75 -1.5,-1.35 -2.4,-1.95 -0.6,-0.3 -1.2,-0.6 -1.95,-0.75 -1.65,-0.45 -3.45,-0.45 -5.1,0.15 -0.9,0.3 -1.65,0.6 -2.55,1.05 l 0,0 c -0.9,0.45 -1.65,0.9 -2.25,1.5 -0.6,0.6 -1.2,1.2 -1.8,1.95 -0.15,0.15 -0.3,0.3 -0.3,0.6 0,0.15 0,0.15 0,0.15 0.3,-0.15 0.6,-0.3 0.9,-0.6 0.6,-0.45 1.2,-0.75 1.8,-1.05 0.75,-0.45 1.65,-0.75 2.55,-0.9 0.75,-0.15 1.35,-0.3 2.1,-0.3 0.6,-0.15 1.35,-0.15 1.95,0 1.05,0.15 2.25,0.6 3.15,1.2 0.6,0.3 1.35,0.6 1.95,1.05 0.9,0.6 1.65,1.35 2.25,2.1 0.6,0.75 1.05,1.65 1.35,2.55 0.3,0.9 0.3,1.8 0.3,2.7 0,0.75 -0.15,1.35 -0.45,1.95 l 0,0 c -0.15,0.45 -0.45,1.05 -0.75,1.5 -0.45,0.75 -0.9,1.35 -1.5,2.1 l 0,0 c -0.75,0.9 -1.65,1.8 -2.55,2.55 l 0,0 -1.05,0.9 c -0.3,0.3 -0.6,0.45 -0.75,0.75 l 0,0 c -0.15,0 -0.3,0 -0.3,0 -0.6,-0.15 -1.2,-0.45 -1.65,-0.75 -0.75,-0.6 -1.65,-1.2 -2.25,-1.95 -0.6,-0.6 -1.2,-1.2 -1.8,-1.8 -0.75,-1.05 -1.8,-2.1 -2.85,-2.85 -1.05,-0.75 -2.25,-1.35 -3.45,-1.8 -0.75,-0.3 -1.65,-0.6 -2.55,-0.75 l -1.05,-1.05 0,0 0,0 0,0 0,0 z"
     id="path249"
     inkscape:connector-curvature="0" /><path
     d="m 978.78926,373.4801 c 2.4,-2.4 5.1,-4.65 8.1,-6.45 3.3,-2.1 6.9,-3.6 10.65,-4.65 1.2,-0.3 2.25,-0.6 3.00004,-0.75 0.75,-0.15 1.95,-0.6 3.3,-0.9 1.35,-0.3 3,-0.75 4.5,-1.05 1.5,-0.3 3.3,-0.45 4.8,-0.6 1.5,-0.15 2.85,-0.15 3.9,-0.15 l 1.35,0 c 1.35,0.15 2.55,0.3 3.9,0.6 1.8,0.3 3.75,0.75 5.85,1.5 1.65,0.45 3.15,1.05 4.5,1.5 1.35,0.45 2.55,1.05 3.3,1.5 l 1.05,0.45 c 0.9,0.3 1.65,0.75 2.55,1.2 1.05,0.6 2.1,1.35 3.15,2.1 1.2,0.9 2.25,1.8 3.3,2.85 1.05,1.05 2.1,1.95 3,3 0.6,0.6 0.75,0.75 0.75,0.45 -0.15,-0.6 -0.45,-1.05 -0.75,-1.65 -1.35,-2.4 -3,-4.5 -4.8,-6.45 -1.05,-1.05 -2.1,-2.1 -3.3,-2.85 -1.05,-0.75 -2.25,-1.5 -3.45,-2.1 -0.45,-0.15 -1.05,-0.45 -1.5,-0.6 -2.4,-0.75 -4.8,-1.2 -7.2,-1.5 -2.4,-0.3 -4.65,-0.45 -6.6,-0.6 -1.95,-0.15 -3.6,-0.3 -4.8,-0.45 l -0.15,0 c -0.9,-0.15 -2.55,-0.3 -4.5,-0.3 -2.4,0 -4.65,0 -7.05,0.3 -2.4,0.3 -4.8,0.75 -7.20004,1.5 -1.8,0.45 -3.45,1.2 -5.1,1.95 -1.5,0.9 -3,1.8 -4.35,2.7 -1.8,1.2 -3.45,2.55 -4.95,4.05 -1.35,1.2 -2.55,2.55 -3.75,3.9 -0.9,1.05 -1.5,1.8 -1.5,1.8 l 0,-0.3 z"
     id="path251"
     inkscape:connector-curvature="0" /><path
     d="m 954.48926,403.4801 c -0.15,1.65 -0.3,3.3 -0.75,4.8 l 0,0 c -0.45,1.8 -0.75,3.6 -1.05,5.1 -0.3,1.65 -0.3,3.45 -0.3,5.25 0,1.5 0.15,2.85 0.15,3.9 0,1.05 0.3,2.1 0.45,2.85 0.15,0.75 0.3,1.5 0.45,2.25 l 0.15,0.45 c 0.3,1.2 0.9,3 1.65,5.25 0.75,2.25 1.8,4.5 2.7,6.45 0.45,1.05 1.05,2.1 1.5,2.85 0.45,0.75 0.9,1.5 1.2,1.8 0.3,0.3 1.05,1.8 2.1,3.45 0.75,1.2 1.65,2.25 2.55,3.3 1.05,1.05 2.1,2.1 3.3,3.15 1.2,1.05 2.4,1.8 3.3,2.55 0.75,0.45 1.5,1.05 2.25,1.35 l 3.3,1.65 c 1.2,0.6 2.55,1.2 3.9,1.65 1.35,0.45 2.85,0.75 4.35,1.05 l 2.85,0.3 c 0.6,0.15 0.9,0 0.9,0 l 0,0 c -1.05,-0.75 -2.25,-1.2 -3.45,-1.5 -1.05,-0.45 -2.25,-1.05 -3.6,-1.65 -1.2,-0.6 -2.4,-1.35 -3.6,-2.25 -1.05,-0.75 -1.95,-1.35 -2.85,-1.95 -0.9,-0.6 -1.8,-1.05 -2.55,-1.5 -1.2,-0.6 -2.4,-1.2 -3.45,-1.95 -1.2,-0.75 -2.4,-1.5 -3.45,-2.4 -1.05,-0.75 -1.95,-1.8 -2.85,-2.7 -1.2,-1.35 -2.1,-2.7 -2.85,-4.35 -0.3,-0.75 -0.75,-1.95 -1.35,-3.6 -0.6,-1.65 -1.2,-3.75 -1.8,-5.85 -0.6,-2.1 -1.05,-4.35 -1.65,-6.45 -0.3,-1.2 -0.6,-2.25 -0.75,-3.3 -0.15,-1.05 -0.3,-1.8 -0.45,-2.4 -0.15,-0.6 -0.45,-1.95 -0.6,-3.3 -0.15,-1.5 -0.3,-2.85 -0.3,-4.35 0,-1.8 0.15,-3.6 0.3,-5.1 0.15,-1.5 0.15,-2.7 0.15,-3.6 0,-0.9 0.15,-1.05 0.15,-1.2 l 0,0 z"
     id="path253"
     inkscape:connector-curvature="0" /><path
     d="m 1068.3393,400.7801 c 0.6,1.2 1.2,2.4 1.65,3.45 0.45,1.05 0.9,1.95 1.2,2.85 0.3,0.75 0.45,1.65 0.6,2.4 0.15,1.2 0.3,2.1 0.3,3 0,0.9 0,1.65 0.15,2.4 0,1.95 0,3.3 0,4.5 0,0.6 0,1.5 0.15,2.55 0.15,1.05 0.15,2.25 0.3,3.3 0.15,1.05 0.15,2.4 0.15,3.6 0,1.2 0,1.95 0,2.85 0,0.6 -0.15,1.2 -0.15,1.8 0,0.3 -0.15,0.45 -0.15,0.6 -0.3,0.9 -0.75,1.95 -1.2,2.85 -0.6,1.2 -1.2,2.4 -1.95,3.45 -0.6,0.9 -1.2,1.65 -1.95,2.4 -0.6,0.75 -1.2,1.35 -1.8,1.8 -0.6,0.45 -0.75,0.6 -0.9,0.9 -0.45,0.45 -0.9,0.9 -1.35,1.35 -0.6,0.6 -1.35,1.05 -2.1,1.65 -0.75,0.6 -1.95,1.35 -3,1.95 -1.05,0.6 -2.1,1.2 -3,1.65 -0.9,0.45 -0.45,0.6 1.05,0.45 2.1,-0.45 4.2,-1.05 6.3,-1.95 1.05,-0.45 2.1,-1.05 3,-1.65 0.9,-0.6 1.65,-1.2 2.4,-2.1 0.15,-0.15 0.3,-0.45 0.6,-0.75 1.05,-1.5 1.95,-3.15 2.7,-4.8 l 0,0 c 0.9,-2.25 1.65,-4.65 2.4,-7.05 0.15,-0.75 0.3,-1.35 0.45,-1.8 0.15,-0.45 0.3,-0.75 0.3,-1.5 0,-0.75 0.3,-1.35 0.45,-2.25 0.15,-0.9 0.3,-2.25 0.45,-3.45 0.15,-1.2 0.15,-2.4 0.3,-3.75 0.15,-2.4 0,-4.8 -0.3,-7.2 0,-0.3 0,-0.45 -0.15,-0.75 -0.3,-1.2 -0.75,-3 -1.35,-4.8 -0.3,-0.9 -0.75,-1.8 -1.2,-2.55 -0.6,-1.05 -1.05,-1.95 -1.65,-2.7 l -2.7,-2.7 0,0 z"
     id="path255"
     inkscape:connector-curvature="0" /><path
     class="st28"
     d="m 1018.6893,439.1801 c 0.6,5.25 1.05,10.5 1.05,15.75"
     id="path257"
     inkscape:connector-curvature="0"
     style="fill:none;stroke:#000000;stroke-width:7.5" /><path
     class="st29"
     d="m 1040.4393,400.4801 c -0.75,0 -1.2,1.65 -1.2,2.4 -0.3,0.75 0.15,1.65 0.9,1.95 0.75,0.3 1.65,-0.15 1.95,-0.9 0.15,-0.3 0.15,-0.6 0,-0.9 0,-0.9 -0.9,-2.55 -1.65,-2.55 z"
     id="path259"
     inkscape:connector-curvature="0"
     style="fill:#ddcebe" /><path
     class="st29"
     d="m 998.58926,400.9301 c -0.75,0 -1.2,1.5 -1.2,2.4 -0.3,0.75 0.15,1.65 1.05,1.95 0.75,0.3 1.65004,-0.15 1.95004,-1.05 0.15,-0.3 0.15,-0.6 0,-0.9 0,-0.75 -0.90004,-2.4 -1.80004,-2.4 z"
     id="path261"
     inkscape:connector-curvature="0"
     style="fill:#ddcebe" /><path
     d="m 1018.5393,423.1301 c -5.4,0 -12.6,4.95 -9.9,9 1.95,3 5.7,8.7 9.9,9 4.2,0.3 7.05,-5.7 9.9,-9 3.15,-3.75 -4.35,-9 -9.9,-9 z"
     id="path263"
     inkscape:connector-curvature="0" /><path
     class="st29"
     d="m 1023.0393,425.2301 c -1.2,0 -2.4,0 -2.4,1.2 0,1.2 1.2,1.05 2.4,1.05 1.2,0 4.05,2.25 4.05,1.05 0,-1.2 -2.85,-3.3 -4.05,-3.3 l 0,0 z"
     id="path265"
     inkscape:connector-curvature="0"
     style="fill:#ddcebe" /><path
     d="m 943.53926,371.9801 0,0 0,0 -0.15,0 -0.15,0 0,0 c -0.15,0 -0.3,0 -0.3,0 -0.3,0 -0.45,-0.15 -0.75,-0.3 -0.6,-0.3 -1.05,-0.75 -1.5,-1.2 l -0.45,-0.6 c -0.3,-0.3 -0.45,-0.6 -0.75,-0.9 -0.3,-0.3 -0.45,-0.75 -0.75,-1.05 -0.15,-0.15 -0.15,-0.3 -0.3,-0.6 -0.15,-0.15 -0.15,-0.3 -0.15,-0.6 0,-0.15 0.15,-0.45 0.15,-0.6 0.15,-0.15 0.45,-0.3 0.6,-0.45 0.3,-0.15 0.75,-0.15 1.05,0 0.45,0 0.9,0.15 1.2,0.45 l 0,0 c 0.6,0.3 1.05,0.75 1.5,1.2 0.3,0.3 0.45,0.6 0.6,0.9 0.45,0.6 0.6,1.5 0.75,2.25 0,0.3 0,0.6 -0.15,0.9 0,0.15 -0.15,0.15 -0.15,0.3 l 0,0 -0.15,0.15 0,0 -0.15,0.15 0,0 z"
     id="path267"
     inkscape:connector-curvature="0" /><path
     d="m 941.28926,375.7301 c -0.15,0.45 -0.75,0.6 -1.5,0.75 -0.9,0 -1.8,-0.15 -2.55,-0.3 l 0,0 -0.75,-0.15 c -0.9,-0.15 -1.65,-0.3 -2.4,-0.75 -0.3,-0.15 -0.45,-0.15 -0.75,-0.45 -0.15,-0.15 -0.3,-0.3 -0.45,-0.45 -0.15,-0.15 -0.3,-0.3 -0.3,-0.45 -0.15,-0.15 -0.15,-0.3 -0.15,-0.45 0,-0.15 0,-0.3 0.15,-0.45 0.15,-0.15 0.3,-0.3 0.45,-0.45 0.3,-0.15 0.45,-0.3 0.75,-0.3 0.3,-0.15 0.6,-0.15 0.9,-0.15 1.05,-0.15 1.95,0 3,0.15 l 0.75,0.15 0,0 c 0.9,0.45 1.8,0.9 2.4,1.65 0.45,0.75 0.6,1.35 0.45,1.65 l 0,0 z"
     id="path269"
     inkscape:connector-curvature="0" /><path
     d="m 1066.5393,362.0801 c -0.6,-0.15 -0.9,-0.45 -1.2,-1.05 -0.3,-0.6 -0.45,-1.35 -0.45,-2.1 l 0,0 c 0,-0.15 0,-0.15 0,-0.3 0,-0.75 0,-1.35 0.3,-2.1 0.15,-0.3 0.15,-0.6 0.3,-0.75 0.15,-0.15 0.3,-0.45 0.6,-0.45 0.3,-0.15 0.6,-0.15 0.75,0 0.3,0.15 0.6,0.3 0.75,0.6 0.3,0.3 0.45,0.75 0.75,1.2 0.15,0.45 0.3,1.05 0.3,1.5 0,0.15 0,0.3 0,0.45 l 0,0 c 0,0.9 -0.3,1.65 -0.75,2.4 -0.15,0.45 -0.75,0.75 -1.35,0.6 l 0,0 z"
     id="path271"
     inkscape:connector-curvature="0" /><path
     d="m 1071.6393,362.5301 c -0.45,-0.15 -0.6,-0.75 -0.6,-1.5 0,-0.9 0.3,-1.8 0.6,-2.7 0.15,-0.3 0.15,-0.45 0.3,-0.75 0.45,-1.05 0.9,-1.95 1.5,-2.85 0.15,-0.3 0.45,-0.6 0.75,-0.9 0.15,-0.15 0.45,-0.3 0.75,-0.3 0.3,0 0.6,0.15 0.75,0.45 0.15,0.3 0.3,0.75 0.45,1.2 0.15,0.6 0.15,1.2 0,1.65 -0.15,0.6 -0.3,1.35 -0.45,1.95 -0.15,0.3 -0.3,0.6 -0.3,0.75 l 0,0 c -0.45,0.9 -1.05,1.8 -1.8,2.4 -0.9,0.75 -1.5,0.9 -1.95,0.6 l 0,0 z"
     id="path273"
     inkscape:connector-curvature="0" /><path
     class="st24"
     d="m 999.63926,433.0301 c -0.75,0 -1.5,0.75 -1.5,1.5 0,0.75 0.6,1.05 1.35,1.05 0.75004,0 1.50004,-0.3 1.50004,-1.05 0.15,-0.75 -0.45,-1.35 -1.35004,-1.5 l 0,0 z"
     id="path275"
     inkscape:connector-curvature="0"
     style="fill:#956c45;stroke:#000000;stroke-width:4.5" /><path
     class="st24"
     d="m 994.68926,439.4801 c -1.2,0 -2.25,1.05 -2.25,2.25 0,1.35 0.9,1.65 2.1,1.65 1.2,0 2.25,-0.45 2.25,-1.65 0.15,-1.2 -0.9,-2.25 -2.1,-2.25 l 0,0 z"
     id="path277"
     inkscape:connector-curvature="0"
     style="fill:#956c45;stroke:#000000;stroke-width:4.5" /><path
     class="st24"
     d="m 1003.6893,440.9801 c -1.2,0 -1.8,0.6 -1.8,1.8 0,1.2 0.75,1.5 1.95,1.5 1.2,0 1.65,-0.6 1.65,-1.8 0,-1.2 -0.6,-1.5 -1.8,-1.5 l 0,0 z"
     id="path279"
     inkscape:connector-curvature="0"
     style="fill:#956c45;stroke:#000000;stroke-width:4.5" /><path
     class="st24"
     d="m 1035.7893,438.5801 c -0.75,0 -1.2,0.6 -1.2,1.35 0,0 0,0 0,0 0,0.75 0.3,0.9 0.9,0.9 0.6,0 1.2,-0.3 1.2,-0.9 0,-0.6 -0.3,-1.35 -0.9,-1.35 l 0,0 z"
     id="path281"
     inkscape:connector-curvature="0"
     style="fill:#956c45;stroke:#000000;stroke-width:4.5" /><path
     class="st24"
     d="m 1043.2893,434.6801 c -1.2,0 -1.8,1.05 -1.8,2.4 0,1.35 0.45,1.65 1.65,1.65 1.2,0 2.25,-0.45 2.25,-1.65 0.15,-1.35 -0.75,-2.4 -2.1,-2.4 l 0,0 z"
     id="path283"
     inkscape:connector-curvature="0"
     style="fill:#956c45;stroke:#000000;stroke-width:4.5" /><path
     class="st24"
     d="m 1041.0393,443.2301 c -0.9,0 -1.65,0.75 -1.65,1.65 0,0.9 0.6,1.5 1.5,1.5 0.75,0 1.35,-0.45 1.35,-1.2 0,-0.15 0,-0.15 0,-0.3 0,-0.9 -0.3,-1.8 -1.2,-1.65 l 0,0 z"
     id="path285"
     inkscape:connector-curvature="0"
     style="fill:#956c45;stroke:#000000;stroke-width:4.5" /><path
     d="m 988.98926,369.5801 0,0 -0.3,0 c -0.15,0 -0.3,0 -0.45,-0.15 -0.3,-0.15 -0.6,-0.3 -0.75,-0.6 -0.75,-0.6 -1.35,-1.35 -1.8,-2.25 -0.3,-0.3 -0.45,-0.75 -0.6,-1.05 -0.3,-0.6 -0.6,-1.2 -0.9,-1.8 l 0,0 c -0.3,-0.75 -0.6,-1.35 -0.75,-2.1 -0.15,-0.45 -0.15,-0.9 0.15,-1.35 0.3,-0.3 0.75,-0.3 1.35,0 0.75,0.45 1.5,0.9 2.1,1.65 l 0,0 c 0.45,0.6 0.9,1.2 1.35,1.95 0.3,0.45 0.45,0.9 0.6,1.35 0.45,0.9 0.6,1.95 0.75,3 0,0.3 0,0.75 -0.15,1.05 l 0,0 c 0,0.15 -0.15,0.3 -0.15,0.3 l -0.15,0.15 0,0 -0.3,-0.15 0,0 z"
     id="path287"
     inkscape:connector-curvature="0" /><path
     d="m 994.23926,366.4301 c -0.75,0.15 -1.65,-0.9 -2.25,-2.4 l 0,0 c -0.15,-0.3 -0.3,-0.75 -0.45,-1.05 -0.15,-0.45 -0.3,-0.9 -0.45,-1.35 -0.15,-0.45 -0.15,-0.75 -0.15,-1.2 0,-0.3 0,-0.6 0,-0.9 0,-0.3 0.15,-0.45 0.3,-0.75 0.15,-0.15 0.45,-0.3 0.75,-0.15 0.45,0 0.75,0.15 1.05,0.45 0.45,0.3 0.75,0.75 1.05,1.2 0.6,0.9 1.05,1.95 1.2,3.15 l 0,0 c 0.15,1.5 -0.3,2.85 -1.05,3 l 0,0 z"
     id="path289"
     inkscape:connector-curvature="0" /><path
     d="m 1013.2893,410.2301 c 0.6,0 1.2,-0.15 1.65,-0.15 0.75,0 1.5,0 1.95,-0.15 l 0.15,0 c 0.45,-0.15 0.9,-0.15 1.35,-0.15 0.45,0 1.05,0 1.5,0 0.15,0 0.3,0 0.15,-0.15 -0.3,-0.15 -0.45,-0.3 -0.75,-0.3 -0.45,-0.15 -0.9,-0.15 -1.2,-0.3 -0.45,0 -0.9,0 -1.2,0 l -0.3,0 -1.95,0.6 c -0.45,0.15 -1.05,0.3 -1.5,0.3 -0.3,0 -0.45,0.15 -0.45,0.15 0,0 0.15,0.3 0.6,0.15 l 0,0 z"
     id="path291"
     inkscape:connector-curvature="0" /><path
     d="m 1014.4893,406.3301 c 0.45,0 0.75,0 1.2,0 0.45,0 0.75,0.15 1.2,0.15 l 0,0 c 0.6,-0.15 1.2,-0.15 1.8,-0.15 0.3,0 0,-0.15 -0.45,-0.45 -0.45,-0.3 -1.05,-0.45 -1.5,-0.45 -0.15,0 -0.3,0 -0.45,0 l -1.35,0.3 c -0.3,0.15 -0.6,0.15 -1.05,0.15 -0.3,0 -0.3,0.15 -0.3,0.15 0,0 0.6,0.3 0.9,0.3 l 0,0 z"
     id="path293"
     inkscape:connector-curvature="0" /><path
     d="m 1017.0393,409.0301 c 0,-1.35 0,-4.5 0.15,-8.25 0,-3.15 0.15,-6.9 0.3,-10.2 0,-1.35 0.15,-2.55 0.15,-3.75 0,-0.45 0,-0.9 0.15,-1.2 0,-0.3 0,-0.45 0.15,-0.75 0.15,-0.6 0.15,-1.05 0.3,-1.65 l 0,0 c 0.15,-1.05 0.15,-1.95 0.15,-2.55 0,0 0,-0.15 0,-0.15 0,-1.5 0,-3.9 -0.15,-6.6 0,-2.1 -0.15,-4.5 -0.45,-6.9 -0.15,-0.9 -0.3,-1.8 -0.45,-2.7 -0.15,-0.6 -0.3,-1.35 -0.6,-1.95 -0.6,-1.05 -1.05,-2.25 -1.65,-3.15 -0.15,-0.3 -0.3,-0.45 -0.45,-0.75 -0.15,-0.15 -0.3,-0.45 -0.6,-0.6 -0.15,-0.15 -0.3,-0.15 -0.45,-0.3 l -0.3,0 0,0 c 0.3,0.15 0.45,0.3 0.6,0.45 0.15,0.15 0.3,0.3 0.45,0.45 0.15,0.3 0.3,0.45 0.45,0.75 0.3,0.45 0.45,0.9 0.75,1.5 0.3,0.6 0.45,1.2 0.75,1.8 0.3,0.6 0.45,1.2 0.45,1.8 0.15,0.9 0.3,1.8 0.3,2.7 0.15,2.25 0.3,4.5 0.3,6.75 0,2.25 0,4.65 -0.15,6.75 l 0,0 c 0,0.9 0,1.65 -0.15,2.55 0,0.45 0,0.9 -0.15,1.2 0,0.15 0,0.15 0,0.3 l 0,0 c 0,0.3 -0.15,0.6 -0.15,0.9 l 0,0 c 0,0.45 0,0.9 0,1.35 l 0,0 c 0,1.2 0,2.55 -0.15,3.75 0,3.45 0,7.05 0,10.2 0,3.9 0,7.35 0,9.75 0,0.15 0,0.45 0,0.6 0,1.05 0,1.95 0,2.55 0,0.45 0,0.75 0,0.9 0,0 0,0.15 0,0.15 l 0,0 0,0 0,0 c 0,0 0,-0.15 0,-0.15 0,-0.15 0,-0.45 0,-0.9 0,-0.75 0,-1.8 0,-3.15 0,-0.45 0,-0.9 0,-1.35 l 0.45,-0.15 z"
     id="path295"
     inkscape:connector-curvature="0" /><path
     class="st30"
     d="m 1018.6893,454.3301 c -2.1,0.15 -3.6,1.8 -3.6,3.75 0,2.1 1.8,2.25 3.75,2.25 1.95,0 3.45,0 3.45,-2.25 0,-1.95 -1.5,-3.6 -3.6,-3.75 z"
     id="path297"
     inkscape:connector-curvature="0"
     style="stroke:#000000;stroke-width:7.5" /><path
     class="st28"
     d="m 996.18926,398.5301 c 0,0 -4.2,0.45 -5.55,-2.25"
     id="path299"
     inkscape:connector-curvature="0"
     style="fill:none;stroke:#000000;stroke-width:7.5" /><path
     class="st28"
     d="m 1038.3393,398.8301 c 0,0 4.2,0.45 5.55,-2.25"
     id="path301"
     inkscape:connector-curvature="0"
     style="fill:none;stroke:#000000;stroke-width:7.5" /><path
     d="m 968.58926,533.3801 c 0.6,-0.75 1.8,-0.6 3,0 l 0.45,0.3 c 0.3,0.3 0.6,0.6 0.9,0.9 0.3,0.3 0.45,0.75 0.45,1.2 0.15,0.3 0.15,0.75 0,1.05 -0.15,0.3 -0.45,0.6 -0.9,0.75 -0.45,0.15 -1.05,0 -1.5,-0.15 -0.45,-0.15 -0.9,-0.45 -1.35,-0.75 -0.15,-0.15 -0.3,-0.3 -0.45,-0.45 -0.9,-0.9 -1.2,-2.1 -0.6,-2.85 l 0,0 z"
     id="path303"
     inkscape:connector-curvature="0" /><path
     d="m 971.58926,528.7301 c 0.45,-0.45 0.9,-0.6 1.5,-0.45 0.75,0.15 1.65,0.45 2.25,0.75 l 0.15,0 c 0.6,0.3 1.05,0.75 1.5,1.2 0.15,0.15 0.3,0.3 0.45,0.45 0.15,0.3 0.3,0.6 0.3,0.9 0,0.15 0,0.3 0,0.45 0,0.15 -0.15,0.3 -0.15,0.45 -0.15,0.15 -0.3,0.3 -0.45,0.3 -0.3,0.15 -0.45,0.15 -0.75,0.15 -0.3,0 -0.45,0 -0.75,0 -0.75,-0.15 -1.35,-0.45 -1.95,-0.75 l -0.15,0 c -0.75,-0.45 -1.35,-1.05 -1.8,-1.8 -0.45,-0.45 -0.45,-1.05 -0.15,-1.65 z"
     id="path305"
     inkscape:connector-curvature="0" /><path
     d="m 1019.7393,547.1801 c 0.15,-0.45 0.3,-1.2 0.45,-2.1 0.15,-1.05 0.45,-2.1 0.45,-3.15 0.15,-1.35 0.3,-2.85 0.45,-4.65 l 0,0 c 0.3,-3 0.45,-6.6 0.6,-10.05 l 0,0 c 0,-1.35 0,-2.55 0,-3.75 0,-1.8 -0.15,-3.45 -0.3,-5.1 -0.45,-5.1 -0.9,-9.3 -1.05,-11.25 l -0.15,-0.9 c -0.3,-2.7 -0.9,-6.6 -1.5,-11.1 l 0,0 c -0.15,-1.2 -0.3,-2.55 -0.6,-3.9 l 0,0 c 0,-0.45 -0.15,-0.9 -0.3,-1.2 -0.15,-0.3 -0.15,-0.45 -0.15,-0.75 l 0,-0.3 0,0 c 0,-0.3 0,-0.75 0,-1.05 0,-1.5 0,-3 0,-4.5 0,-2.25 -0.15,-4.5 -0.45,-6.6 0,-0.3 0,-0.6 -0.15,-0.9 0,-0.45 -0.15,-0.9 -0.15,-1.2 0,-0.3 0,-0.45 -0.15,-0.6 l 0,-0.15 0,0 c 0,0 0,0.15 0,0.15 0,0 0,0.3 0,0.6 0,0.45 0.15,1.2 0.15,1.95 0.15,2.25 0.3,4.35 0.15,6.6 0,1.35 0,2.85 0,4.5 0,0.3 0,0.75 0,1.05 0,0.15 0,0.15 0,0.3 l 0,0.15 c 0,0.3 0.15,0.45 0.15,0.75 0,0.3 0.15,0.75 0.15,1.2 0.15,1.2 0.3,2.55 0.45,3.9 0.45,3.75 0.9,7.65 1.2,11.1 0.3,2.4 0.45,4.65 0.75,6.45 0.3,1.8 0.45,3.75 0.6,5.7 0.15,1.95 0.3,3.45 0.45,5.1 l 0,0 c 0.15,1.35 0.15,2.55 0.15,3.75 0,3.45 -0.15,6.9 -0.3,10.05 l 0,0 c -0.15,1.65 -0.3,3.15 -0.45,4.65 -0.15,1.5 -0.3,3 -0.75,4.5 -0.3,1.2 -0.75,2.25 -1.2,3.45 l -0.45,0.9 c -2.4,4.65 -2.4,5.4 0.3,0.15 1.05,-1.35 1.35,-2.55 1.65,-3.75 l 0,0 z"
     id="path307"
     inkscape:connector-curvature="0" /><path
     d="m 1020.7893,490.4801 c -0.6,0 -1.2,0.15 -1.65,0.15 -0.75,0 -1.5,0 -1.95,0.15 l -0.3,0 c -0.45,0.15 -0.9,0.15 -1.35,0.15 -0.45,0 -1.05,0 -1.5,0 -0.15,0 -0.3,0 -0.15,0.15 0.3,0.15 0.45,0.3 0.75,0.3 0.45,0.15 0.9,0.15 1.2,0.3 0.45,0 0.9,0 1.2,0 l 0.3,0 1.95,-0.6 c 0.45,-0.15 1.05,-0.3 1.5,-0.3 0.3,0 0.45,-0.15 0.45,-0.15 0,0 0,-0.3 -0.45,-0.15 l 0,0 z"
     id="path309"
     inkscape:connector-curvature="0" /><path
     d="m 1019.5893,487.4801 c -0.45,0 -0.75,0 -1.2,0 -0.45,0 -0.75,-0.15 -1.2,-0.15 l 0,0 c -0.6,0.15 -1.2,0.15 -1.8,0.15 -0.3,0 0,0.15 0.45,0.45 0.45,0.3 1.05,0.45 1.5,0.45 0.15,0 0.3,0 0.45,0 l 1.35,-0.3 c 0.3,-0.15 0.6,-0.15 1.05,-0.15 0.3,0 0.3,-0.15 0.3,-0.15 0,0 -0.6,-0.3 -0.9,-0.3 l 0,0 z"
     id="path311"
     inkscape:connector-curvature="0" /><path
     class="st22"
     d="m 1071.6393,531.8801 c 16.95,0 31.2,12.45 31.2,28.95 -0.15,16.65 -13.8,30.15 -30.6,29.85 -12.6,0 -24.9,-3.45 -29.55,-14.1 -1.8,-5.25 -2.4,-10.95 -1.8,-16.5 2.25,-16.35 13.95,-28.05 30.75,-28.2 l 0,0 z"
     id="path313"
     inkscape:connector-curvature="0"
     style="fill:#a06121" /><path
     class="st26"
     d="m 1061.5893,584.5301 c 4.05,2.55 10.05,2.25 15.45,0.15 8.25,-3.3 12.6,-11.4 10.05,-18.15 -2.55,-6.75 -10.8,-12 -19.05,-8.7 -8.25,3.3 -13.35,13.8 -10.65,20.55 0.75,2.4 2.25,4.5 4.2,6.15 l 0,0 z"
     id="path315"
     inkscape:connector-curvature="0"
     style="fill:#834317" /><path
     d="m 1061.5893,584.6801 c 1.35,0.9 2.85,1.5 4.5,1.8 1.35,0.3 2.85,0.45 4.35,0.45 1.35,0 2.55,-0.15 3.75,-0.45 1.05,-0.3 2.25,-0.6 3.3,-0.9 l 0,0 c 1.35,-0.45 2.55,-1.2 3.75,-1.95 1.05,-0.6 1.95,-1.35 2.85,-2.1 0.75,-0.6 1.35,-1.35 2.1,-2.1 0.45,-0.6 0.9,-1.2 1.35,-1.95 0.45,-0.75 0.9,-1.5 1.2,-2.25 0.45,-1.2 0.75,-2.55 0.75,-3.9 0,-0.9 0,-1.8 -0.15,-2.55 -0.15,-0.9 -0.45,-1.8 -0.75,-2.7 -0.45,-1.05 -1.05,-1.95 -1.65,-2.85 -1.2,-1.65 -2.7,-3.15 -4.5,-4.2 -0.75,-0.45 -1.35,-0.9 -2.1,-1.2 l 0,0 c -0.6,-0.3 -1.35,-0.6 -1.95,-0.75 -1.35,-0.45 -2.55,-0.75 -3.9,-0.9 -1.05,-0.15 -1.95,-0.15 -3,0 -1.2,0.15 -2.25,0.3 -3.3,0.75 -1.35,0.45 -2.7,1.05 -3.9,1.95 -2.1,1.35 -3.9,3.15 -5.4,5.25 -0.45,0.6 -0.9,1.35 -1.2,2.1 l 0,0.15 c -0.45,0.9 -0.75,1.8 -1.05,2.7 -0.3,1.2 -0.6,2.55 -0.75,3.75 -0.15,1.05 -0.15,1.95 0,3 0.15,2.25 1.2,4.35 2.85,6 0.75,0.75 1.65,1.5 2.55,2.1 0.3,0.15 0.6,0.45 1.05,0.6 l 0,0 0,0 c 0,0 -0.3,-0.3 -0.6,-0.6 -0.45,-0.3 -0.75,-0.75 -1.2,-1.2 -0.45,-0.6 -0.9,-1.2 -1.2,-1.8 -0.45,-0.75 -0.75,-1.65 -0.9,-2.55 -0.15,-0.9 -0.3,-1.65 -0.3,-2.55 0,-0.9 0.15,-1.8 0.3,-2.7 0.45,-1.95 1.2,-3.75 2.1,-5.4 0.45,-0.9 1.05,-1.8 1.5,-2.55 0.9,-1.35 1.8,-2.55 3,-3.75 1.2,-1.05 2.4,-2.1 3.9,-2.7 1.05,-0.45 2.1,-0.9 3.15,-1.05 1.05,-0.15 1.95,-0.3 3,-0.15 0.9,0 1.8,0.15 2.55,0.45 0.6,0.15 1.35,0.45 1.95,0.75 l 0.3,0.15 c 0.45,0.3 1.05,0.6 1.5,1.05 1.5,1.2 2.7,2.55 3.75,4.2 0.6,0.9 1.05,1.95 1.35,3 0.45,1.65 0.6,3.3 0.45,4.95 -0.3,1.65 -0.75,3.15 -1.5,4.5 -0.9,1.5 -1.95,2.85 -3.15,4.05 -0.6,0.6 -1.35,1.2 -1.95,1.8 -0.9,0.75 -1.95,1.35 -3,1.95 -1.65,0.75 -3.3,1.35 -4.95,1.8 -1.65,0.3 -3.45,0.45 -5.1,0.3 -1.35,-0.15 -2.55,-0.45 -3.75,-0.9 -0.45,-0.15 -0.75,-0.3 -1.05,-0.45 l -0.9,-0.45 0,0 z"
     id="path317"
     inkscape:connector-curvature="0" /><path
     class="st25"
     d="m 1071.6393,531.8801 c -9.3,-0.15 -18.15,3.9 -23.85,11.25 0.6,-0.6 1.05,-1.2 1.65,-1.8 0.6,-0.6 1.35,-1.2 2.1,-1.8 0.75,-0.6 1.5,-1.05 2.25,-1.5 0.75,-0.45 1.5,-0.9 2.4,-1.35 0.9,-0.45 1.65,-0.75 2.55,-1.2 0.9,-0.45 1.8,-0.6 2.7,-0.9 0.9,-0.3 1.8,-0.45 2.85,-0.6 1.05,-0.15 1.95,-0.3 3,-0.45 1.05,-0.15 2.1,-0.15 3.15,-0.15 1.05,0 2.1,0 3.15,0.15 1.05,0.15 2.1,0.3 3,0.45 0.9,0.15 1.95,0.45 3,0.75 1.05,0.3 1.95,0.6 2.85,0.9 0.9,0.3 1.8,0.75 2.7,1.2 0.9,0.45 1.8,0.9 2.55,1.5 0.75,0.6 1.65,1.05 2.4,1.65 0.75,0.6 1.5,1.2 2.25,1.8 0.75,0.6 1.35,1.35 1.95,2.1 0.6,0.75 1.2,1.5 1.8,2.25 0.6,0.75 1.05,1.5 1.5,2.4 0.45,0.9 0.9,1.65 1.35,2.55 0.75,1.8 1.5,3.6 1.8,5.55 0.15,1.05 0.45,1.95 0.45,3 0.15,1.05 0.15,1.95 0.15,3 0,1.05 0,1.95 -0.15,3 -0.3,3 -1.05,5.85 -2.25,8.55 -0.45,0.9 -0.75,1.8 -1.2,2.55 -0.45,0.75 -1.05,1.65 -1.5,2.4 -0.3,0.45 -0.75,0.9 -1.05,1.35 4.95,-5.4 7.65,-12.45 7.65,-19.65 -0.15,-16.5 -14.4,-28.95 -31.2,-28.95 l 0,0 z"
     id="path319"
     inkscape:connector-curvature="0"
     style="fill:#b8854f" /><path
     class="st23"
     d="m 1045.9893,546.1301 c -2.55,4.2 -4.2,9 -4.95,13.95 -0.6,5.55 0.15,11.25 1.95,16.5 4.65,10.65 16.95,14.1 29.55,14.1 11.85,0 22.65,-6.75 27.75,-17.4 -0.3,0.45 -0.45,0.9 -0.75,1.2 -0.6,0.75 -1.2,1.5 -1.8,2.25 -0.6,0.75 -1.2,1.5 -1.95,2.1 -0.75,0.6 -1.35,1.35 -2.25,1.95 -0.9,0.6 -1.5,1.2 -2.4,1.65 -0.9,0.45 -1.65,1.05 -2.55,1.5 -0.9,0.45 -1.8,0.9 -2.7,1.2 -0.9,0.3 -1.8,0.75 -2.85,1.05 -1.05,0.3 -1.95,0.6 -3,0.75 -1.05,0.15 -1.95,0.3 -3,0.45 -1.05,0.15 -2.1,0.15 -3.15,0.15 -1.5,0 -3.15,0 -4.65,-0.15 -1.5,-0.15 -3.15,-0.3 -4.5,-0.6 -1.5,-0.3 -3,-0.6 -4.35,-0.9 -1.35,-0.45 -2.7,-0.9 -4.05,-1.35 -1.35,-0.6 -2.55,-1.2 -3.75,-1.95 -0.6,-0.3 -1.2,-0.75 -1.65,-1.2 -0.45,-0.45 -1.05,-0.9 -1.5,-1.35 -0.6,-0.45 -1.05,-0.9 -1.5,-1.5 -0.9,-1.05 -1.8,-2.1 -2.4,-3.3 -0.3,-0.6 -0.6,-1.2 -0.9,-1.95 -0.45,-1.05 -0.75,-2.25 -1.05,-3.45 -0.3,-1.5 -0.6,-3 -0.75,-4.5 -0.15,-1.5 -0.3,-3.15 -0.3,-4.65 0,-1.35 0,-2.7 0.15,-4.05 0.15,-1.05 0.3,-2.1 0.6,-3 0.3,-0.9 0.45,-1.95 0.75,-2.85 0.3,-0.9 0.6,-1.8 0.9,-2.7 0.3,-0.9 0.75,-1.35 1.05,-1.95 l 0,0 z"
     id="path321"
     inkscape:connector-curvature="0"
     style="fill:#6e4a25" /><path
     d="m 1072.2393,531.8801 c 2.25,0 4.35,0.15 6.45,0.75 1.95,0.45 3.9,1.05 5.7,1.95 3.3,1.35 6.15,3.45 8.7,5.85 l 0,0 c 1.65,1.65 3.15,3.45 4.35,5.55 1.05,1.8 1.95,3.6 2.55,5.55 0.6,1.65 1.05,3.3 1.2,5.1 0.15,1.5 0.3,3 0.3,4.5 l 0,0 c 0,1.35 -0.15,2.7 -0.45,4.2 -0.15,1.2 -0.45,2.25 -0.9,3.45 -0.6,1.8 -1.35,3.6 -2.25,5.25 -0.6,1.2 -1.35,2.25 -1.95,3.3 -2.1,2.85 -4.5,5.4 -7.5,7.35 -1.65,1.05 -3.3,2.1 -5.1,2.85 -1.8,0.75 -3.75,1.35 -5.7,1.8 -1.8,0.45 -3.75,0.6 -5.55,0.75 -2.25,0 -4.35,0 -6.6,-0.15 -1.95,-0.15 -3.45,-0.45 -4.35,-0.6 -0.9,-0.15 -1.8,-0.45 -2.7,-0.6 -1.35,-0.45 -2.55,-0.9 -3.75,-1.35 -2.4,-1.05 -4.65,-2.55 -6.6,-4.35 -1.95,-1.8 -3.45,-4.05 -4.35,-6.45 -0.45,-1.05 -0.75,-2.1 -0.9,-3.3 -0.3,-1.5 -0.45,-2.85 -0.6,-4.35 -0.15,-1.5 -0.15,-3 -0.15,-4.5 0,-1.35 0.15,-2.55 0.3,-3.9 0.3,-1.35 0.6,-2.7 0.9,-4.05 0.3,-1.2 0.6,-2.1 0.75,-2.85 0.6,-2.1 1.5,-4.05 2.55,-6 1.35,-2.55 3.15,-4.95 5.25,-7.05 1.2,-1.2 2.55,-2.4 4.05,-3.45 1.5,-1.05 3,-1.95 4.65,-2.7 1.5,-0.75 3.15,-1.35 4.8,-1.8 1.5,-0.45 3.15,-0.75 4.8,-0.9 1.35,-0.15 1.95,-0.15 2.1,-0.15 l 0,0 0,0 c -0.75,-0.15 -1.5,-0.15 -2.25,-0.15 -1.8,0 -3.45,0.3 -5.25,0.6 -2.4,0.45 -4.8,1.2 -7.05,2.25 -2.7,1.2 -5.1,2.7 -7.35,4.5 -1.65,1.35 -3.15,3 -4.35,4.65 -1.35,1.65 -2.4,3.45 -3.3,5.4 -0.9,1.8 -1.65,3.6 -2.1,5.4 -0.45,1.65 -0.9,3.3 -1.05,4.95 0,0.3 0,0.45 -0.15,0.75 -0.3,3 -0.15,6 0.45,9 0.15,1.5 0.45,3 0.9,4.5 l 0,0 c 0.3,1.2 0.75,2.4 1.2,3.6 1.2,2.55 3,4.95 5.25,6.75 l 0,0 c 2.1,1.8 4.65,3.3 7.2,4.35 1.8,0.75 3.75,1.35 5.55,1.65 1.65,0.45 3.15,0.6 4.5,0.9 0.75,0.15 1.95,0.3 3.15,0.45 1.2,0.15 2.85,0.3 4.65,0.3 1.8,0 3.6,0 5.25,-0.3 4.2,-0.6 8.1,-1.95 11.7,-4.2 1.95,-1.2 3.75,-2.55 5.4,-4.05 1.65,-1.65 3.15,-3.45 4.5,-5.4 1.2,-1.95 2.25,-3.9 3,-6 0.75,-1.8 1.2,-3.75 1.5,-5.7 0.3,-1.65 0.45,-3.3 0.3,-4.95 0,-0.75 0,-1.5 -0.15,-2.1 -0.15,-1.5 -0.45,-2.85 -0.75,-4.2 -1.05,-3.75 -2.7,-7.2 -4.95,-10.2 -1.2,-1.65 -2.7,-3.3 -4.2,-4.65 -2.25,-1.95 -4.65,-3.45 -7.35,-4.65 -2.25,-1.05 -4.65,-1.8 -7.2,-2.25 -1.8,-0.3 -3.45,-0.45 -5.25,-0.6 -1.05,-0.3 -1.8,-0.3 -1.8,-0.3 l 0,0 z"
     id="path323"
     inkscape:connector-curvature="0" /><path
     class="st31"
     d="m 1061.4393,538.1801 c -1.5,1.5 -1.65,4.05 -1.2,6.6 0.6,3.9 3.15,6.6 6.45,6 3.6,-0.6 6,-4.05 5.4,-7.65 -0.6,-3.9 -4.5,-7.05 -7.8,-6.45 -1.2,0.15 -2.1,0.6 -2.85,1.5 l 0,0 z"
     id="path325"
     inkscape:connector-curvature="0"
     style="fill:#834317;stroke:#000000;stroke-width:4.5" /><path
     class="st31"
     d="m 1080.3393,538.1801 c -1.8,0.6 -2.85,2.55 -3.6,4.65 -1.05,3.3 -0.15,6.45 2.55,7.35 3.15,0.9 6.3,-0.75 7.35,-3.75 1.05,-3.3 -0.75,-7.35 -3.45,-8.25 -0.9,-0.3 -1.95,-0.3 -2.85,0 l 0,0 z"
     id="path327"
     inkscape:connector-curvature="0"
     style="fill:#834317;stroke:#000000;stroke-width:4.5" /><path
     class="st31"
     d="m 1092.7893,548.0801 c -1.65,0.75 -2.85,2.1 -3.3,3.9 -1.05,2.85 -0.45,5.55 1.8,6.45 2.55,0.9 5.55,-0.3 6.6,-2.85 1.05,-2.85 -0.3,-6.45 -2.55,-7.35 -0.9,-0.3 -1.8,-0.45 -2.55,-0.15 z"
     id="path329"
     inkscape:connector-curvature="0"
     style="fill:#834317;stroke:#000000;stroke-width:4.5" /><path
     class="st22"
     d="m 972.33926,540.1301 c -16.5,-0.45 -30.3,12.45 -30.9,28.95 -0.45,16.5 12.45,30.3 28.95,30.9 0.6,0 1.2,0 1.95,0 12.6,0 24.9,-3.45 29.55004,-14.1 1.5,-3.6 2.4,-14.55 1.5,-18.75 -3.15,-16.35 -14.10004,-27 -31.05004,-27 l 0,0 z"
     id="path331"
     inkscape:connector-curvature="0"
     style="fill:#a06121" /><path
     class="st26"
     d="m 983.88926,593.0801 c -4.65,2.55 -10.2,2.85 -15,0.75 -8.25,-3.3 -12.6,-11.4 -10.05,-18.15 2.55,-6.75 10.8,-12 19.05,-8.7 8.25,3.3 13.35,13.8 10.65,20.55 -0.9,2.4 -2.55,4.2 -4.65,5.55 l 0,0 z"
     id="path333"
     inkscape:connector-curvature="0"
     style="fill:#834317" /><path
     class="st23"
     d="m 948.63926,551.2301 c -4.35,5.25 -6.9,12 -6.75,18.75 0.15,16.65 13.8,30.15 30.6,29.85 0,0 0,0 0,0 11.7,0 22.95,-3 28.35004,-11.85 l 0,0.15 c -0.45,0.6 -0.90004,1.05 -1.50004,1.5 -0.45,0.45 -1.05,0.9 -1.5,1.35 -0.45,0.45 -1.05,0.75 -1.65,1.2 -1.2,0.75 -2.4,1.35 -3.75,1.95 -1.35,0.6 -2.7,1.05 -4.05,1.5 -1.5,0.45 -2.85,0.75 -4.35,0.9 -1.5,0.3 -3,0.45 -4.5,0.6 -1.5,0.15 -3.15,0.15 -4.65,0.15 -1.05,0 -2.1,0 -3.15,-0.15 -1.05,-0.15 -2.1,-0.3 -3,-0.45 -0.9,-0.15 -1.95,-0.45 -3,-0.75 -1.05,-0.3 -1.95,-0.6 -2.85,-1.05 -0.9,-0.45 -1.8,-0.75 -2.7,-1.2 -0.9,-0.45 -1.65,-0.9 -2.55,-1.5 -0.9,-0.6 -1.65,-1.05 -2.4,-1.65 -0.75,-0.6 -1.5,-1.2 -2.25,-1.95 -0.75,-0.75 -1.35,-1.35 -1.95,-2.1 -0.6,-0.75 -1.2,-1.5 -1.8,-2.25 -0.6,-0.75 -1.05,-1.65 -1.5,-2.4 -0.45,-0.75 -0.9,-1.65 -1.35,-2.55 -1.2,-2.7 -1.95,-5.55 -2.25,-8.55 -0.15,-2.1 -0.15,-4.05 0,-6.15 0.3,-3 1.05,-5.85 2.25,-8.55 0.45,-0.9 0.75,-1.8 1.35,-2.55 0.3,-1.05 0.6,-1.65 0.9,-2.25 l 0,0 z"
     id="path335"
     inkscape:connector-curvature="0"
     style="fill:#6e4a25" /><path
     d="m 972.33926,539.0801 c -2.25,0 -4.65,0.3 -6.9,0.75 -2.1,0.45 -4.05,1.2 -6,1.95 -3.45,1.5 -6.6,3.6 -9.3,6.3 l 0,0 c -1.8,1.8 -3.3,3.75 -4.65,5.85 -1.2,1.8 -2.1,3.75 -2.85,5.85 -0.6,1.8 -1.2,3.6 -1.5,5.4 -0.3,1.65 -0.45,3.15 -0.45,4.8 l 0,0 c 0,1.5 0,3 0.3,4.5 0.15,1.35 0.45,2.55 0.75,3.9 0.6,2.1 1.35,4.05 2.25,6 0.6,1.2 1.35,2.4 2.25,3.6 1.05,1.5 2.25,2.85 3.6,4.2 1.5,1.35 3,2.7 4.8,3.75 3.6,2.25 7.65,3.75 11.85,4.5 1.95,0.3 4.05,0.45 6,0.45 2.25,0 4.65,-0.3 6.9,-0.6 1.95,-0.3 3.45,-0.6 4.5,-0.9 0.6,-0.15 1.65,-0.45 2.7,-0.75 1.35,-0.3 2.7,-0.75 3.9,-1.35 2.7,-1.05 5.1,-2.55 7.35,-4.35 2.25004,-1.95 4.05004,-4.2 5.25004,-6.9 0.6,-1.35 0.9,-2.7 1.2,-4.05 0.45,-1.8 0.6,-3.6 0.75,-5.4 0.15,-1.8 0.3,-3.75 0.3,-5.55 l 0,0 c 0,-1.5 0,-3 -0.3,-4.5 -0.3,-1.8 -0.9,-3.75 -1.5,-5.55 -0.9,-2.4 -1.95,-4.65 -3.3,-6.75 -1.80004,-3 -3.90004,-5.55 -6.45004,-7.8 -1.35,-1.2 -2.85,-2.1 -4.5,-3 -1.5,-0.9 -3.15,-1.65 -4.95,-2.1 -1.65,-0.6 -3.3,-1.05 -5.1,-1.35 -1.65,-0.3 -3.15,-0.45 -4.8,-0.45 -0.75,0 -1.2,0 -1.65,0 -0.15,0 -0.45,0 -0.75,0 l 0,0 0,0 c 0.15,0 1.05,0.15 2.25,0.3 1.65,0.15 3.3,0.45 4.95,0.9 2.25,0.6 4.35,1.5 6.45,2.55 2.4,1.35 4.5,2.85 6.3,4.8 1.35,1.35 2.55,2.85 3.6,4.5 1.05,1.65 1.95,3.3 2.7,4.95 1.35,3.15 2.40004,6.3 3.15004,9.6 0.15,0.3 0.15,0.75 0.15,1.05 0.15,0.9 0.15,1.8 0.3,2.85 0.15,1.8 0,3.45 0,5.25 0,1.8 -0.15,3.45 -0.45,5.25 -0.15,1.2 -0.45,2.55 -0.75,3.75 -1.05004,2.55 -2.55004,4.8 -4.35004,6.6 l 0,0 c -1.95,1.95 -4.2,3.45 -6.75,4.5 -1.8,0.75 -3.45,1.35 -5.4,1.8 -1.5,0.3 -2.85,0.6 -4.35,0.75 -0.75,0.15 -1.95,0.15 -3.3,0.3 -1.35,0.15 -2.85,0 -4.65,0 -1.65,0 -3.45,-0.3 -5.1,-0.6 -3.9,-0.75 -7.65,-2.25 -10.95,-4.5 -1.8,-1.2 -3.3,-2.4 -4.8,-3.9 -1.5,-1.5 -2.85,-3.3 -4.05,-5.1 -1.95,-3.3 -3.45,-6.9 -4.05,-10.8 -0.3,-1.5 -0.45,-3 -0.45,-4.5 0,-0.75 0,-1.35 0,-1.95 0,-1.35 0.15,-2.7 0.45,-4.05 0.3,-1.65 0.75,-3.3 1.2,-4.95 0.6,-1.8 1.5,-3.6 2.4,-5.25 1.05,-1.8 2.25,-3.45 3.75,-4.95 1.95,-2.1 4.35,-4.05 6.9,-5.55 2.25,-1.35 4.65,-2.4 7.05,-3.15 1.8,-0.6 3.6,-0.9 5.4,-1.05 1.95,0.15 2.7,0.15 2.7,0.15 l 0,0 z"
     id="path337"
     inkscape:connector-curvature="0" /><path
     d="m 983.28926,592.1801 c -1.2,0.75 -2.55,1.35 -4.05,1.65 -1.2,0.3 -2.55,0.45 -3.9,0.45 -1.2,0 -2.25,-0.15 -3.45,-0.45 -1.05,-0.3 -1.95,-0.6 -2.85,-0.9 -1.2,-0.45 -2.25,-1.2 -3.3,-1.95 -0.9,-0.6 -1.65,-1.35 -2.25,-2.1 -0.6,-0.6 -1.05,-1.2 -1.5,-1.95 -0.3,-0.6 -0.75,-1.2 -1.05,-1.65 -0.3,-0.6 -0.6,-1.2 -0.75,-1.95 -0.3,-1.05 -0.6,-2.1 -0.6,-3.15 -0.15,-1.35 0,-2.85 0.45,-4.2 0.3,-0.9 0.75,-1.8 1.2,-2.55 0.45,-0.75 1.05,-1.5 1.65,-2.25 0.6,-0.6 1.2,-1.2 1.95,-1.8 0.6,-0.45 1.2,-0.9 1.8,-1.35 0.6,-0.3 1.05,-0.6 1.65,-0.9 0.45,-0.15 0.9,-0.3 1.5,-0.45 0.75,-0.15 1.5,-0.3 2.25,-0.3 0.9,0 1.8,0 2.7,0.3 1.05,0.15 1.95,0.45 2.85,0.9 1.2,0.6 2.25,1.2 3.15,2.1 0.9,0.75 1.8,1.65 2.55,2.55 0.6,0.75 1.2,1.65 1.65,2.4 0.45,0.75 0.75,1.35 1.05,1.8 l 0,0 c 0.45,0.75 0.75,1.5 1.05,2.25 0.45,1.05 0.75,2.1 0.9,3.15 0.15,0.9 0.15,1.65 0.15,2.55 0,0.9 -0.3,1.65 -0.45,2.55 -0.3,1.05 -0.75,1.95 -1.35,2.7 -0.45,0.75 -1.2,1.5 -1.8,2.1 -0.45,0.45 -0.6,0.6 -0.75,0.6 l 0,0 0,0 c 0.3,0 0.45,-0.15 0.6,-0.3 0.45,-0.3 0.9,-0.6 1.35,-0.9 0.6,-0.45 1.2,-0.9 1.8,-1.5 0.6,-0.75 1.2,-1.5 1.8,-2.25 0.45,-0.9 0.9,-1.8 1.05,-2.85 0.15,-1.05 0.3,-2.1 0.3,-3.15 0,-1.2 -0.15,-2.4 -0.45,-3.45 -0.3,-1.05 -0.6,-2.1 -1.2,-3.15 -0.45,-1.05 -1.05,-1.95 -1.8,-2.85 -1.2,-1.35 -2.55,-2.7 -4.05,-3.75 -1.5,-1.05 -3,-1.8 -4.8,-2.4 -1.2,-0.45 -2.4,-0.6 -3.6,-0.75 -1.05,0 -2.25,0 -3.3,0.15 -0.9,0.15 -1.8,0.3 -2.7,0.6 -0.75,0.3 -1.5,0.6 -2.1,0.75 l -0.3,0.15 c -2.4,1.05 -4.65,2.85 -6.3,4.95 -0.75,1.05 -1.35,2.1 -1.95,3.15 -0.45,0.9 -0.75,1.95 -0.9,2.85 -0.15,1.05 -0.15,1.95 -0.15,3 0.15,1.95 0.75,3.75 1.65,5.4 0.6,1.05 1.2,1.95 1.95,2.85 0.6,0.6 1.2,1.2 1.95,1.8 0.75,0.6 1.65,1.2 2.55,1.65 1.2,0.6 2.4,1.05 3.6,1.5 1.8,0.45 3.6,0.75 5.4,0.75 1.65,0 3.3,-0.3 4.95,-0.75 1.2,-0.3 2.25,-0.9 3.3,-1.5 0.45,-0.3 0.75,-0.45 1.2,-0.75 l -0.3,0.6 z"
     id="path339"
     inkscape:connector-curvature="0" /><path
     class="st31"
     d="m 983.58926,547.0301 c 1.5,1.2 1.95,3.6 1.95,6 -0.15,3.75 -2.25,6.6 -5.25,6.45 -3.45,-0.15 -6.15,-3.15 -6.15,-6.6 0.15,-3.75 3.45,-7.2 6.6,-7.05 1.05,0.15 1.95,0.45 2.85,1.2 l 0,0 z"
     id="path341"
     inkscape:connector-curvature="0"
     style="fill:#834317;stroke:#000000;stroke-width:4.5" /><path
     class="st31"
     d="m 965.58926,547.3301 c 1.8,0.6 2.85,2.55 3.6,4.65 1.05,3.3 0.15,6.45 -2.55,7.35 -3.15,0.9 -6.3,-0.75 -7.35,-3.75 -1.05,-3.3 0.75,-7.35 3.45,-8.25 0.9,-0.3 1.8,-0.3 2.85,0 l 0,0 z"
     id="path343"
     inkscape:connector-curvature="0"
     style="fill:#834317;stroke:#000000;stroke-width:4.5" /><path
     class="st31"
     d="m 952.68926,556.9301 c 1.8,0.6 3.15,1.95 3.75,3.75 1.35,2.85 0.9,5.7 -1.35,6.75 -2.55,1.2 -5.7,0.15 -7.05,-2.4 -1.35,-2.85 -0.15,-6.6 2.1,-7.8 0.75,-0.3 1.65,-0.45 2.55,-0.3 l 0,0 z"
     id="path345"
     inkscape:connector-curvature="0"
     style="fill:#834317;stroke:#000000;stroke-width:4.5" /><path
     d="m 958.83926,536.3801 0.15,0 0.15,0 0.3,0 c 0.3,0 0.45,0.15 0.75,0.15 0.45,0.3 0.9,0.6 1.35,1.2 0.15,0.15 0.15,0.3 0.3,0.45 0.15,0.3 0.45,0.75 0.45,1.2 0.15,0.45 0.15,0.9 0,1.2 0,0.3 -0.3,0.75 -0.45,0.9 -0.3,0.3 -0.75,0.3 -1.05,0.3 -0.45,-0.15 -0.9,-0.3 -1.35,-0.75 -0.3,-0.3 -0.75,-0.75 -0.9,-1.2 -0.15,-0.15 -0.15,-0.3 -0.3,-0.6 -0.3,-0.6 -0.3,-1.2 -0.3,-1.8 0,-0.3 0.15,-0.45 0.3,-0.75 0,-0.15 0.15,-0.15 0.3,-0.3 l 0.15,-0.15 0.15,0.15 0,0 z"
     id="path347"
     inkscape:connector-curvature="0" /><path
     class="st27"
     d="m 1018.5393,540.4301 0,0 0.45,0.45 0.6,0.6 0.6,0.6 c 0.15,0.15 0.15,0.15 0.3,0.3 0,0.15 0.15,0.15 0.15,0.3 l 0.15,0.3 c 0.15,0.15 0.3,0.3 0.45,0.45 0.45,0.3 0.75,0.75 1.05,1.05 0,0.15 0.15,0.15 0.15,0 0,-0.15 0,-0.3 0,-0.45 -0.15,-0.45 -0.3,-0.9 -0.6,-1.35 0,-0.15 -0.15,-0.3 -0.15,-0.6 -0.15,-0.15 -0.3,-0.45 -0.45,-0.6 l 0,0 c -0.15,-0.15 -0.3,-0.15 -0.45,-0.3 l -0.75,-0.3 c -0.45,-0.15 -0.75,-0.45 -1.2,-0.75 l -0.3,-0.15 -0.15,-0.15 0,0 c 0,0 0,0 -0.15,0 0,0 0,0 0,0.15 0,0 0,0.15 0,0.15 0.15,0 0.15,0.15 0.3,0.3 l 0,0 z"
     id="path349"
     inkscape:connector-curvature="0"
     style="fill:#5d381e" /><path
     d="m 1018.6893,540.1301 0,0 c 0.45,0.45 0.9,0.9 1.2,1.35 0.3,0.3 0.6,0.75 0.9,1.05 0.15,0.15 0.3,0.3 0.6,0.45 0.3,0.15 0.45,0.45 0.6,0.6 0.15,0.15 0.3,0.45 0.45,0.6 0,0.15 0.15,0.15 0.15,0 0,-0.15 0,-0.3 0,-0.45 0,-0.3 -0.15,-0.45 -0.15,-0.75 -0.15,-0.3 -0.3,-0.45 -0.45,-0.75 -0.15,-0.3 -0.45,-0.75 -0.75,-0.9 l -0.75,-0.6 c -0.6,-0.45 -1.05,-0.75 -1.5,-1.05 l -0.3,-0.15 -0.15,-0.15 -0.15,0 0,0 c 0,0 0,0 0,0 l 0,0 c 0,0 0,0.15 0,0.15 0,0.3 0.15,0.45 0.3,0.6 l 0,0 z"
     id="path351"
     inkscape:connector-curvature="0" /><path
     d="m 1018.6893,544.0301 0,0 c 0.15,-0.15 0.75,-0.6 1.35,-1.05 0.45,-0.3 0.75,-0.6 1.05,-0.9 l 0.6,-0.9 c 0.3,-0.45 0.6,-0.75 0.75,-1.2 0.15,-0.45 0,-0.15 -0.15,-0.15 -0.3,0.15 -0.45,0.3 -0.75,0.45 -0.3,0.15 -0.6,0.45 -0.9,0.6 -0.3,0.15 -0.45,0.45 -0.75,0.75 l -0.6,0.75 c -0.3,0.45 -0.6,0.9 -1.05,1.35 l -0.15,0.15 c 0,0 -0.15,0.15 -0.15,0.15 0,0 0,0.15 0,0.15 l 0,0 0,0 0,0 0.15,0 c 0.3,0 0.45,-0.15 0.6,-0.15 l 0,0 z"
     id="path353"
     inkscape:connector-curvature="0" /></svg>
