<?xml version="1.0" encoding="UTF-8" standalone="no"?>
<!-- Generator: Adobe Illustrator 20.0.0, SVG Export Plug-In . SVG Version: 6.00 Build 0)  -->

<svg
   xmlns:dc="http://purl.org/dc/elements/1.1/"
   xmlns:cc="http://creativecommons.org/ns#"
   xmlns:rdf="http://www.w3.org/1999/02/22-rdf-syntax-ns#"
   xmlns:svg="http://www.w3.org/2000/svg"
   xmlns="http://www.w3.org/2000/svg"
   xmlns:xlink="http://www.w3.org/1999/xlink"
   xmlns:sodipodi="http://sodipodi.sourceforge.net/DTD/sodipodi-0.dtd"
   xmlns:inkscape="http://www.inkscape.org/namespaces/inkscape"
   version="1.1"
   id="svg16054"
   inkscape:version="0.91 r13725"
   sodipodi:docname="quiz8.svg"
   x="0px"
   y="0px"
   viewBox="0 0 2125.9999 1187"
   xml:space="preserve"
   width="2126"
   height="1187"><metadata
     id="metadata361"><rdf:RDF><cc:Work
         rdf:about=""><dc:format>image/svg+xml</dc:format><dc:type
           rdf:resource="http://purl.org/dc/dcmitype/StillImage" /><dc:title></dc:title></cc:Work></rdf:RDF></metadata><style
     type="text/css"
     id="style3">
	.st0{fill:#FFFFFF;}
	.st1{fill:#6B3C1F;stroke:#000000;}
	.st2{fill:#6B3C1F;stroke:#000000;stroke-linejoin:round;}
	.st3{fill:url(#SVGID_1_);stroke:#000000;}
	.st4{fill:#8D5027;stroke:#000000;}
	.st5{fill:url(#SVGID_2_);stroke:#000000;}
	.st6{fill:url(#SVGID_3_);stroke:#000000;}
	.st7{fill:url(#SVGID_4_);stroke:#000000;}
	.st8{fill:#D28C5F;stroke:#000000;}
	.st9{fill:url(#SVGID_5_);stroke:#000000;}
	.st10{fill:url(#SVGID_6_);stroke:#000000;}
	.st11{fill:url(#SVGID_7_);stroke:#000000;}
	.st12{fill:url(#SVGID_8_);stroke:#000000;}
	.st13{fill:url(#SVGID_9_);stroke:#000000;stroke-width:1.02;}
	.st14{fill:url(#SVGID_10_);stroke:#000000;}
	.st15{fill:#855B3E;}
	.st16{fill:none;stroke:#000000;stroke-width:1.02;}
	.st17{fill:#A05B2B;stroke:#000000;stroke-width:1.02;}
	.st18{fill:#6C5353;stroke:#000000;stroke-width:1.02;}
	.st19{fill:#906F6F;stroke:#000000;stroke-width:1.02;}
	.st20{fill:none;stroke:#000000;}
	.st21{fill:url(#SVGID_11_);}
	.st22{fill:#A06121;}
	.st23{fill:#6E4A25;}
	.st24{fill:#956C45;stroke:#000000;stroke-width:3;}
	.st25{fill:#B8854F;}
	.st26{fill:#834317;}
	.st27{fill:#5D381E;}
	.st28{fill:none;stroke:#000000;stroke-width:5;}
	.st29{fill:#DDCEBE;}
	.st30{stroke:#000000;stroke-width:5;}
	.st31{fill:#834317;stroke:#000000;stroke-width:3;}
</style><defs
     id="defs5"><inkscape:path-effect
       effect="spiro"
       id="path-effect5341"
       is_visible="true" /><inkscape:path-effect
       effect="spiro"
       id="path-effect17606"
       is_visible="true" /><inkscape:path-effect
       effect="spiro"
       id="path-effect16830"
       is_visible="true" /><inkscape:path-effect
       effect="spiro"
       id="path-effect16826"
       is_visible="true" /><inkscape:path-effect
       effect="spiro"
       id="path-effect16822"
       is_visible="true" /><inkscape:path-effect
       effect="spiro"
       id="path-effect16818"
       is_visible="true" /><inkscape:path-effect
       effect="spiro"
       id="path-effect16814"
       is_visible="true" /><inkscape:path-effect
       effect="spiro"
       id="path-effect16810"
       is_visible="true" /><inkscape:path-effect
       effect="spiro"
       id="path-effect16806"
       is_visible="true" /><inkscape:path-effect
       effect="spiro"
       id="path-effect16802"
       is_visible="true" /><inkscape:path-effect
       effect="spiro"
       id="path-effect16798"
       is_visible="true" /><inkscape:path-effect
       effect="spiro"
       id="path-effect16794"
       is_visible="true" /><inkscape:path-effect
       effect="spiro"
       id="path-effect16790"
       is_visible="true" /><inkscape:path-effect
       effect="spiro"
       id="path-effect16786"
       is_visible="true" /><inkscape:path-effect
       effect="spiro"
       id="path-effect16782"
       is_visible="true" /><inkscape:path-effect
       effect="spiro"
       id="path-effect16778"
       is_visible="true" /><inkscape:path-effect
       effect="spiro"
       id="path-effect16774"
       is_visible="true" /></defs><sodipodi:namedview
     bordercolor="#666666"
     borderlayer="true"
     borderopacity="1.0"
     fit-margin-bottom="0"
     fit-margin-left="0"
     fit-margin-right="0"
     fit-margin-top="0"
     id="base"
     inkscape:current-layer="svg16054"
     inkscape:cx="701.87495"
     inkscape:cy="448.34105"
     inkscape:document-units="cm"
     inkscape:pageopacity="0.0"
     inkscape:pageshadow="2"
     inkscape:window-height="744"
     inkscape:window-maximized="1"
     inkscape:window-width="1366"
     inkscape:window-x="0"
     inkscape:window-y="24"
     inkscape:zoom="0.35"
     pagecolor="#ffffff"
     showgrid="false"
     units="cm" /><g
     id="layer2"
     inkscape:groupmode="layer"
     inkscape:label="background"
     transform="translate(0,237.40002)"><rect
       id="rect4177"
       y="-241.83704"
       class="st0"
       width="2146.4292"
       height="1191.437"
       x="0"
       style="fill:#ffffff" /></g><g
     id="g27"
     transform="matrix(1.5,0,0,1.5,-256.17747,-119.59916)"><g
       id="layer1">
       <!-- <image
         sodipodi:absref="/home/daniel/Projects/L2TOR_project/freeplay-sandbox/qt-gui/res/8EDAB5CC.png"
         xlink:href="8EDAB5CC.png"
         id="image30"
         transform="matrix(0.9968,0,0,0.998,686,222)"
         height="503"
         width="308"
         style="overflow:visible;opacity:0.75;enable-background:new" /> -->
         <g
         id="g4249"><polygon
           class="st1"
           points="926.5,515.4 919.8,480.1 912.2,480.1 909.1,485.9 918.9,571.2 926.3,615.6 933.7,651.5 943.7,651.1 943.5,640.4 935.9,575.2 "
           id="polygon33"
           style="fill:#6b3c1f;stroke:#000000" /><polygon
           class="st2"
           points="786,631.4 797.8,632.3 803.3,567.7 807.7,522.9 808.3,492.6 795.1,492.6 789.4,560.8 786.9,613.2 "
           id="polygon35"
           style="fill:#6b3c1f;stroke:#000000;stroke-linejoin:round" /><g
           id="g8412"><linearGradient
             id="SVGID_1_"
             gradientUnits="userSpaceOnUse"
             x1="1295.8522"
             y1="784.30701"
             x2="1392.0522"
             y2="753.45697"
             gradientTransform="translate(-601.88,-192.22)"><stop
               offset="0"
               style="stop-color:#8D5027"
               id="stop39" /><stop
               offset="1"
               style="stop-color:#6B3C1F"
               id="stop41" /></linearGradient><path
             class="st3"
             d="M 710.1,592.9 798.8,564 c 0.8,-1.7 0.9,-3.7 0.4,-5.5 -1,-2.9 -4.6,-2.9 -4.6,-2.9 l -37.6,10.3 -49.2,18 2.3,9 z"
             id="path43"
             inkscape:connector-curvature="0"
             style="fill:url(#SVGID_1_);stroke:#000000" /><path
             class="st4"
             d="m 762.5,566.9 c 0,0 45.7,2.6 68.6,4.6 22.9,2 72.8,9.5 72.8,9.5 l -3.5,3.3 0.9,4.2 c 0,0 -45.8,-2.5 -69,-4.5 -23.2,-2 -70.5,-9 -70.5,-9 -0.8,-1.2 -1.3,-2.7 -1.4,-4.1 0,-2.1 2.1,-4 2.1,-4 l 0,0 z"
             id="path45"
             inkscape:connector-curvature="0"
             style="fill:#8d5027;stroke:#000000" /><linearGradient
             id="SVGID_2_"
             gradientUnits="userSpaceOnUse"
             x1="1284.1635"
             y1="791.58588"
             x2="1355.4835"
             y2="749.09589"
             gradientTransform="translate(-427.34,-177.79)"><stop
               offset="0"
               style="stop-color:#C28156"
               id="stop48" /><stop
               offset="1"
               style="stop-color:#6B3C1F"
               id="stop50" /></linearGradient><path
             class="st5"
             d="m 881.2,605.7 48.5,-30.9 c 0.8,-1.7 0.9,-3.7 0.4,-5.5 -1,-2.9 -4.6,-2.9 -4.6,-2.9 -9.2,5.9 -12.2,7.8 -20,12.5 -7.8,4.7 -26.8,15.7 -26.8,15.7 l 2.5,11.1 z"
             id="path52"
             inkscape:connector-curvature="0"
             style="fill:url(#SVGID_2_);stroke:#000000" /></g><linearGradient
           id="SVGID_3_"
           gradientUnits="userSpaceOnUse"
           x1="1289.1405"
           y1="772.85571"
           x2="1315.9905"
           y2="776.08569"
           gradientTransform="translate(-601.88,-192.22)"><stop
             offset="0"
             style="stop-color:#492A16"
             id="stop55" /><stop
             offset="0.49"
             style="stop-color:#D28C5F"
             id="stop57" /><stop
             offset="1"
             style="stop-color:#593219"
             id="stop59" /></linearGradient><polyline
           class="st6"
           points="697.2,682.6 687.2,681.5 695.6,580.1 707.3,483.1 720.6,483.7 717.4,547.5 709.8,608.1 701,680.7         "
           id="polyline61"
           style="fill:url(#SVGID_3_);stroke:#000000" /><linearGradient
           id="SVGID_4_"
           gradientUnits="userSpaceOnUse"
           x1="1469.1302"
           y1="792.37433"
           x2="1496.4003"
           y2="790.44427"
           gradientTransform="translate(-601.88,-192.22)"><stop
             offset="0"
             style="stop-color:#4F2D17"
             id="stop64" /><stop
             offset="0.49"
             style="stop-color:#D28C5F"
             id="stop66" /><stop
             offset="1"
             style="stop-color:#482914"
             id="stop68" /></linearGradient><polygon
           class="st7"
           points="893,666.8 894.9,705.1 882.2,705.4 871.8,616.1 867.7,530.5 867.7,493.2 878.4,493.2 884.8,530.5 889.2,593 "
           id="polygon70"
           style="fill:url(#SVGID_4_);stroke:#000000" /><g
           id="g8390"><path
             class="st8"
             d="m 800.2,249.5 c 0,0 62.1,5 75.3,5.8 13.2,0.8 80.6,-0.4 80.6,-0.4 l -6,34.6 c 0,0 -67.3,0.6 -75.3,0 -8,-0.6 -75.5,-6.2 -75.5,-6.2 l -0.6,-34.1 1.5,0.3 z"
             id="path73"
             inkscape:connector-curvature="0"
             style="fill:#d28c5f;stroke:#000000" /><linearGradient
             id="SVGID_5_"
             gradientUnits="userSpaceOnUse"
             x1="1425.7303"
             y1="562.02759"
             x2="1437.6504"
             y2="562.34747"
             gradientTransform="translate(-601.88,-192.22)"><stop
               offset="0"
               style="stop-color:#693B1D"
               id="stop76" /><stop
               offset="0.49"
               style="stop-color:#D28C5F"
               id="stop78" /><stop
               offset="1"
               style="stop-color:#563117"
               id="stop80" /></linearGradient><path
             class="st9"
             d="m 824.2,453.2 c 0,0 1.3,-76.5 1.3,-88.9 0,-12.4 3.8,-79.4 3.8,-79.4 l 4.9,0.5 c 0,0 -1.2,82.5 -1.2,97.3 0,14.8 -2,71.1 -2,71.1 -1,0.5 -2.2,0.8 -3.3,0.9 -1.3,-0.2 -2.5,-0.7 -3.5,-1.5 l 0,0 z"
             id="path82"
             inkscape:connector-curvature="0"
             style="fill:url(#SVGID_5_);stroke:#000000" /><linearGradient
             id="SVGID_6_"
             gradientUnits="userSpaceOnUse"
             x1="1449.8501"
             y1="564.13849"
             x2="1465.5702"
             y2="565.42853"
             gradientTransform="translate(-601.88,-192.22)"><stop
               offset="0"
               style="stop-color:#492A16"
               id="stop85" /><stop
               offset="0.49"
               style="stop-color:#D28C5F"
               id="stop87" /><stop
               offset="1"
               style="stop-color:#5B3319"
               id="stop89" /></linearGradient><path
             class="st10"
             d="m 846,455.3 c 0,0 3.7,-63 5.3,-77.8 1.6,-14.8 8.8,-89.6 8.8,-89.6 l 5,0.5 -0.3,3.5 c 0,0 -4.5,87.2 -6.6,111.1 -2.1,23.9 -4.9,53.5 -4.9,53.5 -1.4,0.4 -2.8,0.6 -4.3,0.5 -1,-0.4 -2,-1 -3,-1.7 l 0,0 z"
             id="path91"
             inkscape:connector-curvature="0"
             style="fill:url(#SVGID_6_);stroke:#000000" /><linearGradient
             id="SVGID_7_"
             gradientUnits="userSpaceOnUse"
             x1="1477.7596"
             y1="565.11267"
             x2="1491.1296"
             y2="566.72278"
             gradientTransform="translate(-601.88,-192.22)"><stop
               offset="0"
               style="stop-color:#5D351A"
               id="stop94" /><stop
               offset="0.49"
               style="stop-color:#D28C5F"
               id="stop96" /><stop
               offset="1"
               style="stop-color:#673A1C"
               id="stop98" /></linearGradient><path
             class="st11"
             d="m 872.5,458.6 c -2.4,-0.5 -3,-1.5 -3,-1.5 0,0 5.7,-55.3 6.9,-65.9 1.2,-10.6 13.6,-102.3 13.6,-102.3 l 4.4,0.2 c 0,0 -8.9,89.7 -11.3,112.3 -2.4,22.6 -6.6,56.4 -6.6,56.4 -1.1,0.8 -2.6,1.1 -4,0.8 l 0,0 z"
             id="path100"
             inkscape:connector-curvature="0"
             style="fill:url(#SVGID_7_);stroke:#000000" /><linearGradient
             id="SVGID_8_"
             gradientUnits="userSpaceOnUse"
             x1="1505.0898"
             y1="566.02173"
             x2="1518.4598"
             y2="567.9317"
             gradientTransform="translate(-601.88,-192.22)"><stop
               offset="0"
               style="stop-color:#5D351A"
               id="stop103" /><stop
               offset="0.49"
               style="stop-color:#D28C5F"
               id="stop105" /><stop
               offset="1"
               style="stop-color:#5D351A"
               id="stop107" /></linearGradient><path
             class="st12"
             d="m 896.6,461 c -1.1,-0.6 -2.1,-1.3 -3.1,-2.1 0,0 7.2,-53 9.3,-64.1 2.1,-11.1 17,-106.1 17,-106.1 l 4.3,-0.1 c 0,0 -12.7,101.7 -14.8,119.8 -2.1,18.1 -7.7,52.1 -7.7,52.1 0,0 -3.5,1.2 -5,0.5 l 0,0 z"
             id="path109"
             inkscape:connector-curvature="0"
             style="fill:url(#SVGID_8_);stroke:#000000" /><linearGradient
             id="SVGID_9_"
             gradientUnits="userSpaceOnUse"
             x1="1538.146"
             y1="536.03809"
             x2="1554.606"
             y2="539.69818"
             gradientTransform="translate(-601.88,-192.22)"><stop
               offset="0"
               style="stop-color:#563117"
               id="stop112" /><stop
               offset="0.47"
               style="stop-color:#D28C5F"
               id="stop114" /><stop
               offset="1"
               style="stop-color:#4F2D17"
               id="stop116" /></linearGradient><path
             class="st13"
             d="m 917.4,460.8 c 0,0 11.8,-71.6 12,-73 0.2,-1.4 2.7,-6.1 2.7,-6.1 -0.8,-1.4 -1.2,-2.9 -1.1,-4.5 0.2,-1.4 1.1,-2.6 2.3,-3.2 0,0 -2.1,-6 -0.9,-10.5 1.2,-4.5 13.8,-55.9 14.3,-58.6 0.5,-2.7 -0.4,-6.9 -0.2,-8.3 0.1,-0.8 0.8,-1.4 1.6,-1.4 0,0 -1.4,-2 -1.2,-3.3 0.2,-1.3 2,-2.3 2,-2.3 0,0 1.7,-12.1 2.7,-18.1 1.1,-6 4.8,-18.4 4.8,-18.4 0,0 -1.3,-1 -0.1,-4.3 1.2,-3.3 2.4,-5.4 2.8,-6.3 0.4,-0.9 -0.7,-3.4 -0.7,-3.4 0,0 -3.3,-13 9.7,-10.6 13.2,2.5 1.9,13.1 1.4,14.1 -1.9,3.6 1.6,3.7 0.9,9.6 -0.3,2.1 -2.6,3.9 -2.6,3.9 l -1.7,18.3 -4.7,18 c 0,0 1.3,0.2 1,2.3 -0.2,1.1 -0.7,2.2 -1.5,3 0.1,1.1 0,2.2 -0.3,3.3 -0.4,1.4 -2.7,1.1 -3,2.9 -0.3,1.8 -9.5,62.7 -10.1,64.9 -0.6,2.2 -3.9,7.3 -3.9,7.3 1.2,0.8 1.7,2.3 1.4,3.7 -0.3,1.6 -1.1,3.1 -2.3,4.2 0,0 -1.5,17.6 -2.2,21 L 928,462.5 c 0,0 -3.9,1 -5.6,0.7 -1.7,-0.3 -5,-2.5 -5,-2.5 l 0,0.1 z"
             id="path118"
             inkscape:connector-curvature="0"
             style="fill:url(#SVGID_9_);stroke:#000000;stroke-width:1.01999998" /><linearGradient
             id="SVGID_10_"
             gradientUnits="userSpaceOnUse"
             x1="1386.488"
             y1="530.78857"
             x2="1405.8981"
             y2="531.43872"
             gradientTransform="translate(-601.88,-192.22)"><stop
               offset="0"
               style="stop-color:#4F2D17"
               id="stop121" /><stop
               offset="0.47"
               style="stop-color:#D28C5F"
               id="stop123" /><stop
               offset="1"
               style="stop-color:#4D2C16"
               id="stop125" /></linearGradient><path
             class="st14"
             d="m 786,453.3 c 0,0 0.3,-71.9 0.3,-73.2 0,-1.3 1.8,-6.7 1.8,-6.7 0,0 -2.7,-1.3 -2.2,-3.6 0.5,-2.3 3.1,-4 3.1,-4 0,0 -4.5,-4.5 -4,-8.9 0.5,-4.4 4.5,-54 4.5,-56.7 0,-2.7 -2.2,-5.8 -2.2,-7.1 0,-1.3 1.8,-4 1.8,-4 0,0 -2.2,-1.9 -2.2,-3.1 0,-1.2 1.9,-2.4 1.9,-2.4 l 0.8,-35.5 c 0,0 -2.7,-0.7 -2,-4 0.7,-3.3 3.8,-6.3 4,-7.1 0.2,-0.8 -2.5,-2 -2.5,-2 0,0 -6.9,-13.2 6.5,-12.1 13.4,1.1 4.8,12.3 4.5,13.4 -1.2,3.8 1.6,2.9 1.9,8.6 0.1,2 -1.9,4.1 -1.9,4.1 l 0,35.5 c 0,0 2.4,0.6 2.4,2.6 0,1.2 -0.8,2.2 -1.9,2.5 0.7,0.9 1.2,2 1.3,3.2 0,1.3 -2.2,2 -2.2,3.8 0,1.8 1.6,60.3 1.3,62.5 -0.3,2.2 -2.7,7.6 -2.7,7.6 0,0 2.5,1.6 2.5,4 -0.1,1.5 -0.9,3 -2.2,3.8 0,0 1.8,16.8 1.7,20.1 -0.3,7.4 -3.3,58.7 -3.3,58.7 0,0 -3.5,1.8 -5.4,1.9 -1.9,0.1 -5.6,-1.9 -5.6,-1.9 l 0,0 z"
             id="path127"
             inkscape:connector-curvature="0"
             style="fill:url(#SVGID_10_);stroke:#000000" /><path
             class="st15"
             d="m 800,281.9 c 0,0 66.3,6.4 76.1,6.4 9.8,0 72.9,-0.5 72.9,-0.5 l -0.7,1.6 c 0,0 -66.8,0.9 -74.1,0.5 -7.3,-0.4 -74.3,-6.2 -74.3,-6.2 l 0,-1.8 z"
             id="path129"
             inkscape:connector-curvature="0"
             style="fill:#855b3e" /><path
             class="st16"
             d="m 959.1,239.9 c 3.6,-0.5 7.2,0.1 10.5,1.6"
             id="path131"
             inkscape:connector-curvature="0"
             style="fill:none;stroke:#000000;stroke-width:1.01999998" /><path
             class="st16"
             d="m 956.3,252.4 c 0,0 8.3,-0.5 12.1,2.8"
             id="path133"
             inkscape:connector-curvature="0"
             style="fill:none;stroke:#000000;stroke-width:1.01999998" /><path
             class="st16"
             d="m 948.1,294.8 c 0,0 5.4,-1.4 12.5,2.2"
             id="path135"
             inkscape:connector-curvature="0"
             style="fill:none;stroke:#000000;stroke-width:1.01999998" /><path
             class="st17"
             d="m 946.8,300.5 c 0,0 7.3,-2 11.8,1.7"
             id="path137"
             inkscape:connector-curvature="0"
             style="fill:#a05b2b;stroke:#000000;stroke-width:1.01999998" /><path
             class="st18"
             d="m 933.6,373.8 c 0,0 8.1,-0.4 10.9,1.9"
             id="path139"
             inkscape:connector-curvature="0"
             style="fill:#6c5353;stroke:#000000;stroke-width:1.01999998" /><path
             class="st19"
             d="m 932.3,381.5 c 0,0 6.1,-0.3 10.7,2.5"
             id="path141"
             inkscape:connector-curvature="0"
             style="fill:#906f6f;stroke:#000000;stroke-width:1.01999998" /><path
             class="st20"
             d="m 791.1,236.1 c 0,0 3.2,-1.5 8.5,0.1"
             id="path143"
             inkscape:connector-curvature="0"
             style="fill:none;stroke:#000000" /><path
             class="st20"
             d="m 789.3,247.8 c 0,0 6.8,-2 11,0.4"
             id="path145"
             inkscape:connector-curvature="0"
             style="fill:none;stroke:#000000" /><path
             class="st20"
             d="m 789.1,288.7 c 0,0 4.2,-1.7 11.8,0.4"
             id="path147"
             inkscape:connector-curvature="0"
             style="fill:none;stroke:#000000" /><path
             class="st20"
             d="m 787.9,294.2 c 0,0 7.7,-2.4 12.8,0.2"
             id="path149"
             inkscape:connector-curvature="0"
             style="fill:none;stroke:#000000" /><path
             class="st20"
             d="m 788.9,365.7 c 0,0 5.8,-1.2 8.9,0.5"
             id="path151"
             inkscape:connector-curvature="0"
             style="fill:none;stroke:#000000" /><path
             class="st20"
             d="m 788.1,373.4 c 0,0 5.9,-1.5 10.9,0.3"
             id="path153"
             inkscape:connector-curvature="0"
             style="fill:none;stroke:#000000" /></g><g
           id="g8423"><path
             class="st8"
             d="m 698.5,465.1 0,16.1 c 5.1,1.8 10.4,3.1 15.8,4.1 6.6,1 86.8,10.7 90,10.7 3.2,0 48.6,0.6 53,0.6 4.4,0 24.3,-1.6 28.1,-1.6 3.8,0 49.3,-16.7 49.3,-16.7 l 0.3,-4.1 -0.6,-12.6 -4.1,-1.6 -115.5,-8.2 -12.3,-1 -20.5,0.6 -52.4,7 -26.8,4.7 -4.3,2 z"
             id="path156"
             inkscape:connector-curvature="0"
             style="fill:#d28c5f;stroke:#000000" /><path
             class="st20"
             d="m 698.8,465.4 c 0,0 27.1,8.2 36.3,8.2 9.2,0 79.2,6.6 84.6,6.6 5.4,0 59.7,0.3 59.7,0.3 0,0 7,-0.6 12,-1 5,-0.4 39.8,-13.2 41.7,-14.8 1.9,-1.6 1.2,-2.9 1.2,-2.9"
             id="path158"
             inkscape:connector-curvature="0"
             style="fill:none;stroke:#000000" /><linearGradient
             id="SVGID_11_"
             gradientUnits="userSpaceOnUse"
             x1="1526.9264"
             y1="665.92877"
             x2="1479.4865"
             y2="681.02881"
             gradientTransform="translate(-601.88,-192.22)"><stop
               offset="0"
               style="stop-color:#8F5228"
               id="stop161" /><stop
               offset="1"
               style="stop-color:#D28C5F"
               id="stop163" /></linearGradient><path
             class="st21"
             d="m 875.2,480.8 0.7,14.1 11.1,-0.4 24.5,-8.2 22.8,-8.3 0.3,-6.4 -0.5,-7.1 -18.9,7.8 c 0,0 -19.3,6.8 -25.1,7.7 -5,0.7 -9.9,0.9 -14.9,0.8 l 0,0 z"
             id="path165"
             inkscape:connector-curvature="0"
             style="fill:url(#SVGID_11_)" /></g></g></g><g
       id="g167">
       <!-- <image
         sodipodi:absref="/home/daniel/Projects/L2TOR_project/freeplay-sandbox/qt-gui/res/8EDAB5CD.png"
         xlink:href="8EDAB5CD.png"
         id="image169"
         transform="matrix(0.9956,0,0,0.9967,787.99,425.99)"
         height="301"
         width="226"
         style="overflow:visible;opacity:0.75;enable-background:new" /> -->
         <g
         id="g171"><path
           class="st22"
           d="m 913,547.3 c 16.2,23.3 21.8,45.3 17.1,63.4 -5.8,22.7 -30.1,33.3 -54.8,34 -28.1,0.8 -44.9,-16.5 -49.9,-27.1 -6.2,-12.9 -11.4,-44.9 16.3,-71"
           id="path173"
           inkscape:connector-curvature="0"
           style="fill:#a06121" /><path
           class="st23"
           d="m 841.2,562.3 -0.1,0 c -26.5,21.5 -18,47.2 -12.1,57.8 4.8,8.7 17.3,24.6 44.2,23.9 17.4,-0.4 34.5,-5.6 44.5,-15.8 l -0.3,0.3 c -1,0.7 -2.1,1.4 -3.2,2.1 -1.1,0.7 -2.2,1.3 -3.4,1.9 -1.2,0.6 -2.4,1.2 -3.6,1.7 -1.2,0.5 -2.5,1 -3.8,1.5 -1.3,0.5 -2.6,0.9 -4,1.3 -1.4,0.4 -2.7,0.7 -4.1,1 -1.4,0.3 -2.8,0.6 -4.2,0.8 -1.4,0.2 -2.9,0.5 -4.3,0.6 -1.4,0.1 -2.9,0.3 -4.4,0.4 -1.5,0.1 -2.9,0.2 -4.4,0.2 -1.7,0 -3.3,0 -4.9,0 -1.6,-0.1 -3.2,-0.2 -4.7,-0.4 -1.5,-0.2 -3,-0.4 -4.4,-0.7 -1.4,-0.3 -2.8,-0.6 -4.1,-1 -1.3,-0.4 -2.6,-0.8 -3.9,-1.2 -1.3,-0.4 -2.5,-0.9 -3.6,-1.4 -1.1,-0.5 -2.3,-1 -3.4,-1.6 -1.1,-0.6 -2.1,-1.1 -3.1,-1.7 -1,-0.6 -1.9,-1.2 -2.8,-1.8 -0.9,-0.6 -1.8,-1.3 -2.6,-1.9 -0.8,-0.6 -1.6,-1.3 -2.3,-2 -0.7,-0.7 -1.4,-1.3 -2.1,-2 -0.7,-0.7 -1.3,-1.3 -1.8,-2 -0.5,-0.7 -1.1,-1.3 -1.6,-1.9 -0.9,-1.1 -1.6,-2.3 -2.3,-3.5 -0.4,-0.7 -0.7,-1.4 -1.1,-2.2 -0.4,-0.8 -0.7,-1.6 -1,-2.5 -0.3,-0.9 -0.6,-1.8 -0.9,-2.8 -0.3,-1 -0.5,-2 -0.8,-3.1 -0.3,-1.1 -0.4,-2.2 -0.6,-3.4 -0.2,-1.2 -0.3,-2.3 -0.3,-3.6 0,-1.3 -0.1,-2.5 0,-3.8 0.1,-1.3 0.2,-2.6 0.3,-3.9 0.1,-1.3 0.4,-2.7 0.7,-4 0.3,-1.3 0.7,-2.8 1.1,-4.2 0.4,-1.4 1,-2.8 1.6,-4.2 0.6,-1.4 1.3,-2.8 2.1,-4.3 0.8,-1.4 1.7,-2.8 2.7,-4.3 1,-1.4 2.1,-2.8 3.3,-4.2 1.2,-1.4 2.5,-2.8 3.9,-4.2 l 0.1,-0.1 -0.3,0.2 z"
           id="path175"
           inkscape:connector-curvature="0"
           style="fill:#6e4a25" /><path
           class="st24"
           d="m 878.1,586 c -11.1,1.7 -16.1,10.4 -18.8,22.5 -3,13.8 9.1,28 21.4,30.7 12.3,2.7 24.7,-4.2 27.7,-18 3,-13.8 -1.9,-33.9 -13.8,-35.5 -1.5,-0.3 -15,0 -16.5,0.3 l 0,0 z"
           id="path177"
           inkscape:connector-curvature="0"
           style="fill:#956c45;stroke:#000000;stroke-width:3" /><path
           d="m 895.9,526.6 c 4.4,4.8 8.3,9.4 11.8,13.9 3.2,4.1 6.1,8.4 8.8,12.9 4.3,6.9 7.7,14.3 10.3,22.1 1.2,3.7 2.2,7.5 2.8,11.4 0.5,3.1 0.8,6.2 0.8,9.3 0,2.5 -0.1,5 -0.5,7.4 -0.3,2 -0.7,4 -1.2,6 -0.2,0.7 -0.4,1.3 -0.6,1.9 -0.6,1.9 -1.4,3.8 -2.3,5.7 -1.2,2.4 -2.6,4.7 -4.3,6.8 -1.6,2 -3.4,3.9 -5.4,5.6 -2.1,1.8 -4.4,3.5 -6.8,4.9 -2.5,1.5 -5.1,2.8 -7.8,4 -2.6,1.1 -5.3,2 -8,2.8 l 0,0 c -3.4,0.9 -6.8,1.6 -10.2,2.1 -3.1,0.4 -5.7,0.6 -7.7,0.7 -0.7,0 -1.3,0 -1.8,0.1 -2.2,0 -4.5,-0.1 -6.7,-0.4 -3.4,-0.4 -6.8,-1.2 -10.1,-2.3 -9.4,-3.1 -17.8,-8.8 -24.2,-16.5 -1.1,-1.4 -2.2,-2.8 -3.2,-4.3 -0.9,-1.4 -1.7,-2.8 -2.4,-4.4 -1,-2.2 -1.9,-4.5 -2.5,-6.9 -0.6,-2.1 -1,-4.1 -1.3,-5.6 -0.2,-1 -0.3,-1.9 -0.5,-2.7 -0.3,-2.1 -0.6,-4.2 -0.7,-6.4 -0.2,-2.8 -0.1,-5.6 0.1,-8.3 0.3,-3.3 0.8,-6.6 1.6,-9.8 0.9,-3.4 2.1,-6.8 3.5,-10 1.6,-3.4 3.4,-6.6 5.6,-9.7 2,-2.8 4.2,-5.5 6.6,-7.9 0.9,-0.9 1.5,-1.5 1.9,-1.9 0.4,-0.4 0.5,-0.6 0.5,-0.6 -1,0.6 -2,1.4 -2.9,2.2 -5.4,4.9 -9.9,10.6 -13.3,17.1 l 0,0 c -1.6,3.1 -3,6.4 -4,9.7 -1.1,3.5 -1.8,7.1 -2.2,10.7 -0.4,3.1 -0.5,6.3 -0.3,9.5 0.1,2.9 0.5,5.9 1,8.7 0.5,2.6 1.1,5.1 2,7.6 0.7,1.9 1.4,3.8 2.3,5.6 1.7,3.3 3.8,6.3 6.3,9 l 0,0 c 6.9,7.6 15.8,13.2 25.7,16.1 l 0,0 c 3.4,1 6.9,1.7 10.4,2 2.9,0.3 5.8,0.4 8.6,0.3 1.2,0 2.3,-0.1 3.4,-0.1 1.5,-0.1 3.5,-0.2 6.1,-0.5 3,-0.4 5.9,-0.9 8.9,-1.6 2.7,-0.7 5.4,-1.5 8.1,-2.5 2.9,-1.1 5.8,-2.4 8.5,-3.9 l 0,0 c 2.5,-1.4 4.8,-3 7,-4.7 2.2,-1.8 4.3,-3.8 6.2,-6 1.9,-2.3 3.5,-4.7 4.9,-7.4 1.3,-2.5 2.3,-5.2 3,-7.9 1.1,-4.4 1.7,-9 1.6,-13.5 0,-3.4 -0.4,-6.7 -1,-10 -0.3,-1.6 -0.7,-3.4 -1.3,-5.4 -0.6,-2 -1.3,-4.2 -2.1,-6.5 -1,-2.7 -2.2,-5.5 -3.5,-8.3 -1.4,-2.9 -2.9,-5.7 -4.6,-8.6 -1.7,-2.8 -3.5,-5.6 -5.3,-8.2 -1.8,-2.6 -3.7,-5.1 -5.6,-7.5 -3.7,-4.6 -7.2,-8.5 -9.7,-11.3 -2.5,-2.8 -4.3,-4.5 -4.3,-4.5 l 0,0 z"
           id="path179"
           inkscape:connector-curvature="0" /><path
           class="st22"
           d="m 822.8,640.8 c -0.7,-11 0.7,-25.6 14.3,-25.8 10.8,-0.2 21.4,9.6 23.6,21.1"
           id="path181"
           inkscape:connector-curvature="0"
           style="fill:#a06121" /><path
           class="st22"
           d="m 952.2,628.4 c 0,0 -5.1,-15.2 -10.1,-20.1 -1.3,-1.3 -6.5,-5.2 -11.3,-4.1 -12.1,3 -18.8,16.4 -22.2,26.8 -0.4,1.5 -2.6,7.3 -0.7,11.4"
           id="path183"
           inkscape:connector-curvature="0"
           style="fill:#a06121" /><path
           class="st23"
           d="m 909.4,639.9 c -1.9,-4 1.7,-9.4 2.2,-10.9 0.6,-2 2.7,-5.2 2.2,-7.5 -1.5,3 -4.1,7.1 -5,10 -0.4,1.5 -2.6,7.3 -0.7,11.4 15.7,-2 9.2,-5.2 1.3,-3 l 0,0 z"
           id="path185"
           inkscape:connector-curvature="0"
           style="fill:#6e4a25" /><path
           d="m 822.9,641 c -0.2,-2.9 -0.2,-5.7 0.2,-8.6 l 0,0 c 0.2,-1.6 0.5,-3.2 1,-4.8 0.3,-1.1 0.8,-2.2 1.3,-3.3 l 0,0 c 0.4,-0.7 0.8,-1.4 1.3,-2.1 0.4,-0.6 0.8,-1 1.1,-1.5 0.6,-0.8 1.3,-1.5 2,-2.1 1,-0.8 2.1,-1.5 3.3,-1.9 1.3,-0.5 2.6,-0.8 4,-0.9 1.2,-0.1 2.5,-0.1 3.7,0.1 0.6,0.1 1.1,0.2 1.6,0.4 0.8,0.3 1.6,0.6 2.4,1 1.3,0.7 2.5,1.4 3.6,2.3 1.1,0.9 2.1,1.8 3.1,2.8 1.2,1.2 2,2.2 2.5,2.7 0.6,0.6 1.1,1.2 1.7,1.8 0.7,0.9 1.3,1.8 1.9,2.7 0.6,1 1.2,2.1 1.6,3.2 0.4,1 0.8,2.1 1,3.2 0.1,0.5 0.2,0.7 0.3,0.7 0.1,0 0.2,-0.2 0.2,-0.7 0.1,-1.4 0.1,-2.9 -0.3,-4.3 -0.2,-1 -0.5,-2 -0.8,-3 -0.4,-1 -0.8,-2 -1.4,-3 -0.5,-0.9 -1.1,-1.8 -1.8,-2.7 -0.6,-0.7 -1.2,-1.4 -1.9,-1.9 -0.4,-0.3 -0.8,-0.6 -1.2,-0.9 -1.3,-0.9 -2.6,-1.8 -4,-2.5 -1.3,-0.7 -2.7,-1.3 -4.1,-1.8 -1,-0.4 -2.1,-0.7 -3.2,-0.9 -1,-0.2 -1.8,-0.4 -2.4,-0.5 -0.9,-0.2 -1.8,-0.3 -2.7,-0.4 -1.4,-0.1 -2.8,0 -4.2,0.3 -1.7,0.3 -3.2,1 -4.6,2 -1.3,0.9 -2.5,2.1 -3.4,3.4 -0.8,1.1 -1.4,2.2 -1.8,3.4 -0.1,0.4 -0.3,0.8 -0.4,1.2 -0.3,1.1 -0.4,2.3 -0.5,3.4 -0.1,1.4 -0.2,2.9 -0.1,4.4 0.1,2 0.3,4 0.6,6 0.2,1.7 0.4,2.8 0.4,2.8 l 0,0 z"
           id="path187"
           inkscape:connector-curvature="0" /><path
           class="st23"
           d="m 932,604.9 c -0.6,0 -1.2,0.1 -1.8,0.2 -4.5,1.2 -8.5,3.7 -11.6,7.2 l 0.1,-0.1 c 0.6,-0.5 1.1,-1 1.7,-1.5 0.6,-0.5 1.2,-0.9 1.8,-1.3 0.6,-0.4 1.3,-0.8 2,-1.1 0.7,-0.3 1.4,-0.6 2.1,-0.9 0.7,-0.3 1.5,-0.5 2.2,-0.7 0.6,-0.1 1.2,-0.2 1.8,-0.2 0.6,0 1.2,0.1 1.8,0.2 0.6,0.1 1.2,0.3 1.7,0.5 0.6,0.2 1.1,0.4 1.6,0.7 0.9,0.5 1.9,1 2.7,1.6 0.6,0.4 1.1,0.9 1.7,1.3 0.7,0.7 1.3,1.4 1.8,2.3 0.6,0.9 1.2,1.9 1.8,2.9 0.6,1 1.2,2.2 1.7,3.3 0.5,1.1 1.1,2.3 1.5,3.4 1,2.2 1.8,4.3 2.3,5.8 0.3,0.9 0.4,1.1 0.5,1.5 l 1.9,-0.6 c 0,0 -5.1,-15.2 -10.1,-20.1 -0.9,-1.2 -5,-4.3 -9.2,-4.4 l 0,0 z"
           id="path189"
           inkscape:connector-curvature="0"
           style="fill:#6e4a25" /><path
           d="m 952,627.2 c -1,-2.9 -1.9,-5.5 -2.6,-7.8 l 0,0 c -1,-2.6 -1.9,-4.7 -2.8,-6.5 -0.5,-1.1 -1.1,-2.1 -1.7,-3.1 -0.5,-0.8 -1.1,-1.6 -1.8,-2.4 -0.5,-0.6 -1.1,-1.1 -1.7,-1.6 -0.8,-0.6 -1.6,-1.2 -2.4,-1.6 l -0.4,-0.2 c -1,-0.5 -2.2,-0.9 -3.3,-1.2 -1.5,-0.3 -3.1,-0.3 -4.6,0.1 l 0,0 c -1.7,0.5 -3.3,1.2 -4.8,2.1 -1.3,0.7 -2.4,1.6 -3.5,2.6 -0.7,0.6 -1.2,1.1 -1.6,1.5 -0.4,0.4 -1.1,1.1 -2,2 -1.1,1 -2.1,2.1 -3,3.3 -0.8,1 -1.7,2.1 -2.4,3.3 -0.7,1.2 -1.5,2.3 -2.1,3.4 -0.9,1.6 -1.7,3.3 -2.4,5 -0.3,1.1 -0.9,2.8 -1.5,4.8 -0.5,1.9 -0.8,3.8 -0.9,5.8 -0.1,1.3 0,2.5 0.2,3.8 0.1,0.8 0.4,1.5 0.8,2.2 0.1,0.2 0.3,0.4 0.5,0.6 0.1,0.1 0.2,0.2 0.3,0.3 0.2,0.1 0.1,0 0,-0.3 -0.2,-0.3 -0.4,-0.7 -0.5,-1.1 -0.2,-0.6 -0.2,-1.2 -0.2,-1.8 0,-0.5 0.1,-1.1 0.2,-1.6 0.1,-0.6 0.2,-1.2 0.4,-1.8 0.5,-1.7 1,-3.5 1.7,-5.1 0.6,-1.3 1.1,-2.6 1.7,-3.8 0.6,-1.2 1,-2.3 1.3,-3.2 0.5,-1.6 1.2,-3.2 1.9,-4.8 0.7,-1.5 1.5,-3 2.3,-4.5 0.8,-1.4 1.8,-2.7 2.8,-3.9 0.8,-0.9 1.6,-1.7 2.6,-2.4 l 0.5,-0.4 c 1,-0.7 2.1,-1.3 3.3,-1.8 1.5,-0.7 3.2,-1.2 4.8,-1.5 l 0,0 c 1,-0.2 2.1,-0.1 3.1,0.2 1,0.3 2,0.7 3,1.2 0.9,0.5 1.7,1 2.5,1.6 0.5,0.4 1,0.8 1.5,1.2 0.5,0.5 1,1 1.3,1.3 0.3,0.3 0.7,0.8 1.1,1.3 0.4,0.5 0.8,1.1 1.3,1.8 1.3,1.9 2.5,3.9 3.5,6 l 3.5,7.5 0.1,-0.5 z"
           id="path191"
           inkscape:connector-curvature="0" /><path
           class="st22"
           d="m 843.1,543.2 c 0,0 -13.8,7.9 -21.7,19.9 -6.6,10.1 -14.3,30.4 -14.1,43.7 0.2,10.4 5.9,20.8 13.5,22.3 6.1,1.2 15,-1.4 16.8,-4.4 9.5,-16 1.1,-25.2 0.6,-41.6 -0.4,-13.2 1.5,-16.9 3.4,-22.4 0.8,-2.1 7.4,-14.7 7.4,-14.7"
           id="path193"
           inkscape:connector-curvature="0"
           style="fill:#a06121" /><path
           class="st22"
           d="m 915.2,467.1 c 0,0 7.6,-11.3 9.5,-13.1 1.9,-1.8 2.5,-4.4 7.1,-5 4.6,-0.6 12,2.2 13.6,3.3 1.6,1.1 7.9,5.4 9.1,6.9 1.2,1.5 2.1,6.3 2,9.5 -0.1,3.2 -3.2,10.3 -4.4,11.5 -1.2,1.2 -7.9,7.5 -10.1,8.2 -2.2,0.7 -14,2.5 -14,2.5 l -12.8,-23.8 z"
           id="path195"
           inkscape:connector-curvature="0"
           style="fill:#a06121" /><path
           class="st23"
           d="m 840.8,544.5 c -4.1,2.6 -13.5,9.3 -19.6,18.6 -6.6,10.1 -14.3,30.4 -14.1,43.7 0.2,10.4 5.9,20.8 13.5,22.2 5.9,1.2 14.4,-1.3 16.6,-4.1 -0.4,0.2 -0.8,0.4 -1.2,0.5 -0.8,0.3 -1.5,0.5 -2.3,0.8 -0.8,0.2 -1.6,0.4 -2.5,0.5 -0.9,0.1 -1.7,0.3 -2.6,0.3 -0.8,0 -1.7,0 -2.5,0 -0.8,0 -1.6,-0.1 -2.4,-0.3 -0.5,-0.1 -0.9,-0.2 -1.4,-0.4 -0.5,-0.2 -0.9,-0.4 -1.3,-0.6 -0.9,-0.5 -1.8,-1 -2.5,-1.7 -0.8,-0.7 -1.6,-1.5 -2.3,-2.3 -0.7,-0.9 -1.4,-1.8 -2,-2.8 -0.6,-1 -1.2,-2.1 -1.6,-3.3 -0.5,-1.2 -0.9,-2.4 -1.2,-3.6 -0.3,-1.2 -0.6,-2.5 -0.8,-3.8 -0.2,-1.3 -0.3,-2.6 -0.3,-3.9 0,-1.8 0.1,-3.5 0.3,-5.3 0.2,-1.8 0.5,-3.8 0.9,-5.7 0.4,-1.9 0.9,-4 1.5,-6 0.6,-2 1.2,-4 1.9,-6 0.7,-2 1.4,-4 2.2,-5.9 0.8,-1.9 1.6,-3.8 2.4,-5.5 0.8,-1.7 1.7,-3.4 2.5,-5 0.8,-1.6 1.7,-3 2.5,-4.2 1,-1.5 2,-2.9 3.2,-4.3 1.1,-1.4 2.3,-2.6 3.5,-3.9 1.2,-1.3 2.4,-2.4 3.6,-3.4 1.2,-1.1 2.4,-2 3.5,-2.9 1.1,-0.9 1.6,-1.1 2.5,-1.7 l 0,0 z"
           id="path197"
           inkscape:connector-curvature="0"
           style="fill:#6e4a25" /><path
           class="st22"
           d="m 822.4,492.6 c 0,0 -1.9,16.7 -0.9,19.5 0.9,2.8 5,18 5.6,19.2 0.6,1.2 11.2,13.3 14.3,14.9 3.1,1.6 13.6,5.6 13.6,5.6 0,0 25.7,4 33.5,3.1 7.8,-0.9 19.5,-2.2 22.9,-5.3 2.7,-2.4 8.7,-4.8 11.8,-7.4 4,-3.4 8.7,-4.3 10.8,-6.5 2.2,-2.2 6.8,-10.9 7.4,-17.4 0.6,-6.5 0,-17.4 -1.9,-21.4 -2,-4.3 -4,-8.1 -5.3,-10.5 -1.3,-2.4 -15.5,-20.5 -17.7,-23.9 -2.2,-3.4 -11.8,-11.2 -14.6,-11.8 -2.8,-0.6 -21.4,-4 -26.7,-3.4 -5.3,0.6 -18,6.5 -20.8,8.4 -2.8,1.9 -13.6,13 -15.2,14.9 -1.6,1.9 -16.8,18.3 -16.8,22 l 0,0 z"
           id="path199"
           inkscape:connector-curvature="0"
           style="fill:#a06121" /><path
           class="st25"
           d="m 867.8,553.5 c 7.8,1 16.5,1.8 20.7,1.3 7.8,-0.9 19.5,-2.2 22.9,-5.3 2.7,-2.4 8.7,-4.8 11.8,-7.4 4,-3.4 8.7,-4.4 10.8,-6.5 2.1,-2.1 6.8,-10.8 7.4,-17.4 0.6,-6.5 0,-17.4 -1.9,-21.4 -1.3,-2.7 -2.5,-5.2 -3.6,-7.2 2.1,-0.3 4.1,-0.7 6.1,-1.3 2.2,-0.8 8.9,-7 10.1,-8.2 1.2,-1.2 4.3,-8.2 4.4,-11.5 0.1,-3.3 -0.8,-8 -2,-9.5 -1.2,-1.5 -7.5,-5.8 -9.1,-6.9 -3.7,-2 -7.8,-3.1 -11.9,-3.4 1.2,0.2 2.3,0.4 3.5,0.8 1.2,0.3 2.4,0.8 3.5,1.2 0.8,0.3 1.5,0.7 2.2,1.1 0.8,0.5 2.8,1.9 4.7,3.3 1,0.7 1.9,1.4 2.7,2 0.6,0.5 1.2,1 1.7,1.6 0.4,0.5 0.6,1.1 0.8,1.7 0.3,0.8 0.5,1.6 0.6,2.4 0.2,0.9 0.3,1.8 0.4,2.8 0.1,0.9 0.1,1.8 0.1,2.7 -0.1,1 -0.3,2 -0.6,3 -0.3,1.2 -0.8,2.4 -1.2,3.5 -0.5,1.2 -1,2.3 -1.4,3.1 -0.3,0.7 -0.7,1.3 -1.2,1.9 -0.6,0.6 -2.6,2.5 -4.7,4.3 -1,0.9 -2.1,1.8 -3.1,2.5 -0.7,0.6 -1.5,1.1 -2.3,1.4 -0.8,0.2 -1.6,0.4 -2.4,0.6 -1.1,0.2 -2.4,0.5 -3.7,0.7 1.1,2.1 2.3,4.5 3.6,7.2 0.3,0.6 0.5,1.2 0.6,1.8 0.2,0.7 0.4,1.5 0.5,2.3 0.3,1.9 0.6,3.7 0.7,5.6 0.2,2 0.2,4.1 0.2,6.1 0,2 -0.1,3.9 -0.2,5.5 -0.1,0.8 -0.2,1.7 -0.4,2.5 -0.2,0.9 -0.4,1.7 -0.7,2.6 -0.6,1.8 -1.2,3.5 -2,5.2 -0.7,1.5 -1.5,2.9 -2.3,4.3 -0.6,1 -1.2,1.9 -2,2.7 -0.3,0.3 -0.6,0.5 -0.9,0.8 -0.4,0.2 -0.7,0.5 -1.1,0.7 -0.8,0.5 -1.7,0.9 -2.7,1.3 -1,0.5 -2,1 -3,1.6 -1.1,0.6 -2.1,1.3 -3.1,2.2 -0.9,0.7 -1.8,1.3 -2.8,1.9 -1,0.6 -2.2,1.3 -3.3,1.9 -1.1,0.6 -2.2,1.2 -3.2,1.8 -0.9,0.5 -1.8,1.1 -2.5,1.8 -0.5,0.4 -1.1,0.8 -1.7,1.1 -0.7,0.4 -1.5,0.7 -2.3,0.9 -0.8,0.3 -1.8,0.5 -2.8,0.8 -1,0.3 -2,0.5 -3.1,0.7 -2.2,0.4 -4.5,0.8 -6.7,1 -2.2,0.2 -4.4,0.6 -6.4,0.8 -1.2,0.1 -2.4,0.2 -3.7,0.1 -1.5,0 -3.1,-0.1 -4.8,-0.2 -2.8,-0.2 -6.1,-0.6 -9.2,-0.9 l 0,0 z"
           id="path201"
           inkscape:connector-curvature="0"
           style="fill:#b8854f" /><path
           class="st23"
           d="m 902.8,495.9 c -1.5,-0.8 -1.8,-4 -2.6,-2.4 -1,2.1 -0.7,4.6 0.8,6.4 1,1 7.2,1.8 7.2,0 0,-1.8 -3.9,-3.2 -5.4,-4 l 0,0 z"
           id="path203"
           inkscape:connector-curvature="0"
           style="fill:#6e4a25" /><path
           class="st23"
           d="m 884.7,498.7 c 0,-1.4 0,-4.5 0.1,-8.3 0.1,-3.2 0.2,-6.8 0.3,-10.2 0.1,-1.3 0.1,-2.6 0.2,-3.7 0,-0.4 0.1,-0.9 0.1,-1.3 0,-0.2 0.1,-0.5 0.1,-0.7 0.1,-0.5 0.2,-1.1 0.2,-1.6 l 0,0 c 0.1,-1.1 0.1,-1.9 0.1,-2.6 0,-0.1 0,-0.1 0,-0.2 0,-1.5 0,-3.8 -0.1,-6.5 -0.1,-2.1 -0.2,-4.5 -0.5,-6.9 -0.1,-0.9 -0.2,-1.8 -0.4,-2.7 -0.1,-0.6 -0.3,-1.3 -0.6,-1.9 -0.5,-1.1 -1,-2.2 -1.7,-3.2 -0.1,-0.2 -0.3,-0.5 -0.5,-0.7 -0.2,-0.2 -0.4,-0.4 -0.6,-0.5 -0.1,-0.1 -0.3,-0.2 -0.5,-0.2 -0.1,0 -0.2,0 -0.2,0 l 0,0 c 0.2,0.1 0.5,0.2 0.7,0.4 0.2,0.1 0.3,0.3 0.4,0.5 0.2,0.2 0.3,0.5 0.4,0.7 0.2,0.4 0.5,0.9 0.7,1.5 0.2,0.6 0.5,1.2 0.8,1.8 0.2,0.6 0.4,1.2 0.5,1.8 0.1,0.9 0.2,1.8 0.3,2.7 0.2,2.2 0.2,4.5 0.2,6.8 0,2.3 0,4.6 -0.1,6.7 l 0,0 c 0,0.9 -0.1,1.7 -0.1,2.5 0,0.4 -0.1,0.9 -0.1,1.2 0,0.1 0,0.2 -0.1,0.3 l 0,0 c -0.1,0.3 -0.1,0.6 -0.1,0.8 l 0,0 c 0,0.4 -0.1,0.9 -0.1,1.3 l 0,0 c 0,1.3 -0.1,2.5 -0.1,3.8 l 0,0 c 0,3.5 0,7 0,10.2 0,4.4 0.1,8.1 0,10.3 0.2,4.9 0.7,5.2 0.7,-2.1 l 0,0 z"
           id="path205"
           inkscape:connector-curvature="0"
           style="fill:#6e4a25" /><path
           d="m 844.1,542.3 -8.3,5.8 c -3,2.3 -5.9,4.7 -8.6,7.3 -2.3,2.2 -4.5,4.6 -6.5,7.2 l 0,0 c -1.2,1.6 -2.3,3.2 -3.3,5 -1,1.6 -1.8,3.2 -2.5,4.6 -1.1,2.2 -2,4.3 -2.8,6.2 -0.8,1.9 -1.4,3.7 -2,5.3 -0.8,2.4 -1.5,4.5 -2,6.5 -0.5,2 -0.9,3.7 -1.2,5.3 l 0,0.2 c -0.2,1.3 -0.5,2.9 -0.7,4.8 -0.2,2.1 -0.3,4.2 -0.2,6.4 0,2.1 0.2,4.1 0.5,6.1 0.3,2.2 0.9,4.3 1.8,6.4 0.8,1.7 1.9,3.3 3.3,4.6 1.3,1.3 2.7,2.4 4.2,3.3 l 0,0 c 1.2,0.8 2.5,1.4 3.9,1.8 1.2,0.4 2.5,0.7 3.8,0.8 1.9,0.2 3.8,0.1 5.7,-0.2 l 0.6,-0.1 c 0.6,-0.1 1.4,-0.3 2.3,-0.6 1.1,-0.3 2.1,-0.7 3.2,-1.3 0.8,-0.4 1.6,-0.9 2.3,-1.5 0.8,-0.6 1.6,-1.4 2.2,-2.2 l 0,0 c 1,-1.3 1.9,-2.7 2.5,-4.2 0.7,-1.6 1.2,-3.3 1.5,-5.1 l 0,0 c 0.2,-1.7 0.3,-3.3 0.2,-5 -0.1,-1.6 -0.3,-3.3 -0.5,-4.9 l 0,0 c -0.3,-1.9 -0.7,-3.8 -1,-5.5 -0.3,-1.7 -0.7,-3.4 -1,-5 -0.4,-2.2 -0.7,-4.2 -1,-5.8 -0.3,-1.6 -0.3,-3 -0.4,-3.9 0,-0.5 -0.1,-1 -0.1,-1.6 -0.1,-1.7 -0.2,-3.7 -0.2,-6 -0.1,-2.4 0.1,-4.8 0.3,-7.2 0.2,-1.3 0.5,-2.6 0.8,-3.8 0.4,-1.3 0.8,-2.6 1.3,-3.9 1.5,-4.1 3.3,-8.1 5,-11.7 l 1.6,-3.3 c 0.4,-0.7 0.7,-1.4 0.9,-2.2 l 0,0 c -1.2,-0.6 -1.2,-0.6 0,0 l 0,0 c -0.2,-0.1 -1.4,1.9 -3.4,5 -2.2,3.7 -4.2,7.5 -6,11.4 -1.2,2.5 -2.2,5.2 -2.8,8 -0.4,2.3 -0.7,4.7 -0.8,7 -0.1,2.3 -0.1,4.5 0,6.7 0.1,3 0.4,6 1.1,9 0.2,0.9 0.4,1.9 0.7,2.8 0.9,3.5 1.9,6.9 2.7,10.3 0.4,1.5 0.6,3.1 0.8,4.7 0.2,1.5 0.2,3.1 0.1,4.6 -0.1,1.6 -0.5,3.2 -1.1,4.7 -0.6,1.4 -1.3,2.8 -2.2,4 -1.1,1.4 -2.5,2.6 -4.1,3.5 -2.7,1.4 -5.7,2.1 -8.7,2.1 -1.4,0 -2.7,-0.2 -4,-0.6 -1.9,-0.5 -3.7,-1.3 -5.4,-2.5 -1.3,-0.9 -2.5,-2 -3.6,-3.1 -1.2,-1.2 -2.1,-2.7 -2.8,-4.3 l 0,0 c -0.7,-1.8 -1.2,-3.7 -1.4,-5.6 -0.2,-2 -0.3,-4.1 -0.3,-6.1 0.1,-3.6 0.4,-7.1 1.1,-10.6 0.8,-3.9 1.8,-7.8 3,-11.7 0.6,-2 1.2,-3.7 1.7,-5.1 0.6,-1.7 1.4,-3.9 2.4,-6.3 1.4,-3.4 3.1,-6.6 5.2,-9.6 l 0,0 c 2.1,-2.9 4.4,-5.7 6.9,-8.3 2.3,-2.3 4.8,-4.6 7.3,-6.7 l 8.1,-6.1 -0.1,0.2 z"
           id="path207"
           inkscape:connector-curvature="0" /><path
           class="st23"
           d="m 849.8,460 c -4.2,4 -9.3,9.3 -10.4,10.6 -1.5,1.9 -17,18.3 -17,22 0,0 -1.9,16.7 -0.9,19.5 1,2.8 5,18 5.6,19.2 0.6,1.2 11.2,13.3 14.3,14.9 3.1,1.5 13.6,5.6 13.6,5.6 0,0 25.7,4 33.5,3.1 7.8,-0.9 19.5,-2.2 23,-5.3 2.7,-2.4 8.7,-4.8 11.8,-7.4 4,-3.4 8.7,-4.4 10.8,-6.5 0.9,-1 1.7,-2.2 2.4,-3.4 -0.6,0.3 -1.2,0.6 -1.8,0.9 -1,0.5 -2,1 -3,1.6 -1.1,0.6 -2.1,1.4 -3.1,2.2 -0.9,0.7 -1.8,1.4 -2.8,1.9 -1,0.6 -2.2,1.3 -3.3,1.9 -1.1,0.6 -2.2,1.2 -3.2,1.8 -0.9,0.5 -1.8,1.1 -2.5,1.8 -0.5,0.4 -1,0.8 -1.6,1.1 -0.7,0.4 -1.5,0.7 -2.3,0.9 -0.8,0.3 -1.8,0.5 -2.8,0.8 -1,0.3 -2,0.4 -3.1,0.7 -2.2,0.4 -4.5,0.8 -6.7,1 -2.2,0.2 -4.5,0.5 -6.4,0.8 -1.2,0.1 -2.4,0.2 -3.7,0.1 -1.5,0 -3.1,-0.1 -4.8,-0.2 -3.5,-0.3 -7.4,-0.7 -11.1,-1.1 -7.4,-0.9 -13.8,-1.9 -13.8,-1.9 0,0 -2.6,-1 -5.7,-2.2 -3,-1.2 -6.4,-2.6 -8,-3.4 -0.5,-0.3 -1,-0.6 -1.5,-1 -0.6,-0.5 -1.3,-1.1 -2,-1.8 -1.4,-1.4 -3.1,-3.1 -4.6,-4.8 -1.5,-1.7 -3,-3.4 -4.2,-4.7 -0.7,-0.8 -1.4,-1.7 -2,-2.6 -0.3,-0.6 -1.5,-4.7 -2.7,-9 -1.2,-4.3 -2.4,-8.8 -2.9,-10.2 -0.1,-0.5 -0.2,-1.1 -0.2,-1.6 0,-0.7 0,-1.6 0,-2.6 0,-2 0.2,-4.3 0.4,-6.6 0.3,-4.5 0.8,-8.7 0.8,-8.7 0,-0.3 0.1,-0.6 0.2,-0.8 0.1,-0.4 0.3,-0.7 0.5,-1.1 0.5,-1 1.1,-1.9 1.8,-2.8 0.7,-1 1.6,-2.2 2.5,-3.4 0.9,-1.2 1.9,-2.4 3,-3.6 2,-2.4 4.1,-4.8 5.8,-6.6 1.7,-1.8 2.9,-3.2 3.3,-3.7 0.3,-0.8 2.7,-3.2 4.8,-5.4 l 0,0 z"
           id="path209"
           inkscape:connector-curvature="0"
           style="fill:#6e4a25" /><path
           class="st22"
           d="m 915.5,543.1 c 0,0 15.3,4.2 26,13.9 8.9,8.1 21.5,26 24.7,39.1 2.5,10.3 0.8,20.8 -6.1,24.1 -5.6,2.7 -16.2,3.5 -18.7,1 -13.3,-13.4 -7.4,-24.6 -11.2,-40.8 -3,-13.1 -9.5,-17.7 -10.3,-19.8 -0.8,-2.1 -9.5,-13.3 -9.5,-13.3"
           id="path211"
           inkscape:connector-curvature="0"
           style="fill:#a06121" /><path
           class="st25"
           d="m 917.5,543.9 -2.8,2.5 c 0,0 2,-1.4 3.3,-0.8 1.3,0.6 3.3,1.4 5.6,2.5 1.1,0.6 2.3,1.2 3.6,2 1.3,0.8 2.5,1.5 3.8,2.4 1.3,0.9 2.6,1.8 3.8,2.9 1.3,1 2.5,2.1 3.7,3.3 1,1 2,2.1 3.1,3.4 1.1,1.3 2.4,3.7 3.6,5.3 1.2,1.6 2.5,3.1 3.7,4.8 1.2,1.7 2.4,3.4 3.6,5.2 1.2,1.8 2.3,3.6 3.3,5.4 1,1.8 2,3.7 2.9,5.5 0.9,1.8 1.7,3.6 2.3,5.4 0.6,1.7 1.2,3.4 1.6,5.1 0.3,1.3 0.6,2.6 0.7,3.9 0.2,1.3 0.3,2.5 0.3,3.8 0,1.2 0,2.4 -0.1,3.6 -0.1,1.1 -0.3,2.3 -0.5,3.4 -0.2,1 -0.6,2.1 -1,3.1 -0.4,0.9 -0.8,1.8 -1.4,2.7 -0.3,0.4 -0.6,0.7 -0.9,1.1 l 0.1,0 c 6.9,-3.3 8.6,-13.8 6.1,-24.1 -3.2,-13.1 -15.8,-31 -24.7,-39.1 -10.4,-9.9 -23.7,-13.2 -23.7,-13.3 l 0,0 z"
           id="path213"
           inkscape:connector-curvature="0"
           style="fill:#b8854f" /><path
           d="m 916.2,543.1 8.5,3.7 c 3.1,1.6 6.2,3.3 9.1,5.3 2.5,1.7 4.9,3.5 7.1,5.6 1.4,1.3 2.7,2.6 3.8,3.9 1.1,1.3 2.2,2.5 3.2,3.8 2.6,3.2 4.9,6.6 7.1,10.1 1.4,2.3 2.5,4.3 3.5,6.1 1,1.8 1.7,3.4 2.4,4.9 l 0.1,0.3 c 0.5,1.1 1.2,2.6 1.9,4.3 0.8,1.9 1.4,3.8 1.9,5.8 0.6,2.3 1,4.6 1.2,7 0.2,2.4 0.1,4.9 -0.4,7.3 -0.3,1.9 -1,3.8 -2,5.5 -0.5,0.8 -1.1,1.5 -1.7,2.1 -0.6,0.6 -1.3,1.1 -2,1.5 -1.5,0.8 -3.1,1.3 -4.7,1.7 -1.2,0.3 -2.3,0.5 -3.5,0.7 -0.5,0.1 -1.2,0.2 -2,0.2 -0.8,0 -1.4,0.1 -2.2,0 -0.9,0 -1.8,-0.1 -2.6,-0.3 -0.6,-0.1 -1.2,-0.3 -1.7,-0.5 -0.4,-0.1 -0.7,-0.4 -1,-0.7 -1.3,-1.4 -2.5,-2.9 -3.6,-4.4 -1.1,-1.7 -2.1,-3.5 -2.9,-5.3 l 0,0 c -1.1,-3 -1.8,-6.2 -2,-9.4 -0.1,-1.8 -0.2,-3.6 -0.2,-5.3 0,-1.7 -0.1,-3.4 -0.1,-4.9 -0.1,-1.7 -0.2,-3.2 -0.3,-4.5 -0.1,-1.3 -0.3,-2.3 -0.4,-3.1 -0.2,-1.1 -0.5,-2.5 -0.9,-4.1 -0.7,-2.8 -1.5,-5.5 -2.5,-8.1 l 0,0 c -0.7,-1.8 -1.6,-3.6 -2.6,-5.3 -0.8,-1.3 -1.7,-2.5 -2.6,-3.7 l 0,0 c -0.9,-1.1 -1.8,-2.2 -2.6,-3.4 -0.3,-0.4 -0.6,-0.8 -0.8,-1.1 -0.4,-0.5 -0.9,-1 -1.3,-1.5 -1.1,-1.3 -2.2,-2.5 -3.3,-3.8 l -2.8,-3.2 -0.2,-0.3 c -0.4,-0.5 -0.8,-0.8 -1,-1.1 -0.1,-0.1 -0.2,-0.2 -0.3,-0.3 l -0.1,-0.1 0,0 -0.6,0.5 -0.2,0.2 0,0 0.2,-0.2 0.5,-0.4 0,0 0,0.1 c 0.1,0.1 0.1,0.2 0.2,0.4 0.2,0.3 0.5,0.7 0.8,1.2 0.7,0.9 1.6,2.2 2.7,3.7 0.9,1.2 1.9,2.5 3,4 0.4,0.5 0.8,1.1 1.2,1.6 0.2,0.3 0.5,0.7 0.7,1 0.7,1.2 1.6,2.4 2.4,3.6 0.8,1.2 1.6,2.4 2.3,3.6 0.8,1.6 1.5,3.3 2.1,5 0.8,2.6 1.5,5.2 2,7.9 0.4,2 0.7,3.9 0.9,5.7 0.2,1.8 0.4,3.5 0.5,5.1 l 0,0.4 c 0.3,3.3 0.5,6.8 0.9,10.3 l 0,0 c 0.4,3.4 1.4,6.8 2.8,9.9 1.8,3.7 4.3,7 7.3,9.9 0.4,0.4 0.9,0.7 1.5,0.9 0.6,0.2 1.3,0.4 2,0.5 1.7,0.2 3.4,0.3 5.1,0.1 1.9,-0.1 3.7,-0.4 5.5,-0.8 l 0.1,0 c 0.6,-0.1 1.3,-0.3 2.2,-0.5 1,-0.3 1.9,-0.6 2.9,-1 l 0,0 c 0.9,-0.4 1.7,-0.9 2.4,-1.5 0.8,-0.7 1.5,-1.5 2.1,-2.3 1.2,-1.8 2.1,-3.9 2.6,-6 0.6,-2.5 0.8,-5 0.8,-7.5 -0.1,-2.6 -0.4,-5.2 -1,-7.8 -0.9,-3.8 -2.2,-7.4 -3.9,-10.9 -1.8,-3.9 -3.9,-7.6 -6.3,-11.2 -0.9,-1.3 -1.7,-2.5 -2.4,-3.4 -1.3,-1.7 -3.1,-4 -5.3,-6.5 -2.3,-2.7 -4.9,-5.2 -7.6,-7.5 -2.7,-2.2 -5.6,-4.2 -8.6,-6 -2.7,-1.6 -5.5,-3 -8.3,-4.2 l -8.6,-3.3 -0.4,0 z"
           id="path215"
           inkscape:connector-curvature="0" /><path
           d="m 947.5,617.7 c 0.2,0 0.4,0.1 0.5,0.2 0.2,0.2 0.3,0.4 0.4,0.6 0.1,0.3 0.1,0.7 0.1,1 0,0.4 -0.1,0.7 -0.1,1.1 -0.2,0.9 -0.5,1.7 -0.9,2.5 -0.1,0.2 -0.3,0.5 -0.4,0.7 -0.5,0.9 -1.2,1.6 -2,2.2 -0.3,0.2 -0.6,0.4 -1,0.5 -0.1,0 -0.3,0 -0.4,0 l -0.2,0 -0.1,-0.1 0,0 0,0 -0.1,-0.1 c 0,0 -0.1,-0.1 -0.1,-0.2 l 0,0 c -0.1,-0.1 -0.1,-0.2 -0.2,-0.4 -0.1,-0.3 -0.1,-0.7 0,-1 0.1,-0.9 0.4,-1.9 0.8,-2.7 0.1,-0.2 0.2,-0.4 0.3,-0.7 0.4,-0.7 0.8,-1.4 1.2,-2 0.2,-0.3 0.4,-0.5 0.6,-0.7 0.2,-0.2 0.4,-0.3 0.5,-0.5 0.2,-0.1 0.3,-0.2 0.5,-0.3 0.3,0 0.5,0 0.6,-0.1 l 0,0 z"
           id="path217"
           inkscape:connector-curvature="0" /><path
           d="m 941.4,616.6 c 0.2,0 0.4,0 0.5,0.1 0.2,0.1 0.3,0.3 0.4,0.5 0.3,0.5 0.4,1 0.5,1.6 0.1,0.6 0,1.3 -0.1,1.9 0,0.2 -0.1,0.4 -0.2,0.6 -0.2,0.7 -0.6,1.4 -1.1,1.9 -0.2,0.2 -0.4,0.4 -0.7,0.5 -0.1,0 -0.2,0.1 -0.4,0.1 l -0.2,0 -0.2,0 0,0 -0.2,-0.1 -0.2,-0.1 c -0.1,-0.1 -0.2,-0.2 -0.3,-0.3 -0.2,-0.2 -0.3,-0.5 -0.4,-0.8 -0.2,-0.7 -0.2,-1.4 -0.1,-2.1 0,-0.2 0.1,-0.4 0.1,-0.6 0.1,-0.6 0.3,-1.1 0.6,-1.6 0.2,-0.4 0.5,-0.8 0.8,-1.1 0.1,-0.1 0.3,-0.2 0.5,-0.3 0.4,-0.1 0.5,-0.1 0.7,-0.2 l 0,0 z"
           id="path219"
           inkscape:connector-curvature="0" /><path
           d="m 956.4,619.1 c 0.6,0 1.1,0.2 1.4,0.7 0.5,0.6 0.7,1.4 0.7,2.2 0,0.5 -0.1,1.1 -0.2,1.6 -0.2,0.5 -0.4,0.8 -0.8,1.2 -0.1,0.1 -0.3,0.2 -0.5,0.2 -0.2,0 -0.3,0 -0.5,0 l 0,0 c -0.2,0 -0.3,-0.1 -0.4,-0.2 -0.1,-0.1 -0.3,-0.2 -0.4,-0.3 -0.3,-0.3 -0.5,-0.6 -0.6,-1 -0.2,-0.4 -0.2,-0.9 -0.3,-1.3 0,-0.7 0.1,-1.4 0.4,-2 0.2,-0.6 0.7,-0.9 1.2,-1.1 l 0,0 z"
           id="path221"
           inkscape:connector-curvature="0" /><path
           class="st26"
           d="m 880.8,505.7 7.9,0 14.5,5.3 17.1,10.5 c 0,0 4.6,3.3 5.3,5.3 0.7,2 -1.5,10.7 -1.5,10.7 l -2.8,8.8 c 0,0 -16.9,13.6 -23,15.1 -6.1,1.5 -32.5,1.1 -36.8,-3.7 -4.3,-4.8 -14,-16.9 -14,-20.8 0,-3.9 -0.1,-7.1 1.9,-9.1 2,-2 4.7,-3.3 13.2,-10.9 2.1,-1.8 8,-7.1 10.4,-9 2.4,-1.9 6.1,-2.8 7.8,-2.2 l 0,0 z"
           id="path223"
           inkscape:connector-curvature="0"
           style="fill:#834317" /><path
           class="st25"
           d="m 879.8,505.5 c -1.7,0.1 -3.4,0.6 -4.9,1.5 0.5,-0.1 1,-0.2 1.5,-0.2 0.6,0 6.7,-0.8 7.1,-0.7 l 7.6,0.8 9.7,4.4 16.8,11.5 c 0,0 1.2,0.8 2.4,1.9 0.6,0.5 1.2,1.1 1.8,1.7 0.2,0.3 0.5,0.6 0.7,0.9 0.2,0.2 0.3,0.5 0.4,0.8 0.1,0.3 0.1,0.7 0.1,1 0,0.5 0,1 -0.1,1.5 -0.1,1.1 -0.3,2.4 -0.6,3.6 -0.5,2.4 -1,4.6 -1,4.6 l -2.9,8.8 c 0,0 -1.1,0.9 -2.7,2.2 -1.7,1.3 -4,3 -6.5,4.8 -1.3,0.9 -2.5,1.8 -3.8,2.7 -1.3,0.9 -2.6,1.7 -3.8,2.4 -1.2,0.7 -2.3,1.3 -3.3,1.9 0.2,0 0.4,0 0.5,-0.1 6.1,-1.5 22.2,-15.6 22.2,-15.6 l 3.7,-8.3 c 0,0 2.2,-8.8 1.5,-10.8 -0.7,-2 -5.3,-5.3 -5.3,-5.3 l -17.1,-10.5 -14.5,-5.3 -7.9,0 c -0.5,-0.2 -1.1,-0.2 -1.6,-0.2 l 0,0 z"
           id="path225"
           inkscape:connector-curvature="0"
           style="fill:#b8854f" /><path
           class="st27"
           d="m 852,525.7 c -0.9,0.6 -1.7,1.3 -2.5,2.1 -2,2 -1.9,5.1 -1.9,9.1 0,4 9.7,16 14,20.8 4.3,4.8 30.7,5.3 36.8,3.7 6.1,-1.5 22.9,-15.8 22.9,-15.8 l 0.2,-0.9 c -1.7,1.3 -3.5,3.4 -5.9,5.1 -1.3,0.9 -2.5,1.8 -3.8,2.7 -1.3,0.9 -2.6,1.7 -3.8,2.4 -1.2,0.7 -2.4,1.4 -3.4,1.9 -0.9,0.5 -1.8,0.8 -2.7,1.1 -1,0.2 -2.1,0.4 -3.2,0.5 -1.3,0.1 -2.9,0.2 -4.6,0.3 -1.7,0.1 -3.5,0.1 -5.5,0 -1.9,-0.1 -3.9,-0.1 -5.9,-0.3 -2,-0.2 -3.9,-0.3 -5.8,-0.5 -1.9,-0.2 -3.6,-0.5 -5.2,-0.9 -0.8,-0.2 -1.5,-0.4 -2.2,-0.6 -0.6,-0.2 -1.3,-0.4 -1.9,-0.7 -0.5,-0.2 -1,-0.5 -1.5,-0.8 -0.4,-0.2 -0.8,-0.5 -1.1,-0.9 -1.1,-1.2 -2.5,-2.9 -4,-4.7 -1.5,-1.9 -3.1,-3.9 -4.6,-6 -0.7,-1 -1.5,-2 -2.1,-3 -0.6,-0.9 -1.2,-1.9 -1.7,-2.8 -0.4,-0.8 -0.8,-1.6 -1.2,-2.4 -0.2,-0.6 -0.4,-1.2 -0.4,-1.8 0,-1 0,-1.9 0,-2.8 0,-0.8 0.1,-1.7 0.2,-2.5 0.1,-0.7 0.3,-1.4 0.6,-2.1 0,0 0.1,-0.1 0.2,-0.2 l 0,0 z"
           id="path227"
           inkscape:connector-curvature="0"
           style="fill:#5d381e" /><path
           class="st27"
           d="m 880.9,527.2 c 0.5,2.2 1.3,2.4 2.9,4 1.5,1.6 1.5,6.9 1.2,12.5 l 2.3,0.9 -1.4,-13.8 -5,-3.6 z"
           id="path229"
           inkscape:connector-curvature="0"
           style="fill:#5d381e" /><path
           d="m 850.9,526.8 c 4.3,-3.3 8.1,-6.5 11.5,-9.5 2.7,-2.3 5.2,-4.5 7.5,-6.4 l 0,0 c 1.7,-1.4 3.5,-2.6 5.5,-3.6 1.7,-0.8 3.6,-1.2 5.5,-1.3 l 0,0 c 1.7,-0.1 3.5,-0.1 5.2,0 1.5,0.1 3,0.3 4.5,0.6 1.4,0.3 2.7,0.8 4,1.3 1.1,0.5 2.3,1 3.3,1.6 1.7,1 3.2,1.9 4.6,2.8 1.4,0.9 2.7,1.7 3.9,2.4 l 1.5,0.9 c 2.5,1.5 6.6,3.7 11.5,6 1.5,0.7 2.7,1.8 3.6,3.1 0.9,1.5 1.4,3.2 1.6,4.9 l 0,0 c 0.2,2.1 0.1,4.2 -0.3,6.3 -0.4,2 -1,3.9 -1.8,5.8 l 0,0 c -0.6,1.4 -1.4,2.7 -2.4,3.9 -0.8,1 -1.7,2 -2.6,2.9 -0.8,0.8 -1.5,1.4 -2,1.9 -0.5,0.5 -1.4,1.2 -2.5,2 -1.1,0.8 -2.5,1.7 -4,2.6 -3.4,2 -6.9,3.6 -10.6,4.8 -1.7,0.6 -3.5,1 -5.3,1.4 -1.8,0.3 -3.6,0.5 -5.4,0.6 -2.2,0 -4.4,-0.1 -6.6,-0.4 -1.9,-0.2 -3.9,-0.6 -5.8,-1.1 -2.6,-0.7 -5.2,-1.5 -7.7,-2.5 l -0.4,-0.1 c -1.3,-0.5 -2.6,-1.1 -3.8,-1.8 -1.6,-0.8 -3.1,-1.8 -4.5,-2.9 -2.3,-1.7 -4.2,-3.7 -5.7,-6.1 -1,-1.7 -2.1,-3.4 -3,-5.1 -1,-1.7 -1.7,-3.5 -2.3,-5.4 -0.5,-1.6 -0.5,-3.3 -0.2,-5 0.2,-1.2 0.7,-2.3 1.4,-3.2 0.3,-0.4 0.6,-0.8 1,-1.2 0.2,-0.3 0.4,-0.4 0.4,-0.5 l 0,0 0,0 c -0.2,0.1 -0.3,0.2 -0.5,0.3 -0.3,0.3 -0.6,0.5 -0.9,0.8 -0.4,0.4 -0.8,0.9 -1.2,1.4 -1,1.4 -1.5,3 -1.6,4.7 0,1 0,2 0.2,3 0.4,2 1.1,4 2,5.9 0.8,1.8 1.8,3.6 2.7,5.4 1.5,2.7 3.5,5.1 5.9,7.1 2.7,2.2 5.6,4 8.8,5.4 2.4,1.1 5,1.9 7.6,2.5 2.3,0.5 4.6,0.8 7,1 2.4,0.2 4.8,0.2 7.1,0 3.9,-0.3 7.6,-1.2 11.2,-2.7 3.7,-1.4 7.3,-3.3 10.6,-5.4 l 0,0 c 1.9,-1.2 3.6,-2.4 5,-3.5 1.4,-1.1 2.7,-2.2 3.7,-3.2 l 0.6,-0.6 c 0.8,-0.7 1.6,-1.5 2.3,-2.4 1,-1.2 1.9,-2.5 2.7,-3.9 0.9,-1.8 1.7,-3.8 2.2,-5.8 0.6,-2.3 0.8,-4.7 0.7,-7.1 -0.1,-2.1 -0.7,-4.1 -1.7,-5.9 -1,-1.8 -2.6,-3.3 -4.5,-4.3 -4.4,-2.2 -8.8,-4.6 -12.6,-7 l 0,0 c -1.6,-0.9 -3.1,-1.9 -4.5,-2.7 -1.4,-0.8 -2.8,-1.7 -4.2,-2.3 -1,-0.5 -2.1,-1 -3.2,-1.5 -0.9,-0.4 -1.8,-0.7 -2.7,-0.9 -0.7,-0.2 -1.4,-0.3 -2.2,-0.5 -1.6,-0.3 -3.2,-0.4 -4.8,-0.4 -1.8,0 -3.7,0.1 -5.5,0.3 -2.1,0.2 -4.1,0.8 -6,1.7 -2,1.1 -3.9,2.4 -5.6,4 -2.6,2.3 -5,4.6 -7.3,6.7 -3.1,2.9 -5.9,5.4 -7.9,7.2 -2,1.8 -3.3,2.8 -3.3,2.8 l 0.3,0.2 z"
           id="path231"
           inkscape:connector-curvature="0" /><path
           class="st23"
           d="m 861,496.2 c -1.5,-0.8 -2.9,-4.4 -2.9,-2.6 0,1.8 0.6,4.8 1.8,6 1,1 7.8,2.2 7.8,0.4 0,-1.8 -5.2,-2.9 -6.7,-3.8 l 0,0 z"
           id="path233"
           inkscape:connector-curvature="0"
           style="fill:#6e4a25" /><path
           d="m 864.3,487.2 c -3.5,0 -5.8,1.6 -5.8,5.1 0,3.5 2.4,7.1 5.8,7.4 3.8,0.4 6.4,-2.6 6.2,-6.3 0,-3.4 -2.8,-6.2 -6.2,-6.2 l 0,0 z"
           id="path235"
           inkscape:connector-curvature="0" /><path
           d="m 906.2,487.5 c -3.5,0 -6.2,2.3 -6.2,5.7 0,3.4 1.5,6.8 4.9,7.1 3.8,0.4 6.4,-2.6 6.2,-6.3 -0.1,-3.4 -1.5,-6.5 -4.9,-6.5 z"
           id="path237"
           inkscape:connector-curvature="0" /><path
           class="st22"
           d="m 824.6,493.1 c 0,0 -8.2,-2.9 -9.3,-4.1 -1.1,-1.2 -9.9,-10.6 -10,-15.7 -0.1,-5.1 0.2,-11.8 4.6,-16 4.4,-4.2 11.7,-8.4 14.7,-8.9 3,-0.5 10.6,2.9 12.1,4.4 1.5,1.5 11.4,11.1 12.1,12 0.7,0.9 -24.3,28.3 -24.2,28.3 l 0,0 z"
           id="path239"
           inkscape:connector-curvature="0"
           style="fill:#a06121" /><path
           class="st23"
           d="m 824.7,448.5 -0.1,0 c -3,0.4 -10.3,4.7 -14.7,8.9 -4.4,4.2 -4.7,11 -4.6,16 0.1,5 8.9,14.5 10,15.7 1.1,1.2 9.3,4 9.3,4 l 2.8,-3.1 c -0.7,-0.3 -0.8,-0.3 -1.8,-0.6 -1.1,-0.4 -2.2,-0.9 -3.2,-1.3 -0.7,-0.3 -1.4,-0.6 -2,-1.1 -0.3,-0.3 -1,-1.1 -2,-2.3 -1,-1.2 -2.2,-2.6 -3.3,-4.1 -0.6,-0.8 -1.2,-1.6 -1.7,-2.4 -0.5,-0.8 -1,-1.6 -1.5,-2.5 -0.4,-0.7 -0.7,-1.5 -1,-2.3 -0.2,-0.7 -0.4,-1.4 -0.4,-2.1 0,-1.3 0,-2.6 0,-4 0.1,-1.4 0.3,-2.9 0.6,-4.3 0.2,-0.7 0.3,-1.4 0.6,-2.1 0.2,-0.7 0.5,-1.4 0.8,-2 0.3,-0.7 0.7,-1.3 1.1,-1.9 0.4,-0.6 0.9,-1.2 1.5,-1.7 1.2,-1.1 2.4,-2.1 3.7,-3.1 1.3,-1 2.8,-1.9 4.2,-2.8 0.6,-0.3 1.1,-0.5 1.7,-0.9 l 0,0 z"
           id="path241"
           inkscape:connector-curvature="0"
           style="fill:#6e4a25" /><path
           d="m 849.5,466 0,0 0,0 -0.1,-0.1 -0.4,-0.5 c -0.5,-0.7 -1,-1.3 -1.5,-2 l 0,0 c -1.8,-2.4 -3.5,-4.4 -5.2,-6.1 -1.3,-1.4 -2.6,-2.7 -3.8,-3.8 -1.2,-1.1 -2.3,-2 -3.3,-2.8 -1.3,-1 -2.6,-1.8 -4,-2.5 -1.4,-0.7 -2.8,-1.2 -4.3,-1.5 -0.4,-0.1 -0.8,-0.1 -1.2,-0.1 -0.7,0 -1.4,0.1 -2.1,0.2 -0.9,0.2 -1.7,0.4 -2.5,0.8 -1,0.4 -1.9,0.9 -2.8,1.5 -1,0.6 -1.9,1.3 -2.7,2 -1,0.8 -1.9,1.6 -2.8,2.5 -0.8,0.9 -1.6,1.7 -2.3,2.5 -1,1.2 -1.9,2.5 -2.8,3.8 -0.3,0.5 -0.8,1.2 -1.5,2.2 -0.5,0.8 -0.9,1.6 -1.2,2.4 -0.4,1 -0.6,2 -0.7,3 l 0,0 c -0.1,1 -0.2,2 -0.2,3 0,1 0.1,2 0.2,3.1 l 0,0 c 0.2,1.9 0.6,3.8 1.1,5.6 0.3,0.9 0.5,1.7 0.8,2.4 0.2,0.5 0.5,1.1 0.7,1.6 l 0,0 c 0.4,0.7 0.9,1.4 1.5,2.1 0.7,0.8 1.5,1.5 2.4,2.1 l 0,0 c 1.6,1.2 3.3,2.2 5.1,3 1.7,0.8 3.3,1.5 4.9,2 0.7,0.3 1.5,0.5 2.2,0.7 0.3,0.1 0.7,0.2 1.1,0.2 0.2,0 0.1,-0.1 -0.1,-0.3 -0.2,-0.2 -0.6,-0.4 -1,-0.6 l -1.7,-1 c -1.3,-0.8 -2.8,-1.7 -4.4,-2.8 -1.5,-1 -3,-2.2 -4.3,-3.4 -0.6,-0.6 -1.1,-1.1 -1.6,-1.8 -0.4,-0.5 -0.8,-1.1 -1.1,-1.8 -0.5,-1 -0.9,-2 -1.3,-2.9 l -0.3,-0.7 c -0.7,-1.6 -1.2,-3.3 -1.7,-5.1 -0.5,-1.8 -0.7,-3.7 -0.7,-5.6 l 0,0 c 0,-0.9 0.1,-1.8 0.3,-2.7 0.2,-0.8 0.5,-1.6 0.9,-2.3 0.7,-1.2 1.5,-2.4 2.4,-3.5 0.8,-1 1.7,-1.9 2.7,-2.8 1.4,-1.3 3,-2.6 4.6,-3.7 1.6,-1.1 3.4,-2 5.3,-2.7 0.8,-0.3 1.5,-0.4 2.3,-0.6 0.7,-0.1 1.4,-0.1 2.1,0 l 0,0 c 1.2,0.2 2.4,0.6 3.6,1.1 1,0.4 1.8,0.8 2.4,1.1 0.4,0.2 0.9,0.5 1.4,0.8 1.2,0.7 2.5,1.5 3.6,2.3 1.3,0.9 2.7,2 4,3.1 2,1.7 3.9,3.6 5.7,5.5 0.7,0.8 1.3,1.4 1.7,1.8 l 0.5,0.5 0,0 0.1,0.1 0,0 0,0 0,0.7 z"
           id="path243"
           inkscape:connector-curvature="0" /><path
           d="m 915.6,467.1 0,0 0,0 0.1,-0.1 0.3,-0.5 1.2,-1.7 c 1.4,-1.9 2.7,-3.6 3.8,-5.1 1.6,-2.1 3.1,-3.9 4.4,-5.4 0.7,-0.7 1.3,-1.4 1.8,-2 0.3,-0.4 0.7,-0.7 1.2,-1 0.8,-0.4 1.6,-0.8 2.5,-1 0.7,-0.2 1.4,-0.3 2.2,-0.4 0.6,0 1.1,0 1.7,0 0.5,0 1,0.1 1.5,0.2 0.5,0.1 1,0.1 1.6,0.3 1.4,0.3 2.7,0.7 4,1.2 1.5,0.6 3,1.4 4.3,2.4 1.6,1.1 3.2,2 4.5,2.9 0.8,0.5 1.5,1 2.2,1.6 0.5,0.4 0.9,0.8 1.3,1.3 l 0.2,0.3 c 0.4,0.6 0.8,1.2 1,1.9 0.3,1 0.5,2 0.6,3.1 l 0,0 c 0,1.3 -0.1,2.7 -0.3,4 -0.3,1.4 -0.6,2.8 -1.1,4.1 l 0,0 c -0.3,0.9 -0.7,1.7 -1.2,2.4 -0.5,0.8 -1,1.4 -1.4,2 -0.7,0.9 -1.3,1.6 -1.6,2 -0.9,1.2 -1.9,2.3 -2.9,3.4 -0.8,0.8 -1.7,1.6 -2.7,2.3 -1,0.8 -2,1.5 -3.1,2.1 -0.8,0.4 -1.7,0.8 -2.5,1.1 -0.8,0.3 -1.6,0.5 -2.4,0.6 -0.7,0.1 -1,0.1 -1,0.2 0,0.1 0.3,0.2 0.8,0.3 0.8,0.1 1.6,0.2 2.4,0.1 1.2,-0.1 2.4,-0.4 3.5,-0.8 l 0,0 c 1.2,-0.4 2.4,-1 3.5,-1.6 1.2,-0.7 2.3,-1.4 3.4,-2.3 l 0,0 c 1.1,-0.8 2.1,-1.8 3,-2.8 0.8,-0.9 1.6,-1.8 2.2,-2.8 l 0.3,-0.5 c 1,-1.6 1.7,-3.4 2.1,-5.2 l 0,0 c 0.3,-1.5 0.5,-3 0.6,-4.6 0.1,-1.4 0,-2.9 -0.2,-4.3 -0.2,-1.1 -0.4,-2.1 -0.8,-3.1 -0.3,-0.8 -0.8,-1.6 -1.3,-2.4 -0.4,-0.5 -0.8,-1.1 -1.3,-1.5 -0.2,-0.3 -0.5,-0.6 -0.9,-0.9 -0.4,-0.3 -0.8,-0.8 -1.4,-1.2 -0.6,-0.4 -1.2,-1 -2,-1.5 -0.8,-0.5 -1.5,-1.1 -2.2,-1.8 l 0,0 c -1.3,-1.1 -2.6,-2.1 -4.1,-2.9 -1.5,-0.8 -3.1,-1.5 -4.8,-1.9 l 0,0 c -1,-0.2 -1.9,-0.4 -2.9,-0.5 -0.9,-0.1 -1.8,-0.1 -2.8,0 -0.9,0.1 -1.8,0.3 -2.6,0.6 -0.7,0.2 -1.3,0.5 -1.9,0.9 -0.4,0.2 -0.7,0.5 -1.1,0.7 -0.5,0.4 -1,0.9 -1.4,1.5 l 0,0 c -0.6,0.7 -1.1,1.5 -1.7,2.3 l 0,0 c -1.3,1.9 -2.6,3.9 -3.8,5.9 -1.2,2 -2.5,4.1 -3.3,5.5 l -1,1.8 -0.3,0.5 0,0 -0.1,0.1 0,0 0,0 -0.1,0.2 z"
           id="path245"
           inkscape:connector-curvature="0" /><path
           class="st26"
           d="m 843.8,473 c 0,0 -5.8,5.2 -7.1,7.4 -1.3,2.2 -5.3,6 -5.9,6 -0.9,-0.1 -1.8,-0.3 -2.7,-0.5 0,0 -3.6,-3.9 -4.8,-6.4 -1.2,-2.5 -4,-4.6 -2.8,-7.4 1.2,-2.8 2.5,-7.6 5.6,-7.8 3.1,-0.2 7.4,-0.2 9.1,0.3 1.6,0.5 3,1.2 4.4,2.1 0.8,0.6 5.6,5.2 4.2,6.3 l 0,0 z"
           id="path247"
           inkscape:connector-curvature="0"
           style="fill:#834317" /><path
           class="st27"
           d="m 825.8,464.3 c -2.7,0.7 -3.8,5 -5,7.6 -1.2,2.8 1.6,5 2.8,7.4 1.2,2.4 4.8,6.4 4.8,6.4 0.9,0.3 1.8,0.5 2.7,0.5 0.6,-0.4 1.1,-0.8 1.6,-1.3 -0.4,0 -0.9,-0.1 -1.3,-0.2 -0.6,-0.1 -1.2,-0.3 -1.2,-0.3 0,0 -0.9,-1 -2,-2.3 -0.5,-0.6 -1.1,-1.4 -1.6,-2.1 -0.5,-0.6 -0.9,-1.3 -1.2,-2 -0.3,-0.6 -0.7,-1.3 -1.1,-1.8 -0.4,-0.6 -0.8,-1.2 -1.2,-1.8 -0.2,-0.3 -0.3,-0.6 -0.5,-0.9 -0.1,-0.3 -0.2,-0.6 -0.3,-0.9 -0.1,-0.3 -0.1,-0.7 0,-1 0,-0.3 0.1,-0.7 0.3,-1 0.3,-0.7 0.6,-1.5 1,-2.4 0.3,-0.9 0.7,-1.7 1.1,-2.5 0.2,-0.4 0.4,-0.7 0.7,-1.1 0.2,-0.1 0.4,-0.2 0.4,-0.3 l 0,0 z"
           id="path249"
           inkscape:connector-curvature="0"
           style="fill:#5d381e" /><path
           d="m 844,472.9 c -1,0.5 -2,1.2 -2.9,1.8 -0.9,0.6 -1.6,1.3 -2.3,1.9 -0.7,0.6 -1.6,1.4 -2.3,2.1 -0.6,0.6 -1.2,1.2 -1.7,1.9 -0.4,0.6 -0.9,1.2 -1.5,1.8 -0.4,0.4 -0.9,0.9 -1.4,1.3 -0.5,0.4 -1,0.8 -1.6,1.1 -0.5,0.2 -0.8,0.4 -0.9,0.3 0.3,0 0.4,0 0.4,0 l 0,0 -0.3,-0.2 0,0 c -0.4,-0.3 -0.8,-0.6 -1.2,-1 -0.5,-0.5 -1.1,-1 -1.7,-1.7 -0.6,-0.7 -1.2,-1.3 -1.8,-2 -0.7,-0.9 -1.4,-1.7 -1.9,-2.5 -0.5,-0.7 -0.9,-1.4 -1.2,-2.1 -0.1,-0.3 -0.3,-0.5 -0.3,-0.7 -0.2,-0.5 -0.3,-1 -0.3,-1.5 -0.1,-0.6 0,-1.2 0.2,-1.7 l 0,0 c 0.4,-1 1,-1.9 1.8,-2.7 0.8,-0.8 1.7,-1.5 2.7,-2 0.7,-0.4 1.5,-0.7 2.3,-1 0.7,-0.2 1.2,-0.4 1.5,-0.5 0.6,-0.2 1.1,-0.4 1.7,-0.5 0.4,-0.1 0.8,-0.1 1.2,-0.1 0.5,0 1,0.1 1.5,0.2 l 0,0 c 1.1,0.2 2.2,0.6 3.2,1 0.9,0.4 1.8,0.8 2.6,1.2 l 0.4,0.2 0.3,0.2 c 0.1,0 0.2,0.1 0.2,0.1 l 0.1,0 0.4,-0.6 0,0 0.1,-0.2 0,0 -0.1,0.2 -0.3,0.6 c 0,0 0,-0.1 0,-0.1 0,-0.1 -0.1,-0.2 -0.1,-0.2 -0.2,-0.3 -0.4,-0.5 -0.6,-0.7 l 0,0 c -0.7,-0.7 -1.5,-1.4 -2.3,-2 -1,-0.7 -2.1,-1.4 -3.2,-1.9 -1.1,-0.5 -2.4,-0.8 -3.6,-0.8 -0.8,0.1 -1.7,0.2 -2.5,0.5 -0.7,0.2 -1.4,0.4 -2,0.8 -0.8,0.4 -1.5,0.9 -2.2,1.5 -1.1,0.8 -2,1.9 -2.8,3 -0.7,1.1 -1.2,2.2 -1.5,3.4 -0.2,0.7 -0.2,1.5 0,2.3 0.2,0.8 0.4,1.7 0.7,2.5 l 0.1,0.3 c 0.2,0.7 0.5,1.4 0.8,2.1 0.5,1 1,2 1.6,3 0.9,1.6 2,3.1 3.3,4.5 0.5,0.5 1,1 1.5,1.4 0.2,0.2 0.5,0.3 0.8,0.5 l 0,0 c 0.3,0.2 0.7,0.2 1.1,0.2 0.7,-0.1 1.4,-0.4 2,-0.8 0.7,-0.4 1.3,-0.9 1.8,-1.5 0.3,-0.3 0.6,-0.6 0.8,-0.9 0.7,-0.9 1.3,-1.9 1.8,-3 0.3,-0.7 0.7,-1.3 1.2,-1.9 0.6,-0.8 1.2,-1.6 1.8,-2.4 0.6,-0.8 1.1,-1.2 1.6,-1.8 0.5,-0.6 1,-1 1.5,-1.4 0.5,-0.8 1,-1.2 1.5,-1.5 l 0,0 z"
           id="path251"
           inkscape:connector-curvature="0" /><path
           class="st26"
           d="m 919.4,472.1 c 0,0 6,2.5 7.3,4.7 1.3,2.2 5.6,7.5 6.2,7.6 0.9,-0.1 1.8,-0.3 2.7,-0.5 0,0 3.6,-3.9 4.8,-6.4 1.2,-2.5 2.6,-5.2 1.4,-8 -1.2,-2.8 -2.4,-6.7 -4.2,-7.2 -3,-0.6 -6.1,-0.5 -9.1,0.3 -1.6,0.5 -3,1.2 -4.4,2.1 -0.9,0.7 -6.2,7.1 -4.7,7.4 l 0,0 z"
           id="path253"
           inkscape:connector-curvature="0"
           style="fill:#834317" /><path
           d="m 918.7,472 0,0 0.2,0.1 0.7,0.3 c 0.8,0.3 1.6,0.7 2.3,1.1 1.1,0.7 2.2,1.5 3.1,2.5 0.7,0.8 1.3,1.6 1.7,2.6 0.5,1.2 1.3,2.3 2.1,3.3 0.6,0.7 1.3,1.4 2.1,2 0.5,0.4 1.2,0.8 1.8,1 0.3,0.1 0.6,0.2 0.9,0.2 0.5,0.1 1,0.1 1.5,0 0.6,-0.1 1.1,-0.5 1.4,-0.9 0.1,-0.2 0.3,-0.4 0.6,-0.6 0.3,-0.2 0.6,-0.7 1,-1.1 0.9,-1 1.7,-2 2.3,-3.2 0.5,-0.7 0.8,-1.5 1.2,-2.3 0.3,-0.6 0.5,-1.3 0.6,-2 0.1,-0.4 0.1,-0.7 0.2,-1.1 0,-0.3 0.1,-0.9 0.2,-1.6 0.1,-0.9 0.1,-1.7 0,-2.6 -0.1,-1.2 -0.5,-2.4 -1,-3.4 -0.6,-1.1 -1.3,-2.1 -2.2,-2.9 -0.7,-0.8 -1.5,-1.4 -2.4,-1.9 -0.6,-0.4 -1.2,-0.6 -1.9,-0.8 -1.7,-0.4 -3.4,-0.4 -5,0.1 -0.9,0.2 -1.7,0.6 -2.5,1 l 0,0 c -0.8,0.4 -1.6,0.9 -2.3,1.5 -0.7,0.6 -1.3,1.2 -1.8,1.9 -0.1,0.2 -0.2,0.4 -0.3,0.6 0,0.1 0,0.2 0,0.2 0.3,-0.1 0.6,-0.3 0.9,-0.5 0.6,-0.4 1.2,-0.8 1.8,-1.1 0.8,-0.4 1.7,-0.7 2.5,-0.9 0.7,-0.2 1.4,-0.3 2.1,-0.4 0.7,-0.1 1.3,0 2,0.1 1.1,0.2 2.2,0.6 3.2,1.1 0.7,0.3 1.3,0.6 1.9,1 0.8,0.6 1.6,1.3 2.3,2.1 0.6,0.7 1.1,1.6 1.3,2.5 0.2,0.9 0.3,1.8 0.3,2.7 0,0.7 -0.2,1.4 -0.4,2 l 0,0 c -0.2,0.5 -0.5,1 -0.8,1.5 -0.4,0.7 -0.9,1.4 -1.5,2.1 l 0,0 c -0.8,0.9 -1.6,1.8 -2.5,2.5 l 0,0 -1.1,0.9 c -0.3,0.2 -0.6,0.5 -0.8,0.8 l 0,0 c -0.1,0 -0.2,0 -0.4,0 -0.6,-0.2 -1.1,-0.4 -1.6,-0.8 -0.8,-0.6 -1.6,-1.2 -2.3,-1.9 -0.6,-0.6 -1.2,-1.2 -1.7,-1.9 -0.8,-1.1 -1.7,-2.1 -2.8,-2.9 -1,-0.7 -2.2,-1.4 -3.4,-1.9 -0.8,-0.3 -1.7,-0.6 -2.5,-0.8 l -0.7,-0.2 0,0 -0.3,0 0,0 0,0 z"
           id="path255"
           inkscape:connector-curvature="0" /><path
           d="m 846.8,463.1 c 2.4,-2.4 5.2,-4.6 8.1,-6.4 3.3,-2.1 6.9,-3.6 10.6,-4.7 1.2,-0.3 2.2,-0.6 3.1,-0.8 0.9,-0.2 1.9,-0.5 3.3,-0.9 1.4,-0.4 3,-0.7 4.6,-1 1.6,-0.3 3.3,-0.5 4.8,-0.6 1.5,-0.1 2.9,-0.2 3.9,-0.2 l 1.3,0 c 1.3,0.1 2.6,0.3 3.8,0.6 1.7,0.4 3.8,0.8 5.8,1.4 1.6,0.5 3.1,1 4.5,1.5 1.4,0.5 2.5,1.1 3.4,1.5 0.5,0.2 0.8,0.4 1.1,0.5 0.9,0.4 1.7,0.8 2.5,1.3 1.1,0.6 2.1,1.3 3.2,2.1 1.2,0.9 2.3,1.8 3.3,2.8 1.1,1 2.1,2 2.9,2.9 0.5,0.6 0.8,0.7 0.8,0.5 -0.2,-0.6 -0.4,-1.1 -0.7,-1.6 -1.4,-2.3 -3,-4.5 -4.8,-6.5 -1,-1.1 -2.1,-2 -3.3,-2.9 -1.1,-0.8 -2.3,-1.5 -3.5,-2.1 -0.5,-0.2 -1,-0.4 -1.5,-0.6 -2.4,-0.7 -4.8,-1.2 -7.3,-1.5 -2.4,-0.3 -4.6,-0.5 -6.6,-0.7 -2,-0.2 -3.6,-0.3 -4.7,-0.5 l -0.1,0 c -0.8,-0.1 -2.5,-0.3 -4.5,-0.3 -2.4,-0.1 -4.7,0 -7,0.3 -2.4,0.3 -4.9,0.8 -7.2,1.5 -1.7,0.5 -3.4,1.2 -5,2 -1.5,0.8 -2.9,1.7 -4.3,2.7 -1.7,1.2 -3.4,2.6 -5,4 -1.3,1.2 -2.6,2.5 -3.8,3.8 -1.1,1.1 -1.6,1.9 -1.7,1.9 l 0,0 z"
           id="path257"
           inkscape:connector-curvature="0" /><path
           d="m 822.4,493.2 c -0.1,1.6 -0.3,3.3 -0.7,4.9 l 0,0 c -0.4,1.8 -0.7,3.5 -1,5.1 -0.3,1.7 -0.4,3.5 -0.4,5.2 0,1.5 0.1,2.8 0.2,3.9 0.1,1.1 0.2,2.1 0.4,2.9 0.1,0.8 0.3,1.6 0.5,2.2 l 0.1,0.4 c 0.3,1.1 0.9,3 1.7,5.2 0.8,2.2 1.8,4.5 2.8,6.5 0.5,1.1 1,2.1 1.5,2.9 0.5,0.8 0.9,1.4 1.1,1.8 0.4,0.6 1.1,1.9 2.1,3.4 0.8,1.2 1.7,2.2 2.6,3.3 1,1.1 2.1,2.1 3.2,3.1 1.2,1 2.3,1.9 3.3,2.5 0.7,0.5 1.5,1 2.3,1.4 l 3.4,1.7 c 1.3,0.6 2.6,1.2 4,1.6 1.4,0.5 2.8,0.8 4.3,1.1 l 2.8,0.4 c 0.6,0.1 0.9,0.1 0.9,0 l 0,0 c 0,-0.2 -1.5,-0.8 -3.5,-1.6 -1.1,-0.5 -2.3,-1 -3.5,-1.7 -1.2,-0.7 -2.4,-1.4 -3.6,-2.2 -1,-0.7 -1.9,-1.3 -2.8,-1.9 -0.9,-0.6 -1.7,-1 -2.5,-1.4 -1.2,-0.6 -2.3,-1.2 -3.5,-1.9 -1.2,-0.7 -2.4,-1.5 -3.5,-2.4 -1,-0.8 -2,-1.7 -2.8,-2.7 -1.2,-1.3 -2.1,-2.8 -2.9,-4.3 -0.3,-0.7 -0.8,-2 -1.4,-3.7 -0.6,-1.7 -1.2,-3.8 -1.7,-5.9 -0.5,-2.1 -1.1,-4.4 -1.6,-6.4 -0.3,-1.2 -0.5,-2.3 -0.7,-3.3 -0.2,-1 -0.4,-1.8 -0.5,-2.4 -0.2,-0.8 -0.5,-2 -0.6,-3.3 -0.2,-1.4 -0.3,-2.9 -0.3,-4.4 0,-1.8 0.2,-3.6 0.3,-5.1 0.1,-1.5 0.2,-2.7 0.2,-3.6 0,-0.9 -0.2,-1.3 -0.2,-1.3 l 0,0 z"
           id="path259"
           inkscape:connector-curvature="0" /><path
           d="m 936.3,490.4 c 0.6,1.2 1.1,2.3 1.6,3.4 0.5,1 0.8,2 1.1,2.9 0.3,0.8 0.5,1.6 0.6,2.5 0.1,1.1 0.2,2.2 0.3,3.1 0.1,0.9 0.1,1.7 0.1,2.4 0,2 0,3.3 0,4.5 0,0.6 0.1,1.5 0.1,2.5 0.1,1 0.2,2.2 0.2,3.4 0.1,1.2 0.1,2.4 0.1,3.5 0,1.1 0,2 -0.1,2.8 0,0.6 -0.1,1.2 -0.2,1.8 0,0.2 -0.1,0.4 -0.2,0.7 -0.4,1 -0.8,1.9 -1.3,2.8 -0.6,1.2 -1.3,2.4 -2,3.5 -0.6,0.9 -1.2,1.7 -1.9,2.5 -0.6,0.7 -1.3,1.3 -1.7,1.8 -0.5,0.5 -0.7,0.7 -0.9,0.9 -0.4,0.5 -0.9,0.9 -1.4,1.4 -0.6,0.5 -1.3,1.1 -2.1,1.7 -0.8,0.6 -2,1.3 -3,2 -1,0.7 -2,1.2 -3,1.7 -1.1,0.6 -0.5,0.7 1,0.4 2.2,-0.4 4.2,-1.1 6.3,-2 1,-0.5 2,-1 3,-1.7 0.9,-0.6 1.7,-1.2 2.4,-2 0.2,-0.2 0.4,-0.4 0.5,-0.7 1.1,-1.5 2,-3.1 2.7,-4.8 l 0,0 c 0.9,-2.3 1.7,-4.6 2.3,-7 0.2,-0.7 0.4,-1.3 0.5,-1.8 0.1,-0.5 0.2,-0.8 0.4,-1.5 0.2,-0.7 0.3,-1.4 0.4,-2.2 0.2,-1 0.3,-2.2 0.4,-3.4 0.1,-1.2 0.2,-2.5 0.2,-3.7 0.1,-2.4 0,-4.8 -0.3,-7.1 0,-0.3 -0.1,-0.5 -0.1,-0.7 -0.3,-1.1 -0.7,-2.9 -1.3,-4.8 -0.3,-0.9 -0.7,-1.8 -1.2,-2.6 -0.5,-1 -1.1,-1.9 -1.6,-2.8 l -2.1,-3.2 0.2,-0.2 z"
           id="path261"
           inkscape:connector-curvature="0" /><path
           class="st28"
           d="m 886.6,528.8 c 0.7,5.2 1,10.5 1.1,15.8"
           id="path263"
           inkscape:connector-curvature="0"
           style="fill:none;stroke:#000000;stroke-width:5" /><path
           class="st29"
           d="m 908.4,490.1 c -0.8,0 -1.3,1.6 -1.3,2.5 -0.1,0.8 0.5,1.5 1.3,1.5 0.8,0 1.5,-0.5 1.5,-1.3 0,-0.1 0,-0.2 0,-0.2 0.1,-0.9 -0.7,-2.5 -1.5,-2.5 z"
           id="path265"
           inkscape:connector-curvature="0"
           style="fill:#ddcebe" /><path
           class="st29"
           d="m 866.6,490.6 c -0.8,0 -1.1,1.5 -1.1,2.4 0,0.8 0.6,1.4 1.4,1.4 0.8,0 1.4,-0.6 1.4,-1.4 0,0 0,0 0,0 0,-0.8 -0.9,-2.4 -1.7,-2.4 z"
           id="path267"
           inkscape:connector-curvature="0"
           style="fill:#ddcebe" /><path
           d="m 886.5,512.8 c -5.5,0 -12.6,4.9 -9.9,9 2,3 5.8,8.6 9.9,9 4.3,0.4 7.1,-5.7 9.9,-9 3.2,-3.8 -4.4,-9 -9.9,-9 z"
           id="path269"
           inkscape:connector-curvature="0" /><path
           class="st29"
           d="m 891,514.9 c -1.2,0 -2.3,0 -2.3,1.2 0,1.2 1.1,1.1 2.3,1.1 1.2,0 4,2.3 4,1.1 0,-1.2 -2.8,-3.4 -4,-3.4 l 0,0 z"
           id="path271"
           inkscape:connector-curvature="0"
           style="fill:#ddcebe" /><path
           d="m 811.5,461.6 0,0 0,0 -0.2,0 -0.2,0 0,0 c -0.1,0 -0.2,0 -0.3,0 -0.3,-0.1 -0.5,-0.1 -0.8,-0.3 -0.5,-0.3 -1,-0.7 -1.5,-1.2 -0.2,-0.2 -0.3,-0.4 -0.5,-0.5 -0.2,-0.1 -0.5,-0.6 -0.7,-0.9 -0.3,-0.3 -0.5,-0.7 -0.7,-1.1 -0.1,-0.2 -0.2,-0.3 -0.3,-0.5 -0.1,-0.2 -0.1,-0.4 -0.1,-0.6 0,-0.2 0.1,-0.4 0.2,-0.5 0.2,-0.2 0.4,-0.3 0.7,-0.4 0.3,-0.1 0.7,-0.1 1.1,-0.1 0.4,0.1 0.8,0.2 1.2,0.4 l 0,0 c 0.6,0.3 1.1,0.7 1.5,1.1 0.2,0.3 0.5,0.6 0.6,0.9 0.4,0.7 0.7,1.4 0.7,2.2 0,0.3 -0.1,0.6 -0.2,0.9 -0.1,0.1 -0.1,0.2 -0.2,0.3 l 0,0 -0.1,0.1 -0.1,0 -0.1,0 0,0.2 z"
           id="path273"
           inkscape:connector-curvature="0" /><path
           d="m 809.2,465.4 c -0.2,0.4 -0.7,0.7 -1.4,0.7 -0.9,0 -1.8,-0.1 -2.6,-0.4 l 0,0 -0.8,-0.1 c -0.8,-0.1 -1.7,-0.4 -2.4,-0.7 -0.3,-0.1 -0.5,-0.2 -0.7,-0.4 -0.2,-0.1 -0.3,-0.2 -0.5,-0.4 -0.1,-0.1 -0.2,-0.2 -0.3,-0.4 -0.1,-0.1 -0.2,-0.3 -0.2,-0.4 0,-0.2 0,-0.3 0.1,-0.5 0.1,-0.2 0.3,-0.3 0.4,-0.4 0.2,-0.1 0.5,-0.3 0.8,-0.3 0.3,-0.1 0.6,-0.1 0.9,-0.2 1,-0.1 2,-0.1 2.9,0.1 l 0.8,0.2 0,0 c 0.9,0.4 1.7,0.9 2.5,1.6 0.4,0.7 0.7,1.2 0.5,1.6 l 0,0 z"
           id="path275"
           inkscape:connector-curvature="0" /><path
           d="m 934.5,451.8 c -0.5,-0.1 -1,-0.5 -1.1,-1 -0.3,-0.6 -0.4,-1.3 -0.5,-2 l 0,0 c 0,-0.1 0,-0.2 0,-0.3 0,-0.7 0,-1.4 0.2,-2.1 0.1,-0.3 0.2,-0.6 0.4,-0.9 0.1,-0.2 0.3,-0.4 0.6,-0.5 0.3,-0.1 0.5,-0.1 0.8,0 0.3,0.1 0.6,0.3 0.8,0.6 0.3,0.3 0.5,0.7 0.7,1.1 0.2,0.5 0.3,1 0.3,1.6 0,0.1 0,0.3 0,0.4 l 0,0 c 0,0.8 -0.3,1.7 -0.8,2.3 -0.3,0.5 -0.8,0.8 -1.4,0.8 l 0,0 z"
           id="path277"
           inkscape:connector-curvature="0" /><path
           d="m 939.6,452.3 c -0.4,-0.2 -0.6,-0.8 -0.6,-1.6 0.1,-0.9 0.3,-1.9 0.6,-2.7 0.1,-0.2 0.2,-0.5 0.3,-0.7 0.4,-1 0.9,-2 1.5,-2.8 0.2,-0.3 0.5,-0.6 0.8,-0.8 0.2,-0.2 0.5,-0.3 0.8,-0.3 0.3,0.1 0.5,0.2 0.7,0.5 0.2,0.4 0.3,0.8 0.4,1.2 0.1,0.6 0.1,1.1 0,1.7 -0.1,0.7 -0.3,1.3 -0.5,2 -0.1,0.3 -0.2,0.5 -0.4,0.8 l 0,0 c -0.4,0.9 -1.1,1.7 -1.8,2.4 -0.8,0.3 -1.4,0.5 -1.8,0.3 l 0,0 z"
           id="path279"
           inkscape:connector-curvature="0" /><path
           class="st24"
           d="m 867.5,522.7 c -0.8,0 -1.4,0.7 -1.4,1.5 0,0.8 0.6,1.1 1.4,1.1 0.8,0 1.5,-0.3 1.5,-1.1 -0.1,-0.8 -0.7,-1.4 -1.5,-1.5 z"
           id="path281"
           inkscape:connector-curvature="0"
           style="fill:#956c45;stroke:#000000;stroke-width:3" /><path
           class="st24"
           d="m 862.7,529.2 c -1.2,0 -2.2,1.1 -2.2,2.3 0,0 0,0 0,0 0,1.3 0.9,1.7 2.1,1.7 1.2,0 2.3,-0.4 2.3,-1.7 0,-1.2 -1,-2.3 -2.2,-2.3 0,0 0,0 0,0 l 0,0 z"
           id="path283"
           inkscape:connector-curvature="0"
           style="fill:#956c45;stroke:#000000;stroke-width:3" /><path
           class="st24"
           d="m 871.6,530.6 c -1.2,0 -1.8,0.5 -1.8,1.8 0,1.3 0.7,1.6 1.9,1.6 1.2,0 1.7,-0.6 1.7,-1.8 0,-1.2 -0.6,-1.6 -1.8,-1.6 l 0,0 z"
           id="path285"
           inkscape:connector-curvature="0"
           style="fill:#956c45;stroke:#000000;stroke-width:3" /><path
           class="st24"
           d="m 903.7,528.2 c -0.7,0 -1.2,0.6 -1.2,1.3 0,0.7 0.2,1 0.9,1 0.7,0 1.3,-0.2 1.3,-1 0,-0.8 -0.3,-1.3 -1,-1.3 l 0,0 z"
           id="path287"
           inkscape:connector-curvature="0"
           style="fill:#956c45;stroke:#000000;stroke-width:3" /><path
           class="st24"
           d="m 911.3,524.4 c -1.2,0 -1.8,1.1 -1.8,2.4 0,1.3 0.5,1.6 1.7,1.6 1.2,0 2.3,-0.4 2.3,-1.7 0,-1.3 -1,-2.3 -2.2,-2.3 0,0 0,0 0,0 l 0,0 z"
           id="path289"
           inkscape:connector-curvature="0"
           style="fill:#956c45;stroke:#000000;stroke-width:3" /><path
           class="st24"
           d="m 908.9,532.8 c -0.9,0 -1.6,0.8 -1.6,1.7 0,0 0,0 0,0 -0.1,0.8 0.5,1.5 1.3,1.5 0.1,0 0.1,0 0.2,0 0.7,0.1 1.4,-0.5 1.4,-1.2 0,-0.1 0,-0.2 0,-0.3 0,-0.8 -0.4,-1.7 -1.3,-1.7 l 0,0 z"
           id="path291"
           inkscape:connector-curvature="0"
           style="fill:#956c45;stroke:#000000;stroke-width:3" /><path
           d="m 856.9,459.2 0,0 -0.2,0 -0.2,0 c -0.1,0 -0.3,0 -0.4,-0.1 -0.3,-0.1 -0.6,-0.3 -0.8,-0.6 -0.7,-0.7 -1.3,-1.4 -1.8,-2.2 -0.2,-0.4 -0.5,-0.7 -0.7,-1.1 -0.4,-0.6 -0.7,-1.3 -0.9,-1.8 l 0,0 c -0.3,-0.7 -0.6,-1.4 -0.7,-2.1 -0.2,-0.4 -0.1,-0.9 0.2,-1.3 0.3,-0.3 0.8,-0.3 1.4,0 0.8,0.4 1.5,0.9 2,1.6 l 0,0 c 0.5,0.6 0.9,1.2 1.3,1.9 0.2,0.4 0.4,0.8 0.6,1.3 0.4,0.9 0.6,1.9 0.7,2.9 0,0.3 0,0.7 -0.1,1 l 0,0 c 0,0.1 -0.1,0.2 -0.2,0.3 l -0.1,0.1 0,0 -0.1,0 0,0.1 z"
           id="path293"
           inkscape:connector-curvature="0" /><path
           d="m 862.1,456.1 c -0.8,0.1 -1.7,-0.9 -2.2,-2.4 l 0,0 c -0.2,-0.4 -0.3,-0.7 -0.4,-1.1 -0.1,-0.4 -0.3,-0.9 -0.4,-1.3 -0.1,-0.4 -0.1,-0.8 -0.2,-1.1 0,-0.3 0,-0.7 0,-1 0,-0.3 0.2,-0.5 0.4,-0.7 0.2,-0.2 0.5,-0.3 0.8,-0.2 0.4,0.1 0.7,0.2 1.1,0.5 0.4,0.3 0.8,0.7 1.1,1.1 0.6,0.9 1,2 1.2,3.1 l 0,0 c -0.1,1.6 -0.6,2.9 -1.4,3.1 l 0,0 z"
           id="path295"
           inkscape:connector-curvature="0" /><path
           d="m 881.3,499.9 c 0.6,-0.1 1.1,-0.1 1.7,-0.1 0.8,0 1.5,0 2,-0.1 l 0.2,0 c 0.4,-0.1 0.9,-0.2 1.3,-0.2 0.5,-0.1 1,-0.1 1.6,0 0.2,0 0.2,0 0.1,-0.1 -0.2,-0.2 -0.5,-0.3 -0.8,-0.4 -0.4,-0.1 -0.8,-0.2 -1.3,-0.3 -0.4,0 -0.8,0 -1.3,0 l -0.3,0.1 c -0.7,0.2 -1.4,0.4 -2,0.5 -0.5,0.1 -1,0.2 -1.5,0.3 -0.3,0 -0.5,0.1 -0.5,0.2 0,0.1 0.3,0.3 0.8,0.1 l 0,0 z"
           id="path297"
           inkscape:connector-curvature="0" /><path
           d="m 882.5,495.9 c 0.4,0 0.8,0 1.2,0.1 0.4,0.1 0.8,0.1 1.2,0.1 l 0,0 c 0.6,-0.1 1.2,-0.1 1.9,-0.1 0.3,0 0,-0.2 -0.4,-0.4 -0.5,-0.2 -1,-0.4 -1.5,-0.5 -0.1,0 -0.3,0 -0.4,0 l -1.3,0.3 c -0.3,0.1 -0.7,0.2 -1,0.2 -0.2,0 -0.3,0.1 -0.3,0.2 0,0.1 0.2,0.2 0.6,0.1 l 0,0 z"
           id="path299"
           inkscape:connector-curvature="0" /><path
           d="m 885,498.7 c 0,-1.4 0,-4.5 0.1,-8.3 0.1,-3.2 0.2,-6.8 0.3,-10.2 0.1,-1.3 0.1,-2.6 0.2,-3.7 0,-0.4 0.1,-0.9 0.1,-1.3 0,-0.2 0.1,-0.5 0.1,-0.7 0.1,-0.5 0.2,-1.1 0.2,-1.6 l 0,0 c 0.1,-1.1 0.1,-1.9 0.1,-2.6 0,-0.1 0,-0.1 0,-0.2 0,-1.5 0,-3.8 -0.1,-6.5 -0.1,-2.1 -0.2,-4.5 -0.5,-6.9 -0.1,-0.9 -0.2,-1.8 -0.4,-2.7 -0.1,-0.6 -0.3,-1.3 -0.6,-1.9 -0.5,-1.1 -1,-2.2 -1.7,-3.2 -0.1,-0.2 -0.3,-0.5 -0.5,-0.7 -0.2,-0.2 -0.4,-0.4 -0.6,-0.5 -0.1,-0.1 -0.3,-0.2 -0.5,-0.2 -0.1,0 -0.2,0 -0.2,0 l 0,0 c 0.2,0.1 0.5,0.2 0.7,0.4 0.2,0.1 0.3,0.3 0.4,0.5 0.2,0.2 0.3,0.5 0.4,0.7 0.2,0.4 0.5,0.9 0.7,1.5 0.2,0.6 0.5,1.2 0.8,1.8 0.2,0.6 0.4,1.2 0.5,1.8 0.1,0.9 0.2,1.8 0.3,2.7 0.2,2.2 0.2,4.5 0.2,6.8 0,2.3 0,4.6 -0.1,6.7 l 0,0 c 0,0.9 -0.1,1.7 -0.1,2.5 0,0.4 -0.1,0.9 -0.1,1.2 0,0.1 0,0.2 -0.1,0.3 l 0,0 c -0.1,0.3 -0.1,0.6 -0.1,0.8 l 0,0 c 0,0.4 -0.1,0.9 -0.1,1.3 l 0,0 c 0,1.3 -0.1,2.5 -0.1,3.8 0,3.5 0,7 0,10.2 0,4 0,7.4 0,9.7 0,0.2 0,0.4 0,0.6 0,1 0,1.9 0,2.5 0,0.4 0,0.7 0.1,0.9 0,0.1 0,0.2 0,0.2 l 0,0.1 0,0 0,0 0,0 0,-0.1 c 0,-0.1 0,-0.2 0,-0.2 0,-0.2 0,-0.5 0.1,-0.9 0,-0.7 0,-1.7 0,-3.1 0,-0.4 0,-0.9 0,-1.4 l 0.5,-0.1 z"
           id="path301"
           inkscape:connector-curvature="0" /><path
           class="st30"
           d="m 886.6,544 c -2,0.1 -3.6,1.8 -3.5,3.8 0,2.1 1.8,2.2 3.7,2.2 1.9,0 3.4,-0.1 3.4,-2.2 0.1,-2 -1.5,-3.7 -3.6,-3.8 l 0,0 z"
           id="path303"
           inkscape:connector-curvature="0"
           style="stroke:#000000;stroke-width:5" /><path
           class="st28"
           d="m 864.1,488.1 c 0,0 -4.2,0.4 -5.5,-2.2"
           id="path305"
           inkscape:connector-curvature="0"
           style="fill:none;stroke:#000000;stroke-width:5" /><path
           class="st28"
           d="m 906.2,488.4 c 0,0 4.2,0.4 5.5,-2.2"
           id="path307"
           inkscape:connector-curvature="0"
           style="fill:none;stroke:#000000;stroke-width:5" /><path
           d="m 836.5,623 c 0.6,-0.7 1.8,-0.6 3,0.1 0.2,0.1 0.3,0.2 0.5,0.3 0.3,0.3 0.6,0.6 0.9,0.9 0.3,0.3 0.4,0.7 0.5,1.1 0.1,0.4 0.1,0.7 -0.1,1.1 -0.2,0.4 -0.5,0.6 -0.9,0.7 -0.5,0.1 -1,0 -1.5,-0.1 -0.5,-0.2 -0.9,-0.4 -1.3,-0.7 -0.2,-0.1 -0.3,-0.3 -0.5,-0.4 -0.8,-1 -1.2,-2.2 -0.6,-3 l 0,0 z"
           id="path309"
           inkscape:connector-curvature="0" /><path
           d="m 839.5,618.5 c 0.4,-0.4 1,-0.6 1.5,-0.5 0.8,0.1 1.6,0.4 2.3,0.8 l 0.1,0.1 c 0.5,0.3 1,0.7 1.4,1.2 0.2,0.1 0.3,0.3 0.4,0.5 0.2,0.3 0.3,0.7 0.4,1 0,0.2 0,0.3 0,0.5 0,0.2 -0.1,0.3 -0.2,0.4 -0.1,0.1 -0.3,0.3 -0.5,0.3 -0.2,0.1 -0.5,0.1 -0.7,0.1 -0.3,0 -0.5,0 -0.8,0 -0.7,-0.1 -1.4,-0.4 -2,-0.8 l -0.1,-0.1 c -0.7,-0.5 -1.4,-1.1 -1.8,-1.9 -0.3,-0.5 -0.3,-1.1 0,-1.6 l 0,0 z"
           id="path311"
           inkscape:connector-curvature="0" /><path
           d="m 887.7,636.8 c 0.2,-0.5 0.3,-1.2 0.5,-2.1 0.2,-1 0.4,-2.1 0.5,-3.2 0.1,-1.4 0.3,-2.9 0.5,-4.6 l 0,0 c 0.3,-3.1 0.5,-6.5 0.6,-10 l 0,0 c 0,-1.3 0,-2.6 -0.1,-3.8 -0.1,-1.8 -0.2,-3.5 -0.3,-5.2 -0.4,-5.1 -0.8,-9.4 -1.1,-11.3 l -0.1,-0.9 c -0.3,-2.7 -0.8,-6.7 -1.5,-11.1 l 0,0 c -0.2,-1.3 -0.4,-2.5 -0.6,-3.8 l 0,0 c -0.1,-0.4 -0.1,-0.8 -0.2,-1.3 0,-0.2 -0.1,-0.5 -0.2,-0.7 l 0,-0.3 0,0 c 0,-0.4 0,-0.7 0,-1.1 0,-1.5 0,-3 -0.1,-4.5 0,-2.2 -0.2,-4.4 -0.4,-6.6 0,-0.3 -0.1,-0.6 -0.1,-0.8 -0.1,-0.5 -0.1,-0.8 -0.2,-1.1 -0.1,-0.3 -0.1,-0.4 -0.1,-0.5 l 0,-0.1 0,0 c 0,0 0,0.1 0,0.2 0,0.1 0,0.3 0.1,0.5 0,0.5 0.1,1.1 0.2,2 0.2,2.2 0.3,4.4 0.2,6.6 0,1.4 -0.1,2.9 -0.1,4.5 0,0.4 0,0.7 0,1.1 0,0.1 0,0.2 0,0.3 l 0,0.1 c 0.1,0.2 0.1,0.5 0.1,0.7 0.1,0.4 0.1,0.8 0.2,1.3 0.2,1.3 0.3,2.5 0.5,3.8 0.5,3.8 0.9,7.7 1.3,11.1 0.3,2.4 0.5,4.6 0.7,6.5 0.2,1.9 0.4,3.8 0.6,5.7 0.2,1.7 0.3,3.4 0.4,5.1 l 0,0 c 0.1,1.3 0.2,2.5 0.2,3.8 0,3.5 -0.1,6.9 -0.3,10 l 0,0 c -0.1,1.6 -0.3,3.2 -0.4,4.6 -0.1,1.5 -0.4,3 -0.8,4.5 -0.3,1.1 -0.7,2.3 -1.1,3.4 l -0.4,0.9 c -2.4,4.7 -2.4,5.4 0.3,0.1 0.5,-1.4 1,-2.6 1.2,-3.8 l 0,0 z"
           id="path313"
           inkscape:connector-curvature="0" /><path
           d="m 888.7,580.1 c -0.6,0.1 -1.1,0.1 -1.7,0.1 -0.8,0 -1.5,0 -2,0.1 l -0.2,0 c -0.4,0.1 -0.8,0.2 -1.3,0.2 -0.5,0.1 -1,0.1 -1.6,0 -0.2,0 -0.2,0 -0.1,0.1 0.2,0.2 0.5,0.3 0.8,0.4 0.4,0.1 0.8,0.2 1.3,0.3 0.4,0 0.8,0 1.3,0 l 0.3,-0.1 c 0.7,-0.2 1.4,-0.4 2,-0.5 0.5,-0.1 1,-0.2 1.5,-0.3 0.3,0 0.5,-0.1 0.5,-0.2 0,-0.1 -0.3,-0.2 -0.8,-0.1 l 0,0 z"
           id="path315"
           inkscape:connector-curvature="0" /><path
           d="m 887.5,577.1 c -0.4,0 -0.8,0 -1.2,-0.1 -0.4,-0.1 -0.8,-0.1 -1.2,-0.1 l 0,0 c -0.6,0.1 -1.2,0.1 -1.9,0.1 -0.3,0 0,0.2 0.4,0.4 0.5,0.2 1,0.4 1.5,0.5 0.1,0 0.3,0 0.4,0 l 1.3,-0.3 c 0.3,-0.1 0.7,-0.2 1,-0.2 0.2,0 0.3,-0.1 0.3,-0.2 0,-0.1 -0.2,-0.2 -0.6,-0.1 l 0,0 z"
           id="path317"
           inkscape:connector-curvature="0" /><path
           class="st22"
           d="m 939.6,621.6 c 16.9,0 31.1,12.4 31.1,28.9 0,16.5 -13.7,29.9 -30.6,29.9 -12.6,0 -24.9,-3.5 -29.5,-14.1 -1.6,-3.6 -2.5,-11.9 -1.9,-16.6 2.4,-16.4 14.1,-28.1 30.9,-28.1 l 0,0 z"
           id="path319"
           inkscape:connector-curvature="0"
           style="fill:#a06121" /><path
           class="st26"
           d="m 929.5,674.2 c 4,2.5 10.1,2.3 15.5,0.2 8.2,-3.3 12.7,-11.4 10,-18.2 -2.7,-6.8 -10.8,-12 -19,-8.7 -8.2,3.3 -13.4,13.8 -10.7,20.5 1,2.4 2.2,4.9 4.2,6.2 l 0,0 z"
           id="path321"
           inkscape:connector-curvature="0"
           style="fill:#834317" /><path
           d="m 929.5,674.3 c 1.4,0.8 2.9,1.5 4.5,1.8 1.4,0.3 2.9,0.5 4.3,0.5 1.3,0 2.6,-0.2 3.8,-0.4 1.1,-0.2 2.2,-0.5 3.2,-0.9 l 0,0 c 1.3,-0.5 2.6,-1.1 3.8,-1.9 1,-0.6 1.9,-1.3 2.8,-2.1 0.7,-0.6 1.4,-1.3 2,-2.1 0.5,-0.6 1,-1.3 1.4,-1.9 0.5,-0.7 0.8,-1.5 1.1,-2.3 0.5,-1.3 0.7,-2.6 0.7,-3.9 0,-0.9 0,-1.7 -0.2,-2.6 -0.2,-0.9 -0.4,-1.9 -0.8,-2.7 -0.5,-1 -1,-2 -1.7,-2.9 -1.2,-1.7 -2.7,-3.1 -4.5,-4.2 -0.7,-0.4 -1.4,-0.8 -2.2,-1.2 l 0,0 c -0.6,-0.3 -1.3,-0.5 -2,-0.7 -1.3,-0.4 -2.6,-0.7 -4,-0.8 -1,-0.1 -2,-0.1 -3,0 -1.1,0.1 -2.3,0.3 -3.3,0.7 -1.4,0.5 -2.7,1.1 -3.9,1.9 -2.1,1.4 -4,3.2 -5.4,5.3 -0.4,0.6 -0.8,1.3 -1.2,2 l 0,0.1 c -0.4,0.9 -0.7,1.8 -1,2.7 -0.4,1.2 -0.6,2.5 -0.7,3.8 -0.1,1 -0.1,2 0,3.1 0.2,2.3 1.2,4.4 2.8,6 0.7,0.8 1.6,1.5 2.5,2.1 0.3,0.2 0.6,0.4 1,0.5 l 0,0 0,0 c -0.1,-0.1 -0.3,-0.3 -0.6,-0.5 -0.4,-0.4 -0.8,-0.7 -1.2,-1.2 -0.5,-0.6 -0.9,-1.2 -1.3,-1.8 -0.4,-0.8 -0.7,-1.6 -0.9,-2.5 -0.2,-0.8 -0.3,-1.7 -0.3,-2.6 0,-0.9 0.1,-1.8 0.3,-2.7 0.5,-1.9 1.2,-3.7 2.1,-5.4 0.5,-1 1,-1.8 1.5,-2.5 0.8,-1.4 1.8,-2.6 2.9,-3.7 1.1,-1.1 2.4,-2 3.9,-2.7 1,-0.5 2.1,-0.8 3.2,-1 1,-0.2 2,-0.2 3.1,-0.2 0.9,0.1 1.8,0.2 2.6,0.5 0.7,0.2 1.3,0.4 1.9,0.8 l 0.3,0.2 c 0.5,0.3 1.1,0.6 1.5,1 1.5,1.1 2.7,2.5 3.7,4.1 0.6,0.9 1.1,1.9 1.4,3 0.5,1.6 0.7,3.3 0.4,4.9 -0.3,1.6 -0.8,3.1 -1.6,4.4 -0.9,1.5 -1.9,2.8 -3.1,4.1 -0.6,0.7 -1.3,1.3 -2,1.8 -0.9,0.7 -1.9,1.4 -3,1.9 -1.6,0.8 -3.3,1.4 -5,1.8 -1.7,0.3 -3.4,0.4 -5.1,0.3 -1.3,-0.1 -2.6,-0.4 -3.8,-0.8 -0.5,-0.2 -0.8,-0.3 -1.1,-0.4 l 0.2,-0.7 0,0 z"
           id="path323"
           inkscape:connector-curvature="0" /><path
           class="st25"
           d="m 939.6,621.6 c -10.2,0 -18.4,4.3 -23.9,11.3 0.5,-0.6 1.1,-1.2 1.7,-1.7 0.6,-0.5 1.3,-1.2 2.1,-1.8 0.8,-0.6 1.5,-1.1 2.2,-1.6 0.7,-0.5 1.6,-0.9 2.4,-1.4 0.8,-0.5 1.7,-0.8 2.5,-1.1 0.8,-0.3 1.8,-0.6 2.7,-0.9 0.9,-0.3 1.9,-0.5 2.8,-0.7 0.9,-0.2 2,-0.3 3,-0.4 1,-0.1 2,-0.1 3.1,-0.1 1.1,0 2.1,0 3.1,0.1 1,0.1 2,0.2 3,0.4 1,0.2 2,0.4 3,0.7 1,0.3 1.9,0.6 2.8,1 0.9,0.4 1.8,0.8 2.7,1.2 0.9,0.4 1.7,0.9 2.6,1.4 0.9,0.5 1.6,1 2.4,1.6 0.8,0.6 1.5,1.2 2.2,1.8 0.7,0.6 1.4,1.3 2,2 0.6,0.7 1.3,1.5 1.8,2.2 0.6,0.8 1.1,1.6 1.6,2.4 0.5,0.8 0.9,1.7 1.3,2.5 0.8,1.8 1.4,3.6 1.8,5.5 0.2,1 0.4,2 0.5,2.9 0.1,1 0.2,2 0.2,3 0,1 0,2 -0.2,3.1 -0.3,3 -1.1,5.9 -2.3,8.6 -0.4,0.9 -0.8,1.8 -1.3,2.6 -0.5,0.8 -1,1.7 -1.5,2.5 -0.3,0.5 -0.7,0.9 -1,1.4 4.9,-5.4 7.6,-12.3 7.6,-19.6 0.3,-16.5 -14,-28.9 -30.9,-28.9 l 0,0 z"
           id="path325"
           inkscape:connector-curvature="0"
           style="fill:#b8854f" /><path
           class="st23"
           d="m 914,635.7 c -2.6,4.3 -4.2,9 -4.9,13.9 -0.7,4.7 0.3,13 1.9,16.6 4.7,10.7 16.9,14.1 29.5,14.1 11.8,0.1 22.6,-6.7 27.7,-17.4 -0.3,0.4 -0.5,0.9 -0.8,1.3 -0.5,0.8 -1.1,1.6 -1.8,2.3 -0.7,0.7 -1.3,1.4 -2,2.1 -0.7,0.7 -1.4,1.3 -2.2,1.9 -0.8,0.6 -1.5,1.2 -2.4,1.7 -0.9,0.5 -1.7,1 -2.5,1.5 -0.8,0.5 -1.8,0.9 -2.7,1.3 -0.9,0.4 -1.9,0.7 -2.8,1 -0.9,0.3 -1.9,0.5 -2.9,0.7 -1,0.2 -2,0.3 -3,0.5 -1,0.2 -2.1,0.2 -3.1,0.2 -1.6,0 -3.2,0 -4.7,-0.2 -1.5,-0.2 -3.1,-0.3 -4.6,-0.5 -1.5,-0.2 -2.9,-0.6 -4.4,-1 -1.4,-0.4 -2.8,-0.9 -4.1,-1.4 -1.3,-0.5 -2.5,-1.2 -3.7,-1.9 -0.6,-0.4 -1.1,-0.8 -1.7,-1.2 -0.6,-0.4 -1.1,-0.8 -1.6,-1.3 -0.5,-0.5 -1,-0.9 -1.4,-1.4 -0.9,-1 -1.7,-2.1 -2.4,-3.3 -0.4,-0.6 -0.7,-1.3 -1,-1.9 -0.5,-1.1 -0.8,-2.3 -1,-3.5 -0.3,-1.5 -0.5,-2.9 -0.7,-4.4 -0.2,-1.6 -0.3,-3.2 -0.3,-4.6 0,-1.4 0,-2.7 0.2,-4 0.2,-1 0.3,-2 0.5,-3 0.2,-1 0.5,-2 0.8,-2.9 0.3,-0.9 0.6,-1.9 1,-2.8 0.4,-0.9 0.7,-1.6 1.1,-2.4 l 0,0 z"
           id="path327"
           inkscape:connector-curvature="0"
           style="fill:#6e4a25" /><path
           d="m 940.2,621.5 c 2.2,0 4.4,0.2 6.5,0.7 2,0.4 3.9,1.1 5.7,1.9 3.2,1.4 6.2,3.4 8.7,5.9 l 0,0 c 1.7,1.6 3.1,3.5 4.4,5.5 1,1.7 1.9,3.6 2.6,5.5 0.6,1.6 1,3.3 1.2,5 0.2,1.5 0.3,3 0.2,4.5 l 0,0 c 0,1.4 -0.2,2.8 -0.4,4.2 -0.2,1.2 -0.5,2.3 -0.8,3.4 -0.6,1.8 -1.3,3.6 -2.3,5.3 -0.6,1.1 -1.3,2.2 -2,3.3 -2,2.9 -4.5,5.4 -7.5,7.4 -1.6,1.1 -3.3,2.1 -5.2,2.8 -1.8,0.8 -3.7,1.4 -5.6,1.8 -1.8,0.4 -3.7,0.6 -5.6,0.7 -2.2,0.1 -4.4,0 -6.6,-0.2 -1.9,-0.2 -3.4,-0.4 -4.4,-0.5 -0.9,-0.2 -1.8,-0.4 -2.7,-0.6 -1.3,-0.4 -2.6,-0.8 -3.8,-1.4 -2.5,-1.1 -4.7,-2.5 -6.7,-4.4 -1.9,-1.8 -3.4,-4.1 -4.4,-6.5 -0.4,-1.1 -0.7,-2.2 -0.9,-3.3 -0.3,-1.4 -0.5,-2.9 -0.6,-4.3 -0.1,-1.5 -0.2,-3 -0.2,-4.5 0,-1.3 0.1,-2.6 0.3,-3.9 0.2,-1.4 0.5,-2.8 0.9,-4.1 0.3,-1.2 0.6,-2.1 0.8,-2.8 0.7,-2.1 1.5,-4.1 2.6,-6 1.4,-2.6 3.2,-4.9 5.3,-7 1.2,-1.3 2.6,-2.4 4,-3.4 1.5,-1 3,-1.9 4.6,-2.6 1.6,-0.7 3.2,-1.3 4.8,-1.7 1.5,-0.4 3.1,-0.7 4.7,-0.8 1.3,-0.1 2,-0.1 2.1,-0.2 l 0,0 0,0 c -0.7,-0.1 -1.5,-0.1 -2.3,-0.1 -1.7,0 -3.5,0.2 -5.2,0.5 -2.4,0.5 -4.8,1.2 -7.1,2.2 -2.7,1.2 -5.1,2.7 -7.4,4.5 -1.6,1.4 -3.1,3 -4.4,4.7 -1.3,1.7 -2.4,3.5 -3.3,5.3 -0.9,1.8 -1.6,3.6 -2.2,5.5 -0.5,1.6 -0.8,3.3 -1.1,5 0,0.2 0,0.5 -0.1,0.7 -0.3,3 -0.1,6 0.4,9 0.2,1.5 0.5,3 0.9,4.5 l 0,0 c 0.3,1.2 0.7,2.4 1.2,3.6 1.3,2.6 3,4.9 5.2,6.8 l 0,0 c 2.2,1.8 4.6,3.3 7.3,4.3 1.8,0.7 3.7,1.3 5.6,1.7 1.7,0.4 3.2,0.7 4.5,0.8 0.8,0.1 1.9,0.3 3.2,0.4 1.3,0.1 2.9,0.2 4.6,0.3 1.8,0 3.6,-0.1 5.3,-0.3 4.2,-0.6 8.2,-2 11.9,-4.2 1.9,-1.1 3.7,-2.5 5.4,-4 1.7,-1.6 3.2,-3.4 4.5,-5.4 1.2,-1.9 2.2,-3.9 3,-5.9 0.7,-1.9 1.2,-3.8 1.5,-5.7 0.3,-1.6 0.4,-3.3 0.4,-4.9 0,-0.8 -0.1,-1.5 -0.2,-2.2 -0.2,-1.4 -0.4,-2.9 -0.8,-4.3 -1,-3.7 -2.7,-7.2 -4.9,-10.2 -1.2,-1.7 -2.7,-3.3 -4.2,-4.7 -2.2,-2 -4.7,-3.6 -7.4,-4.8 -2.3,-1.1 -4.7,-1.8 -7.2,-2.3 -1.7,-0.3 -3.5,-0.5 -5.2,-0.5 -0.9,0 -1.6,0 -1.6,0 l 0,0 z"
           id="path329"
           inkscape:connector-curvature="0" /><path
           class="st31"
           d="m 929.3,627.8 c -1.5,1.5 -1.6,4 -1.2,6.5 0.6,3.9 3.2,6.6 6.4,6 3.6,-0.6 6,-4 5.5,-7.6 -0.6,-3.9 -4.6,-7 -7.8,-6.5 -1.1,0.2 -2.1,0.8 -2.9,1.6 l 0,0 z"
           id="path331"
           inkscape:connector-curvature="0"
           style="fill:#834317;stroke:#000000;stroke-width:3" /><path
           class="st31"
           d="m 948.3,627.9 c -1.8,0.6 -2.9,2.5 -3.6,4.7 -1.1,3.3 -0.2,6.5 2.6,7.3 3.1,0.9 6.4,-0.8 7.4,-3.8 1.1,-3.3 -0.8,-7.4 -3.5,-8.3 -1,-0.3 -2,-0.3 -2.9,0.1 l 0,0 z"
           id="path333"
           inkscape:connector-curvature="0"
           style="fill:#834317;stroke:#000000;stroke-width:3" /><path
           class="st31"
           d="m 960.7,637.7 c -1.6,0.4 -2.6,2 -3.3,3.8 -1.1,2.8 -0.5,5.6 1.8,6.5 2.6,1 5.5,-0.3 6.6,-2.9 1.1,-2.8 -0.3,-6.4 -2.6,-7.3 -0.8,-0.3 -1.7,-0.3 -2.5,-0.1 l 0,0 z"
           id="path335"
           inkscape:connector-curvature="0"
           style="fill:#834317;stroke:#000000;stroke-width:3" /><path
           class="st22"
           d="m 840.3,629.8 c -16.9,0 -30.6,13.4 -30.6,29.9 0,16.5 13.7,29.8 30.6,29.8 12.6,0 24.9,-3.5 29.5,-14.1 1.6,-3.6 2.4,-14.6 1.5,-18.8 -3.1,-16.2 -14.1,-26.9 -31,-26.8 l 0,0 z"
           id="path337"
           inkscape:connector-curvature="0"
           style="fill:#a06121" /><path
           class="st26"
           d="m 851.8,682.7 c -4,2.5 -9.7,3 -15,0.8 -8.2,-3.3 -12.7,-11.4 -10,-18.2 2.7,-6.8 10.8,-12 19,-8.7 8.2,3.3 13.4,13.8 10.7,20.5 -1,2.4 -2.6,4.3 -4.7,5.6 l 0,0 z"
           id="path339"
           inkscape:connector-curvature="0"
           style="fill:#834317" /><path
           class="st23"
           d="m 816.6,640.8 c -4.4,5.3 -6.8,11.9 -6.8,18.8 0,16.5 13.7,29.9 30.6,29.9 11.7,0 23,-3 28.4,-11.9 l -0.1,0.1 c -0.5,0.5 -0.9,1 -1.4,1.4 -0.5,0.5 -1,0.9 -1.6,1.3 -0.6,0.4 -1.1,0.8 -1.7,1.2 -1.2,0.7 -2.4,1.4 -3.7,1.9 -1.3,0.6 -2.7,1 -4.1,1.4 -1.4,0.4 -2.9,0.7 -4.4,1 -1.5,0.3 -3,0.4 -4.6,0.5 -1.6,0.1 -3.1,0.2 -4.7,0.2 -1.1,0 -2.1,0 -3.1,-0.2 -1,-0.2 -2,-0.3 -3,-0.5 -1,-0.2 -2,-0.5 -2.9,-0.7 -0.9,-0.2 -1.9,-0.6 -2.8,-1 -0.9,-0.4 -1.8,-0.8 -2.7,-1.3 -0.9,-0.5 -1.7,-1 -2.5,-1.5 -0.8,-0.5 -1.6,-1.1 -2.4,-1.7 -0.8,-0.6 -1.5,-1.3 -2.2,-1.9 -0.7,-0.6 -1.3,-1.4 -2,-2.1 -0.7,-0.7 -1.2,-1.5 -1.8,-2.3 -0.6,-0.8 -1,-1.6 -1.5,-2.5 -0.5,-0.9 -0.9,-1.7 -1.3,-2.6 -1.2,-2.7 -1.9,-5.6 -2.3,-8.6 -0.2,-2 -0.2,-4.1 0,-6.1 0.3,-3 1.1,-5.9 2.3,-8.6 0.4,-0.9 0.8,-1.8 1.3,-2.6 0.3,-0.5 0.7,-1 1,-1.6 l 0,0 z"
           id="path341"
           inkscape:connector-curvature="0"
           style="fill:#6e4a25" /><path
           d="m 840.3,628.8 c -2.3,0 -4.6,0.3 -6.9,0.8 -2.1,0.5 -4.1,1.1 -6.1,2 -3.4,1.5 -6.6,3.6 -9.3,6.2 l 0,0 c -1.8,1.7 -3.4,3.7 -4.7,5.8 -1.2,1.8 -2.1,3.8 -2.9,5.9 -0.7,1.7 -1.1,3.6 -1.5,5.4 -0.3,1.6 -0.5,3.2 -0.5,4.8 l 0,0 c 0,1.5 0.1,3.1 0.3,4.6 0.2,1.3 0.4,2.6 0.8,3.8 0.5,2.1 1.3,4.1 2.3,6 0.6,1.3 1.4,2.5 2.2,3.6 1.1,1.5 2.3,2.9 3.7,4.2 1.5,1.4 3.1,2.6 4.8,3.6 3.6,2.3 7.7,3.8 11.9,4.5 2,0.3 4,0.5 6,0.4 2.3,0 4.6,-0.2 6.8,-0.5 2,-0.3 3.5,-0.6 4.5,-0.8 0.7,-0.2 1.6,-0.4 2.7,-0.7 1.3,-0.4 2.6,-0.8 3.9,-1.3 2.7,-1 5.1,-2.5 7.3,-4.3 2.2,-1.9 4,-4.3 5.2,-6.9 0.6,-1.3 1,-2.7 1.2,-4.1 0.4,-1.8 0.6,-3.7 0.8,-5.4 0.2,-1.9 0.3,-3.8 0.3,-5.5 l 0,0 c 0,-1.5 -0.1,-3 -0.3,-4.5 -0.3,-1.9 -0.8,-3.7 -1.5,-5.5 -0.9,-2.4 -1.9,-4.7 -3.2,-6.8 -1.7,-2.9 -3.9,-5.6 -6.4,-7.8 -1.4,-1.1 -2.9,-2.1 -4.4,-3 -1.6,-0.9 -3.2,-1.6 -4.9,-2.2 -1.6,-0.6 -3.3,-1 -5,-1.3 -1.6,-0.3 -3.2,-0.4 -4.8,-0.5 -0.7,0 -1.2,0 -1.6,0 -0.2,0 -0.5,0 -0.7,0 l 0,0 0,0 c 0.2,0 1,0.1 2.2,0.2 1.6,0.2 3.2,0.6 4.8,1 2.2,0.6 4.4,1.5 6.4,2.6 2.4,1.3 4.5,2.9 6.4,4.8 1.4,1.4 2.6,2.8 3.6,4.5 1,1.6 2,3.3 2.7,5 1.4,3.1 2.4,6.3 3.2,9.7 0.1,0.4 0.2,0.7 0.2,1.1 0.1,0.9 0.2,1.8 0.2,2.8 0.1,1.7 0.1,3.5 0,5.3 -0.1,1.8 -0.2,3.5 -0.4,5.2 -0.1,1.3 -0.4,2.5 -0.8,3.7 -1,2.5 -2.5,4.7 -4.4,6.6 l 0,0 c -2,1.9 -4.2,3.4 -6.7,4.5 -1.7,0.8 -3.5,1.4 -5.4,1.8 -1.4,0.4 -2.9,0.6 -4.3,0.8 -0.8,0.1 -1.9,0.2 -3.2,0.2 -1.3,0 -2.9,0.1 -4.7,0 -1.7,0 -3.4,-0.2 -5.1,-0.6 -3.9,-0.8 -7.6,-2.3 -10.9,-4.5 -1.7,-1.1 -3.4,-2.5 -4.8,-4 -1.5,-1.6 -2.9,-3.3 -4,-5.1 -2,-3.3 -3.4,-6.9 -4,-10.7 -0.2,-1.5 -0.4,-3 -0.4,-4.4 0,-0.7 0,-1.3 0,-1.9 0,-1.3 0.2,-2.7 0.4,-4 0.3,-1.7 0.7,-3.3 1.3,-4.9 0.6,-1.8 1.5,-3.6 2.5,-5.2 1,-1.8 2.3,-3.4 3.7,-4.9 2,-2.2 4.3,-4 6.9,-5.5 2.2,-1.3 4.6,-2.3 7.1,-3.1 1.8,-0.5 3.6,-0.9 5.4,-1.1 1.3,-0.3 2.1,-0.4 2.1,-0.4 l 0,0 z"
           id="path343"
           inkscape:connector-curvature="0" /><path
           d="m 851.3,681.9 c -1.2,0.8 -2.6,1.3 -4,1.7 -1.3,0.3 -2.6,0.4 -3.9,0.4 -1.2,0 -2.3,-0.2 -3.5,-0.4 -1,-0.2 -2,-0.5 -2.9,-0.9 -1.2,-0.5 -2.3,-1.1 -3.3,-1.9 -0.8,-0.6 -1.6,-1.3 -2.3,-2 -0.6,-0.6 -1.1,-1.2 -1.5,-1.9 -0.4,-0.6 -0.7,-1.1 -1,-1.7 -0.3,-0.6 -0.5,-1.3 -0.8,-1.9 -0.3,-1 -0.6,-2 -0.7,-3.1 -0.1,-1.4 0,-2.8 0.5,-4.2 0.3,-0.9 0.7,-1.8 1.2,-2.6 0.5,-0.8 1,-1.6 1.7,-2.3 0.6,-0.7 1.2,-1.3 1.9,-1.8 0.6,-0.5 1.2,-0.9 1.8,-1.3 0.5,-0.3 1.1,-0.6 1.7,-0.8 0.5,-0.2 0.9,-0.3 1.4,-0.4 0.7,-0.1 1.5,-0.2 2.2,-0.2 0.9,0 1.8,0.1 2.7,0.2 1,0.2 1.9,0.5 2.8,0.9 1.1,0.5 2.2,1.2 3.2,2 0.9,0.8 1.8,1.6 2.5,2.5 0.6,0.8 1.2,1.6 1.7,2.4 0.5,0.7 0.8,1.3 1,1.8 l 0,0.1 c 0.4,0.7 0.8,1.5 1.1,2.2 0.4,1 0.7,2.1 0.8,3.1 0.1,0.8 0.2,1.7 0.1,2.5 0,0.9 -0.2,1.7 -0.5,2.5 -0.3,1 -0.7,1.9 -1.3,2.7 -0.5,0.8 -1.1,1.5 -1.8,2.1 -0.4,0.4 -0.7,0.6 -0.7,0.7 l 0,0 0,0 c 0.2,-0.1 0.4,-0.2 0.7,-0.3 0.5,-0.3 0.9,-0.5 1.3,-0.8 0.6,-0.5 1.2,-1 1.7,-1.5 0.7,-0.7 1.2,-1.4 1.7,-2.2 0.5,-0.9 0.8,-1.8 1,-2.8 0.2,-1 0.3,-2.1 0.3,-3.2 0,-1.2 -0.2,-2.3 -0.5,-3.5 -0.3,-1.1 -0.7,-2.1 -1.2,-3.1 -0.5,-1 -1.1,-2 -1.8,-2.9 -1.2,-1.4 -2.5,-2.6 -4,-3.7 -1.5,-1 -3.1,-1.8 -4.8,-2.4 -1.2,-0.4 -2.4,-0.6 -3.6,-0.7 -1.1,-0.1 -2.2,0 -3.3,0.2 -0.9,0.1 -1.8,0.4 -2.7,0.6 -0.8,0.3 -1.5,0.5 -2,0.8 l -0.3,0.2 c -2.5,1.1 -4.6,2.8 -6.3,4.9 -0.8,1 -1.4,2 -1.9,3.2 -0.4,0.9 -0.7,1.9 -0.8,2.9 -0.2,1 -0.2,2 -0.1,3 0.1,1.9 0.7,3.8 1.6,5.5 0.6,1 1.2,2 2,2.8 0.6,0.7 1.2,1.3 1.9,1.8 0.8,0.6 1.7,1.2 2.6,1.6 1.1,0.6 2.3,1.1 3.6,1.4 1.8,0.5 3.6,0.8 5.5,0.8 1.7,0 3.4,-0.2 5,-0.7 1.1,-0.3 2.2,-0.8 3.3,-1.5 0.2,-0.3 0.5,-0.6 1,-0.8 l 0,0 z"
           id="path345"
           inkscape:connector-curvature="0" /><path
           class="st31"
           d="m 851.5,636.7 c 1.6,1.3 2,3.6 1.9,6.1 -0.1,3.8 -2.2,6.6 -5.3,6.5 -3.5,-0.2 -6.2,-3.1 -6.1,-6.6 0.1,-3.8 3.5,-7.2 6.6,-7.1 1.1,0 2.1,0.4 2.9,1.1 l 0,0 z"
           id="path347"
           inkscape:connector-curvature="0"
           style="fill:#834317;stroke:#000000;stroke-width:3" /><path
           class="st31"
           d="m 833.5,637 c 1.8,0.6 2.9,2.5 3.6,4.7 1.1,3.3 0.2,6.5 -2.6,7.3 -3.1,0.9 -6.4,-0.8 -7.4,-3.8 -1.1,-3.3 0.8,-7.4 3.5,-8.3 1,-0.2 2,-0.2 2.9,0.1 l 0,0 z"
           id="path349"
           inkscape:connector-curvature="0"
           style="fill:#834317;stroke:#000000;stroke-width:3" /><path
           class="st31"
           d="m 820.6,646.6 c 1.7,0.3 2.9,1.8 3.8,3.7 1.4,2.8 0.9,5.7 -1.4,6.8 -2.6,1.2 -5.7,0.1 -7,-2.5 -1.4,-2.8 -0.2,-6.6 2.1,-7.8 0.8,-0.2 1.7,-0.3 2.5,-0.2 l 0,0 z"
           id="path351"
           inkscape:connector-curvature="0"
           style="fill:#834317;stroke:#000000;stroke-width:3" /><path
           d="m 826.7,626 0.2,-0.1 0.2,0 c 0.1,0 0.2,0 0.3,0 0.3,0 0.5,0.1 0.7,0.2 0.5,0.3 1,0.7 1.3,1.1 0.1,0.2 0.2,0.3 0.3,0.5 0.2,0.4 0.4,0.8 0.5,1.2 0.1,0.4 0.1,0.8 0,1.3 -0.1,0.4 -0.2,0.7 -0.5,1 -0.3,0.3 -0.7,0.4 -1.1,0.3 -0.5,-0.1 -0.9,-0.4 -1.3,-0.7 -0.4,-0.3 -0.7,-0.7 -0.9,-1.1 -0.1,-0.2 -0.2,-0.4 -0.3,-0.6 -0.2,-0.6 -0.3,-1.2 -0.3,-1.8 0,-0.3 0.1,-0.5 0.3,-0.7 0.1,-0.1 0.1,-0.2 0.2,-0.3 l 0.1,-0.1 0.2,-0.1 0.1,-0.1 z"
           id="path353"
           inkscape:connector-curvature="0" /><path
           class="st27"
           d="m 886.5,630.1 0,0 0.5,0.5 0.6,0.5 0.5,0.5 c 0.1,0.1 0.2,0.2 0.3,0.3 0.1,0.1 0.1,0.2 0.2,0.3 l 0.2,0.3 c 0.1,0.2 0.2,0.3 0.4,0.5 0.4,0.3 0.8,0.7 1.1,1.1 0.1,0.1 0.1,0.1 0.1,0 0,-0.1 0,-0.2 0,-0.4 -0.1,-0.5 -0.3,-0.9 -0.6,-1.3 -0.1,-0.1 -0.1,-0.3 -0.2,-0.5 -0.1,-0.2 -0.2,-0.4 -0.4,-0.6 l 0,0 c -0.1,-0.1 -0.3,-0.2 -0.4,-0.2 l -0.7,-0.4 c -0.4,-0.2 -0.8,-0.4 -1.2,-0.7 -0.1,-0.1 -0.2,-0.1 -0.2,-0.2 0,-0.1 -0.1,-0.1 -0.2,-0.1 0,0 -0.1,0 -0.2,0 0,0 -0.1,0 -0.1,0 0,0 0,0.1 0,0.1 0,0.1 0,0.1 0.1,0.1 0,-0.1 0.1,0 0.2,0.2 l 0,0 z"
           id="path355"
           inkscape:connector-curvature="0"
           style="fill:#5d381e" /><path
           d="m 886.6,629.8 0,0 c 0.5,0.5 0.9,0.9 1.2,1.3 0.3,0.4 0.6,0.7 0.9,1 0.1,0.1 0.3,0.3 0.6,0.5 0.3,0.2 0.4,0.4 0.6,0.6 0.2,0.2 0.3,0.4 0.5,0.6 0.1,0.1 0.1,0.1 0.1,0.1 0,-0.1 0,-0.3 0,-0.4 0,-0.2 -0.1,-0.5 -0.2,-0.7 -0.1,-0.3 -0.2,-0.5 -0.4,-0.8 -0.2,-0.4 -0.5,-0.7 -0.8,-0.9 l -0.8,-0.5 c -0.6,-0.4 -1.1,-0.7 -1.4,-1 -0.1,-0.1 -0.2,-0.1 -0.2,-0.2 0,-0.1 -0.1,-0.1 -0.2,-0.1 0,0 -0.1,0 -0.2,0 l -0.1,0 c 0,0 -0.1,0 -0.1,0.1 0,0 0,0 0,0.1 0,0.1 0,0.1 0.1,0.1 0.2,0.1 0.3,0.2 0.4,0.2 l 0,0 z"
           id="path357"
           inkscape:connector-curvature="0" /><path
           d="m 886.6,633.6 0,0 c 0.2,-0.2 0.8,-0.6 1.3,-1 0.4,-0.3 0.8,-0.6 1.1,-0.9 0.1,-0.2 0.4,-0.5 0.7,-0.9 0.3,-0.4 0.5,-0.8 0.7,-1.2 0.1,-0.2 0,-0.2 -0.1,-0.1 -0.2,0.1 -0.5,0.3 -0.7,0.5 -0.3,0.2 -0.6,0.4 -0.9,0.7 -0.3,0.2 -0.5,0.4 -0.7,0.7 l -0.5,0.8 c -0.3,0.5 -0.6,0.9 -1,1.3 l -0.2,0.2 c -0.1,0 -0.1,0.1 -0.2,0.2 0,0 -0.1,0.1 -0.1,0.1 0,0 0,0 0,0.1 0,0 0,0.1 0.1,0.1 l 0,0 c 0,0 0.1,0 0.1,0 0.2,-0.3 0.3,-0.4 0.4,-0.6 l 0,0 z"
           id="path359"
           inkscape:connector-curvature="0" /></g></g></g></svg>
