<?xml version="1.0" encoding="UTF-8" standalone="no"?>
<!-- Generator: Adobe Illustrator 20.0.0, SVG Export Plug-In . SVG Version: 6.00 Build 0)  -->

<svg
   xmlns:dc="http://purl.org/dc/elements/1.1/"
   xmlns:cc="http://creativecommons.org/ns#"
   xmlns:rdf="http://www.w3.org/1999/02/22-rdf-syntax-ns#"
   xmlns:svg="http://www.w3.org/2000/svg"
   xmlns="http://www.w3.org/2000/svg"
   xmlns:xlink="http://www.w3.org/1999/xlink"
   xmlns:sodipodi="http://sodipodi.sourceforge.net/DTD/sodipodi-0.dtd"
   xmlns:inkscape="http://www.inkscape.org/namespaces/inkscape"
   version="1.1"
   id="svg16054"
   inkscape:version="0.91 r13725"
   sodipodi:docname="quiz3.svg"
   x="0px"
   y="0px"
   viewBox="0 0 2125.9999 1187"
   xml:space="preserve"
   width="2126"
   height="1187"><metadata
     id="metadata356"><rdf:RDF><cc:Work
         rdf:about=""><dc:format>image/svg+xml</dc:format><dc:type
           rdf:resource="http://purl.org/dc/dcmitype/StillImage" /><dc:title></dc:title></cc:Work></rdf:RDF></metadata><style
     type="text/css"
     id="style3">
	.st0{fill:#FFFFFF;}
	.st1{fill:#6B3C1F;stroke:#000000;}
	.st2{fill:#6B3C1F;stroke:#000000;stroke-linejoin:round;}
	.st3{fill:url(#SVGID_1_);stroke:#000000;}
	.st4{fill:#8D5027;stroke:#000000;}
	.st5{fill:url(#SVGID_2_);stroke:#000000;}
	.st6{fill:url(#SVGID_3_);stroke:#000000;}
	.st7{fill:url(#SVGID_4_);stroke:#000000;}
	.st8{fill:#D28C5F;stroke:#000000;}
	.st9{fill:url(#SVGID_5_);stroke:#000000;}
	.st10{fill:url(#SVGID_6_);stroke:#000000;}
	.st11{fill:url(#SVGID_7_);stroke:#000000;}
	.st12{fill:url(#SVGID_8_);stroke:#000000;}
	.st13{fill:url(#SVGID_9_);stroke:#000000;stroke-width:1.02;}
	.st14{fill:url(#SVGID_10_);stroke:#000000;}
	.st15{fill:#855B3E;}
	.st16{fill:none;stroke:#000000;stroke-width:1.02;}
	.st17{fill:#A05B2B;stroke:#000000;stroke-width:1.02;}
	.st18{fill:#6C5353;stroke:#000000;stroke-width:1.02;}
	.st19{fill:#906F6F;stroke:#000000;stroke-width:1.02;}
	.st20{fill:none;stroke:#000000;}
	.st21{fill:url(#SVGID_11_);}
	.st22{fill:#A06121;}
	.st23{fill:#B8854F;}
	.st24{fill:#834317;stroke:#000000;stroke-width:1.67;}
	.st25{fill:#834317;stroke:#000000;stroke-width:3.36;}
	.st26{fill:#834317;stroke:#000000;stroke-width:3.78;}
	.st27{fill:#834317;stroke:#000000;stroke-width:2.63;}
	.st28{fill:#834317;}
	.st29{fill:#956C45;stroke:#000000;stroke-width:2.83;}
	.st30{fill:#6E4A25;}
	.st31{fill:#5D381E;}
	.st32{fill:#DDCEBE;}
	.st33{fill:none;stroke:#000000;stroke-width:5;}
	.st34{fill:none;stroke:#000000;stroke-width:4;}
	.st35{stroke:#000000;stroke-width:5;}
	.st36{fill:#956C45;stroke:#000000;stroke-width:3;}
	.st37{fill:#834317;stroke:#000000;stroke-width:1.99;}
</style><defs
     id="defs5"><inkscape:path-effect
       effect="spiro"
       id="path-effect5341"
       is_visible="true" /><inkscape:path-effect
       effect="spiro"
       id="path-effect17606"
       is_visible="true" /><inkscape:path-effect
       effect="spiro"
       id="path-effect16830"
       is_visible="true" /><inkscape:path-effect
       effect="spiro"
       id="path-effect16826"
       is_visible="true" /><inkscape:path-effect
       effect="spiro"
       id="path-effect16822"
       is_visible="true" /><inkscape:path-effect
       effect="spiro"
       id="path-effect16818"
       is_visible="true" /><inkscape:path-effect
       effect="spiro"
       id="path-effect16814"
       is_visible="true" /><inkscape:path-effect
       effect="spiro"
       id="path-effect16810"
       is_visible="true" /><inkscape:path-effect
       effect="spiro"
       id="path-effect16806"
       is_visible="true" /><inkscape:path-effect
       effect="spiro"
       id="path-effect16802"
       is_visible="true" /><inkscape:path-effect
       effect="spiro"
       id="path-effect16798"
       is_visible="true" /><inkscape:path-effect
       effect="spiro"
       id="path-effect16794"
       is_visible="true" /><inkscape:path-effect
       effect="spiro"
       id="path-effect16790"
       is_visible="true" /><inkscape:path-effect
       effect="spiro"
       id="path-effect16786"
       is_visible="true" /><inkscape:path-effect
       effect="spiro"
       id="path-effect16782"
       is_visible="true" /><inkscape:path-effect
       effect="spiro"
       id="path-effect16778"
       is_visible="true" /><inkscape:path-effect
       effect="spiro"
       id="path-effect16774"
       is_visible="true" /></defs><sodipodi:namedview
     bordercolor="#666666"
     borderlayer="true"
     borderopacity="1.0"
     fit-margin-bottom="0"
     fit-margin-left="0"
     fit-margin-right="0"
     fit-margin-top="0"
     id="base"
     inkscape:current-layer="svg16054"
     inkscape:cx="560.44638"
     inkscape:cy="562.62677"
     inkscape:document-units="cm"
     inkscape:pageopacity="0.0"
     inkscape:pageshadow="2"
     inkscape:window-height="744"
     inkscape:window-maximized="1"
     inkscape:window-width="1366"
     inkscape:window-x="0"
     inkscape:window-y="24"
     inkscape:zoom="0.35"
     pagecolor="#ffffff"
     showgrid="false"
     units="cm" /><g
     id="layer2"
     inkscape:groupmode="layer"
     inkscape:label="background"
     transform="translate(0,237.40002)"><rect
       id="rect4177"
       y="-241.83704"
       class="st0"
       width="2146.4292"
       height="1191.437"
       x="0"
       style="fill:#ffffff" /></g><g
     id="g27"
     transform="matrix(1.5,0,0,1.5,-227.50593,-105.56272)"><g
       id="layer1">
       <!-- <image
         sodipodi:absref="/home/daniel/Projects/L2TOR_project/freeplay-sandbox/qt-gui/res/775E4199.png"
         xlink:href="775E4199.png"
         id="image30"
         transform="matrix(0.9968,0,0,0.998,715.62,213)"
         height="503"
         width="308"
         style="overflow:visible;opacity:0.75;enable-background:new" /> -->
         <g
         id="g4249"><polygon
           class="st1"
           points="956.2,506.4 949.5,471.1 941.9,471.1 938.7,476.9 948.6,562.2 955.9,606.6 963.3,642.5 973.3,642.1 973.1,631.4 965.5,566.2 "
           id="polygon33"
           style="fill:#6b3c1f;stroke:#000000" /><polygon
           class="st2"
           points="815.6,622.4 827.4,623.3 832.9,558.7 837.3,513.9 838,483.6 824.7,483.6 819,551.8 816.5,604.2 "
           id="polygon35"
           style="fill:#6b3c1f;stroke:#000000;stroke-linejoin:round" /><g
           id="g8412"><linearGradient
             id="SVGID_1_"
             gradientUnits="userSpaceOnUse"
             x1="1285.8522"
             y1="775.30701"
             x2="1382.0522"
             y2="744.45697"
             gradientTransform="translate(-562.26,-192.22)"><stop
               offset="0"
               style="stop-color:#8D5027"
               id="stop39" /><stop
               offset="1"
               style="stop-color:#6B3C1F"
               id="stop41" /></linearGradient><path
             class="st3"
             d="M 739.7,583.9 828.4,555 c 0.8,-1.7 0.9,-3.7 0.4,-5.5 -1,-2.9 -4.6,-2.9 -4.6,-2.9 l -37.5,10.3 -49.2,18 2.2,9 z"
             id="path43"
             inkscape:connector-curvature="0"
             style="fill:url(#SVGID_1_);stroke:#000000" /><path
             class="st4"
             d="m 792.1,557.9 c 0,0 45.7,2.6 68.6,4.6 22.9,2 72.8,9.5 72.8,9.5 l -3.5,3.3 0.9,4.2 c 0,0 -45.8,-2.5 -69,-4.5 -23.2,-2 -70.5,-9 -70.5,-9 -0.8,-1.2 -1.3,-2.7 -1.4,-4.1 0,-2.1 2.2,-4 2.1,-4 l 0,0 z"
             id="path45"
             inkscape:connector-curvature="0"
             style="fill:#8d5027;stroke:#000000" /><linearGradient
             id="SVGID_2_"
             gradientUnits="userSpaceOnUse"
             x1="1274.1635"
             y1="782.58588"
             x2="1345.4835"
             y2="740.09589"
             gradientTransform="translate(-387.72,-177.79)"><stop
               offset="0"
               style="stop-color:#C28156"
               id="stop48" /><stop
               offset="1"
               style="stop-color:#6B3C1F"
               id="stop50" /></linearGradient><path
             class="st5"
             d="m 910.8,596.7 48.5,-30.9 c 0.8,-1.7 0.9,-3.7 0.4,-5.5 -1,-2.9 -4.6,-2.9 -4.6,-2.9 -9.2,5.9 -12.2,7.8 -20,12.5 -7.8,4.7 -26.8,15.7 -26.8,15.7 l 2.5,11.1 z"
             id="path52"
             inkscape:connector-curvature="0"
             style="fill:url(#SVGID_2_);stroke:#000000" /></g><linearGradient
           id="SVGID_3_"
           gradientUnits="userSpaceOnUse"
           x1="1279.1405"
           y1="763.85571"
           x2="1305.9905"
           y2="767.08569"
           gradientTransform="translate(-562.26,-192.22)"><stop
             offset="0"
             style="stop-color:#492A16"
             id="stop55" /><stop
             offset="0.49"
             style="stop-color:#D28C5F"
             id="stop57" /><stop
             offset="1"
             style="stop-color:#593219"
             id="stop59" /></linearGradient><polyline
           class="st6"
           points="726.8,673.6 716.8,672.5 725.2,571.1 737,474.1 750.2,474.7 747,538.5 739.5,599.1 730.6,671.7         "
           id="polyline61"
           style="fill:url(#SVGID_3_);stroke:#000000" /><linearGradient
           id="SVGID_4_"
           gradientUnits="userSpaceOnUse"
           x1="1459.1302"
           y1="783.37433"
           x2="1486.4003"
           y2="781.44427"
           gradientTransform="translate(-562.26,-192.22)"><stop
             offset="0"
             style="stop-color:#4F2D17"
             id="stop64" /><stop
             offset="0.49"
             style="stop-color:#D28C5F"
             id="stop66" /><stop
             offset="1"
             style="stop-color:#482914"
             id="stop68" /></linearGradient><polygon
           class="st7"
           points="922.6,657.8 924.5,696.1 911.8,696.4 901.5,607.1 897.3,521.5 897.3,484.2 908.1,484.2 914.4,521.5 918.8,584 "
           id="polygon70"
           style="fill:url(#SVGID_4_);stroke:#000000" /><g
           id="g8390"><path
             class="st8"
             d="m 829.8,240.5 c 0,0 62.1,5 75.3,5.8 13.2,0.8 80.6,-0.4 80.6,-0.4 l -6,34.6 c 0,0 -67.3,0.6 -75.3,0 -8,-0.6 -75.5,-6.2 -75.5,-6.2 l -0.6,-34.1 1.5,0.3 z"
             id="path73"
             inkscape:connector-curvature="0"
             style="fill:#d28c5f;stroke:#000000" /><linearGradient
             id="SVGID_5_"
             gradientUnits="userSpaceOnUse"
             x1="1415.7303"
             y1="553.02759"
             x2="1427.6504"
             y2="553.34747"
             gradientTransform="translate(-562.26,-192.22)"><stop
               offset="0"
               style="stop-color:#693B1D"
               id="stop76" /><stop
               offset="0.49"
               style="stop-color:#D28C5F"
               id="stop78" /><stop
               offset="1"
               style="stop-color:#563117"
               id="stop80" /></linearGradient><path
             class="st9"
             d="m 853.8,444.2 c 0,0 1.3,-76.5 1.3,-88.9 0,-12.4 3.8,-79.4 3.8,-79.4 l 4.9,0.5 c 0,0 -1.2,82.5 -1.2,97.3 0,14.8 -2,71.1 -2,71.1 -1,0.5 -2.2,0.8 -3.3,0.9 -1.3,-0.2 -2.4,-0.7 -3.5,-1.5 l 0,0 z"
             id="path82"
             inkscape:connector-curvature="0"
             style="fill:url(#SVGID_5_);stroke:#000000" /><linearGradient
             id="SVGID_6_"
             gradientUnits="userSpaceOnUse"
             x1="1439.8501"
             y1="555.13849"
             x2="1455.5702"
             y2="556.42853"
             gradientTransform="translate(-562.26,-192.22)"><stop
               offset="0"
               style="stop-color:#492A16"
               id="stop85" /><stop
               offset="0.49"
               style="stop-color:#D28C5F"
               id="stop87" /><stop
               offset="1"
               style="stop-color:#5B3319"
               id="stop89" /></linearGradient><path
             class="st10"
             d="m 875.7,446.3 c 0,0 3.7,-63 5.3,-77.8 1.6,-14.8 8.8,-89.6 8.8,-89.6 l 5,0.5 -0.3,3.5 c 0,0 -4.5,87.2 -6.6,111.1 -2.1,23.9 -4.9,53.5 -4.9,53.5 -1.4,0.4 -2.8,0.6 -4.3,0.5 -1.1,-0.4 -2.1,-1 -3,-1.7 l 0,0 z"
             id="path91"
             inkscape:connector-curvature="0"
             style="fill:url(#SVGID_6_);stroke:#000000" /><linearGradient
             id="SVGID_7_"
             gradientUnits="userSpaceOnUse"
             x1="1467.7596"
             y1="556.11267"
             x2="1481.1296"
             y2="557.72278"
             gradientTransform="translate(-562.26,-192.22)"><stop
               offset="0"
               style="stop-color:#5D351A"
               id="stop94" /><stop
               offset="0.49"
               style="stop-color:#D28C5F"
               id="stop96" /><stop
               offset="1"
               style="stop-color:#673A1C"
               id="stop98" /></linearGradient><path
             class="st11"
             d="m 902.1,449.6 c -2.4,-0.5 -3,-1.5 -3,-1.5 0,0 5.7,-55.3 6.9,-65.9 1.2,-10.6 13.6,-102.2 13.6,-102.2 l 4.4,0.2 c 0,0 -8.9,89.7 -11.3,112.3 -2.4,22.6 -6.6,56.4 -6.6,56.4 -1.1,0.7 -2.6,1 -4,0.7 l 0,0 z"
             id="path100"
             inkscape:connector-curvature="0"
             style="fill:url(#SVGID_7_);stroke:#000000" /><linearGradient
             id="SVGID_8_"
             gradientUnits="userSpaceOnUse"
             x1="1495.0898"
             y1="557.02173"
             x2="1508.4598"
             y2="558.9317"
             gradientTransform="translate(-562.26,-192.22)"><stop
               offset="0"
               style="stop-color:#5D351A"
               id="stop103" /><stop
               offset="0.49"
               style="stop-color:#D28C5F"
               id="stop105" /><stop
               offset="1"
               style="stop-color:#5D351A"
               id="stop107" /></linearGradient><path
             class="st12"
             d="m 926.3,452 c -1.1,-0.6 -2.1,-1.3 -3.1,-2.1 0,0 7.2,-53 9.3,-64.1 2.1,-11.1 17,-106.1 17,-106.1 l 4.3,-0.1 c 0,0 -12.7,101.7 -14.8,119.8 -2.1,18.1 -7.7,52.1 -7.7,52.1 0,0 -3.6,1.2 -5,0.5 l 0,0 z"
             id="path109"
             inkscape:connector-curvature="0"
             style="fill:url(#SVGID_8_);stroke:#000000" /><linearGradient
             id="SVGID_9_"
             gradientUnits="userSpaceOnUse"
             x1="1528.146"
             y1="527.03809"
             x2="1544.606"
             y2="530.69818"
             gradientTransform="translate(-562.26,-192.22)"><stop
               offset="0"
               style="stop-color:#563117"
               id="stop112" /><stop
               offset="0.47"
               style="stop-color:#D28C5F"
               id="stop114" /><stop
               offset="1"
               style="stop-color:#4F2D17"
               id="stop116" /></linearGradient><path
             class="st13"
             d="m 947,451.8 c 0,0 11.8,-71.6 12,-73 0.2,-1.4 2.7,-6.1 2.7,-6.1 -0.8,-1.4 -1.2,-2.9 -1.1,-4.5 0.2,-1.4 1.1,-2.6 2.3,-3.2 0,0 -2.1,-6 -0.9,-10.5 1.2,-4.5 13.8,-55.9 14.3,-58.6 0.5,-2.7 -0.4,-6.9 -0.2,-8.3 0.1,-0.8 0.8,-1.4 1.6,-1.4 0,0 -1.4,-2 -1.2,-3.3 0.2,-1.3 2,-2.3 2,-2.3 0,0 1.7,-12.1 2.7,-18.1 1.1,-6 4.8,-18.4 4.8,-18.4 0,0 -1.3,-1 -0.1,-4.3 1.2,-3.3 2.4,-5.4 2.8,-6.3 0.4,-0.9 -0.7,-3.4 -0.7,-3.4 0,0 -3.3,-13 9.7,-10.6 13.2,2.5 1.9,13.1 1.4,14.1 -1.9,3.6 1.6,3.7 0.9,9.6 -0.3,2.1 -2.6,3.9 -2.6,3.9 l -1.7,18.3 -4.7,18 c 0,0 1.3,0.2 1,2.3 -0.2,1.1 -0.7,2.2 -1.5,3 0.1,1.1 0,2.2 -0.3,3.3 -0.4,1.4 -2.7,1.1 -3,2.9 -0.3,1.8 -9.5,62.7 -10.1,64.9 -0.6,2.2 -3.9,7.3 -3.9,7.3 1.2,0.8 1.7,2.3 1.4,3.7 -0.3,1.6 -1.1,3.1 -2.3,4.2 0,0 -1.5,17.6 -2.2,21 l -12.5,57.6 c 0,0 -3.9,1 -5.6,0.7 -1.7,-0.3 -5,-2.5 -5,-2.5 l 0,0 z"
             id="path118"
             inkscape:connector-curvature="0"
             style="fill:url(#SVGID_9_);stroke:#000000;stroke-width:1.01999998" /><linearGradient
             id="SVGID_10_"
             gradientUnits="userSpaceOnUse"
             x1="1376.488"
             y1="521.78857"
             x2="1395.8981"
             y2="522.43872"
             gradientTransform="translate(-562.26,-192.22)"><stop
               offset="0"
               style="stop-color:#4F2D17"
               id="stop121" /><stop
               offset="0.47"
               style="stop-color:#D28C5F"
               id="stop123" /><stop
               offset="1"
               style="stop-color:#4D2C16"
               id="stop125" /></linearGradient><path
             class="st14"
             d="m 815.7,444.3 c 0,0 0.3,-71.9 0.3,-73.2 0,-1.3 1.8,-6.7 1.8,-6.7 0,0 -2.7,-1.3 -2.2,-3.6 0.5,-2.3 3.1,-4 3.1,-4 0,0 -4.5,-4.5 -4,-8.9 0.5,-4.4 4.5,-54 4.5,-56.7 0,-2.7 -2.2,-5.8 -2.2,-7.1 0,-1.3 1.8,-4 1.8,-4 0,0 -2.2,-1.9 -2.2,-3.1 0,-1.2 1.9,-2.4 1.9,-2.4 l 0.8,-35.5 c 0,0 -2.7,-0.7 -2,-4 0.7,-3.3 3.8,-6.3 4,-7.1 0.2,-0.8 -2.5,-2 -2.5,-2 0,0 -6.9,-13.2 6.5,-12.1 13.4,1.1 4.8,12.3 4.5,13.4 -1.2,3.8 1.6,2.9 1.9,8.6 0.1,2 -1.9,4.1 -1.9,4.1 l 0,35.5 c 0,0 2.4,0.6 2.4,2.6 0,1.2 -0.8,2.2 -1.9,2.5 0.7,0.9 1.2,2 1.3,3.2 0,1.3 -2.2,2 -2.2,3.8 0,1.8 1.6,60.3 1.3,62.5 -0.3,2.2 -2.7,7.6 -2.7,7.6 0,0 2.5,1.6 2.5,4 -0.1,1.5 -0.9,3 -2.2,3.8 0,0 1.8,16.8 1.7,20.1 -0.3,7.4 -3.3,58.7 -3.3,58.7 0,0 -3.5,1.8 -5.4,1.9 -1.9,0.1 -5.6,-1.9 -5.6,-1.9 l 0,0 z"
             id="path127"
             inkscape:connector-curvature="0"
             style="fill:url(#SVGID_10_);stroke:#000000" /><path
             class="st15"
             d="m 829.6,272.9 c 0,0 66.3,6.4 76.1,6.4 9.8,0 72.9,-0.5 72.9,-0.5 l -0.7,1.6 c 0,0 -66.8,0.9 -74.1,0.5 -7.3,-0.4 -74.3,-6.2 -74.3,-6.2 l 0,-1.8 z"
             id="path129"
             inkscape:connector-curvature="0"
             style="fill:#855b3e" /><path
             class="st16"
             d="m 988.7,230.9 c 3.6,-0.5 7.2,0.1 10.5,1.6"
             id="path131"
             inkscape:connector-curvature="0"
             style="fill:none;stroke:#000000;stroke-width:1.01999998" /><path
             class="st16"
             d="m 985.9,243.4 c 0,0 8.3,-0.5 12.1,2.8"
             id="path133"
             inkscape:connector-curvature="0"
             style="fill:none;stroke:#000000;stroke-width:1.01999998" /><path
             class="st16"
             d="m 977.7,285.8 c 0,0 5.4,-1.4 12.5,2.2"
             id="path135"
             inkscape:connector-curvature="0"
             style="fill:none;stroke:#000000;stroke-width:1.01999998" /><path
             class="st17"
             d="m 976.4,291.5 c 0,0 7.3,-2 11.8,1.7"
             id="path137"
             inkscape:connector-curvature="0"
             style="fill:#a05b2b;stroke:#000000;stroke-width:1.01999998" /><path
             class="st18"
             d="m 963.2,364.8 c 0,0 8.1,-0.4 10.9,1.9"
             id="path139"
             inkscape:connector-curvature="0"
             style="fill:#6c5353;stroke:#000000;stroke-width:1.01999998" /><path
             class="st19"
             d="m 961.9,372.5 c 0,0 6.1,-0.3 10.7,2.5"
             id="path141"
             inkscape:connector-curvature="0"
             style="fill:#906f6f;stroke:#000000;stroke-width:1.01999998" /><path
             class="st20"
             d="m 820.8,227.1 c 0,0 3.2,-1.5 8.5,0.1"
             id="path143"
             inkscape:connector-curvature="0"
             style="fill:none;stroke:#000000" /><path
             class="st20"
             d="m 818.9,238.8 c 0,0 6.8,-2 11,0.4"
             id="path145"
             inkscape:connector-curvature="0"
             style="fill:none;stroke:#000000" /><path
             class="st20"
             d="m 818.7,279.7 c 0,0 4.2,-1.7 11.8,0.4"
             id="path147"
             inkscape:connector-curvature="0"
             style="fill:none;stroke:#000000" /><path
             class="st20"
             d="m 817.5,285.2 c 0,0 7.7,-2.4 12.8,0.2"
             id="path149"
             inkscape:connector-curvature="0"
             style="fill:none;stroke:#000000" /><path
             class="st20"
             d="m 818.5,356.7 c 0,0 5.8,-1.2 8.9,0.5"
             id="path151"
             inkscape:connector-curvature="0"
             style="fill:none;stroke:#000000" /><path
             class="st20"
             d="m 817.8,364.4 c 0,0 5.9,-1.5 10.9,0.3"
             id="path153"
             inkscape:connector-curvature="0"
             style="fill:none;stroke:#000000" /></g><g
           id="g8423"><path
             class="st8"
             d="m 728.1,456.1 0,16.1 c 5.1,1.8 10.4,3.1 15.8,4.1 6.6,1 86.8,10.7 90,10.7 3.2,0 48.6,0.6 53,0.6 4.4,0 24.3,-1.6 28.1,-1.6 3.8,0 49.3,-16.7 49.3,-16.7 l 0.3,-4.1 -0.6,-12.6 -4.1,-1.6 -115.5,-8.2 -12.3,-1 -20.5,0.6 -52.4,7 -26.8,4.7 -4.3,2 z"
             id="path156"
             inkscape:connector-curvature="0"
             style="fill:#d28c5f;stroke:#000000" /><path
             class="st20"
             d="m 728.4,456.4 c 0,0 27.1,8.2 36.3,8.2 9.2,0 79.2,6.6 84.6,6.6 5.4,0 59.7,0.3 59.7,0.3 0,0 7,-0.6 12,-1 5,-0.4 39.8,-13.2 41.7,-14.8 1.9,-1.6 1.2,-2.9 1.2,-2.9"
             id="path158"
             inkscape:connector-curvature="0"
             style="fill:none;stroke:#000000" /><linearGradient
             id="SVGID_11_"
             gradientUnits="userSpaceOnUse"
             x1="1516.9264"
             y1="656.92877"
             x2="1469.4865"
             y2="672.02881"
             gradientTransform="translate(-562.26,-192.22)"><stop
               offset="0"
               style="stop-color:#8F5228"
               id="stop161" /><stop
               offset="1"
               style="stop-color:#D28C5F"
               id="stop163" /></linearGradient><path
             class="st21"
             d="m 904.9,471.8 0.7,14.1 11.1,-0.4 24.5,-8.2 22.8,-8.3 0.3,-6.4 -0.5,-7.1 -18.9,7.8 c 0,0 -19.3,6.8 -25.1,7.7 -5,0.7 -10,0.9 -14.9,0.8 l 0,0 z"
             id="path165"
             inkscape:connector-curvature="0"
             style="fill:url(#SVGID_11_)" /></g></g></g>
             <!-- <image
       sodipodi:absref="/home/daniel/Projects/L2TOR_project/freeplay-sandbox/qt-gui/res/775E419B.png"
       xlink:href="775E419B.png"
       id="image167"
       transform="matrix(0.9945,0,0,0.9961,681.62,479)"
       height="258"
       width="182"
       style="overflow:visible;opacity:0.75;enable-background:new" /> -->
       <g
       id="g5420"><path
         d="m 804.8,631 c 0,0.2 0,0.4 0.1,0.5 0.1,0.2 0.3,0.3 0.5,0.4 0.3,0.1 0.6,0.2 0.9,0.2 0.3,0 0.7,0 1,0 0.8,-0.1 1.6,-0.3 2.3,-0.5 0.2,-0.1 0.5,-0.2 0.7,-0.3 0.8,-0.4 1.6,-0.9 2.2,-1.6 0.2,-0.3 0.4,-0.5 0.5,-0.9 0,-0.1 0.1,-0.3 0.1,-0.4 0,-0.1 0,-0.1 0,-0.2 l 0,0 -0.1,-0.2 0,0 0,0 0,0 -0.1,-0.1 -0.1,-0.1 c -0.1,-0.1 -0.2,-0.2 -0.3,-0.2 -0.3,-0.1 -0.7,-0.2 -1,-0.2 -0.9,0 -1.7,0.2 -2.6,0.5 l -0.6,0.2 c -0.7,0.3 -1.3,0.6 -1.9,0.9 -0.3,0.1 -0.5,0.3 -0.7,0.5 -0.2,0.1 -0.3,0.3 -0.5,0.5 -0.1,0.1 -0.2,0.3 -0.3,0.5 0,0.1 -0.1,0.3 -0.1,0.5 l 0,0 z"
         id="path170"
         inkscape:connector-curvature="0" /><path
         d="m 804.4,625.3 c 0,0.2 0,0.4 0.1,0.5 0.1,0.2 0.2,0.3 0.4,0.5 0.4,0.3 0.9,0.5 1.4,0.6 0.6,0.1 1.2,0.1 1.7,0.1 0.2,0 0.4,-0.1 0.6,-0.1 1.5,-0.4 2.6,-1.3 2.4,-2.2 l 0,0 c -0.2,-0.9 -1.4,-1.5 -3,-1.4 l -0.6,0 c -0.5,0.1 -1,0.2 -1.5,0.4 -0.4,0.1 -0.8,0.4 -1.1,0.7 -0.1,0.1 -0.2,0.3 -0.3,0.4 -0.1,0.1 -0.2,0.3 -0.1,0.5 l 0,0 z"
         id="path172"
         inkscape:connector-curvature="0" /><path
         d="m 805.2,639.2 c -0.1,0.5 0.1,1.1 0.5,1.5 0.5,0.5 1.2,0.8 1.9,0.9 0.5,0.1 1,0 1.5,-0.1 0.4,-0.1 0.8,-0.3 1.1,-0.7 0.1,-0.1 0.2,-0.3 0.3,-0.5 0,-0.1 0.1,-0.3 0.1,-0.5 l 0,0 0,0 c 0,-0.2 -0.1,-0.3 -0.1,-0.5 -0.1,-0.2 -0.1,-0.3 -0.2,-0.4 -0.2,-0.3 -0.5,-0.6 -0.9,-0.7 -0.4,-0.2 -0.8,-0.3 -1.2,-0.4 -0.6,-0.1 -1.3,0 -1.8,0.2 -0.7,0.3 -1.1,0.7 -1.2,1.2 l 0,0 z"
         id="path174"
         inkscape:connector-curvature="0" /><path
         class="st22"
         d="m 749.3,600.6 c 1.6,-1 2.8,-0.5 4.4,-0.3 1.6,0.2 3.3,2.2 4,2.4 l 0.3,0 c 4,4.1 9,7.1 14.5,8.9 14.4,4.9 25.2,0.7 36,14 2,2.5 0.3,12.1 -2.7,16.9 -3.7,6 -13.4,6.5 -22.5,3.2 -11.5,-4.1 -26.4,-17.1 -33,-25.9 -0.2,-0.6 -0.4,-1.1 -0.8,-1.5 -0.8,-1.1 -1.5,-2.4 -2,-3.7 -0.6,-1.4 -2,-4.7 -2.1,-6.2 0,-1.6 0.3,-3.3 0.9,-4.8 0.6,-1.4 1.5,-2 3,-3 l 0,0 z"
         id="path176"
         inkscape:connector-curvature="0"
         style="fill:#a06121" /><path
         class="st23"
         d="m 745.5,606.7 c 0.5,1 1,2 1.5,3 0.7,1.3 1.4,2.5 2.2,3.8 0.8,1.3 1.7,2.5 2.7,3.7 0.8,1 1.8,2 2.8,3.1 1,1.1 3.2,2.5 4.4,3.8 1.2,1.3 2.6,2.6 4,3.8 1.4,1.2 2.9,2.5 4.4,3.8 1.5,1.3 3,2.4 4.6,3.6 1.6,1.2 3.2,2.2 4.7,3.2 1.5,1 3.1,1.9 4.7,2.6 1.5,0.8 3,1.4 4.5,2 1.1,0.4 2.3,0.8 3.4,1 1.1,0.3 2.3,0.5 3.4,0.7 1.1,0.2 2.2,0.3 3.3,0.3 1,0 2.1,0 3.1,-0.1 1,-0.1 1.9,-0.3 2.9,-0.6 0.9,-0.2 1.7,-0.6 2.6,-1 0.4,-0.2 0.7,-0.5 1.1,-0.7 l 0,0.1 c -3.7,6 -13.4,6.5 -22.5,3.2 -11.5,-4.1 -26.4,-17.1 -33,-25.9 -0.2,-0.6 -0.4,-1.1 -0.8,-1.5 -0.8,-1.1 -1.5,-2.4 -2,-3.7 -0.6,-1.4 -2,-4.7 -2.1,-6.2 0.1,-0.8 0.1,-1.4 0.1,-2 l 0,0 z"
         id="path178"
         inkscape:connector-curvature="0"
         style="fill:#b8854f" /><path
         d="m 745.9,604.1 c -0.1,1.3 -0.2,2.5 -0.4,3.7 0.3,2.1 1,4.2 2,6.1 1,1.8 2.1,3.5 3.3,5.1 1,1.4 2.1,2.7 3.1,3.8 1.1,1.2 2.1,2.3 3.1,3.3 2.7,2.6 5.5,5.1 8.5,7.4 3,2.4 6.2,4.5 9.5,6.4 2,1.2 3.7,2 5.3,2.8 1,0.5 2.3,1 3.8,1.6 1.9,0.7 3.9,1.3 5.9,1.7 2.3,0.5 4.6,0.6 6.9,0.4 l 0,0 c 1.8,-0.1 3.5,-0.6 5.1,-1.3 1.4,-0.7 2.6,-1.7 3.5,-3 0.8,-1.3 1.5,-2.6 2,-4.1 l 0,0 c 0.6,-1.6 1,-3.2 1.4,-4.8 0.1,-0.5 0.2,-0.9 0.2,-1.3 0.2,-1 0.2,-2.1 0.1,-3.1 0,-0.6 -0.1,-1.1 -0.3,-1.6 -0.1,-0.4 -0.3,-0.7 -0.5,-1 -1.1,-1.3 -2.3,-2.5 -3.6,-3.6 -1.4,-1.2 -3,-2.3 -4.7,-3.2 l 0,0 c -1.3,-0.7 -2.7,-1.2 -4.1,-1.7 -1.4,-0.4 -2.9,-0.8 -4.3,-1 -1.6,-0.3 -3.3,-0.5 -4.8,-0.7 -1.5,-0.2 -3.1,-0.4 -4.4,-0.6 -1.6,-0.2 -3,-0.5 -4.3,-0.7 -1.3,-0.2 -2.2,-0.5 -2.9,-0.7 -0.9,-0.3 -2.1,-0.6 -3.4,-1.1 -2.4,-0.8 -4.7,-1.9 -6.9,-3.1 -1.5,-0.8 -2.9,-1.8 -4.1,-2.9 -1,-0.9 -2,-1.8 -2.9,-2.7 l 0,0 c -1.1,-1 -2.3,-1.9 -3.5,-2.7 -1,-0.7 -2.2,-1 -3.4,-1 -0.8,0 -1.7,0.3 -2.3,0.8 l -1.1,1.3 c -0.8,1 -1.3,1.4 -1.3,1.3 l 0,0 c -1.1,-0.7 -1.1,-0.7 0,0 l 0,0 c -0.1,-0.1 0.6,-1.2 1.9,-3.2 0.4,-0.3 0.8,-0.6 1.2,-0.8 0.5,-0.3 1,-0.5 1.6,-0.6 0.7,-0.1 1.4,-0.1 2.1,0.1 0.8,0.2 1.5,0.4 2.2,0.8 1.4,0.7 2.7,1.6 4,2.6 1,0.8 2,1.7 3.1,2.4 1.2,0.9 2.5,1.7 3.9,2.3 2.2,1 4.4,1.8 6.7,2.5 3.3,1 6.4,1.7 9,2.2 l 1,0.2 c 3,0.6 6.1,1.1 9.3,1.9 3.1,0.7 6,1.9 8.8,3.5 1.7,1 3.2,2.2 4.7,3.6 1.3,1.2 2.5,2.6 3.6,4 0.3,0.4 0.5,0.9 0.6,1.4 0.2,0.6 0.2,1.2 0.3,1.8 0,1.6 -0.1,3.1 -0.3,4.6 -0.1,0.6 -0.2,1.2 -0.3,1.7 -0.2,1.1 -0.5,2.3 -0.8,3.4 -0.5,1.6 -1.1,3.1 -1.9,4.5 l 0,0 c -0.5,0.8 -1,1.5 -1.7,2.1 -0.7,0.7 -1.5,1.3 -2.3,1.7 -1.8,1 -3.7,1.6 -5.7,1.8 -2.3,0.3 -4.7,0.3 -7.1,0 -2.4,-0.3 -4.7,-0.9 -6.9,-1.6 l 0,0 c -3.4,-1.2 -6.6,-2.7 -9.6,-4.6 -2.5,-1.5 -4.9,-3.2 -7.1,-5 -0.7,-0.6 -1.5,-1.3 -2.3,-2 -2.9,-2.6 -5.6,-5.3 -8.1,-8.1 l 0,0 c -2.2,-2.4 -4.2,-4.9 -6,-7.6 -0.7,-1.1 -1.4,-2.2 -2,-3.3 -0.6,-1 -1.1,-2.1 -1.5,-3.1 -0.4,-0.9 -0.7,-1.9 -0.9,-2.9 -0.2,-0.8 -0.3,-1.6 -0.4,-2.5 0.3,-2.3 0.5,-3.8 0.5,-3.8 l -0.1,0.2 z"
         id="path180"
         inkscape:connector-curvature="0" /><path
         class="st24"
         d="m 800.2,632.8 c -0.1,1.4 -1.2,2.5 -2.6,2.4 -0.3,-0.1 -0.7,0.2 -0.7,0.5 0,0 0,0 0,0 -0.1,1.9 -1.7,3.3 -3.5,3.2 0,0 0,0 0,0 -1.9,-0.1 -3.9,-1.8 -3.2,-3.5 1.2,-2.9 0.7,-4.2 0.3,-6.6 -0.2,-1.8 1.7,-3.3 3.5,-3.2 1.8,0.1 3.3,1.7 3.2,3.5 0,0 0,0 0,0 0,0.4 -0.1,0.7 0.6,0.9 1.5,0.2 2.5,1.4 2.4,2.8 l 0,0 z"
         id="path182"
         inkscape:connector-curvature="0"
         style="fill:#834317;stroke:#000000;stroke-width:1.66999996" /><circle
         transform="matrix(0.05285881,-0.9986,0.9986,0.05285881,121.8448,1403.7405)"
         class="st25"
         cx="800.90002"
         cy="637.59998"
         id="ellipse184"
         r="2.0999999"
         style="fill:#834317;stroke:#000000;stroke-width:3.3599999" /><circle
         transform="matrix(0.05285881,-0.9986,0.9986,0.05285881,130.5612,1400.458)"
         class="st26"
         cx="803.59998"
         cy="631.40002"
         id="ellipse186"
         r="1.9"
         style="fill:#834317;stroke:#000000;stroke-width:3.77999997" /><circle
         transform="matrix(0.05285881,-0.9986,0.9986,0.05285881,132.5648,1392.0027)"
         class="st27"
         cx="800.09998"
         cy="626.09998"
         id="ellipse188"
         r="2.0999999"
         style="fill:#834317;stroke:#000000;stroke-width:2.63000011" /></g><path
       class="st22"
       d="m 803.9,655 c 0,0 -4.1,9 -4.5,13.7 -0.4,4.7 4.9,12 5.6,14.8 0.7,2.8 7.5,12.9 7.5,12.9 l -18,-0.2 -8.8,-33 2.1,-9.4 c 1.1,-0.1 2.3,-0.3 3.4,-0.6 2.3,-0.6 7.5,-0.2 9,0.6 1.2,0.6 2.5,1 3.7,1.2 l 0,0 z"
       id="path190"
       inkscape:connector-curvature="0"
       style="fill:#a06121" /><path
       d="m 816.4,697.6 c -1.3,0 -2.5,0 -3.8,0.1 -1,0.1 -2,0.3 -3,0.5 -0.3,0.1 -0.6,0.1 -0.9,0.2 -0.5,0 -0.9,0 -1.4,-0.1 -1,-0.2 -2.3,-0.5 -3.5,-0.8 -1.2,-0.3 -2.4,-0.7 -3.1,-0.9 0,0 0.9,-0.2 2.3,-0.4 1.4,-0.2 3,-0.3 4.5,-0.4 0.8,-0.1 1.5,-0.2 2.1,-0.2 0.4,0 0.8,0 1.1,0.1 l 1.9,0.7 c 1.8,0.5 3.9,1.3 3.8,1.2 l 0,0 z"
       id="path192"
       inkscape:connector-curvature="0" /><path
       class="st22"
       d="m 820.8,648.4 c -11.7,-1.8 -21.9,10.1 -21.6,24.3 0.3,14.8 11.8,26.9 21.3,25.1 6.7,-1.2 13.5,-2.9 16,-11.9 1,-4.6 1.3,-9.3 1,-14 -1.3,-13.6 -7.6,-22.1 -16.7,-23.5 l 0,0 z"
       id="path194"
       inkscape:connector-curvature="0"
       style="fill:#a06121" /><path
       d="m 807.8,691.8 c 0.7,1.1 1.5,2.1 2.4,2.9 0.8,0.8 1.8,1.4 2.9,1.8 1.5,0.6 3.1,0.8 4.7,0.8 2.1,-0.1 4.1,-0.4 6.1,-0.9 1.6,-0.4 3.1,-1.1 4.5,-1.9 0.8,-0.5 1.6,-1.1 2.3,-1.7 0.6,-0.6 1.1,-1.2 1.6,-1.8 0.6,-0.9 1.2,-1.8 1.6,-2.8 0.4,-0.8 0.7,-1.6 0.9,-2.5 0.1,-0.4 0.2,-0.9 0.3,-1.3 0.1,-0.4 0.2,-0.8 0.3,-1.4 0.2,-1 0.3,-2.2 0.5,-3.6 0.3,-2.3 0.4,-4.7 0.3,-7 -0.1,-1.5 -0.3,-3.1 -0.5,-4.5 -0.2,-1.4 -0.6,-2.8 -0.9,-4.1 -0.3,-1.1 -0.7,-2.2 -1.1,-3.3 -0.4,-0.9 -0.7,-1.7 -1,-2.2 -0.6,-1.1 -1.2,-2.1 -2,-3 -0.7,-0.9 -1.6,-1.8 -2.5,-2.5 -1,-0.9 -2.1,-1.6 -3.3,-2.2 -1.1,-0.5 -2.2,-0.9 -3.3,-1.2 -1.1,-0.2 -2.3,-0.3 -3.5,-0.3 -1.3,0.1 -2.5,0.3 -3.8,0.7 -1,0.3 -2,0.8 -2.9,1.3 -0.9,0.5 -1.6,1 -2,1.3 -0.6,0.4 -1.2,0.9 -1.7,1.4 -0.7,0.7 -1.4,1.4 -2,2.1 -0.8,1 -1.6,2.2 -2.2,3.3 -0.7,1.3 -1.3,2.6 -1.8,4 -0.5,1.4 -0.8,2.8 -1.1,4.3 -0.2,1.3 -0.4,2.7 -0.4,4 0,0.4 0,0.8 -0.1,1.3 0,0.2 -0.1,0.1 -0.2,-0.2 -0.3,-1.2 -0.5,-2.5 -0.5,-3.8 0,-2.3 0.2,-4.6 0.8,-6.9 0.3,-1.3 0.8,-2.7 1.3,-3.9 0.6,-1.3 1.2,-2.6 2,-3.8 l 0,0 c 0.9,-1.3 1.9,-2.5 3,-3.5 1,-1 2.2,-1.8 3.4,-2.4 0.5,-0.3 1,-0.5 1.5,-0.7 4.7,-1.8 10,-1.3 14.3,1.3 2.3,1.5 4.3,3.4 5.8,5.6 1.1,1.6 2.1,3.3 3,5 0.8,1.5 1.5,3.1 2.1,4.7 0.4,1.1 0.8,2.3 1.1,3.6 0.3,1.3 0.6,2.7 0.8,4.2 0.3,2.5 0.4,5 0.2,7.5 -0.1,1.3 -0.2,2.6 -0.4,3.8 -0.1,1.1 -0.3,2.1 -0.6,3.1 -0.4,1.2 -0.8,2.3 -1.4,3.4 -0.5,0.9 -1.1,1.8 -1.8,2.7 -0.5,0.6 -1,1.1 -1.6,1.6 -1,0.8 -2.1,1.5 -3.3,2.1 -1.7,0.8 -3.6,1.4 -5.5,1.7 -2,0.3 -4.1,0.4 -6.2,0.3 -1.7,-0.1 -3.4,-0.5 -4.9,-1.2 -0.9,-0.4 -1.7,-1 -2.4,-1.7 -0.6,-0.5 -1.1,-1.1 -1.5,-1.8 -0.3,-0.4 -0.6,-0.9 -0.8,-1.3 -0.4,-0.3 -0.5,-0.4 -0.5,-0.4 l 0,0 z"
       id="path196"
       inkscape:connector-curvature="0" /><path
       class="st28"
       d="m 833.1,692.7 c -1.5,2.1 -3.7,2.2 -5.7,0.4 -3,-2.8 -4.7,-9.8 -3.7,-15.5 1,-5.7 4,-10.1 7,-7.3 3,2.8 4.9,11.6 3.9,17.3 -0.1,1.7 -0.7,3.5 -1.5,5.1 l 0,0 z"
       id="path198"
       inkscape:connector-curvature="0"
       style="fill:#834317" /><path
       d="m 833.8,692.7 c -0.4,0.6 -0.9,1 -1.4,1.4 -0.5,0.4 -1.2,0.6 -1.8,0.8 -0.7,0.1 -1.5,0 -2.1,-0.3 -0.6,-0.2 -1.1,-0.6 -1.6,-1 -0.6,-0.6 -1.2,-1.2 -1.6,-1.9 -0.4,-0.6 -0.8,-1.2 -1.1,-1.9 -0.5,-1 -0.9,-2.1 -1.2,-3.2 -0.3,-0.9 -0.5,-1.8 -0.7,-2.8 -0.1,-0.7 -0.2,-1.4 -0.3,-2.1 0,-0.6 0,-1.3 0,-1.9 0.1,-0.9 0.2,-1.7 0.4,-2.5 0.3,-1.4 0.7,-2.7 1.3,-4 0.3,-0.6 0.6,-1.2 1,-1.8 0.3,-0.5 0.7,-1 1.1,-1.4 0.3,-0.3 0.6,-0.6 1,-0.8 0.3,-0.2 0.5,-0.3 0.8,-0.4 0.3,-0.1 0.5,-0.2 0.8,-0.2 0.5,-0.1 0.9,0 1.4,0.1 0.5,0.2 1,0.4 1.5,0.8 0.5,0.4 1,0.9 1.4,1.4 0.4,0.6 0.8,1.1 1.1,1.8 0.8,1.5 1.4,3 1.9,4.6 0.3,1 0.5,2 0.6,3 0,0.7 0.1,1.8 0,3.1 0,1.4 -0.2,2.8 -0.5,4.2 -0.2,0.7 -0.5,1.5 -0.8,2.2 -0.3,0.7 -0.7,1.4 -1.2,2 -0.1,0.2 -0.3,0.4 -0.5,0.5 l 0,0 -0.1,0 c 0.2,-0.5 0.4,-1.1 0.6,-1.6 0.1,-0.5 0.2,-1 0.2,-1.5 0,-0.6 0,-1.2 -0.1,-1.8 0,-0.7 -0.1,-1.5 -0.2,-2.3 -0.1,-0.8 -0.2,-1.5 -0.3,-2.3 -0.3,-1.5 -0.5,-2.8 -0.6,-3.9 0,-0.3 0,-0.6 -0.1,-0.8 -0.1,-1.5 -0.4,-3 -0.8,-4.4 -0.2,-0.6 -0.4,-1.1 -0.7,-1.7 -0.2,-0.5 -0.5,-1 -0.9,-1.4 -0.3,-0.3 -0.6,-0.5 -0.9,-0.7 -0.3,-0.1 -0.6,-0.2 -0.9,-0.2 -0.3,0 -0.5,0.1 -0.7,0.2 -0.2,0.1 -0.4,0.3 -0.5,0.4 -0.2,0.2 -0.3,0.4 -0.5,0.6 -0.3,0.4 -0.5,0.7 -0.7,1.2 -0.2,0.5 -0.4,1 -0.6,1.6 -0.4,1.3 -0.6,2.6 -0.7,4 -0.2,1.6 -0.2,3.1 0,4.7 0.2,1.4 0.4,2.7 0.5,3.5 l 0,0.3 c 0.1,1 0.3,2 0.5,3 0.2,0.6 0.4,1.2 0.6,1.8 0.3,0.6 0.6,1.2 1,1.7 l 0,0 c 0.4,0.5 0.8,0.9 1.3,1.2 0.5,0.3 1.1,0.4 1.6,0.5 0.5,0 1,-0.1 1.5,-0.3 0.4,-0.2 0.7,-0.4 1,-0.6 0.2,-0.2 0.4,-0.3 0.6,-0.5 l 0.2,-0.2 0.2,-0.2 z"
       id="path200"
       inkscape:connector-curvature="0" /><path
       class="st24"
       d="m 816.6,658.1 c 1,1.6 1.6,3.5 1.9,5.3 0.6,3.2 0.3,5.5 -1,5.2 -1.3,-0.3 -3.1,-2.9 -3.7,-6.1 -0.6,-3.2 0.2,-5.9 1.4,-5.6 0.6,0.3 1.1,0.7 1.4,1.2 l 0,0 z"
       id="path202"
       inkscape:connector-curvature="0"
       style="fill:#834317;stroke:#000000;stroke-width:1.66999996" /><path
       class="st24"
       d="m 821.3,653.8 c 0.8,0.4 1.6,1.9 2.4,3.7 1.2,2.7 1.5,5.3 0.7,6.1 -0.8,0.8 -2.4,-0.1 -3.6,-2.8 -1.2,-2.7 -1.4,-6.1 -0.6,-6.9 0.3,-0.3 0.8,-0.3 1.1,-0.1 l 0,0 z"
       id="path204"
       inkscape:connector-curvature="0"
       style="fill:#834317;stroke:#000000;stroke-width:1.66999996" /><path
       class="st24"
       d="m 827.9,654.3 c 0.6,0.4 1.2,1.7 1.8,3.2 0.8,2.4 0.9,4.7 0.2,5.4 -0.7,0.7 -2,-0.1 -2.8,-2.4 -0.8,-2.3 -0.8,-5.4 0,-6.1 0.2,-0.2 0.6,-0.3 0.8,-0.1 l 0,0 z"
       id="path206"
       inkscape:connector-curvature="0"
       style="fill:#834317;stroke:#000000;stroke-width:1.66999996" /><path
       d="m 822.3,650.3 -1.5,0.2 c -1.1,0.2 -2.1,0.7 -3.1,1.3 -0.7,0.5 -1.4,1.1 -1.9,1.8 -0.5,0.6 -0.9,1.3 -1.2,1.9 -0.4,0.8 -0.6,1.6 -0.8,2.5 -0.1,0.7 -0.2,1.3 -0.3,2 -0.1,1.2 -0.1,2.1 -0.1,2.9 0,0.1 0,0.1 0,0.2 0,1.1 -0.2,2.8 -0.3,4.8 -0.1,2 -0.2,4 -0.2,5.7 0,1.2 0,2.2 0,2.8 0.1,1.1 0.3,2.2 0.6,3.3 0.4,1.6 0.9,3.3 1.5,4.8 0.5,1.2 0.9,2.4 1.3,3.3 0.4,0.9 0.8,1.6 0.9,2.1 0.4,1.1 0.9,2.2 1.6,3.2 0.7,1 1.6,1.9 2.6,2.7 0.8,0.5 1.7,0.9 2.7,1.1 0.4,0.1 0.6,0.1 0.6,0.2 0,0.1 -0.2,0.2 -0.5,0.3 -0.5,0.1 -1,0.2 -1.5,0.2 -0.7,0 -1.5,-0.2 -2.2,-0.4 -0.7,-0.3 -1.3,-0.6 -2,-1 -0.7,-0.4 -1.3,-0.9 -1.8,-1.5 -0.8,-0.8 -1.5,-1.7 -2.1,-2.7 -0.5,-0.8 -0.9,-1.7 -1.1,-2.6 -0.3,-1.4 -0.6,-2.7 -0.8,-4.1 -0.3,-2 -0.4,-4 -0.6,-5.6 -0.2,-1.6 -0.2,-3.1 -0.4,-4 -0.1,-0.4 -0.2,-1 -0.3,-1.8 l 0,0 c -0.2,-1.3 -0.5,-3 -0.7,-4.9 -0.2,-1.9 -0.3,-3.9 -0.3,-5.8 0,-1 0.1,-2.1 0.2,-3.1 0.1,-0.8 0.3,-1.5 0.6,-2.3 0.4,-1 1,-2 1.6,-2.9 0.6,-0.8 1.2,-1.5 1.9,-2.1 0.7,-0.6 1.5,-1.1 2.4,-1.5 0.6,-0.3 1.3,-0.5 1.9,-0.6 0.5,-0.1 1,-0.2 1.6,-0.2 l 1.7,-0.2 0,0 z"
       id="path208"
       inkscape:connector-curvature="0" /><path
       class="st22"
       d="m 704.2,668.5 c 0,0 -7.5,-6.5 -12,-1.4 -4.5,5.1 3.2,18.5 11.1,20.9 7.9,2.4 8.1,-0.4 8.1,-0.4"
       id="path210"
       inkscape:connector-curvature="0"
       style="fill:#a06121" /><path
       class="st22"
       d="m 718.2,582.3 c -14.1,24.5 -14.9,64 -14.7,79.8 0.1,11.7 9.4,33.5 25.3,38.3 6.3,1.9 38.4,18.1 46.1,14.7 12,-5.2 -0.8,-34 3.8,-36.6 15.2,-8.6 7,-34.7 4.3,-44.5 -3.5,-12.5 -31.6,-43.5 -59.2,-58"
       id="path212"
       inkscape:connector-curvature="0"
       style="fill:#a06121" /><path
       class="st29"
       d="m 771.3,622.8 c 7,0.3 10.1,6.1 13.6,17.7 3.9,13.2 3.6,30.2 -3.4,34.3 -7,4.1 -15.6,-1.2 -19.5,-14.4 -3.9,-13.2 -3.8,-33.7 3.2,-36.7 1.9,-0.5 4,-0.8 6.1,-0.9 l 0,0 z"
       id="path214"
       inkscape:connector-curvature="0"
       style="fill:#956c45;stroke:#000000;stroke-width:2.82999992" /><path
       d="m 781,673.7 c 0.4,-0.7 0.7,-1.4 1,-2.1 0.3,-0.7 0.5,-1.5 0.7,-2.2 0.2,-0.9 0.3,-1.8 0.2,-2.7 -0.1,-0.7 -0.1,-1.5 -0.1,-2.3 0,-0.8 0,-1.6 -0.1,-2.4 -0.1,-1.6 -0.2,-3.2 -0.4,-4.8 -0.2,-1.6 -0.5,-3.4 -0.7,-5.1 -0.3,-1.9 -0.7,-3.9 -1.1,-5.8 -0.4,-1.9 -0.9,-3.7 -1.5,-5.3 -0.7,-2.2 -1.5,-4.4 -2.5,-6.5 -0.8,-1.8 -1.6,-3.2 -2.1,-4 -0.7,-1.3 -1.5,-2.5 -2.4,-3.6 -0.4,-0.6 -0.9,-1.1 -1.4,-1.6 -0.6,-0.5 -1.2,-1 -1.8,-1.5 -1.4,-1 -2.8,-1.9 -4.2,-2.7 -1.2,-0.7 -2.5,-1.4 -3.7,-2.1 -0.4,-0.2 -0.8,-0.5 -1.2,-0.7 -0.1,-0.1 -0.3,-0.2 -0.4,-0.3 -0.1,-0.1 -0.2,-0.2 -0.3,-0.3 l -3.4,-6.8 c -0.7,-2.1 -1.8,-4.1 -3,-5.9 l -0.3,-0.5 c -0.3,-0.5 -0.6,-0.8 -0.8,-1.1 l -0.5,-0.4 -0.1,-0.1 0.1,-0.2 0,0 0,-0.1 0,0 0,0.1 0,0 -0.1,0.2 0.1,0.1 0.4,0.4 c 0.4,0.5 0.9,1 1.2,1.5 0.6,0.8 1.1,1.6 1.6,2.5 0.6,1.1 1.2,2.2 1.6,3.4 1.1,2 2.3,4.3 3.5,6.7 l 0,0 c 0,0 0,0 0.1,0.1 l 0,0 c 0.1,0.1 0.2,0.2 0.4,0.2 l 0,0 c 0.4,0.2 0.8,0.5 1.2,0.7 1.2,0.7 2.5,1.3 3.8,2 1.5,0.8 3,1.7 4.3,2.7 1.3,0.9 2.5,2 3.5,3.2 2.2,2.9 4,6.1 5.4,9.4 0.7,1.6 1.3,3.3 1.8,5 1.1,3.7 1.9,7.5 2.4,11.3 0.5,3.3 0.8,6.7 1,10 0.1,1.6 0,3.2 0.1,4.6 0.1,0.9 0,1.8 -0.2,2.7 -0.2,0.8 -0.4,1.6 -0.8,2.4 -0.4,0.9 -0.8,1.7 -1.3,2.5 -0.5,0.8 -0.9,1.4 -1.3,2 l -0.2,0.2 c -1.2,1.5 -2.6,2.9 -4,4.2 -0.1,0 1.1,-1.5 3.9,-4.6 0.7,-0.9 1.2,-1.7 1.6,-2.4 l 0,0 z"
       id="path216"
       inkscape:connector-curvature="0" /><path
       d="m 757.7,619.1 c 0.6,0 1.1,-0.1 1.7,-0.2 0.8,-0.1 1.5,-0.2 1.9,-0.3 l 0.2,0 c 0.4,0 0.9,0 1.3,0 0.5,0 1,-0.1 1.5,-0.3 0.2,-0.1 0.2,0 0.1,0.1 -0.2,0.2 -0.4,0.4 -0.7,0.5 -0.4,0.2 -0.8,0.4 -1.2,0.5 -0.4,0.1 -0.8,0.2 -1.3,0.2 l -0.2,0 c -0.7,-0.1 -1.4,-0.2 -2.1,-0.2 -0.5,-0.1 -1,-0.1 -1.5,0 -0.3,0 -0.5,0 -0.5,-0.1 0.1,-0.1 0.3,-0.2 0.8,-0.2 l 0,0 z"
       id="path218"
       inkscape:connector-curvature="0" /><path
       d="m 756.4,616 c 0.4,0 0.8,-0.1 1.2,-0.3 0.4,-0.1 0.8,-0.2 1.2,-0.3 l 0,0 c 0.6,0 1.2,-0.1 1.9,-0.2 0.3,0 0.1,0.2 -0.3,0.5 -0.4,0.3 -0.9,0.6 -1.4,0.7 -0.1,0 -0.3,0 -0.4,0 l -1.4,-0.1 c -0.3,0 -0.7,0 -1,0 -0.2,0 -0.3,-0.1 -0.3,-0.2 0,-0.1 0.1,-0.2 0.5,-0.1 l 0,0 z"
       id="path220"
       inkscape:connector-curvature="0" /><path
       d="m 719.1,582.8 c 0,0 -0.4,0.5 -1,1.5 -0.6,1 -1.5,2.4 -2.4,4.2 -0.9,1.8 -2,3.9 -3.1,6.2 -1.1,2.3 -2.1,4.8 -3.1,7.4 -1.4,3.7 -2.6,7.4 -3.6,10.8 -1,3.4 -1.7,6.4 -2.2,8.6 -0.1,0.5 -0.2,1.1 -0.3,1.7 -0.4,2.3 -0.9,5.4 -1.2,8.9 -0.3,3.5 -0.6,7.5 -0.6,11.5 l 0,0 c 0,2.9 0,5.8 0.2,8.7 0.2,2.9 0.5,5.7 0.9,8.3 l 0,0 c 0.4,2.2 0.7,4.3 1.1,6.2 0.7,3.4 1.5,6.1 2,7.5 l 0.3,1.1 c 1,3.3 2.2,6.5 3.8,9.5 l 0,0 c 1.6,3.2 3.6,6.2 6.1,8.8 1.7,1.7 3.5,3.2 5.5,4.5 2.3,1.6 4.7,3.1 7.2,4.4 1.2,0.7 2.3,1.3 3.5,1.8 1.8,0.9 3.9,1.8 6.2,2.8 2.3,0.9 4.9,1.8 7.5,2.7 2.8,0.9 5.8,1.8 8.6,2.5 2.8,0.7 5.6,1.4 8.1,1.9 2.5,0.5 4.7,0.9 6.4,1.2 1.1,0.2 2,0.3 2.7,0.3 0.5,0 0.9,0 1.4,0 0.2,0 0.2,-0.1 0,-0.2 -0.2,-0.1 -0.8,-0.2 -1.7,-0.5 l -2.1,-0.5 c -2,-0.5 -4.1,-1.1 -6.2,-1.8 -2.8,-0.8 -5.6,-1.8 -8.4,-2.7 -2.8,-0.9 -5.4,-1.9 -7.8,-2.9 -3.2,-1.3 -5.9,-2.4 -7.8,-3.2 -1.6,-0.8 -5,-2.1 -9.1,-4 -2.3,-1.1 -4.8,-2.3 -7.2,-3.8 -2,-1.1 -3.8,-2.5 -5.5,-3.9 l 0,0 c -1.3,-1.2 -2.5,-2.5 -3.6,-3.9 -1,-1.3 -1.9,-2.7 -2.7,-4.1 -0.8,-1.4 -1.5,-2.9 -2.1,-4.4 -0.5,-1.3 -0.9,-2.3 -1.1,-3 -0.2,-0.5 -0.3,-1.1 -0.5,-1.8 -0.3,-1 -0.6,-2.3 -0.9,-3.8 -0.3,-1.5 -0.6,-3.1 -0.9,-4.8 -0.3,-1.9 -0.5,-4 -0.7,-6.1 -0.3,-2.8 -0.4,-5.8 -0.4,-8.6 0,-2.8 0,-5.6 0.2,-8 0.1,-2.9 0.3,-5.3 0.4,-7 0.1,-1.7 0.2,-3.5 0.4,-5.6 0.2,-2.1 0.4,-4.6 0.8,-7.5 0.4,-2.6 0.8,-5.6 1.6,-9.1 0.8,-4.1 1.9,-8.1 3.1,-12 l 0,0 c 0.9,-2.9 2,-6 3.4,-9.3 1.2,-3.7 2.9,-7.2 4.8,-10.5 z m 67.8,75.8 c 0,0 0,-0.5 0.1,-1.3 0.1,-0.8 0.2,-2.1 0.2,-3.5 0,-1.4 0.1,-3.1 0,-4.9 -0.1,-1.8 -0.2,-3.7 -0.5,-5.5 -0.3,-1.9 -0.8,-3.9 -1.4,-5.8 -0.5,-1.7 -1.1,-3.2 -1.5,-4.3 l 0,-0.1 c -0.3,-0.9 -0.7,-1.7 -1.2,-2.5 -0.5,-0.9 -1.1,-2 -1.8,-3.1 l 0,0 c -1.3,-2.1 -3,-4.5 -4.8,-6.7 -2.3,-3 -4.9,-5.9 -7.1,-8.3 -2.2,-2.4 -4,-4.2 -4.9,-5.1 -0.5,-0.5 -1.2,-1.3 -1.9,-2.1 -1.8,-2 -4.2,-4.7 -6.9,-7.6 -2.7,-2.9 -5.7,-5.9 -8.6,-8.6 -0.4,-0.4 -0.8,-0.7 -1.3,-1.1 -2.3,-1.9 -4.8,-3.5 -7.3,-5 -2.6,-1.5 -5.3,-2.9 -8.1,-4.1 -1.8,-0.8 -3.7,-1.4 -5.6,-1.9 -0.5,-0.1 -0.8,-0.1 -0.8,0 0,0.1 0.4,0.3 1.1,0.7 1.5,0.8 3.1,1.7 4.8,2.7 1.7,1 3.4,2.1 5,3.2 3.2,2.2 5.9,4.4 7.5,5.7 0.4,0.3 0.9,0.8 1.6,1.3 1.2,0.9 2.7,2.1 4.4,3.4 1.7,1.3 3.5,2.8 5.3,4.3 1.8,1.5 3.5,3 4.9,4.4 1.5,1.4 2.7,2.6 3.4,3.4 0.3,0.3 0.5,0.5 0.6,0.7 0.9,1.1 3,3.6 5.2,6.5 1.1,1.5 2.3,3.1 3.5,4.6 1.2,1.5 2.2,3.1 3.2,4.5 1.2,1.8 2.3,3.3 3,4.3 0.5,0.7 1,1.5 1.6,2.3 0.5,0.7 1,1.4 1.5,2.3 0.5,0.9 1.1,1.8 1.7,2.9 0.6,1.1 1.3,2.5 2,4.1 0.8,1.7 1.4,3.5 1.9,5.3 l 0,0 c 0.6,2.2 1,4.4 1.2,6.6 0,2.8 0.1,5.6 0,8.3 l 0,0 z"
       id="path222"
       inkscape:connector-curvature="0" /><g
       id="g4320"><path
         class="st22"
         d="m 715.6,590.4 c 2,-0.4 3,0.6 4.6,1.5 1.6,0.9 2.4,3.6 3,4.1 l 0.3,0.1 c 2.3,5.8 6.1,11 10.9,15.1 12.5,11 25.1,11.3 30.4,29.4 1,3.4 -4.8,12.3 -9.9,15.9 -6.3,4.5 -16.3,0.9 -24.1,-6.3 -9.9,-9 -19.5,-28.4 -22.4,-40.1 0.1,-0.6 0,-1.3 -0.1,-1.9 -0.4,-1.5 -0.5,-3 -0.5,-4.6 0,-1.6 0,-5.6 0.5,-7.1 0.7,-1.7 1.6,-3.2 2.9,-4.5 1.2,-1 2.4,-1.2 4.4,-1.6 l 0,0 z"
         id="path225"
         inkscape:connector-curvature="0"
         style="fill:#a06121" /><path
         class="st23"
         d="m 709.2,594.9 c 0,1.2 0.1,2.4 0.2,3.7 0.2,1.5 0.4,3.1 0.7,4.7 0.3,1.6 0.7,3.2 1.1,4.8 0.4,1.3 0.9,2.8 1.5,4.3 0.6,1.5 2.2,3.9 2.9,5.7 0.7,1.8 1.5,3.7 2.4,5.6 0.9,1.9 1.8,3.8 2.8,5.7 1,1.9 2,3.7 3.2,5.5 1.1,1.8 2.3,3.5 3.4,5.2 1.2,1.7 2.4,3.2 3.6,4.6 1.2,1.4 2.4,2.7 3.7,3.9 1,0.9 2,1.7 3,2.5 1,0.8 2.1,1.5 3.2,2.1 1,0.6 2.1,1.2 3.2,1.7 1,0.5 2.1,0.9 3.2,1.2 1,0.3 2.1,0.5 3.1,0.6 1,0.1 2,0.1 3,0.1 0.5,-0.1 0.9,-0.2 1.4,-0.3 l -0.1,0 c -6.3,4.5 -16.3,0.9 -24.1,-6.3 -9.9,-9 -19.4,-28.4 -22.4,-40.1 0.1,-0.6 0,-1.3 -0.1,-1.9 -0.4,-1.5 -0.5,-3 -0.5,-4.6 0,-1.6 0,-5.6 0.5,-7.1 0.4,-0.5 0.7,-1.1 1.1,-1.6 l 0,0 z"
         id="path227"
         inkscape:connector-curvature="0"
         style="fill:#b8854f" /><path
         d="m 710.6,592.4 -1.9,3.6 c -0.6,2.3 -0.8,4.7 -0.5,7.1 0.2,2.2 0.6,4.4 1.2,6.6 0.4,1.8 1,3.6 1.5,5.2 0.6,1.6 1.2,3.2 1.8,4.6 1.6,3.8 3.4,7.5 5.4,11.1 2,3.7 4.3,7.2 6.8,10.5 1.5,2 2.9,3.6 4.1,5 0.8,0.9 1.8,2 3.1,3.2 1.6,1.5 3.4,2.9 5.3,4.2 2.1,1.4 4.4,2.5 6.8,3.3 1.8,0.6 3.8,0.9 5.7,0.8 1.7,-0.1 3.4,-0.6 4.8,-1.6 1.4,-0.9 2.6,-2.1 3.8,-3.3 1.3,-1.3 2.4,-2.8 3.4,-4.3 0.3,-0.5 0.6,-0.9 0.8,-1.2 0.2,-0.3 0.5,-0.8 0.7,-1.3 0.3,-0.6 0.5,-1.2 0.8,-1.8 0.2,-0.6 0.3,-1.2 0.4,-1.8 0.1,-0.4 0,-0.8 -0.1,-1.2 -0.6,-1.8 -1.3,-3.5 -2.1,-5.2 -0.9,-1.9 -2.1,-3.6 -3.4,-5.2 l 0,0 c -1,-1.2 -2.2,-2.4 -3.4,-3.4 -1.2,-1 -2.5,-2 -3.9,-2.9 l 0,0 c -1.5,-1 -3.1,-1.9 -4.6,-2.8 -1.5,-0.9 -2.9,-1.7 -4.2,-2.4 -1.5,-0.9 -2.9,-1.8 -4,-2.5 -1.1,-0.7 -2,-1.4 -2.6,-1.9 -0.8,-0.7 -1.8,-1.5 -3,-2.5 -0.9,-0.8 -1.8,-1.7 -2.8,-2.7 -1,-1.1 -2,-2.2 -2.9,-3.3 -1.1,-1.4 -2.2,-3 -3,-4.6 -0.7,-1.3 -1.2,-2.7 -1.8,-3.9 -0.7,-1.5 -1.5,-2.9 -2.4,-4.2 -0.7,-1.2 -1.8,-2 -3.1,-2.5 -0.9,-0.3 -1.9,-0.3 -2.9,-0.1 -0.6,0.1 -1.1,0.3 -1.6,0.6 -0.3,0.1 -0.5,0.3 -0.7,0.4 -0.7,0.5 -1,0.6 -1.1,0.6 l 0,0 c -0.8,-1 -0.8,-1 0,0 l 0,0 c 0,-0.1 0.2,-0.4 0.8,-1 0.3,-0.3 0.6,-0.5 1,-0.7 0.4,-0.3 0.9,-0.5 1.4,-0.7 0.5,-0.2 1,-0.3 1.6,-0.4 0.6,-0.1 1.3,0 1.9,0.1 0.8,0.2 1.5,0.5 2.1,1 0.7,0.5 1.3,1.1 1.9,1.8 1.1,1.3 2.1,2.8 2.9,4.3 0.7,1.3 1.3,2.5 2.1,3.8 0.9,1.4 1.9,2.8 3,4 1.8,1.9 3.7,3.7 5.7,5.4 2.6,2.1 5.3,4.1 8.2,6 l 1,0.7 c 2.8,1.8 5.8,3.7 8.6,5.8 l 0,0 c 2.8,2 5.3,4.4 7.3,7.2 1.3,1.7 2.3,3.6 3.2,5.6 0.8,1.8 1.5,3.6 2,5.5 0.1,0.5 0.2,1.1 0.1,1.7 -0.1,0.7 -0.3,1.4 -0.5,2 -0.6,1.6 -1.4,3.1 -2.3,4.5 -0.4,0.6 -0.7,1.1 -1,1.6 -0.7,1.1 -1.5,2.1 -2.3,3.1 -1.1,1.4 -2.4,2.6 -3.8,3.7 -0.8,0.6 -1.6,1.1 -2.5,1.4 -1,0.4 -2,0.6 -3,0.7 -2.2,0.2 -4.4,0 -6.5,-0.6 -2.5,-0.7 -4.9,-1.7 -7.1,-3 -2.2,-1.3 -4.3,-2.8 -6.3,-4.6 -2.9,-2.6 -5.5,-5.5 -7.7,-8.7 -1.9,-2.6 -3.5,-5.3 -5,-8.1 -0.5,-0.9 -1,-1.9 -1.5,-3 -1.8,-3.8 -3.4,-7.6 -4.8,-11.6 l 0,0 c -1.2,-3.3 -2.1,-6.7 -2.8,-10.2 -0.3,-1.4 -0.5,-2.8 -0.6,-4.1 -0.1,-1.3 -0.2,-2.5 -0.2,-3.8 0,-1.1 0.1,-2.2 0.3,-3.3 0.1,-0.9 0.4,-1.8 0.7,-2.7 l 2.1,-3.6 -0.4,0 z"
         id="path229"
         inkscape:connector-curvature="0" /><path
         d="m 758.8,644.4 c -0.1,0.2 -0.1,0.4 -0.1,0.5 0.1,0.2 0.2,0.4 0.4,0.6 0.2,0.2 0.5,0.4 0.8,0.6 0.3,0.2 0.7,0.3 1,0.4 0.8,0.3 1.7,0.4 2.6,0.4 l 0.8,0 c 1,0 2,-0.2 2.9,-0.6 0.3,-0.1 0.6,-0.3 0.9,-0.6 0.1,-0.1 0.2,-0.2 0.2,-0.3 0,-0.1 0,-0.1 0.1,-0.2 0,-0.1 0,-0.1 0,-0.2 0,-0.1 0,0 0,0 l 0,0 0,0 c 0,0 0,-0.1 0,-0.2 l 0,0 c 0,-0.1 0,-0.1 -0.1,-0.2 -0.1,-0.1 -0.2,-0.2 -0.3,-0.3 -0.3,-0.2 -0.6,-0.4 -0.9,-0.5 -0.9,-0.3 -1.8,-0.5 -2.8,-0.6 l -0.7,0 c -0.8,0 -1.6,0 -2.3,0.1 -0.3,0 -0.6,0.1 -0.9,0.2 -0.2,0.1 -0.5,0.2 -0.7,0.3 -0.2,0.1 -0.4,0.2 -0.5,0.3 -0.1,0.1 -0.3,0.2 -0.4,0.4 l 0,-0.1 z"
         id="path231"
         inkscape:connector-curvature="0" /><path
         d="m 760.8,638.5 c -0.2,0.3 -0.2,0.8 0,1.1 0.3,0.5 0.7,0.9 1.1,1.2 0.5,0.3 1.1,0.6 1.7,0.8 0.2,0.1 0.4,0.1 0.6,0.2 0.7,0.1 1.5,0.1 2.2,-0.1 0.3,-0.1 0.5,-0.2 0.8,-0.4 0.1,-0.1 0.2,-0.2 0.3,-0.3 0,-0.1 0.1,-0.1 0.1,-0.2 l 0,-0.2 0,0 0,0 0,0 c 0,0 0,-0.1 0,-0.2 0,-0.1 0,-0.1 0,-0.2 0,-0.1 0,-0.2 -0.1,-0.4 -0.1,-0.3 -0.3,-0.5 -0.5,-0.7 -0.5,-0.5 -1.2,-0.9 -1.8,-1.1 l -0.6,-0.2 c -0.5,-0.2 -1.1,-0.2 -1.7,-0.3 -0.5,0 -0.9,0 -1.4,0.2 -0.3,0.1 -0.7,0.3 -0.9,0.6 l 0.2,0.2 z"
         id="path233"
         inkscape:connector-curvature="0" /><path
         d="m 755.7,652.9 c -0.3,0.5 -0.3,1.1 -0.1,1.6 0.3,0.7 0.9,1.3 1.5,1.7 0.5,0.3 1,0.5 1.5,0.5 0.5,0.1 1,0 1.4,-0.2 0.2,-0.1 0.3,-0.2 0.4,-0.3 0.1,-0.1 0.2,-0.3 0.2,-0.4 l 0,0 0,0 0,0 c 0,-0.1 0.1,-0.3 0.1,-0.5 0,-0.2 0,-0.3 -0.1,-0.5 -0.1,-0.4 -0.3,-0.7 -0.6,-1 -0.3,-0.3 -0.7,-0.6 -1,-0.9 -0.6,-0.4 -1.2,-0.6 -1.9,-0.6 -0.4,0 -1,0.2 -1.4,0.6 l 0,0 z"
         id="path235"
         inkscape:connector-curvature="0" /></g><g
       id="g4380"><g
         id="g4181"><path
           class="st22"
           d="m 759.6,529.7 c 0,0 5.4,-2.9 6.1,-4.1 0.7,-1.2 6.4,-10.6 6.5,-15.7 0.1,-5 -0.1,-11.8 -3,-16 -2.9,-4.2 -7.6,-8.4 -9.5,-8.9 -1.9,-0.5 -6.9,2.9 -7.8,4.4 -0.9,1.5 -7.4,11.1 -7.8,12 -0.4,0.9 15.5,28.3 15.5,28.3 l 0,0 z"
           id="path239"
           inkscape:connector-curvature="0"
           style="fill:#a06121" /><path
           class="st30"
           d="m 759.5,485.1 0,0 c 2,0.4 6.8,4.7 9.6,8.9 2.8,4.2 3.1,11 3,16 -0.1,5 -5.8,14.5 -6.5,15.7 -0.7,1.2 -6.1,4 -6.1,4 l -1.8,-3.1 c 0.5,-0.3 0.5,-0.3 1.1,-0.6 0.6,-0.3 1.5,-0.9 2,-1.3 0.5,-0.3 0.9,-0.7 1.2,-1.1 0.2,-0.3 0.7,-1.1 1.3,-2.3 0.6,-1.2 1.4,-2.6 2.2,-4.1 0.4,-0.8 0.8,-1.6 1.1,-2.4 0.3,-0.8 0.7,-1.6 1,-2.5 0.3,-0.8 0.5,-1.5 0.7,-2.3 0.2,-0.7 0.2,-1.4 0.3,-2.1 0,-1.3 0,-2.6 0,-4 -0.1,-1.4 -0.2,-2.9 -0.4,-4.3 -0.1,-0.7 -0.2,-1.4 -0.4,-2.1 -0.2,-0.7 -0.3,-1.4 -0.5,-2 -0.2,-0.6 -0.4,-1.3 -0.7,-1.9 -0.3,-0.6 -0.6,-1.1 -1,-1.7 -0.7,-1.1 -1.6,-2.1 -2.4,-3.1 -0.9,-1 -1.8,-1.9 -2.7,-2.8 -0.2,-0.4 -0.5,-0.6 -1,-0.9 l 0,0 z"
           id="path241"
           inkscape:connector-curvature="0"
           style="fill:#6e4a25" /><path
           d="m 743.3,502.5 0,0 0,0 0.1,-0.1 0.3,-0.5 c 0.3,-0.7 0.7,-1.3 1,-2 l 0,0 c 1.2,-2.4 2.3,-4.4 3.3,-6.1 0.9,-1.4 1.7,-2.7 2.5,-3.8 0.8,-1.1 1.5,-2 2.2,-2.8 0.8,-0.9 1.7,-1.8 2.6,-2.5 0.8,-0.7 1.8,-1.2 2.8,-1.5 0.3,-0.1 0.5,-0.1 0.8,-0.1 0.5,0 0.9,0.1 1.4,0.2 0.6,0.2 1.1,0.5 1.6,0.8 0.7,0.4 1.3,0.9 1.9,1.5 0.6,0.6 1.2,1.3 1.8,2 0.6,0.8 1.2,1.6 1.8,2.5 0.6,0.9 1,1.7 1.5,2.5 0.9,1.6 1.5,3.1 1.8,3.8 0.2,0.5 0.5,1.2 1,2.2 0.3,0.8 0.6,1.6 0.8,2.4 0.2,1 0.4,2 0.5,3 l 0,0 c 0.1,1 0.1,2 0.1,3 0,1 0,2.1 -0.1,3.1 l 0,0 c -0.1,1.9 -0.4,3.8 -0.7,5.6 -0.2,0.9 -0.3,1.7 -0.5,2.4 -0.2,0.7 -0.3,1.2 -0.5,1.6 l 0,0 c -0.6,1.5 -1.4,3 -2.5,4.2 -1,1.1 -2.1,2.1 -3.3,3 -1,0.8 -2.1,1.4 -3.2,2 -0.5,0.3 -1,0.5 -1.4,0.7 -0.2,0.1 -0.4,0.2 -0.7,0.2 -0.1,0 -0.1,-0.1 0.1,-0.3 0.2,-0.2 0.4,-0.4 0.7,-0.6 l 1.1,-1 c 0.8,-0.8 1.8,-1.7 2.9,-2.8 1,-1.1 2,-2.2 2.8,-3.4 0.4,-0.6 0.7,-1.2 1.1,-1.8 0.2,-0.5 0.4,-1.1 0.6,-1.6 0.3,-1 0.6,-2 0.8,-2.9 l 0.2,-0.7 c 0.5,-1.7 0.8,-3.4 1.1,-5.1 0.3,-1.8 0.5,-3.7 0.5,-5.6 l 0,0 c 0,-0.9 -0.1,-1.8 -0.2,-2.7 -0.1,-0.8 -0.3,-1.6 -0.6,-2.3 -0.4,-1.2 -1,-2.3 -1.6,-3.5 -0.3,-0.6 -0.9,-1.6 -1.7,-2.8 -0.9,-1.3 -1.9,-2.5 -3,-3.7 -1,-1.1 -2.1,-2 -3.4,-2.7 -0.5,-0.2 -1,-0.4 -1.5,-0.6 -0.5,-0.1 -0.9,-0.1 -1.4,0 l 0,0 c -0.8,0.2 -1.6,0.6 -2.3,1.1 -0.6,0.4 -1.1,0.8 -1.6,1.1 -0.5,0.3 -0.6,0.5 -0.9,0.8 -0.8,0.7 -1.6,1.5 -2.4,2.3 -0.8,0.9 -1.7,2 -2.6,3.1 -1.4,1.9 -2.8,4 -3.7,5.5 -0.5,0.8 -0.8,1.4 -1.1,1.8 l -0.3,0.5 0,0 -0.5,0.6 0,0 0,0 0,0 z"
           id="path243"
           inkscape:connector-curvature="0" /><path
           class="st28"
           d="m 747,509.6 c 0,0 3.8,5.2 4.6,7.4 0.8,2.2 3.5,6 3.8,6 0.6,-0.1 1.2,-0.3 1.8,-0.5 1.2,-2 2.3,-4.1 3.1,-6.4 0.8,-2.5 2.6,-4.7 1.8,-7.4 -0.8,-2.8 -1.6,-7.6 -3.6,-7.8 -2,-0.2 -4.8,-0.2 -5.9,0.3 -1.1,0.5 -2,1.3 -2.9,2.1 -0.4,0.6 -3.6,5.1 -2.7,6.3 l 0,0 z"
           id="path245"
           inkscape:connector-curvature="0"
           style="fill:#834317" /><path
           class="st31"
           d="m 758.8,500.8 c 1.7,0.7 2.5,5 3.3,7.6 0.8,2.8 -1.1,5 -1.8,7.4 -0.8,2.2 -1.9,4.3 -3.1,6.4 -0.6,0.3 -1.2,0.4 -1.8,0.5 -0.4,-0.4 -0.8,-0.8 -1,-1.3 0.3,0 0.6,-0.1 0.9,-0.2 0.4,-0.1 0.8,-0.3 0.8,-0.3 0,0 0.6,-1 1.3,-2.3 0.3,-0.6 0.7,-1.3 1,-2.1 0.3,-0.6 0.6,-1.3 0.8,-2 0.2,-0.6 0.4,-1.2 0.7,-1.8 0.3,-0.6 0.5,-1.2 0.8,-1.8 0.1,-0.3 0.2,-0.6 0.3,-0.9 0.1,-0.3 0.1,-0.6 0.2,-0.9 0.1,-0.7 0,-1.4 -0.2,-2 -0.2,-0.7 -0.4,-1.5 -0.6,-2.4 -0.2,-0.9 -0.5,-1.7 -0.7,-2.5 -0.1,-0.4 -0.3,-0.7 -0.4,-1.1 -0.4,0 -0.5,-0.1 -0.5,-0.3 l 0,0 z"
           id="path247"
           inkscape:connector-curvature="0"
           style="fill:#5d381e" /><path
           d="m 746.9,509.4 c 0.7,0.6 1.3,1.2 1.9,1.8 0.6,0.6 1,1.2 1.5,1.9 0.5,0.7 1,1.4 1.5,2.1 0.4,0.6 0.8,1.2 1.1,1.9 0.3,0.6 0.6,1.2 1,1.8 0.3,0.4 0.6,0.9 0.9,1.3 0.3,0.4 0.6,0.8 1,1.1 0.3,0.2 0.5,0.4 0.6,0.3 -0.1,0 -0.2,0 -0.3,0 l 0,0 0.2,-0.2 c 0.3,-0.3 0.6,-0.6 0.8,-1 0.4,-0.5 0.7,-1 1.1,-1.7 0.4,-0.6 0.8,-1.3 1.2,-2 0.5,-0.9 0.9,-1.7 1.2,-2.5 0.3,-0.8 0.6,-1.5 0.8,-2.1 0.1,-0.3 0.2,-0.5 0.2,-0.7 0.1,-0.5 0.2,-1 0.2,-1.5 0,-0.6 0,-1.2 -0.1,-1.7 l 0,0 c -0.2,-0.9 -0.6,-1.8 -1.2,-2.6 -0.5,-0.8 -1,-1.4 -1.7,-2 -0.5,-0.4 -1,-0.7 -1.5,-1 -0.4,-0.2 -0.8,-0.4 -1,-0.5 -0.3,-0.2 -0.7,-0.3 -1.1,-0.5 -0.3,-0.1 -0.5,-0.1 -0.8,-0.1 -0.3,0 -0.7,0.1 -1,0.2 -0.7,0.3 -1.4,0.6 -2.1,1 -0.7,0.5 -1.4,1 -2,1.5 -0.3,0.2 -0.4,0.3 -0.5,0.2 l 0,0 c -0.1,-0.2 0.8,-1.5 2,-3 0.7,-0.7 1.4,-1.3 2.2,-1.9 0.7,-0.5 1.5,-0.8 2.3,-0.8 0.6,0 1.1,0.1 1.6,0.3 0.5,0.2 0.9,0.5 1.3,0.8 0.5,0.4 1,0.9 1.4,1.5 0.7,0.9 1.3,1.9 1.8,3 0.5,1.1 0.8,2.3 1,3.4 0.1,0.7 0.1,1.5 0,2.3 -0.1,0.8 -0.3,1.6 -0.5,2.5 l -0.1,0.3 c -0.1,0.5 -0.3,1.2 -0.5,2.1 -0.3,0.9 -0.6,2 -1,3 -0.6,1.5 -1.3,3 -2.1,4.5 -0.3,0.5 -0.6,1 -1,1.4 -0.1,0.2 -0.3,0.3 -0.5,0.5 -0.2,0.2 -0.4,0.2 -0.7,0.2 -0.5,-0.1 -1,-0.4 -1.3,-0.8 -0.5,-0.5 -0.9,-1 -1.2,-1.5 -0.2,-0.3 -0.4,-0.6 -0.5,-0.9 -0.5,-1 -0.9,-2 -1.2,-3 -0.2,-0.7 -0.5,-1.3 -0.8,-1.9 -0.4,-0.8 -0.8,-1.6 -1.2,-2.4 -0.4,-0.8 -0.7,-1.2 -1.1,-1.8 -0.3,-0.5 -0.7,-1 -1,-1.4 0,-0.7 -0.4,-1.1 -0.8,-1.4 l 0,0 z"
           id="path249"
           inkscape:connector-curvature="0" /><path
           d="m 768.1,498.1 0,0 0,0 0.1,0 0.1,0 c 0.1,0 0.2,0 0.2,0 0.2,-0.1 0.3,-0.2 0.5,-0.3 0.4,-0.3 0.7,-0.7 1,-1.2 0.1,-0.2 0.2,-0.4 0.3,-0.5 0.1,-0.1 0.3,-0.6 0.5,-0.9 0.2,-0.3 0.3,-0.7 0.5,-1.1 0.1,-0.2 0.1,-0.4 0.2,-0.5 0.1,-0.2 0.1,-0.4 0.1,-0.6 0,-0.2 0,-0.4 -0.1,-0.5 -0.1,-0.2 -0.2,-0.3 -0.4,-0.4 -0.2,-0.1 -0.5,-0.1 -0.7,-0.1 -0.3,0.1 -0.6,0.2 -0.8,0.4 -0.4,0.3 -0.7,0.7 -1,1.1 -0.2,0.3 -0.3,0.6 -0.4,0.9 -0.3,0.7 -0.4,1.5 -0.4,2.2 0,0.3 0,0.6 0.1,0.9 0,0.1 0.1,0.2 0.1,0.3 l 0,0 0.1,0.1 0,0 0,0 0,0.2 z"
           id="path251"
           inkscape:connector-curvature="0" /><path
           d="m 769.6,502 c 0.1,0.4 0.5,0.7 0.9,0.7 0.6,0 1.2,-0.1 1.7,-0.4 l 0.5,-0.1 c 0.6,-0.1 1.1,-0.4 1.6,-0.7 0.2,-0.1 0.3,-0.2 0.5,-0.4 0.1,-0.1 0.2,-0.3 0.3,-0.4 0.1,-0.1 0.2,-0.3 0.2,-0.4 0.1,-0.1 0.1,-0.3 0.1,-0.4 0,-0.2 0,-0.3 0,-0.5 -0.1,-0.2 -0.2,-0.3 -0.3,-0.4 -0.1,-0.1 -0.3,-0.3 -0.5,-0.3 -0.2,-0.1 -0.4,-0.1 -0.6,-0.2 -0.6,-0.1 -1.3,0 -1.9,0.1 l -0.5,0.2 0,0 c -0.6,0.4 -1.2,1 -1.6,1.6 -0.3,0.5 -0.5,1 -0.4,1.6 l 0,0 z"
           id="path253"
           inkscape:connector-curvature="0" /></g><path
         class="st22"
         d="m 777.3,540.3 c 0,0 -0.8,-15.2 -2.1,-18.6 -1.3,-3.4 -5.4,-14.4 -8.8,-17.6 -3.4,-3.2 -7.3,-8.5 -13.5,-11.6 -6.2,-3.1 -23.8,-6.2 -27.8,-6.2 -4,0 -12.1,3 -14.9,4.3 -2.8,1.3 -9.4,10.1 -12.8,14.5 -3.4,4.4 -10.5,20.6 -11.4,24 -0.9,3.4 -3.8,17.6 -3.2,22.7 0.6,5.1 1.7,13.9 4.7,18.2 3,4.3 13.1,13.3 16.9,14 3.8,0.7 32.4,11.8 40.7,9.1 8.3,-2.7 23.4,-17 24,-20.7 0.6,-3.7 8,-27.4 8.2,-32.1 l 0,0 z"
         id="path255"
         inkscape:connector-curvature="0"
         style="fill:#a06121" /><path
         class="st31"
         d="m 725.1,486.3 c 3.9,0 21.6,3 27.8,6.2 6.2,3.2 10.1,8.4 13.5,11.6 3.4,3.2 7.5,14.2 8.8,17.6 1.3,3.4 2.1,18.6 2.1,18.6 -0.2,4.7 -7.7,28.3 -8.3,32.1 -0.6,3.8 -13.7,17.8 -21.9,20.4 -1.7,0.5 -3.3,0.5 -6.8,-0.8 2.4,0.2 3.7,0.6 5.1,0.2 8.3,-2.6 21.3,-16.1 21.8,-19.9 0.5,-3.8 8.1,-27.4 8.3,-32.1 0,0 -0.8,-15.2 -2.1,-18.6 -1.3,-3.4 -5.4,-14.4 -8.8,-17.6 -3.4,-3.2 -7.3,-8.5 -13.5,-11.6 -6,-3.1 -22.8,-6 -27.3,-6.2 l 1.3,0.1 0,0 z"
         id="path257"
         inkscape:connector-curvature="0"
         style="fill:#5d381e" /><path
         d="m 771,535.3 c -0.2,-0.1 -0.4,-0.2 -0.7,-0.2 -0.2,0 -0.3,0 -0.5,0 -0.1,0 -0.3,0.1 -0.4,0.1 -0.1,0 -0.2,0.1 -0.4,0.1 -0.2,0 -0.5,0.1 -0.7,0.2 -0.3,0.1 -0.5,0.3 -0.8,0.5 -0.1,0.1 -0.2,0 -0.1,-0.1 0.1,-0.2 0.1,-0.4 0.3,-0.6 0.1,-0.3 0.3,-0.5 0.6,-0.7 0.2,-0.2 0.5,-0.3 0.8,-0.3 l 0.2,0 c 0.4,0 0.8,0.1 1.2,0.4 0.3,0.2 0.6,0.4 0.8,0.4 0.2,0 0.2,0.2 0.2,0.3 0,0.1 -0.3,0.1 -0.5,-0.1 l 0,0 z"
         id="path259"
         inkscape:connector-curvature="0" /><path
         d="m 769.9,532.5 c -0.1,-0.1 -0.3,-0.1 -0.4,-0.1 -0.1,0 -0.3,0 -0.4,0 0,0 -0.1,0 -0.1,0 -0.1,0 -0.2,0 -0.3,0 -0.2,0 -0.3,0.1 -0.5,0.1 -0.1,0 -0.1,0 -0.1,-0.1 0,-0.1 0.1,-0.3 0.1,-0.4 0.1,-0.2 0.2,-0.3 0.3,-0.4 0.2,-0.1 0.4,-0.1 0.5,-0.1 l 0,0 c 0.2,0.1 0.5,0.3 0.7,0.5 0.2,0.2 0.3,0.3 0.4,0.3 0.1,0 0.1,0.2 0,0.2 0,0.1 -0.1,0.1 -0.2,0.1 0,0 0,0 0,-0.1 l 0,0 z"
         id="path261"
         inkscape:connector-curvature="0" /><path
         d="m 769.3,534 c -0.2,-1 -0.5,-2.7 -1,-4.8 -0.5,-2.5 -1.2,-5.8 -1.9,-9.1 -0.4,-2.1 -0.9,-4.2 -1.3,-6.3 -0.3,-1.4 -0.9,-2.8 -1.7,-4.1 -0.9,-1.6 -2,-3.2 -3.1,-4.7 -1.3,-1.7 -2.3,-3 -3,-3.8 l -0.6,-0.7 c -0.8,-1 -1.8,-2.1 -3.1,-3.4 -0.8,-0.8 -1.7,-1.5 -2.7,-2.2 -1,-0.7 -2.1,-1.4 -3.3,-2 -2.3,-1.3 -4.7,-2.5 -7.1,-3.5 -2,-0.9 -4,-1.7 -5.7,-2.4 l -0.6,-0.2 c -0.5,-0.2 -0.8,-0.4 -1,-0.5 -0.1,-0.1 -0.3,-0.2 -0.4,-0.3 0,-0.2 -0.1,-0.3 -0.1,-0.5 l 0,0 0.1,-0.1 c 0.1,-0.1 0.1,-0.1 0.1,-0.1 l -0.1,0.1 -0.1,0.1 0,0 c 0,0.1 0,0.3 0.1,0.4 l 0,0 c 0.1,0.1 0.3,0.2 0.4,0.2 0.4,0.1 0.9,0.4 1.6,0.6 1.4,0.5 3.5,1.3 5.8,2.2 2.5,1 4.9,2.1 7.3,3.3 2.2,1.1 4.3,2.5 6.2,4.2 1.1,1.1 2.2,2.2 3.2,3.4 l 0,0 c 1.3,1.5 2.5,3 3.6,4.6 l 0.1,0.1 c 1.1,1.5 2.1,3.1 3,4.8 l 0,0 c 0.8,1.3 1.3,2.8 1.6,4.3 0.3,2.1 0.7,4.3 1.1,6.3 0.6,3.3 1.2,6.4 1.7,9.2 0.6,3 1.1,5.5 1.5,7.3 l 0.2,0.9 c 0.2,1.1 0.4,2 0.5,2.6 0,0.3 0.1,0.6 0.1,0.7 0,0.1 0,0.1 0,0.2 0,0 0,0 0,0 l 0,0 0,0 c 0,-0.1 -0.1,-0.1 -0.1,-0.2 0,-0.2 -0.1,-0.4 -0.2,-0.7 -0.2,-0.6 -0.3,-1.4 -0.6,-2.6 0,-0.8 -0.2,-1.9 -0.5,-3.3 l 0,0 z"
         id="path263"
         inkscape:connector-curvature="0" /><path
         class="st23"
         d="m 725.2,486.3 0.6,0 c -2.5,0.1 -3.1,1.4 -5.7,1.5 -5.7,0.2 -17.5,12.8 -20.4,17.3 -2.9,4.5 -10.5,20.6 -11.4,24 -0.9,3.4 -3.8,17.6 -3.2,22.7 0.6,5.1 1.7,13.9 4.7,18.2 3,4.3 13.1,13.3 16.9,14 2.9,0.6 18.7,6.6 30,6.9 -11.1,0.2 -29.2,-6.3 -32.3,-6.9 -3.8,-0.8 -13.9,-9.7 -16.9,-14 -3,-4.3 -4.1,-13.1 -4.7,-18.2 -0.6,-5.1 2.3,-19.3 3.2,-22.7 0.9,-3.4 8.4,-19.5 11.4,-24 3.1,-4.5 11.4,-17.4 20.4,-17.3 3.2,0 3.4,-1.5 7.4,-1.5 l 0,0 z"
         id="path265"
         inkscape:connector-curvature="0"
         style="fill:#b8854f" /><path
         class="st30"
         d="m 753.9,532.4 c 1.5,-0.8 1.8,-4 2.6,-2.4 1,2.1 0.7,4.6 -0.8,6.4 -1,1 -7.2,1.8 -7.2,0 0,-1.7 3.9,-3.2 5.4,-4 l 0,0 z"
         id="path267"
         inkscape:connector-curvature="0"
         style="fill:#6e4a25" /><path
         d="m 750.5,524 c 3.5,0 6.2,2.3 6.2,5.7 0,3.4 -1.5,6.8 -4.9,7.1 -3.8,0.4 -6.4,-2.6 -6.2,-6.3 0.1,-3.4 1.4,-6.5 4.9,-6.5 z"
         id="path269"
         inkscape:connector-curvature="0" /><path
         class="st32"
         d="m 750,526.2 c 0.5,-0.6 2,0.1 2.7,0.6 0.7,0.4 0.8,1.3 0.4,2 -0.4,0.7 -1.3,0.8 -2,0.4 -0.1,-0.1 -0.1,-0.1 -0.2,-0.2 -0.7,-0.6 -1.4,-2.2 -0.9,-2.8 l 0,0 z"
         id="path271"
         inkscape:connector-curvature="0"
         style="fill:#ddcebe" /><path
         class="st33"
         d="m 750.4,525 c 0,0 -4.2,0.4 -5.5,-2.2"
         id="path273"
         inkscape:connector-curvature="0"
         style="fill:none;stroke:#000000;stroke-width:5" /><path
         d="m 687.3,525.6 0,0 0,0 0,0 -0.1,0.3 -0.2,0.8 c -0.3,1 -0.5,1.9 -0.7,2.8 -0.3,1.1 -0.6,2.3 -0.8,3.3 -0.2,1 -0.4,1.9 -0.5,2.7 -0.3,2 -0.5,3.8 -0.6,5.5 l 0,0 c -0.2,2.7 -0.3,5 -0.3,7 0,2.3 0.1,4.6 0.3,6.9 0.1,1.1 0.3,2 0.4,2.8 0.1,0.7 0.3,1.4 0.6,2.1 l 0.3,0.8 c 0.4,1.1 0.9,2.8 1.6,4.6 0.7,2 1.5,4 2.6,5.9 0.7,1.2 1.5,2.4 2.5,3.5 0.9,1 1.8,2 2.8,2.9 1,0.8 1.9,1.5 2.7,2.1 0.8,0.6 1.5,1 1.9,1.3 0.2,0.2 0.5,0.3 0.9,0.5 0.7,0.4 1.5,0.7 2.3,1.1 0.9,0.4 2,0.8 3.1,1.1 l 0,0 c 2.1,0.7 4.5,1.3 6.9,1.9 2.9,0.7 5.8,1.3 8.2,1.8 2.4,0.5 4.4,0.9 5.4,1.2 l 1.9,0.5 c 1.7,0.5 3.9,1 6.3,1.6 2.4,0.6 4.9,1.2 7.4,1.7 1.6,0.4 3.2,0.7 4.7,1.1 l 1.1,0.3 0.4,0.1 c 0.3,0.1 0.5,0.2 0.7,0.3 0.2,0.1 0.3,0.2 0.2,0.2 -0.1,0 -0.2,0 -0.4,0 -0.2,0 -0.5,0 -0.7,0 l -1.6,-0.1 c -1.3,-0.1 -2.9,-0.2 -4.8,-0.4 -4.2,-0.4 -9.5,-1 -14,-1.8 -2,-0.3 -3.9,-0.8 -5.8,-1.4 -3.2,-1 -6.5,-2.1 -9.6,-3.2 -2.4,-0.9 -4.7,-1.7 -6.8,-2.6 -1.8,-0.8 -3.6,-1.6 -5.4,-2.6 -1,-0.6 -1.9,-1.1 -2.7,-1.5 -1.5,-0.8 -2.8,-1.8 -4.2,-2.8 -2.1,-1.6 -3.9,-3.5 -5.4,-5.7 -1.2,-1.8 -2.2,-3.7 -3,-5.7 -0.9,-2 -1.6,-4 -2.2,-5.8 -0.3,-1 -0.6,-2 -0.8,-3 -0.1,-1 -0.2,-1.9 -0.3,-2.7 -0.1,-1.1 -0.1,-2.3 0,-3.4 0.1,-1 0.2,-2.3 0.3,-3.7 0.2,-2.1 0.6,-4.6 1,-7.1 0.3,-1.9 0.7,-3.7 1.1,-5.5 0.2,-1 0.5,-1.9 0.8,-2.7 0.4,-1.2 0.8,-2.3 1.1,-3.3 0.4,-1.1 0.7,-2.1 1,-2.7 l 0.3,-0.8 0.1,-0.2 0,0 0,0 0,0 0,0 z"
         id="path275"
         inkscape:connector-curvature="0" /><path
         d="m 777.1,540.7 c 0,-1.2 -0.1,-2.4 -0.3,-3.7 -0.2,-1.7 -0.5,-3.3 -0.8,-4.8 l 0,0 c -0.5,-2.5 -1.1,-4.6 -1.7,-6.5 -0.6,-1.9 -1.1,-3.6 -1.7,-5.1 -1,-2.8 -2,-4.9 -2.8,-6.5 -0.8,-1.7 -1.5,-3 -2.1,-4.1 l -0.5,-0.9 c -0.6,-1.2 -1.4,-2.7 -2.4,-4.3 -1,-1.7 -2.3,-3.3 -3.6,-4.8 l 0,0 c -1.5,-1.6 -3.2,-3 -5,-4.3 -1.6,-1.1 -2.9,-2 -3.7,-2.4 -1,-0.5 -2,-1 -3,-1.4 -1.6,-0.6 -3.3,-1.2 -5,-1.6 -1.5,-0.4 -3.2,-0.8 -4.8,-1.1 -1.6,-0.3 -3.3,-0.5 -4.8,-0.7 -3,-0.3 -5.5,-0.4 -6.7,-0.6 l -1.5,-0.1 c -1.8,-0.1 -3.7,-0.1 -5.5,0.1 -2.2,0.2 -4.4,0.7 -6.5,1.4 -1.4,0.4 -2.7,1 -4,1.4 -0.4,0.2 -0.9,0.4 -1.4,0.5 -0.4,0.2 -0.8,0.2 -1.2,0.3 -0.2,0 -0.2,-0.1 0,-0.2 0.2,-0.1 0.5,-0.3 0.9,-0.5 0.4,-0.2 0.9,-0.6 1.4,-0.9 1.2,-0.8 2.5,-1.5 3.8,-2.1 1.9,-0.9 3.9,-1.7 6,-2.2 2.2,-0.5 4.4,-0.8 6.6,-0.8 1.7,0 3.4,0.1 5.1,0.4 2.2,0.4 4.4,0.9 6.6,1.5 2.2,0.6 4.3,1.3 6.3,2.1 2,0.8 4,1.7 5.6,2.5 1.6,0.8 3,1.5 4,2 0.7,0.4 1.9,1 3.3,1.8 1.7,1 3.3,2.2 4.7,3.4 1.5,1.3 2.8,2.7 4,4.3 1.2,1.6 2.2,3.2 3.2,4.9 1.7,2.8 3,5.9 4,9 0.2,0.9 0.5,1.9 0.8,3.2 0.4,1.7 0.8,3.7 1.2,5.8 0.4,2.1 0.7,4.3 0.9,6.3 0.2,1.8 0.3,3.5 0.4,5 0,1.1 0,2.1 0,2.7 0,0.6 -0.1,1 -0.1,1 l 0.3,0 z"
         id="path277"
         inkscape:connector-curvature="0" /><path
         class="st22"
         d="m 718.2,503.7 c 0,0 -7.6,-11.3 -9.5,-13.1 -2,-1.9 -2.5,-4.4 -7.1,-5 -4.6,-0.6 -12,2.2 -13.6,3.3 -1.6,1.1 -7.9,5.4 -9.1,6.9 -1.2,1.5 -2.1,6.3 -2,9.5 0.1,3.3 3.2,10.3 4.4,11.5 1.2,1.2 7.9,7.5 10.1,8.2 2.2,0.8 14,2.5 14,2.5 l 12.8,-23.8 z"
         id="path279"
         inkscape:connector-curvature="0"
         style="fill:#a06121" /><path
         class="st23"
         d="m 698.1,526.2 c -2.1,-0.3 -4.1,-0.7 -6.1,-1.3 -2.2,-0.8 -8.9,-7 -10.1,-8.2 -1.2,-1.2 -4.3,-8.2 -4.4,-11.5 -0.1,-3.3 0.8,-8 2,-9.5 1.2,-1.5 7.5,-5.8 9.1,-6.9 3.7,-2 7.8,-3.1 11.9,-3.4 -1.2,0.2 -2.3,0.4 -3.5,0.8 -1.2,0.3 -2.4,0.8 -3.5,1.2 -0.8,0.3 -1.5,0.7 -2.2,1.1 -0.8,0.5 -2.8,1.9 -4.7,3.3 -1,0.7 -1.9,1.4 -2.7,2 -0.6,0.5 -1.2,1 -1.7,1.6 -0.4,0.5 -0.6,1.1 -0.8,1.7 -0.3,0.8 -0.5,1.6 -0.6,2.4 -0.2,0.9 -0.3,1.8 -0.4,2.8 -0.1,0.9 -0.1,1.8 -0.1,2.7 0.1,1 0.3,2 0.6,3 0.3,1.2 0.8,2.4 1.2,3.5 0.5,1.2 1,2.3 1.4,3.1 0.3,0.7 0.7,1.3 1.2,1.9 0.6,0.6 2.6,2.5 4.7,4.3 1,0.9 2.1,1.8 3.1,2.5 0.7,0.6 1.5,1.1 2.3,1.4 0.8,0.2 1.6,0.4 2.4,0.6 l 3.7,0.7 -2.8,0.2 z"
         id="path281"
         inkscape:connector-curvature="0"
         style="fill:#b8854f" /><path
         d="m 717.9,503.6 c -2,-2.8 -3.9,-5.3 -5.5,-7.5 -1.6,-2.2 -3.1,-3.9 -4.4,-5.4 -0.7,-0.7 -1.3,-1.4 -1.8,-2 -0.3,-0.4 -0.7,-0.7 -1.1,-1 -0.8,-0.4 -1.6,-0.8 -2.5,-1 -0.7,-0.2 -1.4,-0.3 -2.2,-0.4 -0.6,0 -1.1,0 -1.7,0 -0.5,0 -1,0.1 -1.5,0.2 -0.5,0.1 -1,0.1 -1.6,0.3 -1.4,0.3 -2.7,0.7 -4,1.2 -1.5,0.6 -3,1.4 -4.3,2.4 -1.6,1.1 -3.2,2 -4.5,2.9 -0.8,0.5 -1.5,1 -2.2,1.6 -0.5,0.4 -0.9,0.8 -1.3,1.3 l -0.2,0.3 c -0.4,0.6 -0.8,1.2 -1,1.9 -0.3,1 -0.5,2 -0.6,3.1 l 0,0 c 0,1.3 0.1,2.7 0.3,4 0.3,1.4 0.6,2.8 1.1,4.1 l 0,0 c 0.3,0.9 0.7,1.7 1.2,2.4 0.5,0.8 1,1.4 1.4,2 0.7,0.9 1.3,1.6 1.6,2 0.9,1.2 1.9,2.3 2.9,3.4 0.8,0.8 1.7,1.6 2.7,2.3 1,0.8 2,1.5 3.1,2.1 0.8,0.4 1.7,0.8 2.5,1.1 0.8,0.3 1.6,0.5 2.4,0.6 0.7,0.1 1,0.1 1,0.2 0,0.1 -0.3,0.2 -0.8,0.3 -0.8,0.1 -1.6,0.2 -2.4,0.1 -1.2,-0.1 -2.3,-0.3 -3.4,-0.7 l 0,0 c -1.2,-0.4 -2.4,-1 -3.5,-1.6 -1.2,-0.7 -2.3,-1.4 -3.4,-2.3 -1.1,-0.8 -2.1,-1.8 -3,-2.8 -0.8,-0.9 -1.6,-1.8 -2.2,-2.8 l -0.3,-0.5 c -1,-1.6 -1.7,-3.4 -2.1,-5.2 l 0,0 c -0.3,-1.5 -0.5,-3 -0.6,-4.6 -0.1,-1.4 0,-2.9 0.2,-4.3 0.2,-1.1 0.4,-2.1 0.8,-3.1 0.3,-0.8 0.8,-1.6 1.3,-2.4 0.4,-0.5 0.8,-1 1.2,-1.5 0.2,-0.3 0.5,-0.6 0.9,-0.9 0.4,-0.3 0.8,-0.8 1.4,-1.2 0.5,-0.4 1.2,-1 1.9,-1.5 0.7,-0.5 1.5,-1.1 2.2,-1.8 l 0,0 c 1.3,-1.1 2.6,-2.1 4.1,-2.9 1.5,-0.8 3.1,-1.5 4.8,-1.9 l 0,0 c 1,-0.2 1.9,-0.4 2.9,-0.5 0.9,-0.1 1.8,-0.1 2.8,0 0.9,0.1 1.8,0.3 2.6,0.6 0.7,0.2 1.3,0.5 1.9,0.9 0.4,0.2 0.7,0.5 1.1,0.7 0.5,0.4 1,0.9 1.4,1.5 l 0,0 c 0.6,0.7 1.1,1.5 1.7,2.3 l 0,0 c 1.3,1.9 2.6,3.9 3.8,5.9 l 4.9,8.1 0,0 z"
         id="path283"
         inkscape:connector-curvature="0" /><path
         class="st28"
         d="m 714,508.7 c 0,0 -6,2.5 -7.3,4.7 -1.3,2.2 -5.6,7.5 -6.2,7.6 -0.9,-0.1 -1.8,-0.3 -2.7,-0.5 0,0 -3.6,-3.9 -4.8,-6.4 -1.2,-2.5 -2.6,-5.2 -1.4,-8 1.2,-2.8 2.4,-6.7 4.2,-7.2 3,-0.6 6.1,-0.5 9.1,0.3 1.6,0.5 3,1.2 4.4,2.1 0.9,0.6 6.2,7 4.7,7.4 l 0,0 z"
         id="path285"
         inkscape:connector-curvature="0"
         style="fill:#834317" /><path
         d="m 714.8,508.6 0,0 -0.2,0.1 -0.7,0.3 c -0.8,0.3 -1.6,0.7 -2.3,1.1 -1.1,0.7 -2.2,1.5 -3.1,2.5 -0.7,0.8 -1.3,1.6 -1.7,2.6 -0.5,1.2 -1.3,2.3 -2.1,3.3 -0.6,0.7 -1.3,1.4 -2.1,1.9 -0.5,0.4 -1.2,0.8 -1.8,1 -0.3,0.1 -0.6,0.2 -0.9,0.2 -0.5,0.1 -1,0.1 -1.5,0 -0.6,-0.1 -1.1,-0.5 -1.4,-0.9 -0.1,-0.2 -0.3,-0.4 -0.6,-0.6 -0.2,-0.3 -0.6,-0.7 -1,-1.1 -0.9,-1 -1.7,-2 -2.3,-3.2 l 0,0 c -0.5,-0.7 -0.8,-1.5 -1.2,-2.3 -0.3,-0.6 -0.5,-1.3 -0.6,-2 -0.1,-0.4 -0.1,-0.7 -0.2,-1.1 0,-0.3 -0.1,-0.9 -0.2,-1.6 -0.1,-0.9 -0.1,-1.7 0,-2.6 0.1,-1.2 0.5,-2.4 1,-3.4 0.6,-1.1 1.3,-2.1 2.2,-2.9 0.7,-0.8 1.5,-1.4 2.4,-1.9 0.6,-0.4 1.2,-0.6 1.9,-0.8 1.7,-0.4 3.4,-0.4 5,0.1 0.9,0.2 1.7,0.6 2.5,1 l 0,0 c 0.8,0.4 1.6,0.9 2.3,1.5 0.7,0.6 1.3,1.2 1.8,1.9 0.1,0.2 0.2,0.4 0.3,0.6 0,0.1 0,0.2 0,0.2 -0.3,-0.1 -0.6,-0.3 -0.9,-0.5 -0.6,-0.4 -1.2,-0.8 -1.8,-1.1 -0.8,-0.4 -1.7,-0.7 -2.5,-0.9 -0.7,-0.2 -1.4,-0.3 -2.1,-0.4 -0.7,-0.1 -1.3,0 -2,0.1 -1.1,0.2 -2.2,0.6 -3.2,1.1 -0.7,0.3 -1.3,0.6 -1.9,1 -0.8,0.6 -1.6,1.3 -2.3,2.1 -0.6,0.7 -1.1,1.6 -1.3,2.5 -0.2,0.9 -0.3,1.8 -0.3,2.7 0,0.7 0.2,1.4 0.4,2 l 0,0 c 0.2,0.5 0.5,1 0.8,1.5 0.4,0.7 0.9,1.4 1.5,2.1 l 0,0 c 0.8,0.9 1.6,1.8 2.5,2.5 l 0,0 1.1,0.9 c 0.3,0.2 0.6,0.5 0.8,0.8 l 0,0 c 0.1,0 0.2,0 0.4,-0.1 0.6,-0.2 1.1,-0.4 1.6,-0.8 0.8,-0.6 1.6,-1.2 2.3,-1.9 0.6,-0.6 1.2,-1.2 1.7,-1.9 0.8,-1.1 1.7,-2.1 2.8,-2.9 1,-0.7 2.2,-1.4 3.4,-1.9 0.8,-0.3 1.7,-0.6 2.5,-0.8 l 0.7,-0.2 0,0 0.3,0.2 0,0 0,0 z"
         id="path287"
         inkscape:connector-curvature="0" /><path
         d="m 698.9,488.3 c 0.5,-0.1 1,-0.5 1.1,-1 0.3,-0.6 0.4,-1.3 0.5,-2 0,-0.1 0,-0.2 0,-0.3 0,-0.7 0,-1.4 -0.2,-2.1 -0.1,-0.3 -0.2,-0.6 -0.4,-0.8 -0.1,-0.2 -0.3,-0.4 -0.6,-0.5 -0.3,-0.1 -0.5,-0.1 -0.8,0 -0.3,0.1 -0.6,0.3 -0.8,0.6 -0.3,0.3 -0.5,0.7 -0.7,1.1 -0.2,0.5 -0.3,1 -0.3,1.6 0,0.1 0,0.3 0,0.4 l 0,0 c 0,0.8 0.3,1.7 0.8,2.3 0.3,0.6 0.8,0.8 1.4,0.7 l 0,0 z"
         id="path289"
         inkscape:connector-curvature="0" /><path
         d="m 693.8,488.8 c 0.4,-0.2 0.6,-0.8 0.6,-1.6 -0.1,-0.9 -0.3,-1.9 -0.6,-2.7 l 0,0 c -0.1,-0.2 -0.2,-0.5 -0.3,-0.7 -0.4,-1 -0.8,-2 -1.4,-2.8 -0.2,-0.3 -0.5,-0.6 -0.8,-0.8 -0.2,-0.2 -0.5,-0.3 -0.8,-0.3 -0.3,0.1 -0.5,0.2 -0.7,0.5 -0.2,0.4 -0.3,0.8 -0.4,1.2 -0.1,0.6 -0.1,1.1 0,1.7 0.1,0.7 0.3,1.3 0.5,2 0.1,0.3 0.2,0.5 0.4,0.8 l 0,0 c 0.4,0.9 1.1,1.7 1.8,2.4 0.8,0.3 1.3,0.5 1.7,0.3 l 0,0 z"
         id="path291"
         inkscape:connector-curvature="0" /><path
         class="st30"
         d="m 773.2,532.7 c -0.9,-0.8 -1.9,-4.4 -1.9,-2.6 0,1.8 -0.3,4.6 0.5,5.8 0.7,1 5.2,1.2 5.2,-0.6 0.1,-1.8 -2.8,-1.8 -3.8,-2.6 l 0,0 z"
         id="path293"
         inkscape:connector-curvature="0"
         style="fill:#6e4a25" /><path
         d="m 775.5,523.7 c 2.2,0 3.8,1.6 3.8,5.1 0,3.4 -1.5,7.1 -3.8,7.4 -2.4,0.4 -4.1,-2.6 -4,-6.3 0.1,-3.4 1.8,-6.2 4,-6.2 z"
         id="path295"
         inkscape:connector-curvature="0" /><path
         class="st32"
         d="m 777.5,528.7 c -0.4,0.3 -1.5,-0.9 -2,-1.5 -0.5,-0.6 -0.5,-1.5 -0.1,-1.8 0.4,-0.3 1.1,0 1.6,0.7 0.5,0.7 0.9,2.3 0.5,2.6 l 0,0 z"
         id="path297"
         inkscape:connector-curvature="0"
         style="fill:#ddcebe" /><path
         class="st34"
         d="m 775.6,524.7 c 1.6,0.2 3.1,-0.7 3.5,-2.2"
         id="path299"
         inkscape:connector-curvature="0"
         style="fill:none;stroke:#000000;stroke-width:4" /><path
         class="st28"
         d="m 760.3,542.2 c -1.1,2.3 -5.1,9.6 -6.5,12.5 -0.3,0.7 -5.7,5.9 -6.1,6.6 -8.3,16.8 -11.3,30.9 8,39.3 25.2,0.6 41.4,-28.5 38.4,-46.5 0,0 -1.5,-6.5 -6.3,-9 -3.9,-2 -10.9,-2.8 -26,-3.1"
         id="path301"
         inkscape:connector-curvature="0"
         style="fill:#834317" /><path
         class="st23"
         d="m 750,560.3 c -7.9,15.1 -8.4,32.9 8.5,40.1 -1.5,0.2 -3,0.2 -4.4,0.2 -18.2,-10.3 -12.3,-22.8 -6.4,-38.6 l 2.3,-1.7 z"
         id="path303"
         inkscape:connector-curvature="0"
         style="fill:#b8854f" /><path
         class="st31"
         d="m 793.1,563.2 c -1.2,1.9 -1.6,1.2 -1.8,3.4 -0.2,2.2 -2.3,10.7 -7,15.7 l -0.1,-0.9 5.2,-15 3.7,-3.2 z"
         id="path305"
         inkscape:connector-curvature="0"
         style="fill:#5d381e" /><path
         d="m 789.1,548.8 c 4.2,0 9.7,4.9 7.5,9 -1.5,3 -4.4,8.6 -7.5,9 -3.1,0.4 -5.4,-5.7 -7.5,-9 -2.5,-3.8 3.3,-9 7.5,-9 z"
         id="path307"
         inkscape:connector-curvature="0" /><path
         class="st31"
         d="m 792,549.1 c 0.7,1.3 1.3,2.8 1.7,4.2 3,17.9 -13.2,47.1 -38.4,46.5 -5,-2.2 -8,-5.3 -9.6,-9 2,3.4 5.2,6.1 8.9,7.5 25.2,0.6 41.4,-28.5 38.4,-46.5 -0.3,-0.8 -0.6,-1.8 -1,-2.7 l 0,0 z"
         id="path309"
         inkscape:connector-curvature="0"
         style="fill:#5d381e" /><path
         d="m 759.9,542.3 c -0.9,2 -1.8,4.1 -2.7,6 -0.8,1.8 -1.8,3.6 -2.8,5.4 -1.1,1.7 -2.3,3.3 -3.7,4.8 -1.3,1.4 -2.4,3.1 -3.2,4.8 -0.8,1.8 -1.6,3.7 -2.2,5.6 -0.5,1.6 -0.9,3.3 -1.2,5 -0.3,1.9 -0.5,3.9 -0.5,5.9 0,1.6 0.1,3.1 0.4,4.7 0.3,1.5 0.7,2.9 1.3,4.3 0.5,1.1 1,2.2 1.7,3.2 0.2,0.4 0.5,0.8 0.9,1.2 0.9,1.2 2,2.3 3.1,3.2 1.5,1.1 3.2,2.1 4.9,2.8 1.4,0.1 2.8,0 4.2,-0.1 1.4,-0.1 2.9,-0.4 4.3,-0.8 2.7,-0.7 5.3,-1.7 7.8,-3 1.6,-0.9 3.2,-1.9 4.6,-3 1.3,-1 2.2,-1.8 2.9,-2.4 0.8,-0.7 1.5,-1.5 2.2,-2.3 1,-1.2 2,-2.4 2.9,-3.8 3.2,-4.6 5.5,-9.7 6.8,-15.2 0.3,-1.4 0.6,-2.8 0.8,-4.1 0.2,-1.3 0.3,-2.6 0.4,-3.9 0.1,-2.1 0,-4.2 -0.4,-6.3 l 0,0 0,-0.2 c -0.1,-0.2 -0.1,-0.5 -0.2,-0.7 -0.2,-0.7 -0.5,-1.2 -0.6,-1.7 -0.1,-0.2 -0.2,-0.4 -0.3,-0.6 -0.4,-0.9 -1,-1.8 -1.6,-2.6 -0.7,-1 -1.6,-1.7 -2.7,-2.3 -1.3,-0.7 -2.7,-1.2 -4.1,-1.6 -1.5,-0.4 -3.1,-0.8 -4.7,-1.1 -2.6,-0.5 -5.3,-0.8 -8,-1.1 -2.7,-0.3 -5.2,-0.3 -7.5,-0.4 -1.6,0 -2.2,-0.1 -2,-0.2 0.9,-0.2 1.9,-0.4 2.8,-0.4 1.6,-0.1 3.8,-0.3 6.4,-0.3 2.9,0 5.7,0.1 8.6,0.4 1.6,0.2 3.3,0.4 4.9,0.8 1.7,0.4 3.3,0.9 4.8,1.6 l 0,0 c 1.3,0.6 2.5,1.5 3.5,2.6 0.9,1 1.7,2.1 2.3,3.3 0.5,0.9 0.8,1.8 1.2,2.7 0.1,0.3 0.2,0.6 0.3,0.9 l 0,0 0.1,0.3 0,0 0,0.1 0,0 0,0 c 0.2,1 0.3,2.1 0.3,3.2 0,2.1 -0.1,4.2 -0.5,6.3 -0.4,2.1 -0.9,4.1 -1.5,6.1 -0.9,2.9 -2.1,5.7 -3.6,8.3 -2.3,4.3 -5.2,8.2 -8.6,11.7 -1.3,1.3 -2.5,2.4 -3.5,3.3 -1.6,1.4 -3.4,2.8 -5.2,3.9 -2.4,1.5 -5,2.7 -7.7,3.5 -3.2,1 -6.5,1.5 -9.8,1.5 -1.9,-0.6 -3.8,-1.5 -5.4,-2.6 -1.7,-1.1 -3.2,-2.5 -4.5,-4 l 0,0 c -1.2,-1.5 -2.2,-3.2 -2.9,-5 -0.6,-1.6 -1.1,-3.3 -1.3,-5 -0.3,-2.1 -0.4,-4.1 -0.2,-6.2 0.2,-1.7 0.5,-3.5 0.9,-5.2 0.4,-1.8 1,-3.6 1.6,-5.3 0.7,-1.9 1.6,-3.8 2.5,-5.6 l 0,0 c 1,-1.8 2.3,-3.4 3.7,-4.9 1.4,-1.4 2.7,-2.9 3.9,-4.5 1,-1.5 1.8,-2.9 2.5,-4.3 0.7,-1.3 1.3,-2.5 1.8,-3.5 1,-2 1.6,-3.2 1.6,-3.2 l 0.2,0 z"
         id="path311"
         inkscape:connector-curvature="0" /><path
         class="st33"
         d="m 789.2,565.9 c 0,0 0.3,6.9 -5.6,14.2"
         id="path313"
         inkscape:connector-curvature="0"
         style="fill:none;stroke:#000000;stroke-width:5" /><path
         class="st35"
         d="m 781.3,579.3 c 2,0.6 3.1,2.6 2.5,4.5 -0.5,2.1 -2.2,1.7 -4.1,1.3 -1.9,-0.4 -3.3,-0.9 -2.8,-2.9 0.5,-2 2.5,-3.3 4.4,-2.9 z"
         id="path315"
         inkscape:connector-curvature="0"
         style="stroke:#000000;stroke-width:5" /><path
         class="st36"
         d="m 775,564.8 c 0.7,0 1.2,0.6 1.2,1.3 0,0 0,0 0,0 0,0.7 -0.2,1 -0.9,1 -0.7,0 -1.3,-0.2 -1.3,-1 0,-0.7 0.3,-1.3 1,-1.3 l 0,0 z"
         id="path317"
         inkscape:connector-curvature="0"
         style="fill:#956c45;stroke:#000000;stroke-width:3" /><path
         class="st36"
         d="m 767.4,560.9 c 1.2,0 1.8,1.1 1.8,2.4 0,1.3 -0.5,1.6 -1.7,1.6 -1.2,0 -2.3,-0.4 -2.3,-1.7 0,-1.2 1,-2.3 2.2,-2.3 0,0 0,0 0,0 l 0,0 z"
         id="path319"
         inkscape:connector-curvature="0"
         style="fill:#956c45;stroke:#000000;stroke-width:3" /><path
         class="st36"
         d="m 769.8,569.4 c 0.9,0 1.6,0.8 1.6,1.7 0,0 0,0 0,0 0.1,0.8 -0.5,1.5 -1.3,1.5 -0.1,0 -0.1,0 -0.2,0 -0.7,0.1 -1.4,-0.5 -1.4,-1.2 0,-0.1 0,-0.2 0,-0.3 0,-0.9 0.4,-1.7 1.3,-1.7 l 0,0 z"
         id="path321"
         inkscape:connector-curvature="0"
         style="fill:#956c45;stroke:#000000;stroke-width:3" /><path
         class="st32"
         d="m 788,551.4 c 1.2,0 2.3,0 2.3,1.2 0,1.2 -1.1,1.1 -2.3,1.1 -1.2,0 -4,2.3 -4,1.1 0,-1.2 2.8,-3.4 4,-3.4 l 0,0 z"
         id="path323"
         inkscape:connector-curvature="0"
         style="fill:#ddcebe" /></g><g
       id="g4371"><path
         class="st31"
         d="m 780.4,665.2 0.1,0.1 c 0.2,0.1 0.5,0.2 0.8,0.2 l 1.1,0.3 1.1,0.3 c 0.2,0 0.4,0.1 0.7,0.2 0.2,0.1 0.4,0.2 0.6,0.4 l 0.3,0.3 c 0.1,0.1 0.2,0.2 0.3,0.3 0.6,0.3 1.3,0.7 1.8,1.1 0.2,0.1 0.2,0.1 0.1,0.2 -0.2,0 -0.4,0 -0.5,-0.1 -0.5,-0.1 -1.3,-0.3 -2,-0.5 -0.3,-0.1 -0.6,-0.3 -0.9,-0.5 l -0.4,-0.3 0,0 c -0.1,-0.1 -0.3,-0.2 -0.4,-0.2 l -0.9,-0.5 c -0.6,-0.3 -1.2,-0.6 -1.7,-0.8 -0.1,-0.1 -0.3,-0.1 -0.4,-0.2 -0.9,-0.4 -0.6,-0.8 0.3,-0.3 l 0,0 z"
         id="path326"
         inkscape:connector-curvature="0"
         style="fill:#5d381e" /><path
         d="m 780.5,665 0.1,0.1 c 0.4,0.2 1.4,0.5 2.3,0.8 0.6,0.2 1.2,0.4 1.7,0.7 l 0.8,0.5 1,0.6 c 0.3,0.2 0.6,0.4 0.9,0.6 0.3,0.2 0.1,0.2 0,0.2 -0.2,0 -0.4,-0.1 -0.6,-0.1 l -1,-0.3 c -0.4,-0.1 -0.7,-0.2 -1.1,-0.3 -0.5,-0.1 -1,-0.4 -1.5,-0.6 l -0.9,-0.6 c -0.6,-0.4 -1.3,-0.8 -1.9,-1.1 l -0.4,-0.2 c -0.1,0 -0.2,-0.1 -0.3,-0.1 -0.1,0 -0.1,-0.1 -0.1,-0.1 0,0 0,0 0,-0.1 0,0 0,-0.1 0.1,-0.1 l 0.1,0 c 0.1,0 0.2,0 0.2,0 0.2,-0.1 0.4,-0.1 0.6,0.1 l 0,0 z"
         id="path328"
         inkscape:connector-curvature="0" /><path
         d="m 780.7,668.8 0,0 c 0.5,-0.4 0.9,-0.9 1.3,-1.4 0.3,-0.4 0.6,-0.8 1,-1.2 0.3,-0.3 0.6,-0.6 0.9,-0.9 0.3,-0.3 0.6,-0.7 0.8,-1.1 0.1,-0.2 0.2,-0.1 0.2,0 0.1,0.3 0.1,0.6 0,0.8 -0.1,0.4 -0.2,0.8 -0.4,1.1 -0.2,0.4 -0.4,0.7 -0.8,0.9 l -1,0.7 c -0.7,0.5 -1.3,0.9 -1.7,1.2 -0.1,0.1 -0.2,0.1 -0.2,0.2 -0.1,0.1 -0.1,0.1 -0.2,0.2 -0.1,0 -0.1,0.1 -0.2,0.1 l -0.1,0 c 0,0 -0.1,0 -0.1,-0.1 0,0 0,0 0,0 0,-0.1 0,-0.1 0,-0.1 0.2,-0.2 0.3,-0.3 0.5,-0.4 l 0,0 z"
         id="path330"
         inkscape:connector-curvature="0" /></g><path
       class="st22"
       d="m 782.2,658.1 c -13.8,-2.2 -26.1,12 -25.7,28.9 0.4,17.5 14,32 25.4,29.9 8,-1.5 16,-3.5 19,-14.1 1,-3.6 1.6,-11.9 1.2,-16.6 -1.6,-16.4 -9.2,-26.4 -19.9,-28.1 z"
       id="path332"
       inkscape:connector-curvature="0"
       style="fill:#a06121" /><path
       class="st30"
       d="m 765.4,706.9 c 5.5,10.9 8.2,9.8 17.3,9.5 6.7,-1.2 13.5,-2.8 17.3,-9.7 -3.7,7.3 -10.6,9 -17.5,10.3 -8.4,-1.9 -11.5,-2.3 -17.1,-10.1 l 0,0 z"
       id="path334"
       inkscape:connector-curvature="0"
       style="fill:#6e4a25" /><path
       d="m 766.7,709.7 c 0.8,1.3 1.8,2.5 2.9,3.5 1,0.9 2.2,1.7 3.5,2.2 1.8,0.7 3.7,1 5.6,0.9 2.5,-0.1 4.9,-0.4 7.3,-1 1.9,-0.5 3.7,-1.3 5.4,-2.3 1,-0.6 1.9,-1.3 2.7,-2.1 0.7,-0.7 1.4,-1.4 2,-2.2 0.8,-1.1 1.5,-2.2 2,-3.4 0.4,-1 0.8,-2 1.1,-3 0.2,-0.5 0.3,-1.1 0.4,-1.6 0.1,-0.5 0.2,-1 0.3,-1.6 0.2,-1.2 0.4,-2.7 0.6,-4.3 0.3,-2.8 0.4,-5.6 0.3,-8.4 -0.1,-1.8 -0.4,-3.7 -0.7,-5.4 -0.3,-1.7 -0.7,-3.3 -1.2,-4.9 -0.4,-1.3 -0.9,-2.6 -1.4,-3.9 -0.5,-1.1 -0.9,-2 -1.2,-2.6 -0.7,-1.3 -1.5,-2.5 -2.4,-3.6 -0.9,-1.1 -1.9,-2.1 -2.9,-3 -1.2,-1.1 -2.6,-2 -4,-2.7 l 0,0 c -1.3,-0.6 -2.6,-1.1 -4,-1.4 -1.4,-0.3 -2.8,-0.4 -4.2,-0.4 l 0,0 c -1.5,0.1 -3.1,0.3 -4.5,0.8 -1.2,0.4 -2.4,0.9 -3.5,1.6 -0.8,0.5 -1.7,1 -2.4,1.6 -0.7,0.5 -1.4,1.1 -2.1,1.7 -0.8,0.8 -1.6,1.7 -2.4,2.6 -1,1.3 -1.9,2.6 -2.7,4 -0.8,1.5 -1.5,3.1 -2.1,4.7 -0.6,1.7 -1,3.4 -1.3,5.1 -0.3,1.6 -0.5,3.2 -0.5,4.8 0,0.5 0,1 -0.1,1.5 -0.1,0.2 -0.1,0.1 -0.2,-0.2 -0.3,-1.5 -0.5,-3 -0.4,-4.5 0,-2.8 0.4,-5.5 1,-8.2 0.4,-1.6 1,-3.1 1.6,-4.6 0.7,-1.5 1.5,-3 2.5,-4.4 l 0,0 c 1,-1.5 2.2,-2.9 3.5,-4.1 1.2,-1.1 2.6,-2.1 4,-2.9 0.6,-0.3 1.2,-0.6 1.8,-0.8 2.5,-1 5.2,-1.4 7.8,-1.3 l 0,0 c 1.6,0.1 3.2,0.4 4.8,0.8 1.5,0.5 2.9,1.1 4.3,1.9 1.4,0.9 2.8,1.9 4,3.1 1.1,1.1 2.1,2.2 3,3.5 1.4,1.9 2.6,3.9 3.6,6 0.9,1.8 1.7,3.7 2.4,5.6 0.4,1.3 0.9,2.7 1.3,4.3 0.4,1.6 0.7,3.2 0.9,5 0.2,1.5 0.3,2.9 0.3,4.4 0,1.5 0,3 -0.1,4.5 -0.1,1.5 -0.2,3.1 -0.4,4.5 -0.2,1.2 -0.4,2.5 -0.8,3.7 -0.4,1.4 -1,2.7 -1.7,4 -0.6,1.1 -1.3,2.2 -2.1,3.1 -0.6,0.7 -1.2,1.3 -1.9,1.9 -1.2,1 -2.4,1.8 -3.8,2.5 -1,0.5 -2,0.9 -3,1.2 -1.1,0.4 -2.3,0.7 -3.4,0.9 -2.4,0.4 -4.9,0.6 -7.3,0.5 -1,0 -2.1,-0.2 -3.1,-0.4 -1,-0.2 -1.9,-0.6 -2.8,-1 -1.1,-0.5 -2.1,-1.2 -2.9,-2 -0.7,-0.6 -1.3,-1.3 -1.9,-2.1 -0.4,-0.5 -0.7,-1 -1,-1.6 -0.2,-0.4 -0.3,-0.6 -0.3,-0.6 l -0.2,0.1 z"
       id="path336"
       inkscape:connector-curvature="0" /><path
       class="st28"
       d="m 796.9,710.7 c -1.8,2.5 -4.4,2.6 -6.8,0.4 -3.6,-3.3 -5.5,-11.7 -4.4,-18.4 1.1,-6.7 4.7,-12 8.3,-8.7 3.6,3.3 5.9,13.8 4.7,20.5 -0.4,2.4 -0.9,4.9 -1.8,6.2 l 0,0 z"
       id="path338"
       inkscape:connector-curvature="0"
       style="fill:#834317" /><path
       d="m 797.5,710.6 c -0.4,0.6 -1,1.2 -1.6,1.6 -0.6,0.4 -1.3,0.7 -2.1,0.9 -0.8,0.1 -1.7,0 -2.5,-0.4 -0.7,-0.3 -1.3,-0.7 -1.8,-1.2 -0.6,-0.5 -1.1,-1.1 -1.6,-1.8 -0.4,-0.6 -0.8,-1.1 -1.1,-1.7 -0.4,-0.8 -0.8,-1.7 -1.2,-2.5 -0.3,-0.8 -0.5,-1.5 -0.7,-2.2 -0.3,-1.1 -0.6,-2.1 -0.8,-3.2 -0.2,-0.8 -0.3,-1.6 -0.3,-2.5 -0.1,-0.7 -0.1,-1.5 0,-2.2 0.1,-1 0.2,-2 0.5,-3 0.3,-1.6 0.8,-3.2 1.5,-4.7 0.3,-0.7 0.7,-1.4 1.2,-2.1 0.4,-0.6 0.8,-1.1 1.3,-1.6 0.3,-0.4 0.7,-0.7 1.1,-0.9 0.3,-0.2 0.6,-0.4 1,-0.5 0.3,-0.1 0.6,-0.2 0.9,-0.3 0.5,-0.1 1.1,0 1.6,0.1 0.6,0.2 1.2,0.5 1.7,0.9 0.6,0.5 1.1,1.1 1.6,1.7 0.5,0.7 0.9,1.3 1.3,2.1 0.5,0.9 0.9,1.8 1.3,2.8 0.4,0.9 0.7,1.8 0.9,2.7 0.4,1.1 0.6,2.3 0.7,3.5 0,0.9 0.1,2.2 0.1,3.7 0,1.7 -0.2,3.3 -0.5,4.9 -0.3,0.9 -0.6,1.8 -0.9,2.6 -0.4,0.8 -0.8,1.6 -1.3,2.3 -0.2,0.2 -0.3,0.5 -0.5,0.7 l 0,0 c 0.3,-0.6 0.5,-1.2 0.7,-1.9 0.2,-0.6 0.3,-1.2 0.3,-1.8 0.1,-0.7 0.1,-1.5 0,-2.2 0,-0.9 -0.1,-1.8 -0.2,-2.7 -0.1,-0.9 -0.2,-1.8 -0.3,-2.7 -0.3,-1.8 -0.6,-3.4 -0.7,-4.7 0,-0.3 0,-0.7 -0.1,-1 -0.2,-1.8 -0.6,-3.6 -1.1,-5.3 -0.2,-0.7 -0.5,-1.4 -0.8,-2 -0.3,-0.6 -0.7,-1.1 -1.1,-1.6 -0.3,-0.3 -0.7,-0.6 -1.1,-0.8 -0.4,-0.2 -0.8,-0.2 -1.2,-0.2 -0.3,0 -0.6,0.1 -0.9,0.3 -0.2,0.1 -0.5,0.3 -0.7,0.5 -0.2,0.2 -0.4,0.5 -0.6,0.7 -0.3,0.4 -0.6,0.9 -0.8,1.4 -0.3,0.6 -0.6,1.2 -0.8,1.9 -0.2,0.7 -0.4,1.5 -0.6,2.3 -0.2,0.8 -0.3,1.7 -0.4,2.5 -0.2,1.9 -0.2,3.8 0,5.6 0.2,1.7 0.5,3.2 0.6,4.3 l 0,0.3 c 0.2,1.4 0.5,2.8 0.9,4.2 0.4,1.3 1,2.4 1.8,3.5 0.4,0.5 1,1 1.6,1.3 0.6,0.3 1.2,0.5 1.9,0.5 0.6,0 1.2,-0.2 1.7,-0.4 0.4,-0.2 0.8,-0.4 1.2,-0.7 0.2,-0.2 0.5,-0.4 0.7,-0.6 l 0.2,-0.4 0,0 z"
       id="path340"
       inkscape:connector-curvature="0" /><path
       class="st37"
       d="m 793.1,664.3 c 1,2.1 1.5,4.3 1.6,6.5 0.4,3.9 -0.3,6.6 -1.8,6 -1.5,-0.6 -3.3,-3.7 -3.7,-7.6 -0.4,-3.9 0.9,-7 2.3,-6.5 0.8,0.4 1.3,0.9 1.6,1.6 l 0,0 z"
       id="path342"
       inkscape:connector-curvature="0"
       style="fill:#834317;stroke:#000000;stroke-width:1.99000001" /><path
       class="st37"
       d="m 782.5,664.4 c 0.9,0.6 1.7,2.5 2.3,4.7 1,3.3 1.1,6.5 0.1,7.3 -1,0.8 -2.8,-0.5 -3.9,-3.8 -1.1,-3.3 -0.9,-7.4 0.2,-8.3 0.4,-0.2 1,-0.2 1.3,0.1 l 0,0 z"
       id="path344"
       inkscape:connector-curvature="0"
       style="fill:#834317;stroke:#000000;stroke-width:1.99000001" /><path
       class="st37"
       d="m 776.8,674.3 c 0.8,0.4 1.5,2 2.1,3.8 0.9,2.8 1.1,5.6 0.3,6.5 -0.8,0.9 -2.4,-0.1 -3.4,-2.9 -1,-2.8 -0.9,-6.4 0,-7.3 0.3,-0.3 0.7,-0.4 1,-0.1 z"
       id="path346"
       inkscape:connector-curvature="0"
       style="fill:#834317;stroke:#000000;stroke-width:1.99000001" /><path
       d="m 783.9,660.1 -0.4,0 c -0.4,0 -0.8,0.1 -1.2,0.2 l 0,0 c -2.4,0.5 -4.6,1.8 -6.1,3.8 -0.6,0.7 -1,1.5 -1.4,2.3 -0.4,1 -0.8,2 -1,3 -0.2,0.8 -0.3,1.6 -0.4,2.4 -0.1,0.7 -0.1,1.3 -0.1,1.9 0,0.6 0,1.1 0,1.6 0,0.1 0,0.1 0,0.2 0,1.3 -0.2,3.4 -0.3,5.7 -0.1,2.3 -0.2,4.8 -0.1,6.8 0,1.5 0,2.7 0,3.3 0.1,1.3 0.3,2.6 0.7,3.9 0.5,2 1,3.9 1.7,5.8 0.5,1.5 1.1,2.8 1.5,4 0.4,1.2 0.9,2 1.1,2.5 0.5,1.3 1.2,2.6 2,3.8 0.8,1.3 1.9,2.3 3.1,3.2 1,0.7 2.1,1.1 3.3,1.3 0.5,0.1 0.7,0.2 0.7,0.2 0,0 -0.2,0.2 -0.6,0.3 -0.6,0.1 -1.1,0.1 -1.7,0.1 -0.9,-0.1 -1.7,-0.3 -2.5,-0.6 -0.8,-0.3 -1.5,-0.7 -2.2,-1.2 -0.8,-0.5 -1.4,-1.1 -2.1,-1.8 -0.9,-1 -1.7,-2.1 -2.4,-3.2 -0.6,-1 -1,-2 -1.3,-3.1 -0.4,-1.6 -0.8,-3.2 -1,-4.8 -0.4,-2.3 -0.6,-4.7 -0.8,-6.7 -0.2,-2 -0.3,-3.7 -0.5,-4.8 -0.1,-0.5 -0.2,-1.2 -0.3,-2.1 -0.2,-1.5 -0.5,-3.6 -0.7,-5.8 -0.2,-2.2 -0.3,-4.7 -0.3,-6.8 0,-1.2 0.1,-2.5 0.3,-3.7 0.1,-0.9 0.4,-1.8 0.7,-2.7 0.5,-1.2 1.1,-2.4 1.8,-3.5 0.6,-0.9 1.4,-1.8 2.2,-2.5 0.8,-0.7 1.8,-1.4 2.8,-1.9 0.7,-0.4 1.5,-0.6 2.3,-0.8 0.6,-0.2 1.3,-0.3 1.9,-0.3 0.4,0 0.8,0 1.3,0 l 0,0 0.1,0 -0.1,0 z"
       id="path348"
       inkscape:connector-curvature="0" /><path
       d="m 762.7,667.3 0,0 0,0 -0.4,-0.1 0,0 -1.1,-0.3 c -1.4,-0.3 -2.6,-0.6 -3.7,-0.8 -1.8,-0.3 -3.1,-0.5 -4.2,-0.7 -0.7,-0.1 -1.3,-0.1 -1.8,-0.1 -0.5,0 -0.9,0 -1.3,0 l -0.5,0 c -0.5,0 -1.4,-0.1 -2.5,-0.2 -1.1,-0.1 -2.4,-0.1 -3.8,-0.1 -1.3,0 -2.6,0.1 -3.9,0.3 -0.6,0.1 -1.2,0.2 -1.8,0.4 -0.5,0.2 -0.9,0.4 -1.4,0.7 0.2,-0.3 0.4,-0.5 0.7,-0.7 0.3,-0.2 0.6,-0.5 0.9,-0.7 0.4,-0.2 0.8,-0.5 1.3,-0.7 1.3,-0.5 2.6,-0.9 4,-1.2 1.2,-0.3 2.5,-0.4 3.7,-0.5 1.1,-0.1 2.3,-0.1 3.4,-0.1 0.7,0 1.3,0.1 2,0.2 0.4,0.1 0.8,0.2 1.2,0.3 l 0.2,0.1 c 1,0.4 2.5,1.1 4,1.8 1.3,0.6 2.5,1.2 3.5,1.7 l 1.1,0.5 0.4,0.2 0,0 0,0 0,0 z"
       id="path350"
       inkscape:connector-curvature="0" /><path
       d="m 703.7,669.4 c -1.6,-1 -3,-1.9 -4.2,-2.6 l 0,0 c -0.6,-0.2 -1.2,-0.4 -1.9,-0.5 -0.5,-0.1 -1,-0.1 -1.5,0 -0.7,0.1 -1.3,0.3 -1.8,0.7 -0.4,0.3 -0.7,0.6 -1,1 -0.1,0.2 -0.3,0.4 -0.3,0.7 -0.1,0.2 -0.2,0.4 -0.2,0.7 l -0.1,0.3 c -0.1,0.3 -0.1,0.7 -0.2,1 0,0.4 -0.1,0.9 -0.1,1.3 0,1.1 0.2,2.2 0.5,3.3 0.3,1 0.6,1.9 1,2.9 0.2,0.4 0.3,0.7 0.4,0.9 0.4,0.7 0.9,1.4 1.5,2 0.8,0.9 1.8,1.8 2.8,2.5 0.8,0.6 1.7,1.2 2.7,1.7 0.8,0.4 1.4,0.7 1.7,0.9 0.3,0.2 0.6,0.3 0.9,0.4 l 1.5,0.5 c 0.5,0.2 1.1,0.4 1.6,0.5 0.5,0.1 1.1,0.2 1.6,0.3 0.5,0 1,-0.1 1.4,-0.2 0.1,0 0.2,-0.1 0.3,-0.1 l 0,0 c 0,-0.1 0.1,-0.1 0.2,-0.1 l 0,0 c 0.1,0 0.2,0.1 0.2,0.3 0.1,0.1 0.1,0.2 0,0.4 -0.1,0.2 -0.2,0.3 -0.4,0.5 -0.4,0.3 -0.9,0.6 -1.4,0.8 -0.6,0.2 -1.3,0.4 -1.9,0.4 -0.7,0.1 -1.4,0.1 -2.1,0 -0.7,-0.1 -1.3,-0.2 -2,-0.3 -1.1,-0.2 -2.1,-0.7 -2.9,-1.3 -1.1,-0.9 -2.1,-1.9 -3,-3 -0.9,-1.1 -1.7,-2.4 -2.5,-3.6 -0.7,-1.1 -1.2,-2 -1.6,-2.7 l -0.1,-0.2 c -0.5,-0.8 -1,-1.6 -1.5,-2.4 -0.7,-1.3 -1.1,-2.6 -1.4,-4 -0.2,-1.1 -0.2,-2.2 0,-3.2 0.2,-1.1 0.7,-2 1.4,-2.9 0.5,-0.6 1.2,-1.1 2,-1.4 0.9,-0.3 1.8,-0.5 2.7,-0.4 0.7,0.1 1.4,0.2 2.1,0.5 0.7,0.3 1.3,0.6 1.9,1 2,1.8 3.8,3.5 3.8,3.5 l -0.1,-0.1 z"
       id="path352"
       inkscape:connector-curvature="0" /><path
       d="m 805.1,655.6 c -1.8,-0.2 -3.5,-0.2 -5.3,-0.1 -1.8,0.1 -2.7,0.3 -3.5,0.3 -0.2,0 -0.4,0 -0.6,0 -0.9,-0.1 -1.8,-0.2 -2.7,-0.4 -0.5,-0.1 -1,-0.2 -1.4,-0.4 -0.5,-0.1 -0.9,-0.3 -1.3,-0.4 -0.5,-0.1 -1,-0.2 -1.6,-0.2 -0.5,0 -0.9,0.1 -1.3,0.2 0.2,-0.2 0.5,-0.4 0.7,-0.5 0.7,-0.4 1.4,-0.7 2.2,-0.8 0.5,-0.1 1,-0.1 1.4,-0.1 0.4,0 1,0 1.4,-0.1 0.9,-0.1 1.8,-0.2 2.7,-0.2 1,-0.1 1.9,-0.1 2.9,0.1 l 1.1,0.4 c 2.1,1 5.3,2.3 5.3,2.2 l 0,0 z"
       id="path354"
       inkscape:connector-curvature="0" /></g></svg>
