<?xml version="1.0" encoding="utf-8"?>
<!-- Generator: Adobe Illustrator 20.0.0, SVG Export Plug-In . SVG Version: 6.00 Build 0)  -->
<svg version="1.1"
	 id="svg16054" inkscape:version="0.91 r13725" sodipodi:docname="quiz1.svg" xmlns:cc="http://creativecommons.org/ns#" xmlns:dc="http://purl.org/dc/elements/1.1/" xmlns:inkscape="http://www.inkscape.org/namespaces/inkscape" xmlns:rdf="http://www.w3.org/1999/02/22-rdf-syntax-ns#" xmlns:sodipodi="http://sodipodi.sourceforge.net/DTD/sodipodi-0.dtd" xmlns:svg="http://www.w3.org/2000/svg"
	 xmlns="http://www.w3.org/2000/svg" xmlns:xlink="http://www.w3.org/1999/xlink" x="0px" y="0px" viewBox="0 0 1700.8 949.6"
	 style="enable-background:new 0 0 1700.8 949.6;" xml:space="preserve">
<style type="text/css">
	.st0{fill:#FFFFFF;}
	.st1{fill:#094B60;stroke:#000000;}
	.st2{fill:url(#SVGID_1_);stroke:#000000;}
	.st3{fill:#0C566E;stroke:#000000;}
	.st4{fill:#0B536B;stroke:#000000;}
	.st5{fill:url(#SVGID_2_);stroke:#000000;}
	.st6{fill:url(#SVGID_3_);stroke:#000000;}
	.st7{fill:url(#SVGID_4_);stroke:#000000;}
	.st8{fill:#089BC7;stroke:#000000;}
	.st9{fill:url(#SVGID_5_);stroke:#000000;}
	.st10{fill:url(#SVGID_6_);stroke:#000000;}
	.st11{fill:url(#SVGID_7_);stroke:#000000;}
	.st12{fill:url(#SVGID_8_);stroke:#000000;}
	.st13{fill:none;stroke:#000000;}
	.st14{fill:url(#SVGID_9_);stroke:#000000;stroke-width:1.02;}
	.st15{fill:url(#SVGID_10_);stroke:#000000;}
	.st16{fill:#094F65;}
	.st17{fill:#089BC7;stroke:#000000;stroke-width:1.02;}
	.st18{fill:url(#SVGID_11_);}
	.st19{fill:#A06121;}
	.st20{fill:#B8854F;}
	.st21{fill:#834317;stroke:#000000;stroke-width:1.67;}
	.st22{fill:#834317;stroke:#000000;stroke-width:3.36;}
	.st23{fill:#834317;stroke:#000000;stroke-width:3.78;}
	.st24{fill:#834317;stroke:#000000;stroke-width:2.63;}
	.st25{fill:#834317;}
	.st26{fill:#956C45;stroke:#000000;stroke-width:2.83;}
	.st27{fill:#6E4A25;}
	.st28{fill:#5D381E;}
	.st29{fill:#DDCEBE;}
	.st30{fill:none;stroke:#000000;stroke-width:5;}
	.st31{fill:none;stroke:#000000;stroke-width:4;}
	.st32{stroke:#000000;stroke-width:5;}
	.st33{fill:#956C45;stroke:#000000;stroke-width:3;}
	.st34{fill:#834317;stroke:#000000;stroke-width:1.99;}
</style>
<defs>
	
	<inkscape:path-effect  effect="spiro" id="path-effect5341" is_visible="true"></inkscape:path-effect>
	<inkscape:path-effect  effect="spiro" id="path-effect17606" is_visible="true"></inkscape:path-effect>
	<inkscape:path-effect  effect="spiro" id="path-effect16830" is_visible="true"></inkscape:path-effect>
	<inkscape:path-effect  effect="spiro" id="path-effect16826" is_visible="true"></inkscape:path-effect>
	<inkscape:path-effect  effect="spiro" id="path-effect16822" is_visible="true"></inkscape:path-effect>
	<inkscape:path-effect  effect="spiro" id="path-effect16818" is_visible="true"></inkscape:path-effect>
	<inkscape:path-effect  effect="spiro" id="path-effect16814" is_visible="true"></inkscape:path-effect>
	<inkscape:path-effect  effect="spiro" id="path-effect16810" is_visible="true"></inkscape:path-effect>
	<inkscape:path-effect  effect="spiro" id="path-effect16806" is_visible="true"></inkscape:path-effect>
	<inkscape:path-effect  effect="spiro" id="path-effect16802" is_visible="true"></inkscape:path-effect>
	<inkscape:path-effect  effect="spiro" id="path-effect16798" is_visible="true"></inkscape:path-effect>
	<inkscape:path-effect  effect="spiro" id="path-effect16794" is_visible="true"></inkscape:path-effect>
	<inkscape:path-effect  effect="spiro" id="path-effect16790" is_visible="true"></inkscape:path-effect>
	<inkscape:path-effect  effect="spiro" id="path-effect16786" is_visible="true"></inkscape:path-effect>
	<inkscape:path-effect  effect="spiro" id="path-effect16782" is_visible="true"></inkscape:path-effect>
	<inkscape:path-effect  effect="spiro" id="path-effect16778" is_visible="true"></inkscape:path-effect>
	<inkscape:path-effect  effect="spiro" id="path-effect16774" is_visible="true"></inkscape:path-effect>
</defs>
<sodipodi:namedview  bordercolor="#666666" borderlayer="true" borderopacity="1.0" fit-margin-bottom="0" fit-margin-left="0" fit-margin-right="0" fit-margin-top="0" id="base" inkscape:current-layer="layer3" inkscape:cx="701.87495" inkscape:cy="334.05534" inkscape:document-units="cm" inkscape:pageopacity="0.0" inkscape:pageshadow="2" inkscape:window-height="1056" inkscape:window-maximized="1" inkscape:window-width="1855" inkscape:window-x="1985" inkscape:window-y="24" inkscape:zoom="0.35" pagecolor="#ffffff" showgrid="false" units="cm">
	</sodipodi:namedview>
<g id="layer2" inkscape:groupmode="layer" inkscape:label="background">
	<rect id="rect4177" y="-3.5" class="st0" width="1716.6" height="953.1"/>
</g>
<g>
	<g id="layer1">
		
			<image style="overflow:visible;opacity:0.75;enable-background:new    ;" width="309" height="503" xlink:href="3F8552F7.png"  transform="matrix(0.9968 0 0 0.998 695 223)">
		</image>
		<g id="g4378">
			<polygon class="st1" points="818.2,513.6 922.4,523.2 923.8,531.4 817.7,521.8 			"/>
			
				<linearGradient id="SVGID_1_" gradientUnits="userSpaceOnUse" x1="1297.2297" y1="773.6818" x2="1324.9598" y2="776.9118" gradientTransform="matrix(1 0 0 1 -600.88 -192.22)">
				<stop  offset="0" style="stop-color:#114F5F"/>
				<stop  offset="0.49" style="stop-color:#1FB3D8"/>
				<stop  offset="1" style="stop-color:#0A3A47"/>
			</linearGradient>
			<polyline class="st2" points="707.2,683.5 696.5,679.7 705.5,581 717.3,484 730.5,484.6 727.4,548.4 719.8,609 711,681.6 			"/>
			<polygon class="st3" points="795,633.7 805.1,635.5 813.3,568.6 817.7,523.8 818.3,493.5 805.1,493.5 799.4,561.7 796.8,614.1 
							"/>
			<polygon class="st4" points="922.2,481 919.1,486.8 928.9,572.1 936.3,616.5 943.6,652.4 954.4,653.3 953.5,641.3 945.9,576.1 
				936.5,516.3 929.8,481 			"/>
			
				<linearGradient id="SVGID_2_" gradientUnits="userSpaceOnUse" x1="1400.3461" y1="796.7095" x2="1402.6261" y2="777.3195" gradientTransform="matrix(1 0 0 1 -600.88 -192.22)">
				<stop  offset="0" style="stop-color:#114F5F"/>
				<stop  offset="0.49" style="stop-color:#1FB3D8"/>
				<stop  offset="1" style="stop-color:#0A3A47"/>
			</linearGradient>
			<path class="st5" d="M724,580.3c0,0-4.6,2-4.9,4.7c-0.4,3.1,2.7,4.9,2.7,4.9l159.8,19.4l-0.2-10l-123.2-14.1L724,580.3z"/>
			
				<linearGradient id="SVGID_3_" gradientUnits="userSpaceOnUse" x1="1401.1271" y1="748.0097" x2="1403.317" y2="725.3697" gradientTransform="matrix(1 0 0 1 -600.88 -192.22)">
				<stop  offset="0" style="stop-color:#114F5F"/>
				<stop  offset="0.49" style="stop-color:#1FB3D8"/>
				<stop  offset="1" style="stop-color:#0A3A47"/>
			</linearGradient>
			<path class="st6" d="M729.1,529.4c0,0-5.1,1.1-5.1,5.1c-0.1,2.2,1.3,4.3,3.3,5.1l151.4,15.2l-0.5-10L730,529.7L729.1,529.4z"/>
			<polygon class="st4" points="814.6,558 928.9,570.7 930.5,579.2 813.7,566 			"/>
			
				<linearGradient id="SVGID_4_" gradientUnits="userSpaceOnUse" x1="1478.0701" y1="792.9606" x2="1505.3401" y2="791.0206" gradientTransform="matrix(1 0 0 1 -600.88 -192.22)">
				<stop  offset="0" style="stop-color:#114F5F"/>
				<stop  offset="0.49" style="stop-color:#1FB3D8"/>
				<stop  offset="1" style="stop-color:#0A3A47"/>
			</linearGradient>
			<polygon class="st7" points="904.2,705 892.2,706.3 881.8,617 877.7,531.4 877.7,494.1 888.4,494.1 894.7,531.4 899.1,593.9 
				902.9,667.8 			"/>
			<path class="st8" d="M810.1,250.5c0,0,62.1,4.9,75.3,5.8c13.2,0.8,80.6-0.4,80.6-0.4l-6,34.6c0,0-67.3,0.6-75.3,0
				s-75.5-6.2-75.5-6.2l-0.6-34.1L810.1,250.5z"/>
			<path class="st8" d="M708.5,466v16.1c5.1,1.8,10.4,3.1,15.8,4.1c6.6,1,86.8,10.7,90,10.7s48.6,0.6,53,0.6s24.3-1.6,28.1-1.6
				s49.3-16.7,49.3-16.7l0.3-4.1l-0.7-12.7l-4.1-1.6l-115.5-8.2l-12.3-1l-20.5,0.6l-52.4,7l-26.8,4.7L708.5,466z"/>
			
				<linearGradient id="SVGID_5_" gradientUnits="userSpaceOnUse" x1="1434.7001" y1="562.9386" x2="1446.62" y2="563.2586" gradientTransform="matrix(1 0 0 1 -600.88 -192.22)">
				<stop  offset="0" style="stop-color:#114F5F"/>
				<stop  offset="0.49" style="stop-color:#1FB3D8"/>
				<stop  offset="1" style="stop-color:#0A3A47"/>
			</linearGradient>
			<path class="st9" d="M834.2,454.1c0,0,1.2-76.5,1.2-88.9s3.8-79.4,3.8-79.4l4.9,0.5c0,0-1.2,82.5-1.2,97.4s-2,71.1-2,71.1
				c-1,0.5-2.2,0.8-3.3,0.9C836.3,455.4,835.2,454.9,834.2,454.1L834.2,454.1z"/>
			
				<linearGradient id="SVGID_6_" gradientUnits="userSpaceOnUse" x1="1458.8206" y1="565.0436" x2="1474.5405" y2="566.3336" gradientTransform="matrix(1 0 0 1 -600.88 -192.22)">
				<stop  offset="0" style="stop-color:#114F5F"/>
				<stop  offset="0.49" style="stop-color:#1FB3D8"/>
				<stop  offset="1" style="stop-color:#0A3A47"/>
			</linearGradient>
			<path class="st10" d="M856,456.2c0,0,3.7-63,5.3-77.8s8.8-89.6,8.8-89.6l5,0.5l-0.3,3.5c0,0-4.5,87.2-6.6,111.1
				s-4.9,53.5-4.9,53.5c-1.4,0.4-2.8,0.6-4.3,0.5C858,457.5,856.9,456.9,856,456.2L856,456.2z"/>
			
				<linearGradient id="SVGID_7_" gradientUnits="userSpaceOnUse" x1="1486.7266" y1="566.0388" x2="1500.0966" y2="567.6487" gradientTransform="matrix(1 0 0 1 -600.88 -192.22)">
				<stop  offset="0" style="stop-color:#114F5F"/>
				<stop  offset="0.49" style="stop-color:#1FB3D8"/>
				<stop  offset="1" style="stop-color:#0A3A47"/>
			</linearGradient>
			<path class="st11" d="M882.5,459.5c-2.4-0.5-3-1.5-3-1.5s5.7-55.3,6.9-65.9S900,289.8,900,289.8l4.4,0.2c0,0-8.9,89.7-11.4,112.3
				s-6.5,56.4-6.5,56.4C885.4,459.5,883.9,459.8,882.5,459.5L882.5,459.5z"/>
			
				<linearGradient id="SVGID_8_" gradientUnits="userSpaceOnUse" x1="1514.0667" y1="566.8834" x2="1527.4366" y2="568.7934" gradientTransform="matrix(1 0 0 1 -600.88 -192.22)">
				<stop  offset="0" style="stop-color:#114F5F"/>
				<stop  offset="0.49" style="stop-color:#1FB3D8"/>
				<stop  offset="1" style="stop-color:#0A3A47"/>
			</linearGradient>
			<path class="st12" d="M906.6,461.9c-1.1-0.6-2.1-1.3-3.1-2.1c0,0,7.2-53,9.3-64.1s17-106.2,17-106.2l4.3-0.1
				c0,0-12.8,101.7-14.8,119.8s-7.7,52.1-7.7,52.1S908.1,462.6,906.6,461.9L906.6,461.9z"/>
			<path class="st13" d="M708.8,466.3c0,0,27.2,8.2,36.3,8.2s79.2,6.6,84.6,6.6s59.7,0.3,59.7,0.3s7-0.6,12-1s39.8-13.2,41.7-14.8
				s1.2-2.9,1.2-2.9"/>
			
				<linearGradient id="SVGID_9_" gradientUnits="userSpaceOnUse" x1="1547.0992" y1="537.0133" x2="1563.5592" y2="540.6733" gradientTransform="matrix(1 0 0 1 -600.88 -192.22)">
				<stop  offset="0" style="stop-color:#06485C"/>
				<stop  offset="0.47" style="stop-color:#089BC7"/>
				<stop  offset="1" style="stop-color:#046480"/>
			</linearGradient>
			<path class="st14" d="M927.3,461.7c0,0,11.8-71.6,12-73s2.7-6.1,2.7-6.1c-0.8-1.4-1.2-2.9-1.1-4.5c0.2-1.4,1.1-2.6,2.3-3.2
				c0,0-2.1-6-0.9-10.5s13.8-55.9,14.3-58.6c0.5-2.7-0.4-6.9-0.2-8.3c0.1-0.8,0.8-1.4,1.6-1.5c0,0-1.4-2-1.2-3.3s2-2.3,2-2.3
				s1.7-12.1,2.7-18.1c1.1-6,4.8-18.4,4.8-18.4s-1.3-1-0.1-4.3s2.4-5.4,2.8-6.3s-0.7-3.4-0.7-3.4s-3.3-13,9.7-10.6
				c13.2,2.5,1.9,13.1,1.4,14.1c-1.9,3.6,1.6,3.7,0.9,9.6c-0.3,2.1-2.6,3.9-2.6,3.9l-1.7,18.3l-4.7,18c0,0,1.3,0.2,1,2.3
				c-0.2,1.1-0.7,2.2-1.5,3c0.1,1.1,0,2.2-0.3,3.3c-0.4,1.4-2.7,1.1-3,2.9s-9.5,62.7-10.1,64.9s-3.9,7.3-3.9,7.3
				c1.2,0.8,1.7,2.3,1.4,3.7c-0.3,1.6-1.1,3.1-2.3,4.2c0,0-1.5,17.6-2.2,21l-12.6,57.7c0,0-3.9,1-5.6,0.7S927.3,461.7,927.3,461.7
				L927.3,461.7z"/>
			
				<linearGradient id="SVGID_10_" gradientUnits="userSpaceOnUse" x1="1395.451" y1="531.6083" x2="1414.8611" y2="532.2582" gradientTransform="matrix(1 0 0 1 -600.88 -192.22)">
				<stop  offset="0" style="stop-color:#06485C"/>
				<stop  offset="0.47" style="stop-color:#089BC7"/>
				<stop  offset="1" style="stop-color:#046480"/>
			</linearGradient>
			<path class="st15" d="M796,454.2c0,0,0.3-71.9,0.3-73.2s1.8-6.7,1.8-6.7s-2.7-1.3-2.2-3.6s3.1-4,3.1-4s-4.5-4.5-4-8.9
				s4.5-54,4.5-56.7c0-2.7-2.2-5.8-2.2-7.1s1.8-4,1.8-4s-2.2-1.9-2.2-3.1s1.9-2.4,1.9-2.4l0.8-35.5c0,0-2.7-0.7-2-4s3.8-6.3,4-7.1
				s-2.5-2-2.5-2s-6.9-13.2,6.5-12.1s4.8,12.3,4.5,13.4c-1.2,3.8,1.6,2.9,1.9,8.6c0.1,2-1.9,4.1-1.9,4.1v35.5c0,0,2.4,0.6,2.4,2.6
				c0,1.2-0.8,2.2-1.9,2.5c0.7,0.9,1.2,2,1.3,3.2c0,1.3-2.2,2-2.2,3.8s1.6,60.3,1.3,62.5s-2.7,7.6-2.7,7.6s2.5,1.6,2.5,4
				c-0.1,1.5-0.9,3-2.2,3.8c0,0,1.8,16.8,1.7,20.1c-0.3,7.4-3.3,58.7-3.3,58.7s-3.5,1.8-5.4,1.9S796,454.1,796,454.2L796,454.2z"/>
			<path class="st16" d="M809.9,282.8c0,0,66.3,6.4,76.1,6.4s72.9-0.5,72.9-0.5l-0.7,1.6c0,0-66.8,0.9-74.1,0.5
				c-7.3-0.5-74.3-6.2-74.3-6.2V282.8z"/>
			<path class="st17" d="M969.1,240.8c3.6-0.5,7.2,0.1,10.5,1.7"/>
			<path class="st17" d="M966.2,253.3c0,0,8.3-0.5,12.1,2.8"/>
			<path class="st17" d="M958,295.7c0,0,5.4-1.3,12.5,2.2"/>
			<path class="st17" d="M956.8,301.5c0,0,7.3-2,11.8,1.7"/>
			<path class="st17" d="M943.6,374.7c0,0,8.1-0.4,10.9,1.9"/>
			<path class="st17" d="M942.3,382.4c0,0,6.1-0.3,10.7,2.5"/>
			<path class="st8" d="M801.1,237c0,0,3.2-1.5,8.5,0.1"/>
			<path class="st8" d="M799.3,248.7c0,0,6.8-2,11,0.4"/>
			<path class="st8" d="M799.1,289.6c0,0,4.2-1.7,11.8,0.4"/>
			<path class="st8" d="M797.9,295.1c0,0,7.7-2.4,12.8,0.2"/>
			<path class="st8" d="M798.9,366.6c0,0,5.8-1.2,8.9,0.5"/>
			<path class="st8" d="M798.1,374.3c0,0,5.9-1.5,10.9,0.3"/>
			
				<linearGradient id="SVGID_11_" gradientUnits="userSpaceOnUse" x1="1535.8584" y1="666.7051" x2="1443.3884" y2="696.4551" gradientTransform="matrix(1 0 0 1 -600.88 -192.22)">
				<stop  offset="0" style="stop-color:#06627E"/>
				<stop  offset="1" style="stop-color:#089BC7;stop-opacity:0"/>
			</linearGradient>
			<path class="st18" d="M885.2,481.7l0.7,14.1l11.1-0.4l24.6-8.2l22.8-8.3l0.3-6.4l-0.5-7.1l-18.9,7.8c0,0-19.3,6.8-25.1,7.7
				C895.1,481.6,890.2,481.9,885.2,481.7L885.2,481.7z"/>
		</g>
	</g>
	
		<image style="overflow:visible;opacity:0.75;enable-background:new    ;" width="183" height="258" xlink:href="3F8552F5.png"  transform="matrix(0.9945 0 0 0.9961 710 461)">
	</image>
	<g id="g5420">
		<path d="M739.1,613c0,0.2,0,0.4-0.1,0.5c-0.1,0.2-0.3,0.3-0.5,0.4c-0.3,0.1-0.6,0.2-0.9,0.2c-0.3,0-0.7,0-1,0
			c-0.8-0.1-1.6-0.3-2.3-0.5c-0.2-0.1-0.5-0.2-0.7-0.3c-0.8-0.4-1.6-0.9-2.2-1.6c-0.2-0.3-0.4-0.5-0.5-0.9c0-0.1-0.1-0.3-0.1-0.4
			c0-0.1,0-0.1,0-0.2l0,0l0.1-0.2l0,0l0,0l0,0l0.1-0.1l0.1-0.1c0.1-0.1,0.2-0.2,0.3-0.2c0.3-0.1,0.7-0.2,1-0.2
			c0.9,0,1.7,0.2,2.6,0.5l0.6,0.2c0.7,0.3,1.3,0.6,1.9,0.9c0.3,0.1,0.5,0.3,0.7,0.5c0.2,0.1,0.3,0.3,0.5,0.5
			c0.1,0.1,0.2,0.3,0.3,0.5C739,612.7,739.1,612.8,739.1,613L739.1,613z"/>
		<path d="M739.5,607.3c0,0.2,0,0.4-0.1,0.5c-0.1,0.2-0.2,0.3-0.4,0.5c-0.4,0.3-0.9,0.5-1.4,0.6c-0.6,0.1-1.2,0.1-1.7,0.1
			c-0.2,0-0.4-0.1-0.6-0.1c-1.5-0.4-2.6-1.3-2.4-2.2l0,0c0.2-0.9,1.4-1.5,3-1.4h0.6c0.5,0.1,1,0.2,1.5,0.4c0.4,0.1,0.8,0.4,1.1,0.7
			c0.1,0.1,0.2,0.3,0.3,0.4C739.5,606.9,739.5,607.1,739.5,607.3L739.5,607.3z"/>
		<path d="M738.7,621.2c0.1,0.5-0.1,1.1-0.5,1.5c-0.5,0.5-1.2,0.8-1.9,0.9c-0.5,0.1-1,0-1.5-0.1c-0.4-0.1-0.8-0.3-1.1-0.7
			c-0.1-0.1-0.2-0.3-0.3-0.5c0-0.1-0.1-0.3-0.1-0.5l0,0l0,0c0-0.2,0.1-0.3,0.1-0.5c0.1-0.2,0.1-0.3,0.2-0.4c0.2-0.3,0.5-0.6,0.9-0.7
			c0.4-0.2,0.8-0.3,1.2-0.4c0.6-0.1,1.3,0,1.8,0.2C738.1,620.3,738.5,620.7,738.7,621.2L738.7,621.2z"/>
		<path class="st19" d="M794.5,582.7c-1.6-1-2.8-0.5-4.4-0.3s-3.3,2.2-4,2.4h-0.3c-4,4.1-9,7.1-14.5,8.9c-14.4,4.9-25.2,0.7-36,14
			c-2,2.5-0.3,12.1,2.7,16.9c3.7,6,13.4,6.5,22.5,3.2c11.5-4.1,26.4-17.1,33-25.9c0.2-0.6,0.4-1.1,0.8-1.5c0.8-1.1,1.5-2.4,2-3.7
			c0.6-1.4,2-4.7,2.1-6.2c0-1.6-0.3-3.3-0.8-4.8C797,584.2,796.1,583.7,794.5,582.7L794.5,582.7z"/>
		<path class="st20" d="M798.4,588.7c-0.5,1-1,2-1.5,3c-0.7,1.3-1.4,2.5-2.2,3.8c-0.8,1.3-1.7,2.5-2.7,3.7c-0.8,1-1.8,2-2.8,3.1
			s-3.2,2.5-4.4,3.8s-2.6,2.6-4,3.8s-2.9,2.5-4.4,3.8s-3,2.4-4.6,3.6s-3.2,2.2-4.7,3.2s-3.1,1.9-4.7,2.6c-1.5,0.8-3,1.4-4.5,2
			c-1.1,0.4-2.3,0.8-3.4,1c-1.1,0.3-2.3,0.5-3.4,0.7c-1.1,0.2-2.2,0.3-3.3,0.3c-1,0-2.1,0-3.1-0.1c-1-0.1-1.9-0.3-2.9-0.6
			c-0.9-0.2-1.7-0.6-2.6-1c-0.4-0.2-0.7-0.5-1.1-0.7v0.1c3.7,6,13.4,6.5,22.5,3.2c11.5-4.1,26.4-17.1,33-25.9
			c0.2-0.6,0.4-1.1,0.8-1.5c0.8-1.1,1.5-2.4,2-3.7c0.6-1.4,2-4.7,2.1-6.2C798.4,589.9,798.4,589.3,798.4,588.7L798.4,588.7z"/>
		<path d="M798,586.1c0.1,1.3,0.2,2.5,0.3,3.7c-0.3,2.1-1,4.2-2,6.1c-1,1.8-2.1,3.5-3.3,5.1c-1,1.4-2.1,2.7-3.1,3.8
			s-2.1,2.3-3.1,3.3c-2.7,2.6-5.5,5.1-8.5,7.4c-3,2.4-6.2,4.5-9.5,6.4c-2,1.2-3.7,2-5.3,2.8c-1,0.5-2.3,1-3.8,1.6
			c-1.9,0.7-3.9,1.3-5.9,1.7c-2.3,0.5-4.6,0.6-6.9,0.4l0,0c-1.8-0.1-3.5-0.6-5.1-1.3c-1.4-0.7-2.6-1.7-3.5-3c-0.8-1.3-1.5-2.6-2-4.1
			l0,0c-0.6-1.6-1-3.2-1.4-4.8c-0.1-0.5-0.2-0.9-0.2-1.3c-0.2-1-0.2-2.1-0.1-3.1c0-0.6,0.1-1.1,0.3-1.6c0.1-0.4,0.3-0.7,0.5-1
			c1.1-1.3,2.3-2.5,3.6-3.6c1.4-1.2,3-2.3,4.7-3.2l0,0c1.3-0.7,2.7-1.2,4.1-1.7c1.4-0.4,2.9-0.8,4.3-1c1.6-0.3,3.3-0.5,4.8-0.7
			s3.1-0.4,4.4-0.6c1.6-0.2,3-0.5,4.3-0.7s2.2-0.5,2.9-0.7c0.9-0.3,2.1-0.6,3.4-1.1c2.4-0.8,4.7-1.9,6.9-3.1
			c1.5-0.8,2.9-1.8,4.1-2.9c1-0.9,2-1.8,2.9-2.7l0,0c1.1-1,2.3-1.9,3.5-2.7c1-0.7,2.2-1,3.4-1c0.8,0,1.7,0.3,2.3,0.8l1.1,1.3
			c0.8,1,1.3,1.4,1.3,1.3l0,0c1.1-0.7,1.1-0.7,0,0l0,0c0.1-0.1-0.6-1.2-1.9-3.2c-0.4-0.3-0.8-0.6-1.2-0.8c-0.5-0.3-1-0.5-1.6-0.6
			c-0.7-0.1-1.4-0.1-2.1,0.1c-0.8,0.2-1.5,0.4-2.2,0.8c-1.4,0.7-2.7,1.6-4,2.6c-1,0.8-2,1.7-3.1,2.4c-1.2,0.9-2.5,1.7-3.9,2.3
			c-2.2,1-4.4,1.8-6.7,2.5c-3.3,1-6.4,1.7-9,2.2l-1,0.2c-3,0.6-6.1,1.1-9.3,1.9c-3.1,0.7-6,1.9-8.8,3.5c-1.7,1-3.2,2.2-4.7,3.6
			c-1.3,1.2-2.5,2.6-3.6,4c-0.3,0.4-0.5,0.9-0.6,1.4c-0.2,0.6-0.2,1.2-0.3,1.8c0,1.6,0.1,3.1,0.3,4.6c0.1,0.6,0.2,1.2,0.3,1.7
			c0.2,1.1,0.5,2.3,0.8,3.4c0.5,1.6,1.1,3.1,1.9,4.5l0,0c0.5,0.8,1,1.5,1.7,2.1c0.7,0.7,1.5,1.3,2.3,1.7c1.8,1,3.7,1.6,5.7,1.8
			c2.3,0.3,4.7,0.3,7.1,0c2.4-0.3,4.7-0.9,6.9-1.6l0,0c3.4-1.2,6.6-2.7,9.6-4.6c2.5-1.5,4.9-3.2,7.1-5c0.7-0.6,1.5-1.3,2.3-2
			c2.9-2.6,5.6-5.3,8.1-8.1l0,0c2.2-2.4,4.2-4.9,6-7.6c0.7-1.1,1.4-2.2,2-3.3c0.6-1,1.1-2.1,1.5-3.1c0.4-0.9,0.7-1.9,0.9-2.9
			c0.2-0.8,0.3-1.6,0.4-2.5c-0.3-2.3-0.5-3.8-0.5-3.8L798,586.1z"/>
		<path class="st21" d="M743.6,614.8c0.1,1.4,1.2,2.5,2.6,2.4c0.3-0.1,0.7,0.2,0.7,0.5c0,0,0,0,0,0c0.1,1.9,1.7,3.3,3.5,3.2
			c0,0,0,0,0,0c1.9-0.1,3.9-1.8,3.2-3.5c-1.2-2.9-0.7-4.2-0.3-6.6c0.2-1.8-1.7-3.3-3.5-3.2c-1.8,0.1-3.3,1.7-3.2,3.5c0,0,0,0,0,0
			c0,0.4,0.1,0.7-0.6,0.9C744.6,612.2,743.6,613.4,743.6,614.8L743.6,614.8z"/>
		
			<ellipse transform="matrix(0.9986 -5.285883e-02 5.285883e-02 0.9986 -31.7123 40.1423)" class="st22" cx="743" cy="619.6" rx="2.1" ry="2.1"/>
		
			<ellipse transform="matrix(0.9986 -5.285883e-02 5.285883e-02 0.9986 -31.386 39.9948)" class="st23" cx="740.4" cy="613.4" rx="1.9" ry="1.9"/>
		
			<ellipse transform="matrix(0.9986 -5.285883e-02 5.285883e-02 0.9986 -31.1018 40.1701)" class="st24" cx="743.9" cy="608.1" rx="2.1" ry="2.1"/>
	</g>
	<path class="st19" d="M739.9,637.1c0,0,4.1,9,4.5,13.7s-4.9,12-5.6,14.8s-7.5,12.9-7.5,12.9l18-0.2l8.8-33l-2.1-9.4
		c-1.1-0.1-2.3-0.3-3.4-0.6c-2.3-0.6-7.5-0.2-9,0.6C742.5,636.5,741.2,636.9,739.9,637.1L739.9,637.1z"/>
	<path d="M727.4,679.7c1.3,0,2.5,0,3.8,0.1c1,0.1,2,0.3,3,0.5c0.3,0.1,0.6,0.1,0.9,0.2c0.5,0,0.9,0,1.4-0.1c1-0.2,2.3-0.5,3.5-0.8
		s2.4-0.7,3.1-0.9c0,0-0.9-0.2-2.3-0.4c-1.3-0.2-3-0.3-4.5-0.4c-0.8-0.1-1.5-0.2-2.1-0.2c-0.4,0-0.8,0-1.1,0.1l-1.9,0.7
		C729.5,678.9,727.4,679.7,727.4,679.7L727.4,679.7z"/>
	<path class="st19" d="M723.1,630.5c11.6-1.8,21.9,10.1,21.6,24.3c-0.3,14.8-11.8,26.9-21.3,25.1c-6.7-1.2-13.5-2.9-16-11.9
		c-1-4.6-1.3-9.3-1-14C707.6,640.3,714,631.9,723.1,630.5L723.1,630.5z"/>
	<path d="M736,673.8c-0.7,1.1-1.5,2.1-2.4,2.9c-0.9,0.8-1.8,1.4-2.9,1.8c-1.5,0.6-3.1,0.8-4.6,0.8c-2.1-0.1-4.1-0.4-6.1-0.9
		c-1.6-0.4-3.1-1.1-4.5-1.9c-0.8-0.5-1.6-1.1-2.3-1.7c-0.6-0.6-1.1-1.2-1.6-1.8c-0.6-0.9-1.2-1.8-1.6-2.8c-0.4-0.8-0.7-1.6-0.9-2.5
		c-0.1-0.4-0.2-0.9-0.3-1.3s-0.2-0.8-0.3-1.4c-0.2-1-0.3-2.2-0.5-3.6c-0.3-2.3-0.4-4.7-0.3-7c0.1-1.5,0.3-3.1,0.5-4.5
		c0.2-1.4,0.6-2.8,0.9-4.1c0.3-1.1,0.7-2.2,1.1-3.3c0.4-0.9,0.7-1.7,1-2.2c0.6-1.1,1.2-2.1,2-3c0.7-0.9,1.6-1.8,2.5-2.5
		c1-0.9,2.1-1.6,3.3-2.2c1.1-0.5,2.2-0.9,3.3-1.2c1.1-0.2,2.3-0.3,3.5-0.3c1.3,0.1,2.5,0.3,3.8,0.7c1,0.3,2,0.8,2.9,1.3
		c0.9,0.5,1.6,1,2,1.3c0.6,0.4,1.2,0.9,1.7,1.4c0.7,0.7,1.4,1.4,2,2.1c0.8,1,1.6,2.2,2.2,3.3c0.7,1.3,1.3,2.6,1.8,4
		c0.5,1.4,0.8,2.8,1.1,4.3c0.2,1.3,0.4,2.7,0.4,4c0,0.4,0,0.8,0.1,1.3c0,0.2,0.1,0.1,0.2-0.2c0.3-1.2,0.5-2.5,0.5-3.8
		c0-2.3-0.2-4.6-0.8-6.9c-0.3-1.3-0.8-2.7-1.3-3.9c-0.6-1.3-1.2-2.6-2-3.8l0,0c-0.9-1.3-1.9-2.5-3-3.5c-1-1-2.2-1.8-3.4-2.4
		c-0.5-0.3-1-0.5-1.5-0.7c-4.7-1.8-10-1.3-14.3,1.3c-2.3,1.5-4.3,3.4-5.9,5.6c-1.1,1.6-2.1,3.3-3,5c-0.8,1.5-1.5,3.1-2.1,4.7
		c-0.4,1.1-0.8,2.3-1.1,3.6c-0.3,1.3-0.6,2.7-0.8,4.2c-0.3,2.5-0.4,5-0.2,7.5c0.1,1.3,0.2,2.6,0.4,3.8c0.1,1.1,0.3,2.1,0.6,3.1
		c0.4,1.2,0.8,2.3,1.4,3.4c0.5,0.9,1.1,1.8,1.7,2.6c0.5,0.6,1,1.1,1.6,1.6c1,0.8,2.1,1.5,3.3,2.1c1.7,0.8,3.6,1.4,5.5,1.7
		c2,0.3,4.1,0.4,6.2,0.3c1.7-0.1,3.4-0.5,4.9-1.2c0.9-0.4,1.7-1,2.4-1.7c0.6-0.5,1.1-1.1,1.6-1.8c0.3-0.4,0.6-0.9,0.8-1.3
		C735.9,673.9,736,673.8,736,673.8L736,673.8z"/>
	<path class="st25" d="M710.8,674.7c1.5,2.1,3.7,2.2,5.7,0.4c3-2.8,4.7-9.8,3.7-15.5s-4-10.1-7-7.3s-4.9,11.6-3.9,17.3
		C709.4,671.3,709.9,673.1,710.8,674.7L710.8,674.7z"/>
	<path d="M710.1,674.7c0.4,0.6,0.9,1,1.4,1.4c0.5,0.4,1.2,0.6,1.8,0.8c0.7,0.1,1.5-0.1,2.2-0.3c0.6-0.2,1.1-0.6,1.6-1
		c0.6-0.6,1.2-1.2,1.6-1.9c0.4-0.6,0.8-1.2,1.1-1.9c0.5-1,0.9-2.1,1.2-3.2c0.3-0.9,0.5-1.8,0.7-2.8c0.1-0.7,0.2-1.4,0.3-2.1
		c0-0.6,0-1.3,0-1.9c-0.1-0.9-0.2-1.7-0.4-2.5c-0.3-1.4-0.7-2.7-1.3-4c-0.3-0.6-0.6-1.2-1-1.8c-0.3-0.5-0.7-1-1.1-1.4
		c-0.3-0.3-0.6-0.6-1-0.8c-0.3-0.2-0.5-0.3-0.8-0.4c-0.3-0.1-0.5-0.2-0.8-0.2c-0.5-0.1-0.9,0-1.4,0.1c-0.5,0.2-1,0.4-1.5,0.8
		c-0.5,0.4-1,0.9-1.4,1.4c-0.4,0.6-0.8,1.1-1.1,1.8c-0.8,1.5-1.4,3-1.9,4.6c-0.3,1-0.5,2-0.6,3c0,0.7-0.1,1.8,0,3.1
		c0,1.4,0.2,2.8,0.5,4.2c0.2,0.7,0.5,1.5,0.8,2.2c0.3,0.7,0.7,1.4,1.1,2c0.1,0.2,0.3,0.4,0.5,0.5l0,0h0.1c-0.2-0.5-0.4-1.1-0.6-1.6
		c-0.1-0.5-0.2-1-0.2-1.5c0-0.6,0-1.2,0.1-1.8c0-0.7,0.1-1.5,0.2-2.3s0.2-1.5,0.4-2.3c0.3-1.5,0.5-2.8,0.6-3.9c0-0.3,0-0.6,0.1-0.8
		c0.1-1.5,0.4-3,0.8-4.4c0.2-0.6,0.4-1.1,0.7-1.7c0.2-0.5,0.5-1,0.9-1.4c0.3-0.3,0.6-0.5,0.9-0.7c0.3-0.1,0.6-0.2,0.9-0.2
		c0.3,0,0.5,0.1,0.7,0.2c0.2,0.1,0.4,0.3,0.5,0.4c0.2,0.2,0.3,0.4,0.5,0.6c0.3,0.4,0.5,0.7,0.7,1.2c0.2,0.5,0.4,1,0.6,1.6
		c0.4,1.3,0.6,2.6,0.7,4c0.2,1.6,0.2,3.1,0,4.7c-0.2,1.4-0.4,2.7-0.5,3.5v0.3c-0.1,1-0.3,2-0.5,3c-0.2,0.6-0.4,1.2-0.6,1.8
		c-0.3,0.6-0.6,1.2-1,1.7l0,0c-0.4,0.5-0.8,0.9-1.3,1.2c-0.5,0.3-1.1,0.4-1.6,0.5c-0.5,0-1-0.1-1.5-0.3c-0.4-0.2-0.7-0.4-1-0.6
		c-0.2-0.2-0.4-0.3-0.6-0.5l-0.2-0.2L710.1,674.7z"/>
	<path class="st21" d="M727.3,640.1c-1,1.6-1.6,3.5-1.9,5.3c-0.6,3.2-0.3,5.5,1,5.2s3.1-2.9,3.7-6.1c0.6-3.2-0.1-5.9-1.4-5.6
		C728.1,639.2,727.6,639.6,727.3,640.1L727.3,640.1z"/>
	<path class="st21" d="M722.6,635.8c-0.8,0.4-1.6,1.9-2.4,3.7c-1.1,2.7-1.5,5.3-0.7,6.1s2.4-0.1,3.6-2.8s1.4-6.1,0.6-6.9
		C723.4,635.6,722.9,635.6,722.6,635.8L722.6,635.8z"/>
	<path class="st21" d="M716,636.3c-0.6,0.4-1.2,1.7-1.8,3.2c-0.8,2.4-0.9,4.7-0.2,5.4s2-0.1,2.8-2.4s0.8-5.4,0-6.1
		C716.6,636.2,716.2,636.2,716,636.3L716,636.3z"/>
	<path d="M721.6,632.3l1.5,0.2c1.1,0.2,2.1,0.7,3.1,1.3c0.7,0.5,1.4,1.1,1.9,1.8c0.5,0.6,0.9,1.3,1.2,1.9c0.4,0.8,0.6,1.6,0.8,2.5
		c0.1,0.7,0.2,1.3,0.3,2c0.1,1.2,0.1,2.1,0.1,2.9c0,0.1,0,0.1,0,0.2c0,1.1,0.2,2.8,0.3,4.8s0.2,4,0.2,5.7c0,1.2,0,2.2,0,2.8
		c-0.1,1.1-0.3,2.2-0.6,3.3c-0.4,1.6-0.9,3.3-1.5,4.8c-0.5,1.2-0.9,2.4-1.3,3.3s-0.8,1.6-0.9,2.1c-0.4,1.1-0.9,2.2-1.6,3.2
		c-0.7,1-1.6,1.9-2.6,2.7c-0.8,0.5-1.7,0.9-2.7,1.1c-0.4,0.1-0.6,0.1-0.6,0.2s0.2,0.2,0.5,0.3c0.5,0.1,1,0.2,1.5,0.2
		c0.7,0,1.5-0.2,2.2-0.4c0.7-0.3,1.3-0.6,2-1c0.7-0.4,1.3-0.9,1.8-1.5c0.8-0.8,1.5-1.7,2.1-2.7c0.5-0.8,0.9-1.7,1.1-2.6
		c0.3-1.4,0.6-2.7,0.8-4.1c0.3-2,0.4-4,0.6-5.6s0.2-3.1,0.4-4c0.1-0.4,0.2-1,0.3-1.8l0,0c0.2-1.3,0.5-3,0.7-4.9s0.3-3.9,0.3-5.8
		c0-1-0.1-2.1-0.2-3.1c-0.1-0.8-0.3-1.5-0.6-2.3c-0.4-1-1-2-1.6-2.9c-0.6-0.8-1.2-1.5-1.9-2.1c-0.7-0.6-1.5-1.1-2.4-1.5
		c-0.6-0.3-1.3-0.5-1.9-0.6c-0.5-0.1-1-0.2-1.6-0.2L721.6,632.3L721.6,632.3z"/>
	<path class="st19" d="M839.7,650.6c0,0,7.5-6.5,12-1.4s-3.2,18.5-11.1,20.9s-8.1-0.4-8.1-0.4"/>
	<path class="st19" d="M825.6,564.3c14.1,24.5,14.9,64,14.7,79.8c-0.1,11.7-9.4,33.5-25.3,38.3c-6.3,1.9-38.4,18.1-46.1,14.7
		c-12-5.2,0.8-34-3.8-36.6c-15.2-8.6-7-34.7-4.3-44.5c3.5-12.5,31.7-43.5,59.2-58"/>
	<path class="st26" d="M772.6,604.8c-7,0.3-10.1,6.1-13.6,17.7c-3.9,13.2-3.6,30.2,3.4,34.3s15.6-1.2,19.5-14.4s3.8-33.7-3.2-36.7
		C776.8,605.2,774.7,604.9,772.6,604.8L772.6,604.8z"/>
	<path d="M762.8,655.7c-0.4-0.7-0.7-1.4-1-2.1c-0.3-0.7-0.5-1.5-0.7-2.2c-0.2-0.9-0.3-1.8-0.2-2.7c0.1-0.7,0.1-1.5,0.1-2.3
		s0-1.6,0.1-2.4c0.1-1.6,0.2-3.2,0.4-4.8s0.5-3.4,0.7-5.1c0.3-1.9,0.7-3.9,1.1-5.8s0.9-3.7,1.5-5.3c0.7-2.2,1.6-4.4,2.6-6.5
		c0.8-1.8,1.6-3.2,2.1-4c0.7-1.3,1.5-2.5,2.4-3.6c0.4-0.6,0.9-1.1,1.4-1.6c0.6-0.5,1.2-1,1.8-1.5c1.4-1,2.8-1.9,4.2-2.7
		c1.2-0.7,2.5-1.4,3.7-2.1c0.4-0.2,0.8-0.5,1.2-0.7c0.1-0.1,0.3-0.2,0.4-0.3c0.1-0.1,0.2-0.2,0.3-0.3l3.3-6.8c0.7-2.1,1.8-4.1,3-5.9
		l0.3-0.5c0.3-0.5,0.6-0.8,0.8-1.1l0.3-0.4l0.1-0.1l-0.1-0.2l0,0v-0.1l0,0v0.1l0,0l0.1,0.2L793,585l-0.4,0.4c-0.4,0.5-0.9,1-1.2,1.5
		c-0.6,0.8-1.1,1.6-1.6,2.5c-0.6,1.1-1.2,2.2-1.6,3.4c-1.1,2-2.3,4.3-3.5,6.7l0,0c0,0,0,0-0.1,0.1l0,0c-0.1,0.1-0.2,0.2-0.3,0.2l0,0
		c-0.4,0.2-0.8,0.5-1.2,0.7c-1.2,0.7-2.5,1.3-3.8,2c-1.5,0.8-3,1.7-4.3,2.7c-1.3,0.9-2.5,2-3.5,3.2c-2.2,2.9-4,6.1-5.4,9.4
		c-0.7,1.6-1.3,3.3-1.8,5c-1.1,3.7-1.9,7.5-2.4,11.3c-0.5,3.3-0.8,6.7-1,10c-0.1,1.6,0,3.2-0.1,4.6c-0.1,0.9,0,1.8,0.2,2.7
		c0.2,0.8,0.4,1.6,0.8,2.4c0.4,0.9,0.8,1.7,1.3,2.5c0.5,0.8,0.9,1.4,1.3,2l0.2,0.2c1.2,1.5,2.6,2.9,4,4.2c0.1,0-1.1-1.5-3.9-4.6
		C763.9,657.3,763.4,656.5,762.8,655.7L762.8,655.7z"/>
	<path d="M786.2,601.2c-0.6,0-1.1-0.1-1.7-0.2c-0.8-0.1-1.5-0.2-1.9-0.3h-0.2c-0.4,0-0.9,0-1.3,0c-0.5,0-1-0.1-1.5-0.3
		c-0.2-0.1-0.2,0-0.1,0.1c0.2,0.2,0.4,0.4,0.7,0.5c0.4,0.2,0.8,0.4,1.2,0.5c0.4,0.1,0.8,0.2,1.3,0.2h0.4c0.7-0.1,1.4-0.2,2.1-0.2
		c0.5-0.1,1-0.1,1.5,0c0.3,0,0.5,0,0.5-0.1S786.7,601.2,786.2,601.2L786.2,601.2z"/>
	<path d="M787.5,598c-0.4,0-0.8-0.1-1.2-0.3c-0.4-0.1-0.8-0.2-1.2-0.3l0,0c-0.6,0-1.2-0.1-1.9-0.2c-0.3,0-0.1,0.2,0.3,0.5
		c0.4,0.3,0.9,0.6,1.4,0.7c0.1,0,0.3,0,0.4,0l1.3-0.1c0.3,0,0.7,0,1,0c0.2,0,0.3-0.1,0.3-0.2S787.9,597.9,787.5,598L787.5,598z"/>
	<path d="M824.8,564.8c1.9,3.4,3.7,6.8,5.2,10.4c1.4,3.3,2.5,6.4,3.4,9.3l0,0c1.2,4,2.3,8,3.1,12c0.7,3.5,1.2,6.5,1.6,9.1
		c0.4,2.9,0.7,5.4,0.8,7.5s0.3,3.9,0.4,5.6s0.3,4.1,0.4,7c0.1,2.4,0.2,5.2,0.2,8s-0.2,5.8-0.5,8.6c-0.2,2.1-0.5,4.2-0.7,6.1
		c-0.3,1.8-0.6,3.4-0.9,4.8s-0.6,2.7-0.9,3.8c-0.2,0.7-0.4,1.4-0.5,1.8c-0.2,0.7-0.6,1.8-1.1,3c-0.6,1.5-1.3,3-2.2,4.4
		c-0.8,1.4-1.7,2.8-2.7,4.2c-1.1,1.4-2.3,2.7-3.6,3.9l0,0c-1.7,1.5-3.5,2.8-5.5,3.9c-2.4,1.5-4.9,2.7-7.2,3.8
		c-4.1,1.9-7.5,3.3-9.1,4c-1.8,0.8-4.5,2-7.8,3.2c-2.4,0.9-5,1.9-7.8,2.9s-5.6,1.9-8.4,2.7c-2.1,0.7-4.2,1.3-6.2,1.8l-2.1,0.5
		c-0.9,0.2-1.4,0.4-1.7,0.5s-0.3,0.2,0,0.2c0.5,0,0.9,0,1.4,0c0.7-0.1,1.6-0.2,2.7-0.3c1.8-0.3,4-0.7,6.4-1.2s5.2-1.2,8.1-1.9
		s5.8-1.6,8.6-2.5c2.6-0.8,5.2-1.8,7.5-2.7s4.5-1.9,6.2-2.8c1.2-0.6,2.3-1.2,3.5-1.8c2.5-1.3,4.9-2.8,7.2-4.4c2-1.3,3.8-2.9,5.5-4.5
		c2.5-2.6,4.5-5.5,6.1-8.8l0,0c1.5-3.1,2.8-6.3,3.8-9.5l0.3-1.1c0.5-1.5,1.3-4.1,2-7.5c0.4-1.9,0.8-3.9,1.1-6.2l0,0
		c0.4-2.6,0.7-5.4,0.9-8.3s0.2-5.8,0.2-8.7l0,0c0-4-0.3-8-0.6-11.5s-0.8-6.6-1.2-8.9c-0.1-0.6-0.2-1.2-0.3-1.7
		c-0.5-2.2-1.2-5.2-2.2-8.6s-2.2-7.2-3.6-10.8c-1-2.6-2-5.1-3.1-7.4c-1.1-2.3-2.2-4.4-3.1-6.2c-1-1.8-1.8-3.2-2.4-4.2
		S824.8,564.8,824.8,564.8L824.8,564.8z M757,640.6c0-2.8,0.1-5.6,0.3-8.3c0.2-2.2,0.6-4.5,1.2-6.6l0,0c0.5-1.8,1.1-3.6,1.9-5.3
		c0.7-1.5,1.4-2.9,2-4.1s1.1-2,1.7-2.9s1-1.6,1.5-2.3c0.6-0.9,1.1-1.6,1.6-2.3c0.7-1,1.7-2.5,3-4.3c1-1.4,2.1-3,3.2-4.5
		s2.3-3.2,3.5-4.6c2.3-2.9,4.3-5.4,5.2-6.5c0.2-0.2,0.4-0.4,0.6-0.7c0.8-0.8,2-2,3.4-3.4s3.2-2.9,4.9-4.4s3.6-3,5.3-4.3
		s3.2-2.5,4.4-3.4c0.7-0.5,1.3-1,1.6-1.3c1.5-1.3,4.3-3.5,7.5-5.7c1.6-1.1,3.3-2.2,5-3.2s3.3-1.9,4.8-2.7c0.7-0.4,1-0.6,1-0.7
		c0-0.1-0.3-0.1-0.8,0c-1.9,0.5-3.8,1.1-5.6,1.9c-2.8,1.2-5.5,2.5-8.1,4.1c-2.6,1.5-5,3.1-7.3,5c-0.5,0.4-0.9,0.8-1.3,1.1
		c-2.9,2.7-5.9,5.7-8.6,8.6c-2.7,2.9-5.1,5.6-6.9,7.6c-0.7,0.8-1.4,1.5-1.9,2.1c-0.9,0.9-2.8,2.8-4.9,5.1s-4.7,5.3-7.1,8.3
		c-1.8,2.3-3.5,4.6-4.8,6.7l0,0c-0.7,1.1-1.3,2.1-1.8,3.1c-0.4,0.8-0.8,1.6-1.2,2.5v0.1c-0.4,1.1-1,2.6-1.5,4.3
		c-0.6,1.9-1.1,3.8-1.4,5.8c-0.3,1.8-0.5,3.7-0.5,5.5c-0.1,1.8,0,3.5,0,4.9s0.1,2.7,0.2,3.5S757,640.5,757,640.6L757,640.6z"/>
	<g id="g4320">
		<path class="st19" d="M828.3,572.4c-2-0.4-3,0.6-4.6,1.5c-1.6,0.9-2.4,3.6-3,4.1l-0.3,0.1c-2.4,5.8-6.1,11-10.9,15.1
			c-12.5,11-25.1,11.3-30.4,29.4c-1,3.4,4.8,12.3,9.8,15.9c6.3,4.5,16.3,0.9,24.1-6.3c9.9-9,19.5-28.4,22.4-40.1
			c-0.1-0.6,0-1.3,0.1-1.9c0.4-1.5,0.5-3,0.5-4.6c0-1.6,0-5.6-0.5-7.1c-0.7-1.7-1.6-3.2-2.9-4.5C831.4,573,830.2,572.8,828.3,572.4
			L828.3,572.4z"/>
		<path class="st20" d="M834.7,576.9c0,1.2-0.1,2.4-0.2,3.7c-0.2,1.5-0.4,3.1-0.7,4.7c-0.3,1.6-0.7,3.2-1.1,4.8
			c-0.4,1.3-0.9,2.8-1.5,4.3s-2.2,3.9-2.9,5.7s-1.5,3.7-2.4,5.6s-1.8,3.8-2.8,5.7s-2,3.7-3.2,5.5s-2.3,3.5-3.4,5.2s-2.4,3.2-3.6,4.6
			c-1.2,1.4-2.4,2.7-3.7,3.9c-1,0.9-2,1.7-3,2.5c-1,0.8-2.1,1.5-3.2,2.1c-1,0.6-2.1,1.2-3.2,1.7c-1,0.5-2.1,0.9-3.2,1.2
			c-1,0.3-2.1,0.5-3.1,0.6c-1,0.1-2,0.1-3,0.1c-0.5-0.1-0.9-0.2-1.4-0.3h0.1c6.3,4.5,16.3,0.9,24.1-6.3c9.9-9,19.5-28.4,22.4-40.1
			c-0.1-0.6,0-1.3,0.1-1.9c0.4-1.5,0.5-3,0.5-4.6c0-1.6,0-5.6-0.5-7.1C835.4,578,835.1,577.5,834.7,576.9L834.7,576.9z"/>
		<path d="M833.3,574.5l1.9,3.6c0.6,2.3,0.8,4.7,0.5,7.1c-0.2,2.2-0.6,4.4-1.2,6.6c-0.5,1.8-1,3.6-1.5,5.2s-1.2,3.2-1.8,4.6
			c-1.6,3.8-3.4,7.5-5.4,11.1c-2,3.7-4.3,7.2-6.8,10.5c-1.5,2-2.9,3.6-4.2,5c-0.8,0.9-1.8,2-3.1,3.2c-1.6,1.5-3.4,2.9-5.3,4.2
			c-2.1,1.4-4.4,2.5-6.8,3.3c-1.8,0.6-3.8,0.9-5.7,0.8c-1.7-0.1-3.4-0.6-4.8-1.6c-1.4-0.9-2.6-2.1-3.8-3.3c-1.3-1.3-2.4-2.8-3.4-4.3
			c-0.3-0.5-0.6-0.9-0.8-1.2s-0.5-0.8-0.7-1.3c-0.3-0.6-0.5-1.2-0.8-1.8c-0.2-0.6-0.3-1.2-0.4-1.8c-0.1-0.4,0-0.8,0.1-1.2
			c0.6-1.8,1.3-3.5,2.1-5.2c0.9-1.9,2.1-3.6,3.4-5.2l0,0c1-1.2,2.2-2.4,3.4-3.4c1.2-1,2.5-2,3.9-2.9l0,0c1.5-1,3.1-1.9,4.6-2.8
			s2.9-1.7,4.2-2.4c1.5-0.9,2.9-1.8,4-2.5s2-1.4,2.6-1.9c0.8-0.7,1.8-1.5,3-2.5c0.9-0.8,1.8-1.7,2.8-2.7c1-1.1,2-2.2,2.9-3.3
			c1.1-1.4,2.2-3,3-4.6c0.7-1.3,1.2-2.7,1.8-3.9c0.7-1.5,1.5-2.9,2.4-4.2c0.7-1.1,1.7-2,3-2.5c0.9-0.3,1.9-0.3,2.9-0.1
			c0.6,0.1,1.1,0.3,1.6,0.6c0.3,0.1,0.5,0.3,0.7,0.4c0.7,0.5,1,0.6,1.1,0.6l0,0c0.8-1,0.8-1,0,0l0,0c0-0.1-0.2-0.4-0.8-1
			c-0.3-0.3-0.6-0.5-1-0.7c-0.4-0.3-0.9-0.5-1.4-0.7c-0.5-0.2-1-0.3-1.6-0.4c-0.6-0.1-1.3,0-1.9,0.1c-0.8,0.2-1.5,0.5-2.1,1
			c-0.7,0.5-1.3,1.1-1.9,1.8c-1.1,1.3-2.1,2.8-2.9,4.3c-0.7,1.3-1.3,2.5-2.1,3.8c-0.9,1.4-1.9,2.8-3,4c-1.8,1.9-3.7,3.7-5.7,5.4
			c-2.6,2.1-5.3,4.1-8.2,6l-1,0.7c-2.8,1.8-5.8,3.7-8.6,5.8l0,0c-2.8,2-5.3,4.4-7.3,7.2c-1.3,1.7-2.3,3.6-3.2,5.6
			c-0.8,1.8-1.5,3.6-2,5.5c-0.1,0.5-0.2,1.1-0.1,1.7c0.1,0.7,0.3,1.4,0.5,2c0.6,1.6,1.4,3.1,2.3,4.5c0.4,0.6,0.7,1.1,1,1.6
			c0.7,1.1,1.5,2.1,2.3,3.1c1.1,1.4,2.4,2.6,3.8,3.7c0.8,0.6,1.6,1.1,2.5,1.4c1,0.4,2,0.6,3,0.7c2.2,0.2,4.4,0,6.5-0.6
			c2.5-0.7,4.9-1.7,7.1-3c2.2-1.3,4.3-2.8,6.3-4.6c2.9-2.6,5.5-5.5,7.7-8.7c1.9-2.6,3.5-5.3,5-8.1c0.5-0.9,1-1.9,1.5-3
			c1.8-3.8,3.4-7.6,4.8-11.6l0,0c1.3-3.3,2.3-6.7,3.1-10.2c0.3-1.4,0.5-2.8,0.6-4.1c0.1-1.3,0.2-2.5,0.2-3.8c0-1.1-0.1-2.2-0.3-3.3
			c-0.1-0.9-0.4-1.8-0.7-2.7L833.3,574.5z"/>
		<path d="M785.1,626.4c0.1,0.2,0.1,0.4,0,0.5c-0.1,0.2-0.2,0.4-0.4,0.6c-0.2,0.2-0.5,0.4-0.8,0.6c-0.3,0.2-0.7,0.3-1,0.4
			c-0.8,0.3-1.7,0.4-2.6,0.4h-0.8c-1,0-2-0.2-2.9-0.6c-0.3-0.1-0.6-0.3-0.9-0.6c-0.1-0.1-0.2-0.2-0.2-0.3c0-0.1,0-0.1-0.1-0.2
			c0-0.1,0-0.1,0-0.2l0,0l0,0l0,0c0,0,0-0.1,0-0.2l0,0c0-0.1,0-0.1,0.1-0.2c0.1-0.1,0.2-0.2,0.3-0.3c0.3-0.2,0.6-0.4,0.9-0.5
			c0.9-0.3,1.8-0.5,2.8-0.6h0.7c0.8,0,1.6,0,2.3,0.1c0.3,0,0.6,0.1,0.9,0.2c0.2,0.1,0.5,0.2,0.7,0.3c0.2,0.1,0.4,0.2,0.5,0.3
			c0.1,0.1,0.3,0.2,0.4,0.4L785.1,626.4z"/>
		<path d="M783.1,620.5c0.2,0.3,0.2,0.8,0,1.1c-0.3,0.5-0.7,0.9-1.1,1.2c-0.5,0.3-1.1,0.6-1.7,0.8c-0.2,0.1-0.4,0.1-0.6,0.2
			c-0.7,0.1-1.5,0.1-2.2-0.1c-0.3-0.1-0.5-0.2-0.8-0.4c-0.1-0.1-0.2-0.2-0.3-0.3c0-0.1-0.1-0.1-0.1-0.2v-0.2l0,0l0,0l0,0
			c0,0,0-0.1,0-0.2c0-0.1,0-0.1,0-0.2c0-0.1,0-0.2,0.1-0.4c0.1-0.3,0.3-0.5,0.5-0.7c0.5-0.5,1.2-0.9,1.8-1.1l0.6-0.2
			c0.5-0.2,1.1-0.2,1.7-0.3c0.5,0,0.9,0,1.4,0.2c0.3,0.1,0.7,0.3,0.9,0.6L783.1,620.5z"/>
		<path d="M788.2,634.9c0.3,0.5,0.3,1.1,0.1,1.6c-0.3,0.7-0.9,1.3-1.5,1.7c-0.5,0.3-1,0.5-1.5,0.5c-0.5,0.1-0.9,0-1.4-0.2
			c-0.2-0.1-0.3-0.2-0.4-0.3c-0.1-0.1-0.2-0.3-0.2-0.4l0,0l0,0l0,0c0-0.1-0.1-0.3-0.1-0.5c0-0.2,0-0.3,0.1-0.5
			c0.1-0.4,0.3-0.7,0.6-1c0.3-0.3,0.7-0.6,1-0.9c0.6-0.4,1.2-0.6,1.9-0.6C787.2,634.3,787.8,634.5,788.2,634.9L788.2,634.9z"/>
	</g>
	<g id="g4380">
		<g id="g4181">
			<path class="st19" d="M784.3,511.7c0,0-5.3-2.9-6.1-4.1s-6.4-10.6-6.5-15.7s0.1-11.8,3-16s7.6-8.4,9.5-8.9s6.9,2.9,7.8,4.4
				s7.4,11.1,7.8,12S784.3,511.7,784.3,511.7z"/>
			<path class="st27" d="M784.3,467.1L784.3,467.1c-2,0.4-6.8,4.7-9.6,8.9s-3.1,11-3,16s5.8,14.5,6.5,15.7s6.1,4,6.1,4l1.8-3.1
				c-0.5-0.3-0.5-0.3-1.1-0.6s-1.5-0.9-2-1.3c-0.5-0.3-0.9-0.7-1.2-1.1c-0.2-0.3-0.7-1.1-1.3-2.3s-1.4-2.6-2.2-4.1
				c-0.4-0.8-0.8-1.6-1.1-2.4s-0.7-1.6-1-2.5c-0.3-0.8-0.5-1.5-0.7-2.3c-0.2-0.7-0.2-1.4-0.3-2.1c0-1.3,0-2.6,0-4
				c0.1-1.4,0.2-2.9,0.4-4.3c0.1-0.7,0.2-1.4,0.4-2.1s0.3-1.4,0.5-2c0.2-0.6,0.4-1.3,0.7-1.9c0.3-0.6,0.6-1.1,1-1.7
				c0.7-1.1,1.6-2.1,2.4-3.1c0.9-1,1.8-1.9,2.7-2.8C783.6,467.6,783.9,467.4,784.3,467.1L784.3,467.1z"/>
			<path d="M800.5,484.5L800.5,484.5L800.5,484.5l-0.1-0.1l-0.3-0.5c-0.3-0.7-0.7-1.3-1-2l0,0c-1.2-2.4-2.3-4.4-3.3-6.1
				c-0.9-1.4-1.7-2.7-2.5-3.8s-1.5-2-2.2-2.8c-0.8-0.9-1.7-1.8-2.6-2.5c-0.8-0.7-1.8-1.2-2.8-1.5c-0.3-0.1-0.5-0.1-0.8-0.1
				c-0.5,0-0.9,0.1-1.3,0.2c-0.6,0.2-1.1,0.5-1.6,0.8c-0.7,0.4-1.3,0.9-1.8,1.5c-0.6,0.6-1.2,1.3-1.8,2c-0.6,0.8-1.2,1.6-1.8,2.5
				s-1,1.7-1.5,2.5c-0.9,1.6-1.5,3.1-1.8,3.8c-0.2,0.5-0.5,1.2-1,2.2c-0.3,0.8-0.6,1.6-0.8,2.4c-0.2,1-0.4,2-0.5,3l0,0
				c-0.1,1-0.1,2-0.1,3s0,2.1,0.1,3.1l0,0c0.1,1.9,0.4,3.8,0.7,5.6c0.2,0.9,0.3,1.7,0.5,2.4s0.3,1.2,0.5,1.6l0,0
				c0.6,1.5,1.4,3,2.5,4.2c1,1.1,2.1,2.1,3.3,3c1,0.8,2.1,1.4,3.2,2c0.5,0.3,1,0.5,1.4,0.7c0.2,0.1,0.4,0.2,0.7,0.2
				c0.1,0,0.1-0.1-0.1-0.3s-0.4-0.4-0.7-0.6l-1.1-1c-0.8-0.8-1.8-1.7-2.9-2.8c-1-1-1.9-2.1-2.7-3.3c-0.4-0.6-0.7-1.2-1.1-1.8
				c-0.3-0.6-0.5-1.1-0.7-1.8c-0.3-1-0.6-2-0.8-2.9l-0.2-0.7c-0.5-1.7-0.8-3.4-1.1-5.1c-0.3-1.8-0.5-3.7-0.5-5.6l0,0
				c0-0.9,0.1-1.8,0.2-2.7c0.1-0.8,0.3-1.6,0.6-2.3c0.4-1.2,1-2.3,1.6-3.5c0.3-0.6,0.9-1.6,1.7-2.8c0.9-1.3,1.9-2.5,3-3.7
				c1-1.1,2.1-2,3.4-2.7c0.5-0.2,1-0.4,1.5-0.6c0.5-0.1,0.9-0.1,1.4,0l0,0c0.8,0.2,1.6,0.6,2.3,1.1c0.6,0.4,1.2,0.8,1.6,1.1
				s0.6,0.5,0.9,0.8c0.8,0.7,1.6,1.5,2.3,2.3c0.8,0.9,1.7,2,2.6,3.1c1.4,1.9,2.8,4,3.7,5.5c0.5,0.8,0.8,1.4,1.1,1.8l0.3,0.5l0,0
				L800.5,484.5L800.5,484.5L800.5,484.5L800.5,484.5z"/>
			<path class="st25" d="M796.8,491.6c0,0-3.8,5.2-4.6,7.4s-3.5,6-3.8,6c-0.6-0.1-1.2-0.3-1.8-0.5c-1.2-2-2.3-4.1-3.1-6.4
				c-0.8-2.5-2.6-4.6-1.8-7.4s1.6-7.6,3.6-7.8s4.8-0.2,5.9,0.3c1.1,0.5,2,1.3,2.9,2.1C794.6,485.9,797.7,490.5,796.8,491.6
				L796.8,491.6z"/>
			<path class="st28" d="M785.1,482.8c-1.7,0.7-2.5,5-3.3,7.6c-0.8,2.8,1.1,5,1.8,7.4c0.8,2.2,1.9,4.3,3.1,6.4
				c0.6,0.3,1.2,0.4,1.8,0.5c0.4-0.4,0.8-0.8,1-1.3c-0.3,0-0.6-0.1-0.9-0.2c-0.4-0.1-0.8-0.3-0.8-0.3s-0.6-1-1.3-2.3
				c-0.3-0.6-0.7-1.4-1-2.1c-0.3-0.6-0.6-1.3-0.8-2c-0.2-0.6-0.4-1.2-0.7-1.8c-0.3-0.6-0.5-1.2-0.8-1.8c-0.1-0.3-0.2-0.6-0.3-0.9
				c-0.1-0.3-0.1-0.6-0.2-0.9c-0.1-0.7,0-1.4,0.2-2c0.2-0.7,0.4-1.5,0.6-2.4s0.5-1.7,0.7-2.5c0.1-0.4,0.3-0.7,0.5-1.1
				C785,483.1,785.1,483,785.1,482.8L785.1,482.8z"/>
			<path d="M797,491.4c-0.7,0.6-1.3,1.2-1.9,1.8c-0.6,0.6-1,1.3-1.5,1.9s-1,1.4-1.5,2.1c-0.4,0.6-0.8,1.2-1.1,1.9
				c-0.3,0.6-0.6,1.2-1,1.8c-0.3,0.4-0.6,0.9-0.9,1.3c-0.3,0.4-0.6,0.8-1,1.1c-0.3,0.2-0.5,0.4-0.6,0.3c0.1,0,0.2,0,0.3,0l0,0
				l-0.2-0.2c-0.3-0.3-0.6-0.6-0.8-1c-0.4-0.5-0.7-1-1.1-1.7s-0.8-1.3-1.2-2c-0.5-0.9-0.9-1.7-1.2-2.5s-0.6-1.5-0.8-2.1
				c-0.1-0.3-0.2-0.5-0.2-0.7c-0.1-0.5-0.2-1-0.2-1.5c0-0.6,0-1.2,0.1-1.7l0,0c0.2-0.9,0.6-1.8,1.2-2.7c0.5-0.8,1-1.4,1.7-2
				c0.5-0.4,1-0.7,1.5-1c0.4-0.2,0.8-0.4,1-0.5c0.3-0.2,0.7-0.3,1.1-0.5c0.3-0.1,0.5-0.1,0.8-0.1c0.3,0,0.7,0.1,1,0.2
				c0.7,0.3,1.4,0.6,2.1,1c0.7,0.5,1.4,1,2,1.5c0.3,0.2,0.4,0.3,0.5,0.2l0,0c0.1-0.2-0.8-1.5-2-3c-0.6-0.7-1.4-1.3-2.2-1.9
				c-0.7-0.5-1.5-0.8-2.3-0.8c-0.6,0-1.1,0.1-1.6,0.3c-0.5,0.2-0.9,0.5-1.3,0.8c-0.5,0.4-1,0.9-1.4,1.5c-0.7,0.9-1.3,1.9-1.8,3
				c-0.5,1.1-0.8,2.3-1,3.4c-0.1,0.7-0.1,1.5,0,2.3c0.1,0.8,0.3,1.6,0.5,2.5l0.1,0.3c0.1,0.5,0.3,1.2,0.5,2.1s0.6,2,1,3
				c0.6,1.5,1.3,3,2.1,4.5c0.3,0.5,0.6,1,1,1.4c0.1,0.2,0.3,0.3,0.5,0.5c0.2,0.2,0.4,0.2,0.7,0.2c0.5-0.1,1-0.4,1.3-0.8
				c0.5-0.5,0.9-1,1.2-1.5c0.2-0.3,0.4-0.6,0.5-0.9c0.5-1,0.9-2,1.2-3c0.2-0.7,0.5-1.3,0.8-1.9c0.4-0.8,0.8-1.6,1.2-2.4
				s0.7-1.2,1-1.8s0.7-1,1-1.4C796.3,492.1,796.6,491.7,797,491.4L797,491.4z"/>
			<path d="M775.8,480.1L775.8,480.1L775.8,480.1h-0.1h-0.1c-0.1,0-0.2,0-0.2,0c-0.2-0.1-0.3-0.2-0.5-0.3c-0.4-0.3-0.7-0.7-1-1.2
				c-0.1-0.2-0.2-0.4-0.3-0.5s-0.3-0.6-0.5-0.9c-0.2-0.3-0.3-0.7-0.5-1.1c-0.1-0.2-0.1-0.4-0.2-0.5c-0.1-0.2-0.1-0.4-0.1-0.6
				c0-0.2,0-0.4,0.1-0.5c0.1-0.2,0.2-0.3,0.4-0.4c0.2-0.1,0.5-0.1,0.7-0.1c0.3,0.1,0.6,0.2,0.8,0.4c0.4,0.3,0.7,0.7,1,1.1
				c0.2,0.3,0.3,0.6,0.4,0.9c0.3,0.7,0.4,1.5,0.4,2.2c0,0.3,0,0.6-0.1,0.9c0,0.1-0.1,0.2-0.1,0.3l0,0l-0.1,0.1l0,0h0L775.8,480.1z"
				/>
			<path d="M774.3,484c-0.1,0.4-0.5,0.7-0.9,0.7c-0.6,0-1.2-0.1-1.7-0.4l-0.5-0.1c-0.6-0.1-1.1-0.4-1.6-0.7
				c-0.2-0.1-0.3-0.2-0.5-0.4c-0.1-0.1-0.2-0.3-0.3-0.4c-0.1-0.1-0.2-0.3-0.2-0.4c-0.1-0.1-0.1-0.3-0.1-0.4c0-0.2,0-0.3,0.1-0.5
				c0.1-0.2,0.2-0.3,0.3-0.4c0.1-0.1,0.3-0.3,0.5-0.3c0.2-0.1,0.4-0.1,0.6-0.2c0.6-0.1,1.3,0,1.9,0.1l0.5,0.2l0,0
				c0.6,0.4,1.2,1,1.6,1.6C774.2,482.9,774.4,483.5,774.3,484L774.3,484z"/>
		</g>
		<path class="st19" d="M766.6,522.3c0,0,0.8-15.2,2.1-18.6s5.4-14.4,8.8-17.6s7.3-8.4,13.5-11.6s23.8-6.2,27.8-6.2s12.1,3,14.9,4.3
			s9.4,10.1,12.8,14.5s10.5,20.6,11.4,24s3.8,17.6,3.2,22.7s-1.7,13.9-4.7,18.2s-13.1,13.3-16.9,14s-32.4,11.8-40.7,9.1
			s-23.4-17-24-20.7C774.3,550.7,766.8,527,766.6,522.3L766.6,522.3z"/>
		<path class="st28" d="M818.8,468.3c-3.9,0-21.6,3-27.8,6.2s-10.1,8.4-13.5,11.6s-7.5,14.3-8.8,17.6s-2.1,18.6-2.1,18.6
			c0.2,4.7,7.7,28.3,8.3,32.1s13.7,17.8,21.9,20.4c1.7,0.5,3.3,0.5,6.8-0.8c-2.4,0.2-3.7,0.6-5.1,0.2c-8.3-2.6-21.3-16.1-21.8-19.9
			s-8.1-27.4-8.3-32.1c0,0,0.8-15.2,2.1-18.6s5.4-14.4,8.8-17.6s7.3-8.4,13.5-11.6c6-3.1,22.8-6,27.3-6.2L818.8,468.3L818.8,468.3z"
			/>
		<path d="M772.8,517.4c0.2-0.1,0.4-0.2,0.7-0.2c0.2,0,0.3,0,0.5,0c0.1,0,0.3,0.1,0.4,0.1c0.1,0,0.2,0.1,0.4,0.1
			c0.2,0,0.5,0.1,0.7,0.2c0.3,0.1,0.5,0.3,0.8,0.5c0.1,0.1,0.2,0,0.1-0.1c-0.1-0.2-0.1-0.4-0.3-0.6c-0.1-0.3-0.3-0.5-0.6-0.7
			c-0.2-0.2-0.5-0.3-0.8-0.4h-0.2c-0.4,0-0.8,0.1-1.2,0.4c-0.3,0.2-0.6,0.4-0.8,0.4c-0.2,0.1-0.2,0.2-0.2,0.3
			C772.4,517.5,772.6,517.6,772.8,517.4L772.8,517.4z"/>
		<path d="M774,514.6c0.1-0.1,0.3-0.1,0.4-0.1c0.1,0,0.3,0,0.4,0.1c0,0,0.1,0,0.1,0c0.1,0,0.2,0,0.3,0c0.2,0,0.3,0.1,0.5,0.1
			c0.1,0,0.1,0,0.1-0.1c0-0.1-0.1-0.3-0.1-0.4c-0.1-0.2-0.2-0.3-0.3-0.4c-0.1-0.1-0.3-0.2-0.5-0.1h0c-0.2,0.1-0.5,0.3-0.7,0.5
			c-0.2,0.2-0.3,0.3-0.4,0.3c-0.1,0-0.1,0.2,0,0.2C773.8,514.6,773.9,514.7,774,514.6C774,514.6,774,514.6,774,514.6L774,514.6z"/>
		<path d="M774.6,516c0.2-1,0.5-2.7,1-4.8c0.5-2.5,1.2-5.8,1.9-9.1c0.4-2.1,0.9-4.2,1.3-6.3c0.3-1.4,0.9-2.8,1.7-4.1
			c0.9-1.6,2-3.2,3.1-4.7c1.3-1.7,2.3-3,3-3.8l0.6-0.7c0.8-1,1.8-2.1,3.1-3.4c0.8-0.8,1.7-1.5,2.7-2.2c1-0.7,2.1-1.4,3.3-2
			c2.3-1.3,4.7-2.5,7.1-3.5c2-0.9,4-1.7,5.7-2.4l0.6-0.2c0.5-0.2,0.8-0.4,1-0.5c0.1-0.1,0.3-0.2,0.4-0.3c0-0.2,0.1-0.3,0.1-0.5l0,0
			l-0.1-0.1c-0.1-0.1-0.1-0.1-0.1-0.1l0.1,0.1l0.1,0.1l0,0c0,0.1,0,0.3-0.1,0.4l0,0c-0.1,0.1-0.3,0.2-0.4,0.2
			c-0.4,0.1-0.9,0.4-1.6,0.6c-1.4,0.5-3.5,1.3-5.8,2.2c-2.5,1-4.9,2.1-7.3,3.3c-2.2,1.1-4.3,2.5-6.2,4.2c-1.1,1.1-2.2,2.2-3.2,3.4
			l0,0c-1.3,1.5-2.5,3-3.6,4.6l-0.1,0.1c-1.1,1.5-2.1,3.1-3,4.8l0,0c-0.8,1.3-1.3,2.8-1.6,4.3c-0.3,2.1-0.7,4.3-1.1,6.3
			c-0.6,3.3-1.2,6.4-1.7,9.1c-0.6,3-1.1,5.5-1.5,7.3l-0.2,0.9c-0.2,1.1-0.4,2-0.5,2.6c0,0.3-0.1,0.6-0.1,0.7c0,0.1,0,0.1,0,0.2
			c0,0,0,0,0,0.1l0,0l0,0c0-0.1,0.1-0.1,0.1-0.2c0-0.2,0.1-0.4,0.2-0.7c0.2-0.6,0.3-1.4,0.6-2.6C774.1,518.5,774.3,517.4,774.6,516
			L774.6,516z"/>
		<path class="st20" d="M818.7,468.3h-0.6c2.5,0.1,3.1,1.4,5.7,1.5c5.7,0.2,17.5,12.8,20.4,17.3s10.5,20.6,11.4,24
			c0.9,3.4,3.8,17.6,3.2,22.7c-0.6,5.1-1.7,13.9-4.7,18.2c-3,4.3-13.1,13.3-16.9,14c-2.9,0.6-18.7,6.6-30,6.9
			c11.1,0.2,29.2-6.3,32.3-6.9c3.8-0.8,13.9-9.7,16.9-14c3-4.3,4.1-13.1,4.7-18.2c0.6-5.1-2.3-19.3-3.2-22.7
			c-0.9-3.4-8.3-19.5-11.4-24s-11.4-17.4-20.4-17.3C823,469.9,822.7,468.3,818.7,468.3L818.7,468.3z"/>
		<path class="st27" d="M790,514.4c-1.5-0.8-1.8-4-2.6-2.4c-1,2.1-0.7,4.6,0.8,6.4c1,1,7.2,1.8,7.2,0S791.5,515.3,790,514.4
			L790,514.4z"/>
		<path d="M793.4,506c-3.5,0-6.2,2.3-6.2,5.7c0,3.4,1.5,6.8,4.9,7.1c3.8,0.4,6.4-2.6,6.2-6.3C798.2,509.1,796.8,506,793.4,506z"/>
		<path class="st29" d="M793.9,508.2c-0.5-0.6-2,0.1-2.7,0.6c-0.7,0.4-0.8,1.3-0.4,2c0.4,0.7,1.3,0.8,2,0.4c0.1-0.1,0.1-0.1,0.2-0.2
			C793.7,510.5,794.4,508.8,793.9,508.2L793.9,508.2z"/>
		<path class="st30" d="M793.4,507c0,0,4.2,0.4,5.5-2.2"/>
		<path d="M856.6,507.6L856.6,507.6L856.6,507.6L856.6,507.6l0.1,0.3l0.2,0.9c0.3,1,0.5,1.9,0.7,2.8c0.3,1.1,0.6,2.3,0.8,3.3
			c0.2,1,0.4,1.9,0.5,2.7c0.3,2,0.5,3.8,0.6,5.5l0,0c0.2,2.7,0.3,5,0.3,7c0,2.3-0.1,4.6-0.3,6.9c-0.1,1.1-0.3,2-0.4,2.8
			c-0.1,0.7-0.3,1.4-0.6,2.1l-0.3,0.8c-0.4,1.1-0.9,2.8-1.6,4.6c-0.7,2-1.5,4-2.6,5.9c-0.7,1.2-1.5,2.4-2.5,3.5
			c-0.9,1-1.8,2-2.8,2.9c-1,0.8-1.9,1.5-2.7,2.1s-1.5,1-1.9,1.3c-0.2,0.2-0.5,0.3-0.9,0.5c-0.7,0.4-1.5,0.7-2.3,1.1
			c-0.9,0.4-2,0.8-3.1,1.1l0,0c-2.1,0.7-4.5,1.3-6.9,1.9c-2.9,0.7-5.8,1.3-8.2,1.8c-2.4,0.5-4.4,0.9-5.4,1.2l-1.9,0.5
			c-1.7,0.5-3.9,1-6.3,1.6c-2.4,0.6-4.9,1.2-7.4,1.7c-1.6,0.4-3.2,0.7-4.7,1.1l-1.1,0.3l-0.4,0.1c-0.3,0.1-0.5,0.2-0.7,0.3
			c-0.2,0.1-0.3,0.2-0.2,0.2c0,0,0.2,0,0.4,0s0.5,0,0.7-0.1l1.6-0.1c1.3-0.1,2.9-0.2,4.8-0.4c4.2-0.4,9.5-1,14-1.8
			c2-0.3,3.9-0.8,5.8-1.4c3.2-1,6.5-2.1,9.6-3.2c2.4-0.9,4.7-1.7,6.8-2.6c1.8-0.8,3.6-1.6,5.4-2.6c1-0.6,1.9-1.1,2.7-1.5
			c1.5-0.8,2.8-1.8,4.2-2.8c2.1-1.6,3.9-3.5,5.4-5.7c1.2-1.8,2.2-3.7,3-5.7c0.8-2,1.5-4,2.2-5.8c0.3-1,0.6-2,0.8-3
			c0.2-1,0.2-1.9,0.3-2.7c0.1-1.1,0.1-2.3,0-3.4c-0.1-1-0.2-2.3-0.3-3.7c-0.2-2.1-0.5-4.6-1-7.1c-0.3-1.9-0.7-3.7-1.1-5.5
			c-0.2-1-0.5-1.9-0.8-2.7c-0.4-1.2-0.8-2.3-1.1-3.3c-0.4-1.1-0.7-2.1-1-2.7l-0.3-0.8V507.6L856.6,507.6L856.6,507.6L856.6,507.6
			L856.6,507.6z"/>
		<path d="M766.8,522.7c0-1.2,0.1-2.4,0.3-3.7c0.2-1.7,0.5-3.3,0.8-4.8l0,0c0.5-2.5,1.1-4.6,1.7-6.5s1.1-3.6,1.7-5.1
			c1-2.8,2-4.9,2.8-6.5s1.5-3,2.1-4.1l0.5-0.9c0.6-1.2,1.4-2.7,2.4-4.3c1-1.7,2.3-3.3,3.6-4.8l0,0c1.5-1.6,3.2-3,5-4.3
			c1.6-1.1,2.9-2,3.7-2.4c1-0.5,2-1,3-1.4c1.6-0.6,3.3-1.2,5-1.6c1.5-0.4,3.2-0.8,4.8-1.1s3.3-0.5,4.8-0.7c3-0.3,5.5-0.4,6.7-0.6
			l1.5-0.1c1.8-0.1,3.7-0.1,5.5,0.1c2.2,0.2,4.4,0.7,6.5,1.4c1.4,0.4,2.7,1,4,1.4c0.4,0.2,0.9,0.4,1.4,0.5c0.4,0.2,0.8,0.2,1.2,0.3
			c0.2,0,0.2-0.1,0-0.2s-0.5-0.3-0.9-0.5s-0.9-0.6-1.4-0.9c-1.2-0.8-2.5-1.5-3.8-2.1c-1.9-0.9-3.9-1.7-6-2.2
			c-2.2-0.5-4.4-0.8-6.6-0.8c-1.7,0-3.4,0.1-5.1,0.4c-2.2,0.4-4.4,0.9-6.6,1.5s-4.3,1.3-6.3,2.1s-4,1.7-5.6,2.5s-3,1.5-4,2
			c-0.7,0.4-1.9,1-3.3,1.8c-1.7,1-3.3,2.2-4.7,3.4c-1.5,1.3-2.8,2.7-4,4.3c-1.2,1.6-2.2,3.2-3.2,4.9c-1.7,2.8-3,5.9-4,9
			c-0.2,0.9-0.5,1.9-0.8,3.2c-0.4,1.7-0.8,3.7-1.2,5.8s-0.7,4.3-0.9,6.3c-0.2,1.8-0.3,3.5-0.4,5c0,1.1,0,2.1,0,2.7s0.1,1,0.1,1
			L766.8,522.7z"/>
		<path class="st19" d="M825.7,485.7c0,0,7.6-11.3,9.5-13.1s2.5-4.4,7.1-5s12,2.2,13.6,3.3s7.9,5.4,9.1,6.9s2.1,6.3,2,9.5
			s-3.2,10.3-4.4,11.5s-7.9,7.5-10.1,8.2s-14.1,2.5-14.1,2.5L825.7,485.7z"/>
		<path class="st20" d="M845.7,508.2c2.1-0.3,4.1-0.7,6.1-1.3c2.2-0.8,8.9-7,10.1-8.2s4.3-8.2,4.4-11.5s-0.8-8-2-9.5
			s-7.5-5.8-9.1-6.9c-3.7-2-7.8-3.1-11.9-3.4c1.2,0.2,2.3,0.4,3.5,0.8c1.2,0.3,2.4,0.8,3.5,1.2c0.8,0.3,1.5,0.7,2.2,1.1
			c0.8,0.5,2.8,1.9,4.7,3.3c1,0.7,1.9,1.4,2.7,2c0.6,0.5,1.2,1,1.7,1.6c0.4,0.5,0.6,1.1,0.8,1.7c0.3,0.8,0.5,1.6,0.6,2.4
			c0.2,0.9,0.3,1.8,0.4,2.8c0.1,0.9,0.1,1.8,0.1,2.7c-0.1,1-0.3,2-0.6,3c-0.3,1.2-0.8,2.4-1.2,3.5c-0.5,1.2-1,2.3-1.4,3.1
			c-0.3,0.7-0.7,1.3-1.2,1.9c-0.6,0.6-2.6,2.5-4.7,4.3c-1,0.9-2.1,1.8-3.1,2.5c-0.7,0.6-1.5,1.1-2.3,1.4c-0.8,0.2-1.6,0.4-2.4,0.6
			l-3.7,0.7L845.7,508.2z"/>
		<path d="M826,485.7c2-2.8,3.9-5.3,5.5-7.5s3.1-3.9,4.4-5.4c0.7-0.7,1.3-1.4,1.8-2c0.3-0.4,0.7-0.7,1.2-1c0.8-0.4,1.6-0.8,2.5-1
			c0.7-0.2,1.4-0.3,2.2-0.4c0.6,0,1.1,0,1.7,0c0.5,0,1,0.1,1.5,0.2s1,0.1,1.6,0.3c1.4,0.3,2.7,0.7,4,1.2c1.5,0.6,3,1.4,4.3,2.4
			c1.6,1.1,3.2,2,4.5,2.9c0.8,0.5,1.5,1,2.2,1.6c0.5,0.4,0.9,0.8,1.3,1.3l0.2,0.3c0.4,0.6,0.8,1.2,1,1.9c0.3,1,0.5,2,0.6,3.1l0,0
			c0,1.3-0.1,2.7-0.3,4c-0.3,1.4-0.6,2.8-1.1,4.1l0,0c-0.3,0.9-0.7,1.7-1.2,2.4c-0.5,0.8-1,1.4-1.4,2c-0.7,0.9-1.3,1.6-1.6,2
			c-0.9,1.2-1.9,2.3-2.9,3.4c-0.8,0.8-1.7,1.6-2.7,2.3c-1,0.8-2,1.5-3.1,2.1c-0.8,0.4-1.7,0.8-2.5,1.1c-0.8,0.3-1.6,0.5-2.4,0.6
			c-0.7,0.1-1,0.1-1,0.2s0.3,0.2,0.8,0.3c0.8,0.1,1.6,0.2,2.4,0.1c1.2-0.1,2.4-0.4,3.5-0.8l0,0c1.2-0.4,2.4-1,3.5-1.6
			c1.2-0.7,2.3-1.4,3.4-2.3c1.1-0.8,2.1-1.8,3-2.8c0.8-0.9,1.6-1.8,2.2-2.8l0.3-0.5c1-1.6,1.7-3.4,2.1-5.2l0,0
			c0.3-1.5,0.5-3,0.6-4.6c0.1-1.4,0-2.9-0.2-4.3c-0.2-1.1-0.4-2.1-0.8-3.1c-0.3-0.8-0.8-1.6-1.3-2.4c-0.4-0.5-0.8-1.1-1.3-1.5
			c-0.2-0.3-0.5-0.6-0.9-0.9s-0.8-0.8-1.4-1.2s-1.2-1-2-1.5s-1.5-1.1-2.2-1.8l0,0c-1.3-1.1-2.6-2.1-4.1-2.9
			c-1.5-0.8-3.1-1.5-4.8-1.9l0,0c-1-0.2-1.9-0.4-2.9-0.5c-0.9-0.1-1.8-0.1-2.8,0c-0.9,0.1-1.8,0.3-2.6,0.6c-0.7,0.2-1.3,0.5-1.9,0.9
			c-0.4,0.2-0.7,0.5-1.1,0.7c-0.5,0.4-1,0.9-1.4,1.5l0,0c-0.6,0.7-1.1,1.5-1.7,2.3l0,0c-1.3,1.9-2.6,3.9-3.8,5.9l-4.7,8L826,485.7z"
			/>
		<path class="st25" d="M829.8,490.7c0,0,6,2.5,7.3,4.7s5.6,7.5,6.2,7.6c0.9-0.1,1.8-0.3,2.7-0.5c0,0,3.6-3.9,4.8-6.4s2.6-5.2,1.4-8
			s-2.4-6.7-4.2-7.2c-3-0.6-6.1-0.5-9.1,0.3c-1.6,0.5-3,1.2-4.4,2.1C833.7,483.9,828.4,490.3,829.8,490.7L829.8,490.7z"/>
		<path d="M829.1,490.6L829.1,490.6l0.2,0.1l0.7,0.3c0.8,0.3,1.6,0.7,2.3,1.1c1.1,0.7,2.2,1.5,3.1,2.5c0.7,0.8,1.3,1.6,1.7,2.6
			c0.5,1.2,1.3,2.3,2.1,3.3c0.6,0.7,1.3,1.4,2.1,2c0.5,0.4,1.2,0.8,1.8,1c0.3,0.1,0.6,0.2,0.9,0.2c0.5,0.1,1,0.1,1.5,0
			c0.6-0.1,1.1-0.5,1.4-0.9c0.1-0.2,0.3-0.4,0.6-0.6s0.6-0.7,1-1.1c0.9-1,1.7-2,2.3-3.2l0,0c0.5-0.7,0.8-1.5,1.2-2.3
			c0.3-0.6,0.5-1.3,0.6-2c0.1-0.4,0.1-0.7,0.2-1.1c0-0.3,0.1-0.9,0.2-1.6c0.1-0.9,0.1-1.7,0-2.6c-0.1-1.2-0.5-2.4-1-3.4
			c-0.6-1.1-1.3-2.1-2.2-2.9c-0.7-0.8-1.5-1.4-2.4-1.9c-0.6-0.4-1.2-0.6-1.9-0.8c-1.7-0.4-3.4-0.4-5,0.1c-0.9,0.2-1.7,0.6-2.5,1l0,0
			c-0.8,0.4-1.6,0.9-2.3,1.5c-0.7,0.6-1.3,1.2-1.8,1.9c-0.1,0.2-0.2,0.4-0.3,0.6c0,0.1,0,0.2,0,0.2c0.3-0.1,0.6-0.3,0.9-0.5
			c0.6-0.4,1.2-0.8,1.8-1.1c0.8-0.4,1.7-0.7,2.5-0.9c0.7-0.2,1.4-0.3,2.1-0.4c0.7-0.1,1.3,0,2,0.1c1.1,0.2,2.2,0.6,3.2,1.1
			c0.7,0.3,1.3,0.6,1.9,1c0.8,0.6,1.6,1.3,2.3,2.1c0.6,0.7,1.1,1.6,1.3,2.5c0.2,0.9,0.3,1.8,0.3,2.7c0,0.7-0.2,1.4-0.4,2l0,0
			c-0.2,0.5-0.5,1-0.8,1.5c-0.4,0.7-0.9,1.4-1.5,2.1l0,0c-0.8,0.9-1.6,1.8-2.5,2.5l0,0l-1.1,0.9c-0.3,0.2-0.6,0.5-0.8,0.8l0,0
			c-0.1,0-0.2,0-0.4,0c-0.6-0.2-1.1-0.4-1.6-0.8c-0.8-0.6-1.6-1.2-2.3-1.9c-0.6-0.6-1.2-1.2-1.7-1.9c-0.8-1.1-1.7-2.1-2.8-2.9
			c-1-0.7-2.2-1.4-3.4-1.9c-0.8-0.3-1.7-0.6-2.5-0.8l-0.7-0.2l0,0L829.1,490.6L829.1,490.6L829.1,490.6z"/>
		<path d="M845,470.4c-0.5-0.1-1-0.5-1.1-1c-0.3-0.6-0.4-1.3-0.5-2c0-0.1,0-0.2,0-0.3c0-0.7,0-1.4,0.2-2.1c0.1-0.3,0.2-0.6,0.4-0.8
			c0.1-0.2,0.3-0.4,0.6-0.5c0.3-0.1,0.5-0.1,0.8,0c0.3,0.1,0.6,0.3,0.8,0.6c0.3,0.3,0.5,0.7,0.7,1.1c0.2,0.5,0.3,1,0.3,1.6
			c0,0.1,0,0.3,0,0.4l0,0c0,0.8-0.3,1.7-0.8,2.3C846.1,470.2,845.6,470.5,845,470.4L845,470.4z"/>
		<path d="M850,470.8c-0.4-0.2-0.6-0.8-0.6-1.6c0.1-0.9,0.3-1.9,0.6-2.7l0,0c0.1-0.2,0.2-0.5,0.3-0.7c0.4-1,0.9-2,1.5-2.8
			c0.2-0.3,0.5-0.6,0.8-0.8c0.2-0.2,0.5-0.3,0.8-0.3c0.3,0.1,0.5,0.2,0.7,0.5c0.2,0.4,0.3,0.8,0.4,1.2c0.1,0.6,0.1,1.1,0,1.7
			c-0.1,0.7-0.3,1.3-0.5,2c-0.1,0.3-0.2,0.5-0.4,0.8l0,0c-0.4,0.9-1.1,1.7-1.8,2.4C851.1,470.8,850.5,471,850,470.8L850,470.8z"/>
		<path class="st27" d="M770.7,514.7c0.9-0.8,1.9-4.4,1.9-2.6c0,1.8,0.3,4.6-0.5,5.8c-0.7,1-5.2,1.2-5.2-0.6
			S769.7,515.6,770.7,514.7L770.7,514.7z"/>
		<path d="M768.4,505.7c-2.2,0-3.8,1.6-3.8,5.1c0,3.4,1.5,7.1,3.8,7.4c2.4,0.4,4.1-2.6,4-6.2C772.3,508.5,770.6,505.7,768.4,505.7z"
			/>
		<path class="st29" d="M766.4,510.7c0.4,0.3,1.5-0.9,2-1.5s0.5-1.5,0.1-1.8s-1.1,0-1.6,0.7S766,510.4,766.4,510.7L766.4,510.7z"/>
		<path class="st31" d="M768.3,506.7c-1.6,0.2-3.1-0.7-3.5-2.2"/>
		<path class="st25" d="M783.6,524.2c1.1,2.3,5.1,9.6,6.5,12.5c0.3,0.7,5.7,5.9,6.1,6.6c8.3,16.8,11.3,30.9-8,39.3
			c-25.2,0.6-41.4-28.5-38.4-46.5c0,0,1.5-6.5,6.3-9c3.9-2,10.9-2.9,26-3.1"/>
		<path class="st20" d="M793.8,542.3c7.9,15.1,8.4,32.9-8.5,40.1c1.5,0.2,3,0.2,4.4,0.2c18.2-10.3,12.3-22.8,6.4-38.6L793.8,542.3z"
			/>
		<path class="st28" d="M750.8,545.2c1.2,1.9,1.6,1.2,1.8,3.3c0.3,2.2,2.3,10.7,7,15.7l0.1-0.9l-5.2-15L750.8,545.2z"/>
		<path d="M754.8,530.9c-4.2,0-9.7,4.9-7.5,9c1.5,3,4.4,8.6,7.5,9s5.4-5.7,7.5-9C764.8,536.1,759,530.9,754.8,530.9z"/>
		<path class="st28" d="M751.8,531.2c-0.7,1.3-1.3,2.8-1.7,4.2c-3,17.9,13.2,47.1,38.4,46.5c5-2.2,8-5.3,9.6-9
			c-2,3.4-5.2,6.1-8.9,7.5c-25.2,0.6-41.4-28.5-38.4-46.5C751.1,533,751.5,532.1,751.8,531.2L751.8,531.2z"/>
		<path d="M784,524.3c0.9,2.1,1.8,4.1,2.7,6c0.8,1.8,1.8,3.6,2.8,5.4c1.1,1.7,2.3,3.3,3.7,4.8c1.3,1.4,2.4,3.1,3.2,4.8
			c0.8,1.8,1.6,3.7,2.2,5.6c0.5,1.6,0.9,3.3,1.2,5c0.3,1.9,0.5,3.9,0.5,5.9c0,1.6-0.1,3.1-0.4,4.7c-0.3,1.5-0.7,2.9-1.3,4.3
			c-0.5,1.1-1,2.2-1.7,3.2c-0.2,0.4-0.5,0.8-0.8,1.2c-0.9,1.2-2,2.3-3.1,3.2c-1.5,1.1-3.2,2.1-4.9,2.8c-1.4,0.1-2.8,0-4.2-0.1
			c-1.4-0.1-2.9-0.4-4.3-0.8c-2.7-0.7-5.3-1.7-7.8-3c-1.6-0.9-3.2-1.9-4.6-3c-1.3-1-2.2-1.8-2.9-2.4c-0.8-0.7-1.5-1.5-2.2-2.3
			c-1-1.2-2-2.4-2.9-3.8c-3.2-4.6-5.5-9.7-6.8-15.2c-0.3-1.4-0.6-2.8-0.8-4.1c-0.2-1.3-0.3-2.6-0.4-3.9c-0.1-2.1,0-4.2,0.4-6.3l0,0
			v-0.2c0.1-0.2,0.1-0.5,0.2-0.7c0.2-0.7,0.5-1.2,0.6-1.7c0.1-0.2,0.2-0.4,0.3-0.6c0.4-0.9,1-1.8,1.6-2.6c0.7-1,1.6-1.7,2.7-2.3
			c1.3-0.7,2.7-1.2,4.1-1.6c1.5-0.4,3.1-0.8,4.7-1.1c2.6-0.5,5.3-0.8,8-1.1s5.2-0.3,7.5-0.4c1.6,0,2.2-0.1,2-0.2
			c-0.9-0.2-1.9-0.4-2.8-0.4c-1.6-0.1-3.8-0.3-6.4-0.3c-2.9,0-5.7,0.1-8.6,0.4c-1.6,0.2-3.3,0.4-4.9,0.8c-1.7,0.4-3.3,0.9-4.8,1.6
			l0,0c-1.3,0.6-2.5,1.5-3.5,2.6c-0.9,1-1.7,2.1-2.3,3.3c-0.5,0.9-0.8,1.8-1.2,2.7c-0.1,0.3-0.2,0.6-0.3,0.9l0,0l-0.1,0.3l0,0v0.1
			l0,0l0,0c-0.2,1-0.3,2.1-0.3,3.1c0,2.1,0.1,4.2,0.5,6.3c0.4,2.1,0.9,4.1,1.5,6.1c0.9,2.9,2.1,5.7,3.6,8.3
			c2.3,4.3,5.2,8.2,8.6,11.7c1.3,1.3,2.5,2.4,3.5,3.3c1.6,1.4,3.4,2.8,5.2,3.9c2.4,1.5,5,2.7,7.7,3.5c3.2,1,6.5,1.5,9.8,1.5
			c1.9-0.6,3.8-1.5,5.4-2.6c1.7-1.1,3.2-2.5,4.5-4l0,0c1.2-1.5,2.2-3.2,2.9-5c0.6-1.6,1.1-3.3,1.3-5c0.3-2.1,0.4-4.1,0.2-6.2
			c-0.2-1.7-0.5-3.5-0.9-5.2c-0.4-1.8-1-3.6-1.6-5.3c-0.7-1.9-1.6-3.8-2.5-5.6l0,0c-1-1.8-2.3-3.4-3.7-4.9c-1.4-1.4-2.7-2.9-3.9-4.5
			c-1-1.5-1.8-2.9-2.5-4.3s-1.3-2.5-1.8-3.5C784.7,525.5,784,524.3,784,524.3L784,524.3z"/>
		<path class="st30" d="M754.7,547.9c0,0-0.3,6.9,5.6,14.2"/>
		<path class="st32" d="M762.5,561.3c-2,0.6-3.1,2.6-2.5,4.6c0.5,2.1,2.2,1.7,4.1,1.3c1.9-0.5,3.3-0.9,2.8-2.9
			C766.4,562.2,764.5,560.9,762.5,561.3z"/>
		<path class="st33" d="M768.9,546.8c-0.7,0-1.2,0.6-1.2,1.3c0,0,0,0,0,0c0,0.7,0.2,1,0.9,1s1.3-0.2,1.3-1S769.6,546.8,768.9,546.8
			L768.9,546.8z"/>
		<path class="st33" d="M776.5,542.9c-1.2,0-1.8,1.1-1.8,2.4s0.5,1.6,1.7,1.6s2.3-0.4,2.3-1.7C778.7,544,777.7,543,776.5,542.9
			C776.5,542.9,776.5,542.9,776.5,542.9L776.5,542.9z"/>
		<path class="st33" d="M774.1,551.4c-0.9,0-1.6,0.8-1.6,1.7c0,0,0,0,0,0c-0.1,0.8,0.5,1.5,1.3,1.5c0.1,0,0.1,0,0.2,0
			c0.7,0.1,1.4-0.5,1.4-1.2c0-0.1,0-0.2,0-0.3C775.4,552.2,775,551.4,774.1,551.4L774.1,551.4z"/>
		<path class="st29" d="M755.9,533.4c-1.2,0-2.3,0-2.3,1.2s1.1,1.1,2.3,1.1s4,2.3,4,1.1S757.1,533.4,755.9,533.4L755.9,533.4z"/>
	</g>
	<g id="g4371">
		<path class="st28" d="M763.5,647.3l-0.1,0.1c-0.2,0.1-0.5,0.2-0.8,0.2l-1.1,0.3l-1.1,0.3c-0.2,0-0.4,0.1-0.7,0.2
			c-0.2,0.1-0.4,0.2-0.6,0.4l-0.3,0.3c-0.1,0.1-0.2,0.2-0.3,0.3c-0.6,0.3-1.3,0.7-1.8,1.1c-0.2,0.1-0.2,0.1-0.1,0.2
			c0.2,0,0.4,0,0.5-0.1c0.5-0.1,1.3-0.3,2-0.5c0.3-0.1,0.6-0.3,0.9-0.5l0.4-0.3l0,0c0.1-0.1,0.3-0.2,0.4-0.2l0.9-0.5
			c0.6-0.3,1.2-0.6,1.7-0.8c0.1-0.1,0.3-0.1,0.4-0.2C764.7,647.2,764.4,646.7,763.5,647.3L763.5,647.3z"/>
		<path d="M763.4,647l-0.1,0.1c-0.4,0.2-1.4,0.5-2.3,0.8c-0.6,0.2-1.2,0.4-1.7,0.7l-0.8,0.5l-1,0.6c-0.3,0.2-0.6,0.4-0.9,0.6
			s-0.1,0.2,0,0.2c0.2,0,0.4-0.1,0.6-0.1l1-0.3c0.4-0.1,0.7-0.2,1.1-0.3c0.5-0.1,1-0.4,1.5-0.6l0.9-0.6c0.6-0.4,1.2-0.8,1.9-1.1
			l0.4-0.2c0.1,0,0.2-0.1,0.3-0.1c0.1,0,0.1-0.1,0.1-0.1c0,0,0,0,0-0.1c0,0,0-0.1-0.1-0.1h-0.1c-0.1,0-0.2,0-0.2,0
			C763.7,646.8,763.5,646.9,763.4,647L763.4,647z"/>
		<path d="M763.2,650.8L763.2,650.8c-0.5-0.4-0.9-0.9-1.3-1.4c-0.3-0.4-0.6-0.8-1-1.2c-0.3-0.3-0.6-0.6-0.9-0.9
			c-0.3-0.3-0.6-0.7-0.8-1.1c-0.1-0.2-0.2-0.1-0.2,0c-0.1,0.3-0.1,0.6,0,0.8c0.1,0.4,0.2,0.8,0.4,1.1c0.2,0.4,0.4,0.7,0.8,0.9l1,0.7
			c0.7,0.5,1.3,0.9,1.7,1.2c0.1,0.1,0.2,0.1,0.2,0.2c0.1,0.1,0.1,0.1,0.2,0.2c0.1,0,0.1,0.1,0.2,0.1h0.1c0,0,0.1,0,0.1-0.1
			c0,0,0,0,0,0c0-0.1,0-0.1,0-0.1C763.5,651,763.3,650.9,763.2,650.8L763.2,650.8z"/>
	</g>
	<path class="st19" d="M761.7,640.1c13.8-2.2,26.1,12,25.7,28.9c-0.3,17.5-14,32-25.4,29.9c-8-1.5-16-3.5-19-14.1
		c-1-3.6-1.6-11.9-1.2-16.6C743.3,651.9,750.9,641.8,761.7,640.1z"/>
	<path class="st27" d="M778.5,689c-5.5,10.9-8.2,9.8-17.3,9.5c-6.7-1.2-13.5-2.8-17.3-9.7c3.7,7.3,10.6,9,17.5,10.3
		C769.7,697.1,772.9,696.7,778.5,689L778.5,689z"/>
	<path d="M777.2,691.8c-0.8,1.3-1.8,2.5-2.9,3.5c-1,0.9-2.2,1.7-3.5,2.2c-1.8,0.7-3.7,1-5.6,0.9c-2.5-0.1-4.9-0.4-7.3-1
		c-1.9-0.5-3.7-1.3-5.4-2.3c-1-0.6-1.9-1.3-2.7-2.1c-0.7-0.7-1.4-1.4-2-2.2c-0.8-1.1-1.5-2.2-2-3.4c-0.4-1-0.8-2-1.1-3
		c-0.2-0.5-0.3-1.1-0.4-1.6s-0.2-1-0.3-1.6c-0.2-1.2-0.4-2.7-0.6-4.3c-0.3-2.8-0.4-5.6-0.3-8.4c0.1-1.8,0.4-3.7,0.7-5.4
		c0.3-1.7,0.7-3.3,1.2-4.9c0.4-1.3,0.9-2.6,1.4-3.9c0.5-1.1,0.9-2,1.2-2.6c0.7-1.3,1.5-2.5,2.4-3.6c0.9-1.1,1.9-2.1,2.9-3
		c1.2-1.1,2.6-2,4-2.7l0,0c1.3-0.6,2.6-1.1,4-1.4c1.4-0.3,2.8-0.4,4.2-0.4l0,0c1.5,0.1,3.1,0.3,4.5,0.8c1.2,0.4,2.4,0.9,3.5,1.6
		c0.8,0.5,1.7,1,2.4,1.6c0.7,0.5,1.4,1.1,2.1,1.7c0.8,0.8,1.6,1.7,2.4,2.6c1,1.3,1.9,2.6,2.7,4c0.8,1.5,1.5,3.1,2.1,4.8
		c0.6,1.7,1,3.4,1.3,5.1c0.3,1.6,0.5,3.2,0.5,4.8c0,0.5,0,1,0.1,1.5c0,0.2,0.1,0.1,0.2-0.2c0.3-1.5,0.5-3,0.4-4.5
		c0-2.8-0.4-5.5-1-8.2c-0.4-1.6-1-3.1-1.6-4.6c-0.7-1.5-1.5-3-2.5-4.4l0,0c-1-1.5-2.2-2.9-3.5-4.1c-1.2-1.1-2.6-2.1-4-2.9
		c-0.6-0.3-1.2-0.6-1.8-0.8c-2.5-1-5.2-1.4-7.8-1.3l0,0c-1.6,0.1-3.2,0.4-4.8,0.8c-1.5,0.5-2.9,1.1-4.3,1.9c-1.4,0.9-2.8,1.9-4,3.1
		c-1.1,1.1-2.1,2.2-3,3.5c-1.4,1.9-2.6,3.9-3.6,6c-0.9,1.8-1.7,3.7-2.4,5.6c-0.4,1.3-0.9,2.7-1.3,4.3s-0.7,3.2-0.9,5
		c-0.2,1.5-0.3,2.9-0.3,4.4c0,1.5,0,3,0.1,4.5s0.2,3.1,0.4,4.5c0.2,1.2,0.4,2.5,0.8,3.7c0.4,1.4,1,2.7,1.7,4
		c0.6,1.1,1.3,2.2,2.1,3.1c0.6,0.7,1.2,1.3,1.9,1.9c1.2,1,2.4,1.8,3.8,2.5c1,0.5,2,0.9,3,1.2c1.1,0.4,2.3,0.7,3.4,0.9
		c2.4,0.4,4.9,0.6,7.3,0.5c1,0,2.1-0.2,3.1-0.4c1-0.2,1.9-0.6,2.8-1c1.1-0.5,2.1-1.2,2.9-2c0.7-0.6,1.3-1.3,1.9-2.1
		c0.4-0.5,0.7-1,1-1.6c0.2-0.4,0.3-0.6,0.3-0.6L777.2,691.8z"/>
	<path class="st25" d="M747,692.7c1.8,2.5,4.4,2.6,6.8,0.4c3.6-3.3,5.5-11.7,4.4-18.4s-4.7-12-8.3-8.7s-5.9,13.8-4.7,20.5
		C745.5,688.9,746.1,691.4,747,692.7L747,692.7z"/>
	<path d="M746.4,692.6c0.4,0.6,1,1.2,1.6,1.6c0.6,0.4,1.3,0.7,2.1,0.9c0.8,0.1,1.7,0,2.5-0.4c0.7-0.3,1.3-0.7,1.8-1.2
		c0.6-0.5,1.1-1.1,1.6-1.8c0.4-0.6,0.8-1.1,1.1-1.7c0.4-0.8,0.8-1.7,1.2-2.5c0.3-0.8,0.5-1.5,0.7-2.2c0.3-1.1,0.6-2.1,0.8-3.2
		c0.2-0.8,0.3-1.6,0.3-2.5c0.1-0.7,0.1-1.5,0-2.2c-0.1-1-0.2-2-0.5-3c-0.3-1.6-0.8-3.2-1.5-4.7c-0.3-0.7-0.7-1.4-1.2-2.1
		c-0.4-0.6-0.8-1.1-1.3-1.6c-0.3-0.4-0.7-0.7-1.1-0.9c-0.3-0.2-0.6-0.4-1-0.5c-0.3-0.1-0.6-0.2-0.9-0.3c-0.5-0.1-1.1,0-1.6,0.1
		c-0.6,0.2-1.2,0.5-1.7,0.9c-0.6,0.5-1.1,1.1-1.6,1.7c-0.5,0.7-0.9,1.3-1.3,2.1c-0.5,0.9-0.9,1.8-1.3,2.8c-0.4,0.9-0.7,1.8-0.9,2.7
		c-0.4,1.1-0.6,2.3-0.7,3.5c0,0.9-0.1,2.2-0.1,3.7c0,1.7,0.2,3.3,0.5,4.9c0.3,0.9,0.6,1.8,0.9,2.6c0.4,0.8,0.8,1.6,1.3,2.3
		c0.2,0.2,0.3,0.5,0.5,0.7h0c-0.3-0.6-0.5-1.2-0.7-1.9c-0.2-0.6-0.3-1.2-0.3-1.8c-0.1-0.7-0.1-1.5,0-2.2c0-0.9,0.1-1.8,0.2-2.7
		s0.2-1.8,0.3-2.7c0.3-1.8,0.6-3.4,0.7-4.7c0-0.3,0-0.7,0.1-1c0.2-1.8,0.6-3.6,1.1-5.3c0.2-0.7,0.5-1.4,0.8-2
		c0.3-0.6,0.7-1.1,1.1-1.6c0.3-0.3,0.7-0.6,1.1-0.8c0.4-0.2,0.8-0.2,1.2-0.2c0.3,0,0.6,0.1,0.9,0.3c0.2,0.1,0.5,0.3,0.7,0.5
		c0.2,0.2,0.4,0.5,0.6,0.7c0.3,0.4,0.6,0.9,0.8,1.4c0.3,0.6,0.6,1.2,0.8,1.9c0.2,0.7,0.4,1.5,0.6,2.3c0.2,0.8,0.3,1.7,0.4,2.5
		c0.2,1.9,0.2,3.8,0,5.6c-0.2,1.7-0.5,3.2-0.6,4.3v0.3c-0.2,1.4-0.5,2.8-0.9,4.2c-0.4,1.3-1,2.4-1.8,3.5c-0.4,0.5-1,1-1.6,1.3
		c-0.6,0.3-1.2,0.5-1.9,0.5c-0.6,0-1.2-0.2-1.7-0.4c-0.4-0.2-0.8-0.4-1.2-0.7c-0.2-0.2-0.5-0.4-0.7-0.6L746.4,692.6L746.4,692.6z"/>
	<path class="st34" d="M750.8,646.4c-1,2.1-1.5,4.3-1.6,6.5c-0.4,3.9,0.3,6.6,1.8,6s3.3-3.7,3.7-7.6s-0.9-7-2.3-6.5
		C751.6,645.1,751.1,645.7,750.8,646.4L750.8,646.4z"/>
	<path class="st34" d="M761.3,646.4c-0.9,0.6-1.7,2.5-2.3,4.7c-1,3.3-1.1,6.5-0.1,7.3s2.8-0.5,3.9-3.8s0.9-7.4-0.2-8.3
		C762.2,646.1,761.7,646.1,761.3,646.4L761.3,646.4z"/>
	<path class="st34" d="M767,656.3c-0.8,0.4-1.5,2-2.1,3.8c-0.9,2.8-1.1,5.6-0.3,6.5s2.4-0.1,3.4-2.9s0.9-6.4,0-7.3
		C767.8,656.1,767.4,656,767,656.3z"/>
	<path d="M760,642.1h0.4c0.4,0,0.8,0.1,1.2,0.2l0,0c2.4,0.5,4.6,1.8,6.1,3.8c0.6,0.7,1,1.5,1.4,2.3c0.4,1,0.8,2,1,3
		c0.2,0.8,0.3,1.6,0.4,2.4c0.1,0.7,0.1,1.3,0.1,1.9s0,1.1,0,1.6c0,0.1,0,0.1,0,0.2c0,1.3,0.2,3.4,0.3,5.7s0.2,4.8,0.1,6.8
		c0,1.5,0,2.7,0,3.3c-0.1,1.3-0.3,2.6-0.7,3.9c-0.5,2-1,3.9-1.7,5.8c-0.5,1.5-1.1,2.8-1.5,4s-0.9,2-1.1,2.5c-0.5,1.3-1.2,2.6-2,3.8
		c-0.8,1.3-1.9,2.3-3.1,3.2c-1,0.7-2.1,1.1-3.3,1.3c-0.5,0.1-0.7,0.2-0.7,0.2s0.2,0.2,0.6,0.3c0.6,0.1,1.1,0.1,1.7,0.1
		c0.9-0.1,1.7-0.3,2.5-0.6c0.8-0.3,1.5-0.7,2.2-1.2c0.8-0.5,1.4-1.1,2.1-1.8c0.9-1,1.7-2.1,2.4-3.2c0.6-1,1-2,1.3-3.1
		c0.4-1.6,0.8-3.2,1-4.8c0.4-2.3,0.6-4.7,0.8-6.7s0.3-3.7,0.5-4.8c0.1-0.5,0.2-1.2,0.3-2.1c0.2-1.5,0.5-3.6,0.7-5.8s0.3-4.7,0.3-6.8
		c0-1.2-0.1-2.5-0.3-3.7c-0.1-0.9-0.4-1.8-0.7-2.7c-0.5-1.2-1.1-2.4-1.8-3.5c-0.6-0.9-1.4-1.8-2.2-2.5c-0.8-0.7-1.8-1.4-2.8-1.9
		c-0.7-0.4-1.5-0.6-2.3-0.8c-0.6-0.2-1.3-0.3-1.9-0.3c-0.4,0-0.8,0-1.3,0L760,642.1l-0.1,0L760,642.1z"/>
	<path d="M781.2,649.3L781.2,649.3L781.2,649.3l0.4-0.1l0,0l1.1-0.3c1.4-0.3,2.6-0.6,3.7-0.8c1.8-0.3,3.1-0.5,4.2-0.7
		c0.7-0.1,1.3-0.1,1.8-0.1s0.9,0,1.3,0h0.5c0.5,0,1.4-0.1,2.5-0.2s2.4-0.1,3.8-0.1c1.3,0,2.6,0.1,3.9,0.3c0.6,0.1,1.2,0.2,1.8,0.4
		c0.5,0.2,0.9,0.4,1.3,0.7c-0.2-0.3-0.4-0.5-0.7-0.7c-0.3-0.2-0.6-0.5-0.9-0.7c-0.4-0.2-0.8-0.5-1.3-0.7c-1.3-0.5-2.6-0.9-4-1.2
		c-1.2-0.3-2.5-0.4-3.7-0.5c-1.1-0.1-2.3-0.1-3.4-0.1c-0.7,0-1.3,0.1-2,0.2c-0.4,0.1-0.8,0.2-1.2,0.3l-0.2,0.1c-1,0.4-2.5,1.1-4,1.8
		c-1.3,0.6-2.5,1.2-3.5,1.7l-1.1,0.5L781.2,649.3L781.2,649.3L781.2,649.3L781.2,649.3z"/>
	<path d="M840.2,651.4c1.6-1,3-1.9,4.2-2.6l0,0c0.6-0.2,1.2-0.4,1.9-0.5c0.5-0.1,1-0.1,1.5,0c0.7,0.1,1.3,0.3,1.8,0.7
		c0.4,0.3,0.7,0.6,1,1c0.1,0.2,0.3,0.4,0.3,0.7c0.1,0.2,0.2,0.4,0.2,0.7l0.1,0.3c0.1,0.3,0.1,0.7,0.2,1c0,0.4,0.1,0.9,0.1,1.3
		c0,1.1-0.2,2.2-0.5,3.3c-0.3,1-0.6,1.9-1,2.9c-0.2,0.4-0.3,0.7-0.4,0.9c-0.4,0.7-0.9,1.4-1.5,2c-0.8,0.9-1.8,1.8-2.8,2.5
		c-0.8,0.6-1.7,1.2-2.7,1.7c-0.8,0.4-1.4,0.7-1.7,0.9c-0.3,0.2-0.6,0.3-0.9,0.4l-1.5,0.5c-0.5,0.2-1.1,0.4-1.6,0.5
		c-0.5,0.1-1.1,0.2-1.6,0.3c-0.5,0-1-0.1-1.4-0.2c-0.1,0-0.2-0.1-0.3-0.1l0,0c0-0.1-0.1-0.1-0.2-0.1l0,0c-0.1,0-0.2,0.1-0.2,0.3
		c-0.1,0.1-0.1,0.2,0,0.4c0.1,0.2,0.2,0.3,0.4,0.5c0.4,0.3,0.9,0.6,1.4,0.8c0.6,0.2,1.3,0.4,1.9,0.4c0.7,0.1,1.4,0.1,2.1,0
		c0.7-0.1,1.3-0.2,2-0.3c1.1-0.2,2.1-0.7,2.9-1.3c1.1-0.9,2.1-1.9,3-3c0.9-1.1,1.7-2.4,2.5-3.6c0.7-1.1,1.2-2,1.6-2.7l0.1-0.2
		c0.5-0.8,1-1.6,1.5-2.4c0.7-1.3,1.1-2.6,1.4-4c0.2-1.1,0.2-2.2,0-3.2c-0.2-1.1-0.7-2-1.4-2.9c-0.5-0.6-1.2-1.1-2-1.4
		c-0.9-0.3-1.8-0.5-2.7-0.4c-0.7,0.1-1.4,0.2-2.1,0.5c-0.7,0.3-1.3,0.6-1.9,1c-2,1.8-3.8,3.5-3.8,3.5L840.2,651.4z"/>
	<path d="M738.8,637.7c1.8-0.2,3.5-0.2,5.3-0.1c1.8,0.1,2.7,0.3,3.5,0.3c0.2,0,0.4,0,0.6,0c0.9-0.1,1.8-0.2,2.7-0.4
		c0.5-0.1,1-0.2,1.4-0.4c0.5-0.1,0.9-0.3,1.3-0.4c0.5-0.1,1-0.2,1.6-0.2c0.5,0,0.9,0.1,1.3,0.2c-0.2-0.2-0.5-0.4-0.7-0.5
		c-0.7-0.4-1.4-0.6-2.2-0.7c-0.5-0.1-1-0.1-1.4-0.1s-1,0-1.4-0.1c-0.9-0.1-1.8-0.2-2.7-0.2c-1-0.1-1.9-0.1-2.9,0.1l-1.1,0.4
		C742,636.4,738.8,637.7,738.8,637.7L738.8,637.7z"/>
</g>
</svg>
