<?xml version="1.0" encoding="utf-8"?>
<!-- Generator: Adobe Illustrator 20.0.0, SVG Export Plug-In . SVG Version: 6.00 Build 0)  -->
<svg version="1.1"
	 id="svg16054" inkscape:version="0.91 r13725" sodipodi:docname="quiz1.svg" xmlns:cc="http://creativecommons.org/ns#" xmlns:dc="http://purl.org/dc/elements/1.1/" xmlns:inkscape="http://www.inkscape.org/namespaces/inkscape" xmlns:rdf="http://www.w3.org/1999/02/22-rdf-syntax-ns#" xmlns:sodipodi="http://sodipodi.sourceforge.net/DTD/sodipodi-0.dtd" xmlns:svg="http://www.w3.org/2000/svg"
	 xmlns="http://www.w3.org/2000/svg" xmlns:xlink="http://www.w3.org/1999/xlink" x="0px" y="0px" viewBox="0 0 1700.8 949.6"
	 style="enable-background:new 0 0 1700.8 949.6;" xml:space="preserve">
<style type="text/css">
	.st0{fill:#FFFFFF;}
	.st1{fill:#6B3C1F;}
	.st2{fill:none;stroke:#000000;}
	.st3{fill:#6B3C1F;stroke:#000000;stroke-linejoin:round;}
	.st4{fill:url(#SVGID_1_);stroke:#000000;}
	.st5{fill:#8D5027;stroke:#000000;}
	.st6{fill:url(#SVGID_2_);stroke:#000000;}
	.st7{fill:url(#SVGID_3_);}
	.st8{fill:#D28C5F;stroke:#000000;}
	.st9{fill:url(#SVGID_4_);stroke:#000000;}
	.st10{fill:url(#SVGID_5_);stroke:#000000;}
	.st11{fill:url(#SVGID_6_);stroke:#000000;}
	.st12{fill:url(#SVGID_7_);stroke:#000000;}
	.st13{fill:url(#SVGID_8_);stroke:#000000;stroke-width:1.02;}
	.st14{fill:url(#SVGID_9_);stroke:#000000;}
	.st15{fill:#855B3E;}
	.st16{fill:none;stroke:#000000;stroke-width:1.02;}
	.st17{fill:#A05B2B;stroke:#000000;stroke-width:1.02;}
	.st18{fill:#6C5353;stroke:#000000;stroke-width:1.02;}
	.st19{fill:#906F6F;stroke:#000000;stroke-width:1.02;}
	.st20{fill:#A06121;}
	.st21{fill:#6E4A25;}
	.st22{fill:#956C45;stroke:#000000;stroke-width:3;}
	.st23{fill:#B8854F;}
	.st24{fill:#834317;}
	.st25{fill:#5D381E;}
	.st26{fill:none;stroke:#000000;stroke-width:5;}
	.st27{fill:#DDCEBE;}
	.st28{stroke:#000000;stroke-width:5;}
	.st29{fill:#834317;stroke:#000000;stroke-width:3;}
	.st30{fill:url(#SVGID_10_);}
	.st31{fill:url(#SVGID_11_);}
</style>
<defs>
	
	<inkscape:path-effect  effect="spiro" id="path-effect5341" is_visible="true"></inkscape:path-effect>
	<inkscape:path-effect  effect="spiro" id="path-effect17606" is_visible="true"></inkscape:path-effect>
	<inkscape:path-effect  effect="spiro" id="path-effect16830" is_visible="true"></inkscape:path-effect>
	<inkscape:path-effect  effect="spiro" id="path-effect16826" is_visible="true"></inkscape:path-effect>
	<inkscape:path-effect  effect="spiro" id="path-effect16822" is_visible="true"></inkscape:path-effect>
	<inkscape:path-effect  effect="spiro" id="path-effect16818" is_visible="true"></inkscape:path-effect>
	<inkscape:path-effect  effect="spiro" id="path-effect16814" is_visible="true"></inkscape:path-effect>
	<inkscape:path-effect  effect="spiro" id="path-effect16810" is_visible="true"></inkscape:path-effect>
	<inkscape:path-effect  effect="spiro" id="path-effect16806" is_visible="true"></inkscape:path-effect>
	<inkscape:path-effect  effect="spiro" id="path-effect16802" is_visible="true"></inkscape:path-effect>
	<inkscape:path-effect  effect="spiro" id="path-effect16798" is_visible="true"></inkscape:path-effect>
	<inkscape:path-effect  effect="spiro" id="path-effect16794" is_visible="true"></inkscape:path-effect>
	<inkscape:path-effect  effect="spiro" id="path-effect16790" is_visible="true"></inkscape:path-effect>
	<inkscape:path-effect  effect="spiro" id="path-effect16786" is_visible="true"></inkscape:path-effect>
	<inkscape:path-effect  effect="spiro" id="path-effect16782" is_visible="true"></inkscape:path-effect>
	<inkscape:path-effect  effect="spiro" id="path-effect16778" is_visible="true"></inkscape:path-effect>
	<inkscape:path-effect  effect="spiro" id="path-effect16774" is_visible="true"></inkscape:path-effect>
</defs>
<sodipodi:namedview  bordercolor="#666666" borderlayer="true" borderopacity="1.0" fit-margin-bottom="0" fit-margin-left="0" fit-margin-right="0" fit-margin-top="0" id="base" inkscape:current-layer="layer3" inkscape:cx="701.87495" inkscape:cy="334.05534" inkscape:document-units="cm" inkscape:pageopacity="0.0" inkscape:pageshadow="2" inkscape:window-height="1056" inkscape:window-maximized="1" inkscape:window-width="1855" inkscape:window-x="1985" inkscape:window-y="24" inkscape:zoom="0.35" pagecolor="#ffffff" showgrid="false" units="cm">
	</sodipodi:namedview>
<g id="layer2" inkscape:groupmode="layer" inkscape:label="background">
	<rect id="rect4177" y="-3.5" class="st0" width="1716.6" height="953.1"/>
</g>
<g>
	<g id="path3338">
		
			<image style="overflow:visible;opacity:0.75;enable-background:new    ;" width="55" height="193" xlink:href="E55F6EF6.png"  transform="matrix(0.9818 0 0 0.9948 727 477)">
		</image>
		<polygon class="st1" points="776.3,478.1 779.5,483.9 769.6,569.2 762.3,613.6 754.9,649.5 744.8,649.1 745.1,638.4 752.7,573.2 
			762,513.4 768.7,478.1 		"/>
		<polygon class="st2" points="776.3,478.1 779.5,483.9 769.6,569.2 762.3,613.6 754.9,649.5 744.8,649.1 745.1,638.4 752.7,573.2 
			762,513.4 768.7,478.1 		"/>
	</g>
	<path id="path3336" class="st3" d="M902.6,629.4l-11.8,0.9l-5.5-64.6l-4.4-44.8l-0.6-30.3h13.3l5.7,68.2l2.5,52.4L902.6,629.4z"/>
	<g id="g8412">
		
			<image style="overflow:visible;opacity:0.75;enable-background:new    ;" width="244" height="71" xlink:href="E55F6EFA.png"  transform="matrix(0.9959 0 0 0.9859 740 553)">
		</image>
		
			<linearGradient id="SVGID_1_" gradientUnits="userSpaceOnUse" x1="389.8517" y1="782.3054" x2="486.0517" y2="751.4554" gradientTransform="matrix(-1 0 0 1 1384.4399 -192.22)">
			<stop  offset="0" style="stop-color:#8D5027"/>
			<stop  offset="1" style="stop-color:#6B3C1F"/>
		</linearGradient>
		<path class="st4" d="M978.5,590.9L889.8,562c-0.8-1.7-0.9-3.7-0.4-5.5c1-2.9,4.6-2.9,4.6-2.9l37.5,10.3l49.2,18L978.5,590.9z"/>
		<path class="st5" d="M926,564.9c0,0-45.7,2.6-68.5,4.6s-72.8,9.5-72.8,9.5l3.5,3.3l-0.9,4.2c0,0,45.8-2.5,69-4.5s70.5-9,70.5-9
			c0.8-1.2,1.3-2.7,1.4-4.1C928.1,566.8,926,564.9,926,564.9L926,564.9z"/>
		
			<linearGradient id="SVGID_2_" gradientUnits="userSpaceOnUse" x1="378.1609" y1="789.5815" x2="449.4809" y2="747.0915" gradientTransform="matrix(-1 0 0 1 1209.89 -177.79)">
			<stop  offset="0" style="stop-color:#C28156"/>
			<stop  offset="1" style="stop-color:#6B3C1F"/>
		</linearGradient>
		<path class="st6" d="M807.3,603.7l-48.5-30.9c-0.8-1.7-0.9-3.7-0.4-5.5c1-2.9,4.6-2.9,4.6-2.9c9.2,5.9,12.2,7.8,20,12.5
			s26.8,15.7,26.8,15.7L807.3,603.7z"/>
	</g>
	<g id="path3332">
		
			<image style="overflow:visible;opacity:0.75;enable-background:new    ;" width="54" height="221" xlink:href="E55F6EFD.png"  transform="matrix(0.9815 0 0 0.9955 950 480)">
		</image>
		
			<linearGradient id="SVGID_3_" gradientUnits="userSpaceOnUse" x1="383.1404" y1="770.8569" x2="409.9904" y2="774.0869" gradientTransform="matrix(-1 0 0 1 1384.4399 -192.22)">
			<stop  offset="0" style="stop-color:#492A16"/>
			<stop  offset="0.49" style="stop-color:#D28C5F"/>
			<stop  offset="1" style="stop-color:#593219"/>
		</linearGradient>
		<polyline class="st7" points="991.3,680.6 1001.4,679.5 993,578.1 981.2,481.1 968,481.7 971.1,545.5 978.7,606.1 987.5,678.7 		
			"/>
		<polyline class="st2" points="991.3,680.6 1001.4,679.5 993,578.1 981.2,481.1 968,481.7 971.1,545.5 978.7,606.1 987.5,678.7 		
			"/>
	</g>
	<g id="g8390">
		
			<image style="overflow:visible;opacity:0.75;enable-background:new    ;" width="211" height="261" xlink:href="E55F6EFE.png"  transform="matrix(0.9953 0 0 0.9962 696 220)">
		</image>
		<path class="st8" d="M888.4,247.5c0,0-62.1,4.9-75.3,5.8s-80.6-0.4-80.6-0.4l6,34.6c0,0,67.3,0.6,75.3,0s75.5-6.2,75.5-6.2
			l0.6-34.1L888.4,247.5z"/>
		
			<linearGradient id="SVGID_4_" gradientUnits="userSpaceOnUse" x1="519.7304" y1="560.0242" x2="531.6505" y2="560.3442" gradientTransform="matrix(-1 0 0 1 1384.4399 -192.22)">
			<stop  offset="0" style="stop-color:#693B1D"/>
			<stop  offset="0.49" style="stop-color:#D28C5F"/>
			<stop  offset="1" style="stop-color:#563117"/>
		</linearGradient>
		<path class="st9" d="M864.3,451.2c0,0-1.2-76.5-1.2-88.9s-3.8-79.4-3.8-79.4l-4.9,0.5c0,0,1.2,82.5,1.2,97.4s2,71.1,2,71.1
			c1,0.5,2.2,0.8,3.3,0.9C862.3,452.5,863.4,452,864.3,451.2L864.3,451.2z"/>
		
			<linearGradient id="SVGID_5_" gradientUnits="userSpaceOnUse" x1="543.8502" y1="562.1377" x2="559.5702" y2="563.4277" gradientTransform="matrix(-1 0 0 1 1384.4399 -192.22)">
			<stop  offset="0" style="stop-color:#492A16"/>
			<stop  offset="0.49" style="stop-color:#D28C5F"/>
			<stop  offset="1" style="stop-color:#5B3319"/>
		</linearGradient>
		<path class="st10" d="M842.5,453.3c0,0-3.7-63-5.3-77.8s-8.8-89.6-8.8-89.6l-5,0.5l0.3,3.5c0,0,4.5,87.2,6.6,111.1s5,53.5,5,53.5
			c1.4,0.4,2.8,0.6,4.3,0.5C840.5,454.6,841.6,454,842.5,453.3L842.5,453.3z"/>
		
			<linearGradient id="SVGID_6_" gradientUnits="userSpaceOnUse" x1="571.7606" y1="563.1054" x2="585.1306" y2="564.7155" gradientTransform="matrix(-1 0 0 1 1384.4399 -192.22)">
			<stop  offset="0" style="stop-color:#5D351A"/>
			<stop  offset="0.49" style="stop-color:#D28C5F"/>
			<stop  offset="1" style="stop-color:#673A1C"/>
		</linearGradient>
		<path class="st11" d="M816,456.6c2.4-0.5,3-1.5,3-1.5s-5.7-55.3-6.9-65.9s-13.6-102.3-13.6-102.3l-4.4,0.2
			c0,0,8.9,89.7,11.4,112.3s6.6,56.4,6.6,56.4C813.2,456.6,814.7,456.9,816,456.6L816,456.6z"/>
		
			<linearGradient id="SVGID_7_" gradientUnits="userSpaceOnUse" x1="599.0897" y1="564.0224" x2="612.4597" y2="565.9324" gradientTransform="matrix(-1 0 0 1 1384.4399 -192.22)">
			<stop  offset="0" style="stop-color:#5D351A"/>
			<stop  offset="0.49" style="stop-color:#D28C5F"/>
			<stop  offset="1" style="stop-color:#5D351A"/>
		</linearGradient>
		<path class="st12" d="M791.9,459c1.1-0.6,2.1-1.3,3.1-2.1c0,0-7.2-53-9.3-64.1s-17-106.1-17-106.1l-4.3-0.1
			c0,0,12.8,101.7,14.8,119.8s7.7,52.1,7.7,52.1S790.5,459.7,791.9,459L791.9,459z"/>
		
			<linearGradient id="SVGID_8_" gradientUnits="userSpaceOnUse" x1="632.1462" y1="534.0371" x2="648.6063" y2="537.6971" gradientTransform="matrix(-1 0 0 1 1384.4399 -192.22)">
			<stop  offset="0" style="stop-color:#563117"/>
			<stop  offset="0.47" style="stop-color:#D28C5F"/>
			<stop  offset="1" style="stop-color:#4F2D17"/>
		</linearGradient>
		<path class="st13" d="M771.2,458.8c0,0-11.8-71.6-12-73s-2.7-6.1-2.7-6.1c0.8-1.4,1.2-2.9,1.1-4.5c-0.2-1.4-1.1-2.6-2.3-3.2
			c0,0,2.1-6,0.9-10.5s-13.8-55.9-14.3-58.6c-0.5-2.7,0.4-6.9,0.2-8.3c-0.1-0.8-0.8-1.4-1.6-1.5c0,0,1.4-2,1.2-3.3s-2-2.3-2-2.3
			s-1.7-12.1-2.7-18.1c-1.1-6-4.8-18.4-4.8-18.4s1.4-1,0.1-4.3s-2.4-5.4-2.8-6.3c-0.4-0.9,0.7-3.4,0.7-3.4s3.3-13-9.7-10.6
			c-13.2,2.5-1.9,13.1-1.4,14.1c1.9,3.6-1.6,3.7-0.9,9.6c0.3,2.1,2.6,3.9,2.6,3.9l1.7,18.3l4.6,18c0,0-1.3,0.2-1,2.3
			c0.2,1.1,0.7,2.2,1.5,3c-0.1,1.1,0,2.2,0.3,3.3c0.4,1.4,2.7,1.1,3,2.9s9.5,62.7,10.1,64.9s3.9,7.3,3.9,7.3
			c-1.2,0.8-1.7,2.3-1.4,3.7c0.3,1.6,1.1,3.1,2.3,4.2c0,0,1.5,17.6,2.2,21l12.5,57.6c0,0,3.9,1,5.6,0.7s5-2.5,5-2.5L771.2,458.8z"/>
		
			<linearGradient id="SVGID_9_" gradientUnits="userSpaceOnUse" x1="480.488" y1="528.788" x2="499.8981" y2="529.438" gradientTransform="matrix(-1 0 0 1 1384.4399 -192.22)">
			<stop  offset="0" style="stop-color:#4F2D17"/>
			<stop  offset="0.47" style="stop-color:#D28C5F"/>
			<stop  offset="1" style="stop-color:#4D2C16"/>
		</linearGradient>
		<path class="st14" d="M902.5,451.3c0,0-0.3-71.9-0.3-73.2s-1.8-6.7-1.8-6.7s2.7-1.3,2.2-3.6s-3.1-4-3.1-4s4.5-4.5,4-8.9
			s-4.5-54-4.5-56.7c0-2.7,2.2-5.8,2.2-7.1s-1.8-4-1.8-4s2.2-1.9,2.2-3.1s-1.9-2.4-1.9-2.4L899,246c0,0,2.7-0.7,2-4s-3.8-6.3-4-7.1
			s2.5-2,2.5-2s6.9-13.2-6.5-12.1s-4.8,12.3-4.5,13.4c1.2,3.8-1.6,2.9-1.9,8.6c-0.1,2,1.9,4.1,1.9,4.1v35.5c0,0-2.4,0.6-2.4,2.6
			c0,1.2,0.8,2.2,1.9,2.5c-0.7,0.9-1.2,2-1.3,3.2c0,1.3,2.2,2,2.2,3.8s-1.6,60.3-1.3,62.5s2.7,7.6,2.7,7.6s-2.5,1.6-2.5,4
			c0.1,1.5,0.9,3,2.2,3.8c0,0-1.8,16.8-1.7,20.1c0.3,7.4,3.3,58.7,3.3,58.7s3.5,1.8,5.4,1.9S902.5,451.3,902.5,451.3L902.5,451.3z"
			/>
		<path class="st15" d="M888.6,279.9c0,0-66.3,6.4-76.1,6.4s-72.9-0.5-72.9-0.5l0.7,1.6c0,0,66.8,0.9,74.1,0.5s74.3-6.2,74.3-6.2
			V279.9z"/>
		<path class="st16" d="M729.4,237.9c-3.6-0.5-7.2,0.1-10.5,1.6"/>
		<path class="st16" d="M732.3,250.4c0,0-8.3-0.5-12.1,2.8"/>
		<path class="st16" d="M740.5,292.8c0,0-5.4-1.4-12.5,2.2"/>
		<path class="st17" d="M741.8,298.5c0,0-7.3-2-11.8,1.7"/>
		<path class="st18" d="M754.9,371.8c0,0-8.1-0.4-10.9,1.9"/>
		<path class="st19" d="M756.2,379.5c0,0-6.1-0.3-10.7,2.5"/>
		<path class="st2" d="M897.4,234.1c0,0-3.2-1.5-8.5,0.1"/>
		<path class="st2" d="M899.2,245.8c0,0-6.8-2-11,0.4"/>
		<path class="st2" d="M899.5,286.7c0,0-4.2-1.7-11.8,0.4"/>
		<path class="st2" d="M900.7,292.2c0,0-7.7-2.4-12.8,0.2"/>
		<path class="st2" d="M899.6,363.7c0,0-5.8-1.2-8.9,0.5"/>
		<path class="st2" d="M900.4,371.4c0,0-5.9-1.5-10.9,0.3"/>
	</g>
	
		<image style="overflow:visible;opacity:0.75;enable-background:new    ;" width="169" height="219" xlink:href="E55F6EFC.png"  transform="matrix(0.9941 0 0 0.9954 763.99 510.99)">
	</image>
	<path class="st20" d="M879.8,598.2c10.8,15.5,14.5,30.2,11.4,42.3c-3.9,15.2-20,22.2-36.6,22.7c-18.8,0.5-29.9-11-33.3-18
		c-4.1-8.6-7.6-29.9,10.9-47.3"/>
	<path class="st21" d="M831.9,608.2L831.9,608.2c-17.8,14.4-12.1,31.4-8.1,38.5c3.2,5.8,11.5,16.4,29.4,15.9
		c11.6-0.3,23-3.8,29.7-10.5l-0.2,0.2c-0.7,0.5-1.4,1-2.1,1.4s-1.5,0.9-2.3,1.3s-1.6,0.8-2.4,1.1s-1.7,0.7-2.5,1s-1.8,0.6-2.7,0.8
		s-1.8,0.5-2.8,0.7s-1.9,0.4-2.8,0.6s-1.9,0.3-2.9,0.4s-1.9,0.2-2.9,0.3s-2,0.1-3,0.1s-2.2,0-3.3,0s-2.1-0.1-3.1-0.3s-2-0.3-2.9-0.5
		s-1.9-0.4-2.8-0.6s-1.8-0.5-2.6-0.8s-1.6-0.6-2.4-0.9s-1.5-0.7-2.2-1s-1.4-0.8-2.1-1.1s-1.3-0.8-1.9-1.2s-1.2-0.8-1.7-1.3
		s-1.1-0.9-1.6-1.3s-1-0.9-1.4-1.3s-0.8-0.9-1.2-1.3s-0.7-0.8-1-1.3c-0.6-0.7-1.1-1.5-1.5-2.3c-0.2-0.4-0.5-0.9-0.7-1.5
		s-0.5-1.1-0.7-1.7s-0.4-1.2-0.6-1.9s-0.3-1.3-0.5-2.1s-0.3-1.5-0.4-2.2s-0.2-1.6-0.2-2.4s0-1.7,0-2.5s0.1-1.7,0.2-2.6
		s0.3-1.8,0.5-2.7s0.5-1.8,0.8-2.8s0.7-1.9,1.1-2.8s0.9-1.9,1.4-2.8s1.1-1.9,1.8-2.8s1.4-1.9,2.2-2.8s1.7-1.9,2.6-2.8L831.9,608.2
		L831.9,608.2z"/>
	<path class="st22" d="M856.5,624c-7.4,1.1-10.8,6.9-12.5,15c-2,9.2,6,18.7,14.3,20.5c8.2,1.9,16.4-3.1,18.3-11.2
		c0.1-0.2,0.1-0.5,0.2-0.8c2-9.2-1.3-22.6-9.2-23.7C866.5,623.6,857.5,623.8,856.5,624L856.5,624z"/>
	<path d="M868.4,584.4c2.9,3.2,5.6,6.3,7.8,9.3c2.1,2.7,4.1,5.6,5.9,8.6c2.9,4.6,5.2,9.6,6.9,14.7c0.8,2.5,1.4,5,1.8,7.6
		c0.3,2,0.5,4.1,0.5,6.2c0,1.7-0.1,3.3-0.3,5c-0.2,1.3-0.5,2.7-0.8,4c-0.1,0.4-0.2,0.9-0.4,1.3c-0.4,1.3-0.9,2.6-1.5,3.8
		c-0.8,1.6-1.8,3.1-2.9,4.5c-1.1,1.4-2.3,2.6-3.6,3.7c-1.4,1.2-2.9,2.3-4.5,3.3c-1.7,1-3.4,1.9-5.2,2.6c-1.7,0.7-3.5,1.3-5.4,1.8
		l0,0c-2.2,0.6-4.5,1.1-6.8,1.4c-2,0.3-3.8,0.4-5.1,0.5h-1.2c-1.5,0-3-0.1-4.5-0.3c-2.3-0.3-4.5-0.8-6.7-1.5
		c-6.3-2.1-11.9-5.9-16.1-11c-0.8-0.9-1.5-1.9-2.1-2.9c-0.6-0.9-1.2-1.9-1.6-2.9c-0.7-1.5-1.2-3-1.7-4.6c-0.4-1.4-0.7-2.7-0.9-3.8
		c-0.1-0.7-0.2-1.3-0.3-1.8c-0.2-1.4-0.4-2.8-0.5-4.3c-0.1-1.8-0.1-3.7,0.1-5.5c0.2-2.2,0.5-4.4,1.1-6.5c0.6-2.3,1.4-4.5,2.4-6.7
		c1-2.3,2.3-4.4,3.7-6.4c1.3-1.9,2.8-3.6,4.4-5.3l1.3-1.3c0.3-0.3,0.3-0.4,0.3-0.4c-0.7,0.4-1.3,0.9-1.9,1.5
		c-3.6,3.3-6.6,7.2-8.9,11.5l0,0c-1.1,2.1-2,4.2-2.7,6.5c-0.7,2.3-1.2,4.7-1.5,7.1c-0.2,2.1-0.3,4.2-0.2,6.3c0.1,2,0.3,3.9,0.7,5.8
		c0.3,1.7,0.8,3.4,1.3,5.1c0.4,1.3,1,2.5,1.6,3.7c1.1,2.2,2.6,4.2,4.2,6l0,0c4.6,5.1,10.5,8.8,17.1,10.7l0,0c2.3,0.7,4.6,1.1,7,1.3
		c1.9,0.2,3.8,0.3,5.8,0.2c0.8,0,1.6,0,2.2-0.1c1,0,2.4-0.1,4-0.3c2-0.2,4-0.6,5.9-1.1c1.8-0.4,3.6-1,5.4-1.6c2-0.7,3.8-1.6,5.7-2.6
		l0,0c1.6-0.9,3.2-2,4.7-3.2c1.5-1.2,2.9-2.5,4.1-4c1.3-1.5,2.4-3.2,3.3-4.9c0.9-1.7,1.5-3.5,2-5.3c0.8-2.9,1.1-6,1.1-9
		c0-2.3-0.3-4.5-0.7-6.7c-0.2-1-0.5-2.3-0.9-3.6s-0.8-2.8-1.4-4.3c-0.7-1.8-1.5-3.7-2.4-5.6s-1.9-3.8-3-5.7s-2.3-3.7-3.5-5.5
		s-2.5-3.4-3.7-5c-2.5-3.1-4.8-5.7-6.5-7.5S868.4,584.4,868.4,584.4L868.4,584.4z"/>
	<path class="st20" d="M819.6,660.5c-0.4-7.4,0.5-17.1,9.5-17.2c7.2-0.1,14.3,6.4,15.8,14.1"/>
	<path class="st20" d="M905.9,652.3c0,0-3.4-10.1-6.7-13.4c-0.9-0.9-4.4-3.5-7.5-2.8c-8.1,2-12.6,10.9-14.8,17.9
		c-0.3,1-1.7,4.9-0.5,7.6"/>
	<path class="st21" d="M877.4,659.9c-1.3-2.7,1.2-6.3,1.4-7.3c0.4-1.3,1.8-3.5,1.5-5c-1,2-2.7,4.7-3.3,6.7c-0.3,1-1.7,4.9-0.5,7.6
		C887,660.6,882.7,658.5,877.4,659.9L877.4,659.9z"/>
	<path d="M819.7,660.7c-0.2-1.9-0.1-3.8,0.1-5.7l0,0c0.1-1.1,0.3-2.1,0.7-3.2c0.2-0.7,0.5-1.5,0.8-2.2l0,0c0.2-0.5,0.5-1,0.8-1.4
		c0.3-0.4,0.5-0.7,0.8-1c0.4-0.5,0.9-1,1.4-1.4c0.7-0.6,1.4-1,2.2-1.3c0.8-0.3,1.7-0.5,2.6-0.6c0.8-0.1,1.6-0.1,2.5,0
		c0.4,0.1,0.7,0.2,1.1,0.3c0.6,0.2,1.1,0.4,1.6,0.7c0.8,0.4,1.6,1,2.4,1.5c0.7,0.6,1.4,1.2,2.1,1.9c0.8,0.8,1.3,1.5,1.7,1.8
		c0.4,0.4,0.8,0.8,1.1,1.2c0.5,0.6,0.9,1.2,1.3,1.8c0.4,0.7,0.8,1.4,1.1,2.1c0.3,0.7,0.5,1.4,0.7,2.1c0.1,0.3,0.1,0.5,0.2,0.5
		s0.1-0.2,0.2-0.4c0.1-1,0-1.9-0.2-2.9c-0.1-0.7-0.3-1.3-0.6-2c-0.3-0.7-0.6-1.4-0.9-2c-0.3-0.6-0.7-1.2-1.2-1.8
		c-0.4-0.5-0.8-0.9-1.3-1.3c-0.3-0.2-0.5-0.4-0.8-0.6c-0.8-0.6-1.7-1.2-2.7-1.7c-0.9-0.5-1.8-0.8-2.7-1.2c-0.7-0.2-1.4-0.4-2.2-0.5
		c-0.6-0.1-1.2-0.2-1.6-0.3c-0.6-0.1-1.2-0.2-1.8-0.3c-0.9-0.1-1.9,0-2.8,0.2c-1.1,0.2-2.2,0.7-3.1,1.3c-0.9,0.6-1.6,1.4-2.3,2.3
		c-0.5,0.7-0.9,1.5-1.2,2.3c-0.1,0.3-0.2,0.5-0.2,0.8c-0.2,0.7-0.3,1.5-0.4,2.3c-0.1,1-0.1,1.9-0.1,2.9c0,1.3,0.2,2.7,0.4,4
		C819.6,660,819.7,660.7,819.7,660.7L819.7,660.7z"/>
	<path class="st21" d="M892.4,636.6c-0.4,0-0.8,0-1.2,0.1c-3,0.8-5.7,2.4-7.7,4.7l0.1-0.1c0.4-0.3,0.8-0.7,1.2-1s0.8-0.6,1.2-0.9
		c0.4-0.3,0.9-0.5,1.3-0.7c0.5-0.2,0.9-0.4,1.4-0.6c0.5-0.2,1-0.3,1.5-0.5c0.4-0.1,0.8-0.1,1.2-0.1c0.4,0,0.8,0,1.2,0.1
		c0.4,0.1,0.8,0.2,1.2,0.3c0.4,0.1,0.7,0.3,1.1,0.5c0.6,0.3,1.2,0.7,1.8,1.1c0.4,0.3,0.8,0.6,1.1,0.9c0.5,0.5,0.9,1,1.2,1.5
		c0.4,0.6,0.8,1.3,1.2,2s0.8,1.4,1.1,2.2s0.7,1.5,1,2.3c0.6,1.5,1.2,2.8,1.5,3.8c0.2,0.6,0.3,0.7,0.3,1l1.3-0.4
		c0,0-3.4-10.1-6.7-13.4C898,638.8,895.2,636.7,892.4,636.6L892.4,636.6z"/>
	<path d="M905.8,651.5c-0.7-2-1.3-3.7-1.8-5.2l0,0c-0.7-1.7-1.3-3.2-1.9-4.3c-0.3-0.7-0.7-1.4-1.1-2.1c-0.4-0.6-0.7-1.1-1.2-1.6
		c-0.4-0.4-0.7-0.7-1.2-1c-0.5-0.4-1-0.8-1.6-1.1l-0.3-0.2c-0.7-0.4-1.4-0.6-2.2-0.8c-1-0.2-2.1-0.2-3.1,0.1l0,0
		c-1.1,0.3-2.2,0.8-3.2,1.4c-0.8,0.5-1.6,1.1-2.3,1.7c-0.5,0.4-0.8,0.8-1,1s-0.8,0.7-1.3,1.3c-0.7,0.7-1.4,1.4-2,2.2
		c-0.5,0.7-1.1,1.4-1.6,2.2s-1,1.5-1.4,2.2c-0.6,1.1-1.2,2.2-1.6,3.3c-0.2,0.7-0.6,1.9-1,3.2c-0.3,1.3-0.5,2.5-0.6,3.8
		c-0.1,0.8,0,1.7,0.1,2.5c0.1,0.5,0.3,1,0.6,1.4c0.1,0.1,0.2,0.3,0.3,0.4c0.1,0.1,0.1,0.1,0.2,0.2c0.1,0,0.1,0,0-0.2
		c-0.1-0.2-0.2-0.5-0.3-0.7c-0.1-0.4-0.2-0.8-0.2-1.2c0-0.4,0-0.7,0.1-1.1c0.1-0.4,0.2-0.8,0.3-1.2c0.3-1.2,0.7-2.3,1.1-3.4
		c0.4-0.9,0.8-1.7,1.1-2.5s0.6-1.5,0.8-2.1c0.4-1,0.8-2.1,1.3-3.2c0.5-1,1-2,1.6-3c0.6-0.9,1.2-1.8,1.9-2.6c0.5-0.6,1.1-1.1,1.7-1.6
		l0.4-0.3c0.7-0.5,1.4-0.9,2.2-1.2c1-0.5,2.1-0.8,3.2-1l0,0c0.7-0.1,1.4-0.1,2.1,0.1c0.7,0.2,1.4,0.5,2,0.8c0.6,0.3,1.1,0.6,1.7,1
		c0.3,0.2,0.7,0.5,1,0.8c0.3,0.3,0.6,0.6,0.9,0.9s0.5,0.5,0.7,0.9s0.6,0.8,0.9,1.2c0.9,1.3,1.6,2.6,2.4,4L905.8,651.5L905.8,651.5z"
		/>
	<path class="st20" d="M833.2,595.5c0,0-9.2,5.3-14.5,13.3c-4.4,6.7-9.5,20.3-9.4,29.1c0.1,7,3.9,13.8,9,14.8c4.1,0.8,10-1,11.2-2.9
		c6.4-10.7,0.7-16.8,0.4-27.7c-0.3-8.8,1-11.3,2.3-14.9c0.5-1.4,5-9.8,5-9.8"/>
	<path class="st20" d="M881.3,544.8c0,0,5-7.5,6.4-8.8s1.7-2.9,4.8-3.4s8,1.5,9.1,2.2s5.3,3.6,6.1,4.6s1.4,4.2,1.3,6.4
		c-0.4,2.7-1.4,5.4-2.9,7.7c-0.8,0.8-5.3,5-6.7,5.5c-1.5,0.5-9.3,1.7-9.3,1.7L881.3,544.8z"/>
	<path class="st21" d="M831.7,596.3c-2.7,1.8-9,6.2-13,12.4c-4.4,6.7-9.6,20.3-9.4,29.1c0.1,7,3.9,13.8,9,14.8
		c3.9,0.8,9.6-0.8,11-2.7c-0.3,0.1-0.5,0.3-0.8,0.4c-0.5,0.2-1,0.4-1.5,0.5c-0.5,0.2-1.1,0.3-1.7,0.4s-1.1,0.2-1.7,0.2
		c-0.6,0-1.1,0-1.7,0c-0.5,0-1.1-0.1-1.6-0.2c-0.3-0.1-0.6-0.1-0.9-0.3c-0.3-0.1-0.6-0.2-0.9-0.4c-0.6-0.3-1.2-0.7-1.7-1.1
		c-0.6-0.5-1.1-1-1.5-1.5c-0.5-0.6-0.9-1.2-1.3-1.9c-0.4-0.7-0.8-1.4-1.1-2.2c-0.3-0.8-0.6-1.6-0.8-2.4c-0.2-0.8-0.4-1.7-0.5-2.5
		c-0.1-0.9-0.2-1.7-0.2-2.6c0-1.2,0.1-2.4,0.2-3.5c0.1-1.2,0.3-2.5,0.6-3.8s0.6-2.6,1-4s0.8-2.7,1.2-4s1-2.6,1.5-3.9s1-2.5,1.6-3.7
		s1.1-2.3,1.7-3.3s1.1-2,1.7-2.8c0.7-1,1.4-2,2.1-2.9c0.8-0.9,1.5-1.8,2.3-2.6s1.6-1.6,2.4-2.3s1.6-1.3,2.3-1.9
		S831.1,596.8,831.7,596.3L831.7,596.3z"/>
	<path class="st20" d="M819.4,561.7c0,0-1.2,11.2-0.6,13c0.6,1.8,3.3,12,3.7,12.8s7.4,8.9,9.5,9.9s9.1,3.7,9.1,3.7
		s17.2,2.7,22.3,2.1s13-1.5,15.3-3.5c1.8-1.6,5.8-3.2,7.8-5c2.7-2.3,5.8-2.9,7.2-4.3s4.5-7.2,5-11.6s0-11.6-1.2-14.3
		c-1.3-2.9-2.7-5.4-3.5-7s-10.3-13.6-11.8-15.9c-1.5-2.3-7.8-7.4-9.7-7.9s-14.3-2.7-17.8-2.3c-3.5,0.4-12,4.3-13.8,5.6
		s-9.1,8.7-10.1,9.9C829.7,548.3,819.4,559.2,819.4,561.7L819.4,561.7z"/>
	<path class="st23" d="M849.6,602.4c5.2,0.6,11,1.2,13.8,0.9c5.2-0.6,13-1.4,15.3-3.5c1.8-1.6,5.8-3.2,7.9-5
		c2.7-2.3,5.8-2.9,7.2-4.3s4.5-7.2,5-11.6s0-11.6-1.2-14.3c-0.8-1.8-1.7-3.4-2.4-4.8c1.4-0.2,2.7-0.5,4.1-0.8
		c1.5-0.5,5.9-4.7,6.7-5.5c1.5-2.3,2.5-4.9,2.9-7.7c0.1-2.2-0.5-5.3-1.3-6.4c-0.8-1-5-3.9-6.1-4.6c-2.5-1.3-5.2-2.1-8-2.3
		c0.8,0.1,1.5,0.3,2.3,0.5c0.8,0.2,1.6,0.5,2.3,0.8c0.5,0.2,1,0.4,1.5,0.7c0.5,0.4,1.9,1.3,3.1,2.2c0.6,0.5,1.3,0.9,1.8,1.4
		c0.4,0.3,0.8,0.7,1.1,1c0.2,0.3,0.4,0.7,0.5,1.1c0.2,0.5,0.3,1.1,0.4,1.6c0.1,0.6,0.2,1.2,0.3,1.8c0.1,0.6,0.1,1.2,0.1,1.8
		c0,0.7-0.2,1.3-0.4,2c-0.2,0.8-0.5,1.6-0.8,2.3c-0.3,0.8-0.7,1.5-1,2.1c-0.2,0.4-0.5,0.9-0.8,1.2c-0.4,0.4-1.7,1.6-3.1,2.8
		c-0.7,0.6-1.4,1.2-2,1.7c-0.5,0.4-1,0.7-1.5,1c-0.5,0.2-1.1,0.3-1.6,0.4c-0.7,0.1-1.6,0.3-2.5,0.5c0.7,1.4,1.5,3,2.4,4.8
		c0.2,0.4,0.3,0.8,0.4,1.2c0.1,0.5,0.2,1,0.3,1.5c0.2,1.2,0.4,2.5,0.5,3.8c0.1,1.3,0.2,2.7,0.2,4.1s0,2.6-0.2,3.7
		c-0.1,0.6-0.1,1.1-0.3,1.7c-0.1,0.6-0.3,1.2-0.5,1.8c-0.4,1.2-0.8,2.3-1.3,3.4c-0.5,1-1,2-1.5,2.9c-0.4,0.6-0.8,1.3-1.3,1.8
		c-0.2,0.2-0.4,0.4-0.6,0.5c-0.2,0.2-0.5,0.3-0.8,0.5c-0.5,0.3-1.1,0.6-1.8,0.9s-1.3,0.7-2,1c-0.7,0.4-1.4,0.9-2.1,1.4
		c-0.6,0.5-1.2,0.9-1.8,1.3c-0.7,0.4-1.5,0.8-2.2,1.2s-1.5,0.8-2.1,1.2c-0.6,0.4-1.2,0.8-1.7,1.2c-0.3,0.3-0.7,0.5-1.1,0.7
		c-0.5,0.2-1,0.4-1.5,0.6c-0.6,0.2-1.2,0.4-1.8,0.5s-1.4,0.3-2.1,0.4c-1.5,0.3-3,0.5-4.5,0.7s-3,0.4-4.3,0.5
		c-0.8,0.1-1.6,0.1-2.5,0.1c-1,0-2.1-0.1-3.2-0.2C853.8,602.8,851.7,602.6,849.6,602.4L849.6,602.4z"/>
	<path class="st21" d="M873,563.9c-1-0.6-1.2-2.6-1.7-1.6c-0.6,1.4-0.4,3.1,0.5,4.3c0.7,0.7,4.8,1.2,4.8,0
		C876.5,565.4,874,564.5,873,563.9L873,563.9z"/>
	<path class="st21" d="M860.9,565.8c0-0.9,0-3,0.1-5.6c0-2.1,0.1-4.6,0.2-6.8c0-0.9,0.1-1.7,0.1-2.5c0-0.3,0-0.6,0.1-0.8
		c0-0.2,0-0.3,0.1-0.5c0.1-0.4,0.1-0.7,0.2-1.1l0,0c0.1-0.7,0.1-1.3,0.1-1.7c0,0,0-0.1,0-0.1c0-1,0-2.6-0.1-4.3c0-1.4-0.1-3-0.3-4.6
		c-0.1-0.6-0.2-1.2-0.3-1.8c-0.1-0.4-0.2-0.9-0.4-1.3c-0.4-0.7-0.7-1.5-1.1-2.1c-0.1-0.2-0.2-0.3-0.3-0.5c-0.1-0.1-0.2-0.3-0.4-0.4
		c-0.1-0.1-0.2-0.1-0.3-0.2h-0.2l0,0c0.2,0.1,0.3,0.2,0.4,0.3c0.1,0.1,0.2,0.2,0.3,0.3c0.1,0.2,0.2,0.3,0.3,0.5
		c0.2,0.3,0.3,0.6,0.5,1s0.3,0.8,0.5,1.2c0.2,0.4,0.3,0.8,0.3,1.2c0.1,0.6,0.2,1.2,0.2,1.8c0.1,1.5,0.2,3,0.2,4.6
		c0,1.5,0,3.1-0.1,4.4l0,0c0,0.6,0,1.2-0.1,1.7c0,0.3,0,0.6-0.1,0.8c0,0.1,0,0.1,0,0.2l0,0c0,0.2-0.1,0.4-0.1,0.6l0,0
		c0,0.3,0,0.6,0,0.9l0,0c0,0.8,0,1.7-0.1,2.5l0,0c0,2.3,0,4.7,0,6.8c0,2.9,0,5.4,0,6.9C860.7,570.5,861,570.7,860.9,565.8
		L860.9,565.8z"/>
	<path d="M833.9,594.9l-5.6,3.8c-2,1.5-3.9,3.1-5.8,4.8c-1.6,1.5-3,3.1-4.3,4.8l0,0c-0.8,1.1-1.6,2.2-2.2,3.3
		c-0.6,1.1-1.2,2.1-1.7,3.1c-0.7,1.5-1.3,2.8-1.9,4.1s-1,2.4-1.3,3.5c-0.6,1.6-1,3-1.3,4.3s-0.6,2.4-0.8,3.5v0.2
		c-0.2,0.8-0.3,1.9-0.5,3.2c-0.1,1.4-0.2,2.8-0.2,4.3c0,1.4,0.1,2.7,0.3,4.1c0.2,1.5,0.6,2.9,1.2,4.2c0.6,1.1,1.3,2.2,2.2,3.1
		c0.8,0.8,1.8,1.6,2.8,2.2l0,0c0.8,0.5,1.7,0.9,2.7,1.2c0.8,0.3,1.7,0.4,2.5,0.5c1.3,0.1,2.5,0.1,3.8-0.1l0.4-0.1
		c0.4-0.1,0.9-0.2,1.5-0.4c0.7-0.2,1.4-0.5,2.1-0.8c0.6-0.3,1.1-0.6,1.6-1c0.6-0.4,1.1-0.9,1.5-1.5l0,0c0.7-0.9,1.3-1.8,1.7-2.8
		c0.5-1.1,0.8-2.2,1-3.4l0,0c0.2-1.1,0.2-2.2,0.1-3.3c-0.1-1.1-0.2-2.2-0.4-3.3l0,0c-0.2-1.3-0.5-2.5-0.7-3.7s-0.5-2.3-0.7-3.3
		c-0.3-1.5-0.5-2.8-0.6-3.9s-0.2-2-0.3-2.6c0-0.3-0.1-0.7-0.1-1.1c0-1.1-0.1-2.5-0.2-4c0-1.6,0-3.2,0.2-4.8c0.1-0.9,0.3-1.7,0.5-2.5
		c0.3-0.9,0.6-1.7,0.9-2.6c1-2.7,2.2-5.4,3.3-7.8l1.1-2.2c0.3-0.5,0.5-0.9,0.6-1.5l0,0c-0.9,1-1.6,2.2-2.3,3.4c-1.5,2.5-2.8,5-4,7.6
		c-0.8,1.7-1.4,3.5-1.8,5.4c-0.3,1.5-0.4,3.1-0.5,4.7c-0.1,1.5,0,3,0,4.4c0,2,0.3,4,0.7,6c0.1,0.6,0.3,1.3,0.4,1.9
		c0.6,2.3,1.3,4.6,1.8,6.9c0.2,1,0.4,2.1,0.5,3.1c0.1,1,0.1,2,0,3.1c-0.1,1.1-0.3,2.1-0.7,3.1c-0.4,1-0.9,1.9-1.5,2.7
		c-0.7,1-1.7,1.8-2.7,2.3c-1.8,1-3.8,1.5-5.8,1.5c-0.9,0-1.8-0.2-2.7-0.4c-1.3-0.3-2.5-0.9-3.6-1.6c-0.9-0.6-1.7-1.3-2.4-2.1
		c-0.8-0.8-1.4-1.8-1.9-2.8l0,0c-0.5-1.2-0.8-2.4-0.9-3.7c-0.1-1.3-0.2-2.7-0.2-4.1c0-2.4,0.3-4.8,0.8-7.1c0.5-2.6,1.2-5.2,2-7.8
		c0.4-1.3,0.8-2.5,1.1-3.4c0.4-1.1,0.9-2.6,1.6-4.2c0.9-2.2,2.1-4.4,3.5-6.4l0,0c1.4-2,2.9-3.8,4.6-5.5c1.5-1.6,3.2-3,4.9-4.5
		L833.9,594.9L833.9,594.9z"/>
	<path class="st21" d="M837.6,540c-2.8,2.7-6.2,6.2-6.9,7c-1,1.2-11.4,12.2-11.4,14.7c0,0-1.2,11.2-0.6,13s3.3,12,3.7,12.8
		s7.4,8.9,9.5,9.9s9.1,3.7,9.1,3.7s17.2,2.7,22.3,2.1s13-1.4,15.3-3.5c1.8-1.6,5.8-3.2,7.8-5c2.7-2.3,5.8-2.9,7.2-4.3
		c0.6-0.7,1.1-1.5,1.6-2.3l-1.2,0.6c-0.7,0.3-1.3,0.7-2,1c-0.7,0.4-1.4,0.9-2,1.4c-0.6,0.5-1.2,0.9-1.8,1.3
		c-0.7,0.4-1.5,0.8-2.2,1.2s-1.5,0.8-2.1,1.2c-0.6,0.4-1.2,0.8-1.7,1.2c-0.3,0.3-0.7,0.5-1.1,0.7c-0.5,0.2-1,0.4-1.5,0.6
		c-0.6,0.2-1.2,0.4-1.9,0.5s-1.4,0.3-2.1,0.4c-1.5,0.3-3,0.5-4.5,0.7s-3,0.4-4.3,0.5c-0.8,0.1-1.6,0.1-2.4,0.1c-1,0-2.1-0.1-3.2-0.2
		c-2.3-0.2-5-0.5-7.4-0.7c-4.9-0.6-9.2-1.3-9.2-1.3s-1.8-0.7-3.8-1.5s-4.3-1.6-5.3-2.1c-0.4-0.2-0.7-0.4-1-0.7
		c-0.4-0.3-0.8-0.7-1.3-1.2c-1-0.9-2-2-3.1-3.2s-2-2.2-2.8-3.1c-0.5-0.6-1-1.1-1.4-1.8c-0.2-0.4-1-3.2-1.8-6s-1.6-5.9-1.9-6.8
		c-0.1-0.4-0.2-0.7-0.2-1.1c0-0.5,0-1.1,0-1.7c0-1.3,0.1-2.9,0.2-4.4c0.2-3,0.5-5.8,0.5-5.8c0-0.2,0.1-0.4,0.1-0.6
		c0.1-0.3,0.2-0.5,0.3-0.7c0.4-0.6,0.8-1.3,1.2-1.9c0.5-0.7,1.1-1.5,1.7-2.2s1.3-1.6,2-2.4c1.4-1.6,2.8-3.2,3.9-4.4s2-2.2,2.2-2.5
		C834.5,543.3,836.3,541.5,837.6,540L837.6,540z"/>
	<path class="st20" d="M881.5,595.4c0,0,10.2,2.8,17.3,9.3c5.9,5.4,14.3,17.3,16.5,26.1c1.7,6.9,0.6,13.9-4.1,16.1
		c-3.7,1.8-10.8,2.3-12.5,0.7c-8.9-8.9-5-16.4-7.4-27.2c-2-8.7-6.3-11.8-6.8-13.2s-6.3-8.9-6.3-8.9"/>
	<path class="st23" d="M882.8,596l-1.8,1.7c0,0,1.3-0.9,2.2-0.6s2.2,0.9,3.7,1.7c0.8,0.4,1.5,0.8,2.4,1.3s1.7,1,2.5,1.6
		s1.7,1.2,2.6,1.9c0.9,0.7,1.7,1.4,2.5,2.2c0.7,0.7,1.3,1.4,2.1,2.3s1.6,2.5,2.4,3.5s1.7,2.1,2.5,3.2s1.6,2.3,2.4,3.5
		s1.5,2.4,2.2,3.6s1.3,2.5,1.9,3.7s1.1,2.4,1.6,3.6c0.4,1.1,0.8,2.3,1.1,3.4c0.2,0.9,0.4,1.7,0.5,2.6c0.1,0.8,0.2,1.7,0.2,2.5
		c0,0.8,0,1.6,0,2.4c-0.1,0.8-0.2,1.5-0.3,2.3c-0.2,0.7-0.4,1.4-0.6,2c-0.2,0.6-0.6,1.2-0.9,1.8c-0.2,0.3-0.4,0.5-0.6,0.7h0
		c4.6-2.2,5.7-9.2,4.1-16.1c-2.1-8.7-10.5-20.7-16.5-26.1C894.1,600.6,888.6,597.6,882.8,596L882.8,596z"/>
	<path d="M881.9,595.4l5.6,2.5c2.1,1,4.1,2.2,6.1,3.5c1.7,1.1,3.2,2.4,4.7,3.7c0.9,0.9,1.8,1.8,2.5,2.6s1.5,1.7,2.1,2.5
		c1.7,2.1,3.3,4.4,4.7,6.7c1,1.5,1.7,2.9,2.3,4.1s1.2,2.3,1.6,3.3l0.1,0.2c0.3,0.8,0.8,1.7,1.3,2.8c0.5,1.3,0.9,2.5,1.3,3.8
		c0.4,1.5,0.7,3.1,0.8,4.7c0.1,1.6,0.1,3.3-0.3,4.9c-0.2,1.3-0.7,2.5-1.4,3.6c-0.3,0.5-0.7,1-1.1,1.4c-0.4,0.4-0.9,0.7-1.4,1
		c-1,0.5-2.1,0.9-3.1,1.1c-0.8,0.2-1.5,0.3-2.3,0.5c-0.3,0-0.8,0.1-1.3,0.1s-0.9,0-1.5,0c-0.6,0-1.2-0.1-1.8-0.2
		c-0.4-0.1-0.8-0.2-1.2-0.3c-0.2-0.1-0.5-0.2-0.7-0.4c-0.9-0.9-1.7-1.9-2.4-2.9c-0.8-1.1-1.4-2.3-1.9-3.6l0,0
		c-0.8-2-1.2-4.1-1.4-6.3c-0.1-1.2-0.1-2.4-0.2-3.6s0-2.2-0.1-3.3s-0.1-2.1-0.2-3s-0.2-1.6-0.3-2.1c-0.1-0.8-0.3-1.7-0.6-2.8
		c-0.4-1.8-1-3.7-1.7-5.4l0,0c-0.5-1.2-1-2.4-1.7-3.5c-0.5-0.9-1.1-1.7-1.8-2.5l0,0c-0.6-0.8-1.2-1.5-1.7-2.3
		c-0.2-0.3-0.4-0.5-0.6-0.7l-0.9-1c-0.8-0.9-1.5-1.7-2.2-2.5l-1.9-2.1l-0.2-0.2c-0.3-0.3-0.5-0.5-0.7-0.7l-0.2-0.2h-0.1l0,0
		l-0.4,0.3l-0.1,0.1l0,0l0.1-0.1l0.3-0.3l0,0v0.1l0.1,0.2c0.1,0.2,0.3,0.5,0.5,0.8c0.4,0.6,1,1.5,1.8,2.5l2,2.7l0.8,1.1
		c0.2,0.2,0.3,0.5,0.5,0.7c0.5,0.8,1,1.6,1.6,2.4c0.5,0.8,1.1,1.6,1.5,2.4c0.6,1.1,1,2.2,1.4,3.4c0.5,1.7,1,3.5,1.3,5.3
		c0.3,1.3,0.5,2.6,0.6,3.8s0.3,2.3,0.3,3.4v0.3c0.2,2.2,0.3,4.5,0.6,6.9l0,0c0.3,2.3,0.9,4.5,1.9,6.6c1.2,2.5,2.9,4.7,4.9,6.6
		c0.3,0.3,0.6,0.5,1,0.6c0.4,0.2,0.9,0.3,1.3,0.3c1.1,0.1,2.3,0.2,3.4,0.1c1.2-0.1,2.5-0.3,3.7-0.5h0.1c0.4-0.1,0.9-0.2,1.5-0.3
		c0.7-0.2,1.3-0.4,1.9-0.7l0,0c0.6-0.3,1.1-0.6,1.6-1c0.5-0.5,1-1,1.4-1.6c0.8-1.2,1.4-2.6,1.7-4c0.4-1.6,0.6-3.3,0.5-5
		c0-1.8-0.3-3.5-0.7-5.2c-0.6-2.5-1.5-4.9-2.6-7.3c-1.2-2.6-2.6-5.1-4.2-7.5c-0.6-0.9-1.2-1.7-1.6-2.3c-0.9-1.2-2.1-2.7-3.6-4.3
		c-1.6-1.8-3.2-3.5-5-5c-1.8-1.5-3.7-2.8-5.7-4c-1.8-1-3.6-2-5.5-2.8L881.9,595.4L881.9,595.4z"/>
	<path d="M902.8,645.2c0.1,0,0.2,0.1,0.3,0.1c0.1,0.1,0.2,0.3,0.2,0.4c0.1,0.2,0.1,0.4,0.1,0.7c0,0.2,0,0.5-0.1,0.7
		c-0.1,0.6-0.3,1.1-0.6,1.6c-0.1,0.2-0.2,0.3-0.3,0.5c-0.3,0.6-0.8,1.1-1.3,1.5c-0.2,0.1-0.4,0.3-0.6,0.3c-0.1,0-0.2,0-0.3,0h-0.1
		h-0.1l0,0l-0.1-0.1l-0.1-0.1l0,0c0-0.1-0.1-0.2-0.1-0.3c0-0.2,0-0.5,0-0.7c0.1-0.6,0.3-1.2,0.6-1.8l0.2-0.4
		c0.2-0.5,0.5-0.9,0.8-1.3c0.1-0.2,0.2-0.3,0.4-0.5c0.1-0.1,0.2-0.2,0.4-0.3c0.1-0.1,0.2-0.1,0.3-0.2
		C902.6,645.2,902.7,645.2,902.8,645.2L902.8,645.2z"/>
	<path d="M898.7,644.4c0.1,0,0.2,0,0.3,0.1c0.1,0.1,0.2,0.2,0.3,0.3c0.2,0.3,0.3,0.6,0.3,1c0,0.4,0,0.8-0.1,1.2
		c0,0.1-0.1,0.3-0.1,0.4c-0.1,0.5-0.4,0.9-0.8,1.3c-0.1,0.1-0.3,0.3-0.5,0.3c-0.1,0-0.2,0.1-0.2,0.1h-0.1h-0.1l0,0h-0.1l-0.1-0.1
		c-0.1,0-0.1-0.1-0.2-0.2c-0.1-0.2-0.2-0.3-0.2-0.5c-0.1-0.5-0.1-0.9-0.1-1.4c0-0.1,0-0.3,0.1-0.4c0.1-0.4,0.2-0.7,0.3-1.1
		c0.1-0.3,0.3-0.5,0.6-0.7c0.1-0.1,0.2-0.2,0.3-0.2C898.5,644.5,898.6,644.5,898.7,644.4L898.7,644.4z"/>
	<path d="M908.7,646.1c0.4-0.1,0.8,0.1,1,0.5c0.3,0.4,0.5,0.9,0.5,1.4c0,0.4,0,0.7-0.2,1.1c-0.1,0.3-0.3,0.6-0.5,0.8
		c-0.1,0.1-0.2,0.1-0.3,0.2c-0.1,0-0.2,0-0.3,0l0,0c-0.1,0-0.2-0.1-0.3-0.1c-0.1-0.1-0.2-0.1-0.3-0.2c-0.2-0.2-0.3-0.4-0.4-0.7
		c-0.1-0.3-0.2-0.6-0.2-0.9c0-0.5,0.1-0.9,0.3-1.3C908.1,646.4,908.4,646.2,908.7,646.1L908.7,646.1z"/>
	<path class="st24" d="M858.3,570.5h5.3l9.7,3.5l11.4,7c0,0,3.1,2.2,3.5,3.5s-1,7.2-1,7.2l-1.9,5.8c0,0-11.3,9.1-15.3,10.1
		s-21.6,0.7-24.5-2.5s-9.3-11.3-9.3-13.9s0-4.8,1.3-6.1s3.1-2.2,8.8-7.2c1.4-1.2,5.3-4.7,7-6S857.2,570.1,858.3,570.5L858.3,570.5z"
		/>
	<path class="st23" d="M857.6,570.4c-1.1,0.1-2.3,0.4-3.3,1c0.3-0.1,0.7-0.1,1-0.1c0.4,0,4.5-0.5,4.8-0.4l5,0.5l6.4,2.9l11.2,7.7
		c0,0,0.8,0.5,1.6,1.3c0.4,0.4,0.8,0.7,1.2,1.1c0.2,0.2,0.3,0.4,0.5,0.6c0.1,0.2,0.2,0.3,0.3,0.5c0.1,0.2,0.1,0.5,0.1,0.7
		c0,0.3,0,0.7,0,1c-0.1,0.7-0.2,1.6-0.4,2.4c-0.3,1.6-0.7,3.1-0.7,3.1l-1.9,5.8c0,0-0.7,0.6-1.8,1.4s-2.7,2-4.3,3.2
		c-0.8,0.6-1.7,1.2-2.5,1.8s-1.7,1.1-2.5,1.6s-1.5,0.9-2.2,1.2l0.3,0c4.1-1,14.8-10.4,14.8-10.4l2.5-5.6c0,0,1.5-5.8,1-7.2
		S885,581,885,581l-11.4-7l-9.6-3.5h-5.3C858.4,570.4,858,570.3,857.6,570.4L857.6,570.4z"/>
	<path class="st25" d="M839.1,583.8c-0.6,0.4-1.1,0.9-1.7,1.4c-1.3,1.3-1.3,3.4-1.3,6.1s6.4,10.7,9.4,13.9s20.5,3.5,24.5,2.5
		s15.3-10.5,15.3-10.5l0.2-0.6c-1.1,0.8-2.3,2.3-3.9,3.4c-0.8,0.6-1.7,1.2-2.5,1.8s-1.7,1.1-2.5,1.6s-1.6,0.9-2.3,1.3
		c-0.6,0.3-1.2,0.5-1.8,0.7c-0.7,0.2-1.4,0.3-2.1,0.3c-0.9,0.1-1.9,0.2-3,0.2s-2.4,0-3.6,0s-2.6-0.1-3.9-0.2s-2.6-0.2-3.9-0.4
		s-2.4-0.3-3.5-0.6c-0.5-0.1-1-0.2-1.5-0.4c-0.4-0.1-0.9-0.3-1.3-0.5c-0.3-0.1-0.7-0.3-1-0.5c-0.3-0.2-0.5-0.3-0.7-0.6
		c-0.7-0.8-1.7-1.9-2.7-3.2s-2.1-2.6-3.1-4c-0.5-0.7-1-1.4-1.4-2s-0.8-1.3-1.1-1.9c-0.3-0.5-0.6-1.1-0.8-1.6
		c-0.2-0.4-0.3-0.8-0.3-1.2c0-0.7,0-1.3,0-1.9c0-0.6,0.1-1.1,0.1-1.7c0.1-0.5,0.2-1,0.4-1.4C839,584,839.1,583.9,839.1,583.8
		L839.1,583.8z"/>
	<path class="st25" d="M858.4,584.8c0.3,1.5,0.9,1.6,1.9,2.7s1,4.6,0.8,8.3l1.6,0.6l-0.9-9.2L858.4,584.8z"/>
	<path d="M838.4,584.6c2.8-2.2,5.4-4.3,7.7-6.3c1.8-1.5,3.4-3,5-4.2l0,0c1.1-0.9,2.3-1.7,3.7-2.4c1.2-0.5,2.4-0.8,3.7-0.9l0,0
		c1.2-0.1,2.3-0.1,3.5,0c1,0.1,2,0.2,3,0.4c0.9,0.2,1.8,0.5,2.7,0.9c0.8,0.3,1.5,0.7,2.2,1.1c1.2,0.6,2.2,1.3,3.1,1.8
		c0.9,0.6,1.8,1.1,2.6,1.6l1,0.6c1.7,1,4.4,2.5,7.7,4c1,0.4,1.8,1.2,2.4,2.1c0.6,1,1,2.1,1.1,3.3l0,0c0.2,1.4,0.1,2.8-0.2,4.2
		c-0.3,1.3-0.7,2.6-1.2,3.8l0,0c-0.4,0.9-1,1.8-1.6,2.6c-0.5,0.7-1.1,1.3-1.7,1.9c-0.5,0.5-1,1-1.3,1.3s-1,0.8-1.7,1.3
		s-1.7,1.1-2.7,1.8c-2.2,1.3-4.6,2.4-7.1,3.2c-1.2,0.4-2.3,0.7-3.6,0.9c-1.2,0.2-2.4,0.4-3.6,0.4c-1.5,0-2.9-0.1-4.4-0.2
		c-1.3-0.2-2.6-0.4-3.8-0.7c-1.7-0.4-3.4-1-5.1-1.7l-0.2-0.1c-0.9-0.4-1.7-0.7-2.6-1.2c-1.1-0.6-2.1-1.2-3-1.9
		c-1.5-1.1-2.8-2.5-3.8-4.1c-0.7-1.1-1.4-2.3-2-3.4c-0.6-1.1-1.1-2.3-1.5-3.6c-0.3-1.1-0.4-2.2-0.1-3.3c0.1-0.8,0.5-1.5,0.9-2.1
		c0.2-0.3,0.4-0.6,0.7-0.8c0.2-0.2,0.3-0.3,0.3-0.3l0,0l0,0c-0.1,0.1-0.2,0.1-0.3,0.2c-0.2,0.2-0.4,0.4-0.6,0.6
		c-0.3,0.3-0.6,0.6-0.8,1c-0.6,0.9-1,2-1.1,3.1c0,0.7,0,1.3,0.2,2c0.3,1.4,0.7,2.7,1.3,3.9c0.5,1.2,1.2,2.4,1.8,3.6
		c1,1.8,2.3,3.4,3.9,4.7c1.8,1.5,3.8,2.7,5.9,3.6c1.6,0.7,3.3,1.3,5.1,1.7c1.5,0.3,3.1,0.6,4.7,0.7c1.6,0.1,3.2,0.1,4.8,0
		c2.6-0.2,5.1-0.8,7.5-1.8c2.5-1,4.9-2.2,7.1-3.6l0,0c1.3-0.8,2.4-1.6,3.3-2.4s1.8-1.5,2.5-2.1l0.4-0.4c0.5-0.5,1-1,1.5-1.6
		c0.7-0.8,1.3-1.7,1.8-2.6c0.6-1.2,1.1-2.5,1.5-3.9c0.4-1.5,0.5-3.1,0.4-4.7c-0.1-1.4-0.5-2.7-1.1-3.9c-0.7-1.2-1.7-2.2-3-2.8
		c-3-1.5-5.8-3.1-8.4-4.7l0,0l-3-1.8c-1-0.6-1.9-1.1-2.8-1.6c-0.7-0.4-1.4-0.7-2.1-1c-0.6-0.2-1.2-0.4-1.8-0.6
		c-0.4-0.1-0.9-0.2-1.5-0.3c-1.1-0.2-2.1-0.3-3.2-0.3c-1.2,0-2.5,0.1-3.7,0.2c-1.4,0.1-2.7,0.5-4,1.2c-1.3,0.7-2.6,1.6-3.7,2.7
		c-1.7,1.5-3.3,3.1-4.8,4.5c-2.1,1.9-3.9,3.6-5.3,4.8S838.5,584.6,838.4,584.6L838.4,584.6z"/>
	<path class="st21" d="M845.1,564.1c-1-0.5-1.9-2.9-1.9-1.7c0,1.2,0.4,3.2,1.2,4c0.8,0.8,5.2,1.4,5.2,0.3
		C849.6,565.5,846.1,564.7,845.1,564.1L845.1,564.1z"/>
	<path d="M847.3,558.1c-2.3,0-3.9,1.1-3.9,3.4s1.6,4.7,3.9,4.9c2.1,0.2,3.9-1.2,4.2-3.3c0-0.3,0-0.6,0-0.9
		C851.4,560,849.6,558.2,847.3,558.1L847.3,558.1z"/>
	<path d="M875.2,558.3c-2.1-0.2-3.9,1.4-4.1,3.5c0,0.1,0,0.2,0,0.3c0,2.3,1,4.5,3.3,4.7c2.1,0.2,3.9-1.2,4.2-3.3c0-0.3,0-0.6,0-0.9
		C878.4,560.4,877.5,558.3,875.2,558.3z"/>
	<path class="st20" d="M820.8,562.1c0,0-5.5-1.9-6.2-2.7c-0.7-0.8-6.6-7.1-6.7-10.5c-0.1-3.4,0.2-7.9,3.1-10.7s7.8-5.6,9.8-5.9
		c2-0.3,7.1,1.9,8,2.9s7.6,7.4,8,8S820.8,562.1,820.8,562.1L820.8,562.1z"/>
	<path class="st21" d="M820.9,532.4L820.9,532.4c-2.1,0.3-6.9,3.1-9.9,5.9c-2.9,2.8-3.1,7.3-3.1,10.7s5.9,9.6,6.7,10.5
		s6.2,2.7,6.2,2.7l1.8-2.1c-0.5-0.2-0.6-0.2-1.2-0.4s-1.5-0.6-2.1-0.9c-0.5-0.2-0.9-0.4-1.3-0.8c-0.2-0.2-0.7-0.8-1.3-1.5
		s-1.5-1.7-2.2-2.8c-0.4-0.5-0.8-1.1-1.1-1.6s-0.7-1.1-1-1.6c-0.3-0.5-0.5-1-0.7-1.5c-0.1-0.4-0.2-0.9-0.2-1.4c0-0.8,0-1.8,0-2.7
		c0.1-1,0.2-1.9,0.4-2.9c0.1-0.5,0.2-0.9,0.4-1.4c0.2-0.5,0.3-0.9,0.5-1.3c0.2-0.4,0.5-0.9,0.8-1.3c0.3-0.4,0.6-0.8,1-1.1
		c0.8-0.7,1.6-1.4,2.5-2c0.9-0.7,1.8-1.3,2.8-1.8C820.2,532.7,820.5,532.6,820.9,532.4L820.9,532.4z"/>
	<path d="M837.5,544L837.5,544L837.5,544L837.5,544l-0.3-0.5c-0.3-0.5-0.7-0.9-1-1.3l0,0c-1.2-1.6-2.4-2.9-3.4-4
		c-0.9-1-1.7-1.8-2.5-2.5c-0.8-0.7-1.5-1.3-2.2-1.8c-0.8-0.6-1.7-1.2-2.7-1.7c-0.9-0.5-1.9-0.8-2.9-1c-0.3,0-0.5-0.1-0.8-0.1
		c-0.5,0-0.9,0-1.4,0.1c-0.6,0.1-1.1,0.3-1.7,0.5c-0.7,0.3-1.3,0.6-1.9,1c-0.6,0.4-1.2,0.8-1.8,1.3c-0.6,0.5-1.2,1.1-1.8,1.7
		c-0.6,0.6-1.1,1.1-1.5,1.7c-0.7,0.8-1.3,1.7-1.8,2.5c-0.2,0.3-0.5,0.8-1,1.5c-0.3,0.5-0.6,1-0.8,1.6c-0.2,0.6-0.4,1.3-0.5,2l0,0
		c-0.1,0.7-0.1,1.3-0.1,2c0,0.7,0,1.3,0.1,2l0,0c0.1,1.3,0.4,2.5,0.8,3.8c0.2,0.6,0.3,1.1,0.5,1.6c0.1,0.4,0.3,0.7,0.5,1.1l0,0
		c0.3,0.5,0.6,1,1,1.4c0.5,0.5,1,1,1.6,1.4l0,0c1.1,0.8,2.2,1.4,3.4,2c1.1,0.5,2.2,1,3.3,1.4c0.5,0.2,1,0.4,1.5,0.5
		c0.2,0.1,0.5,0.1,0.7,0.1c0.1,0,0.1-0.1-0.1-0.2s-0.4-0.2-0.7-0.4l-1.2-0.7c-0.8-0.5-1.9-1.1-3-1.9c-1-0.7-2-1.4-2.9-2.3
		c-0.4-0.4-0.8-0.8-1.1-1.2c-0.3-0.4-0.5-0.7-0.7-1.2c-0.3-0.7-0.6-1.3-0.8-1.9l-0.2-0.5c-0.5-1.1-0.8-2.2-1.1-3.4
		c-0.3-1.2-0.5-2.5-0.5-3.7l0,0c0-0.6,0.1-1.2,0.2-1.8c0.1-0.5,0.3-1.1,0.6-1.5c0.5-0.8,1-1.6,1.6-2.3c0.6-0.6,1.2-1.3,1.8-1.8
		c1-0.9,2-1.7,3.1-2.4c1.1-0.7,2.3-1.4,3.5-1.8c0.5-0.2,1-0.3,1.5-0.4c0.5-0.1,0.9-0.1,1.4,0l0,0c0.8,0.1,1.6,0.4,2.4,0.7
		c0.6,0.3,1.2,0.5,1.6,0.8s0.6,0.3,1,0.5c0.8,0.5,1.6,1,2.4,1.6c0.9,0.6,1.8,1.3,2.6,2.1c1.3,1.2,2.6,2.4,3.8,3.7
		c0.5,0.5,0.8,0.9,1.1,1.2l0.3,0.3l0,0L837.5,544L837.5,544L837.5,544L837.5,544z"/>
	<path d="M881.5,544.7L881.5,544.7L881.5,544.7L881.5,544.7l0.3-0.4l0.8-1.1c0.9-1.3,1.8-2.4,2.5-3.4c1.1-1.4,2-2.6,2.9-3.6
		c0.4-0.5,0.8-0.9,1.2-1.3c0.2-0.2,0.5-0.5,0.8-0.6c0.5-0.3,1.1-0.5,1.7-0.7c0.5-0.1,1-0.2,1.5-0.2c0.4,0,0.8,0,1.1,0
		c0.3,0,0.7,0.1,1,0.1s0.6,0.1,1,0.2c0.9,0.2,1.8,0.5,2.7,0.8c1,0.4,2,1,2.9,1.6c1.1,0.8,2.1,1.4,3,1.9c0.5,0.3,1,0.7,1.4,1.1
		c0.3,0.3,0.6,0.5,0.8,0.8l0.1,0.2c0.3,0.4,0.5,0.8,0.7,1.3c0.2,0.6,0.3,1.3,0.4,2l0,0c0,0.9,0,1.8-0.2,2.7
		c-0.2,0.9-0.4,1.9-0.7,2.8l0,0c-0.2,0.6-0.4,1.1-0.8,1.6c-0.3,0.5-0.7,1-1,1.4c-0.5,0.6-0.8,1.1-1,1.4c-0.6,0.8-1.3,1.5-2,2.2
		c-0.6,0.6-1.2,1.1-1.8,1.6c-0.7,0.5-1.4,1-2.1,1.4c-0.5,0.3-1.1,0.6-1.7,0.8c-0.5,0.2-1,0.3-1.5,0.4c-0.4,0-0.6,0.1-0.6,0.1
		s0.2,0.2,0.5,0.2c0.5,0.1,1.1,0.1,1.6,0c0.8-0.1,1.6-0.3,2.3-0.5l0,0c0.8-0.3,1.6-0.6,2.3-1.1c0.8-0.4,1.5-1,2.3-1.5l0,0
		c0.7-0.6,1.4-1.2,2-1.8c0.6-0.6,1-1.2,1.5-1.9l0.2-0.3c0.7-1.1,1.1-2.2,1.4-3.5l0,0c0.2-1,0.3-2,0.4-3c0.1-1,0-1.9-0.1-2.9
		c-0.1-0.7-0.3-1.4-0.6-2c-0.2-0.6-0.5-1.1-0.9-1.6c-0.3-0.3-0.5-0.7-0.8-1c-0.2-0.2-0.3-0.4-0.6-0.6s-0.6-0.5-0.9-0.8
		c-0.3-0.3-0.8-0.7-1.3-1c-0.5-0.3-1-0.8-1.5-1.2l0,0c-0.8-0.7-1.8-1.4-2.8-1.9c-1-0.6-2.1-1-3.2-1.3l0,0c-0.6-0.2-1.3-0.3-1.9-0.3
		c-0.6-0.1-1.2-0.1-1.8,0c-0.6,0.1-1.2,0.2-1.8,0.4c-0.4,0.1-0.9,0.3-1.3,0.6c-0.2,0.1-0.5,0.3-0.7,0.5c-0.4,0.3-0.7,0.6-0.9,1l0,0
		c-0.4,0.5-0.7,1-1.1,1.5l0,0c-0.8,1.2-1.7,2.6-2.5,3.9c-0.8,1.3-1.6,2.7-2.2,3.7l-0.7,1.2L881.5,544.7L881.5,544.7l0.1,0.1l0,0l0,0
		L881.5,544.7z"/>
	<path class="st24" d="M833.7,548.7c0,0-3.9,3.5-4.8,4.9c-1.1,1.5-2.4,2.9-3.9,4c-0.6-0.1-1.2-0.2-1.8-0.4c-1.2-1.3-2.3-2.7-3.2-4.2
		c-0.8-1.6-2.7-3.1-1.9-5c0.8-1.9,1.7-5.1,3.7-5.2c2-0.2,4-0.1,6,0.2c1,0.3,2,0.8,3,1.4C831.4,544.9,834.6,547.9,833.7,548.7
		L833.7,548.7z"/>
	<path class="st25" d="M821.7,542.9c-1.8,0.5-2.6,3.3-3.3,5.1s1.1,3.3,1.9,5c0.9,1.5,2,3,3.2,4.2c0.6,0.2,1.2,0.3,1.8,0.4
		c0.4-0.2,0.8-0.5,1.1-0.9c-0.3,0-0.6-0.1-0.9-0.1c-0.4-0.1-0.8-0.2-0.8-0.2s-0.6-0.7-1.3-1.5c-0.3-0.4-0.7-0.9-1.1-1.4
		c-0.3-0.4-0.6-0.9-0.8-1.4c-0.2-0.4-0.5-0.8-0.7-1.2c-0.3-0.4-0.6-0.8-0.8-1.2c-0.1-0.2-0.2-0.4-0.3-0.6c-0.1-0.2-0.1-0.4-0.2-0.6
		c0-0.2,0-0.4,0-0.6c0-0.2,0.1-0.5,0.2-0.7c0.2-0.5,0.4-1,0.6-1.6c0.2-0.6,0.5-1.1,0.8-1.7c0.1-0.3,0.3-0.5,0.5-0.7
		C821.5,543.1,821.6,543,821.7,542.9L821.7,542.9z"/>
	<path d="M833.8,548.6c-0.7,0.4-1.3,0.8-1.9,1.2c-0.6,0.4-1.1,0.8-1.5,1.2s-1.1,0.9-1.5,1.4c-0.4,0.4-0.8,0.8-1.1,1.3
		c-0.3,0.4-0.6,0.8-1,1.2c-0.3,0.3-0.6,0.6-0.9,0.8c-0.3,0.3-0.7,0.5-1.1,0.7c-0.3,0.1-0.5,0.2-0.6,0.2h0.3l-0.2-0.1l0,0
		c-0.3-0.2-0.6-0.4-0.8-0.7c-0.4-0.3-0.8-0.7-1.2-1.1c-0.4-0.4-0.8-0.9-1.2-1.3s-0.9-1.1-1.3-1.7c-0.3-0.4-0.6-0.9-0.8-1.4
		c-0.1-0.2-0.2-0.4-0.2-0.5c-0.1-0.3-0.2-0.7-0.2-1c0-0.4,0-0.8,0.1-1.1l0,0c0.3-0.7,0.7-1.3,1.2-1.8c0.5-0.5,1.1-1,1.8-1.3
		c0.5-0.3,1-0.5,1.5-0.7l1-0.3c0.4-0.1,0.7-0.2,1.1-0.3c0.3,0,0.5,0,0.8,0c0.3,0,0.7,0.1,1,0.1l0,0c0.7,0.2,1.4,0.4,2.1,0.7
		c0.6,0.3,1.2,0.5,1.7,0.8l0.3,0.1l0.2,0.1h0.2l0,0l0.3-0.4l0,0l0.1-0.2l0,0l-0.1,0.1l-0.2,0.4c0,0,0,0,0,0c0-0.1-0.1-0.1-0.1-0.2
		c-0.1-0.2-0.3-0.3-0.4-0.5l0,0c-0.5-0.5-1-0.9-1.5-1.3c-0.7-0.5-1.4-0.9-2.1-1.2c-0.8-0.4-1.6-0.5-2.4-0.5c-0.6,0-1.1,0.1-1.7,0.2
		c-0.5,0.1-0.9,0.3-1.3,0.5c-0.5,0.3-1,0.6-1.5,1c-0.7,0.6-1.3,1.2-1.8,2c-0.5,0.7-0.8,1.5-1,2.3c-0.1,0.5-0.1,1,0,1.5
		c0.1,0.6,0.3,1.1,0.5,1.6l0.1,0.2c0.2,0.5,0.3,0.9,0.5,1.4c0.3,0.7,0.7,1.4,1.1,2c0.6,1.1,1.4,2.1,2.2,3c0.3,0.3,0.6,0.7,1,0.9
		c0.2,0.1,0.3,0.2,0.5,0.3l0,0c0.2,0.1,0.5,0.1,0.7,0.1c0.5-0.1,0.9-0.3,1.3-0.5c0.5-0.3,0.9-0.6,1.2-1c0.2-0.2,0.4-0.4,0.5-0.6
		c0.5-0.6,0.9-1.3,1.2-2c0.2-0.5,0.5-0.9,0.8-1.3c0.4-0.5,0.8-1.1,1.2-1.6s0.7-0.8,1.1-1.2s0.7-0.7,1-0.9
		C833.1,549.1,833.4,548.8,833.8,548.6L833.8,548.6z"/>
	<path class="st24" d="M884,548.1c0,0,4,1.7,4.9,3.1s3.8,5,4.1,5.1c0.6-0.1,1.2-0.2,1.8-0.4c1.2-1.3,2.3-2.7,3.2-4.2
		c0.8-1.6,1.8-3.5,0.9-5.4c-0.8-1.9-1.6-4.5-2.8-4.8c-2-0.4-4-0.3-6,0.2c-1,0.3-2,0.8-3,1.4C886.7,543.6,883.1,547.8,884,548.1
		L884,548.1z"/>
	<path d="M883.5,548L883.5,548h0.1l0.5,0.2c0.5,0.2,1,0.5,1.5,0.8c0.8,0.5,1.5,1,2.1,1.7c0.5,0.5,0.8,1.1,1.1,1.7
		c0.4,0.8,0.8,1.5,1.4,2.2c0.4,0.5,0.9,0.9,1.4,1.3c0.4,0.3,0.8,0.5,1.2,0.7c0.2,0.1,0.4,0.1,0.6,0.2c0.3,0.1,0.7,0.1,1,0
		c0.4-0.1,0.7-0.3,1-0.6c0.1-0.1,0.2-0.3,0.4-0.4l0.7-0.7c0.6-0.7,1.1-1.4,1.6-2.1c0.3-0.5,0.6-1,0.8-1.5c0.2-0.4,0.3-0.9,0.4-1.3
		c0.1-0.2,0.1-0.5,0.1-0.7c0-0.2,0.1-0.6,0.2-1.1c0.1-0.6,0.1-1.1,0-1.7c-0.1-0.8-0.3-1.6-0.7-2.3c-0.4-0.7-0.9-1.4-1.4-1.9
		c-0.5-0.5-1-0.9-1.6-1.3c-0.4-0.2-0.8-0.4-1.3-0.5c-1.1-0.3-2.3-0.3-3.4,0.1c-0.6,0.2-1.1,0.4-1.7,0.7l0,0c-0.6,0.3-1.1,0.6-1.5,1
		c-0.4,0.4-0.8,0.8-1.2,1.3c-0.1,0.1-0.2,0.2-0.2,0.4c0,0.1,0,0.1,0,0.1c0.2-0.1,0.4-0.2,0.6-0.4c0.4-0.3,0.8-0.5,1.2-0.7
		c0.5-0.3,1.1-0.5,1.7-0.6c0.5-0.1,0.9-0.2,1.4-0.2c0.4-0.1,0.9-0.1,1.3,0c0.7,0.1,1.5,0.4,2.1,0.8c0.4,0.2,0.9,0.4,1.3,0.7
		c0.6,0.4,1.1,0.9,1.5,1.4c0.4,0.5,0.7,1.1,0.9,1.7c0.2,0.6,0.2,1.2,0.2,1.8c0,0.5-0.1,0.9-0.3,1.3l0,0c-0.1,0.3-0.3,0.7-0.5,1
		c-0.3,0.5-0.6,0.9-1,1.4l0,0c-0.5,0.6-1.1,1.2-1.7,1.7l0,0l-0.7,0.6c-0.2,0.2-0.4,0.3-0.5,0.5l0,0c-0.1,0-0.2,0-0.2,0
		c-0.4-0.1-0.8-0.3-1.1-0.5c-0.5-0.4-1.1-0.8-1.5-1.3c-0.4-0.4-0.8-0.8-1.2-1.2c-0.5-0.7-1.2-1.4-1.9-1.9c-0.7-0.5-1.5-0.9-2.3-1.2
		c-0.5-0.2-1.1-0.4-1.7-0.5L883.5,548L883.5,548L883.5,548L883.5,548L883.5,548z"/>
	<path d="M835.6,542.1c1.6-1.6,3.4-3.1,5.4-4.3c2.2-1.4,4.6-2.4,7.1-3.1c0.8-0.2,1.5-0.4,2-0.5s1.3-0.4,2.2-0.6c0.9-0.2,2-0.5,3-0.7
		s2.2-0.3,3.2-0.4c1-0.1,1.9-0.1,2.6-0.1h0.9c0.9,0.1,1.7,0.2,2.6,0.4c1.2,0.2,2.5,0.6,3.9,1c1.1,0.3,2.1,0.7,3,1
		c0.9,0.3,1.7,0.7,2.2,1l0.7,0.3c0.6,0.2,1.1,0.5,1.7,0.8c0.7,0.4,1.4,0.9,2.1,1.4c0.8,0.6,1.5,1.2,2.2,1.9c0.7,0.7,1.4,1.3,2,2
		c0.4,0.4,0.5,0.5,0.5,0.3c-0.1-0.4-0.3-0.7-0.5-1.1c-0.9-1.6-2-3-3.2-4.3c-0.7-0.7-1.4-1.4-2.2-1.9c-0.7-0.5-1.5-1-2.3-1.4
		c-0.3-0.1-0.7-0.3-1-0.4c-1.6-0.5-3.2-0.8-4.8-1c-1.6-0.2-3.1-0.3-4.4-0.4c-1.3-0.1-2.4-0.2-3.2-0.3h-0.1c-0.6-0.1-1.7-0.2-3-0.2
		c-1.6,0-3.1,0-4.7,0.2c-1.6,0.2-3.2,0.5-4.8,1c-1.2,0.3-2.3,0.8-3.4,1.3c-1,0.6-2,1.2-2.9,1.8c-1.2,0.8-2.3,1.7-3.3,2.7
		c-0.9,0.8-1.7,1.7-2.5,2.6c-0.6,0.7-1,1.2-1,1.2L835.6,542.1z"/>
	<path d="M819.4,562.1c-0.1,1.1-0.2,2.2-0.5,3.2l0,0c-0.3,1.2-0.5,2.3-0.7,3.4c-0.2,1.1-0.2,2.3-0.2,3.5c0,1,0.1,1.9,0.1,2.6
		s0.2,1.4,0.3,1.9s0.2,1,0.3,1.5l0.1,0.3c0.2,0.8,0.6,2,1.1,3.5s1.2,3,1.8,4.3c0.3,0.7,0.7,1.4,1,1.9s0.6,1,0.8,1.2s0.7,1.2,1.4,2.3
		c0.5,0.8,1.1,1.5,1.7,2.2c0.7,0.7,1.4,1.4,2.2,2.1c0.8,0.7,1.6,1.2,2.2,1.7c0.5,0.3,1,0.7,1.5,0.9l2.2,1.1c0.8,0.4,1.7,0.8,2.6,1.1
		c0.9,0.3,1.9,0.5,2.9,0.7l1.9,0.2c0.4,0.1,0.6,0,0.6,0l0,0c-0.7-0.5-1.5-0.8-2.3-1c-0.7-0.3-1.5-0.7-2.4-1.1
		c-0.8-0.4-1.6-0.9-2.4-1.5c-0.7-0.5-1.3-0.9-1.9-1.3s-1.2-0.7-1.7-1c-0.8-0.4-1.6-0.8-2.3-1.3c-0.8-0.5-1.6-1-2.3-1.6
		c-0.7-0.5-1.3-1.2-1.9-1.8c-0.8-0.9-1.4-1.8-1.9-2.9c-0.2-0.5-0.5-1.3-0.9-2.4s-0.8-2.5-1.2-3.9s-0.7-2.9-1.1-4.3
		c-0.2-0.8-0.4-1.5-0.5-2.2s-0.2-1.2-0.3-1.6s-0.3-1.3-0.4-2.2c-0.1-1-0.2-1.9-0.2-2.9c0-1.2,0.1-2.4,0.2-3.4s0.1-1.8,0.1-2.4
		S819.4,562.2,819.4,562.1L819.4,562.1z"/>
	<path d="M895.3,560.3c0.4,0.8,0.8,1.6,1.1,2.3c0.3,0.7,0.6,1.3,0.8,1.9c0.2,0.5,0.3,1.1,0.4,1.6c0.1,0.8,0.2,1.4,0.2,2
		c0,0.6,0,1.1,0.1,1.6c0,1.3,0,2.2,0,3c0,0.4,0,1,0.1,1.7s0.1,1.5,0.2,2.2s0.1,1.6,0.1,2.3s0,1.3,0,1.9c0,0.4-0.1,0.8-0.1,1.2
		c0,0.2-0.1,0.3-0.1,0.4c-0.2,0.6-0.5,1.3-0.8,1.9c-0.4,0.8-0.8,1.6-1.3,2.3c-0.4,0.6-0.8,1.1-1.3,1.7c-0.4,0.5-0.8,0.9-1.2,1.2
		s-0.5,0.4-0.6,0.6c-0.3,0.3-0.6,0.6-0.9,0.9c-0.4,0.3-0.9,0.7-1.4,1.1s-1.3,0.9-2,1.3s-1.4,0.8-2,1.1s-0.3,0.4,0.7,0.3
		c1.4-0.3,2.8-0.7,4.2-1.3c0.7-0.3,1.4-0.7,2-1.1c0.6-0.4,1.1-0.8,1.6-1.4c0.1-0.1,0.2-0.3,0.4-0.5c0.7-1,1.3-2.1,1.8-3.2l0,0
		c0.6-1.5,1.1-3.1,1.6-4.7c0.1-0.5,0.2-0.9,0.3-1.2s0.2-0.5,0.2-1s0.2-0.9,0.3-1.5s0.2-1.5,0.3-2.3s0.1-1.6,0.2-2.5
		c0.1-1.6,0-3.2-0.2-4.8c0-0.2,0-0.3-0.1-0.4c-0.2-0.8-0.5-2-0.9-3.2c-0.2-0.6-0.5-1.2-0.8-1.7c-0.4-0.7-0.7-1.3-1.1-1.8
		L895.3,560.3L895.3,560.3z"/>
	<path class="st26" d="M862.2,585.9c0.4,3.5,0.7,7,0.7,10.5"/>
	<path class="st27" d="M876.7,560.1c-0.5,0-0.8,1.1-0.8,1.6c-0.2,0.5,0.1,1.1,0.6,1.3c0.5,0.2,1.1-0.1,1.3-0.6
		c0.1-0.2,0.1-0.4,0-0.6C877.8,561.2,877.2,560.1,876.7,560.1z"/>
	<path class="st27" d="M848.8,560.4c-0.5,0-0.8,1-0.8,1.6c-0.2,0.5,0.1,1.1,0.7,1.3c0.5,0.2,1.1-0.1,1.3-0.7c0.1-0.2,0.1-0.4,0-0.6
		C850,561.5,849.4,560.4,848.8,560.4z"/>
	<path d="M862.1,575.2c-3.6,0-8.4,3.3-6.6,6c1.3,2,3.8,5.8,6.6,6s4.7-3.8,6.6-6C870.8,578.7,865.8,575.2,862.1,575.2z"/>
	<path class="st27" d="M865.1,576.6c-0.8,0-1.6,0-1.6,0.8s0.8,0.7,1.6,0.7s2.7,1.5,2.7,0.7S865.9,576.6,865.1,576.6L865.1,576.6z"/>
	<path d="M812.1,541.1L812.1,541.1L812.1,541.1H812h-0.1l0,0c-0.1,0-0.2,0-0.2,0c-0.2,0-0.3-0.1-0.5-0.2c-0.4-0.2-0.7-0.5-1-0.8
		l-0.3-0.4c-0.2-0.2-0.3-0.4-0.5-0.6c-0.2-0.2-0.3-0.5-0.5-0.7c-0.1-0.1-0.1-0.2-0.2-0.4c-0.1-0.1-0.1-0.2-0.1-0.4
		c0-0.1,0.1-0.3,0.1-0.4c0.1-0.1,0.3-0.2,0.4-0.3c0.2-0.1,0.5-0.1,0.7,0c0.3,0,0.6,0.1,0.8,0.3l0,0c0.4,0.2,0.7,0.5,1,0.8
		c0.2,0.2,0.3,0.4,0.4,0.6c0.3,0.4,0.4,1,0.5,1.5c0,0.2,0,0.4-0.1,0.6c0,0.1-0.1,0.1-0.1,0.2l0,0l-0.1,0.1l0,0L812.1,541.1
		L812.1,541.1z"/>
	<path d="M810.6,543.6c-0.1,0.3-0.5,0.4-1,0.5c-0.6,0-1.2-0.1-1.7-0.2l0,0l-0.5-0.1c-0.6-0.1-1.1-0.2-1.6-0.5
		c-0.2-0.1-0.3-0.1-0.5-0.3c-0.1-0.1-0.2-0.2-0.3-0.3c-0.1-0.1-0.2-0.2-0.2-0.3c-0.1-0.1-0.1-0.2-0.1-0.3c0-0.1,0-0.2,0.1-0.3
		c0.1-0.1,0.2-0.2,0.3-0.3c0.2-0.1,0.3-0.2,0.5-0.2c0.2-0.1,0.4-0.1,0.6-0.1c0.7-0.1,1.3,0,2,0.1l0.5,0.1l0,0
		c0.6,0.3,1.2,0.6,1.6,1.1C810.6,543,810.7,543.3,810.6,543.6L810.6,543.6z"/>
	<path d="M894.1,534.5c-0.4-0.1-0.6-0.3-0.8-0.7c-0.2-0.4-0.3-0.9-0.3-1.3l0,0c0-0.1,0-0.1,0-0.2c0-0.5,0-0.9,0.2-1.4
		c0.1-0.2,0.1-0.4,0.2-0.5c0.1-0.1,0.2-0.3,0.4-0.3c0.2-0.1,0.4-0.1,0.5,0c0.2,0.1,0.4,0.2,0.5,0.4c0.2,0.2,0.3,0.5,0.5,0.8
		c0.1,0.3,0.2,0.7,0.2,1c0,0.1,0,0.2,0,0.3l0,0c0,0.6-0.2,1.1-0.5,1.6C894.9,534.4,894.5,534.6,894.1,534.5L894.1,534.5z"/>
	<path d="M897.5,534.8c-0.3-0.1-0.4-0.5-0.4-1c0-0.6,0.2-1.2,0.4-1.8c0.1-0.2,0.1-0.3,0.2-0.5c0.3-0.7,0.6-1.3,1-1.9
		c0.1-0.2,0.3-0.4,0.5-0.6c0.1-0.1,0.3-0.2,0.5-0.2c0.2,0,0.4,0.1,0.5,0.3c0.1,0.2,0.2,0.5,0.3,0.8c0.1,0.4,0.1,0.8,0,1.1
		c-0.1,0.4-0.2,0.9-0.3,1.3c-0.1,0.2-0.2,0.4-0.2,0.5l0,0c-0.3,0.6-0.7,1.2-1.2,1.6C898.2,534.9,897.8,535,897.5,534.8L897.5,534.8z
		"/>
	<path class="st22" d="M849.5,581.8c-0.5,0-1,0.5-1,1c0,0.5,0.4,0.7,0.9,0.7s1-0.2,1-0.7C850.5,582.3,850.1,581.9,849.5,581.8
		L849.5,581.8z"/>
	<path class="st22" d="M846.2,586.1c-0.8,0-1.5,0.7-1.5,1.5c0,0.8,0.6,1.1,1.4,1.1s1.5-0.3,1.5-1.1
		C847.7,586.8,847,586.1,846.2,586.1L846.2,586.1z"/>
	<path class="st22" d="M852.2,587.1c-0.8,0-1.2,0.3-1.2,1.2s0.5,1,1.3,1s1.1-0.4,1.1-1.2S853,587.1,852.2,587.1L852.2,587.1z"/>
	<path class="st22" d="M873.6,585.5c-0.5,0-0.8,0.4-0.8,0.9c0,0,0,0,0,0c0,0.5,0.2,0.7,0.6,0.7s0.8-0.2,0.8-0.6
		S874,585.5,873.6,585.5L873.6,585.5z"/>
	<path class="st22" d="M878.6,582.9c-0.8,0-1.2,0.7-1.2,1.6s0.3,1.1,1.1,1.1s1.5-0.3,1.5-1.1C880.1,583.6,879.5,582.9,878.6,582.9
		L878.6,582.9z"/>
	<path class="st22" d="M877.1,588.6c-0.6,0-1.1,0.5-1.1,1.1c0,0.6,0.4,1,1,1c0.5,0,0.9-0.3,0.9-0.8c0-0.1,0-0.1,0-0.2
		C877.9,589.1,877.7,588.5,877.1,588.6L877.1,588.6z"/>
	<path d="M842.4,539.5L842.4,539.5h-0.2c-0.1,0-0.2,0-0.3-0.1c-0.2-0.1-0.4-0.2-0.5-0.4c-0.5-0.4-0.9-0.9-1.2-1.5
		c-0.2-0.2-0.3-0.5-0.4-0.7c-0.2-0.4-0.4-0.8-0.6-1.2l0,0c-0.2-0.5-0.4-0.9-0.5-1.4c-0.1-0.3-0.1-0.6,0.1-0.9c0.2-0.2,0.5-0.2,0.9,0
		c0.5,0.3,1,0.6,1.4,1.1l0,0c0.3,0.4,0.6,0.8,0.9,1.3c0.2,0.3,0.3,0.6,0.4,0.8c0.3,0.6,0.4,1.3,0.5,2c0,0.2,0,0.5-0.1,0.7l0,0
		c0,0.1-0.1,0.2-0.1,0.2l-0.1,0.1l0,0L842.4,539.5L842.4,539.5z"/>
	<path d="M845.9,537.4c-0.5,0.1-1.1-0.6-1.5-1.6l0,0c-0.1-0.2-0.2-0.5-0.3-0.7c-0.1-0.3-0.2-0.6-0.3-0.9c-0.1-0.3-0.1-0.5-0.1-0.8
		c0-0.2,0-0.4,0-0.6c0-0.2,0.1-0.3,0.2-0.5c0.1-0.1,0.3-0.2,0.5-0.1c0.3,0,0.5,0.1,0.7,0.3c0.3,0.2,0.5,0.5,0.7,0.8
		c0.4,0.6,0.7,1.3,0.8,2.1l0,0C846.7,536.4,846.4,537.3,845.9,537.4L845.9,537.4z"/>
	<path d="M858.6,566.6c0.4,0,0.8-0.1,1.1-0.1c0.5,0,1,0,1.3-0.1h0.1c0.3-0.1,0.6-0.1,0.9-0.2c0.3,0,0.7,0,1,0c0.1,0,0.2,0,0.1-0.1
		c-0.2-0.1-0.3-0.2-0.5-0.2c-0.3-0.1-0.6-0.1-0.8-0.2c-0.3,0-0.6,0-0.8,0h-0.2l-1.3,0.4c-0.3,0.1-0.7,0.2-1,0.2
		c-0.2,0-0.3,0.1-0.3,0.2C858.1,566.6,858.3,566.7,858.6,566.6L858.6,566.6z"/>
	<path d="M859.4,564c0.3,0,0.5,0,0.8,0c0.3,0,0.5,0.1,0.8,0.1l0,0c0.4-0.1,0.8-0.1,1.2-0.1c0.2,0,0-0.1-0.3-0.3
		c-0.3-0.2-0.7-0.3-1-0.3c-0.1,0-0.2,0-0.3,0l-0.9,0.2c-0.2,0.1-0.4,0.1-0.7,0.1c-0.2,0-0.2,0.1-0.2,0.1S859.2,564,859.4,564
		L859.4,564z"/>
	<path d="M861.1,565.8c0-0.9,0-3,0.1-5.6c0-2.1,0.1-4.6,0.2-6.8c0-0.9,0.1-1.7,0.1-2.5c0-0.3,0-0.6,0.1-0.8c0-0.2,0-0.3,0.1-0.5
		c0.1-0.4,0.1-0.7,0.2-1.1l0,0c0.1-0.7,0.1-1.3,0.1-1.7c0,0,0-0.1,0-0.1c0-1,0-2.6-0.1-4.3c0-1.4-0.1-3-0.3-4.6
		c-0.1-0.6-0.2-1.2-0.3-1.8c-0.1-0.4-0.2-0.9-0.4-1.3c-0.4-0.7-0.7-1.5-1.1-2.1c-0.1-0.2-0.2-0.3-0.3-0.5c-0.1-0.1-0.2-0.3-0.4-0.4
		c-0.1-0.1-0.2-0.1-0.3-0.2h-0.2l0,0c0.2,0.1,0.3,0.2,0.4,0.3c0.1,0.1,0.2,0.2,0.3,0.3c0.1,0.2,0.2,0.3,0.3,0.5
		c0.2,0.3,0.3,0.6,0.5,1s0.3,0.8,0.5,1.2c0.2,0.4,0.3,0.8,0.3,1.2c0.1,0.6,0.2,1.2,0.2,1.8c0.1,1.5,0.2,3,0.2,4.6
		c0,1.5,0,3.1-0.1,4.4l0,0c0,0.6,0,1.2-0.1,1.7c0,0.3,0,0.6-0.1,0.8c0,0.1,0,0.1,0,0.2l0,0c0,0.2-0.1,0.4-0.1,0.6l0,0
		c0,0.3,0,0.6,0,0.9l0,0c0,0.8,0,1.7-0.1,2.5c0,2.3,0,4.7,0,6.8c0,2.6,0,4.9,0,6.5c0,0.1,0,0.3,0,0.4c0,0.7,0,1.3,0,1.7
		c0,0.3,0,0.4,0,0.6c0,0,0,0.1,0,0.2l0,0l0,0l0,0c0,0,0-0.1,0-0.2c0-0.1,0-0.3,0-0.6c0-0.5,0-1.2,0-2.1c0-0.3,0-0.6,0-0.9
		L861.1,565.8z"/>
	<path class="st28" d="M862.2,596c-1.4,0.1-2.4,1.2-2.4,2.5c0,1.4,1.2,1.5,2.5,1.5s2.3,0,2.3-1.5C864.6,597.2,863.6,596.1,862.2,596
		z"/>
	<path class="st26" d="M847.2,558.8c0,0-2.8,0.3-3.7-1.5"/>
	<path class="st26" d="M875.3,559c0,0,2.8,0.3,3.7-1.5"/>
	<path d="M828.8,648.7c0.4-0.5,1.2-0.4,2,0l0.3,0.2c0.2,0.2,0.4,0.4,0.6,0.6c0.2,0.2,0.3,0.5,0.3,0.8c0.1,0.2,0.1,0.5,0,0.7
		c-0.1,0.2-0.3,0.4-0.6,0.5c-0.3,0.1-0.7,0-1-0.1c-0.3-0.1-0.6-0.3-0.9-0.5c-0.1-0.1-0.2-0.2-0.3-0.3
		C828.6,650,828.4,649.2,828.8,648.7L828.8,648.7z"/>
	<path d="M830.8,645.7c0.3-0.3,0.6-0.4,1-0.3c0.5,0.1,1.1,0.3,1.5,0.5h0.1c0.4,0.2,0.7,0.5,1,0.8c0.1,0.1,0.2,0.2,0.3,0.3
		c0.1,0.2,0.2,0.4,0.2,0.6c0,0.1,0,0.2,0,0.3c0,0.1-0.1,0.2-0.1,0.3c-0.1,0.1-0.2,0.2-0.3,0.2c-0.2,0.1-0.3,0.1-0.5,0.1
		c-0.2,0-0.3,0-0.5,0c-0.5-0.1-0.9-0.3-1.3-0.5l-0.1,0c-0.5-0.3-0.9-0.7-1.2-1.2C830.6,646.4,830.6,646,830.8,645.7L830.8,645.7z"/>
	<path d="M862.9,657.9c0.1-0.3,0.2-0.8,0.3-1.4c0.1-0.7,0.3-1.4,0.3-2.1c0.1-0.9,0.2-1.9,0.3-3.1l0,0c0.2-2,0.3-4.4,0.4-6.7l0,0
		c0-0.9,0-1.7,0-2.5c0-1.2-0.1-2.3-0.2-3.4c-0.3-3.4-0.6-6.2-0.7-7.5l-0.1-0.6c-0.2-1.8-0.6-4.4-1-7.4l0,0c-0.1-0.8-0.2-1.7-0.4-2.6
		l0,0c0-0.3-0.1-0.6-0.2-0.8s-0.1-0.3-0.1-0.5v-0.2l0,0c0-0.2,0-0.5,0-0.7c0-1,0-2,0-3c0-1.5-0.1-3-0.3-4.4c0-0.2,0-0.4-0.1-0.6
		c0-0.3-0.1-0.6-0.1-0.8s0-0.3-0.1-0.4v-0.1l0,0c0,0,0,0.1,0,0.1s0,0.2,0,0.4c0,0.3,0.1,0.8,0.1,1.3c0.1,1.5,0.2,2.9,0.1,4.4
		c0,0.9,0,1.9,0,3c0,0.2,0,0.5,0,0.7c0,0.1,0,0.1,0,0.2v0.1c0,0.2,0.1,0.3,0.1,0.5s0.1,0.5,0.1,0.8c0.1,0.8,0.2,1.7,0.3,2.6
		c0.3,2.5,0.6,5.1,0.8,7.4c0.2,1.6,0.3,3.1,0.5,4.3s0.3,2.5,0.4,3.8s0.2,2.3,0.3,3.4l0,0c0.1,0.8,0.1,1.7,0.1,2.5
		c0,2.3-0.1,4.6-0.2,6.7l0,0c-0.1,1.1-0.2,2.1-0.3,3.1c-0.1,1-0.2,2-0.5,3c-0.2,0.8-0.5,1.5-0.8,2.3l-0.3,0.6
		c-1.6,3.1-1.6,3.6,0.2,0.1C862.5,659.5,862.7,658.7,862.9,657.9L862.9,657.9z"/>
	<path d="M863.6,620.1c-0.4,0-0.8,0.1-1.1,0.1c-0.5,0-1,0-1.3,0.1H861c-0.3,0.1-0.6,0.1-0.9,0.2c-0.3,0-0.7,0-1,0
		c-0.1,0-0.2,0-0.1,0.1c0.2,0.1,0.3,0.2,0.5,0.2c0.3,0.1,0.6,0.1,0.8,0.2c0.3,0,0.6,0,0.8,0h0.2l1.3-0.4c0.3-0.1,0.7-0.2,1-0.2
		c0.2,0,0.3-0.1,0.3-0.2S863.9,620,863.6,620.1L863.6,620.1z"/>
	<path d="M862.8,618.1c-0.3,0-0.5,0-0.8,0c-0.3,0-0.5-0.1-0.8-0.1l0,0c-0.4,0.1-0.8,0.1-1.2,0.1c-0.2,0,0,0.1,0.3,0.3
		c0.3,0.2,0.7,0.3,1,0.3c0.1,0,0.2,0,0.3,0l0.9-0.2c0.2-0.1,0.4-0.1,0.7-0.1c0.2,0,0.2-0.1,0.2-0.1S863,618.1,862.8,618.1
		L862.8,618.1z"/>
	<path class="st20" d="M897.5,647.7c11.3,0,20.8,8.3,20.8,19.3c-0.1,11.1-9.2,20.1-20.4,19.9c-8.4,0-16.6-2.3-19.7-9.4
		c-1.2-3.5-1.6-7.3-1.2-11C878.5,655.6,886.3,647.8,897.5,647.7L897.5,647.7z"/>
	<path class="st24" d="M890.8,682.8c2.7,1.7,6.7,1.5,10.3,0.1c5.5-2.2,8.4-7.6,6.7-12.1s-7.2-8-12.7-5.8s-8.9,9.2-7.1,13.7
		C888.5,680.3,889.5,681.7,890.8,682.8L890.8,682.8z"/>
	<path d="M890.8,682.9c0.9,0.6,1.9,1,3,1.2c0.9,0.2,1.9,0.3,2.9,0.3c0.9,0,1.7-0.1,2.5-0.3c0.7-0.2,1.5-0.4,2.2-0.6l0,0
		c0.9-0.3,1.7-0.8,2.5-1.3c0.7-0.4,1.3-0.9,1.9-1.4c0.5-0.4,0.9-0.9,1.4-1.4c0.3-0.4,0.6-0.8,0.9-1.3c0.3-0.5,0.6-1,0.8-1.5
		c0.3-0.8,0.5-1.7,0.5-2.6c0-0.6,0-1.2-0.1-1.7c-0.1-0.6-0.3-1.2-0.5-1.8c-0.3-0.7-0.7-1.3-1.1-1.9c-0.8-1.1-1.8-2.1-3-2.8
		c-0.5-0.3-0.9-0.6-1.4-0.8l0,0c-0.4-0.2-0.9-0.4-1.3-0.5c-0.9-0.3-1.7-0.5-2.6-0.6c-0.7-0.1-1.3-0.1-2,0c-0.8,0.1-1.5,0.2-2.2,0.5
		c-0.9,0.3-1.8,0.7-2.6,1.3c-1.4,0.9-2.6,2.1-3.6,3.5c-0.3,0.4-0.6,0.9-0.8,1.3v0.1c-0.3,0.6-0.5,1.2-0.7,1.8
		c-0.2,0.8-0.4,1.7-0.5,2.5c-0.1,0.7-0.1,1.3,0,2c0.1,1.5,0.8,2.9,1.9,4c0.5,0.5,1.1,1,1.7,1.4c0.2,0.1,0.4,0.3,0.7,0.4l0,0l0,0
		c0,0-0.2-0.2-0.4-0.3c-0.3-0.2-0.5-0.5-0.8-0.8c-0.3-0.4-0.6-0.8-0.8-1.2c-0.3-0.5-0.5-1.1-0.6-1.7c-0.1-0.6-0.2-1.1-0.2-1.7
		c0-0.6,0.1-1.2,0.2-1.8c0.3-1.3,0.8-2.5,1.4-3.6c0.3-0.6,0.7-1.2,1-1.7c0.6-0.9,1.2-1.7,2-2.5c0.8-0.7,1.6-1.4,2.6-1.8
		c0.7-0.3,1.4-0.6,2.1-0.7c0.7-0.1,1.3-0.2,2-0.1c0.6,0,1.2,0.1,1.7,0.3c0.4,0.1,0.9,0.3,1.3,0.5l0.2,0.1c0.3,0.2,0.7,0.4,1,0.7
		c1,0.8,1.8,1.7,2.5,2.8c0.4,0.6,0.7,1.3,0.9,2c0.3,1.1,0.4,2.2,0.3,3.3c-0.2,1.1-0.5,2.1-1,3c-0.6,1-1.3,1.9-2.1,2.7
		c-0.4,0.4-0.9,0.8-1.3,1.2c-0.6,0.5-1.3,0.9-2,1.3c-1.1,0.5-2.2,0.9-3.3,1.2c-1.1,0.2-2.3,0.3-3.4,0.2c-0.9-0.1-1.7-0.3-2.5-0.6
		c-0.3-0.1-0.5-0.2-0.7-0.3L890.8,682.9L890.8,682.9z"/>
	<path class="st23" d="M897.5,647.7c-6.2-0.1-12.1,2.6-15.9,7.5c0.4-0.4,0.7-0.8,1.1-1.2s0.9-0.8,1.4-1.2s1-0.7,1.5-1s1-0.6,1.6-0.9
		s1.1-0.5,1.7-0.8s1.2-0.4,1.8-0.6s1.2-0.3,1.9-0.4s1.3-0.2,2-0.3s1.4-0.1,2.1-0.1s1.4,0,2.1,0.1s1.4,0.2,2,0.3s1.3,0.3,2,0.5
		s1.3,0.4,1.9,0.6s1.2,0.5,1.8,0.8s1.2,0.6,1.7,1s1.1,0.7,1.6,1.1s1,0.8,1.5,1.2s0.9,0.9,1.3,1.3s0.8,1,1.2,1.5c0.4,0.5,0.7,1,1,1.6
		c0.3,0.6,0.6,1.1,0.9,1.7c0.5,1.2,1,2.4,1.2,3.7c0.1,0.7,0.3,1.3,0.3,2c0.1,0.7,0.1,1.3,0.1,2c0,0.7,0,1.3-0.1,2
		c-0.2,2-0.7,3.9-1.5,5.7c-0.3,0.6-0.5,1.2-0.8,1.7s-0.7,1.1-1,1.6c-0.2,0.3-0.5,0.6-0.7,0.9c3.3-3.6,5.1-8.3,5.1-13.1
		C918.2,656,908.7,647.7,897.5,647.7L897.5,647.7z"/>
	<path class="st21" d="M880.4,657.2c-1.7,2.8-2.8,6-3.3,9.3c-0.4,3.7,0.1,7.5,1.3,11c3.1,7.1,11.3,9.4,19.7,9.4
		c7.9,0,15.1-4.5,18.5-11.6c-0.2,0.3-0.3,0.6-0.5,0.8c-0.4,0.5-0.8,1-1.2,1.5s-0.8,1-1.3,1.4s-0.9,0.9-1.5,1.3s-1,0.8-1.6,1.2
		s-1.1,0.7-1.7,1s-1.2,0.6-1.8,0.8s-1.2,0.5-1.9,0.7s-1.3,0.4-2,0.5s-1.3,0.2-2,0.3s-1.4,0.1-2.1,0.1c-1,0-2.1,0-3.1-0.1
		s-2.1-0.2-3-0.4c-1-0.2-2-0.4-2.9-0.6c-0.9-0.3-1.8-0.6-2.7-0.9c-0.9-0.4-1.7-0.8-2.5-1.3c-0.4-0.2-0.8-0.5-1.1-0.8s-0.7-0.6-1-0.9
		c-0.4-0.3-0.7-0.6-1-1c-0.6-0.7-1.2-1.4-1.6-2.2c-0.2-0.4-0.4-0.8-0.6-1.3c-0.3-0.7-0.5-1.5-0.7-2.3c-0.2-1-0.4-2-0.5-3
		c-0.1-1-0.2-2.1-0.2-3.1c0-0.9,0-1.8,0.1-2.7c0.1-0.7,0.2-1.3,0.4-2s0.3-1.3,0.5-1.9s0.4-1.2,0.6-1.8S880.2,657.6,880.4,657.2
		L880.4,657.2z"/>
	<path d="M897.9,647.7c1.5,0,2.9,0.1,4.3,0.5c1.3,0.3,2.6,0.7,3.8,1.3c2.2,0.9,4.1,2.3,5.8,3.9l0,0c1.1,1.1,2.1,2.3,2.9,3.7
		c0.7,1.2,1.3,2.4,1.7,3.7c0.4,1.1,0.7,2.2,0.8,3.4c0.1,1,0.2,2,0.2,3l0,0c0,0.9-0.1,1.8-0.3,2.8c-0.1,0.8-0.3,1.5-0.6,2.3
		c-0.4,1.2-0.9,2.4-1.5,3.5c-0.4,0.8-0.9,1.5-1.3,2.2c-1.4,1.9-3,3.6-5,4.9c-1.1,0.7-2.2,1.4-3.4,1.9c-1.2,0.5-2.5,0.9-3.8,1.2
		c-1.2,0.3-2.5,0.4-3.7,0.5c-1.5,0-2.9,0-4.4-0.1c-1.3-0.1-2.3-0.3-2.9-0.4c-0.6-0.1-1.2-0.3-1.8-0.4c-0.9-0.3-1.7-0.6-2.5-0.9
		c-1.6-0.7-3.1-1.7-4.4-2.9c-1.3-1.2-2.3-2.7-2.9-4.3c-0.3-0.7-0.5-1.4-0.6-2.2c-0.2-1-0.3-1.9-0.4-2.9c-0.1-1-0.1-2-0.1-3
		c0-0.9,0.1-1.7,0.2-2.6c0.2-0.9,0.4-1.8,0.6-2.7c0.2-0.8,0.4-1.4,0.5-1.9c0.4-1.4,1-2.7,1.7-4c0.9-1.7,2.1-3.3,3.5-4.7
		c0.8-0.8,1.7-1.6,2.7-2.3c1-0.7,2-1.3,3.1-1.8c1-0.5,2.1-0.9,3.2-1.2c1-0.3,2.1-0.5,3.2-0.6c0.9-0.1,1.3-0.1,1.4-0.1l0,0l0,0
		c-0.5-0.1-1-0.1-1.5-0.1c-1.2,0-2.3,0.2-3.5,0.4c-1.6,0.3-3.2,0.8-4.7,1.5c-1.8,0.8-3.4,1.8-4.9,3c-1.1,0.9-2.1,2-2.9,3.1
		c-0.9,1.1-1.6,2.3-2.2,3.6c-0.6,1.2-1.1,2.4-1.4,3.6c-0.3,1.1-0.6,2.2-0.7,3.3c0,0.2,0,0.3-0.1,0.5c-0.2,2-0.1,4,0.3,6
		c0.1,1,0.3,2,0.6,3l0,0c0.2,0.8,0.5,1.6,0.8,2.4c0.8,1.7,2,3.3,3.5,4.5l0,0c1.4,1.2,3.1,2.2,4.8,2.8c1.2,0.5,2.5,0.9,3.7,1.2
		c1.1,0.3,2.1,0.4,3,0.6c0.5,0.1,1.3,0.2,2.1,0.3s1.9,0.2,3.1,0.2c1.2,0,2.4,0,3.5-0.2c2.8-0.4,5.4-1.3,7.8-2.8
		c1.3-0.8,2.5-1.7,3.6-2.7c1.1-1.1,2.1-2.3,3-3.6c0.8-1.3,1.5-2.6,2-4c0.5-1.2,0.8-2.5,1-3.8c0.2-1.1,0.3-2.2,0.2-3.3
		c0-0.5,0-1-0.1-1.4c-0.1-1-0.3-1.9-0.5-2.8c-0.7-2.5-1.8-4.8-3.3-6.8c-0.8-1.1-1.8-2.2-2.8-3.1c-1.5-1.3-3.1-2.3-4.9-3.1
		c-1.5-0.7-3.1-1.2-4.8-1.5c-1.2-0.2-2.3-0.3-3.5-0.4C898.4,647.7,897.9,647.7,897.9,647.7L897.9,647.7z"/>
	<path class="st29" d="M890.7,651.9c-1,1-1.1,2.7-0.8,4.4c0.4,2.6,2.1,4.4,4.3,4c2.4-0.4,4-2.7,3.6-5.1c-0.4-2.6-3-4.7-5.2-4.3
		C891.8,651,891.2,651.3,890.7,651.9L890.7,651.9z"/>
	<path class="st29" d="M903.3,651.9c-1.2,0.4-1.9,1.7-2.4,3.1c-0.7,2.2-0.1,4.3,1.7,4.9c2.1,0.6,4.2-0.5,4.9-2.5
		c0.7-2.2-0.5-4.9-2.3-5.5C904.6,651.7,903.9,651.7,903.3,651.9L903.3,651.9z"/>
	<path class="st29" d="M911.6,658.5c-1.1,0.5-1.9,1.4-2.2,2.6c-0.7,1.9-0.3,3.7,1.2,4.3c1.7,0.6,3.7-0.2,4.4-1.9
		c0.7-1.9-0.2-4.3-1.7-4.9C912.7,658.4,912.1,658.3,911.6,658.5z"/>
	<path class="st20" d="M831.3,653.2c-11-0.3-20.2,8.3-20.6,19.3s8.3,20.2,19.3,20.6c0.4,0,0.8,0,1.3,0c8.4,0,16.6-2.3,19.7-9.4
		c1-2.4,1.6-9.7,1-12.5C849.9,660.3,842.6,653.2,831.3,653.2L831.3,653.2z"/>
	<path class="st24" d="M839,688.5c-3.1,1.7-6.8,1.9-10,0.5c-5.5-2.2-8.4-7.6-6.7-12.1s7.2-8,12.7-5.8s8.9,9.2,7.1,13.7
		C841.5,686.4,840.4,687.6,839,688.5L839,688.5z"/>
	<path class="st21" d="M815.5,660.6c-2.9,3.5-4.6,8-4.5,12.5c0.1,11.1,9.2,20.1,20.4,19.9c0,0,0,0,0,0c7.8,0,15.3-2,18.9-7.9v0.1
		c-0.3,0.4-0.6,0.7-1,1c-0.3,0.3-0.7,0.6-1,0.9s-0.7,0.5-1.1,0.8c-0.8,0.5-1.6,0.9-2.5,1.3c-0.9,0.4-1.8,0.7-2.7,1
		c-1,0.3-1.9,0.5-2.9,0.6c-1,0.2-2,0.3-3,0.4s-2.1,0.1-3.1,0.1c-0.7,0-1.4,0-2.1-0.1s-1.4-0.2-2-0.3s-1.3-0.3-2-0.5
		s-1.3-0.4-1.9-0.7s-1.2-0.5-1.8-0.8s-1.1-0.6-1.7-1s-1.1-0.7-1.6-1.1s-1-0.8-1.5-1.3s-0.9-0.9-1.3-1.4s-0.8-1-1.2-1.5
		s-0.7-1.1-1-1.6s-0.6-1.2-0.9-1.7c-0.8-1.8-1.3-3.7-1.5-5.7c-0.1-1.4-0.1-2.7,0-4.1c0.2-2,0.7-3.9,1.5-5.7c0.3-0.6,0.5-1.2,0.9-1.7
		C815.1,661.4,815.3,661,815.5,660.6L815.5,660.6z"/>
	<path d="M831.3,652.5c-1.5,0-3.1,0.2-4.6,0.5c-1.4,0.3-2.7,0.8-4,1.3c-2.3,1-4.4,2.4-6.2,4.2l0,0c-1.2,1.2-2.2,2.5-3.1,3.9
		c-0.8,1.2-1.4,2.5-1.9,3.9c-0.4,1.2-0.8,2.4-1,3.6c-0.2,1.1-0.3,2.1-0.3,3.2l0,0c0,1,0,2,0.2,3c0.1,0.9,0.3,1.7,0.5,2.6
		c0.4,1.4,0.9,2.7,1.5,4c0.4,0.8,0.9,1.6,1.5,2.4c0.7,1,1.5,1.9,2.4,2.8c1,0.9,2,1.8,3.2,2.5c2.4,1.5,5.1,2.5,7.9,3
		c1.3,0.2,2.7,0.3,4,0.3c1.5,0,3.1-0.2,4.6-0.4c1.3-0.2,2.3-0.4,3-0.6c0.4-0.1,1.1-0.3,1.8-0.5c0.9-0.2,1.8-0.5,2.6-0.9
		c1.8-0.7,3.4-1.7,4.9-2.9c1.5-1.3,2.7-2.8,3.5-4.6c0.4-0.9,0.6-1.8,0.8-2.7c0.3-1.2,0.4-2.4,0.5-3.6s0.2-2.5,0.2-3.7l0,0
		c0-1,0-2-0.2-3c-0.2-1.2-0.6-2.5-1-3.7c-0.6-1.6-1.3-3.1-2.2-4.5c-1.2-2-2.6-3.7-4.3-5.2c-0.9-0.8-1.9-1.4-3-2
		c-1-0.6-2.1-1.1-3.3-1.4c-1.1-0.4-2.2-0.7-3.4-0.9c-1.1-0.2-2.1-0.3-3.2-0.3c-0.5,0-0.8,0-1.1,0c-0.1,0-0.3,0-0.5,0l0,0l0,0
		c0.1,0,0.7,0.1,1.5,0.2c1.1,0.1,2.2,0.3,3.3,0.6c1.5,0.4,2.9,1,4.3,1.7c1.6,0.9,3,1.9,4.2,3.2c0.9,0.9,1.7,1.9,2.4,3
		c0.7,1.1,1.3,2.2,1.8,3.3c0.9,2.1,1.6,4.2,2.1,6.4c0.1,0.2,0.1,0.5,0.1,0.7c0.1,0.6,0.1,1.2,0.2,1.9c0.1,1.2,0,2.3,0,3.5
		s-0.1,2.3-0.3,3.5c-0.1,0.8-0.3,1.7-0.5,2.5c-0.7,1.7-1.7,3.2-2.9,4.4l0,0c-1.3,1.3-2.8,2.3-4.5,3c-1.2,0.5-2.3,0.9-3.6,1.2
		c-1,0.2-1.9,0.4-2.9,0.5c-0.5,0.1-1.3,0.1-2.2,0.2s-1.9,0-3.1,0c-1.1,0-2.3-0.2-3.4-0.4c-2.6-0.5-5.1-1.5-7.3-3
		c-1.2-0.8-2.2-1.6-3.2-2.6c-1-1-1.9-2.2-2.7-3.4c-1.3-2.2-2.3-4.6-2.7-7.2c-0.2-1-0.3-2-0.3-3c0-0.5,0-0.9,0-1.3
		c0-0.9,0.1-1.8,0.3-2.7c0.2-1.1,0.5-2.2,0.8-3.3c0.4-1.2,1-2.4,1.6-3.5c0.7-1.2,1.5-2.3,2.5-3.3c1.3-1.4,2.9-2.7,4.6-3.7
		c1.5-0.9,3.1-1.6,4.7-2.1c1.2-0.4,2.4-0.6,3.6-0.7C830.8,652.5,831.3,652.5,831.3,652.5L831.3,652.5z"/>
	<path d="M838.6,687.9c-0.8,0.5-1.7,0.9-2.7,1.1c-0.8,0.2-1.7,0.3-2.6,0.3c-0.8,0-1.5-0.1-2.3-0.3c-0.7-0.2-1.3-0.4-1.9-0.6
		c-0.8-0.3-1.5-0.8-2.2-1.3c-0.6-0.4-1.1-0.9-1.5-1.3c-0.4-0.4-0.7-0.8-1-1.3c-0.2-0.4-0.5-0.8-0.7-1.2c-0.2-0.4-0.4-0.8-0.5-1.3
		c-0.2-0.7-0.4-1.4-0.4-2.1c-0.1-0.9,0-1.9,0.3-2.8c0.2-0.6,0.5-1.2,0.8-1.7c0.3-0.5,0.7-1,1.1-1.5c0.4-0.4,0.8-0.8,1.3-1.2
		c0.4-0.3,0.8-0.6,1.2-0.8c0.4-0.2,0.7-0.4,1.1-0.6c0.3-0.1,0.6-0.2,1-0.3c0.5-0.1,1-0.2,1.5-0.2c0.6,0,1.2,0,1.8,0.2
		c0.7,0.1,1.3,0.3,1.9,0.6c0.8,0.4,1.5,0.8,2.1,1.3c0.6,0.5,1.2,1.1,1.7,1.7c0.4,0.5,0.8,1.1,1.1,1.6c0.3,0.5,0.5,0.9,0.7,1.2l0,0
		c0.3,0.5,0.5,1,0.7,1.5c0.3,0.7,0.5,1.4,0.6,2.1c0.1,0.6,0.1,1.1,0.1,1.7c0,0.6-0.2,1.1-0.3,1.7c-0.2,0.7-0.5,1.3-0.9,1.8
		c-0.3,0.5-0.8,1-1.2,1.4c-0.3,0.3-0.4,0.4-0.5,0.4l0,0l0,0c0.2,0,0.3-0.1,0.4-0.2c0.3-0.2,0.6-0.4,0.9-0.6c0.4-0.3,0.8-0.6,1.2-1
		c0.4-0.5,0.8-1,1.2-1.5c0.3-0.6,0.6-1.2,0.7-1.9c0.1-0.7,0.2-1.4,0.2-2.1c0-0.8-0.1-1.6-0.3-2.3c-0.2-0.7-0.4-1.4-0.8-2.1
		c-0.3-0.7-0.7-1.3-1.2-1.9c-0.8-0.9-1.7-1.8-2.7-2.5c-1-0.7-2-1.2-3.2-1.6c-0.8-0.3-1.6-0.4-2.4-0.5c-0.7,0-1.5,0-2.2,0.1
		c-0.6,0.1-1.2,0.2-1.8,0.4c-0.5,0.2-1,0.3-1.4,0.5l-0.2,0.1c-1.6,0.7-3.1,1.9-4.2,3.3c-0.5,0.7-0.9,1.4-1.3,2.1
		c-0.3,0.6-0.5,1.3-0.6,1.9c-0.1,0.7-0.1,1.3-0.1,2c0.1,1.3,0.5,2.5,1.1,3.7c0.4,0.7,0.8,1.3,1.3,1.9c0.4,0.4,0.8,0.8,1.3,1.2
		c0.5,0.4,1.1,0.8,1.7,1.1c0.8,0.4,1.6,0.7,2.4,1c1.2,0.3,2.4,0.5,3.6,0.5c1.1,0,2.2-0.2,3.3-0.5c0.8-0.2,1.5-0.6,2.2-1
		c0.3-0.2,0.5-0.3,0.8-0.5L838.6,687.9z"/>
	<path class="st29" d="M838.8,657.8c1,0.8,1.3,2.4,1.3,4c-0.1,2.5-1.5,4.4-3.5,4.3c-2.3-0.1-4.1-2.1-4.1-4.4
		c0.1-2.5,2.3-4.8,4.4-4.7C837.6,657.1,838.2,657.3,838.8,657.8L838.8,657.8z"/>
	<path class="st29" d="M826.8,658c1.2,0.4,1.9,1.7,2.4,3.1c0.7,2.2,0.1,4.3-1.7,4.9c-2.1,0.6-4.2-0.5-4.9-2.6
		c-0.7-2.2,0.5-4.9,2.3-5.5C825.5,657.8,826.1,657.8,826.8,658L826.8,658z"/>
	<path class="st29" d="M818.2,664.4c1.2,0.4,2.1,1.3,2.5,2.5c0.9,1.9,0.6,3.8-0.9,4.5c-1.7,0.8-3.8,0.1-4.7-1.7
		c-0.9-1.9-0.1-4.4,1.4-5.2C817,664.4,817.6,664.3,818.2,664.4L818.2,664.4z"/>
	<path d="M822.3,650.7h0.1h0.1h0.2c0.2,0,0.3,0.1,0.5,0.1c0.3,0.2,0.6,0.4,0.9,0.8c0.1,0.1,0.1,0.2,0.2,0.3c0.1,0.2,0.3,0.5,0.3,0.8
		c0.1,0.3,0.1,0.6,0,0.8c0,0.2-0.2,0.5-0.3,0.6c-0.2,0.2-0.5,0.2-0.7,0.2c-0.3-0.1-0.6-0.2-0.9-0.5c-0.2-0.2-0.5-0.5-0.6-0.8
		c-0.1-0.1-0.1-0.2-0.2-0.4c-0.2-0.4-0.2-0.8-0.2-1.2c0-0.2,0.1-0.3,0.2-0.5c0-0.1,0.1-0.1,0.2-0.2l0.1-0.1L822.3,650.7L822.3,650.7
		z"/>
	<path class="st25" d="M862.1,653.4L862.1,653.4l0.3,0.3l0.4,0.4l0.4,0.4c0.1,0.1,0.1,0.1,0.2,0.2c0,0.1,0.1,0.1,0.1,0.2l0.1,0.2
		c0.1,0.1,0.2,0.2,0.3,0.3c0.3,0.2,0.5,0.5,0.7,0.7c0,0.1,0.1,0.1,0.1,0c0-0.1,0-0.2,0-0.3c-0.1-0.3-0.2-0.6-0.4-0.9
		c0-0.1-0.1-0.2-0.1-0.4c-0.1-0.1-0.2-0.3-0.3-0.4l0,0c-0.1-0.1-0.2-0.1-0.3-0.2l-0.5-0.2c-0.3-0.1-0.5-0.3-0.8-0.5l-0.2-0.2
		l-0.1-0.1H862c0,0,0,0-0.1,0c0,0,0,0,0,0.1c0,0,0,0.1,0,0.1C862,653.2,862,653.3,862.1,653.4L862.1,653.4z"/>
	<path d="M862.2,653.2L862.2,653.2c0.3,0.3,0.6,0.6,0.8,0.9c0.2,0.2,0.4,0.5,0.6,0.7c0.1,0.1,0.2,0.2,0.4,0.3s0.3,0.3,0.4,0.4
		c0.1,0.1,0.2,0.3,0.3,0.4c0,0.1,0.1,0.1,0.1,0c0-0.1,0-0.2,0-0.3c0-0.2-0.1-0.3-0.1-0.5c-0.1-0.2-0.2-0.3-0.3-0.5
		c-0.1-0.2-0.3-0.5-0.5-0.6l-0.5-0.3c-0.4-0.3-0.7-0.5-1-0.7l-0.2-0.1l-0.1-0.1H862l0,0c0,0,0,0,0,0l0,0c0,0,0,0.1,0,0.1
		C862,653,862.1,653.1,862.2,653.2L862.2,653.2z"/>
	<path d="M862.2,655.8L862.2,655.8c0.1-0.1,0.5-0.4,0.9-0.7c0.3-0.2,0.5-0.4,0.7-0.6l0.4-0.6c0.2-0.3,0.4-0.5,0.5-0.8s0-0.1-0.1-0.1
		c-0.2,0.1-0.3,0.2-0.5,0.3c-0.2,0.1-0.4,0.3-0.6,0.4c-0.2,0.1-0.3,0.3-0.5,0.5l-0.4,0.5c-0.2,0.3-0.4,0.6-0.7,0.8l-0.1,0.1
		c0,0-0.1,0.1-0.1,0.1c0,0,0,0.1,0,0.1l0,0l0,0l0,0h0.1C862,655.9,862.1,655.8,862.2,655.8L862.2,655.8z"/>
	<g id="path3334">
		
			<image style="overflow:visible;opacity:0.75;enable-background:new    ;" width="48" height="233" xlink:href="E55F6EFB.png"  transform="matrix(0.9792 0 0 0.9957 776 490)">
		</image>
		
			<linearGradient id="SVGID_10_" gradientUnits="userSpaceOnUse" x1="563.1303" y1="790.374" x2="590.4003" y2="788.444" gradientTransform="matrix(-1 0 0 1 1384.4399 -192.22)">
			<stop  offset="0" style="stop-color:#4F2D17"/>
			<stop  offset="0.49" style="stop-color:#D28C5F"/>
			<stop  offset="1" style="stop-color:#482914"/>
		</linearGradient>
		<polygon class="st30" points="793.7,703.1 806.3,703.4 816.7,614.1 820.9,528.5 820.9,491.2 810.1,491.2 803.8,528.5 799.4,591 
			795.6,664.8 		"/>
		<polygon class="st2" points="793.7,703.1 806.3,703.4 816.7,614.1 820.9,528.5 820.9,491.2 810.1,491.2 803.8,528.5 799.4,591 
			795.6,664.8 		"/>
	</g>
	<g id="g8423">
		
			<image style="overflow:visible;opacity:0.75;enable-background:new    ;" width="257" height="67" xlink:href="E55F6EF5.png"  transform="matrix(0.9961 0 0 0.9851 736 448)">
		</image>
		<path class="st8" d="M990.1,463.1v16.1c-5.1,1.8-10.4,3.1-15.8,4.1c-6.6,1-86.8,10.7-90,10.7s-48.6,0.6-53,0.6s-24.3-1.6-28.1-1.6
			S754,476.4,754,476.4l-0.3-4.1l0.6-12.6l4.1-1.6l115.5-8.2l12.3-1l20.5,0.6l52.4,7l26.8,4.7L990.1,463.1z"/>
		<path class="st2" d="M989.8,463.4c0,0-27.2,8.2-36.3,8.2s-79.2,6.6-84.6,6.6s-59.7,0.3-59.7,0.3s-7-0.6-12-1s-39.8-13.2-41.7-14.8
			s-1.2-2.9-1.2-2.9"/>
		
			<linearGradient id="SVGID_11_" gradientUnits="userSpaceOnUse" x1="620.9268" y1="663.93" x2="573.4868" y2="679.03" gradientTransform="matrix(-1 0 0 1 1384.4399 -192.22)">
			<stop  offset="0" style="stop-color:#8F5228"/>
			<stop  offset="1" style="stop-color:#D28C5F"/>
		</linearGradient>
		<path class="st31" d="M813.3,478.8l-0.7,14.1l-11.1-0.4l-24.6-8.2l-22.8-8.3l-0.3-6.4l0.5-7.1l18.9,7.8c0,0,19.3,6.8,25.1,7.7
			C803.4,478.7,808.3,478.9,813.3,478.8L813.3,478.8z"/>
	</g>
</g>
</svg>
