<?xml version="1.0" encoding="UTF-8" standalone="no"?>
<!-- Generator: Adobe Illustrator 20.0.0, SVG Export Plug-In . SVG Version: 6.00 Build 0)  -->

<svg
   xmlns:dc="http://purl.org/dc/elements/1.1/"
   xmlns:cc="http://creativecommons.org/ns#"
   xmlns:rdf="http://www.w3.org/1999/02/22-rdf-syntax-ns#"
   xmlns:svg="http://www.w3.org/2000/svg"
   xmlns="http://www.w3.org/2000/svg"
   xmlns:xlink="http://www.w3.org/1999/xlink"
   xmlns:sodipodi="http://sodipodi.sourceforge.net/DTD/sodipodi-0.dtd"
   xmlns:inkscape="http://www.inkscape.org/namespaces/inkscape"
   version="1.1"
   id="svg16054"
   inkscape:version="0.91 r13725"
   sodipodi:docname="quiz1.svg"
   x="0px"
   y="0px"
   viewBox="0 0 1700.8 949.6"
   style="enable-background:new 0 0 1700.8 949.6;"
   xml:space="preserve"><metadata
     id="metadata355"><rdf:RDF><cc:Work
         rdf:about=""><dc:format>image/svg+xml</dc:format><dc:type
           rdf:resource="http://purl.org/dc/dcmitype/StillImage" /></cc:Work></rdf:RDF></metadata><style
     type="text/css"
     id="style3">
	.st0{fill:#FFFFFF;}
	.st1{fill:#6B3C1F;stroke:#000000;}
	.st2{fill:#6B3C1F;stroke:#000000;stroke-linejoin:round;}
	.st3{fill:url(#SVGID_1_);stroke:#000000;}
	.st4{fill:#8D5027;stroke:#000000;}
	.st5{fill:url(#SVGID_2_);stroke:#000000;}
	.st6{fill:url(#SVGID_3_);stroke:#000000;}
	.st7{fill:url(#SVGID_4_);stroke:#000000;}
	.st8{fill:#D28C5F;stroke:#000000;}
	.st9{fill:url(#SVGID_5_);stroke:#000000;}
	.st10{fill:url(#SVGID_6_);stroke:#000000;}
	.st11{fill:url(#SVGID_7_);stroke:#000000;}
	.st12{fill:url(#SVGID_8_);stroke:#000000;}
	.st13{fill:url(#SVGID_9_);stroke:#000000;stroke-width:1.02;}
	.st14{fill:url(#SVGID_10_);stroke:#000000;}
	.st15{fill:#855B3E;}
	.st16{fill:none;stroke:#000000;stroke-width:1.02;}
	.st17{fill:#A05B2B;stroke:#000000;stroke-width:1.02;}
	.st18{fill:#6C5353;stroke:#000000;stroke-width:1.02;}
	.st19{fill:#906F6F;stroke:#000000;stroke-width:1.02;}
	.st20{fill:none;stroke:#000000;}
	.st21{fill:url(#SVGID_11_);}
	.st22{fill:#A06121;}
	.st23{fill:#6E4A25;}
	.st24{fill:#956C45;stroke:#000000;stroke-width:3;}
	.st25{fill:#B8854F;}
	.st26{fill:#834317;}
	.st27{fill:#5D381E;}
	.st28{fill:none;stroke:#000000;stroke-width:5;}
	.st29{fill:#DDCEBE;}
	.st30{stroke:#000000;stroke-width:5;}
	.st31{fill:#834317;stroke:#000000;stroke-width:3;}
</style><defs
     id="defs5"><inkscape:path-effect
       effect="spiro"
       id="path-effect5341"
       is_visible="true" /><inkscape:path-effect
       effect="spiro"
       id="path-effect17606"
       is_visible="true" /><inkscape:path-effect
       effect="spiro"
       id="path-effect16830"
       is_visible="true" /><inkscape:path-effect
       effect="spiro"
       id="path-effect16826"
       is_visible="true" /><inkscape:path-effect
       effect="spiro"
       id="path-effect16822"
       is_visible="true" /><inkscape:path-effect
       effect="spiro"
       id="path-effect16818"
       is_visible="true" /><inkscape:path-effect
       effect="spiro"
       id="path-effect16814"
       is_visible="true" /><inkscape:path-effect
       effect="spiro"
       id="path-effect16810"
       is_visible="true" /><inkscape:path-effect
       effect="spiro"
       id="path-effect16806"
       is_visible="true" /><inkscape:path-effect
       effect="spiro"
       id="path-effect16802"
       is_visible="true" /><inkscape:path-effect
       effect="spiro"
       id="path-effect16798"
       is_visible="true" /><inkscape:path-effect
       effect="spiro"
       id="path-effect16794"
       is_visible="true" /><inkscape:path-effect
       effect="spiro"
       id="path-effect16790"
       is_visible="true" /><inkscape:path-effect
       effect="spiro"
       id="path-effect16786"
       is_visible="true" /><inkscape:path-effect
       effect="spiro"
       id="path-effect16782"
       is_visible="true" /><inkscape:path-effect
       effect="spiro"
       id="path-effect16778"
       is_visible="true" /><inkscape:path-effect
       effect="spiro"
       id="path-effect16774"
       is_visible="true" /></defs><sodipodi:namedview
     bordercolor="#666666"
     borderlayer="true"
     borderopacity="1.0"
     fit-margin-bottom="0"
     fit-margin-left="0"
     fit-margin-right="0"
     fit-margin-top="0"
     id="base"
     inkscape:current-layer="svg16054"
     inkscape:cx="701.87495"
     inkscape:cy="334.05534"
     inkscape:document-units="cm"
     inkscape:pageopacity="0.0"
     inkscape:pageshadow="2"
     inkscape:window-height="744"
     inkscape:window-maximized="1"
     inkscape:window-width="1366"
     inkscape:window-x="0"
     inkscape:window-y="24"
     inkscape:zoom="0.35"
     pagecolor="#ffffff"
     showgrid="false"
     units="cm" /><g
     id="layer2"
     inkscape:groupmode="layer"
     inkscape:label="background"><rect
       id="rect4177"
       y="-3.5"
       class="st0"
       width="1716.6"
       height="953.1" /></g><g
     id="layer1"><image
       sodipodi:absref="/home/daniel/Projects/L2TOR_project/freeplay-sandbox/qt-gui/res/1831B205.png"
       xlink:href="1831B205.png"
       id="image28"
       transform="matrix(0.9968 0 0 0.998 697 224)"
       height="503"
       width="308"
       style="overflow:visible;opacity:0.75;enable-background:new    ;" /><g
       id="g4249"><polygon
         class="st1"
         points="923.2,482.1 920.1,487.9 929.9,573.2 937.3,617.6 944.7,653.5 954.7,653.1 954.5,642.4 946.9,577.2     937.5,517.4 930.8,482.1   "
         id="polygon31" /><polygon
         class="st2"
         points="797,633.4 808.8,634.3 814.3,569.7 818.7,524.9 819.3,494.6 806.1,494.6 800.4,562.8 797.9,615.2       "
         id="polygon33" /><g
         id="g8412"><linearGradient
           id="SVGID_1_"
           gradientUnits="userSpaceOnUse"
           x1="1306.8522"
           y1="786.307"
           x2="1403.0522"
           y2="755.457"
           gradientTransform="matrix(1 0 0 1 -601.88 -192.22)"><stop
             offset="0"
             style="stop-color:#8D5027"
             id="stop37" /><stop
             offset="1"
             style="stop-color:#6B3C1F"
             id="stop39" /></linearGradient><path
           class="st3"
           d="M721.1,594.9l88.7-28.9c0.8-1.7,0.9-3.7,0.4-5.5c-1-2.9-4.6-2.9-4.6-2.9L768,567.9l-49.2,18L721.1,594.9z"
           id="path41" /><path
           class="st4"
           d="M773.5,568.9c0,0,45.7,2.6,68.6,4.6s72.8,9.5,72.8,9.5l-3.5,3.3l0.9,4.2c0,0-45.8-2.5-69-4.5s-70.5-9-70.5-9     c-0.8-1.2-1.3-2.7-1.4-4.1C771.4,570.8,773.5,568.9,773.5,568.9L773.5,568.9z"
           id="path43" /><linearGradient
           id="SVGID_2_"
           gradientUnits="userSpaceOnUse"
           x1="1295.1635"
           y1="793.5859"
           x2="1366.4835"
           y2="751.0959"
           gradientTransform="matrix(1 0 0 1 -427.34 -177.79)"><stop
             offset="0"
             style="stop-color:#C28156"
             id="stop46" /><stop
             offset="1"
             style="stop-color:#6B3C1F"
             id="stop48" /></linearGradient><path
           class="st5"
           d="M892.2,607.7l48.5-30.9c0.8-1.7,0.9-3.7,0.4-5.5c-1-2.9-4.6-2.9-4.6-2.9c-9.2,5.9-12.2,7.8-20,12.5     s-26.8,15.7-26.8,15.7L892.2,607.7z"
           id="path50" /></g><linearGradient
         id="SVGID_3_"
         gradientUnits="userSpaceOnUse"
         x1="1300.1405"
         y1="774.8557"
         x2="1326.9905"
         y2="778.0857"
         gradientTransform="matrix(1 0 0 1 -601.88 -192.22)"><stop
           offset="0"
           style="stop-color:#492A16"
           id="stop53" /><stop
           offset="0.49"
           style="stop-color:#D28C5F"
           id="stop55" /><stop
           offset="1"
           style="stop-color:#593219"
           id="stop57" /></linearGradient><polyline
         class="st6"
         points="708.2,684.6 698.2,683.5 706.6,582.1 718.3,485.1 731.6,485.7 728.4,549.5 720.8,610.1 712,682.7       "
         id="polyline59" /><linearGradient
         id="SVGID_4_"
         gradientUnits="userSpaceOnUse"
         x1="1480.1302"
         y1="794.3743"
         x2="1507.4003"
         y2="792.4443"
         gradientTransform="matrix(1 0 0 1 -601.88 -192.22)"><stop
           offset="0"
           style="stop-color:#4F2D17"
           id="stop62" /><stop
           offset="0.49"
           style="stop-color:#D28C5F"
           id="stop64" /><stop
           offset="1"
           style="stop-color:#482914"
           id="stop66" /></linearGradient><polygon
         class="st7"
         points="905.9,707.1 893.2,707.4 882.8,618.1 878.7,532.5 878.7,495.2 889.4,495.2 895.8,532.5 900.2,595     904,668.8   "
         id="polygon68" /><g
         id="g8390"><path
           class="st8"
           d="M811.2,251.5c0,0,62.1,5,75.3,5.8s80.6-0.4,80.6-0.4l-6,34.6c0,0-67.3,0.6-75.3,0s-75.5-6.2-75.5-6.2     l-0.6-34.1L811.2,251.5z"
           id="path71" /><linearGradient
           id="SVGID_5_"
           gradientUnits="userSpaceOnUse"
           x1="1436.7303"
           y1="564.0276"
           x2="1448.6504"
           y2="564.3475"
           gradientTransform="matrix(1 0 0 1 -601.88 -192.22)"><stop
             offset="0"
             style="stop-color:#693B1D"
             id="stop74" /><stop
             offset="0.49"
             style="stop-color:#D28C5F"
             id="stop76" /><stop
             offset="1"
             style="stop-color:#563117"
             id="stop78" /></linearGradient><path
           class="st9"
           d="M835.2,455.2c0,0,1.3-76.5,1.3-88.9s3.8-79.4,3.8-79.4l4.9,0.5c0,0-1.2,82.5-1.2,97.3s-2,71.1-2,71.1     c-1,0.5-2.2,0.8-3.3,0.9C837.4,456.5,836.2,456,835.2,455.2L835.2,455.2z"
           id="path80" /><linearGradient
           id="SVGID_6_"
           gradientUnits="userSpaceOnUse"
           x1="1460.8501"
           y1="566.1385"
           x2="1476.5702"
           y2="567.4285"
           gradientTransform="matrix(1 0 0 1 -601.88 -192.22)"><stop
             offset="0"
             style="stop-color:#492A16"
             id="stop83" /><stop
             offset="0.49"
             style="stop-color:#D28C5F"
             id="stop85" /><stop
             offset="1"
             style="stop-color:#5B3319"
             id="stop87" /></linearGradient><path
           class="st10"
           d="M857,457.3c0,0,3.7-63,5.3-77.8s8.8-89.6,8.8-89.6l5,0.5l-0.3,3.5c0,0-4.5,87.2-6.6,111.1     s-4.9,53.5-4.9,53.5c-1.4,0.4-2.8,0.6-4.3,0.5C859,458.6,858,458,857,457.3L857,457.3z"
           id="path89" /><linearGradient
           id="SVGID_7_"
           gradientUnits="userSpaceOnUse"
           x1="1488.7596"
           y1="567.1127"
           x2="1502.1296"
           y2="568.7228"
           gradientTransform="matrix(1 0 0 1 -601.88 -192.22)"><stop
             offset="0"
             style="stop-color:#5D351A"
             id="stop92" /><stop
             offset="0.49"
             style="stop-color:#D28C5F"
             id="stop94" /><stop
             offset="1"
             style="stop-color:#673A1C"
             id="stop96" /></linearGradient><path
           class="st11"
           d="M883.5,460.6c-2.4-0.5-3-1.5-3-1.5s5.7-55.3,6.9-65.9S901,290.9,901,290.9l4.4,0.2c0,0-8.9,89.7-11.3,112.3     s-6.6,56.4-6.6,56.4C886.4,460.6,884.9,460.9,883.5,460.6L883.5,460.6z"
           id="path98" /><linearGradient
           id="SVGID_8_"
           gradientUnits="userSpaceOnUse"
           x1="1516.0898"
           y1="568.0217"
           x2="1529.4598"
           y2="569.9317"
           gradientTransform="matrix(1 0 0 1 -601.88 -192.22)"><stop
             offset="0"
             style="stop-color:#5D351A"
             id="stop101" /><stop
             offset="0.49"
             style="stop-color:#D28C5F"
             id="stop103" /><stop
             offset="1"
             style="stop-color:#5D351A"
             id="stop105" /></linearGradient><path
           class="st12"
           d="M907.6,463c-1.1-0.6-2.1-1.3-3.1-2.1c0,0,7.2-53,9.3-64.1s17-106.1,17-106.1l4.3-0.1     c0,0-12.7,101.7-14.8,119.8s-7.7,52.1-7.7,52.1S909.1,463.7,907.6,463L907.6,463z"
           id="path107" /><linearGradient
           id="SVGID_9_"
           gradientUnits="userSpaceOnUse"
           x1="1549.146"
           y1="538.0381"
           x2="1565.606"
           y2="541.6982"
           gradientTransform="matrix(1 0 0 1 -601.88 -192.22)"><stop
             offset="0"
             style="stop-color:#563117"
             id="stop110" /><stop
             offset="0.47"
             style="stop-color:#D28C5F"
             id="stop112" /><stop
             offset="1"
             style="stop-color:#4F2D17"
             id="stop114" /></linearGradient><path
           class="st13"
           d="M928.4,462.8c0,0,11.8-71.6,12-73s2.7-6.1,2.7-6.1c-0.8-1.4-1.2-2.9-1.1-4.5c0.2-1.4,1.1-2.6,2.3-3.2     c0,0-2.1-6-0.9-10.5s13.8-55.9,14.3-58.6c0.5-2.7-0.4-6.9-0.2-8.3c0.1-0.8,0.8-1.4,1.6-1.4c0,0-1.4-2-1.2-3.3s2-2.3,2-2.3     s1.7-12.1,2.7-18.1c1.1-6,4.8-18.4,4.8-18.4s-1.3-1-0.1-4.3s2.4-5.4,2.8-6.3s-0.7-3.4-0.7-3.4s-3.3-13,9.7-10.6     c13.2,2.5,1.9,13.1,1.4,14.1c-1.9,3.6,1.6,3.7,0.9,9.6c-0.3,2.1-2.6,3.9-2.6,3.9l-1.7,18.3l-4.7,18c0,0,1.3,0.2,1,2.3     c-0.2,1.1-0.7,2.2-1.5,3c0.1,1.1,0,2.2-0.3,3.3c-0.4,1.4-2.7,1.1-3,2.9s-9.5,62.7-10.1,64.9s-3.9,7.3-3.9,7.3     c1.2,0.8,1.7,2.3,1.4,3.7c-0.3,1.6-1.1,3.1-2.3,4.2c0,0-1.5,17.6-2.2,21L939,464.5c0,0-3.9,1-5.6,0.7s-5-2.5-5-2.5L928.4,462.8z"
           id="path116" /><linearGradient
           id="SVGID_10_"
           gradientUnits="userSpaceOnUse"
           x1="1397.488"
           y1="532.7886"
           x2="1416.8981"
           y2="533.4387"
           gradientTransform="matrix(1 0 0 1 -601.88 -192.22)"><stop
             offset="0"
             style="stop-color:#4F2D17"
             id="stop119" /><stop
             offset="0.47"
             style="stop-color:#D28C5F"
             id="stop121" /><stop
             offset="1"
             style="stop-color:#4D2C16"
             id="stop123" /></linearGradient><path
           class="st14"
           d="M797,455.3c0,0,0.3-71.9,0.3-73.2s1.8-6.7,1.8-6.7s-2.7-1.3-2.2-3.6s3.1-4,3.1-4s-4.5-4.5-4-8.9     s4.5-54,4.5-56.7c0-2.7-2.2-5.8-2.2-7.1s1.8-4,1.8-4s-2.2-1.9-2.2-3.1s1.9-2.4,1.9-2.4l0.8-35.5c0,0-2.7-0.7-2-4s3.8-6.3,4-7.1     s-2.5-2-2.5-2s-6.9-13.2,6.5-12.1s4.8,12.3,4.5,13.4c-1.2,3.8,1.6,2.9,1.9,8.6c0.1,2-1.9,4.1-1.9,4.1v35.5c0,0,2.4,0.6,2.4,2.6     c0,1.2-0.8,2.2-1.9,2.5c0.7,0.9,1.2,2,1.3,3.2c0,1.3-2.2,2-2.2,3.8s1.6,60.3,1.3,62.5s-2.7,7.6-2.7,7.6s2.5,1.6,2.5,4     c-0.1,1.5-0.9,3-2.2,3.8c0,0,1.8,16.8,1.7,20.1c-0.3,7.4-3.3,58.7-3.3,58.7s-3.5,1.8-5.4,1.9S797,455.3,797,455.3L797,455.3z"
           id="path125" /><path
           class="st15"
           d="M811,283.9c0,0,66.3,6.4,76.1,6.4s72.9-0.5,72.9-0.5l-0.7,1.6c0,0-66.8,0.9-74.1,0.5s-74.3-6.2-74.3-6.2     V283.9z"
           id="path127" /><path
           class="st16"
           d="M970.1,241.9c3.6-0.5,7.2,0.1,10.5,1.6"
           id="path129" /><path
           class="st16"
           d="M967.3,254.4c0,0,8.3-0.5,12.1,2.8"
           id="path131" /><path
           class="st16"
           d="M959.1,296.8c0,0,5.4-1.4,12.5,2.2"
           id="path133" /><path
           class="st17"
           d="M957.8,302.5c0,0,7.3-2,11.8,1.7"
           id="path135" /><path
           class="st18"
           d="M944.6,375.8c0,0,8.1-0.4,10.9,1.9"
           id="path137" /><path
           class="st19"
           d="M943.3,383.5c0,0,6.1-0.3,10.7,2.5"
           id="path139" /><path
           class="st20"
           d="M802.1,238.1c0,0,3.2-1.5,8.5,0.1"
           id="path141" /><path
           class="st20"
           d="M800.3,249.8c0,0,6.8-2,11,0.4"
           id="path143" /><path
           class="st20"
           d="M800.1,290.7c0,0,4.2-1.7,11.8,0.4"
           id="path145" /><path
           class="st20"
           d="M798.9,296.2c0,0,7.7-2.4,12.8,0.2"
           id="path147" /><path
           class="st20"
           d="M799.9,367.7c0,0,5.8-1.2,8.9,0.5"
           id="path149" /><path
           class="st20"
           d="M799.1,375.4c0,0,5.9-1.5,10.9,0.3"
           id="path151" /></g><g
         id="g8423"><path
           class="st8"
           d="M709.5,467.1v16.1c5.1,1.8,10.4,3.1,15.8,4.1c6.6,1,86.8,10.7,90,10.7s48.6,0.6,53,0.6s24.3-1.6,28.1-1.6     s49.3-16.7,49.3-16.7l0.3-4.1l-0.6-12.6l-4.1-1.6l-115.5-8.2l-12.3-1l-20.5,0.6l-52.4,7l-26.8,4.7L709.5,467.1z"
           id="path154" /><path
           class="st20"
           d="M709.8,467.4c0,0,27.1,8.2,36.3,8.2s79.2,6.6,84.6,6.6s59.7,0.3,59.7,0.3s7-0.6,12-1s39.8-13.2,41.7-14.8     s1.2-2.9,1.2-2.9"
           id="path156" /><linearGradient
           id="SVGID_11_"
           gradientUnits="userSpaceOnUse"
           x1="1537.9264"
           y1="667.9288"
           x2="1490.4865"
           y2="683.0288"
           gradientTransform="matrix(1 0 0 1 -601.88 -192.22)"><stop
             offset="0"
             style="stop-color:#8F5228"
             id="stop159" /><stop
             offset="1"
             style="stop-color:#D28C5F"
             id="stop161" /></linearGradient><path
           class="st21"
           d="M886.2,482.8l0.7,14.1l11.1-0.4l24.5-8.2l22.8-8.3l0.3-6.4l-0.5-7.1l-18.9,7.8c0,0-19.3,6.8-25.1,7.7     C896.1,482.7,891.2,482.9,886.2,482.8L886.2,482.8z"
           id="path163" /></g></g></g><path
     class="st22"
     d="M848.8,404.2c10.8,15.5,14.5,30.2,11.4,42.3c-3.9,15.2-20,22.2-36.6,22.7c-18.8,0.5-29.9-11-33.3-18  c-4.1-8.6-7.6-29.9,10.9-47.3"
     id="path167" /><path
     class="st23"
     d="M800.9,414.2L800.9,414.2c-17.8,14.4-12.1,31.4-8.1,38.5c3.2,5.8,11.5,16.4,29.4,15.9  c11.6-0.3,23-3.8,29.7-10.5l-0.2,0.2c-0.7,0.5-1.4,1-2.1,1.4s-1.5,0.9-2.3,1.3s-1.6,0.8-2.4,1.1s-1.7,0.7-2.5,1s-1.8,0.6-2.7,0.8  s-1.8,0.5-2.8,0.7s-1.9,0.4-2.8,0.6s-1.9,0.3-2.9,0.4s-1.9,0.2-2.9,0.3s-2,0.1-3,0.1s-2.2,0-3.3,0s-2.1-0.1-3.1-0.3s-2-0.3-2.9-0.5  s-1.9-0.4-2.8-0.6s-1.8-0.5-2.6-0.8s-1.6-0.6-2.4-0.9s-1.5-0.7-2.2-1s-1.4-0.8-2.1-1.1s-1.3-0.8-1.9-1.2s-1.2-0.8-1.7-1.3  s-1.1-0.9-1.6-1.3s-1-0.9-1.4-1.3s-0.8-0.9-1.2-1.3s-0.7-0.9-1-1.3c-0.6-0.7-1.1-1.5-1.5-2.4c-0.2-0.4-0.5-0.9-0.7-1.5  s-0.5-1.1-0.7-1.7s-0.4-1.2-0.6-1.9s-0.3-1.4-0.5-2.1s-0.3-1.5-0.4-2.2s-0.2-1.6-0.2-2.4s0-1.6,0-2.5s0.1-1.7,0.2-2.6  s0.3-1.8,0.5-2.7s0.5-1.8,0.8-2.8s0.7-1.9,1.1-2.8s0.9-1.9,1.4-2.8s1.1-1.9,1.8-2.8s1.4-1.9,2.2-2.8s1.7-1.9,2.6-2.8L800.9,414.2  L800.9,414.2z"
     id="path169" /><path
     class="st24"
     d="M825.5,430c-7.4,1.1-10.8,6.9-12.5,15c-2,9.2,6,18.7,14.3,20.5c8.2,1.9,16.4-3.1,18.3-11.2  c0.1-0.2,0.1-0.5,0.2-0.8c2-9.2-1.3-22.6-9.2-23.7C835.5,429.6,826.5,429.8,825.5,430L825.5,430z"
     id="path171" /><path
     d="M837.4,390.4c2.9,3.2,5.6,6.3,7.8,9.3c2.1,2.7,4.1,5.6,5.9,8.6c2.9,4.6,5.2,9.6,6.9,14.7c0.8,2.5,1.4,5,1.8,7.6  c0.3,2,0.5,4.1,0.5,6.2c0,1.7-0.1,3.3-0.3,5c-0.2,1.3-0.5,2.7-0.8,4c-0.1,0.4-0.2,0.9-0.4,1.3c-0.4,1.3-0.9,2.6-1.5,3.8  c-0.8,1.6-1.8,3.1-2.9,4.5c-1.1,1.4-2.3,2.6-3.6,3.7c-1.4,1.2-2.9,2.3-4.5,3.3c-1.7,1-3.4,1.9-5.2,2.6c-1.7,0.7-3.5,1.3-5.4,1.8l0,0  c-2.2,0.6-4.5,1.1-6.8,1.4c-2,0.3-3.8,0.4-5.1,0.5h-1.2c-1.5,0-3-0.1-4.5-0.3c-2.3-0.3-4.5-0.8-6.7-1.5c-6.3-2.1-11.9-5.9-16.1-11  c-0.8-0.9-1.5-1.9-2.1-2.9c-0.6-0.9-1.2-1.9-1.6-2.9c-0.7-1.5-1.2-3-1.7-4.6c-0.4-1.4-0.7-2.7-0.9-3.8c-0.1-0.7-0.2-1.3-0.3-1.8  c-0.2-1.4-0.4-2.8-0.5-4.3c-0.1-1.8-0.1-3.7,0.1-5.5c0.2-2.2,0.5-4.4,1.1-6.5c0.6-2.3,1.4-4.5,2.4-6.7c1-2.3,2.3-4.4,3.7-6.4  c1.3-1.9,2.8-3.6,4.4-5.3l1.3-1.3c0.3-0.3,0.3-0.4,0.3-0.4c-0.7,0.4-1.3,0.9-1.9,1.5c-3.6,3.3-6.6,7.2-8.9,11.5l0,0  c-1.1,2.1-2,4.2-2.7,6.5c-0.7,2.3-1.2,4.7-1.5,7.1c-0.2,2.1-0.3,4.2-0.2,6.3c0.1,2,0.3,3.9,0.7,5.8c0.3,1.7,0.8,3.4,1.3,5.1  c0.4,1.3,1,2.5,1.6,3.7c1.1,2.2,2.6,4.2,4.2,6l0,0c4.6,5.1,10.5,8.8,17.1,10.7l0,0c2.3,0.7,4.6,1.1,7,1.4c1.9,0.2,3.8,0.3,5.8,0.2  c0.8,0,1.6,0,2.2-0.1c1,0,2.4-0.1,4-0.4c2-0.2,4-0.6,5.9-1.1c1.8-0.4,3.6-1,5.4-1.6c2-0.7,3.8-1.6,5.7-2.6l0,0  c1.6-0.9,3.2-2,4.7-3.1c1.5-1.2,2.9-2.5,4.1-4c1.3-1.5,2.4-3.2,3.3-4.9c0.9-1.7,1.5-3.5,2-5.3c0.8-2.9,1.1-6,1.1-9  c0-2.3-0.3-4.5-0.7-6.7c-0.2-1-0.5-2.3-0.9-3.6s-0.8-2.8-1.4-4.3c-0.7-1.8-1.5-3.7-2.4-5.6s-1.9-3.8-3-5.7s-2.3-3.7-3.5-5.5  s-2.5-3.4-3.7-5c-2.5-3.1-4.8-5.7-6.5-7.5S837.4,390.4,837.4,390.4L837.4,390.4z"
     id="path173" /><path
     class="st22"
     d="M788.6,466.5c-0.4-7.4,0.5-17.1,9.5-17.2c7.2-0.1,14.3,6.4,15.8,14.1"
     id="path175" /><path
     class="st22"
     d="M874.9,458.3c0,0-3.4-10.1-6.7-13.4c-0.9-0.9-4.4-3.5-7.5-2.8c-8.1,2-12.6,10.9-14.8,17.9  c-0.3,1-1.7,4.9-0.5,7.6"
     id="path177" /><path
     class="st23"
     d="M846.4,465.9c-1.3-2.7,1.2-6.3,1.4-7.3c0.4-1.3,1.8-3.5,1.5-5c-1,2-2.7,4.7-3.3,6.7c-0.3,1-1.7,4.9-0.5,7.6  C856,466.6,851.7,464.5,846.4,465.9L846.4,465.9z"
     id="path179" /><path
     d="M788.7,466.7c-0.2-1.9-0.1-3.8,0.1-5.7l0,0c0.1-1.1,0.3-2.1,0.7-3.2c0.2-0.7,0.5-1.5,0.8-2.2l0,0c0.2-0.5,0.5-1,0.8-1.4  c0.3-0.4,0.5-0.7,0.8-1c0.4-0.5,0.9-1,1.4-1.4c0.7-0.6,1.4-1,2.2-1.3c0.8-0.3,1.7-0.5,2.6-0.6c0.8-0.1,1.6-0.1,2.5,0  c0.4,0.1,0.7,0.2,1.1,0.3c0.6,0.2,1.1,0.4,1.6,0.7c0.8,0.4,1.6,1,2.4,1.5c0.7,0.6,1.4,1.2,2.1,1.9c0.8,0.8,1.3,1.5,1.7,1.8  c0.4,0.4,0.8,0.8,1.1,1.2c0.5,0.6,0.9,1.2,1.3,1.8c0.4,0.7,0.8,1.4,1.1,2.1c0.3,0.7,0.5,1.4,0.7,2.1c0.1,0.3,0.1,0.5,0.2,0.5  s0.1-0.2,0.2-0.4c0.1-1,0-1.9-0.2-2.9c-0.1-0.7-0.3-1.3-0.6-2c-0.3-0.7-0.6-1.4-0.9-2c-0.3-0.6-0.7-1.2-1.2-1.8  c-0.4-0.5-0.8-0.9-1.3-1.3c-0.3-0.2-0.5-0.4-0.8-0.6c-0.8-0.6-1.7-1.2-2.7-1.7c-0.9-0.5-1.8-0.8-2.7-1.2c-0.7-0.2-1.4-0.4-2.2-0.5  c-0.6-0.1-1.2-0.2-1.6-0.3c-0.6-0.1-1.2-0.2-1.8-0.3c-0.9-0.1-1.9,0-2.8,0.2c-1.1,0.2-2.2,0.7-3.1,1.3c-0.9,0.6-1.6,1.4-2.3,2.3  c-0.5,0.7-0.9,1.5-1.2,2.3c-0.1,0.3-0.2,0.5-0.2,0.8c-0.2,0.7-0.3,1.5-0.4,2.3c-0.1,1-0.1,1.9-0.1,2.9c0,1.3,0.2,2.7,0.4,4  C788.6,466,788.7,466.7,788.7,466.7L788.7,466.7z"
     id="path181" /><path
     class="st23"
     d="M861.4,442.6c-0.4,0-0.8,0-1.2,0.1c-3,0.8-5.7,2.4-7.7,4.7l0.1-0.1c0.4-0.3,0.8-0.7,1.2-1s0.8-0.6,1.2-0.9  c0.4-0.3,0.9-0.5,1.3-0.7c0.5-0.2,0.9-0.4,1.4-0.6c0.5-0.2,1-0.3,1.5-0.5c0.4-0.1,0.8-0.1,1.2-0.1c0.4,0,0.8,0,1.2,0.1  c0.4,0.1,0.8,0.2,1.2,0.3c0.4,0.1,0.7,0.3,1.1,0.5c0.6,0.3,1.2,0.7,1.8,1.1c0.4,0.3,0.8,0.6,1.1,0.9c0.5,0.5,0.9,1,1.2,1.5  c0.4,0.6,0.8,1.3,1.2,2s0.8,1.4,1.1,2.2s0.7,1.5,1,2.3c0.6,1.5,1.2,2.8,1.5,3.8c0.2,0.6,0.3,0.7,0.3,1l1.3-0.4  c0,0-3.4-10.1-6.7-13.4C867,444.8,864.2,442.7,861.4,442.6L861.4,442.6z"
     id="path183" /><path
     d="M874.8,457.5c-0.7-2-1.3-3.7-1.8-5.2l0,0c-0.7-1.7-1.3-3.1-1.9-4.4c-0.3-0.7-0.7-1.4-1.1-2.1c-0.4-0.6-0.7-1.1-1.2-1.6  c-0.4-0.4-0.7-0.7-1.2-1c-0.5-0.4-1-0.8-1.6-1.1l-0.3-0.1c-0.7-0.4-1.4-0.6-2.2-0.8c-1-0.2-2.1-0.2-3.1,0.1l0,0  c-1.1,0.3-2.2,0.8-3.2,1.4c-0.8,0.5-1.6,1.1-2.3,1.7c-0.5,0.4-0.8,0.8-1,1s-0.8,0.7-1.3,1.3c-0.7,0.7-1.4,1.4-2,2.2  c-0.5,0.7-1.1,1.4-1.6,2.2s-1,1.5-1.4,2.2c-0.6,1.1-1.2,2.2-1.6,3.3c-0.2,0.7-0.6,1.9-1,3.2c-0.3,1.3-0.5,2.5-0.6,3.8  c-0.1,0.8,0,1.7,0.1,2.5c0.1,0.5,0.3,1,0.6,1.4c0.1,0.1,0.2,0.3,0.3,0.4c0.1,0.1,0.1,0.1,0.2,0.2c0.1,0,0.1,0,0-0.2  c-0.1-0.2-0.2-0.5-0.3-0.7c-0.1-0.4-0.2-0.8-0.2-1.2c0-0.4,0-0.7,0.1-1.1c0.1-0.4,0.2-0.8,0.3-1.2c0.3-1.2,0.7-2.3,1.1-3.4  c0.4-0.9,0.8-1.7,1.1-2.5s0.6-1.5,0.8-2.1c0.4-1,0.8-2.1,1.3-3.2c0.5-1,1-2,1.6-3c0.6-0.9,1.2-1.8,1.9-2.6c0.5-0.6,1.1-1.1,1.7-1.6  l0.4-0.3c0.7-0.5,1.4-0.9,2.2-1.2c1-0.5,2.1-0.8,3.2-1l0,0c0.7-0.1,1.4-0.1,2.1,0.1c0.7,0.2,1.4,0.5,2,0.8c0.6,0.3,1.1,0.6,1.7,1  c0.3,0.2,0.7,0.5,1,0.8c0.3,0.3,0.6,0.6,0.9,0.9s0.5,0.5,0.7,0.9s0.6,0.8,0.9,1.2c0.9,1.3,1.6,2.6,2.4,4L874.8,457.5L874.8,457.5z"
     id="path185" /><path
     class="st22"
     d="M802.2,401.5c0,0-9.2,5.3-14.5,13.3c-4.4,6.7-9.5,20.3-9.4,29.1c0.1,7,3.9,13.9,9,14.8c4.1,0.8,10-1,11.2-2.9  c6.4-10.7,0.7-16.8,0.4-27.7c-0.3-8.8,1-11.3,2.3-14.9c0.5-1.4,5-9.8,5-9.8"
     id="path187" /><path
     class="st22"
     d="M850.3,350.8c0,0,5-7.5,6.4-8.8s1.7-2.9,4.8-3.4s8,1.5,9.1,2.2s5.3,3.6,6.1,4.6s1.4,4.2,1.3,6.4  c-0.4,2.7-1.4,5.4-2.9,7.7c-0.8,0.8-5.3,5-6.7,5.5s-9.3,1.7-9.3,1.7L850.3,350.8z"
     id="path189" /><path
     class="st23"
     d="M800.7,402.3c-2.7,1.8-9,6.2-13,12.4c-4.4,6.7-9.6,20.3-9.4,29.1c0.1,7,3.9,13.8,9,14.8  c3.9,0.8,9.6-0.8,11-2.7c-0.3,0.1-0.5,0.3-0.8,0.4c-0.5,0.2-1,0.4-1.5,0.5c-0.5,0.1-1.1,0.3-1.7,0.4s-1.1,0.2-1.7,0.2  c-0.6,0-1.1,0-1.7,0c-0.5,0-1.1-0.1-1.6-0.2c-0.3-0.1-0.6-0.1-0.9-0.3c-0.3-0.1-0.6-0.2-0.9-0.4c-0.6-0.3-1.2-0.7-1.7-1.1  c-0.6-0.5-1.1-1-1.5-1.5c-0.5-0.6-0.9-1.2-1.3-1.9c-0.4-0.7-0.8-1.4-1.1-2.2c-0.3-0.8-0.6-1.6-0.8-2.4c-0.2-0.8-0.4-1.7-0.5-2.5  c-0.1-0.9-0.2-1.7-0.2-2.6c0-1.2,0.1-2.4,0.2-3.5c0.1-1.2,0.3-2.5,0.6-3.8s0.6-2.6,1-4s0.8-2.7,1.2-4s1-2.6,1.5-3.9s1-2.5,1.6-3.7  s1.1-2.3,1.7-3.3s1.1-2,1.7-2.8c0.7-1,1.4-2,2.1-2.9c0.8-0.9,1.5-1.8,2.3-2.6s1.6-1.6,2.4-2.3s1.6-1.3,2.3-1.9  S800.1,402.8,800.7,402.3L800.7,402.3z"
     id="path191" /><path
     class="st22"
     d="M788.4,367.7c0,0-1.2,11.2-0.6,13s3.3,12,3.7,12.8s7.4,8.9,9.5,9.9s9.1,3.7,9.1,3.7s17.2,2.7,22.3,2.1  s13-1.5,15.3-3.5c1.8-1.6,5.8-3.2,7.8-5c2.7-2.3,5.8-2.9,7.2-4.3s4.5-7.2,5-11.6s0-11.6-1.2-14.3c-1.3-2.9-2.7-5.4-3.5-7  s-10.3-13.6-11.8-15.9s-7.8-7.4-9.7-7.9s-14.3-2.7-17.8-2.3s-12,4.3-13.8,5.6s-9.1,8.7-10.1,9.9S788.4,365.2,788.4,367.7  L788.4,367.7z"
     id="path193" /><path
     class="st25"
     d="M818.6,408.4c5.2,0.6,11,1.2,13.8,0.9c5.2-0.6,13-1.4,15.3-3.5c1.8-1.6,5.8-3.2,7.9-5c2.7-2.3,5.8-2.9,7.2-4.3  s4.5-7.2,5-11.6s0-11.6-1.2-14.3c-0.8-1.8-1.7-3.4-2.4-4.8c1.4-0.2,2.7-0.5,4.1-0.8c1.5-0.5,5.9-4.7,6.7-5.5  c1.5-2.3,2.5-4.9,2.9-7.7c0.1-2.2-0.5-5.3-1.3-6.4s-5-3.9-6.1-4.6c-2.5-1.3-5.2-2.1-8-2.3c0.8,0.1,1.5,0.3,2.3,0.5  c0.8,0.2,1.6,0.5,2.3,0.8c0.5,0.2,1,0.4,1.5,0.7c0.5,0.4,1.9,1.3,3.1,2.2c0.6,0.5,1.3,0.9,1.8,1.4c0.4,0.3,0.8,0.7,1.1,1  c0.2,0.3,0.4,0.7,0.5,1.1c0.2,0.5,0.3,1.1,0.4,1.6c0.1,0.6,0.2,1.2,0.3,1.8c0.1,0.6,0.1,1.2,0.1,1.8c0,0.7-0.2,1.3-0.4,2  c-0.2,0.8-0.5,1.6-0.8,2.3c-0.3,0.8-0.7,1.5-1,2.1c-0.2,0.4-0.5,0.9-0.8,1.2c-0.4,0.4-1.7,1.6-3.1,2.8c-0.7,0.6-1.4,1.2-2,1.7  c-0.5,0.4-1,0.7-1.5,1c-0.5,0.2-1.1,0.3-1.6,0.4c-0.7,0.1-1.6,0.3-2.5,0.5c0.7,1.4,1.5,3,2.4,4.8c0.2,0.4,0.3,0.8,0.4,1.2  c0.1,0.5,0.2,1,0.3,1.5c0.2,1.2,0.4,2.5,0.5,3.8c0.1,1.3,0.2,2.7,0.2,4.1s0,2.6-0.2,3.7c-0.1,0.6-0.1,1.1-0.3,1.7  c-0.1,0.6-0.3,1.2-0.5,1.8c-0.4,1.2-0.8,2.3-1.3,3.4c-0.5,1-1,2-1.5,2.9c-0.4,0.6-0.8,1.3-1.3,1.8c-0.2,0.2-0.4,0.4-0.6,0.5  c-0.2,0.2-0.5,0.3-0.8,0.5c-0.5,0.3-1.1,0.6-1.8,0.9s-1.3,0.6-2,1c-0.7,0.4-1.4,0.9-2.1,1.4c-0.6,0.5-1.2,0.9-1.8,1.3  c-0.7,0.4-1.5,0.8-2.2,1.2s-1.5,0.8-2.1,1.2c-0.6,0.4-1.2,0.8-1.7,1.2c-0.3,0.3-0.7,0.5-1.1,0.7c-0.5,0.2-1,0.4-1.5,0.6  c-0.6,0.2-1.2,0.4-1.8,0.5s-1.4,0.3-2.1,0.4c-1.5,0.3-3,0.5-4.5,0.7s-3,0.4-4.3,0.5c-0.8,0.1-1.6,0.1-2.5,0.1c-1,0-2.1-0.1-3.2-0.1  C822.8,408.8,820.7,408.6,818.6,408.4L818.6,408.4z"
     id="path195" /><path
     class="st23"
     d="M842,369.9c-1-0.5-1.2-2.6-1.7-1.6c-0.6,1.4-0.4,3.1,0.5,4.3c0.7,0.7,4.8,1.2,4.8,0S843,370.5,842,369.9  L842,369.9z"
     id="path197" /><path
     class="st23"
     d="M829.9,371.8c0-0.9,0-3,0.1-5.5c0-2.1,0.1-4.6,0.2-6.8c0-0.9,0.1-1.7,0.1-2.5c0-0.3,0-0.6,0.1-0.8  c0-0.2,0-0.3,0.1-0.5c0.1-0.4,0.1-0.7,0.2-1.1l0,0c0.1-0.7,0.1-1.3,0.1-1.7c0,0,0-0.1,0-0.1c0-1,0-2.6-0.1-4.4c0-1.4-0.1-3-0.3-4.6  c-0.1-0.6-0.2-1.2-0.3-1.8c-0.1-0.4-0.2-0.9-0.4-1.3c-0.4-0.7-0.7-1.5-1.1-2.1c-0.1-0.2-0.2-0.3-0.3-0.5c-0.1-0.1-0.2-0.3-0.4-0.4  c-0.1-0.1-0.2-0.1-0.3-0.2h-0.2l0,0c0.2,0.1,0.3,0.2,0.4,0.3c0.1,0.1,0.2,0.2,0.3,0.3c0.1,0.2,0.2,0.3,0.3,0.5  c0.2,0.3,0.3,0.6,0.5,1s0.3,0.8,0.5,1.2c0.2,0.4,0.3,0.8,0.3,1.2c0.1,0.6,0.2,1.2,0.2,1.8c0.1,1.5,0.2,3,0.2,4.5s0,3.1-0.1,4.5l0,0  c0,0.6,0,1.1-0.1,1.7c0,0.3,0,0.6-0.1,0.8c0,0.1,0,0.1,0,0.2l0,0c0,0.2-0.1,0.4-0.1,0.6l0,0c0,0.3,0,0.6,0,0.9l0,0  c0,0.8,0,1.7-0.1,2.5l0,0c0,2.3,0,4.7,0,6.8c0,2.9,0,5.4,0,6.9C829.7,376.5,830,376.7,829.9,371.8L829.9,371.8z"
     id="path199" /><path
     d="M802.9,400.9l-5.6,3.8c-2,1.5-3.9,3.1-5.8,4.9c-1.6,1.5-3,3.1-4.3,4.8l0,0c-0.8,1.1-1.6,2.2-2.2,3.3  c-0.6,1.1-1.2,2.1-1.7,3.1c-0.7,1.5-1.3,2.9-1.9,4.1s-1,2.4-1.3,3.5c-0.6,1.6-1,3-1.3,4.3s-0.6,2.4-0.8,3.5v0.2  c-0.2,0.9-0.3,1.9-0.5,3.2c-0.1,1.4-0.2,2.8-0.2,4.3c0,1.4,0.1,2.7,0.3,4.1c0.2,1.5,0.6,2.9,1.2,4.2c0.6,1.1,1.3,2.2,2.2,3.1  c0.8,0.8,1.8,1.6,2.8,2.2l0,0c0.8,0.5,1.7,0.9,2.7,1.2c0.8,0.3,1.7,0.4,2.5,0.5c1.3,0.1,2.5,0.1,3.8-0.1l0.4-0.1  c0.4-0.1,0.9-0.2,1.5-0.4c0.7-0.2,1.4-0.5,2.1-0.8c0.6-0.3,1.1-0.6,1.6-1c0.6-0.4,1.1-0.9,1.5-1.5l0,0c0.7-0.9,1.3-1.8,1.7-2.8  c0.5-1.1,0.8-2.2,1-3.4l0,0c0.2-1.1,0.2-2.2,0.1-3.3c-0.1-1.1-0.2-2.2-0.4-3.3l0,0c-0.2-1.3-0.5-2.5-0.7-3.7s-0.5-2.3-0.7-3.3  c-0.3-1.5-0.5-2.8-0.6-3.9s-0.2-2-0.3-2.6c0-0.3-0.1-0.7-0.1-1.1c0-1.1-0.1-2.5-0.2-4c0-1.6,0-3.2,0.2-4.8c0.1-0.9,0.3-1.7,0.5-2.5  c0.3-0.9,0.6-1.7,0.9-2.6c1-2.7,2.2-5.4,3.3-7.8l1.1-2.2c0.3-0.5,0.5-0.9,0.6-1.5l0,0c-0.9,1-1.6,2.2-2.3,3.4c-1.5,2.5-2.8,5-4,7.6  c-0.8,1.7-1.4,3.5-1.8,5.4c-0.3,1.5-0.4,3.1-0.5,4.7c-0.1,1.5,0,3,0,4.4c0,2,0.3,4,0.7,6c0.1,0.6,0.3,1.3,0.4,1.9  c0.6,2.3,1.3,4.6,1.8,6.9c0.2,1,0.4,2.1,0.5,3.1c0.1,1,0.1,2,0,3.1c-0.1,1.1-0.3,2.1-0.7,3.1c-0.4,1-0.9,1.9-1.5,2.7  c-0.7,1-1.7,1.8-2.7,2.3c-1.8,1-3.8,1.5-5.8,1.5c-0.9,0-1.8-0.2-2.7-0.4c-1.3-0.3-2.5-0.9-3.6-1.6c-0.9-0.6-1.7-1.3-2.4-2.1  c-0.8-0.8-1.4-1.8-1.9-2.8l0,0c-0.5-1.2-0.8-2.4-0.9-3.7c-0.1-1.3-0.2-2.7-0.2-4.1c0-2.4,0.3-4.8,0.8-7.1c0.5-2.6,1.2-5.2,2-7.8  c0.4-1.3,0.8-2.5,1.1-3.4c0.4-1.1,0.9-2.6,1.6-4.2c0.9-2.2,2.1-4.4,3.5-6.4l0,0c1.4-2,2.9-3.8,4.6-5.5c1.5-1.6,3.2-3,4.9-4.5  L802.9,400.9L802.9,400.9z"
     id="path201" /><path
     class="st23"
     d="M806.6,346c-2.8,2.7-6.2,6.2-6.9,7c-1,1.2-11.4,12.2-11.4,14.7c0,0-1.2,11.2-0.6,13s3.3,12,3.7,12.8  s7.4,8.9,9.5,9.9s9.1,3.7,9.1,3.7s17.2,2.7,22.3,2.1s13-1.4,15.3-3.5c1.8-1.6,5.8-3.2,7.8-5c2.7-2.3,5.8-2.9,7.2-4.3  c0.6-0.7,1.1-1.5,1.6-2.3l-1.2,0.6c-0.7,0.3-1.3,0.6-2,1c-0.7,0.4-1.4,0.9-2,1.4c-0.6,0.5-1.2,0.9-1.8,1.3c-0.7,0.4-1.5,0.8-2.2,1.2  s-1.5,0.8-2.1,1.2c-0.6,0.4-1.2,0.8-1.7,1.2c-0.3,0.3-0.7,0.5-1.1,0.7c-0.5,0.2-1,0.4-1.5,0.6c-0.6,0.2-1.2,0.4-1.9,0.5  s-1.4,0.3-2.1,0.4c-1.5,0.3-3,0.5-4.5,0.7s-3,0.4-4.3,0.5c-0.8,0.1-1.6,0.1-2.4,0.1c-1,0-2.1-0.1-3.2-0.1c-2.3-0.2-5-0.5-7.4-0.7  c-4.9-0.6-9.2-1.3-9.2-1.3s-1.8-0.7-3.8-1.5s-4.3-1.6-5.3-2.1c-0.4-0.2-0.7-0.4-1-0.7c-0.4-0.3-0.8-0.7-1.3-1.2c-1-0.9-2-2-3.1-3.2  s-2-2.2-2.8-3.1c-0.5-0.6-1-1.1-1.4-1.8c-0.2-0.4-1-3.2-1.8-6s-1.6-5.9-1.9-6.8c-0.1-0.4-0.2-0.7-0.2-1.1c0-0.5,0-1.1,0-1.7  c0-1.3,0.1-2.9,0.2-4.4c0.2-3,0.5-5.8,0.5-5.8c0-0.2,0.1-0.4,0.1-0.6c0.1-0.3,0.2-0.5,0.3-0.7c0.4-0.6,0.8-1.3,1.2-1.9  c0.5-0.7,1.1-1.5,1.7-2.2s1.3-1.6,2-2.4c1.4-1.6,2.8-3.2,3.9-4.4s2-2.2,2.2-2.5S805.3,347.5,806.6,346L806.6,346z"
     id="path203" /><path
     class="st22"
     d="M850.5,401.4c0,0,10.2,2.8,17.3,9.3c5.9,5.4,14.3,17.4,16.5,26.1c1.7,6.9,0.6,13.9-4.1,16.1  c-3.7,1.8-10.8,2.3-12.5,0.6c-8.9-8.9-5-16.4-7.4-27.2c-2-8.7-6.3-11.8-6.8-13.2s-6.3-8.9-6.3-8.9"
     id="path205" /><path
     class="st25"
     d="M851.8,402l-1.8,1.7c0,0,1.3-0.9,2.2-0.6s2.2,0.9,3.7,1.7c0.8,0.4,1.5,0.8,2.4,1.3s1.7,1,2.5,1.6  s1.7,1.2,2.6,1.9c0.9,0.7,1.7,1.4,2.5,2.2c0.7,0.7,1.3,1.4,2.1,2.3s1.6,2.5,2.4,3.5s1.7,2.1,2.5,3.2s1.6,2.3,2.4,3.5  s1.5,2.4,2.2,3.6s1.3,2.5,1.9,3.7s1.1,2.4,1.6,3.6c0.4,1.1,0.8,2.3,1.1,3.4c0.2,0.9,0.4,1.7,0.5,2.6c0.1,0.8,0.2,1.7,0.2,2.5  c0,0.8,0,1.6,0,2.4c-0.1,0.8-0.2,1.5-0.3,2.3c-0.2,0.7-0.4,1.4-0.6,2c-0.2,0.6-0.6,1.2-0.9,1.8c-0.2,0.3-0.4,0.5-0.6,0.7h0  c4.6-2.2,5.7-9.2,4.1-16.1c-2.1-8.7-10.5-20.7-16.5-26.1C863.1,406.6,857.6,403.6,851.8,402L851.8,402z"
     id="path207" /><path
     d="M850.9,401.4l5.6,2.5c2.1,1,4.1,2.2,6.1,3.5c1.7,1.1,3.2,2.4,4.7,3.7c0.9,0.9,1.8,1.8,2.5,2.6s1.5,1.7,2.1,2.5  c1.7,2.1,3.3,4.4,4.7,6.7c1,1.5,1.7,2.9,2.3,4.1s1.2,2.3,1.6,3.3l0.1,0.2c0.3,0.8,0.8,1.7,1.3,2.8c0.5,1.3,0.9,2.5,1.3,3.8  c0.4,1.5,0.7,3.1,0.8,4.6c0.1,1.6,0.1,3.3-0.3,4.9c-0.2,1.3-0.7,2.5-1.4,3.6c-0.3,0.5-0.7,1-1.1,1.4c-0.4,0.4-0.9,0.7-1.4,1  c-1,0.5-2.1,0.9-3.1,1.1c-0.8,0.2-1.5,0.3-2.3,0.5c-0.3,0-0.8,0.1-1.3,0.1s-0.9,0-1.5,0c-0.6,0-1.2-0.1-1.8-0.2  c-0.4-0.1-0.8-0.2-1.2-0.3c-0.2-0.1-0.5-0.2-0.7-0.4c-0.9-0.9-1.7-1.9-2.4-2.9c-0.8-1.1-1.4-2.3-1.9-3.6l0,0c-0.8-2-1.2-4.1-1.4-6.3  c-0.1-1.2-0.1-2.4-0.2-3.6s0-2.2-0.1-3.3s-0.1-2.1-0.2-3s-0.2-1.6-0.3-2.1c-0.1-0.8-0.3-1.7-0.6-2.8c-0.4-1.8-1-3.7-1.7-5.4l0,0  c-0.5-1.2-1-2.4-1.7-3.5c-0.5-0.9-1.1-1.7-1.8-2.5l0,0c-0.6-0.8-1.2-1.5-1.7-2.3c-0.2-0.3-0.4-0.5-0.6-0.7l-0.9-1  c-0.8-0.9-1.5-1.7-2.2-2.5l-1.9-2.1l-0.2-0.2c-0.3-0.3-0.5-0.5-0.7-0.7l-0.2-0.2h-0.1l0,0l-0.4,0.3l-0.1,0.1l0,0l0.1-0.1l0.3-0.3  l0,0v0.1l0.1,0.2c0.1,0.2,0.3,0.5,0.5,0.8c0.4,0.6,1,1.5,1.8,2.5l2,2.7l0.8,1.1c0.2,0.2,0.3,0.5,0.5,0.7c0.5,0.8,1,1.6,1.6,2.4  c0.5,0.8,1.1,1.6,1.5,2.4c0.6,1.1,1,2.2,1.4,3.4c0.5,1.7,1,3.5,1.3,5.3c0.3,1.3,0.5,2.6,0.6,3.8s0.3,2.4,0.3,3.4v0.3  c0.2,2.2,0.3,4.5,0.6,6.9l0,0c0.3,2.3,0.9,4.5,1.9,6.6c1.2,2.5,2.9,4.7,4.9,6.6c0.3,0.3,0.6,0.5,1,0.6c0.4,0.2,0.9,0.3,1.3,0.3  c1.1,0.1,2.3,0.2,3.4,0.1c1.2-0.1,2.5-0.3,3.7-0.5h0.1c0.4-0.1,0.9-0.2,1.5-0.4c0.7-0.2,1.3-0.4,1.9-0.7l0,0c0.6-0.3,1.1-0.6,1.6-1  c0.5-0.5,1-1,1.4-1.6c0.8-1.2,1.4-2.6,1.7-4c0.4-1.6,0.6-3.3,0.5-5c0-1.8-0.3-3.5-0.7-5.2c-0.6-2.5-1.5-4.9-2.6-7.3  c-1.2-2.6-2.6-5.1-4.2-7.5c-0.6-0.9-1.2-1.7-1.6-2.3c-0.9-1.1-2.1-2.7-3.6-4.3c-1.6-1.8-3.2-3.5-5-5c-1.8-1.5-3.7-2.8-5.7-4  c-1.8-1-3.6-2-5.5-2.8L850.9,401.4L850.9,401.4z"
     id="path209" /><path
     d="M871.8,451.2c0.1,0,0.2,0.1,0.3,0.1c0.1,0.1,0.2,0.3,0.2,0.4c0.1,0.2,0.1,0.4,0.1,0.6c0,0.2,0,0.5-0.1,0.7  c-0.1,0.6-0.3,1.1-0.6,1.6c-0.1,0.2-0.2,0.3-0.3,0.5c-0.3,0.6-0.8,1.1-1.3,1.5c-0.2,0.1-0.4,0.3-0.6,0.3c-0.1,0-0.2,0-0.3,0h-0.1  h-0.1l0,0l-0.1-0.1l-0.1-0.1l0,0c0-0.1-0.1-0.2-0.1-0.3c0-0.2,0-0.5,0-0.7c0.1-0.6,0.3-1.2,0.6-1.8l0.2-0.4c0.2-0.5,0.5-0.9,0.8-1.3  c0.1-0.2,0.2-0.3,0.4-0.5c0.1-0.1,0.2-0.2,0.4-0.3c0.1-0.1,0.2-0.1,0.3-0.2C871.6,451.2,871.7,451.2,871.8,451.2L871.8,451.2z"
     id="path211" /><path
     d="M867.7,450.4c0.1,0,0.2,0,0.3,0.1c0.1,0.1,0.2,0.2,0.3,0.3c0.2,0.3,0.3,0.6,0.3,1c0,0.4,0,0.8-0.1,1.2  c0,0.1-0.1,0.3-0.1,0.4c-0.1,0.5-0.4,0.9-0.8,1.3c-0.1,0.1-0.3,0.3-0.5,0.3c-0.1,0-0.2,0.1-0.2,0.1h-0.1h-0.1l0,0h-0.1l-0.1-0.1  c-0.1,0-0.1-0.1-0.2-0.2c-0.1-0.2-0.2-0.3-0.2-0.5c-0.1-0.5-0.1-0.9-0.1-1.4c0-0.1,0-0.3,0.1-0.4c0.1-0.4,0.2-0.7,0.3-1.1  c0.1-0.3,0.3-0.5,0.6-0.7c0.1-0.1,0.2-0.2,0.3-0.2C867.5,450.5,867.6,450.5,867.7,450.4L867.7,450.4z"
     id="path213" /><path
     d="M877.7,452.1c0.4-0.1,0.8,0.1,1,0.5c0.3,0.4,0.5,0.9,0.5,1.4c0,0.4,0,0.7-0.2,1.1c-0.1,0.3-0.3,0.6-0.5,0.8  c-0.1,0.1-0.2,0.1-0.3,0.2c-0.1,0-0.2,0-0.3,0l0,0c-0.1,0-0.2-0.1-0.3-0.1c-0.1-0.1-0.2-0.1-0.3-0.2c-0.2-0.2-0.3-0.4-0.4-0.7  c-0.1-0.3-0.2-0.6-0.2-0.9c0-0.5,0.1-0.9,0.3-1.3C877.1,452.4,877.4,452.2,877.7,452.1L877.7,452.1z"
     id="path215" /><path
     class="st26"
     d="M827.3,376.5h5.3l9.7,3.5l11.4,7c0,0,3.1,2.2,3.5,3.5s-1,7.2-1,7.2l-1.9,5.9c0,0-11.3,9.1-15.3,10.1  s-21.6,0.7-24.5-2.5s-9.3-11.3-9.3-13.9s0-4.8,1.3-6.1s3.1-2.2,8.8-7.2c1.4-1.2,5.3-4.7,7-6S826.2,376.1,827.3,376.5L827.3,376.5z"
     id="path217" /><path
     class="st25"
     d="M826.6,376.4c-1.1,0.1-2.3,0.4-3.3,1c0.3-0.1,0.7-0.1,1-0.1c0.4,0,4.5-0.5,4.8-0.4l5,0.5l6.4,2.9l11.2,7.7  c0,0,0.8,0.5,1.6,1.3c0.4,0.4,0.8,0.7,1.2,1.1c0.2,0.2,0.3,0.4,0.5,0.6c0.1,0.2,0.2,0.3,0.3,0.5c0.1,0.2,0.1,0.5,0.1,0.7  c0,0.3,0,0.7,0,1c-0.1,0.7-0.2,1.6-0.4,2.4c-0.3,1.6-0.7,3.1-0.7,3.1l-1.9,5.8c0,0-0.7,0.6-1.8,1.4s-2.7,2-4.3,3.2  c-0.8,0.6-1.7,1.2-2.5,1.8s-1.7,1.1-2.5,1.6s-1.5,0.9-2.2,1.2l0.3,0c4.1-1,14.8-10.4,14.8-10.4l2.5-5.6c0,0,1.5-5.9,1-7.2  S854,387,854,387l-11.4-7l-9.6-3.5h-5.3C827.4,376.4,827,376.3,826.6,376.4L826.6,376.4z"
     id="path219" /><path
     class="st27"
     d="M808.1,389.8c-0.6,0.4-1.1,0.9-1.7,1.4c-1.3,1.3-1.3,3.4-1.3,6.1s6.4,10.7,9.4,13.9s20.5,3.5,24.5,2.5  s15.3-10.5,15.3-10.5l0.2-0.6c-1.1,0.9-2.3,2.3-3.9,3.4c-0.8,0.6-1.7,1.2-2.5,1.8s-1.7,1.1-2.5,1.6s-1.6,0.9-2.3,1.3  c-0.6,0.3-1.2,0.5-1.8,0.7c-0.7,0.2-1.4,0.3-2.1,0.3c-0.9,0.1-1.9,0.1-3,0.2s-2.4,0-3.6,0s-2.6-0.1-3.9-0.2s-2.6-0.2-3.9-0.4  s-2.4-0.4-3.5-0.6c-0.5-0.1-1-0.2-1.5-0.4c-0.4-0.1-0.9-0.3-1.3-0.5c-0.3-0.1-0.7-0.3-1-0.5c-0.3-0.2-0.5-0.3-0.7-0.6  c-0.7-0.8-1.7-1.9-2.7-3.2s-2.1-2.6-3.1-4c-0.5-0.7-1-1.4-1.4-2s-0.8-1.3-1.1-1.9c-0.3-0.5-0.6-1.1-0.8-1.6  c-0.2-0.4-0.3-0.8-0.3-1.2c0-0.7,0-1.3,0-1.9c0-0.6,0.1-1.1,0.1-1.6c0.1-0.5,0.2-1,0.4-1.4C808,390,808.1,389.9,808.1,389.8  L808.1,389.8z"
     id="path221" /><path
     class="st27"
     d="M827.4,390.8c0.3,1.5,0.9,1.6,1.9,2.6s1,4.6,0.8,8.4l1.6,0.6l-0.9-9.2L827.4,390.8z"
     id="path223" /><path
     d="M807.4,390.6c2.8-2.2,5.4-4.4,7.7-6.3c1.8-1.5,3.4-3,5-4.2l0,0c1.1-0.9,2.3-1.7,3.7-2.4c1.2-0.5,2.4-0.8,3.7-0.9l0,0  c1.2-0.1,2.3-0.1,3.5,0c1,0.1,2,0.2,3,0.4c0.9,0.2,1.8,0.5,2.7,0.9c0.8,0.3,1.5,0.7,2.2,1.1c1.2,0.6,2.2,1.3,3.1,1.8  s1.8,1.1,2.6,1.6l1,0.6c1.7,1,4.4,2.5,7.7,4c1,0.4,1.8,1.2,2.4,2.1c0.6,1,1,2.1,1.1,3.3l0,0c0.2,1.4,0.1,2.8-0.2,4.2  c-0.3,1.3-0.7,2.6-1.2,3.8l0,0c-0.4,0.9-1,1.8-1.6,2.6c-0.5,0.7-1.1,1.3-1.7,1.9c-0.5,0.5-1,1-1.3,1.3s-1,0.8-1.7,1.3  s-1.7,1.1-2.7,1.8c-2.2,1.3-4.6,2.4-7.1,3.2c-1.2,0.4-2.3,0.7-3.6,0.9c-1.2,0.2-2.4,0.4-3.6,0.4c-1.5,0-2.9-0.1-4.4-0.2  c-1.3-0.2-2.6-0.4-3.8-0.7c-1.7-0.4-3.4-1-5.1-1.7l-0.2-0.1c-0.9-0.4-1.7-0.7-2.6-1.2c-1.1-0.6-2.1-1.2-3-1.9  c-1.5-1.1-2.8-2.5-3.8-4.1c-0.7-1.1-1.4-2.3-2-3.4c-0.6-1.1-1.1-2.3-1.5-3.6c-0.3-1.1-0.4-2.2-0.1-3.3c0.1-0.8,0.5-1.5,0.9-2.1  c0.2-0.3,0.4-0.6,0.7-0.8c0.2-0.2,0.3-0.3,0.3-0.3l0,0l0,0c-0.1,0.1-0.2,0.1-0.3,0.2c-0.2,0.2-0.4,0.4-0.6,0.6  c-0.3,0.3-0.6,0.6-0.8,1c-0.6,0.9-1,2-1.1,3.1c0,0.7,0,1.3,0.2,2c0.3,1.4,0.7,2.7,1.3,3.9c0.5,1.2,1.2,2.4,1.8,3.6  c1,1.8,2.3,3.4,3.9,4.7c1.8,1.5,3.8,2.7,5.9,3.6c1.6,0.7,3.3,1.3,5.1,1.7c1.5,0.3,3.1,0.6,4.7,0.7c1.6,0.1,3.2,0.1,4.8,0  c2.6-0.2,5.1-0.8,7.5-1.8c2.5-1,4.9-2.2,7.1-3.6l0,0c1.3-0.8,2.4-1.6,3.3-2.4s1.8-1.5,2.5-2.1l0.4-0.4c0.5-0.5,1-1,1.5-1.6  c0.7-0.8,1.3-1.7,1.8-2.6c0.6-1.2,1.1-2.5,1.5-3.9c0.4-1.5,0.5-3.1,0.4-4.7c-0.1-1.4-0.5-2.7-1.1-3.9c-0.7-1.2-1.7-2.2-3-2.8  c-3-1.5-5.8-3.1-8.4-4.7l0,0l-3-1.8c-1-0.6-1.9-1.1-2.8-1.6c-0.7-0.4-1.4-0.7-2.1-1c-0.6-0.2-1.2-0.4-1.8-0.6  c-0.4-0.1-0.9-0.2-1.5-0.3c-1.1-0.2-2.1-0.3-3.2-0.3c-1.2,0-2.5,0.1-3.7,0.2c-1.4,0.1-2.7,0.5-4,1.2c-1.3,0.7-2.6,1.6-3.7,2.7  c-1.7,1.5-3.3,3.1-4.8,4.5c-2.1,1.9-3.9,3.6-5.3,4.8S807.5,390.6,807.4,390.6L807.4,390.6z"
     id="path225" /><path
     class="st23"
     d="M814.1,370.1c-1-0.5-1.9-2.9-1.9-1.7s0.4,3.2,1.2,4s5.2,1.4,5.2,0.3S815.1,370.7,814.1,370.1L814.1,370.1z"
     id="path227" /><path
     d="M816.3,364.1c-2.3,0-3.9,1.1-3.9,3.4s1.6,4.7,3.9,4.9c2.1,0.2,3.9-1.2,4.2-3.3c0-0.3,0-0.6,0-0.9  C820.4,366,818.6,364.2,816.3,364.1L816.3,364.1z"
     id="path229" /><path
     d="M844.2,364.3c-2.1-0.2-3.9,1.4-4.1,3.5c0,0.1,0,0.2,0,0.3c0,2.3,1,4.5,3.3,4.7c2.1,0.2,3.9-1.2,4.2-3.3c0-0.3,0-0.6,0-0.9  C847.4,366.4,846.5,364.3,844.2,364.3z"
     id="path231" /><path
     class="st22"
     d="M789.8,368.1c0,0-5.5-1.9-6.2-2.7s-6.6-7.1-6.7-10.5s0.2-7.9,3.1-10.7s7.8-5.6,9.8-5.9s7.1,1.9,8,2.9  s7.6,7.4,8,8S789.8,368.1,789.8,368.1L789.8,368.1z"
     id="path233" /><path
     class="st23"
     d="M789.9,338.4L789.9,338.4c-2.1,0.3-6.9,3.1-9.9,5.9s-3.1,7.3-3.1,10.7s5.9,9.6,6.7,10.5s6.2,2.7,6.2,2.7  l1.8-2.1c-0.5-0.2-0.6-0.2-1.2-0.4s-1.5-0.6-2.1-0.9c-0.5-0.2-0.9-0.4-1.3-0.8c-0.2-0.2-0.7-0.8-1.3-1.5s-1.5-1.7-2.2-2.8  c-0.4-0.5-0.8-1.1-1.1-1.6s-0.7-1.1-1-1.6c-0.3-0.5-0.5-1-0.7-1.5c-0.1-0.4-0.2-0.9-0.2-1.4c0-0.8,0-1.8,0-2.7  c0.1-1,0.2-1.9,0.4-2.9c0.1-0.5,0.2-0.9,0.4-1.4c0.2-0.5,0.3-0.9,0.5-1.3c0.2-0.4,0.5-0.9,0.8-1.3c0.3-0.4,0.6-0.8,1-1.1  c0.8-0.7,1.6-1.4,2.5-2c0.9-0.7,1.8-1.3,2.8-1.8C789.2,338.7,789.5,338.6,789.9,338.4L789.9,338.4z"
     id="path235" /><path
     d="M806.5,350L806.5,350L806.5,350l-0.1-0.1l-0.3-0.4c-0.3-0.5-0.7-0.9-1-1.3l0,0c-1.2-1.6-2.4-2.9-3.4-4  c-0.9-1-1.7-1.8-2.5-2.5s-1.5-1.3-2.2-1.8c-0.8-0.6-1.7-1.2-2.7-1.7c-0.9-0.5-1.9-0.8-2.9-1c-0.3,0-0.5-0.1-0.8-0.1  c-0.5,0-0.9,0-1.4,0.1c-0.6,0.1-1.1,0.3-1.7,0.5c-0.7,0.3-1.3,0.6-1.9,1c-0.6,0.4-1.2,0.8-1.8,1.3c-0.6,0.5-1.2,1.1-1.8,1.7  c-0.6,0.6-1.1,1.1-1.5,1.7c-0.7,0.8-1.3,1.7-1.8,2.5c-0.2,0.3-0.5,0.8-1,1.5c-0.3,0.5-0.6,1-0.8,1.6c-0.2,0.6-0.4,1.3-0.5,2l0,0  c-0.1,0.7-0.1,1.3-0.1,2c0,0.7,0,1.3,0.1,2l0,0c0.1,1.3,0.4,2.5,0.8,3.8c0.2,0.6,0.3,1.1,0.5,1.6c0.1,0.4,0.3,0.7,0.5,1.1l0,0  c0.3,0.5,0.6,1,1,1.4c0.5,0.5,1,1,1.6,1.4l0,0c1.1,0.8,2.2,1.4,3.4,2c1.1,0.5,2.2,1,3.3,1.4c0.5,0.2,1,0.4,1.5,0.5  c0.2,0.1,0.5,0.1,0.7,0.1c0.1,0,0.1-0.1-0.1-0.2s-0.4-0.2-0.7-0.4l-1.2-0.7c-0.8-0.5-1.9-1.1-3-1.9c-1-0.7-2-1.4-2.9-2.3  c-0.4-0.4-0.8-0.8-1.1-1.2c-0.3-0.4-0.5-0.7-0.7-1.2c-0.3-0.7-0.6-1.3-0.8-1.9l-0.2-0.5c-0.5-1.1-0.8-2.2-1.1-3.4  c-0.3-1.2-0.5-2.5-0.5-3.7l0,0c0-0.6,0.1-1.2,0.2-1.8c0.1-0.5,0.3-1.1,0.6-1.5c0.5-0.8,1-1.6,1.6-2.3c0.6-0.6,1.2-1.3,1.8-1.8  c1-0.9,2-1.7,3.1-2.5c1.1-0.7,2.3-1.4,3.5-1.8c0.5-0.2,1-0.3,1.5-0.4c0.5-0.1,0.9-0.1,1.4,0l0,0c0.8,0.1,1.6,0.4,2.4,0.7  c0.6,0.3,1.2,0.5,1.6,0.8s0.6,0.3,1,0.5c0.8,0.5,1.6,1,2.4,1.6c0.9,0.6,1.8,1.4,2.6,2.1c1.3,1.2,2.6,2.4,3.8,3.7  c0.5,0.5,0.8,0.9,1.1,1.2l0.3,0.3l0,0L806.5,350L806.5,350L806.5,350L806.5,350z"
     id="path237" /><path
     d="M850.5,350.7L850.5,350.7L850.5,350.7L850.5,350.7l0.3-0.4l0.8-1.1c0.9-1.3,1.8-2.4,2.5-3.4c1.1-1.4,2-2.6,2.9-3.6  c0.4-0.5,0.8-0.9,1.2-1.3c0.2-0.2,0.5-0.5,0.8-0.6c0.5-0.3,1.1-0.5,1.7-0.7c0.5-0.1,1-0.2,1.5-0.2c0.4,0,0.8,0,1.1,0  c0.3,0,0.7,0.1,1,0.1s0.6,0.1,1,0.2c0.9,0.2,1.8,0.5,2.7,0.8c1,0.4,2,1,2.9,1.6c1.1,0.8,2.1,1.4,3,1.9c0.5,0.3,1,0.7,1.4,1.1  c0.3,0.3,0.6,0.5,0.8,0.8l0.1,0.2c0.3,0.4,0.5,0.8,0.7,1.3c0.2,0.6,0.3,1.3,0.4,2l0,0c0,0.9,0,1.8-0.2,2.7c-0.2,0.9-0.4,1.9-0.7,2.8  l0,0c-0.2,0.6-0.4,1.1-0.8,1.6c-0.3,0.5-0.7,1-1,1.4c-0.5,0.6-0.8,1.1-1,1.4c-0.6,0.8-1.3,1.5-2,2.2c-0.6,0.6-1.2,1.1-1.8,1.6  c-0.7,0.5-1.4,1-2.1,1.4c-0.5,0.3-1.1,0.6-1.7,0.8c-0.5,0.2-1,0.3-1.5,0.4c-0.4,0-0.6,0.1-0.6,0.1s0.2,0.2,0.5,0.2  c0.5,0.1,1.1,0.1,1.6,0c0.8-0.1,1.6-0.3,2.3-0.5l0,0c0.8-0.3,1.6-0.6,2.3-1.1c0.8-0.4,1.5-1,2.3-1.5l0,0c0.7-0.6,1.4-1.2,2-1.8  c0.6-0.6,1-1.2,1.5-1.9l0.2-0.3c0.7-1.1,1.1-2.2,1.4-3.5l0,0c0.2-1,0.3-2,0.4-3c0.1-1,0-1.9-0.1-2.9c-0.1-0.7-0.3-1.4-0.6-2  c-0.2-0.6-0.5-1.1-0.9-1.6c-0.3-0.3-0.5-0.7-0.8-1c-0.2-0.2-0.3-0.4-0.6-0.6s-0.6-0.5-0.9-0.8s-0.8-0.7-1.3-1s-1-0.8-1.5-1.2l0,0  c-0.8-0.7-1.8-1.4-2.8-1.9c-1-0.6-2.1-1-3.2-1.3l0,0c-0.6-0.2-1.3-0.3-1.9-0.3c-0.6-0.1-1.2-0.1-1.8,0c-0.6,0.1-1.2,0.2-1.8,0.4  c-0.4,0.1-0.9,0.3-1.3,0.6c-0.2,0.1-0.5,0.3-0.7,0.5c-0.4,0.3-0.7,0.6-0.9,1l0,0c-0.4,0.5-0.7,1-1.1,1.5l0,0  c-0.8,1.2-1.7,2.6-2.5,3.9s-1.6,2.7-2.2,3.7l-0.7,1.2L850.5,350.7L850.5,350.7l0.1,0.1l0,0l0,0L850.5,350.7z"
     id="path239" /><path
     class="st26"
     d="M802.7,354.7c0,0-3.9,3.5-4.8,4.9c-1.1,1.5-2.4,2.9-3.9,4c-0.6-0.1-1.2-0.2-1.8-0.4c-1.2-1.3-2.3-2.7-3.2-4.2  c-0.8-1.6-2.7-3.1-1.9-5s1.7-5.1,3.7-5.2c2-0.2,4-0.1,6,0.2c1,0.3,2,0.8,3,1.4C800.4,350.9,803.6,353.9,802.7,354.7L802.7,354.7z"
     id="path241" /><path
     class="st27"
     d="M790.7,348.9c-1.8,0.5-2.6,3.3-3.3,5.1s1.1,3.3,1.9,5c0.9,1.5,2,3,3.2,4.2c0.6,0.2,1.2,0.3,1.8,0.4  c0.4-0.2,0.8-0.5,1.1-0.9c-0.3,0-0.6-0.1-0.9-0.1c-0.4-0.1-0.8-0.2-0.8-0.2s-0.6-0.6-1.3-1.5c-0.3-0.4-0.7-0.9-1.1-1.4  c-0.3-0.4-0.6-0.9-0.8-1.4c-0.2-0.4-0.5-0.8-0.7-1.2c-0.3-0.4-0.6-0.8-0.8-1.2c-0.1-0.2-0.2-0.4-0.3-0.6c-0.1-0.2-0.1-0.4-0.2-0.6  c0-0.2,0-0.4,0-0.6c0-0.2,0.1-0.5,0.2-0.7c0.2-0.5,0.4-1,0.6-1.6c0.2-0.6,0.5-1.1,0.8-1.7c0.1-0.3,0.3-0.5,0.5-0.7  C790.5,349.1,790.6,349,790.7,348.9L790.7,348.9z"
     id="path243" /><path
     d="M802.8,354.6c-0.7,0.4-1.3,0.8-1.9,1.2c-0.6,0.4-1.1,0.8-1.5,1.2s-1.1,0.9-1.5,1.4c-0.4,0.4-0.8,0.8-1.1,1.3  c-0.3,0.4-0.6,0.8-1,1.2c-0.3,0.3-0.6,0.6-0.9,0.8c-0.3,0.3-0.7,0.5-1.1,0.7c-0.3,0.1-0.5,0.2-0.6,0.2h0.3l-0.2-0.1l0,0  c-0.3-0.2-0.6-0.4-0.8-0.7c-0.4-0.3-0.8-0.7-1.2-1.1s-0.8-0.9-1.2-1.3s-0.9-1.1-1.3-1.7c-0.3-0.4-0.6-0.9-0.8-1.4  c-0.1-0.2-0.2-0.4-0.2-0.5c-0.1-0.3-0.2-0.7-0.2-1c0-0.4,0-0.8,0.1-1.1l0,0c0.3-0.7,0.7-1.3,1.2-1.8c0.5-0.5,1.1-1,1.8-1.3  c0.5-0.3,1-0.5,1.5-0.7l1-0.3c0.4-0.1,0.7-0.2,1.1-0.3c0.3,0,0.5,0,0.8,0c0.3,0,0.7,0.1,1,0.1l0,0c0.7,0.2,1.4,0.4,2.1,0.7  c0.6,0.3,1.2,0.5,1.7,0.8l0.3,0.1l0.2,0.1h0.2l0,0l0.3-0.4l0,0l0.1-0.1l0,0l-0.1,0.1l-0.2,0.4c0,0,0,0,0,0c0-0.1-0.1-0.1-0.1-0.2  c-0.1-0.2-0.3-0.3-0.4-0.5l0,0c-0.5-0.5-1-0.9-1.5-1.3c-0.7-0.5-1.4-0.9-2.1-1.2c-0.8-0.4-1.6-0.5-2.4-0.5c-0.6,0-1.1,0.1-1.7,0.2  c-0.5,0.1-0.9,0.3-1.3,0.5c-0.5,0.3-1,0.6-1.5,1c-0.7,0.6-1.3,1.2-1.8,2c-0.5,0.7-0.8,1.5-1,2.3c-0.1,0.5-0.1,1,0,1.5  c0.1,0.6,0.3,1.1,0.5,1.6l0.1,0.2c0.2,0.5,0.3,0.9,0.5,1.4c0.3,0.7,0.7,1.4,1.1,2c0.6,1.1,1.4,2.1,2.2,3c0.3,0.3,0.6,0.7,1,0.9  c0.2,0.1,0.3,0.2,0.5,0.3l0,0c0.2,0.1,0.5,0.1,0.7,0.1c0.5-0.1,0.9-0.3,1.3-0.5c0.5-0.3,0.9-0.6,1.2-1c0.2-0.2,0.4-0.4,0.5-0.6  c0.5-0.6,0.9-1.3,1.2-2c0.2-0.5,0.5-0.9,0.8-1.3c0.4-0.5,0.8-1.1,1.2-1.6s0.7-0.8,1.1-1.2s0.7-0.7,1-0.9  C802.1,355.1,802.4,354.8,802.8,354.6L802.8,354.6z"
     id="path245" /><path
     class="st26"
     d="M853,354.1c0,0,4,1.7,4.9,3.1s3.8,5,4.1,5.1c0.6-0.1,1.2-0.2,1.8-0.4c1.2-1.3,2.3-2.7,3.2-4.2  c0.8-1.6,1.8-3.5,0.9-5.4s-1.6-4.5-2.8-4.8c-2-0.4-4-0.3-6,0.2c-1,0.3-2,0.8-3,1.4C855.7,349.6,852.1,353.8,853,354.1L853,354.1z"
     id="path247" /><path
     d="M852.5,354L852.5,354h0.1l0.5,0.2c0.5,0.2,1,0.5,1.5,0.8c0.8,0.5,1.5,1,2.1,1.7c0.5,0.5,0.8,1.1,1.1,1.7  c0.4,0.8,0.8,1.5,1.4,2.2c0.4,0.5,0.9,0.9,1.4,1.3c0.4,0.3,0.8,0.5,1.2,0.7c0.2,0.1,0.4,0.1,0.6,0.2c0.3,0.1,0.7,0.1,1,0  c0.4-0.1,0.7-0.3,1-0.6c0.1-0.1,0.2-0.3,0.4-0.4l0.7-0.7c0.6-0.7,1.1-1.4,1.6-2.1c0.3-0.5,0.6-1,0.8-1.5c0.2-0.4,0.3-0.9,0.4-1.3  c0.1-0.2,0.1-0.5,0.1-0.7c0-0.2,0.1-0.6,0.2-1.1c0.1-0.6,0.1-1.1,0-1.7c-0.1-0.8-0.3-1.6-0.7-2.3c-0.4-0.7-0.9-1.4-1.4-1.9  c-0.5-0.5-1-0.9-1.6-1.3c-0.4-0.2-0.8-0.4-1.3-0.5c-1.1-0.3-2.3-0.3-3.4,0.1c-0.6,0.2-1.1,0.4-1.7,0.7l0,0c-0.6,0.3-1.1,0.6-1.5,1  c-0.4,0.4-0.8,0.8-1.2,1.3c-0.1,0.1-0.2,0.2-0.2,0.4c0,0.1,0,0.1,0,0.1c0.2-0.1,0.4-0.2,0.6-0.4c0.4-0.3,0.8-0.5,1.2-0.7  c0.5-0.3,1.1-0.5,1.7-0.6c0.5-0.1,0.9-0.2,1.4-0.2c0.4-0.1,0.9-0.1,1.3,0c0.7,0.1,1.5,0.4,2.1,0.8c0.4,0.2,0.9,0.4,1.3,0.7  c0.6,0.4,1.1,0.9,1.5,1.4c0.4,0.5,0.7,1.1,0.9,1.7c0.2,0.6,0.2,1.2,0.2,1.8c0,0.5-0.1,0.9-0.3,1.3l0,0c-0.1,0.3-0.3,0.7-0.5,1  c-0.3,0.5-0.6,0.9-1,1.4l0,0c-0.5,0.6-1.1,1.2-1.7,1.7l0,0l-0.7,0.6c-0.2,0.2-0.4,0.3-0.5,0.5l0,0c-0.1,0-0.2,0-0.2,0  c-0.4-0.1-0.8-0.3-1.1-0.5c-0.5-0.4-1.1-0.8-1.5-1.3c-0.4-0.4-0.8-0.8-1.2-1.2c-0.5-0.7-1.2-1.4-1.9-1.9c-0.7-0.5-1.5-0.9-2.3-1.2  c-0.5-0.2-1.1-0.4-1.7-0.5L852.5,354L852.5,354L852.5,354L852.5,354L852.5,354z"
     id="path249" /><path
     d="M804.6,348.1c1.6-1.6,3.4-3.1,5.4-4.3c2.2-1.4,4.6-2.4,7.1-3.1c0.8-0.2,1.5-0.4,2-0.5s1.3-0.4,2.2-0.6s2-0.5,3-0.7  s2.2-0.3,3.2-0.4s1.9-0.1,2.6-0.1h0.9c0.9,0.1,1.7,0.2,2.6,0.4c1.2,0.2,2.5,0.5,3.9,1c1.1,0.3,2.1,0.7,3,1s1.7,0.7,2.2,1l0.7,0.3  c0.6,0.2,1.1,0.5,1.7,0.8c0.7,0.4,1.4,0.9,2.1,1.4c0.8,0.6,1.5,1.2,2.2,1.9c0.7,0.7,1.4,1.3,2,2c0.4,0.4,0.5,0.5,0.5,0.3  c-0.1-0.4-0.3-0.7-0.5-1.1c-0.9-1.6-2-3-3.2-4.3c-0.7-0.7-1.4-1.4-2.2-1.9c-0.7-0.5-1.5-1-2.3-1.4c-0.3-0.1-0.7-0.3-1-0.4  c-1.6-0.5-3.2-0.8-4.8-1c-1.6-0.2-3.1-0.3-4.4-0.4s-2.4-0.2-3.2-0.3h-0.1c-0.6-0.1-1.7-0.2-3-0.2c-1.6,0-3.1,0-4.7,0.2  c-1.6,0.2-3.2,0.5-4.8,1c-1.2,0.3-2.3,0.8-3.4,1.3c-1,0.6-2,1.2-2.9,1.8c-1.2,0.8-2.3,1.7-3.3,2.7c-0.9,0.8-1.7,1.7-2.5,2.6  c-0.6,0.7-1,1.2-1,1.2L804.6,348.1z"
     id="path251" /><path
     d="M788.4,368.1c-0.1,1.1-0.2,2.2-0.5,3.2l0,0c-0.3,1.2-0.5,2.4-0.7,3.4c-0.2,1.1-0.2,2.3-0.2,3.5c0,1,0.1,1.9,0.1,2.6  s0.2,1.4,0.3,1.9s0.2,1,0.3,1.5l0.1,0.3c0.2,0.8,0.6,2,1.1,3.5s1.2,3,1.8,4.3c0.3,0.7,0.7,1.4,1,1.9s0.6,1,0.8,1.2s0.7,1.2,1.4,2.3  c0.5,0.8,1.1,1.5,1.7,2.2c0.7,0.7,1.4,1.4,2.2,2.1c0.8,0.7,1.6,1.2,2.2,1.7c0.5,0.3,1,0.7,1.5,0.9l2.2,1.1c0.8,0.4,1.7,0.8,2.6,1.1  c0.9,0.3,1.9,0.5,2.9,0.7l1.9,0.2c0.4,0.1,0.6,0,0.6,0l0,0c-0.7-0.5-1.5-0.8-2.3-1c-0.7-0.3-1.5-0.7-2.4-1.1  c-0.8-0.4-1.6-0.9-2.4-1.5c-0.7-0.5-1.3-0.9-1.9-1.3s-1.2-0.7-1.7-1c-0.8-0.4-1.6-0.8-2.3-1.3c-0.8-0.5-1.6-1-2.3-1.6  c-0.7-0.5-1.3-1.2-1.9-1.8c-0.8-0.9-1.4-1.8-1.9-2.9c-0.2-0.5-0.5-1.3-0.9-2.4s-0.8-2.5-1.2-3.9s-0.7-2.9-1.1-4.3  c-0.2-0.8-0.4-1.5-0.5-2.2s-0.2-1.2-0.3-1.6s-0.3-1.3-0.4-2.2c-0.1-1-0.2-1.9-0.2-2.9c0-1.2,0.1-2.4,0.2-3.4s0.1-1.8,0.1-2.4  S788.4,368.2,788.4,368.1L788.4,368.1z"
     id="path253" /><path
     d="M864.3,366.3c0.4,0.8,0.8,1.6,1.1,2.3c0.3,0.7,0.6,1.3,0.8,1.9c0.2,0.5,0.3,1.1,0.4,1.6c0.1,0.8,0.2,1.4,0.2,2  s0,1.1,0.1,1.6c0,1.3,0,2.2,0,3c0,0.4,0,1,0.1,1.7s0.1,1.5,0.2,2.2s0.1,1.6,0.1,2.4s0,1.3,0,1.9c0,0.4-0.1,0.8-0.1,1.2  c0,0.2-0.1,0.3-0.1,0.4c-0.2,0.6-0.5,1.3-0.8,1.9c-0.4,0.8-0.8,1.6-1.3,2.3c-0.4,0.6-0.8,1.1-1.3,1.6c-0.4,0.5-0.8,0.9-1.2,1.2  s-0.5,0.4-0.6,0.6c-0.3,0.3-0.6,0.6-0.9,0.9c-0.4,0.4-0.9,0.7-1.4,1.1s-1.3,0.9-2,1.3s-1.4,0.8-2,1.1s-0.3,0.4,0.7,0.3  c1.4-0.3,2.8-0.7,4.2-1.3c0.7-0.3,1.4-0.7,2-1.1c0.6-0.4,1.1-0.8,1.6-1.4c0.1-0.1,0.2-0.3,0.4-0.5c0.7-1,1.3-2.1,1.8-3.2l0,0  c0.6-1.5,1.1-3.1,1.6-4.7c0.1-0.5,0.2-0.9,0.3-1.2s0.2-0.5,0.2-1s0.2-0.9,0.3-1.5s0.2-1.5,0.3-2.3s0.1-1.6,0.2-2.5  c0.1-1.6,0-3.2-0.2-4.8c0-0.2,0-0.3-0.1-0.5c-0.2-0.8-0.5-2-0.9-3.2c-0.2-0.6-0.5-1.2-0.8-1.7c-0.4-0.7-0.7-1.3-1.1-1.8L864.3,366.3  L864.3,366.3z"
     id="path255" /><path
     class="st28"
     d="M831.2,391.9c0.4,3.5,0.7,7,0.7,10.5"
     id="path257" /><path
     class="st29"
     d="M845.7,366.1c-0.5,0-0.8,1.1-0.8,1.6c-0.2,0.5,0.1,1.1,0.6,1.3c0.5,0.2,1.1-0.1,1.3-0.6c0.1-0.2,0.1-0.4,0-0.6  C846.8,367.2,846.2,366.1,845.7,366.1z"
     id="path259" /><path
     class="st29"
     d="M817.8,366.4c-0.5,0-0.8,1-0.8,1.6c-0.2,0.5,0.1,1.1,0.7,1.3c0.5,0.2,1.1-0.1,1.3-0.7c0.1-0.2,0.1-0.4,0-0.6  C819,367.5,818.4,366.4,817.8,366.4z"
     id="path261" /><path
     d="M831.1,381.2c-3.6,0-8.4,3.3-6.6,6c1.3,2,3.8,5.8,6.6,6s4.7-3.8,6.6-6C839.8,384.7,834.8,381.2,831.1,381.2z"
     id="path263" /><path
     class="st29"
     d="M834.1,382.6c-0.8,0-1.6,0-1.6,0.8s0.8,0.7,1.6,0.7s2.7,1.5,2.7,0.7S834.9,382.6,834.1,382.6L834.1,382.6z"
     id="path265" /><path
     d="M781.1,347.1L781.1,347.1L781.1,347.1H781h-0.1l0,0c-0.1,0-0.2,0-0.2,0c-0.2,0-0.3-0.1-0.5-0.2c-0.4-0.2-0.7-0.5-1-0.8  l-0.3-0.4c-0.2-0.2-0.3-0.4-0.5-0.6c-0.2-0.2-0.3-0.5-0.5-0.7c-0.1-0.1-0.1-0.2-0.2-0.4c-0.1-0.1-0.1-0.2-0.1-0.4  c0-0.1,0.1-0.3,0.1-0.4c0.1-0.1,0.3-0.2,0.4-0.3c0.2-0.1,0.5-0.1,0.7,0c0.3,0,0.6,0.1,0.8,0.3l0,0c0.4,0.2,0.7,0.5,1,0.8  c0.2,0.2,0.3,0.4,0.4,0.6c0.3,0.4,0.4,1,0.5,1.5c0,0.2,0,0.4-0.1,0.6c0,0.1-0.1,0.1-0.1,0.2l0,0l-0.1,0.1l0,0L781.1,347.1  L781.1,347.1z"
     id="path267" /><path
     d="M779.6,349.6c-0.1,0.3-0.5,0.4-1,0.5c-0.6,0-1.2-0.1-1.7-0.2l0,0l-0.5-0.1c-0.6-0.1-1.1-0.2-1.6-0.5  c-0.2-0.1-0.3-0.1-0.5-0.3c-0.1-0.1-0.2-0.2-0.3-0.3c-0.1-0.1-0.2-0.2-0.2-0.3c-0.1-0.1-0.1-0.2-0.1-0.3c0-0.1,0-0.2,0.1-0.3  c0.1-0.1,0.2-0.2,0.3-0.3c0.2-0.1,0.3-0.2,0.5-0.2c0.2-0.1,0.4-0.1,0.6-0.1c0.7-0.1,1.3,0,2,0.1l0.5,0.1l0,0  c0.6,0.3,1.2,0.6,1.6,1.1C779.6,349,779.7,349.4,779.6,349.6L779.6,349.6z"
     id="path269" /><path
     d="M863.1,340.5c-0.4-0.1-0.6-0.3-0.8-0.7c-0.2-0.4-0.3-0.9-0.3-1.4l0,0c0-0.1,0-0.1,0-0.2c0-0.5,0-0.9,0.2-1.4  c0.1-0.2,0.1-0.4,0.2-0.5c0.1-0.1,0.2-0.3,0.4-0.3c0.2-0.1,0.4-0.1,0.5,0c0.2,0.1,0.4,0.2,0.5,0.4c0.2,0.2,0.3,0.5,0.5,0.8  c0.1,0.3,0.2,0.7,0.2,1c0,0.1,0,0.2,0,0.3l0,0c0,0.6-0.2,1.1-0.5,1.6C863.9,340.4,863.5,340.6,863.1,340.5L863.1,340.5z"
     id="path271" /><path
     d="M866.5,340.8c-0.3-0.1-0.4-0.5-0.4-1c0-0.6,0.2-1.2,0.4-1.8c0.1-0.2,0.1-0.3,0.2-0.5c0.3-0.7,0.6-1.3,1-1.9  c0.1-0.2,0.3-0.4,0.5-0.6c0.1-0.1,0.3-0.2,0.5-0.2c0.2,0,0.4,0.1,0.5,0.3c0.1,0.2,0.2,0.5,0.3,0.8c0.1,0.4,0.1,0.8,0,1.1  c-0.1,0.4-0.2,0.9-0.3,1.3c-0.1,0.2-0.2,0.4-0.2,0.5l0,0c-0.3,0.6-0.7,1.2-1.2,1.6C867.2,340.9,866.8,341,866.5,340.8L866.5,340.8z"
     id="path273" /><path
     class="st24"
     d="M818.5,387.8c-0.5,0-1,0.5-1,1c0,0.5,0.4,0.7,0.9,0.7s1-0.2,1-0.7C819.5,388.3,819.1,387.9,818.5,387.8  L818.5,387.8z"
     id="path275" /><path
     class="st24"
     d="M815.2,392.1c-0.8,0-1.5,0.7-1.5,1.5c0,0.9,0.6,1.1,1.4,1.1s1.5-0.3,1.5-1.1  C816.7,392.8,816,392.1,815.2,392.1L815.2,392.1z"
     id="path277" /><path
     class="st24"
     d="M821.2,393.1c-0.8,0-1.2,0.4-1.2,1.2s0.5,1,1.3,1s1.1-0.4,1.1-1.2S822,393.1,821.2,393.1L821.2,393.1z"
     id="path279" /><path
     class="st24"
     d="M842.6,391.5c-0.5,0-0.8,0.4-0.8,0.9c0,0,0,0,0,0c0,0.5,0.2,0.6,0.6,0.6s0.8-0.2,0.8-0.6  S843,391.5,842.6,391.5L842.6,391.5z"
     id="path281" /><path
     class="st24"
     d="M847.6,388.9c-0.8,0-1.2,0.7-1.2,1.6s0.3,1.1,1.1,1.1s1.5-0.3,1.5-1.1C849.1,389.6,848.5,388.9,847.6,388.9  L847.6,388.9z"
     id="path283" /><path
     class="st24"
     d="M846.1,394.6c-0.6,0-1.1,0.5-1.1,1.1c0,0.6,0.4,1,1,1c0.5,0,0.9-0.3,0.9-0.8c0-0.1,0-0.1,0-0.2  C846.9,395.1,846.7,394.5,846.1,394.6L846.1,394.6z"
     id="path285" /><path
     d="M811.4,345.5L811.4,345.5h-0.2c-0.1,0-0.2,0-0.3-0.1c-0.2-0.1-0.4-0.2-0.5-0.4c-0.5-0.4-0.9-0.9-1.2-1.5  c-0.2-0.2-0.3-0.5-0.4-0.7c-0.2-0.4-0.4-0.8-0.6-1.2l0,0c-0.2-0.5-0.4-0.9-0.5-1.4c-0.1-0.3-0.1-0.6,0.1-0.9c0.2-0.2,0.5-0.2,0.9,0  c0.5,0.3,1,0.6,1.4,1.1l0,0c0.3,0.4,0.6,0.8,0.9,1.3c0.2,0.3,0.3,0.6,0.4,0.9c0.3,0.6,0.4,1.3,0.5,2c0,0.2,0,0.5-0.1,0.7l0,0  c0,0.1-0.1,0.2-0.1,0.2l-0.1,0.1l0,0L811.4,345.5L811.4,345.5z"
     id="path287" /><path
     d="M814.9,343.4c-0.5,0.1-1.1-0.6-1.5-1.6l0,0c-0.1-0.2-0.2-0.5-0.3-0.7c-0.1-0.3-0.2-0.6-0.3-0.9c-0.1-0.3-0.1-0.5-0.1-0.8  c0-0.2,0-0.4,0-0.6c0-0.2,0.1-0.3,0.2-0.5c0.1-0.1,0.3-0.2,0.5-0.1c0.3,0,0.5,0.1,0.7,0.3c0.3,0.2,0.5,0.5,0.7,0.8  c0.4,0.6,0.7,1.3,0.8,2.1l0,0C815.7,342.4,815.4,343.3,814.9,343.4L814.9,343.4z"
     id="path289" /><path
     d="M827.6,372.6c0.4,0,0.8-0.1,1.1-0.1c0.5,0,1,0,1.3-0.1h0.1c0.3-0.1,0.6-0.1,0.9-0.1c0.3,0,0.7,0,1,0c0.1,0,0.2,0,0.1-0.1  c-0.2-0.1-0.3-0.2-0.5-0.2c-0.3-0.1-0.6-0.1-0.8-0.2c-0.3,0-0.6,0-0.8,0h-0.2l-1.3,0.4c-0.3,0.1-0.7,0.2-1,0.2  c-0.2,0-0.3,0.1-0.3,0.1S827.3,372.7,827.6,372.6L827.6,372.6z"
     id="path291" /><path
     d="M828.4,370c0.3,0,0.5,0,0.8,0c0.3,0,0.5,0.1,0.8,0.1l0,0c0.4-0.1,0.8-0.1,1.2-0.1c0.2,0,0-0.1-0.3-0.3  c-0.3-0.2-0.7-0.3-1-0.3c-0.1,0-0.2,0-0.3,0l-0.9,0.2c-0.2,0.1-0.4,0.1-0.7,0.1c-0.2,0-0.2,0.1-0.2,0.1S828.2,370,828.4,370  L828.4,370z"
     id="path293" /><path
     d="M830.1,371.8c0-0.9,0-3,0.1-5.5c0-2.1,0.1-4.6,0.2-6.8c0-0.9,0.1-1.7,0.1-2.5c0-0.3,0-0.6,0.1-0.8c0-0.2,0-0.3,0.1-0.5  c0.1-0.4,0.1-0.7,0.2-1.1l0,0c0.1-0.7,0.1-1.3,0.1-1.7c0,0,0-0.1,0-0.1c0-1,0-2.6-0.1-4.4c0-1.4-0.1-3-0.3-4.6  c-0.1-0.6-0.2-1.2-0.3-1.8c-0.1-0.4-0.2-0.9-0.4-1.3c-0.4-0.7-0.7-1.5-1.1-2.1c-0.1-0.2-0.2-0.3-0.3-0.5c-0.1-0.1-0.2-0.3-0.4-0.4  c-0.1-0.1-0.2-0.1-0.3-0.2h-0.2l0,0c0.2,0.1,0.3,0.2,0.4,0.3c0.1,0.1,0.2,0.2,0.3,0.3c0.1,0.2,0.2,0.3,0.3,0.5  c0.2,0.3,0.3,0.6,0.5,1s0.3,0.8,0.5,1.2c0.2,0.4,0.3,0.8,0.3,1.2c0.1,0.6,0.2,1.2,0.2,1.8c0.1,1.5,0.2,3,0.2,4.5s0,3.1-0.1,4.5l0,0  c0,0.6,0,1.1-0.1,1.7c0,0.3,0,0.6-0.1,0.8c0,0.1,0,0.1,0,0.2l0,0c0,0.2-0.1,0.4-0.1,0.6l0,0c0,0.3,0,0.6,0,0.9l0,0  c0,0.8,0,1.7-0.1,2.5c0,2.3,0,4.7,0,6.8c0,2.6,0,4.9,0,6.5c0,0.1,0,0.3,0,0.4c0,0.7,0,1.3,0,1.7c0,0.3,0,0.5,0,0.6c0,0,0,0.1,0,0.1  l0,0l0,0l0,0c0,0,0-0.1,0-0.1c0-0.1,0-0.3,0-0.6c0-0.5,0-1.2,0-2.1c0-0.3,0-0.6,0-0.9L830.1,371.8z"
     id="path295" /><path
     class="st30"
     d="M831.2,402c-1.4,0.1-2.4,1.2-2.4,2.5c0,1.4,1.2,1.5,2.5,1.5s2.3,0,2.3-1.5C833.6,403.2,832.6,402.1,831.2,402z  "
     id="path297" /><path
     class="st28"
     d="M816.2,364.8c0,0-2.8,0.3-3.7-1.5"
     id="path299" /><path
     class="st28"
     d="M844.3,365c0,0,2.8,0.3,3.7-1.5"
     id="path301" /><path
     d="M797.8,454.7c0.4-0.5,1.2-0.4,2,0l0.3,0.2c0.2,0.2,0.4,0.4,0.6,0.6c0.2,0.2,0.3,0.5,0.3,0.8c0.1,0.2,0.1,0.5,0,0.7  c-0.1,0.2-0.3,0.4-0.6,0.5c-0.3,0.1-0.7,0-1-0.1c-0.3-0.1-0.6-0.3-0.9-0.5c-0.1-0.1-0.2-0.2-0.3-0.3  C797.6,456,797.4,455.2,797.8,454.7L797.8,454.7z"
     id="path303" /><path
     d="M799.8,451.6c0.3-0.3,0.6-0.4,1-0.3c0.5,0.1,1.1,0.3,1.5,0.5h0.1c0.4,0.2,0.7,0.5,1,0.8c0.1,0.1,0.2,0.2,0.3,0.3  c0.1,0.2,0.2,0.4,0.2,0.6c0,0.1,0,0.2,0,0.3c0,0.1-0.1,0.2-0.1,0.3c-0.1,0.1-0.2,0.2-0.3,0.2c-0.2,0.1-0.3,0.1-0.5,0.1  c-0.2,0-0.3,0-0.5,0c-0.5-0.1-0.9-0.3-1.3-0.5l-0.1,0c-0.5-0.3-0.9-0.7-1.2-1.2C799.6,452.4,799.6,452,799.8,451.6z"
     id="path305" /><path
     d="M831.9,463.9c0.1-0.3,0.2-0.8,0.3-1.4c0.1-0.7,0.3-1.4,0.3-2.1c0.1-0.9,0.2-1.9,0.3-3.1l0,0c0.2-2,0.3-4.4,0.4-6.7l0,0  c0-0.9,0-1.7,0-2.5c0-1.2-0.1-2.3-0.2-3.4c-0.3-3.4-0.6-6.2-0.7-7.5l-0.1-0.6c-0.2-1.8-0.6-4.4-1-7.4l0,0c-0.1-0.8-0.2-1.7-0.4-2.6  l0,0c0-0.3-0.1-0.6-0.2-0.8s-0.1-0.3-0.1-0.5v-0.2l0,0c0-0.2,0-0.5,0-0.7c0-1,0-2,0-3c0-1.5-0.1-3-0.3-4.4c0-0.2,0-0.4-0.1-0.6  c0-0.3-0.1-0.6-0.1-0.8s0-0.3-0.1-0.4v-0.1l0,0c0,0,0,0.1,0,0.1s0,0.2,0,0.4c0,0.3,0.1,0.8,0.1,1.3c0.1,1.5,0.2,2.9,0.1,4.4  c0,0.9,0,1.9,0,3c0,0.2,0,0.5,0,0.7c0,0.1,0,0.1,0,0.2v0.1c0,0.2,0.1,0.3,0.1,0.5s0.1,0.5,0.1,0.8c0.1,0.8,0.2,1.7,0.3,2.6  c0.3,2.5,0.6,5.1,0.8,7.4c0.2,1.6,0.3,3.1,0.5,4.3s0.3,2.5,0.4,3.8s0.2,2.3,0.3,3.4l0,0c0.1,0.9,0.1,1.7,0.1,2.5  c0,2.3-0.1,4.6-0.2,6.7l0,0c-0.1,1.1-0.2,2.1-0.3,3.1c-0.1,1-0.2,2-0.5,3c-0.2,0.8-0.5,1.5-0.8,2.3l-0.3,0.6  c-1.6,3.1-1.6,3.6,0.2,0.1C831.5,465.5,831.7,464.7,831.9,463.9L831.9,463.9z"
     id="path307" /><path
     d="M832.6,426.1c-0.4,0-0.8,0.1-1.1,0.1c-0.5,0-1,0-1.3,0.1H830c-0.3,0.1-0.6,0.1-0.9,0.1c-0.3,0-0.7,0-1,0  c-0.1,0-0.2,0-0.1,0.1c0.2,0.1,0.3,0.2,0.5,0.2c0.3,0.1,0.6,0.1,0.8,0.2c0.3,0,0.6,0,0.8,0h0.2l1.3-0.4c0.3-0.1,0.7-0.2,1-0.2  c0.2,0,0.3-0.1,0.3-0.1S832.9,426,832.6,426.1L832.6,426.1z"
     id="path309" /><path
     d="M831.8,424.1c-0.3,0-0.5,0-0.8,0c-0.3,0-0.5-0.1-0.8-0.1l0,0c-0.4,0.1-0.8,0.1-1.2,0.1c-0.2,0,0,0.1,0.3,0.3  c0.3,0.2,0.7,0.3,1,0.3c0.1,0,0.2,0,0.3,0l0.9-0.2c0.2-0.1,0.4-0.1,0.7-0.1c0.2,0,0.2-0.1,0.2-0.1S832,424.1,831.8,424.1  L831.8,424.1z"
     id="path311" /><path
     class="st22"
     d="M866.5,453.7c11.3,0,20.8,8.3,20.8,19.3c-0.1,11.1-9.2,20.1-20.4,19.9c-8.4,0-16.6-2.3-19.7-9.4  c-1.2-3.5-1.6-7.3-1.2-11C847.5,461.6,855.3,453.8,866.5,453.7L866.5,453.7z"
     id="path313" /><path
     class="st26"
     d="M859.8,488.8c2.7,1.7,6.7,1.5,10.3,0.1c5.5-2.2,8.4-7.6,6.7-12.1s-7.2-8-12.7-5.8s-8.9,9.2-7.1,13.7  C857.5,486.3,858.5,487.7,859.8,488.8L859.8,488.8z"
     id="path315" /><path
     d="M859.8,488.9c0.9,0.6,1.9,1,3,1.2c0.9,0.2,1.9,0.3,2.9,0.3c0.9,0,1.7-0.1,2.5-0.3c0.7-0.2,1.5-0.4,2.2-0.6l0,0  c0.9-0.3,1.7-0.8,2.5-1.3c0.7-0.4,1.3-0.9,1.9-1.4c0.5-0.4,0.9-0.9,1.4-1.4c0.3-0.4,0.6-0.8,0.9-1.3c0.3-0.5,0.6-1,0.8-1.5  c0.3-0.8,0.5-1.7,0.5-2.6c0-0.6,0-1.2-0.1-1.7c-0.1-0.6-0.3-1.2-0.5-1.8c-0.3-0.7-0.7-1.3-1.1-1.9c-0.8-1.1-1.8-2.1-3-2.8  c-0.5-0.3-0.9-0.6-1.4-0.8l0,0c-0.4-0.2-0.9-0.4-1.3-0.5c-0.9-0.3-1.7-0.5-2.6-0.6c-0.7-0.1-1.3-0.1-2,0c-0.8,0.1-1.5,0.2-2.2,0.5  c-0.9,0.3-1.8,0.7-2.6,1.3c-1.4,0.9-2.6,2.1-3.6,3.5c-0.3,0.4-0.6,0.9-0.8,1.4v0.1c-0.3,0.6-0.5,1.2-0.7,1.8  c-0.2,0.8-0.4,1.7-0.5,2.5c-0.1,0.7-0.1,1.3,0,2c0.1,1.5,0.8,2.9,1.9,4c0.5,0.5,1.1,1,1.7,1.4c0.2,0.1,0.4,0.3,0.7,0.4l0,0l0,0  c0,0-0.2-0.2-0.4-0.4c-0.3-0.2-0.5-0.5-0.8-0.8c-0.3-0.4-0.6-0.8-0.8-1.2c-0.3-0.5-0.5-1.1-0.6-1.7c-0.1-0.6-0.2-1.1-0.2-1.7  c0-0.6,0.1-1.2,0.2-1.8c0.3-1.3,0.8-2.5,1.4-3.6c0.3-0.6,0.7-1.2,1-1.7c0.6-0.9,1.2-1.7,2-2.5c0.8-0.7,1.6-1.4,2.6-1.8  c0.7-0.3,1.4-0.6,2.1-0.7c0.7-0.1,1.3-0.2,2-0.1c0.6,0,1.2,0.1,1.7,0.3c0.4,0.1,0.9,0.3,1.3,0.5l0.2,0.1c0.3,0.2,0.7,0.4,1,0.7  c1,0.8,1.8,1.7,2.5,2.8c0.4,0.6,0.7,1.3,0.9,2c0.3,1.1,0.4,2.2,0.3,3.3c-0.2,1.1-0.5,2.1-1,3c-0.6,1-1.3,1.9-2.1,2.7  c-0.4,0.4-0.9,0.8-1.3,1.2c-0.6,0.5-1.3,0.9-2,1.3c-1.1,0.5-2.2,0.9-3.3,1.2c-1.1,0.2-2.3,0.3-3.4,0.2c-0.9-0.1-1.7-0.3-2.5-0.6  c-0.3-0.1-0.5-0.2-0.7-0.3L859.8,488.9L859.8,488.9z"
     id="path317" /><path
     class="st25"
     d="M866.5,453.7c-6.2-0.1-12.1,2.6-15.9,7.5c0.4-0.4,0.7-0.8,1.1-1.2s0.9-0.8,1.4-1.2s1-0.7,1.5-1s1-0.6,1.6-0.9  s1.1-0.5,1.7-0.8s1.2-0.4,1.8-0.6s1.2-0.3,1.9-0.4s1.3-0.2,2-0.3s1.4-0.1,2.1-0.1s1.4,0,2.1,0.1s1.4,0.2,2,0.3s1.3,0.3,2,0.5  s1.3,0.4,1.9,0.6s1.2,0.5,1.8,0.8s1.2,0.6,1.7,1s1.1,0.7,1.6,1.1s1,0.8,1.5,1.2s0.9,0.9,1.3,1.4s0.8,1,1.2,1.5c0.4,0.5,0.7,1,1,1.6  c0.3,0.6,0.6,1.1,0.9,1.7c0.5,1.2,1,2.4,1.2,3.7c0.1,0.7,0.3,1.3,0.3,2c0.1,0.7,0.1,1.3,0.1,2c0,0.7,0,1.3-0.1,2  c-0.2,2-0.7,3.9-1.5,5.7c-0.3,0.6-0.5,1.2-0.8,1.7s-0.7,1.1-1,1.6c-0.2,0.3-0.5,0.6-0.7,0.9c3.3-3.6,5.1-8.3,5.1-13.1  C887.2,462,877.7,453.7,866.5,453.7L866.5,453.7z"
     id="path319" /><path
     class="st23"
     d="M849.4,463.2c-1.7,2.8-2.8,6-3.3,9.3c-0.4,3.7,0.1,7.5,1.3,11c3.1,7.1,11.3,9.4,19.7,9.4  c7.9,0,15.1-4.5,18.5-11.6c-0.2,0.3-0.3,0.6-0.5,0.8c-0.4,0.5-0.8,1-1.2,1.5s-0.8,1-1.3,1.4s-0.9,0.9-1.5,1.3s-1,0.8-1.6,1.1  s-1.1,0.7-1.7,1s-1.2,0.6-1.8,0.8s-1.2,0.5-1.9,0.7s-1.3,0.4-2,0.5s-1.3,0.2-2,0.3s-1.4,0.1-2.1,0.1c-1,0-2.1,0-3.1-0.1  s-2.1-0.2-3-0.4c-1-0.2-2-0.4-2.9-0.6c-0.9-0.3-1.8-0.6-2.7-0.9c-0.9-0.4-1.7-0.8-2.5-1.3c-0.4-0.2-0.8-0.5-1.1-0.8s-0.7-0.6-1-0.9  c-0.4-0.3-0.7-0.6-1-1c-0.6-0.7-1.2-1.4-1.6-2.2c-0.2-0.4-0.4-0.8-0.6-1.3c-0.3-0.7-0.5-1.5-0.7-2.3c-0.2-1-0.4-2-0.5-3  c-0.1-1-0.2-2.1-0.2-3.1c0-0.9,0-1.8,0.1-2.7c0.1-0.7,0.2-1.4,0.4-2s0.3-1.3,0.5-1.9s0.4-1.2,0.6-1.8S849.2,463.6,849.4,463.2  L849.4,463.2z"
     id="path321" /><path
     d="M866.9,453.7c1.5,0,2.9,0.1,4.3,0.5c1.3,0.3,2.6,0.7,3.8,1.3c2.2,0.9,4.1,2.3,5.8,3.9l0,0c1.1,1.1,2.1,2.3,2.9,3.7  c0.7,1.2,1.3,2.4,1.7,3.7c0.4,1.1,0.7,2.2,0.8,3.4c0.1,1,0.2,2,0.2,3l0,0c0,0.9-0.1,1.8-0.3,2.8c-0.1,0.8-0.3,1.5-0.6,2.3  c-0.4,1.2-0.9,2.4-1.5,3.5c-0.4,0.8-0.9,1.5-1.3,2.2c-1.4,1.9-3,3.6-5,4.9c-1.1,0.7-2.2,1.4-3.4,1.9c-1.2,0.5-2.5,0.9-3.8,1.2  c-1.2,0.3-2.5,0.4-3.7,0.5c-1.5,0-2.9,0-4.4-0.1c-1.3-0.1-2.3-0.3-2.9-0.4c-0.6-0.1-1.2-0.3-1.8-0.4c-0.9-0.3-1.7-0.6-2.5-0.9  c-1.6-0.7-3.1-1.7-4.4-2.9c-1.3-1.2-2.3-2.7-2.9-4.3c-0.3-0.7-0.5-1.4-0.6-2.2c-0.2-1-0.3-1.9-0.4-2.9c-0.1-1-0.1-2-0.1-3  c0-0.9,0.1-1.7,0.2-2.6c0.2-0.9,0.4-1.8,0.6-2.7c0.2-0.8,0.4-1.4,0.5-1.9c0.4-1.4,1-2.7,1.7-4c0.9-1.7,2.1-3.3,3.5-4.7  c0.8-0.8,1.7-1.6,2.7-2.3c1-0.7,2-1.3,3.1-1.8c1-0.5,2.1-0.9,3.2-1.2c1-0.3,2.1-0.5,3.2-0.6c0.9-0.1,1.3-0.1,1.4-0.1l0,0l0,0  c-0.5-0.1-1-0.1-1.5-0.1c-1.2,0-2.3,0.2-3.5,0.4c-1.6,0.3-3.2,0.8-4.7,1.5c-1.8,0.8-3.4,1.8-4.9,3c-1.1,0.9-2.1,2-2.9,3.1  c-0.9,1.1-1.6,2.3-2.2,3.6c-0.6,1.2-1.1,2.4-1.4,3.6c-0.3,1.1-0.6,2.2-0.7,3.3c0,0.2,0,0.3-0.1,0.5c-0.2,2-0.1,4,0.3,6  c0.1,1,0.3,2,0.6,3l0,0c0.2,0.8,0.5,1.6,0.8,2.4c0.8,1.7,2,3.3,3.5,4.5l0,0c1.4,1.2,3.1,2.2,4.8,2.9c1.2,0.5,2.5,0.9,3.7,1.1  c1.1,0.3,2.1,0.4,3,0.6c0.5,0.1,1.3,0.2,2.1,0.3s1.9,0.2,3.1,0.2c1.2,0,2.4,0,3.5-0.2c2.8-0.4,5.4-1.3,7.8-2.8  c1.3-0.8,2.5-1.7,3.6-2.7c1.1-1.1,2.1-2.3,3-3.6c0.8-1.3,1.5-2.6,2-4c0.5-1.2,0.8-2.5,1-3.8c0.2-1.1,0.3-2.2,0.2-3.3  c0-0.5,0-1-0.1-1.4c-0.1-1-0.3-1.9-0.5-2.8c-0.7-2.5-1.8-4.8-3.3-6.8c-0.8-1.1-1.8-2.2-2.8-3.1c-1.5-1.3-3.1-2.3-4.9-3.1  c-1.5-0.7-3.1-1.2-4.8-1.5c-1.2-0.2-2.3-0.3-3.5-0.4C867.4,453.7,866.9,453.7,866.9,453.7L866.9,453.7z"
     id="path323" /><path
     class="st31"
     d="M859.7,457.9c-1,1-1.1,2.7-0.8,4.4c0.4,2.6,2.1,4.4,4.3,4c2.4-0.4,4-2.7,3.6-5.1c-0.4-2.6-3-4.7-5.2-4.3  C860.8,457,860.2,457.3,859.7,457.9L859.7,457.9z"
     id="path325" /><path
     class="st31"
     d="M872.3,457.9c-1.2,0.4-1.9,1.7-2.4,3.1c-0.7,2.2-0.1,4.3,1.7,4.9c2.1,0.6,4.2-0.5,4.9-2.5  c0.7-2.2-0.5-4.9-2.3-5.5C873.6,457.7,872.9,457.7,872.3,457.9L872.3,457.9z"
     id="path327" /><path
     class="st31"
     d="M880.6,464.5c-1.1,0.5-1.9,1.4-2.2,2.6c-0.7,1.9-0.3,3.7,1.2,4.3c1.7,0.6,3.7-0.2,4.4-1.9  c0.7-1.9-0.2-4.3-1.7-4.9C881.7,464.4,881.1,464.3,880.6,464.5z"
     id="path329" /><path
     class="st22"
     d="M800.3,459.2c-11-0.3-20.2,8.3-20.6,19.3c-0.3,11,8.3,20.2,19.3,20.6c0.4,0,0.8,0,1.3,0  c8.4,0,16.6-2.3,19.7-9.4c1-2.4,1.6-9.7,1-12.5C818.9,466.3,811.6,459.2,800.3,459.2L800.3,459.2z"
     id="path331" /><path
     class="st26"
     d="M808,494.5c-3.1,1.7-6.8,1.9-10,0.5c-5.5-2.2-8.4-7.6-6.7-12.1s7.2-8,12.7-5.8s8.9,9.2,7.1,13.7  C810.5,492.4,809.4,493.6,808,494.5L808,494.5z"
     id="path333" /><path
     class="st23"
     d="M784.5,466.6c-2.9,3.5-4.6,8-4.5,12.5c0.1,11.1,9.2,20.1,20.4,19.9c0,0,0,0,0,0c7.8,0,15.3-2,18.9-7.9v0.1  c-0.3,0.4-0.6,0.7-1,1c-0.3,0.3-0.7,0.6-1,0.9s-0.7,0.5-1.1,0.8c-0.8,0.5-1.6,0.9-2.5,1.3c-0.9,0.4-1.8,0.7-2.7,1  c-1,0.3-1.9,0.5-2.9,0.6c-1,0.2-2,0.3-3,0.4s-2.1,0.1-3.1,0.1c-0.7,0-1.4,0-2.1-0.1s-1.4-0.2-2-0.3s-1.3-0.3-2-0.5s-1.3-0.4-1.9-0.7  s-1.2-0.5-1.8-0.8s-1.1-0.6-1.7-1s-1.1-0.7-1.6-1.1s-1-0.8-1.5-1.3s-0.9-0.9-1.3-1.4s-0.8-1-1.2-1.5s-0.7-1.1-1-1.6  s-0.6-1.1-0.9-1.7c-0.8-1.8-1.3-3.7-1.5-5.7c-0.1-1.4-0.1-2.7,0-4.1c0.2-2,0.7-3.9,1.5-5.7c0.3-0.6,0.5-1.2,0.9-1.7  C784.1,467.4,784.3,467,784.5,466.6L784.5,466.6z"
     id="path335" /><path
     d="M800.3,458.5c-1.5,0-3.1,0.2-4.6,0.5c-1.4,0.3-2.7,0.8-4,1.3c-2.3,1-4.4,2.4-6.2,4.2l0,0c-1.2,1.2-2.2,2.5-3.1,3.9  c-0.8,1.2-1.4,2.5-1.9,3.9c-0.4,1.2-0.8,2.4-1,3.6c-0.2,1.1-0.3,2.1-0.3,3.2l0,0c0,1,0,2,0.2,3c0.1,0.9,0.3,1.7,0.5,2.6  c0.4,1.4,0.9,2.7,1.5,4c0.4,0.8,0.9,1.6,1.5,2.4c0.7,1,1.5,1.9,2.4,2.8c1,0.9,2,1.8,3.2,2.5c2.4,1.5,5.1,2.5,7.9,3  c1.3,0.2,2.7,0.3,4,0.3c1.5,0,3.1-0.2,4.6-0.4c1.3-0.2,2.3-0.4,3-0.6c0.4-0.1,1.1-0.3,1.8-0.5c0.9-0.2,1.8-0.5,2.6-0.9  c1.8-0.7,3.4-1.7,4.9-2.9c1.5-1.3,2.7-2.8,3.5-4.6c0.4-0.9,0.6-1.8,0.8-2.7c0.3-1.2,0.4-2.4,0.5-3.6s0.2-2.5,0.2-3.7l0,0  c0-1,0-2-0.2-3c-0.2-1.2-0.6-2.5-1-3.7c-0.6-1.6-1.3-3.1-2.2-4.5c-1.2-2-2.6-3.7-4.3-5.2c-0.9-0.8-1.9-1.4-3-2  c-1-0.6-2.1-1.1-3.3-1.4c-1.1-0.4-2.2-0.7-3.4-0.9c-1.1-0.2-2.1-0.3-3.2-0.3c-0.5,0-0.8,0-1.1,0c-0.1,0-0.3,0-0.5,0l0,0l0,0  c0.1,0,0.7,0.1,1.5,0.2c1.1,0.1,2.2,0.3,3.3,0.6c1.5,0.4,2.9,1,4.3,1.7c1.6,0.9,3,1.9,4.2,3.2c0.9,0.9,1.7,1.9,2.4,3  c0.7,1.1,1.3,2.2,1.8,3.3c0.9,2.1,1.6,4.2,2.1,6.4c0.1,0.2,0.1,0.5,0.1,0.7c0.1,0.6,0.1,1.2,0.2,1.9c0.1,1.2,0,2.3,0,3.5  s-0.1,2.3-0.3,3.5c-0.1,0.8-0.3,1.7-0.5,2.5c-0.7,1.7-1.7,3.2-2.9,4.4l0,0c-1.3,1.3-2.8,2.3-4.5,3c-1.2,0.5-2.3,0.9-3.6,1.2  c-1,0.2-1.9,0.4-2.9,0.5c-0.5,0.1-1.3,0.1-2.2,0.2s-1.9,0-3.1,0c-1.1,0-2.3-0.2-3.4-0.4c-2.6-0.5-5.1-1.5-7.3-3  c-1.2-0.8-2.2-1.6-3.2-2.6c-1-1-1.9-2.2-2.7-3.4c-1.3-2.2-2.3-4.6-2.7-7.2c-0.2-1-0.3-2-0.3-3c0-0.5,0-0.9,0-1.3  c0-0.9,0.1-1.8,0.3-2.7c0.2-1.1,0.5-2.2,0.8-3.3c0.4-1.2,1-2.4,1.6-3.5c0.7-1.2,1.5-2.3,2.5-3.3c1.3-1.4,2.9-2.7,4.6-3.7  c1.5-0.9,3.1-1.6,4.7-2.1c1.2-0.4,2.4-0.6,3.6-0.7C799.8,458.5,800.3,458.5,800.3,458.5L800.3,458.5z"
     id="path337" /><path
     d="M807.6,493.9c-0.8,0.5-1.7,0.9-2.7,1.1c-0.8,0.2-1.7,0.3-2.6,0.3c-0.8,0-1.5-0.1-2.3-0.3c-0.7-0.2-1.3-0.4-1.9-0.6  c-0.8-0.3-1.5-0.8-2.2-1.3c-0.6-0.4-1.1-0.9-1.5-1.4c-0.4-0.4-0.7-0.8-1-1.3c-0.2-0.4-0.5-0.8-0.7-1.1c-0.2-0.4-0.4-0.8-0.5-1.3  c-0.2-0.7-0.4-1.4-0.4-2.1c-0.1-0.9,0-1.9,0.3-2.8c0.2-0.6,0.5-1.2,0.8-1.7c0.3-0.5,0.7-1,1.1-1.5c0.4-0.4,0.8-0.8,1.3-1.2  c0.4-0.3,0.8-0.6,1.2-0.9c0.4-0.2,0.7-0.4,1.1-0.6c0.3-0.1,0.6-0.2,1-0.3c0.5-0.1,1-0.2,1.5-0.2c0.6,0,1.2,0,1.8,0.2  c0.7,0.1,1.3,0.3,1.9,0.6c0.8,0.4,1.5,0.8,2.1,1.4c0.6,0.5,1.2,1.1,1.7,1.7c0.4,0.5,0.8,1.1,1.1,1.6c0.3,0.5,0.5,0.9,0.7,1.2l0,0  c0.3,0.5,0.5,1,0.7,1.5c0.3,0.7,0.5,1.4,0.6,2.1c0.1,0.6,0.1,1.1,0.1,1.7c0,0.6-0.2,1.1-0.3,1.7c-0.2,0.7-0.5,1.3-0.9,1.8  c-0.3,0.5-0.8,1-1.2,1.4c-0.3,0.3-0.4,0.4-0.5,0.4l0,0l0,0c0.2,0,0.3-0.1,0.4-0.2c0.3-0.2,0.6-0.4,0.9-0.6c0.4-0.3,0.8-0.6,1.2-1  c0.4-0.5,0.8-1,1.2-1.5c0.3-0.6,0.6-1.2,0.7-1.9c0.1-0.7,0.2-1.4,0.2-2.1c0-0.8-0.1-1.6-0.3-2.3c-0.2-0.7-0.4-1.4-0.8-2.1  c-0.3-0.7-0.7-1.3-1.2-1.9c-0.8-0.9-1.7-1.8-2.7-2.5c-1-0.7-2-1.2-3.2-1.6c-0.8-0.3-1.6-0.4-2.4-0.5c-0.7,0-1.5,0-2.2,0.1  c-0.6,0.1-1.2,0.2-1.8,0.4c-0.5,0.2-1,0.4-1.4,0.5l-0.2,0.1c-1.6,0.7-3.1,1.9-4.2,3.3c-0.5,0.7-0.9,1.4-1.3,2.1  c-0.3,0.6-0.5,1.3-0.6,1.9c-0.1,0.7-0.1,1.3-0.1,2c0.1,1.3,0.5,2.5,1.1,3.6c0.4,0.7,0.8,1.3,1.3,1.9c0.4,0.4,0.8,0.8,1.3,1.2  c0.5,0.4,1.1,0.8,1.7,1.1c0.8,0.4,1.6,0.7,2.4,1c1.2,0.3,2.4,0.5,3.6,0.5c1.1,0,2.2-0.2,3.3-0.5c0.8-0.2,1.5-0.6,2.2-1  c0.3-0.2,0.5-0.3,0.8-0.5L807.6,493.9z"
     id="path339" /><path
     class="st31"
     d="M807.8,463.8c1,0.8,1.3,2.4,1.3,4c-0.1,2.5-1.5,4.4-3.5,4.3c-2.3-0.1-4.1-2.1-4.1-4.4c0.1-2.5,2.3-4.8,4.4-4.7  C806.6,463.1,807.2,463.3,807.8,463.8L807.8,463.8z"
     id="path341" /><path
     class="st31"
     d="M795.8,464c1.2,0.4,1.9,1.7,2.4,3.1c0.7,2.2,0.1,4.3-1.7,4.9c-2.1,0.6-4.2-0.5-4.9-2.5  c-0.7-2.2,0.5-4.9,2.3-5.5C794.5,463.8,795.1,463.8,795.8,464L795.8,464z"
     id="path343" /><path
     class="st31"
     d="M787.2,470.4c1.2,0.4,2.1,1.3,2.5,2.5c0.9,1.9,0.6,3.8-0.9,4.5c-1.7,0.8-3.8,0.1-4.7-1.6  c-0.9-1.9-0.1-4.4,1.4-5.2C786,470.4,786.6,470.3,787.2,470.4L787.2,470.4z"
     id="path345" /><path
     d="M791.3,456.7h0.1h0.1h0.2c0.2,0,0.3,0.1,0.5,0.1c0.3,0.2,0.6,0.4,0.9,0.8c0.1,0.1,0.1,0.2,0.2,0.3c0.1,0.2,0.3,0.5,0.3,0.8  c0.1,0.3,0.1,0.6,0,0.8c0,0.2-0.2,0.5-0.3,0.6c-0.2,0.2-0.5,0.2-0.7,0.2c-0.3-0.1-0.6-0.2-0.9-0.5c-0.2-0.2-0.5-0.5-0.6-0.8  c-0.1-0.1-0.1-0.2-0.2-0.4c-0.2-0.4-0.2-0.8-0.2-1.2c0-0.2,0.1-0.3,0.2-0.5c0-0.1,0.1-0.1,0.2-0.2l0.1-0.1L791.3,456.7L791.3,456.7z  "
     id="path347" /><path
     class="st27"
     d="M831.1,459.4L831.1,459.4l0.3,0.3l0.4,0.4l0.4,0.4c0.1,0.1,0.1,0.1,0.2,0.2c0,0.1,0.1,0.1,0.1,0.2l0.1,0.2  c0.1,0.1,0.2,0.2,0.3,0.3c0.3,0.2,0.5,0.5,0.7,0.7c0,0.1,0.1,0.1,0.1,0c0-0.1,0-0.2,0-0.3c-0.1-0.3-0.2-0.6-0.4-0.9  c0-0.1-0.1-0.2-0.1-0.4c-0.1-0.1-0.2-0.3-0.3-0.4l0,0c-0.1-0.1-0.2-0.1-0.3-0.2l-0.5-0.2c-0.3-0.1-0.5-0.3-0.8-0.5l-0.2-0.1  l-0.1-0.1H831c0,0,0,0-0.1,0c0,0,0,0,0,0.1c0,0,0,0.1,0,0.1C831,459.2,831,459.3,831.1,459.4L831.1,459.4z"
     id="path349" /><path
     d="M831.2,459.2L831.2,459.2c0.3,0.3,0.6,0.6,0.8,0.9c0.2,0.2,0.4,0.5,0.6,0.7c0.1,0.1,0.2,0.2,0.4,0.3s0.3,0.3,0.4,0.4  c0.1,0.1,0.2,0.3,0.3,0.4c0,0.1,0.1,0.1,0.1,0c0-0.1,0-0.2,0-0.3c0-0.2-0.1-0.3-0.1-0.5c-0.1-0.2-0.2-0.3-0.3-0.5  c-0.1-0.2-0.3-0.5-0.5-0.6l-0.5-0.4c-0.4-0.3-0.7-0.5-1-0.7l-0.2-0.1l-0.1-0.1H831l0,0c0,0,0,0,0,0l0,0c0,0,0,0.1,0,0.1  C831,459,831.1,459.1,831.2,459.2L831.2,459.2z"
     id="path351" /><path
     d="M831.2,461.8L831.2,461.8c0.1-0.1,0.5-0.4,0.9-0.7c0.3-0.2,0.5-0.4,0.7-0.6l0.4-0.6c0.2-0.3,0.4-0.5,0.5-0.8s0-0.1-0.1-0.1  c-0.2,0.1-0.3,0.2-0.5,0.3c-0.2,0.1-0.4,0.3-0.6,0.4c-0.2,0.1-0.3,0.3-0.5,0.5l-0.4,0.5c-0.2,0.3-0.4,0.6-0.7,0.9l-0.1,0.1  c0,0-0.1,0.1-0.1,0.1c0,0,0,0.1,0,0.1l0,0l0,0l0,0h0.1C831,461.9,831.1,461.8,831.2,461.8L831.2,461.8z"
     id="path353" /></svg>