<?xml version="1.0" encoding="utf-8"?>
<!-- Generator: Adobe Illustrator 20.0.0, SVG Export Plug-In . SVG Version: 6.00 Build 0)  -->
<svg version="1.1"
	 id="svg16054" inkscape:version="0.91 r13725" sodipodi:docname="quiz3.svg" xmlns:cc="http://creativecommons.org/ns#" xmlns:dc="http://purl.org/dc/elements/1.1/" xmlns:inkscape="http://www.inkscape.org/namespaces/inkscape" xmlns:rdf="http://www.w3.org/1999/02/22-rdf-syntax-ns#" xmlns:sodipodi="http://sodipodi.sourceforge.net/DTD/sodipodi-0.dtd" xmlns:svg="http://www.w3.org/2000/svg"
	 xmlns="http://www.w3.org/2000/svg" xmlns:xlink="http://www.w3.org/1999/xlink" x="0px" y="0px" viewBox="0 0 1700.8 949.6"
	 style="enable-background:new 0 0 1700.8 949.6;" xml:space="preserve">
<style type="text/css">
	.st0{fill:#FFFFFF;}
	.st1{fill:#6B3C1F;stroke:#000000;}
	.st2{fill:#6B3C1F;stroke:#000000;stroke-linejoin:round;}
	.st3{fill:url(#SVGID_1_);stroke:#000000;}
	.st4{fill:#8D5027;stroke:#000000;}
	.st5{fill:url(#SVGID_2_);stroke:#000000;}
	.st6{fill:url(#SVGID_3_);stroke:#000000;}
	.st7{fill:url(#SVGID_4_);stroke:#000000;}
	.st8{fill:#D28C5F;stroke:#000000;}
	.st9{fill:url(#SVGID_5_);stroke:#000000;}
	.st10{fill:url(#SVGID_6_);stroke:#000000;}
	.st11{fill:url(#SVGID_7_);stroke:#000000;}
	.st12{fill:url(#SVGID_8_);stroke:#000000;}
	.st13{fill:url(#SVGID_9_);stroke:#000000;stroke-width:1.02;}
	.st14{fill:url(#SVGID_10_);stroke:#000000;}
	.st15{fill:#855B3E;}
	.st16{fill:none;stroke:#000000;stroke-width:1.02;}
	.st17{fill:#A05B2B;stroke:#000000;stroke-width:1.02;}
	.st18{fill:#6C5353;stroke:#000000;stroke-width:1.02;}
	.st19{fill:#906F6F;stroke:#000000;stroke-width:1.02;}
	.st20{fill:none;stroke:#000000;}
	.st21{fill:url(#SVGID_11_);}
	.st22{fill:#A06121;}
	.st23{fill:#B8854F;}
	.st24{fill:#834317;stroke:#000000;stroke-width:1.67;}
	.st25{fill:#834317;stroke:#000000;stroke-width:3.36;}
	.st26{fill:#834317;stroke:#000000;stroke-width:3.78;}
	.st27{fill:#834317;stroke:#000000;stroke-width:2.63;}
	.st28{fill:#834317;}
	.st29{fill:#956C45;stroke:#000000;stroke-width:2.83;}
	.st30{fill:#6E4A25;}
	.st31{fill:#5D381E;}
	.st32{fill:#DDCEBE;}
	.st33{fill:none;stroke:#000000;stroke-width:5;}
	.st34{fill:none;stroke:#000000;stroke-width:4;}
	.st35{stroke:#000000;stroke-width:5;}
	.st36{fill:#956C45;stroke:#000000;stroke-width:3;}
	.st37{fill:#834317;stroke:#000000;stroke-width:1.99;}
</style>
<defs>
	
	<inkscape:path-effect  effect="spiro" id="path-effect5341" is_visible="true"></inkscape:path-effect>
	<inkscape:path-effect  effect="spiro" id="path-effect17606" is_visible="true"></inkscape:path-effect>
	<inkscape:path-effect  effect="spiro" id="path-effect16830" is_visible="true"></inkscape:path-effect>
	<inkscape:path-effect  effect="spiro" id="path-effect16826" is_visible="true"></inkscape:path-effect>
	<inkscape:path-effect  effect="spiro" id="path-effect16822" is_visible="true"></inkscape:path-effect>
	<inkscape:path-effect  effect="spiro" id="path-effect16818" is_visible="true"></inkscape:path-effect>
	<inkscape:path-effect  effect="spiro" id="path-effect16814" is_visible="true"></inkscape:path-effect>
	<inkscape:path-effect  effect="spiro" id="path-effect16810" is_visible="true"></inkscape:path-effect>
	<inkscape:path-effect  effect="spiro" id="path-effect16806" is_visible="true"></inkscape:path-effect>
	<inkscape:path-effect  effect="spiro" id="path-effect16802" is_visible="true"></inkscape:path-effect>
	<inkscape:path-effect  effect="spiro" id="path-effect16798" is_visible="true"></inkscape:path-effect>
	<inkscape:path-effect  effect="spiro" id="path-effect16794" is_visible="true"></inkscape:path-effect>
	<inkscape:path-effect  effect="spiro" id="path-effect16790" is_visible="true"></inkscape:path-effect>
	<inkscape:path-effect  effect="spiro" id="path-effect16786" is_visible="true"></inkscape:path-effect>
	<inkscape:path-effect  effect="spiro" id="path-effect16782" is_visible="true"></inkscape:path-effect>
	<inkscape:path-effect  effect="spiro" id="path-effect16778" is_visible="true"></inkscape:path-effect>
	<inkscape:path-effect  effect="spiro" id="path-effect16774" is_visible="true"></inkscape:path-effect>
</defs>
<sodipodi:namedview  bordercolor="#666666" borderlayer="true" borderopacity="1.0" fit-margin-bottom="0" fit-margin-left="0" fit-margin-right="0" fit-margin-top="0" id="base" inkscape:current-layer="layer3" inkscape:cx="217.58924" inkscape:cy="334.05534" inkscape:document-units="cm" inkscape:pageopacity="0.0" inkscape:pageshadow="2" inkscape:window-height="1056" inkscape:window-maximized="1" inkscape:window-width="1855" inkscape:window-x="1985" inkscape:window-y="24" inkscape:zoom="0.35" pagecolor="#ffffff" showgrid="false" units="cm">
	</sodipodi:namedview>
<g id="layer2" inkscape:groupmode="layer" inkscape:label="background">
	<rect id="rect4177" y="-3.5" class="st0" width="1716.6" height="953.1"/>
</g>
<g>
	<g id="layer1">
		
			<image style="overflow:visible;opacity:0.75;enable-background:new    ;" width="308" height="503" xlink:href="775E4199.png"  transform="matrix(0.9968 0 0 0.998 715.62 213)">
		</image>
		<g id="g4249">
			<polygon class="st1" points="941.9,471.1 938.7,476.9 948.6,562.2 955.9,606.6 963.3,642.5 973.3,642.1 973.1,631.4 965.5,566.2 
				956.2,506.4 949.5,471.1 			"/>
			<polygon class="st2" points="815.6,622.4 827.4,623.3 832.9,558.7 837.3,513.9 838,483.6 824.7,483.6 819,551.8 816.5,604.2 			
				"/>
			<g id="g8412">
				
					<linearGradient id="SVGID_1_" gradientUnits="userSpaceOnUse" x1="1285.8522" y1="775.307" x2="1382.0522" y2="744.457" gradientTransform="matrix(1 0 0 1 -562.26 -192.22)">
					<stop  offset="0" style="stop-color:#8D5027"/>
					<stop  offset="1" style="stop-color:#6B3C1F"/>
				</linearGradient>
				<path class="st3" d="M739.7,583.9l88.7-28.9c0.8-1.7,0.9-3.7,0.4-5.5c-1-2.9-4.6-2.9-4.6-2.9l-37.5,10.3l-49.2,18L739.7,583.9z"
					/>
				<path class="st4" d="M792.1,557.9c0,0,45.7,2.6,68.6,4.6s72.8,9.5,72.8,9.5l-3.5,3.3l0.9,4.2c0,0-45.8-2.5-69-4.5
					s-70.5-9-70.5-9c-0.8-1.2-1.3-2.7-1.4-4.1C790,559.8,792.2,557.9,792.1,557.9L792.1,557.9z"/>
				
					<linearGradient id="SVGID_2_" gradientUnits="userSpaceOnUse" x1="1274.1635" y1="782.5859" x2="1345.4835" y2="740.0959" gradientTransform="matrix(1 0 0 1 -387.72 -177.79)">
					<stop  offset="0" style="stop-color:#C28156"/>
					<stop  offset="1" style="stop-color:#6B3C1F"/>
				</linearGradient>
				<path class="st5" d="M910.8,596.7l48.5-30.9c0.8-1.7,0.9-3.7,0.4-5.5c-1-2.9-4.6-2.9-4.6-2.9c-9.2,5.9-12.2,7.8-20,12.5
					s-26.8,15.7-26.8,15.7L910.8,596.7z"/>
			</g>
			
				<linearGradient id="SVGID_3_" gradientUnits="userSpaceOnUse" x1="1279.1405" y1="763.8557" x2="1305.9905" y2="767.0857" gradientTransform="matrix(1 0 0 1 -562.26 -192.22)">
				<stop  offset="0" style="stop-color:#492A16"/>
				<stop  offset="0.49" style="stop-color:#D28C5F"/>
				<stop  offset="1" style="stop-color:#593219"/>
			</linearGradient>
			<polyline class="st6" points="726.8,673.6 716.8,672.5 725.2,571.1 737,474.1 750.2,474.7 747,538.5 739.5,599.1 730.6,671.7 			
				"/>
			
				<linearGradient id="SVGID_4_" gradientUnits="userSpaceOnUse" x1="1459.1302" y1="783.3743" x2="1486.4003" y2="781.4443" gradientTransform="matrix(1 0 0 1 -562.26 -192.22)">
				<stop  offset="0" style="stop-color:#4F2D17"/>
				<stop  offset="0.49" style="stop-color:#D28C5F"/>
				<stop  offset="1" style="stop-color:#482914"/>
			</linearGradient>
			<polygon class="st7" points="924.5,696.1 911.8,696.4 901.5,607.1 897.3,521.5 897.3,484.2 908.1,484.2 914.4,521.5 918.8,584 
				922.6,657.8 			"/>
			<g id="g8390">
				<path class="st8" d="M829.8,240.5c0,0,62.1,5,75.3,5.8s80.6-0.4,80.6-0.4l-6,34.6c0,0-67.3,0.6-75.3,0s-75.5-6.2-75.5-6.2
					l-0.6-34.1L829.8,240.5z"/>
				
					<linearGradient id="SVGID_5_" gradientUnits="userSpaceOnUse" x1="1415.7303" y1="553.0276" x2="1427.6504" y2="553.3475" gradientTransform="matrix(1 0 0 1 -562.26 -192.22)">
					<stop  offset="0" style="stop-color:#693B1D"/>
					<stop  offset="0.49" style="stop-color:#D28C5F"/>
					<stop  offset="1" style="stop-color:#563117"/>
				</linearGradient>
				<path class="st9" d="M853.8,444.2c0,0,1.3-76.5,1.3-88.9s3.8-79.4,3.8-79.4l4.9,0.5c0,0-1.2,82.5-1.2,97.3s-2,71.1-2,71.1
					c-1,0.5-2.2,0.8-3.3,0.9C856,445.5,854.9,445,853.8,444.2L853.8,444.2z"/>
				
					<linearGradient id="SVGID_6_" gradientUnits="userSpaceOnUse" x1="1439.8501" y1="555.1385" x2="1455.5702" y2="556.4285" gradientTransform="matrix(1 0 0 1 -562.26 -192.22)">
					<stop  offset="0" style="stop-color:#492A16"/>
					<stop  offset="0.49" style="stop-color:#D28C5F"/>
					<stop  offset="1" style="stop-color:#5B3319"/>
				</linearGradient>
				<path class="st10" d="M875.7,446.3c0,0,3.7-63,5.3-77.8s8.8-89.6,8.8-89.6l5,0.5l-0.3,3.5c0,0-4.5,87.2-6.6,111.1
					s-4.9,53.5-4.9,53.5c-1.4,0.4-2.8,0.6-4.3,0.5C877.6,447.6,876.6,447,875.7,446.3L875.7,446.3z"/>
				
					<linearGradient id="SVGID_7_" gradientUnits="userSpaceOnUse" x1="1467.7596" y1="556.1127" x2="1481.1296" y2="557.7228" gradientTransform="matrix(1 0 0 1 -562.26 -192.22)">
					<stop  offset="0" style="stop-color:#5D351A"/>
					<stop  offset="0.49" style="stop-color:#D28C5F"/>
					<stop  offset="1" style="stop-color:#673A1C"/>
				</linearGradient>
				<path class="st11" d="M902.1,449.6c-2.4-0.5-3-1.5-3-1.5s5.7-55.3,6.9-65.9s13.6-102.2,13.6-102.2l4.4,0.2
					c0,0-8.9,89.7-11.3,112.3s-6.6,56.4-6.6,56.4C905,449.6,903.5,449.9,902.1,449.6L902.1,449.6z"/>
				
					<linearGradient id="SVGID_8_" gradientUnits="userSpaceOnUse" x1="1495.0898" y1="557.0217" x2="1508.4598" y2="558.9317" gradientTransform="matrix(1 0 0 1 -562.26 -192.22)">
					<stop  offset="0" style="stop-color:#5D351A"/>
					<stop  offset="0.49" style="stop-color:#D28C5F"/>
					<stop  offset="1" style="stop-color:#5D351A"/>
				</linearGradient>
				<path class="st12" d="M926.3,452c-1.1-0.6-2.1-1.3-3.1-2.1c0,0,7.2-53,9.3-64.1s17-106.1,17-106.1l4.3-0.1
					c0,0-12.7,101.7-14.8,119.8s-7.7,52.1-7.7,52.1S927.7,452.7,926.3,452L926.3,452z"/>
				
					<linearGradient id="SVGID_9_" gradientUnits="userSpaceOnUse" x1="1528.146" y1="527.0381" x2="1544.606" y2="530.6982" gradientTransform="matrix(1 0 0 1 -562.26 -192.22)">
					<stop  offset="0" style="stop-color:#563117"/>
					<stop  offset="0.47" style="stop-color:#D28C5F"/>
					<stop  offset="1" style="stop-color:#4F2D17"/>
				</linearGradient>
				<path class="st13" d="M947,451.8c0,0,11.8-71.6,12-73s2.7-6.1,2.7-6.1c-0.8-1.4-1.2-2.9-1.1-4.5c0.2-1.4,1.1-2.6,2.3-3.2
					c0,0-2.1-6-0.9-10.5s13.8-55.9,14.3-58.6c0.5-2.7-0.4-6.9-0.2-8.3c0.1-0.8,0.8-1.4,1.6-1.4c0,0-1.4-2-1.2-3.3s2-2.3,2-2.3
					s1.7-12.1,2.7-18.1c1.1-6,4.8-18.4,4.8-18.4s-1.3-1-0.1-4.3s2.4-5.4,2.8-6.3s-0.7-3.4-0.7-3.4s-3.3-13,9.7-10.6
					c13.2,2.5,1.9,13.1,1.4,14.1c-1.9,3.6,1.6,3.7,0.9,9.6c-0.3,2.1-2.6,3.9-2.6,3.9l-1.7,18.3l-4.7,18c0,0,1.3,0.2,1,2.3
					c-0.2,1.1-0.7,2.2-1.5,3c0.1,1.1,0,2.2-0.3,3.3c-0.4,1.4-2.7,1.1-3,2.9s-9.5,62.7-10.1,64.9s-3.9,7.3-3.9,7.3
					c1.2,0.8,1.7,2.3,1.4,3.7c-0.3,1.6-1.1,3.1-2.3,4.2c0,0-1.5,17.6-2.2,21l-12.5,57.6c0,0-3.9,1-5.6,0.7s-5-2.5-5-2.5L947,451.8z"
					/>
				
					<linearGradient id="SVGID_10_" gradientUnits="userSpaceOnUse" x1="1376.488" y1="521.7886" x2="1395.8981" y2="522.4387" gradientTransform="matrix(1 0 0 1 -562.26 -192.22)">
					<stop  offset="0" style="stop-color:#4F2D17"/>
					<stop  offset="0.47" style="stop-color:#D28C5F"/>
					<stop  offset="1" style="stop-color:#4D2C16"/>
				</linearGradient>
				<path class="st14" d="M815.7,444.3c0,0,0.3-71.9,0.3-73.2s1.8-6.7,1.8-6.7s-2.7-1.3-2.2-3.6s3.1-4,3.1-4s-4.5-4.5-4-8.9
					s4.5-54,4.5-56.7c0-2.7-2.2-5.8-2.2-7.1s1.8-4,1.8-4s-2.2-1.9-2.2-3.1s1.9-2.4,1.9-2.4l0.8-35.5c0,0-2.7-0.7-2-4s3.8-6.3,4-7.1
					s-2.5-2-2.5-2s-6.9-13.2,6.5-12.1s4.8,12.3,4.5,13.4c-1.2,3.8,1.6,2.9,1.9,8.6c0.1,2-1.9,4.1-1.9,4.1v35.5c0,0,2.4,0.6,2.4,2.6
					c0,1.2-0.8,2.2-1.9,2.5c0.7,0.9,1.2,2,1.3,3.2c0,1.3-2.2,2-2.2,3.8s1.6,60.3,1.3,62.5s-2.7,7.6-2.7,7.6s2.5,1.6,2.5,4
					c-0.1,1.5-0.9,3-2.2,3.8c0,0,1.8,16.8,1.7,20.1c-0.3,7.4-3.3,58.7-3.3,58.7s-3.5,1.8-5.4,1.9S815.7,444.3,815.7,444.3
					L815.7,444.3z"/>
				<path class="st15" d="M829.6,272.9c0,0,66.3,6.4,76.1,6.4s72.9-0.5,72.9-0.5l-0.7,1.6c0,0-66.8,0.9-74.1,0.5s-74.3-6.2-74.3-6.2
					V272.9z"/>
				<path class="st16" d="M988.7,230.9c3.6-0.5,7.2,0.1,10.5,1.6"/>
				<path class="st16" d="M985.9,243.4c0,0,8.3-0.5,12.1,2.8"/>
				<path class="st16" d="M977.7,285.8c0,0,5.4-1.4,12.5,2.2"/>
				<path class="st17" d="M976.4,291.5c0,0,7.3-2,11.8,1.7"/>
				<path class="st18" d="M963.2,364.8c0,0,8.1-0.4,10.9,1.9"/>
				<path class="st19" d="M961.9,372.5c0,0,6.1-0.3,10.7,2.5"/>
				<path class="st20" d="M820.8,227.1c0,0,3.2-1.5,8.5,0.1"/>
				<path class="st20" d="M818.9,238.8c0,0,6.8-2,11,0.4"/>
				<path class="st20" d="M818.7,279.7c0,0,4.2-1.7,11.8,0.4"/>
				<path class="st20" d="M817.5,285.2c0,0,7.7-2.4,12.8,0.2"/>
				<path class="st20" d="M818.5,356.7c0,0,5.8-1.2,8.9,0.5"/>
				<path class="st20" d="M817.8,364.4c0,0,5.9-1.5,10.9,0.3"/>
			</g>
			<g id="g8423">
				<path class="st8" d="M728.1,456.1v16.1c5.1,1.8,10.4,3.1,15.8,4.1c6.6,1,86.8,10.7,90,10.7s48.6,0.6,53,0.6s24.3-1.6,28.1-1.6
					s49.3-16.7,49.3-16.7l0.3-4.1l-0.6-12.6l-4.1-1.6l-115.5-8.2l-12.3-1l-20.5,0.6l-52.4,7l-26.8,4.7L728.1,456.1z"/>
				<path class="st20" d="M728.4,456.4c0,0,27.1,8.2,36.3,8.2s79.2,6.6,84.6,6.6s59.7,0.3,59.7,0.3s7-0.6,12-1s39.8-13.2,41.7-14.8
					s1.2-2.9,1.2-2.9"/>
				
					<linearGradient id="SVGID_11_" gradientUnits="userSpaceOnUse" x1="1516.9264" y1="656.9288" x2="1469.4865" y2="672.0288" gradientTransform="matrix(1 0 0 1 -562.26 -192.22)">
					<stop  offset="0" style="stop-color:#8F5228"/>
					<stop  offset="1" style="stop-color:#D28C5F"/>
				</linearGradient>
				<path class="st21" d="M904.9,471.8l0.7,14.1l11.1-0.4l24.5-8.2l22.8-8.3l0.3-6.4l-0.5-7.1l-18.9,7.8c0,0-19.3,6.8-25.1,7.7
					C914.8,471.7,909.8,471.9,904.9,471.8L904.9,471.8z"/>
			</g>
		</g>
	</g>
	
		<image style="overflow:visible;opacity:0.75;enable-background:new    ;" width="182" height="258" xlink:href="775E419B.png"  transform="matrix(0.9945 0 0 0.9961 681.62 479)">
	</image>
	<g id="g5420">
		<path d="M804.8,631c0,0.2,0,0.4,0.1,0.5c0.1,0.2,0.3,0.3,0.5,0.4c0.3,0.1,0.6,0.2,0.9,0.2c0.3,0,0.7,0,1,0
			c0.8-0.1,1.6-0.3,2.3-0.5c0.2-0.1,0.5-0.2,0.7-0.3c0.8-0.4,1.6-0.9,2.2-1.6c0.2-0.3,0.4-0.5,0.5-0.9c0-0.1,0.1-0.3,0.1-0.4
			c0-0.1,0-0.1,0-0.2l0,0l-0.1-0.2l0,0l0,0l0,0l-0.1-0.1l-0.1-0.1c-0.1-0.1-0.2-0.2-0.3-0.2c-0.3-0.1-0.7-0.2-1-0.2
			c-0.9,0-1.7,0.2-2.6,0.5l-0.6,0.2c-0.7,0.3-1.3,0.6-1.9,0.9c-0.3,0.1-0.5,0.3-0.7,0.5c-0.2,0.1-0.3,0.3-0.5,0.5
			c-0.1,0.1-0.2,0.3-0.3,0.5C804.9,630.6,804.8,630.8,804.8,631L804.8,631z"/>
		<path d="M804.4,625.3c0,0.2,0,0.4,0.1,0.5c0.1,0.2,0.2,0.3,0.4,0.5c0.4,0.3,0.9,0.5,1.4,0.6c0.6,0.1,1.2,0.1,1.7,0.1
			c0.2,0,0.4-0.1,0.6-0.1c1.5-0.4,2.6-1.3,2.4-2.2l0,0c-0.2-0.9-1.4-1.5-3-1.4h-0.6c-0.5,0.1-1,0.2-1.5,0.4
			c-0.4,0.1-0.8,0.4-1.1,0.7c-0.1,0.1-0.2,0.3-0.3,0.4C804.4,624.9,804.3,625.1,804.4,625.3L804.4,625.3z"/>
		<path d="M805.2,639.2c-0.1,0.5,0.1,1.1,0.5,1.5c0.5,0.5,1.2,0.8,1.9,0.9c0.5,0.1,1,0,1.5-0.1c0.4-0.1,0.8-0.3,1.1-0.7
			c0.1-0.1,0.2-0.3,0.3-0.5c0-0.1,0.1-0.3,0.1-0.5l0,0l0,0c0-0.2-0.1-0.3-0.1-0.5c-0.1-0.2-0.1-0.3-0.2-0.4
			c-0.2-0.3-0.5-0.6-0.9-0.7c-0.4-0.2-0.8-0.3-1.2-0.4c-0.6-0.1-1.3,0-1.8,0.2C805.7,638.3,805.3,638.7,805.2,639.2L805.2,639.2z"/>
		<path class="st22" d="M749.3,600.6c1.6-1,2.8-0.5,4.4-0.3c1.6,0.2,3.3,2.2,4,2.4h0.3c4,4.1,9,7.1,14.5,8.9
			c14.4,4.9,25.2,0.7,36,14c2,2.5,0.3,12.1-2.7,16.9c-3.7,6-13.4,6.5-22.5,3.2c-11.5-4.1-26.4-17.1-33-25.9
			c-0.2-0.6-0.4-1.1-0.8-1.5c-0.8-1.1-1.5-2.4-2-3.7c-0.6-1.4-2-4.7-2.1-6.2c0-1.6,0.3-3.3,0.9-4.8
			C746.9,602.2,747.8,601.6,749.3,600.6L749.3,600.6z"/>
		<path class="st23" d="M745.5,606.7c0.5,1,1,2,1.5,3c0.7,1.3,1.4,2.5,2.2,3.8c0.8,1.3,1.7,2.5,2.7,3.7c0.8,1,1.8,2,2.8,3.1
			s3.2,2.5,4.4,3.8s2.6,2.6,4,3.8s2.9,2.5,4.4,3.8s3,2.4,4.6,3.6s3.2,2.2,4.7,3.2s3.1,1.9,4.7,2.6c1.5,0.8,3,1.4,4.5,2
			c1.1,0.4,2.3,0.8,3.4,1c1.1,0.3,2.3,0.5,3.4,0.7c1.1,0.2,2.2,0.3,3.3,0.3c1,0,2.1,0,3.1-0.1c1-0.1,1.9-0.3,2.9-0.6
			c0.9-0.2,1.7-0.6,2.6-1c0.4-0.2,0.7-0.5,1.1-0.7v0.1c-3.7,6-13.4,6.5-22.5,3.2c-11.5-4.1-26.4-17.1-33-25.9
			c-0.2-0.6-0.4-1.1-0.8-1.5c-0.8-1.1-1.5-2.4-2-3.7c-0.6-1.4-2-4.7-2.1-6.2C745.5,607.9,745.5,607.3,745.5,606.7L745.5,606.7z"/>
		<path d="M745.9,604.1c-0.1,1.3-0.2,2.5-0.4,3.7c0.3,2.1,1,4.2,2,6.1c1,1.8,2.1,3.5,3.3,5.1c1,1.4,2.1,2.7,3.1,3.8
			c1.1,1.2,2.1,2.3,3.1,3.3c2.7,2.6,5.5,5.1,8.5,7.4c3,2.4,6.2,4.5,9.5,6.4c2,1.2,3.7,2,5.3,2.8c1,0.5,2.3,1,3.8,1.6
			c1.9,0.7,3.9,1.3,5.9,1.7c2.3,0.5,4.6,0.6,6.9,0.4l0,0c1.8-0.1,3.5-0.6,5.1-1.3c1.4-0.7,2.6-1.7,3.5-3c0.8-1.3,1.5-2.6,2-4.1l0,0
			c0.6-1.6,1-3.2,1.4-4.8c0.1-0.5,0.2-0.9,0.2-1.3c0.2-1,0.2-2.1,0.1-3.1c0-0.6-0.1-1.1-0.3-1.6c-0.1-0.4-0.3-0.7-0.5-1
			c-1.1-1.3-2.3-2.5-3.6-3.6c-1.4-1.2-3-2.3-4.7-3.2l0,0c-1.3-0.7-2.7-1.2-4.1-1.7c-1.4-0.4-2.9-0.8-4.3-1c-1.6-0.3-3.3-0.5-4.8-0.7
			s-3.1-0.4-4.4-0.6c-1.6-0.2-3-0.5-4.3-0.7s-2.2-0.5-2.9-0.7c-0.9-0.3-2.1-0.6-3.4-1.1c-2.4-0.8-4.7-1.9-6.9-3.1
			c-1.5-0.8-2.9-1.8-4.1-2.9c-1-0.9-2-1.8-2.9-2.7l0,0c-1.1-1-2.3-1.9-3.5-2.7c-1-0.7-2.2-1-3.4-1c-0.8,0-1.7,0.3-2.3,0.8l-1.1,1.3
			c-0.8,1-1.3,1.4-1.3,1.3l0,0c-1.1-0.7-1.1-0.7,0,0l0,0c-0.1-0.1,0.6-1.2,1.9-3.2c0.4-0.3,0.8-0.6,1.2-0.8c0.5-0.3,1-0.5,1.6-0.6
			c0.7-0.1,1.4-0.1,2.1,0.1c0.8,0.2,1.5,0.4,2.2,0.8c1.4,0.7,2.7,1.6,4,2.6c1,0.8,2,1.7,3.1,2.4c1.2,0.9,2.5,1.7,3.9,2.3
			c2.2,1,4.4,1.8,6.7,2.5c3.3,1,6.4,1.7,9,2.2l1,0.2c3,0.6,6.1,1.1,9.3,1.9c3.1,0.7,6,1.9,8.8,3.5c1.7,1,3.2,2.2,4.7,3.6
			c1.3,1.2,2.5,2.6,3.6,4c0.3,0.4,0.5,0.9,0.6,1.4c0.2,0.6,0.2,1.2,0.3,1.8c0,1.6-0.1,3.1-0.3,4.6c-0.1,0.6-0.2,1.2-0.3,1.7
			c-0.2,1.1-0.5,2.3-0.8,3.4c-0.5,1.6-1.1,3.1-1.9,4.5l0,0c-0.5,0.8-1,1.5-1.7,2.1c-0.7,0.7-1.5,1.3-2.3,1.7c-1.8,1-3.7,1.6-5.7,1.8
			c-2.3,0.3-4.7,0.3-7.1,0c-2.4-0.3-4.7-0.9-6.9-1.6l0,0c-3.4-1.2-6.6-2.7-9.6-4.6c-2.5-1.5-4.9-3.2-7.1-5c-0.7-0.6-1.5-1.3-2.3-2
			c-2.9-2.6-5.6-5.3-8.1-8.1l0,0c-2.2-2.4-4.2-4.9-6-7.6c-0.7-1.1-1.4-2.2-2-3.3c-0.6-1-1.1-2.1-1.5-3.1c-0.4-0.9-0.7-1.9-0.9-2.9
			c-0.2-0.8-0.3-1.6-0.4-2.5c0.3-2.3,0.5-3.8,0.5-3.8L745.9,604.1z"/>
		<path class="st24" d="M800.2,632.8c-0.1,1.4-1.2,2.5-2.6,2.4c-0.3-0.1-0.7,0.2-0.7,0.5c0,0,0,0,0,0c-0.1,1.9-1.7,3.3-3.5,3.2
			c0,0,0,0,0,0c-1.9-0.1-3.9-1.8-3.2-3.5c1.2-2.9,0.7-4.2,0.3-6.6c-0.2-1.8,1.7-3.3,3.5-3.2c1.8,0.1,3.3,1.7,3.2,3.5c0,0,0,0,0,0
			c0,0.4-0.1,0.7,0.6,0.9C799.3,630.2,800.3,631.4,800.2,632.8L800.2,632.8z"/>
		
			<ellipse transform="matrix(5.285881e-02 -0.9986 0.9986 5.285881e-02 121.8448 1403.7405)" class="st25" cx="800.9" cy="637.6" rx="2.1" ry="2.1"/>
		
			<ellipse transform="matrix(5.285881e-02 -0.9986 0.9986 5.285881e-02 130.5612 1400.458)" class="st26" cx="803.6" cy="631.4" rx="1.9" ry="1.9"/>
		
			<ellipse transform="matrix(5.285881e-02 -0.9986 0.9986 5.285881e-02 132.5648 1392.0027)" class="st27" cx="800.1" cy="626.1" rx="2.1" ry="2.1"/>
	</g>
	<path class="st22" d="M803.9,655c0,0-4.1,9-4.5,13.7s4.9,12,5.6,14.8s7.5,12.9,7.5,12.9l-18-0.2l-8.8-33l2.1-9.4
		c1.1-0.1,2.3-0.3,3.4-0.6c2.3-0.6,7.5-0.2,9,0.6C801.4,654.4,802.7,654.8,803.9,655L803.9,655z"/>
	<path d="M816.4,697.6c-1.3,0-2.5,0-3.8,0.1c-1,0.1-2,0.3-3,0.5c-0.3,0.1-0.6,0.1-0.9,0.2c-0.5,0-0.9,0-1.4-0.1
		c-1-0.2-2.3-0.5-3.5-0.8s-2.4-0.7-3.1-0.9c0,0,0.9-0.2,2.3-0.4s3-0.3,4.5-0.4c0.8-0.1,1.5-0.2,2.1-0.2c0.4,0,0.8,0,1.1,0.1l1.9,0.7
		C814.4,696.9,816.5,697.7,816.4,697.6L816.4,697.6z"/>
	<path class="st22" d="M820.8,648.4c-11.7-1.8-21.9,10.1-21.6,24.3c0.3,14.8,11.8,26.9,21.3,25.1c6.7-1.2,13.5-2.9,16-11.9
		c1-4.6,1.3-9.3,1-14C836.2,658.3,829.9,649.8,820.8,648.4L820.8,648.4z"/>
	<path d="M807.8,691.8c0.7,1.1,1.5,2.1,2.4,2.9c0.8,0.8,1.8,1.4,2.9,1.8c1.5,0.6,3.1,0.8,4.7,0.8c2.1-0.1,4.1-0.4,6.1-0.9
		c1.6-0.4,3.1-1.1,4.5-1.9c0.8-0.5,1.6-1.1,2.3-1.7c0.6-0.6,1.1-1.2,1.6-1.8c0.6-0.9,1.2-1.8,1.6-2.8c0.4-0.8,0.7-1.6,0.9-2.5
		c0.1-0.4,0.2-0.9,0.3-1.3s0.2-0.8,0.3-1.4c0.2-1,0.3-2.2,0.5-3.6c0.3-2.3,0.4-4.7,0.3-7c-0.1-1.5-0.3-3.1-0.5-4.5
		c-0.2-1.4-0.6-2.8-0.9-4.1c-0.3-1.1-0.7-2.2-1.1-3.3c-0.4-0.9-0.7-1.7-1-2.2c-0.6-1.1-1.2-2.1-2-3c-0.7-0.9-1.6-1.8-2.5-2.5
		c-1-0.9-2.1-1.6-3.3-2.2c-1.1-0.5-2.2-0.9-3.3-1.2c-1.1-0.2-2.3-0.3-3.5-0.3c-1.3,0.1-2.5,0.3-3.8,0.7c-1,0.3-2,0.8-2.9,1.3
		c-0.9,0.5-1.6,1-2,1.3c-0.6,0.4-1.2,0.9-1.7,1.4c-0.7,0.7-1.4,1.4-2,2.1c-0.8,1-1.6,2.2-2.2,3.3c-0.7,1.3-1.3,2.6-1.8,4
		c-0.5,1.4-0.8,2.8-1.1,4.3c-0.2,1.3-0.4,2.7-0.4,4c0,0.4,0,0.8-0.1,1.3c0,0.2-0.1,0.1-0.2-0.2c-0.3-1.2-0.5-2.5-0.5-3.8
		c0-2.3,0.2-4.6,0.8-6.9c0.3-1.3,0.8-2.7,1.3-3.9c0.6-1.3,1.2-2.6,2-3.8l0,0c0.9-1.3,1.9-2.5,3-3.5c1-1,2.2-1.8,3.4-2.4
		c0.5-0.3,1-0.5,1.5-0.7c4.7-1.8,10-1.3,14.3,1.3c2.3,1.5,4.3,3.4,5.8,5.6c1.1,1.6,2.1,3.3,3,5c0.8,1.5,1.5,3.1,2.1,4.7
		c0.4,1.1,0.8,2.3,1.1,3.6s0.6,2.7,0.8,4.2c0.3,2.5,0.4,5,0.2,7.5c-0.1,1.3-0.2,2.6-0.4,3.8c-0.1,1.1-0.3,2.1-0.6,3.1
		c-0.4,1.2-0.8,2.3-1.4,3.4c-0.5,0.9-1.1,1.8-1.8,2.7c-0.5,0.6-1,1.1-1.6,1.6c-1,0.8-2.1,1.5-3.3,2.1c-1.7,0.8-3.6,1.4-5.5,1.7
		c-2,0.3-4.1,0.4-6.2,0.3c-1.7-0.1-3.4-0.5-4.9-1.2c-0.9-0.4-1.7-1-2.4-1.7c-0.6-0.5-1.1-1.1-1.5-1.8c-0.3-0.4-0.6-0.9-0.8-1.3
		C807.9,691.9,807.8,691.8,807.8,691.8L807.8,691.8z"/>
	<path class="st28" d="M833.1,692.7c-1.5,2.1-3.7,2.2-5.7,0.4c-3-2.8-4.7-9.8-3.7-15.5s4-10.1,7-7.3s4.9,11.6,3.9,17.3
		C834.5,689.3,833.9,691.1,833.1,692.7L833.1,692.7z"/>
	<path d="M833.8,692.7c-0.4,0.6-0.9,1-1.4,1.4c-0.5,0.4-1.2,0.6-1.8,0.8c-0.7,0.1-1.5,0-2.1-0.3c-0.6-0.2-1.1-0.6-1.6-1
		c-0.6-0.6-1.2-1.2-1.6-1.9c-0.4-0.6-0.8-1.2-1.1-1.9c-0.5-1-0.9-2.1-1.2-3.2c-0.3-0.9-0.5-1.8-0.7-2.8c-0.1-0.7-0.2-1.4-0.3-2.1
		c0-0.6,0-1.3,0-1.9c0.1-0.9,0.2-1.7,0.4-2.5c0.3-1.4,0.7-2.7,1.3-4c0.3-0.6,0.6-1.2,1-1.8c0.3-0.5,0.7-1,1.1-1.4
		c0.3-0.3,0.6-0.6,1-0.8c0.3-0.2,0.5-0.3,0.8-0.4c0.3-0.1,0.5-0.2,0.8-0.2c0.5-0.1,0.9,0,1.4,0.1c0.5,0.2,1,0.4,1.5,0.8
		c0.5,0.4,1,0.9,1.4,1.4c0.4,0.6,0.8,1.1,1.1,1.8c0.8,1.5,1.4,3,1.9,4.6c0.3,1,0.5,2,0.6,3c0,0.7,0.1,1.8,0,3.1
		c0,1.4-0.2,2.8-0.5,4.2c-0.2,0.7-0.5,1.5-0.8,2.2c-0.3,0.7-0.7,1.4-1.2,2c-0.1,0.2-0.3,0.4-0.5,0.5l0,0h-0.1
		c0.2-0.5,0.4-1.1,0.6-1.6c0.1-0.5,0.2-1,0.2-1.5c0-0.6,0-1.2-0.1-1.8c0-0.7-0.1-1.5-0.2-2.3s-0.2-1.5-0.3-2.3
		c-0.3-1.5-0.5-2.8-0.6-3.9c0-0.3,0-0.6-0.1-0.8c-0.1-1.5-0.4-3-0.8-4.4c-0.2-0.6-0.4-1.1-0.7-1.7c-0.2-0.5-0.5-1-0.9-1.4
		c-0.3-0.3-0.6-0.5-0.9-0.7c-0.3-0.1-0.6-0.2-0.9-0.2c-0.3,0-0.5,0.1-0.7,0.2c-0.2,0.1-0.4,0.3-0.5,0.4c-0.2,0.2-0.3,0.4-0.5,0.6
		c-0.3,0.4-0.5,0.7-0.7,1.2c-0.2,0.5-0.4,1-0.6,1.6c-0.4,1.3-0.6,2.6-0.7,4c-0.2,1.6-0.2,3.1,0,4.7c0.2,1.4,0.4,2.7,0.5,3.5v0.3
		c0.1,1,0.3,2,0.5,3c0.2,0.6,0.4,1.2,0.6,1.8c0.3,0.6,0.6,1.2,1,1.7l0,0c0.4,0.5,0.8,0.9,1.3,1.2c0.5,0.3,1.1,0.4,1.6,0.5
		c0.5,0,1-0.1,1.5-0.3c0.4-0.2,0.7-0.4,1-0.6c0.2-0.2,0.4-0.3,0.6-0.5l0.2-0.2L833.8,692.7z"/>
	<path class="st24" d="M816.6,658.1c1,1.6,1.6,3.5,1.9,5.3c0.6,3.2,0.3,5.5-1,5.2s-3.1-2.9-3.7-6.1s0.2-5.9,1.4-5.6
		C815.8,657.2,816.3,657.6,816.6,658.1L816.6,658.1z"/>
	<path class="st24" d="M821.3,653.8c0.8,0.4,1.6,1.9,2.4,3.7c1.2,2.7,1.5,5.3,0.7,6.1s-2.4-0.1-3.6-2.8s-1.4-6.1-0.6-6.9
		C820.5,653.6,821,653.6,821.3,653.8L821.3,653.8z"/>
	<path class="st24" d="M827.9,654.3c0.6,0.4,1.2,1.7,1.8,3.2c0.8,2.4,0.9,4.7,0.2,5.4s-2-0.1-2.8-2.4s-0.8-5.4,0-6.1
		C827.3,654.2,827.7,654.1,827.9,654.3L827.9,654.3z"/>
	<path d="M822.3,650.3l-1.5,0.2c-1.1,0.2-2.1,0.7-3.1,1.3c-0.7,0.5-1.4,1.1-1.9,1.8c-0.5,0.6-0.9,1.3-1.2,1.9
		c-0.4,0.8-0.6,1.6-0.8,2.5c-0.1,0.7-0.2,1.3-0.3,2c-0.1,1.2-0.1,2.1-0.1,2.9c0,0.1,0,0.1,0,0.2c0,1.1-0.2,2.8-0.3,4.8
		s-0.2,4-0.2,5.7c0,1.2,0,2.2,0,2.8c0.1,1.1,0.3,2.2,0.6,3.3c0.4,1.6,0.9,3.3,1.5,4.8c0.5,1.2,0.9,2.4,1.3,3.3s0.8,1.6,0.9,2.1
		c0.4,1.1,0.9,2.2,1.6,3.2c0.7,1,1.6,1.9,2.6,2.7c0.8,0.5,1.7,0.9,2.7,1.1c0.4,0.1,0.6,0.1,0.6,0.2s-0.2,0.2-0.5,0.3
		c-0.5,0.1-1,0.2-1.5,0.2c-0.7,0-1.5-0.2-2.2-0.4c-0.7-0.3-1.3-0.6-2-1c-0.7-0.4-1.3-0.9-1.8-1.5c-0.8-0.8-1.5-1.7-2.1-2.7
		c-0.5-0.8-0.9-1.7-1.1-2.6c-0.3-1.4-0.6-2.7-0.8-4.1c-0.3-2-0.4-4-0.6-5.6s-0.2-3.1-0.4-4c-0.1-0.4-0.2-1-0.3-1.8l0,0
		c-0.2-1.3-0.5-3-0.7-4.9s-0.3-3.9-0.3-5.8c0-1,0.1-2.1,0.2-3.1c0.1-0.8,0.3-1.5,0.6-2.3c0.4-1,1-2,1.6-2.9c0.6-0.8,1.2-1.5,1.9-2.1
		c0.7-0.6,1.5-1.1,2.4-1.5c0.6-0.3,1.3-0.5,1.9-0.6c0.5-0.1,1-0.2,1.6-0.2L822.3,650.3L822.3,650.3z"/>
	<path class="st22" d="M704.2,668.5c0,0-7.5-6.5-12-1.4s3.2,18.5,11.1,20.9s8.1-0.4,8.1-0.4"/>
	<path class="st22" d="M718.2,582.3c-14.1,24.5-14.9,64-14.7,79.8c0.1,11.7,9.4,33.5,25.3,38.3c6.3,1.9,38.4,18.1,46.1,14.7
		c12-5.2-0.8-34,3.8-36.6c15.2-8.6,7-34.7,4.3-44.5c-3.5-12.5-31.6-43.5-59.2-58"/>
	<path class="st29" d="M771.3,622.8c7,0.3,10.1,6.1,13.6,17.7c3.9,13.2,3.6,30.2-3.4,34.3s-15.6-1.2-19.5-14.4s-3.8-33.7,3.2-36.7
		C767.1,623.2,769.2,622.9,771.3,622.8L771.3,622.8z"/>
	<path d="M781,673.7c0.4-0.7,0.7-1.4,1-2.1c0.3-0.7,0.5-1.5,0.7-2.2c0.2-0.9,0.3-1.8,0.2-2.7c-0.1-0.7-0.1-1.5-0.1-2.3
		s0-1.6-0.1-2.4c-0.1-1.6-0.2-3.2-0.4-4.8s-0.5-3.4-0.7-5.1c-0.3-1.9-0.7-3.9-1.1-5.8s-0.9-3.7-1.5-5.3c-0.7-2.2-1.5-4.4-2.5-6.5
		c-0.8-1.8-1.6-3.2-2.1-4c-0.7-1.3-1.5-2.5-2.4-3.6c-0.4-0.6-0.9-1.1-1.4-1.6c-0.6-0.5-1.2-1-1.8-1.5c-1.4-1-2.8-1.9-4.2-2.7
		c-1.2-0.7-2.5-1.4-3.7-2.1c-0.4-0.2-0.8-0.5-1.2-0.7c-0.1-0.1-0.3-0.2-0.4-0.3c-0.1-0.1-0.2-0.2-0.3-0.3l-3.4-6.8
		c-0.7-2.1-1.8-4.1-3-5.9l-0.3-0.5c-0.3-0.5-0.6-0.8-0.8-1.1L751,603l-0.1-0.1l0.1-0.2l0,0v-0.1l0,0v0.1l0,0l-0.1,0.2l0.1,0.1
		l0.4,0.4c0.4,0.5,0.9,1,1.2,1.5c0.6,0.8,1.1,1.6,1.6,2.5c0.6,1.1,1.2,2.2,1.6,3.4c1.1,2,2.3,4.3,3.5,6.7l0,0c0,0,0,0,0.1,0.1l0,0
		c0.1,0.1,0.2,0.2,0.4,0.2l0,0c0.4,0.2,0.8,0.5,1.2,0.7c1.2,0.7,2.5,1.3,3.8,2c1.5,0.8,3,1.7,4.3,2.7c1.3,0.9,2.5,2,3.5,3.2
		c2.2,2.9,4,6.1,5.4,9.4c0.7,1.6,1.3,3.3,1.8,5c1.1,3.7,1.9,7.5,2.4,11.3c0.5,3.3,0.8,6.7,1,10c0.1,1.6,0,3.2,0.1,4.6
		c0.1,0.9,0,1.8-0.2,2.7c-0.2,0.8-0.4,1.6-0.8,2.4c-0.4,0.9-0.8,1.7-1.3,2.5c-0.5,0.8-0.9,1.4-1.3,2l-0.2,0.2
		c-1.2,1.5-2.6,2.9-4,4.2c-0.1,0,1.1-1.5,3.9-4.6C780.1,675.2,780.6,674.4,781,673.7L781,673.7z"/>
	<path d="M757.7,619.1c0.6,0,1.1-0.1,1.7-0.2c0.8-0.1,1.5-0.2,1.9-0.3h0.2c0.4,0,0.9,0,1.3,0c0.5,0,1-0.1,1.5-0.3
		c0.2-0.1,0.2,0,0.1,0.1c-0.2,0.2-0.4,0.4-0.7,0.5c-0.4,0.2-0.8,0.4-1.2,0.5c-0.4,0.1-0.8,0.2-1.3,0.2H761c-0.7-0.1-1.4-0.2-2.1-0.2
		c-0.5-0.1-1-0.1-1.5,0c-0.3,0-0.5,0-0.5-0.1C757,619.2,757.2,619.1,757.7,619.1L757.7,619.1z"/>
	<path d="M756.4,616c0.4,0,0.8-0.1,1.2-0.3c0.4-0.1,0.8-0.2,1.2-0.3l0,0c0.6,0,1.2-0.1,1.9-0.2c0.3,0,0.1,0.2-0.3,0.5
		c-0.4,0.3-0.9,0.6-1.4,0.7c-0.1,0-0.3,0-0.4,0l-1.4-0.1c-0.3,0-0.7,0-1,0c-0.2,0-0.3-0.1-0.3-0.2S756,615.9,756.4,616L756.4,616z"
		/>
	<path d="M719.1,582.8c0,0-0.4,0.5-1,1.5s-1.5,2.4-2.4,4.2s-2,3.9-3.1,6.2s-2.1,4.8-3.1,7.4c-1.4,3.7-2.6,7.4-3.6,10.8
		s-1.7,6.4-2.2,8.6c-0.1,0.5-0.2,1.1-0.3,1.7c-0.4,2.3-0.9,5.4-1.2,8.9s-0.6,7.5-0.6,11.5l0,0c0,2.9,0,5.8,0.2,8.7s0.5,5.7,0.9,8.3
		l0,0c0.4,2.2,0.7,4.3,1.1,6.2c0.7,3.4,1.5,6.1,2,7.5l0.3,1.1c1,3.3,2.2,6.5,3.8,9.5l0,0c1.6,3.2,3.6,6.2,6.1,8.8
		c1.7,1.7,3.5,3.2,5.5,4.5c2.3,1.6,4.7,3.1,7.2,4.4c1.2,0.7,2.3,1.3,3.5,1.8c1.8,0.9,3.9,1.8,6.2,2.8c2.3,0.9,4.9,1.8,7.5,2.7
		c2.8,0.9,5.8,1.8,8.6,2.5s5.6,1.4,8.1,1.9s4.7,0.9,6.4,1.2c1.1,0.2,2,0.3,2.7,0.3c0.5,0,0.9,0,1.4,0c0.2,0,0.2-0.1,0-0.2
		s-0.8-0.2-1.7-0.5l-2.1-0.5c-2-0.5-4.1-1.1-6.2-1.8c-2.8-0.8-5.6-1.8-8.4-2.7s-5.4-1.9-7.8-2.9c-3.2-1.3-5.9-2.4-7.8-3.2
		c-1.6-0.8-5-2.1-9.1-4c-2.3-1.1-4.8-2.3-7.2-3.8c-2-1.1-3.8-2.5-5.5-3.9l0,0c-1.3-1.2-2.5-2.5-3.6-3.9c-1-1.3-1.9-2.7-2.7-4.1
		c-0.8-1.4-1.5-2.9-2.1-4.4c-0.5-1.3-0.9-2.3-1.1-3c-0.2-0.5-0.3-1.1-0.5-1.8c-0.3-1-0.6-2.3-0.9-3.8c-0.3-1.5-0.6-3.1-0.9-4.8
		c-0.3-1.9-0.5-4-0.7-6.1c-0.3-2.8-0.4-5.8-0.4-8.6c0-2.8,0-5.6,0.2-8c0.1-2.9,0.3-5.3,0.4-7c0.1-1.7,0.2-3.5,0.4-5.6
		s0.4-4.6,0.8-7.5c0.4-2.6,0.8-5.6,1.6-9.1c0.8-4.1,1.9-8.1,3.1-12l0,0c0.9-2.9,2-6,3.4-9.3C715.5,589.6,717.2,586.1,719.1,582.8z
		 M786.9,658.6c0,0,0-0.5,0.1-1.3s0.2-2.1,0.2-3.5s0.1-3.1,0-4.9c-0.1-1.8-0.2-3.7-0.5-5.5c-0.3-1.9-0.8-3.9-1.4-5.8
		c-0.5-1.7-1.1-3.2-1.5-4.3v-0.1c-0.3-0.9-0.7-1.7-1.2-2.5c-0.5-0.9-1.1-2-1.8-3.1l0,0c-1.3-2.1-3-4.5-4.8-6.7
		c-2.3-3-4.9-5.9-7.1-8.3s-4-4.2-4.9-5.1c-0.5-0.5-1.2-1.3-1.9-2.1c-1.8-2-4.2-4.7-6.9-7.6c-2.7-2.9-5.7-5.9-8.6-8.6
		c-0.4-0.4-0.8-0.7-1.3-1.1c-2.3-1.9-4.8-3.5-7.3-5c-2.6-1.5-5.3-2.9-8.1-4.1c-1.8-0.8-3.7-1.4-5.6-1.9c-0.5-0.1-0.8-0.1-0.8,0
		c0,0.1,0.4,0.3,1.1,0.7c1.5,0.8,3.1,1.7,4.8,2.7c1.7,1,3.4,2.1,5,3.2c3.2,2.2,5.9,4.4,7.5,5.7c0.4,0.3,0.9,0.8,1.6,1.3
		c1.2,0.9,2.7,2.1,4.4,3.4s3.5,2.8,5.3,4.3s3.5,3,4.9,4.4c1.5,1.4,2.7,2.6,3.4,3.4c0.3,0.3,0.5,0.5,0.6,0.7c0.9,1.1,3,3.6,5.2,6.5
		c1.1,1.5,2.3,3.1,3.5,4.6s2.2,3.1,3.2,4.5c1.2,1.8,2.3,3.3,3,4.3c0.5,0.7,1,1.5,1.6,2.3c0.5,0.7,1,1.4,1.5,2.3s1.1,1.8,1.7,2.9
		s1.3,2.5,2,4.1c0.8,1.7,1.4,3.5,1.9,5.3l0,0c0.6,2.2,1,4.4,1.2,6.6C786.9,653.1,787,655.9,786.9,658.6L786.9,658.6z"/>
	<g id="g4320">
		<path class="st22" d="M715.6,590.4c2-0.4,3,0.6,4.6,1.5s2.4,3.6,3,4.1l0.3,0.1c2.3,5.8,6.1,11,10.9,15.1
			c12.5,11,25.1,11.3,30.4,29.4c1,3.4-4.8,12.3-9.9,15.9c-6.3,4.5-16.3,0.9-24.1-6.3c-9.9-9-19.5-28.4-22.4-40.1
			c0.1-0.6,0-1.3-0.1-1.9c-0.4-1.5-0.5-3-0.5-4.6c0-1.6,0-5.6,0.5-7.1c0.7-1.7,1.6-3.2,2.9-4.5C712.4,591,713.6,590.8,715.6,590.4
			L715.6,590.4z"/>
		<path class="st23" d="M709.2,594.9c0,1.2,0.1,2.4,0.2,3.7c0.2,1.5,0.4,3.1,0.7,4.7c0.3,1.6,0.7,3.2,1.1,4.8
			c0.4,1.3,0.9,2.8,1.5,4.3s2.2,3.9,2.9,5.7s1.5,3.7,2.4,5.6s1.8,3.8,2.8,5.7s2,3.7,3.2,5.5c1.1,1.8,2.3,3.5,3.4,5.2
			c1.2,1.7,2.4,3.2,3.6,4.6c1.2,1.4,2.4,2.7,3.7,3.9c1,0.9,2,1.7,3,2.5c1,0.8,2.1,1.5,3.2,2.1c1,0.6,2.1,1.2,3.2,1.7
			c1,0.5,2.1,0.9,3.2,1.2c1,0.3,2.1,0.5,3.1,0.6c1,0.1,2,0.1,3,0.1c0.5-0.1,0.9-0.2,1.4-0.3h-0.1c-6.3,4.5-16.3,0.9-24.1-6.3
			c-9.9-9-19.4-28.4-22.4-40.1c0.1-0.6,0-1.3-0.1-1.9c-0.4-1.5-0.5-3-0.5-4.6c0-1.6,0-5.6,0.5-7.1
			C708.5,596,708.8,595.4,709.2,594.9L709.2,594.9z"/>
		<path d="M710.6,592.4l-1.9,3.6c-0.6,2.3-0.8,4.7-0.5,7.1c0.2,2.2,0.6,4.4,1.2,6.6c0.4,1.8,1,3.6,1.5,5.2c0.6,1.6,1.2,3.2,1.8,4.6
			c1.6,3.8,3.4,7.5,5.4,11.1c2,3.7,4.3,7.2,6.8,10.5c1.5,2,2.9,3.6,4.1,5c0.8,0.9,1.8,2,3.1,3.2c1.6,1.5,3.4,2.9,5.3,4.2
			c2.1,1.4,4.4,2.5,6.8,3.3c1.8,0.6,3.8,0.9,5.7,0.8c1.7-0.1,3.4-0.6,4.8-1.6c1.4-0.9,2.6-2.1,3.8-3.3c1.3-1.3,2.4-2.8,3.4-4.3
			c0.3-0.5,0.6-0.9,0.8-1.2s0.5-0.8,0.7-1.3c0.3-0.6,0.5-1.2,0.8-1.8c0.2-0.6,0.3-1.2,0.4-1.8c0.1-0.4,0-0.8-0.1-1.2
			c-0.6-1.8-1.3-3.5-2.1-5.2c-0.9-1.9-2.1-3.6-3.4-5.2l0,0c-1-1.2-2.2-2.4-3.4-3.4c-1.2-1-2.5-2-3.9-2.9l0,0c-1.5-1-3.1-1.9-4.6-2.8
			s-2.9-1.7-4.2-2.4c-1.5-0.9-2.9-1.8-4-2.5s-2-1.4-2.6-1.9c-0.8-0.7-1.8-1.5-3-2.5c-0.9-0.8-1.8-1.7-2.8-2.7c-1-1.1-2-2.2-2.9-3.3
			c-1.1-1.4-2.2-3-3-4.6c-0.7-1.3-1.2-2.7-1.8-3.9c-0.7-1.5-1.5-2.9-2.4-4.2c-0.7-1.2-1.8-2-3.1-2.5c-0.9-0.3-1.9-0.3-2.9-0.1
			c-0.6,0.1-1.1,0.3-1.6,0.6c-0.3,0.1-0.5,0.3-0.7,0.4c-0.7,0.5-1,0.6-1.1,0.6l0,0c-0.8-1-0.8-1,0,0l0,0c0-0.1,0.2-0.4,0.8-1
			c0.3-0.3,0.6-0.5,1-0.7c0.4-0.3,0.9-0.5,1.4-0.7c0.5-0.2,1-0.3,1.6-0.4c0.6-0.1,1.3,0,1.9,0.1c0.8,0.2,1.5,0.5,2.1,1
			c0.7,0.5,1.3,1.1,1.9,1.8c1.1,1.3,2.1,2.8,2.9,4.3c0.7,1.3,1.3,2.5,2.1,3.8c0.9,1.4,1.9,2.8,3,4c1.8,1.9,3.7,3.7,5.7,5.4
			c2.6,2.1,5.3,4.1,8.2,6l1,0.7c2.8,1.8,5.8,3.7,8.6,5.8l0,0c2.8,2,5.3,4.4,7.3,7.2c1.3,1.7,2.3,3.6,3.2,5.6c0.8,1.8,1.5,3.6,2,5.5
			c0.1,0.5,0.2,1.1,0.1,1.7c-0.1,0.7-0.3,1.4-0.5,2c-0.6,1.6-1.4,3.1-2.3,4.5c-0.4,0.6-0.7,1.1-1,1.6c-0.7,1.1-1.5,2.1-2.3,3.1
			c-1.1,1.4-2.4,2.6-3.8,3.7c-0.8,0.6-1.6,1.1-2.5,1.4c-1,0.4-2,0.6-3,0.7c-2.2,0.2-4.4,0-6.5-0.6c-2.5-0.7-4.9-1.7-7.1-3
			c-2.2-1.3-4.3-2.8-6.3-4.6c-2.9-2.6-5.5-5.5-7.7-8.7c-1.9-2.6-3.5-5.3-5-8.1c-0.5-0.9-1-1.9-1.5-3c-1.8-3.8-3.4-7.6-4.8-11.6l0,0
			c-1.2-3.3-2.1-6.7-2.8-10.2c-0.3-1.4-0.5-2.8-0.6-4.1c-0.1-1.3-0.2-2.5-0.2-3.8c0-1.1,0.1-2.2,0.3-3.3c0.1-0.9,0.4-1.8,0.7-2.7
			l2.1-3.6L710.6,592.4z"/>
		<path d="M758.8,644.4c-0.1,0.2-0.1,0.4-0.1,0.5c0.1,0.2,0.2,0.4,0.4,0.6c0.2,0.2,0.5,0.4,0.8,0.6c0.3,0.2,0.7,0.3,1,0.4
			c0.8,0.3,1.7,0.4,2.6,0.4h0.8c1,0,2-0.2,2.9-0.6c0.3-0.1,0.6-0.3,0.9-0.6c0.1-0.1,0.2-0.2,0.2-0.3c0-0.1,0-0.1,0.1-0.2
			c0-0.1,0-0.1,0-0.2s0,0,0,0l0,0l0,0c0,0,0-0.1,0-0.2l0,0c0-0.1,0-0.1-0.1-0.2c-0.1-0.1-0.2-0.2-0.3-0.3c-0.3-0.2-0.6-0.4-0.9-0.5
			c-0.9-0.3-1.8-0.5-2.8-0.6h-0.7c-0.8,0-1.6,0-2.3,0.1c-0.3,0-0.6,0.1-0.9,0.2c-0.2,0.1-0.5,0.2-0.7,0.3c-0.2,0.1-0.4,0.2-0.5,0.3
			c-0.1,0.1-0.3,0.2-0.4,0.4V644.4z"/>
		<path d="M760.8,638.5c-0.2,0.3-0.2,0.8,0,1.1c0.3,0.5,0.7,0.9,1.1,1.2c0.5,0.3,1.1,0.6,1.7,0.8c0.2,0.1,0.4,0.1,0.6,0.2
			c0.7,0.1,1.5,0.1,2.2-0.1c0.3-0.1,0.5-0.2,0.8-0.4c0.1-0.1,0.2-0.2,0.3-0.3c0-0.1,0.1-0.1,0.1-0.2v-0.2l0,0l0,0l0,0
			c0,0,0-0.1,0-0.2c0-0.1,0-0.1,0-0.2c0-0.1,0-0.2-0.1-0.4c-0.1-0.3-0.3-0.5-0.5-0.7c-0.5-0.5-1.2-0.9-1.8-1.1l-0.6-0.2
			c-0.5-0.2-1.1-0.2-1.7-0.3c-0.5,0-0.9,0-1.4,0.2c-0.3,0.1-0.7,0.3-0.9,0.6L760.8,638.5z"/>
		<path d="M755.7,652.9c-0.3,0.5-0.3,1.1-0.1,1.6c0.3,0.7,0.9,1.3,1.5,1.7c0.5,0.3,1,0.5,1.5,0.5c0.5,0.1,1,0,1.4-0.2
			c0.2-0.1,0.3-0.2,0.4-0.3c0.1-0.1,0.2-0.3,0.2-0.4l0,0l0,0l0,0c0-0.1,0.1-0.3,0.1-0.5c0-0.2,0-0.3-0.1-0.5c-0.1-0.4-0.3-0.7-0.6-1
			c-0.3-0.3-0.7-0.6-1-0.9c-0.6-0.4-1.2-0.6-1.9-0.6C756.7,652.3,756.1,652.5,755.7,652.9L755.7,652.9z"/>
	</g>
	<g id="g4380">
		<g id="g4181">
			<path class="st22" d="M759.6,529.7c0,0,5.4-2.9,6.1-4.1c0.7-1.2,6.4-10.6,6.5-15.7c0.1-5-0.1-11.8-3-16s-7.6-8.4-9.5-8.9
				s-6.9,2.9-7.8,4.4c-0.9,1.5-7.4,11.1-7.8,12S759.6,529.7,759.6,529.7L759.6,529.7z"/>
			<path class="st30" d="M759.5,485.1L759.5,485.1c2,0.4,6.8,4.7,9.6,8.9s3.1,11,3,16s-5.8,14.5-6.5,15.7s-6.1,4-6.1,4l-1.8-3.1
				c0.5-0.3,0.5-0.3,1.1-0.6s1.5-0.9,2-1.3c0.5-0.3,0.9-0.7,1.2-1.1c0.2-0.3,0.7-1.1,1.3-2.3s1.4-2.6,2.2-4.1
				c0.4-0.8,0.8-1.6,1.1-2.4s0.7-1.6,1-2.5c0.3-0.8,0.5-1.5,0.7-2.3c0.2-0.7,0.2-1.4,0.3-2.1c0-1.3,0-2.6,0-4
				c-0.1-1.4-0.2-2.9-0.4-4.3c-0.1-0.7-0.2-1.4-0.4-2.1s-0.3-1.4-0.5-2c-0.2-0.6-0.4-1.3-0.7-1.9c-0.3-0.6-0.6-1.1-1-1.7
				c-0.7-1.1-1.6-2.1-2.4-3.1c-0.9-1-1.8-1.9-2.7-2.8C760.3,485.6,760,485.4,759.5,485.1L759.5,485.1z"/>
			<path d="M743.3,502.5L743.3,502.5L743.3,502.5l0.1-0.1l0.3-0.5c0.3-0.7,0.7-1.3,1-2l0,0c1.2-2.4,2.3-4.4,3.3-6.1
				c0.9-1.4,1.7-2.7,2.5-3.8c0.8-1.1,1.5-2,2.2-2.8c0.8-0.9,1.7-1.8,2.6-2.5c0.8-0.7,1.8-1.2,2.8-1.5c0.3-0.1,0.5-0.1,0.8-0.1
				c0.5,0,0.9,0.1,1.4,0.2c0.6,0.2,1.1,0.5,1.6,0.8c0.7,0.4,1.3,0.9,1.9,1.5c0.6,0.6,1.2,1.3,1.8,2c0.6,0.8,1.2,1.6,1.8,2.5
				s1,1.7,1.5,2.5c0.9,1.6,1.5,3.1,1.8,3.8c0.2,0.5,0.5,1.2,1,2.2c0.3,0.8,0.6,1.6,0.8,2.4c0.2,1,0.4,2,0.5,3l0,0c0.1,1,0.1,2,0.1,3
				s0,2.1-0.1,3.1l0,0c-0.1,1.9-0.4,3.8-0.7,5.6c-0.2,0.9-0.3,1.7-0.5,2.4s-0.3,1.2-0.5,1.6l0,0c-0.6,1.5-1.4,3-2.5,4.2
				c-1,1.1-2.1,2.1-3.3,3c-1,0.8-2.1,1.4-3.2,2c-0.5,0.3-1,0.5-1.4,0.7c-0.2,0.1-0.4,0.2-0.7,0.2c-0.1,0-0.1-0.1,0.1-0.3
				s0.4-0.4,0.7-0.6l1.1-1c0.8-0.8,1.8-1.7,2.9-2.8c1-1.1,2-2.2,2.8-3.4c0.4-0.6,0.7-1.2,1.1-1.8c0.2-0.5,0.4-1.1,0.6-1.6
				c0.3-1,0.6-2,0.8-2.9l0.2-0.7c0.5-1.7,0.8-3.4,1.1-5.1c0.3-1.8,0.5-3.7,0.5-5.6l0,0c0-0.9-0.1-1.8-0.2-2.7
				c-0.1-0.8-0.3-1.6-0.6-2.3c-0.4-1.2-1-2.3-1.6-3.5c-0.3-0.6-0.9-1.6-1.7-2.8c-0.9-1.3-1.9-2.5-3-3.7c-1-1.1-2.1-2-3.4-2.7
				c-0.5-0.2-1-0.4-1.5-0.6c-0.5-0.1-0.9-0.1-1.4,0l0,0c-0.8,0.2-1.6,0.6-2.3,1.1c-0.6,0.4-1.1,0.8-1.6,1.1s-0.6,0.5-0.9,0.8
				c-0.8,0.7-1.6,1.5-2.4,2.3c-0.8,0.9-1.7,2-2.6,3.1c-1.4,1.9-2.8,4-3.7,5.5c-0.5,0.8-0.8,1.4-1.1,1.8l-0.3,0.5l0,0L743.3,502.5
				L743.3,502.5L743.3,502.5L743.3,502.5z"/>
			<path class="st28" d="M747,509.6c0,0,3.8,5.2,4.6,7.4s3.5,6,3.8,6c0.6-0.1,1.2-0.3,1.8-0.5c1.2-2,2.3-4.1,3.1-6.4
				c0.8-2.5,2.6-4.7,1.8-7.4c-0.8-2.8-1.6-7.6-3.6-7.8s-4.8-0.2-5.9,0.3c-1.1,0.5-2,1.3-2.9,2.1C749.3,503.9,746.1,508.4,747,509.6
				L747,509.6z"/>
			<path class="st31" d="M758.8,500.8c1.7,0.7,2.5,5,3.3,7.6c0.8,2.8-1.1,5-1.8,7.4c-0.8,2.2-1.9,4.3-3.1,6.4
				c-0.6,0.3-1.2,0.4-1.8,0.5c-0.4-0.4-0.8-0.8-1-1.3c0.3,0,0.6-0.1,0.9-0.2c0.4-0.1,0.8-0.3,0.8-0.3s0.6-1,1.3-2.3
				c0.3-0.6,0.7-1.3,1-2.1c0.3-0.6,0.6-1.3,0.8-2c0.2-0.6,0.4-1.2,0.7-1.8c0.3-0.6,0.5-1.2,0.8-1.8c0.1-0.3,0.2-0.6,0.3-0.9
				c0.1-0.3,0.1-0.6,0.2-0.9c0.1-0.7,0-1.4-0.2-2c-0.2-0.7-0.4-1.5-0.6-2.4s-0.5-1.7-0.7-2.5c-0.1-0.4-0.3-0.7-0.4-1.1
				C758.9,501.1,758.8,501,758.8,500.8L758.8,500.8z"/>
			<path d="M746.9,509.4c0.7,0.6,1.3,1.2,1.9,1.8c0.6,0.6,1,1.2,1.5,1.9s1,1.4,1.5,2.1c0.4,0.6,0.8,1.2,1.1,1.9
				c0.3,0.6,0.6,1.2,1,1.8c0.3,0.4,0.6,0.9,0.9,1.3c0.3,0.4,0.6,0.8,1,1.1c0.3,0.2,0.5,0.4,0.6,0.3c-0.1,0-0.2,0-0.3,0l0,0l0.2-0.2
				c0.3-0.3,0.6-0.6,0.8-1c0.4-0.5,0.7-1,1.1-1.7c0.4-0.6,0.8-1.3,1.2-2c0.5-0.9,0.9-1.7,1.2-2.5c0.3-0.8,0.6-1.5,0.8-2.1
				c0.1-0.3,0.2-0.5,0.2-0.7c0.1-0.5,0.2-1,0.2-1.5c0-0.6,0-1.2-0.1-1.7l0,0c-0.2-0.9-0.6-1.8-1.2-2.6c-0.5-0.8-1-1.4-1.7-2
				c-0.5-0.4-1-0.7-1.5-1c-0.4-0.2-0.8-0.4-1-0.5c-0.3-0.2-0.7-0.3-1.1-0.5c-0.3-0.1-0.5-0.1-0.8-0.1c-0.3,0-0.7,0.1-1,0.2
				c-0.7,0.3-1.4,0.6-2.1,1c-0.7,0.5-1.4,1-2,1.5c-0.3,0.2-0.4,0.3-0.5,0.2l0,0c-0.1-0.2,0.8-1.5,2-3c0.7-0.7,1.4-1.3,2.2-1.9
				c0.7-0.5,1.5-0.8,2.3-0.8c0.6,0,1.1,0.1,1.6,0.3c0.5,0.2,0.9,0.5,1.3,0.8c0.5,0.4,1,0.9,1.4,1.5c0.7,0.9,1.3,1.9,1.8,3
				c0.5,1.1,0.8,2.3,1,3.4c0.1,0.7,0.1,1.5,0,2.3c-0.1,0.8-0.3,1.6-0.5,2.5l-0.1,0.3c-0.1,0.5-0.3,1.2-0.5,2.1c-0.3,0.9-0.6,2-1,3
				c-0.6,1.5-1.3,3-2.1,4.5c-0.3,0.5-0.6,1-1,1.4c-0.1,0.2-0.3,0.3-0.5,0.5c-0.2,0.2-0.4,0.2-0.7,0.2c-0.5-0.1-1-0.4-1.3-0.8
				c-0.5-0.5-0.9-1-1.2-1.5c-0.2-0.3-0.4-0.6-0.5-0.9c-0.5-1-0.9-2-1.2-3c-0.2-0.7-0.5-1.3-0.8-1.9c-0.4-0.8-0.8-1.6-1.2-2.4
				c-0.4-0.8-0.7-1.2-1.1-1.8c-0.3-0.5-0.7-1-1-1.4C747.7,510.1,747.3,509.7,746.9,509.4L746.9,509.4z"/>
			<path d="M768.1,498.1L768.1,498.1L768.1,498.1h0.1h0.1c0.1,0,0.2,0,0.2,0c0.2-0.1,0.3-0.2,0.5-0.3c0.4-0.3,0.7-0.7,1-1.2
				c0.1-0.2,0.2-0.4,0.3-0.5s0.3-0.6,0.5-0.9c0.2-0.3,0.3-0.7,0.5-1.1c0.1-0.2,0.1-0.4,0.2-0.5c0.1-0.2,0.1-0.4,0.1-0.6
				c0-0.2,0-0.4-0.1-0.5c-0.1-0.2-0.2-0.3-0.4-0.4c-0.2-0.1-0.5-0.1-0.7-0.1c-0.3,0.1-0.6,0.2-0.8,0.4c-0.4,0.3-0.7,0.7-1,1.1
				c-0.2,0.3-0.3,0.6-0.4,0.9c-0.3,0.7-0.4,1.5-0.4,2.2c0,0.3,0,0.6,0.1,0.9c0,0.1,0.1,0.2,0.1,0.3l0,0l0.1,0.1l0,0h0L768.1,498.1z"
				/>
			<path d="M769.6,502c0.1,0.4,0.5,0.7,0.9,0.7c0.6,0,1.2-0.1,1.7-0.4l0.5-0.1c0.6-0.1,1.1-0.4,1.6-0.7c0.2-0.1,0.3-0.2,0.5-0.4
				c0.1-0.1,0.2-0.3,0.3-0.4c0.1-0.1,0.2-0.3,0.2-0.4c0.1-0.1,0.1-0.3,0.1-0.4c0-0.2,0-0.3,0-0.5c-0.1-0.2-0.2-0.3-0.3-0.4
				c-0.1-0.1-0.3-0.3-0.5-0.3c-0.2-0.1-0.4-0.1-0.6-0.2c-0.6-0.1-1.3,0-1.9,0.1l-0.5,0.2l0,0c-0.6,0.4-1.2,1-1.6,1.6
				C769.7,500.9,769.5,501.4,769.6,502L769.6,502z"/>
		</g>
		<path class="st22" d="M777.3,540.3c0,0-0.8-15.2-2.1-18.6s-5.4-14.4-8.8-17.6s-7.3-8.5-13.5-11.6s-23.8-6.2-27.8-6.2
			s-12.1,3-14.9,4.3s-9.4,10.1-12.8,14.5s-10.5,20.6-11.4,24s-3.8,17.6-3.2,22.7s1.7,13.9,4.7,18.2s13.1,13.3,16.9,14
			s32.4,11.8,40.7,9.1s23.4-17,24-20.7S777.1,545,777.3,540.3L777.3,540.3z"/>
		<path class="st31" d="M725.1,486.3c3.9,0,21.6,3,27.8,6.2s10.1,8.4,13.5,11.6s7.5,14.2,8.8,17.6s2.1,18.6,2.1,18.6
			c-0.2,4.7-7.7,28.3-8.3,32.1s-13.7,17.8-21.9,20.4c-1.7,0.5-3.3,0.5-6.8-0.8c2.4,0.2,3.7,0.6,5.1,0.2c8.3-2.6,21.3-16.1,21.8-19.9
			s8.1-27.4,8.3-32.1c0,0-0.8-15.2-2.1-18.6s-5.4-14.4-8.8-17.6s-7.3-8.5-13.5-11.6c-6-3.1-22.8-6-27.3-6.2L725.1,486.3L725.1,486.3
			z"/>
		<path d="M771,535.3c-0.2-0.1-0.4-0.2-0.7-0.2c-0.2,0-0.3,0-0.5,0c-0.1,0-0.3,0.1-0.4,0.1c-0.1,0-0.2,0.1-0.4,0.1
			c-0.2,0-0.5,0.1-0.7,0.2c-0.3,0.1-0.5,0.3-0.8,0.5c-0.1,0.1-0.2,0-0.1-0.1c0.1-0.2,0.1-0.4,0.3-0.6c0.1-0.3,0.3-0.5,0.6-0.7
			c0.2-0.2,0.5-0.3,0.8-0.3h0.2c0.4,0,0.8,0.1,1.2,0.4c0.3,0.2,0.6,0.4,0.8,0.4s0.2,0.2,0.2,0.3S771.2,535.5,771,535.3L771,535.3z"
			/>
		<path d="M769.9,532.5c-0.1-0.1-0.3-0.1-0.4-0.1c-0.1,0-0.3,0-0.4,0c0,0-0.1,0-0.1,0c-0.1,0-0.2,0-0.3,0c-0.2,0-0.3,0.1-0.5,0.1
			c-0.1,0-0.1,0-0.1-0.1c0-0.1,0.1-0.3,0.1-0.4c0.1-0.2,0.2-0.3,0.3-0.4c0.2-0.1,0.4-0.1,0.5-0.1h0c0.2,0.1,0.5,0.3,0.7,0.5
			c0.2,0.2,0.3,0.3,0.4,0.3c0.1,0,0.1,0.2,0,0.2c0,0.1-0.1,0.1-0.2,0.1C769.9,532.6,769.9,532.6,769.9,532.5L769.9,532.5z"/>
		<path d="M769.3,534c-0.2-1-0.5-2.7-1-4.8c-0.5-2.5-1.2-5.8-1.9-9.1c-0.4-2.1-0.9-4.2-1.3-6.3c-0.3-1.4-0.9-2.8-1.7-4.1
			c-0.9-1.6-2-3.2-3.1-4.7c-1.3-1.7-2.3-3-3-3.8l-0.6-0.7c-0.8-1-1.8-2.1-3.1-3.4c-0.8-0.8-1.7-1.5-2.7-2.2c-1-0.7-2.1-1.4-3.3-2
			c-2.3-1.3-4.7-2.5-7.1-3.5c-2-0.9-4-1.7-5.7-2.4l-0.6-0.2c-0.5-0.2-0.8-0.4-1-0.5c-0.1-0.1-0.3-0.2-0.4-0.3c0-0.2-0.1-0.3-0.1-0.5
			l0,0l0.1-0.1c0.1-0.1,0.1-0.1,0.1-0.1l-0.1,0.1l-0.1,0.1l0,0c0,0.1,0,0.3,0.1,0.4l0,0c0.1,0.1,0.3,0.2,0.4,0.2
			c0.4,0.1,0.9,0.4,1.6,0.6c1.4,0.5,3.5,1.3,5.8,2.2c2.5,1,4.9,2.1,7.3,3.3c2.2,1.1,4.3,2.5,6.2,4.2c1.1,1.1,2.2,2.2,3.2,3.4l0,0
			c1.3,1.5,2.5,3,3.6,4.6l0.1,0.1c1.1,1.5,2.1,3.1,3,4.8l0,0c0.8,1.3,1.3,2.8,1.6,4.3c0.3,2.1,0.7,4.3,1.1,6.3
			c0.6,3.3,1.2,6.4,1.7,9.2c0.6,3,1.1,5.5,1.5,7.3l0.2,0.9c0.2,1.1,0.4,2,0.5,2.6c0,0.3,0.1,0.6,0.1,0.7c0,0.1,0,0.1,0,0.2
			c0,0,0,0,0,0l0,0l0,0c0-0.1-0.1-0.1-0.1-0.2c0-0.2-0.1-0.4-0.2-0.7c-0.2-0.6-0.3-1.4-0.6-2.6C769.8,536.5,769.6,535.4,769.3,534
			L769.3,534z"/>
		<path class="st23" d="M725.2,486.3h0.6c-2.5,0.1-3.1,1.4-5.7,1.5c-5.7,0.2-17.5,12.8-20.4,17.3s-10.5,20.6-11.4,24
			s-3.8,17.6-3.2,22.7s1.7,13.9,4.7,18.2s13.1,13.3,16.9,14c2.9,0.6,18.7,6.6,30,6.9c-11.1,0.2-29.2-6.3-32.3-6.9
			c-3.8-0.8-13.9-9.7-16.9-14s-4.1-13.1-4.7-18.2c-0.6-5.1,2.3-19.3,3.2-22.7c0.9-3.4,8.4-19.5,11.4-24c3.1-4.5,11.4-17.4,20.4-17.3
			C721,487.8,721.2,486.3,725.2,486.3L725.2,486.3z"/>
		<path class="st30" d="M753.9,532.4c1.5-0.8,1.8-4,2.6-2.4c1,2.1,0.7,4.6-0.8,6.4c-1,1-7.2,1.8-7.2,0
			C748.5,534.7,752.4,533.2,753.9,532.4L753.9,532.4z"/>
		<path d="M750.5,524c3.5,0,6.2,2.3,6.2,5.7s-1.5,6.8-4.9,7.1c-3.8,0.4-6.4-2.6-6.2-6.3C745.7,527.1,747,524,750.5,524z"/>
		<path class="st32" d="M750,526.2c0.5-0.6,2,0.1,2.7,0.6c0.7,0.4,0.8,1.3,0.4,2c-0.4,0.7-1.3,0.8-2,0.4c-0.1-0.1-0.1-0.1-0.2-0.2
			C750.2,528.4,749.5,526.8,750,526.2L750,526.2z"/>
		<path class="st33" d="M750.4,525c0,0-4.2,0.4-5.5-2.2"/>
		<path d="M687.3,525.6L687.3,525.6L687.3,525.6L687.3,525.6l-0.1,0.3l-0.2,0.8c-0.3,1-0.5,1.9-0.7,2.8c-0.3,1.1-0.6,2.3-0.8,3.3
			c-0.2,1-0.4,1.9-0.5,2.7c-0.3,2-0.5,3.8-0.6,5.5l0,0c-0.2,2.7-0.3,5-0.3,7c0,2.3,0.1,4.6,0.3,6.9c0.1,1.1,0.3,2,0.4,2.8
			c0.1,0.7,0.3,1.4,0.6,2.1l0.3,0.8c0.4,1.1,0.9,2.8,1.6,4.6c0.7,2,1.5,4,2.6,5.9c0.7,1.2,1.5,2.4,2.5,3.5c0.9,1,1.8,2,2.8,2.9
			c1,0.8,1.9,1.5,2.7,2.1c0.8,0.6,1.5,1,1.9,1.3c0.2,0.2,0.5,0.3,0.9,0.5c0.7,0.4,1.5,0.7,2.3,1.1c0.9,0.4,2,0.8,3.1,1.1l0,0
			c2.1,0.7,4.5,1.3,6.9,1.9c2.9,0.7,5.8,1.3,8.2,1.8s4.4,0.9,5.4,1.2l1.9,0.5c1.7,0.5,3.9,1,6.3,1.6s4.9,1.2,7.4,1.7
			c1.6,0.4,3.2,0.7,4.7,1.1l1.1,0.3l0.4,0.1c0.3,0.1,0.5,0.2,0.7,0.3c0.2,0.1,0.3,0.2,0.2,0.2s-0.2,0-0.4,0s-0.5,0-0.7,0l-1.6-0.1
			c-1.3-0.1-2.9-0.2-4.8-0.4c-4.2-0.4-9.5-1-14-1.8c-2-0.3-3.9-0.8-5.8-1.4c-3.2-1-6.5-2.1-9.6-3.2c-2.4-0.9-4.7-1.7-6.8-2.6
			c-1.8-0.8-3.6-1.6-5.4-2.6c-1-0.6-1.9-1.1-2.7-1.5c-1.5-0.8-2.8-1.8-4.2-2.8c-2.1-1.6-3.9-3.5-5.4-5.7c-1.2-1.8-2.2-3.7-3-5.7
			c-0.9-2-1.6-4-2.2-5.8c-0.3-1-0.6-2-0.8-3c-0.1-1-0.2-1.9-0.3-2.7c-0.1-1.1-0.1-2.3,0-3.4c0.1-1,0.2-2.3,0.3-3.7
			c0.2-2.1,0.6-4.6,1-7.1c0.3-1.9,0.7-3.7,1.1-5.5c0.2-1,0.5-1.9,0.8-2.7c0.4-1.2,0.8-2.3,1.1-3.3c0.4-1.1,0.7-2.1,1-2.7l0.3-0.8
			L687.3,525.6L687.3,525.6L687.3,525.6L687.3,525.6L687.3,525.6z"/>
		<path d="M777.1,540.7c0-1.2-0.1-2.4-0.3-3.7c-0.2-1.7-0.5-3.3-0.8-4.8l0,0c-0.5-2.5-1.1-4.6-1.7-6.5s-1.1-3.6-1.7-5.1
			c-1-2.8-2-4.9-2.8-6.5c-0.8-1.7-1.5-3-2.1-4.1l-0.5-0.9c-0.6-1.2-1.4-2.7-2.4-4.3c-1-1.7-2.3-3.3-3.6-4.8l0,0
			c-1.5-1.6-3.2-3-5-4.3c-1.6-1.1-2.9-2-3.7-2.4c-1-0.5-2-1-3-1.4c-1.6-0.6-3.3-1.2-5-1.6c-1.5-0.4-3.2-0.8-4.8-1.1
			s-3.3-0.5-4.8-0.7c-3-0.3-5.5-0.4-6.7-0.6l-1.5-0.1c-1.8-0.1-3.7-0.1-5.5,0.1c-2.2,0.2-4.4,0.7-6.5,1.4c-1.4,0.4-2.7,1-4,1.4
			c-0.4,0.2-0.9,0.4-1.4,0.5c-0.4,0.2-0.8,0.2-1.2,0.3c-0.2,0-0.2-0.1,0-0.2c0.2-0.1,0.5-0.3,0.9-0.5s0.9-0.6,1.4-0.9
			c1.2-0.8,2.5-1.5,3.8-2.1c1.9-0.9,3.9-1.7,6-2.2c2.2-0.5,4.4-0.8,6.6-0.8c1.7,0,3.4,0.1,5.1,0.4c2.2,0.4,4.4,0.9,6.6,1.5
			c2.2,0.6,4.3,1.3,6.3,2.1s4,1.7,5.6,2.5s3,1.5,4,2c0.7,0.4,1.9,1,3.3,1.8c1.7,1,3.3,2.2,4.7,3.4c1.5,1.3,2.8,2.7,4,4.3
			c1.2,1.6,2.2,3.2,3.2,4.9c1.7,2.8,3,5.9,4,9c0.2,0.9,0.5,1.9,0.8,3.2c0.4,1.7,0.8,3.7,1.2,5.8c0.4,2.1,0.7,4.3,0.9,6.3
			c0.2,1.8,0.3,3.5,0.4,5c0,1.1,0,2.1,0,2.7c0,0.6-0.1,1-0.1,1L777.1,540.7z"/>
		<path class="st22" d="M718.2,503.7c0,0-7.6-11.3-9.5-13.1c-2-1.9-2.5-4.4-7.1-5c-4.6-0.6-12,2.2-13.6,3.3s-7.9,5.4-9.1,6.9
			c-1.2,1.5-2.1,6.3-2,9.5c0.1,3.3,3.2,10.3,4.4,11.5c1.2,1.2,7.9,7.5,10.1,8.2c2.2,0.8,14,2.5,14,2.5L718.2,503.7z"/>
		<path class="st23" d="M698.1,526.2c-2.1-0.3-4.1-0.7-6.1-1.3c-2.2-0.8-8.9-7-10.1-8.2c-1.2-1.2-4.3-8.2-4.4-11.5
			c-0.1-3.3,0.8-8,2-9.5s7.5-5.8,9.1-6.9c3.7-2,7.8-3.1,11.9-3.4c-1.2,0.2-2.3,0.4-3.5,0.8c-1.2,0.3-2.4,0.8-3.5,1.2
			c-0.8,0.3-1.5,0.7-2.2,1.1c-0.8,0.5-2.8,1.9-4.7,3.3c-1,0.7-1.9,1.4-2.7,2c-0.6,0.5-1.2,1-1.7,1.6c-0.4,0.5-0.6,1.1-0.8,1.7
			c-0.3,0.8-0.5,1.6-0.6,2.4c-0.2,0.9-0.3,1.8-0.4,2.8c-0.1,0.9-0.1,1.8-0.1,2.7c0.1,1,0.3,2,0.6,3c0.3,1.2,0.8,2.4,1.2,3.5
			c0.5,1.2,1,2.3,1.4,3.1c0.3,0.7,0.7,1.3,1.2,1.9c0.6,0.6,2.6,2.5,4.7,4.3c1,0.9,2.1,1.8,3.1,2.5c0.7,0.6,1.5,1.1,2.3,1.4
			c0.8,0.2,1.6,0.4,2.4,0.6l3.7,0.7L698.1,526.2z"/>
		<path d="M717.9,503.6c-2-2.8-3.9-5.3-5.5-7.5c-1.6-2.2-3.1-3.9-4.4-5.4c-0.7-0.7-1.3-1.4-1.8-2c-0.3-0.4-0.7-0.7-1.1-1
			c-0.8-0.4-1.6-0.8-2.5-1c-0.7-0.2-1.4-0.3-2.2-0.4c-0.6,0-1.1,0-1.7,0c-0.5,0-1,0.1-1.5,0.2s-1,0.1-1.6,0.3
			c-1.4,0.3-2.7,0.7-4,1.2c-1.5,0.6-3,1.4-4.3,2.4c-1.6,1.1-3.2,2-4.5,2.9c-0.8,0.5-1.5,1-2.2,1.6c-0.5,0.4-0.9,0.8-1.3,1.3
			l-0.2,0.3c-0.4,0.6-0.8,1.2-1,1.9c-0.3,1-0.5,2-0.6,3.1l0,0c0,1.3,0.1,2.7,0.3,4c0.3,1.4,0.6,2.8,1.1,4.1l0,0
			c0.3,0.9,0.7,1.7,1.2,2.4c0.5,0.8,1,1.4,1.4,2c0.7,0.9,1.3,1.6,1.6,2c0.9,1.2,1.9,2.3,2.9,3.4c0.8,0.8,1.7,1.6,2.7,2.3
			c1,0.8,2,1.5,3.1,2.1c0.8,0.4,1.7,0.8,2.5,1.1c0.8,0.3,1.6,0.5,2.4,0.6c0.7,0.1,1,0.1,1,0.2s-0.3,0.2-0.8,0.3
			c-0.8,0.1-1.6,0.2-2.4,0.1c-1.2-0.1-2.3-0.3-3.4-0.7l0,0c-1.2-0.4-2.4-1-3.5-1.6c-1.2-0.7-2.3-1.4-3.4-2.3c-1.1-0.8-2.1-1.8-3-2.8
			c-0.8-0.9-1.6-1.8-2.2-2.8l-0.3-0.5c-1-1.6-1.7-3.4-2.1-5.2l0,0c-0.3-1.5-0.5-3-0.6-4.6c-0.1-1.4,0-2.9,0.2-4.3
			c0.2-1.1,0.4-2.1,0.8-3.1c0.3-0.8,0.8-1.6,1.3-2.4c0.4-0.5,0.8-1,1.2-1.5c0.2-0.3,0.5-0.6,0.9-0.9s0.8-0.8,1.4-1.2
			c0.5-0.4,1.2-1,1.9-1.5c0.7-0.5,1.5-1.1,2.2-1.8l0,0c1.3-1.1,2.6-2.1,4.1-2.9c1.5-0.8,3.1-1.5,4.8-1.9l0,0c1-0.2,1.9-0.4,2.9-0.5
			c0.9-0.1,1.8-0.1,2.8,0c0.9,0.1,1.8,0.3,2.6,0.6c0.7,0.2,1.3,0.5,1.9,0.9c0.4,0.2,0.7,0.5,1.1,0.7c0.5,0.4,1,0.9,1.4,1.5l0,0
			c0.6,0.7,1.1,1.5,1.7,2.3l0,0c1.3,1.9,2.6,3.9,3.8,5.9L717.9,503.6L717.9,503.6z"/>
		<path class="st28" d="M714,508.7c0,0-6,2.5-7.3,4.7c-1.3,2.2-5.6,7.5-6.2,7.6c-0.9-0.1-1.8-0.3-2.7-0.5c0,0-3.6-3.9-4.8-6.4
			s-2.6-5.2-1.4-8c1.2-2.8,2.4-6.7,4.2-7.2c3-0.6,6.1-0.5,9.1,0.3c1.6,0.5,3,1.2,4.4,2.1C710.2,501.9,715.5,508.3,714,508.7
			L714,508.7z"/>
		<path d="M714.8,508.6L714.8,508.6l-0.2,0.1l-0.7,0.3c-0.8,0.3-1.6,0.7-2.3,1.1c-1.1,0.7-2.2,1.5-3.1,2.5c-0.7,0.8-1.3,1.6-1.7,2.6
			c-0.5,1.2-1.3,2.3-2.1,3.3c-0.6,0.7-1.3,1.4-2.1,1.9c-0.5,0.4-1.2,0.8-1.8,1c-0.3,0.1-0.6,0.2-0.9,0.2c-0.5,0.1-1,0.1-1.5,0
			c-0.6-0.1-1.1-0.5-1.4-0.9c-0.1-0.2-0.3-0.4-0.6-0.6c-0.2-0.3-0.6-0.7-1-1.1c-0.9-1-1.7-2-2.3-3.2l0,0c-0.5-0.7-0.8-1.5-1.2-2.3
			c-0.3-0.6-0.5-1.3-0.6-2c-0.1-0.4-0.1-0.7-0.2-1.1c0-0.3-0.1-0.9-0.2-1.6c-0.1-0.9-0.1-1.7,0-2.6c0.1-1.2,0.5-2.4,1-3.4
			c0.6-1.1,1.3-2.1,2.2-2.9c0.7-0.8,1.5-1.4,2.4-1.9c0.6-0.4,1.2-0.6,1.9-0.8c1.7-0.4,3.4-0.4,5,0.1c0.9,0.2,1.7,0.6,2.5,1l0,0
			c0.8,0.4,1.6,0.9,2.3,1.5c0.7,0.6,1.3,1.2,1.8,1.9c0.1,0.2,0.2,0.4,0.3,0.6c0,0.1,0,0.2,0,0.2c-0.3-0.1-0.6-0.3-0.9-0.5
			c-0.6-0.4-1.2-0.8-1.8-1.1c-0.8-0.4-1.7-0.7-2.5-0.9c-0.7-0.2-1.4-0.3-2.1-0.4c-0.7-0.1-1.3,0-2,0.1c-1.1,0.2-2.2,0.6-3.2,1.1
			c-0.7,0.3-1.3,0.6-1.9,1c-0.8,0.6-1.6,1.3-2.3,2.1c-0.6,0.7-1.1,1.6-1.3,2.5c-0.2,0.9-0.3,1.8-0.3,2.7c0,0.7,0.2,1.4,0.4,2l0,0
			c0.2,0.5,0.5,1,0.8,1.5c0.4,0.7,0.9,1.4,1.5,2.1l0,0c0.8,0.9,1.6,1.8,2.5,2.5l0,0l1.1,0.9c0.3,0.2,0.6,0.5,0.8,0.8l0,0
			c0.1,0,0.2,0,0.4-0.1c0.6-0.2,1.1-0.4,1.6-0.8c0.8-0.6,1.6-1.2,2.3-1.9c0.6-0.6,1.2-1.2,1.7-1.9c0.8-1.1,1.7-2.1,2.8-2.9
			c1-0.7,2.2-1.4,3.4-1.9c0.8-0.3,1.7-0.6,2.5-0.8l0.7-0.2l0,0L714.8,508.6L714.8,508.6L714.8,508.6z"/>
		<path d="M698.9,488.3c0.5-0.1,1-0.5,1.1-1c0.3-0.6,0.4-1.3,0.5-2c0-0.1,0-0.2,0-0.3c0-0.7,0-1.4-0.2-2.1c-0.1-0.3-0.2-0.6-0.4-0.8
			c-0.1-0.2-0.3-0.4-0.6-0.5c-0.3-0.1-0.5-0.1-0.8,0c-0.3,0.1-0.6,0.3-0.8,0.6c-0.3,0.3-0.5,0.7-0.7,1.1c-0.2,0.5-0.3,1-0.3,1.6
			c0,0.1,0,0.3,0,0.4l0,0c0,0.8,0.3,1.7,0.8,2.3C697.8,488.2,698.3,488.4,698.9,488.3L698.9,488.3z"/>
		<path d="M693.8,488.8c0.4-0.2,0.6-0.8,0.6-1.6c-0.1-0.9-0.3-1.9-0.6-2.7l0,0c-0.1-0.2-0.2-0.5-0.3-0.7c-0.4-1-0.8-2-1.4-2.8
			c-0.2-0.3-0.5-0.6-0.8-0.8c-0.2-0.2-0.5-0.3-0.8-0.3c-0.3,0.1-0.5,0.2-0.7,0.5c-0.2,0.4-0.3,0.8-0.4,1.2c-0.1,0.6-0.1,1.1,0,1.7
			c0.1,0.7,0.3,1.3,0.5,2c0.1,0.3,0.2,0.5,0.4,0.8l0,0c0.4,0.9,1.1,1.7,1.8,2.4C692.9,488.8,693.4,489,693.8,488.8L693.8,488.8z"/>
		<path class="st30" d="M773.2,532.7c-0.9-0.8-1.9-4.4-1.9-2.6c0,1.8-0.3,4.6,0.5,5.8c0.7,1,5.2,1.2,5.2-0.6
			C777.1,533.5,774.2,533.5,773.2,532.7L773.2,532.7z"/>
		<path d="M775.5,523.7c2.2,0,3.8,1.6,3.8,5.1c0,3.4-1.5,7.1-3.8,7.4c-2.4,0.4-4.1-2.6-4-6.3C771.6,526.5,773.3,523.7,775.5,523.7z"
			/>
		<path class="st32" d="M777.5,528.7c-0.4,0.3-1.5-0.9-2-1.5s-0.5-1.5-0.1-1.8c0.4-0.3,1.1,0,1.6,0.7S777.9,528.4,777.5,528.7
			L777.5,528.7z"/>
		<path class="st34" d="M775.6,524.7c1.6,0.2,3.1-0.7,3.5-2.2"/>
		<path class="st28" d="M760.3,542.2c-1.1,2.3-5.1,9.6-6.5,12.5c-0.3,0.7-5.7,5.9-6.1,6.6c-8.3,16.8-11.3,30.9,8,39.3
			c25.2,0.6,41.4-28.5,38.4-46.5c0,0-1.5-6.5-6.3-9c-3.9-2-10.9-2.8-26-3.1"/>
		<path class="st23" d="M750,560.3c-7.9,15.1-8.4,32.9,8.5,40.1c-1.5,0.2-3,0.2-4.4,0.2c-18.2-10.3-12.3-22.8-6.4-38.6L750,560.3z"
			/>
		<path class="st31" d="M793.1,563.2c-1.2,1.9-1.6,1.2-1.8,3.4s-2.3,10.7-7,15.7l-0.1-0.9l5.2-15L793.1,563.2z"/>
		<path d="M789.1,548.8c4.2,0,9.7,4.9,7.5,9c-1.5,3-4.4,8.6-7.5,9s-5.4-5.7-7.5-9C779.1,554,784.9,548.8,789.1,548.8z"/>
		<path class="st31" d="M792,549.1c0.7,1.3,1.3,2.8,1.7,4.2c3,17.9-13.2,47.1-38.4,46.5c-5-2.2-8-5.3-9.6-9c2,3.4,5.2,6.1,8.9,7.5
			c25.2,0.6,41.4-28.5,38.4-46.5C792.7,551,792.4,550,792,549.1L792,549.1z"/>
		<path d="M759.9,542.3c-0.9,2-1.8,4.1-2.7,6c-0.8,1.8-1.8,3.6-2.8,5.4c-1.1,1.7-2.3,3.3-3.7,4.8c-1.3,1.4-2.4,3.1-3.2,4.8
			c-0.8,1.8-1.6,3.7-2.2,5.6c-0.5,1.6-0.9,3.3-1.2,5c-0.3,1.9-0.5,3.9-0.5,5.9c0,1.6,0.1,3.1,0.4,4.7c0.3,1.5,0.7,2.9,1.3,4.3
			c0.5,1.1,1,2.2,1.7,3.2c0.2,0.4,0.5,0.8,0.9,1.2c0.9,1.2,2,2.3,3.1,3.2c1.5,1.1,3.2,2.1,4.9,2.8c1.4,0.1,2.8,0,4.2-0.1
			c1.4-0.1,2.9-0.4,4.3-0.8c2.7-0.7,5.3-1.7,7.8-3c1.6-0.9,3.2-1.9,4.6-3c1.3-1,2.2-1.8,2.9-2.4c0.8-0.7,1.5-1.5,2.2-2.3
			c1-1.2,2-2.4,2.9-3.8c3.2-4.6,5.5-9.7,6.8-15.2c0.3-1.4,0.6-2.8,0.8-4.1c0.2-1.3,0.3-2.6,0.4-3.9c0.1-2.1,0-4.2-0.4-6.3l0,0v-0.2
			c-0.1-0.2-0.1-0.5-0.2-0.7c-0.2-0.7-0.5-1.2-0.6-1.7c-0.1-0.2-0.2-0.4-0.3-0.6c-0.4-0.9-1-1.8-1.6-2.6c-0.7-1-1.6-1.7-2.7-2.3
			c-1.3-0.7-2.7-1.2-4.1-1.6c-1.5-0.4-3.1-0.8-4.7-1.1c-2.6-0.5-5.3-0.8-8-1.1s-5.2-0.3-7.5-0.4c-1.6,0-2.2-0.1-2-0.2
			c0.9-0.2,1.9-0.4,2.8-0.4c1.6-0.1,3.8-0.3,6.4-0.3c2.9,0,5.7,0.1,8.6,0.4c1.6,0.2,3.3,0.4,4.9,0.8c1.7,0.4,3.3,0.9,4.8,1.6l0,0
			c1.3,0.6,2.5,1.5,3.5,2.6c0.9,1,1.7,2.1,2.3,3.3c0.5,0.9,0.8,1.8,1.2,2.7c0.1,0.3,0.2,0.6,0.3,0.9l0,0l0.1,0.3l0,0v0.1l0,0l0,0
			c0.2,1,0.3,2.1,0.3,3.2c0,2.1-0.1,4.2-0.5,6.3c-0.4,2.1-0.9,4.1-1.5,6.1c-0.9,2.9-2.1,5.7-3.6,8.3c-2.3,4.3-5.2,8.2-8.6,11.7
			c-1.3,1.3-2.5,2.4-3.5,3.3c-1.6,1.4-3.4,2.8-5.2,3.9c-2.4,1.5-5,2.7-7.7,3.5c-3.2,1-6.5,1.5-9.8,1.5c-1.9-0.6-3.8-1.5-5.4-2.6
			c-1.7-1.1-3.2-2.5-4.5-4l0,0c-1.2-1.5-2.2-3.2-2.9-5c-0.6-1.6-1.1-3.3-1.3-5c-0.3-2.1-0.4-4.1-0.2-6.2c0.2-1.7,0.5-3.5,0.9-5.2
			c0.4-1.8,1-3.6,1.6-5.3c0.7-1.9,1.6-3.8,2.5-5.6l0,0c1-1.8,2.3-3.4,3.7-4.9c1.4-1.4,2.7-2.9,3.9-4.5c1-1.5,1.8-2.9,2.5-4.3
			c0.7-1.3,1.3-2.5,1.8-3.5c1-2,1.6-3.2,1.6-3.2L759.9,542.3z"/>
		<path class="st33" d="M789.2,565.9c0,0,0.3,6.9-5.6,14.2"/>
		<path class="st35" d="M781.3,579.3c2,0.6,3.1,2.6,2.5,4.5c-0.5,2.1-2.2,1.7-4.1,1.3s-3.3-0.9-2.8-2.9
			C777.4,580.2,779.4,578.9,781.3,579.3z"/>
		<path class="st36" d="M775,564.8c0.7,0,1.2,0.6,1.2,1.3c0,0,0,0,0,0c0,0.7-0.2,1-0.9,1s-1.3-0.2-1.3-1
			C774,565.4,774.3,564.8,775,564.8L775,564.8z"/>
		<path class="st36" d="M767.4,560.9c1.2,0,1.8,1.1,1.8,2.4c0,1.3-0.5,1.6-1.7,1.6s-2.3-0.4-2.3-1.7
			C765.2,562,766.2,560.9,767.4,560.9C767.4,560.9,767.4,560.9,767.4,560.9L767.4,560.9z"/>
		<path class="st36" d="M769.8,569.4c0.9,0,1.6,0.8,1.6,1.7c0,0,0,0,0,0c0.1,0.8-0.5,1.5-1.3,1.5c-0.1,0-0.1,0-0.2,0
			c-0.7,0.1-1.4-0.5-1.4-1.2c0-0.1,0-0.2,0-0.3C768.5,570.2,768.9,569.4,769.8,569.4L769.8,569.4z"/>
		<path class="st32" d="M788,551.4c1.2,0,2.3,0,2.3,1.2c0,1.2-1.1,1.1-2.3,1.1s-4,2.3-4,1.1C784,553.6,786.8,551.4,788,551.4
			L788,551.4z"/>
	</g>
	<g id="g4371">
		<path class="st31" d="M780.4,665.2l0.1,0.1c0.2,0.1,0.5,0.2,0.8,0.2l1.1,0.3l1.1,0.3c0.2,0,0.4,0.1,0.7,0.2
			c0.2,0.1,0.4,0.2,0.6,0.4l0.3,0.3c0.1,0.1,0.2,0.2,0.3,0.3c0.6,0.3,1.3,0.7,1.8,1.1c0.2,0.1,0.2,0.1,0.1,0.2c-0.2,0-0.4,0-0.5-0.1
			c-0.5-0.1-1.3-0.3-2-0.5c-0.3-0.1-0.6-0.3-0.9-0.5l-0.4-0.3l0,0c-0.1-0.1-0.3-0.2-0.4-0.2l-0.9-0.5c-0.6-0.3-1.2-0.6-1.7-0.8
			c-0.1-0.1-0.3-0.1-0.4-0.2C779.2,665.1,779.5,664.7,780.4,665.2L780.4,665.2z"/>
		<path d="M780.5,665l0.1,0.1c0.4,0.2,1.4,0.5,2.3,0.8c0.6,0.2,1.2,0.4,1.7,0.7l0.8,0.5l1,0.6c0.3,0.2,0.6,0.4,0.9,0.6
			s0.1,0.2,0,0.2c-0.2,0-0.4-0.1-0.6-0.1l-1-0.3c-0.4-0.1-0.7-0.2-1.1-0.3c-0.5-0.1-1-0.4-1.5-0.6l-0.9-0.6
			c-0.6-0.4-1.3-0.8-1.9-1.1l-0.4-0.2c-0.1,0-0.2-0.1-0.3-0.1c-0.1,0-0.1-0.1-0.1-0.1c0,0,0,0,0-0.1c0,0,0-0.1,0.1-0.1h0.1
			c0.1,0,0.2,0,0.2,0C780.1,664.8,780.3,664.8,780.5,665L780.5,665z"/>
		<path d="M780.7,668.8L780.7,668.8c0.5-0.4,0.9-0.9,1.3-1.4c0.3-0.4,0.6-0.8,1-1.2c0.3-0.3,0.6-0.6,0.9-0.9
			c0.3-0.3,0.6-0.7,0.8-1.1c0.1-0.2,0.2-0.1,0.2,0c0.1,0.3,0.1,0.6,0,0.8c-0.1,0.4-0.2,0.8-0.4,1.1c-0.2,0.4-0.4,0.7-0.8,0.9l-1,0.7
			c-0.7,0.5-1.3,0.9-1.7,1.2c-0.1,0.1-0.2,0.1-0.2,0.2c-0.1,0.1-0.1,0.1-0.2,0.2c-0.1,0-0.1,0.1-0.2,0.1h-0.1c0,0-0.1,0-0.1-0.1
			c0,0,0,0,0,0c0-0.1,0-0.1,0-0.1C780.4,669,780.5,668.9,780.7,668.8L780.7,668.8z"/>
	</g>
	<path class="st22" d="M782.2,658.1c-13.8-2.2-26.1,12-25.7,28.9c0.4,17.5,14,32,25.4,29.9c8-1.5,16-3.5,19-14.1
		c1-3.6,1.6-11.9,1.2-16.6C800.5,669.8,792.9,659.8,782.2,658.1z"/>
	<path class="st30" d="M765.4,706.9c5.5,10.9,8.2,9.8,17.3,9.5c6.7-1.2,13.5-2.8,17.3-9.7c-3.7,7.3-10.6,9-17.5,10.3
		C774.1,715.1,771,714.7,765.4,706.9L765.4,706.9z"/>
	<path d="M766.7,709.7c0.8,1.3,1.8,2.5,2.9,3.5c1,0.9,2.2,1.7,3.5,2.2c1.8,0.7,3.7,1,5.6,0.9c2.5-0.1,4.9-0.4,7.3-1
		c1.9-0.5,3.7-1.3,5.4-2.3c1-0.6,1.9-1.3,2.7-2.1c0.7-0.7,1.4-1.4,2-2.2c0.8-1.1,1.5-2.2,2-3.4c0.4-1,0.8-2,1.1-3
		c0.2-0.5,0.3-1.1,0.4-1.6s0.2-1,0.3-1.6c0.2-1.2,0.4-2.7,0.6-4.3c0.3-2.8,0.4-5.6,0.3-8.4c-0.1-1.8-0.4-3.7-0.7-5.4
		c-0.3-1.7-0.7-3.3-1.2-4.9c-0.4-1.3-0.9-2.6-1.4-3.9c-0.5-1.1-0.9-2-1.2-2.6c-0.7-1.3-1.5-2.5-2.4-3.6c-0.9-1.1-1.9-2.1-2.9-3
		c-1.2-1.1-2.6-2-4-2.7l0,0c-1.3-0.6-2.6-1.1-4-1.4c-1.4-0.3-2.8-0.4-4.2-0.4l0,0c-1.5,0.1-3.1,0.3-4.5,0.8
		c-1.2,0.4-2.4,0.9-3.5,1.6c-0.8,0.5-1.7,1-2.4,1.6c-0.7,0.5-1.4,1.1-2.1,1.7c-0.8,0.8-1.6,1.7-2.4,2.6c-1,1.3-1.9,2.6-2.7,4
		c-0.8,1.5-1.5,3.1-2.1,4.7c-0.6,1.7-1,3.4-1.3,5.1c-0.3,1.6-0.5,3.2-0.5,4.8c0,0.5,0,1-0.1,1.5c-0.1,0.2-0.1,0.1-0.2-0.2
		c-0.3-1.5-0.5-3-0.4-4.5c0-2.8,0.4-5.5,1-8.2c0.4-1.6,1-3.1,1.6-4.6c0.7-1.5,1.5-3,2.5-4.4l0,0c1-1.5,2.2-2.9,3.5-4.1
		c1.2-1.1,2.6-2.1,4-2.9c0.6-0.3,1.2-0.6,1.8-0.8c2.5-1,5.2-1.4,7.8-1.3l0,0c1.6,0.1,3.2,0.4,4.8,0.8c1.5,0.5,2.9,1.1,4.3,1.9
		c1.4,0.9,2.8,1.9,4,3.1c1.1,1.1,2.1,2.2,3,3.5c1.4,1.9,2.6,3.9,3.6,6c0.9,1.8,1.7,3.7,2.4,5.6c0.4,1.3,0.9,2.7,1.3,4.3
		s0.7,3.2,0.9,5c0.2,1.5,0.3,2.9,0.3,4.4c0,1.5,0,3-0.1,4.5s-0.2,3.1-0.4,4.5c-0.2,1.2-0.4,2.5-0.8,3.7c-0.4,1.4-1,2.7-1.7,4
		c-0.6,1.1-1.3,2.2-2.1,3.1c-0.6,0.7-1.2,1.3-1.9,1.9c-1.2,1-2.4,1.8-3.8,2.5c-1,0.5-2,0.9-3,1.2c-1.1,0.4-2.3,0.7-3.4,0.9
		c-2.4,0.4-4.9,0.6-7.3,0.5c-1,0-2.1-0.2-3.1-0.4c-1-0.2-1.9-0.6-2.8-1c-1.1-0.5-2.1-1.2-2.9-2c-0.7-0.6-1.3-1.3-1.9-2.1
		c-0.4-0.5-0.7-1-1-1.6c-0.2-0.4-0.3-0.6-0.3-0.6L766.7,709.7z"/>
	<path class="st28" d="M796.9,710.7c-1.8,2.5-4.4,2.6-6.8,0.4c-3.6-3.3-5.5-11.7-4.4-18.4s4.7-12,8.3-8.7s5.9,13.8,4.7,20.5
		C798.3,706.9,797.8,709.4,796.9,710.7L796.9,710.7z"/>
	<path d="M797.5,710.6c-0.4,0.6-1,1.2-1.6,1.6c-0.6,0.4-1.3,0.7-2.1,0.9c-0.8,0.1-1.7,0-2.5-0.4c-0.7-0.3-1.3-0.7-1.8-1.2
		c-0.6-0.5-1.1-1.1-1.6-1.8c-0.4-0.6-0.8-1.1-1.1-1.7c-0.4-0.8-0.8-1.7-1.2-2.5c-0.3-0.8-0.5-1.5-0.7-2.2c-0.3-1.1-0.6-2.1-0.8-3.2
		c-0.2-0.8-0.3-1.6-0.3-2.5c-0.1-0.7-0.1-1.5,0-2.2c0.1-1,0.2-2,0.5-3c0.3-1.6,0.8-3.2,1.5-4.7c0.3-0.7,0.7-1.4,1.2-2.1
		c0.4-0.6,0.8-1.1,1.3-1.6c0.3-0.4,0.7-0.7,1.1-0.9c0.3-0.2,0.6-0.4,1-0.5c0.3-0.1,0.6-0.2,0.9-0.3c0.5-0.1,1.1,0,1.6,0.1
		c0.6,0.2,1.2,0.5,1.7,0.9c0.6,0.5,1.1,1.1,1.6,1.7c0.5,0.7,0.9,1.3,1.3,2.1c0.5,0.9,0.9,1.8,1.3,2.8c0.4,0.9,0.7,1.8,0.9,2.7
		c0.4,1.1,0.6,2.3,0.7,3.5c0,0.9,0.1,2.2,0.1,3.7c0,1.7-0.2,3.3-0.5,4.9c-0.3,0.9-0.6,1.8-0.9,2.6c-0.4,0.8-0.8,1.6-1.3,2.3
		c-0.2,0.2-0.3,0.5-0.5,0.7h0c0.3-0.6,0.5-1.2,0.7-1.9c0.2-0.6,0.3-1.2,0.3-1.8c0.1-0.7,0.1-1.5,0-2.2c0-0.9-0.1-1.8-0.2-2.7
		s-0.2-1.8-0.3-2.7c-0.3-1.8-0.6-3.4-0.7-4.7c0-0.3,0-0.7-0.1-1c-0.2-1.8-0.6-3.6-1.1-5.3c-0.2-0.7-0.5-1.4-0.8-2
		c-0.3-0.6-0.7-1.1-1.1-1.6c-0.3-0.3-0.7-0.6-1.1-0.8c-0.4-0.2-0.8-0.2-1.2-0.2c-0.3,0-0.6,0.1-0.9,0.3c-0.2,0.1-0.5,0.3-0.7,0.5
		c-0.2,0.2-0.4,0.5-0.6,0.7c-0.3,0.4-0.6,0.9-0.8,1.4c-0.3,0.6-0.6,1.2-0.8,1.9c-0.2,0.7-0.4,1.5-0.6,2.3c-0.2,0.8-0.3,1.7-0.4,2.5
		c-0.2,1.9-0.2,3.8,0,5.6c0.2,1.7,0.5,3.2,0.6,4.3v0.3c0.2,1.4,0.5,2.8,0.9,4.2c0.4,1.3,1,2.4,1.8,3.5c0.4,0.5,1,1,1.6,1.3
		c0.6,0.3,1.2,0.5,1.9,0.5c0.6,0,1.2-0.2,1.7-0.4c0.4-0.2,0.8-0.4,1.2-0.7c0.2-0.2,0.5-0.4,0.7-0.6L797.5,710.6L797.5,710.6z"/>
	<path class="st37" d="M793.1,664.3c1,2.1,1.5,4.3,1.6,6.5c0.4,3.9-0.3,6.6-1.8,6s-3.3-3.7-3.7-7.6s0.9-7,2.3-6.5
		C792.3,663.1,792.8,663.6,793.1,664.3L793.1,664.3z"/>
	<path class="st37" d="M782.5,664.4c0.9,0.6,1.7,2.5,2.3,4.7c1,3.3,1.1,6.5,0.1,7.3s-2.8-0.5-3.9-3.8s-0.9-7.4,0.2-8.3
		C781.6,664.1,782.2,664.1,782.5,664.4L782.5,664.4z"/>
	<path class="st37" d="M776.8,674.3c0.8,0.4,1.5,2,2.1,3.8c0.9,2.8,1.1,5.6,0.3,6.5s-2.4-0.1-3.4-2.9s-0.9-6.4,0-7.3
		C776.1,674.1,776.5,674,776.8,674.3z"/>
	<path d="M783.9,660.1h-0.4c-0.4,0-0.8,0.1-1.2,0.2l0,0c-2.4,0.5-4.6,1.8-6.1,3.8c-0.6,0.7-1,1.5-1.4,2.3c-0.4,1-0.8,2-1,3
		c-0.2,0.8-0.3,1.6-0.4,2.4c-0.1,0.7-0.1,1.3-0.1,1.9s0,1.1,0,1.6c0,0.1,0,0.1,0,0.2c0,1.3-0.2,3.4-0.3,5.7s-0.2,4.8-0.1,6.8
		c0,1.5,0,2.7,0,3.3c0.1,1.3,0.3,2.6,0.7,3.9c0.5,2,1,3.9,1.7,5.8c0.5,1.5,1.1,2.8,1.5,4s0.9,2,1.1,2.5c0.5,1.3,1.2,2.6,2,3.8
		c0.8,1.3,1.9,2.3,3.1,3.2c1,0.7,2.1,1.1,3.3,1.3c0.5,0.1,0.7,0.2,0.7,0.2s-0.2,0.2-0.6,0.3c-0.6,0.1-1.1,0.1-1.7,0.1
		c-0.9-0.1-1.7-0.3-2.5-0.6c-0.8-0.3-1.5-0.7-2.2-1.2c-0.8-0.5-1.4-1.1-2.1-1.8c-0.9-1-1.7-2.1-2.4-3.2c-0.6-1-1-2-1.3-3.1
		c-0.4-1.6-0.8-3.2-1-4.8c-0.4-2.3-0.6-4.7-0.8-6.7s-0.3-3.7-0.5-4.8c-0.1-0.5-0.2-1.2-0.3-2.1c-0.2-1.5-0.5-3.6-0.7-5.8
		s-0.3-4.7-0.3-6.8c0-1.2,0.1-2.5,0.3-3.7c0.1-0.9,0.4-1.8,0.7-2.7c0.5-1.2,1.1-2.4,1.8-3.5c0.6-0.9,1.4-1.8,2.2-2.5
		c0.8-0.7,1.8-1.4,2.8-1.9c0.7-0.4,1.5-0.6,2.3-0.8c0.6-0.2,1.3-0.3,1.9-0.3c0.4,0,0.8,0,1.3,0L783.9,660.1l0.1,0L783.9,660.1z"/>
	<path d="M762.7,667.3L762.7,667.3L762.7,667.3l-0.4-0.1l0,0l-1.1-0.3c-1.4-0.3-2.6-0.6-3.7-0.8c-1.8-0.3-3.1-0.5-4.2-0.7
		c-0.7-0.1-1.3-0.1-1.8-0.1c-0.5,0-0.9,0-1.3,0h-0.5c-0.5,0-1.4-0.1-2.5-0.2s-2.4-0.1-3.8-0.1c-1.3,0-2.6,0.1-3.9,0.3
		c-0.6,0.1-1.2,0.2-1.8,0.4c-0.5,0.2-0.9,0.4-1.4,0.7c0.2-0.3,0.4-0.5,0.7-0.7c0.3-0.2,0.6-0.5,0.9-0.7c0.4-0.2,0.8-0.5,1.3-0.7
		c1.3-0.5,2.6-0.9,4-1.2c1.2-0.3,2.5-0.4,3.7-0.5c1.1-0.1,2.3-0.1,3.4-0.1c0.7,0,1.3,0.1,2,0.2c0.4,0.1,0.8,0.2,1.2,0.3l0.2,0.1
		c1,0.4,2.5,1.1,4,1.8c1.3,0.6,2.5,1.2,3.5,1.7l1.1,0.5L762.7,667.3L762.7,667.3L762.7,667.3L762.7,667.3z"/>
	<path d="M703.7,669.4c-1.6-1-3-1.9-4.2-2.6l0,0c-0.6-0.2-1.2-0.4-1.9-0.5c-0.5-0.1-1-0.1-1.5,0c-0.7,0.1-1.3,0.3-1.8,0.7
		c-0.4,0.3-0.7,0.6-1,1c-0.1,0.2-0.3,0.4-0.3,0.7c-0.1,0.2-0.2,0.4-0.2,0.7l-0.1,0.3c-0.1,0.3-0.1,0.7-0.2,1c0,0.4-0.1,0.9-0.1,1.3
		c0,1.1,0.2,2.2,0.5,3.3c0.3,1,0.6,1.9,1,2.9c0.2,0.4,0.3,0.7,0.4,0.9c0.4,0.7,0.9,1.4,1.5,2c0.8,0.9,1.8,1.8,2.8,2.5
		c0.8,0.6,1.7,1.2,2.7,1.7c0.8,0.4,1.4,0.7,1.7,0.9c0.3,0.2,0.6,0.3,0.9,0.4l1.5,0.5c0.5,0.2,1.1,0.4,1.6,0.5
		c0.5,0.1,1.1,0.2,1.6,0.3c0.5,0,1-0.1,1.4-0.2c0.1,0,0.2-0.1,0.3-0.1l0,0c0-0.1,0.1-0.1,0.2-0.1l0,0c0.1,0,0.2,0.1,0.2,0.3
		c0.1,0.1,0.1,0.2,0,0.4c-0.1,0.2-0.2,0.3-0.4,0.5c-0.4,0.3-0.9,0.6-1.4,0.8c-0.6,0.2-1.3,0.4-1.9,0.4c-0.7,0.1-1.4,0.1-2.1,0
		c-0.7-0.1-1.3-0.2-2-0.3c-1.1-0.2-2.1-0.7-2.9-1.3c-1.1-0.9-2.1-1.9-3-3c-0.9-1.1-1.7-2.4-2.5-3.6c-0.7-1.1-1.2-2-1.6-2.7l-0.1-0.2
		c-0.5-0.8-1-1.6-1.5-2.4c-0.7-1.3-1.1-2.6-1.4-4c-0.2-1.1-0.2-2.2,0-3.2c0.2-1.1,0.7-2,1.4-2.9c0.5-0.6,1.2-1.1,2-1.4
		c0.9-0.3,1.8-0.5,2.7-0.4c0.7,0.1,1.4,0.2,2.1,0.5c0.7,0.3,1.3,0.6,1.9,1c2,1.8,3.8,3.5,3.8,3.5L703.7,669.4z"/>
	<path d="M805.1,655.6c-1.8-0.2-3.5-0.2-5.3-0.1c-1.8,0.1-2.7,0.3-3.5,0.3c-0.2,0-0.4,0-0.6,0c-0.9-0.1-1.8-0.2-2.7-0.4
		c-0.5-0.1-1-0.2-1.4-0.4c-0.5-0.1-0.9-0.3-1.3-0.4c-0.5-0.1-1-0.2-1.6-0.2c-0.5,0-0.9,0.1-1.3,0.2c0.2-0.2,0.5-0.4,0.7-0.5
		c0.7-0.4,1.4-0.7,2.2-0.8c0.5-0.1,1-0.1,1.4-0.1s1,0,1.4-0.1c0.9-0.1,1.8-0.2,2.7-0.2c1-0.1,1.9-0.1,2.9,0.1l1.1,0.4
		C801.9,654.4,805.1,655.7,805.1,655.6L805.1,655.6z"/>
</g>
</svg>
