<?xml version="1.0" encoding="utf-8"?>
<!-- Generator: Adobe Illustrator 20.0.0, SVG Export Plug-In . SVG Version: 6.00 Build 0)  -->
<svg version="1.1"
	 id="svg16054" inkscape:version="0.91 r13725" sodipodi:docname="quiz1.svg" xmlns:cc="http://creativecommons.org/ns#" xmlns:dc="http://purl.org/dc/elements/1.1/" xmlns:inkscape="http://www.inkscape.org/namespaces/inkscape" xmlns:rdf="http://www.w3.org/1999/02/22-rdf-syntax-ns#" xmlns:sodipodi="http://sodipodi.sourceforge.net/DTD/sodipodi-0.dtd" xmlns:svg="http://www.w3.org/2000/svg"
	 xmlns="http://www.w3.org/2000/svg" xmlns:xlink="http://www.w3.org/1999/xlink" x="0px" y="0px" viewBox="0 0 1700.8 949.6"
	 style="enable-background:new 0 0 1700.8 949.6;" xml:space="preserve">
<style type="text/css">
	.st0{fill:#FFFFFF;}
	.st1{fill:#6B3C1F;stroke:#000000;}
	.st2{fill:#6B3C1F;stroke:#000000;stroke-linejoin:round;}
	.st3{fill:url(#SVGID_1_);stroke:#000000;}
	.st4{fill:#8D5027;stroke:#000000;}
	.st5{fill:url(#SVGID_2_);stroke:#000000;}
	.st6{fill:url(#SVGID_3_);stroke:#000000;}
	.st7{fill:#D28C5F;stroke:#000000;}
	.st8{fill:url(#SVGID_4_);stroke:#000000;}
	.st9{fill:url(#SVGID_5_);stroke:#000000;}
	.st10{fill:url(#SVGID_6_);stroke:#000000;}
	.st11{fill:url(#SVGID_7_);stroke:#000000;}
	.st12{fill:url(#SVGID_8_);stroke:#000000;stroke-width:1.02;}
	.st13{fill:url(#SVGID_9_);stroke:#000000;}
	.st14{fill:#855B3E;}
	.st15{fill:none;stroke:#000000;stroke-width:1.02;}
	.st16{fill:#A05B2B;stroke:#000000;stroke-width:1.02;}
	.st17{fill:#6C5353;stroke:#000000;stroke-width:1.02;}
	.st18{fill:#906F6F;stroke:#000000;stroke-width:1.02;}
	.st19{fill:none;stroke:#000000;}
	.st20{fill:#BEBA10;}
	.st21{fill:#6D1245;}
	.st22{fill:#C83D17;}
	.st23{fill:#F1C700;}
	.st24{fill:#E78700;}
	.st25{opacity:0.33;fill:#D99B17;enable-background:new    ;}
	.st26{fill:url(#SVGID_10_);}
	.st27{fill:url(#SVGID_11_);}
	.st28{fill:url(#SVGID_12_);}
	.st29{fill:#A06121;}
	.st30{fill:#B8854F;}
	.st31{fill:#834317;stroke:#000000;stroke-width:1.67;}
	.st32{fill:#834317;stroke:#000000;stroke-width:3.36;}
	.st33{fill:#834317;stroke:#000000;stroke-width:3.78;}
	.st34{fill:#834317;stroke:#000000;stroke-width:2.63;}
	.st35{fill:#834317;}
	.st36{fill:#956C45;stroke:#000000;stroke-width:2.83;}
	.st37{fill:#6E4A25;}
	.st38{fill:#5D381E;}
	.st39{fill:#DDCEBE;}
	.st40{fill:none;stroke:#000000;stroke-width:5;}
	.st41{fill:none;stroke:#000000;stroke-width:4;}
	.st42{stroke:#000000;stroke-width:5;}
	.st43{fill:#956C45;stroke:#000000;stroke-width:3;}
	.st44{fill:#834317;stroke:#000000;stroke-width:1.99;}
</style>
<defs>
	
	<inkscape:path-effect  effect="spiro" id="path-effect5341" is_visible="true"></inkscape:path-effect>
	<inkscape:path-effect  effect="spiro" id="path-effect17606" is_visible="true"></inkscape:path-effect>
	<inkscape:path-effect  effect="spiro" id="path-effect16830" is_visible="true"></inkscape:path-effect>
	<inkscape:path-effect  effect="spiro" id="path-effect16826" is_visible="true"></inkscape:path-effect>
	<inkscape:path-effect  effect="spiro" id="path-effect16822" is_visible="true"></inkscape:path-effect>
	<inkscape:path-effect  effect="spiro" id="path-effect16818" is_visible="true"></inkscape:path-effect>
	<inkscape:path-effect  effect="spiro" id="path-effect16814" is_visible="true"></inkscape:path-effect>
	<inkscape:path-effect  effect="spiro" id="path-effect16810" is_visible="true"></inkscape:path-effect>
	<inkscape:path-effect  effect="spiro" id="path-effect16806" is_visible="true"></inkscape:path-effect>
	<inkscape:path-effect  effect="spiro" id="path-effect16802" is_visible="true"></inkscape:path-effect>
	<inkscape:path-effect  effect="spiro" id="path-effect16798" is_visible="true"></inkscape:path-effect>
	<inkscape:path-effect  effect="spiro" id="path-effect16794" is_visible="true"></inkscape:path-effect>
	<inkscape:path-effect  effect="spiro" id="path-effect16790" is_visible="true"></inkscape:path-effect>
	<inkscape:path-effect  effect="spiro" id="path-effect16786" is_visible="true"></inkscape:path-effect>
	<inkscape:path-effect  effect="spiro" id="path-effect16782" is_visible="true"></inkscape:path-effect>
	<inkscape:path-effect  effect="spiro" id="path-effect16778" is_visible="true"></inkscape:path-effect>
	<inkscape:path-effect  effect="spiro" id="path-effect16774" is_visible="true"></inkscape:path-effect>
</defs>
<sodipodi:namedview  bordercolor="#666666" borderlayer="true" borderopacity="1.0" fit-margin-bottom="0" fit-margin-left="0" fit-margin-right="0" fit-margin-top="0" id="base" inkscape:current-layer="layer3" inkscape:cx="701.87495" inkscape:cy="334.05534" inkscape:document-units="cm" inkscape:pageopacity="0.0" inkscape:pageshadow="2" inkscape:window-height="1056" inkscape:window-maximized="1" inkscape:window-width="1855" inkscape:window-x="1985" inkscape:window-y="24" inkscape:zoom="0.35" pagecolor="#ffffff" showgrid="false" units="cm">
	</sodipodi:namedview>
<g id="layer2" inkscape:groupmode="layer" inkscape:label="background">
	<rect id="rect4177" y="-3.5" class="st0" width="1716.6" height="953.1"/>
</g>
<g>
	
		<image style="overflow:visible;opacity:0.75;enable-background:new    ;" width="308" height="481" xlink:href="9E179A0D.png"  transform="matrix(0.9968 0 0 0.9979 696 223)">
	</image>
	<polygon class="st1" points="922.2,481.1 919.1,486.9 928.9,572.2 936.3,616.6 943.7,652.5 953.7,652.1 953.5,641.4 945.9,576.2 
		936.5,516.4 929.8,481.1 	"/>
	<polygon class="st2" points="796,632.4 807.8,633.3 813.3,568.7 817.7,523.9 818.3,493.6 805.1,493.6 799.4,561.8 796.9,614.2 	"/>
	<g id="g8412">
		
			<linearGradient id="SVGID_1_" gradientUnits="userSpaceOnUse" x1="1305.8522" y1="785.307" x2="1402.0522" y2="754.457" gradientTransform="matrix(1 0 0 1 -601.88 -192.22)">
			<stop  offset="0" style="stop-color:#8D5027"/>
			<stop  offset="1" style="stop-color:#6B3C1F"/>
		</linearGradient>
		<path class="st3" d="M720.1,593.9l88.7-28.9c0.8-1.7,0.9-3.7,0.4-5.5c-1-2.9-4.6-2.9-4.6-2.9L767,566.9l-49.2,18L720.1,593.9z"/>
		<path class="st4" d="M772.5,567.9c0,0,45.7,2.6,68.6,4.6s72.8,9.5,72.8,9.5l-3.5,3.3l0.9,4.2c0,0-45.8-2.5-69-4.5s-70.5-9-70.5-9
			c-0.8-1.2-1.3-2.7-1.4-4.1C770.4,569.8,772.5,567.9,772.5,567.9L772.5,567.9z"/>
		
			<linearGradient id="SVGID_2_" gradientUnits="userSpaceOnUse" x1="1294.1635" y1="792.5859" x2="1365.4835" y2="750.0959" gradientTransform="matrix(1 0 0 1 -427.34 -177.79)">
			<stop  offset="0" style="stop-color:#C28156"/>
			<stop  offset="1" style="stop-color:#6B3C1F"/>
		</linearGradient>
		<path class="st5" d="M891.2,606.7l48.5-30.9c0.8-1.7,0.9-3.7,0.4-5.5c-1-2.9-4.6-2.9-4.6-2.9c-9.2,5.9-12.2,7.8-20,12.5
			s-26.8,15.7-26.8,15.7L891.2,606.7z"/>
	</g>
	
		<linearGradient id="SVGID_3_" gradientUnits="userSpaceOnUse" x1="1299.1405" y1="773.8557" x2="1325.9905" y2="777.0857" gradientTransform="matrix(1 0 0 1 -601.88 -192.22)">
		<stop  offset="0" style="stop-color:#492A16"/>
		<stop  offset="0.49" style="stop-color:#D28C5F"/>
		<stop  offset="1" style="stop-color:#593219"/>
	</linearGradient>
	<polyline class="st6" points="707.2,683.6 697.2,682.5 705.6,581.1 717.3,484.1 730.6,484.7 727.4,548.5 719.8,609.1 711,681.7 	
		"/>
	<g id="g8390">
		<path class="st7" d="M810.2,250.5c0,0,62.1,5,75.3,5.8s80.6-0.4,80.6-0.4l-6,34.6c0,0-67.3,0.6-75.3,0s-75.5-6.2-75.5-6.2
			l-0.6-34.1L810.2,250.5z"/>
		
			<linearGradient id="SVGID_4_" gradientUnits="userSpaceOnUse" x1="1435.7303" y1="563.0276" x2="1447.6504" y2="563.3475" gradientTransform="matrix(1 0 0 1 -601.88 -192.22)">
			<stop  offset="0" style="stop-color:#693B1D"/>
			<stop  offset="0.49" style="stop-color:#D28C5F"/>
			<stop  offset="1" style="stop-color:#563117"/>
		</linearGradient>
		<path class="st8" d="M834.2,454.2c0,0,1.3-76.5,1.3-88.9s3.8-79.4,3.8-79.4l4.9,0.5c0,0-1.2,82.5-1.2,97.3s-2,71.1-2,71.1
			c-1,0.5-2.2,0.8-3.3,0.9C836.4,455.5,835.2,455,834.2,454.2L834.2,454.2z"/>
		
			<linearGradient id="SVGID_5_" gradientUnits="userSpaceOnUse" x1="1459.851" y1="565.1386" x2="1475.5709" y2="566.4286" gradientTransform="matrix(1 0 0 1 -601.88 -192.22)">
			<stop  offset="0" style="stop-color:#492A16"/>
			<stop  offset="0.49" style="stop-color:#D28C5F"/>
			<stop  offset="1" style="stop-color:#5B3319"/>
		</linearGradient>
		<path class="st9" d="M856,456.3c0,0,3.7-63,5.3-77.8s8.8-89.6,8.8-89.6l5,0.5l-0.3,3.5c0,0-4.5,87.2-6.6,111.1s-4.9,53.5-4.9,53.5
			c-1.4,0.4-2.8,0.6-4.3,0.5C858,457.6,857,457,856,456.3L856,456.3z"/>
		
			<linearGradient id="SVGID_6_" gradientUnits="userSpaceOnUse" x1="1487.7596" y1="566.1127" x2="1501.1296" y2="567.7228" gradientTransform="matrix(1 0 0 1 -601.88 -192.22)">
			<stop  offset="0" style="stop-color:#5D351A"/>
			<stop  offset="0.49" style="stop-color:#D28C5F"/>
			<stop  offset="1" style="stop-color:#673A1C"/>
		</linearGradient>
		<path class="st10" d="M882.5,459.6c-2.4-0.5-3-1.5-3-1.5s5.7-55.3,6.9-65.9S900,289.9,900,289.9l4.4,0.2c0,0-8.9,89.7-11.3,112.3
			s-6.6,56.4-6.6,56.4C885.4,459.6,883.9,459.9,882.5,459.6L882.5,459.6z"/>
		
			<linearGradient id="SVGID_7_" gradientUnits="userSpaceOnUse" x1="1515.0898" y1="567.0217" x2="1528.4598" y2="568.9317" gradientTransform="matrix(1 0 0 1 -601.88 -192.22)">
			<stop  offset="0" style="stop-color:#5D351A"/>
			<stop  offset="0.49" style="stop-color:#D28C5F"/>
			<stop  offset="1" style="stop-color:#5D351A"/>
		</linearGradient>
		<path class="st11" d="M906.6,462c-1.1-0.6-2.1-1.3-3.1-2.1c0,0,7.2-53,9.3-64.1s17-106.1,17-106.1l4.3-0.1
			c0,0-12.7,101.7-14.8,119.8s-7.7,52.1-7.7,52.1S908.1,462.7,906.6,462L906.6,462z"/>
		
			<linearGradient id="SVGID_8_" gradientUnits="userSpaceOnUse" x1="1548.146" y1="537.0381" x2="1564.606" y2="540.6982" gradientTransform="matrix(1 0 0 1 -601.88 -192.22)">
			<stop  offset="0" style="stop-color:#563117"/>
			<stop  offset="0.47" style="stop-color:#D28C5F"/>
			<stop  offset="1" style="stop-color:#4F2D17"/>
		</linearGradient>
		<path class="st12" d="M927.4,461.8c0,0,11.8-71.6,12-73s2.7-6.1,2.7-6.1c-0.8-1.4-1.2-2.9-1.1-4.5c0.2-1.4,1.1-2.6,2.3-3.2
			c0,0-2.1-6-0.9-10.5s13.8-55.9,14.3-58.6c0.5-2.7-0.4-6.9-0.2-8.3c0.1-0.8,0.8-1.4,1.6-1.4c0,0-1.4-2-1.2-3.3s2-2.3,2-2.3
			s1.7-12.1,2.7-18.1c1.1-6,4.8-18.4,4.8-18.4s-1.3-1-0.1-4.3s2.4-5.4,2.8-6.3s-0.7-3.4-0.7-3.4s-3.3-13,9.7-10.6
			c13.2,2.5,1.9,13.1,1.4,14.1c-1.9,3.6,1.6,3.7,0.9,9.6c-0.3,2.1-2.6,3.9-2.6,3.9l-1.7,18.3l-4.7,18c0,0,1.3,0.2,1,2.3
			c-0.2,1.1-0.7,2.2-1.5,3c0.1,1.1,0,2.2-0.3,3.3c-0.4,1.4-2.7,1.1-3,2.9s-9.5,62.7-10.1,64.9s-3.9,7.3-3.9,7.3
			c1.2,0.8,1.7,2.3,1.4,3.7c-0.3,1.6-1.1,3.1-2.3,4.2c0,0-1.5,17.6-2.2,21L938,463.5c0,0-3.9,1-5.6,0.7s-5-2.5-5-2.5L927.4,461.8z"
			/>
		
			<linearGradient id="SVGID_9_" gradientUnits="userSpaceOnUse" x1="1396.488" y1="531.7886" x2="1415.8981" y2="532.4387" gradientTransform="matrix(1 0 0 1 -601.88 -192.22)">
			<stop  offset="0" style="stop-color:#4F2D17"/>
			<stop  offset="0.47" style="stop-color:#D28C5F"/>
			<stop  offset="1" style="stop-color:#4D2C16"/>
		</linearGradient>
		<path class="st13" d="M796,454.3c0,0,0.3-71.9,0.3-73.2s1.8-6.7,1.8-6.7s-2.7-1.3-2.2-3.6s3.1-4,3.1-4s-4.5-4.5-4-8.9
			s4.5-54,4.5-56.7c0-2.7-2.2-5.8-2.2-7.1s1.8-4,1.8-4s-2.2-1.9-2.2-3.1s1.9-2.4,1.9-2.4l0.8-35.5c0,0-2.7-0.7-2-4s3.8-6.3,4-7.1
			s-2.5-2-2.5-2s-6.9-13.2,6.5-12.1s4.8,12.3,4.5,13.4c-1.2,3.8,1.6,2.9,1.9,8.6c0.1,2-1.9,4.1-1.9,4.1v35.5c0,0,2.4,0.6,2.4,2.6
			c0,1.2-0.8,2.2-1.9,2.5c0.7,0.9,1.2,2,1.3,3.2c0,1.3-2.2,2-2.2,3.8s1.6,60.3,1.3,62.5s-2.7,7.6-2.7,7.6s2.5,1.6,2.5,4
			c-0.1,1.5-0.9,3-2.2,3.8c0,0,1.8,16.8,1.7,20.1c-0.3,7.4-3.3,58.7-3.3,58.7s-3.5,1.8-5.4,1.9S796,454.3,796,454.3L796,454.3z"/>
		<path class="st14" d="M810,282.9c0,0,66.3,6.4,76.1,6.4s72.9-0.5,72.9-0.5l-0.7,1.6c0,0-66.8,0.9-74.1,0.5s-74.3-6.2-74.3-6.2
			V282.9z"/>
		<path class="st15" d="M969.1,240.9c3.6-0.5,7.2,0.1,10.5,1.6"/>
		<path class="st15" d="M966.3,253.4c0,0,8.3-0.5,12.1,2.8"/>
		<path class="st15" d="M958.1,295.8c0,0,5.4-1.4,12.5,2.2"/>
		<path class="st16" d="M956.8,301.5c0,0,7.3-2,11.8,1.7"/>
		<path class="st17" d="M943.6,374.8c0,0,8.1-0.4,10.9,1.9"/>
		<path class="st18" d="M942.3,382.5c0,0,6.1-0.3,10.7,2.5"/>
		<path class="st19" d="M801.1,237.1c0,0,3.2-1.5,8.5,0.1"/>
		<path class="st19" d="M799.3,248.8c0,0,6.8-2,11,0.4"/>
		<path class="st19" d="M799.1,289.7c0,0,4.2-1.7,11.8,0.4"/>
		<path class="st19" d="M797.9,295.2c0,0,7.7-2.4,12.8,0.2"/>
		<path class="st19" d="M798.9,366.7c0,0,5.8-1.2,8.9,0.5"/>
		<path class="st19" d="M798.1,374.4c0,0,5.9-1.5,10.9,0.3"/>
	</g>
	<g id="layer1">
		
			<image style="overflow:visible;opacity:0.75;enable-background:new    ;" width="183" height="183" xlink:href="9E179A0F.png"  transform="matrix(0.9945 0 0 0.9945 781.99 543.99)">
		</image>
		<path class="st20" d="M798.2,576.4c0.1-0.1,0.2-0.1,0.3-0.1h0.2l0.3,0.1l0.8,0.3c0.7,0.3,1.6,0.7,2.6,1.1c2,0.9,4.3,1.9,5.6,2.6
			c18.3,9.6,38.7,25.9,54.8,43.8c4.5,4.3,12.4,14.3,13.6,18.4c3.7,6.8,5.2,12.3,3.8,15.7c-0.4,1.1-1.7,2.6-4.6,5.5
			c-0.4,0.4-1.3,1.1-2.5,2.1s-2.8,2.2-4.3,3.3c-4.9,3.7-6.1,4.5-9.4,6.1c-6.7,3.3-14.8,5.8-19.3,5.8c-4.2,0-9.8-1.9-14-4.8
			c-7.3-5-14.6-14.3-19.9-25.2c-9.3-19.1-13.4-43.9-10.6-63.5c0.3-2,0.8-4.7,1.3-7c0.3-1.1,0.5-2.1,0.7-2.9c0.1-0.4,0.2-0.7,0.3-0.9
			s0.1-0.2,0.1-0.3C798.1,576.6,798.2,576.5,798.2,576.4L798.2,576.4z"/>
		<path class="st21" d="M782.5,575.1c0.8-0.6,1.7-0.9,2.7-1.1c1.5-0.2,3.1-0.2,4.6,0c1.8,0.2,3.6,0.6,5.4,1.1l0,0l2.3,0.6
			c0.3,0.1,0.5,0.5,0.3,0.8c0,0.1-0.1,0.2-0.2,0.2l-5.2,3.9l0,0c-2.9,2.1-5.5,4.5-8,7c-9.6,10.1-15.3,21.8-16.4,33.6
			c-0.1,0.9-0.2,1.7-0.3,2.3c0,0.3-0.1,0.5-0.1,0.7c-0.1,1.5,0.2,4.5,0.3,6.1c-0.6-2-1.2-4-1.5-6c0-0.2,0-0.3-0.1-0.6
			c0-0.5-0.1-1.1-0.2-1.8c-0.1-1.5-0.1-3.3-0.1-4.9c0.2-13.7,4.8-26.9,12.9-37.9c0.9-1.4,2-2.6,3.3-3.8L782.5,575.1L782.5,575.1z"/>
		<path class="st22" d="M798.8,575.8L798.8,575.8l0.7-0.4l3.3-1.8c18.5-10,41.6-12,59.7-5.1c10.2,3.9,19.3,10.9,24.1,18.8
			c8.7,14.2,10.5,33.8,4.7,51.3c-1.9,5.3-4.4,10.3-7.4,15.1c-0.5,0.8-1,1.5-1.4,2c-0.2,0.3-0.4,0.5-0.5,0.7
			c-0.5,0.7-1.1,1.4-1.8,2.1c0.3-1.2,0.5-2.3,0.5-3.5c-0.1-3.5-1.8-8.1-4.9-13.3c-3.8-6.1-8.1-11.8-12.9-17.1
			c-11.9-13.3-25.3-25-40-35c-7.7-5.2-16.2-9.9-22-12.3l-2-0.8c-0.2-0.1-0.2-0.3-0.2-0.5C798.8,575.9,798.8,575.9,798.8,575.8
			L798.8,575.8z"/>
		<path class="st23" d="M810.3,557.9l0.6-0.4c2.2-1.5,4.2-2.2,7.7-2.9c11-2,22.4-1.2,33,2.4c8.2,2.9,15.8,7.4,22.3,13.2
			c2.1,2,4.1,4.1,6,6.3c1,1.1,1.8,2.1,2.4,3c0.3,0.4,0.6,0.8,0.7,1c0.1,0.1,0.2,0.3,0.2,0.4c1,1.5,1.8,3.1,2.5,4.7
			c-0.2,0-3.1-3.9-3.4-4c-0.2-0.2-0.5-0.4-0.7-0.6c-2.6-2.6-5.4-4.9-8.4-7c-7.8-5.1-16-8-26.3-9.1c-13.1-1.4-26.3,0.7-38.4,6
			c-1.2,0.5-3.3,1.5-5.3,2.5c-1,0.5-1.9,1-2.6,1.3c-0.7,0.3-1.3,0.7-1.3,0.8c-0.1,0.1-0.1,0.1-0.2,0.1c-0.2,0-0.3-0.1-0.5-0.2
			c-0.2-0.2-0.1-0.3-0.1-0.4c0-0.2,0.1-0.3,0.1-0.5c0.1-0.3,0.3-0.8,0.5-1.4c0.4-1.1,1-2.6,1.6-3.8c0.8-1.6,1.8-3.2,2.8-4.7
			c1.3-2,2.9-3.8,4.8-5.3C809.2,558.8,809.8,558.4,810.3,557.9L810.3,557.9z"/>
		<path class="st24" d="M791.4,566.9c2.1-1.6,4.2-3.1,6.5-4.4c3.4-2,7-3.6,10.7-5l0,0l1.7-0.5c0.7-0.3,1.5-0.5,2.3-0.6
			c0.1,0.1-1.8,1.1-2,1.2l-1,0.8l0,0c-4.2,3.3-8.1,9.1-10.4,15.2c-0.2,0.6-0.4,1.1-0.6,1.5c-0.1,0.2-0.1,0.3-0.2,0.5
			c0,0.1-0.1,0.1-0.1,0.2c0,0-0.1,0.1-0.1,0.1c-0.1,0-0.2,0.1-0.3,0l-0.4-0.1l-0.7-0.2l-2.1-0.6c-3.2-0.9-7.5-1.4-9.3-1l-1.4,0.3
			c-0.1,0-0.9,0.5-1,0.4s0.6-0.8,0.7-0.9l1.9-1.9C787.4,570.1,789.3,568.4,791.4,566.9L791.4,566.9z"/>
		<path class="st23" d="M794.2,578.8c0.5-0.4,1-0.8,1.4-1s0.8-0.5,1.1-0.7l0.4-0.2c0.4-0.2,0.8-0.4,1.1-0.6
			c-0.2,0.3-0.3,0.7-0.3,1.1c0,0.2-0.1,0.4-0.1,0.6c-0.1,0.5-0.4,1.2-0.6,2c-5,19.7-2.1,46,7.3,67.6c2.9,7.1,7,13.6,11.9,19.4
			c4.1,5.1,5.5,6.4,9.3,9.2c2.6,1.8,5.4,3.2,8.4,4.2c0.8,0.2,1.5,0.4,1.8,0.5c0.1,0,0.2,0.1,0.3,0.1c0.1,0.1,0.2,0.2,0.3,0.4
			c0,0.1,0,0.2-0.1,0.3c0,0.1-0.1,0.1-0.2,0.2c-0.1,0-0.2,0.1-0.3,0.1c-0.8,0.1-1.6,0.2-2.5,0.2c-23.5,1.1-45.6-10.7-57.9-30.7
			c-7.7-12.7-9.8-24.4-6.7-37.4c2.4-10.1,8.9-20.8,17.5-28.9c1.4-1.3,3.9-3.4,6.2-5.2C793.2,579.6,793.7,579.2,794.2,578.8
			L794.2,578.8z"/>
		
			<ellipse transform="matrix(0.7915 -0.6111 0.6111 0.7915 -186.0203 607.817)" class="st0" cx="797.9" cy="576.6" rx="12.5" ry="7"/>
		<path class="st25" d="M866.6,564.7c29.4,20,37,60.1,16.9,89.5s-60.1,37-89.5,16.9c-1.6-1.1-3.1-2.2-4.5-3.4
			c29.4,19.9,69.5,12.2,89.4-17.2C897.6,623,892.2,585.8,866.6,564.7z"/>
		
			<linearGradient id="SVGID_10_" gradientUnits="userSpaceOnUse" x1="-2109.5308" y1="797.2126" x2="-2190.0808" y2="843.7327" gradientTransform="matrix(-0.87 0 0 0.87 -1070.1 -113.44)">
			<stop  offset="0" style="stop-color:#FFFFFF;stop-opacity:0.67"/>
			<stop  offset="1" style="stop-color:#FFFFFF;stop-opacity:0"/>
		</linearGradient>
		<path class="st26" d="M874.7,569.7c-26.8-24.1-68.1-21.8-92.2,5c-24.1,26.8-21.8,68.1,5,92.2c7.4,6.7,16.3,11.6,26,14.3"/>
	</g>
	<g id="path3334">
		
			<image style="overflow:visible;opacity:0.75;enable-background:new    ;" width="48" height="233" xlink:href="9E179A0A.png"  transform="matrix(0.9792 0 0 0.9957 877 493)">
		</image>
		
			<linearGradient id="SVGID_11_" gradientUnits="userSpaceOnUse" x1="1479.13" y1="793.3795" x2="1506.4" y2="791.4395" gradientTransform="matrix(1 0 0 1 -601.88 -192.22)">
			<stop  offset="0" style="stop-color:#4F2D17"/>
			<stop  offset="0.49" style="stop-color:#D28C5F"/>
			<stop  offset="1" style="stop-color:#482914"/>
		</linearGradient>
		<polygon class="st27" points="904.9,706.1 892.2,706.4 881.8,617.1 877.7,531.5 877.7,494.2 888.4,494.2 894.8,531.5 899.2,594 
			903,667.8 		"/>
		<polygon class="st19" points="904.9,706.1 892.2,706.4 881.8,617.1 877.7,531.5 877.7,494.2 888.4,494.2 894.8,531.5 899.2,594 
			903,667.8 		"/>
	</g>
	<g id="g8423">
		
			<image style="overflow:visible;opacity:0.75;enable-background:new    ;" width="258" height="67" xlink:href="9E179A0B.png"  transform="matrix(0.9961 0 0 0.9851 707 451)">
		</image>
		<path class="st7" d="M708.5,466.1v16.1c5.1,1.8,10.4,3.1,15.8,4.1c6.6,1,86.8,10.7,90,10.7s48.6,0.6,53,0.6s24.3-1.6,28.1-1.6
			s49.3-16.7,49.3-16.7l0.3-4.1l-0.6-12.6l-4.1-1.6l-115.5-8.2l-12.3-1l-20.5,0.6l-52.4,7l-26.8,4.7L708.5,466.1z"/>
		<path class="st19" d="M708.8,466.4c0,0,27.1,8.2,36.3,8.2s79.2,6.6,84.6,6.6s59.7,0.3,59.7,0.3s7-0.6,12-1s39.8-13.2,41.7-14.8
			s1.2-2.9,1.2-2.9"/>
		
			<linearGradient id="SVGID_12_" gradientUnits="userSpaceOnUse" x1="1536.9264" y1="666.9288" x2="1489.4865" y2="682.0288" gradientTransform="matrix(1 0 0 1 -601.88 -192.22)">
			<stop  offset="0" style="stop-color:#8F5228"/>
			<stop  offset="1" style="stop-color:#D28C5F"/>
		</linearGradient>
		<path class="st28" d="M885.2,481.8l0.7,14.1l11.1-0.4l24.5-8.2l22.8-8.3l0.3-6.4l-0.5-7.1l-18.9,7.8c0,0-19.3,6.8-25.1,7.7
			C895.1,481.7,890.2,481.9,885.2,481.8L885.2,481.8z"/>
	</g>
	
		<image style="overflow:visible;opacity:0.75;enable-background:new    ;" width="163" height="212" xlink:href="9E179A15.png"  transform="matrix(0.9939 0 0 0.9953 779.99 301.99)">
	</image>
	<g id="g5420">
		<path d="M814.7,419.8c0,0.1,0,0.2-0.1,0.3c-0.1,0.1-0.2,0.2-0.4,0.3c-0.2,0.1-0.4,0.1-0.6,0.2c-0.2,0-0.4,0-0.7,0
			c-0.5,0-1.1-0.2-1.5-0.4l-0.4-0.2c-0.6-0.3-1.1-0.6-1.5-1.1c-0.1-0.2-0.3-0.4-0.3-0.6c0-0.1,0-0.2,0-0.3c0,0,0-0.1,0-0.1l0,0v-0.1
			l0,0l0,0l0.1-0.1l0.1-0.1c0.1-0.1,0.1-0.1,0.2-0.1c0.2-0.1,0.4-0.1,0.7-0.1c0.6,0,1.2,0.1,1.7,0.3l0.4,0.1
			c0.4,0.2,0.9,0.4,1.3,0.6c0.2,0.1,0.3,0.2,0.5,0.3c0.1,0.1,0.2,0.2,0.3,0.3c0.1,0.1,0.2,0.2,0.2,0.3
			C814.6,419.6,814.7,419.8,814.7,419.8L814.7,419.8z"/>
		<path d="M815,416c0,0.1,0,0.2,0,0.4c-0.1,0.1-0.1,0.2-0.2,0.3c-0.3,0.2-0.6,0.4-0.9,0.4c-0.4,0.1-0.8,0.1-1.2,0l-0.4-0.1
			c-1-0.3-1.7-0.9-1.6-1.5l0,0c0.1-0.6,1-1,2-0.9h0.4c0.3,0,0.7,0.1,1,0.3c0.3,0.1,0.5,0.3,0.7,0.5c0.1,0.1,0.2,0.2,0.2,0.3
			C815,415.7,815,415.9,815,416L815,416z"/>
		<path d="M814.4,425.3c0.1,0.4,0,0.7-0.3,1c-0.3,0.3-0.8,0.6-1.3,0.6c-0.3,0.1-0.7,0-1-0.1c-0.3-0.1-0.5-0.2-0.8-0.5
			c-0.1-0.1-0.1-0.2-0.2-0.3c0-0.1,0-0.2,0-0.3l0,0c0-0.1,0-0.2,0.1-0.3c0-0.1,0.1-0.2,0.2-0.3c0.2-0.2,0.4-0.4,0.6-0.5
			c0.2-0.1,0.5-0.2,0.8-0.3c0.4-0.1,0.8,0,1.2,0.1C814.1,424.7,814.3,425,814.4,425.3L814.4,425.3z"/>
		<path class="st29" d="M851.6,399.6c-1-0.7-1.8-0.4-2.9-0.2s-2.2,1.4-2.7,1.6h-0.2c-2.7,2.7-6,4.8-9.7,5.9
			c-9.6,3.3-16.8,0.4-24,9.4c-1.3,1.7-0.2,8.1,1.8,11.3c2.5,4,8.9,4.3,15,2.1c7.7-2.7,17.6-11.4,22-17.3c0.1-0.4,0.3-0.7,0.5-1
			c0.5-0.8,1-1.6,1.4-2.4c0.6-1.3,1.1-2.7,1.4-4.1c0-1.1-0.2-2.2-0.6-3.2C853.3,400.7,852.7,400.3,851.6,399.6L851.6,399.6z"/>
		<path class="st30" d="M854.2,403.6c-0.3,0.7-0.6,1.3-1,2s-0.9,1.7-1.5,2.5c-0.5,0.8-1.1,1.7-1.8,2.4c-0.5,0.7-1.2,1.4-1.9,2.1
			s-2.1,1.7-3,2.5s-1.7,1.7-2.7,2.6s-1.9,1.7-2.9,2.5s-2,1.6-3.1,2.4s-2.1,1.5-3.2,2.1s-2.1,1.2-3.1,1.8c-1,0.5-2,0.9-3,1.3
			c-0.8,0.3-1.5,0.5-2.3,0.7c-0.7,0.2-1.5,0.3-2.3,0.5c-0.7,0.1-1.5,0.2-2.2,0.2c-0.7,0-1.4,0-2.1-0.1c-0.6-0.1-1.3-0.2-1.9-0.4
			c-0.6-0.2-1.2-0.4-1.7-0.7c-0.2-0.2-0.5-0.3-0.7-0.5l0,0c2.5,4,8.9,4.3,15,2.1c7.7-2.7,17.6-11.4,22-17.3c0.1-0.4,0.3-0.7,0.5-1
			c0.5-0.8,1-1.6,1.4-2.4c0.6-1.3,1.1-2.7,1.4-4.1C854.2,404.4,854.2,404,854.2,403.6L854.2,403.6z"/>
		<path d="M853.9,401.9l0.2,2.5c-0.2,1.4-0.6,2.8-1.3,4.1c-0.6,1.2-1.4,2.3-2.2,3.4c-0.7,0.9-1.4,1.8-2.1,2.6s-1.4,1.5-2.1,2.2
			c-1.8,1.8-3.7,3.4-5.6,5c-2,1.6-4.1,3-6.3,4.3c-1.3,0.8-2.5,1.4-3.5,1.9c-0.7,0.3-1.5,0.7-2.5,1.1c-1.3,0.5-2.6,0.8-3.9,1.1
			c-1.5,0.3-3.1,0.4-4.6,0.3l0,0c-1.2-0.1-2.3-0.4-3.4-0.9c-0.9-0.4-1.7-1.1-2.3-2c-0.5-0.8-1-1.8-1.3-2.7l0,0
			c-0.4-1-0.7-2.1-0.9-3.2c-0.1-0.3-0.1-0.6-0.2-0.9c-0.1-0.7-0.1-1.4-0.1-2.1c0-0.4,0.1-0.7,0.2-1.1c0.1-0.2,0.2-0.5,0.3-0.6
			c0.7-0.9,1.5-1.7,2.4-2.4c1-0.8,2-1.5,3.1-2.1l0,0c0.9-0.5,1.8-0.8,2.7-1.1c0.9-0.3,1.9-0.5,2.9-0.7c1.1-0.2,2.2-0.3,3.2-0.5
			s2-0.2,3-0.4s2-0.3,2.8-0.5s1.5-0.3,1.9-0.5c0.6-0.2,1.4-0.4,2.3-0.8c1.6-0.6,3.1-1.2,4.6-2c1-0.5,1.9-1.2,2.8-1.9
			c0.7-0.6,1.3-1.2,2-1.8l0,0c0.7-0.7,1.5-1.3,2.3-1.8c0.7-0.5,1.5-0.7,2.3-0.7c0.6,0,1.1,0.2,1.6,0.6l0.7,0.9
			c0.5,0.6,0.8,0.9,0.9,0.9l0,0c0.7-0.5,0.7-0.5,0,0l0,0c-0.3-0.8-0.7-1.5-1.3-2.1c-0.2-0.2-0.5-0.4-0.8-0.6
			c-0.3-0.2-0.7-0.3-1.1-0.4c-0.5-0.1-0.9-0.1-1.4,0c-0.5,0.1-1,0.3-1.5,0.5c-0.9,0.5-1.8,1.1-2.7,1.7c-0.7,0.5-1.4,1.1-2,1.6
			c-0.8,0.6-1.7,1.1-2.6,1.5c-1.4,0.7-2.9,1.2-4.5,1.7c-2.2,0.7-4.3,1.1-6,1.5l-0.7,0.1c-2,0.4-4.1,0.7-6.2,1.3
			c-2,0.5-4,1.3-5.8,2.4c-1.1,0.7-2.2,1.5-3.1,2.4c-0.9,0.8-1.7,1.7-2.4,2.7c-0.2,0.3-0.4,0.6-0.4,0.9c-0.1,0.4-0.2,0.8-0.2,1.2
			c0,1,0,2.1,0.2,3.1c0.1,0.4,0.1,0.8,0.2,1.1c0.1,0.8,0.3,1.5,0.6,2.3c0.3,1,0.7,2.1,1.3,3l0,0c0.3,0.5,0.7,1,1.1,1.4
			c0.5,0.4,1,0.8,1.5,1.1c1.2,0.6,2.5,1,3.8,1.2c1.6,0.2,3.1,0.2,4.7,0c1.6-0.2,3.1-0.6,4.6-1.1l0,0c2.2-0.8,4.3-1.8,6.3-3.1
			c1.7-1,3.2-2.1,4.7-3.4c0.5-0.4,1-0.8,1.5-1.3c1.9-1.7,3.7-3.5,5.4-5.4l0,0c1.5-1.6,2.8-3.3,4-5.1c0.5-0.7,0.9-1.5,1.3-2.2
			c0.4-0.7,0.7-1.4,1-2.1c0.3-0.6,0.5-1.3,0.6-1.9c0.1-0.5,0.2-1.1,0.3-1.6L853.9,401.9L853.9,401.9z"/>
		<path class="st31" d="M817.7,421c0,0.9,0.8,1.7,1.7,1.6c0,0,0,0,0,0c0.2,0,0.4,0.1,0.5,0.4c0.1,1.2,1.1,2.2,2.4,2.1c0,0,0,0,0,0
			c1.2-0.1,2.6-1.2,2.1-2.4c-0.8-1.9-0.4-2.8-0.2-4.4c0-1.2-0.9-2.1-2.1-2.1c-0.1,0-0.2,0-0.3,0c-1.2,0.1-2.2,1.1-2.1,2.4
			c0,0,0,0,0,0c0,0.3,0.1,0.5-0.4,0.6C818.4,419.3,817.7,420.1,817.7,421z"/>
		
			<ellipse transform="matrix(0.9986 -5.285883e-02 5.285883e-02 0.9986 -21.2813 43.7945)" class="st32" cx="817.3" cy="424.2" rx="1.4" ry="1.4"/>
		
			<ellipse transform="matrix(0.9986 -5.285883e-02 5.285883e-02 0.9986 -21.0638 43.6957)" class="st33" cx="815.5" cy="420.1" rx="1.3" ry="1.3"/>
		
			<ellipse transform="matrix(0.9986 -5.285883e-02 5.285883e-02 0.9986 -20.8747 43.8124)" class="st34" cx="817.8" cy="416.5" rx="1.4" ry="1.4"/>
	</g>
	<path class="st29" d="M815.2,435.9c0,0,2.8,6,3,9.1s-3.3,8-3.8,9.9s-5,8.6-5,8.6l12-0.1l5.9-22l-1.4-6.3c-0.8,0-1.5-0.2-2.3-0.4
		c-2-0.3-4.1-0.2-6,0.4C816.9,435.5,816.1,435.8,815.2,435.9L815.2,435.9z"/>
	<path d="M806.9,464.3c0.8,0,1.7,0,2.5,0.1c0.7,0.1,1.3,0.2,2,0.3c0.2,0,0.4,0.1,0.6,0.1c0.3,0,0.6,0,0.9-0.1
		c0.7-0.1,1.5-0.3,2.3-0.5s1.6-0.5,2.1-0.6c0,0-0.6-0.1-1.5-0.3s-2-0.2-3-0.3c-0.5,0-1-0.1-1.4-0.1c-0.2,0-0.5,0-0.8,0l-1.3,0.5
		L806.9,464.3L806.9,464.3z"/>
	<path class="st29" d="M804,431.5c7.8-1.2,14.6,6.7,14.4,16.2c-0.2,9.8-7.9,17.9-14.2,16.8c-4.5-0.8-9-1.9-10.7-7.9
		c-0.6-3.1-0.9-6.2-0.7-9.3C793.7,438.1,798,432.4,804,431.5L804,431.5z"/>
	<path d="M812.6,460.4c-0.4,0.7-1,1.4-1.6,2c-0.6,0.5-1.2,0.9-1.9,1.2c-1,0.4-2,0.6-3.1,0.5c-1.4,0-2.7-0.2-4.1-0.6
		c-1.1-0.3-2.1-0.7-3-1.3c-0.5-0.3-1-0.7-1.5-1.2c-0.4-0.4-0.8-0.8-1.1-1.2c-0.4-0.6-0.8-1.2-1.1-1.9c-0.2-0.5-0.4-1.1-0.6-1.7
		c-0.1-0.3-0.2-0.6-0.2-0.9s-0.1-0.6-0.2-0.9c-0.1-0.7-0.2-1.5-0.3-2.4c-0.2-1.6-0.3-3.1-0.2-4.7c0.1-1,0.2-2,0.4-3
		c0.2-0.9,0.4-1.8,0.6-2.8c0.2-0.7,0.5-1.5,0.8-2.2c0.3-0.6,0.5-1.1,0.7-1.4c0.4-0.7,0.8-1.4,1.3-2c0.5-0.6,1.1-1.2,1.7-1.7
		c0.7-0.6,1.4-1.1,2.2-1.5c0.7-0.3,1.5-0.6,2.2-0.8c0.8-0.2,1.5-0.2,2.3-0.2c0.9,0,1.7,0.2,2.5,0.5c0.7,0.2,1.3,0.5,1.9,0.9
		c0.6,0.4,1,0.7,1.3,0.9c0.4,0.3,0.8,0.6,1.2,0.9c0.5,0.4,0.9,0.9,1.3,1.4c0.6,0.7,1.1,1.4,1.5,2.2c0.5,0.9,0.9,1.7,1.2,2.7
		c0.3,0.9,0.6,1.9,0.7,2.8c0.2,0.9,0.3,1.8,0.3,2.7c0,0.3,0,0.6,0.1,0.8c0,0.1,0.1,0.1,0.1-0.1c0.2-0.8,0.3-1.7,0.3-2.5
		c0-1.6-0.1-3.1-0.5-4.6c-0.2-0.9-0.5-1.8-0.9-2.6c-0.4-0.9-0.8-1.7-1.4-2.5l0,0c-0.6-0.9-1.2-1.6-2-2.3c-0.7-0.6-1.4-1.2-2.3-1.6
		c-0.3-0.2-0.7-0.3-1-0.5c-3.1-1.2-6.7-0.9-9.6,0.9c-1.5,1-2.8,2.2-3.9,3.7c-0.7,1.1-1.4,2.2-2,3.4c-0.5,1-1,2.1-1.4,3.1
		c-0.3,0.7-0.5,1.5-0.7,2.4s-0.4,1.8-0.5,2.8c-0.2,1.7-0.3,3.3-0.1,5c0,0.9,0.1,1.7,0.2,2.6c0.1,0.7,0.2,1.4,0.4,2.1
		c0.2,0.8,0.6,1.6,1,2.3c0.3,0.6,0.7,1.2,1.2,1.8c0.3,0.4,0.7,0.8,1.1,1.1c0.7,0.5,1.4,1,2.2,1.4c1.2,0.6,2.4,0.9,3.6,1.1
		c1.4,0.2,2.7,0.3,4.1,0.2c1.1,0,2.2-0.3,3.3-0.8c0.6-0.3,1.1-0.7,1.6-1.1c0.4-0.4,0.7-0.8,1-1.2c0.2-0.3,0.4-0.6,0.6-0.9
		L812.6,460.4L812.6,460.4z"/>
	<path class="st35" d="M795.8,461c1,1.4,2.5,1.5,3.8,0.2c2-1.8,3.1-6.5,2.5-10.3s-2.7-6.7-4.7-4.9s-3.3,7.7-2.6,11.5
		C794.8,458.7,795.2,459.9,795.8,461L795.8,461z"/>
	<path d="M795.4,461c0.2,0.4,0.6,0.7,0.9,0.9c0.4,0.3,0.8,0.4,1.2,0.5c0.5,0,1,0,1.4-0.2c0.4-0.2,0.7-0.4,1-0.7
		c0.4-0.4,0.8-0.8,1.1-1.3c0.3-0.4,0.5-0.8,0.7-1.2c0.3-0.7,0.6-1.4,0.8-2.1c0.2-0.6,0.3-1.2,0.5-1.8c0.1-0.5,0.2-0.9,0.2-1.4
		c0-0.4,0-0.8,0-1.3c-0.1-0.6-0.1-1.1-0.3-1.7c-0.2-0.9-0.5-1.8-0.9-2.6c-0.2-0.4-0.4-0.8-0.7-1.2c-0.2-0.3-0.5-0.6-0.8-0.9
		c-0.2-0.2-0.4-0.4-0.6-0.5c-0.2-0.1-0.4-0.2-0.5-0.3c-0.2-0.1-0.3-0.1-0.5-0.1c-0.3,0-0.6,0-0.9,0.1c-0.4,0.1-0.7,0.3-1,0.5
		c-0.3,0.3-0.7,0.6-0.9,1c-0.3,0.4-0.5,0.8-0.8,1.2c-0.5,1-1,2-1.3,3.1c-0.2,0.6-0.4,1.3-0.4,2c0,0.5,0,1.2,0,2.1
		c0,0.9,0.1,1.9,0.3,2.8c0.2,0.5,0.3,1,0.6,1.5c0.2,0.5,0.5,0.9,0.8,1.3c0.1,0.1,0.2,0.3,0.3,0.4l0,0l0,0c-0.1-0.4-0.3-0.7-0.4-1.1
		c-0.1-0.3-0.1-0.7-0.1-1c0-0.4,0-0.8,0-1.2c0-0.5,0.1-1,0.1-1.5s0.1-1,0.2-1.5c0.2-1,0.4-1.9,0.4-2.6c0-0.2,0-0.4,0-0.6
		c0.1-1,0.3-2,0.6-3c0.1-0.4,0.3-0.8,0.4-1.1c0.2-0.3,0.4-0.6,0.6-0.9c0.2-0.2,0.4-0.3,0.6-0.5c0.2-0.1,0.4-0.1,0.6-0.1
		c0.2,0,0.3,0.1,0.5,0.2c0.1,0.1,0.3,0.2,0.4,0.3c0.1,0.1,0.2,0.3,0.3,0.4c0.2,0.2,0.3,0.5,0.5,0.8c0.2,0.3,0.3,0.7,0.4,1
		c0.2,0.9,0.4,1.8,0.5,2.7c0.1,1,0.1,2.1,0,3.1c-0.1,1-0.3,1.8-0.3,2.4v0.2c-0.1,0.7-0.2,1.3-0.3,2c-0.1,0.4-0.2,0.8-0.4,1.2
		c-0.2,0.4-0.4,0.8-0.7,1.1l0,0c-0.2,0.3-0.5,0.6-0.9,0.8c-0.3,0.2-0.7,0.3-1.1,0.3c-0.3,0-0.7-0.1-1-0.2c-0.2-0.1-0.5-0.2-0.7-0.4
		c-0.1-0.1-0.3-0.2-0.4-0.4L795.4,461L795.4,461z"/>
	<path class="st31" d="M806.8,437.9c-0.7,1.1-1.1,2.3-1.3,3.6c-0.4,2.2-0.2,3.7,0.7,3.5s2-1.9,2.5-4.1s-0.1-4-1-3.7
		C807.3,437.3,807,437.6,806.8,437.9L806.8,437.9z"/>
	<path class="st31" d="M803.7,435.1c-0.7,0.7-1.3,1.5-1.6,2.5c-0.8,1.8-1,3.5-0.5,4.1s1.6-0.1,2.4-1.9s0.9-4.1,0.4-4.6
		C804.2,435,803.9,435,803.7,435.1L803.7,435.1z"/>
	<path class="st31" d="M799.3,435.4c-0.6,0.6-1,1.3-1.2,2.2c-0.5,1.6-0.6,3.1-0.1,3.6s1.3,0,1.9-1.6s0.5-3.6,0-4.1
		C799.7,435.3,799.4,435.3,799.3,435.4L799.3,435.4z"/>
	<path d="M803,432.7l1,0.1c0.7,0.2,1.4,0.5,2,0.9c0.5,0.3,0.9,0.7,1.3,1.2c0.3,0.4,0.6,0.8,0.8,1.3c0.2,0.5,0.4,1.1,0.6,1.6
		c0.1,0.4,0.2,0.9,0.2,1.3c0.1,0.8,0.1,1.4,0.1,2c0,0,0,0.1,0,0.1c0,0.7,0.1,1.9,0.2,3.2s0.1,2.7,0.1,3.8c0,0.8,0,1.5,0,1.9
		c-0.1,0.7-0.2,1.5-0.4,2.2c-0.3,1.1-0.6,2.2-1,3.2c-0.3,0.8-0.6,1.6-0.9,2.2s-0.5,1.1-0.6,1.4c-0.3,0.7-0.6,1.5-1.1,2.1
		c-0.5,0.7-1,1.3-1.7,1.8c-0.5,0.4-1.1,0.6-1.8,0.7c-0.3,0-0.4,0.1-0.4,0.1s0.1,0.1,0.3,0.2c0.3,0.1,0.7,0.1,1,0.1
		c0.5,0,1-0.1,1.4-0.3c0.5-0.2,0.9-0.4,1.3-0.7c0.4-0.3,0.8-0.6,1.2-1c0.5-0.5,1-1.2,1.4-1.8c0.3-0.5,0.6-1.1,0.8-1.8
		c0.2-0.9,0.4-1.8,0.5-2.8c0.2-1.3,0.3-2.6,0.4-3.8s0.1-2.1,0.3-2.7c0-0.3,0.1-0.7,0.2-1.2l0,0c0.2-0.9,0.3-2,0.5-3.3
		s0.2-2.6,0.2-3.8c0-0.7,0-1.4-0.2-2.1c-0.1-0.5-0.2-1-0.4-1.5c-0.3-0.7-0.7-1.4-1.1-2c-0.4-0.5-0.8-1-1.3-1.4c-0.5-0.4-1-0.7-1.6-1
		c-0.4-0.2-0.8-0.3-1.3-0.4c-0.3-0.1-0.7-0.1-1-0.1L803,432.7L803,432.7z"/>
	<path class="st29" d="M881.7,444.9c0,0,5-4.3,8-0.9s-2.1,12.4-7.4,13.9s-5.4-0.3-5.4-0.3"/>
	<path class="st29" d="M872.4,387.4c9.4,16.4,9.9,42.6,9.8,53.2c-0.1,7.8-6.3,22.3-16.9,25.6c-4.2,1.3-25.6,12-30.7,9.8
		c-8-3.5,0.6-22.7-2.5-24.4c-10.1-5.7-4.7-23.1-2.8-29.6c2.3-8.3,21.1-29,39.5-38.7"/>
	<path class="st36" d="M837,414.4c-4.7,0.2-6.8,4.1-9,11.8c-2.6,8.8-2.4,20.1,2.3,22.9s10.4-0.8,13-9.6s2.5-22.5-2.1-24.5
		C839.8,414.7,838.4,414.4,837,414.4L837,414.4z"/>
	<path d="M830.5,448.3c-0.3-0.4-0.5-0.9-0.7-1.4c-0.2-0.5-0.4-1-0.5-1.5c-0.1-0.6-0.2-1.2-0.1-1.8c0-0.5,0.1-1,0.1-1.5s0-1,0-1.6
		c0-1,0.2-2.1,0.3-3.2s0.3-2.2,0.5-3.4c0.2-1.3,0.5-2.6,0.8-3.8s0.6-2.5,1-3.6c0.5-1.5,1.1-2.9,1.7-4.3c0.6-1.2,1.1-2.1,1.4-2.7
		c0.5-0.8,1-1.6,1.6-2.4c0.3-0.4,0.6-0.7,1-1c0.4-0.4,0.8-0.7,1.2-1c0.9-0.7,1.8-1.3,2.8-1.8c0.8-0.5,1.6-0.9,2.5-1.4
		c0.3-0.1,0.5-0.3,0.8-0.5l0.3-0.2c0.1-0.1,0.1-0.1,0.2-0.2l2.2-4.5c0.5-1.4,1.2-2.7,2-3.9l0.2-0.3c0.2-0.3,0.4-0.5,0.5-0.7l0.2-0.3
		l0-0.1l-0.1-0.1l0,0l0,0l0,0l0,0l0,0l0.1,0.1l-0.1,0.1l-0.3,0.3c-0.3,0.3-0.6,0.7-0.8,1c-0.4,0.5-0.7,1.1-1.1,1.6
		c-0.4,0.7-0.8,1.5-1.1,2.3l-2.3,4.5l0,0l-0.1,0.1l0,0l-0.2,0.1l0,0c-0.3,0.2-0.5,0.3-0.8,0.4c-0.8,0.4-1.7,0.9-2.5,1.3
		c-1,0.5-2,1.1-2.9,1.8c-0.9,0.6-1.7,1.3-2.3,2.1c-1.5,1.9-2.7,4-3.6,6.3c-0.5,1.1-0.8,2.2-1.2,3.4c-0.7,2.5-1.3,5-1.6,7.5
		c-0.3,2.2-0.6,4.4-0.7,6.7c0,1.1,0,2.1-0.1,3.1c-0.1,0.6,0,1.2,0.1,1.8c0.1,0.5,0.3,1.1,0.5,1.6c0.3,0.6,0.5,1.2,0.9,1.7
		c0.3,0.5,0.6,1,0.9,1.3l0.1,0.1c0.8,1,1.7,1.9,2.7,2.8c-0.8-1.1-1.7-2.1-2.6-3.1C831.2,449.4,830.8,448.8,830.5,448.3L830.5,448.3z
		"/>
	<path d="M846.1,412c-0.4,0-0.8-0.1-1.1-0.1c-0.5-0.1-1-0.2-1.3-0.2h-0.1c-0.3,0-0.6,0-0.9,0c-0.3,0-0.7-0.1-1-0.2
		c-0.1,0-0.2,0-0.1,0.1c0.1,0.1,0.3,0.2,0.5,0.3c0.3,0.1,0.5,0.2,0.8,0.3c0.3,0.1,0.6,0.1,0.8,0.1h0.2l1.4-0.1c0.3,0,0.7,0,1,0
		c0.2,0,0.3,0,0.3-0.1S846.4,412,846.1,412L846.1,412z"/>
	<path d="M846.9,409.8c-0.3,0-0.5-0.1-0.8-0.2c-0.3-0.1-0.5-0.2-0.8-0.2l0,0c-0.4,0-0.8-0.1-1.2-0.1c-0.2,0,0,0.1,0.2,0.3
		c0.3,0.2,0.6,0.4,0.9,0.5c0.1,0,0.2,0,0.3,0l0.9-0.1c0.2,0,0.4,0,0.7,0c0.1,0,0.2,0,0.2-0.1S847.2,409.8,846.9,409.8L846.9,409.8z"
		/>
	<path d="M871.8,387.7c1.3,2.3,2.4,4.6,3.4,7c0.9,2.2,1.7,4.3,2.3,6.2l0,0c0.8,2.6,1.5,5.3,2.1,8c0.5,2.3,0.8,4.3,1,6.1
		c0.3,2,0.4,3.6,0.5,5s0.2,2.6,0.3,3.8s0.2,2.8,0.3,4.6c0.1,1.6,0.1,3.5,0.1,5.4s-0.1,3.9-0.3,5.8c-0.1,1.4-0.3,2.8-0.5,4.1
		s-0.4,2.3-0.6,3.2s-0.4,1.8-0.6,2.5c-0.1,0.5-0.3,0.9-0.3,1.2s-0.4,1.2-0.8,2c-0.4,1-0.9,2-1.4,2.9c-0.5,0.9-1.1,1.9-1.8,2.7
		c-0.7,0.9-1.5,1.8-2.4,2.6l0,0c-1.1,1-2.3,1.9-3.6,2.6c-1.6,1-3.3,1.8-4.8,2.5c-2.7,1.3-5,2.2-6.1,2.7s-3,1.3-5.2,2.2
		c-1.6,0.6-3.3,1.3-5.2,1.9s-3.7,1.3-5.6,1.8c-1.4,0.4-2.8,0.8-4.1,1.2l-1.4,0.4c-0.6,0.1-1,0.2-1.2,0.3s-0.2,0.1,0,0.1
		c0.3,0,0.6,0,1,0c0.5,0,1.1-0.1,1.8-0.2c1.2-0.2,2.6-0.4,4.3-0.8s3.5-0.8,5.4-1.3s3.8-1.1,5.7-1.7s3.5-1.2,5-1.8s3-1.3,4.1-1.9
		c0.8-0.4,1.5-0.8,2.3-1.2c1.6-0.9,3.2-1.9,4.8-3c1.3-0.9,2.5-1.9,3.7-3c1.6-1.7,3-3.7,4-5.8l0,0c1-2.1,1.8-4.2,2.4-6.4l0.2-0.7
		c0.3-1,0.8-2.8,1.3-5c0.3-1.2,0.5-2.6,0.7-4.1l0,0c0.3-1.7,0.5-3.6,0.6-5.5s0.2-3.9,0.1-5.8l0,0c0-2.7-0.2-5.3-0.4-7.7
		s-0.5-4.4-0.8-6c-0.1-0.4-0.2-0.8-0.2-1.1c-0.3-1.4-0.8-3.5-1.5-5.7s-1.5-4.8-2.4-7.2c-0.7-1.7-1.4-3.4-2.1-5s-1.4-3-2.1-4.1
		s-1.2-2.1-1.6-2.8S871.8,387.8,871.8,387.7L871.8,387.7z M826.6,438.3c0-1.9,0.1-3.7,0.2-5.6c0.1-1.5,0.4-3,0.8-4.4l0,0
		c0.3-1.2,0.8-2.4,1.3-3.6c0.5-1,0.9-1.9,1.3-2.7s0.8-1.4,1.1-1.9s0.7-1,1-1.5l1.1-1.5c0.5-0.7,1.1-1.7,2-2.9c0.7-0.9,1.4-2,2.1-3
		s1.5-2.1,2.3-3.1c1.5-2,2.9-3.6,3.5-4.4l0.4-0.5c0.5-0.6,1.3-1.4,2.3-2.3s2.1-1.9,3.3-2.9s2.4-2,3.5-2.9s2.2-1.7,2.9-2.3
		c0.5-0.4,0.8-0.6,1.1-0.9c1-0.9,2.8-2.4,5-3.8c1.1-0.7,2.2-1.5,3.3-2.1s2.2-1.3,3.2-1.8c0.5-0.2,0.7-0.4,0.7-0.4s-0.2,0-0.5,0
		c-1.3,0.3-2.5,0.8-3.8,1.3c-1.9,0.8-3.7,1.7-5.4,2.7c-1.7,1-3.3,2.1-4.9,3.4c-0.3,0.3-0.6,0.5-0.8,0.7c-2,1.8-3.9,3.8-5.7,5.7
		s-3.4,3.7-4.6,5.1c-0.5,0.5-0.9,1-1.3,1.4c-0.6,0.6-1.8,1.8-3.3,3.4s-3.2,3.5-4.7,5.5c-1.2,1.5-2.3,3.1-3.2,4.5l0,0
		c-0.5,0.7-0.9,1.4-1.2,2c-0.3,0.5-0.6,1.1-0.8,1.7v0.1c-0.3,0.7-0.7,1.7-1,2.9c-0.4,1.3-0.7,2.5-1,3.8c-0.2,1.2-0.3,2.4-0.4,3.7
		c0,1.2,0,2.3,0,3.3s0.1,1.8,0.1,2.4s0.1,0.9,0.1,0.9L826.6,438.3z"/>
	<g id="g4320">
		<path class="st29" d="M874.1,392.8c-1.3-0.3-2,0.4-3,1s-1.6,2.4-2,2.8l-0.2,0.1c-1.6,3.9-4.1,7.3-7.2,10.1
			c-8.3,7.4-16.7,7.5-20.3,19.6c-0.7,2.2,3.2,8.2,6.6,10.6c4.2,3,10.8,0.6,16.1-4.2c6.6-6,13-18.9,14.9-26.7c0-0.4,0-0.8,0.1-1.3
			c0.2-1,0.3-2,0.3-3c0.1-1.6-0.1-3.2-0.4-4.8c-0.4-1.1-1.1-2.1-1.9-3C876.3,393.2,875.5,393.1,874.1,392.8L874.1,392.8z"/>
		<path class="st30" d="M878.4,395.8c0,0.8-0.1,1.6-0.2,2.5c-0.1,1-0.2,2.1-0.4,3.2c-0.2,1.1-0.4,2.2-0.8,3.2
			c-0.3,0.9-0.6,1.9-1,2.9s-1.4,2.6-1.9,3.8s-1,2.5-1.6,3.7s-1.2,2.5-1.9,3.8s-1.4,2.5-2.1,3.7s-1.5,2.4-2.3,3.5s-1.6,2.1-2.4,3.1
			c-0.8,0.9-1.6,1.8-2.5,2.6c-0.7,0.6-1.3,1.1-2,1.7c-0.7,0.5-1.4,1-2.1,1.4c-0.7,0.4-1.4,0.8-2.2,1.1c-0.7,0.3-1.4,0.6-2.2,0.8
			c-0.7,0.2-1.4,0.3-2.1,0.4c-0.7,0.1-1.3,0.1-2,0c-0.3,0-0.6-0.1-0.9-0.2l0,0c4.2,3,10.8,0.6,16.1-4.2c6.6-6,13-18.9,14.9-26.7
			c0-0.4,0-0.8,0.1-1.3c0.2-1,0.3-2,0.3-3c0.1-1.6-0.1-3.2-0.4-4.8C878.8,396.5,878.6,396.1,878.4,395.8L878.4,395.8z"/>
		<path d="M877.4,394.1l1.3,2.4c0.4,1.5,0.5,3.1,0.4,4.7c-0.1,1.5-0.4,2.9-0.8,4.4c-0.3,1.2-0.7,2.4-1,3.5s-0.8,2.1-1.2,3.1
			c-1.1,2.5-2.3,5-3.6,7.4c-1.3,2.4-2.9,4.8-4.5,7c-1,1.3-1.9,2.4-2.8,3.4c-0.5,0.6-1.2,1.3-2.1,2.1c-1.1,1-2.3,2-3.5,2.8
			c-1.4,0.9-2.9,1.7-4.5,2.2c-1.2,0.4-2.5,0.6-3.8,0.5c-1.1,0-2.3-0.4-3.2-1c-0.9-0.6-1.8-1.4-2.5-2.2c-0.8-0.9-1.6-1.9-2.3-2.9
			c-0.2-0.3-0.4-0.6-0.5-0.8s-0.3-0.5-0.5-0.9c-0.2-0.4-0.4-0.8-0.5-1.2c-0.1-0.4-0.2-0.8-0.2-1.2c0-0.3,0-0.5,0-0.8
			c0.4-1.2,0.8-2.3,1.4-3.4c0.6-1.2,1.4-2.4,2.3-3.5l0,0c0.7-0.8,1.4-1.6,2.3-2.3c0.8-0.7,1.7-1.3,2.6-1.9l0,0c1-0.7,2-1.3,3-1.8
			s2-1.1,2.8-1.6s1.9-1.2,2.7-1.7s1.3-1,1.7-1.3s1.2-1,2-1.7c0.6-0.5,1.2-1.1,1.8-1.8c0.7-0.7,1.4-1.4,2-2.2c0.8-1,1.4-2,2-3.1
			c0.5-0.9,0.8-1.8,1.2-2.6c0.5-1,1-1.9,1.6-2.8c0.5-0.8,1.2-1.4,2.1-1.7c0.6-0.2,1.3-0.2,1.9,0c0.4,0.1,0.7,0.2,1.1,0.4l0.5,0.3
			c0.5,0.3,0.7,0.4,0.7,0.4l0,0c0.5-0.7,0.5-0.7,0,0l0,0c0,0-0.2-0.3-0.5-0.6c-0.2-0.2-0.4-0.3-0.7-0.5c-0.3-0.2-0.6-0.3-0.9-0.5
			c-0.3-0.1-0.7-0.2-1.1-0.2c-0.4,0-0.8,0-1.2,0.1c-0.5,0.1-1,0.3-1.4,0.6c-0.5,0.3-0.9,0.7-1.3,1.2c-0.7,0.9-1.4,1.8-1.9,2.9
			c-0.5,0.8-0.9,1.7-1.4,2.5c-0.6,1-1.3,1.9-2,2.7c-1.2,1.3-2.5,2.5-3.8,3.6c-1.7,1.4-3.6,2.8-5.5,4l-0.6,0.4
			c-1.8,1.2-3.8,2.5-5.7,3.9l0,0c-1.9,1.3-3.5,3-4.9,4.8c-0.8,1.2-1.6,2.4-2.1,3.7c-0.5,1.2-1,2.4-1.3,3.7c-0.1,0.4-0.1,0.7,0,1.1
			c0.1,0.4,0.2,0.9,0.3,1.3c0.4,1,0.9,2.1,1.5,3c0.2,0.4,0.5,0.7,0.7,1c0.5,0.7,1,1.4,1.5,2c0.7,0.9,1.6,1.8,2.5,2.5
			c0.5,0.4,1.1,0.7,1.7,0.9c0.6,0.3,1.3,0.4,2,0.5c1.5,0.1,2.9,0,4.3-0.4c1.7-0.5,3.2-1.1,4.7-2c1.5-0.9,2.9-1.9,4.2-3
			c1.9-1.7,3.6-3.7,5.1-5.8c1.2-1.7,2.4-3.5,3.3-5.4c0.3-0.6,0.6-1.3,1-2c1.2-2.5,2.3-5.1,3.2-7.7l0,0c0.8-2.2,1.4-4.5,1.9-6.8
			c0.2-0.9,0.3-1.9,0.4-2.7c0.1-0.8,0.1-1.6,0.1-2.5c0-0.7-0.1-1.5-0.2-2.2c-0.1-0.6-0.2-1.2-0.4-1.8L877.4,394.1L877.4,394.1z"/>
		<path d="M845.3,428.8c0,0.1,0,0.2,0,0.4c-0.1,0.2-0.1,0.3-0.3,0.4c-0.2,0.2-0.3,0.3-0.5,0.4c-0.2,0.1-0.4,0.2-0.7,0.3
			c-0.6,0.2-1.1,0.3-1.7,0.3h-0.5c-0.7,0-1.3-0.2-1.9-0.4c-0.2-0.1-0.4-0.2-0.6-0.4c-0.1-0.1-0.1-0.1-0.2-0.2c0,0,0-0.1,0-0.1
			c0-0.1,0-0.1,0-0.1l0,0l0,0l0,0c0,0,0,0,0-0.1l0,0c0,0,0-0.1,0-0.1c0-0.1,0.1-0.1,0.2-0.2c0.2-0.2,0.4-0.3,0.6-0.4
			c0.6-0.2,1.2-0.3,1.9-0.4h0.5c0.5,0,1,0,1.5,0.1c0.2,0,0.4,0.1,0.6,0.1c0.2,0,0.3,0.1,0.5,0.2c0.1,0.1,0.2,0.1,0.3,0.2
			C845.1,428.7,845.2,428.7,845.3,428.8L845.3,428.8z"/>
		<path d="M844,424.9c0.1,0.2,0.1,0.5,0,0.7c-0.2,0.3-0.5,0.6-0.8,0.8c-0.3,0.2-0.7,0.4-1.1,0.5l-0.4,0.1c-0.5,0.1-1,0.1-1.5,0
			c-0.2-0.1-0.4-0.1-0.5-0.3c-0.1-0.1-0.1-0.1-0.2-0.2l-0.1-0.1v-0.1l0,0l0,0l0,0v-0.1c0,0,0-0.1,0-0.1c0-0.1,0-0.2,0.1-0.2
			c0.1-0.2,0.2-0.3,0.3-0.5c0.4-0.3,0.8-0.6,1.2-0.7l0.4-0.1c0.4-0.1,0.7-0.2,1.1-0.2c0.3,0,0.6,0,0.9,0.1
			C843.7,424.6,843.9,424.7,844,424.9L844,424.9z"/>
		<path d="M847.4,434.5c0.2,0.3,0.2,0.7,0,1.1c-0.2,0.5-0.6,0.9-1,1.1c-0.3,0.2-0.6,0.3-1,0.4c-0.3,0.1-0.6,0-0.9-0.1
			c-0.1,0-0.2-0.1-0.3-0.2c-0.1-0.1-0.1-0.2-0.2-0.3l0,0c0-0.1,0-0.2,0-0.3c0-0.1,0-0.2,0-0.3c0.1-0.3,0.2-0.5,0.4-0.7
			c0.2-0.2,0.4-0.4,0.7-0.6c0.4-0.2,0.8-0.4,1.3-0.4C846.7,434,847.1,434.2,847.4,434.5L847.4,434.5z"/>
	</g>
	<g id="g4380">
		<g id="g4181">
			<path class="st29" d="M844.8,352.3c0,0-3.6-1.9-4-2.7s-4.3-7.1-4.4-10.5s0.1-7.9,2-10.7s5.1-5.6,6.4-5.9c1.3-0.3,4.6,1.9,5.2,2.9
				s4.9,7.4,5.2,8S844.8,352.3,844.8,352.3L844.8,352.3z"/>
			<path class="st37" d="M844.8,322.6L844.8,322.6c-1.3,0.3-4.5,3.1-6.4,5.9s-2,7.3-2,10.7s3.8,9.6,4.3,10.5s4,2.7,4,2.7l1.2-2.1
				c-0.3-0.2-0.4-0.2-0.8-0.4s-1-0.6-1.4-0.9c-0.3-0.2-0.6-0.5-0.8-0.8c-0.1-0.2-0.4-0.8-0.9-1.5s-1-1.7-1.5-2.8
				c-0.3-0.5-0.5-1.1-0.7-1.6s-0.5-1.1-0.6-1.6c-0.2-0.5-0.3-1-0.5-1.5c-0.1-0.5-0.2-0.9-0.2-1.4c0-0.8,0-1.8,0-2.7
				c0-1,0.1-1.9,0.2-2.9c0.1-0.5,0.2-1,0.3-1.4s0.2-0.9,0.4-1.3c0.1-0.4,0.3-0.8,0.5-1.3c0.2-0.4,0.4-0.8,0.6-1.1
				c0.5-0.7,1-1.4,1.6-2c0.6-0.6,1.2-1.3,1.8-1.8C844.3,322.9,844.6,322.8,844.8,322.6L844.8,322.6z"/>
			<path d="M855.6,334.2L855.6,334.2L855.6,334.2v-0.1l-0.2-0.4c-0.2-0.5-0.4-0.9-0.6-1.3l0,0c-0.8-1.6-1.5-2.9-2.2-4
				c-0.6-1-1.1-1.8-1.6-2.5s-1-1.3-1.4-1.8c-0.5-0.6-1.1-1.2-1.8-1.7c-0.5-0.5-1.2-0.8-1.9-1c-0.2,0-0.3-0.1-0.5-0.1
				c-0.3,0-0.6,0-0.9,0.1c-0.4,0.1-0.7,0.3-1.1,0.5c-0.4,0.3-0.9,0.6-1.2,1c-0.4,0.4-0.8,0.9-1.2,1.3c-0.4,0.5-0.8,1.1-1.2,1.7
				s-0.7,1.1-1,1.7c-0.6,1.1-1,2-1.2,2.5c-0.1,0.3-0.4,0.8-0.6,1.5c-0.2,0.5-0.4,1.1-0.5,1.6c-0.2,0.7-0.3,1.3-0.3,2l0,0
				c-0.1,0.7-0.1,1.3-0.1,2s0,1.4,0.1,2l0,0c0.1,1.3,0.3,2.5,0.5,3.8c0.1,0.6,0.2,1.1,0.3,1.6s0.2,0.8,0.3,1.1l0,0
				c0.4,1,1,2,1.7,2.8c0.7,0.7,1.4,1.4,2.2,2c0.7,0.5,1.4,1,2.1,1.4c0.3,0.2,0.6,0.4,1,0.5c0.1,0.1,0.3,0.1,0.5,0.1
				c0.1,0,0-0.1,0-0.2s-0.3-0.2-0.5-0.4l-0.8-0.7c-0.5-0.5-1.2-1.1-1.9-1.9c-0.7-0.7-1.3-1.5-1.9-2.3c-0.3-0.4-0.5-0.8-0.7-1.2
				c-0.2-0.4-0.4-0.8-0.5-1.2c-0.2-0.7-0.4-1.3-0.5-1.9l-0.1-0.5c-0.3-1.1-0.5-2.2-0.7-3.4c-0.2-1.2-0.3-2.5-0.3-3.7l0,0
				c0-0.6,0.1-1.2,0.2-1.8c0.1-0.5,0.2-1,0.4-1.5c0.3-0.8,0.6-1.6,1-2.3c0.2-0.4,0.6-1.1,1.2-1.8c0.6-0.9,1.3-1.7,2-2.5
				c0.7-0.7,1.4-1.3,2.3-1.8c0.3-0.2,0.7-0.3,1-0.4c0.3-0.1,0.6-0.1,0.9,0l0,0c0.6,0.1,1.1,0.4,1.5,0.7c0.4,0.3,0.8,0.6,1,0.8
				s0.4,0.3,0.6,0.5c0.6,0.5,1.1,1,1.6,1.5c0.6,0.6,1.2,1.4,1.7,2.1c1,1.3,1.8,2.6,2.5,3.7c0.3,0.5,0.5,0.9,0.7,1.2l0.2,0.3l0,0
				l0,0.1l0,0l0,0L855.6,334.2z"/>
			<path class="st35" d="M853.2,338.9c-1.2,1.6-2.2,3.2-3.1,4.9c-0.6,1.5-1.5,2.8-2.5,4c-0.4-0.1-0.8-0.2-1.2-0.4
				c-0.8-1.3-1.5-2.8-2.1-4.2c-0.5-1.6-1.8-3.1-1.2-5s1.1-5.1,2.4-5.2c1.3-0.2,2.6-0.1,3.9,0.2c0.7,0.4,1.4,0.8,1.9,1.4
				C851.7,335.1,853.8,338.1,853.2,338.9L853.2,338.9z"/>
			<path class="st38" d="M845.3,333.1c-1.2,0.5-1.7,3.3-2.2,5.1s0.7,3.3,1.2,5c0.6,1.5,1.3,2.9,2.1,4.2c0.4,0.2,0.8,0.3,1.2,0.4
				c0.3-0.2,0.5-0.5,0.7-0.9c-0.2,0-0.4-0.1-0.6-0.1c-0.3-0.1-0.5-0.2-0.5-0.2s-0.4-0.6-0.8-1.5c-0.2-0.4-0.5-0.9-0.7-1.4
				c-0.2-0.4-0.4-0.9-0.5-1.4c-0.1-0.4-0.3-0.8-0.5-1.2c-0.2-0.4-0.4-0.8-0.5-1.2c-0.1-0.2-0.1-0.4-0.2-0.6
				c-0.1-0.2-0.1-0.4-0.1-0.6c-0.1-0.4,0-0.9,0.1-1.3c0.1-0.5,0.3-1,0.4-1.6s0.3-1.1,0.5-1.7c0.1-0.2,0.2-0.5,0.3-0.7
				C845.2,333.3,845.3,333.2,845.3,333.1L845.3,333.1z"/>
			<path d="M853.2,338.8c-0.4,0.4-0.9,0.8-1.3,1.2c-0.4,0.4-0.7,0.8-1,1.2s-0.7,0.9-1,1.4c-0.3,0.4-0.5,0.8-0.7,1.3
				c-0.2,0.4-0.4,0.8-0.7,1.2c-0.2,0.3-0.4,0.6-0.6,0.8c-0.2,0.3-0.4,0.5-0.7,0.7c-0.2,0.1-0.3,0.2-0.4,0.2h0.2l-0.1-0.1
				c-0.2-0.2-0.4-0.4-0.5-0.7c-0.2-0.3-0.5-0.7-0.8-1.1s-0.5-0.9-0.8-1.3s-0.6-1.1-0.8-1.7s-0.4-1-0.5-1.4c-0.1-0.2-0.1-0.4-0.2-0.5
				c-0.1-0.3-0.1-0.7-0.2-1c0-0.4,0-0.8,0.1-1.1l0,0c0.2-0.6,0.4-1.2,0.8-1.8c0.3-0.5,0.7-0.9,1.2-1.3c0.3-0.3,0.6-0.5,1-0.7
				l0.7-0.3c0.2-0.1,0.5-0.2,0.7-0.3c0.2,0,0.3,0,0.5,0c0.2,0,0.4,0.1,0.7,0.1c0.5,0.2,0.9,0.4,1.4,0.7c0.5,0.3,0.9,0.7,1.3,1
				c0.2,0.1,0.3,0.2,0.3,0.1l0,0c-0.3-0.7-0.8-1.4-1.3-2c-0.4-0.5-0.9-0.9-1.4-1.2c-0.4-0.3-1-0.5-1.6-0.5c-0.4,0-0.7,0.1-1.1,0.2
				c-0.3,0.1-0.6,0.3-0.9,0.5c-0.3,0.3-0.7,0.6-1,1c-0.5,0.6-0.9,1.3-1.2,2c-0.3,0.7-0.5,1.5-0.6,2.3c-0.1,0.5-0.1,1,0,1.5
				c0.1,0.6,0.2,1.1,0.3,1.6v0.2c0.1,0.3,0.2,0.8,0.3,1.4s0.4,1.3,0.7,2c0.4,1,0.9,2,1.4,3c0.2,0.3,0.4,0.6,0.7,0.9
				c0.1,0.1,0.2,0.2,0.3,0.3c0.1,0.1,0.3,0.1,0.5,0.1c0.3-0.1,0.6-0.3,0.9-0.5c0.3-0.3,0.6-0.6,0.8-1c0.1-0.2,0.2-0.4,0.3-0.6
				c0.3-0.6,0.6-1.3,0.8-2c0.1-0.4,0.3-0.9,0.5-1.3c0.2-0.5,0.5-1.1,0.8-1.6s0.5-0.8,0.7-1.2s0.5-0.7,0.6-0.9
				C852.8,339.4,853,339.1,853.2,338.8L853.2,338.8z"/>
			<path d="M839.1,331.3L839.1,331.3L839.1,331.3L839.1,331.3L839.1,331.3c-0.1,0-0.2,0-0.2,0c-0.1,0-0.2-0.1-0.3-0.2
				c-0.3-0.2-0.5-0.5-0.7-0.8l-0.2-0.4c-0.1-0.2-0.2-0.4-0.3-0.6c-0.1-0.2-0.2-0.5-0.3-0.7c0-0.1-0.1-0.2-0.1-0.4
				c0-0.1-0.1-0.2-0.1-0.4c0-0.1,0-0.2,0.1-0.4c0.1-0.1,0.2-0.2,0.3-0.3c0.1-0.1,0.3-0.1,0.5,0c0.2,0,0.4,0.1,0.5,0.3
				c0.3,0.2,0.5,0.5,0.6,0.8c0.1,0.2,0.2,0.4,0.3,0.6c0.2,0.5,0.3,1,0.3,1.5c0,0.2,0,0.4-0.1,0.6c0,0.1-0.1,0.1-0.1,0.2l0,0
				l-0.1,0.1l0,0l0,0L839.1,331.3z"/>
			<path d="M838.1,333.8c-0.1,0.3-0.3,0.5-0.6,0.5c-0.4,0-0.8-0.1-1.1-0.2l-0.3-0.1c-0.4-0.1-0.7-0.2-1.1-0.5
				c-0.1-0.1-0.2-0.2-0.3-0.3c-0.1-0.1-0.1-0.2-0.2-0.3c-0.1-0.1-0.1-0.2-0.2-0.3c0-0.1-0.1-0.2-0.1-0.3c0-0.1,0-0.2,0-0.3
				c0-0.1,0.1-0.2,0.2-0.3c0.1-0.1,0.2-0.2,0.3-0.2c0.1-0.1,0.3-0.1,0.4-0.1c0.4-0.1,0.9,0,1.3,0.1l0.3,0.1l0,0
				c0.4,0.3,0.8,0.7,1.1,1.1C838.1,333.1,838.2,333.5,838.1,333.8L838.1,333.8z"/>
		</g>
		<path class="st29" d="M833,359.4c0,0,0.5-10.1,1.4-12.4s3.6-9.6,5.9-11.8s4.9-5.6,9-7.8s15.9-4.1,18.5-4.1s8.1,2,10,2.9
			s6.3,6.8,8.5,9.6s7,13.8,7.6,16s2.5,11.8,2.1,15.1s-1.1,9.3-3.1,12.1s-8.8,8.9-11.3,9.4s-21.6,7.8-27.1,6.1s-15.6-11.3-16-13.8
			S833.2,362.5,833,359.4L833,359.4z"/>
		<path class="st38" d="M867.8,323.4c-2.6,0-14.4,2-18.5,4.1s-6.8,5.6-9,7.8s-5,9.5-5.9,11.8s-1.4,12.4-1.4,12.4
			c0.1,3.1,5.1,18.9,5.5,21.4s9.1,11.9,14.6,13.6c1.1,0.4,2.2,0.3,4.5-0.5c-1.6,0.2-2.5,0.4-3.4,0.1c-5.5-1.8-14.2-10.8-14.6-13.3
			s-5.4-18.3-5.5-21.4c0,0,0.5-10.1,1.4-12.4s3.6-9.6,5.9-11.8s4.9-5.6,9-7.8s15.2-4,18.2-4.1L867.8,323.4L867.8,323.4z"/>
		<path d="M837.2,356.1c0.1-0.1,0.3-0.1,0.5-0.1c0.1,0,0.2,0,0.3,0c0.1,0,0.2,0,0.3,0.1c0.1,0,0.2,0.1,0.2,0.1
			c0.2,0,0.3,0.1,0.4,0.2c0.2,0.1,0.4,0.2,0.5,0.3c0.1,0,0.1,0,0.1-0.1c0-0.1-0.1-0.3-0.2-0.4c-0.1-0.2-0.2-0.3-0.4-0.5
			c-0.1-0.1-0.3-0.2-0.5-0.2h-0.1c-0.3,0-0.6,0.1-0.8,0.2c-0.2,0.1-0.4,0.2-0.5,0.3s-0.2,0.1-0.1,0.2S837,356.2,837.2,356.1
			L837.2,356.1z"/>
		<path d="M837.9,354.2c0.1-0.1,0.2-0.1,0.3-0.1c0.1,0,0.2,0,0.3,0h0c0.1,0,0.1,0,0.2,0c0.1,0,0.2,0.1,0.3,0.1c0,0,0.1,0,0-0.1
			c0-0.1,0-0.2-0.1-0.3c-0.1-0.1-0.1-0.2-0.2-0.3c-0.1-0.1-0.2-0.1-0.3-0.1l0,0c-0.2,0.1-0.3,0.2-0.4,0.3c-0.1,0.1-0.2,0.2-0.3,0.2
			S837.8,354.1,837.9,354.2C837.9,354.2,837.9,354.3,837.9,354.2C838,354.2,838,354.2,837.9,354.2L837.9,354.2z"/>
		<path d="M838.4,355.2c0.1-0.6,0.3-1.8,0.7-3.2c0.3-1.7,0.8-3.8,1.3-6.1c0.3-1.4,0.6-2.8,0.8-4.2c0.2-1,0.6-1.9,1.1-2.7
			c0.6-1.1,1.3-2.1,2.1-3.1c0.8-1.1,1.6-2,2-2.5l0.4-0.5c0.5-0.6,1.2-1.4,2.1-2.3c0.6-0.5,1.2-1,1.8-1.5c0.7-0.5,1.4-0.9,2.2-1.4
			c1.5-0.9,3.1-1.6,4.7-2.4c1.3-0.6,2.6-1.1,3.8-1.6l0.4-0.2c0.3-0.1,0.5-0.2,0.7-0.3c0.1,0,0.2-0.1,0.3-0.2c0-0.1,0-0.2,0-0.3l0,0
			l-0.1-0.1l-0.1-0.1l0.1,0.1l0.1,0.1l0,0c0,0.1,0,0.2,0,0.3l0,0c-0.1,0.1-0.2,0.1-0.3,0.1l-1.1,0.4c-1,0.4-2.3,0.8-3.9,1.5
			c-1.6,0.7-3.3,1.4-4.8,2.2c-1.5,0.8-2.9,1.7-4.2,2.8c-0.8,0.7-1.5,1.5-2.2,2.3l0,0c-0.9,1-1.7,2-2.4,3l-0.1,0.1
			c-0.7,1-1.4,2.1-2,3.2l0,0c-0.5,0.9-0.9,1.9-1.1,2.9c-0.2,1.4-0.5,2.8-0.7,4.2c-0.4,2.2-0.8,4.3-1.1,6.1c-0.4,2-0.7,3.7-1,4.9
			l-0.1,0.6c-0.2,0.8-0.3,1.3-0.3,1.7c0,0.2,0,0.4-0.1,0.5c0,0,0,0.1,0,0.1l0,0l0,0l0,0v-0.1c0-0.1,0.1-0.3,0.1-0.5
			c0.1-0.4,0.2-1,0.4-1.7s0.3-1.4,0.4-2.3L838.4,355.2z"/>
		<path class="st30" d="M867.7,323.4h-0.4c1.7,0,2,0.9,3.8,1c3.8,0.1,11.7,8.5,13.6,11.5c2.9,5.1,5.5,10.5,7.6,16
			c0.6,2.3,2.5,11.8,2.1,15.1s-1.1,9.3-3.1,12.1s-8.8,8.9-11.3,9.4c-2,0.4-12.5,4.4-20,4.6c7.4,0.2,19.4-4.2,21.5-4.6
			c2.5-0.5,9.3-6.5,11.3-9.4s2.8-8.8,3.1-12.1s-1.5-12.9-2.1-15.1c-2.1-5.5-4.6-10.9-7.6-16c-2-2.9-7.6-11.6-13.6-11.5
			C870.6,324.4,870.4,323.4,867.7,323.4L867.7,323.4z"/>
		<path class="st37" d="M848.6,354.1c-1-0.5-1.2-2.6-1.7-1.6c-0.6,1.4-0.4,3.1,0.5,4.3c0.7,0.7,4.8,1.2,4.8,0
			S849.6,354.7,848.6,354.1L848.6,354.1z"/>
		<path d="M850.9,348.5c-2.1-0.2-3.9,1.4-4.1,3.5c0,0.1,0,0.2,0,0.3c0,2.3,1,4.5,3.3,4.7c2.1,0.2,3.9-1.2,4.2-3.3c0-0.3,0-0.6,0-0.9
			C854.1,350.6,853.2,348.5,850.9,348.5z"/>
		<path class="st39" d="M851.2,350c-0.3-0.4-1.4,0-1.8,0.4c-0.5,0.2-0.8,0.8-0.6,1.3s0.8,0.8,1.3,0.6c0.2-0.1,0.4-0.2,0.5-0.4
			C851,351.5,851.5,350.4,851.2,350L851.2,350z"/>
		<path class="st40" d="M850.9,349.2c0,0,2.8,0.3,3.7-1.5"/>
		<path d="M893,349.6L893,349.6L893,349.6v0.2l0.2,0.6c0.2,0.7,0.3,1.3,0.5,1.9c0.2,0.8,0.4,1.5,0.5,2.2c0.1,0.6,0.3,1.2,0.4,1.8
			c0.2,1.3,0.3,2.5,0.4,3.7l0,0c0.1,1.8,0.2,3.3,0.2,4.7c0,1.5-0.1,3.1-0.2,4.6c-0.1,0.7-0.2,1.4-0.3,1.9c-0.1,0.5-0.2,1-0.4,1.4
			l-0.2,0.5c-0.3,0.7-0.6,1.8-1,3.1c-0.4,1.4-1,2.7-1.7,3.9c-0.5,0.8-1,1.6-1.6,2.3c-0.6,0.7-1.2,1.3-1.9,1.9
			c-0.6,0.6-1.3,1-1.8,1.4s-1,0.7-1.3,0.9c-0.2,0.1-0.4,0.2-0.6,0.4c-0.5,0.3-1,0.5-1.5,0.7c-0.6,0.3-1.3,0.5-2.1,0.8l0,0
			c-1.4,0.5-3,0.9-4.6,1.3c-1.9,0.5-3.8,0.9-5.5,1.2s-2.9,0.6-3.6,0.8l-1.3,0.4c-1.1,0.3-2.6,0.7-4.2,1s-3.3,0.8-4.9,1.1
			c-1.1,0.2-2.1,0.5-3.1,0.7l-0.7,0.2l-0.3,0.1c-0.2,0-0.3,0.1-0.5,0.2c-0.1,0.1-0.2,0.1-0.2,0.1s0.1,0,0.2,0h0.5l1.1-0.1
			c0.8,0,1.9-0.1,3.2-0.2c2.8-0.2,6.3-0.6,9.3-1.2c1.3-0.2,2.6-0.5,3.9-0.9c2.1-0.6,4.3-1.4,6.4-2.1c1.6-0.6,3.1-1.2,4.5-1.8
			c1.2-0.5,2.4-1.1,3.6-1.7c0.7-0.4,1.3-0.7,1.8-1c1-0.6,1.9-1.2,2.8-1.9c1.4-1.1,2.6-2.4,3.6-3.8c0.8-1.2,1.5-2.5,2-3.8
			c0.6-1.3,1-2.6,1.5-3.8c0.2-0.6,0.4-1.3,0.5-2c0.1-0.6,0.2-1.2,0.2-1.8c0-0.8,0-1.5,0-2.3c0-0.7-0.1-1.5-0.2-2.5
			c-0.2-1.4-0.4-3-0.7-4.7c-0.2-1.2-0.5-2.5-0.7-3.7c-0.2-0.6-0.3-1.3-0.5-1.8c-0.3-0.8-0.5-1.5-0.7-2.2s-0.5-1.4-0.6-1.8l-0.2-0.6
			L893,349.6L893,349.6L893,349.6L893,349.6z"/>
		<path d="M833.1,359.6c0-0.8,0.1-1.6,0.2-2.4c0.2-1.1,0.3-2.2,0.6-3.2l0,0c0.3-1.6,0.7-3.1,1.1-4.4s0.8-2.4,1.1-3.4
			c0.7-1.9,1.3-3.2,1.8-4.4s1-2,1.4-2.7l0.3-0.6c0.4-0.8,1-1.8,1.6-2.9c0.7-1.1,1.5-2.2,2.4-3.2l0,0c1-1,2.1-2,3.3-2.9
			c1-0.8,2-1.3,2.5-1.6c0.6-0.4,1.3-0.7,2-0.9c1.1-0.4,2.2-0.8,3.3-1.1c1-0.3,2.1-0.5,3.2-0.7s2.2-0.4,3.2-0.5
			c2-0.2,3.7-0.3,4.4-0.4l1-0.1c1.2-0.1,2.4-0.1,3.7,0c1.5,0.2,2.9,0.5,4.3,0.9c0.9,0.3,1.8,0.6,2.7,1c0.3,0.1,0.6,0.3,0.9,0.4
			c0.3,0.1,0.5,0.2,0.8,0.2c0.1,0,0.1,0,0-0.1l-0.6-0.3c-0.3-0.2-0.6-0.4-1-0.6c-0.8-0.5-1.7-1-2.5-1.4c-1.3-0.6-2.6-1.1-4-1.4
			c-1.4-0.4-2.9-0.5-4.4-0.5c-1.1,0-2.3,0.1-3.4,0.3c-1.5,0.3-3,0.6-4.4,1s-2.9,0.9-4.2,1.4s-2.7,1.1-3.8,1.6s-2,1-2.7,1.4
			c-0.5,0.2-1.3,0.6-2.2,1.2c-1.1,0.7-2.2,1.4-3.2,2.3c-1,0.9-1.9,1.8-2.7,2.9c-0.8,1-1.5,2.1-2.1,3.3c-1.1,1.9-2,3.9-2.7,6
			c-0.2,0.6-0.3,1.3-0.6,2.1c-0.3,1.1-0.6,2.5-0.8,3.9s-0.5,2.8-0.6,4.2s-0.2,2.4-0.3,3.3c0,0.8,0,1.4,0,1.8S833,359.6,833.1,359.6
			L833.1,359.6z"/>
		<path class="st29" d="M872.4,335c0,0,5-7.5,6.4-8.8s1.7-2.9,4.8-3.4s8,1.5,9.1,2.2s5.3,3.6,6.1,4.6s1.4,4.2,1.3,6.4
			c-0.4,2.7-1.4,5.4-2.9,7.7c-0.8,0.8-5.3,5-6.7,5.5s-9.3,1.7-9.3,1.7L872.4,335z"/>
		<path class="st30" d="M885.8,350c1.4-0.2,2.7-0.5,4.1-0.8c1.5-0.5,5.9-4.7,6.7-5.5c1.5-2.3,2.5-4.9,2.9-7.7
			c0.1-2.2-0.5-5.3-1.3-6.4s-5-3.9-6.1-4.6c-2.5-1.3-5.2-2.1-8-2.3c0.8,0.1,1.5,0.3,2.3,0.5c0.8,0.2,1.6,0.5,2.3,0.8
			c0.5,0.2,1,0.4,1.5,0.7c0.5,0.4,1.9,1.3,3.1,2.2c0.6,0.5,1.3,0.9,1.8,1.4c0.4,0.3,0.8,0.7,1.1,1c0.2,0.3,0.4,0.7,0.5,1.1
			c0.2,0.5,0.3,1.1,0.4,1.6c0.1,0.6,0.2,1.2,0.3,1.8c0.1,0.6,0.1,1.2,0.1,1.8c0,0.7-0.2,1.3-0.4,2c-0.2,0.8-0.5,1.6-0.8,2.3
			c-0.3,0.8-0.7,1.5-1,2.1c-0.2,0.4-0.5,0.9-0.8,1.2c-0.4,0.4-1.7,1.6-3.1,2.8c-0.7,0.6-1.4,1.2-2,1.7c-0.5,0.4-1,0.7-1.5,1
			c-0.5,0.2-1.1,0.3-1.6,0.4l-2.5,0.5L885.8,350z"/>
		<path d="M872.6,335c1.4-1.9,2.6-3.5,3.7-5s2-2.6,2.9-3.6c0.4-0.5,0.8-0.9,1.2-1.3c0.2-0.2,0.5-0.5,0.8-0.6
			c0.5-0.3,1.1-0.5,1.7-0.7c0.5-0.1,1-0.2,1.5-0.2c0.4,0,0.8,0,1.1,0c0.3,0,0.7,0.1,1,0.1c0.3,0,0.6,0.1,1,0.2
			c0.9,0.2,1.8,0.5,2.7,0.8c1,0.4,2,1,2.9,1.6c1.1,0.8,2.1,1.4,3,1.9c0.5,0.3,1,0.7,1.4,1.1c0.3,0.3,0.6,0.5,0.8,0.8l0.1,0.2
			c0.3,0.4,0.5,0.8,0.7,1.3c0.2,0.6,0.3,1.3,0.4,2l0,0c0,0.9,0,1.8-0.2,2.7c-0.2,0.9-0.4,1.9-0.7,2.8l0,0c-0.2,0.6-0.4,1.1-0.8,1.6
			c-0.3,0.5-0.7,1-1,1.4c-0.5,0.6-0.8,1.1-1,1.4c-0.6,0.8-1.3,1.5-2,2.2c-0.6,0.6-1.2,1.1-1.8,1.6c-0.7,0.5-1.4,1-2.1,1.4
			c-0.5,0.3-1.1,0.6-1.7,0.8c-0.5,0.2-1.1,0.3-1.6,0.4c-0.4,0-0.6,0.1-0.6,0.1s0.2,0.2,0.5,0.2c0.5,0.1,1.1,0.1,1.6,0
			c0.8-0.1,1.6-0.2,2.4-0.4l0,0c0.8-0.3,1.6-0.6,2.3-1.1c0.8-0.4,1.5-1,2.3-1.5c0.7-0.6,1.4-1.2,2-1.8c0.5-0.6,1-1.2,1.4-1.9
			l0.2-0.3c0.7-1.1,1.1-2.2,1.4-3.5l0,0c0.2-1,0.3-2,0.4-3c0.1-1,0-1.9-0.1-2.9c-0.1-0.7-0.3-1.4-0.6-2c-0.2-0.6-0.5-1.1-0.9-1.6
			c-0.3-0.3-0.5-0.7-0.8-1c-0.2-0.2-0.3-0.4-0.6-0.6s-0.6-0.5-0.9-0.8s-0.8-0.7-1.3-1s-1-0.8-1.5-1.2l0,0c-0.8-0.7-1.8-1.4-2.8-1.9
			c-1-0.6-2.1-1-3.2-1.3l0,0c-0.6-0.2-1.3-0.3-1.9-0.3c-0.6-0.1-1.2-0.1-1.8,0c-0.6,0.1-1.2,0.2-1.8,0.4c-0.4,0.1-0.9,0.3-1.3,0.6
			c-0.2,0.1-0.5,0.3-0.7,0.5c-0.4,0.3-0.7,0.6-0.9,1l0,0c-0.4,0.5-0.7,1-1.1,1.5l0,0c-0.8,1.2-1.7,2.6-2.5,3.9l-3.2,5.3L872.6,335z"
			/>
		<path class="st35" d="M875.2,338.3c0,0,4,1.7,4.9,3.1s3.8,5,4.1,5.1c0.6-0.1,1.2-0.2,1.8-0.4c1.2-1.3,2.3-2.7,3.2-4.2
			c0.8-1.6,1.8-3.5,0.9-5.4s-1.6-4.5-2.8-4.8c-2-0.4-4-0.3-6,0.2c-1,0.3-2,0.8-3,1.4C877.8,333.8,874.2,338,875.2,338.3L875.2,338.3
			z"/>
		<path d="M874.7,338.2L874.7,338.2h0.1l0.5,0.2c0.5,0.2,1,0.5,1.5,0.8c0.8,0.5,1.5,1,2.1,1.7c0.5,0.5,0.8,1.1,1.1,1.7
			c0.4,0.8,0.8,1.5,1.4,2.2c0.4,0.5,0.9,0.9,1.4,1.3c0.4,0.3,0.8,0.5,1.2,0.7c0.2,0.1,0.4,0.1,0.6,0.2c0.3,0.1,0.7,0.1,1,0
			c0.4-0.1,0.7-0.3,1-0.6c0.1-0.1,0.2-0.3,0.4-0.4l0.7-0.7c0.6-0.7,1.1-1.4,1.6-2.1l0,0c0.3-0.5,0.6-1,0.8-1.5
			c0.2-0.4,0.3-0.9,0.4-1.3c0.1-0.2,0.1-0.5,0.1-0.7c0-0.2,0.1-0.6,0.2-1.1c0.1-0.6,0.1-1.1,0-1.7c-0.1-0.8-0.3-1.6-0.7-2.3
			c-0.4-0.7-0.9-1.4-1.4-1.9c-0.5-0.5-1-0.9-1.6-1.3c-0.4-0.2-0.8-0.4-1.3-0.5c-1.1-0.3-2.3-0.3-3.4,0.1c-0.6,0.2-1.1,0.4-1.7,0.7
			l0,0c-0.6,0.3-1.1,0.6-1.5,1c-0.4,0.4-0.8,0.8-1.2,1.3c-0.1,0.1-0.2,0.2-0.2,0.4c0,0.1,0,0.1,0,0.1c0.2-0.1,0.4-0.2,0.6-0.4
			c0.4-0.3,0.8-0.5,1.2-0.7c0.5-0.3,1.1-0.5,1.7-0.6c0.5-0.1,0.9-0.2,1.4-0.2c0.4-0.1,0.9-0.1,1.3,0c0.7,0.1,1.5,0.4,2.1,0.8
			c0.4,0.2,0.9,0.4,1.3,0.7c0.6,0.4,1.1,0.9,1.5,1.4c0.4,0.5,0.7,1.1,0.9,1.7c0.2,0.6,0.2,1.2,0.2,1.8c0,0.5-0.1,0.9-0.3,1.3l0,0
			c-0.1,0.3-0.3,0.7-0.5,1c-0.3,0.5-0.6,0.9-1,1.4l0,0c-0.5,0.6-1.1,1.2-1.7,1.7l0,0l-0.7,0.6c-0.2,0.2-0.4,0.3-0.5,0.5l0,0
			c-0.1,0-0.2,0-0.2,0c-0.4-0.1-0.8-0.3-1.1-0.5c-0.5-0.4-1.1-0.8-1.5-1.3c-0.4-0.4-0.8-0.8-1.2-1.2c-0.5-0.7-1.2-1.4-1.9-1.9
			c-0.7-0.5-1.5-0.9-2.3-1.2c-0.5-0.2-1.1-0.4-1.7-0.5L874.7,338.2L874.7,338.2L874.7,338.2L874.7,338.2L874.7,338.2z"/>
		<path d="M885.3,324.8c-0.4-0.1-0.6-0.3-0.8-0.7c-0.2-0.4-0.3-0.9-0.3-1.4c0-0.1,0-0.1,0-0.2c0-0.5,0-0.9,0.2-1.4
			c0.1-0.2,0.1-0.4,0.2-0.5c0.1-0.1,0.2-0.3,0.4-0.3c0.2-0.1,0.4-0.1,0.5,0c0.2,0.1,0.4,0.2,0.5,0.4c0.2,0.2,0.3,0.5,0.5,0.8
			c0.1,0.3,0.2,0.7,0.2,1c0,0.1,0,0.2,0,0.3l0,0c0,0.6-0.2,1.1-0.5,1.6C886,324.6,885.7,324.8,885.3,324.8L885.3,324.8z"/>
		<path d="M888.6,325c-0.3-0.1-0.4-0.5-0.4-1c0-0.6,0.2-1.2,0.4-1.8l0,0c0.1-0.2,0.1-0.3,0.2-0.5c0.3-0.7,0.6-1.3,1-1.9
			c0.1-0.2,0.3-0.4,0.5-0.6c0.1-0.1,0.3-0.2,0.5-0.2c0.2,0,0.4,0.1,0.5,0.3c0.1,0.2,0.2,0.5,0.3,0.8c0.1,0.4,0.1,0.8,0,1.1
			c-0.1,0.4-0.2,0.9-0.3,1.3c-0.1,0.2-0.2,0.4-0.2,0.5l0,0c-0.3,0.6-0.7,1.2-1.2,1.6C889.3,325.1,889,325.2,888.6,325L888.6,325z"/>
		<path class="st37" d="M835.7,354.3c0.6-0.5,1.2-2.9,1.2-1.7s0.2,3.1-0.3,3.9s-3.5,0.8-3.5-0.4S835.1,354.9,835.7,354.3
			L835.7,354.3z"/>
		<path d="M834.2,348.3c-1.5,0-2.5,1.1-2.5,3.4s1,4.7,2.5,4.9c1.6,0.3,2.8-1.7,2.7-4.2S835.7,348.3,834.2,348.3z"/>
		<path class="st39" d="M832.9,351.6c0.3,0.2,1-0.6,1.3-1s0.4-1,0.1-1.2s-0.8,0-1.1,0.5S832.6,351.5,832.9,351.6L832.9,351.6z"/>
		<path class="st41" d="M834.1,349c-1,0.2-2-0.5-2.3-1.5"/>
		<path class="st35" d="M844.3,360.7c0.7,1.5,3.4,6.4,4.3,8.4c0.2,0.5,3.8,3.9,4,4.4c5.6,11.2,7.5,20.6-5.3,26.2
			c-16.8,0.4-27.6-19-25.6-31c0,0,1-4.4,4.2-6c2.6-1.3,7.2-1.9,17.4-2.1"/>
		<path class="st30" d="M851.2,372.7c5.2,10,5.6,21.9-5.7,26.7c1,0.1,2,0.2,3,0.1c12.2-6.9,8.2-15.2,4.3-25.8L851.2,372.7z"/>
		<path class="st38" d="M822.5,374.7c0.8,1.3,1,0.8,1.2,2.2s1.5,7.1,4.6,10.5l0.1-0.6l-3.5-10L822.5,374.7z"/>
		<path d="M825.1,365.1c-2.8,0-6.5,3.3-5,6c1,2,2.9,5.8,5,6s3.6-3.8,5-6C831.8,368.6,827.9,365.1,825.1,365.1z"/>
		<path class="st38" d="M823.2,365.3c-0.5,0.9-0.9,1.8-1.1,2.8c-2,12,8.8,31.4,25.6,31c2.8-1.1,5.1-3.2,6.4-6c-1.4,2.3-3.4,4-5.9,5
			c-16.8,0.4-27.6-19-25.6-31C822.7,366.5,822.9,365.9,823.2,365.3z"/>
		<path d="M844.6,360.7c0.6,1.4,1.2,2.7,1.8,4c0.6,1.2,1.2,2.4,1.8,3.6c0.7,1.1,1.5,2.2,2.5,3.2c0.9,1,1.6,2,2.2,3.2
			c0.6,1.2,1,2.5,1.4,3.8c0.3,1.1,0.6,2.2,0.8,3.4c0.2,1.3,0.3,2.6,0.3,3.9c0,1-0.1,2.1-0.3,3.1c-0.2,1-0.5,1.9-0.8,2.9
			c-0.3,0.7-0.7,1.5-1.1,2.1c-0.2,0.2-0.3,0.5-0.6,0.8c-0.6,0.8-1.3,1.5-2.1,2.1c-1,0.8-2.1,1.4-3.3,1.8c-0.9,0-1.9,0-2.8-0.1
			c-1-0.1-1.9-0.3-2.9-0.5c-1.8-0.4-3.5-1.1-5.2-2c-1.1-0.6-2.1-1.3-3.1-2c-0.8-0.6-1.5-1.2-1.9-1.6c-0.5-0.5-1-1-1.5-1.5
			c-0.7-0.8-1.3-1.6-1.9-2.5c-2.1-3.1-3.7-6.5-4.6-10.1c-0.2-0.9-0.4-1.8-0.6-2.7c-0.1-0.9-0.2-1.7-0.3-2.6c-0.1-1.4,0-2.8,0.3-4.2
			l0,0v-0.1c0-0.2,0.1-0.3,0.1-0.5c0.2-0.5,0.3-0.8,0.4-1.1l0.2-0.4c0.3-0.6,0.6-1.2,1-1.7c0.5-0.6,1.1-1.2,1.8-1.5
			c0.9-0.5,1.8-0.8,2.7-1.1c1-0.3,2.1-0.5,3.2-0.7c1.8-0.3,3.6-0.6,5.3-0.7s3.5-0.2,5-0.3c1.1,0,1.5-0.1,1.3-0.2
			c-0.6-0.2-1.3-0.3-1.9-0.3c-1.1-0.1-2.5-0.2-4.2-0.2c-1.9,0-3.8,0.1-5.7,0.3c-1.1,0.1-2.2,0.3-3.2,0.5c-1.1,0.2-2.2,0.6-3.2,1l0,0
			c-0.9,0.4-1.7,1-2.3,1.7c-0.6,0.7-1.1,1.4-1.5,2.2c-0.3,0.6-0.6,1.2-0.8,1.8c-0.1,0.2-0.1,0.4-0.2,0.6l0,0v0.2l0,0v0.1l0,0l0,0
			c-0.1,0.7-0.2,1.4-0.2,2.1c0,1.4,0.1,2.8,0.3,4.2c0.2,1.4,0.6,2.7,1,4.1c0.6,1.9,1.4,3.8,2.4,5.5c1.5,2.8,3.5,5.5,5.7,7.8
			c0.9,0.9,1.7,1.6,2.3,2.2c1.1,1,2.2,1.8,3.5,2.6c1.6,1,3.3,1.8,5.1,2.3c2.1,0.7,4.3,1,6.6,1c1.3-0.4,2.5-1,3.6-1.7
			c1.1-0.7,2.1-1.6,3-2.6l0,0c0.8-1,1.5-2.2,1.9-3.4c0.4-1.1,0.7-2.2,0.9-3.3c0.2-1.4,0.2-2.8,0.1-4.1c-0.1-1.2-0.3-2.3-0.6-3.5
			c-0.3-1.2-0.7-2.4-1.1-3.5c-0.5-1.3-1-2.5-1.7-3.7l0,0c-0.7-1.2-1.5-2.3-2.5-3.2c-0.9-0.9-1.8-1.9-2.6-3c-0.7-1-1.2-2-1.7-2.9
			s-0.9-1.7-1.2-2.4L844.6,360.7L844.6,360.7z"/>
		<path class="st40" d="M825,376.5c0,0-0.2,4.6,3.7,9.5"/>
		<path class="st42" d="M830.3,385.4c-1.3,0.4-2,1.7-1.7,3c0.3,1.4,1.5,1.1,2.7,0.8s2.2-0.6,1.8-1.9
			C832.9,386,831.6,385.1,830.3,385.4L830.3,385.4z"/>
		<path class="st43" d="M834.5,375.7c-0.5,0-0.8,0.4-0.8,0.9c0,0,0,0,0,0c0,0.5,0.2,0.6,0.6,0.6s0.8-0.2,0.8-0.6
			S834.9,375.7,834.5,375.7L834.5,375.7z"/>
		<path class="st43" d="M839.6,373.1c-0.8,0-1.2,0.7-1.2,1.6s0.3,1.1,1.1,1.1s1.5-0.3,1.5-1.1C841.1,373.8,840.4,373.1,839.6,373.1
			L839.6,373.1z"/>
		<path class="st43" d="M838,378.8c-0.6,0-1.1,0.5-1.1,1.1c0,0.6,0.4,1,1,1c0.5,0,0.9-0.3,0.9-0.8c0-0.1,0-0.1,0-0.2
			C838.9,379.3,838.6,378.7,838,378.8L838,378.8z"/>
		<path class="st39" d="M825.9,366.8c-0.8,0-1.6,0-1.6,0.8s0.8,0.7,1.6,0.7s2.7,1.5,2.7,0.7S826.7,366.8,825.9,366.8L825.9,366.8z"
			/>
	</g>
	<g id="g4371">
		<path class="st38" d="M830.9,442.7L830.9,442.7c-0.2,0.1-0.4,0.1-0.6,0.2l-0.7,0.2l-0.7,0.2c-0.1,0-0.3,0.1-0.4,0.1
			c-0.2,0.1-0.3,0.1-0.4,0.3l-0.2,0.2c-0.1,0.1-0.1,0.1-0.2,0.2c-0.4,0.2-0.9,0.5-1.2,0.7c-0.1,0.1-0.1,0.1,0,0.1c0.1,0,0.2,0,0.4,0
			c0.3-0.1,0.9-0.2,1.3-0.3c0.2-0.1,0.4-0.2,0.6-0.3l0.3-0.2l0,0c0.1-0.1,0.2-0.1,0.3-0.2l0.6-0.3c0.4-0.2,0.8-0.4,1.1-0.5l0.3-0.1
			C831.8,442.7,831.6,442.4,830.9,442.7L830.9,442.7z"/>
		<path d="M830.9,442.5L830.9,442.5c-0.4,0.1-1,0.3-1.6,0.5c-0.4,0.1-0.8,0.3-1.2,0.5l-0.6,0.4l-0.6,0.4c-0.2,0.1-0.4,0.3-0.6,0.4
			s-0.1,0.1,0,0.1c0.1,0,0.3,0,0.4-0.1l0.6-0.2l0.7-0.2c0.3-0.1,0.7-0.2,1-0.4l0.6-0.4c0.4-0.3,0.9-0.5,1.3-0.7l0.3-0.1l0.2-0.1
			c0,0,0.1,0,0.1-0.1l0,0c0,0,0,0,0-0.1h-0.2C831.2,442.4,831.1,442.4,830.9,442.5L830.9,442.5z"/>
		<path d="M830.8,445L830.8,445c-0.3-0.3-0.6-0.6-0.8-0.9c-0.2-0.3-0.4-0.6-0.7-0.8c-0.2-0.2-0.4-0.4-0.6-0.6
			c-0.2-0.2-0.4-0.5-0.6-0.8c-0.1-0.1-0.1-0.1-0.2,0c0,0.2,0,0.4,0,0.5c0,0.3,0.1,0.5,0.3,0.8c0.1,0.2,0.3,0.4,0.5,0.6l0.7,0.5
			c0.4,0.3,0.9,0.6,1.1,0.8l0.2,0.1c0,0,0.1,0.1,0.1,0.1h0.1h0c0,0,0,0,0.1,0l0,0c0,0,0-0.1,0-0.1C831,445.2,830.9,445.1,830.8,445
			L830.8,445z"/>
	</g>
	<path class="st29" d="M829.7,437.9c9.2-1.5,17.4,8,17.2,19.3c-0.2,11.7-9.4,21.3-16.9,19.9c-5.3-1-10.7-2.3-12.7-9.4
		c-0.8-3.6-1-7.4-0.8-11.1C817.5,445.8,822.6,439,829.7,437.9L829.7,437.9z"/>
	<path class="st37" d="M840.9,470.5c-3.7,7.3-5.5,6.5-11.5,6.3c-4.5-0.8-9-1.9-11.5-6.5c2.5,4.9,7.1,6,11.7,6.8
		C835.1,475.9,837.2,475.7,840.9,470.5L840.9,470.5z"/>
	<path d="M840.1,472.4c-0.5,0.9-1.2,1.7-1.9,2.3c-0.7,0.6-1.5,1.1-2.3,1.5c-1.2,0.5-2.5,0.7-3.7,0.6c-1.6,0-3.3-0.3-4.9-0.7
		c-1.3-0.3-2.5-0.9-3.6-1.5c-0.7-0.4-1.3-0.9-1.8-1.4c-0.5-0.4-0.9-0.9-1.3-1.5c-0.5-0.7-1-1.5-1.3-2.3c-0.3-0.6-0.5-1.3-0.7-2
		c-0.1-0.4-0.2-0.7-0.3-1.1s-0.1-0.7-0.2-1.1c-0.1-0.8-0.3-1.8-0.4-2.9c-0.2-1.9-0.3-3.7-0.2-5.6c0.1-1.2,0.3-2.4,0.5-3.6
		c0.2-1.1,0.5-2.2,0.8-3.3c0.3-0.9,0.6-1.8,0.9-2.6c0.3-0.7,0.6-1.3,0.8-1.7c0.5-0.9,1-1.7,1.6-2.4c0.6-0.7,1.3-1.4,2-2
		c0.8-0.7,1.7-1.3,2.7-1.8l0,0c0.9-0.4,1.8-0.7,2.7-1c0.9-0.2,1.8-0.3,2.8-0.3l0,0c1,0,2,0.2,3,0.5c0.8,0.3,1.6,0.6,2.3,1.1
		c0.6,0.3,1.1,0.7,1.6,1.1c0.5,0.3,0.9,0.7,1.4,1.1c0.6,0.5,1.1,1.1,1.6,1.7c0.7,0.8,1.3,1.7,1.8,2.7c0.6,1,1,2.1,1.4,3.2
		c0.4,1.1,0.7,2.2,0.9,3.4c0.2,1.1,0.3,2.1,0.3,3.2c0,0.3,0,0.7,0.1,1c0,0.1,0.1,0.1,0.1-0.1c0.2-1,0.3-2,0.3-3
		c0-1.8-0.2-3.7-0.7-5.5c-0.3-1.1-0.6-2.1-1.1-3.1c-0.5-1-1-2.1-1.6-3l0,0c-0.7-1-1.5-1.9-2.3-2.7c-0.8-0.7-1.7-1.4-2.7-1.9
		c-0.4-0.2-0.8-0.4-1.2-0.5c-1.7-0.7-3.4-1-5.2-0.9l0,0c-1.1,0.1-2.1,0.2-3.2,0.6c-1,0.3-1.9,0.7-2.8,1.3c-1,0.6-1.9,1.3-2.7,2.1
		c-0.7,0.7-1.4,1.5-2,2.3c-0.9,1.3-1.7,2.6-2.4,4c-0.6,1.2-1.2,2.4-1.6,3.7c-0.3,0.9-0.6,1.8-0.8,2.9s-0.5,2.2-0.6,3.3
		c-0.1,1-0.2,2-0.2,3c0,1,0,2,0.1,3s0.2,2,0.3,3c0.1,0.8,0.3,1.6,0.5,2.4c0.3,0.9,0.7,1.8,1.1,2.7c0.4,0.7,0.9,1.4,1.4,2.1
		c0.4,0.5,0.8,0.9,1.3,1.3c0.8,0.7,1.6,1.2,2.5,1.7c0.6,0.3,1.3,0.6,2,0.8c0.7,0.2,1.5,0.4,2.3,0.6c1.6,0.3,3.2,0.4,4.9,0.3
		c0.7,0,1.4-0.1,2.1-0.3c0.6-0.1,1.2-0.4,1.8-0.6c0.7-0.3,1.4-0.8,2-1.3c0.5-0.4,0.9-0.9,1.3-1.4c0.2-0.3,0.5-0.7,0.7-1
		C840,472.5,840.1,472.3,840.1,472.4L840.1,472.4z"/>
	<path class="st35" d="M820,473c1.2,1.7,2.9,1.7,4.5,0.3c2.4-2.2,3.7-7.8,2.9-12.3s-3.2-8-5.5-5.8s-3.9,9.2-3.1,13.7
		C818.9,470.3,819.3,471.7,820,473L820,473z"/>
	<path d="M819.5,472.9c0.3,0.4,0.7,0.8,1.1,1.1c0.4,0.3,0.9,0.5,1.4,0.6c0.6,0.1,1.1,0,1.6-0.2c0.5-0.2,0.9-0.5,1.2-0.8
		c0.4-0.4,0.7-0.7,1-1.2c0.3-0.4,0.5-0.8,0.7-1.2c0.3-0.5,0.5-1.1,0.8-1.7c0.2-0.5,0.4-1,0.5-1.4c0.2-0.7,0.4-1.4,0.5-2.2
		c0.1-0.5,0.2-1.1,0.2-1.6c0-0.5,0-1,0-1.5c-0.1-0.7-0.2-1.3-0.3-2c-0.2-1.1-0.6-2.1-1-3.1c-0.2-0.5-0.5-0.9-0.8-1.4
		c-0.3-0.4-0.6-0.7-0.9-1.1c-0.2-0.2-0.5-0.4-0.7-0.6c-0.2-0.1-0.4-0.2-0.6-0.3c-0.2-0.1-0.4-0.1-0.6-0.2c-0.3,0-0.7,0-1,0.1
		c-0.4,0.1-0.8,0.3-1.1,0.6c-0.4,0.3-0.8,0.7-1.1,1.1c-0.3,0.4-0.6,0.9-0.9,1.4c-0.3,0.6-0.6,1.2-0.8,1.9c-0.2,0.6-0.4,1.2-0.6,1.8
		c-0.2,0.8-0.4,1.5-0.5,2.3c0,0.6-0.1,1.4-0.1,2.5c0,1.1,0.1,2.2,0.3,3.3c0.2,0.6,0.4,1.2,0.6,1.7c0.2,0.5,0.5,1.1,0.9,1.5
		c0.1,0.2,0.2,0.3,0.4,0.4l0,0c-0.2-0.4-0.3-0.8-0.5-1.3c-0.1-0.4-0.2-0.8-0.2-1.2c0-0.5,0-1,0-1.5c0-0.6,0-1.2,0.1-1.8
		s0.1-1.2,0.2-1.8c0.2-1.2,0.4-2.3,0.5-3.1c0-0.2,0-0.4,0.1-0.7c0.1-1.2,0.4-2.4,0.7-3.5c0.2-0.5,0.3-0.9,0.5-1.3
		c0.2-0.4,0.4-0.8,0.7-1.1c0.2-0.2,0.5-0.4,0.7-0.5c0.2-0.1,0.5-0.2,0.8-0.1c0.2,0,0.4,0.1,0.6,0.2c0.2,0.1,0.3,0.2,0.4,0.3
		c0.1,0.1,0.3,0.3,0.4,0.5c0.2,0.3,0.4,0.6,0.6,0.9c0.2,0.4,0.4,0.8,0.5,1.3c0.2,0.5,0.3,1,0.4,1.5c0.1,0.5,0.2,1.1,0.3,1.7
		c0.1,1.3,0.1,2.5,0,3.8c-0.1,1.1-0.3,2.1-0.4,2.8v0.2c-0.1,1-0.3,1.9-0.6,2.8c-0.3,0.8-0.7,1.6-1.2,2.3c-0.3,0.4-0.6,0.6-1,0.9
		c-0.4,0.2-0.8,0.3-1.3,0.3c-0.4,0-0.8-0.1-1.1-0.3c-0.3-0.1-0.5-0.3-0.8-0.5c-0.2-0.1-0.3-0.3-0.5-0.4l-0.2-0.2L819.5,472.9z"/>
	<path class="st44" d="M822.5,442.1c-0.6,1.4-1,2.9-1.1,4.4c-0.2,2.6,0.2,4.4,1.2,4s2.2-2.5,2.4-5.1s-0.6-4.7-1.6-4.3
		C823.1,441.3,822.7,441.6,822.5,442.1L822.5,442.1z"/>
	<path class="st44" d="M829.5,442.1c-0.8,0.9-1.3,2-1.6,3.1c-0.7,2.2-0.8,4.3,0,4.9s1.9-0.3,2.6-2.5s0.6-4.9-0.1-5.5
		C830.1,441.9,829.8,441.9,829.5,442.1L829.5,442.1z"/>
	<path class="st44" d="M833.3,448.7c-0.7,0.7-1.2,1.6-1.4,2.6c-0.6,1.9-0.8,3.7-0.2,4.3s1.6-0.1,2.2-1.9s0.6-4.3,0-4.9
		C833.8,448.6,833.5,448.6,833.3,448.7z"/>
	<path d="M828.6,439.3h0.3c0.3,0,0.5,0.1,0.8,0.1l0,0c1.6,0.3,3.1,1.2,4.1,2.5c0.4,0.5,0.7,1,1,1.6c0.3,0.6,0.5,1.3,0.7,2
		c0.1,0.5,0.2,1.1,0.3,1.6c0,0.5,0.1,0.9,0.1,1.3s0,0.7,0,1v0.2c0,0.9,0.1,2.3,0.2,3.8s0.1,3.2,0.1,4.5c0,1,0,1.8,0,2.2
		c-0.1,0.9-0.2,1.8-0.4,2.6c-0.3,1.3-0.7,2.6-1.2,3.8c-0.3,1-0.7,1.9-1,2.6s-0.6,1.3-0.7,1.6c-0.3,0.9-0.8,1.7-1.3,2.5
		c-0.6,0.8-1.3,1.6-2.1,2.1c-0.7,0.4-1.4,0.7-2.2,0.9c-0.3,0.1-0.5,0.1-0.5,0.2s0.1,0.1,0.4,0.2c0.4,0.1,0.8,0.1,1.1,0.1
		c0.6,0,1.1-0.2,1.7-0.4c0.5-0.2,1-0.5,1.5-0.8c0.5-0.4,1-0.8,1.4-1.2c0.6-0.7,1.2-1.4,1.6-2.1c0.4-0.7,0.7-1.3,0.9-2.1
		c0.3-1.1,0.5-2.1,0.7-3.2c0.3-1.6,0.4-3.1,0.5-4.4s0.2-2.4,0.3-3.2c0-0.3,0.1-0.8,0.2-1.4c0.2-1,0.3-2.4,0.5-3.9s0.2-3.1,0.2-4.5
		c0-0.8-0.1-1.6-0.2-2.5c-0.1-0.6-0.3-1.2-0.5-1.8c-0.3-0.8-0.7-1.6-1.2-2.3c-0.4-0.6-0.9-1.2-1.5-1.7c-0.5-0.5-1.2-0.9-1.8-1.3
		c-0.5-0.2-1-0.4-1.5-0.5c-0.4-0.1-0.8-0.2-1.3-0.2c-0.3,0-0.6,0-0.8,0h-0.2L828.6,439.3L828.6,439.3z"/>
	<path d="M842.7,444L842.7,444l0.3-0.1l0,0l0.8-0.2c0.9-0.2,1.7-0.4,2.4-0.6c1.2-0.2,2.1-0.4,2.8-0.4c0.5,0,0.9-0.1,1.2-0.1
		s0.6,0,0.8,0h0.3c0.3,0,0.9,0,1.6-0.1s1.6-0.1,2.5-0.1c0.9,0,1.7,0.1,2.6,0.2c0.4,0.1,0.8,0.2,1.2,0.3c0.3,0.1,0.6,0.3,0.9,0.4
		c-0.1-0.2-0.3-0.3-0.4-0.5c-0.2-0.2-0.4-0.3-0.6-0.4c-0.3-0.2-0.6-0.3-0.8-0.4c-0.9-0.4-1.8-0.6-2.7-0.8c-0.8-0.2-1.6-0.3-2.5-0.4
		c-0.8-0.1-1.5-0.1-2.3-0.1c-0.4,0-0.9,0.1-1.3,0.1c-0.3,0-0.5,0.1-0.8,0.2h-0.1c-0.6,0.3-1.7,0.7-2.7,1.2c-0.8,0.4-1.7,0.8-2.3,1.1
		l-0.7,0.4L842.7,444L842.7,444L842.7,444L842.7,444z"/>
	<path d="M882.1,445.5c1.1-0.7,2-1.2,2.8-1.7l0,0c0.4-0.2,0.8-0.3,1.2-0.3c0.3-0.1,0.7-0.1,1,0c0.4,0.1,0.9,0.2,1.2,0.5
		c0.3,0.2,0.5,0.4,0.7,0.7c0.1,0.1,0.2,0.3,0.2,0.5c0.1,0.1,0.1,0.3,0.1,0.4l0.1,0.2c0.1,0.2,0.1,0.4,0.1,0.6c0,0.3,0,0.6,0,0.9
		c0,0.7-0.1,1.5-0.3,2.2c-0.2,0.6-0.4,1.3-0.6,1.9c-0.1,0.3-0.2,0.5-0.3,0.6c-0.3,0.5-0.6,0.9-1,1.3c-0.6,0.6-1.2,1.2-1.8,1.7
		c-0.6,0.4-1.2,0.8-1.8,1.1c-0.5,0.3-1,0.5-1.2,0.6c-0.2,0.1-0.4,0.2-0.6,0.3l-1,0.4c-0.4,0.1-0.7,0.3-1.1,0.4
		c-0.3,0.1-0.7,0.2-1.1,0.2c-0.3,0-0.6,0-0.9-0.2c-0.1,0-0.1,0-0.2-0.1l0,0c0,0-0.1-0.1-0.1-0.1l0,0c-0.1,0-0.1,0.1-0.2,0.2
		c0,0.1,0,0.2,0,0.2c0.1,0.1,0.2,0.2,0.3,0.3c0.3,0.2,0.6,0.4,0.9,0.5c0.4,0.1,0.8,0.2,1.3,0.3c0.5,0,0.9,0,1.4,0
		c0.4,0,0.9-0.1,1.3-0.2c0.7-0.1,1.4-0.4,2-0.9c0.7-0.6,1.4-1.3,2-2c0.6-0.8,1.1-1.6,1.6-2.4c0.4-0.7,0.8-1.4,1-1.8l0.1-0.1
		c0.4-0.5,0.7-1.1,1-1.6c0.4-0.8,0.8-1.7,1-2.7c0.1-0.7,0.1-1.4,0-2.1c-0.1-0.7-0.4-1.4-0.9-1.9c-0.4-0.4-0.8-0.8-1.3-1
		c-0.6-0.2-1.2-0.3-1.8-0.3c-0.5,0-1,0.2-1.4,0.3c-0.4,0.2-0.9,0.4-1.3,0.7c-1.4,1.2-2.5,2.3-2.5,2.3L882.1,445.5z"/>
	<path d="M814.4,436.3c1.2-0.1,2.4-0.1,3.5-0.1c1.2,0.1,1.8,0.2,2.3,0.2h0.4c0.6-0.1,1.2-0.2,1.8-0.3c0.3-0.1,0.6-0.1,1-0.2
		c0.3-0.1,0.6-0.2,0.9-0.2c0.3-0.1,0.7-0.1,1-0.1c0.3,0,0.6,0.1,0.9,0.1c-0.2-0.1-0.3-0.3-0.5-0.4c-0.5-0.3-1-0.4-1.5-0.5
		c-0.3,0-0.6,0-1-0.1s-0.6,0-0.9,0c-0.6,0-1.2-0.1-1.8-0.1c-0.6-0.1-1.3-0.1-1.9,0.1l-0.8,0.3C816.5,435.5,814.4,436.4,814.4,436.3
		L814.4,436.3z"/>
</g>
</svg>
