<?xml version="1.0" encoding="utf-8"?>
<!-- Generator: Adobe Illustrator 20.0.0, SVG Export Plug-In . SVG Version: 6.00 Build 0)  -->
<svg version="1.1"
	 id="svg16054" inkscape:version="0.91 r13725" sodipodi:docname="quiz8.svg" xmlns:cc="http://creativecommons.org/ns#" xmlns:dc="http://purl.org/dc/elements/1.1/" xmlns:inkscape="http://www.inkscape.org/namespaces/inkscape" xmlns:rdf="http://www.w3.org/1999/02/22-rdf-syntax-ns#" xmlns:sodipodi="http://sodipodi.sourceforge.net/DTD/sodipodi-0.dtd" xmlns:svg="http://www.w3.org/2000/svg"
	 xmlns="http://www.w3.org/2000/svg" xmlns:xlink="http://www.w3.org/1999/xlink" x="0px" y="0px" viewBox="0 0 2126 1187"
	 style="enable-background:new 0 0 2126 1187;" xml:space="preserve">
<style type="text/css">
	.st0{fill:#FFFFFF;}
	.st1{fill:#6B3C1F;stroke:#000000;}
	.st2{fill:#6B3C1F;stroke:#000000;stroke-linejoin:round;}
	.st3{fill:url(#path8351_1_);stroke:#000000;}
	.st4{fill:#8D5027;stroke:#000000;}
	.st5{fill:url(#path8361_1_);stroke:#000000;}
	.st6{fill:url(#path3332_2_);stroke:#000000;}
	.st7{fill:url(#path3334_2_);stroke:#000000;}
	.st8{fill:#D28C5F;stroke:#000000;}
	.st9{fill:url(#path3393_2_);stroke:#000000;}
	.st10{fill:url(#path3395_2_);stroke:#000000;}
	.st11{fill:url(#path3397_2_);stroke:#000000;}
	.st12{fill:url(#path3399_2_);stroke:#000000;}
	.st13{fill:url(#path3377_2_);stroke:#000000;stroke-width:1.0198;}
	.st14{fill:url(#path3352_2_);stroke:#000000;}
	.st15{fill:#855B3E;}
	.st16{fill:none;stroke:#000000;stroke-width:1.0198;}
	.st17{fill:#A05B2B;stroke:#000000;stroke-width:1.0198;}
	.st18{fill:#6C5353;stroke:#000000;stroke-width:1.0198;}
	.st19{fill:#906F6F;stroke:#000000;stroke-width:1.0198;}
	.st20{fill:none;stroke:#000000;}
	.st21{fill:url(#path4349_2_);}
	.st22{fill:#A06121;}
	.st23{fill:#6E4A25;}
	.st24{fill:#956C45;stroke:#000000;stroke-width:3;}
	.st25{fill:#B8854F;}
	.st26{fill:#834317;}
	.st27{fill:#5D381E;}
	.st28{fill:none;stroke:#000000;stroke-width:5;}
	.st29{fill:#DDCEBE;}
	.st30{stroke:#000000;stroke-width:5;}
	.st31{fill:#834317;stroke:#000000;stroke-width:3;}
</style>
<defs>
	
	<inkscape:path-effect  effect="spiro" id="path-effect5341" is_visible="true"></inkscape:path-effect>
	<inkscape:path-effect  effect="spiro" id="path-effect17606" is_visible="true"></inkscape:path-effect>
	<inkscape:path-effect  effect="spiro" id="path-effect16830" is_visible="true"></inkscape:path-effect>
	<inkscape:path-effect  effect="spiro" id="path-effect16826" is_visible="true"></inkscape:path-effect>
	<inkscape:path-effect  effect="spiro" id="path-effect16822" is_visible="true"></inkscape:path-effect>
	<inkscape:path-effect  effect="spiro" id="path-effect16818" is_visible="true"></inkscape:path-effect>
	<inkscape:path-effect  effect="spiro" id="path-effect16814" is_visible="true"></inkscape:path-effect>
	<inkscape:path-effect  effect="spiro" id="path-effect16810" is_visible="true"></inkscape:path-effect>
	<inkscape:path-effect  effect="spiro" id="path-effect16806" is_visible="true"></inkscape:path-effect>
	<inkscape:path-effect  effect="spiro" id="path-effect16802" is_visible="true"></inkscape:path-effect>
	<inkscape:path-effect  effect="spiro" id="path-effect16798" is_visible="true"></inkscape:path-effect>
	<inkscape:path-effect  effect="spiro" id="path-effect16794" is_visible="true"></inkscape:path-effect>
	<inkscape:path-effect  effect="spiro" id="path-effect16790" is_visible="true"></inkscape:path-effect>
	<inkscape:path-effect  effect="spiro" id="path-effect16786" is_visible="true"></inkscape:path-effect>
	<inkscape:path-effect  effect="spiro" id="path-effect16782" is_visible="true"></inkscape:path-effect>
	<inkscape:path-effect  effect="spiro" id="path-effect16778" is_visible="true"></inkscape:path-effect>
	<inkscape:path-effect  effect="spiro" id="path-effect16774" is_visible="true"></inkscape:path-effect>
</defs>
<sodipodi:namedview  bordercolor="#666666" borderlayer="true" borderopacity="1.0" fit-margin-bottom="0" fit-margin-left="0" fit-margin-right="0" fit-margin-top="0" id="base" inkscape:current-layer="svg16054" inkscape:cx="701.87495" inkscape:cy="448.34105" inkscape:document-units="cm" inkscape:pageopacity="0.0" inkscape:pageshadow="2" inkscape:window-height="744" inkscape:window-maximized="1" inkscape:window-width="1366" inkscape:window-x="0" inkscape:window-y="24" inkscape:zoom="0.35" pagecolor="#ffffff" showgrid="false" units="cm">
	</sodipodi:namedview>
<g id="layer2" transform="translate(0,237.40002)" inkscape:groupmode="layer" inkscape:label="background">
	<rect id="rect4177" y="-241.8" class="st0" width="2146.4" height="1191.4"/>
</g>
<g>
	<g id="layer1_1_" transform="translate(-138.38 -39.502)" inkscape:groupmode="layer" inkscape:label="Layer 1">
		<g id="g4249_1_">
			<path id="path3338_1_" inkscape:connector-curvature="0" sodipodi:nodetypes="ccccccccccc" class="st1" d="M1239.4,641.1
				l-4.7,8.7l14.7,127.9l11,66.6l11,53.9l15.1-0.7l-0.3-16.1l-11.4-97.8l-14.1-89.7l-10-52.9L1239.4,641.1z"/>
			<path id="path3336_1_" inkscape:connector-curvature="0" sodipodi:nodetypes="ccccccccc" class="st2" d="M1050.1,868.1l17.7,1.3
				l8.3-96.8l6.6-67.2l0.9-45.5h-19.9l-8.5,102.3l-3.8,78.6L1050.1,868.1z"/>
			<g id="g8412_1_">
				
					<linearGradient id="path8351_1_" gradientUnits="userSpaceOnUse" x1="1050.4092" y1="416.9767" x2="1194.7042" y2="463.2485" gradientTransform="matrix(1 0 0 -1 -138.38 1226.062)">
					<stop  offset="0" style="stop-color:#8D5027"/>
					<stop  offset="1" style="stop-color:#6B3C1F"/>
				</linearGradient>
				<path id="path8351" inkscape:connector-curvature="0" sodipodi:nodetypes="cczcccc" class="st3" d="M936.2,810.3l133.1-43.3
					c0,0,2.1-4,0.6-8.3s-6.9-4.3-6.9-4.3c-13.9,3.8-56.3,15.4-56.3,15.4l-73.8,27L936.2,810.3z"/>
				<path id="path3344_1_" inkscape:connector-curvature="0" sodipodi:nodetypes="czccczczc" class="st4" d="M1014.9,771.3
					c0,0,68.5,4,102.8,6.9c34.3,2.9,109.2,14.3,109.2,14.3l-5.2,4.9l1.3,6.3c0,0-68.6-3.8-103.5-6.8c-34.9-3-105.7-13.6-105.7-13.6
					s-2.1-3.1-2.1-6.2C1011.7,774.1,1014.9,771.3,1014.9,771.3L1014.9,771.3z"/>
				
					<linearGradient id="path8361_1_" gradientUnits="userSpaceOnUse" x1="1120.1365" y1="398.8364" x2="1227.1204" y2="462.5721" gradientTransform="matrix(1 0 0 -1 36.1642 1240.4946)">
					<stop  offset="0" style="stop-color:#C28156"/>
					<stop  offset="1" style="stop-color:#6B3C1F"/>
				</linearGradient>
				<path id="path8361" inkscape:connector-curvature="0" sodipodi:nodetypes="cczczcc" class="st5" d="M1192.9,829.6l72.7-46.4
					c0,0,2.1-4,0.6-8.3s-6.9-4.3-6.9-4.3c-13.9,8.9-18.3,11.7-30,18.8c-11.7,7-40.2,23.5-40.2,23.5L1192.9,829.6z"/>
			</g>
			
				<linearGradient id="path3332_2_" gradientUnits="userSpaceOnUse" x1="1040.3318" y1="434.1451" x2="1080.6115" y2="429.2963" gradientTransform="matrix(1 0 0 -1 -138.38 1226.062)">
				<stop  offset="0" style="stop-color:#492A16"/>
				<stop  offset="0.4869" style="stop-color:#D28C5F"/>
				<stop  offset="1" style="stop-color:#593219"/>
			</linearGradient>
			<path id="path3332_1_" inkscape:connector-curvature="0" sodipodi:nodetypes="cccccccc" class="st6" d="M916.9,944.9l-15.1-1.6
				l12.6-152.2l17.6-145.5l19.9,0.9l-4.7,95.7l-11.4,90.9l-13.3,108.9"/>
			
				<linearGradient id="path3334_2_" gradientUnits="userSpaceOnUse" x1="1310.3157" y1="404.8657" x2="1351.2207" y2="407.7682" gradientTransform="matrix(1 0 0 -1 -138.38 1226.062)">
				<stop  offset="0" style="stop-color:#4F2D17"/>
				<stop  offset="0.4869" style="stop-color:#D28C5F"/>
				<stop  offset="1" style="stop-color:#482914"/>
			</linearGradient>
			<path id="path3334_1_" inkscape:connector-curvature="0" sodipodi:nodetypes="cccccccccc" class="st7" d="M1213.4,978.6l-19,0.4
				l-15.6-133.9l-6.2-128.5v-55.9h16.1l9.5,55.9l6.6,93.8l5.7,110.8L1213.4,978.6z"/>
			<g id="g8390_1_">
				<path id="path3391_1_" inkscape:connector-curvature="0" class="st8" d="M1071.3,295.3c0,0,93.2,7.4,112.9,8.6s121-0.6,121-0.6
					l-8.9,51.8c0,0-100.9,0.9-112.9,0c-12-0.9-113.2-9.3-113.2-9.3l-0.9-51.2L1071.3,295.3z"/>
				
					<linearGradient id="path3393_2_" gradientUnits="userSpaceOnUse" x1="1245.2286" y1="750.3749" x2="1263.1049" y2="749.8912" gradientTransform="matrix(1 0 0 -1 -138.38 1226.062)">
					<stop  offset="0" style="stop-color:#693B1D"/>
					<stop  offset="0.4869" style="stop-color:#D28C5F"/>
					<stop  offset="1" style="stop-color:#563117"/>
				</linearGradient>
				<path id="path3393_1_" inkscape:connector-curvature="0" sodipodi:nodetypes="csccsczc" class="st9" d="M1107.4,600.8
					c0,0,1.9-114.8,1.9-133.3c0-18.5,5.6-119,5.6-119l7.3,0.8c0,0-1.9,123.8-1.9,146c0,22.2-2.9,106.7-2.9,106.7s-3.2,1.5-5,1.3
					C1110.6,603.1,1107.4,600.8,1107.4,600.8L1107.4,600.8z"/>
				
					<linearGradient id="path3395_2_" gradientUnits="userSpaceOnUse" x1="1281.4069" y1="747.2104" x2="1304.9868" y2="745.2755" gradientTransform="matrix(1 0 0 -1 -138.38 1226.062)">
					<stop  offset="0" style="stop-color:#492A16"/>
					<stop  offset="0.4869" style="stop-color:#D28C5F"/>
					<stop  offset="1" style="stop-color:#5B3319"/>
				</linearGradient>
				<path id="path3395_1_" inkscape:connector-curvature="0" sodipodi:nodetypes="cscccsczc" class="st10" d="M1140.1,603.9
					c0,0,5.6-94.4,8-116.6c2.5-22.2,13.2-134.4,13.2-134.4l7.5,0.7l-0.4,5.3c0,0-6.8,130.8-9.9,166.6c-3.1,35.8-7.4,80.2-7.4,80.2
					s-4.5,1.1-6.4,0.8S1140.1,603.9,1140.1,603.9L1140.1,603.9z"/>
				
					<linearGradient id="path3397_2_" gradientUnits="userSpaceOnUse" x1="1323.2616" y1="745.7696" x2="1343.3204" y2="743.3508" gradientTransform="matrix(1 0 0 -1 -138.38 1226.062)">
					<stop  offset="0" style="stop-color:#5D351A"/>
					<stop  offset="0.4869" style="stop-color:#D28C5F"/>
					<stop  offset="1" style="stop-color:#673A1C"/>
				</linearGradient>
				<path id="path3397_1_" inkscape:connector-curvature="0" sodipodi:nodetypes="zcsccscz" class="st11" d="M1179.8,608.8
					c-3.6-0.8-4.4-2.3-4.4-2.3s8.5-82.9,10.4-98.9c1.9-16,20.4-153.4,20.4-153.4l6.6,0.3c0,0-13.4,134.6-17.1,168.5
					c-3.7,33.9-9.9,84.5-9.9,84.5S1183.4,609.6,1179.8,608.8L1179.8,608.8z"/>
				
					<linearGradient id="path3399_2_" gradientUnits="userSpaceOnUse" x1="1364.2654" y1="744.3948" x2="1384.3129" y2="741.5261" gradientTransform="matrix(1 0 0 -1 -138.38 1226.062)">
					<stop  offset="0" style="stop-color:#5D351A"/>
					<stop  offset="0.4869" style="stop-color:#D28C5F"/>
					<stop  offset="1" style="stop-color:#5D351A"/>
				</linearGradient>
				<path id="path3399_1_" inkscape:connector-curvature="0" sodipodi:nodetypes="zcsccscz" class="st12" d="M1216,612.5
					c-2.2-1.1-4.7-3.2-4.7-3.2s10.8-79.5,13.9-96.2c3.1-16.7,25.6-159.2,25.6-159.2l6.5-0.1c0,0-19.1,152.6-22.2,179.7
					c-3.1,27.2-11.6,78.2-11.6,78.2S1218.2,613.6,1216,612.5L1216,612.5z"/>
				
					<linearGradient id="path3377_2_" gradientUnits="userSpaceOnUse" x1="1413.8208" y1="789.2651" x2="1438.5145" y2="783.7751" gradientTransform="matrix(1 0 0 -1 -138.38 1226.062)">
					<stop  offset="0" style="stop-color:#563117"/>
					<stop  offset="0.4706" style="stop-color:#D28C5F"/>
					<stop  offset="1" style="stop-color:#4F2D17"/>
				</linearGradient>
				
					<path id="path3377_1_" inkscape:connector-curvature="0" sodipodi:nodetypes="cscscsssczczcsscssscccscssscscsczc" class="st13" d="
					M1247.1,612.2c0,0,17.6-107.5,18-109.5c0.4-2.1,4-9.1,4-9.1s-2.1-3.3-1.7-6.8c0.4-3.3,3.5-4.9,3.5-4.9s-3.2-9-1.3-15.7
					c1.9-6.7,20.7-83.8,21.5-88c0.7-4.1-0.6-10.4-0.3-12.5c0.4-2.1,2.4-2.2,2.4-2.2s-2-3.1-1.8-5c0.2-1.9,3-3.4,3-3.4
					s2.5-18.1,4.1-27.2c1.6-9.1,7.1-27.6,7.1-27.6s-2-1.6-0.1-6.5s3.6-8.1,4.1-9.4c0.6-1.3-1.1-5.1-1.1-5.1s-4.9-19.5,14.6-15.8
					c19.9,3.8,2.9,19.6,2.1,21.2c-2.8,5.5,2.4,5.6,1.4,14.4c-0.4,3.1-3.9,5.8-3.9,5.8l-2.6,27.5l-7,27c0,0,2,0.3,1.5,3.4
					c-0.5,3.1-2.2,4.6-2.2,4.6s0.2,3-0.4,5c-0.6,2.1-4.1,1.6-4.5,4.3c-0.5,2.7-14.2,94-15.1,97.4c-0.9,3.4-5.8,10.9-5.8,10.9
					s2.8,1.8,2.1,5.5c-0.7,3.8-3.4,6.3-3.4,6.3s-2.3,26.4-3.4,31.5c-2.4,11.2-18.8,86.4-18.8,86.4s-5.8,1.5-8.4,1
					C1251.9,615.4,1247.1,612.2,1247.1,612.2L1247.1,612.2z"/>
				
					<linearGradient id="path3352_2_" gradientUnits="userSpaceOnUse" x1="1186.3549" y1="797.3267" x2="1215.4698" y2="796.3592" gradientTransform="matrix(1 0 0 -1 -138.38 1226.062)">
					<stop  offset="0" style="stop-color:#4F2D17"/>
					<stop  offset="0.4706" style="stop-color:#D28C5F"/>
					<stop  offset="1" style="stop-color:#4D2C16"/>
				</linearGradient>
				
					<path id="path3352_1_" inkscape:connector-curvature="0" sodipodi:nodetypes="cscscsssczccsscsssccscssscscsczc" class="st14" d="
					M1050.1,600.9c0,0,0.4-107.8,0.4-109.8c0-2,2.7-10,2.7-10s-4-2-3.3-5.4c0.7-3.3,4.7-6,4.7-6s-6.7-6.7-6-13.4
					c0.7-6.7,6.7-81,6.7-85.1c0-4-3.3-8.7-3.3-10.7s2.7-6,2.7-6s-3.3-2.8-3.3-4.7c-0.1-1.9,2.8-3.6,2.8-3.6l1.2-53.3c0,0-4-1-3-6
					c1-5,5.7-9.4,6-10.7s-3.7-3-3.7-3s-10.4-19.8,9.7-18.1c20.1,1.7,7.2,18.5,6.7,20.1c-1.8,5.7,2.4,4.4,2.8,12.9
					c0.2,3-2.8,6.2-2.8,6.2v53.2c0,0,3.5,0.9,3.5,3.9s-2.9,3.7-2.9,3.7s2,2.7,2,4.7c0,2-3.3,3-3.3,5.7s2.3,90.4,2,93.8
					c-0.3,3.3-4,11.4-4,11.4s3.7,2.3,3.7,6c0,3.7-3.3,5.7-3.3,5.7s2.7,25.1,2.5,30.2c-0.5,11.1-5,88-5,88s-5.2,2.8-8,2.8
					C1055.3,603.4,1050.1,600.9,1050.1,600.9L1050.1,600.9z"/>
				<path id="path4187_2_" inkscape:connector-curvature="0" class="st15" d="M1071,343.7c0,0,99.5,9.6,114.2,9.6
					c14.7,0,109.4-0.7,109.4-0.7l-1,2.4c0,0-100.1,1.4-111.1,0.7c-11-0.7-111.5-9.3-111.5-9.3L1071,343.7z"/>
				<path id="path3379_1_" inkscape:connector-curvature="0" sodipodi:nodetypes="cc" class="st16" d="M1309.7,280.8
					c0,0,8.5-1.4,15.7,2.5"/>
				<path id="path3381_1_" inkscape:connector-curvature="0" sodipodi:nodetypes="cc" class="st16" d="M1305.4,299.5
					c0,0,12.5-0.7,18.2,4.1"/>
				<path id="path3383_1_" inkscape:connector-curvature="0" sodipodi:nodetypes="cc" class="st16" d="M1293.2,363.2
					c0,0,8.1-2,18.8,3.2"/>
				<path id="path3385_1_" inkscape:connector-curvature="0" sodipodi:nodetypes="cc" class="st17" d="M1291.2,371.8
					c0,0,10.9-3,17.7,2.5"/>
				<path id="path3387_1_" inkscape:connector-curvature="0" sodipodi:nodetypes="cc" class="st18" d="M1271.5,481.7
					c0,0,12.1-0.6,16.3,2.8"/>
				<path id="path3389_1_" inkscape:connector-curvature="0" sodipodi:nodetypes="cc" class="st19" d="M1269.6,493.1
					c0,0,9.1-0.4,16,3.7"/>
				<path id="path3354_1_" inkscape:connector-curvature="0" sodipodi:nodetypes="cc" class="st20" d="M1057.8,275.1
					c0,0,4.9-2.2,12.7,0.1"/>
				<path id="path3356_1_" inkscape:connector-curvature="0" sodipodi:nodetypes="cc" class="st20" d="M1055,292.6
					c0,0,10.2-3,16.6,0.6"/>
				<path id="path3358_1_" inkscape:connector-curvature="0" class="st20" d="M1054.7,354c0,0,6.3-2.5,17.6,0.6"/>
				<path id="path3360_1_" inkscape:connector-curvature="0" class="st20" d="M1052.9,362.3c0,0,11.5-3.7,19.2,0.4"/>
				<path id="path3362_1_" inkscape:connector-curvature="0" class="st20" d="M1054.5,469.5c0,0,8.6-1.8,13.4,0.7"/>
				<path id="path3364_1_" inkscape:connector-curvature="0" class="st20" d="M1053.3,481.1c0,0,8.9-2.2,16.3,0.5"/>
			</g>
			<g id="g8423_1_">
				<path id="path3348_1_" inkscape:connector-curvature="0" class="st8" d="M918.8,618.6v24.2c0,0,13.7,4.7,23.7,6.2
					c9.9,1.4,130.2,16.1,135,16.1c4.7,0,72.9,0.9,79.6,0.9s36.5-2.4,42.1-2.4c5.7,0,73.9-25.1,73.9-25.1l0.5-6.2l-0.9-18.9l-6.2-2.4
					L1093,598.7l-18.5-1.4l-30.8,0.9l-78.6,10.4l-40.3,7.1L918.8,618.6z"/>
				<path id="path3350_1_" inkscape:connector-curvature="0" sodipodi:nodetypes="csscszc" class="st20" d="M919.3,619.1
					c0,0,40.7,12.3,54.5,12.3c13.7,0,118.9,9.9,126.9,9.9c8.1,0,89.5,0.5,89.5,0.5s10.4-0.9,18-1.4c7.6-0.5,59.6-19.9,62.5-22.3
					c2.9-2.4,1.8-4.3,1.8-4.3"/>
				
					<linearGradient id="path4349_2_" gradientUnits="userSpaceOnUse" x1="1397.0229" y1="594.5192" x2="1325.8655" y2="571.8698" gradientTransform="matrix(1 0 0 -1 -138.38 1226.062)">
					<stop  offset="0" style="stop-color:#8F5228"/>
					<stop  offset="1" style="stop-color:#D28C5F"/>
				</linearGradient>
				<path id="path4349_1_" inkscape:connector-curvature="0" sodipodi:nodetypes="ccccccccsc" class="st21" d="M1183.9,642.2l1,21.2
					l16.6-0.6l36.9-12.2l34.2-12.5l0.4-9.5l-0.8-10.7l-28.4,11.8c0,0-29,10.2-37.6,11.5C1196.5,642.6,1183.9,642.2,1183.9,642.2
					L1183.9,642.2z"/>
			</g>
		</g>
	</g>
	<g>
		<path id="path6947" inkscape:connector-curvature="0" sodipodi:nodetypes="csssc" class="st22" d="M1120.1,808.8
			c24.2,34.9,32.6,68,25.7,95.1c-8.8,34.1-45.1,49.9-82.2,51c-42.2,1.2-67.4-24.8-74.9-40.6c-9.2-19.3-17.1-67.3,24.5-106.4"/>
		
			<path id="path7222" inkscape:connector-curvature="0" sodipodi:nodetypes="ccsscssssssssssssssssssssssssssssssssssssssssccc" class="st23" d="
			M1012.5,831.4h-0.2c-39.7,32.3-26.9,70.7-18.1,86.7c7.2,13.1,26,36.9,66.2,35.8c26.1-0.7,51.7-8.4,66.8-23.7
			c-0.2,0.1-0.3,0.3-0.5,0.4c-1.5,1.1-3.1,2.2-4.8,3.2s-3.4,2-5.1,2.8c-1.8,0.9-3.6,1.7-5.5,2.5c-1.9,0.8-3.8,1.5-5.7,2.2
			c-2,0.7-4,1.3-6,1.9s-4.1,1.1-6.2,1.6s-4.2,0.9-6.3,1.3c-2.1,0.4-4.3,0.7-6.5,0.9c-2.2,0.3-4.4,0.5-6.6,0.6
			c-2.2,0.2-4.4,0.3-6.6,0.3c-2.5,0.1-5,0-7.4-0.1c-2.4-0.1-4.7-0.3-7-0.6c-2.3-0.3-4.5-0.6-6.6-1s-4.2-0.9-6.2-1.4
			c-2-0.5-4-1.1-5.8-1.8c-1.9-0.7-3.7-1.4-5.4-2.1c-1.8-0.7-3.4-1.5-5.1-2.4c-1.6-0.8-3.2-1.7-4.7-2.6c-1.5-0.9-2.9-1.8-4.3-2.7
			c-1.4-0.9-2.7-1.9-3.9-2.9s-2.4-2-3.5-2.9c-1.1-1-2.1-2-3.1-3s-1.9-2-2.7-2.9c-0.8-1-1.6-1.9-2.3-2.8c-1.4-1.9-2.6-3.6-3.5-5.3
			c-0.6-1-1.1-2.1-1.6-3.3c-0.5-1.2-1-2.4-1.5-3.8s-1-2.8-1.4-4.2s-0.8-3-1.1-4.7c-0.3-1.6-0.6-3.3-0.8-5c-0.2-1.7-0.4-3.5-0.5-5.4
			s-0.1-3.7,0-5.6c0.1-1.9,0.2-3.9,0.5-5.9c0.2-2,0.6-4,1-6.1c0.4-2.1,1-4.1,1.7-6.2c0.7-2.1,1.5-4.2,2.4-6.3c0.9-2.1,2-4.3,3.2-6.4
			c1.2-2.1,2.5-4.3,4-6.4c1.5-2.1,3.1-4.2,4.9-6.4c1.8-2.1,3.7-4.2,5.9-6.3C1012.4,831.6,1012.5,831.5,1012.5,831.4L1012.5,831.4z"
			/>
		<path id="path7180" inkscape:connector-curvature="0" sodipodi:nodetypes="ssssss" class="st24" d="M1067.8,866.9
			c-16.7,2.5-24.2,15.6-28.1,33.7c-4.5,20.7,13.6,42.1,32.1,46.1c18.5,4,37.1-6.3,41.5-27c4.5-20.7-2.9-50.9-20.7-53.3
			C1090.3,866.1,1070.1,866.6,1067.8,866.9L1067.8,866.9z"/>
		<path id="path6870" d="M1094.6,777.8c6.6,7.2,12.5,14.2,17.7,20.9c5.1,6.7,9.5,13.1,13.3,19.3c7.5,12.3,12.3,23.3,15.5,33.1
			c2,6.2,3.3,12,4.2,17.1c0.8,5.2,1.2,9.8,1.2,13.9c0,4.1-0.2,7.8-0.7,11.1c-0.5,3.3-1.1,6.3-1.8,9c-0.3,1-0.5,1.9-0.8,2.8
			c-0.8,2.3-1.9,5.3-3.5,8.5c-1.6,3.2-3.7,6.7-6.5,10.2c-2.3,2.9-5,5.8-8.1,8.4c-3.1,2.7-6.5,5.2-10.2,7.4
			c-3.8,2.3-7.7,4.2-11.8,5.9c-4,1.7-8.1,3-12.1,4.1l0,0c-5.5,1.5-10.7,2.5-15.3,3.2c-4.6,0.6-8.6,0.9-11.6,1.1
			c-1.1,0.1-2,0.1-2.8,0.1c-2.2,0-5.7,0-10.1-0.6c-4.4-0.5-9.6-1.5-15.1-3.4c-3.5-1.2-7.2-2.6-10.8-4.4c-3.6-1.8-7.2-4-10.6-6.4
			c-5.6-4-10.7-8.7-14.9-13.8c-1.8-2.1-3.4-4.3-4.8-6.5c-1.4-2.2-2.6-4.4-3.6-6.5c-1.7-3.6-2.9-7.2-3.8-10.4c-0.9-3.2-1.5-6.1-2-8.5
			c-0.3-1.6-0.5-2.9-0.7-4c-0.4-2.6-0.8-5.8-1.1-9.6c-0.2-3.7-0.2-8,0.1-12.5c0.4-4.7,1.2-9.7,2.4-14.7c1.3-5.1,3.1-10.2,5.3-15
			c2.4-5.1,5.3-10,8.4-14.5c3.1-4.4,6.6-8.4,9.9-11.9c1.3-1.3,2.2-2.3,2.8-2.9c0.6-0.6,0.8-0.9,0.7-0.9c-0.2,0-1.8,1.2-4.3,3.4
			c-2.5,2.2-5.8,5.4-9.4,9.7c-3.6,4.3-7.3,9.6-10.6,15.9l0,0c-2.3,4.5-4.4,9.4-6,14.6c-1.6,5.2-2.7,10.6-3.4,16
			c-0.6,4.8-0.7,9.6-0.5,14.2c0.2,4.6,0.7,9,1.5,13.1c0.8,4.2,1.8,8.1,3,11.4c1,2.8,2.2,5.6,3.5,8.4c2.5,5,5.8,9.5,9.5,13.5l0,0
			c4.8,5.3,10.3,10,16.1,13.8c3.6,2.4,7.4,4.4,11.2,6.2c3.8,1.7,7.6,3.1,11.3,4.2l0,0c5.5,1.6,10.8,2.5,15.6,3
			c4.8,0.5,9.2,0.6,13,0.5c1.8,0,3.5-0.1,5-0.2c2.2-0.1,5.3-0.3,9.1-0.8c3.8-0.5,8.3-1.2,13.3-2.4c3.8-0.9,7.9-2.1,12.1-3.7
			c4.2-1.6,8.5-3.5,12.7-5.9l0,0c3.6-2,7.2-4.4,10.5-7.1c3.3-2.7,6.5-5.7,9.3-9c2.9-3.4,5.3-7.2,7.3-11c2-3.9,3.5-7.9,4.6-11.9
			c1.9-7.3,2.5-14.2,2.4-20.3c-0.1-6.1-0.8-11.2-1.5-15.1c-0.5-2.4-1.1-5.1-1.9-8.1c-0.8-3-1.9-6.3-3.2-9.7c-1.5-4-3.3-8.3-5.3-12.5
			c-2-4.3-4.3-8.6-6.8-12.8c-2.5-4.2-5.2-8.4-7.9-12.4c-2.8-4-5.6-7.7-8.3-11.2c-5.5-7-10.8-12.8-14.6-16.9
			C1097,780.2,1094.6,777.8,1094.6,777.8L1094.6,777.8z"/>
		<path id="path7639" inkscape:connector-curvature="0" sodipodi:nodetypes="ccc" class="st22" d="M984.8,949.1
			c-1-16.6,1-38.4,21.4-38.7c16.2-0.2,32.1,14.4,35.4,31.6"/>
		<path id="path7635" inkscape:connector-curvature="0" sodipodi:nodetypes="csccc" class="st22" d="M1179,930.6
			c0,0-7.7-22.8-15.1-30.1c-2-1.9-9.8-7.8-17-6.2c-18.2,4.4-28.3,24.6-33.3,40.2c-0.7,2.3-3.9,11-1.1,17.1"/>
		<path id="path7988" inkscape:connector-curvature="0" sodipodi:nodetypes="cccccc" class="st23" d="M1114.9,947.8
			c-2.8-6,2.6-14.1,3.2-16.4c0.9-2.9,4.1-7.8,3.3-11.3c-2.2,4.6-6.1,10.7-7.5,15c-0.7,2.3-3.9,11-1.1,17.1
			C1136.3,949.2,1126.7,944.5,1114.9,947.8L1114.9,947.8z"/>
		<path id="path7651" d="M985.1,949.5c-0.4-5.1-0.2-9.3,0.2-12.8l0,0c0.4-2.8,0.9-5.2,1.5-7.2c0.6-2,1.3-3.6,1.9-4.9l0,0
			c0.7-1.3,1.3-2.3,1.9-3.2c0.6-0.9,1.2-1.6,1.7-2.2c0.7-0.8,1.7-2,3.1-3.2c1.3-1.1,3.1-2.2,5-2.9c1.9-0.7,4.1-1.2,5.9-1.3
			c2.4-0.2,4.5,0,5.5,0.1c0.5,0.1,1.4,0.3,2.4,0.6c1.1,0.4,2.3,0.9,3.6,1.6c1.8,0.9,3.7,2.1,5.4,3.5c1.7,1.4,3.3,2.8,4.7,4.2
			c1.7,1.8,3,3.4,3.7,4.1c0.7,0.6,1.5,1.6,2.5,2.7c0.9,1.2,1.9,2.5,2.9,4.1c0.9,1.5,1.8,3.2,2.5,4.8c0.7,1.7,1.2,3.3,1.5,4.8
			c0.2,0.7,0.3,1.1,0.4,1.1c0.1,0,0.3-0.4,0.4-1c0.2-1.2,0.2-3.6-0.4-6.5c-0.3-1.4-0.7-2.9-1.2-4.5c-0.6-1.5-1.3-3.1-2.1-4.5
			s-1.7-2.8-2.7-4c-0.9-1.2-1.9-2.2-2.8-2.9c-0.6-0.5-1.2-1-1.8-1.4c-1.9-1.4-3.9-2.7-6-3.8c-2.1-1.1-4.2-2-6.1-2.6
			c-1.7-0.6-3.4-1-4.8-1.4c-1.4-0.3-2.7-0.5-3.6-0.7c-0.8-0.2-2.2-0.5-4.1-0.6c-1.8-0.1-4-0.1-6.3,0.4c-2.3,0.5-4.8,1.4-7,2.9
			c-2.1,1.4-3.8,3.3-5.1,5.1c-1.3,1.8-2.2,3.6-2.7,5.1c-0.2,0.7-0.4,1.2-0.5,1.7c-0.3,1.3-0.6,3.1-0.8,5.1s-0.3,4.3-0.2,6.5
			c0.1,3.3,0.5,6.6,0.8,9C984.7,947.9,985.1,949.5,985.1,949.5L985.1,949.5z"/>
		<path id="path8013" inkscape:connector-curvature="0" class="st23" d="M1148.6,895.4c-0.9,0-1.8,0.1-2.7,0.3
			c-6.9,1.7-12.6,5.6-17.4,10.7c0.1-0.1,0.1-0.1,0.2-0.2c0.8-0.8,1.7-1.5,2.6-2.2c0.9-0.7,1.8-1.3,2.8-1.9c1-0.6,1.9-1.1,3-1.7
			c1-0.5,2.1-1,3.1-1.4c1.1-0.4,2.2-0.7,3.3-1c0.9-0.2,1.8-0.3,2.7-0.3c0.9,0,1.8,0.1,2.7,0.3c0.9,0.2,1.8,0.4,2.6,0.7
			c0.8,0.3,1.7,0.7,2.4,1c1.6,0.8,3,1.6,4.1,2.4c1.1,0.8,2,1.5,2.5,2c0.9,0.9,1.9,2.1,2.8,3.4c0.9,1.3,1.8,2.8,2.7,4.4
			c0.9,1.6,1.7,3.2,2.5,4.9c0.8,1.7,1.6,3.4,2.3,5.1c1.4,3.3,2.6,6.4,3.5,8.6c0.5,1.4,0.6,1.6,0.8,2.2l2.9-0.9
			c0,0-7.7-22.8-15.1-30.1C1161.2,900.2,1155,895.4,1148.6,895.4L1148.6,895.4z"/>
		<path id="path7649" d="M1178.6,928.8c-1.5-4.4-2.8-8.3-4-11.7l0,0c-1.5-3.9-2.8-7.1-4.2-9.8c-0.8-1.7-1.7-3.3-2.6-4.7
			s-1.8-2.5-2.7-3.5c-0.9-1-1.8-1.7-2.6-2.4c-1.3-1-2.5-1.8-3.6-2.4c-0.2-0.1-0.4-0.2-0.7-0.3c-1.2-0.6-2.9-1.3-5-1.7
			c-2.1-0.4-4.5-0.5-7,0.1l0,0c-2.5,0.7-5,1.9-7.1,3.1c-2.1,1.3-3.9,2.6-5.3,3.8c-1,0.9-1.8,1.7-2.3,2.2c-0.6,0.6-1.7,1.6-3,2.9
			c-1.3,1.3-2.9,3-4.5,4.9c-1.2,1.5-2.5,3.2-3.6,4.9s-2.2,3.4-3.1,5c-1.8,3.2-3.1,6.1-3.6,7.5c-0.5,1.6-1.3,4.2-2.2,7.1
			c-0.7,2.6-1.2,5.6-1.4,8.6c-0.1,1.9-0.1,3.8,0.3,5.6c0.2,1.1,0.6,2.3,1.3,3.2c0.3,0.4,0.5,0.7,0.8,0.9s0.4,0.3,0.5,0.4
			c0.2,0.1,0.2-0.1,0-0.4s-0.5-0.9-0.7-1.7c-0.2-0.7-0.4-1.7-0.3-2.7c0-0.8,0.1-1.6,0.2-2.4c0.1-0.9,0.3-1.8,0.6-2.7
			c0.6-2.5,1.5-5.2,2.6-7.7c0.9-1.9,1.7-3.9,2.5-5.6c0.8-1.8,1.4-3.4,1.9-4.8c0.8-2.4,1.7-4.8,2.8-7.1s2.3-4.6,3.5-6.7
			c1.4-2.3,2.9-4.3,4.3-5.9c1.4-1.6,2.8-2.8,3.9-3.6c0.2-0.2,0.5-0.4,0.8-0.6c1.1-0.7,2.8-1.8,4.9-2.7c2.1-0.9,4.6-1.8,7.3-2.3l0,0
			c1.5-0.3,3.1-0.1,4.7,0.3c1.6,0.4,3.1,1.1,4.5,1.8c1.4,0.7,2.6,1.5,3.7,2.3c0.9,0.7,1.6,1.2,2.2,1.8c0.8,0.7,1.4,1.4,2,2
			c0.5,0.5,1,1.2,1.7,2c0.6,0.8,1.3,1.7,2,2.7c1.8,2.6,3.7,5.8,5.3,9C1176.2,923.6,1178.6,928.8,1178.6,928.8L1178.6,928.8z"/>
		<path id="path7019" inkscape:connector-curvature="0" sodipodi:nodetypes="cssssssc" class="st22" d="M1015.4,802.7
			c0,0-20.7,11.8-32.5,29.9c-9.9,15.1-21.5,45.6-21.2,65.5c0.2,15.7,8.9,31.2,20.2,33.4c9.1,1.8,22.6-2.1,25.2-6.6
			c14.3-24,1.6-37.8,0.9-62.4c-0.6-19.8,2.2-25.4,5.2-33.6c1.1-3.2,11.2-22,11.2-22"/>
		<path id="path4049" inkscape:connector-curvature="0" sodipodi:nodetypes="cssssssscc" class="st22" d="M1123.5,688.7
			c0,0,11.3-16.9,14.3-19.7c3-2.8,3.8-6.6,10.7-7.6c6.9-1,17.9,3.3,20.4,4.9c2.5,1.6,11.8,8.1,13.6,10.4c1.8,2.3,3.1,9.4,3,14.3
			c-0.2,4.9-4.8,15.5-6.6,17.3c-1.8,1.8-11.8,11.2-15.1,12.3c-3.3,1.2-21,3.8-21,3.8L1123.5,688.7z"/>
		<path id="path7235" inkscape:connector-curvature="0" class="st23" d="M1012,804.7c-6.1,4-20.3,14-29.4,27.9
			c-9.9,15.1-21.5,45.6-21.2,65.5c0.2,15.7,8.9,31.1,20.2,33.4c8.8,1.7,21.6-1.9,24.8-6.2c-0.6,0.3-1.1,0.6-1.8,0.8
			c-1.1,0.4-2.2,0.8-3.4,1.1c-1.2,0.3-2.5,0.6-3.7,0.8c-1.3,0.2-2.6,0.4-3.9,0.5c-1.3,0.1-2.6,0.1-3.8,0.1c-1.2-0.1-2.5-0.2-3.6-0.4
			c-0.7-0.1-1.4-0.3-2.1-0.6s-1.4-0.5-2-0.9c-1.3-0.7-2.6-1.5-3.8-2.5c-1.2-1-2.3-2.2-3.4-3.5s-2.1-2.7-3-4.2
			c-0.9-1.5-1.7-3.2-2.4-4.9c-0.7-1.7-1.3-3.5-1.8-5.4s-0.9-3.7-1.2-5.7c-0.3-1.9-0.4-3.9-0.5-5.8c0-2.5,0.1-5.1,0.4-7.9
			c0.3-2.8,0.8-5.7,1.4-8.6c0.6-2.9,1.3-5.9,2.2-9c0.8-3,1.8-6.1,2.8-9.1c1-3,2.1-6,3.3-8.8c1.2-2.9,2.4-5.7,3.6-8.3
			c1.2-2.6,2.5-5.2,3.8-7.5c1.3-2.3,2.5-4.4,3.8-6.3c1.5-2.3,3.1-4.4,4.8-6.5s3.5-4,5.3-5.8c1.8-1.8,3.6-3.5,5.4-5.1
			c1.8-1.6,3.5-3,5.2-4.3C1009.5,806.3,1010.6,805.7,1012,804.7L1012,804.7z"/>
		<path id="path4026" inkscape:connector-curvature="0" sodipodi:nodetypes="cssscssssssssssssc" class="st22" d="M984.2,726.8
			c0,0-2.8,25.1-1.4,29.3c1.4,4.2,7.4,27,8.4,28.8c0.9,1.9,16.7,20,21.4,22.3c4.7,2.3,20.5,8.4,20.5,8.4s38.6,6,50.2,4.7
			c11.6-1.4,29.3-3.3,34.4-7.9c4-3.7,13-7.2,17.7-11.2c6-5.1,13-6.5,16.3-9.8c3.3-3.3,10.2-16.3,11.2-26c0.9-9.8,0-26.1-2.8-32.1
			c-3-6.5-6-12.1-7.9-15.8c-1.9-3.7-23.3-30.7-26.5-35.8c-3.3-5.1-17.7-16.7-21.9-17.7c-4.2-0.9-32.1-6-40-5.1
			c-7.9,0.9-27,9.8-31.2,12.6c-4.2,2.8-20.5,19.5-22.8,22.3C1007.5,696.6,984.2,721.2,984.2,726.8L984.2,726.8z"/>
		<path id="path4187" inkscape:connector-curvature="0" class="st25" d="M1052.3,818.3c11.6,1.5,24.8,2.8,31,2
			c11.6-1.4,29.3-3.2,34.4-7.9c4-3.7,13.1-7.2,17.7-11.2c6-5.1,13-6.5,16.3-9.8c3.3-3.3,10.2-16.3,11.2-26c0.9-9.8,0-26.1-2.8-32.1
			c-1.9-4.1-3.8-7.7-5.4-10.9c4-0.7,7.8-1.4,9.2-1.9c3.3-1.2,13.3-10.5,15.1-12.3c1.8-1.8,6.4-12.3,6.6-17.3c0.2-4.9-1.1-12-3-14.3
			c-1.8-2.3-11.2-8.7-13.7-10.4c-2.2-1.5-11.1-5-17.9-5.1c1.7,0.3,3.5,0.7,5.2,1.1c2,0.6,3.8,1.2,5.3,1.8c1.5,0.6,2.6,1.2,3.3,1.6
			c1.2,0.8,4.2,2.8,7.1,4.9c1.4,1,2.9,2.1,4,3.1c1.2,1,2.1,1.8,2.5,2.4c0.5,0.6,0.9,1.4,1.2,2.5s0.7,2.3,1,3.6
			c0.3,1.3,0.5,2.8,0.6,4.1c0.1,1.4,0.2,2.8,0.1,4c0,1.2-0.4,2.8-0.8,4.5c-0.5,1.7-1.1,3.5-1.8,5.3c-0.7,1.7-1.5,3.4-2.1,4.7
			c-0.7,1.3-1.3,2.3-1.8,2.8c-0.9,0.9-3.9,3.7-7,6.4c-1.6,1.4-3.2,2.7-4.6,3.8c-1.4,1.1-2.7,1.9-3.5,2.2c-0.7,0.2-2,0.5-3.6,0.8
			s-3.6,0.7-5.6,1c1.6,3.1,3.5,6.8,5.4,10.9c0.4,0.8,0.7,1.7,1,2.7c0.3,1,0.5,2.2,0.8,3.5c0.5,2.5,0.8,5.4,1.1,8.5
			c0.2,3,0.4,6.2,0.4,9.2c0,3-0.1,5.9-0.4,8.3c-0.1,1.2-0.3,2.5-0.6,3.8c-0.3,1.3-0.7,2.6-1.1,3.9c-0.8,2.6-1.9,5.3-3,7.7
			s-2.3,4.7-3.5,6.5c-1.1,1.8-2.2,3.3-3,4.1c-0.4,0.4-0.9,0.8-1.4,1.1c-0.5,0.4-1.1,0.7-1.7,1c-1.2,0.7-2.6,1.3-4,2
			c-1.5,0.7-3,1.5-4.5,2.4c-1.6,0.9-3.1,2-4.6,3.2c-1.2,1-2.6,1.9-4.1,2.9c-1.6,0.9-3.3,1.9-4.9,2.8c-1.7,0.9-3.3,1.8-4.8,2.8
			c-1.5,0.9-2.8,1.8-3.8,2.7c-0.6,0.6-1.5,1.1-2.5,1.6s-2.1,0.9-3.4,1.4c-1.3,0.4-2.7,0.8-4.2,1.2c-1.5,0.4-3.1,0.7-4.7,1
			c-3.3,0.6-6.7,1.1-10.1,1.6c-3.4,0.4-6.7,0.8-9.6,1.2c-1.5,0.2-3.3,0.2-5.5,0.2c-2.2,0-4.6-0.1-7.3-0.3
			C1061.9,819.4,1057.1,818.8,1052.3,818.3L1052.3,818.3z"/>
		<path id="path4304" inkscape:connector-curvature="0" sodipodi:nodetypes="sssss" class="st23" d="M1104.8,731.8
			c-2.2-1.2-2.7-5.9-3.9-3.5c-1.6,3.2-0.7,7.9,1.2,9.6c1.6,1.5,10.7,2.7,10.7,0C1112.9,735.1,1107.1,733,1104.8,731.8L1104.8,731.8z
			"/>
		<path id="path4412" class="st23" d="M1077.7,736c0-2,0.1-6.8,0.2-12.5c0.1-4.8,0.3-10.3,0.5-15.3c0.1-2,0.2-3.9,0.3-5.6
			c0-0.7,0.1-1.3,0.2-1.9c0-0.4,0.1-0.8,0.2-1.1c0.2-0.9,0.3-1.7,0.4-2.5v0c0.1-1.6,0.2-2.9,0.2-3.8c0-0.1,0-0.2,0-0.3
			c0-2.3,0-5.8-0.1-9.8c-0.1-3.2-0.3-6.8-0.7-10.3c-0.2-1.4-0.4-2.7-0.6-4.1c-0.2-0.9-0.4-1.9-0.9-2.8c-0.8-1.7-1.6-3.3-2.5-4.8
			c-0.2-0.4-0.4-0.7-0.7-1.1c-0.3-0.4-0.6-0.6-0.9-0.8c-0.3-0.2-0.5-0.3-0.7-0.3s-0.3-0.1-0.3-0.1s0,0,0,0.1c0.2,0.1,0.5,0.2,1,0.6
			c0.2,0.2,0.4,0.4,0.7,0.8c0.2,0.3,0.4,0.7,0.6,1.1c0.3,0.6,0.7,1.4,1.1,2.2s0.7,1.7,1.2,2.7c0.4,0.8,0.5,1.7,0.7,2.7
			c0.2,1.3,0.3,2.6,0.5,4c0.3,3.3,0.3,6.8,0.4,10.2c0,3.5,0,6.9-0.1,10l0,0c0,1.3-0.1,2.6-0.2,3.8c-0.1,0.7-0.1,1.3-0.2,1.8
			c0,0.1-0.1,0.3-0.1,0.4l0,0c-0.1,0.4-0.1,0.9-0.2,1.3l0,0c-0.1,0.6-0.1,1.3-0.1,1.9l0,0c-0.1,1.9-0.1,3.8-0.1,5.7l0,0
			c-0.1,5.3,0,10.5,0,15.3c0.1,6.5,0.1,12.1,0,15.5C1077.1,746.6,1077.8,747,1077.7,736L1077.7,736z"/>
		<path id="path7021" d="M1016.9,801.4c-4.4,3.1-8.6,5.9-12.5,8.6c-4.8,3.7-9.2,7.3-12.9,10.9c-3.8,3.6-7,7.2-9.7,10.7l0,0
			c-1.9,2.5-3.6,5-5,7.4c-1.4,2.4-2.7,4.7-3.8,6.9c-1.7,3.3-3,6.4-4.2,9.3c-1.2,2.9-2.1,5.5-3,7.9c-1.3,3.6-2.2,6.8-3,9.7
			c-0.8,2.9-1.4,5.5-1.8,7.9c0,0.1,0,0.2-0.1,0.4c-0.4,1.9-0.7,4.4-1,7.2c-0.3,2.8-0.5,6.1-0.4,9.6c0.1,2.9,0.2,6,0.7,9.2
			c0.5,3.2,1.3,6.5,2.7,9.5c1.3,2.6,3,4.9,4.9,6.9c1.9,2,4.1,3.6,6.3,5l0,0c1.9,1.2,3.9,2.1,5.9,2.8c2,0.6,3.9,1,5.6,1.2
			c1.8,0.2,3.4,0.2,4.8,0.1s2.7-0.2,3.7-0.4c0.3-0.1,0.6-0.1,0.9-0.2c0.9-0.2,2.1-0.4,3.5-0.9c1.4-0.4,3-1,4.7-1.9
			c1.2-0.6,2.4-1.3,3.5-2.2c1.2-0.9,2.3-2,3.4-3.3l0,0c1.5-1.8,2.8-3.9,3.8-6.3c1.1-2.3,1.8-4.9,2.2-7.6l0,0c0.4-2.5,0.4-5,0.3-7.5
			c-0.1-2.5-0.4-5-0.8-7.4l0,0c-0.5-2.9-1-5.6-1.6-8.3c-0.5-2.6-1.1-5.2-1.5-7.5c-0.6-3.3-1.1-6.2-1.4-8.7c-0.3-2.5-0.5-4.5-0.6-5.8
			c-0.1-0.7-0.1-1.6-0.2-2.4c-0.1-2.5-0.3-5.6-0.3-8.9c-0.1-3.4,0-7.1,0.5-10.8c0.2-1.9,0.7-3.8,1.2-5.7c0.6-1.9,1.3-3.9,2-5.8
			c2.3-6.1,4.9-12.1,7.5-17.5c0.8-1.7,1.7-3.3,2.4-4.9c1.1-2.2,1.5-3.2,1.4-3.3l0,0l0,0c-1.7-0.9-1.7-0.9,0,0l0,0l0,0
			c-0.2-0.1-2.2,2.8-5.1,7.6c-2.6,4.3-5.9,10.3-9,17.1c-1.7,3.7-3.3,7.7-4.2,12.1c-0.7,3.5-1,7-1.1,10.5c-0.1,3.5-0.1,6.8-0.1,10
			c0.1,5.1,0.8,9.7,1.6,13.5c0.3,1.4,0.6,2.8,1,4.2c1.3,5.2,2.8,10.3,4,15.5c0.5,2.3,1,4.7,1.2,7c0.3,2.3,0.3,4.6,0.1,6.9
			c-0.2,2.4-0.8,4.8-1.6,7c-0.9,2.2-2,4.2-3.3,6.1c-1.6,2.3-3.9,4-6.1,5.2c-3,1.6-6,2.4-8.6,2.8c-1.6,0.2-3.1,0.3-4.4,0.3
			c-1.5,0-3.6-0.2-6.1-0.8c-2.5-0.6-5.3-1.7-8.1-3.7c-1.9-1.3-3.8-2.9-5.4-4.7c-1.7-1.8-3.2-4-4.2-6.4l0,0c-1.1-2.6-1.7-5.4-2.1-8.4
			s-0.4-6.1-0.4-9.1c0-5.4,0.7-10.9,1.7-15.9c1.2-6.6,2.9-12.6,4.4-17.5c0.9-3,1.8-5.6,2.5-7.6c0.9-2.5,2-5.8,3.6-9.4
			c1.9-4.5,4.4-9.6,7.8-14.4l0,0c3-4.4,6.6-8.6,10.4-12.4c3.7-3.8,7.6-7.2,11-10C1011.9,805.1,1016.9,801.4,1016.9,801.4
			L1016.9,801.4z"/>
		<path id="path4098" inkscape:connector-curvature="0" class="st23" d="M1025.4,677.9c-6.3,6-14,14-15.5,15.9
			c-2.3,2.8-25.6,27.4-25.6,33c0,0-2.8,25.1-1.4,29.3c1.4,4.2,7.4,27,8.4,28.8c0.9,1.9,16.7,20,21.4,22.3c4.7,2.3,20.5,8.4,20.5,8.4
			s38.6,6,50.2,4.6c11.6-1.4,29.3-3.2,34.4-7.9c4-3.7,13-7.2,17.7-11.2c6-5.1,13-6.5,16.3-9.8c0.9-0.9,2.2-2.8,3.5-5.1
			c-0.9,0.4-1.7,0.9-2.7,1.4c-1.5,0.7-3,1.5-4.6,2.4c-1.6,0.9-3.1,2-4.6,3.2c-1.2,1-2.6,1.9-4.1,2.9c-1.6,0.9-3.3,1.9-4.9,2.8
			c-1.7,0.9-3.3,1.8-4.8,2.7c-1.5,0.9-2.8,1.8-3.8,2.7c-0.6,0.6-1.5,1.1-2.5,1.6c-1,0.5-2.1,1-3.4,1.4c-1.3,0.4-2.7,0.8-4.2,1.2
			c-1.5,0.4-3.1,0.7-4.7,1c-3.3,0.6-6.7,1.1-10.1,1.6c-3.4,0.4-6.7,0.8-9.6,1.2c-1.5,0.2-3.3,0.2-5.5,0.2s-4.6-0.1-7.3-0.3
			c-5.3-0.4-11.2-1-16.7-1.7c-11.1-1.3-20.8-2.8-20.8-2.8s-4-1.5-8.5-3.3c-4.5-1.8-9.6-3.9-12-5.1c-0.6-0.3-1.3-0.8-2.2-1.5
			c-0.9-0.7-1.9-1.6-3-2.7c-2.2-2.1-4.6-4.6-6.9-7.1c-2.3-2.5-4.5-5.1-6.2-7c-1.7-2-2.8-3.5-3.1-3.9c-0.5-0.9-2.2-7.1-4-13.6
			s-3.7-13.2-4.4-15.3c-0.2-0.5-0.3-1.4-0.4-2.5c-0.1-1.1-0.1-2.4,0-3.9c0.1-2.9,0.3-6.5,0.5-9.9c0.5-6.8,1.2-13.1,1.2-13.1
			c0-0.3,0.1-0.8,0.3-1.3s0.4-1,0.7-1.7c0.6-1.2,1.6-2.6,2.7-4.2c1.1-1.6,2.4-3.3,3.8-5c1.4-1.8,2.9-3.6,4.4-5.4
			c3.1-3.6,6.2-7.1,8.7-9.9c2.5-2.8,4.4-4.9,5-5.6C1018.6,684.9,1022.2,681.2,1025.4,677.9L1025.4,677.9z"/>
		<path id="path6998" inkscape:connector-curvature="0" sodipodi:nodetypes="cssssssc" class="st22" d="M1124,802.6
			c0,0,23,6.3,38.9,20.8c13.4,12.2,32.3,39,37,58.7c3.7,15.5,1.3,31.2-9.1,36.2c-8.4,4-24.4,5.2-28.1,1.5
			c-20-20-11.2-36.9-16.7-61.2c-4.5-19.6-14.2-26.6-15.4-29.7c-1.2-3.1-14.3-20-14.3-20"/>
		<path id="path7237" inkscape:connector-curvature="0" sodipodi:nodetypes="ccssssssssssssssssssssccssc" class="st25" d="
			M1127,803.8l-4.2,3.7c0.1,0,2.9-2.1,5-1.3c2.1,0.8,5,2.1,8.4,3.8c1.7,0.9,3.5,1.8,5.3,2.9c1.9,1.1,3.8,2.3,5.7,3.6
			s3.9,2.7,5.8,4.3c1.9,1.5,3.8,3.2,5.5,5c1.5,1.5,3,3.2,4.6,5.1c1.6,1.9,3.5,5.6,5.4,7.9c1.9,2.3,3.7,4.7,5.6,7.2
			c1.8,2.5,3.7,5.1,5.4,7.8c1.7,2.7,3.4,5.4,5,8.2c1.6,2.7,3,5.5,4.4,8.2c1.3,2.7,2.5,5.4,3.5,8.1c1,2.6,1.8,5.2,2.4,7.7
			c0.5,1.9,0.8,3.9,1.1,5.8c0.3,1.9,0.4,3.8,0.5,5.7c0.1,1.9,0,3.7-0.1,5.5c-0.1,1.8-0.4,3.5-0.8,5.1c-0.4,1.6-0.8,3.2-1.4,4.6
			c-0.6,1.4-1.3,2.8-2.1,4c-0.4,0.6-0.9,1.1-1.4,1.6c0,0,0.1,0,0.1,0c10.4-5,12.9-20.7,9.1-36.2c-4.8-19.6-23.7-46.5-37-58.7
			C1147,808.9,1127,803.8,1127,803.8L1127,803.8z"/>
		<path id="path6978" d="M1125,802.7c4.5,1.9,8.7,3.8,12.7,5.5c5.1,2.5,9.6,5.2,13.6,7.9c4,2.7,7.5,5.5,10.6,8.3
			c2.1,2,4,3.9,5.7,5.9c1.7,1.9,3.3,3.8,4.7,5.6c4.6,5.8,7.9,10.8,10.6,15.1c2.1,3.4,3.8,6.4,5.3,9.1c1.4,2.7,2.6,5.1,3.7,7.4
			c0.1,0.1,0.1,0.3,0.2,0.4c0.8,1.7,1.8,3.8,2.8,6.4c1,2.5,2.1,5.4,2.9,8.6c0.8,3.3,1.5,6.8,1.8,10.5c0.3,3.6,0.1,7.4-0.6,10.9
			c-0.6,3-1.6,5.8-3.1,8.2c-0.7,1.2-1.6,2.2-2.6,3.1c-1,0.9-2,1.6-3.1,2.2c-2.5,1.3-4.9,2-7.1,2.6c-2.2,0.5-4,0.9-5.2,1
			c-0.8,0.1-1.8,0.2-2.9,0.3c-1,0.1-2.1,0.1-3.3,0c-1.2,0-2.6-0.1-3.9-0.4c-0.9-0.2-1.8-0.4-2.6-0.7c-0.6-0.3-1.2-0.6-1.5-1
			c-1.8-2-3.7-4.2-5.4-6.6c-1.7-2.5-3.2-5.1-4.3-8l0,0c-1.8-4.5-2.7-9.4-3.1-14.2c-0.2-2.7-0.3-5.4-0.3-8c-0.1-2.6-0.1-5-0.2-7.3
			c-0.1-2.5-0.2-4.8-0.4-6.7c-0.2-1.9-0.4-3.5-0.6-4.7c-0.3-1.7-0.7-3.8-1.3-6.2c-0.9-3.5-2-7.8-3.8-12.2l0,0
			c-1-2.6-2.3-5.3-3.9-7.9c-1.2-1.9-2.6-3.8-4-5.5l0,0c-1.4-1.7-2.7-3.4-3.9-5.1c-0.4-0.6-0.9-1.1-1.3-1.6c-0.6-0.8-1.3-1.5-1.9-2.3
			c-1.7-1.9-3.4-3.8-5-5.6c-1.5-1.6-2.9-3.2-4.2-4.7c-0.1-0.1-0.2-0.3-0.3-0.4c-0.7-0.7-1.2-1.2-1.5-1.6c-0.2-0.2-0.3-0.3-0.5-0.4
			c-0.1,0-0.1-0.1-0.1-0.1l0,0c-0.4,0.3-0.7,0.6-0.9,0.7c-0.2,0.2-0.3,0.2-0.3,0.2l0,0l0,0l0,0c0,0,0.1-0.1,0.3-0.2
			c0.2-0.2,0.5-0.4,0.8-0.7l0,0c0,0,0,0.1,0.1,0.2c0.1,0.1,0.2,0.3,0.3,0.5c0.3,0.4,0.7,1.1,1.2,1.8c1,1.4,2.4,3.3,4.1,5.6
			c1.3,1.8,2.8,3.8,4.5,6c0.6,0.8,1.2,1.6,1.7,2.4c0.4,0.5,0.7,1,1,1.6c1.1,1.8,2.3,3.6,3.6,5.5c1.2,1.8,2.4,3.6,3.4,5.5
			c1.3,2.4,2.3,4.9,3.2,7.6c1.3,3.9,2.2,8,3,11.9c0.6,3,1,5.9,1.3,8.6c0.3,2.7,0.6,5.3,0.8,7.6c0,0.2,0,0.4,0.1,0.6
			c0.4,5,0.7,10.2,1.4,15.5l0,0c0.7,5.1,2,10.3,4.2,14.9c2.8,6,6.9,10.9,10.9,14.8c0.7,0.6,1.4,1,2.2,1.3c1,0.4,2,0.6,3,0.7
			c2.7,0.4,5.3,0.3,7.6,0.2c3.3-0.2,6.1-0.7,8.3-1.1c0.1,0,0.1,0,0.2,0c0.9-0.2,2-0.4,3.3-0.8c1.3-0.4,2.7-0.8,4.3-1.5l0,0
			c1.2-0.5,2.4-1.3,3.6-2.3c1.2-1,2.3-2.1,3.2-3.5c1.8-2.5,3.1-5.6,3.9-8.9c0.9-3.5,1.2-7.3,1.2-11.2c-0.1-3.9-0.6-7.9-1.5-11.7
			c-1.3-5.8-3.5-11.4-5.8-16.4c-3.1-6.7-6.6-12.4-9.5-16.8c-1.3-2-2.6-3.7-3.6-5.1c-2-2.6-4.7-6-8-9.7c-3.2-3.6-7.1-7.6-11.4-11.2
			c-4.1-3.4-8.5-6.4-12.9-9c-4.4-2.6-8.7-4.7-12.5-6.4C1130.3,804.7,1125,802.7,1125,802.7L1125,802.7z"/>
		<path id="path7025" d="M1172,914.5c0.3,0,0.5,0.1,0.7,0.3c0.2,0.2,0.4,0.5,0.5,1c0.1,0.4,0.2,0.9,0.2,1.5c0,0.5-0.1,1.1-0.2,1.6
			c-0.2,1.2-0.7,2.4-1.3,3.7c-0.2,0.4-0.4,0.7-0.6,1c-0.9,1.5-2,2.6-2.9,3.4c-0.5,0.4-1,0.6-1.4,0.7c-0.2,0.1-0.4,0.1-0.6,0.1
			c-0.1,0-0.2,0-0.3-0.1c-0.1-0.1-0.2-0.1-0.2-0.1c0,0,0,0,0,0l0,0l0,0c0,0,0,0,0,0c0,0-0.1-0.1-0.2-0.1c-0.1-0.1-0.1-0.1-0.2-0.2
			l0,0c-0.1-0.2-0.2-0.4-0.2-0.6c-0.1-0.4-0.1-1,0-1.6c0.1-1.2,0.6-2.6,1.3-4.1c0.2-0.3,0.3-0.7,0.5-1c0.6-1.1,1.2-2.1,1.8-3
			c0.3-0.5,0.6-0.8,0.9-1.1s0.6-0.5,0.8-0.7c0.3-0.2,0.5-0.4,0.7-0.5C1171.5,914.6,1171.7,914.5,1172,914.5L1172,914.5z"/>
		<path id="path7029" d="M1162.7,912.9c0.3,0,0.5,0,0.8,0.2c0.2,0.1,0.5,0.4,0.7,0.7c0.4,0.6,0.6,1.5,0.7,2.3c0.1,0.9,0,1.8-0.2,2.8
			c-0.1,0.3-0.2,0.6-0.3,0.9c-0.4,1.2-1,2.2-1.7,2.9c-0.3,0.3-0.7,0.6-1.1,0.7c-0.2,0.1-0.4,0.1-0.5,0.1c-0.1,0-0.2,0-0.3,0
			c-0.1,0-0.2,0-0.2,0c0,0,0,0,0,0l0,0l0,0c0,0,0,0,0,0c0,0-0.1,0-0.2-0.1c-0.1,0-0.2-0.1-0.2-0.1c-0.1-0.1-0.3-0.2-0.4-0.4
			c-0.2-0.3-0.4-0.7-0.5-1.2c-0.2-0.9-0.3-2-0.1-3.2c0-0.3,0.1-0.6,0.2-0.9c0.2-0.9,0.5-1.7,0.9-2.4c0.4-0.8,0.8-1.3,1.3-1.7
			c0.2-0.2,0.5-0.3,0.7-0.5C1162.2,913,1162.5,912.9,1162.7,912.9L1162.7,912.9z"/>
		<path id="path7033" d="M1185.3,916.6c0.8-0.1,1.5,0.3,2.1,1c0.6,0.8,1,1.9,1.1,3.2c0,0.9-0.1,1.7-0.4,2.4
			c-0.3,0.7-0.7,1.4-1.2,1.7c-0.2,0.2-0.5,0.3-0.7,0.4c-0.2,0.1-0.5,0.1-0.7,0c0,0,0,0,0,0s0,0,0,0l0,0c-0.2,0-0.5-0.1-0.7-0.3
			c-0.2-0.1-0.4-0.3-0.6-0.5c-0.4-0.4-0.7-0.9-1-1.6c-0.2-0.6-0.4-1.3-0.4-2c0-1.1,0.2-2.2,0.6-3
			C1183.9,917.3,1184.5,916.7,1185.3,916.6L1185.3,916.6z"/>
		<path id="path4028" inkscape:connector-curvature="0" sodipodi:nodetypes="ccccsccssssssc" class="st26" d="M1071.9,746.6h11.8
			l21.7,7.9l25.7,15.8c0,0,6.9,4.9,7.9,7.9c1,3-2.3,16.1-2.3,16.1l-4.3,13.2c0,0-25.3,20.4-34.5,22.7c-9.2,2.3-48.7,1.6-55.2-5.6
			c-6.6-7.2-21-25.3-21-31.2s-0.1-10.7,2.8-13.6c3-3,7-5,19.8-16.3c3.1-2.7,12-10.6,15.6-13.5
			C1063.6,746.8,1069.3,745.6,1071.9,746.6L1071.9,746.6z"/>
		<path id="path4191" inkscape:connector-curvature="0" sodipodi:nodetypes="scsccccssssscsccssssccccsccccs" class="st25" d="
			M1070.3,746.3c-2.2,0.1-4.9,0.9-7.3,2.2c0.8-0.1,1.5-0.3,2.2-0.3c1,0,10-1.2,10.7-1l11.4,1.2l14.5,6.6l25.2,17.3
			c0,0,1.7,1.2,3.6,2.8c0.9,0.8,1.9,1.7,2.7,2.6c0.4,0.4,0.7,0.9,1,1.3c0.3,0.4,0.5,0.8,0.6,1.2c0.1,0.4,0.2,0.9,0.2,1.5
			s0,1.4-0.1,2.2c-0.2,1.6-0.5,3.6-0.8,5.4c-0.7,3.7-1.5,6.9-1.5,6.9l-4.3,13.1c0,0-1.6,1.3-4.1,3.2s-6,4.6-9.7,7.3
			c-1.9,1.3-3.8,2.7-5.7,4s-3.9,2.6-5.7,3.7c-1.8,1.1-3.4,2-5,2.8c0.2,0,0.6-0.1,0.8-0.1c9.2-2.3,33.3-23.4,33.3-23.4l5.5-12.5
			c0,0,3.3-13.2,2.3-16.1c-1-3-7.9-7.9-7.9-7.9l-25.6-15.8l-21.7-7.9h-11.8C1072.1,746.3,1071.3,746.2,1070.3,746.3L1070.3,746.3z"
			/>
		<path id="path4091" inkscape:connector-curvature="0" sodipodi:nodetypes="cssssccssssssssssssssssssssssssc" class="st27" d="
			M1028.6,776.5c-1.5,1.1-2.7,2.1-3.7,3.1c-3,3-2.8,7.7-2.8,13.6s14.5,24,21.1,31.2c6.6,7.2,46,7.9,55.2,5.6s34.3-23.7,34.3-23.7
			l0.4-1.3c-2.5,1.9-5.3,5.1-8.8,7.7c-1.9,1.3-3.8,2.7-5.7,4c-1.9,1.3-3.9,2.6-5.7,3.7c-1.8,1.1-3.6,2.1-5.2,2.9s-3,1.3-4.1,1.6
			c-1.2,0.3-2.8,0.5-4.8,0.7s-4.3,0.3-6.8,0.4c-2.5,0.1-5.3,0.1-8.2,0c-2.9-0.1-5.9-0.2-8.8-0.4c-3-0.2-5.9-0.5-8.7-0.8
			c-2.8-0.4-5.4-0.8-7.8-1.3c-1.2-0.3-2.3-0.5-3.4-0.8s-2-0.6-2.9-1s-1.6-0.7-2.3-1.1s-1.2-0.8-1.6-1.3c-1.6-1.8-3.8-4.3-6.1-7.1
			c-2.3-2.8-4.7-5.9-6.9-9c-1.1-1.5-2.2-3.1-3.1-4.6c-1-1.5-1.8-2.9-2.5-4.2c-0.7-1.3-1.3-2.5-1.7-3.6c-0.4-1.1-0.6-2-0.6-2.7
			c0-1.5,0-2.9,0-4.2c0-1.3,0.1-2.6,0.3-3.7c0.2-1.2,0.4-2.2,0.8-3.2C1028.4,776.9,1028.5,776.7,1028.6,776.5L1028.6,776.5z"/>
		<path id="rect4154" inkscape:connector-curvature="0" sodipodi:nodetypes="cscccc" class="st27" d="M1072.1,778.7
			c0.8,3.4,2,3.6,4.3,6c2.3,2.3,2.3,10.4,1.8,18.8l3.5,1.4l-2.1-20.7L1072.1,778.7z"/>
		<path id="path3100" d="M1027,778.2c6.4-5,12.1-9.8,17.3-14.2c4.1-3.5,7.7-6.7,11.3-9.5h0c2.8-2.2,5.5-4.1,8.2-5.4
			c2.7-1.3,5.6-1.8,8.3-1.9l0,0c2.8-0.1,5.4-0.1,7.8,0c2.4,0.2,4.7,0.5,6.7,1c2.2,0.5,4.2,1.2,6,2c1.8,0.8,3.5,1.6,5,2.5
			c2.6,1.4,4.9,2.8,6.9,4.1c2.1,1.3,4,2.5,5.8,3.6c0.7,0.5,1.5,0.9,2.2,1.3c3.7,2.2,9.9,5.5,17.3,8.9c2.1,1,4.1,2.6,5.4,4.7
			c1.3,2.1,2.1,4.7,2.4,7.3l0,0c0.4,3.1,0.2,6.4-0.4,9.4c-0.6,3.1-1.6,6-2.7,8.6l0,0c-1,2.2-2.3,4.1-3.6,5.8
			c-1.3,1.7-2.7,3.1-3.9,4.3c-1.2,1.2-2.2,2.2-3,2.9c-0.9,0.8-2.1,1.8-3.8,3c-1.7,1.2-3.7,2.6-6.1,3.9c-4.4,2.6-9.9,5.2-15.9,7.2
			c-2.6,0.8-5.3,1.6-8,2.1c-2.7,0.5-5.5,0.8-8.1,0.9c-3.4,0.1-6.7-0.2-9.8-0.5c-3.1-0.4-6-1-8.7-1.6c-5.2-1.3-9.2-2.9-11.5-3.8
			c-0.2-0.1-0.4-0.1-0.5-0.2c-1.7-0.7-3.6-1.5-5.8-2.7s-4.5-2.6-6.8-4.3c-3.1-2.4-6.3-5.4-8.5-9.1c-1.5-2.6-3.1-5.1-4.5-7.7
			c-1.4-2.7-2.7-5.3-3.4-8.1c-0.7-2.6-0.9-5.2-0.2-7.5c0.3-1.8,1.1-3.4,2.1-4.8c0.6-0.8,1.1-1.4,1.5-1.8c0.4-0.4,0.6-0.7,0.7-0.8
			l0,0c-0.6-0.8-0.6-0.8,0,0c-0.1,0.1-0.3,0.2-0.7,0.5c-0.4,0.3-0.8,0.7-1.4,1.3c-0.5,0.6-1.2,1.3-1.8,2.1c-0.6,0.9-1.2,1.9-1.7,3.2
			c-0.4,1.1-0.7,2.4-0.8,3.9c-0.1,1.4,0,3,0.3,4.5c0.5,2.9,1.6,5.8,3,8.8c1.2,2.7,2.7,5.4,4.1,8.1c2.1,4.1,5.3,7.7,8.8,10.7
			c4.1,3.5,8.8,6.2,13.2,8.1c4,1.8,8,3,11.4,3.8c3.4,0.7,6.9,1.3,10.5,1.5c3.6,0.3,7.1,0.3,10.7,0c6-0.4,11.7-2,16.9-4
			c6-2.3,11.4-5.2,16-8.1l0,0c2.8-1.8,5.3-3.6,7.5-5.3c2.2-1.7,4.1-3.4,5.6-4.8c0.3-0.3,0.6-0.6,0.9-0.9c0.9-0.9,2.1-2,3.4-3.6
			s2.8-3.4,4-5.8c1.3-2.5,2.5-5.4,3.3-8.7c0.8-3.3,1.3-6.9,1-10.6c-0.2-3-0.9-6-2.5-8.8c-1.5-2.7-3.9-5-6.7-6.4
			c-6.6-3.3-13.1-7-19-10.5l0,0c-2.3-1.4-4.6-2.8-6.8-4.1c-2.2-1.3-4.3-2.5-6.2-3.5c-1.7-0.9-3.3-1.6-4.8-2.2s-2.9-1-4.1-1.4
			c-1-0.3-2.1-0.5-3.3-0.7c-2.1-0.4-4.5-0.6-7.2-0.6c-2.6,0-5.4,0.1-8.3,0.4c-3,0.3-6.2,1.1-9,2.6c-3.1,1.6-5.8,3.8-8.3,6
			c-3.9,3.4-7.5,6.9-10.9,10.1c-4.6,4.3-8.8,8.1-11.8,10.7C1028.9,776.6,1027,778.2,1027,778.2L1027,778.2z"/>
		<path id="path4285" inkscape:connector-curvature="0" sodipodi:nodetypes="sssss" class="st23" d="M1042.2,732.2
			c-2.2-1.2-4.4-6.6-4.4-3.9c0,2.7,0.8,7.2,2.7,8.9c1.6,1.5,11.7,3.2,11.7,0.6C1052.2,735.1,1044.4,733.5,1042.2,732.2L1042.2,732.2
			z"/>
		<path id="path3123" inkscape:connector-curvature="0" sodipodi:nodetypes="sssss" d="M1047.2,718.7c-5.2,0-8.8,2.5-8.8,7.6
			c0,5.2,3.6,10.6,8.8,11.1c5.7,0.6,9.7-3.9,9.4-9.4C1056.2,722.9,1052.3,718.7,1047.2,718.7L1047.2,718.7z"/>
		<path id="path3126" inkscape:connector-curvature="0" sodipodi:nodetypes="sssss" d="M1110,719.2c-5.2,0-9.2,3.4-9.2,8.6
			c0,5.2,2.2,10.1,7.4,10.6c5.7,0.6,9.7-3.9,9.4-9.4C1117.2,723.8,1115.1,719.2,1110,719.2z"/>
		<path id="path4030" inkscape:connector-curvature="0" class="st22" d="M987.6,727.7c0,0-12.3-4.3-14-6.1
			c-1.6-1.8-14.8-15.9-15-23.5c-0.2-7.6,0.3-17.8,6.9-24c6.6-6.2,17.6-12.7,22-13.3c4.4-0.7,15.9,4.3,18.1,6.6
			c2.1,2.3,17.1,16.6,18.1,17.9C1024.7,686.6,987.6,727.7,987.6,727.7L987.6,727.7z"/>
		<path id="path4126" inkscape:connector-curvature="0" class="st23" d="M987.7,660.8c0,0-0.1,0-0.2,0c-4.4,0.7-15.4,7.1-22,13.3
			c-6.6,6.2-7.1,16.4-6.9,24c0.2,7.6,13.3,21.7,15,23.5c1.6,1.8,14,6.1,14,6.1s3.3-3.7,4.1-4.7c-1.1-0.4-1.3-0.4-2.6-1
			c-1.6-0.6-3.3-1.3-4.7-2c-1.4-0.7-2.5-1.3-2.9-1.7c-0.4-0.5-1.5-1.7-3-3.4s-3.3-3.9-5-6.2c-0.9-1.2-1.8-2.4-2.6-3.6
			c-0.8-1.2-1.6-2.5-2.2-3.7c-0.6-1.2-1.2-2.4-1.5-3.5c-0.4-1.1-0.6-2.2-0.6-3.1c0-1.9-0.1-3.9,0.1-6.1c0.1-2.1,0.4-4.3,0.8-6.4
			c0.2-1.1,0.5-2.1,0.9-3.2s0.8-2,1.2-3c0.5-1,1-1.9,1.7-2.8c0.6-0.9,1.4-1.7,2.2-2.5c1.6-1.6,3.6-3.1,5.6-4.6
			c2-1.5,4.2-2.9,6.2-4.1C986.1,661.5,986.8,661.2,987.7,660.8L987.7,660.8z"/>
		<path id="path3128" d="M1025,686.9C1025,686.9,1025,686.9,1025,686.9C1025,686.9,1025,686.9,1025,686.9
			C1025,686.9,1024.9,686.9,1025,686.9c-0.1-0.2-0.2-0.2-0.2-0.3c-0.2-0.3-0.4-0.6-0.6-0.8c-0.7-1-1.5-2-2.2-2.9l0,0
			c-2.7-3.5-5.3-6.5-7.7-9.1c-2-2.2-3.9-4-5.7-5.6c-1.8-1.6-3.4-3-5-4.1c-2.2-1.6-4.2-2.9-6-3.8c-2.4-1.2-4.5-1.9-6.5-2.2
			c-0.6-0.1-1.2-0.1-1.8-0.1c-0.9,0-1.9,0.1-3.1,0.3s-2.4,0.6-3.7,1.2c-1.4,0.6-2.8,1.3-4.3,2.2s-2.8,1.9-4.1,3
			c-1.5,1.2-2.9,2.5-4.1,3.8s-2.4,2.6-3.4,3.8c-2,2.4-3.4,4.6-4.1,5.7c-0.4,0.7-1.2,1.8-2.2,3.3c-0.7,1-1.3,2.2-1.8,3.6
			c-0.5,1.4-0.9,3-1.1,4.6l0,0c-0.2,1.5-0.3,3-0.3,4.6s0.1,3.1,0.3,4.6l0,0c0.3,3.1,1,6,1.7,8.4c0.4,1.4,0.8,2.6,1.2,3.6
			c0.4,1,0.8,1.8,1.1,2.4c0,0,0,0,0,0.1c0.5,0.9,1.3,2,2.3,3.1s2.2,2.2,3.6,3.2l0,0c2.3,1.7,4.9,3.2,7.7,4.5c2.5,1.2,5,2.2,7.4,3.1
			c1.1,0.4,2.2,0.8,3.3,1.1c0.8,0.3,1.4,0.3,1.6,0.3c0.2,0,0.2-0.2-0.2-0.4c-0.3-0.2-0.9-0.5-1.6-1s-1.6-0.9-2.6-1.5
			c-1.9-1.1-4.2-2.5-6.6-4.2c-2.2-1.5-4.5-3.2-6.5-5.1c-0.9-0.9-1.8-1.8-2.5-2.6s-1.3-1.8-1.6-2.6c-0.7-1.5-1.3-3-1.9-4.3
			c-0.1-0.3-0.3-0.7-0.4-1c-1-2.4-1.9-5-2.5-7.6c-0.7-2.8-1.1-5.7-1-8.4l0,0c0-1.4,0.2-2.8,0.5-4.1c0.3-1.3,0.8-2.5,1.4-3.5
			c1.3-2.2,2.6-4,3.6-5.2c0.8-0.9,2.1-2.4,4-4.1c1.9-1.7,4.2-3.7,6.9-5.5c2.4-1.6,5.1-3.1,7.9-4c1.2-0.4,2.3-0.7,3.5-0.8
			c1.1-0.2,2.2-0.2,3.2,0l0,0c2,0.3,3.8,0.9,5.4,1.6c1.4,0.6,2.7,1.2,3.6,1.7c0.6,0.3,1.4,0.7,2.2,1.1c1.6,0.9,3.5,2.1,5.4,3.5
			c2,1.4,4,3,5.9,4.7c3.3,2.9,6.4,5.9,8.6,8.3c1.1,1.1,1.9,2.1,2.5,2.7c0.3,0.3,0.5,0.6,0.7,0.8l0,0
			C1024.8,686.7,1024.9,686.8,1025,686.9C1024.9,686.9,1025,686.9,1025,686.9C1025,686.9,1025,686.9,1025,686.9
			C1025,686.9,1025,686.9,1025,686.9L1025,686.9z"/>
		<path id="path3138" d="M1124,688.6C1124,688.6,1124,688.6,1124,688.6C1124.1,688.6,1124.1,688.6,1124,688.6
			c0.1-0.1,0.1-0.2,0.2-0.2c0.2-0.2,0.3-0.5,0.5-0.7c0.6-0.9,1.2-1.7,1.8-2.5c2.1-2.9,4-5.4,5.7-7.7c2.4-3.2,4.6-5.8,6.6-8
			c1-1.1,1.9-2.1,2.8-2.9c0.7-0.6,1.2-1.2,1.7-1.4c1.3-0.8,2.6-1.2,3.8-1.5c1.2-0.3,2.3-0.5,3.3-0.5c0.9-0.1,1.8,0,2.5,0
			c0.8,0.1,1.5,0.1,2.2,0.2c0.6,0.1,1.4,0.2,2.4,0.4c1.7,0.4,3.8,0.9,6,1.8c2.2,0.9,4.4,2.1,6.5,3.6c2.4,1.7,4.8,3.1,6.8,4.3
			c1.3,0.8,2.4,1.6,3.2,2.4c0.9,0.7,1.5,1.4,1.9,1.9c0.1,0.1,0.2,0.2,0.3,0.4c0.5,0.6,1,1.6,1.5,2.9c0.5,1.3,0.8,2.9,0.9,4.6l0,0
			c0.1,1.9-0.1,4-0.5,6c-0.4,2.1-1,4.2-1.6,6.2l0,0c-0.4,1.3-1,2.5-1.8,3.6c-0.7,1.1-1.5,2.1-2.1,3.1c-1,1.3-1.9,2.4-2.4,3.1
			c-0.9,1.3-2.4,3.1-4.4,5c-1.2,1.2-2.5,2.4-4,3.5s-3,2.2-4.7,3.1c-1.3,0.7-2.6,1.3-3.8,1.7c-1.3,0.4-2.5,0.7-3.6,0.8
			c-1,0.1-1.4,0.1-1.4,0.3c0,0.1,0.4,0.3,1.2,0.5s2.1,0.2,3.6,0.1s3.3-0.6,5.2-1.2l0,0c1.7-0.6,3.5-1.4,5.2-2.4s3.5-2.1,5.1-3.4l0,0
			c1.7-1.3,3.2-2.7,4.5-4.1s2.5-2.9,3.3-4.3c0.2-0.2,0.3-0.5,0.4-0.7c1.4-2.3,2.6-4.9,3.2-7.8l0,0c0.4-2.3,0.7-4.6,0.8-6.9
			c0.1-2.3,0-4.5-0.3-6.5c-0.2-1.7-0.7-3.2-1.3-4.6c-0.6-1.4-1.2-2.5-1.9-3.5c-0.7-0.9-1.3-1.7-1.9-2.3c-0.3-0.4-0.8-0.9-1.4-1.4
			c-0.6-0.5-1.3-1.2-2.1-1.8c-0.9-0.7-1.9-1.5-2.9-2.3c-1.1-0.8-2.2-1.7-3.3-2.7l0,0c-1.8-1.6-3.9-3.1-6.2-4.3
			c-2.3-1.2-4.8-2.2-7.2-2.8l0,0c-1.5-0.4-2.9-0.6-4.4-0.7c-1.4-0.1-2.8-0.1-4.1,0.1c-1.5,0.2-2.8,0.5-3.9,0.9
			c-1.1,0.4-2.1,0.9-2.8,1.3c-0.5,0.3-1,0.7-1.6,1.1c-0.9,0.6-1.5,1.4-2.1,2.2l0,0c-0.8,1-1.7,2.2-2.5,3.4l0,0
			c-1.9,2.8-3.9,5.9-5.7,8.9c-1.9,3.1-3.7,6.1-5,8.3c-0.7,1.1-1.2,2-1.6,2.7c-0.2,0.3-0.3,0.6-0.4,0.7l0,0
			C1124.1,688.4,1124.1,688.5,1124,688.6C1124.1,688.6,1124,688.6,1124,688.6C1124,688.6,1124,688.6,1124,688.6L1124,688.6z"/>
		<path id="path4059" inkscape:connector-curvature="0" class="st26" d="M1016.5,697.5c0,0-8.7,7.8-10.7,11c-2,3.3-8,9-8.8,9.1
			c-0.8,0.1-4.1-0.8-4.1-0.8s-5.5-5.8-7.2-9.5c-1.7-3.7-6-7-4.2-11.2c1.9-4.2,3.7-11.4,8.4-11.6c4.7-0.2,11.2-0.3,13.6,0.5
			c2.4,0.8,5.3,2.2,6.6,3.1C1011.3,689,1018.6,695.9,1016.5,697.5L1016.5,697.5z"/>
		<path id="path4150" inkscape:connector-curvature="0" class="st27" d="M989.4,684.4c-4,1-5.8,7.5-7.5,11.4
			c-1.9,4.2,2.4,7.4,4.2,11.2c1.7,3.7,7.2,9.5,7.2,9.5s3.3,0.9,4.1,0.8c0.3,0,1.3-0.9,2.4-1.9c-0.5,0-1.2-0.1-2-0.3
			c-0.9-0.2-1.7-0.5-1.7-0.5s-1.4-1.5-3-3.4c-0.8-1-1.6-2-2.4-3.1c-0.8-1.1-1.4-2.1-1.9-3.1c-0.4-0.9-1-1.8-1.7-2.7
			c-0.6-0.9-1.3-1.8-1.8-2.7c-0.3-0.5-0.5-0.9-0.7-1.4c-0.2-0.5-0.3-0.9-0.4-1.4c-0.1-0.5-0.1-0.9-0.1-1.4c0.1-0.5,0.2-1,0.4-1.5
			c0.5-1,0.9-2.3,1.4-3.6c0.5-1.3,1-2.6,1.7-3.8c0.3-0.6,0.7-1.1,1-1.7C989.1,684.7,989.3,684.6,989.4,684.4L989.4,684.4z"/>
		<path id="path3148" d="M1016.8,697.3c-1.6,0.9-3,1.8-4.3,2.8c-1.3,0.9-2.4,1.9-3.5,2.8c-1.3,1.1-2.4,2.1-3.4,3.1
			c-0.9,0.9-1.8,1.9-2.5,2.9c-0.7,1-1.5,1.9-2.2,2.6c-0.7,0.7-1.5,1.4-2.1,1.9c-0.9,0.7-1.7,1.2-2.4,1.6c-0.7,0.3-1.1,0.5-1.3,0.5
			c0.5,0,0.7,0,0.6,0c0,0,0,0,0,0c0,0-0.2-0.1-0.4-0.2l0,0c-0.5-0.3-1.1-0.8-1.9-1.5c-0.8-0.7-1.7-1.6-2.6-2.5c-0.9-0.9-1.8-2-2.7-3
			c-1.1-1.3-2-2.6-2.8-3.8c-0.8-1.2-1.4-2.3-1.8-3.1c-0.2-0.4-0.4-0.8-0.5-1.1c-0.2-0.5-0.4-1.2-0.5-2.3c-0.1-0.8,0-1.8,0.3-2.6l0,0
			c0.6-1.4,1.5-2.8,2.7-4c1.2-1.2,2.6-2.2,4-2.9c1.2-0.7,2.4-1.1,3.4-1.5s1.8-0.6,2.3-0.7c0.6-0.2,1.5-0.5,2.5-0.7
			c0.5-0.1,1.1-0.1,1.8-0.1c0.7,0.1,1.4,0.2,2.2,0.3l0,0c1.6,0.3,3.2,0.9,4.8,1.5c1.4,0.6,2.7,1.2,3.9,1.8c0.2,0.1,0.4,0.2,0.6,0.3
			c0.2,0.1,0.4,0.2,0.5,0.3c0.1,0.1,0.3,0.1,0.3,0.1c0,0,0.1,0,0.1,0c0.3-0.4,0.5-0.8,0.6-1l0,0c0.1-0.2,0.2-0.3,0.2-0.3l0,0
			c0,0,0,0,0,0c0,0-0.1,0.1-0.2,0.3c-0.1,0.2-0.3,0.5-0.5,0.9c0,0,0-0.1,0-0.1c0-0.1-0.1-0.2-0.2-0.4c-0.2-0.3-0.5-0.6-0.9-1.1l0,0
			c-0.8-0.8-2-1.9-3.4-2.9c-1.4-1-3-2-4.8-2.8c-1.6-0.7-3.4-1.2-5.4-1.2c-1.3,0-2.6,0.2-3.7,0.5c-1.1,0.3-2.2,0.7-3,1.2
			c-1.1,0.6-2.2,1.4-3.3,2.2c-1.6,1.3-3.1,2.9-4.1,4.5c-1.1,1.7-1.8,3.5-2.2,5.2c-0.3,1.2-0.2,2.4,0,3.4c0.3,1.5,0.8,2.7,1.1,3.7
			c0,0.1,0.1,0.3,0.1,0.4c0.2,0.7,0.6,1.8,1.2,3.1c0.6,1.3,1.4,2.9,2.4,4.6c1.3,2.2,3,4.6,4.9,6.7c0.7,0.7,1.4,1.5,2.3,2.1
			c0.3,0.2,0.7,0.5,1.1,0.7l0,0c0.3,0.2,0.8,0.3,1.6,0.3c1.4-0.2,2.3-0.7,3-1.2c1.2-0.7,2.1-1.5,2.8-2.3c0.5-0.5,0.9-1,1.2-1.4
			c0.8-1.1,1.8-2.6,2.8-4.5c0.4-0.9,1-1.9,1.7-2.9c0.8-1.2,1.8-2.4,2.8-3.5c0.8-1,1.6-1.9,2.4-2.7c0.8-0.8,1.5-1.5,2.2-2.1
			C1015.8,697.9,1016.8,697.3,1016.8,697.3L1016.8,697.3z"/>
		<path id="path4084" inkscape:connector-curvature="0" sodipodi:nodetypes="csscsssssc" class="st26" d="M1129.7,696.2
			c0,0,9,3.8,11,7c2,3.3,8.4,11.3,9.2,11.4c0.8,0.1,4.1-0.8,4.1-0.8s5.5-5.8,7.2-9.5c1.7-3.7,4-7.8,2.1-12
			c-1.9-4.2-3.5-10.1-6.3-10.8c-4.5-1.2-11.2-0.3-13.6,0.5c-2.4,0.8-5.3,2.2-6.6,3.1C1135.6,686,1127.5,695.5,1129.7,696.2
			L1129.7,696.2z"/>
		<path id="path3158" d="M1128.7,696C1128.7,696,1128.7,696,1128.7,696C1128.7,696,1128.7,696,1128.7,696
			C1128.7,696,1128.7,696,1128.7,696c0.2,0.1,0.3,0.1,0.4,0.1c0.3,0.1,0.7,0.3,1,0.4c1.2,0.5,2.4,1.1,3.4,1.7
			c1.9,1.2,3.5,2.5,4.7,3.8c1.2,1.3,2,2.6,2.5,3.8c1,2.1,2.1,3.7,3.2,5c1.1,1.3,2.1,2.2,3.1,2.9c0.8,0.7,1.7,1.2,2.7,1.5
			c0.4,0.1,0.8,0.3,1.3,0.4c0.6,0.1,1.3,0.1,2.3-0.1c0.8-0.2,1.5-0.6,2.1-1.3c0.2-0.3,0.5-0.6,0.9-1c0.5-0.5,1-1,1.5-1.6
			c1.3-1.4,2.5-3.1,3.5-4.7c0.7-1.2,1.3-2.4,1.7-3.5c0.4-1.1,0.7-2.2,0.9-3c0.1-0.7,0.2-1.3,0.3-1.7c0.1-0.5,0.2-1.3,0.3-2.4
			c0.1-1.1,0.2-2.4,0.1-3.8c-0.2-1.7-0.7-3.5-1.6-5.1c-0.9-1.7-2-3.2-3.2-4.4c-1.1-1.2-2.4-2.2-3.6-2.9c-1.2-0.7-2.2-1.1-2.8-1.2
			c-0.9-0.2-2.2-0.5-3.8-0.5c-1.2,0-2.5,0.2-3.8,0.6c-1.3,0.4-2.6,0.9-3.8,1.5l0,0c-1.2,0.6-2.4,1.4-3.5,2.3c-1,0.9-1.9,1.9-2.6,2.9
			c-0.3,0.4-0.4,0.7-0.5,0.8c-0.1,0.2,0,0.3,0.1,0.3c0.2,0,0.6-0.3,1.3-0.8s1.6-1.1,2.7-1.6s2.4-1,3.8-1.4c1.1-0.3,2.2-0.5,3.2-0.5
			c1.1-0.1,2.1-0.1,3,0.1c1.9,0.2,3.4,1.1,4.8,1.7c0.9,0.4,1.9,0.9,2.9,1.6c1.3,0.9,2.5,1.9,3.4,3.1c1,1.2,1.7,2.5,2,3.8
			c0.4,1.5,0.5,2.9,0.4,4.1c-0.1,1.2-0.3,2.3-0.6,3c0,0,0,0,0,0c-0.2,0.5-0.6,1.3-1.1,2.3c-0.6,0.9-1.3,2-2.2,3.1l0,0
			c-1.1,1.3-2.4,2.6-3.8,3.8l0,0c-0.5,0.5-1.1,0.9-1.6,1.4c-0.4,0.3-0.8,0.7-1.2,1.1c0,0,0-0.1-0.1-0.1c-0.1,0-0.3,0-0.5-0.1
			c-0.8-0.2-1.6-0.7-2.4-1.2c-1.5-1-2.7-2.1-3.5-2.8c-0.7-0.6-1.7-1.5-2.6-2.8c-1.1-1.6-2.6-3.1-4.2-4.3c-1.7-1.2-3.5-2.1-5.1-2.8
			c-1.5-0.6-2.8-1-3.8-1.2c-0.5-0.1-0.8-0.2-1.1-0.2l0,0C1128.9,696,1128.8,696,1128.7,696C1128.7,696,1128.7,696,1128.7,696
			C1128.7,696,1128.7,696,1128.7,696C1128.7,696,1128.7,696,1128.7,696L1128.7,696z"/>
		<path id="path3168" d="M1020.9,682.6c2.2-2.2,4.3-4,6.3-5.6c2-1.6,4-2.9,5.8-4c3.6-2.2,6.8-3.7,9.4-4.8c2.6-1.1,4.8-1.7,6.6-2.3
			s3.3-0.9,4.6-1.2c1.2-0.3,2.9-0.8,5-1.3c2.1-0.5,4.4-1,6.9-1.5c2.4-0.4,4.9-0.7,7.2-0.9s4.3-0.3,5.9-0.3c0.8,0,1.5,0.1,1.9,0.1
			c1,0,3.2,0.4,5.8,0.9c2.6,0.5,5.7,1.2,8.8,2.1c2.4,0.7,4.7,1.5,6.7,2.3c2,0.8,3.8,1.6,5,2.2c0.7,0.3,1.2,0.6,1.6,0.8
			c1,0.4,2.3,1,3.7,1.9c1.5,0.8,3.1,1.9,4.7,3.1c1.7,1.3,3.4,2.7,5,4.2c1.6,1.5,3.1,3,4.4,4.4c0.8,0.9,1.2,1.1,1.1,0.7
			c0-0.3-0.4-1.2-1.1-2.4c-1.4-2.4-3.9-6.2-7.3-9.7c-1.5-1.6-3.2-3.1-5-4.4s-3.6-2.3-5.3-3.1c-0.8-0.3-1.5-0.6-2.2-0.8
			c-3.5-1.1-7.3-1.8-10.9-2.3c-3.5-0.5-6.9-0.8-9.9-1c-2.9-0.2-5.4-0.5-7.1-0.7c-0.1,0-0.1,0-0.1,0c-1.3-0.1-3.7-0.4-6.8-0.5
			c-3.1-0.1-6.8,0-10.6,0.5c-3.8,0.4-7.6,1.2-10.8,2.2c-3.3,1-5.9,2.1-7.6,3s-4,2.3-6.5,4.1c-2.5,1.8-5.1,3.9-7.5,6
			c-2.3,2.1-4.3,4.2-5.7,5.8C1021.7,681.6,1020.9,682.6,1020.9,682.6L1020.9,682.6z"/>
		<path id="path3178" d="M984.3,727.7c-0.1,2.6-0.6,5-1,7.3l0,0c-0.6,2.8-1.1,5.3-1.5,7.6c-0.4,3-0.5,5.6-0.5,7.8
			c0,2.3,0.1,4.2,0.3,5.9c0.2,1.7,0.4,3.1,0.6,4.4s0.4,2.3,0.7,3.3c0.1,0.2,0.1,0.4,0.2,0.7c0.4,1.7,1.4,4.6,2.6,7.8
			c1.2,3.2,2.7,6.7,4.1,9.7c0.8,1.6,1.6,3.1,2.3,4.3c0.7,1.2,1.3,2.1,1.7,2.7c0.6,0.9,1.6,2.8,3.1,5.1c1.1,1.6,2.4,3.3,3.9,4.9
			c1.5,1.6,3.2,3.2,4.9,4.6c1.8,1.5,3.5,2.8,5,3.8s2.7,1.8,3.4,2.1c1.2,0.6,3,1.5,5,2.5c1.8,0.9,3.8,1.7,5.9,2.4
			c2.1,0.7,4.3,1.2,6.4,1.6c1.5,0.2,2.9,0.4,4.2,0.5c0.9,0.1,1.3,0.1,1.4,0v0v0v0c0.2-2,0.2-1.9,0,0v0v0v0v0c0-0.3-2.2-1.3-5.3-2.4
			c-1.6-0.7-3.5-1.5-5.3-2.5c-1.8-1-3.7-2.1-5.4-3.3c-1.5-1-2.9-2-4.3-2.8c-1.4-0.8-2.6-1.6-3.7-2.1c-1.7-0.9-3.5-1.8-5.2-2.9
			c-1.8-1.1-3.6-2.3-5.2-3.6c-1.6-1.3-3-2.7-4.2-4.1c-2.1-2.4-3.5-4.8-4.2-6.4c-0.5-1-1.2-3-2.1-5.5c-0.8-2.5-1.7-5.6-2.6-8.8
			c-0.8-3.2-1.6-6.6-2.4-9.6c-0.4-1.8-0.8-3.4-1.1-4.9c-0.3-1.4-0.5-2.7-0.8-3.6c-0.3-1.2-0.7-2.9-1-4.9c-0.3-2-0.5-4.2-0.4-6.5
			c0-2.6,0.3-5.3,0.5-7.7c0.2-2.2,0.2-4,0.2-5.4S984.3,727.7,984.3,727.7L984.3,727.7z"/>
		<path id="path3188" d="M1155.1,723.5c0.9,1.8,1.7,3.5,2.4,5.1c0.7,1.5,1.3,3,1.7,4.3c0.5,1.4,0.8,2.6,1,3.7
			c0.2,1.7,0.3,3.2,0.4,4.6c0.1,1.4,0.1,2.6,0.1,3.7c0.1,3,0,5,0,6.7c0,0.9,0.1,2.2,0.2,3.7c0.1,1.5,0.2,3.3,0.3,5s0.2,3.6,0.2,5.3
			c0,1.6,0,3-0.1,4.2c-0.1,1.2-0.2,2.1-0.3,2.7c0,0.3-0.1,0.6-0.3,1c-0.4,1.1-1,2.6-1.9,4.3c-0.8,1.7-1.9,3.5-3,5.2
			c-0.9,1.4-1.9,2.6-2.8,3.7s-1.9,2-2.6,2.7c-0.6,0.6-1,1-1.3,1.3c-0.5,0.6-1.2,1.3-2.1,2.1c-0.9,0.8-2,1.6-3.1,2.5
			c-1.4,1-2.9,2-4.5,2.9c-1.5,0.9-3.1,1.8-4.4,2.5c-1.7,0.9-0.7,1,1.5,0.6c2.3-0.4,5.8-1.4,9.4-3c1.6-0.7,3.1-1.6,4.5-2.5
			s2.6-2,3.6-3.1c0.3-0.3,0.6-0.7,0.8-1c1.6-2.2,2.9-4.7,4-7.2v0c1.6-4,2.6-7.8,3.5-10.5c0.3-1,0.5-1.9,0.7-2.7
			c0.1-0.5,0.3-1.2,0.5-2.2c0.2-0.9,0.4-2.1,0.6-3.3c0.2-1.5,0.5-3.3,0.6-5.1s0.3-3.7,0.3-5.5c0.1-4.2,0-8.2-0.4-10.7
			c-0.1-0.4-0.1-0.7-0.2-1c-0.4-1.7-1-4.4-1.9-7.3c-0.4-1.4-1.1-2.6-1.7-3.9c-0.8-1.5-1.7-2.9-2.4-4.1
			C1156.4,725.5,1155.1,723.5,1155.1,723.5L1155.1,723.5z"/>
		<path id="path3224" inkscape:connector-curvature="0" sodipodi:nodetypes="cc" class="st28" d="M1080.5,781.2
			c0,0,1.9,15.1,1.6,23.7"/>
		<path id="path4245" inkscape:connector-curvature="0" sodipodi:nodetypes="sssss" class="st29" d="M1113.3,723.1
			c-1.2,0-1.9,2.4-1.9,3.7c0,1.3,0.9,2.3,2.1,2.3s2.1-1,2.1-2.3S1114.5,723.1,1113.3,723.1z"/>
		<path id="path4235" inkscape:connector-curvature="0" sodipodi:nodetypes="sssss" class="st29" d="M1050.6,723.9
			c-1.2,0-1.7,2.3-1.7,3.6c0,1.3,1,2.3,2.1,2.3s2.1-1,2.1-2.3S1051.7,723.9,1050.6,723.9z"/>
		<path id="path3120" inkscape:connector-curvature="0" sodipodi:nodetypes="sssss" d="M1080.4,757.2c-8.2,0-19,7.3-14.8,13.5
			c3,4.4,8.7,12.9,14.8,13.5c6.4,0.6,10.6-8.5,14.8-13.5C1100.1,765,1088.6,757.2,1080.4,757.2z"/>
		<path id="path4239" inkscape:connector-curvature="0" sodipodi:nodetypes="sssss" class="st29" d="M1087.1,760.3
			c-1.8,0-3.5-0.1-3.5,1.8s1.7,1.6,3.5,1.6s6,3.5,6,1.6C1093.1,763.5,1088.9,760.3,1087.1,760.3L1087.1,760.3z"/>
		<path id="path4251" d="M968,680.3c0,0-0.1,0-0.1,0.1l0,0c0,0-0.1,0-0.1,0c-0.1,0-0.2,0-0.3,0l0,0c-0.2,0-0.3,0-0.5,0
			c-0.4-0.1-0.7-0.2-1.1-0.4c-0.7-0.4-1.5-1-2.2-1.8c-0.3-0.3-0.5-0.5-0.8-0.8c-0.4-0.5-0.8-0.9-1.1-1.3c-0.4-0.5-0.8-1.1-1.1-1.6
			c-0.2-0.3-0.3-0.5-0.4-0.8c-0.1-0.3-0.2-0.5-0.2-0.8c0-0.3,0.1-0.6,0.3-0.8c0.2-0.2,0.5-0.5,1-0.6c0.4-0.1,1-0.2,1.6-0.1
			c0.6,0.1,1.2,0.3,1.8,0.6l0,0c0.8,0.4,1.6,1,2.2,1.7c0.4,0.4,0.7,0.9,0.9,1.3c0.7,1.2,1,2.4,1,3.3c0,0.5-0.1,0.9-0.3,1.3
			c-0.1,0.2-0.2,0.3-0.3,0.5l0,0c-0.1,0.1-0.1,0.1-0.2,0.2c0,0-0.1,0-0.1,0.1C968.1,680.3,968,680.3,968,680.3L968,680.3z"/>
		<path id="path4255" d="M964.5,686.1c-0.2,0.6-1,1-2.1,1.1c-1.1,0.1-2.5-0.1-3.9-0.5l0,0c-0.4,0-0.8-0.1-1.1-0.1
			c-1.4-0.2-2.7-0.6-3.7-1.1c-0.4-0.2-0.8-0.4-1.1-0.6c-0.3-0.2-0.5-0.4-0.7-0.6c-0.2-0.2-0.4-0.4-0.5-0.6c-0.1-0.2-0.3-0.4-0.3-0.6
			c0-0.2,0-0.5,0.1-0.7s0.3-0.5,0.7-0.7c0.3-0.2,0.7-0.4,1.1-0.5s0.9-0.2,1.3-0.3c1.3-0.1,2.8-0.1,4.4,0.2c0.4,0.1,0.8,0.2,1.2,0.2
			l0,0c1.6,0.7,2.9,1.6,3.7,2.4C964.4,684.7,964.7,685.5,964.5,686.1L964.5,686.1z"/>
		<path id="path4259" d="M1152.5,665.7c-0.7-0.1-1.3-0.7-1.7-1.6c-0.4-0.9-0.6-2-0.7-3l0,0c0-0.2,0-0.3,0-0.5c0-1.2,0.1-2.2,0.3-3.2
			c0.1-0.5,0.3-0.9,0.5-1.2c0.2-0.3,0.5-0.6,0.9-0.8c0.4-0.1,0.8-0.2,1.2,0c0.4,0.1,0.8,0.4,1.2,0.9c0.4,0.4,0.7,1,1,1.7
			c0.3,0.7,0.4,1.5,0.5,2.3c0,0.2,0,0.4,0,0.6l0,0c-0.1,1.5-0.6,2.7-1.2,3.5C1153.9,665.4,1153.2,665.8,1152.5,665.7L1152.5,665.7z"
			/>
		<path id="path4263" d="M1160,666.3c-0.6-0.3-0.9-1.2-0.9-2.4s0.4-2.6,0.9-4.1c0.1-0.4,0.3-0.7,0.4-1.1c0.7-1.7,1.5-3.2,2.2-4.3
			c0.4-0.5,0.8-1,1.1-1.3c0.4-0.3,0.8-0.4,1.2-0.4s0.7,0.3,1,0.7c0.3,0.4,0.5,1,0.6,1.8c0.1,0.7,0.1,1.6,0,2.6
			c-0.1,0.9-0.4,1.9-0.8,2.9c-0.2,0.4-0.3,0.8-0.5,1.2l0,0c-0.8,1.6-1.8,2.8-2.7,3.6S1160.7,666.6,1160,666.3L1160,666.3z"/>
		<path id="path4271" inkscape:connector-curvature="0" sodipodi:nodetypes="sssss" class="st24" d="M1052,772.1
			c-1.2,0-2.1,1-2.1,2.2c0,1.2,0.9,1.6,2.1,1.6c1.2,0,2.2-0.4,2.2-1.6S1053.2,772.1,1052,772.1L1052,772.1z"/>
		<path id="path4275" inkscape:connector-curvature="0" sodipodi:nodetypes="sssss" class="st24" d="M1044.7,781.7
			c-1.8,0-3.3,1.5-3.3,3.4s1.4,2.5,3.2,2.5c1.8,0,3.4-0.6,3.4-2.5S1046.5,781.7,1044.7,781.7L1044.7,781.7z"/>
		<path id="path4277" inkscape:connector-curvature="0" sodipodi:nodetypes="sssss" class="st24" d="M1058.1,783.8
			c-1.8,0-2.7,0.8-2.7,2.7s1,2.4,2.8,2.4s2.5-0.9,2.5-2.8C1060.7,784.2,1059.9,783.8,1058.1,783.8L1058.1,783.8z"/>
		<path id="path4279" inkscape:connector-curvature="0" sodipodi:nodetypes="sssss" class="st24" d="M1106.3,780.3
			c-1,0-1.8,0.9-1.8,1.9c0,1.1,0.3,1.5,1.4,1.5c1,0,1.9-0.4,1.9-1.4C1107.7,781.2,1107.3,780.3,1106.3,780.3L1106.3,780.3z"/>
		<path id="path4281" inkscape:connector-curvature="0" sodipodi:nodetypes="sssss" class="st24" d="M1117.6,774.5
			c-1.8,0-2.6,1.7-2.6,3.6s0.7,2.4,2.5,2.4c1.8,0,3.4-0.6,3.4-2.5S1119.4,774.5,1117.6,774.5L1117.6,774.5z"/>
		<path id="path4283" inkscape:connector-curvature="0" sodipodi:nodetypes="sssss" class="st24" d="M1114.1,787.2
			c-1.3,0-2.4,1.1-2.4,2.5c0,1.4,0.9,2.3,2.2,2.3c1.3,0,2.1-0.8,2.1-2.2S1115.4,787.2,1114.1,787.2L1114.1,787.2z"/>
		<path id="path4335" d="M1036.1,676.8c0,0-0.1,0-0.1,0c0,0-0.1,0-0.1,0c-0.1,0-0.2,0-0.3,0c-0.2,0-0.4-0.1-0.6-0.1
			c-0.4-0.2-0.8-0.4-1.2-0.8c-0.9-0.8-1.8-1.9-2.7-3.3c-0.3-0.5-0.7-1.1-1-1.7c-0.5-1-1-1.9-1.4-2.7l0,0c-0.6-1.2-0.9-2.3-1.1-3.2
			c-0.2-0.9-0.2-1.6,0.2-2c0.4-0.4,1.1-0.5,2.1-0.1c1,0.4,2.1,1.3,3.1,2.4l0,0c0.7,0.8,1.4,1.8,2,2.8c0.4,0.6,0.7,1.3,0.9,1.9
			c0.7,1.6,1,3.2,1,4.4c0,0.6-0.1,1.1-0.2,1.5l0,0c-0.1,0.2-0.2,0.4-0.3,0.5c-0.1,0.1-0.1,0.1-0.2,0.2c0,0-0.1,0-0.1,0.1
			C1036.2,676.8,1036.1,676.8,1036.1,676.8L1036.1,676.8z"/>
		<path id="path4339" d="M1043.9,672.1c-1.2,0.2-2.6-1.3-3.3-3.6l0,0c-0.2-0.5-0.5-1.1-0.7-1.6c-0.2-0.7-0.4-1.4-0.6-2
			s-0.2-1.2-0.3-1.7c0-0.5,0-1,0-1.5s0.2-0.8,0.5-1.1c0.3-0.3,0.7-0.4,1.2-0.3c0.5,0.1,1,0.3,1.6,0.7c0.6,0.4,1.1,1,1.6,1.7
			c0.5,0.7,0.9,1.6,1.3,2.5c0.2,0.7,0.4,1.5,0.5,2.2l0,0C1045.8,669.9,1045.1,671.9,1043.9,672.1L1043.9,672.1z"/>
		<path id="path4377" d="M1072.6,737.9c0.4-0.1,1.4-0.1,2.6-0.1c1.1,0,2.3-0.1,2.9-0.1c0.1,0,0.2,0,0.3,0c0.4-0.1,1.2-0.2,2-0.3
			c0.8-0.1,1.7-0.1,2.4,0c0.3,0,0.3,0,0.1-0.2c-0.2-0.2-0.6-0.4-1.1-0.5s-1.2-0.3-1.9-0.4s-1.4-0.1-1.9,0c-0.2,0-0.4,0.1-0.5,0.1
			c-1,0.3-2.1,0.6-3,0.8c-0.9,0.2-1.8,0.4-2.3,0.4c-0.5,0-0.8,0.2-0.7,0.3C1071.5,737.9,1071.8,738,1072.6,737.9L1072.6,737.9z"/>
		<path id="path4387" d="M1074.4,731.9c0.2-0.1,1,0,1.8,0.1c0.8,0.1,1.6,0.2,1.8,0.2c0,0,0,0,0.1,0c0.6-0.1,1.9-0.2,2.8-0.2
			c0.4,0,0.1-0.3-0.6-0.6c-0.6-0.3-1.5-0.6-2.2-0.7c-0.2,0-0.4,0-0.6,0c-0.6,0.2-1.3,0.3-2,0.5c-0.6,0.2-1.1,0.3-1.5,0.3
			c-0.3,0-0.5,0.2-0.4,0.3S1073.9,732,1074.4,731.9L1074.4,731.9z"/>
		<path id="path4397" d="M1078.2,736c0-2,0.1-6.8,0.2-12.5c0.1-4.8,0.3-10.3,0.5-15.3c0.1-2,0.2-3.9,0.3-5.6c0-0.7,0.1-1.3,0.2-1.9
			c0-0.4,0.1-0.8,0.2-1.1c0.2-0.9,0.3-1.7,0.4-2.5l0,0c0.1-1.6,0.2-2.9,0.2-3.8c0-0.1,0-0.2,0-0.3c0-2.3,0-5.8-0.1-9.8
			c-0.1-3.2-0.3-6.8-0.7-10.3c-0.2-1.4-0.4-2.7-0.6-4.1c-0.2-0.9-0.4-1.9-0.9-2.8c-0.8-1.7-1.6-3.3-2.5-4.8
			c-0.2-0.4-0.4-0.7-0.7-1.1c-0.3-0.4-0.6-0.6-0.9-0.8c-0.3-0.2-0.5-0.3-0.7-0.3c-0.2-0.1-0.3-0.1-0.3-0.1c-0.1,0,0,0,0,0.1
			c0.2,0.1,0.5,0.2,1,0.6c0.2,0.2,0.4,0.4,0.7,0.8c0.2,0.3,0.4,0.7,0.6,1.1c0.3,0.6,0.7,1.4,1.1,2.2s0.7,1.7,1.2,2.7
			c0.4,0.8,0.5,1.7,0.7,2.7c0.2,1.3,0.3,2.6,0.5,4c0.3,3.3,0.3,6.8,0.4,10.2c0,3.5,0,6.9-0.1,10l0,0c0,1.3-0.1,2.6-0.2,3.8
			c-0.1,0.7-0.1,1.3-0.2,1.8c0,0.1-0.1,0.3-0.1,0.4l0,0c-0.1,0.4-0.1,0.9-0.2,1.3l0,0c-0.1,0.6-0.1,1.3-0.1,1.9l0,0
			c-0.1,1.9-0.1,3.8-0.1,5.7c-0.1,5.3,0,10.5,0,15.3c0,5.9,0.1,11.1,0,14.5c0,0.3,0,0.7,0,1c0,1.6,0,2.8,0,3.8c0,0.6,0.1,1,0.1,1.3
			c0,0.2,0,0.3,0.1,0.3c0,0,0,0.1,0,0.1c0,0,0,0,0,0c0,0,0,0,0,0c0,0,0,0,0,0c0,0,0,0,0-0.1c0-0.1,0-0.2,0.1-0.3
			c0-0.3,0.1-0.7,0.1-1.3c0-1.1,0.1-2.6,0.1-4.7C1078.2,737.4,1078.2,736.7,1078.2,736L1078.2,736z"/>
		<path id="path4407" inkscape:connector-curvature="0" sodipodi:nodetypes="sssss" class="st30" d="M1080.7,804
			c-2.9,0-5.3,2.6-5.3,5.7c0,3.2,2.6,3.3,5.6,3.3s5.1-0.1,5.1-3.3S1083.6,804,1080.7,804L1080.7,804z"/>
		<path id="path4733" inkscape:connector-curvature="0" sodipodi:nodetypes="cc" class="st28" d="M1046.9,720.1c0,0-6.4,0.6-8.2-3.3
			"/>
		<path id="path4735" inkscape:connector-curvature="0" sodipodi:nodetypes="cc" class="st28" d="M1110,720.6c0,0,6.4,0.6,8.2-3.3"
			/>
		<path id="path7041" d="M1005.4,922.5c0.9-1,2.8-1,4.5,0.1c0.2,0.1,0.5,0.3,0.7,0.5c0.6,0.4,1,0.9,1.3,1.4c0.5,0.6,0.7,1.1,0.8,1.7
			s0.1,1.1-0.1,1.6c-0.2,0.5-0.7,0.9-1.3,1s-1.5,0.1-2.2-0.2c-0.7-0.2-1.3-0.6-2-1c-0.3-0.2-0.5-0.4-0.7-0.6
			C1005,925.4,1004.5,923.6,1005.4,922.5L1005.4,922.5z"/>
		<path id="path7049" d="M1010,915.6c0.5-0.6,1.3-0.8,2.3-0.7c1,0.1,2.2,0.5,3.4,1.2c0.1,0,0.1,0.1,0.2,0.1c0.9,0.5,1.6,1.1,2.1,1.7
			c0.3,0.3,0.5,0.5,0.6,0.8c0.1,0.2,0.2,0.5,0.3,0.7c0.1,0.2,0.2,0.5,0.2,0.7c0,0.2,0.1,0.5,0,0.7c0,0.2-0.1,0.5-0.3,0.7
			c-0.2,0.2-0.4,0.4-0.7,0.5c-0.3,0.1-0.7,0.2-1.1,0.2s-0.8,0-1.2-0.1c-1-0.2-2-0.6-3-1.2c-0.1,0-0.1-0.1-0.2-0.1
			c-1.2-0.8-2.2-1.8-2.7-2.8C1009.6,917.1,1009.5,916.2,1010,915.6L1010,915.6z"/>
		<path id="path7064" d="M1082.2,943.1c0.2-0.8,0.5-1.8,0.8-3.2c0.3-1.3,0.6-2.9,0.7-4.7c0.2-2.1,0.5-4.4,0.7-6.9l0,0
			c0.4-4.6,0.7-9.8,0.9-15l0,0c0.1-1.9,0-3.9-0.1-5.7c-0.1-2.7-0.3-5.3-0.5-7.7c-0.6-7.6-1.3-14-1.6-16.9c0-0.4-0.1-0.8-0.2-1.3
			c-0.5-4-1.3-10-2.2-16.6l0,0c-0.3-1.9-0.6-3.8-0.9-5.8l0,0c-0.1-0.6-0.2-1.3-0.3-1.9c-0.1-0.3-0.1-0.7-0.2-1.1c0,0,0,0,0-0.1
			c0-0.1,0-0.3,0-0.4l0,0c0-0.5,0-1.1,0-1.6c-0.1-2.3-0.1-4.5-0.1-6.7c0-3.5-0.3-6.9-0.7-9.9c-0.1-0.4-0.1-0.9-0.2-1.3
			c-0.1-0.7-0.2-1.3-0.3-1.7c-0.1-0.4-0.1-0.6-0.2-0.8c0-0.1,0-0.2-0.1-0.2c-0.2,0-0.3,0-0.4,0c-0.1,0-0.1,0-0.1,0l0,0
			c0,0,0,0,0.1,0c0.1,0,0.2,0,0.3,0l0,0c0,0.1,0,0.1,0,0.2c0,0.2,0,0.5,0.1,0.8c0.1,0.7,0.2,1.7,0.3,3c0.2,2.5,0.4,5.9,0.3,9.9
			c-0.1,2.1-0.1,4.4-0.1,6.7c0,0.5,0,1.1,0,1.6c0,0.1,0,0.3,0,0.4c0,0.1,0,0.1,0,0.2c0.1,0.4,0.1,0.7,0.2,1.1
			c0.1,0.6,0.2,1.2,0.3,1.9c0.3,1.9,0.5,3.8,0.7,5.8c0.7,5.7,1.3,11.5,1.9,16.7c0.4,3.6,0.8,6.9,1.1,9.7c0.3,2.8,0.6,5.6,0.9,8.5
			c0.3,2.5,0.5,5.1,0.7,7.7l0,0c0.1,1.9,0.2,3.8,0.2,5.7c0,5.2-0.2,10.3-0.5,15l0,0c-0.2,2.4-0.5,4.7-0.6,6.9
			c-0.2,2.5-0.6,4.7-1.1,6.7c-0.5,2-1.1,3.7-1.7,5.1c-0.2,0.5-0.4,0.9-0.6,1.4c-3.6,7-3.6,8.1,0.5,0.2
			C1080.9,947.1,1081.6,945.3,1082.2,943.1L1082.2,943.1z"/>
		<path id="path7102" d="M1083.7,858.1c-0.4,0.1-1.4,0.1-2.6,0.1c-1.1,0-2.3,0.1-2.9,0.1c-0.1,0-0.2,0-0.3,0c-0.4,0.1-1.2,0.2-2,0.3
			c-0.8,0.1-1.7,0.1-2.4,0c-0.3,0-0.3,0-0.1,0.2c0.2,0.2,0.6,0.4,1.1,0.5c0.5,0.2,1.2,0.3,1.9,0.4s1.4,0.1,1.9,0
			c0.2,0,0.4-0.1,0.5-0.1c1-0.3,2.1-0.6,3-0.8c0.9-0.2,1.8-0.4,2.3-0.4c0.5,0,0.8-0.2,0.7-0.3C1084.8,858.1,1084.4,858,1083.7,858.1
			L1083.7,858.1z"/>
		<path id="path7104" d="M1081.9,853.6c-0.2,0.1-1,0-1.8-0.1c-0.8-0.1-1.6-0.2-1.8-0.2c0,0,0,0-0.1,0c-0.6,0.1-1.9,0.2-2.8,0.2
			c-0.4,0-0.1,0.3,0.6,0.6c0.6,0.3,1.5,0.6,2.2,0.7c0.2,0,0.4,0,0.6,0c0.6-0.2,1.3-0.3,2-0.5c0.6-0.2,1.1-0.3,1.5-0.3
			c0.3,0,0.5-0.2,0.4-0.3C1082.6,853.6,1082.4,853.5,1081.9,853.6L1081.9,853.6z"/>
		<path id="path7641" inkscape:connector-curvature="0" sodipodi:nodetypes="ssssss" class="st22" d="M1160.1,920.3
			c25.3,0,46.7,18.6,46.7,43.4s-20.5,44.8-45.8,44.8c-18.9,0-37.3-5.2-44.3-21.2c-2.4-5.4-3.8-17.9-2.8-24.9
			C1117.4,937.9,1134.8,920.3,1160.1,920.3L1160.1,920.3z"/>
		<path id="path7667" inkscape:connector-curvature="0" sodipodi:nodetypes="ssssss" class="st26" d="M1145,999.2
			c6,3.7,15.1,3.5,23.2,0.3c12.3-4.9,19-17.1,15-27.2c-4-10.1-16.2-18-28.5-13.1c-12.3,4.9-20.1,20.7-16,30.8
			C1140,993.5,1141.9,997.3,1145,999.2L1145,999.2z"/>
		<path id="path7643" d="M1144.9,999.4c2.3,1.4,4.6,2.2,6.8,2.7c2.2,0.5,4.4,0.7,6.5,0.7c2,0,4-0.3,5.7-0.6c1.8-0.4,3.4-0.8,4.9-1.4
			l0,0c2.2-0.8,4.1-1.8,5.7-2.8s3-2.1,4.2-3.2c1.2-1.1,2.1-2.1,3-3.1c0.8-1,1.5-2,2.1-2.9c0.7-1.2,1.3-2.3,1.7-3.5
			c0.5-1.4,1-3.4,1.1-5.9c0-1.2,0-2.5-0.3-3.9c-0.2-1.4-0.6-2.7-1.2-4.1c-0.7-1.5-1.5-3-2.5-4.3c-1-1.3-2.1-2.6-3.2-3.6
			c-1.1-1.1-2.3-2-3.5-2.7c-1.2-0.7-2.3-1.3-3.3-1.8l0,0c-1.2-0.5-2.3-0.9-3-1.1c-1.1-0.3-3.2-1-5.9-1.3c-1.4-0.1-2.9-0.2-4.5,0
			c-1.6,0.2-3.3,0.5-5,1.1c-2,0.7-4,1.7-5.8,2.9c-1.8,1.2-3.4,2.5-4.8,3.9c-1.4,1.4-2.5,2.8-3.3,4c-0.8,1.2-1.4,2.3-1.8,3
			c0,0,0,0.1-0.1,0.1c-0.5,1-1,2.4-1.5,4c-0.5,1.6-0.9,3.5-1.1,5.6c-0.1,1.5-0.1,3,0,4.6s0.6,3.2,1.2,4.7c0.8,1.6,1.8,3,3,4.3
			s2.4,2.3,3.7,3.1c0.8,0.5,1.3,0.8,1.5,0.8l0,0c0.5-0.9,0.5-0.8,0-0.1c-0.1-0.1-0.4-0.4-0.9-0.8c-0.5-0.4-1.1-1-1.7-1.7
			s-1.3-1.7-1.9-2.8s-1.1-2.4-1.4-3.8c-0.3-1.2-0.4-2.5-0.4-3.9c0-1.3,0.2-2.7,0.5-4c0.7-3,1.9-5.7,3.1-8.1c0.8-1.4,1.5-2.7,2.2-3.8
			c1.2-2,2.7-3.9,4.4-5.5c1.7-1.7,3.7-3.1,5.8-4.1c1.5-0.8,3.2-1.3,4.8-1.6c1.6-0.3,3.2-0.4,4.6-0.3c1.4,0.1,2.8,0.3,3.9,0.7
			c1.1,0.3,2.1,0.7,2.9,1.2c0.1,0.1,0.3,0.2,0.5,0.3c0.6,0.4,1.4,0.9,2.3,1.6c0.9,0.7,1.9,1.5,2.8,2.6c1,1,1.9,2.2,2.8,3.6
			c0.8,1.4,1.6,2.9,2.1,4.5c0.8,2.3,1,4.9,0.6,7.4c-0.4,2.5-1.3,4.8-2.3,6.6c-1.6,2.8-3.5,4.8-4.7,6.1c-0.7,0.8-1.7,1.8-3,2.8
			c-1.3,1-2.8,2-4.5,2.9c-2.2,1.2-4.8,2.1-7.5,2.6c-2.6,0.5-5.3,0.6-7.6,0.4c-2.3-0.2-4.3-0.8-5.7-1.3c-0.7-0.2-1.2-0.5-1.6-0.6
			C1145.1,999.5,1144.9,999.4,1144.9,999.4L1144.9,999.4z"/>
		<path id="path7795" inkscape:connector-curvature="0" class="st25" d="M1160.1,920.3c-15.3,0-27.6,6.4-35.8,16.9
			c0.8-0.9,1.6-1.8,2.5-2.6c1-0.9,2-1.8,3.1-2.7c1.1-0.8,2.2-1.6,3.4-2.4s2.4-1.4,3.6-2c1.2-0.6,2.5-1.2,3.8-1.7
			c1.3-0.5,2.7-0.9,4.1-1.3c1.4-0.4,2.8-0.7,4.3-1c1.5-0.3,2.9-0.5,4.5-0.6c1.5-0.1,3.1-0.2,4.6-0.2s3.2,0.1,4.7,0.2
			s3.1,0.4,4.6,0.6c1.5,0.3,3,0.6,4.4,1c1.5,0.4,2.9,0.9,4.3,1.4c1.4,0.5,2.8,1.1,4.1,1.8s2.6,1.4,3.8,2.1c1.2,0.8,2.4,1.6,3.6,2.4
			c1.2,0.9,2.3,1.8,3.3,2.8s2.1,2,3,3c1,1.1,1.9,2.2,2.7,3.3c0.8,1.2,1.6,2.4,2.4,3.6s1.4,2.5,2,3.8c0.6,1.3,1.1,2.6,1.6,4
			c0.5,1.4,0.8,2.8,1.2,4.2c0.3,1.4,0.6,2.9,0.7,4.4c0.2,1.5,0.2,3,0.2,4.6s-0.1,3.1-0.2,4.6c-0.2,1.5-0.4,3-0.7,4.4
			c-0.3,1.5-0.7,2.9-1.1,4.3c-0.4,1.4-1,2.8-1.5,4.1c-0.6,1.3-1.2,2.6-1.9,3.9c-0.7,1.3-1.5,2.5-2.3,3.7c-0.5,0.7-1,1.4-1.6,2.1
			c7.1-7.9,11.4-18.2,11.4-29.5C1206.8,938.9,1185.4,920.3,1160.1,920.3L1160.1,920.3z"/>
		<path id="path7787" inkscape:connector-curvature="0" class="st23" d="M1121.6,941.6c-3.7,6-6.2,13.1-7.3,20.9
			c-1,7,0.4,19.5,2.8,24.9c7,16,25.4,21.2,44.3,21.2c18.4,0,34.3-10.7,41.6-26c-0.4,0.6-0.8,1.3-1.2,1.9c-0.8,1.2-1.7,2.3-2.6,3.4
			c-0.9,1.1-1.9,2.2-3,3.2c-1,1-2.1,2-3.3,2.9c-1.1,0.9-2.3,1.8-3.5,2.6s-2.5,1.6-3.8,2.3s-2.6,1.3-4,1.9s-2.8,1.1-4.2,1.5
			c-1.4,0.4-2.9,0.8-4.4,1.1c-1.5,0.3-3,0.5-4.6,0.7c-1.5,0.2-3.1,0.2-4.7,0.2c-2.4,0-4.7-0.1-7-0.2s-4.6-0.4-6.9-0.8
			c-2.2-0.4-4.4-0.8-6.6-1.4c-2.1-0.6-4.2-1.3-6.1-2.1c-2-0.8-3.8-1.8-5.6-2.9c-0.9-0.5-1.7-1.1-2.5-1.7c-0.8-0.6-1.6-1.3-2.4-2
			c-0.8-0.7-1.5-1.4-2.1-2.2c-0.7-0.8-1.3-1.6-1.9-2.4c-0.6-0.8-1.2-1.7-1.7-2.6c-0.5-0.9-1-1.9-1.4-2.9c-0.6-1.4-1.1-3.1-1.6-5.2
			c-0.5-2-0.8-4.3-1.1-6.7c-0.3-2.3-0.4-4.7-0.5-7c0-2.2,0.1-4.3,0.3-6.1c0.2-1.5,0.5-3,0.8-4.5s0.7-2.9,1.1-4.3
			c0.4-1.4,0.9-2.8,1.4-4.1C1120.5,943.9,1121.1,942.7,1121.6,941.6L1121.6,941.6z"/>
		<path id="path7647" d="M1161,920.3c3.4,0,6.7,0.4,9.8,1c3.1,0.7,5.9,1.6,8.6,2.8c5.3,2.3,9.7,5.5,13.1,8.9l0,0
			c2.7,2.6,4.8,5.5,6.5,8.3c1.7,2.8,2.9,5.6,3.8,8.2c0.9,2.7,1.5,5.2,1.8,7.6c0.3,2.4,0.5,4.6,0.4,6.6l0,0c0,2.3-0.3,4.3-0.6,6.2
			c-0.3,1.9-0.8,3.6-1.3,5.2c-1,3.1-2.2,5.7-3.4,8c-0.7,1.4-1.7,3.1-3,4.9c-1.3,1.9-2.9,3.9-4.8,5.8c-1.8,1.8-4,3.7-6.3,5.3
			c-2.4,1.6-5,3.1-7.7,4.3c-2.7,1.2-5.6,2.1-8.5,2.7s-5.7,1-8.4,1c-3.7,0.1-7.1,0-9.9-0.2c-2.8-0.2-5.1-0.6-6.6-0.8
			c-1-0.2-2.4-0.5-4-1c-1.7-0.5-3.6-1.2-5.7-2.1c-3.2-1.4-6.9-3.6-10-6.6c-2.8-2.7-5.1-6-6.6-9.8c-0.6-1.5-1-3.2-1.3-4.9
			c-0.4-2.2-0.7-4.4-0.9-6.5c-0.2-2.3-0.3-4.6-0.3-6.7c0-2.1,0.2-4.1,0.5-5.8c0.4-2.3,0.9-4.4,1.3-6.2c0.5-1.7,0.9-3.2,1.2-4.2
			c0.8-2.4,2-5.6,3.9-9.1c1.9-3.5,4.6-7.2,8-10.5c1.8-1.9,3.9-3.6,6-5.1s4.5-2.9,6.9-4c2.4-1.1,4.9-2,7.3-2.6c2.4-0.6,4.8-1,7-1.3
			c1.9-0.2,2.9-0.2,3.2-0.3l0,0v-0.1c-0.3-0.1-1.4-0.2-3.4-0.1c-1.9,0-4.6,0.2-7.8,0.8c-3.2,0.6-6.8,1.6-10.6,3.3
			c-3.8,1.6-7.6,3.9-11.1,6.8c-2.4,2.1-4.6,4.5-6.6,7c-1.9,2.6-3.6,5.3-5,8c-1.4,2.8-2.4,5.5-3.2,8.2c-0.8,2.7-1.3,5.2-1.6,7.5
			c0,0.4-0.1,0.7-0.1,1.1c-0.5,4.6-0.1,9.2,0.6,13.6c0.3,2.3,0.8,4.6,1.4,6.8l0,0c0.5,1.8,1,3.6,1.8,5.4c1.9,4,4.7,7.5,7.8,10.2l0,0
			c3.5,3,7.3,5,10.9,6.4c3,1.2,5.9,2,8.4,2.6c2.6,0.6,4.8,1,6.7,1.3c1.2,0.2,2.8,0.4,4.8,0.6c2,0.2,4.3,0.4,7,0.4
			c2.4,0.1,5.1-0.1,8-0.5c2.8-0.4,5.8-1.1,8.8-2.1c3-1,6-2.4,8.8-4.1c2.9-1.7,5.6-3.7,8-6c2.6-2.5,4.9-5.2,6.8-8.1s3.4-5.9,4.5-8.9
			c1.1-3,1.9-5.9,2.3-8.6c0.4-2.7,0.6-5.2,0.5-7.3c0-1.2-0.1-2.3-0.2-3.2c-0.2-1.8-0.6-4-1.2-6.4c-0.6-2.4-1.5-5-2.8-7.6
			c-1.2-2.6-2.8-5.3-4.6-7.8s-4-4.9-6.4-7c-3.4-3-7.3-5.5-11.1-7.2c-3.8-1.8-7.5-2.9-10.8-3.5c-3.2-0.6-6-0.8-7.9-0.8
			C1162,920.2,1161,920.3,1161,920.3L1161,920.3z"/>
		<path id="path7653" inkscape:connector-curvature="0" sodipodi:nodetypes="ssssss" class="st31" d="M1144.6,929.7
			c-2.2,2.3-2.4,6-1.8,9.8c1,5.8,4.7,9.9,9.6,9.1c4.8-0.8,9.2-5.6,8.2-11.4c-1-5.8-6.9-10.5-11.7-9.7
			C1147.3,927.7,1145.8,928.5,1144.6,929.7L1144.6,929.7z"/>
		<path id="path7655" inkscape:connector-curvature="0" sodipodi:nodetypes="ssssss" class="st31" d="M1173.1,929.8
			c-2.7,0.9-4.3,3.7-5.4,7c-1.6,5-0.3,9.7,3.9,11c4.1,1.3,9.5-0.7,11.1-5.7c1.6-5-1.2-11.1-5.3-12.4
			C1176,929.2,1174.5,929.3,1173.1,929.8L1173.1,929.8z"/>
		<path id="path7657" inkscape:connector-curvature="0" sodipodi:nodetypes="ssssss" class="st31" d="M1191.8,944.5
			c-2.3,0.6-3.9,3-5,5.8c-1.6,4.2-0.7,8.3,2.8,9.7c3.5,1.3,8.2-0.1,9.9-4.4c1.6-4.2-0.4-9.6-3.9-11
			C1194.3,944.2,1193,944.2,1191.8,944.5L1191.8,944.5z"/>
		<path id="path7637" inkscape:connector-curvature="0" sodipodi:nodetypes="ssssss" class="st22" d="M1011.2,932.6
			c-25.3,0-45.8,20.1-45.8,44.8c0,24.8,20.5,44.8,45.8,44.8c18.9,0,37.3-5.2,44.3-21.2c2.4-5.4,3.5-21.9,2.3-28.1
			C1052.9,948.6,1036.5,932.6,1011.2,932.6L1011.2,932.6z"/>
		<path id="path7669" inkscape:connector-curvature="0" sodipodi:nodetypes="ssssss" class="st26" d="M1028.3,1012
			c-6,3.7-14.5,4.5-22.6,1.2c-12.3-4.9-19-17.1-15-27.2c4-10.1,16.2-18,28.5-13.1c12.3,4.9,20.1,20.7,16,30.8
			C1034,1007.2,1031.5,1010,1028.3,1012L1028.3,1012z"/>
		<path id="path7763" inkscape:connector-curvature="0" class="st23" d="M975.6,949.2c-6.4,7.7-10.2,17.5-10.2,28.2
			c0,24.8,20.5,44.8,45.8,44.8c17.5,0,34.5-4.5,42.5-17.8c0,0-0.1,0.1-0.1,0.1c-0.7,0.8-1.4,1.5-2.1,2.2s-1.5,1.3-2.4,2
			c-0.8,0.6-1.7,1.2-2.5,1.7c-1.8,1.1-3.6,2-5.6,2.9c-2,0.8-4,1.5-6.1,2.1c-2.1,0.6-4.3,1.1-6.6,1.4c-2.2,0.4-4.5,0.6-6.9,0.8
			c-2.3,0.2-4.7,0.2-7.1,0.2c-1.6,0-3.1-0.1-4.7-0.2c-1.5-0.2-3.1-0.4-4.6-0.7c-1.5-0.3-3-0.7-4.4-1.1c-1.4-0.4-2.8-0.9-4.2-1.5
			s-2.7-1.2-4-1.9c-1.3-0.7-2.6-1.4-3.8-2.3s-2.4-1.7-3.5-2.6c-1.1-0.9-2.2-1.9-3.3-2.9c-1-1-2-2.1-3-3.2c-0.9-1.1-1.8-2.3-2.7-3.5
			c-0.8-1.2-1.6-2.4-2.3-3.7c-0.7-1.3-1.4-2.6-1.9-3.9s-1.1-2.7-1.5-4.1c-0.4-1.4-0.8-2.8-1.1-4.3c-0.3-1.5-0.5-2.9-0.7-4.4
			c-0.2-1.5-0.2-3-0.2-4.6c0-1.5,0.1-3.1,0.2-4.6c0.2-1.5,0.4-3,0.7-4.4c0.3-1.5,0.7-2.9,1.1-4.3s1-2.8,1.5-4.1
			c0.6-1.3,1.2-2.6,1.9-3.9C974.6,950.8,975.1,950,975.6,949.2L975.6,949.2z"/>
		<path id="path7645" d="M1011.2,931.2c-3.6,0-7.1,0.5-10.3,1.2c-3.3,0.7-6.3,1.8-9.1,3c-5.6,2.5-10.2,5.8-14,9.4l0,0
			c-2.9,2.8-5.2,5.8-7,8.7c-1.8,3-3.2,5.9-4.3,8.7c-1.1,2.8-1.8,5.5-2.2,8.1c-0.5,2.6-0.7,5-0.7,7.2l0,0c0,2.5,0.1,4.8,0.4,6.9
			c0.3,2.1,0.7,4,1.1,5.8c0.9,3.5,2.1,6.4,3.4,9c0.8,1.5,1.9,3.4,3.3,5.4c1.5,2,3.3,4.2,5.5,6.3c2.1,2,4.5,3.9,7.1,5.5
			s5.6,3.1,8.6,4.3c3,1.1,6.2,2,9.2,2.5c3.1,0.5,6.1,0.7,9,0.6c3.8-0.1,7.4-0.4,10.3-0.8c2.9-0.4,5.2-0.9,6.8-1.3
			c1-0.2,2.4-0.6,4.1-1s3.7-1.1,5.9-2c3.4-1.4,7.4-3.4,10.9-6.5c3.2-2.7,5.9-6.3,7.8-10.4c0.9-2,1.4-4.2,1.8-6.1
			c0.6-2.7,0.9-5.5,1.2-8.1c0.3-2.9,0.5-5.7,0.5-8.3l0,0c0-2.3,0-4.6-0.4-6.7c-0.7-3.6-1.5-6.5-2.2-8.2c-1-2.7-2.5-6.3-4.8-10.2
			c-2.3-3.9-5.5-8.1-9.6-11.7c-2-1.7-4.3-3.2-6.6-4.5c-2.4-1.3-4.8-2.4-7.4-3.2c-2.5-0.9-5.1-1.5-7.6-1.9c-2.5-0.4-4.9-0.7-7.2-0.8
			c-1,0-1.8,0-2.4,0c-0.6,0-0.9,0-1,0.1l0,0v0.1c0.3,0.1,1.5,0.1,3.3,0.3c1.9,0.2,4.5,0.6,7.4,1.4c3,0.8,6.3,2,9.6,3.9
			c3.3,1.8,6.6,4.2,9.5,7.3c2,2,3.9,4.3,5.5,6.7c1.6,2.4,3,4.9,4.1,7.5c2.3,5.1,3.7,10.2,4.7,14.5c0.1,0.5,0.2,1.1,0.3,1.6
			c0.2,1.3,0.3,2.7,0.4,4.2c0.1,2.6,0.1,5.3,0,7.9c-0.1,2.6-0.3,5.2-0.7,7.8c-0.3,2-0.6,3.9-1.2,5.5c-1.5,3.8-3.8,7.2-6.6,9.9l0,0
			c-3.1,3-6.6,5.1-10.1,6.7c-2.8,1.3-5.6,2.1-8,2.8c-2.5,0.6-4.7,1-6.5,1.2c-1.2,0.1-2.8,0.3-4.8,0.4s-4.4,0.1-7,0
			c-2.4-0.1-4.9-0.3-7.6-0.9c-2.7-0.5-5.5-1.4-8.2-2.5c-2.8-1.1-5.5-2.5-8.1-4.3c-2.6-1.7-5-3.7-7.2-5.9c-2.3-2.4-4.3-5-6-7.7
			c-1.7-2.7-3-5.5-4-8.3c-1-2.7-1.7-5.4-2.1-7.9c-0.4-2.5-0.6-4.7-0.6-6.7c0-1.1,0-2,0-2.9c0-1.7,0.2-3.7,0.6-6s1-4.8,1.9-7.3
			c0.9-2.6,2.1-5.3,3.7-7.8c1.5-2.6,3.4-5.1,5.5-7.4c3.1-3.3,6.6-6.1,10.3-8.2c3.7-2.2,7.4-3.7,10.6-4.6c3.3-1,6.1-1.4,8.1-1.7
			C1010.1,931.2,1011.2,931.2,1011.2,931.2L1011.2,931.2z"/>
		<path id="path7659" d="M1027.6,1010.8c-1.9,1.2-4,2-6,2.5c-2,0.5-4,0.6-5.8,0.6c-1.8,0-3.6-0.3-5.2-0.6s-3-0.8-4.3-1.4
			c-2-0.8-3.6-1.8-5-2.8c-1.4-1-2.5-2-3.5-3s-1.7-2-2.3-2.9c-0.6-0.9-1.1-1.8-1.5-2.6c-0.5-1-0.8-2-1.1-2.9c-0.4-1.1-0.8-2.7-1-4.6
			c-0.2-1.9-0.1-4.1,0.7-6.3c0.5-1.3,1.1-2.6,1.8-3.9c0.7-1.2,1.6-2.4,2.5-3.4c0.9-1,1.9-1.9,2.8-2.7c1-0.8,1.9-1.4,2.7-1.9
			c1-0.6,1.9-1,2.6-1.3c0.5-0.2,1.2-0.4,2.1-0.6c0.9-0.2,2-0.3,3.3-0.4c1.3,0,2.6,0.1,4.1,0.4s2.9,0.7,4.2,1.4
			c1.7,0.8,3.3,1.8,4.8,3c1.4,1.2,2.7,2.5,3.8,3.8c1.1,1.3,1.9,2.6,2.6,3.7c0.7,1.1,1.2,2,1.5,2.6c0,0,0,0.1,0.1,0.1
			c0.5,0.8,1.1,2,1.6,3.3c0.5,1.4,1,3,1.3,4.7c0.2,1.2,0.3,2.5,0.2,3.8c-0.1,1.3-0.3,2.6-0.8,3.7c-0.4,1.5-1.1,2.9-2,4.1
			s-1.8,2.3-2.8,3.1c-0.6,0.6-1,0.8-1.1,1l0,0c0.5,0.9,0.5,0.8,0,0.1c0.1,0,0.5-0.2,1-0.5c0.5-0.3,1.2-0.7,2-1.3
			c0.8-0.6,1.7-1.3,2.6-2.2c0.9-0.9,1.8-2,2.6-3.4c0.7-1.3,1.2-2.7,1.6-4.2s0.5-3.1,0.4-4.7c-0.1-1.8-0.3-3.5-0.8-5.2
			c-0.4-1.7-1-3.2-1.7-4.6c-0.8-1.7-1.8-3.2-2.8-4.3c-1.7-2.1-3.7-4-6-5.5c-2.2-1.6-4.7-2.8-7.1-3.6c-1.8-0.6-3.7-0.9-5.5-1
			c-1.8-0.1-3.4,0-5,0.2c-1.5,0.2-2.9,0.6-4.1,1s-2.2,0.8-3.1,1.1c-0.2,0.1-0.3,0.1-0.5,0.2c-1.4,0.6-3.6,1.8-6,3.8
			c-1.2,1-2.3,2.2-3.4,3.6c-1.1,1.4-2.1,3-2.9,4.8c-0.6,1.4-1,2.8-1.3,4.4c-0.2,1.5-0.3,3-0.2,4.5c0.2,3,1.1,5.9,2.4,8.2
			c0.9,1.7,1.9,3.1,3,4.3s2,2,2.8,2.7c1,0.7,2.3,1.6,3.9,2.4c1.6,0.8,3.4,1.6,5.4,2.2c2.6,0.8,5.4,1.2,8.2,1.2
			c2.7,0,5.3-0.4,7.4-1.1c2.1-0.7,3.8-1.5,4.9-2.2C1027,1011.3,1027.6,1010.8,1027.6,1010.8L1027.6,1010.8z"/>
		<path id="path7661" inkscape:connector-curvature="0" sodipodi:nodetypes="ssssss" class="st31" d="M1028,943
			c2.4,1.9,3,5.4,2.9,9.1c-0.2,5.7-3.3,9.9-8,9.8c-4.7-0.2-9.4-4.2-9.2-9.9c0.2-5.7,5.3-10.8,9.9-10.7
			C1025.3,941.4,1026.7,942,1028,943L1028,943z"/>
		<path id="path7663" inkscape:connector-curvature="0" sodipodi:nodetypes="ssssss" class="st31" d="M1000.9,943.5
			c2.7,0.9,4.3,3.7,5.4,7c1.6,5,0.3,9.7-3.9,11c-4.1,1.3-9.5-0.7-11.1-5.7c-1.6-5,1.2-11.1,5.3-12.4C998,943,999.5,943,1000.9,943.5
			L1000.9,943.5z"/>
		<path id="path7665" inkscape:connector-curvature="0" sodipodi:nodetypes="ssssss" class="st31" d="M981.6,957.9
			c2.5,0.5,4.3,2.8,5.6,5.6c2,4.2,1.4,8.6-2.1,10.2c-3.5,1.7-8.5,0.5-10.5-3.7c-2-4.2-0.3-10,3.2-11.6
			C979,957.8,980.3,957.7,981.6,957.9L981.6,957.9z"/>
		<path id="path7825" d="M990.7,927c0.1,0,0.2-0.1,0.3-0.1c0.1,0,0.2,0,0.3-0.1c0.2,0,0.3,0,0.5,0c0.4,0,0.7,0.1,1.1,0.3
			c0.7,0.3,1.4,0.9,2,1.7c0.2,0.2,0.3,0.5,0.5,0.7c0.3,0.6,0.6,1.2,0.7,1.8c0.2,0.7,0.2,1.3,0,1.9c-0.1,0.5-0.3,1.1-0.7,1.4
			c-0.4,0.4-1,0.5-1.6,0.4c-0.6-0.1-1.4-0.5-2-1c-0.5-0.5-1-1-1.4-1.7c-0.2-0.3-0.3-0.6-0.4-0.9c-0.4-1-0.5-1.9-0.4-2.7
			c0.1-0.4,0.2-0.8,0.4-1.1c0.1-0.2,0.2-0.3,0.3-0.4c0.1-0.1,0.1-0.1,0.2-0.2C990.6,927.1,990.7,927.1,990.7,927L990.7,927z"/>
		<path id="path7931" class="st27" d="M1080.4,933.1c0,0,0.1,0.1,0.1,0.1c0.2,0.1,0.4,0.4,0.6,0.6c0.3,0.3,0.6,0.5,0.9,0.8
			c0.3,0.3,0.6,0.6,0.8,0.8c0.2,0.2,0.3,0.3,0.4,0.4c0.1,0.1,0.2,0.3,0.3,0.4c0.1,0.1,0.2,0.2,0.3,0.4c0.1,0.2,0.3,0.4,0.6,0.7
			c0.6,0.5,1.2,1.1,1.6,1.7c0.1,0.2,0.2,0.2,0.2,0.1c0-0.1,0-0.3-0.1-0.6c-0.1-0.5-0.5-1.3-0.9-2c-0.1-0.2-0.2-0.5-0.3-0.8
			c-0.1-0.3-0.4-0.6-0.7-0.9c0,0,0,0,0,0c-0.2-0.2-0.5-0.3-0.6-0.4c-0.4-0.2-0.7-0.4-1-0.5c-0.7-0.4-1.4-0.7-1.8-1
			c-0.1-0.1-0.3-0.2-0.4-0.3c-0.1-0.1-0.2-0.1-0.2-0.2c-0.1-0.1-0.2-0.1-0.2-0.1c-0.1,0-0.1,0-0.2,0c0,0-0.1,0.1,0,0.2
			c0,0.1,0,0.1,0.1,0.2C1080.1,932.8,1080.2,932.9,1080.4,933.1L1080.4,933.1z"/>
		<path id="path7829" d="M1080.6,932.7c0,0,0.1,0.1,0.1,0.1c0.4,0.3,1.1,1.1,1.7,1.9c0.6,0.7,1,1.3,1.3,1.5c0.2,0.2,0.5,0.4,0.8,0.7
			c0.3,0.3,0.6,0.6,0.9,0.9c0.3,0.3,0.5,0.7,0.7,1c0.1,0.2,0.2,0.2,0.2,0.1s0-0.3,0-0.6c0-0.3-0.1-0.6-0.3-1s-0.3-0.8-0.6-1.2
			c-0.4-0.6-0.8-1.1-1.2-1.4c-0.4-0.3-0.8-0.5-1.1-0.8c-0.8-0.6-1.6-1.1-2.2-1.5c-0.1-0.1-0.3-0.2-0.4-0.3c-0.1-0.1-0.2-0.2-0.2-0.2
			c-0.1,0-0.2-0.1-0.2-0.1c0,0-0.1,0-0.1,0c-0.1,0-0.1,0.1-0.1,0.1c0,0,0,0.1,0,0.1c0,0.1,0,0.1,0.1,0.2
			C1080.3,932.4,1080.4,932.5,1080.6,932.7L1080.6,932.7z"/>
		<path id="path7831" d="M1080.6,938.4C1080.6,938.3,1080.6,938.3,1080.6,938.4c0.4-0.4,1.2-1,2-1.6c0.7-0.6,1.4-1.1,1.6-1.4
			c0.2-0.3,0.6-0.8,1-1.4c0.4-0.6,0.8-1.2,1.1-1.7c0.2-0.3,0.1-0.3-0.2-0.2c-0.2,0.1-0.6,0.4-1,0.7c-0.4,0.3-0.9,0.6-1.4,1
			c-0.4,0.3-0.8,0.7-1.1,1c-0.3,0.4-0.5,0.8-0.8,1.2c-0.5,0.8-1.1,1.5-1.5,1.9c-0.1,0.1-0.2,0.2-0.3,0.3c-0.1,0.1-0.2,0.1-0.2,0.2
			c-0.1,0.1-0.1,0.1-0.1,0.2c0,0,0,0.1,0,0.1c0,0.1,0,0.1,0.1,0.1c0,0,0.1,0,0.1,0c0.1,0,0.1,0,0.2-0.1
			C1080.3,938.7,1080.4,938.6,1080.6,938.4L1080.6,938.4z"/>
	</g>
</g>
</svg>
