<?xml version="1.0" encoding="utf-8"?>
<!-- Generator: Adobe Illustrator 20.0.0, SVG Export Plug-In . SVG Version: 6.00 Build 0)  -->
<svg version="1.1"
	 id="svg16054" inkscape:version="0.91 r13725" sodipodi:docname="quiz1.svg" xmlns:cc="http://creativecommons.org/ns#" xmlns:dc="http://purl.org/dc/elements/1.1/" xmlns:inkscape="http://www.inkscape.org/namespaces/inkscape" xmlns:rdf="http://www.w3.org/1999/02/22-rdf-syntax-ns#" xmlns:sodipodi="http://sodipodi.sourceforge.net/DTD/sodipodi-0.dtd" xmlns:svg="http://www.w3.org/2000/svg"
	 xmlns="http://www.w3.org/2000/svg" xmlns:xlink="http://www.w3.org/1999/xlink" x="0px" y="0px" viewBox="0 0 1700.8 949.6"
	 style="enable-background:new 0 0 1700.8 949.6;" xml:space="preserve">
<style type="text/css">
	.st0{fill:#FFFFFF;}
	.st1{fill:#6B3C1F;stroke:#000000;}
	.st2{fill:#6B3C1F;stroke:#000000;stroke-linejoin:round;}
	.st3{fill:url(#SVGID_1_);stroke:#000000;}
	.st4{fill:#8D5027;stroke:#000000;}
	.st5{fill:url(#SVGID_2_);stroke:#000000;}
	.st6{fill:url(#SVGID_3_);stroke:#000000;}
	.st7{fill:url(#SVGID_4_);stroke:#000000;}
	.st8{fill:#D28C5F;stroke:#000000;}
	.st9{fill:url(#SVGID_5_);stroke:#000000;}
	.st10{fill:url(#SVGID_6_);stroke:#000000;}
	.st11{fill:url(#SVGID_7_);stroke:#000000;}
	.st12{fill:url(#SVGID_8_);stroke:#000000;}
	.st13{fill:url(#SVGID_9_);stroke:#000000;stroke-width:1.02;}
	.st14{fill:url(#SVGID_10_);stroke:#000000;}
	.st15{fill:#855B3E;}
	.st16{fill:none;stroke:#000000;stroke-width:1.02;}
	.st17{fill:#A05B2B;stroke:#000000;stroke-width:1.02;}
	.st18{fill:#6C5353;stroke:#000000;stroke-width:1.02;}
	.st19{fill:#906F6F;stroke:#000000;stroke-width:1.02;}
	.st20{fill:none;stroke:#000000;}
	.st21{fill:url(#SVGID_11_);}
	.st22{fill:#A06121;}
	.st23{fill:#6E4A25;}
	.st24{fill:#956C45;stroke:#000000;stroke-width:3;}
	.st25{fill:#B8854F;}
	.st26{fill:#834317;}
	.st27{fill:#5D381E;}
	.st28{fill:none;stroke:#000000;stroke-width:5;}
	.st29{fill:#DDCEBE;}
	.st30{stroke:#000000;stroke-width:5;}
	.st31{fill:#834317;stroke:#000000;stroke-width:3;}
</style>
<defs>
	
	<inkscape:path-effect  effect="spiro" id="path-effect5341" is_visible="true"></inkscape:path-effect>
	<inkscape:path-effect  effect="spiro" id="path-effect17606" is_visible="true"></inkscape:path-effect>
	<inkscape:path-effect  effect="spiro" id="path-effect16830" is_visible="true"></inkscape:path-effect>
	<inkscape:path-effect  effect="spiro" id="path-effect16826" is_visible="true"></inkscape:path-effect>
	<inkscape:path-effect  effect="spiro" id="path-effect16822" is_visible="true"></inkscape:path-effect>
	<inkscape:path-effect  effect="spiro" id="path-effect16818" is_visible="true"></inkscape:path-effect>
	<inkscape:path-effect  effect="spiro" id="path-effect16814" is_visible="true"></inkscape:path-effect>
	<inkscape:path-effect  effect="spiro" id="path-effect16810" is_visible="true"></inkscape:path-effect>
	<inkscape:path-effect  effect="spiro" id="path-effect16806" is_visible="true"></inkscape:path-effect>
	<inkscape:path-effect  effect="spiro" id="path-effect16802" is_visible="true"></inkscape:path-effect>
	<inkscape:path-effect  effect="spiro" id="path-effect16798" is_visible="true"></inkscape:path-effect>
	<inkscape:path-effect  effect="spiro" id="path-effect16794" is_visible="true"></inkscape:path-effect>
	<inkscape:path-effect  effect="spiro" id="path-effect16790" is_visible="true"></inkscape:path-effect>
	<inkscape:path-effect  effect="spiro" id="path-effect16786" is_visible="true"></inkscape:path-effect>
	<inkscape:path-effect  effect="spiro" id="path-effect16782" is_visible="true"></inkscape:path-effect>
	<inkscape:path-effect  effect="spiro" id="path-effect16778" is_visible="true"></inkscape:path-effect>
	<inkscape:path-effect  effect="spiro" id="path-effect16774" is_visible="true"></inkscape:path-effect>
</defs>
<sodipodi:namedview  bordercolor="#666666" borderlayer="true" borderopacity="1.0" fit-margin-bottom="0" fit-margin-left="0" fit-margin-right="0" fit-margin-top="0" id="base" inkscape:current-layer="layer3" inkscape:cx="701.87495" inkscape:cy="334.05534" inkscape:document-units="cm" inkscape:pageopacity="0.0" inkscape:pageshadow="2" inkscape:window-height="1056" inkscape:window-maximized="1" inkscape:window-width="1855" inkscape:window-x="1985" inkscape:window-y="24" inkscape:zoom="0.35" pagecolor="#ffffff" showgrid="false" units="cm">
	</sodipodi:namedview>
<g id="layer2" inkscape:groupmode="layer" inkscape:label="background">
	<rect id="rect4177" y="-3.5" class="st0" width="1716.6" height="953.1"/>
</g>
<g>
	<g id="layer1">
		
			<image style="overflow:visible;opacity:0.75;enable-background:new    ;" width="308" height="503" xlink:href="8EDAB5CC.png"  transform="matrix(0.9968 0 0 0.998 686 222)">
		</image>
		<g id="g4249">
			<polygon class="st1" points="912.2,480.1 909.1,485.9 918.9,571.2 926.3,615.6 933.7,651.5 943.7,651.1 943.5,640.4 935.9,575.2 
				926.5,515.4 919.8,480.1 			"/>
			<polygon class="st2" points="786,631.4 797.8,632.3 803.3,567.7 807.7,522.9 808.3,492.6 795.1,492.6 789.4,560.8 786.9,613.2 
							"/>
			<g id="g8412">
				
					<linearGradient id="SVGID_1_" gradientUnits="userSpaceOnUse" x1="1295.8522" y1="784.307" x2="1392.0522" y2="753.457" gradientTransform="matrix(1 0 0 1 -601.88 -192.22)">
					<stop  offset="0" style="stop-color:#8D5027"/>
					<stop  offset="1" style="stop-color:#6B3C1F"/>
				</linearGradient>
				<path class="st3" d="M710.1,592.9l88.7-28.9c0.8-1.7,0.9-3.7,0.4-5.5c-1-2.9-4.6-2.9-4.6-2.9L757,565.9l-49.2,18L710.1,592.9z"
					/>
				<path class="st4" d="M762.5,566.9c0,0,45.7,2.6,68.6,4.6s72.8,9.5,72.8,9.5l-3.5,3.3l0.9,4.2c0,0-45.8-2.5-69-4.5
					s-70.5-9-70.5-9c-0.8-1.2-1.3-2.7-1.4-4.1C760.4,568.8,762.5,566.9,762.5,566.9L762.5,566.9z"/>
				
					<linearGradient id="SVGID_2_" gradientUnits="userSpaceOnUse" x1="1284.1635" y1="791.5859" x2="1355.4835" y2="749.0959" gradientTransform="matrix(1 0 0 1 -427.34 -177.79)">
					<stop  offset="0" style="stop-color:#C28156"/>
					<stop  offset="1" style="stop-color:#6B3C1F"/>
				</linearGradient>
				<path class="st5" d="M881.2,605.7l48.5-30.9c0.8-1.7,0.9-3.7,0.4-5.5c-1-2.9-4.6-2.9-4.6-2.9c-9.2,5.9-12.2,7.8-20,12.5
					s-26.8,15.7-26.8,15.7L881.2,605.7z"/>
			</g>
			
				<linearGradient id="SVGID_3_" gradientUnits="userSpaceOnUse" x1="1289.1405" y1="772.8557" x2="1315.9905" y2="776.0857" gradientTransform="matrix(1 0 0 1 -601.88 -192.22)">
				<stop  offset="0" style="stop-color:#492A16"/>
				<stop  offset="0.49" style="stop-color:#D28C5F"/>
				<stop  offset="1" style="stop-color:#593219"/>
			</linearGradient>
			<polyline class="st6" points="697.2,682.6 687.2,681.5 695.6,580.1 707.3,483.1 720.6,483.7 717.4,547.5 709.8,608.1 701,680.7 
							"/>
			
				<linearGradient id="SVGID_4_" gradientUnits="userSpaceOnUse" x1="1469.1302" y1="792.3743" x2="1496.4003" y2="790.4443" gradientTransform="matrix(1 0 0 1 -601.88 -192.22)">
				<stop  offset="0" style="stop-color:#4F2D17"/>
				<stop  offset="0.49" style="stop-color:#D28C5F"/>
				<stop  offset="1" style="stop-color:#482914"/>
			</linearGradient>
			<polygon class="st7" points="894.9,705.1 882.2,705.4 871.8,616.1 867.7,530.5 867.7,493.2 878.4,493.2 884.8,530.5 889.2,593 
				893,666.8 			"/>
			<g id="g8390">
				<path class="st8" d="M800.2,249.5c0,0,62.1,5,75.3,5.8s80.6-0.4,80.6-0.4l-6,34.6c0,0-67.3,0.6-75.3,0s-75.5-6.2-75.5-6.2
					l-0.6-34.1L800.2,249.5z"/>
				
					<linearGradient id="SVGID_5_" gradientUnits="userSpaceOnUse" x1="1425.7303" y1="562.0276" x2="1437.6504" y2="562.3475" gradientTransform="matrix(1 0 0 1 -601.88 -192.22)">
					<stop  offset="0" style="stop-color:#693B1D"/>
					<stop  offset="0.49" style="stop-color:#D28C5F"/>
					<stop  offset="1" style="stop-color:#563117"/>
				</linearGradient>
				<path class="st9" d="M824.2,453.2c0,0,1.3-76.5,1.3-88.9s3.8-79.4,3.8-79.4l4.9,0.5c0,0-1.2,82.5-1.2,97.3s-2,71.1-2,71.1
					c-1,0.5-2.2,0.8-3.3,0.9C826.4,454.5,825.2,454,824.2,453.2L824.2,453.2z"/>
				
					<linearGradient id="SVGID_6_" gradientUnits="userSpaceOnUse" x1="1449.8501" y1="564.1385" x2="1465.5702" y2="565.4285" gradientTransform="matrix(1 0 0 1 -601.88 -192.22)">
					<stop  offset="0" style="stop-color:#492A16"/>
					<stop  offset="0.49" style="stop-color:#D28C5F"/>
					<stop  offset="1" style="stop-color:#5B3319"/>
				</linearGradient>
				<path class="st10" d="M846,455.3c0,0,3.7-63,5.3-77.8s8.8-89.6,8.8-89.6l5,0.5l-0.3,3.5c0,0-4.5,87.2-6.6,111.1
					s-4.9,53.5-4.9,53.5c-1.4,0.4-2.8,0.6-4.3,0.5C848,456.6,847,456,846,455.3L846,455.3z"/>
				
					<linearGradient id="SVGID_7_" gradientUnits="userSpaceOnUse" x1="1477.7596" y1="565.1127" x2="1491.1296" y2="566.7228" gradientTransform="matrix(1 0 0 1 -601.88 -192.22)">
					<stop  offset="0" style="stop-color:#5D351A"/>
					<stop  offset="0.49" style="stop-color:#D28C5F"/>
					<stop  offset="1" style="stop-color:#673A1C"/>
				</linearGradient>
				<path class="st11" d="M872.5,458.6c-2.4-0.5-3-1.5-3-1.5s5.7-55.3,6.9-65.9S890,288.9,890,288.9l4.4,0.2
					c0,0-8.9,89.7-11.3,112.3s-6.6,56.4-6.6,56.4C875.4,458.6,873.9,458.9,872.5,458.6L872.5,458.6z"/>
				
					<linearGradient id="SVGID_8_" gradientUnits="userSpaceOnUse" x1="1505.0898" y1="566.0217" x2="1518.4598" y2="567.9317" gradientTransform="matrix(1 0 0 1 -601.88 -192.22)">
					<stop  offset="0" style="stop-color:#5D351A"/>
					<stop  offset="0.49" style="stop-color:#D28C5F"/>
					<stop  offset="1" style="stop-color:#5D351A"/>
				</linearGradient>
				<path class="st12" d="M896.6,461c-1.1-0.6-2.1-1.3-3.1-2.1c0,0,7.2-53,9.3-64.1s17-106.1,17-106.1l4.3-0.1
					c0,0-12.7,101.7-14.8,119.8s-7.7,52.1-7.7,52.1S898.1,461.7,896.6,461L896.6,461z"/>
				
					<linearGradient id="SVGID_9_" gradientUnits="userSpaceOnUse" x1="1538.146" y1="536.0381" x2="1554.606" y2="539.6982" gradientTransform="matrix(1 0 0 1 -601.88 -192.22)">
					<stop  offset="0" style="stop-color:#563117"/>
					<stop  offset="0.47" style="stop-color:#D28C5F"/>
					<stop  offset="1" style="stop-color:#4F2D17"/>
				</linearGradient>
				<path class="st13" d="M917.4,460.8c0,0,11.8-71.6,12-73s2.7-6.1,2.7-6.1c-0.8-1.4-1.2-2.9-1.1-4.5c0.2-1.4,1.1-2.6,2.3-3.2
					c0,0-2.1-6-0.9-10.5s13.8-55.9,14.3-58.6c0.5-2.7-0.4-6.9-0.2-8.3c0.1-0.8,0.8-1.4,1.6-1.4c0,0-1.4-2-1.2-3.3s2-2.3,2-2.3
					s1.7-12.1,2.7-18.1c1.1-6,4.8-18.4,4.8-18.4s-1.3-1-0.1-4.3s2.4-5.4,2.8-6.3s-0.7-3.4-0.7-3.4s-3.3-13,9.7-10.6
					c13.2,2.5,1.9,13.1,1.4,14.1c-1.9,3.6,1.6,3.7,0.9,9.6c-0.3,2.1-2.6,3.9-2.6,3.9l-1.7,18.3l-4.7,18c0,0,1.3,0.2,1,2.3
					c-0.2,1.1-0.7,2.2-1.5,3c0.1,1.1,0,2.2-0.3,3.3c-0.4,1.4-2.7,1.1-3,2.9s-9.5,62.7-10.1,64.9s-3.9,7.3-3.9,7.3
					c1.2,0.8,1.7,2.3,1.4,3.7c-0.3,1.6-1.1,3.1-2.3,4.2c0,0-1.5,17.6-2.2,21L928,462.5c0,0-3.9,1-5.6,0.7s-5-2.5-5-2.5L917.4,460.8z
					"/>
				
					<linearGradient id="SVGID_10_" gradientUnits="userSpaceOnUse" x1="1386.488" y1="530.7886" x2="1405.8981" y2="531.4387" gradientTransform="matrix(1 0 0 1 -601.88 -192.22)">
					<stop  offset="0" style="stop-color:#4F2D17"/>
					<stop  offset="0.47" style="stop-color:#D28C5F"/>
					<stop  offset="1" style="stop-color:#4D2C16"/>
				</linearGradient>
				<path class="st14" d="M786,453.3c0,0,0.3-71.9,0.3-73.2s1.8-6.7,1.8-6.7s-2.7-1.3-2.2-3.6s3.1-4,3.1-4s-4.5-4.5-4-8.9
					s4.5-54,4.5-56.7c0-2.7-2.2-5.8-2.2-7.1s1.8-4,1.8-4s-2.2-1.9-2.2-3.1s1.9-2.4,1.9-2.4l0.8-35.5c0,0-2.7-0.7-2-4s3.8-6.3,4-7.1
					s-2.5-2-2.5-2s-6.9-13.2,6.5-12.1s4.8,12.3,4.5,13.4c-1.2,3.8,1.6,2.9,1.9,8.6c0.1,2-1.9,4.1-1.9,4.1v35.5c0,0,2.4,0.6,2.4,2.6
					c0,1.2-0.8,2.2-1.9,2.5c0.7,0.9,1.2,2,1.3,3.2c0,1.3-2.2,2-2.2,3.8s1.6,60.3,1.3,62.5s-2.7,7.6-2.7,7.6s2.5,1.6,2.5,4
					c-0.1,1.5-0.9,3-2.2,3.8c0,0,1.8,16.8,1.7,20.1c-0.3,7.4-3.3,58.7-3.3,58.7s-3.5,1.8-5.4,1.9S786,453.3,786,453.3L786,453.3z"/>
				<path class="st15" d="M800,281.9c0,0,66.3,6.4,76.1,6.4s72.9-0.5,72.9-0.5l-0.7,1.6c0,0-66.8,0.9-74.1,0.5s-74.3-6.2-74.3-6.2
					V281.9z"/>
				<path class="st16" d="M959.1,239.9c3.6-0.5,7.2,0.1,10.5,1.6"/>
				<path class="st16" d="M956.3,252.4c0,0,8.3-0.5,12.1,2.8"/>
				<path class="st16" d="M948.1,294.8c0,0,5.4-1.4,12.5,2.2"/>
				<path class="st17" d="M946.8,300.5c0,0,7.3-2,11.8,1.7"/>
				<path class="st18" d="M933.6,373.8c0,0,8.1-0.4,10.9,1.9"/>
				<path class="st19" d="M932.3,381.5c0,0,6.1-0.3,10.7,2.5"/>
				<path class="st20" d="M791.1,236.1c0,0,3.2-1.5,8.5,0.1"/>
				<path class="st20" d="M789.3,247.8c0,0,6.8-2,11,0.4"/>
				<path class="st20" d="M789.1,288.7c0,0,4.2-1.7,11.8,0.4"/>
				<path class="st20" d="M787.9,294.2c0,0,7.7-2.4,12.8,0.2"/>
				<path class="st20" d="M788.9,365.7c0,0,5.8-1.2,8.9,0.5"/>
				<path class="st20" d="M788.1,373.4c0,0,5.9-1.5,10.9,0.3"/>
			</g>
			<g id="g8423">
				<path class="st8" d="M698.5,465.1v16.1c5.1,1.8,10.4,3.1,15.8,4.1c6.6,1,86.8,10.7,90,10.7s48.6,0.6,53,0.6s24.3-1.6,28.1-1.6
					s49.3-16.7,49.3-16.7l0.3-4.1l-0.6-12.6l-4.1-1.6l-115.5-8.2l-12.3-1l-20.5,0.6l-52.4,7l-26.8,4.7L698.5,465.1z"/>
				<path class="st20" d="M698.8,465.4c0,0,27.1,8.2,36.3,8.2s79.2,6.6,84.6,6.6s59.7,0.3,59.7,0.3s7-0.6,12-1s39.8-13.2,41.7-14.8
					s1.2-2.9,1.2-2.9"/>
				
					<linearGradient id="SVGID_11_" gradientUnits="userSpaceOnUse" x1="1526.9264" y1="665.9288" x2="1479.4865" y2="681.0288" gradientTransform="matrix(1 0 0 1 -601.88 -192.22)">
					<stop  offset="0" style="stop-color:#8F5228"/>
					<stop  offset="1" style="stop-color:#D28C5F"/>
				</linearGradient>
				<path class="st21" d="M875.2,480.8l0.7,14.1l11.1-0.4l24.5-8.2l22.8-8.3l0.3-6.4l-0.5-7.1l-18.9,7.8c0,0-19.3,6.8-25.1,7.7
					C885.1,480.7,880.2,480.9,875.2,480.8L875.2,480.8z"/>
			</g>
		</g>
	</g>
	<g>
		
			<image style="overflow:visible;opacity:0.75;enable-background:new    ;" width="226" height="301" xlink:href="8EDAB5CD.png"  transform="matrix(0.9956 0 0 0.9967 787.99 425.99)">
		</image>
		<g>
			<path class="st22" d="M913,547.3c16.2,23.3,21.8,45.3,17.1,63.4c-5.8,22.7-30.1,33.3-54.8,34c-28.1,0.8-44.9-16.5-49.9-27.1
				c-6.2-12.9-11.4-44.9,16.3-71"/>
			<path class="st23" d="M841.2,562.3h-0.1c-26.5,21.5-18,47.2-12.1,57.8c4.8,8.7,17.3,24.6,44.2,23.9c17.4-0.4,34.5-5.6,44.5-15.8
				l-0.3,0.3c-1,0.7-2.1,1.4-3.2,2.1s-2.2,1.3-3.4,1.9s-2.4,1.2-3.6,1.7s-2.5,1-3.8,1.5s-2.6,0.9-4,1.3s-2.7,0.7-4.1,1
				s-2.8,0.6-4.2,0.8s-2.9,0.5-4.3,0.6s-2.9,0.3-4.4,0.4s-2.9,0.2-4.4,0.2c-1.7,0-3.3,0-4.9,0c-1.6-0.1-3.2-0.2-4.7-0.4
				s-3-0.4-4.4-0.7s-2.8-0.6-4.1-1s-2.6-0.8-3.9-1.2s-2.5-0.9-3.6-1.4s-2.3-1-3.4-1.6s-2.1-1.1-3.1-1.7s-1.9-1.2-2.8-1.8
				s-1.8-1.3-2.6-1.9s-1.6-1.3-2.3-2s-1.4-1.3-2.1-2s-1.3-1.3-1.8-2s-1.1-1.3-1.6-1.9c-0.9-1.1-1.6-2.3-2.3-3.5
				c-0.4-0.7-0.7-1.4-1.1-2.2s-0.7-1.6-1-2.5s-0.6-1.8-0.9-2.8s-0.5-2-0.8-3.1s-0.4-2.2-0.6-3.4s-0.3-2.3-0.3-3.6s-0.1-2.5,0-3.8
				s0.2-2.6,0.3-3.9s0.4-2.7,0.7-4s0.7-2.8,1.1-4.2s1-2.8,1.6-4.2c0.6-1.4,1.3-2.8,2.1-4.3c0.8-1.4,1.7-2.8,2.7-4.3
				c1-1.4,2.1-2.8,3.3-4.2s2.5-2.8,3.9-4.2l0.1-0.1L841.2,562.3z"/>
			<path class="st24" d="M878.1,586c-11.1,1.7-16.1,10.4-18.8,22.5c-3,13.8,9.1,28,21.4,30.7s24.7-4.2,27.7-18s-1.9-33.9-13.8-35.5
				C893.1,585.4,879.6,585.7,878.1,586L878.1,586z"/>
			<path d="M895.9,526.6c4.4,4.8,8.3,9.4,11.8,13.9c3.2,4.1,6.1,8.4,8.8,12.9c4.3,6.9,7.7,14.3,10.3,22.1c1.2,3.7,2.2,7.5,2.8,11.4
				c0.5,3.1,0.8,6.2,0.8,9.3c0,2.5-0.1,5-0.5,7.4c-0.3,2-0.7,4-1.2,6c-0.2,0.7-0.4,1.3-0.6,1.9c-0.6,1.9-1.4,3.8-2.3,5.7
				c-1.2,2.4-2.6,4.7-4.3,6.8c-1.6,2-3.4,3.9-5.4,5.6c-2.1,1.8-4.4,3.5-6.8,4.9c-2.5,1.5-5.1,2.8-7.8,4c-2.6,1.1-5.3,2-8,2.8l0,0
				c-3.4,0.9-6.8,1.6-10.2,2.1c-3.1,0.4-5.7,0.6-7.7,0.7c-0.7,0-1.3,0-1.8,0.1c-2.2,0-4.5-0.1-6.7-0.4c-3.4-0.4-6.8-1.2-10.1-2.3
				c-9.4-3.1-17.8-8.8-24.2-16.5c-1.1-1.4-2.2-2.8-3.2-4.3c-0.9-1.4-1.7-2.8-2.4-4.4c-1-2.2-1.9-4.5-2.5-6.9c-0.6-2.1-1-4.1-1.3-5.6
				c-0.2-1-0.3-1.9-0.5-2.7c-0.3-2.1-0.6-4.2-0.7-6.4c-0.2-2.8-0.1-5.6,0.1-8.3c0.3-3.3,0.8-6.6,1.6-9.8c0.9-3.4,2.1-6.8,3.5-10
				c1.6-3.4,3.4-6.6,5.6-9.7c2-2.8,4.2-5.5,6.6-7.9c0.9-0.9,1.5-1.5,1.9-1.9s0.5-0.6,0.5-0.6c-1,0.6-2,1.4-2.9,2.2
				c-5.4,4.9-9.9,10.6-13.3,17.1l0,0c-1.6,3.1-3,6.4-4,9.7c-1.1,3.5-1.8,7.1-2.2,10.7c-0.4,3.1-0.5,6.3-0.3,9.5
				c0.1,2.9,0.5,5.9,1,8.7c0.5,2.6,1.1,5.1,2,7.6c0.7,1.9,1.4,3.8,2.3,5.6c1.7,3.3,3.8,6.3,6.3,9l0,0c6.9,7.6,15.8,13.2,25.7,16.1
				l0,0c3.4,1,6.9,1.7,10.4,2c2.9,0.3,5.8,0.4,8.6,0.3c1.2,0,2.3-0.1,3.4-0.1c1.5-0.1,3.5-0.2,6.1-0.5c3-0.4,5.9-0.9,8.9-1.6
				c2.7-0.7,5.4-1.5,8.1-2.5c2.9-1.1,5.8-2.4,8.5-3.9l0,0c2.5-1.4,4.8-3,7-4.7c2.2-1.8,4.3-3.8,6.2-6c1.9-2.3,3.5-4.7,4.9-7.4
				c1.3-2.5,2.3-5.2,3-7.9c1.1-4.4,1.7-9,1.6-13.5c0-3.4-0.4-6.7-1-10c-0.3-1.6-0.7-3.4-1.3-5.4s-1.3-4.2-2.1-6.5
				c-1-2.7-2.2-5.5-3.5-8.3c-1.4-2.9-2.9-5.7-4.6-8.6c-1.7-2.8-3.5-5.6-5.3-8.2c-1.8-2.6-3.7-5.1-5.6-7.5c-3.7-4.6-7.2-8.5-9.7-11.3
				S895.9,526.6,895.9,526.6L895.9,526.6z"/>
			<path class="st22" d="M822.8,640.8c-0.7-11,0.7-25.6,14.3-25.8c10.8-0.2,21.4,9.6,23.6,21.1"/>
			<path class="st22" d="M952.2,628.4c0,0-5.1-15.2-10.1-20.1c-1.3-1.3-6.5-5.2-11.3-4.1c-12.1,3-18.8,16.4-22.2,26.8
				c-0.4,1.5-2.6,7.3-0.7,11.4"/>
			<path class="st23" d="M909.4,639.9c-1.9-4,1.7-9.4,2.2-10.9c0.6-2,2.7-5.2,2.2-7.5c-1.5,3-4.1,7.1-5,10
				c-0.4,1.5-2.6,7.3-0.7,11.4C923.8,640.9,917.3,637.7,909.4,639.9L909.4,639.9z"/>
			<path d="M822.9,641c-0.2-2.9-0.2-5.7,0.2-8.6l0,0c0.2-1.6,0.5-3.2,1-4.8c0.3-1.1,0.8-2.2,1.3-3.3l0,0c0.4-0.7,0.8-1.4,1.3-2.1
				c0.4-0.6,0.8-1,1.1-1.5c0.6-0.8,1.3-1.5,2-2.1c1-0.8,2.1-1.5,3.3-1.9c1.3-0.5,2.6-0.8,4-0.9c1.2-0.1,2.5-0.1,3.7,0.1
				c0.6,0.1,1.1,0.2,1.6,0.4c0.8,0.3,1.6,0.6,2.4,1c1.3,0.7,2.5,1.4,3.6,2.3c1.1,0.9,2.1,1.8,3.1,2.8c1.2,1.2,2,2.2,2.5,2.7
				c0.6,0.6,1.1,1.2,1.7,1.8c0.7,0.9,1.3,1.8,1.9,2.7c0.6,1,1.2,2.1,1.6,3.2c0.4,1,0.8,2.1,1,3.2c0.1,0.5,0.2,0.7,0.3,0.7
				s0.2-0.2,0.2-0.7c0.1-1.4,0.1-2.9-0.3-4.3c-0.2-1-0.5-2-0.8-3c-0.4-1-0.8-2-1.4-3c-0.5-0.9-1.1-1.8-1.8-2.7
				c-0.6-0.7-1.2-1.4-1.9-1.9c-0.4-0.3-0.8-0.6-1.2-0.9c-1.3-0.9-2.6-1.8-4-2.5c-1.3-0.7-2.7-1.3-4.1-1.8c-1-0.4-2.1-0.7-3.2-0.9
				c-1-0.2-1.8-0.4-2.4-0.5c-0.9-0.2-1.8-0.3-2.7-0.4c-1.4-0.1-2.8,0-4.2,0.3c-1.7,0.3-3.2,1-4.6,2c-1.3,0.9-2.5,2.1-3.4,3.4
				c-0.8,1.1-1.4,2.2-1.8,3.4c-0.1,0.4-0.3,0.8-0.4,1.2c-0.3,1.1-0.4,2.3-0.5,3.4c-0.1,1.4-0.2,2.9-0.1,4.4c0.1,2,0.3,4,0.6,6
				C822.7,639.9,822.9,641,822.9,641L822.9,641z"/>
			<path class="st23" d="M932,604.9c-0.6,0-1.2,0.1-1.8,0.2c-4.5,1.2-8.5,3.7-11.6,7.2l0.1-0.1c0.6-0.5,1.1-1,1.7-1.5
				s1.2-0.9,1.8-1.3c0.6-0.4,1.3-0.8,2-1.1c0.7-0.3,1.4-0.6,2.1-0.9c0.7-0.3,1.5-0.5,2.2-0.7c0.6-0.1,1.2-0.2,1.8-0.2
				c0.6,0,1.2,0.1,1.8,0.2c0.6,0.1,1.2,0.3,1.7,0.5c0.6,0.2,1.1,0.4,1.6,0.7c0.9,0.5,1.9,1,2.7,1.6c0.6,0.4,1.1,0.9,1.7,1.3
				c0.7,0.7,1.3,1.4,1.8,2.3c0.6,0.9,1.2,1.9,1.8,2.9s1.2,2.2,1.7,3.3s1.1,2.3,1.5,3.4c1,2.2,1.8,4.3,2.3,5.8
				c0.3,0.9,0.4,1.1,0.5,1.5l1.9-0.6c0,0-5.1-15.2-10.1-20.1C940.3,608.1,936.2,605,932,604.9L932,604.9z"/>
			<path d="M952,627.2c-1-2.9-1.9-5.5-2.6-7.8l0,0c-1-2.6-1.9-4.7-2.8-6.5c-0.5-1.1-1.1-2.1-1.7-3.1c-0.5-0.8-1.1-1.6-1.8-2.4
				c-0.5-0.6-1.1-1.1-1.7-1.6c-0.8-0.6-1.6-1.2-2.4-1.6l-0.4-0.2c-1-0.5-2.2-0.9-3.3-1.2c-1.5-0.3-3.1-0.3-4.6,0.1l0,0
				c-1.7,0.5-3.3,1.2-4.8,2.1c-1.3,0.7-2.4,1.6-3.5,2.6c-0.7,0.6-1.2,1.1-1.6,1.5s-1.1,1.1-2,2c-1.1,1-2.1,2.1-3,3.3
				c-0.8,1-1.7,2.1-2.4,3.3s-1.5,2.3-2.1,3.4c-0.9,1.6-1.7,3.3-2.4,5c-0.3,1.1-0.9,2.8-1.5,4.8c-0.5,1.9-0.8,3.8-0.9,5.8
				c-0.1,1.3,0,2.5,0.2,3.8c0.1,0.8,0.4,1.5,0.8,2.2c0.1,0.2,0.3,0.4,0.5,0.6c0.1,0.1,0.2,0.2,0.3,0.3c0.2,0.1,0.1,0,0-0.3
				c-0.2-0.3-0.4-0.7-0.5-1.1c-0.2-0.6-0.2-1.2-0.2-1.8c0-0.5,0.1-1.1,0.2-1.6c0.1-0.6,0.2-1.2,0.4-1.8c0.5-1.7,1-3.5,1.7-5.1
				c0.6-1.3,1.1-2.6,1.7-3.8s1-2.3,1.3-3.2c0.5-1.6,1.2-3.2,1.9-4.8c0.7-1.5,1.5-3,2.3-4.5c0.8-1.4,1.8-2.7,2.8-3.9
				c0.8-0.9,1.6-1.7,2.6-2.4l0.5-0.4c1-0.7,2.1-1.3,3.3-1.8c1.5-0.7,3.2-1.2,4.8-1.5l0,0c1-0.2,2.1-0.1,3.1,0.2c1,0.3,2,0.7,3,1.2
				c0.9,0.5,1.7,1,2.5,1.6c0.5,0.4,1,0.8,1.5,1.2c0.5,0.5,1,1,1.3,1.3s0.7,0.8,1.1,1.3s0.8,1.1,1.3,1.8c1.3,1.9,2.5,3.9,3.5,6
				l3.5,7.5L952,627.2z"/>
			<path class="st22" d="M843.1,543.2c0,0-13.8,7.9-21.7,19.9c-6.6,10.1-14.3,30.4-14.1,43.7c0.2,10.4,5.9,20.8,13.5,22.3
				c6.1,1.2,15-1.4,16.8-4.4c9.5-16,1.1-25.2,0.6-41.6c-0.4-13.2,1.5-16.9,3.4-22.4c0.8-2.1,7.4-14.7,7.4-14.7"/>
			<path class="st22" d="M915.2,467.1c0,0,7.6-11.3,9.5-13.1s2.5-4.4,7.1-5s12,2.2,13.6,3.3s7.9,5.4,9.1,6.9s2.1,6.3,2,9.5
				s-3.2,10.3-4.4,11.5s-7.9,7.5-10.1,8.2s-14,2.5-14,2.5L915.2,467.1z"/>
			<path class="st23" d="M840.8,544.5c-4.1,2.6-13.5,9.3-19.6,18.6c-6.6,10.1-14.3,30.4-14.1,43.7c0.2,10.4,5.9,20.8,13.5,22.2
				c5.9,1.2,14.4-1.3,16.6-4.1c-0.4,0.2-0.8,0.4-1.2,0.5c-0.8,0.3-1.5,0.5-2.3,0.8c-0.8,0.2-1.6,0.4-2.5,0.5s-1.7,0.3-2.6,0.3
				c-0.8,0-1.7,0-2.5,0c-0.8,0-1.6-0.1-2.4-0.3c-0.5-0.1-0.9-0.2-1.4-0.4c-0.5-0.2-0.9-0.4-1.3-0.6c-0.9-0.5-1.8-1-2.5-1.7
				c-0.8-0.7-1.6-1.5-2.3-2.3c-0.7-0.9-1.4-1.8-2-2.8c-0.6-1-1.2-2.1-1.6-3.3c-0.5-1.2-0.9-2.4-1.2-3.6c-0.3-1.2-0.6-2.5-0.8-3.8
				c-0.2-1.3-0.3-2.6-0.3-3.9c0-1.8,0.1-3.5,0.3-5.3c0.2-1.8,0.5-3.8,0.9-5.7s0.9-4,1.5-6s1.2-4,1.9-6s1.4-4,2.2-5.9
				s1.6-3.8,2.4-5.5s1.7-3.4,2.5-5c0.8-1.6,1.7-3,2.5-4.2c1-1.5,2-2.9,3.2-4.3c1.1-1.4,2.3-2.6,3.5-3.9s2.4-2.4,3.6-3.4
				c1.2-1.1,2.4-2,3.5-2.9S839.9,545.1,840.8,544.5L840.8,544.5z"/>
			<path class="st22" d="M822.4,492.6c0,0-1.9,16.7-0.9,19.5c0.9,2.8,5,18,5.6,19.2s11.2,13.3,14.3,14.9s13.6,5.6,13.6,5.6
				s25.7,4,33.5,3.1s19.5-2.2,22.9-5.3c2.7-2.4,8.7-4.8,11.8-7.4c4-3.4,8.7-4.3,10.8-6.5c2.2-2.2,6.8-10.9,7.4-17.4s0-17.4-1.9-21.4
				c-2-4.3-4-8.1-5.3-10.5s-15.5-20.5-17.7-23.9s-11.8-11.2-14.6-11.8s-21.4-4-26.7-3.4s-18,6.5-20.8,8.4s-13.6,13-15.2,14.9
				S822.4,488.9,822.4,492.6L822.4,492.6z"/>
			<path class="st25" d="M867.8,553.5c7.8,1,16.5,1.8,20.7,1.3c7.8-0.9,19.5-2.2,22.9-5.3c2.7-2.4,8.7-4.8,11.8-7.4
				c4-3.4,8.7-4.4,10.8-6.5s6.8-10.8,7.4-17.4c0.6-6.5,0-17.4-1.9-21.4c-1.3-2.7-2.5-5.2-3.6-7.2c2.1-0.3,4.1-0.7,6.1-1.3
				c2.2-0.8,8.9-7,10.1-8.2s4.3-8.2,4.4-11.5s-0.8-8-2-9.5s-7.5-5.8-9.1-6.9c-3.7-2-7.8-3.1-11.9-3.4c1.2,0.2,2.3,0.4,3.5,0.8
				c1.2,0.3,2.4,0.8,3.5,1.2c0.8,0.3,1.5,0.7,2.2,1.1c0.8,0.5,2.8,1.9,4.7,3.3c1,0.7,1.9,1.4,2.7,2c0.6,0.5,1.2,1,1.7,1.6
				c0.4,0.5,0.6,1.1,0.8,1.7c0.3,0.8,0.5,1.6,0.6,2.4c0.2,0.9,0.3,1.8,0.4,2.8c0.1,0.9,0.1,1.8,0.1,2.7c-0.1,1-0.3,2-0.6,3
				c-0.3,1.2-0.8,2.4-1.2,3.5c-0.5,1.2-1,2.3-1.4,3.1c-0.3,0.7-0.7,1.3-1.2,1.9c-0.6,0.6-2.6,2.5-4.7,4.3c-1,0.9-2.1,1.8-3.1,2.5
				c-0.7,0.6-1.5,1.1-2.3,1.4c-0.8,0.2-1.6,0.4-2.4,0.6c-1.1,0.2-2.4,0.5-3.7,0.7c1.1,2.1,2.3,4.5,3.6,7.2c0.3,0.6,0.5,1.2,0.6,1.8
				c0.2,0.7,0.4,1.5,0.5,2.3c0.3,1.9,0.6,3.7,0.7,5.6c0.2,2,0.2,4.1,0.2,6.1c0,2-0.1,3.9-0.2,5.5c-0.1,0.8-0.2,1.7-0.4,2.5
				c-0.2,0.9-0.4,1.7-0.7,2.6c-0.6,1.8-1.2,3.5-2,5.2c-0.7,1.5-1.5,2.9-2.3,4.3c-0.6,1-1.2,1.9-2,2.7c-0.3,0.3-0.6,0.5-0.9,0.8
				c-0.4,0.2-0.7,0.5-1.1,0.7c-0.8,0.5-1.7,0.9-2.7,1.3c-1,0.5-2,1-3,1.6c-1.1,0.6-2.1,1.3-3.1,2.2c-0.9,0.7-1.8,1.3-2.8,1.9
				c-1,0.6-2.2,1.3-3.3,1.9s-2.2,1.2-3.2,1.8c-0.9,0.5-1.8,1.1-2.5,1.8c-0.5,0.4-1.1,0.8-1.7,1.1c-0.7,0.4-1.5,0.7-2.3,0.9
				c-0.8,0.3-1.8,0.5-2.8,0.8s-2,0.5-3.1,0.7c-2.2,0.4-4.5,0.8-6.7,1s-4.4,0.6-6.4,0.8c-1.2,0.1-2.4,0.2-3.7,0.1
				c-1.5,0-3.1-0.1-4.8-0.2C874.2,554.2,870.9,553.8,867.8,553.5L867.8,553.5z"/>
			<path class="st23" d="M902.8,495.9c-1.5-0.8-1.8-4-2.6-2.4c-1,2.1-0.7,4.6,0.8,6.4c1,1,7.2,1.8,7.2,0S904.3,496.7,902.8,495.9
				L902.8,495.9z"/>
			<path class="st23" d="M884.7,498.7c0-1.4,0-4.5,0.1-8.3c0.1-3.2,0.2-6.8,0.3-10.2c0.1-1.3,0.1-2.6,0.2-3.7c0-0.4,0.1-0.9,0.1-1.3
				c0-0.2,0.1-0.5,0.1-0.7c0.1-0.5,0.2-1.1,0.2-1.6l0,0c0.1-1.1,0.1-1.9,0.1-2.6c0-0.1,0-0.1,0-0.2c0-1.5,0-3.8-0.1-6.5
				c-0.1-2.1-0.2-4.5-0.5-6.9c-0.1-0.9-0.2-1.8-0.4-2.7c-0.1-0.6-0.3-1.3-0.6-1.9c-0.5-1.1-1-2.2-1.7-3.2c-0.1-0.2-0.3-0.5-0.5-0.7
				c-0.2-0.2-0.4-0.4-0.6-0.5c-0.1-0.1-0.3-0.2-0.5-0.2c-0.1,0-0.2,0-0.2,0l0,0c0.2,0.1,0.5,0.2,0.7,0.4c0.2,0.1,0.3,0.3,0.4,0.5
				c0.2,0.2,0.3,0.5,0.4,0.7c0.2,0.4,0.5,0.9,0.7,1.5s0.5,1.2,0.8,1.8c0.2,0.6,0.4,1.2,0.5,1.8c0.1,0.9,0.2,1.8,0.3,2.7
				c0.2,2.2,0.2,4.5,0.2,6.8s0,4.6-0.1,6.7l0,0c0,0.9-0.1,1.7-0.1,2.5c0,0.4-0.1,0.9-0.1,1.2c0,0.1,0,0.2-0.1,0.3l0,0
				c-0.1,0.3-0.1,0.6-0.1,0.8l0,0c0,0.4-0.1,0.9-0.1,1.3l0,0c0,1.3-0.1,2.5-0.1,3.8l0,0c0,3.5,0,7,0,10.2c0,4.4,0.1,8.1,0,10.3
				C884.2,505.7,884.7,506,884.7,498.7L884.7,498.7z"/>
			<path d="M844.1,542.3l-8.3,5.8c-3,2.3-5.9,4.7-8.6,7.3c-2.3,2.2-4.5,4.6-6.5,7.2l0,0c-1.2,1.6-2.3,3.2-3.3,5
				c-1,1.6-1.8,3.2-2.5,4.6c-1.1,2.2-2,4.3-2.8,6.2c-0.8,1.9-1.4,3.7-2,5.3c-0.8,2.4-1.5,4.5-2,6.5s-0.9,3.7-1.2,5.3v0.2
				c-0.2,1.3-0.5,2.9-0.7,4.8c-0.2,2.1-0.3,4.2-0.2,6.4c0,2.1,0.2,4.1,0.5,6.1c0.3,2.2,0.9,4.3,1.8,6.4c0.8,1.7,1.9,3.3,3.3,4.6
				c1.3,1.3,2.7,2.4,4.2,3.3l0,0c1.2,0.8,2.5,1.4,3.9,1.8c1.2,0.4,2.5,0.7,3.8,0.8c1.9,0.2,3.8,0.1,5.7-0.2l0.6-0.1
				c0.6-0.1,1.4-0.3,2.3-0.6c1.1-0.3,2.1-0.7,3.2-1.3c0.8-0.4,1.6-0.9,2.3-1.5c0.8-0.6,1.6-1.4,2.2-2.2l0,0c1-1.3,1.9-2.7,2.5-4.2
				c0.7-1.6,1.2-3.3,1.5-5.1l0,0c0.2-1.7,0.3-3.3,0.2-5c-0.1-1.6-0.3-3.3-0.5-4.9l0,0c-0.3-1.9-0.7-3.8-1-5.5s-0.7-3.4-1-5
				c-0.4-2.2-0.7-4.2-1-5.8s-0.3-3-0.4-3.9c0-0.5-0.1-1-0.1-1.6c-0.1-1.7-0.2-3.7-0.2-6c-0.1-2.4,0.1-4.8,0.3-7.2
				c0.2-1.3,0.5-2.6,0.8-3.8c0.4-1.3,0.8-2.6,1.3-3.9c1.5-4.1,3.3-8.1,5-11.7l1.6-3.3c0.4-0.7,0.7-1.4,0.9-2.2l0,0
				c-1.2-0.6-1.2-0.6,0,0l0,0c-0.2-0.1-1.4,1.9-3.4,5c-2.2,3.7-4.2,7.5-6,11.4c-1.2,2.5-2.2,5.2-2.8,8c-0.4,2.3-0.7,4.7-0.8,7
				c-0.1,2.3-0.1,4.5,0,6.7c0.1,3,0.4,6,1.1,9c0.2,0.9,0.4,1.9,0.7,2.8c0.9,3.5,1.9,6.9,2.7,10.3c0.4,1.5,0.6,3.1,0.8,4.7
				c0.2,1.5,0.2,3.1,0.1,4.6c-0.1,1.6-0.5,3.2-1.1,4.7c-0.6,1.4-1.3,2.8-2.2,4c-1.1,1.4-2.5,2.6-4.1,3.5c-2.7,1.4-5.7,2.1-8.7,2.1
				c-1.4,0-2.7-0.2-4-0.6c-1.9-0.5-3.7-1.3-5.4-2.5c-1.3-0.9-2.5-2-3.6-3.1c-1.2-1.2-2.1-2.7-2.8-4.3l0,0c-0.7-1.8-1.2-3.7-1.4-5.6
				c-0.2-2-0.3-4.1-0.3-6.1c0.1-3.6,0.4-7.1,1.1-10.6c0.8-3.9,1.8-7.8,3-11.7c0.6-2,1.2-3.7,1.7-5.1c0.6-1.7,1.4-3.9,2.4-6.3
				c1.4-3.4,3.1-6.6,5.2-9.6l0,0c2.1-2.9,4.4-5.7,6.9-8.3c2.3-2.3,4.8-4.6,7.3-6.7l8.1-6.1L844.1,542.3z"/>
			<path class="st23" d="M849.8,460c-4.2,4-9.3,9.3-10.4,10.6c-1.5,1.9-17,18.3-17,22c0,0-1.9,16.7-0.9,19.5s5,18,5.6,19.2
				c0.6,1.2,11.2,13.3,14.3,14.9c3.1,1.5,13.6,5.6,13.6,5.6s25.7,4,33.5,3.1c7.8-0.9,19.5-2.2,23-5.3c2.7-2.4,8.7-4.8,11.8-7.4
				c4-3.4,8.7-4.4,10.8-6.5c0.9-1,1.7-2.2,2.4-3.4c-0.6,0.3-1.2,0.6-1.8,0.9c-1,0.5-2,1-3,1.6c-1.1,0.6-2.1,1.4-3.1,2.2
				c-0.9,0.7-1.8,1.4-2.8,1.9c-1,0.6-2.2,1.3-3.3,1.9s-2.2,1.2-3.2,1.8c-0.9,0.5-1.8,1.1-2.5,1.8c-0.5,0.4-1,0.8-1.6,1.1
				c-0.7,0.4-1.5,0.7-2.3,0.9c-0.8,0.3-1.8,0.5-2.8,0.8s-2,0.4-3.1,0.7c-2.2,0.4-4.5,0.8-6.7,1s-4.5,0.5-6.4,0.8
				c-1.2,0.1-2.4,0.2-3.7,0.1c-1.5,0-3.1-0.1-4.8-0.2c-3.5-0.3-7.4-0.7-11.1-1.1c-7.4-0.9-13.8-1.9-13.8-1.9s-2.6-1-5.7-2.2
				c-3-1.2-6.4-2.6-8-3.4c-0.5-0.3-1-0.6-1.5-1c-0.6-0.5-1.3-1.1-2-1.8c-1.4-1.4-3.1-3.1-4.6-4.8s-3-3.4-4.2-4.7
				c-0.7-0.8-1.4-1.7-2-2.6c-0.3-0.6-1.5-4.7-2.7-9s-2.4-8.8-2.9-10.2c-0.1-0.5-0.2-1.1-0.2-1.6c0-0.7,0-1.6,0-2.6
				c0-2,0.2-4.3,0.4-6.6c0.3-4.5,0.8-8.7,0.8-8.7c0-0.3,0.1-0.6,0.2-0.8c0.1-0.4,0.3-0.7,0.5-1.1c0.5-1,1.1-1.9,1.8-2.8
				c0.7-1,1.6-2.2,2.5-3.4s1.9-2.4,3-3.6c2-2.4,4.1-4.8,5.8-6.6s2.9-3.2,3.3-3.7C845.3,464.6,847.7,462.2,849.8,460L849.8,460z"/>
			<path class="st22" d="M915.5,543.1c0,0,15.3,4.2,26,13.9c8.9,8.1,21.5,26,24.7,39.1c2.5,10.3,0.8,20.8-6.1,24.1
				c-5.6,2.7-16.2,3.5-18.7,1c-13.3-13.4-7.4-24.6-11.2-40.8c-3-13.1-9.5-17.7-10.3-19.8c-0.8-2.1-9.5-13.3-9.5-13.3"/>
			<path class="st25" d="M917.5,543.9l-2.8,2.5c0,0,2-1.4,3.3-0.8s3.3,1.4,5.6,2.5c1.1,0.6,2.3,1.2,3.6,2s2.5,1.5,3.8,2.4
				s2.6,1.8,3.8,2.9c1.3,1,2.5,2.1,3.7,3.3c1,1,2,2.1,3.1,3.4s2.4,3.7,3.6,5.3s2.5,3.1,3.7,4.8s2.4,3.4,3.6,5.2
				c1.2,1.8,2.3,3.6,3.3,5.4s2,3.7,2.9,5.5s1.7,3.6,2.3,5.4c0.6,1.7,1.2,3.4,1.6,5.1c0.3,1.3,0.6,2.6,0.7,3.9
				c0.2,1.3,0.3,2.5,0.3,3.8c0,1.2,0,2.4-0.1,3.6c-0.1,1.1-0.3,2.3-0.5,3.4c-0.2,1-0.6,2.1-1,3.1c-0.4,0.9-0.8,1.8-1.4,2.7
				c-0.3,0.4-0.6,0.7-0.9,1.1h0.1c6.9-3.3,8.6-13.8,6.1-24.1c-3.2-13.1-15.8-31-24.7-39.1C930.8,547.3,917.5,544,917.5,543.9
				L917.5,543.9z"/>
			<path d="M916.2,543.1l8.5,3.7c3.1,1.6,6.2,3.3,9.1,5.3c2.5,1.7,4.9,3.5,7.1,5.6c1.4,1.3,2.7,2.6,3.8,3.9s2.2,2.5,3.2,3.8
				c2.6,3.2,4.9,6.6,7.1,10.1c1.4,2.3,2.5,4.3,3.5,6.1s1.7,3.4,2.4,4.9l0.1,0.3c0.5,1.1,1.2,2.6,1.9,4.3c0.8,1.9,1.4,3.8,1.9,5.8
				c0.6,2.3,1,4.6,1.2,7c0.2,2.4,0.1,4.9-0.4,7.3c-0.3,1.9-1,3.8-2,5.5c-0.5,0.8-1.1,1.5-1.7,2.1c-0.6,0.6-1.3,1.1-2,1.5
				c-1.5,0.8-3.1,1.3-4.7,1.7c-1.2,0.3-2.3,0.5-3.5,0.7c-0.5,0.1-1.2,0.2-2,0.2s-1.4,0.1-2.2,0c-0.9,0-1.8-0.1-2.6-0.3
				c-0.6-0.1-1.2-0.3-1.7-0.5c-0.4-0.1-0.7-0.4-1-0.7c-1.3-1.4-2.5-2.9-3.6-4.4c-1.1-1.7-2.1-3.5-2.9-5.3l0,0c-1.1-3-1.8-6.2-2-9.4
				c-0.1-1.8-0.2-3.6-0.2-5.3s-0.1-3.4-0.1-4.9c-0.1-1.7-0.2-3.2-0.3-4.5s-0.3-2.3-0.4-3.1c-0.2-1.1-0.5-2.5-0.9-4.1
				c-0.7-2.8-1.5-5.5-2.5-8.1l0,0c-0.7-1.8-1.6-3.6-2.6-5.3c-0.8-1.3-1.7-2.5-2.6-3.7l0,0c-0.9-1.1-1.8-2.2-2.6-3.4
				c-0.3-0.4-0.6-0.8-0.8-1.1c-0.4-0.5-0.9-1-1.3-1.5c-1.1-1.3-2.2-2.5-3.3-3.8l-2.8-3.2l-0.2-0.3c-0.4-0.5-0.8-0.8-1-1.1
				c-0.1-0.1-0.2-0.2-0.3-0.3l-0.1-0.1l0,0l-0.6,0.5l-0.2,0.2l0,0l0.2-0.2l0.5-0.4l0,0v0.1c0.1,0.1,0.1,0.2,0.2,0.4
				c0.2,0.3,0.5,0.7,0.8,1.2c0.7,0.9,1.6,2.2,2.7,3.7c0.9,1.2,1.9,2.5,3,4c0.4,0.5,0.8,1.1,1.2,1.6c0.2,0.3,0.5,0.7,0.7,1
				c0.7,1.2,1.6,2.4,2.4,3.6c0.8,1.2,1.6,2.4,2.3,3.6c0.8,1.6,1.5,3.3,2.1,5c0.8,2.6,1.5,5.2,2,7.9c0.4,2,0.7,3.9,0.9,5.7
				s0.4,3.5,0.5,5.1v0.4c0.3,3.3,0.5,6.8,0.9,10.3l0,0c0.4,3.4,1.4,6.8,2.8,9.9c1.8,3.7,4.3,7,7.3,9.9c0.4,0.4,0.9,0.7,1.5,0.9
				c0.6,0.2,1.3,0.4,2,0.5c1.7,0.2,3.4,0.3,5.1,0.1c1.9-0.1,3.7-0.4,5.5-0.8h0.1c0.6-0.1,1.3-0.3,2.2-0.5c1-0.3,1.9-0.6,2.9-1l0,0
				c0.9-0.4,1.7-0.9,2.4-1.5c0.8-0.7,1.5-1.5,2.1-2.3c1.2-1.8,2.1-3.9,2.6-6c0.6-2.5,0.8-5,0.8-7.5c-0.1-2.6-0.4-5.2-1-7.8
				c-0.9-3.8-2.2-7.4-3.9-10.9c-1.8-3.9-3.9-7.6-6.3-11.2c-0.9-1.3-1.7-2.5-2.4-3.4c-1.3-1.7-3.1-4-5.3-6.5
				c-2.3-2.7-4.9-5.2-7.6-7.5c-2.7-2.2-5.6-4.2-8.6-6c-2.7-1.6-5.5-3-8.3-4.2l-8.6-3.3L916.2,543.1z"/>
			<path d="M947.5,617.7c0.2,0,0.4,0.1,0.5,0.2c0.2,0.2,0.3,0.4,0.4,0.6c0.1,0.3,0.1,0.7,0.1,1c0,0.4-0.1,0.7-0.1,1.1
				c-0.2,0.9-0.5,1.7-0.9,2.5c-0.1,0.2-0.3,0.5-0.4,0.7c-0.5,0.9-1.2,1.6-2,2.2c-0.3,0.2-0.6,0.4-1,0.5c-0.1,0-0.3,0-0.4,0h-0.2
				l-0.1-0.1l0,0l0,0l-0.1-0.1c0,0-0.1-0.1-0.1-0.2l0,0c-0.1-0.1-0.1-0.2-0.2-0.4c-0.1-0.3-0.1-0.7,0-1c0.1-0.9,0.4-1.9,0.8-2.7
				c0.1-0.2,0.2-0.4,0.3-0.7c0.4-0.7,0.8-1.4,1.2-2c0.2-0.3,0.4-0.5,0.6-0.7c0.2-0.2,0.4-0.3,0.5-0.5c0.2-0.1,0.3-0.2,0.5-0.3
				C947.2,617.8,947.4,617.8,947.5,617.7L947.5,617.7z"/>
			<path d="M941.4,616.6c0.2,0,0.4,0,0.5,0.1c0.2,0.1,0.3,0.3,0.4,0.5c0.3,0.5,0.4,1,0.5,1.6c0.1,0.6,0,1.3-0.1,1.9
				c0,0.2-0.1,0.4-0.2,0.6c-0.2,0.7-0.6,1.4-1.1,1.9c-0.2,0.2-0.4,0.4-0.7,0.5c-0.1,0-0.2,0.1-0.4,0.1h-0.2h-0.2l0,0l-0.2-0.1
				l-0.2-0.1c-0.1-0.1-0.2-0.2-0.3-0.3c-0.2-0.2-0.3-0.5-0.4-0.8c-0.2-0.7-0.2-1.4-0.1-2.1c0-0.2,0.1-0.4,0.1-0.6
				c0.1-0.6,0.3-1.1,0.6-1.6c0.2-0.4,0.5-0.8,0.8-1.1c0.1-0.1,0.3-0.2,0.5-0.3C941.1,616.7,941.2,616.7,941.4,616.6L941.4,616.6z"/>
			<path d="M956.4,619.1c0.6,0,1.1,0.2,1.4,0.7c0.5,0.6,0.7,1.4,0.7,2.2c0,0.5-0.1,1.1-0.2,1.6c-0.2,0.5-0.4,0.8-0.8,1.2
				c-0.1,0.1-0.3,0.2-0.5,0.2c-0.2,0-0.3,0-0.5,0l0,0c-0.2,0-0.3-0.1-0.4-0.2c-0.1-0.1-0.3-0.2-0.4-0.3c-0.3-0.3-0.5-0.6-0.6-1
				c-0.2-0.4-0.2-0.9-0.3-1.3c0-0.7,0.1-1.4,0.4-2C955.4,619.6,955.9,619.3,956.4,619.1L956.4,619.1z"/>
			<path class="st26" d="M880.8,505.7h7.9l14.5,5.3l17.1,10.5c0,0,4.6,3.3,5.3,5.3s-1.5,10.7-1.5,10.7l-2.8,8.8
				c0,0-16.9,13.6-23,15.1c-6.1,1.5-32.5,1.1-36.8-3.7s-14-16.9-14-20.8c0-3.9-0.1-7.1,1.9-9.1s4.7-3.3,13.2-10.9
				c2.1-1.8,8-7.1,10.4-9S879.1,505.1,880.8,505.7L880.8,505.7z"/>
			<path class="st25" d="M879.8,505.5c-1.7,0.1-3.4,0.6-4.9,1.5c0.5-0.1,1-0.2,1.5-0.2c0.6,0,6.7-0.8,7.1-0.7l7.6,0.8l9.7,4.4
				l16.8,11.5c0,0,1.2,0.8,2.4,1.9c0.6,0.5,1.2,1.1,1.8,1.7c0.2,0.3,0.5,0.6,0.7,0.9c0.2,0.2,0.3,0.5,0.4,0.8c0.1,0.3,0.1,0.7,0.1,1
				c0,0.5,0,1-0.1,1.5c-0.1,1.1-0.3,2.4-0.6,3.6c-0.5,2.4-1,4.6-1,4.6l-2.9,8.8c0,0-1.1,0.9-2.7,2.2c-1.7,1.3-4,3-6.5,4.8
				c-1.3,0.9-2.5,1.8-3.8,2.7c-1.3,0.9-2.6,1.7-3.8,2.4s-2.3,1.3-3.3,1.9c0.2,0,0.4,0,0.5-0.1c6.1-1.5,22.2-15.6,22.2-15.6l3.7-8.3
				c0,0,2.2-8.8,1.5-10.8s-5.3-5.3-5.3-5.3L903.8,511l-14.5-5.3h-7.9C880.9,505.5,880.3,505.5,879.8,505.5L879.8,505.5z"/>
			<path class="st27" d="M852,525.7c-0.9,0.6-1.7,1.3-2.5,2.1c-2,2-1.9,5.1-1.9,9.1s9.7,16,14,20.8s30.7,5.3,36.8,3.7
				c6.1-1.5,22.9-15.8,22.9-15.8l0.2-0.9c-1.7,1.3-3.5,3.4-5.9,5.1c-1.3,0.9-2.5,1.8-3.8,2.7c-1.3,0.9-2.6,1.7-3.8,2.4
				s-2.4,1.4-3.4,1.9c-0.9,0.5-1.8,0.8-2.7,1.1c-1,0.2-2.1,0.4-3.2,0.5c-1.3,0.1-2.9,0.2-4.6,0.3c-1.7,0.1-3.5,0.1-5.5,0
				c-1.9-0.1-3.9-0.1-5.9-0.3s-3.9-0.3-5.8-0.5s-3.6-0.5-5.2-0.9c-0.8-0.2-1.5-0.4-2.2-0.6c-0.6-0.2-1.3-0.4-1.9-0.7
				c-0.5-0.2-1-0.5-1.5-0.8c-0.4-0.2-0.8-0.5-1.1-0.9c-1.1-1.2-2.5-2.9-4-4.7c-1.5-1.9-3.1-3.9-4.6-6c-0.7-1-1.5-2-2.1-3
				c-0.6-0.9-1.2-1.9-1.7-2.8c-0.4-0.8-0.8-1.6-1.2-2.4c-0.2-0.6-0.4-1.2-0.4-1.8c0-1,0-1.9,0-2.8c0-0.8,0.1-1.7,0.2-2.5
				c0.1-0.7,0.3-1.4,0.6-2.1C851.8,525.9,851.9,525.8,852,525.7L852,525.7z"/>
			<path class="st27" d="M880.9,527.2c0.5,2.2,1.3,2.4,2.9,4c1.5,1.6,1.5,6.9,1.2,12.5l2.3,0.9l-1.4-13.8L880.9,527.2z"/>
			<path d="M850.9,526.8c4.3-3.3,8.1-6.5,11.5-9.5c2.7-2.3,5.2-4.5,7.5-6.4l0,0c1.7-1.4,3.5-2.6,5.5-3.6c1.7-0.8,3.6-1.2,5.5-1.3
				l0,0c1.7-0.1,3.5-0.1,5.2,0c1.5,0.1,3,0.3,4.5,0.6c1.4,0.3,2.7,0.8,4,1.3c1.1,0.5,2.3,1,3.3,1.6c1.7,1,3.2,1.9,4.6,2.8
				c1.4,0.9,2.7,1.7,3.9,2.4l1.5,0.9c2.5,1.5,6.6,3.7,11.5,6c1.5,0.7,2.7,1.8,3.6,3.1c0.9,1.5,1.4,3.2,1.6,4.9l0,0
				c0.2,2.1,0.1,4.2-0.3,6.3c-0.4,2-1,3.9-1.8,5.8l0,0c-0.6,1.4-1.4,2.7-2.4,3.9c-0.8,1-1.7,2-2.6,2.9c-0.8,0.8-1.5,1.4-2,1.9
				c-0.5,0.5-1.4,1.2-2.5,2c-1.1,0.8-2.5,1.7-4,2.6c-3.4,2-6.9,3.6-10.6,4.8c-1.7,0.6-3.5,1-5.3,1.4c-1.8,0.3-3.6,0.5-5.4,0.6
				c-2.2,0-4.4-0.1-6.6-0.4c-1.9-0.2-3.9-0.6-5.8-1.1c-2.6-0.7-5.2-1.5-7.7-2.5l-0.4-0.1c-1.3-0.5-2.6-1.1-3.8-1.8
				c-1.6-0.8-3.1-1.8-4.5-2.9c-2.3-1.7-4.2-3.7-5.7-6.1c-1-1.7-2.1-3.4-3-5.1c-1-1.7-1.7-3.5-2.3-5.4c-0.5-1.6-0.5-3.3-0.2-5
				c0.2-1.2,0.7-2.3,1.4-3.2c0.3-0.4,0.6-0.8,1-1.2c0.2-0.3,0.4-0.4,0.4-0.5l0,0l0,0c-0.2,0.1-0.3,0.2-0.5,0.3
				c-0.3,0.3-0.6,0.5-0.9,0.8c-0.4,0.4-0.8,0.9-1.2,1.4c-1,1.4-1.5,3-1.6,4.7c0,1,0,2,0.2,3c0.4,2,1.1,4,2,5.9
				c0.8,1.8,1.8,3.6,2.7,5.4c1.5,2.7,3.5,5.1,5.9,7.1c2.7,2.2,5.6,4,8.8,5.4c2.4,1.1,5,1.9,7.6,2.5c2.3,0.5,4.6,0.8,7,1
				c2.4,0.2,4.8,0.2,7.1,0c3.9-0.3,7.6-1.2,11.2-2.7c3.7-1.4,7.3-3.3,10.6-5.4l0,0c1.9-1.2,3.6-2.4,5-3.5s2.7-2.2,3.7-3.2l0.6-0.6
				c0.8-0.7,1.6-1.5,2.3-2.4c1-1.2,1.9-2.5,2.7-3.9c0.9-1.8,1.7-3.8,2.2-5.8c0.6-2.3,0.8-4.7,0.7-7.1c-0.1-2.1-0.7-4.1-1.7-5.9
				c-1-1.8-2.6-3.3-4.5-4.3c-4.4-2.2-8.8-4.6-12.6-7l0,0c-1.6-0.9-3.1-1.9-4.5-2.7s-2.8-1.7-4.2-2.3c-1-0.5-2.1-1-3.2-1.5
				c-0.9-0.4-1.8-0.7-2.7-0.9c-0.7-0.2-1.4-0.3-2.2-0.5c-1.6-0.3-3.2-0.4-4.8-0.4c-1.8,0-3.7,0.1-5.5,0.3c-2.1,0.2-4.1,0.8-6,1.7
				c-2,1.1-3.9,2.4-5.6,4c-2.6,2.3-5,4.6-7.3,6.7c-3.1,2.9-5.9,5.4-7.9,7.2c-2,1.8-3.3,2.8-3.3,2.8L850.9,526.8z"/>
			<path class="st23" d="M861,496.2c-1.5-0.8-2.9-4.4-2.9-2.6s0.6,4.8,1.8,6c1,1,7.8,2.2,7.8,0.4S862.5,497.1,861,496.2L861,496.2z"
				/>
			<path d="M864.3,487.2c-3.5,0-5.8,1.6-5.8,5.1s2.4,7.1,5.8,7.4c3.8,0.4,6.4-2.6,6.2-6.3C870.5,490,867.7,487.2,864.3,487.2
				L864.3,487.2z"/>
			<path d="M906.2,487.5c-3.5,0-6.2,2.3-6.2,5.7s1.5,6.8,4.9,7.1c3.8,0.4,6.4-2.6,6.2-6.3C911,490.6,909.6,487.5,906.2,487.5z"/>
			<path class="st22" d="M824.6,493.1c0,0-8.2-2.9-9.3-4.1s-9.9-10.6-10-15.7s0.2-11.8,4.6-16s11.7-8.4,14.7-8.9s10.6,2.9,12.1,4.4
				s11.4,11.1,12.1,12S824.5,493.1,824.6,493.1L824.6,493.1z"/>
			<path class="st23" d="M824.7,448.5h-0.1c-3,0.4-10.3,4.7-14.7,8.9s-4.7,11-4.6,16s8.9,14.5,10,15.7s9.3,4,9.3,4l2.8-3.1
				c-0.7-0.3-0.8-0.3-1.8-0.6c-1.1-0.4-2.2-0.9-3.2-1.3c-0.7-0.3-1.4-0.6-2-1.1c-0.3-0.3-1-1.1-2-2.3s-2.2-2.6-3.3-4.1
				c-0.6-0.8-1.2-1.6-1.7-2.4s-1-1.6-1.5-2.5c-0.4-0.7-0.7-1.5-1-2.3c-0.2-0.7-0.4-1.4-0.4-2.1c0-1.3,0-2.6,0-4
				c0.1-1.4,0.3-2.9,0.6-4.3c0.2-0.7,0.3-1.4,0.6-2.1c0.2-0.7,0.5-1.4,0.8-2c0.3-0.7,0.7-1.3,1.1-1.9c0.4-0.6,0.9-1.2,1.5-1.7
				c1.2-1.1,2.4-2.1,3.7-3.1c1.3-1,2.8-1.9,4.2-2.8C823.6,449.1,824.1,448.9,824.7,448.5L824.7,448.5z"/>
			<path d="M849.5,466L849.5,466L849.5,466l-0.1-0.1l-0.4-0.5c-0.5-0.7-1-1.3-1.5-2l0,0c-1.8-2.4-3.5-4.4-5.2-6.1
				c-1.3-1.4-2.6-2.7-3.8-3.8s-2.3-2-3.3-2.8c-1.3-1-2.6-1.8-4-2.5c-1.4-0.7-2.8-1.2-4.3-1.5c-0.4-0.1-0.8-0.1-1.2-0.1
				c-0.7,0-1.4,0.1-2.1,0.2c-0.9,0.2-1.7,0.4-2.5,0.8c-1,0.4-1.9,0.9-2.8,1.5c-1,0.6-1.9,1.3-2.7,2c-1,0.8-1.9,1.6-2.8,2.5
				c-0.8,0.9-1.6,1.7-2.3,2.5c-1,1.2-1.9,2.5-2.8,3.8c-0.3,0.5-0.8,1.2-1.5,2.2c-0.5,0.8-0.9,1.6-1.2,2.4c-0.4,1-0.6,2-0.7,3l0,0
				c-0.1,1-0.2,2-0.2,3c0,1,0.1,2,0.2,3.1l0,0c0.2,1.9,0.6,3.8,1.1,5.6c0.3,0.9,0.5,1.7,0.8,2.4c0.2,0.5,0.5,1.1,0.7,1.6l0,0
				c0.4,0.7,0.9,1.4,1.5,2.1c0.7,0.8,1.5,1.5,2.4,2.1l0,0c1.6,1.2,3.3,2.2,5.1,3c1.7,0.8,3.3,1.5,4.9,2c0.7,0.3,1.5,0.5,2.2,0.7
				c0.3,0.1,0.7,0.2,1.1,0.2c0.2,0,0.1-0.1-0.1-0.3s-0.6-0.4-1-0.6l-1.7-1c-1.3-0.8-2.8-1.7-4.4-2.8c-1.5-1-3-2.2-4.3-3.4
				c-0.6-0.6-1.1-1.1-1.6-1.8c-0.4-0.5-0.8-1.1-1.1-1.8c-0.5-1-0.9-2-1.3-2.9l-0.3-0.7c-0.7-1.6-1.2-3.3-1.7-5.1
				c-0.5-1.8-0.7-3.7-0.7-5.6l0,0c0-0.9,0.1-1.8,0.3-2.7c0.2-0.8,0.5-1.6,0.9-2.3c0.7-1.2,1.5-2.4,2.4-3.5c0.8-1,1.7-1.9,2.7-2.8
				c1.4-1.3,3-2.6,4.6-3.7c1.6-1.1,3.4-2,5.3-2.7c0.8-0.3,1.5-0.4,2.3-0.6c0.7-0.1,1.4-0.1,2.1,0l0,0c1.2,0.2,2.4,0.6,3.6,1.1
				c1,0.4,1.8,0.8,2.4,1.1c0.4,0.2,0.9,0.5,1.4,0.8c1.2,0.7,2.5,1.5,3.6,2.3c1.3,0.9,2.7,2,4,3.1c2,1.7,3.9,3.6,5.7,5.5
				c0.7,0.8,1.3,1.4,1.7,1.8l0.5,0.5l0,0l0.1,0.1l0,0l0,0L849.5,466z"/>
			<path d="M915.6,467.1L915.6,467.1L915.6,467.1l0.1-0.1l0.3-0.5l1.2-1.7c1.4-1.9,2.7-3.6,3.8-5.1c1.6-2.1,3.1-3.9,4.4-5.4
				c0.7-0.7,1.3-1.4,1.8-2c0.3-0.4,0.7-0.7,1.2-1c0.8-0.4,1.6-0.8,2.5-1c0.7-0.2,1.4-0.3,2.2-0.4c0.6,0,1.1,0,1.7,0
				c0.5,0,1,0.1,1.5,0.2s1,0.1,1.6,0.3c1.4,0.3,2.7,0.7,4,1.2c1.5,0.6,3,1.4,4.3,2.4c1.6,1.1,3.2,2,4.5,2.9c0.8,0.5,1.5,1,2.2,1.6
				c0.5,0.4,0.9,0.8,1.3,1.3l0.2,0.3c0.4,0.6,0.8,1.2,1,1.9c0.3,1,0.5,2,0.6,3.1l0,0c0,1.3-0.1,2.7-0.3,4c-0.3,1.4-0.6,2.8-1.1,4.1
				l0,0c-0.3,0.9-0.7,1.7-1.2,2.4c-0.5,0.8-1,1.4-1.4,2c-0.7,0.9-1.3,1.6-1.6,2c-0.9,1.2-1.9,2.3-2.9,3.4c-0.8,0.8-1.7,1.6-2.7,2.3
				c-1,0.8-2,1.5-3.1,2.1c-0.8,0.4-1.7,0.8-2.5,1.1c-0.8,0.3-1.6,0.5-2.4,0.6c-0.7,0.1-1,0.1-1,0.2s0.3,0.2,0.8,0.3
				c0.8,0.1,1.6,0.2,2.4,0.1c1.2-0.1,2.4-0.4,3.5-0.8l0,0c1.2-0.4,2.4-1,3.5-1.6c1.2-0.7,2.3-1.4,3.4-2.3l0,0c1.1-0.8,2.1-1.8,3-2.8
				c0.8-0.9,1.6-1.8,2.2-2.8l0.3-0.5c1-1.6,1.7-3.4,2.1-5.2l0,0c0.3-1.5,0.5-3,0.6-4.6c0.1-1.4,0-2.9-0.2-4.3
				c-0.2-1.1-0.4-2.1-0.8-3.1c-0.3-0.8-0.8-1.6-1.3-2.4c-0.4-0.5-0.8-1.1-1.3-1.5c-0.2-0.3-0.5-0.6-0.9-0.9s-0.8-0.8-1.4-1.2
				s-1.2-1-2-1.5s-1.5-1.1-2.2-1.8l0,0c-1.3-1.1-2.6-2.1-4.1-2.9c-1.5-0.8-3.1-1.5-4.8-1.9l0,0c-1-0.2-1.9-0.4-2.9-0.5
				c-0.9-0.1-1.8-0.1-2.8,0c-0.9,0.1-1.8,0.3-2.6,0.6c-0.7,0.2-1.3,0.5-1.9,0.9c-0.4,0.2-0.7,0.5-1.1,0.7c-0.5,0.4-1,0.9-1.4,1.5
				l0,0c-0.6,0.7-1.1,1.5-1.7,2.3l0,0c-1.3,1.9-2.6,3.9-3.8,5.9s-2.5,4.1-3.3,5.5l-1,1.8l-0.3,0.5l0,0l-0.1,0.1l0,0l0,0L915.6,467.1
				z"/>
			<path class="st26" d="M843.8,473c0,0-5.8,5.2-7.1,7.4s-5.3,6-5.9,6c-0.9-0.1-1.8-0.3-2.7-0.5c0,0-3.6-3.9-4.8-6.4s-4-4.6-2.8-7.4
				s2.5-7.6,5.6-7.8s7.4-0.2,9.1,0.3c1.6,0.5,3,1.2,4.4,2.1C840.4,467.3,845.2,471.9,843.8,473L843.8,473z"/>
			<path class="st27" d="M825.8,464.3c-2.7,0.7-3.8,5-5,7.6c-1.2,2.8,1.6,5,2.8,7.4s4.8,6.4,4.8,6.4c0.9,0.3,1.8,0.5,2.7,0.5
				c0.6-0.4,1.1-0.8,1.6-1.3c-0.4,0-0.9-0.1-1.3-0.2c-0.6-0.1-1.2-0.3-1.2-0.3s-0.9-1-2-2.3c-0.5-0.6-1.1-1.4-1.6-2.1
				c-0.5-0.6-0.9-1.3-1.2-2c-0.3-0.6-0.7-1.3-1.1-1.8c-0.4-0.6-0.8-1.2-1.2-1.8c-0.2-0.3-0.3-0.6-0.5-0.9c-0.1-0.3-0.2-0.6-0.3-0.9
				c-0.1-0.3-0.1-0.7,0-1c0-0.3,0.1-0.7,0.3-1c0.3-0.7,0.6-1.5,1-2.4c0.3-0.9,0.7-1.7,1.1-2.5c0.2-0.4,0.4-0.7,0.7-1.1
				C825.6,464.5,825.8,464.4,825.8,464.3L825.8,464.3z"/>
			<path d="M844,472.9c-1,0.5-2,1.2-2.9,1.8c-0.9,0.6-1.6,1.3-2.3,1.9s-1.6,1.4-2.3,2.1c-0.6,0.6-1.2,1.2-1.7,1.9
				c-0.4,0.6-0.9,1.2-1.5,1.8c-0.4,0.4-0.9,0.9-1.4,1.3c-0.5,0.4-1,0.8-1.6,1.1c-0.5,0.2-0.8,0.4-0.9,0.3c0.3,0,0.4,0,0.4,0l0,0
				l-0.3-0.2l0,0c-0.4-0.3-0.8-0.6-1.2-1c-0.5-0.5-1.1-1-1.7-1.7s-1.2-1.3-1.8-2c-0.7-0.9-1.4-1.7-1.9-2.5c-0.5-0.7-0.9-1.4-1.2-2.1
				c-0.1-0.3-0.3-0.5-0.3-0.7c-0.2-0.5-0.3-1-0.3-1.5c-0.1-0.6,0-1.2,0.2-1.7l0,0c0.4-1,1-1.9,1.8-2.7c0.8-0.8,1.7-1.5,2.7-2
				c0.7-0.4,1.5-0.7,2.3-1c0.7-0.2,1.2-0.4,1.5-0.5c0.6-0.2,1.1-0.4,1.7-0.5c0.4-0.1,0.8-0.1,1.2-0.1c0.5,0,1,0.1,1.5,0.2l0,0
				c1.1,0.2,2.2,0.6,3.2,1c0.9,0.4,1.8,0.8,2.6,1.2l0.4,0.2l0.3,0.2c0.1,0,0.2,0.1,0.2,0.1h0.1l0.4-0.6l0,0l0.1-0.2l0,0l-0.1,0.2
				l-0.3,0.6c0,0,0-0.1,0-0.1c0-0.1-0.1-0.2-0.1-0.2c-0.2-0.3-0.4-0.5-0.6-0.7l0,0c-0.7-0.7-1.5-1.4-2.3-2c-1-0.7-2.1-1.4-3.2-1.9
				c-1.1-0.5-2.4-0.8-3.6-0.8c-0.8,0.1-1.7,0.2-2.5,0.5c-0.7,0.2-1.4,0.4-2,0.8c-0.8,0.4-1.5,0.9-2.2,1.5c-1.1,0.8-2,1.9-2.8,3
				c-0.7,1.1-1.2,2.2-1.5,3.4c-0.2,0.7-0.2,1.5,0,2.3c0.2,0.8,0.4,1.7,0.7,2.5l0.1,0.3c0.2,0.7,0.5,1.4,0.8,2.1c0.5,1,1,2,1.6,3
				c0.9,1.6,2,3.1,3.3,4.5c0.5,0.5,1,1,1.5,1.4c0.2,0.2,0.5,0.3,0.8,0.5l0,0c0.3,0.2,0.7,0.2,1.1,0.2c0.7-0.1,1.4-0.4,2-0.8
				c0.7-0.4,1.3-0.9,1.8-1.5c0.3-0.3,0.6-0.6,0.8-0.9c0.7-0.9,1.3-1.9,1.8-3c0.3-0.7,0.7-1.3,1.2-1.9c0.6-0.8,1.2-1.6,1.8-2.4
				s1.1-1.2,1.6-1.8s1-1,1.5-1.4C843,473.6,843.5,473.2,844,472.9L844,472.9z"/>
			<path class="st26" d="M919.4,472.1c0,0,6,2.5,7.3,4.7s5.6,7.5,6.2,7.6c0.9-0.1,1.8-0.3,2.7-0.5c0,0,3.6-3.9,4.8-6.4
				s2.6-5.2,1.4-8s-2.4-6.7-4.2-7.2c-3-0.6-6.1-0.5-9.1,0.3c-1.6,0.5-3,1.2-4.4,2.1C923.2,465.4,917.9,471.8,919.4,472.1
				L919.4,472.1z"/>
			<path d="M918.7,472L918.7,472l0.2,0.1l0.7,0.3c0.8,0.3,1.6,0.7,2.3,1.1c1.1,0.7,2.2,1.5,3.1,2.5c0.7,0.8,1.3,1.6,1.7,2.6
				c0.5,1.2,1.3,2.3,2.1,3.3c0.6,0.7,1.3,1.4,2.1,2c0.5,0.4,1.2,0.8,1.8,1c0.3,0.1,0.6,0.2,0.9,0.2c0.5,0.1,1,0.1,1.5,0
				c0.6-0.1,1.1-0.5,1.4-0.9c0.1-0.2,0.3-0.4,0.6-0.6s0.6-0.7,1-1.1c0.9-1,1.7-2,2.3-3.2c0.5-0.7,0.8-1.5,1.2-2.3
				c0.3-0.6,0.5-1.3,0.6-2c0.1-0.4,0.1-0.7,0.2-1.1c0-0.3,0.1-0.9,0.2-1.6c0.1-0.9,0.1-1.7,0-2.6c-0.1-1.2-0.5-2.4-1-3.4
				c-0.6-1.1-1.3-2.1-2.2-2.9c-0.7-0.8-1.5-1.4-2.4-1.9c-0.6-0.4-1.2-0.6-1.9-0.8c-1.7-0.4-3.4-0.4-5,0.1c-0.9,0.2-1.7,0.6-2.5,1
				l0,0c-0.8,0.4-1.6,0.9-2.3,1.5c-0.7,0.6-1.3,1.2-1.8,1.9c-0.1,0.2-0.2,0.4-0.3,0.6c0,0.1,0,0.2,0,0.2c0.3-0.1,0.6-0.3,0.9-0.5
				c0.6-0.4,1.2-0.8,1.8-1.1c0.8-0.4,1.7-0.7,2.5-0.9c0.7-0.2,1.4-0.3,2.1-0.4c0.7-0.1,1.3,0,2,0.1c1.1,0.2,2.2,0.6,3.2,1.1
				c0.7,0.3,1.3,0.6,1.9,1c0.8,0.6,1.6,1.3,2.3,2.1c0.6,0.7,1.1,1.6,1.3,2.5c0.2,0.9,0.3,1.8,0.3,2.7c0,0.7-0.2,1.4-0.4,2l0,0
				c-0.2,0.5-0.5,1-0.8,1.5c-0.4,0.7-0.9,1.4-1.5,2.1l0,0c-0.8,0.9-1.6,1.8-2.5,2.5l0,0l-1.1,0.9c-0.3,0.2-0.6,0.5-0.8,0.8l0,0
				c-0.1,0-0.2,0-0.4,0c-0.6-0.2-1.1-0.4-1.6-0.8c-0.8-0.6-1.6-1.2-2.3-1.9c-0.6-0.6-1.2-1.2-1.7-1.9c-0.8-1.1-1.7-2.1-2.8-2.9
				c-1-0.7-2.2-1.4-3.4-1.9c-0.8-0.3-1.7-0.6-2.5-0.8l-0.7-0.2l0,0L918.7,472L918.7,472L918.7,472z"/>
			<path d="M846.8,463.1c2.4-2.4,5.2-4.6,8.1-6.4c3.3-2.1,6.9-3.6,10.6-4.7c1.2-0.3,2.2-0.6,3.1-0.8s1.9-0.5,3.3-0.9s3-0.7,4.6-1
				s3.3-0.5,4.8-0.6s2.9-0.2,3.9-0.2l1.3,0c1.3,0.1,2.6,0.3,3.8,0.6c1.7,0.4,3.8,0.8,5.8,1.4c1.6,0.5,3.1,1,4.5,1.5s2.5,1.1,3.4,1.5
				c0.5,0.2,0.8,0.4,1.1,0.5c0.9,0.4,1.7,0.8,2.5,1.3c1.1,0.6,2.1,1.3,3.2,2.1c1.2,0.9,2.3,1.8,3.3,2.8c1.1,1,2.1,2,2.9,2.9
				c0.5,0.6,0.8,0.7,0.8,0.5c-0.2-0.6-0.4-1.1-0.7-1.6c-1.4-2.3-3-4.5-4.8-6.5c-1-1.1-2.1-2-3.3-2.9c-1.1-0.8-2.3-1.5-3.5-2.1
				c-0.5-0.2-1-0.4-1.5-0.6c-2.4-0.7-4.8-1.2-7.3-1.5c-2.4-0.3-4.6-0.5-6.6-0.7s-3.6-0.3-4.7-0.5h-0.1c-0.8-0.1-2.5-0.3-4.5-0.3
				c-2.4-0.1-4.7,0-7,0.3c-2.4,0.3-4.9,0.8-7.2,1.5c-1.7,0.5-3.4,1.2-5,2c-1.5,0.8-2.9,1.7-4.3,2.7c-1.7,1.2-3.4,2.6-5,4
				c-1.3,1.2-2.6,2.5-3.8,3.8C847.4,462.3,846.9,463.1,846.8,463.1L846.8,463.1z"/>
			<path d="M822.4,493.2c-0.1,1.6-0.3,3.3-0.7,4.9l0,0c-0.4,1.8-0.7,3.5-1,5.1c-0.3,1.7-0.4,3.5-0.4,5.2c0,1.5,0.1,2.8,0.2,3.9
				s0.2,2.1,0.4,2.9c0.1,0.8,0.3,1.6,0.5,2.2l0.1,0.4c0.3,1.1,0.9,3,1.7,5.2s1.8,4.5,2.8,6.5c0.5,1.1,1,2.1,1.5,2.9
				c0.5,0.8,0.9,1.4,1.1,1.8c0.4,0.6,1.1,1.9,2.1,3.4c0.8,1.2,1.7,2.2,2.6,3.3c1,1.1,2.1,2.1,3.2,3.1c1.2,1,2.3,1.9,3.3,2.5
				c0.7,0.5,1.5,1,2.3,1.4l3.4,1.7c1.3,0.6,2.6,1.2,4,1.6c1.4,0.5,2.8,0.8,4.3,1.1l2.8,0.4c0.6,0.1,0.9,0.1,0.9,0l0,0
				c0-0.2-1.5-0.8-3.5-1.6c-1.1-0.5-2.3-1-3.5-1.7c-1.2-0.7-2.4-1.4-3.6-2.2c-1-0.7-1.9-1.3-2.8-1.9s-1.7-1-2.5-1.4
				c-1.2-0.6-2.3-1.2-3.5-1.9c-1.2-0.7-2.4-1.5-3.5-2.4c-1-0.8-2-1.7-2.8-2.7c-1.2-1.3-2.1-2.8-2.9-4.3c-0.3-0.7-0.8-2-1.4-3.7
				c-0.6-1.7-1.2-3.8-1.7-5.9s-1.1-4.4-1.6-6.4c-0.3-1.2-0.5-2.3-0.7-3.3c-0.2-1-0.4-1.8-0.5-2.4c-0.2-0.8-0.5-2-0.6-3.3
				c-0.2-1.4-0.3-2.9-0.3-4.4c0-1.8,0.2-3.6,0.3-5.1s0.2-2.7,0.2-3.6S822.4,493.2,822.4,493.2L822.4,493.2z"/>
			<path d="M936.3,490.4c0.6,1.2,1.1,2.3,1.6,3.4c0.5,1,0.8,2,1.1,2.9c0.3,0.8,0.5,1.6,0.6,2.5c0.1,1.1,0.2,2.2,0.3,3.1
				s0.1,1.7,0.1,2.4c0,2,0,3.3,0,4.5c0,0.6,0.1,1.5,0.1,2.5c0.1,1,0.2,2.2,0.2,3.4c0.1,1.2,0.1,2.4,0.1,3.5s0,2-0.1,2.8
				c0,0.6-0.1,1.2-0.2,1.8c0,0.2-0.1,0.4-0.2,0.7c-0.4,1-0.8,1.9-1.3,2.8c-0.6,1.2-1.3,2.4-2,3.5c-0.6,0.9-1.2,1.7-1.9,2.5
				c-0.6,0.7-1.3,1.3-1.7,1.8c-0.5,0.5-0.7,0.7-0.9,0.9c-0.4,0.5-0.9,0.9-1.4,1.4c-0.6,0.5-1.3,1.1-2.1,1.7s-2,1.3-3,2s-2,1.2-3,1.7
				c-1.1,0.6-0.5,0.7,1,0.4c2.2-0.4,4.2-1.1,6.3-2c1-0.5,2-1,3-1.7c0.9-0.6,1.7-1.2,2.4-2c0.2-0.2,0.4-0.4,0.5-0.7
				c1.1-1.5,2-3.1,2.7-4.8l0,0c0.9-2.3,1.7-4.6,2.3-7c0.2-0.7,0.4-1.3,0.5-1.8s0.2-0.8,0.4-1.5s0.3-1.4,0.4-2.2
				c0.2-1,0.3-2.2,0.4-3.4s0.2-2.5,0.2-3.7c0.1-2.4,0-4.8-0.3-7.1c0-0.3-0.1-0.5-0.1-0.7c-0.3-1.1-0.7-2.9-1.3-4.8
				c-0.3-0.9-0.7-1.8-1.2-2.6c-0.5-1-1.1-1.9-1.6-2.8l-2.1-3.2L936.3,490.4z"/>
			<path class="st28" d="M886.6,528.8c0.7,5.2,1,10.5,1.1,15.8"/>
			<path class="st29" d="M908.4,490.1c-0.8,0-1.3,1.6-1.3,2.5c-0.1,0.8,0.5,1.5,1.3,1.5s1.5-0.5,1.5-1.3c0-0.1,0-0.2,0-0.2
				C910,491.7,909.2,490.1,908.4,490.1z"/>
			<path class="st29" d="M866.6,490.6c-0.8,0-1.1,1.5-1.1,2.4c0,0.8,0.6,1.4,1.4,1.4c0.8,0,1.4-0.6,1.4-1.4c0,0,0,0,0,0
				C868.3,492.2,867.4,490.6,866.6,490.6z"/>
			<path d="M886.5,512.8c-5.5,0-12.6,4.9-9.9,9c2,3,5.8,8.6,9.9,9c4.3,0.4,7.1-5.7,9.9-9C899.6,518,892,512.8,886.5,512.8z"/>
			<path class="st29" d="M891,514.9c-1.2,0-2.3,0-2.3,1.2s1.1,1.1,2.3,1.1s4,2.3,4,1.1S892.2,514.9,891,514.9L891,514.9z"/>
			<path d="M811.5,461.6L811.5,461.6L811.5,461.6h-0.2h-0.2l0,0c-0.1,0-0.2,0-0.3,0c-0.3-0.1-0.5-0.1-0.8-0.3
				c-0.5-0.3-1-0.7-1.5-1.2c-0.2-0.2-0.3-0.4-0.5-0.5s-0.5-0.6-0.7-0.9c-0.3-0.3-0.5-0.7-0.7-1.1c-0.1-0.2-0.2-0.3-0.3-0.5
				c-0.1-0.2-0.1-0.4-0.1-0.6c0-0.2,0.1-0.4,0.2-0.5c0.2-0.2,0.4-0.3,0.7-0.4c0.3-0.1,0.7-0.1,1.1-0.1c0.4,0.1,0.8,0.2,1.2,0.4l0,0
				c0.6,0.3,1.1,0.7,1.5,1.1c0.2,0.3,0.5,0.6,0.6,0.9c0.4,0.7,0.7,1.4,0.7,2.2c0,0.3-0.1,0.6-0.2,0.9c-0.1,0.1-0.1,0.2-0.2,0.3l0,0
				l-0.1,0.1h-0.1h-0.1L811.5,461.6z"/>
			<path d="M809.2,465.4c-0.2,0.4-0.7,0.7-1.4,0.7c-0.9,0-1.8-0.1-2.6-0.4l0,0l-0.8-0.1c-0.8-0.1-1.7-0.4-2.4-0.7
				c-0.3-0.1-0.5-0.2-0.7-0.4c-0.2-0.1-0.3-0.2-0.5-0.4c-0.1-0.1-0.2-0.2-0.3-0.4c-0.1-0.1-0.2-0.3-0.2-0.4c0-0.2,0-0.3,0.1-0.5
				c0.1-0.2,0.3-0.3,0.4-0.4c0.2-0.1,0.5-0.3,0.8-0.3c0.3-0.1,0.6-0.1,0.9-0.2c1-0.1,2-0.1,2.9,0.1l0.8,0.2l0,0
				c0.9,0.4,1.7,0.9,2.5,1.6C809.1,464.5,809.4,465,809.2,465.4L809.2,465.4z"/>
			<path d="M934.5,451.8c-0.5-0.1-1-0.5-1.1-1c-0.3-0.6-0.4-1.3-0.5-2l0,0c0-0.1,0-0.2,0-0.3c0-0.7,0-1.4,0.2-2.1
				c0.1-0.3,0.2-0.6,0.4-0.9c0.1-0.2,0.3-0.4,0.6-0.5c0.3-0.1,0.5-0.1,0.8,0c0.3,0.1,0.6,0.3,0.8,0.6c0.3,0.3,0.5,0.7,0.7,1.1
				c0.2,0.5,0.3,1,0.3,1.6c0,0.1,0,0.3,0,0.4l0,0c0,0.8-0.3,1.7-0.8,2.3C935.6,451.5,935.1,451.8,934.5,451.8L934.5,451.8z"/>
			<path d="M939.6,452.3c-0.4-0.2-0.6-0.8-0.6-1.6c0.1-0.9,0.3-1.9,0.6-2.7c0.1-0.2,0.2-0.5,0.3-0.7c0.4-1,0.9-2,1.5-2.8
				c0.2-0.3,0.5-0.6,0.8-0.8c0.2-0.2,0.5-0.3,0.8-0.3c0.3,0.1,0.5,0.2,0.7,0.5c0.2,0.4,0.3,0.8,0.4,1.2c0.1,0.6,0.1,1.1,0,1.7
				c-0.1,0.7-0.3,1.3-0.5,2c-0.1,0.3-0.2,0.5-0.4,0.8l0,0c-0.4,0.9-1.1,1.7-1.8,2.4C940.6,452.3,940,452.5,939.6,452.3L939.6,452.3z
				"/>
			<path class="st24" d="M867.5,522.7c-0.8,0-1.4,0.7-1.4,1.5c0,0.8,0.6,1.1,1.4,1.1s1.5-0.3,1.5-1.1
				C868.9,523.4,868.3,522.8,867.5,522.7z"/>
			<path class="st24" d="M862.7,529.2c-1.2,0-2.2,1.1-2.2,2.3c0,0,0,0,0,0c0,1.3,0.9,1.7,2.1,1.7s2.3-0.4,2.3-1.7
				C864.9,530.3,863.9,529.2,862.7,529.2C862.7,529.2,862.7,529.2,862.7,529.2L862.7,529.2z"/>
			<path class="st24" d="M871.6,530.6c-1.2,0-1.8,0.5-1.8,1.8c0,1.3,0.7,1.6,1.9,1.6s1.7-0.6,1.7-1.8S872.8,530.6,871.6,530.6
				L871.6,530.6z"/>
			<path class="st24" d="M903.7,528.2c-0.7,0-1.2,0.6-1.2,1.3c0,0.7,0.2,1,0.9,1s1.3-0.2,1.3-1S904.4,528.2,903.7,528.2L903.7,528.2
				z"/>
			<path class="st24" d="M911.3,524.4c-1.2,0-1.8,1.1-1.8,2.4s0.5,1.6,1.7,1.6s2.3-0.4,2.3-1.7C913.5,525.4,912.5,524.4,911.3,524.4
				C911.3,524.4,911.3,524.4,911.3,524.4L911.3,524.4z"/>
			<path class="st24" d="M908.9,532.8c-0.9,0-1.6,0.8-1.6,1.7c0,0,0,0,0,0c-0.1,0.8,0.5,1.5,1.3,1.5c0.1,0,0.1,0,0.2,0
				c0.7,0.1,1.4-0.5,1.4-1.2c0-0.1,0-0.2,0-0.3C910.2,533.7,909.8,532.8,908.9,532.8L908.9,532.8z"/>
			<path d="M856.9,459.2L856.9,459.2h-0.2h-0.2c-0.1,0-0.3,0-0.4-0.1c-0.3-0.1-0.6-0.3-0.8-0.6c-0.7-0.7-1.3-1.4-1.8-2.2
				c-0.2-0.4-0.5-0.7-0.7-1.1c-0.4-0.6-0.7-1.3-0.9-1.8l0,0c-0.3-0.7-0.6-1.4-0.7-2.1c-0.2-0.4-0.1-0.9,0.2-1.3
				c0.3-0.3,0.8-0.3,1.4,0c0.8,0.4,1.5,0.9,2,1.6l0,0c0.5,0.6,0.9,1.2,1.3,1.9c0.2,0.4,0.4,0.8,0.6,1.3c0.4,0.9,0.6,1.9,0.7,2.9
				c0,0.3,0,0.7-0.1,1l0,0c0,0.1-0.1,0.2-0.2,0.3l-0.1,0.1H857h-0.1L856.9,459.2z"/>
			<path d="M862.1,456.1c-0.8,0.1-1.7-0.9-2.2-2.4l0,0c-0.2-0.4-0.3-0.7-0.4-1.1c-0.1-0.4-0.3-0.9-0.4-1.3c-0.1-0.4-0.1-0.8-0.2-1.1
				c0-0.3,0-0.7,0-1c0-0.3,0.2-0.5,0.4-0.7c0.2-0.2,0.5-0.3,0.8-0.2c0.4,0.1,0.7,0.2,1.1,0.5c0.4,0.3,0.8,0.7,1.1,1.1
				c0.6,0.9,1,2,1.2,3.1l0,0C863.4,454.6,862.9,455.9,862.1,456.1L862.1,456.1z"/>
			<path d="M881.3,499.9c0.6-0.1,1.1-0.1,1.7-0.1c0.8,0,1.5,0,2-0.1h0.2c0.4-0.1,0.9-0.2,1.3-0.2c0.5-0.1,1-0.1,1.6,0
				c0.2,0,0.2,0,0.1-0.1c-0.2-0.2-0.5-0.3-0.8-0.4c-0.4-0.1-0.8-0.2-1.3-0.3c-0.4,0-0.8,0-1.3,0l-0.3,0.1c-0.7,0.2-1.4,0.4-2,0.5
				c-0.5,0.1-1,0.2-1.5,0.3c-0.3,0-0.5,0.1-0.5,0.2S880.8,500.1,881.3,499.9L881.3,499.9z"/>
			<path d="M882.5,495.9c0.4,0,0.8,0,1.2,0.1c0.4,0.1,0.8,0.1,1.2,0.1l0,0c0.6-0.1,1.2-0.1,1.9-0.1c0.3,0,0-0.2-0.4-0.4
				c-0.5-0.2-1-0.4-1.5-0.5c-0.1,0-0.3,0-0.4,0l-1.3,0.3c-0.3,0.1-0.7,0.2-1,0.2c-0.2,0-0.3,0.1-0.3,0.2S882.1,496,882.5,495.9
				L882.5,495.9z"/>
			<path d="M885,498.7c0-1.4,0-4.5,0.1-8.3c0.1-3.2,0.2-6.8,0.3-10.2c0.1-1.3,0.1-2.6,0.2-3.7c0-0.4,0.1-0.9,0.1-1.3
				c0-0.2,0.1-0.5,0.1-0.7c0.1-0.5,0.2-1.1,0.2-1.6l0,0c0.1-1.1,0.1-1.9,0.1-2.6c0-0.1,0-0.1,0-0.2c0-1.5,0-3.8-0.1-6.5
				c-0.1-2.1-0.2-4.5-0.5-6.9c-0.1-0.9-0.2-1.8-0.4-2.7c-0.1-0.6-0.3-1.3-0.6-1.9c-0.5-1.1-1-2.2-1.7-3.2c-0.1-0.2-0.3-0.5-0.5-0.7
				c-0.2-0.2-0.4-0.4-0.6-0.5c-0.1-0.1-0.3-0.2-0.5-0.2c-0.1,0-0.2,0-0.2,0l0,0c0.2,0.1,0.5,0.2,0.7,0.4c0.2,0.1,0.3,0.3,0.4,0.5
				c0.2,0.2,0.3,0.5,0.4,0.7c0.2,0.4,0.5,0.9,0.7,1.5s0.5,1.2,0.8,1.8c0.2,0.6,0.4,1.2,0.5,1.8c0.1,0.9,0.2,1.8,0.3,2.7
				c0.2,2.2,0.2,4.5,0.2,6.8s0,4.6-0.1,6.7l0,0c0,0.9-0.1,1.7-0.1,2.5c0,0.4-0.1,0.9-0.1,1.2c0,0.1,0,0.2-0.1,0.3l0,0
				c-0.1,0.3-0.1,0.6-0.1,0.8l0,0c0,0.4-0.1,0.9-0.1,1.3l0,0c0,1.3-0.1,2.5-0.1,3.8c0,3.5,0,7,0,10.2c0,4,0,7.4,0,9.7
				c0,0.2,0,0.4,0,0.6c0,1,0,1.9,0,2.5c0,0.4,0,0.7,0.1,0.9c0,0.1,0,0.2,0,0.2v0.1l0,0l0,0l0,0v-0.1c0-0.1,0-0.2,0-0.2
				c0-0.2,0-0.5,0.1-0.9c0-0.7,0-1.7,0-3.1c0-0.4,0-0.9,0-1.4L885,498.7z"/>
			<path class="st30" d="M886.6,544c-2,0.1-3.6,1.8-3.5,3.8c0,2.1,1.8,2.2,3.7,2.2s3.4-0.1,3.4-2.2
				C890.3,545.8,888.7,544.1,886.6,544L886.6,544z"/>
			<path class="st28" d="M864.1,488.1c0,0-4.2,0.4-5.5-2.2"/>
			<path class="st28" d="M906.2,488.4c0,0,4.2,0.4,5.5-2.2"/>
			<path d="M836.5,623c0.6-0.7,1.8-0.6,3,0.1c0.2,0.1,0.3,0.2,0.5,0.3c0.3,0.3,0.6,0.6,0.9,0.9c0.3,0.3,0.4,0.7,0.5,1.1
				c0.1,0.4,0.1,0.7-0.1,1.1c-0.2,0.4-0.5,0.6-0.9,0.7c-0.5,0.1-1,0-1.5-0.1c-0.5-0.2-0.9-0.4-1.3-0.7c-0.2-0.1-0.3-0.3-0.5-0.4
				C836.3,625,835.9,623.8,836.5,623L836.5,623z"/>
			<path d="M839.5,618.5c0.4-0.4,1-0.6,1.5-0.5c0.8,0.1,1.6,0.4,2.3,0.8l0.1,0.1c0.5,0.3,1,0.7,1.4,1.2c0.2,0.1,0.3,0.3,0.4,0.5
				c0.2,0.3,0.3,0.7,0.4,1c0,0.2,0,0.3,0,0.5c0,0.2-0.1,0.3-0.2,0.4c-0.1,0.1-0.3,0.3-0.5,0.3c-0.2,0.1-0.5,0.1-0.7,0.1
				c-0.3,0-0.5,0-0.8,0c-0.7-0.1-1.4-0.4-2-0.8l-0.1-0.1c-0.7-0.5-1.4-1.1-1.8-1.9C839.2,619.6,839.2,619,839.5,618.5L839.5,618.5z"
				/>
			<path d="M887.7,636.8c0.2-0.5,0.3-1.2,0.5-2.1c0.2-1,0.4-2.1,0.5-3.2c0.1-1.4,0.3-2.9,0.5-4.6l0,0c0.3-3.1,0.5-6.5,0.6-10l0,0
				c0-1.3,0-2.6-0.1-3.8c-0.1-1.8-0.2-3.5-0.3-5.2c-0.4-5.1-0.8-9.4-1.1-11.3l-0.1-0.9c-0.3-2.7-0.8-6.7-1.5-11.1l0,0
				c-0.2-1.3-0.4-2.5-0.6-3.8l0,0c-0.1-0.4-0.1-0.8-0.2-1.3c0-0.2-0.1-0.5-0.2-0.7v-0.3l0,0c0-0.4,0-0.7,0-1.1c0-1.5,0-3-0.1-4.5
				c0-2.2-0.2-4.4-0.4-6.6c0-0.3-0.1-0.6-0.1-0.8c-0.1-0.5-0.1-0.8-0.2-1.1s-0.1-0.4-0.1-0.5v-0.1l0,0c0,0,0,0.1,0,0.2
				s0,0.3,0.1,0.5c0,0.5,0.1,1.1,0.2,2c0.2,2.2,0.3,4.4,0.2,6.6c0,1.4-0.1,2.9-0.1,4.5c0,0.4,0,0.7,0,1.1c0,0.1,0,0.2,0,0.3v0.1
				c0.1,0.2,0.1,0.5,0.1,0.7c0.1,0.4,0.1,0.8,0.2,1.3c0.2,1.3,0.3,2.5,0.5,3.8c0.5,3.8,0.9,7.7,1.3,11.1c0.3,2.4,0.5,4.6,0.7,6.5
				s0.4,3.8,0.6,5.7c0.2,1.7,0.3,3.4,0.4,5.1l0,0c0.1,1.3,0.2,2.5,0.2,3.8c0,3.5-0.1,6.9-0.3,10l0,0c-0.1,1.6-0.3,3.2-0.4,4.6
				c-0.1,1.5-0.4,3-0.8,4.5c-0.3,1.1-0.7,2.3-1.1,3.4l-0.4,0.9c-2.4,4.7-2.4,5.4,0.3,0.1C887,639.2,887.5,638,887.7,636.8
				L887.7,636.8z"/>
			<path d="M888.7,580.1c-0.6,0.1-1.1,0.1-1.7,0.1c-0.8,0-1.5,0-2,0.1h-0.2c-0.4,0.1-0.8,0.2-1.3,0.2c-0.5,0.1-1,0.1-1.6,0
				c-0.2,0-0.2,0-0.1,0.1c0.2,0.2,0.5,0.3,0.8,0.4c0.4,0.1,0.8,0.2,1.3,0.3c0.4,0,0.8,0,1.3,0l0.3-0.1c0.7-0.2,1.4-0.4,2-0.5
				c0.5-0.1,1-0.2,1.5-0.3c0.3,0,0.5-0.1,0.5-0.2S889.2,580,888.7,580.1L888.7,580.1z"/>
			<path d="M887.5,577.1c-0.4,0-0.8,0-1.2-0.1c-0.4-0.1-0.8-0.1-1.2-0.1l0,0c-0.6,0.1-1.2,0.1-1.9,0.1c-0.3,0,0,0.2,0.4,0.4
				c0.5,0.2,1,0.4,1.5,0.5c0.1,0,0.3,0,0.4,0l1.3-0.3c0.3-0.1,0.7-0.2,1-0.2c0.2,0,0.3-0.1,0.3-0.2S887.9,577,887.5,577.1
				L887.5,577.1z"/>
			<path class="st22" d="M939.6,621.6c16.9,0,31.1,12.4,31.1,28.9s-13.7,29.9-30.6,29.9c-12.6,0-24.9-3.5-29.5-14.1
				c-1.6-3.6-2.5-11.9-1.9-16.6C911.1,633.3,922.8,621.6,939.6,621.6L939.6,621.6z"/>
			<path class="st26" d="M929.5,674.2c4,2.5,10.1,2.3,15.5,0.2c8.2-3.3,12.7-11.4,10-18.2s-10.8-12-19-8.7s-13.4,13.8-10.7,20.5
				C926.3,670.4,927.5,672.9,929.5,674.2L929.5,674.2z"/>
			<path d="M929.5,674.3c1.4,0.8,2.9,1.5,4.5,1.8c1.4,0.3,2.9,0.5,4.3,0.5c1.3,0,2.6-0.2,3.8-0.4c1.1-0.2,2.2-0.5,3.2-0.9l0,0
				c1.3-0.5,2.6-1.1,3.8-1.9c1-0.6,1.9-1.3,2.8-2.1c0.7-0.6,1.4-1.3,2-2.1c0.5-0.6,1-1.3,1.4-1.9c0.5-0.7,0.8-1.5,1.1-2.3
				c0.5-1.3,0.7-2.6,0.7-3.9c0-0.9,0-1.7-0.2-2.6c-0.2-0.9-0.4-1.9-0.8-2.7c-0.5-1-1-2-1.7-2.9c-1.2-1.7-2.7-3.1-4.5-4.2
				c-0.7-0.4-1.4-0.8-2.2-1.2l0,0c-0.6-0.3-1.3-0.5-2-0.7c-1.3-0.4-2.6-0.7-4-0.8c-1-0.1-2-0.1-3,0c-1.1,0.1-2.3,0.3-3.3,0.7
				c-1.4,0.5-2.7,1.1-3.9,1.9c-2.1,1.4-4,3.2-5.4,5.3c-0.4,0.6-0.8,1.3-1.2,2v0.1c-0.4,0.9-0.7,1.8-1,2.7c-0.4,1.2-0.6,2.5-0.7,3.8
				c-0.1,1-0.1,2,0,3.1c0.2,2.3,1.2,4.4,2.8,6c0.7,0.8,1.6,1.5,2.5,2.1c0.3,0.2,0.6,0.4,1,0.5l0,0l0,0c-0.1-0.1-0.3-0.3-0.6-0.5
				c-0.4-0.4-0.8-0.7-1.2-1.2c-0.5-0.6-0.9-1.2-1.3-1.8c-0.4-0.8-0.7-1.6-0.9-2.5c-0.2-0.8-0.3-1.7-0.3-2.6c0-0.9,0.1-1.8,0.3-2.7
				c0.5-1.9,1.2-3.7,2.1-5.4c0.5-1,1-1.8,1.5-2.5c0.8-1.4,1.8-2.6,2.9-3.7c1.1-1.1,2.4-2,3.9-2.7c1-0.5,2.1-0.8,3.2-1
				c1-0.2,2-0.2,3.1-0.2c0.9,0.1,1.8,0.2,2.6,0.5c0.7,0.2,1.3,0.4,1.9,0.8l0.3,0.2c0.5,0.3,1.1,0.6,1.5,1c1.5,1.1,2.7,2.5,3.7,4.1
				c0.6,0.9,1.1,1.9,1.4,3c0.5,1.6,0.7,3.3,0.4,4.9c-0.3,1.6-0.8,3.1-1.6,4.4c-0.9,1.5-1.9,2.8-3.1,4.1c-0.6,0.7-1.3,1.3-2,1.8
				c-0.9,0.7-1.9,1.4-3,1.9c-1.6,0.8-3.3,1.4-5,1.8c-1.7,0.3-3.4,0.4-5.1,0.3c-1.3-0.1-2.6-0.4-3.8-0.8c-0.5-0.2-0.8-0.3-1.1-0.4
				L929.5,674.3L929.5,674.3z"/>
			<path class="st25" d="M939.6,621.6c-10.2,0-18.4,4.3-23.9,11.3c0.5-0.6,1.1-1.2,1.7-1.7s1.3-1.2,2.1-1.8s1.5-1.1,2.2-1.6
				s1.6-0.9,2.4-1.4s1.7-0.8,2.5-1.1s1.8-0.6,2.7-0.9s1.9-0.5,2.8-0.7s2-0.3,3-0.4s2-0.1,3.1-0.1s2.1,0,3.1,0.1s2,0.2,3,0.4
				s2,0.4,3,0.7s1.9,0.6,2.8,1s1.8,0.8,2.7,1.2s1.7,0.9,2.6,1.4s1.6,1,2.4,1.6s1.5,1.2,2.2,1.8s1.4,1.3,2,2s1.3,1.5,1.8,2.2
				c0.6,0.8,1.1,1.6,1.6,2.4c0.5,0.8,0.9,1.7,1.3,2.5c0.8,1.8,1.4,3.6,1.8,5.5c0.2,1,0.4,2,0.5,2.9c0.1,1,0.2,2,0.2,3
				c0,1,0,2-0.2,3.1c-0.3,3-1.1,5.9-2.3,8.6c-0.4,0.9-0.8,1.8-1.3,2.6s-1,1.7-1.5,2.5c-0.3,0.5-0.7,0.9-1,1.4
				c4.9-5.4,7.6-12.3,7.6-19.6C970.8,634,956.5,621.6,939.6,621.6L939.6,621.6z"/>
			<path class="st23" d="M914,635.7c-2.6,4.3-4.2,9-4.9,13.9c-0.7,4.7,0.3,13,1.9,16.6c4.7,10.7,16.9,14.1,29.5,14.1
				c11.8,0.1,22.6-6.7,27.7-17.4c-0.3,0.4-0.5,0.9-0.8,1.3c-0.5,0.8-1.1,1.6-1.8,2.3s-1.3,1.4-2,2.1s-1.4,1.3-2.2,1.9
				s-1.5,1.2-2.4,1.7s-1.7,1-2.5,1.5s-1.8,0.9-2.7,1.3s-1.9,0.7-2.8,1s-1.9,0.5-2.9,0.7s-2,0.3-3,0.5s-2.1,0.2-3.1,0.2
				c-1.6,0-3.2,0-4.7-0.2s-3.1-0.3-4.6-0.5c-1.5-0.2-2.9-0.6-4.4-1c-1.4-0.4-2.8-0.9-4.1-1.4c-1.3-0.5-2.5-1.2-3.7-1.9
				c-0.6-0.4-1.1-0.8-1.7-1.2s-1.1-0.8-1.6-1.3c-0.5-0.5-1-0.9-1.4-1.4c-0.9-1-1.7-2.1-2.4-3.3c-0.4-0.6-0.7-1.3-1-1.9
				c-0.5-1.1-0.8-2.3-1-3.5c-0.3-1.5-0.5-2.9-0.7-4.4c-0.2-1.6-0.3-3.2-0.3-4.6c0-1.4,0-2.7,0.2-4c0.2-1,0.3-2,0.5-3s0.5-2,0.8-2.9
				s0.6-1.9,1-2.8S913.6,636.5,914,635.7L914,635.7z"/>
			<path d="M940.2,621.5c2.2,0,4.4,0.2,6.5,0.7c2,0.4,3.9,1.1,5.7,1.9c3.2,1.4,6.2,3.4,8.7,5.9l0,0c1.7,1.6,3.1,3.5,4.4,5.5
				c1,1.7,1.9,3.6,2.6,5.5c0.6,1.6,1,3.3,1.2,5c0.2,1.5,0.3,3,0.2,4.5l0,0c0,1.4-0.2,2.8-0.4,4.2c-0.2,1.2-0.5,2.3-0.8,3.4
				c-0.6,1.8-1.3,3.6-2.3,5.3c-0.6,1.1-1.3,2.2-2,3.3c-2,2.9-4.5,5.4-7.5,7.4c-1.6,1.1-3.3,2.1-5.2,2.8c-1.8,0.8-3.7,1.4-5.6,1.8
				c-1.8,0.4-3.7,0.6-5.6,0.7c-2.2,0.1-4.4,0-6.6-0.2c-1.9-0.2-3.4-0.4-4.4-0.5c-0.9-0.2-1.8-0.4-2.7-0.6c-1.3-0.4-2.6-0.8-3.8-1.4
				c-2.5-1.1-4.7-2.5-6.7-4.4c-1.9-1.8-3.4-4.1-4.4-6.5c-0.4-1.1-0.7-2.2-0.9-3.3c-0.3-1.4-0.5-2.9-0.6-4.3c-0.1-1.5-0.2-3-0.2-4.5
				c0-1.3,0.1-2.6,0.3-3.9c0.2-1.4,0.5-2.8,0.9-4.1c0.3-1.2,0.6-2.1,0.8-2.8c0.7-2.1,1.5-4.1,2.6-6c1.4-2.6,3.2-4.9,5.3-7
				c1.2-1.3,2.6-2.4,4-3.4c1.5-1,3-1.9,4.6-2.6c1.6-0.7,3.2-1.3,4.8-1.7c1.5-0.4,3.1-0.7,4.7-0.8c1.3-0.1,2-0.1,2.1-0.2l0,0l0,0
				c-0.7-0.1-1.5-0.1-2.3-0.1c-1.7,0-3.5,0.2-5.2,0.5c-2.4,0.5-4.8,1.2-7.1,2.2c-2.7,1.2-5.1,2.7-7.4,4.5c-1.6,1.4-3.1,3-4.4,4.7
				c-1.3,1.7-2.4,3.5-3.3,5.3c-0.9,1.8-1.6,3.6-2.2,5.5c-0.5,1.6-0.8,3.3-1.1,5c0,0.2,0,0.5-0.1,0.7c-0.3,3-0.1,6,0.4,9
				c0.2,1.5,0.5,3,0.9,4.5l0,0c0.3,1.2,0.7,2.4,1.2,3.6c1.3,2.6,3,4.9,5.2,6.8l0,0c2.2,1.8,4.6,3.3,7.3,4.3c1.8,0.7,3.7,1.3,5.6,1.7
				c1.7,0.4,3.2,0.7,4.5,0.8c0.8,0.1,1.9,0.3,3.2,0.4s2.9,0.2,4.6,0.3c1.8,0,3.6-0.1,5.3-0.3c4.2-0.6,8.2-2,11.9-4.2
				c1.9-1.1,3.7-2.5,5.4-4c1.7-1.6,3.2-3.4,4.5-5.4c1.2-1.9,2.2-3.9,3-5.9c0.7-1.9,1.2-3.8,1.5-5.7c0.3-1.6,0.4-3.3,0.4-4.9
				c0-0.8-0.1-1.5-0.2-2.2c-0.2-1.4-0.4-2.9-0.8-4.3c-1-3.7-2.7-7.2-4.9-10.2c-1.2-1.7-2.7-3.3-4.2-4.7c-2.2-2-4.7-3.6-7.4-4.8
				c-2.3-1.1-4.7-1.8-7.2-2.3c-1.7-0.3-3.5-0.5-5.2-0.5C940.9,621.5,940.2,621.5,940.2,621.5L940.2,621.5z"/>
			<path class="st31" d="M929.3,627.8c-1.5,1.5-1.6,4-1.2,6.5c0.6,3.9,3.2,6.6,6.4,6c3.6-0.6,6-4,5.5-7.6c-0.6-3.9-4.6-7-7.8-6.5
				C931.1,626.4,930.1,627,929.3,627.8L929.3,627.8z"/>
			<path class="st31" d="M948.3,627.9c-1.8,0.6-2.9,2.5-3.6,4.7c-1.1,3.3-0.2,6.5,2.6,7.3c3.1,0.9,6.4-0.8,7.4-3.8
				c1.1-3.3-0.8-7.4-3.5-8.3C950.2,627.5,949.2,627.5,948.3,627.9L948.3,627.9z"/>
			<path class="st31" d="M960.7,637.7c-1.6,0.4-2.6,2-3.3,3.8c-1.1,2.8-0.5,5.6,1.8,6.5c2.6,1,5.5-0.3,6.6-2.9
				c1.1-2.8-0.3-6.4-2.6-7.3C962.4,637.5,961.5,637.5,960.7,637.7L960.7,637.7z"/>
			<path class="st22" d="M840.3,629.8c-16.9,0-30.6,13.4-30.6,29.9s13.7,29.8,30.6,29.8c12.6,0,24.9-3.5,29.5-14.1
				c1.6-3.6,2.4-14.6,1.5-18.8C868.2,640.4,857.2,629.7,840.3,629.8L840.3,629.8z"/>
			<path class="st26" d="M851.8,682.7c-4,2.5-9.7,3-15,0.8c-8.2-3.3-12.7-11.4-10-18.2s10.8-12,19-8.7s13.4,13.8,10.7,20.5
				C855.5,679.5,853.9,681.4,851.8,682.7L851.8,682.7z"/>
			<path class="st23" d="M816.6,640.8c-4.4,5.3-6.8,11.9-6.8,18.8c0,16.5,13.7,29.9,30.6,29.9c11.7,0,23-3,28.4-11.9l-0.1,0.1
				c-0.5,0.5-0.9,1-1.4,1.4c-0.5,0.5-1,0.9-1.6,1.3s-1.1,0.8-1.7,1.2c-1.2,0.7-2.4,1.4-3.7,1.9c-1.3,0.6-2.7,1-4.1,1.4
				c-1.4,0.4-2.9,0.7-4.4,1c-1.5,0.3-3,0.4-4.6,0.5s-3.1,0.2-4.7,0.2c-1.1,0-2.1,0-3.1-0.2s-2-0.3-3-0.5s-2-0.5-2.9-0.7
				s-1.9-0.6-2.8-1s-1.8-0.8-2.7-1.3s-1.7-1-2.5-1.5s-1.6-1.1-2.4-1.7s-1.5-1.3-2.2-1.9s-1.3-1.4-2-2.1s-1.2-1.5-1.8-2.3
				s-1-1.6-1.5-2.5s-0.9-1.7-1.3-2.6c-1.2-2.7-1.9-5.6-2.3-8.6c-0.2-2-0.2-4.1,0-6.1c0.3-3,1.1-5.9,2.3-8.6c0.4-0.9,0.8-1.8,1.3-2.6
				C815.9,641.9,816.3,641.4,816.6,640.8L816.6,640.8z"/>
			<path d="M840.3,628.8c-2.3,0-4.6,0.3-6.9,0.8c-2.1,0.5-4.1,1.1-6.1,2c-3.4,1.5-6.6,3.6-9.3,6.2l0,0c-1.8,1.7-3.4,3.7-4.7,5.8
				c-1.2,1.8-2.1,3.8-2.9,5.9c-0.7,1.7-1.1,3.6-1.5,5.4c-0.3,1.6-0.5,3.2-0.5,4.8l0,0c0,1.5,0.1,3.1,0.3,4.6
				c0.2,1.3,0.4,2.6,0.8,3.8c0.5,2.1,1.3,4.1,2.3,6c0.6,1.3,1.4,2.5,2.2,3.6c1.1,1.5,2.3,2.9,3.7,4.2c1.5,1.4,3.1,2.6,4.8,3.6
				c3.6,2.3,7.7,3.8,11.9,4.5c2,0.3,4,0.5,6,0.4c2.3,0,4.6-0.2,6.8-0.5c2-0.3,3.5-0.6,4.5-0.8c0.7-0.2,1.6-0.4,2.7-0.7
				c1.3-0.4,2.6-0.8,3.9-1.3c2.7-1,5.1-2.5,7.3-4.3c2.2-1.9,4-4.3,5.2-6.9c0.6-1.3,1-2.7,1.2-4.1c0.4-1.8,0.6-3.7,0.8-5.4
				c0.2-1.9,0.3-3.8,0.3-5.5l0,0c0-1.5-0.1-3-0.3-4.5c-0.3-1.9-0.8-3.7-1.5-5.5c-0.9-2.4-1.9-4.7-3.2-6.8c-1.7-2.9-3.9-5.6-6.4-7.8
				c-1.4-1.1-2.9-2.1-4.4-3c-1.6-0.9-3.2-1.6-4.9-2.2c-1.6-0.6-3.3-1-5-1.3c-1.6-0.3-3.2-0.4-4.8-0.5c-0.7,0-1.2,0-1.6,0
				c-0.2,0-0.5,0-0.7,0l0,0l0,0c0.2,0,1,0.1,2.2,0.2c1.6,0.2,3.2,0.6,4.8,1c2.2,0.6,4.4,1.5,6.4,2.6c2.4,1.3,4.5,2.9,6.4,4.8
				c1.4,1.4,2.6,2.8,3.6,4.5c1,1.6,2,3.3,2.7,5c1.4,3.1,2.4,6.3,3.2,9.7c0.1,0.4,0.2,0.7,0.2,1.1c0.1,0.9,0.2,1.8,0.2,2.8
				c0.1,1.7,0.1,3.5,0,5.3s-0.2,3.5-0.4,5.2c-0.1,1.3-0.4,2.5-0.8,3.7c-1,2.5-2.5,4.7-4.4,6.6l0,0c-2,1.9-4.2,3.4-6.7,4.5
				c-1.7,0.8-3.5,1.4-5.4,1.8c-1.4,0.4-2.9,0.6-4.3,0.8c-0.8,0.1-1.9,0.2-3.2,0.2s-2.9,0.1-4.7,0c-1.7,0-3.4-0.2-5.1-0.6
				c-3.9-0.8-7.6-2.3-10.9-4.5c-1.7-1.1-3.4-2.5-4.8-4c-1.5-1.6-2.9-3.3-4-5.1c-2-3.3-3.4-6.9-4-10.7c-0.2-1.5-0.4-3-0.4-4.4
				c0-0.7,0-1.3,0-1.9c0-1.3,0.2-2.7,0.4-4c0.3-1.7,0.7-3.3,1.3-4.9c0.6-1.8,1.5-3.6,2.5-5.2c1-1.8,2.3-3.4,3.7-4.9
				c2-2.2,4.3-4,6.9-5.5c2.2-1.3,4.6-2.3,7.1-3.1c1.8-0.5,3.6-0.9,5.4-1.1C839.5,628.9,840.3,628.8,840.3,628.8L840.3,628.8z"/>
			<path d="M851.3,681.9c-1.2,0.8-2.6,1.3-4,1.7c-1.3,0.3-2.6,0.4-3.9,0.4c-1.2,0-2.3-0.2-3.5-0.4c-1-0.2-2-0.5-2.9-0.9
				c-1.2-0.5-2.3-1.1-3.3-1.9c-0.8-0.6-1.6-1.3-2.3-2c-0.6-0.6-1.1-1.2-1.5-1.9c-0.4-0.6-0.7-1.1-1-1.7c-0.3-0.6-0.5-1.3-0.8-1.9
				c-0.3-1-0.6-2-0.7-3.1c-0.1-1.4,0-2.8,0.5-4.2c0.3-0.9,0.7-1.8,1.2-2.6c0.5-0.8,1-1.6,1.7-2.3c0.6-0.7,1.2-1.3,1.9-1.8
				c0.6-0.5,1.2-0.9,1.8-1.3c0.5-0.3,1.1-0.6,1.7-0.8c0.5-0.2,0.9-0.3,1.4-0.4c0.7-0.1,1.5-0.2,2.2-0.2c0.9,0,1.8,0.1,2.7,0.2
				c1,0.2,1.9,0.5,2.8,0.9c1.1,0.5,2.2,1.2,3.2,2c0.9,0.8,1.8,1.6,2.5,2.5c0.6,0.8,1.2,1.6,1.7,2.4c0.5,0.7,0.8,1.3,1,1.8v0.1
				c0.4,0.7,0.8,1.5,1.1,2.2c0.4,1,0.7,2.1,0.8,3.1c0.1,0.8,0.2,1.7,0.1,2.5c0,0.9-0.2,1.7-0.5,2.5c-0.3,1-0.7,1.9-1.3,2.7
				c-0.5,0.8-1.1,1.5-1.8,2.1c-0.4,0.4-0.7,0.6-0.7,0.7l0,0l0,0c0.2-0.1,0.4-0.2,0.7-0.3c0.5-0.3,0.9-0.5,1.3-0.8
				c0.6-0.5,1.2-1,1.7-1.5c0.7-0.7,1.2-1.4,1.7-2.2c0.5-0.9,0.8-1.8,1-2.8c0.2-1,0.3-2.1,0.3-3.2c0-1.2-0.2-2.3-0.5-3.5
				c-0.3-1.1-0.7-2.1-1.2-3.1c-0.5-1-1.1-2-1.8-2.9c-1.2-1.4-2.5-2.6-4-3.7c-1.5-1-3.1-1.8-4.8-2.4c-1.2-0.4-2.4-0.6-3.6-0.7
				c-1.1-0.1-2.2,0-3.3,0.2c-0.9,0.1-1.8,0.4-2.7,0.6c-0.8,0.3-1.5,0.5-2,0.8l-0.3,0.2c-2.5,1.1-4.6,2.8-6.3,4.9
				c-0.8,1-1.4,2-1.9,3.2c-0.4,0.9-0.7,1.9-0.8,2.9c-0.2,1-0.2,2-0.1,3c0.1,1.9,0.7,3.8,1.6,5.5c0.6,1,1.2,2,2,2.8
				c0.6,0.7,1.2,1.3,1.9,1.8c0.8,0.6,1.7,1.2,2.6,1.6c1.1,0.6,2.3,1.1,3.6,1.4c1.8,0.5,3.6,0.8,5.5,0.8c1.7,0,3.4-0.2,5-0.7
				c1.1-0.3,2.2-0.8,3.3-1.5C850.5,682.4,850.8,682.1,851.3,681.9L851.3,681.9z"/>
			<path class="st31" d="M851.5,636.7c1.6,1.3,2,3.6,1.9,6.1c-0.1,3.8-2.2,6.6-5.3,6.5c-3.5-0.2-6.2-3.1-6.1-6.6
				c0.1-3.8,3.5-7.2,6.6-7.1C849.7,635.6,850.7,636,851.5,636.7L851.5,636.7z"/>
			<path class="st31" d="M833.5,637c1.8,0.6,2.9,2.5,3.6,4.7c1.1,3.3,0.2,6.5-2.6,7.3c-3.1,0.9-6.4-0.8-7.4-3.8
				c-1.1-3.3,0.8-7.4,3.5-8.3C831.6,636.7,832.6,636.7,833.5,637L833.5,637z"/>
			<path class="st31" d="M820.6,646.6c1.7,0.3,2.9,1.8,3.8,3.7c1.4,2.8,0.9,5.7-1.4,6.8c-2.6,1.2-5.7,0.1-7-2.5
				c-1.4-2.8-0.2-6.6,2.1-7.8C818.9,646.6,819.8,646.5,820.6,646.6L820.6,646.6z"/>
			<path d="M826.7,626l0.2-0.1h0.2c0.1,0,0.2,0,0.3,0c0.3,0,0.5,0.1,0.7,0.2c0.5,0.3,1,0.7,1.3,1.1c0.1,0.2,0.2,0.3,0.3,0.5
				c0.2,0.4,0.4,0.8,0.5,1.2c0.1,0.4,0.1,0.8,0,1.3c-0.1,0.4-0.2,0.7-0.5,1c-0.3,0.3-0.7,0.4-1.1,0.3c-0.5-0.1-0.9-0.4-1.3-0.7
				c-0.4-0.3-0.7-0.7-0.9-1.1c-0.1-0.2-0.2-0.4-0.3-0.6c-0.2-0.6-0.3-1.2-0.3-1.8c0-0.3,0.1-0.5,0.3-0.7c0.1-0.1,0.1-0.2,0.2-0.3
				l0.1-0.1l0.2-0.1L826.7,626z"/>
			<path class="st27" d="M886.5,630.1L886.5,630.1l0.5,0.5l0.6,0.5l0.5,0.5c0.1,0.1,0.2,0.2,0.3,0.3c0.1,0.1,0.1,0.2,0.2,0.3
				l0.2,0.3c0.1,0.2,0.2,0.3,0.4,0.5c0.4,0.3,0.8,0.7,1.1,1.1c0.1,0.1,0.1,0.1,0.1,0c0-0.1,0-0.2,0-0.4c-0.1-0.5-0.3-0.9-0.6-1.3
				c-0.1-0.1-0.1-0.3-0.2-0.5c-0.1-0.2-0.2-0.4-0.4-0.6l0,0c-0.1-0.1-0.3-0.2-0.4-0.2l-0.7-0.4c-0.4-0.2-0.8-0.4-1.2-0.7
				c-0.1-0.1-0.2-0.1-0.2-0.2c0-0.1-0.1-0.1-0.2-0.1c0,0-0.1,0-0.2,0c0,0-0.1,0-0.1,0c0,0,0,0.1,0,0.1c0,0.1,0,0.1,0.1,0.1
				C886.3,629.8,886.4,629.9,886.5,630.1L886.5,630.1z"/>
			<path d="M886.6,629.8L886.6,629.8c0.5,0.5,0.9,0.9,1.2,1.3c0.3,0.4,0.6,0.7,0.9,1c0.1,0.1,0.3,0.3,0.6,0.5s0.4,0.4,0.6,0.6
				c0.2,0.2,0.3,0.4,0.5,0.6c0.1,0.1,0.1,0.1,0.1,0.1c0-0.1,0-0.3,0-0.4c0-0.2-0.1-0.5-0.2-0.7c-0.1-0.3-0.2-0.5-0.4-0.8
				c-0.2-0.4-0.5-0.7-0.8-0.9l-0.8-0.5c-0.6-0.4-1.1-0.7-1.4-1c-0.1-0.1-0.2-0.1-0.2-0.2c0-0.1-0.1-0.1-0.2-0.1c0,0-0.1,0-0.2,0
				h-0.1c0,0-0.1,0-0.1,0.1c0,0,0,0,0,0.1c0,0.1,0,0.1,0.1,0.1C886.4,629.7,886.5,629.8,886.6,629.8L886.6,629.8z"/>
			<path d="M886.6,633.6L886.6,633.6c0.2-0.2,0.8-0.6,1.3-1c0.4-0.3,0.8-0.6,1.1-0.9c0.1-0.2,0.4-0.5,0.7-0.9s0.5-0.8,0.7-1.2
				c0.1-0.2,0-0.2-0.1-0.1c-0.2,0.1-0.5,0.3-0.7,0.5c-0.3,0.2-0.6,0.4-0.9,0.7c-0.3,0.2-0.5,0.4-0.7,0.7l-0.5,0.8
				c-0.3,0.5-0.6,0.9-1,1.3l-0.2,0.2c-0.1,0-0.1,0.1-0.2,0.2c0,0-0.1,0.1-0.1,0.1c0,0,0,0,0,0.1c0,0,0,0.1,0.1,0.1h0
				c0,0,0.1,0,0.1,0C886.4,633.9,886.5,633.8,886.6,633.6L886.6,633.6z"/>
		</g>
	</g>
</g>
</svg>
