<?xml version="1.0" encoding="utf-8"?>
<!-- Generator: Adobe Illustrator 20.0.0, SVG Export Plug-In . SVG Version: 6.00 Build 0)  -->
<svg version="1.1"
	 id="svg16054" inkscape:version="0.91 r13725" sodipodi:docname="quiz1.svg" xmlns:cc="http://creativecommons.org/ns#" xmlns:dc="http://purl.org/dc/elements/1.1/" xmlns:inkscape="http://www.inkscape.org/namespaces/inkscape" xmlns:rdf="http://www.w3.org/1999/02/22-rdf-syntax-ns#" xmlns:sodipodi="http://sodipodi.sourceforge.net/DTD/sodipodi-0.dtd" xmlns:svg="http://www.w3.org/2000/svg"
	 xmlns="http://www.w3.org/2000/svg" xmlns:xlink="http://www.w3.org/1999/xlink" x="0px" y="0px" viewBox="0 0 1700.8 949.6"
	 style="enable-background:new 0 0 1700.8 949.6;" xml:space="preserve">
<style type="text/css">
	.st0{fill:#FFFFFF;}
	.st1{fill:#094B60;stroke:#000000;}
	.st2{fill:url(#SVGID_1_);stroke:#000000;}
	.st3{fill:#0C566E;stroke:#000000;}
	.st4{fill:#0B536B;stroke:#000000;}
	.st5{fill:url(#SVGID_2_);stroke:#000000;}
	.st6{fill:url(#SVGID_3_);stroke:#000000;}
	.st7{fill:url(#SVGID_4_);stroke:#000000;}
	.st8{fill:#089BC7;stroke:#000000;}
	.st9{fill:url(#SVGID_5_);stroke:#000000;}
	.st10{fill:url(#SVGID_6_);stroke:#000000;}
	.st11{fill:url(#SVGID_7_);stroke:#000000;}
	.st12{fill:url(#SVGID_8_);stroke:#000000;}
	.st13{fill:none;stroke:#000000;}
	.st14{fill:url(#SVGID_9_);stroke:#000000;stroke-width:1.02;}
	.st15{fill:url(#SVGID_10_);stroke:#000000;}
	.st16{fill:#094F65;}
	.st17{fill:#089BC7;stroke:#000000;stroke-width:1.02;}
	.st18{fill:url(#SVGID_11_);}
	.st19{fill:#A06121;}
	.st20{fill:#6E4A25;}
	.st21{fill:#956C45;stroke:#000000;stroke-width:3;}
	.st22{fill:#B8854F;}
	.st23{fill:#834317;}
	.st24{fill:#5D381E;}
	.st25{fill:none;stroke:#000000;stroke-width:5;}
	.st26{fill:#DDCEBE;}
	.st27{stroke:#000000;stroke-width:5;}
	.st28{fill:#834317;stroke:#000000;stroke-width:3;}
</style>
<defs>
	
	<inkscape:path-effect  effect="spiro" id="path-effect5341" is_visible="true"></inkscape:path-effect>
	<inkscape:path-effect  effect="spiro" id="path-effect17606" is_visible="true"></inkscape:path-effect>
	<inkscape:path-effect  effect="spiro" id="path-effect16830" is_visible="true"></inkscape:path-effect>
	<inkscape:path-effect  effect="spiro" id="path-effect16826" is_visible="true"></inkscape:path-effect>
	<inkscape:path-effect  effect="spiro" id="path-effect16822" is_visible="true"></inkscape:path-effect>
	<inkscape:path-effect  effect="spiro" id="path-effect16818" is_visible="true"></inkscape:path-effect>
	<inkscape:path-effect  effect="spiro" id="path-effect16814" is_visible="true"></inkscape:path-effect>
	<inkscape:path-effect  effect="spiro" id="path-effect16810" is_visible="true"></inkscape:path-effect>
	<inkscape:path-effect  effect="spiro" id="path-effect16806" is_visible="true"></inkscape:path-effect>
	<inkscape:path-effect  effect="spiro" id="path-effect16802" is_visible="true"></inkscape:path-effect>
	<inkscape:path-effect  effect="spiro" id="path-effect16798" is_visible="true"></inkscape:path-effect>
	<inkscape:path-effect  effect="spiro" id="path-effect16794" is_visible="true"></inkscape:path-effect>
	<inkscape:path-effect  effect="spiro" id="path-effect16790" is_visible="true"></inkscape:path-effect>
	<inkscape:path-effect  effect="spiro" id="path-effect16786" is_visible="true"></inkscape:path-effect>
	<inkscape:path-effect  effect="spiro" id="path-effect16782" is_visible="true"></inkscape:path-effect>
	<inkscape:path-effect  effect="spiro" id="path-effect16778" is_visible="true"></inkscape:path-effect>
	<inkscape:path-effect  effect="spiro" id="path-effect16774" is_visible="true"></inkscape:path-effect>
</defs>
<sodipodi:namedview  bordercolor="#666666" borderlayer="true" borderopacity="1.0" fit-margin-bottom="0" fit-margin-left="0" fit-margin-right="0" fit-margin-top="0" id="base" inkscape:current-layer="layer3" inkscape:cx="701.87495" inkscape:cy="334.05534" inkscape:document-units="cm" inkscape:pageopacity="0.0" inkscape:pageshadow="2" inkscape:window-height="1056" inkscape:window-maximized="1" inkscape:window-width="1855" inkscape:window-x="1985" inkscape:window-y="24" inkscape:zoom="0.35" pagecolor="#ffffff" showgrid="false" units="cm">
	</sodipodi:namedview>
<g id="layer2" inkscape:groupmode="layer" inkscape:label="background">
	<rect id="rect4177" y="-3.5" class="st0" width="1716.6" height="953.1"/>
</g>
<g>
	<g id="layer1">
		
			<image style="overflow:visible;opacity:0.75;enable-background:new    ;" width="309" height="503" xlink:href="FE19E90D.png"  transform="matrix(0.9968 0 0 0.998 695 223)">
		</image>
		<g id="g4378">
			<polygon class="st1" points="818.2,513.6 922.4,523.2 923.8,531.4 817.7,521.8 			"/>
			
				<linearGradient id="SVGID_1_" gradientUnits="userSpaceOnUse" x1="1297.2297" y1="773.6818" x2="1324.9598" y2="776.9118" gradientTransform="matrix(1 0 0 1 -600.88 -192.22)">
				<stop  offset="0" style="stop-color:#114F5F"/>
				<stop  offset="0.49" style="stop-color:#1FB3D8"/>
				<stop  offset="1" style="stop-color:#0A3A47"/>
			</linearGradient>
			<polyline class="st2" points="707.2,683.5 696.5,679.7 705.5,581 717.3,484 730.5,484.6 727.4,548.4 719.8,609 711,681.6 			"/>
			<polygon class="st3" points="795,633.7 805.1,635.5 813.3,568.6 817.7,523.8 818.3,493.5 805.1,493.5 799.4,561.7 796.8,614.1 
							"/>
			<polygon class="st4" points="922.2,481 919.1,486.8 928.9,572.1 936.3,616.5 943.6,652.4 954.4,653.3 953.5,641.3 945.9,576.1 
				936.5,516.3 929.8,481 			"/>
			
				<linearGradient id="SVGID_2_" gradientUnits="userSpaceOnUse" x1="1400.3461" y1="796.7095" x2="1402.6261" y2="777.3195" gradientTransform="matrix(1 0 0 1 -600.88 -192.22)">
				<stop  offset="0" style="stop-color:#114F5F"/>
				<stop  offset="0.49" style="stop-color:#1FB3D8"/>
				<stop  offset="1" style="stop-color:#0A3A47"/>
			</linearGradient>
			<path class="st5" d="M724,580.3c0,0-4.6,2-4.9,4.7c-0.4,3.1,2.7,4.9,2.7,4.9l159.8,19.4l-0.2-10l-123.2-14.1L724,580.3z"/>
			
				<linearGradient id="SVGID_3_" gradientUnits="userSpaceOnUse" x1="1401.1271" y1="748.0097" x2="1403.317" y2="725.3697" gradientTransform="matrix(1 0 0 1 -600.88 -192.22)">
				<stop  offset="0" style="stop-color:#114F5F"/>
				<stop  offset="0.49" style="stop-color:#1FB3D8"/>
				<stop  offset="1" style="stop-color:#0A3A47"/>
			</linearGradient>
			<path class="st6" d="M729.1,529.4c0,0-5.1,1.1-5.1,5.1c-0.1,2.2,1.3,4.3,3.3,5.1l151.4,15.2l-0.5-10L730,529.7L729.1,529.4z"/>
			<polygon class="st4" points="814.6,558 928.9,570.7 930.5,579.2 813.7,566 			"/>
			
				<linearGradient id="SVGID_4_" gradientUnits="userSpaceOnUse" x1="1478.0701" y1="792.9606" x2="1505.3401" y2="791.0206" gradientTransform="matrix(1 0 0 1 -600.88 -192.22)">
				<stop  offset="0" style="stop-color:#114F5F"/>
				<stop  offset="0.49" style="stop-color:#1FB3D8"/>
				<stop  offset="1" style="stop-color:#0A3A47"/>
			</linearGradient>
			<polygon class="st7" points="904.2,705 892.2,706.3 881.8,617 877.7,531.4 877.7,494.1 888.4,494.1 894.7,531.4 899.1,593.9 
				902.9,667.8 			"/>
			<path class="st8" d="M810.1,250.5c0,0,62.1,4.9,75.3,5.8c13.2,0.8,80.6-0.4,80.6-0.4l-6,34.6c0,0-67.3,0.6-75.3,0
				s-75.5-6.2-75.5-6.2l-0.6-34.1L810.1,250.5z"/>
			<path class="st8" d="M708.5,466v16.1c5.1,1.8,10.4,3.1,15.8,4.1c6.6,1,86.8,10.7,90,10.7s48.6,0.6,53,0.6s24.3-1.6,28.1-1.6
				s49.3-16.7,49.3-16.7l0.3-4.1l-0.7-12.7l-4.1-1.6l-115.5-8.2l-12.3-1l-20.5,0.6l-52.4,7l-26.8,4.7L708.5,466z"/>
			
				<linearGradient id="SVGID_5_" gradientUnits="userSpaceOnUse" x1="1434.7001" y1="562.9386" x2="1446.62" y2="563.2586" gradientTransform="matrix(1 0 0 1 -600.88 -192.22)">
				<stop  offset="0" style="stop-color:#114F5F"/>
				<stop  offset="0.49" style="stop-color:#1FB3D8"/>
				<stop  offset="1" style="stop-color:#0A3A47"/>
			</linearGradient>
			<path class="st9" d="M834.2,454.1c0,0,1.2-76.5,1.2-88.9s3.8-79.4,3.8-79.4l4.9,0.5c0,0-1.2,82.5-1.2,97.4s-2,71.1-2,71.1
				c-1,0.5-2.2,0.8-3.3,0.9C836.3,455.4,835.2,454.9,834.2,454.1L834.2,454.1z"/>
			
				<linearGradient id="SVGID_6_" gradientUnits="userSpaceOnUse" x1="1458.8206" y1="565.0436" x2="1474.5405" y2="566.3336" gradientTransform="matrix(1 0 0 1 -600.88 -192.22)">
				<stop  offset="0" style="stop-color:#114F5F"/>
				<stop  offset="0.49" style="stop-color:#1FB3D8"/>
				<stop  offset="1" style="stop-color:#0A3A47"/>
			</linearGradient>
			<path class="st10" d="M856,456.2c0,0,3.7-63,5.3-77.8s8.8-89.6,8.8-89.6l5,0.5l-0.3,3.5c0,0-4.5,87.2-6.6,111.1
				s-4.9,53.5-4.9,53.5c-1.4,0.4-2.8,0.6-4.3,0.5C858,457.5,856.9,456.9,856,456.2L856,456.2z"/>
			
				<linearGradient id="SVGID_7_" gradientUnits="userSpaceOnUse" x1="1486.7266" y1="566.0388" x2="1500.0966" y2="567.6487" gradientTransform="matrix(1 0 0 1 -600.88 -192.22)">
				<stop  offset="0" style="stop-color:#114F5F"/>
				<stop  offset="0.49" style="stop-color:#1FB3D8"/>
				<stop  offset="1" style="stop-color:#0A3A47"/>
			</linearGradient>
			<path class="st11" d="M882.5,459.5c-2.4-0.5-3-1.5-3-1.5s5.7-55.3,6.9-65.9S900,289.8,900,289.8l4.4,0.2c0,0-8.9,89.7-11.4,112.3
				s-6.5,56.4-6.5,56.4C885.4,459.5,883.9,459.8,882.5,459.5L882.5,459.5z"/>
			
				<linearGradient id="SVGID_8_" gradientUnits="userSpaceOnUse" x1="1514.0667" y1="566.8834" x2="1527.4366" y2="568.7934" gradientTransform="matrix(1 0 0 1 -600.88 -192.22)">
				<stop  offset="0" style="stop-color:#114F5F"/>
				<stop  offset="0.49" style="stop-color:#1FB3D8"/>
				<stop  offset="1" style="stop-color:#0A3A47"/>
			</linearGradient>
			<path class="st12" d="M906.6,461.9c-1.1-0.6-2.1-1.3-3.1-2.1c0,0,7.2-53,9.3-64.1s17-106.2,17-106.2l4.3-0.1
				c0,0-12.8,101.7-14.8,119.8s-7.7,52.1-7.7,52.1S908.1,462.6,906.6,461.9L906.6,461.9z"/>
			<path class="st13" d="M708.8,466.3c0,0,27.2,8.2,36.3,8.2s79.2,6.6,84.6,6.6s59.7,0.3,59.7,0.3s7-0.6,12-1s39.8-13.2,41.7-14.8
				s1.2-2.9,1.2-2.9"/>
			
				<linearGradient id="SVGID_9_" gradientUnits="userSpaceOnUse" x1="1547.0992" y1="537.0133" x2="1563.5592" y2="540.6733" gradientTransform="matrix(1 0 0 1 -600.88 -192.22)">
				<stop  offset="0" style="stop-color:#06485C"/>
				<stop  offset="0.47" style="stop-color:#089BC7"/>
				<stop  offset="1" style="stop-color:#046480"/>
			</linearGradient>
			<path class="st14" d="M927.3,461.7c0,0,11.8-71.6,12-73s2.7-6.1,2.7-6.1c-0.8-1.4-1.2-2.9-1.1-4.5c0.2-1.4,1.1-2.6,2.3-3.2
				c0,0-2.1-6-0.9-10.5s13.8-55.9,14.3-58.6c0.5-2.7-0.4-6.9-0.2-8.3c0.1-0.8,0.8-1.4,1.6-1.5c0,0-1.4-2-1.2-3.3s2-2.3,2-2.3
				s1.7-12.1,2.7-18.1c1.1-6,4.8-18.4,4.8-18.4s-1.3-1-0.1-4.3s2.4-5.4,2.8-6.3s-0.7-3.4-0.7-3.4s-3.3-13,9.7-10.6
				c13.2,2.5,1.9,13.1,1.4,14.1c-1.9,3.6,1.6,3.7,0.9,9.6c-0.3,2.1-2.6,3.9-2.6,3.9l-1.7,18.3l-4.7,18c0,0,1.3,0.2,1,2.3
				c-0.2,1.1-0.7,2.2-1.5,3c0.1,1.1,0,2.2-0.3,3.3c-0.4,1.4-2.7,1.1-3,2.9s-9.5,62.7-10.1,64.9s-3.9,7.3-3.9,7.3
				c1.2,0.8,1.7,2.3,1.4,3.7c-0.3,1.6-1.1,3.1-2.3,4.2c0,0-1.5,17.6-2.2,21l-12.6,57.7c0,0-3.9,1-5.6,0.7S927.3,461.7,927.3,461.7
				L927.3,461.7z"/>
			
				<linearGradient id="SVGID_10_" gradientUnits="userSpaceOnUse" x1="1395.451" y1="531.6083" x2="1414.8611" y2="532.2582" gradientTransform="matrix(1 0 0 1 -600.88 -192.22)">
				<stop  offset="0" style="stop-color:#06485C"/>
				<stop  offset="0.47" style="stop-color:#089BC7"/>
				<stop  offset="1" style="stop-color:#046480"/>
			</linearGradient>
			<path class="st15" d="M796,454.2c0,0,0.3-71.9,0.3-73.2s1.8-6.7,1.8-6.7s-2.7-1.3-2.2-3.6s3.1-4,3.1-4s-4.5-4.5-4-8.9
				s4.5-54,4.5-56.7c0-2.7-2.2-5.8-2.2-7.1s1.8-4,1.8-4s-2.2-1.9-2.2-3.1s1.9-2.4,1.9-2.4l0.8-35.5c0,0-2.7-0.7-2-4s3.8-6.3,4-7.1
				s-2.5-2-2.5-2s-6.9-13.2,6.5-12.1s4.8,12.3,4.5,13.4c-1.2,3.8,1.6,2.9,1.9,8.6c0.1,2-1.9,4.1-1.9,4.1v35.5c0,0,2.4,0.6,2.4,2.6
				c0,1.2-0.8,2.2-1.9,2.5c0.7,0.9,1.2,2,1.3,3.2c0,1.3-2.2,2-2.2,3.8s1.6,60.3,1.3,62.5s-2.7,7.6-2.7,7.6s2.5,1.6,2.5,4
				c-0.1,1.5-0.9,3-2.2,3.8c0,0,1.8,16.8,1.7,20.1c-0.3,7.4-3.3,58.7-3.3,58.7s-3.5,1.8-5.4,1.9S796,454.1,796,454.2L796,454.2z"/>
			<path class="st16" d="M809.9,282.8c0,0,66.3,6.4,76.1,6.4s72.9-0.5,72.9-0.5l-0.7,1.6c0,0-66.8,0.9-74.1,0.5
				c-7.3-0.5-74.3-6.2-74.3-6.2V282.8z"/>
			<path class="st17" d="M969.1,240.8c3.6-0.5,7.2,0.1,10.5,1.7"/>
			<path class="st17" d="M966.2,253.3c0,0,8.3-0.5,12.1,2.8"/>
			<path class="st17" d="M958,295.7c0,0,5.4-1.3,12.5,2.2"/>
			<path class="st17" d="M956.8,301.5c0,0,7.3-2,11.8,1.7"/>
			<path class="st17" d="M943.6,374.7c0,0,8.1-0.4,10.9,1.9"/>
			<path class="st17" d="M942.3,382.4c0,0,6.1-0.3,10.7,2.5"/>
			<path class="st8" d="M801.1,237c0,0,3.2-1.5,8.5,0.1"/>
			<path class="st8" d="M799.3,248.7c0,0,6.8-2,11,0.4"/>
			<path class="st8" d="M799.1,289.6c0,0,4.2-1.7,11.8,0.4"/>
			<path class="st8" d="M797.9,295.1c0,0,7.7-2.4,12.8,0.2"/>
			<path class="st8" d="M798.9,366.6c0,0,5.8-1.2,8.9,0.5"/>
			<path class="st8" d="M798.1,374.3c0,0,5.9-1.5,10.9,0.3"/>
			
				<linearGradient id="SVGID_11_" gradientUnits="userSpaceOnUse" x1="1535.8584" y1="666.7051" x2="1443.3884" y2="696.4551" gradientTransform="matrix(1 0 0 1 -600.88 -192.22)">
				<stop  offset="0" style="stop-color:#06627E"/>
				<stop  offset="1" style="stop-color:#089BC7;stop-opacity:0"/>
			</linearGradient>
			<path class="st18" d="M885.2,481.7l0.7,14.1l11.1-0.4l24.6-8.2l22.8-8.3l0.3-6.4l-0.5-7.1l-18.9,7.8c0,0-19.3,6.8-25.1,7.7
				C895.1,481.6,890.2,481.9,885.2,481.7L885.2,481.7z"/>
		</g>
	</g>
	
		<image style="overflow:visible;opacity:0.75;enable-background:new    ;" width="168" height="219" xlink:href="FE19E90F.png"  transform="matrix(0.994 0 0 0.9954 760.99 315.99)">
	</image>
	<path class="st19" d="M847.8,403.2c10.8,15.5,14.5,30.2,11.4,42.3c-3.9,15.2-20,22.2-36.6,22.7c-18.8,0.5-29.9-11-33.3-18
		c-4.1-8.6-7.6-29.9,10.9-47.3"/>
	<path class="st20" d="M799.9,413.2L799.9,413.2c-17.8,14.4-12.1,31.4-8.1,38.5c3.2,5.8,11.5,16.4,29.4,15.9
		c11.6-0.3,23-3.8,29.7-10.5l-0.2,0.2c-0.7,0.5-1.4,1-2.1,1.4s-1.5,0.9-2.3,1.3s-1.6,0.8-2.4,1.1s-1.7,0.7-2.5,1s-1.8,0.6-2.7,0.8
		s-1.8,0.5-2.8,0.7s-1.9,0.4-2.8,0.6s-1.9,0.3-2.9,0.4s-1.9,0.2-2.9,0.3s-2,0.1-3,0.1s-2.2,0-3.3,0s-2.1-0.1-3.1-0.3s-2-0.3-2.9-0.5
		s-1.9-0.4-2.8-0.6s-1.8-0.5-2.6-0.8s-1.6-0.6-2.4-0.9s-1.5-0.7-2.2-1s-1.4-0.8-2.1-1.1s-1.3-0.8-1.9-1.2s-1.2-0.8-1.7-1.3
		s-1.1-0.9-1.6-1.3s-1-0.9-1.4-1.3s-0.8-0.9-1.2-1.3s-0.7-0.9-1-1.3c-0.6-0.7-1.1-1.5-1.5-2.4c-0.2-0.4-0.5-0.9-0.7-1.5
		s-0.5-1.1-0.7-1.7s-0.4-1.2-0.6-1.9s-0.3-1.4-0.5-2.1s-0.3-1.5-0.4-2.2s-0.2-1.6-0.2-2.4s0-1.6,0-2.5s0.1-1.7,0.2-2.6
		s0.3-1.8,0.5-2.7s0.5-1.8,0.8-2.8s0.7-1.9,1.1-2.8s0.9-1.9,1.4-2.8s1.1-1.9,1.8-2.8s1.4-1.9,2.2-2.8s1.7-1.9,2.6-2.8L799.9,413.2
		L799.9,413.2z"/>
	<path class="st21" d="M824.5,429c-7.4,1.1-10.8,6.9-12.5,15c-2,9.2,6,18.7,14.3,20.5c8.2,1.9,16.4-3.1,18.3-11.2
		c0.1-0.2,0.1-0.5,0.2-0.8c2-9.2-1.3-22.6-9.2-23.7C834.5,428.6,825.5,428.8,824.5,429L824.5,429z"/>
	<path d="M836.4,389.4c2.9,3.2,5.6,6.3,7.8,9.3c2.1,2.7,4.1,5.6,5.9,8.6c2.9,4.6,5.2,9.6,6.9,14.7c0.8,2.5,1.4,5,1.8,7.6
		c0.3,2,0.5,4.1,0.5,6.2c0,1.7-0.1,3.3-0.3,5c-0.2,1.3-0.5,2.7-0.8,4c-0.1,0.4-0.2,0.9-0.4,1.3c-0.4,1.3-0.9,2.6-1.5,3.8
		c-0.8,1.6-1.8,3.1-2.9,4.5c-1.1,1.4-2.3,2.6-3.6,3.7c-1.4,1.2-2.9,2.3-4.5,3.3c-1.7,1-3.4,1.9-5.2,2.6c-1.7,0.7-3.5,1.3-5.4,1.8
		l0,0c-2.2,0.6-4.5,1.1-6.8,1.4c-2,0.3-3.8,0.4-5.1,0.5h-1.2c-1.5,0-3-0.1-4.5-0.3c-2.3-0.3-4.5-0.8-6.7-1.5
		c-6.3-2.1-11.9-5.9-16.1-11c-0.8-0.9-1.5-1.9-2.1-2.9c-0.6-0.9-1.2-1.9-1.6-2.9c-0.7-1.5-1.2-3-1.7-4.6c-0.4-1.4-0.7-2.7-0.9-3.8
		c-0.1-0.7-0.2-1.3-0.3-1.8c-0.2-1.4-0.4-2.8-0.5-4.3c-0.1-1.8-0.1-3.7,0.1-5.5c0.2-2.2,0.5-4.4,1.1-6.5c0.6-2.3,1.4-4.5,2.4-6.7
		c1-2.3,2.3-4.4,3.7-6.4c1.3-1.9,2.8-3.6,4.4-5.3l1.3-1.3c0.3-0.3,0.3-0.4,0.3-0.4c-0.7,0.4-1.3,0.9-1.9,1.5
		c-3.6,3.3-6.6,7.2-8.9,11.5l0,0c-1.1,2.1-2,4.2-2.7,6.5c-0.7,2.3-1.2,4.7-1.5,7.1c-0.2,2.1-0.3,4.2-0.2,6.3c0.1,2,0.3,3.9,0.7,5.8
		c0.3,1.7,0.8,3.4,1.3,5.1c0.4,1.3,1,2.5,1.6,3.7c1.1,2.2,2.6,4.2,4.2,6l0,0c4.6,5.1,10.5,8.8,17.1,10.7l0,0c2.3,0.7,4.6,1.1,7,1.4
		c1.9,0.2,3.8,0.3,5.8,0.2c0.8,0,1.6,0,2.2-0.1c1,0,2.4-0.1,4-0.4c2-0.2,4-0.6,5.9-1.1c1.8-0.4,3.6-1,5.4-1.6c2-0.7,3.8-1.6,5.7-2.6
		l0,0c1.6-0.9,3.2-2,4.7-3.1c1.5-1.2,2.9-2.5,4.1-4c1.3-1.5,2.4-3.2,3.3-4.9c0.9-1.7,1.5-3.5,2-5.3c0.8-2.9,1.1-6,1.1-9
		c0-2.3-0.3-4.5-0.7-6.7c-0.2-1-0.5-2.3-0.9-3.6s-0.8-2.8-1.4-4.3c-0.7-1.8-1.5-3.7-2.4-5.6s-1.9-3.8-3-5.7s-2.3-3.7-3.5-5.5
		s-2.5-3.4-3.7-5c-2.5-3.1-4.8-5.7-6.5-7.5S836.4,389.4,836.4,389.4L836.4,389.4z"/>
	<path class="st19" d="M787.6,465.5c-0.4-7.4,0.5-17.1,9.5-17.2c7.2-0.1,14.3,6.4,15.8,14.1"/>
	<path class="st19" d="M873.9,457.3c0,0-3.4-10.1-6.7-13.4c-0.9-0.9-4.4-3.5-7.5-2.8c-8.1,2-12.6,10.9-14.8,17.9
		c-0.3,1-1.7,4.9-0.5,7.6"/>
	<path class="st20" d="M845.4,464.9c-1.3-2.7,1.2-6.3,1.4-7.3c0.4-1.3,1.8-3.5,1.5-5c-1,2-2.7,4.7-3.3,6.7c-0.3,1-1.7,4.9-0.5,7.6
		C855,465.6,850.7,463.5,845.4,464.9L845.4,464.9z"/>
	<path d="M787.7,465.7c-0.2-1.9-0.1-3.8,0.1-5.7l0,0c0.1-1.1,0.3-2.1,0.7-3.2c0.2-0.7,0.5-1.5,0.8-2.2l0,0c0.2-0.5,0.5-1,0.8-1.4
		c0.3-0.4,0.5-0.7,0.8-1c0.4-0.5,0.9-1,1.4-1.4c0.7-0.6,1.4-1,2.2-1.3c0.8-0.3,1.7-0.5,2.6-0.6c0.8-0.1,1.6-0.1,2.5,0
		c0.4,0.1,0.7,0.2,1.1,0.3c0.6,0.2,1.1,0.4,1.6,0.7c0.8,0.4,1.6,1,2.4,1.5c0.7,0.6,1.4,1.2,2.1,1.9c0.8,0.8,1.3,1.5,1.7,1.8
		c0.4,0.4,0.8,0.8,1.1,1.2c0.5,0.6,0.9,1.2,1.3,1.8c0.4,0.7,0.8,1.4,1.1,2.1c0.3,0.7,0.5,1.4,0.7,2.1c0.1,0.3,0.1,0.5,0.2,0.5
		s0.1-0.2,0.2-0.4c0.1-1,0-1.9-0.2-2.9c-0.1-0.7-0.3-1.3-0.6-2c-0.3-0.7-0.6-1.4-0.9-2c-0.3-0.6-0.7-1.2-1.2-1.8
		c-0.4-0.5-0.8-0.9-1.3-1.3c-0.3-0.2-0.5-0.4-0.8-0.6c-0.8-0.6-1.7-1.2-2.7-1.7c-0.9-0.5-1.8-0.8-2.7-1.2c-0.7-0.2-1.4-0.4-2.2-0.5
		c-0.6-0.1-1.2-0.2-1.6-0.3c-0.6-0.1-1.2-0.2-1.8-0.3c-0.9-0.1-1.9,0-2.8,0.2c-1.1,0.2-2.2,0.7-3.1,1.3c-0.9,0.6-1.6,1.4-2.3,2.3
		c-0.5,0.7-0.9,1.5-1.2,2.3c-0.1,0.3-0.2,0.5-0.2,0.8c-0.2,0.7-0.3,1.5-0.4,2.3c-0.1,1-0.1,1.9-0.1,2.9c0,1.3,0.2,2.7,0.4,4
		C787.6,465,787.7,465.7,787.7,465.7L787.7,465.7z"/>
	<path class="st20" d="M860.4,441.6c-0.4,0-0.8,0-1.2,0.1c-3,0.8-5.7,2.4-7.7,4.7l0.1-0.1c0.4-0.3,0.8-0.7,1.2-1s0.8-0.6,1.2-0.9
		c0.4-0.3,0.9-0.5,1.3-0.7c0.5-0.2,0.9-0.4,1.4-0.6c0.5-0.2,1-0.3,1.5-0.5c0.4-0.1,0.8-0.1,1.2-0.1c0.4,0,0.8,0,1.2,0.1
		c0.4,0.1,0.8,0.2,1.2,0.3c0.4,0.1,0.7,0.3,1.1,0.5c0.6,0.3,1.2,0.7,1.8,1.1c0.4,0.3,0.8,0.6,1.1,0.9c0.5,0.5,0.9,1,1.2,1.5
		c0.4,0.6,0.8,1.3,1.2,2s0.8,1.4,1.1,2.2s0.7,1.5,1,2.3c0.6,1.5,1.2,2.8,1.5,3.8c0.2,0.6,0.3,0.7,0.3,1l1.3-0.4
		c0,0-3.4-10.1-6.7-13.4C866,443.8,863.2,441.7,860.4,441.6L860.4,441.6z"/>
	<path d="M873.8,456.5c-0.7-2-1.3-3.7-1.8-5.2l0,0c-0.7-1.7-1.3-3.1-1.9-4.4c-0.3-0.7-0.7-1.4-1.1-2.1c-0.4-0.6-0.7-1.1-1.2-1.6
		c-0.4-0.4-0.7-0.7-1.2-1c-0.5-0.4-1-0.8-1.6-1.1l-0.3-0.1c-0.7-0.4-1.4-0.6-2.2-0.8c-1-0.2-2.1-0.2-3.1,0.1l0,0
		c-1.1,0.3-2.2,0.8-3.2,1.4c-0.8,0.5-1.6,1.1-2.3,1.7c-0.5,0.4-0.8,0.8-1,1s-0.8,0.7-1.3,1.3c-0.7,0.7-1.4,1.4-2,2.2
		c-0.5,0.7-1.1,1.4-1.6,2.2s-1,1.5-1.4,2.2c-0.6,1.1-1.2,2.2-1.6,3.3c-0.2,0.7-0.6,1.9-1,3.2c-0.3,1.3-0.5,2.5-0.6,3.8
		c-0.1,0.8,0,1.7,0.1,2.5c0.1,0.5,0.3,1,0.6,1.4c0.1,0.1,0.2,0.3,0.3,0.4c0.1,0.1,0.1,0.1,0.2,0.2c0.1,0,0.1,0,0-0.2
		c-0.1-0.2-0.2-0.5-0.3-0.7c-0.1-0.4-0.2-0.8-0.2-1.2c0-0.4,0-0.7,0.1-1.1c0.1-0.4,0.2-0.8,0.3-1.2c0.3-1.2,0.7-2.3,1.1-3.4
		c0.4-0.9,0.8-1.7,1.1-2.5s0.6-1.5,0.8-2.1c0.4-1,0.8-2.1,1.3-3.2c0.5-1,1-2,1.6-3c0.6-0.9,1.2-1.8,1.9-2.6c0.5-0.6,1.1-1.1,1.7-1.6
		l0.4-0.3c0.7-0.5,1.4-0.9,2.2-1.2c1-0.5,2.1-0.8,3.2-1l0,0c0.7-0.1,1.4-0.1,2.1,0.1c0.7,0.2,1.4,0.5,2,0.8c0.6,0.3,1.1,0.6,1.7,1
		c0.3,0.2,0.7,0.5,1,0.8c0.3,0.3,0.6,0.6,0.9,0.9s0.5,0.5,0.7,0.9s0.6,0.8,0.9,1.2c0.9,1.3,1.6,2.6,2.4,4L873.8,456.5L873.8,456.5z"
		/>
	<path class="st19" d="M801.2,400.5c0,0-9.2,5.3-14.5,13.3c-4.4,6.7-9.5,20.3-9.4,29.1c0.1,7,3.9,13.9,9,14.8c4.1,0.8,10-1,11.2-2.9
		c6.4-10.7,0.7-16.8,0.4-27.7c-0.3-8.8,1-11.3,2.3-14.9c0.5-1.4,5-9.8,5-9.8"/>
	<path class="st19" d="M849.3,349.8c0,0,5-7.5,6.4-8.8s1.7-2.9,4.8-3.4s8,1.5,9.1,2.2s5.3,3.6,6.1,4.6s1.4,4.2,1.3,6.4
		c-0.4,2.7-1.4,5.4-2.9,7.7c-0.8,0.8-5.3,5-6.7,5.5s-9.3,1.7-9.3,1.7L849.3,349.8z"/>
	<path class="st20" d="M799.7,401.3c-2.7,1.8-9,6.2-13,12.4c-4.4,6.7-9.6,20.3-9.4,29.1c0.1,7,3.9,13.8,9,14.8
		c3.9,0.8,9.6-0.8,11-2.7c-0.3,0.1-0.5,0.3-0.8,0.4c-0.5,0.2-1,0.4-1.5,0.5c-0.5,0.1-1.1,0.3-1.7,0.4s-1.1,0.2-1.7,0.2
		c-0.6,0-1.1,0-1.7,0c-0.5,0-1.1-0.1-1.6-0.2c-0.3-0.1-0.6-0.1-0.9-0.3c-0.3-0.1-0.6-0.2-0.9-0.4c-0.6-0.3-1.2-0.7-1.7-1.1
		c-0.6-0.5-1.1-1-1.5-1.5c-0.5-0.6-0.9-1.2-1.3-1.9c-0.4-0.7-0.8-1.4-1.1-2.2c-0.3-0.8-0.6-1.6-0.8-2.4c-0.2-0.8-0.4-1.7-0.5-2.5
		c-0.1-0.9-0.2-1.7-0.2-2.6c0-1.2,0.1-2.4,0.2-3.5c0.1-1.2,0.3-2.5,0.6-3.8s0.6-2.6,1-4s0.8-2.7,1.2-4s1-2.6,1.5-3.9s1-2.5,1.6-3.7
		s1.1-2.3,1.7-3.3s1.1-2,1.7-2.8c0.7-1,1.4-2,2.1-2.9c0.8-0.9,1.5-1.8,2.3-2.6s1.6-1.6,2.4-2.3s1.6-1.3,2.3-1.9
		S799.1,401.8,799.7,401.3L799.7,401.3z"/>
	<path class="st19" d="M787.4,366.7c0,0-1.2,11.2-0.6,13s3.3,12,3.7,12.8s7.4,8.9,9.5,9.9s9.1,3.7,9.1,3.7s17.2,2.7,22.3,2.1
		s13-1.5,15.3-3.5c1.8-1.6,5.8-3.2,7.8-5c2.7-2.3,5.8-2.9,7.2-4.3s4.5-7.2,5-11.6s0-11.6-1.2-14.3c-1.3-2.9-2.7-5.4-3.5-7
		s-10.3-13.6-11.8-15.9s-7.8-7.4-9.7-7.9s-14.3-2.7-17.8-2.3s-12,4.3-13.8,5.6s-9.1,8.7-10.1,9.9S787.4,364.2,787.4,366.7
		L787.4,366.7z"/>
	<path class="st22" d="M817.6,407.4c5.2,0.6,11,1.2,13.8,0.9c5.2-0.6,13-1.4,15.3-3.5c1.8-1.6,5.8-3.2,7.9-5
		c2.7-2.3,5.8-2.9,7.2-4.3s4.5-7.2,5-11.6s0-11.6-1.2-14.3c-0.8-1.8-1.7-3.4-2.4-4.8c1.4-0.2,2.7-0.5,4.1-0.8
		c1.5-0.5,5.9-4.7,6.7-5.5c1.5-2.3,2.5-4.9,2.9-7.7c0.1-2.2-0.5-5.3-1.3-6.4s-5-3.9-6.1-4.6c-2.5-1.3-5.2-2.1-8-2.3
		c0.8,0.1,1.5,0.3,2.3,0.5c0.8,0.2,1.6,0.5,2.3,0.8c0.5,0.2,1,0.4,1.5,0.7c0.5,0.4,1.9,1.3,3.1,2.2c0.6,0.5,1.3,0.9,1.8,1.4
		c0.4,0.3,0.8,0.7,1.1,1c0.2,0.3,0.4,0.7,0.5,1.1c0.2,0.5,0.3,1.1,0.4,1.6c0.1,0.6,0.2,1.2,0.3,1.8c0.1,0.6,0.1,1.2,0.1,1.8
		c0,0.7-0.2,1.3-0.4,2c-0.2,0.8-0.5,1.6-0.8,2.3c-0.3,0.8-0.7,1.5-1,2.1c-0.2,0.4-0.5,0.9-0.8,1.2c-0.4,0.4-1.7,1.6-3.1,2.8
		c-0.7,0.6-1.4,1.2-2,1.7c-0.5,0.4-1,0.7-1.5,1c-0.5,0.2-1.1,0.3-1.6,0.4c-0.7,0.1-1.6,0.3-2.5,0.5c0.7,1.4,1.5,3,2.4,4.8
		c0.2,0.4,0.3,0.8,0.4,1.2c0.1,0.5,0.2,1,0.3,1.5c0.2,1.2,0.4,2.5,0.5,3.8c0.1,1.3,0.2,2.7,0.2,4.1s0,2.6-0.2,3.7
		c-0.1,0.6-0.1,1.1-0.3,1.7c-0.1,0.6-0.3,1.2-0.5,1.8c-0.4,1.2-0.8,2.3-1.3,3.4c-0.5,1-1,2-1.5,2.9c-0.4,0.6-0.8,1.3-1.3,1.8
		c-0.2,0.2-0.4,0.4-0.6,0.5c-0.2,0.2-0.5,0.3-0.8,0.5c-0.5,0.3-1.1,0.6-1.8,0.9s-1.3,0.6-2,1c-0.7,0.4-1.4,0.9-2.1,1.4
		c-0.6,0.5-1.2,0.9-1.8,1.3c-0.7,0.4-1.5,0.8-2.2,1.2s-1.5,0.8-2.1,1.2c-0.6,0.4-1.2,0.8-1.7,1.2c-0.3,0.3-0.7,0.5-1.1,0.7
		c-0.5,0.2-1,0.4-1.5,0.6c-0.6,0.2-1.2,0.4-1.8,0.5s-1.4,0.3-2.1,0.4c-1.5,0.3-3,0.5-4.5,0.7s-3,0.4-4.3,0.5
		c-0.8,0.1-1.6,0.1-2.5,0.1c-1,0-2.1-0.1-3.2-0.1C821.8,407.8,819.7,407.6,817.6,407.4L817.6,407.4z"/>
	<path class="st20" d="M841,368.9c-1-0.5-1.2-2.6-1.7-1.6c-0.6,1.4-0.4,3.1,0.5,4.3c0.7,0.7,4.8,1.2,4.8,0S842,369.5,841,368.9
		L841,368.9z"/>
	<path class="st20" d="M828.9,370.8c0-0.9,0-3,0.1-5.5c0-2.1,0.1-4.6,0.2-6.8c0-0.9,0.1-1.7,0.1-2.5c0-0.3,0-0.6,0.1-0.8
		c0-0.2,0-0.3,0.1-0.5c0.1-0.4,0.1-0.7,0.2-1.1l0,0c0.1-0.7,0.1-1.3,0.1-1.7c0,0,0-0.1,0-0.1c0-1,0-2.6-0.1-4.4c0-1.4-0.1-3-0.3-4.6
		c-0.1-0.6-0.2-1.2-0.3-1.8c-0.1-0.4-0.2-0.9-0.4-1.3c-0.4-0.7-0.7-1.5-1.1-2.1c-0.1-0.2-0.2-0.3-0.3-0.5c-0.1-0.1-0.2-0.3-0.4-0.4
		c-0.1-0.1-0.2-0.1-0.3-0.2h-0.2l0,0c0.2,0.1,0.3,0.2,0.4,0.3c0.1,0.1,0.2,0.2,0.3,0.3c0.1,0.2,0.2,0.3,0.3,0.5
		c0.2,0.3,0.3,0.6,0.5,1s0.3,0.8,0.5,1.2c0.2,0.4,0.3,0.8,0.3,1.2c0.1,0.6,0.2,1.2,0.2,1.8c0.1,1.5,0.2,3,0.2,4.5s0,3.1-0.1,4.5l0,0
		c0,0.6,0,1.1-0.1,1.7c0,0.3,0,0.6-0.1,0.8c0,0.1,0,0.1,0,0.2l0,0c0,0.2-0.1,0.4-0.1,0.6l0,0c0,0.3,0,0.6,0,0.9l0,0
		c0,0.8,0,1.7-0.1,2.5l0,0c0,2.3,0,4.7,0,6.8c0,2.9,0,5.4,0,6.9C828.7,375.5,829,375.7,828.9,370.8L828.9,370.8z"/>
	<path d="M801.9,399.9l-5.6,3.8c-2,1.5-3.9,3.1-5.8,4.9c-1.6,1.5-3,3.1-4.3,4.8l0,0c-0.8,1.1-1.6,2.2-2.2,3.3
		c-0.6,1.1-1.2,2.1-1.7,3.1c-0.7,1.5-1.3,2.9-1.9,4.1s-1,2.4-1.3,3.5c-0.6,1.6-1,3-1.3,4.3s-0.6,2.4-0.8,3.5v0.2
		c-0.2,0.9-0.3,1.9-0.5,3.2c-0.1,1.4-0.2,2.8-0.2,4.3c0,1.4,0.1,2.7,0.3,4.1c0.2,1.5,0.6,2.9,1.2,4.2c0.6,1.1,1.3,2.2,2.2,3.1
		c0.8,0.8,1.8,1.6,2.8,2.2l0,0c0.8,0.5,1.7,0.9,2.7,1.2c0.8,0.3,1.7,0.4,2.5,0.5c1.3,0.1,2.5,0.1,3.8-0.1l0.4-0.1
		c0.4-0.1,0.9-0.2,1.5-0.4c0.7-0.2,1.4-0.5,2.1-0.8c0.6-0.3,1.1-0.6,1.6-1c0.6-0.4,1.1-0.9,1.5-1.5l0,0c0.7-0.9,1.3-1.8,1.7-2.8
		c0.5-1.1,0.8-2.2,1-3.4l0,0c0.2-1.1,0.2-2.2,0.1-3.3c-0.1-1.1-0.2-2.2-0.4-3.3l0,0c-0.2-1.3-0.5-2.5-0.7-3.7s-0.5-2.3-0.7-3.3
		c-0.3-1.5-0.5-2.8-0.6-3.9s-0.2-2-0.3-2.6c0-0.3-0.1-0.7-0.1-1.1c0-1.1-0.1-2.5-0.2-4c0-1.6,0-3.2,0.2-4.8c0.1-0.9,0.3-1.7,0.5-2.5
		c0.3-0.9,0.6-1.7,0.9-2.6c1-2.7,2.2-5.4,3.3-7.8l1.1-2.2c0.3-0.5,0.5-0.9,0.6-1.5l0,0c-0.9,1-1.6,2.2-2.3,3.4c-1.5,2.5-2.8,5-4,7.6
		c-0.8,1.7-1.4,3.5-1.8,5.4c-0.3,1.5-0.4,3.1-0.5,4.7c-0.1,1.5,0,3,0,4.4c0,2,0.3,4,0.7,6c0.1,0.6,0.3,1.3,0.4,1.9
		c0.6,2.3,1.3,4.6,1.8,6.9c0.2,1,0.4,2.1,0.5,3.1c0.1,1,0.1,2,0,3.1c-0.1,1.1-0.3,2.1-0.7,3.1c-0.4,1-0.9,1.9-1.5,2.7
		c-0.7,1-1.7,1.8-2.7,2.3c-1.8,1-3.8,1.5-5.8,1.5c-0.9,0-1.8-0.2-2.7-0.4c-1.3-0.3-2.5-0.9-3.6-1.6c-0.9-0.6-1.7-1.3-2.4-2.1
		c-0.8-0.8-1.4-1.8-1.9-2.8l0,0c-0.5-1.2-0.8-2.4-0.9-3.7c-0.1-1.3-0.2-2.7-0.2-4.1c0-2.4,0.3-4.8,0.8-7.1c0.5-2.6,1.2-5.2,2-7.8
		c0.4-1.3,0.8-2.5,1.1-3.4c0.4-1.1,0.9-2.6,1.6-4.2c0.9-2.2,2.1-4.4,3.5-6.4l0,0c1.4-2,2.9-3.8,4.6-5.5c1.5-1.6,3.2-3,4.9-4.5
		L801.9,399.9L801.9,399.9z"/>
	<path class="st20" d="M805.6,345c-2.8,2.7-6.2,6.2-6.9,7c-1,1.2-11.4,12.2-11.4,14.7c0,0-1.2,11.2-0.6,13s3.3,12,3.7,12.8
		s7.4,8.9,9.5,9.9s9.1,3.7,9.1,3.7s17.2,2.7,22.3,2.1s13-1.4,15.3-3.5c1.8-1.6,5.8-3.2,7.8-5c2.7-2.3,5.8-2.9,7.2-4.3
		c0.6-0.7,1.1-1.5,1.6-2.3l-1.2,0.6c-0.7,0.3-1.3,0.6-2,1c-0.7,0.4-1.4,0.9-2,1.4c-0.6,0.5-1.2,0.9-1.8,1.3
		c-0.7,0.4-1.5,0.8-2.2,1.2s-1.5,0.8-2.1,1.2c-0.6,0.4-1.2,0.8-1.7,1.2c-0.3,0.3-0.7,0.5-1.1,0.7c-0.5,0.2-1,0.4-1.5,0.6
		c-0.6,0.2-1.2,0.4-1.9,0.5s-1.4,0.3-2.1,0.4c-1.5,0.3-3,0.5-4.5,0.7s-3,0.4-4.3,0.5c-0.8,0.1-1.6,0.1-2.4,0.1c-1,0-2.1-0.1-3.2-0.1
		c-2.3-0.2-5-0.5-7.4-0.7c-4.9-0.6-9.2-1.3-9.2-1.3s-1.8-0.7-3.8-1.5s-4.3-1.6-5.3-2.1c-0.4-0.2-0.7-0.4-1-0.7
		c-0.4-0.3-0.8-0.7-1.3-1.2c-1-0.9-2-2-3.1-3.2s-2-2.2-2.8-3.1c-0.5-0.6-1-1.1-1.4-1.8c-0.2-0.4-1-3.2-1.8-6s-1.6-5.9-1.9-6.8
		c-0.1-0.4-0.2-0.7-0.2-1.1c0-0.5,0-1.1,0-1.7c0-1.3,0.1-2.9,0.2-4.4c0.2-3,0.5-5.8,0.5-5.8c0-0.2,0.1-0.4,0.1-0.6
		c0.1-0.3,0.2-0.5,0.3-0.7c0.4-0.6,0.8-1.3,1.2-1.9c0.5-0.7,1.1-1.5,1.7-2.2s1.3-1.6,2-2.4c1.4-1.6,2.8-3.2,3.9-4.4s2-2.2,2.2-2.5
		S804.3,346.5,805.6,345L805.6,345z"/>
	<path class="st19" d="M849.5,400.4c0,0,10.2,2.8,17.3,9.3c5.9,5.4,14.3,17.4,16.5,26.1c1.7,6.9,0.6,13.9-4.1,16.1
		c-3.7,1.8-10.8,2.3-12.5,0.6c-8.9-8.9-5-16.4-7.4-27.2c-2-8.7-6.3-11.8-6.8-13.2s-6.3-8.9-6.3-8.9"/>
	<path class="st22" d="M850.8,401l-1.8,1.7c0,0,1.3-0.9,2.2-0.6s2.2,0.9,3.7,1.7c0.8,0.4,1.5,0.8,2.4,1.3s1.7,1,2.5,1.6
		s1.7,1.2,2.6,1.9c0.9,0.7,1.7,1.4,2.5,2.2c0.7,0.7,1.3,1.4,2.1,2.3s1.6,2.5,2.4,3.5s1.7,2.1,2.5,3.2s1.6,2.3,2.4,3.5
		s1.5,2.4,2.2,3.6s1.3,2.5,1.9,3.7s1.1,2.4,1.6,3.6c0.4,1.1,0.8,2.3,1.1,3.4c0.2,0.9,0.4,1.7,0.5,2.6c0.1,0.8,0.2,1.7,0.2,2.5
		c0,0.8,0,1.6,0,2.4c-0.1,0.8-0.2,1.5-0.3,2.3c-0.2,0.7-0.4,1.4-0.6,2c-0.2,0.6-0.6,1.2-0.9,1.8c-0.2,0.3-0.4,0.5-0.6,0.7h0
		c4.6-2.2,5.7-9.2,4.1-16.1c-2.1-8.7-10.5-20.7-16.5-26.1C862.1,405.6,856.6,402.6,850.8,401L850.8,401z"/>
	<path d="M849.9,400.4l5.6,2.5c2.1,1,4.1,2.2,6.1,3.5c1.7,1.1,3.2,2.4,4.7,3.7c0.9,0.9,1.8,1.8,2.5,2.6s1.5,1.7,2.1,2.5
		c1.7,2.1,3.3,4.4,4.7,6.7c1,1.5,1.7,2.9,2.3,4.1s1.2,2.3,1.6,3.3l0.1,0.2c0.3,0.8,0.8,1.7,1.3,2.8c0.5,1.3,0.9,2.5,1.3,3.8
		c0.4,1.5,0.7,3.1,0.8,4.6c0.1,1.6,0.1,3.3-0.3,4.9c-0.2,1.3-0.7,2.5-1.4,3.6c-0.3,0.5-0.7,1-1.1,1.4c-0.4,0.4-0.9,0.7-1.4,1
		c-1,0.5-2.1,0.9-3.1,1.1c-0.8,0.2-1.5,0.3-2.3,0.5c-0.3,0-0.8,0.1-1.3,0.1s-0.9,0-1.5,0c-0.6,0-1.2-0.1-1.8-0.2
		c-0.4-0.1-0.8-0.2-1.2-0.3c-0.2-0.1-0.5-0.2-0.7-0.4c-0.9-0.9-1.7-1.9-2.4-2.9c-0.8-1.1-1.4-2.3-1.9-3.6l0,0
		c-0.8-2-1.2-4.1-1.4-6.3c-0.1-1.2-0.1-2.4-0.2-3.6s0-2.2-0.1-3.3s-0.1-2.1-0.2-3s-0.2-1.6-0.3-2.1c-0.1-0.8-0.3-1.7-0.6-2.8
		c-0.4-1.8-1-3.7-1.7-5.4l0,0c-0.5-1.2-1-2.4-1.7-3.5c-0.5-0.9-1.1-1.7-1.8-2.5l0,0c-0.6-0.8-1.2-1.5-1.7-2.3
		c-0.2-0.3-0.4-0.5-0.6-0.7l-0.9-1c-0.8-0.9-1.5-1.7-2.2-2.5l-1.9-2.1l-0.2-0.2c-0.3-0.3-0.5-0.5-0.7-0.7l-0.2-0.2h-0.1l0,0
		l-0.4,0.3l-0.1,0.1l0,0l0.1-0.1l0.3-0.3l0,0v0.1l0.1,0.2c0.1,0.2,0.3,0.5,0.5,0.8c0.4,0.6,1,1.5,1.8,2.5l2,2.7l0.8,1.1
		c0.2,0.2,0.3,0.5,0.5,0.7c0.5,0.8,1,1.6,1.6,2.4c0.5,0.8,1.1,1.6,1.5,2.4c0.6,1.1,1,2.2,1.4,3.4c0.5,1.7,1,3.5,1.3,5.3
		c0.3,1.3,0.5,2.6,0.6,3.8s0.3,2.4,0.3,3.4v0.3c0.2,2.2,0.3,4.5,0.6,6.9l0,0c0.3,2.3,0.9,4.5,1.9,6.6c1.2,2.5,2.9,4.7,4.9,6.6
		c0.3,0.3,0.6,0.5,1,0.6c0.4,0.2,0.9,0.3,1.3,0.3c1.1,0.1,2.3,0.2,3.4,0.1c1.2-0.1,2.5-0.3,3.7-0.5h0.1c0.4-0.1,0.9-0.2,1.5-0.4
		c0.7-0.2,1.3-0.4,1.9-0.7l0,0c0.6-0.3,1.1-0.6,1.6-1c0.5-0.5,1-1,1.4-1.6c0.8-1.2,1.4-2.6,1.7-4c0.4-1.6,0.6-3.3,0.5-5
		c0-1.8-0.3-3.5-0.7-5.2c-0.6-2.5-1.5-4.9-2.6-7.3c-1.2-2.6-2.6-5.1-4.2-7.5c-0.6-0.9-1.2-1.7-1.6-2.3c-0.9-1.1-2.1-2.7-3.6-4.3
		c-1.6-1.8-3.2-3.5-5-5c-1.8-1.5-3.7-2.8-5.7-4c-1.8-1-3.6-2-5.5-2.8L849.9,400.4L849.9,400.4z"/>
	<path d="M870.8,450.2c0.1,0,0.2,0.1,0.3,0.1c0.1,0.1,0.2,0.3,0.2,0.4c0.1,0.2,0.1,0.4,0.1,0.6c0,0.2,0,0.5-0.1,0.7
		c-0.1,0.6-0.3,1.1-0.6,1.6c-0.1,0.2-0.2,0.3-0.3,0.5c-0.3,0.6-0.8,1.1-1.3,1.5c-0.2,0.1-0.4,0.3-0.6,0.3c-0.1,0-0.2,0-0.3,0h-0.1
		h-0.1l0,0l-0.1-0.1l-0.1-0.1l0,0c0-0.1-0.1-0.2-0.1-0.3c0-0.2,0-0.5,0-0.7c0.1-0.6,0.3-1.2,0.6-1.8l0.2-0.4
		c0.2-0.5,0.5-0.9,0.8-1.3c0.1-0.2,0.2-0.3,0.4-0.5c0.1-0.1,0.2-0.2,0.4-0.3c0.1-0.1,0.2-0.1,0.3-0.2
		C870.6,450.2,870.7,450.2,870.8,450.2L870.8,450.2z"/>
	<path d="M866.7,449.4c0.1,0,0.2,0,0.3,0.1c0.1,0.1,0.2,0.2,0.3,0.3c0.2,0.3,0.3,0.6,0.3,1c0,0.4,0,0.8-0.1,1.2
		c0,0.1-0.1,0.3-0.1,0.4c-0.1,0.5-0.4,0.9-0.8,1.3c-0.1,0.1-0.3,0.3-0.5,0.3c-0.1,0-0.2,0.1-0.2,0.1h-0.1h-0.1l0,0h-0.1l-0.1-0.1
		c-0.1,0-0.1-0.1-0.2-0.2c-0.1-0.2-0.2-0.3-0.2-0.5c-0.1-0.5-0.1-0.9-0.1-1.4c0-0.1,0-0.3,0.1-0.4c0.1-0.4,0.2-0.7,0.3-1.1
		c0.1-0.3,0.3-0.5,0.6-0.7c0.1-0.1,0.2-0.2,0.3-0.2C866.5,449.5,866.6,449.5,866.7,449.4L866.7,449.4z"/>
	<path d="M876.7,451.1c0.4-0.1,0.8,0.1,1,0.5c0.3,0.4,0.5,0.9,0.5,1.4c0,0.4,0,0.7-0.2,1.1c-0.1,0.3-0.3,0.6-0.5,0.8
		c-0.1,0.1-0.2,0.1-0.3,0.2c-0.1,0-0.2,0-0.3,0l0,0c-0.1,0-0.2-0.1-0.3-0.1c-0.1-0.1-0.2-0.1-0.3-0.2c-0.2-0.2-0.3-0.4-0.4-0.7
		c-0.1-0.3-0.2-0.6-0.2-0.9c0-0.5,0.1-0.9,0.3-1.3C876.1,451.4,876.4,451.2,876.7,451.1L876.7,451.1z"/>
	<path class="st23" d="M826.3,375.5h5.3l9.7,3.5l11.4,7c0,0,3.1,2.2,3.5,3.5s-1,7.2-1,7.2l-1.9,5.9c0,0-11.3,9.1-15.3,10.1
		s-21.6,0.7-24.5-2.5s-9.3-11.3-9.3-13.9s0-4.8,1.3-6.1s3.1-2.2,8.8-7.2c1.4-1.2,5.3-4.7,7-6S825.2,375.1,826.3,375.5L826.3,375.5z"
		/>
	<path class="st22" d="M825.6,375.4c-1.1,0.1-2.3,0.4-3.3,1c0.3-0.1,0.7-0.1,1-0.1c0.4,0,4.5-0.5,4.8-0.4l5,0.5l6.4,2.9l11.2,7.7
		c0,0,0.8,0.5,1.6,1.3c0.4,0.4,0.8,0.7,1.2,1.1c0.2,0.2,0.3,0.4,0.5,0.6c0.1,0.2,0.2,0.3,0.3,0.5c0.1,0.2,0.1,0.5,0.1,0.7
		c0,0.3,0,0.7,0,1c-0.1,0.7-0.2,1.6-0.4,2.4c-0.3,1.6-0.7,3.1-0.7,3.1l-1.9,5.8c0,0-0.7,0.6-1.8,1.4s-2.7,2-4.3,3.2
		c-0.8,0.6-1.7,1.2-2.5,1.8s-1.7,1.1-2.5,1.6s-1.5,0.9-2.2,1.2l0.3,0c4.1-1,14.8-10.4,14.8-10.4l2.5-5.6c0,0,1.5-5.9,1-7.2
		S853,386,853,386l-11.4-7l-9.6-3.5h-5.3C826.4,375.4,826,375.3,825.6,375.4L825.6,375.4z"/>
	<path class="st24" d="M807.1,388.8c-0.6,0.4-1.1,0.9-1.7,1.4c-1.3,1.3-1.3,3.4-1.3,6.1s6.4,10.7,9.4,13.9s20.5,3.5,24.5,2.5
		s15.3-10.5,15.3-10.5l0.2-0.6c-1.1,0.9-2.3,2.3-3.9,3.4c-0.8,0.6-1.7,1.2-2.5,1.8s-1.7,1.1-2.5,1.6s-1.6,0.9-2.3,1.3
		c-0.6,0.3-1.2,0.5-1.8,0.7c-0.7,0.2-1.4,0.3-2.1,0.3c-0.9,0.1-1.9,0.1-3,0.2s-2.4,0-3.6,0s-2.6-0.1-3.9-0.2s-2.6-0.2-3.9-0.4
		s-2.4-0.4-3.5-0.6c-0.5-0.1-1-0.2-1.5-0.4c-0.4-0.1-0.9-0.3-1.3-0.5c-0.3-0.1-0.7-0.3-1-0.5c-0.3-0.2-0.5-0.3-0.7-0.6
		c-0.7-0.8-1.7-1.9-2.7-3.2s-2.1-2.6-3.1-4c-0.5-0.7-1-1.4-1.4-2s-0.8-1.3-1.1-1.9c-0.3-0.5-0.6-1.1-0.8-1.6
		c-0.2-0.4-0.3-0.8-0.3-1.2c0-0.7,0-1.3,0-1.9c0-0.6,0.1-1.1,0.1-1.6c0.1-0.5,0.2-1,0.4-1.4C807,389,807.1,388.9,807.1,388.8
		L807.1,388.8z"/>
	<path class="st24" d="M826.4,389.8c0.3,1.5,0.9,1.6,1.9,2.6s1,4.6,0.8,8.4l1.6,0.6l-0.9-9.2L826.4,389.8z"/>
	<path d="M806.4,389.6c2.8-2.2,5.4-4.4,7.7-6.3c1.8-1.5,3.4-3,5-4.2l0,0c1.1-0.9,2.3-1.7,3.7-2.4c1.2-0.5,2.4-0.8,3.7-0.9l0,0
		c1.2-0.1,2.3-0.1,3.5,0c1,0.1,2,0.2,3,0.4c0.9,0.2,1.8,0.5,2.7,0.9c0.8,0.3,1.5,0.7,2.2,1.1c1.2,0.6,2.2,1.3,3.1,1.8
		s1.8,1.1,2.6,1.6l1,0.6c1.7,1,4.4,2.5,7.7,4c1,0.4,1.8,1.2,2.4,2.1c0.6,1,1,2.1,1.1,3.3l0,0c0.2,1.4,0.1,2.8-0.2,4.2
		c-0.3,1.3-0.7,2.6-1.2,3.8l0,0c-0.4,0.9-1,1.8-1.6,2.6c-0.5,0.7-1.1,1.3-1.7,1.9c-0.5,0.5-1,1-1.3,1.3s-1,0.8-1.7,1.3
		s-1.7,1.1-2.7,1.8c-2.2,1.3-4.6,2.4-7.1,3.2c-1.2,0.4-2.3,0.7-3.6,0.9c-1.2,0.2-2.4,0.4-3.6,0.4c-1.5,0-2.9-0.1-4.4-0.2
		c-1.3-0.2-2.6-0.4-3.8-0.7c-1.7-0.4-3.4-1-5.1-1.7l-0.2-0.1c-0.9-0.4-1.7-0.7-2.6-1.2c-1.1-0.6-2.1-1.2-3-1.9
		c-1.5-1.1-2.8-2.5-3.8-4.1c-0.7-1.1-1.4-2.3-2-3.4c-0.6-1.1-1.1-2.3-1.5-3.6c-0.3-1.1-0.4-2.2-0.1-3.3c0.1-0.8,0.5-1.5,0.9-2.1
		c0.2-0.3,0.4-0.6,0.7-0.8c0.2-0.2,0.3-0.3,0.3-0.3l0,0l0,0c-0.1,0.1-0.2,0.1-0.3,0.2c-0.2,0.2-0.4,0.4-0.6,0.6
		c-0.3,0.3-0.6,0.6-0.8,1c-0.6,0.9-1,2-1.1,3.1c0,0.7,0,1.3,0.2,2c0.3,1.4,0.7,2.7,1.3,3.9c0.5,1.2,1.2,2.4,1.8,3.6
		c1,1.8,2.3,3.4,3.9,4.7c1.8,1.5,3.8,2.7,5.9,3.6c1.6,0.7,3.3,1.3,5.1,1.7c1.5,0.3,3.1,0.6,4.7,0.7c1.6,0.1,3.2,0.1,4.8,0
		c2.6-0.2,5.1-0.8,7.5-1.8c2.5-1,4.9-2.2,7.1-3.6l0,0c1.3-0.8,2.4-1.6,3.3-2.4s1.8-1.5,2.5-2.1l0.4-0.4c0.5-0.5,1-1,1.5-1.6
		c0.7-0.8,1.3-1.7,1.8-2.6c0.6-1.2,1.1-2.5,1.5-3.9c0.4-1.5,0.5-3.1,0.4-4.7c-0.1-1.4-0.5-2.7-1.1-3.9c-0.7-1.2-1.7-2.2-3-2.8
		c-3-1.5-5.8-3.1-8.4-4.7l0,0l-3-1.8c-1-0.6-1.9-1.1-2.8-1.6c-0.7-0.4-1.4-0.7-2.1-1c-0.6-0.2-1.2-0.4-1.8-0.6
		c-0.4-0.1-0.9-0.2-1.5-0.3c-1.1-0.2-2.1-0.3-3.2-0.3c-1.2,0-2.5,0.1-3.7,0.2c-1.4,0.1-2.7,0.5-4,1.2c-1.3,0.7-2.6,1.6-3.7,2.7
		c-1.7,1.5-3.3,3.1-4.8,4.5c-2.1,1.9-3.9,3.6-5.3,4.8S806.5,389.6,806.4,389.6L806.4,389.6z"/>
	<path class="st20" d="M813.1,369.1c-1-0.5-1.9-2.9-1.9-1.7s0.4,3.2,1.2,4s5.2,1.4,5.2,0.3S814.1,369.7,813.1,369.1L813.1,369.1z"/>
	<path d="M815.3,363.1c-2.3,0-3.9,1.1-3.9,3.4s1.6,4.7,3.9,4.9c2.1,0.2,3.9-1.2,4.2-3.3c0-0.3,0-0.6,0-0.9
		C819.4,365,817.6,363.2,815.3,363.1L815.3,363.1z"/>
	<path d="M843.2,363.3c-2.1-0.2-3.9,1.4-4.1,3.5c0,0.1,0,0.2,0,0.3c0,2.3,1,4.5,3.3,4.7c2.1,0.2,3.9-1.2,4.2-3.3c0-0.3,0-0.6,0-0.9
		C846.4,365.4,845.5,363.3,843.2,363.3z"/>
	<path class="st19" d="M788.8,367.1c0,0-5.5-1.9-6.2-2.7s-6.6-7.1-6.7-10.5s0.2-7.9,3.1-10.7s7.8-5.6,9.8-5.9s7.1,1.9,8,2.9
		s7.6,7.4,8,8S788.8,367.1,788.8,367.1L788.8,367.1z"/>
	<path class="st20" d="M788.9,337.4L788.9,337.4c-2.1,0.3-6.9,3.1-9.9,5.9s-3.1,7.3-3.1,10.7s5.9,9.6,6.7,10.5s6.2,2.7,6.2,2.7
		l1.8-2.1c-0.5-0.2-0.6-0.2-1.2-0.4s-1.5-0.6-2.1-0.9c-0.5-0.2-0.9-0.4-1.3-0.8c-0.2-0.2-0.7-0.8-1.3-1.5s-1.5-1.7-2.2-2.8
		c-0.4-0.5-0.8-1.1-1.1-1.6s-0.7-1.1-1-1.6c-0.3-0.5-0.5-1-0.7-1.5c-0.1-0.4-0.2-0.9-0.2-1.4c0-0.8,0-1.8,0-2.7
		c0.1-1,0.2-1.9,0.4-2.9c0.1-0.5,0.2-0.9,0.4-1.4c0.2-0.5,0.3-0.9,0.5-1.3c0.2-0.4,0.5-0.9,0.8-1.3c0.3-0.4,0.6-0.8,1-1.1
		c0.8-0.7,1.6-1.4,2.5-2c0.9-0.7,1.8-1.3,2.8-1.8C788.2,337.7,788.5,337.6,788.9,337.4L788.9,337.4z"/>
	<path d="M805.5,349L805.5,349L805.5,349l-0.1-0.1l-0.3-0.4c-0.3-0.5-0.7-0.9-1-1.3l0,0c-1.2-1.6-2.4-2.9-3.4-4
		c-0.9-1-1.7-1.8-2.5-2.5s-1.5-1.3-2.2-1.8c-0.8-0.6-1.7-1.2-2.7-1.7c-0.9-0.5-1.9-0.8-2.9-1c-0.3,0-0.5-0.1-0.8-0.1
		c-0.5,0-0.9,0-1.4,0.1c-0.6,0.1-1.1,0.3-1.7,0.5c-0.7,0.3-1.3,0.6-1.9,1c-0.6,0.4-1.2,0.8-1.8,1.3c-0.6,0.5-1.2,1.1-1.8,1.7
		c-0.6,0.6-1.1,1.1-1.5,1.7c-0.7,0.8-1.3,1.7-1.8,2.5c-0.2,0.3-0.5,0.8-1,1.5c-0.3,0.5-0.6,1-0.8,1.6c-0.2,0.6-0.4,1.3-0.5,2l0,0
		c-0.1,0.7-0.1,1.3-0.1,2c0,0.7,0,1.3,0.1,2l0,0c0.1,1.3,0.4,2.5,0.8,3.8c0.2,0.6,0.3,1.1,0.5,1.6c0.1,0.4,0.3,0.7,0.5,1.1l0,0
		c0.3,0.5,0.6,1,1,1.4c0.5,0.5,1,1,1.6,1.4l0,0c1.1,0.8,2.2,1.4,3.4,2c1.1,0.5,2.2,1,3.3,1.4c0.5,0.2,1,0.4,1.5,0.5
		c0.2,0.1,0.5,0.1,0.7,0.1c0.1,0,0.1-0.1-0.1-0.2s-0.4-0.2-0.7-0.4l-1.2-0.7c-0.8-0.5-1.9-1.1-3-1.9c-1-0.7-2-1.4-2.9-2.3
		c-0.4-0.4-0.8-0.8-1.1-1.2c-0.3-0.4-0.5-0.7-0.7-1.2c-0.3-0.7-0.6-1.3-0.8-1.9l-0.2-0.5c-0.5-1.1-0.8-2.2-1.1-3.4
		c-0.3-1.2-0.5-2.5-0.5-3.7l0,0c0-0.6,0.1-1.2,0.2-1.8c0.1-0.5,0.3-1.1,0.6-1.5c0.5-0.8,1-1.6,1.6-2.3c0.6-0.6,1.2-1.3,1.8-1.8
		c1-0.9,2-1.7,3.1-2.5c1.1-0.7,2.3-1.4,3.5-1.8c0.5-0.2,1-0.3,1.5-0.4c0.5-0.1,0.9-0.1,1.4,0l0,0c0.8,0.1,1.6,0.4,2.4,0.7
		c0.6,0.3,1.2,0.5,1.6,0.8s0.6,0.3,1,0.5c0.8,0.5,1.6,1,2.4,1.6c0.9,0.6,1.8,1.4,2.6,2.1c1.3,1.2,2.6,2.4,3.8,3.7
		c0.5,0.5,0.8,0.9,1.1,1.2l0.3,0.3l0,0L805.5,349L805.5,349L805.5,349L805.5,349z"/>
	<path d="M849.5,349.7L849.5,349.7L849.5,349.7L849.5,349.7l0.3-0.4l0.8-1.1c0.9-1.3,1.8-2.4,2.5-3.4c1.1-1.4,2-2.6,2.9-3.6
		c0.4-0.5,0.8-0.9,1.2-1.3c0.2-0.2,0.5-0.5,0.8-0.6c0.5-0.3,1.1-0.5,1.7-0.7c0.5-0.1,1-0.2,1.5-0.2c0.4,0,0.8,0,1.1,0
		c0.3,0,0.7,0.1,1,0.1s0.6,0.1,1,0.2c0.9,0.2,1.8,0.5,2.7,0.8c1,0.4,2,1,2.9,1.6c1.1,0.8,2.1,1.4,3,1.9c0.5,0.3,1,0.7,1.4,1.1
		c0.3,0.3,0.6,0.5,0.8,0.8l0.1,0.2c0.3,0.4,0.5,0.8,0.7,1.3c0.2,0.6,0.3,1.3,0.4,2l0,0c0,0.9,0,1.8-0.2,2.7
		c-0.2,0.9-0.4,1.9-0.7,2.8l0,0c-0.2,0.6-0.4,1.1-0.8,1.6c-0.3,0.5-0.7,1-1,1.4c-0.5,0.6-0.8,1.1-1,1.4c-0.6,0.8-1.3,1.5-2,2.2
		c-0.6,0.6-1.2,1.1-1.8,1.6c-0.7,0.5-1.4,1-2.1,1.4c-0.5,0.3-1.1,0.6-1.7,0.8c-0.5,0.2-1,0.3-1.5,0.4c-0.4,0-0.6,0.1-0.6,0.1
		s0.2,0.2,0.5,0.2c0.5,0.1,1.1,0.1,1.6,0c0.8-0.1,1.6-0.3,2.3-0.5l0,0c0.8-0.3,1.6-0.6,2.3-1.1c0.8-0.4,1.5-1,2.3-1.5l0,0
		c0.7-0.6,1.4-1.2,2-1.8c0.6-0.6,1-1.2,1.5-1.9l0.2-0.3c0.7-1.1,1.1-2.2,1.4-3.5l0,0c0.2-1,0.3-2,0.4-3c0.1-1,0-1.9-0.1-2.9
		c-0.1-0.7-0.3-1.4-0.6-2c-0.2-0.6-0.5-1.1-0.9-1.6c-0.3-0.3-0.5-0.7-0.8-1c-0.2-0.2-0.3-0.4-0.6-0.6s-0.6-0.5-0.9-0.8
		s-0.8-0.7-1.3-1s-1-0.8-1.5-1.2l0,0c-0.8-0.7-1.8-1.4-2.8-1.9c-1-0.6-2.1-1-3.2-1.3l0,0c-0.6-0.2-1.3-0.3-1.9-0.3
		c-0.6-0.1-1.2-0.1-1.8,0c-0.6,0.1-1.2,0.2-1.8,0.4c-0.4,0.1-0.9,0.3-1.3,0.6c-0.2,0.1-0.5,0.3-0.7,0.5c-0.4,0.3-0.7,0.6-0.9,1l0,0
		c-0.4,0.5-0.7,1-1.1,1.5l0,0c-0.8,1.2-1.7,2.6-2.5,3.9s-1.6,2.7-2.2,3.7l-0.7,1.2L849.5,349.7L849.5,349.7l0.1,0.1l0,0l0,0
		L849.5,349.7z"/>
	<path class="st23" d="M801.7,353.7c0,0-3.9,3.5-4.8,4.9c-1.1,1.5-2.4,2.9-3.9,4c-0.6-0.1-1.2-0.2-1.8-0.4c-1.2-1.3-2.3-2.7-3.2-4.2
		c-0.8-1.6-2.7-3.1-1.9-5s1.7-5.1,3.7-5.2c2-0.2,4-0.1,6,0.2c1,0.3,2,0.8,3,1.4C799.4,349.9,802.6,352.9,801.7,353.7L801.7,353.7z"
		/>
	<path class="st24" d="M789.7,347.9c-1.8,0.5-2.6,3.3-3.3,5.1s1.1,3.3,1.9,5c0.9,1.5,2,3,3.2,4.2c0.6,0.2,1.2,0.3,1.8,0.4
		c0.4-0.2,0.8-0.5,1.1-0.9c-0.3,0-0.6-0.1-0.9-0.1c-0.4-0.1-0.8-0.2-0.8-0.2s-0.6-0.6-1.3-1.5c-0.3-0.4-0.7-0.9-1.1-1.4
		c-0.3-0.4-0.6-0.9-0.8-1.4c-0.2-0.4-0.5-0.8-0.7-1.2c-0.3-0.4-0.6-0.8-0.8-1.2c-0.1-0.2-0.2-0.4-0.3-0.6c-0.1-0.2-0.1-0.4-0.2-0.6
		c0-0.2,0-0.4,0-0.6c0-0.2,0.1-0.5,0.2-0.7c0.2-0.5,0.4-1,0.6-1.6c0.2-0.6,0.5-1.1,0.8-1.7c0.1-0.3,0.3-0.5,0.5-0.7
		C789.5,348.1,789.6,348,789.7,347.9L789.7,347.9z"/>
	<path d="M801.8,353.6c-0.7,0.4-1.3,0.8-1.9,1.2c-0.6,0.4-1.1,0.8-1.5,1.2s-1.1,0.9-1.5,1.4c-0.4,0.4-0.8,0.8-1.1,1.3
		c-0.3,0.4-0.6,0.8-1,1.2c-0.3,0.3-0.6,0.6-0.9,0.8c-0.3,0.3-0.7,0.5-1.1,0.7c-0.3,0.1-0.5,0.2-0.6,0.2h0.3l-0.2-0.1l0,0
		c-0.3-0.2-0.6-0.4-0.8-0.7c-0.4-0.3-0.8-0.7-1.2-1.1s-0.8-0.9-1.2-1.3s-0.9-1.1-1.3-1.7c-0.3-0.4-0.6-0.9-0.8-1.4
		c-0.1-0.2-0.2-0.4-0.2-0.5c-0.1-0.3-0.2-0.7-0.2-1c0-0.4,0-0.8,0.1-1.1l0,0c0.3-0.7,0.7-1.3,1.2-1.8c0.5-0.5,1.1-1,1.8-1.3
		c0.5-0.3,1-0.5,1.5-0.7l1-0.3c0.4-0.1,0.7-0.2,1.1-0.3c0.3,0,0.5,0,0.8,0c0.3,0,0.7,0.1,1,0.1l0,0c0.7,0.2,1.4,0.4,2.1,0.7
		c0.6,0.3,1.2,0.5,1.7,0.8l0.3,0.1l0.2,0.1h0.2l0,0l0.3-0.4l0,0l0.1-0.1l0,0l-0.1,0.1l-0.2,0.4c0,0,0,0,0,0c0-0.1-0.1-0.1-0.1-0.2
		c-0.1-0.2-0.3-0.3-0.4-0.5l0,0c-0.5-0.5-1-0.9-1.5-1.3c-0.7-0.5-1.4-0.9-2.1-1.2c-0.8-0.4-1.6-0.5-2.4-0.5c-0.6,0-1.1,0.1-1.7,0.2
		c-0.5,0.1-0.9,0.3-1.3,0.5c-0.5,0.3-1,0.6-1.5,1c-0.7,0.6-1.3,1.2-1.8,2c-0.5,0.7-0.8,1.5-1,2.3c-0.1,0.5-0.1,1,0,1.5
		c0.1,0.6,0.3,1.1,0.5,1.6l0.1,0.2c0.2,0.5,0.3,0.9,0.5,1.4c0.3,0.7,0.7,1.4,1.1,2c0.6,1.1,1.4,2.1,2.2,3c0.3,0.3,0.6,0.7,1,0.9
		c0.2,0.1,0.3,0.2,0.5,0.3l0,0c0.2,0.1,0.5,0.1,0.7,0.1c0.5-0.1,0.9-0.3,1.3-0.5c0.5-0.3,0.9-0.6,1.2-1c0.2-0.2,0.4-0.4,0.5-0.6
		c0.5-0.6,0.9-1.3,1.2-2c0.2-0.5,0.5-0.9,0.8-1.3c0.4-0.5,0.8-1.1,1.2-1.6s0.7-0.8,1.1-1.2s0.7-0.7,1-0.9
		C801.1,354.1,801.4,353.8,801.8,353.6L801.8,353.6z"/>
	<path class="st23" d="M852,353.1c0,0,4,1.7,4.9,3.1s3.8,5,4.1,5.1c0.6-0.1,1.2-0.2,1.8-0.4c1.2-1.3,2.3-2.7,3.2-4.2
		c0.8-1.6,1.8-3.5,0.9-5.4s-1.6-4.5-2.8-4.8c-2-0.4-4-0.3-6,0.2c-1,0.3-2,0.8-3,1.4C854.7,348.6,851.1,352.8,852,353.1L852,353.1z"
		/>
	<path d="M851.5,353L851.5,353h0.1l0.5,0.2c0.5,0.2,1,0.5,1.5,0.8c0.8,0.5,1.5,1,2.1,1.7c0.5,0.5,0.8,1.1,1.1,1.7
		c0.4,0.8,0.8,1.5,1.4,2.2c0.4,0.5,0.9,0.9,1.4,1.3c0.4,0.3,0.8,0.5,1.2,0.7c0.2,0.1,0.4,0.1,0.6,0.2c0.3,0.1,0.7,0.1,1,0
		c0.4-0.1,0.7-0.3,1-0.6c0.1-0.1,0.2-0.3,0.4-0.4l0.7-0.7c0.6-0.7,1.1-1.4,1.6-2.1c0.3-0.5,0.6-1,0.8-1.5c0.2-0.4,0.3-0.9,0.4-1.3
		c0.1-0.2,0.1-0.5,0.1-0.7c0-0.2,0.1-0.6,0.2-1.1c0.1-0.6,0.1-1.1,0-1.7c-0.1-0.8-0.3-1.6-0.7-2.3c-0.4-0.7-0.9-1.4-1.4-1.9
		c-0.5-0.5-1-0.9-1.6-1.3c-0.4-0.2-0.8-0.4-1.3-0.5c-1.1-0.3-2.3-0.3-3.4,0.1c-0.6,0.2-1.1,0.4-1.7,0.7l0,0c-0.6,0.3-1.1,0.6-1.5,1
		c-0.4,0.4-0.8,0.8-1.2,1.3c-0.1,0.1-0.2,0.2-0.2,0.4c0,0.1,0,0.1,0,0.1c0.2-0.1,0.4-0.2,0.6-0.4c0.4-0.3,0.8-0.5,1.2-0.7
		c0.5-0.3,1.1-0.5,1.7-0.6c0.5-0.1,0.9-0.2,1.4-0.2c0.4-0.1,0.9-0.1,1.3,0c0.7,0.1,1.5,0.4,2.1,0.8c0.4,0.2,0.9,0.4,1.3,0.7
		c0.6,0.4,1.1,0.9,1.5,1.4c0.4,0.5,0.7,1.1,0.9,1.7c0.2,0.6,0.2,1.2,0.2,1.8c0,0.5-0.1,0.9-0.3,1.3l0,0c-0.1,0.3-0.3,0.7-0.5,1
		c-0.3,0.5-0.6,0.9-1,1.4l0,0c-0.5,0.6-1.1,1.2-1.7,1.7l0,0l-0.7,0.6c-0.2,0.2-0.4,0.3-0.5,0.5l0,0c-0.1,0-0.2,0-0.2,0
		c-0.4-0.1-0.8-0.3-1.1-0.5c-0.5-0.4-1.1-0.8-1.5-1.3c-0.4-0.4-0.8-0.8-1.2-1.2c-0.5-0.7-1.2-1.4-1.9-1.9c-0.7-0.5-1.5-0.9-2.3-1.2
		c-0.5-0.2-1.1-0.4-1.7-0.5L851.5,353L851.5,353L851.5,353L851.5,353L851.5,353z"/>
	<path d="M803.6,347.1c1.6-1.6,3.4-3.1,5.4-4.3c2.2-1.4,4.6-2.4,7.1-3.1c0.8-0.2,1.5-0.4,2-0.5s1.3-0.4,2.2-0.6s2-0.5,3-0.7
		s2.2-0.3,3.2-0.4s1.9-0.1,2.6-0.1h0.9c0.9,0.1,1.7,0.2,2.6,0.4c1.2,0.2,2.5,0.5,3.9,1c1.1,0.3,2.1,0.7,3,1s1.7,0.7,2.2,1l0.7,0.3
		c0.6,0.2,1.1,0.5,1.7,0.8c0.7,0.4,1.4,0.9,2.1,1.4c0.8,0.6,1.5,1.2,2.2,1.9c0.7,0.7,1.4,1.3,2,2c0.4,0.4,0.5,0.5,0.5,0.3
		c-0.1-0.4-0.3-0.7-0.5-1.1c-0.9-1.6-2-3-3.2-4.3c-0.7-0.7-1.4-1.4-2.2-1.9c-0.7-0.5-1.5-1-2.3-1.4c-0.3-0.1-0.7-0.3-1-0.4
		c-1.6-0.5-3.2-0.8-4.8-1c-1.6-0.2-3.1-0.3-4.4-0.4s-2.4-0.2-3.2-0.3h-0.1c-0.6-0.1-1.7-0.2-3-0.2c-1.6,0-3.1,0-4.7,0.2
		c-1.6,0.2-3.2,0.5-4.8,1c-1.2,0.3-2.3,0.8-3.4,1.3c-1,0.6-2,1.2-2.9,1.8c-1.2,0.8-2.3,1.7-3.3,2.7c-0.9,0.8-1.7,1.7-2.5,2.6
		c-0.6,0.7-1,1.2-1,1.2L803.6,347.1z"/>
	<path d="M787.4,367.1c-0.1,1.1-0.2,2.2-0.5,3.2l0,0c-0.3,1.2-0.5,2.4-0.7,3.4c-0.2,1.1-0.2,2.3-0.2,3.5c0,1,0.1,1.9,0.1,2.6
		s0.2,1.4,0.3,1.9s0.2,1,0.3,1.5l0.1,0.3c0.2,0.8,0.6,2,1.1,3.5s1.2,3,1.8,4.3c0.3,0.7,0.7,1.4,1,1.9s0.6,1,0.8,1.2s0.7,1.2,1.4,2.3
		c0.5,0.8,1.1,1.5,1.7,2.2c0.7,0.7,1.4,1.4,2.2,2.1c0.8,0.7,1.6,1.2,2.2,1.7c0.5,0.3,1,0.7,1.5,0.9l2.2,1.1c0.8,0.4,1.7,0.8,2.6,1.1
		c0.9,0.3,1.9,0.5,2.9,0.7l1.9,0.2c0.4,0.1,0.6,0,0.6,0l0,0c-0.7-0.5-1.5-0.8-2.3-1c-0.7-0.3-1.5-0.7-2.4-1.1
		c-0.8-0.4-1.6-0.9-2.4-1.5c-0.7-0.5-1.3-0.9-1.9-1.3s-1.2-0.7-1.7-1c-0.8-0.4-1.6-0.8-2.3-1.3c-0.8-0.5-1.6-1-2.3-1.6
		c-0.7-0.5-1.3-1.2-1.9-1.8c-0.8-0.9-1.4-1.8-1.9-2.9c-0.2-0.5-0.5-1.3-0.9-2.4s-0.8-2.5-1.2-3.9s-0.7-2.9-1.1-4.3
		c-0.2-0.8-0.4-1.5-0.5-2.2s-0.2-1.2-0.3-1.6s-0.3-1.3-0.4-2.2c-0.1-1-0.2-1.9-0.2-2.9c0-1.2,0.1-2.4,0.2-3.4s0.1-1.8,0.1-2.4
		S787.4,367.2,787.4,367.1L787.4,367.1z"/>
	<path d="M863.3,365.3c0.4,0.8,0.8,1.6,1.1,2.3c0.3,0.7,0.6,1.3,0.8,1.9c0.2,0.5,0.3,1.1,0.4,1.6c0.1,0.8,0.2,1.4,0.2,2
		s0,1.1,0.1,1.6c0,1.3,0,2.2,0,3c0,0.4,0,1,0.1,1.7s0.1,1.5,0.2,2.2s0.1,1.6,0.1,2.4s0,1.3,0,1.9c0,0.4-0.1,0.8-0.1,1.2
		c0,0.2-0.1,0.3-0.1,0.4c-0.2,0.6-0.5,1.3-0.8,1.9c-0.4,0.8-0.8,1.6-1.3,2.3c-0.4,0.6-0.8,1.1-1.3,1.6c-0.4,0.5-0.8,0.9-1.2,1.2
		s-0.5,0.4-0.6,0.6c-0.3,0.3-0.6,0.6-0.9,0.9c-0.4,0.4-0.9,0.7-1.4,1.1s-1.3,0.9-2,1.3s-1.4,0.8-2,1.1s-0.3,0.4,0.7,0.3
		c1.4-0.3,2.8-0.7,4.2-1.3c0.7-0.3,1.4-0.7,2-1.1c0.6-0.4,1.1-0.8,1.6-1.4c0.1-0.1,0.2-0.3,0.4-0.5c0.7-1,1.3-2.1,1.8-3.2l0,0
		c0.6-1.5,1.1-3.1,1.6-4.7c0.1-0.5,0.2-0.9,0.3-1.2s0.2-0.5,0.2-1s0.2-0.9,0.3-1.5s0.2-1.5,0.3-2.3s0.1-1.6,0.2-2.5
		c0.1-1.6,0-3.2-0.2-4.8c0-0.2,0-0.3-0.1-0.5c-0.2-0.8-0.5-2-0.9-3.2c-0.2-0.6-0.5-1.2-0.8-1.7c-0.4-0.7-0.7-1.3-1.1-1.8
		L863.3,365.3L863.3,365.3z"/>
	<path class="st25" d="M830.2,390.9c0.4,3.5,0.7,7,0.7,10.5"/>
	<path class="st26" d="M844.7,365.1c-0.5,0-0.8,1.1-0.8,1.6c-0.2,0.5,0.1,1.1,0.6,1.3c0.5,0.2,1.1-0.1,1.3-0.6
		c0.1-0.2,0.1-0.4,0-0.6C845.8,366.2,845.2,365.1,844.7,365.1z"/>
	<path class="st26" d="M816.8,365.4c-0.5,0-0.8,1-0.8,1.6c-0.2,0.5,0.1,1.1,0.7,1.3c0.5,0.2,1.1-0.1,1.3-0.7c0.1-0.2,0.1-0.4,0-0.6
		C818,366.5,817.4,365.4,816.8,365.4z"/>
	<path d="M830.1,380.2c-3.6,0-8.4,3.3-6.6,6c1.3,2,3.8,5.8,6.6,6s4.7-3.8,6.6-6C838.8,383.7,833.8,380.2,830.1,380.2z"/>
	<path class="st26" d="M833.1,381.6c-0.8,0-1.6,0-1.6,0.8s0.8,0.7,1.6,0.7s2.7,1.5,2.7,0.7S833.9,381.6,833.1,381.6L833.1,381.6z"/>
	<path d="M780.1,346.1L780.1,346.1L780.1,346.1H780h-0.1l0,0c-0.1,0-0.2,0-0.2,0c-0.2,0-0.3-0.1-0.5-0.2c-0.4-0.2-0.7-0.5-1-0.8
		l-0.3-0.4c-0.2-0.2-0.3-0.4-0.5-0.6c-0.2-0.2-0.3-0.5-0.5-0.7c-0.1-0.1-0.1-0.2-0.2-0.4c-0.1-0.1-0.1-0.2-0.1-0.4
		c0-0.1,0.1-0.3,0.1-0.4c0.1-0.1,0.3-0.2,0.4-0.3c0.2-0.1,0.5-0.1,0.7,0c0.3,0,0.6,0.1,0.8,0.3l0,0c0.4,0.2,0.7,0.5,1,0.8
		c0.2,0.2,0.3,0.4,0.4,0.6c0.3,0.4,0.4,1,0.5,1.5c0,0.2,0,0.4-0.1,0.6c0,0.1-0.1,0.1-0.1,0.2l0,0l-0.1,0.1l0,0L780.1,346.1
		L780.1,346.1z"/>
	<path d="M778.6,348.6c-0.1,0.3-0.5,0.4-1,0.5c-0.6,0-1.2-0.1-1.7-0.2l0,0l-0.5-0.1c-0.6-0.1-1.1-0.2-1.6-0.5
		c-0.2-0.1-0.3-0.1-0.5-0.3c-0.1-0.1-0.2-0.2-0.3-0.3c-0.1-0.1-0.2-0.2-0.2-0.3c-0.1-0.1-0.1-0.2-0.1-0.3c0-0.1,0-0.2,0.1-0.3
		c0.1-0.1,0.2-0.2,0.3-0.3c0.2-0.1,0.3-0.2,0.5-0.2c0.2-0.1,0.4-0.1,0.6-0.1c0.7-0.1,1.3,0,2,0.1l0.5,0.1l0,0
		c0.6,0.3,1.2,0.6,1.6,1.1C778.6,348,778.7,348.4,778.6,348.6L778.6,348.6z"/>
	<path d="M862.1,339.5c-0.4-0.1-0.6-0.3-0.8-0.7c-0.2-0.4-0.3-0.9-0.3-1.4l0,0c0-0.1,0-0.1,0-0.2c0-0.5,0-0.9,0.2-1.4
		c0.1-0.2,0.1-0.4,0.2-0.5c0.1-0.1,0.2-0.3,0.4-0.3c0.2-0.1,0.4-0.1,0.5,0c0.2,0.1,0.4,0.2,0.5,0.4c0.2,0.2,0.3,0.5,0.5,0.8
		c0.1,0.3,0.2,0.7,0.2,1c0,0.1,0,0.2,0,0.3l0,0c0,0.6-0.2,1.1-0.5,1.6C862.9,339.4,862.5,339.6,862.1,339.5L862.1,339.5z"/>
	<path d="M865.5,339.8c-0.3-0.1-0.4-0.5-0.4-1c0-0.6,0.2-1.2,0.4-1.8c0.1-0.2,0.1-0.3,0.2-0.5c0.3-0.7,0.6-1.3,1-1.9
		c0.1-0.2,0.3-0.4,0.5-0.6c0.1-0.1,0.3-0.2,0.5-0.2c0.2,0,0.4,0.1,0.5,0.3c0.1,0.2,0.2,0.5,0.3,0.8c0.1,0.4,0.1,0.8,0,1.1
		c-0.1,0.4-0.2,0.9-0.3,1.3c-0.1,0.2-0.2,0.4-0.2,0.5l0,0c-0.3,0.6-0.7,1.2-1.2,1.6C866.2,339.9,865.8,340,865.5,339.8L865.5,339.8z
		"/>
	<path class="st21" d="M817.5,386.8c-0.5,0-1,0.5-1,1c0,0.5,0.4,0.7,0.9,0.7s1-0.2,1-0.7C818.5,387.3,818.1,386.9,817.5,386.8
		L817.5,386.8z"/>
	<path class="st21" d="M814.2,391.1c-0.8,0-1.5,0.7-1.5,1.5c0,0.9,0.6,1.1,1.4,1.1s1.5-0.3,1.5-1.1
		C815.7,391.8,815,391.1,814.2,391.1L814.2,391.1z"/>
	<path class="st21" d="M820.2,392.1c-0.8,0-1.2,0.4-1.2,1.2s0.5,1,1.3,1s1.1-0.4,1.1-1.2S821,392.1,820.2,392.1L820.2,392.1z"/>
	<path class="st21" d="M841.6,390.5c-0.5,0-0.8,0.4-0.8,0.9c0,0,0,0,0,0c0,0.5,0.2,0.6,0.6,0.6s0.8-0.2,0.8-0.6
		S842,390.5,841.6,390.5L841.6,390.5z"/>
	<path class="st21" d="M846.6,387.9c-0.8,0-1.2,0.7-1.2,1.6s0.3,1.1,1.1,1.1s1.5-0.3,1.5-1.1C848.1,388.6,847.5,387.9,846.6,387.9
		L846.6,387.9z"/>
	<path class="st21" d="M845.1,393.6c-0.6,0-1.1,0.5-1.1,1.1c0,0.6,0.4,1,1,1c0.5,0,0.9-0.3,0.9-0.8c0-0.1,0-0.1,0-0.2
		C845.9,394.1,845.7,393.5,845.1,393.6L845.1,393.6z"/>
	<path d="M810.4,344.5L810.4,344.5h-0.2c-0.1,0-0.2,0-0.3-0.1c-0.2-0.1-0.4-0.2-0.5-0.4c-0.5-0.4-0.9-0.9-1.2-1.5
		c-0.2-0.2-0.3-0.5-0.4-0.7c-0.2-0.4-0.4-0.8-0.6-1.2l0,0c-0.2-0.5-0.4-0.9-0.5-1.4c-0.1-0.3-0.1-0.6,0.1-0.9c0.2-0.2,0.5-0.2,0.9,0
		c0.5,0.3,1,0.6,1.4,1.1l0,0c0.3,0.4,0.6,0.8,0.9,1.3c0.2,0.3,0.3,0.6,0.4,0.9c0.3,0.6,0.4,1.3,0.5,2c0,0.2,0,0.5-0.1,0.7l0,0
		c0,0.1-0.1,0.2-0.1,0.2l-0.1,0.1l0,0L810.4,344.5L810.4,344.5z"/>
	<path d="M813.9,342.4c-0.5,0.1-1.1-0.6-1.5-1.6l0,0c-0.1-0.2-0.2-0.5-0.3-0.7c-0.1-0.3-0.2-0.6-0.3-0.9c-0.1-0.3-0.1-0.5-0.1-0.8
		c0-0.2,0-0.4,0-0.6c0-0.2,0.1-0.3,0.2-0.5c0.1-0.1,0.3-0.2,0.5-0.1c0.3,0,0.5,0.1,0.7,0.3c0.3,0.2,0.5,0.5,0.7,0.8
		c0.4,0.6,0.7,1.3,0.8,2.1l0,0C814.7,341.4,814.4,342.3,813.9,342.4L813.9,342.4z"/>
	<path d="M826.6,371.6c0.4,0,0.8-0.1,1.1-0.1c0.5,0,1,0,1.3-0.1h0.1c0.3-0.1,0.6-0.1,0.9-0.1c0.3,0,0.7,0,1,0c0.1,0,0.2,0,0.1-0.1
		c-0.2-0.1-0.3-0.2-0.5-0.2c-0.3-0.1-0.6-0.1-0.8-0.2c-0.3,0-0.6,0-0.8,0h-0.2l-1.3,0.4c-0.3,0.1-0.7,0.2-1,0.2
		c-0.2,0-0.3,0.1-0.3,0.1S826.3,371.7,826.6,371.6L826.6,371.6z"/>
	<path d="M827.4,369c0.3,0,0.5,0,0.8,0c0.3,0,0.5,0.1,0.8,0.1l0,0c0.4-0.1,0.8-0.1,1.2-0.1c0.2,0,0-0.1-0.3-0.3
		c-0.3-0.2-0.7-0.3-1-0.3c-0.1,0-0.2,0-0.3,0l-0.9,0.2c-0.2,0.1-0.4,0.1-0.7,0.1c-0.2,0-0.2,0.1-0.2,0.1S827.2,369,827.4,369
		L827.4,369z"/>
	<path d="M829.1,370.8c0-0.9,0-3,0.1-5.5c0-2.1,0.1-4.6,0.2-6.8c0-0.9,0.1-1.7,0.1-2.5c0-0.3,0-0.6,0.1-0.8c0-0.2,0-0.3,0.1-0.5
		c0.1-0.4,0.1-0.7,0.2-1.1l0,0c0.1-0.7,0.1-1.3,0.1-1.7c0,0,0-0.1,0-0.1c0-1,0-2.6-0.1-4.4c0-1.4-0.1-3-0.3-4.6
		c-0.1-0.6-0.2-1.2-0.3-1.8c-0.1-0.4-0.2-0.9-0.4-1.3c-0.4-0.7-0.7-1.5-1.1-2.1c-0.1-0.2-0.2-0.3-0.3-0.5c-0.1-0.1-0.2-0.3-0.4-0.4
		c-0.1-0.1-0.2-0.1-0.3-0.2h-0.2l0,0c0.2,0.1,0.3,0.2,0.4,0.3c0.1,0.1,0.2,0.2,0.3,0.3c0.1,0.2,0.2,0.3,0.3,0.5
		c0.2,0.3,0.3,0.6,0.5,1s0.3,0.8,0.5,1.2c0.2,0.4,0.3,0.8,0.3,1.2c0.1,0.6,0.2,1.2,0.2,1.8c0.1,1.5,0.2,3,0.2,4.5s0,3.1-0.1,4.5l0,0
		c0,0.6,0,1.1-0.1,1.7c0,0.3,0,0.6-0.1,0.8c0,0.1,0,0.1,0,0.2l0,0c0,0.2-0.1,0.4-0.1,0.6l0,0c0,0.3,0,0.6,0,0.9l0,0
		c0,0.8,0,1.7-0.1,2.5c0,2.3,0,4.7,0,6.8c0,2.6,0,4.9,0,6.5c0,0.1,0,0.3,0,0.4c0,0.7,0,1.3,0,1.7c0,0.3,0,0.5,0,0.6c0,0,0,0.1,0,0.1
		l0,0l0,0l0,0c0,0,0-0.1,0-0.1c0-0.1,0-0.3,0-0.6c0-0.5,0-1.2,0-2.1c0-0.3,0-0.6,0-0.9L829.1,370.8z"/>
	<path class="st27" d="M830.2,401c-1.4,0.1-2.4,1.2-2.4,2.5c0,1.4,1.2,1.5,2.5,1.5s2.3,0,2.3-1.5C832.6,402.2,831.6,401.1,830.2,401
		z"/>
	<path class="st25" d="M815.2,363.8c0,0-2.8,0.3-3.7-1.5"/>
	<path class="st25" d="M843.3,364c0,0,2.8,0.3,3.7-1.5"/>
	<path d="M796.8,453.7c0.4-0.5,1.2-0.4,2,0l0.3,0.2c0.2,0.2,0.4,0.4,0.6,0.6c0.2,0.2,0.3,0.5,0.3,0.8c0.1,0.2,0.1,0.5,0,0.7
		c-0.1,0.2-0.3,0.4-0.6,0.5c-0.3,0.1-0.7,0-1-0.1c-0.3-0.1-0.6-0.3-0.9-0.5c-0.1-0.1-0.2-0.2-0.3-0.3
		C796.6,455,796.4,454.2,796.8,453.7L796.8,453.7z"/>
	<path d="M798.8,450.6c0.3-0.3,0.6-0.4,1-0.3c0.5,0.1,1.1,0.3,1.5,0.5h0.1c0.4,0.2,0.7,0.5,1,0.8c0.1,0.1,0.2,0.2,0.3,0.3
		c0.1,0.2,0.2,0.4,0.2,0.6c0,0.1,0,0.2,0,0.3c0,0.1-0.1,0.2-0.1,0.3c-0.1,0.1-0.2,0.2-0.3,0.2c-0.2,0.1-0.3,0.1-0.5,0.1
		c-0.2,0-0.3,0-0.5,0c-0.5-0.1-0.9-0.3-1.3-0.5l-0.1,0c-0.5-0.3-0.9-0.7-1.2-1.2C798.6,451.4,798.6,451,798.8,450.6z"/>
	<path d="M830.9,462.9c0.1-0.3,0.2-0.8,0.3-1.4c0.1-0.7,0.3-1.4,0.3-2.1c0.1-0.9,0.2-1.9,0.3-3.1l0,0c0.2-2,0.3-4.4,0.4-6.7l0,0
		c0-0.9,0-1.7,0-2.5c0-1.2-0.1-2.3-0.2-3.4c-0.3-3.4-0.6-6.2-0.7-7.5l-0.1-0.6c-0.2-1.8-0.6-4.4-1-7.4l0,0c-0.1-0.8-0.2-1.7-0.4-2.6
		l0,0c0-0.3-0.1-0.6-0.2-0.8s-0.1-0.3-0.1-0.5v-0.2l0,0c0-0.2,0-0.5,0-0.7c0-1,0-2,0-3c0-1.5-0.1-3-0.3-4.4c0-0.2,0-0.4-0.1-0.6
		c0-0.3-0.1-0.6-0.1-0.8s0-0.3-0.1-0.4v-0.1l0,0c0,0,0,0.1,0,0.1s0,0.2,0,0.4c0,0.3,0.1,0.8,0.1,1.3c0.1,1.5,0.2,2.9,0.1,4.4
		c0,0.9,0,1.9,0,3c0,0.2,0,0.5,0,0.7c0,0.1,0,0.1,0,0.2v0.1c0,0.2,0.1,0.3,0.1,0.5s0.1,0.5,0.1,0.8c0.1,0.8,0.2,1.7,0.3,2.6
		c0.3,2.5,0.6,5.1,0.8,7.4c0.2,1.6,0.3,3.1,0.5,4.3s0.3,2.5,0.4,3.8s0.2,2.3,0.3,3.4l0,0c0.1,0.9,0.1,1.7,0.1,2.5
		c0,2.3-0.1,4.6-0.2,6.7l0,0c-0.1,1.1-0.2,2.1-0.3,3.1c-0.1,1-0.2,2-0.5,3c-0.2,0.8-0.5,1.5-0.8,2.3l-0.3,0.6
		c-1.6,3.1-1.6,3.6,0.2,0.1C830.5,464.5,830.7,463.7,830.9,462.9L830.9,462.9z"/>
	<path d="M831.6,425.1c-0.4,0-0.8,0.1-1.1,0.1c-0.5,0-1,0-1.3,0.1H829c-0.3,0.1-0.6,0.1-0.9,0.1c-0.3,0-0.7,0-1,0
		c-0.1,0-0.2,0-0.1,0.1c0.2,0.1,0.3,0.2,0.5,0.2c0.3,0.1,0.6,0.1,0.8,0.2c0.3,0,0.6,0,0.8,0h0.2l1.3-0.4c0.3-0.1,0.7-0.2,1-0.2
		c0.2,0,0.3-0.1,0.3-0.1S831.9,425,831.6,425.1L831.6,425.1z"/>
	<path d="M830.8,423.1c-0.3,0-0.5,0-0.8,0c-0.3,0-0.5-0.1-0.8-0.1l0,0c-0.4,0.1-0.8,0.1-1.2,0.1c-0.2,0,0,0.1,0.3,0.3
		c0.3,0.2,0.7,0.3,1,0.3c0.1,0,0.2,0,0.3,0l0.9-0.2c0.2-0.1,0.4-0.1,0.7-0.1c0.2,0,0.2-0.1,0.2-0.1S831,423.1,830.8,423.1
		L830.8,423.1z"/>
	<path class="st19" d="M865.5,452.7c11.3,0,20.8,8.3,20.8,19.3c-0.1,11.1-9.2,20.1-20.4,19.9c-8.4,0-16.6-2.3-19.7-9.4
		c-1.2-3.5-1.6-7.3-1.2-11C846.5,460.6,854.3,452.8,865.5,452.7L865.5,452.7z"/>
	<path class="st23" d="M858.8,487.8c2.7,1.7,6.7,1.5,10.3,0.1c5.5-2.2,8.4-7.6,6.7-12.1s-7.2-8-12.7-5.8s-8.9,9.2-7.1,13.7
		C856.5,485.3,857.5,486.7,858.8,487.8L858.8,487.8z"/>
	<path d="M858.8,487.9c0.9,0.6,1.9,1,3,1.2c0.9,0.2,1.9,0.3,2.9,0.3c0.9,0,1.7-0.1,2.5-0.3c0.7-0.2,1.5-0.4,2.2-0.6l0,0
		c0.9-0.3,1.7-0.8,2.5-1.3c0.7-0.4,1.3-0.9,1.9-1.4c0.5-0.4,0.9-0.9,1.4-1.4c0.3-0.4,0.6-0.8,0.9-1.3c0.3-0.5,0.6-1,0.8-1.5
		c0.3-0.8,0.5-1.7,0.5-2.6c0-0.6,0-1.2-0.1-1.7c-0.1-0.6-0.3-1.2-0.5-1.8c-0.3-0.7-0.7-1.3-1.1-1.9c-0.8-1.1-1.8-2.1-3-2.8
		c-0.5-0.3-0.9-0.6-1.4-0.8l0,0c-0.4-0.2-0.9-0.4-1.3-0.5c-0.9-0.3-1.7-0.5-2.6-0.6c-0.7-0.1-1.3-0.1-2,0c-0.8,0.1-1.5,0.2-2.2,0.5
		c-0.9,0.3-1.8,0.7-2.6,1.3c-1.4,0.9-2.6,2.1-3.6,3.5c-0.3,0.4-0.6,0.9-0.8,1.4v0.1c-0.3,0.6-0.5,1.2-0.7,1.8
		c-0.2,0.8-0.4,1.7-0.5,2.5c-0.1,0.7-0.1,1.3,0,2c0.1,1.5,0.8,2.9,1.9,4c0.5,0.5,1.1,1,1.7,1.4c0.2,0.1,0.4,0.3,0.7,0.4l0,0l0,0
		c0,0-0.2-0.2-0.4-0.4c-0.3-0.2-0.5-0.5-0.8-0.8c-0.3-0.4-0.6-0.8-0.8-1.2c-0.3-0.5-0.5-1.1-0.6-1.7c-0.1-0.6-0.2-1.1-0.2-1.7
		c0-0.6,0.1-1.2,0.2-1.8c0.3-1.3,0.8-2.5,1.4-3.6c0.3-0.6,0.7-1.2,1-1.7c0.6-0.9,1.2-1.7,2-2.5c0.8-0.7,1.6-1.4,2.6-1.8
		c0.7-0.3,1.4-0.6,2.1-0.7c0.7-0.1,1.3-0.2,2-0.1c0.6,0,1.2,0.1,1.7,0.3c0.4,0.1,0.9,0.3,1.3,0.5l0.2,0.1c0.3,0.2,0.7,0.4,1,0.7
		c1,0.8,1.8,1.7,2.5,2.8c0.4,0.6,0.7,1.3,0.9,2c0.3,1.1,0.4,2.2,0.3,3.3c-0.2,1.1-0.5,2.1-1,3c-0.6,1-1.3,1.9-2.1,2.7
		c-0.4,0.4-0.9,0.8-1.3,1.2c-0.6,0.5-1.3,0.9-2,1.3c-1.1,0.5-2.2,0.9-3.3,1.2c-1.1,0.2-2.3,0.3-3.4,0.2c-0.9-0.1-1.7-0.3-2.5-0.6
		c-0.3-0.1-0.5-0.2-0.7-0.3L858.8,487.9L858.8,487.9z"/>
	<path class="st22" d="M865.5,452.7c-6.2-0.1-12.1,2.6-15.9,7.5c0.4-0.4,0.7-0.8,1.1-1.2s0.9-0.8,1.4-1.2s1-0.7,1.5-1s1-0.6,1.6-0.9
		s1.1-0.5,1.7-0.8s1.2-0.4,1.8-0.6s1.2-0.3,1.9-0.4s1.3-0.2,2-0.3s1.4-0.1,2.1-0.1s1.4,0,2.1,0.1s1.4,0.2,2,0.3s1.3,0.3,2,0.5
		s1.3,0.4,1.9,0.6s1.2,0.5,1.8,0.8s1.2,0.6,1.7,1s1.1,0.7,1.6,1.1s1,0.8,1.5,1.2s0.9,0.9,1.3,1.4s0.8,1,1.2,1.5c0.4,0.5,0.7,1,1,1.6
		c0.3,0.6,0.6,1.1,0.9,1.7c0.5,1.2,1,2.4,1.2,3.7c0.1,0.7,0.3,1.3,0.3,2c0.1,0.7,0.1,1.3,0.1,2c0,0.7,0,1.3-0.1,2
		c-0.2,2-0.7,3.9-1.5,5.7c-0.3,0.6-0.5,1.2-0.8,1.7s-0.7,1.1-1,1.6c-0.2,0.3-0.5,0.6-0.7,0.9c3.3-3.6,5.1-8.3,5.1-13.1
		C886.2,461,876.7,452.7,865.5,452.7L865.5,452.7z"/>
	<path class="st20" d="M848.4,462.2c-1.7,2.8-2.8,6-3.3,9.3c-0.4,3.7,0.1,7.5,1.3,11c3.1,7.1,11.3,9.4,19.7,9.4
		c7.9,0,15.1-4.5,18.5-11.6c-0.2,0.3-0.3,0.6-0.5,0.8c-0.4,0.5-0.8,1-1.2,1.5s-0.8,1-1.3,1.4s-0.9,0.9-1.5,1.3s-1,0.8-1.6,1.1
		s-1.1,0.7-1.7,1s-1.2,0.6-1.8,0.8s-1.2,0.5-1.9,0.7s-1.3,0.4-2,0.5s-1.3,0.2-2,0.3s-1.4,0.1-2.1,0.1c-1,0-2.1,0-3.1-0.1
		s-2.1-0.2-3-0.4c-1-0.2-2-0.4-2.9-0.6c-0.9-0.3-1.8-0.6-2.7-0.9c-0.9-0.4-1.7-0.8-2.5-1.3c-0.4-0.2-0.8-0.5-1.1-0.8s-0.7-0.6-1-0.9
		c-0.4-0.3-0.7-0.6-1-1c-0.6-0.7-1.2-1.4-1.6-2.2c-0.2-0.4-0.4-0.8-0.6-1.3c-0.3-0.7-0.5-1.5-0.7-2.3c-0.2-1-0.4-2-0.5-3
		c-0.1-1-0.2-2.1-0.2-3.1c0-0.9,0-1.8,0.1-2.7c0.1-0.7,0.2-1.4,0.4-2s0.3-1.3,0.5-1.9s0.4-1.2,0.6-1.8S848.2,462.6,848.4,462.2
		L848.4,462.2z"/>
	<path d="M865.9,452.7c1.5,0,2.9,0.1,4.3,0.5c1.3,0.3,2.6,0.7,3.8,1.3c2.2,0.9,4.1,2.3,5.8,3.9l0,0c1.1,1.1,2.1,2.3,2.9,3.7
		c0.7,1.2,1.3,2.4,1.7,3.7c0.4,1.1,0.7,2.2,0.8,3.4c0.1,1,0.2,2,0.2,3l0,0c0,0.9-0.1,1.8-0.3,2.8c-0.1,0.8-0.3,1.5-0.6,2.3
		c-0.4,1.2-0.9,2.4-1.5,3.5c-0.4,0.8-0.9,1.5-1.3,2.2c-1.4,1.9-3,3.6-5,4.9c-1.1,0.7-2.2,1.4-3.4,1.9c-1.2,0.5-2.5,0.9-3.8,1.2
		c-1.2,0.3-2.5,0.4-3.7,0.5c-1.5,0-2.9,0-4.4-0.1c-1.3-0.1-2.3-0.3-2.9-0.4c-0.6-0.1-1.2-0.3-1.8-0.4c-0.9-0.3-1.7-0.6-2.5-0.9
		c-1.6-0.7-3.1-1.7-4.4-2.9c-1.3-1.2-2.3-2.7-2.9-4.3c-0.3-0.7-0.5-1.4-0.6-2.2c-0.2-1-0.3-1.9-0.4-2.9c-0.1-1-0.1-2-0.1-3
		c0-0.9,0.1-1.7,0.2-2.6c0.2-0.9,0.4-1.8,0.6-2.7c0.2-0.8,0.4-1.4,0.5-1.9c0.4-1.4,1-2.7,1.7-4c0.9-1.7,2.1-3.3,3.5-4.7
		c0.8-0.8,1.7-1.6,2.7-2.3c1-0.7,2-1.3,3.1-1.8c1-0.5,2.1-0.9,3.2-1.2c1-0.3,2.1-0.5,3.2-0.6c0.9-0.1,1.3-0.1,1.4-0.1l0,0l0,0
		c-0.5-0.1-1-0.1-1.5-0.1c-1.2,0-2.3,0.2-3.5,0.4c-1.6,0.3-3.2,0.8-4.7,1.5c-1.8,0.8-3.4,1.8-4.9,3c-1.1,0.9-2.1,2-2.9,3.1
		c-0.9,1.1-1.6,2.3-2.2,3.6c-0.6,1.2-1.1,2.4-1.4,3.6c-0.3,1.1-0.6,2.2-0.7,3.3c0,0.2,0,0.3-0.1,0.5c-0.2,2-0.1,4,0.3,6
		c0.1,1,0.3,2,0.6,3l0,0c0.2,0.8,0.5,1.6,0.8,2.4c0.8,1.7,2,3.3,3.5,4.5l0,0c1.4,1.2,3.1,2.2,4.8,2.9c1.2,0.5,2.5,0.9,3.7,1.1
		c1.1,0.3,2.1,0.4,3,0.6c0.5,0.1,1.3,0.2,2.1,0.3s1.9,0.2,3.1,0.2c1.2,0,2.4,0,3.5-0.2c2.8-0.4,5.4-1.3,7.8-2.8
		c1.3-0.8,2.5-1.7,3.6-2.7c1.1-1.1,2.1-2.3,3-3.6c0.8-1.3,1.5-2.6,2-4c0.5-1.2,0.8-2.5,1-3.8c0.2-1.1,0.3-2.2,0.2-3.3
		c0-0.5,0-1-0.1-1.4c-0.1-1-0.3-1.9-0.5-2.8c-0.7-2.5-1.8-4.8-3.3-6.8c-0.8-1.1-1.8-2.2-2.8-3.1c-1.5-1.3-3.1-2.3-4.9-3.1
		c-1.5-0.7-3.1-1.2-4.8-1.5c-1.2-0.2-2.3-0.3-3.5-0.4C866.4,452.7,865.9,452.7,865.9,452.7L865.9,452.7z"/>
	<path class="st28" d="M858.7,456.9c-1,1-1.1,2.7-0.8,4.4c0.4,2.6,2.1,4.4,4.3,4c2.4-0.4,4-2.7,3.6-5.1c-0.4-2.6-3-4.7-5.2-4.3
		C859.8,456,859.2,456.3,858.7,456.9L858.7,456.9z"/>
	<path class="st28" d="M871.3,456.9c-1.2,0.4-1.9,1.7-2.4,3.1c-0.7,2.2-0.1,4.3,1.7,4.9c2.1,0.6,4.2-0.5,4.9-2.5
		c0.7-2.2-0.5-4.9-2.3-5.5C872.6,456.7,871.9,456.7,871.3,456.9L871.3,456.9z"/>
	<path class="st28" d="M879.6,463.5c-1.1,0.5-1.9,1.4-2.2,2.6c-0.7,1.9-0.3,3.7,1.2,4.3c1.7,0.6,3.7-0.2,4.4-1.9
		c0.7-1.9-0.2-4.3-1.7-4.9C880.7,463.4,880.1,463.3,879.6,463.5z"/>
	<path class="st19" d="M799.3,458.2c-11-0.3-20.2,8.3-20.6,19.3c-0.3,11,8.3,20.2,19.3,20.6c0.4,0,0.8,0,1.3,0
		c8.4,0,16.6-2.3,19.7-9.4c1-2.4,1.6-9.7,1-12.5C817.9,465.3,810.6,458.2,799.3,458.2L799.3,458.2z"/>
	<path class="st23" d="M807,493.5c-3.1,1.7-6.8,1.9-10,0.5c-5.5-2.2-8.4-7.6-6.7-12.1s7.2-8,12.7-5.8s8.9,9.2,7.1,13.7
		C809.5,491.4,808.4,492.6,807,493.5L807,493.5z"/>
	<path class="st20" d="M783.5,465.6c-2.9,3.5-4.6,8-4.5,12.5c0.1,11.1,9.2,20.1,20.4,19.9c0,0,0,0,0,0c7.8,0,15.3-2,18.9-7.9v0.1
		c-0.3,0.4-0.6,0.7-1,1c-0.3,0.3-0.7,0.6-1,0.9s-0.7,0.5-1.1,0.8c-0.8,0.5-1.6,0.9-2.5,1.3c-0.9,0.4-1.8,0.7-2.7,1
		c-1,0.3-1.9,0.5-2.9,0.6c-1,0.2-2,0.3-3,0.4s-2.1,0.1-3.1,0.1c-0.7,0-1.4,0-2.1-0.1s-1.4-0.2-2-0.3s-1.3-0.3-2-0.5
		s-1.3-0.4-1.9-0.7s-1.2-0.5-1.8-0.8s-1.1-0.6-1.7-1s-1.1-0.7-1.6-1.1s-1-0.8-1.5-1.3s-0.9-0.9-1.3-1.4s-0.8-1-1.2-1.5
		s-0.7-1.1-1-1.6s-0.6-1.1-0.9-1.7c-0.8-1.8-1.3-3.7-1.5-5.7c-0.1-1.4-0.1-2.7,0-4.1c0.2-2,0.7-3.9,1.5-5.7c0.3-0.6,0.5-1.2,0.9-1.7
		C783.1,466.4,783.3,466,783.5,465.6L783.5,465.6z"/>
	<path d="M799.3,457.5c-1.5,0-3.1,0.2-4.6,0.5c-1.4,0.3-2.7,0.8-4,1.3c-2.3,1-4.4,2.4-6.2,4.2l0,0c-1.2,1.2-2.2,2.5-3.1,3.9
		c-0.8,1.2-1.4,2.5-1.9,3.9c-0.4,1.2-0.8,2.4-1,3.6c-0.2,1.1-0.3,2.1-0.3,3.2l0,0c0,1,0,2,0.2,3c0.1,0.9,0.3,1.7,0.5,2.6
		c0.4,1.4,0.9,2.7,1.5,4c0.4,0.8,0.9,1.6,1.5,2.4c0.7,1,1.5,1.9,2.4,2.8c1,0.9,2,1.8,3.2,2.5c2.4,1.5,5.1,2.5,7.9,3
		c1.3,0.2,2.7,0.3,4,0.3c1.5,0,3.1-0.2,4.6-0.4c1.3-0.2,2.3-0.4,3-0.6c0.4-0.1,1.1-0.3,1.8-0.5c0.9-0.2,1.8-0.5,2.6-0.9
		c1.8-0.7,3.4-1.7,4.9-2.9c1.5-1.3,2.7-2.8,3.5-4.6c0.4-0.9,0.6-1.8,0.8-2.7c0.3-1.2,0.4-2.4,0.5-3.6s0.2-2.5,0.2-3.7l0,0
		c0-1,0-2-0.2-3c-0.2-1.2-0.6-2.5-1-3.7c-0.6-1.6-1.3-3.1-2.2-4.5c-1.2-2-2.6-3.7-4.3-5.2c-0.9-0.8-1.9-1.4-3-2
		c-1-0.6-2.1-1.1-3.3-1.4c-1.1-0.4-2.2-0.7-3.4-0.9c-1.1-0.2-2.1-0.3-3.2-0.3c-0.5,0-0.8,0-1.1,0c-0.1,0-0.3,0-0.5,0l0,0l0,0
		c0.1,0,0.7,0.1,1.5,0.2c1.1,0.1,2.2,0.3,3.3,0.6c1.5,0.4,2.9,1,4.3,1.7c1.6,0.9,3,1.9,4.2,3.2c0.9,0.9,1.7,1.9,2.4,3
		c0.7,1.1,1.3,2.2,1.8,3.3c0.9,2.1,1.6,4.2,2.1,6.4c0.1,0.2,0.1,0.5,0.1,0.7c0.1,0.6,0.1,1.2,0.2,1.9c0.1,1.2,0,2.3,0,3.5
		s-0.1,2.3-0.3,3.5c-0.1,0.8-0.3,1.7-0.5,2.5c-0.7,1.7-1.7,3.2-2.9,4.4l0,0c-1.3,1.3-2.8,2.3-4.5,3c-1.2,0.5-2.3,0.9-3.6,1.2
		c-1,0.2-1.9,0.4-2.9,0.5c-0.5,0.1-1.3,0.1-2.2,0.2s-1.9,0-3.1,0c-1.1,0-2.3-0.2-3.4-0.4c-2.6-0.5-5.1-1.5-7.3-3
		c-1.2-0.8-2.2-1.6-3.2-2.6c-1-1-1.9-2.2-2.7-3.4c-1.3-2.2-2.3-4.6-2.7-7.2c-0.2-1-0.3-2-0.3-3c0-0.5,0-0.9,0-1.3
		c0-0.9,0.1-1.8,0.3-2.7c0.2-1.1,0.5-2.2,0.8-3.3c0.4-1.2,1-2.4,1.6-3.5c0.7-1.2,1.5-2.3,2.5-3.3c1.3-1.4,2.9-2.7,4.6-3.7
		c1.5-0.9,3.1-1.6,4.7-2.1c1.2-0.4,2.4-0.6,3.6-0.7C798.8,457.5,799.3,457.5,799.3,457.5L799.3,457.5z"/>
	<path d="M806.6,492.9c-0.8,0.5-1.7,0.9-2.7,1.1c-0.8,0.2-1.7,0.3-2.6,0.3c-0.8,0-1.5-0.1-2.3-0.3c-0.7-0.2-1.3-0.4-1.9-0.6
		c-0.8-0.3-1.5-0.8-2.2-1.3c-0.6-0.4-1.1-0.9-1.5-1.4c-0.4-0.4-0.7-0.8-1-1.3c-0.2-0.4-0.5-0.8-0.7-1.1c-0.2-0.4-0.4-0.8-0.5-1.3
		c-0.2-0.7-0.4-1.4-0.4-2.1c-0.1-0.9,0-1.9,0.3-2.8c0.2-0.6,0.5-1.2,0.8-1.7c0.3-0.5,0.7-1,1.1-1.5c0.4-0.4,0.8-0.8,1.3-1.2
		c0.4-0.3,0.8-0.6,1.2-0.9c0.4-0.2,0.7-0.4,1.1-0.6c0.3-0.1,0.6-0.2,1-0.3c0.5-0.1,1-0.2,1.5-0.2c0.6,0,1.2,0,1.8,0.2
		c0.7,0.1,1.3,0.3,1.9,0.6c0.8,0.4,1.5,0.8,2.1,1.4c0.6,0.5,1.2,1.1,1.7,1.7c0.4,0.5,0.8,1.1,1.1,1.6c0.3,0.5,0.5,0.9,0.7,1.2l0,0
		c0.3,0.5,0.5,1,0.7,1.5c0.3,0.7,0.5,1.4,0.6,2.1c0.1,0.6,0.1,1.1,0.1,1.7c0,0.6-0.2,1.1-0.3,1.7c-0.2,0.7-0.5,1.3-0.9,1.8
		c-0.3,0.5-0.8,1-1.2,1.4c-0.3,0.3-0.4,0.4-0.5,0.4l0,0l0,0c0.2,0,0.3-0.1,0.4-0.2c0.3-0.2,0.6-0.4,0.9-0.6c0.4-0.3,0.8-0.6,1.2-1
		c0.4-0.5,0.8-1,1.2-1.5c0.3-0.6,0.6-1.2,0.7-1.9c0.1-0.7,0.2-1.4,0.2-2.1c0-0.8-0.1-1.6-0.3-2.3c-0.2-0.7-0.4-1.4-0.8-2.1
		c-0.3-0.7-0.7-1.3-1.2-1.9c-0.8-0.9-1.7-1.8-2.7-2.5c-1-0.7-2-1.2-3.2-1.6c-0.8-0.3-1.6-0.4-2.4-0.5c-0.7,0-1.5,0-2.2,0.1
		c-0.6,0.1-1.2,0.2-1.8,0.4c-0.5,0.2-1,0.4-1.4,0.5l-0.2,0.1c-1.6,0.7-3.1,1.9-4.2,3.3c-0.5,0.7-0.9,1.4-1.3,2.1
		c-0.3,0.6-0.5,1.3-0.6,1.9c-0.1,0.7-0.1,1.3-0.1,2c0.1,1.3,0.5,2.5,1.1,3.6c0.4,0.7,0.8,1.3,1.3,1.9c0.4,0.4,0.8,0.8,1.3,1.2
		c0.5,0.4,1.1,0.8,1.7,1.1c0.8,0.4,1.6,0.7,2.4,1c1.2,0.3,2.4,0.5,3.6,0.5c1.1,0,2.2-0.2,3.3-0.5c0.8-0.2,1.5-0.6,2.2-1
		c0.3-0.2,0.5-0.3,0.8-0.5L806.6,492.9z"/>
	<path class="st28" d="M806.8,462.8c1,0.8,1.3,2.4,1.3,4c-0.1,2.5-1.5,4.4-3.5,4.3c-2.3-0.1-4.1-2.1-4.1-4.4
		c0.1-2.5,2.3-4.8,4.4-4.7C805.6,462.1,806.2,462.3,806.8,462.8L806.8,462.8z"/>
	<path class="st28" d="M794.8,463c1.2,0.4,1.9,1.7,2.4,3.1c0.7,2.2,0.1,4.3-1.7,4.9c-2.1,0.6-4.2-0.5-4.9-2.5
		c-0.7-2.2,0.5-4.9,2.3-5.5C793.5,462.8,794.1,462.8,794.8,463L794.8,463z"/>
	<path class="st28" d="M786.2,469.4c1.2,0.4,2.1,1.3,2.5,2.5c0.9,1.9,0.6,3.8-0.9,4.5c-1.7,0.8-3.8,0.1-4.7-1.6
		c-0.9-1.9-0.1-4.4,1.4-5.2C785,469.4,785.6,469.3,786.2,469.4L786.2,469.4z"/>
	<path d="M790.3,455.7h0.1h0.1h0.2c0.2,0,0.3,0.1,0.5,0.1c0.3,0.2,0.6,0.4,0.9,0.8c0.1,0.1,0.1,0.2,0.2,0.3c0.1,0.2,0.3,0.5,0.3,0.8
		c0.1,0.3,0.1,0.6,0,0.8c0,0.2-0.2,0.5-0.3,0.6c-0.2,0.2-0.5,0.2-0.7,0.2c-0.3-0.1-0.6-0.2-0.9-0.5c-0.2-0.2-0.5-0.5-0.6-0.8
		c-0.1-0.1-0.1-0.2-0.2-0.4c-0.2-0.4-0.2-0.8-0.2-1.2c0-0.2,0.1-0.3,0.2-0.5c0-0.1,0.1-0.1,0.2-0.2l0.1-0.1L790.3,455.7L790.3,455.7
		z"/>
	<path class="st24" d="M830.1,458.4L830.1,458.4l0.3,0.3l0.4,0.4l0.4,0.4c0.1,0.1,0.1,0.1,0.2,0.2c0,0.1,0.1,0.1,0.1,0.2l0.1,0.2
		c0.1,0.1,0.2,0.2,0.3,0.3c0.3,0.2,0.5,0.5,0.7,0.7c0,0.1,0.1,0.1,0.1,0c0-0.1,0-0.2,0-0.3c-0.1-0.3-0.2-0.6-0.4-0.9
		c0-0.1-0.1-0.2-0.1-0.4c-0.1-0.1-0.2-0.3-0.3-0.4l0,0c-0.1-0.1-0.2-0.1-0.3-0.2l-0.5-0.2c-0.3-0.1-0.5-0.3-0.8-0.5l-0.2-0.1
		l-0.1-0.1H830c0,0,0,0-0.1,0c0,0,0,0,0,0.1c0,0,0,0.1,0,0.1C830,458.2,830,458.3,830.1,458.4L830.1,458.4z"/>
	<path d="M830.2,458.2L830.2,458.2c0.3,0.3,0.6,0.6,0.8,0.9c0.2,0.2,0.4,0.5,0.6,0.7c0.1,0.1,0.2,0.2,0.4,0.3s0.3,0.3,0.4,0.4
		c0.1,0.1,0.2,0.3,0.3,0.4c0,0.1,0.1,0.1,0.1,0c0-0.1,0-0.2,0-0.3c0-0.2-0.1-0.3-0.1-0.5c-0.1-0.2-0.2-0.3-0.3-0.5
		c-0.1-0.2-0.3-0.5-0.5-0.6l-0.5-0.4c-0.4-0.3-0.7-0.5-1-0.7l-0.2-0.1l-0.1-0.1H830l0,0c0,0,0,0,0,0l0,0c0,0,0,0.1,0,0.1
		C830,458,830.1,458.1,830.2,458.2L830.2,458.2z"/>
	<path d="M830.2,460.8L830.2,460.8c0.1-0.1,0.5-0.4,0.9-0.7c0.3-0.2,0.5-0.4,0.7-0.6l0.4-0.6c0.2-0.3,0.4-0.5,0.5-0.8s0-0.1-0.1-0.1
		c-0.2,0.1-0.3,0.2-0.5,0.3c-0.2,0.1-0.4,0.3-0.6,0.4c-0.2,0.1-0.3,0.3-0.5,0.5l-0.4,0.5c-0.2,0.3-0.4,0.6-0.7,0.9l-0.1,0.1
		c0,0-0.1,0.1-0.1,0.1c0,0,0,0.1,0,0.1l0,0l0,0l0,0h0.1C830,460.9,830.1,460.8,830.2,460.8L830.2,460.8z"/>
</g>
</svg>
