<?xml version="1.0" encoding="UTF-8" standalone="no"?>
<!-- Generator: Adobe Illustrator 20.0.0, SVG Export Plug-In . SVG Version: 6.00 Build 0)  -->

<svg
   xmlns:dc="http://purl.org/dc/elements/1.1/"
   xmlns:cc="http://creativecommons.org/ns#"
   xmlns:rdf="http://www.w3.org/1999/02/22-rdf-syntax-ns#"
   xmlns:svg="http://www.w3.org/2000/svg"
   xmlns="http://www.w3.org/2000/svg"
   xmlns:xlink="http://www.w3.org/1999/xlink"
   xmlns:sodipodi="http://sodipodi.sourceforge.net/DTD/sodipodi-0.dtd"
   xmlns:inkscape="http://www.inkscape.org/namespaces/inkscape"
   version="1.1"
   id="svg16054"
   inkscape:version="0.91 r13725"
   sodipodi:docname="quiz9.svg"
   x="0px"
   y="0px"
   viewBox="0 0 2125.9999 1187"
   xml:space="preserve"
   width="2126"
   height="1187"><metadata
     id="metadata388"><rdf:RDF><cc:Work
         rdf:about=""><dc:format>image/svg+xml</dc:format><dc:type
           rdf:resource="http://purl.org/dc/dcmitype/StillImage" /><dc:title></dc:title></cc:Work></rdf:RDF></metadata><style
     type="text/css"
     id="style3">
	.st0{fill:#FFFFFF;}
	.st1{fill:#6B3C1F;stroke:#000000;}
	.st2{fill:#6B3C1F;stroke:#000000;stroke-linejoin:round;}
	.st3{fill:url(#SVGID_1_);stroke:#000000;}
	.st4{fill:#8D5027;stroke:#000000;}
	.st5{fill:url(#SVGID_2_);stroke:#000000;}
	.st6{fill:url(#SVGID_3_);stroke:#000000;}
	.st7{fill:#D28C5F;stroke:#000000;}
	.st8{fill:url(#SVGID_4_);stroke:#000000;}
	.st9{fill:url(#SVGID_5_);stroke:#000000;}
	.st10{fill:url(#SVGID_6_);stroke:#000000;}
	.st11{fill:url(#SVGID_7_);stroke:#000000;}
	.st12{fill:url(#SVGID_8_);stroke:#000000;stroke-width:1.02;}
	.st13{fill:url(#SVGID_9_);stroke:#000000;}
	.st14{fill:#855B3E;}
	.st15{fill:none;stroke:#000000;stroke-width:1.02;}
	.st16{fill:#A05B2B;stroke:#000000;stroke-width:1.02;}
	.st17{fill:#6C5353;stroke:#000000;stroke-width:1.02;}
	.st18{fill:#906F6F;stroke:#000000;stroke-width:1.02;}
	.st19{fill:none;stroke:#000000;}
	.st20{fill:#A06121;}
	.st21{fill:#6E4A25;}
	.st22{fill:#956C45;stroke:#000000;stroke-width:3;}
	.st23{fill:#B8854F;}
	.st24{fill:#834317;}
	.st25{fill:#5D381E;}
	.st26{fill:none;stroke:#000000;stroke-width:5;}
	.st27{fill:#DDCEBE;}
	.st28{stroke:#000000;stroke-width:5;}
	.st29{fill:#834317;stroke:#000000;stroke-width:3;}
	.st30{fill:url(#SVGID_10_);}
	.st31{fill:url(#SVGID_11_);}
	.st32{fill:#BEBA10;}
	.st33{fill:#6D1245;}
	.st34{fill:#C83D17;}
	.st35{fill:#F1C700;}
	.st36{fill:#E78700;}
	.st37{opacity:0.33;fill:#D99B17;enable-background:new    ;}
	.st38{fill:url(#SVGID_12_);}
</style><defs
     id="defs5"><inkscape:path-effect
       effect="spiro"
       id="path-effect5341"
       is_visible="true" /><inkscape:path-effect
       effect="spiro"
       id="path-effect17606"
       is_visible="true" /><inkscape:path-effect
       effect="spiro"
       id="path-effect16830"
       is_visible="true" /><inkscape:path-effect
       effect="spiro"
       id="path-effect16826"
       is_visible="true" /><inkscape:path-effect
       effect="spiro"
       id="path-effect16822"
       is_visible="true" /><inkscape:path-effect
       effect="spiro"
       id="path-effect16818"
       is_visible="true" /><inkscape:path-effect
       effect="spiro"
       id="path-effect16814"
       is_visible="true" /><inkscape:path-effect
       effect="spiro"
       id="path-effect16810"
       is_visible="true" /><inkscape:path-effect
       effect="spiro"
       id="path-effect16806"
       is_visible="true" /><inkscape:path-effect
       effect="spiro"
       id="path-effect16802"
       is_visible="true" /><inkscape:path-effect
       effect="spiro"
       id="path-effect16798"
       is_visible="true" /><inkscape:path-effect
       effect="spiro"
       id="path-effect16794"
       is_visible="true" /><inkscape:path-effect
       effect="spiro"
       id="path-effect16790"
       is_visible="true" /><inkscape:path-effect
       effect="spiro"
       id="path-effect16786"
       is_visible="true" /><inkscape:path-effect
       effect="spiro"
       id="path-effect16782"
       is_visible="true" /><inkscape:path-effect
       effect="spiro"
       id="path-effect16778"
       is_visible="true" /><inkscape:path-effect
       effect="spiro"
       id="path-effect16774"
       is_visible="true" /></defs><sodipodi:namedview
     bordercolor="#666666"
     borderlayer="true"
     borderopacity="1.0"
     fit-margin-bottom="0"
     fit-margin-left="0"
     fit-margin-right="0"
     fit-margin-top="0"
     id="base"
     inkscape:current-layer="svg16054"
     inkscape:cx="903.30353"
     inkscape:cy="448.34105"
     inkscape:document-units="cm"
     inkscape:pageopacity="0.0"
     inkscape:pageshadow="2"
     inkscape:window-height="744"
     inkscape:window-maximized="1"
     inkscape:window-width="1366"
     inkscape:window-x="0"
     inkscape:window-y="24"
     inkscape:zoom="0.35"
     pagecolor="#ffffff"
     showgrid="false"
     units="cm" /><g
     id="layer2"
     inkscape:groupmode="layer"
     inkscape:label="background"
     transform="translate(0,237.40002)"><rect
       id="rect4177"
       y="-241.83704"
       class="st0"
       width="2146.4292"
       height="1191.437"
       x="0"
       style="fill:#ffffff" /></g><g
     id="g27"
     transform="matrix(1.5,0,0,1.5,-250.46788,-125.55992)">
     <!-- <image
       sodipodi:absref="/home/daniel/Projects/L2TOR_project/freeplay-sandbox/qt-gui/res/F00496F4.png"
       xlink:href="F00496F4.png"
       id="image29"
       transform="matrix(0.9968,0,0,0.9979,696,220)"
       height="481"
       width="308"
       style="overflow:visible;opacity:0.75;enable-background:new" /> -->
       <polygon
       class="st1"
       points="929.8,478.1 922.2,478.1 919.1,483.9 928.9,569.2 936.3,613.6 943.7,649.5 953.7,649.1 953.5,638.4 945.9,573.2 936.5,513.4 "
       id="polygon31"
       style="fill:#6b3c1f;stroke:#000000" /><polygon
       class="st2"
       points="807.8,630.3 813.3,565.7 817.7,520.9 818.3,490.6 805.1,490.6 799.4,558.8 796.9,611.2 796,629.4 "
       id="polygon33"
       style="fill:#6b3c1f;stroke:#000000;stroke-linejoin:round" /><g
       id="g8412"><linearGradient
         id="SVGID_1_"
         gradientUnits="userSpaceOnUse"
         x1="1305.8522"
         y1="782.30701"
         x2="1402.0522"
         y2="751.45697"
         gradientTransform="translate(-601.88,-192.22)"><stop
           offset="0"
           style="stop-color:#8D5027"
           id="stop37" /><stop
           offset="1"
           style="stop-color:#6B3C1F"
           id="stop39" /></linearGradient><path
         class="st3"
         d="M 720.1,590.9 808.8,562 c 0.8,-1.7 0.9,-3.7 0.4,-5.5 -1,-2.9 -4.6,-2.9 -4.6,-2.9 l -37.6,10.3 -49.2,18 2.3,9 z"
         id="path41"
         inkscape:connector-curvature="0"
         style="fill:url(#SVGID_1_);stroke:#000000" /><path
         class="st4"
         d="m 772.5,564.9 c 0,0 45.7,2.6 68.6,4.6 22.9,2 72.8,9.5 72.8,9.5 l -3.5,3.3 0.9,4.2 c 0,0 -45.8,-2.5 -69,-4.5 -23.2,-2 -70.5,-9 -70.5,-9 -0.8,-1.2 -1.3,-2.7 -1.4,-4.1 0,-2.1 2.1,-4 2.1,-4 l 0,0 z"
         id="path43"
         inkscape:connector-curvature="0"
         style="fill:#8d5027;stroke:#000000" /><linearGradient
         id="SVGID_2_"
         gradientUnits="userSpaceOnUse"
         x1="1294.1635"
         y1="789.58588"
         x2="1365.4835"
         y2="747.09589"
         gradientTransform="translate(-427.34,-177.79)"><stop
           offset="0"
           style="stop-color:#C28156"
           id="stop46" /><stop
           offset="1"
           style="stop-color:#6B3C1F"
           id="stop48" /></linearGradient><path
         class="st5"
         d="m 891.2,603.7 48.5,-30.9 c 0.8,-1.7 0.9,-3.7 0.4,-5.5 -1,-2.9 -4.6,-2.9 -4.6,-2.9 -9.2,5.9 -12.2,7.8 -20,12.5 -7.8,4.7 -26.8,15.7 -26.8,15.7 l 2.5,11.1 z"
         id="path50"
         inkscape:connector-curvature="0"
         style="fill:url(#SVGID_2_);stroke:#000000" /></g><linearGradient
       id="SVGID_3_"
       gradientUnits="userSpaceOnUse"
       x1="1299.1405"
       y1="770.85571"
       x2="1325.9905"
       y2="774.08569"
       gradientTransform="translate(-601.88,-192.22)"><stop
         offset="0"
         style="stop-color:#492A16"
         id="stop53" /><stop
         offset="0.49"
         style="stop-color:#D28C5F"
         id="stop55" /><stop
         offset="1"
         style="stop-color:#593219"
         id="stop57" /></linearGradient><polyline
       class="st6"
       points="707.2,680.6 697.2,679.5 705.6,578.1 717.3,481.1 730.6,481.7 727.4,545.5 719.8,606.1 711,678.7     "
       id="polyline59"
       style="fill:url(#SVGID_3_);stroke:#000000" /><g
       id="g8390"><path
         class="st7"
         d="m 810.2,247.5 c 0,0 62.1,5 75.3,5.8 13.2,0.8 80.6,-0.4 80.6,-0.4 l -6,34.6 c 0,0 -67.3,0.6 -75.3,0 -8,-0.6 -75.5,-6.2 -75.5,-6.2 l -0.6,-34.1 1.5,0.3 z"
         id="path62"
         inkscape:connector-curvature="0"
         style="fill:#d28c5f;stroke:#000000" /><linearGradient
         id="SVGID_4_"
         gradientUnits="userSpaceOnUse"
         x1="1435.7303"
         y1="560.02759"
         x2="1447.6504"
         y2="560.34747"
         gradientTransform="translate(-601.88,-192.22)"><stop
           offset="0"
           style="stop-color:#693B1D"
           id="stop65" /><stop
           offset="0.49"
           style="stop-color:#D28C5F"
           id="stop67" /><stop
           offset="1"
           style="stop-color:#563117"
           id="stop69" /></linearGradient><path
         class="st8"
         d="m 834.2,451.2 c 0,0 1.3,-76.5 1.3,-88.9 0,-12.4 3.8,-79.4 3.8,-79.4 l 4.9,0.5 c 0,0 -1.2,82.5 -1.2,97.3 0,14.8 -2,71.1 -2,71.1 -1,0.5 -2.2,0.8 -3.3,0.9 -1.3,-0.2 -2.5,-0.7 -3.5,-1.5 l 0,0 z"
         id="path71"
         inkscape:connector-curvature="0"
         style="fill:url(#SVGID_4_);stroke:#000000" /><linearGradient
         id="SVGID_5_"
         gradientUnits="userSpaceOnUse"
         x1="1459.851"
         y1="562.13861"
         x2="1475.5709"
         y2="563.42859"
         gradientTransform="translate(-601.88,-192.22)"><stop
           offset="0"
           style="stop-color:#492A16"
           id="stop74" /><stop
           offset="0.49"
           style="stop-color:#D28C5F"
           id="stop76" /><stop
           offset="1"
           style="stop-color:#5B3319"
           id="stop78" /></linearGradient><path
         class="st9"
         d="m 856,453.3 c 0,0 3.7,-63 5.3,-77.8 1.6,-14.8 8.8,-89.6 8.8,-89.6 l 5,0.5 -0.3,3.5 c 0,0 -4.5,87.2 -6.6,111.1 -2.1,23.9 -4.9,53.5 -4.9,53.5 -1.4,0.4 -2.8,0.6 -4.3,0.5 -1,-0.4 -2,-1 -3,-1.7 l 0,0 z"
         id="path80"
         inkscape:connector-curvature="0"
         style="fill:url(#SVGID_5_);stroke:#000000" /><linearGradient
         id="SVGID_6_"
         gradientUnits="userSpaceOnUse"
         x1="1487.7596"
         y1="563.11267"
         x2="1501.1296"
         y2="564.72278"
         gradientTransform="translate(-601.88,-192.22)"><stop
           offset="0"
           style="stop-color:#5D351A"
           id="stop83" /><stop
           offset="0.49"
           style="stop-color:#D28C5F"
           id="stop85" /><stop
           offset="1"
           style="stop-color:#673A1C"
           id="stop87" /></linearGradient><path
         class="st10"
         d="m 882.5,456.6 c -2.4,-0.5 -3,-1.5 -3,-1.5 0,0 5.7,-55.3 6.9,-65.9 1.2,-10.6 13.6,-102.3 13.6,-102.3 l 4.4,0.2 c 0,0 -8.9,89.7 -11.3,112.3 -2.4,22.6 -6.6,56.4 -6.6,56.4 -1.1,0.8 -2.6,1.1 -4,0.8 l 0,0 z"
         id="path89"
         inkscape:connector-curvature="0"
         style="fill:url(#SVGID_6_);stroke:#000000" /><linearGradient
         id="SVGID_7_"
         gradientUnits="userSpaceOnUse"
         x1="1515.0898"
         y1="564.02173"
         x2="1528.4598"
         y2="565.9317"
         gradientTransform="translate(-601.88,-192.22)"><stop
           offset="0"
           style="stop-color:#5D351A"
           id="stop92" /><stop
           offset="0.49"
           style="stop-color:#D28C5F"
           id="stop94" /><stop
           offset="1"
           style="stop-color:#5D351A"
           id="stop96" /></linearGradient><path
         class="st11"
         d="m 906.6,459 c -1.1,-0.6 -2.1,-1.3 -3.1,-2.1 0,0 7.2,-53 9.3,-64.1 2.1,-11.1 17,-106.1 17,-106.1 l 4.3,-0.1 c 0,0 -12.7,101.7 -14.8,119.8 -2.1,18.1 -7.7,52.1 -7.7,52.1 0,0 -3.5,1.2 -5,0.5 l 0,0 z"
         id="path98"
         inkscape:connector-curvature="0"
         style="fill:url(#SVGID_7_);stroke:#000000" /><linearGradient
         id="SVGID_8_"
         gradientUnits="userSpaceOnUse"
         x1="1548.146"
         y1="534.03809"
         x2="1564.606"
         y2="537.69818"
         gradientTransform="translate(-601.88,-192.22)"><stop
           offset="0"
           style="stop-color:#563117"
           id="stop101" /><stop
           offset="0.47"
           style="stop-color:#D28C5F"
           id="stop103" /><stop
           offset="1"
           style="stop-color:#4F2D17"
           id="stop105" /></linearGradient><path
         class="st12"
         d="m 927.4,458.8 c 0,0 11.8,-71.6 12,-73 0.2,-1.4 2.7,-6.1 2.7,-6.1 -0.8,-1.4 -1.2,-2.9 -1.1,-4.5 0.2,-1.4 1.1,-2.6 2.3,-3.2 0,0 -2.1,-6 -0.9,-10.5 1.2,-4.5 13.8,-55.9 14.3,-58.6 0.5,-2.7 -0.4,-6.9 -0.2,-8.3 0.1,-0.8 0.8,-1.4 1.6,-1.4 0,0 -1.4,-2 -1.2,-3.3 0.2,-1.3 2,-2.3 2,-2.3 0,0 1.7,-12.1 2.7,-18.1 1.1,-6 4.8,-18.4 4.8,-18.4 0,0 -1.3,-1 -0.1,-4.3 1.2,-3.3 2.4,-5.4 2.8,-6.3 0.4,-0.9 -0.7,-3.4 -0.7,-3.4 0,0 -3.3,-13 9.7,-10.6 13.2,2.5 1.9,13.1 1.4,14.1 -1.9,3.6 1.6,3.7 0.9,9.6 -0.3,2.1 -2.6,3.9 -2.6,3.9 l -1.7,18.3 -4.7,18 c 0,0 1.3,0.2 1,2.3 -0.2,1.1 -0.7,2.2 -1.5,3 0.1,1.1 0,2.2 -0.3,3.3 -0.4,1.4 -2.7,1.1 -3,2.9 -0.3,1.8 -9.5,62.7 -10.1,64.9 -0.6,2.2 -3.9,7.3 -3.9,7.3 1.2,0.8 1.7,2.3 1.4,3.7 -0.3,1.6 -1.1,3.1 -2.3,4.2 0,0 -1.5,17.6 -2.2,21 L 938,460.5 c 0,0 -3.9,1 -5.6,0.7 -1.7,-0.3 -5,-2.5 -5,-2.5 l 0,0.1 z"
         id="path107"
         inkscape:connector-curvature="0"
         style="fill:url(#SVGID_8_);stroke:#000000;stroke-width:1.01999998" /><linearGradient
         id="SVGID_9_"
         gradientUnits="userSpaceOnUse"
         x1="1396.488"
         y1="528.78857"
         x2="1415.8981"
         y2="529.43872"
         gradientTransform="translate(-601.88,-192.22)"><stop
           offset="0"
           style="stop-color:#4F2D17"
           id="stop110" /><stop
           offset="0.47"
           style="stop-color:#D28C5F"
           id="stop112" /><stop
           offset="1"
           style="stop-color:#4D2C16"
           id="stop114" /></linearGradient><path
         class="st13"
         d="m 796,451.3 c 0,0 0.3,-71.9 0.3,-73.2 0,-1.3 1.8,-6.7 1.8,-6.7 0,0 -2.7,-1.3 -2.2,-3.6 0.5,-2.3 3.1,-4 3.1,-4 0,0 -4.5,-4.5 -4,-8.9 0.5,-4.4 4.5,-54 4.5,-56.7 0,-2.7 -2.2,-5.8 -2.2,-7.1 0,-1.3 1.8,-4 1.8,-4 0,0 -2.2,-1.9 -2.2,-3.1 0,-1.2 1.9,-2.4 1.9,-2.4 l 0.8,-35.5 c 0,0 -2.7,-0.7 -2,-4 0.7,-3.3 3.8,-6.3 4,-7.1 0.2,-0.8 -2.5,-2 -2.5,-2 0,0 -6.9,-13.2 6.5,-12.1 13.4,1.1 4.8,12.3 4.5,13.4 -1.2,3.8 1.6,2.9 1.9,8.6 0.1,2 -1.9,4.1 -1.9,4.1 l 0,35.5 c 0,0 2.4,0.6 2.4,2.6 0,1.2 -0.8,2.2 -1.9,2.5 0.7,0.9 1.2,2 1.3,3.2 0,1.3 -2.2,2 -2.2,3.8 0,1.8 1.6,60.3 1.3,62.5 -0.3,2.2 -2.7,7.6 -2.7,7.6 0,0 2.5,1.6 2.5,4 -0.1,1.5 -0.9,3 -2.2,3.8 0,0 1.8,16.8 1.7,20.1 -0.3,7.4 -3.3,58.7 -3.3,58.7 0,0 -3.5,1.8 -5.4,1.9 -1.9,0.1 -5.6,-1.9 -5.6,-1.9 l 0,0 z"
         id="path116"
         inkscape:connector-curvature="0"
         style="fill:url(#SVGID_9_);stroke:#000000" /><path
         class="st14"
         d="m 810,279.9 c 0,0 66.3,6.4 76.1,6.4 9.8,0 72.9,-0.5 72.9,-0.5 l -0.7,1.6 c 0,0 -66.8,0.9 -74.1,0.5 -7.3,-0.4 -74.3,-6.2 -74.3,-6.2 l 0,-1.8 z"
         id="path118"
         inkscape:connector-curvature="0"
         style="fill:#855b3e" /><path
         class="st15"
         d="m 969.1,237.9 c 3.6,-0.5 7.2,0.1 10.5,1.6"
         id="path120"
         inkscape:connector-curvature="0"
         style="fill:none;stroke:#000000;stroke-width:1.01999998" /><path
         class="st15"
         d="m 966.3,250.4 c 0,0 8.3,-0.5 12.1,2.8"
         id="path122"
         inkscape:connector-curvature="0"
         style="fill:none;stroke:#000000;stroke-width:1.01999998" /><path
         class="st15"
         d="m 958.1,292.8 c 0,0 5.4,-1.4 12.5,2.2"
         id="path124"
         inkscape:connector-curvature="0"
         style="fill:none;stroke:#000000;stroke-width:1.01999998" /><path
         class="st16"
         d="m 956.8,298.5 c 0,0 7.3,-2 11.8,1.7"
         id="path126"
         inkscape:connector-curvature="0"
         style="fill:#a05b2b;stroke:#000000;stroke-width:1.01999998" /><path
         class="st17"
         d="m 943.6,371.8 c 0,0 8.1,-0.4 10.9,1.9"
         id="path128"
         inkscape:connector-curvature="0"
         style="fill:#6c5353;stroke:#000000;stroke-width:1.01999998" /><path
         class="st18"
         d="m 942.3,379.5 c 0,0 6.1,-0.3 10.7,2.5"
         id="path130"
         inkscape:connector-curvature="0"
         style="fill:#906f6f;stroke:#000000;stroke-width:1.01999998" /><path
         class="st19"
         d="m 801.1,234.1 c 0,0 3.2,-1.5 8.5,0.1"
         id="path132"
         inkscape:connector-curvature="0"
         style="fill:none;stroke:#000000" /><path
         class="st19"
         d="m 799.3,245.8 c 0,0 6.8,-2 11,0.4"
         id="path134"
         inkscape:connector-curvature="0"
         style="fill:none;stroke:#000000" /><path
         class="st19"
         d="m 799.1,286.7 c 0,0 4.2,-1.7 11.8,0.4"
         id="path136"
         inkscape:connector-curvature="0"
         style="fill:none;stroke:#000000" /><path
         class="st19"
         d="m 797.9,292.2 c 0,0 7.7,-2.4 12.8,0.2"
         id="path138"
         inkscape:connector-curvature="0"
         style="fill:none;stroke:#000000" /><path
         class="st19"
         d="m 798.9,363.7 c 0,0 5.8,-1.2 8.9,0.5"
         id="path140"
         inkscape:connector-curvature="0"
         style="fill:none;stroke:#000000" /><path
         class="st19"
         d="m 798.1,371.4 c 0,0 5.9,-1.5 10.9,0.3"
         id="path142"
         inkscape:connector-curvature="0"
         style="fill:none;stroke:#000000" /></g>
         <!-- <image
       sodipodi:absref="/home/daniel/Projects/L2TOR_project/freeplay-sandbox/qt-gui/res/F00496F5.png"
       xlink:href="F00496F5.png"
       id="image144"
       transform="matrix(0.9941,0,0,0.9954,769.99,510.99)"
       height="219"
       width="169"
       style="overflow:visible;opacity:0.75;enable-background:new" /> -->
       <path
       class="st20"
       d="m 857.3,598.2 c 10.8,15.5 14.5,30.2 11.4,42.3 -3.9,15.2 -20,22.2 -36.6,22.7 -18.8,0.5 -29.9,-11 -33.3,-18 -4.1,-8.6 -7.6,-29.9 10.9,-47.3"
       id="path146"
       inkscape:connector-curvature="0"
       style="fill:#a06121" /><path
       class="st21"
       d="m 809.4,608.2 0,0 c -17.8,14.4 -12.1,31.4 -8.1,38.5 3.2,5.8 11.5,16.4 29.4,15.9 11.6,-0.3 23,-3.8 29.7,-10.5 l -0.2,0.2 c -0.7,0.5 -1.4,1 -2.1,1.4 -0.7,0.4 -1.5,0.9 -2.3,1.3 -0.8,0.4 -1.6,0.8 -2.4,1.1 -0.8,0.3 -1.7,0.7 -2.5,1 -0.8,0.3 -1.8,0.6 -2.7,0.8 -0.9,0.2 -1.8,0.5 -2.8,0.7 -1,0.2 -1.9,0.4 -2.8,0.6 -0.9,0.2 -1.9,0.3 -2.9,0.4 -1,0.1 -1.9,0.2 -2.9,0.3 -1,0.1 -2,0.1 -3,0.1 -1,0 -2.2,0 -3.3,0 -1.1,0 -2.1,-0.1 -3.1,-0.3 -1,-0.2 -2,-0.3 -2.9,-0.5 -0.9,-0.2 -1.9,-0.4 -2.8,-0.6 -0.9,-0.2 -1.8,-0.5 -2.6,-0.8 -0.8,-0.3 -1.6,-0.6 -2.4,-0.9 -0.8,-0.3 -1.5,-0.7 -2.2,-1 -0.7,-0.3 -1.4,-0.8 -2.1,-1.1 -0.7,-0.3 -1.3,-0.8 -1.9,-1.2 -0.6,-0.4 -1.2,-0.8 -1.7,-1.3 -0.5,-0.5 -1.1,-0.9 -1.6,-1.3 -0.5,-0.4 -1,-0.9 -1.4,-1.3 -0.4,-0.4 -0.8,-0.9 -1.2,-1.3 -0.4,-0.4 -0.7,-0.8 -1,-1.3 -0.6,-0.7 -1.1,-1.5 -1.5,-2.3 -0.2,-0.4 -0.5,-0.9 -0.7,-1.5 -0.2,-0.6 -0.5,-1.1 -0.7,-1.7 -0.2,-0.6 -0.4,-1.2 -0.6,-1.9 -0.2,-0.7 -0.3,-1.3 -0.5,-2.1 -0.2,-0.8 -0.3,-1.5 -0.4,-2.2 -0.1,-0.7 -0.2,-1.6 -0.2,-2.4 0,-0.8 0,-1.7 0,-2.5 0,-0.8 0.1,-1.7 0.2,-2.6 0.1,-0.9 0.3,-1.8 0.5,-2.7 0.2,-0.9 0.5,-1.8 0.8,-2.8 0.3,-1 0.7,-1.9 1.1,-2.8 0.4,-0.9 0.9,-1.9 1.4,-2.8 0.5,-0.9 1.1,-1.9 1.8,-2.8 0.7,-0.9 1.4,-1.9 2.2,-2.8 0.8,-0.9 1.7,-1.9 2.6,-2.8 l -0.2,-0.2 0,0 z"
       id="path148"
       inkscape:connector-curvature="0"
       style="fill:#6e4a25" /><path
       class="st22"
       d="m 834,624 c -7.4,1.1 -10.8,6.9 -12.5,15 -2,9.2 6,18.7 14.3,20.5 8.2,1.9 16.4,-3.1 18.3,-11.2 0.1,-0.2 0.1,-0.5 0.2,-0.8 2,-9.2 -1.3,-22.6 -9.2,-23.7 -1.1,-0.2 -10.1,0 -11.1,0.2 l 0,0 z"
       id="path150"
       inkscape:connector-curvature="0"
       style="fill:#956c45;stroke:#000000;stroke-width:3" /><path
       d="m 845.9,584.4 c 2.9,3.2 5.6,6.3 7.8,9.3 2.1,2.7 4.1,5.6 5.9,8.6 2.8,4.6 5.1,9.6 6.8,14.7 0.8,2.5 1.4,5 1.8,7.6 0.3,2 0.5,4.1 0.5,6.2 0,1.7 -0.1,3.3 -0.3,5 -0.2,1.3 -0.5,2.7 -0.8,4 -0.1,0.4 -0.2,0.9 -0.4,1.3 -0.4,1.3 -0.9,2.6 -1.5,3.8 -0.8,1.6 -1.8,3.1 -2.9,4.5 -1.1,1.4 -2.3,2.6 -3.6,3.7 -1.4,1.2 -2.9,2.3 -4.5,3.3 -1.7,1 -3.4,1.9 -5.2,2.6 -1.7,0.7 -3.5,1.3 -5.4,1.8 l 0,0 c -2.2,0.6 -4.5,1.1 -6.8,1.4 -2,0.3 -3.8,0.4 -5.1,0.5 l -1.2,0 c -1.5,0 -3,-0.1 -4.5,-0.3 -2.3,-0.3 -4.5,-0.8 -6.7,-1.5 -6.3,-2.1 -11.9,-5.9 -16.1,-11 -0.8,-0.9 -1.5,-1.9 -2.1,-2.9 -0.6,-0.9 -1.2,-1.9 -1.6,-2.9 -0.7,-1.5 -1.2,-3 -1.7,-4.6 -0.4,-1.4 -0.7,-2.7 -0.9,-3.8 -0.1,-0.7 -0.2,-1.3 -0.3,-1.8 -0.2,-1.4 -0.4,-2.8 -0.5,-4.3 -0.1,-1.8 -0.1,-3.7 0.1,-5.5 0.2,-2.2 0.5,-4.4 1.1,-6.5 0.6,-2.3 1.4,-4.5 2.4,-6.7 1,-2.3 2.3,-4.4 3.7,-6.4 1.3,-1.9 2.8,-3.6 4.4,-5.3 l 1.3,-1.3 c 0.3,-0.3 0.3,-0.4 0.3,-0.4 -0.7,0.4 -1.3,0.9 -1.9,1.5 -3.6,3.3 -6.6,7.2 -8.9,11.5 l 0,0 c -1.1,2.1 -2,4.2 -2.7,6.5 -0.7,2.3 -1.2,4.7 -1.5,7.1 -0.2,2.1 -0.3,4.2 -0.2,6.3 0.1,2 0.3,3.9 0.7,5.8 0.3,1.7 0.8,3.4 1.3,5.1 0.4,1.3 1,2.5 1.6,3.7 1.1,2.2 2.6,4.2 4.2,6 l 0,0 c 4.6,5.1 10.5,8.8 17.1,10.7 l 0,0 c 2.3,0.7 4.6,1.1 7,1.3 1.9,0.2 3.8,0.3 5.8,0.2 0.8,0 1.6,0 2.2,-0.1 1,0 2.4,-0.1 4,-0.3 2,-0.2 4,-0.6 5.9,-1.1 1.8,-0.4 3.6,-1 5.4,-1.6 2,-0.7 3.8,-1.6 5.7,-2.6 l 0,0 c 1.6,-0.9 3.2,-2 4.7,-3.2 1.5,-1.2 2.9,-2.5 4.1,-4 1.3,-1.5 2.4,-3.2 3.3,-4.9 0.9,-1.7 1.5,-3.5 2,-5.3 0.8,-2.9 1.1,-6 1.1,-9 0,-2.2 -0.3,-4.5 -0.7,-6.7 -0.2,-1 -0.5,-2.3 -0.9,-3.6 -0.4,-1.3 -0.8,-2.8 -1.4,-4.3 -0.7,-1.8 -1.5,-3.7 -2.4,-5.6 -0.9,-1.9 -1.9,-3.8 -3,-5.7 -1.1,-1.9 -2.3,-3.7 -3.5,-5.5 -1.2,-1.8 -2.5,-3.4 -3.7,-5 -2.5,-3.1 -4.8,-5.7 -6.5,-7.5 -1.7,-1.8 -2.8,-2.8 -2.8,-2.8 l 0,0 z"
       id="path152"
       inkscape:connector-curvature="0" /><path
       class="st20"
       d="m 797.1,660.5 c -0.4,-7.4 0.5,-17.1 9.5,-17.2 7.2,-0.1 14.3,6.4 15.8,14.1"
       id="path154"
       inkscape:connector-curvature="0"
       style="fill:#a06121" /><path
       class="st20"
       d="m 883.4,652.3 c 0,0 -3.4,-10.1 -6.7,-13.4 -0.9,-0.9 -4.4,-3.5 -7.5,-2.8 -8.1,2 -12.6,10.9 -14.8,17.9 -0.3,1 -1.7,4.9 -0.5,7.6"
       id="path156"
       inkscape:connector-curvature="0"
       style="fill:#a06121" /><path
       class="st21"
       d="m 854.9,659.9 c -1.3,-2.7 1.2,-6.3 1.4,-7.3 0.4,-1.3 1.8,-3.5 1.5,-5 -1,2 -2.7,4.7 -3.3,6.7 -0.3,1 -1.7,4.9 -0.5,7.6 10.5,-1.3 6.2,-3.4 0.9,-2 l 0,0 z"
       id="path158"
       inkscape:connector-curvature="0"
       style="fill:#6e4a25" /><path
       d="m 797.2,660.7 c -0.2,-1.9 -0.1,-3.8 0.1,-5.7 l 0,0 c 0.1,-1.1 0.3,-2.1 0.7,-3.2 0.2,-0.7 0.5,-1.5 0.8,-2.2 l 0,0 c 0.2,-0.5 0.5,-1 0.8,-1.4 0.3,-0.4 0.5,-0.7 0.8,-1 0.4,-0.5 0.9,-1 1.4,-1.4 0.7,-0.6 1.4,-1 2.2,-1.3 0.8,-0.3 1.7,-0.5 2.6,-0.6 0.8,-0.1 1.6,-0.1 2.5,0 0.4,0.1 0.7,0.2 1.1,0.3 0.6,0.2 1.1,0.4 1.6,0.7 0.8,0.4 1.6,1 2.4,1.5 0.7,0.6 1.4,1.2 2.1,1.9 0.8,0.8 1.3,1.5 1.7,1.8 0.4,0.4 0.8,0.8 1.1,1.2 0.5,0.6 0.9,1.2 1.3,1.8 0.4,0.7 0.8,1.4 1.1,2.1 0.3,0.7 0.5,1.4 0.7,2.1 0.1,0.3 0.1,0.5 0.2,0.5 0.1,0 0.1,-0.2 0.2,-0.4 0.1,-1 0,-1.9 -0.2,-2.9 -0.1,-0.7 -0.3,-1.3 -0.6,-2 -0.3,-0.7 -0.6,-1.4 -0.9,-2 -0.3,-0.6 -0.7,-1.2 -1.2,-1.8 -0.4,-0.5 -0.8,-0.9 -1.3,-1.3 -0.3,-0.2 -0.5,-0.4 -0.8,-0.6 -0.8,-0.6 -1.7,-1.2 -2.7,-1.7 -0.9,-0.5 -1.8,-0.8 -2.7,-1.2 -0.7,-0.2 -1.4,-0.4 -2.1,-0.6 -0.6,-0.1 -1.2,-0.2 -1.6,-0.3 -0.6,-0.1 -1.2,-0.2 -1.8,-0.3 -0.9,-0.1 -1.9,0 -2.8,0.2 -1.1,0.2 -2.2,0.7 -3.1,1.3 -0.9,0.6 -1.6,1.4 -2.3,2.3 -0.5,0.7 -0.9,1.5 -1.2,2.3 -0.1,0.3 -0.2,0.5 -0.2,0.8 -0.2,0.7 -0.3,1.5 -0.4,2.3 -0.1,1 -0.1,1.9 -0.1,2.9 0,1.3 0.2,2.7 0.4,4 0.1,1.1 0.3,1.8 0.2,1.9 l 0,0 z"
       id="path160"
       inkscape:connector-curvature="0" /><path
       class="st21"
       d="m 869.9,636.6 c -0.4,0 -0.8,0 -1.2,0.1 -3,0.8 -5.7,2.4 -7.7,4.7 l 0.1,-0.1 c 0.4,-0.3 0.8,-0.7 1.2,-1 0.4,-0.3 0.8,-0.6 1.2,-0.9 0.4,-0.3 0.9,-0.5 1.3,-0.7 0.5,-0.2 0.9,-0.4 1.4,-0.6 0.5,-0.2 1,-0.3 1.5,-0.5 0.4,-0.1 0.8,-0.1 1.2,-0.1 0.4,0 0.8,0 1.2,0.1 0.4,0.1 0.8,0.2 1.2,0.3 0.4,0.1 0.7,0.3 1.1,0.5 0.6,0.3 1.2,0.7 1.8,1.1 0.4,0.3 0.8,0.6 1.1,0.9 0.5,0.5 0.9,1 1.2,1.5 0.4,0.6 0.8,1.3 1.2,2 0.4,0.7 0.8,1.4 1.1,2.2 0.3,0.8 0.7,1.5 1,2.3 0.6,1.5 1.2,2.8 1.5,3.8 0.2,0.6 0.3,0.7 0.3,1 l 1.3,-0.4 c 0,0 -3.4,-10.1 -6.7,-13.4 -0.7,-0.6 -3.5,-2.7 -6.3,-2.8 l 0,0 z"
       id="path162"
       inkscape:connector-curvature="0"
       style="fill:#6e4a25" /><path
       d="m 883.3,651.5 c -0.7,-2 -1.3,-3.7 -1.8,-5.2 l 0,0 c -0.7,-1.7 -1.3,-3.2 -1.9,-4.3 -0.3,-0.7 -0.7,-1.4 -1.1,-2.1 -0.4,-0.6 -0.7,-1.1 -1.2,-1.6 -0.4,-0.4 -0.7,-0.7 -1.2,-1 -0.5,-0.4 -1,-0.8 -1.6,-1.1 l -0.3,-0.2 c -0.7,-0.4 -1.4,-0.6 -2.2,-0.8 -1,-0.2 -2.1,-0.2 -3.1,0.1 l 0,0 c -1.1,0.3 -2.2,0.8 -3.2,1.4 -0.8,0.5 -1.6,1.1 -2.3,1.7 -0.5,0.4 -0.8,0.8 -1,1 -0.2,0.2 -0.8,0.7 -1.3,1.3 -0.7,0.7 -1.4,1.4 -2,2.2 -0.5,0.7 -1.1,1.4 -1.6,2.2 -0.5,0.8 -1,1.5 -1.4,2.2 -0.6,1.1 -1.2,2.2 -1.6,3.3 -0.2,0.7 -0.6,1.9 -1,3.2 -0.3,1.3 -0.5,2.5 -0.6,3.8 -0.1,0.8 0,1.7 0.1,2.5 0.1,0.5 0.3,1 0.6,1.4 0.1,0.1 0.2,0.3 0.3,0.4 0.1,0.1 0.1,0.1 0.2,0.2 0.1,0 0.1,0 0,-0.2 -0.1,-0.2 -0.2,-0.5 -0.3,-0.7 -0.1,-0.4 -0.2,-0.8 -0.2,-1.2 0,-0.4 0,-0.7 0.1,-1.1 0.1,-0.4 0.2,-0.8 0.3,-1.2 0.3,-1.2 0.7,-2.3 1.1,-3.4 0.4,-0.9 0.8,-1.7 1.1,-2.5 0.3,-0.8 0.6,-1.5 0.8,-2.1 0.4,-1 0.8,-2.1 1.3,-3.2 0.5,-1 1,-2 1.6,-3 0.6,-0.9 1.2,-1.8 1.9,-2.6 0.5,-0.6 1.1,-1.1 1.7,-1.6 l 0.4,-0.3 c 0.7,-0.5 1.4,-0.9 2.2,-1.2 1,-0.5 2.1,-0.8 3.2,-1 l 0,0 c 0.7,-0.1 1.4,-0.1 2.1,0.1 0.7,0.2 1.4,0.5 2,0.8 0.6,0.3 1.1,0.6 1.7,1 0.3,0.2 0.7,0.5 1,0.8 0.3,0.3 0.6,0.6 0.9,0.9 0.3,0.3 0.5,0.5 0.7,0.9 0.2,0.4 0.6,0.8 0.9,1.2 0.9,1.3 1.6,2.6 2.4,4 l 2.3,5 0,0 z"
       id="path164"
       inkscape:connector-curvature="0" /><path
       class="st20"
       d="m 810.7,595.5 c 0,0 -9.2,5.3 -14.5,13.3 -4.4,6.7 -9.5,20.3 -9.4,29.1 0.1,7 3.9,13.8 9,14.8 4.1,0.8 10,-1 11.2,-2.9 6.4,-10.7 0.7,-16.8 0.4,-27.7 -0.3,-8.8 1,-11.3 2.3,-14.9 0.5,-1.4 5,-9.8 5,-9.8"
       id="path166"
       inkscape:connector-curvature="0"
       style="fill:#a06121" /><path
       class="st20"
       d="m 858.8,544.8 c 0,0 5,-7.5 6.4,-8.8 1.4,-1.3 1.7,-2.9 4.8,-3.4 3.1,-0.5 8,1.5 9.1,2.2 1.1,0.7 5.3,3.6 6.1,4.6 0.8,1 1.4,4.2 1.3,6.4 -0.4,2.7 -1.4,5.4 -2.9,7.7 -0.8,0.8 -5.3,5 -6.7,5.5 -1.5,0.5 -9.3,1.7 -9.3,1.7 l -8.8,-15.9 z"
       id="path168"
       inkscape:connector-curvature="0"
       style="fill:#a06121" /><path
       class="st21"
       d="m 809.2,596.3 c -2.7,1.8 -9,6.2 -13,12.4 -4.4,6.7 -9.6,20.3 -9.4,29.1 0.1,7 3.9,13.8 9,14.8 3.9,0.8 9.6,-0.8 11,-2.7 -0.3,0.1 -0.5,0.3 -0.8,0.4 -0.5,0.2 -1,0.4 -1.5,0.5 -0.5,0.2 -1.1,0.3 -1.7,0.4 -0.6,0.1 -1.1,0.2 -1.7,0.2 -0.6,0 -1.1,0 -1.7,0 -0.5,0 -1.1,-0.1 -1.6,-0.2 -0.3,-0.1 -0.6,-0.1 -0.9,-0.3 -0.3,-0.1 -0.6,-0.2 -0.9,-0.4 -0.6,-0.3 -1.2,-0.7 -1.7,-1.1 -0.6,-0.5 -1.1,-1 -1.5,-1.5 -0.5,-0.6 -0.9,-1.2 -1.3,-1.9 -0.4,-0.7 -0.8,-1.4 -1.1,-2.2 -0.3,-0.8 -0.6,-1.5 -0.8,-2.3 -0.2,-0.8 -0.4,-1.7 -0.5,-2.5 -0.1,-0.9 -0.2,-1.7 -0.2,-2.6 0,-1.2 0.1,-2.4 0.2,-3.5 0.1,-1.2 0.3,-2.5 0.6,-3.8 0.3,-1.3 0.6,-2.6 1,-4 0.4,-1.4 0.8,-2.7 1.2,-4 0.4,-1.3 1,-2.6 1.5,-3.9 0.5,-1.3 1,-2.5 1.6,-3.7 0.6,-1.2 1.1,-2.3 1.7,-3.3 0.6,-1 1.1,-2 1.7,-2.8 0.7,-1 1.4,-2 2.1,-2.9 0.8,-0.9 1.5,-1.8 2.3,-2.6 0.8,-0.8 1.6,-1.6 2.4,-2.3 0.8,-0.7 1.6,-1.3 2.3,-1.9 0.7,-0.6 1.1,-0.9 1.7,-1.4 l 0,0 z"
       id="path170"
       inkscape:connector-curvature="0"
       style="fill:#6e4a25" /><path
       class="st20"
       d="m 796.9,561.7 c 0,0 -1.2,11.2 -0.6,13 0.6,1.8 3.3,12 3.7,12.8 0.4,0.8 7.4,9 9.5,10 2.1,1 9.1,3.7 9.1,3.7 0,0 17.2,2.7 22.3,2.1 5.1,-0.6 13,-1.5 15.3,-3.5 1.8,-1.6 5.8,-3.2 7.8,-5 2.7,-2.3 5.8,-2.9 7.2,-4.3 1.4,-1.4 4.5,-7.2 5,-11.6 0.5,-4.4 0,-11.6 -1.2,-14.3 -1.3,-2.9 -2.7,-5.4 -3.5,-7 -0.8,-1.6 -10.3,-13.6 -11.8,-15.9 -1.5,-2.3 -7.8,-7.4 -9.7,-7.9 -1.9,-0.5 -14.3,-2.7 -17.8,-2.3 -3.5,0.4 -12,4.3 -13.8,5.6 -1.8,1.3 -9.1,8.7 -10.1,9.9 -1.1,1.3 -11.4,12.3 -11.4,14.7 l 0,0 z"
       id="path172"
       inkscape:connector-curvature="0"
       style="fill:#a06121" /><path
       class="st23"
       d="m 827.1,602.4 c 5.2,0.6 11,1.2 13.8,0.9 5.2,-0.6 13,-1.4 15.3,-3.5 1.8,-1.6 5.8,-3.2 7.9,-5 2.7,-2.3 5.8,-2.9 7.2,-4.3 1.4,-1.4 4.5,-7.2 5,-11.6 0.5,-4.4 0,-11.6 -1.2,-14.3 -0.8,-1.8 -1.7,-3.4 -2.4,-4.8 1.4,-0.2 2.7,-0.5 4.1,-0.8 1.5,-0.5 5.9,-4.7 6.7,-5.5 1.5,-2.3 2.5,-4.9 2.9,-7.7 0.1,-2.2 -0.5,-5.3 -1.3,-6.4 -0.8,-1 -5,-3.9 -6.1,-4.6 -2.5,-1.3 -5.2,-2.1 -8,-2.3 0.8,0.1 1.5,0.3 2.3,0.5 0.8,0.2 1.6,0.5 2.3,0.8 0.5,0.2 1,0.4 1.5,0.7 0.5,0.4 1.9,1.3 3.1,2.2 0.6,0.5 1.3,0.9 1.8,1.4 0.4,0.3 0.8,0.7 1.1,1 0.2,0.3 0.4,0.7 0.5,1.1 0.2,0.5 0.3,1.1 0.4,1.6 0.1,0.6 0.2,1.2 0.3,1.8 0.1,0.6 0.1,1.2 0.1,1.8 0,0.7 -0.2,1.3 -0.4,2 -0.2,0.8 -0.5,1.6 -0.8,2.3 -0.3,0.8 -0.7,1.5 -1,2.1 -0.2,0.4 -0.5,0.9 -0.8,1.2 -0.4,0.4 -1.7,1.6 -3.1,2.8 -0.7,0.6 -1.4,1.2 -2,1.7 -0.5,0.4 -1,0.7 -1.5,1 -0.5,0.2 -1.1,0.3 -1.6,0.4 -0.7,0.1 -1.6,0.3 -2.5,0.5 0.7,1.4 1.5,3 2.4,4.8 0.2,0.4 0.3,0.8 0.4,1.2 0.1,0.5 0.2,1 0.3,1.5 0.2,1.2 0.4,2.5 0.5,3.8 0.1,1.3 0.2,2.7 0.2,4.1 0,1.4 0,2.6 -0.2,3.7 -0.1,0.6 -0.1,1.1 -0.3,1.7 -0.1,0.6 -0.3,1.2 -0.5,1.8 -0.4,1.2 -0.8,2.3 -1.3,3.4 -0.5,1 -1,2 -1.5,2.9 -0.4,0.6 -0.8,1.3 -1.3,1.8 -0.2,0.2 -0.4,0.4 -0.6,0.5 -0.2,0.2 -0.5,0.3 -0.8,0.5 -0.5,0.3 -1.1,0.6 -1.8,0.9 -0.7,0.3 -1.3,0.7 -2,1 -0.7,0.4 -1.4,0.9 -2.1,1.4 -0.6,0.5 -1.2,0.9 -1.8,1.3 -0.7,0.4 -1.5,0.8 -2.2,1.2 -0.7,0.4 -1.5,0.8 -2.1,1.2 -0.6,0.4 -1.2,0.8 -1.7,1.2 -0.3,0.3 -0.7,0.5 -1.1,0.7 -0.5,0.2 -1,0.4 -1.5,0.6 -0.6,0.2 -1.2,0.4 -1.8,0.5 -0.6,0.1 -1.4,0.3 -2.1,0.4 -1.5,0.3 -3,0.5 -4.5,0.7 -1.5,0.2 -3,0.4 -4.3,0.5 -0.8,0.1 -1.6,0.1 -2.5,0.1 -1,0 -2.1,-0.1 -3.2,-0.2 -2,0.2 -4.1,0 -6.2,-0.2 l 0,0 z"
       id="path174"
       inkscape:connector-curvature="0"
       style="fill:#b8854f" /><path
       class="st21"
       d="m 850.5,563.9 c -1,-0.6 -1.2,-2.6 -1.7,-1.6 -0.6,1.4 -0.4,3.1 0.5,4.3 0.7,0.7 4.8,1.2 4.8,0 0,-1.2 -2.6,-2.1 -3.6,-2.7 z"
       id="path176"
       inkscape:connector-curvature="0"
       style="fill:#6e4a25" /><path
       class="st21"
       d="m 838.4,565.8 c 0,-0.9 0,-3 0.1,-5.6 0,-2.1 0.1,-4.6 0.2,-6.8 0,-0.9 0.1,-1.7 0.1,-2.5 0,-0.3 0,-0.6 0.1,-0.8 0,-0.2 0,-0.3 0.1,-0.5 0.1,-0.4 0.1,-0.7 0.2,-1.1 l 0,0 c 0.1,-0.7 0.1,-1.3 0.1,-1.7 0,0 0,-0.1 0,-0.1 0,-1 0,-2.6 -0.1,-4.3 0,-1.4 -0.1,-3 -0.3,-4.6 -0.1,-0.6 -0.2,-1.2 -0.3,-1.8 -0.1,-0.4 -0.2,-0.9 -0.4,-1.3 -0.4,-0.7 -0.7,-1.5 -1.1,-2.1 -0.1,-0.2 -0.2,-0.3 -0.3,-0.5 -0.1,-0.1 -0.2,-0.3 -0.4,-0.4 -0.1,-0.1 -0.2,-0.1 -0.3,-0.2 l -0.1,0 0,0 c 0.2,0.1 0.3,0.2 0.4,0.3 0.1,0.1 0.2,0.2 0.3,0.3 0.1,0.2 0.2,0.3 0.3,0.5 0.2,0.3 0.3,0.6 0.5,1 0.2,0.4 0.3,0.8 0.5,1.2 0.2,0.4 0.3,0.8 0.3,1.2 0.1,0.6 0.2,1.2 0.2,1.8 0.1,1.5 0.2,3 0.2,4.6 0,1.5 0,3.1 -0.1,4.4 l 0,0 c 0,0.6 0,1.2 -0.1,1.7 0,0.3 0,0.6 -0.1,0.8 0,0.1 0,0.1 0,0.2 l 0,0 c 0,0.2 -0.1,0.4 -0.1,0.6 l 0,0 c 0,0.3 0,0.6 0,0.9 l 0,0 c 0,0.8 0,1.7 -0.1,2.5 l 0,0 c 0,2.3 0,4.7 0,6.8 0,2.9 0,5.4 0,6.9 0,3.3 0.3,3.5 0.2,-1.4 l 0,0 z"
       id="path178"
       inkscape:connector-curvature="0"
       style="fill:#6e4a25" /><path
       d="m 811.4,594.9 -5.6,3.8 c -2,1.5 -3.9,3.1 -5.8,4.8 -1.6,1.5 -3,3.1 -4.3,4.8 l 0,0 c -0.8,1.1 -1.6,2.2 -2.2,3.3 -0.6,1.1 -1.2,2.1 -1.7,3.1 -0.7,1.5 -1.3,2.8 -1.9,4.1 -0.6,1.3 -1,2.4 -1.3,3.5 -0.6,1.6 -1,3 -1.3,4.3 -0.3,1.3 -0.6,2.4 -0.8,3.5 l 0,0.2 c -0.2,0.8 -0.3,1.9 -0.5,3.2 -0.1,1.4 -0.2,2.8 -0.2,4.3 0,1.4 0.1,2.7 0.3,4.1 0.2,1.5 0.6,2.9 1.2,4.2 0.6,1.1 1.3,2.2 2.2,3.1 0.8,0.8 1.8,1.6 2.8,2.2 l 0,0 c 0.8,0.5 1.7,0.9 2.6,1.2 0.8,0.3 1.7,0.4 2.5,0.5 1.3,0.1 2.5,0.1 3.8,-0.1 l 0.4,-0.1 c 0.4,-0.1 0.9,-0.2 1.5,-0.4 0.7,-0.2 1.4,-0.5 2.1,-0.8 0.6,-0.3 1.1,-0.6 1.6,-1 0.6,-0.4 1.1,-0.9 1.5,-1.5 l 0,0 c 0.7,-0.9 1.3,-1.8 1.7,-2.8 0.5,-1.1 0.8,-2.2 1,-3.4 l 0,0 c 0.2,-1.1 0.2,-2.2 0.1,-3.3 -0.1,-1.1 -0.2,-2.2 -0.4,-3.3 l 0,0 c -0.2,-1.3 -0.5,-2.5 -0.7,-3.7 -0.2,-1.2 -0.5,-2.3 -0.7,-3.3 -0.3,-1.5 -0.5,-2.8 -0.6,-3.9 -0.1,-1.1 -0.2,-2 -0.3,-2.6 0,-0.3 -0.1,-0.7 -0.1,-1.1 0,-1.1 -0.1,-2.5 -0.2,-4 0,-1.6 0,-3.2 0.2,-4.8 0.1,-0.9 0.3,-1.7 0.5,-2.5 0.3,-0.9 0.6,-1.7 0.9,-2.6 1,-2.7 2.2,-5.4 3.3,-7.8 l 1.1,-2.2 c 0.3,-0.5 0.5,-0.9 0.6,-1.5 l 0,0 c -0.9,1 -1.6,2.2 -2.3,3.4 -1.5,2.5 -2.8,5 -4,7.6 -0.8,1.7 -1.4,3.5 -1.8,5.4 -0.3,1.5 -0.4,3.1 -0.5,4.7 -0.1,1.5 0,3 0,4.4 0,2 0.3,4 0.7,6 0.1,0.6 0.3,1.3 0.4,1.9 0.6,2.3 1.3,4.6 1.8,6.9 0.2,1 0.4,2.1 0.5,3.1 0.1,1 0.1,2 0,3.1 -0.1,1.1 -0.3,2.1 -0.7,3.1 -0.4,1 -0.9,1.9 -1.5,2.7 -0.7,1 -1.7,1.8 -2.7,2.3 -1.8,1 -3.8,1.4 -5.8,1.4 -0.9,0 -1.8,-0.2 -2.7,-0.4 -1.3,-0.3 -2.5,-0.9 -3.6,-1.6 -0.9,-0.6 -1.7,-1.3 -2.4,-2.1 -0.8,-0.8 -1.4,-1.8 -1.9,-2.8 l 0,0 c -0.5,-1.2 -0.8,-2.4 -0.9,-3.7 -0.1,-1.3 -0.2,-2.7 -0.2,-4.1 0,-2.4 0.3,-4.8 0.8,-7.1 0.5,-2.6 1.2,-5.2 2,-7.8 0.4,-1.3 0.8,-2.5 1.1,-3.4 0.4,-1.1 0.9,-2.6 1.6,-4.2 0.9,-2.2 2.1,-4.4 3.5,-6.4 l 0,0 c 1.4,-2 2.9,-3.8 4.6,-5.5 1.5,-1.6 3.2,-3 4.9,-4.5 l 5.8,-3.9 0,0 z"
       id="path180"
       inkscape:connector-curvature="0" /><path
       class="st21"
       d="m 815.1,540 c -2.8,2.7 -6.2,6.2 -6.9,7 -1,1.2 -11.4,12.2 -11.4,14.7 0,0 -1.2,11.2 -0.6,13 0.6,1.8 3.3,12 3.7,12.8 0.4,0.8 7.4,9 9.5,10 2.1,1 9.1,3.7 9.1,3.7 0,0 17.2,2.7 22.3,2.1 5.1,-0.6 13,-1.4 15.3,-3.5 1.8,-1.6 5.8,-3.2 7.8,-5 2.7,-2.3 5.8,-2.9 7.2,-4.3 0.6,-0.7 1.1,-1.5 1.6,-2.3 l -1.2,0.6 c -0.7,0.3 -1.3,0.7 -2,1 -0.7,0.4 -1.4,0.9 -2,1.4 -0.6,0.5 -1.2,0.9 -1.8,1.3 -0.7,0.4 -1.5,0.8 -2.2,1.2 -0.7,0.4 -1.5,0.8 -2.1,1.2 -0.6,0.4 -1.2,0.8 -1.7,1.2 -0.3,0.3 -0.7,0.5 -1.1,0.7 -0.5,0.2 -1,0.4 -1.5,0.6 -0.6,0.2 -1.2,0.4 -1.9,0.5 -0.7,0.1 -1.4,0.3 -2.1,0.4 -1.5,0.3 -3,0.5 -4.5,0.7 -1.5,0.2 -3,0.4 -4.3,0.5 -0.8,0.1 -1.6,0.1 -2.4,0.1 -1,0 -2.1,-0.1 -3.2,-0.2 -2.3,-0.2 -5,-0.5 -7.4,-0.7 -4.9,-0.6 -9.2,-1.3 -9.2,-1.3 0,0 -1.8,-0.7 -3.8,-1.5 -2,-0.8 -4.3,-1.7 -5.3,-2.3 -0.4,-0.2 -0.7,-0.4 -1,-0.7 -0.4,-0.3 -0.8,-0.7 -1.3,-1.2 -1,-0.9 -2,-2 -3.1,-3.2 -1.1,-1.2 -2,-2.2 -2.8,-3.1 -0.5,-0.6 -1,-1.1 -1.4,-1.8 -0.2,-0.4 -1,-3.2 -1.8,-6 -0.8,-2.8 -1.6,-5.9 -1.9,-6.8 -0.1,-0.4 -0.2,-0.7 -0.2,-1.1 0,-0.5 0,-1.1 0,-1.7 0,-1.3 0.1,-2.9 0.2,-4.4 0.2,-3 0.5,-5.8 0.5,-5.8 0,-0.2 0.1,-0.4 0.1,-0.6 0.1,-0.3 0.2,-0.5 0.3,-0.7 0.4,-0.6 0.8,-1.3 1.2,-1.9 0.5,-0.7 1.1,-1.5 1.7,-2.2 0.6,-0.7 1.3,-1.6 2,-2.4 1.4,-1.6 2.8,-3.2 3.9,-4.4 1.1,-1.2 2,-2.2 2.2,-2.5 0.4,0.1 2.2,-1.7 3.5,-3.1 l 0,0 z"
       id="path182"
       inkscape:connector-curvature="0"
       style="fill:#6e4a25" /><path
       class="st20"
       d="m 859,595.4 c 0,0 10.2,2.8 17.3,9.3 5.9,5.4 14.3,17.3 16.5,26.1 1.7,6.9 0.6,13.9 -4.1,16.1 -3.7,1.8 -10.8,2.3 -12.5,0.7 -8.9,-8.9 -5,-16.4 -7.4,-27.2 -2,-8.7 -6.3,-11.8 -6.8,-13.2 -0.5,-1.4 -6.3,-8.9 -6.3,-8.9"
       id="path184"
       inkscape:connector-curvature="0"
       style="fill:#a06121" /><path
       class="st23"
       d="m 860.3,596 -1.8,1.7 c 0,0 1.3,-0.9 2.2,-0.6 0.9,0.3 2.2,0.9 3.7,1.7 0.8,0.4 1.5,0.8 2.4,1.3 0.9,0.5 1.7,1 2.5,1.6 0.8,0.6 1.7,1.2 2.6,1.9 0.9,0.7 1.7,1.4 2.5,2.2 0.7,0.7 1.3,1.4 2.1,2.3 0.8,0.9 1.6,2.5 2.4,3.5 0.8,1 1.7,2.1 2.5,3.2 0.8,1.1 1.6,2.3 2.4,3.5 0.8,1.2 1.5,2.4 2.2,3.6 0.7,1.2 1.3,2.5 1.9,3.7 0.6,1.2 1.1,2.4 1.6,3.6 0.4,1.1 0.8,2.2 1.1,3.4 0.2,0.9 0.4,1.7 0.5,2.6 0.1,0.8 0.2,1.7 0.2,2.5 0,0.8 0,1.6 0,2.4 -0.1,0.8 -0.2,1.5 -0.3,2.3 -0.2,0.7 -0.4,1.4 -0.6,2 -0.2,0.6 -0.6,1.2 -0.9,1.8 -0.2,0.3 -0.4,0.5 -0.6,0.7 l 0,0 c 4.6,-2.2 5.7,-9.2 4.1,-16.1 -2.1,-8.7 -10.5,-20.7 -16.5,-26.1 -4.8,-4.1 -10.3,-7.1 -16.2,-8.7 l 0,0 z"
       id="path186"
       inkscape:connector-curvature="0"
       style="fill:#b8854f" /><path
       d="m 859.4,595.4 5.6,2.5 c 2.1,1 4.1,2.2 6.1,3.5 1.7,1.1 3.2,2.4 4.7,3.7 0.9,0.9 1.8,1.8 2.5,2.6 0.7,0.8 1.5,1.7 2.1,2.5 1.7,2.1 3.3,4.4 4.7,6.7 1,1.5 1.7,2.9 2.3,4.1 0.6,1.2 1.2,2.3 1.6,3.3 l 0.1,0.2 c 0.3,0.8 0.8,1.7 1.3,2.8 0.5,1.3 0.9,2.5 1.3,3.8 0.4,1.5 0.7,3.1 0.8,4.7 0.1,1.6 0.1,3.3 -0.3,4.9 -0.2,1.3 -0.7,2.5 -1.4,3.6 -0.3,0.5 -0.7,1 -1.1,1.4 -0.4,0.4 -0.9,0.7 -1.4,1 -1,0.5 -2.1,0.9 -3.1,1.1 -0.8,0.2 -1.5,0.3 -2.3,0.5 -0.3,0 -0.8,0.1 -1.3,0.1 -0.5,0 -0.9,0 -1.5,0 -0.6,0 -1.2,-0.1 -1.8,-0.2 -0.4,-0.1 -0.8,-0.2 -1.2,-0.3 -0.2,-0.1 -0.5,-0.2 -0.7,-0.4 -0.9,-0.9 -1.7,-1.9 -2.4,-2.9 -0.8,-1.1 -1.4,-2.3 -1.9,-3.6 l 0,0 c -0.8,-2 -1.2,-4.1 -1.4,-6.3 -0.1,-1.2 -0.1,-2.4 -0.2,-3.6 -0.1,-1.2 0,-2.2 -0.1,-3.3 -0.1,-1.1 -0.1,-2.1 -0.2,-3 -0.1,-0.9 -0.2,-1.6 -0.3,-2.1 -0.1,-0.8 -0.3,-1.7 -0.6,-2.8 -0.4,-1.8 -1,-3.7 -1.7,-5.4 l 0,0 c -0.5,-1.2 -1,-2.4 -1.7,-3.5 -0.5,-0.9 -1.1,-1.7 -1.8,-2.5 l 0,0 c -0.6,-0.8 -1.2,-1.5 -1.7,-2.3 -0.2,-0.3 -0.4,-0.5 -0.6,-0.7 l -0.9,-1 c -0.8,-0.9 -1.5,-1.7 -2.2,-2.5 l -1.9,-2.1 -0.2,-0.2 c -0.3,-0.3 -0.5,-0.5 -0.7,-0.7 l -0.2,-0.2 -0.1,0 0,0 -0.4,0.3 -0.1,0.1 0,0 0.1,-0.1 0.3,-0.3 0,0 0,0.1 0.1,0.2 c 0.1,0.2 0.3,0.5 0.5,0.8 0.4,0.6 1,1.5 1.8,2.5 l 2,2.7 0.8,1.1 c 0.2,0.2 0.3,0.5 0.5,0.7 0.5,0.8 1,1.6 1.6,2.4 0.5,0.8 1.1,1.6 1.5,2.4 0.6,1.1 1,2.2 1.4,3.4 0.5,1.7 1,3.5 1.3,5.3 0.3,1.3 0.5,2.6 0.6,3.8 0.1,1.2 0.3,2.3 0.3,3.4 l 0,0.3 c 0.2,2.2 0.3,4.5 0.6,6.9 l 0,0 c 0.3,2.3 0.9,4.5 1.9,6.6 1.2,2.5 2.9,4.7 4.9,6.6 0.3,0.3 0.6,0.5 1,0.6 0.4,0.2 0.9,0.3 1.3,0.3 1.1,0.1 2.3,0.2 3.4,0.1 1.3,-0.1 2.5,-0.3 3.7,-0.6 l 0,0 c 0.4,-0.1 0.9,-0.2 1.5,-0.3 0.7,-0.2 1.3,-0.4 1.9,-0.7 l 0,0 c 0.6,-0.3 1.1,-0.6 1.6,-1 0.5,-0.5 1,-1 1.4,-1.6 0.8,-1.2 1.4,-2.6 1.7,-4 0.4,-1.6 0.6,-3.3 0.5,-5 0,-1.8 -0.3,-3.5 -0.7,-5.2 -0.6,-2.5 -1.5,-5 -2.6,-7.3 -1.2,-2.6 -2.6,-5.1 -4.2,-7.5 -0.6,-0.9 -1.2,-1.7 -1.6,-2.3 -0.9,-1.2 -2.1,-2.7 -3.6,-4.3 -1.6,-1.8 -3.2,-3.5 -5,-5 -1.8,-1.5 -3.7,-2.8 -5.7,-4 -1.8,-1 -3.6,-2 -5.5,-2.8 l -5.8,-2.2 0.8,0.2 z"
       id="path188"
       inkscape:connector-curvature="0" /><path
       d="m 880.3,645.2 c 0.1,0 0.2,0.1 0.3,0.1 0.1,0.1 0.2,0.3 0.2,0.4 0.1,0.2 0.1,0.4 0.1,0.7 0,0.2 0,0.5 -0.1,0.7 -0.1,0.6 -0.3,1.1 -0.6,1.6 -0.1,0.2 -0.2,0.3 -0.3,0.5 -0.3,0.6 -0.8,1.1 -1.3,1.5 -0.2,0.1 -0.4,0.3 -0.6,0.3 -0.1,0 -0.2,0 -0.3,0 l -0.1,0 -0.1,0 0,0 -0.1,-0.1 -0.1,-0.1 0,0 c 0,-0.1 -0.1,-0.2 -0.1,-0.3 0,-0.2 0,-0.5 0,-0.7 0.1,-0.6 0.3,-1.2 0.6,-1.8 l 0.2,-0.4 c 0.2,-0.5 0.5,-0.9 0.8,-1.3 0.1,-0.2 0.2,-0.3 0.4,-0.5 0.1,-0.1 0.2,-0.2 0.4,-0.3 0.1,-0.1 0.2,-0.1 0.3,-0.2 0.2,-0.1 0.3,-0.1 0.4,-0.1 l 0,0 z"
       id="path190"
       inkscape:connector-curvature="0" /><path
       d="m 876.2,644.4 c 0.1,0 0.2,0 0.3,0.1 0.1,0.1 0.2,0.2 0.3,0.3 0.2,0.3 0.3,0.6 0.3,1 0,0.4 0,0.8 -0.1,1.2 0,0.1 -0.1,0.3 -0.1,0.4 -0.1,0.5 -0.4,0.9 -0.8,1.3 -0.1,0.1 -0.3,0.3 -0.5,0.3 -0.1,0 -0.2,0.1 -0.2,0.1 l -0.1,0 -0.1,0 0,0 -0.1,0 -0.1,-0.1 c -0.1,0 -0.1,-0.1 -0.2,-0.2 -0.1,-0.2 -0.2,-0.3 -0.2,-0.5 -0.1,-0.5 -0.1,-0.9 -0.1,-1.4 0,-0.1 0,-0.3 0.1,-0.4 0.1,-0.4 0.2,-0.7 0.4,-1.1 0.1,-0.3 0.3,-0.5 0.6,-0.7 0.1,-0.1 0.2,-0.2 0.3,-0.2 0.1,0 0.2,0 0.3,-0.1 l 0,0 z"
       id="path192"
       inkscape:connector-curvature="0" /><path
       d="m 886.2,646.1 c 0.4,-0.1 0.8,0.1 1,0.5 0.3,0.4 0.5,0.9 0.5,1.4 0,0.4 0,0.7 -0.2,1.1 -0.1,0.3 -0.3,0.6 -0.5,0.8 -0.1,0.1 -0.2,0.1 -0.3,0.2 -0.1,0 -0.2,0 -0.3,0 l 0,0 c -0.1,0 -0.2,-0.1 -0.3,-0.1 -0.1,-0.1 -0.2,-0.1 -0.3,-0.2 -0.2,-0.2 -0.3,-0.4 -0.4,-0.7 -0.1,-0.3 -0.2,-0.6 -0.2,-0.9 0,-0.5 0.1,-0.9 0.3,-1.3 0.1,-0.5 0.4,-0.7 0.7,-0.8 l 0,0 z"
       id="path194"
       inkscape:connector-curvature="0" /><path
       class="st24"
       d="m 835.8,570.5 5.3,0 9.7,3.5 11.4,7 c 0,0 3.1,2.2 3.5,3.5 0.4,1.3 -1,7.2 -1,7.2 l -1.9,5.8 c 0,0 -11.3,9.1 -15.3,10.1 -4,1 -21.6,0.7 -24.5,-2.5 -2.9,-3.2 -9.4,-11.2 -9.4,-13.9 0,-2.7 0,-4.8 1.3,-6.1 1.3,-1.3 3.1,-2.2 8.8,-7.2 1.4,-1.2 5.3,-4.7 7,-6 1.7,-1.3 4,-1.8 5.1,-1.4 l 0,0 z"
       id="path196"
       inkscape:connector-curvature="0"
       style="fill:#834317" /><path
       class="st23"
       d="m 835.1,570.4 c -1.1,0.1 -2.3,0.4 -3.3,1 0.3,-0.1 0.7,-0.1 1,-0.1 0.4,0 4.5,-0.5 4.8,-0.4 l 5,0.5 6.4,2.9 11.2,7.7 c 0,0 0.8,0.5 1.6,1.3 0.4,0.4 0.8,0.7 1.2,1.1 0.2,0.2 0.3,0.4 0.5,0.6 0.1,0.2 0.2,0.3 0.3,0.5 0.1,0.2 0.1,0.5 0.1,0.7 0,0.3 0,0.7 0,1 -0.1,0.7 -0.2,1.6 -0.4,2.4 -0.3,1.6 -0.7,3.1 -0.7,3.1 l -1.9,5.8 c 0,0 -0.7,0.6 -1.8,1.4 -1.1,0.8 -2.7,2 -4.3,3.2 -0.8,0.6 -1.7,1.2 -2.5,1.8 -0.8,0.6 -1.7,1.1 -2.5,1.6 -0.8,0.5 -1.5,0.9 -2.2,1.2 l 0.3,0 c 4.1,-1 14.8,-10.4 14.8,-10.4 l 2.5,-5.5 c 0,0 1.5,-5.8 1,-7.2 -0.5,-1.4 -3.5,-3.5 -3.5,-3.5 l -11.4,-7 -9.6,-3.6 -5.3,0 c -0.5,-0.1 -0.9,-0.2 -1.3,-0.1 l 0,0 z"
       id="path198"
       inkscape:connector-curvature="0"
       style="fill:#b8854f" /><path
       class="st25"
       d="m 816.6,583.8 c -0.6,0.4 -1.1,0.9 -1.7,1.4 -1.3,1.3 -1.3,3.4 -1.3,6.1 0,2.7 6.4,10.7 9.4,13.9 3,3.2 20.5,3.5 24.5,2.5 4,-1 15.3,-10.5 15.3,-10.5 l 0.2,-0.6 c -1.1,0.8 -2.3,2.3 -3.9,3.4 -0.8,0.6 -1.7,1.2 -2.5,1.8 -0.8,0.6 -1.7,1.1 -2.5,1.6 -0.8,0.5 -1.6,0.9 -2.3,1.3 -0.6,0.3 -1.2,0.5 -1.8,0.7 -0.7,0.2 -1.4,0.3 -2.1,0.3 -0.9,0.1 -1.9,0.2 -3,0.2 -1.1,0 -2.4,0 -3.6,0 -1.2,0 -2.6,-0.1 -3.9,-0.2 -1.3,-0.1 -2.6,-0.2 -3.9,-0.4 -1.3,-0.2 -2.4,-0.3 -3.5,-0.6 -0.5,-0.1 -1,-0.2 -1.5,-0.4 -0.4,-0.1 -0.9,-0.3 -1.3,-0.5 -0.3,-0.1 -0.7,-0.3 -1,-0.5 -0.3,-0.2 -0.5,-0.3 -0.7,-0.6 -0.7,-0.8 -1.7,-1.9 -2.7,-3.2 -1,-1.3 -2.1,-2.6 -3.1,-4 -0.5,-0.7 -1,-1.4 -1.4,-2 -0.4,-0.6 -0.8,-1.3 -1.1,-1.9 -0.3,-0.5 -0.6,-1.1 -0.8,-1.6 -0.2,-0.4 -0.3,-0.8 -0.3,-1.2 0,-0.7 0,-1.3 0,-1.9 0,-0.6 0.1,-1.1 0.1,-1.7 0.1,-0.5 0.2,-1 0.4,-1.4 -0.1,0.2 0,0.1 0,0 l 0,0 z"
       id="path200"
       inkscape:connector-curvature="0"
       style="fill:#5d381e" /><path
       class="st25"
       d="m 835.9,584.8 c 0.3,1.5 0.9,1.6 1.9,2.7 1,1.1 1,4.6 0.8,8.3 l 1.6,0.6 -0.9,-9.2 -3.4,-2.4 z"
       id="path202"
       inkscape:connector-curvature="0"
       style="fill:#5d381e" /><path
       d="m 815.9,584.6 c 2.8,-2.2 5.4,-4.3 7.7,-6.3 1.8,-1.5 3.4,-3 5,-4.2 l 0,0 c 1.1,-0.9 2.3,-1.7 3.7,-2.4 1.2,-0.5 2.4,-0.8 3.7,-0.9 l 0,0 c 1.2,-0.1 2.3,-0.1 3.5,0 1,0.1 2,0.2 3,0.4 0.9,0.2 1.8,0.5 2.7,0.9 0.8,0.3 1.5,0.7 2.2,1.1 1.2,0.6 2.2,1.3 3.1,1.8 0.9,0.6 1.8,1.1 2.6,1.6 l 1,0.6 c 1.7,1 4.4,2.5 7.7,4 1,0.4 1.8,1.2 2.4,2.1 0.6,1 1,2.1 1.1,3.3 l 0,0 c 0.2,1.4 0.1,2.8 -0.2,4.2 -0.3,1.3 -0.7,2.6 -1.2,3.8 l 0,0 c -0.4,0.9 -1,1.8 -1.6,2.6 -0.5,0.7 -1.1,1.3 -1.7,1.9 -0.5,0.5 -1,1 -1.3,1.3 -0.3,0.3 -1,0.8 -1.7,1.3 -0.7,0.5 -1.7,1.1 -2.7,1.8 -2.2,1.3 -4.6,2.4 -7.1,3.2 -1.2,0.4 -2.4,0.7 -3.6,0.9 -1.2,0.2 -2.4,0.4 -3.6,0.4 -1.5,0 -2.9,-0.1 -4.4,-0.2 -1.3,-0.2 -2.6,-0.4 -3.8,-0.7 -1.7,-0.4 -3.4,-1 -5.1,-1.7 l -0.2,-0.1 c -0.9,-0.4 -1.7,-0.7 -2.6,-1.2 -1.1,-0.6 -2.1,-1.2 -3,-1.9 -1.5,-1.1 -2.8,-2.5 -3.8,-4.1 -0.7,-1.1 -1.4,-2.3 -2,-3.4 -0.6,-1.1 -1.1,-2.3 -1.5,-3.6 -0.3,-1.1 -0.4,-2.2 -0.1,-3.3 0.1,-0.8 0.5,-1.5 0.9,-2.1 0.2,-0.3 0.4,-0.6 0.7,-0.8 0.2,-0.2 0.3,-0.3 0.3,-0.3 l 0,0 0,0 c -0.1,0.1 -0.2,0.1 -0.3,0.2 -0.2,0.2 -0.4,0.4 -0.6,0.6 -0.3,0.3 -0.6,0.6 -0.8,1 -0.6,0.9 -1,2 -1.1,3.1 0,0.7 0,1.3 0.2,2 0.3,1.4 0.7,2.7 1.3,3.9 0.5,1.2 1.2,2.4 1.8,3.6 1,1.8 2.3,3.4 3.9,4.7 1.8,1.5 3.8,2.7 5.9,3.6 1.6,0.7 3.3,1.3 5.1,1.7 1.5,0.3 3.1,0.6 4.7,0.7 1.6,0.1 3.2,0.1 4.8,0 2.6,-0.2 5.1,-0.8 7.5,-1.8 2.5,-1 4.9,-2.2 7.1,-3.6 l 0,0 c 1.3,-0.8 2.4,-1.6 3.3,-2.4 0.9,-0.8 1.8,-1.5 2.5,-2.1 l 0.4,-0.4 c 0.5,-0.5 1,-1 1.5,-1.6 0.7,-0.8 1.3,-1.7 1.8,-2.6 0.6,-1.2 1.1,-2.5 1.5,-3.9 0.4,-1.5 0.5,-3.1 0.4,-4.7 -0.1,-1.4 -0.5,-2.7 -1.1,-3.9 -0.7,-1.2 -1.7,-2.2 -3,-2.8 -3,-1.5 -5.8,-3.1 -8.4,-4.7 l 0,0 -3,-1.8 c -1,-0.6 -1.9,-1.1 -2.8,-1.6 -0.7,-0.4 -1.4,-0.7 -2.1,-1 -0.6,-0.2 -1.2,-0.4 -1.8,-0.6 -0.4,-0.1 -0.9,-0.2 -1.5,-0.3 -1.1,-0.2 -2.1,-0.3 -3.2,-0.3 -1.2,0 -2.5,0.1 -3.7,0.2 -1.4,0.1 -2.7,0.5 -4,1.2 -1.3,0.7 -2.6,1.6 -3.7,2.7 -1.7,1.5 -3.3,3.1 -4.8,4.5 -2.1,1.9 -3.9,3.6 -5.3,4.8 -1.4,1.2 -2.6,1.6 -2.6,1.6 l 0,0 z"
       id="path204"
       inkscape:connector-curvature="0" /><path
       class="st21"
       d="m 822.6,564.1 c -1,-0.5 -1.9,-2.9 -1.9,-1.7 0,1.2 0.4,3.2 1.2,4 0.8,0.8 5.2,1.4 5.2,0.3 0,-1.2 -3.5,-2 -4.5,-2.6 l 0,0 z"
       id="path206"
       inkscape:connector-curvature="0"
       style="fill:#6e4a25" /><path
       d="m 824.8,558.1 c -2.3,0 -3.9,1.1 -3.9,3.4 0,2.3 1.6,4.7 3.9,4.9 2.1,0.2 3.9,-1.2 4.2,-3.3 0,-0.3 0,-0.6 0,-0.9 -0.1,-2.2 -1.9,-4 -4.2,-4.1 l 0,0 z"
       id="path208"
       inkscape:connector-curvature="0" /><path
       d="m 852.7,558.3 c -2.1,-0.2 -3.9,1.4 -4.1,3.5 0,0.1 0,0.2 0,0.3 0,2.3 1,4.5 3.3,4.7 2.1,0.2 3.9,-1.2 4.2,-3.3 0,-0.3 0,-0.6 0,-0.9 -0.2,-2.2 -1.1,-4.3 -3.4,-4.3 z"
       id="path210"
       inkscape:connector-curvature="0" /><path
       class="st20"
       d="m 798.3,562.1 c 0,0 -5.5,-1.9 -6.2,-2.7 -0.7,-0.8 -6.6,-7.1 -6.7,-10.5 -0.1,-3.4 0.2,-7.9 3.1,-10.7 2.9,-2.8 7.8,-5.6 9.8,-5.9 2,-0.3 7.1,1.9 8,2.9 0.9,1 7.6,7.4 8,8 0.4,0.6 -16,18.9 -16,18.9 l 0,0 z"
       id="path212"
       inkscape:connector-curvature="0"
       style="fill:#a06121" /><path
       class="st21"
       d="m 798.4,532.4 0,0 c -2.1,0.3 -6.9,3.1 -9.9,5.9 -2.9,2.8 -3.1,7.3 -3.1,10.7 0,3.4 5.9,9.6 6.7,10.5 0.8,0.9 6.2,2.7 6.2,2.7 l 1.8,-2.1 c -0.5,-0.2 -0.6,-0.2 -1.2,-0.4 -0.6,-0.2 -1.5,-0.6 -2.1,-0.9 -0.5,-0.2 -0.9,-0.4 -1.3,-0.8 -0.2,-0.2 -0.7,-0.8 -1.3,-1.5 -0.6,-0.7 -1.5,-1.7 -2.2,-2.8 -0.4,-0.5 -0.8,-1.1 -1.1,-1.6 -0.3,-0.5 -0.7,-1.1 -1,-1.6 -0.3,-0.5 -0.5,-1 -0.7,-1.5 -0.2,-0.4 -0.2,-0.9 -0.3,-1.4 0,-0.8 0,-1.8 0,-2.7 0.1,-1 0.2,-1.9 0.4,-2.9 0.1,-0.5 0.2,-0.9 0.4,-1.4 0.2,-0.5 0.3,-0.9 0.5,-1.3 0.2,-0.4 0.5,-0.9 0.8,-1.3 0.3,-0.4 0.6,-0.8 1,-1.1 0.8,-0.7 1.6,-1.4 2.5,-2 0.9,-0.7 1.8,-1.3 2.8,-1.8 0.4,-0.4 0.7,-0.6 1.1,-0.7 l 0,0 z"
       id="path214"
       inkscape:connector-curvature="0"
       style="fill:#6e4a25" /><path
       d="m 815,544 0,0 0,0 0,0 -0.3,-0.5 c -0.3,-0.5 -0.7,-0.9 -1,-1.3 l 0,0 c -1.2,-1.6 -2.4,-2.9 -3.4,-4 -0.9,-1 -1.7,-1.8 -2.5,-2.5 -0.8,-0.7 -1.5,-1.3 -2.2,-1.8 -0.8,-0.6 -1.7,-1.2 -2.7,-1.7 -0.9,-0.5 -1.9,-0.8 -2.9,-1 -0.3,0 -0.5,-0.1 -0.8,-0.1 -0.5,0 -0.9,0 -1.4,0.1 -0.6,0.1 -1.1,0.3 -1.7,0.5 -0.7,0.3 -1.3,0.6 -1.9,1 -0.6,0.4 -1.2,0.8 -1.8,1.3 -0.6,0.5 -1.2,1.1 -1.8,1.7 -0.6,0.6 -1.1,1.1 -1.5,1.7 -0.7,0.8 -1.3,1.7 -1.8,2.5 -0.2,0.3 -0.5,0.8 -1,1.5 -0.3,0.5 -0.6,1 -0.8,1.6 -0.2,0.6 -0.4,1.3 -0.5,2 l 0,0 c -0.1,0.7 -0.1,1.3 -0.1,2 0,0.7 0,1.3 0.1,2 l 0,0 c 0.1,1.3 0.4,2.5 0.8,3.8 0.2,0.6 0.3,1.1 0.5,1.6 0.1,0.4 0.3,0.7 0.5,1.1 l 0,0 c 0.3,0.5 0.6,1 1,1.4 0.5,0.5 1,1 1.6,1.4 l 0,0 c 1.1,0.8 2.2,1.4 3.4,2 1.1,0.5 2.2,1 3.3,1.4 0.5,0.2 1,0.4 1.5,0.5 0.2,0.1 0.5,0.1 0.7,0.1 0.1,0 0.1,-0.1 -0.1,-0.2 -0.2,-0.1 -0.4,-0.2 -0.7,-0.4 l -1.2,-0.7 c -0.8,-0.5 -1.9,-1.1 -3,-1.9 -1,-0.7 -2,-1.4 -2.9,-2.3 -0.4,-0.4 -0.8,-0.8 -1.1,-1.2 -0.3,-0.4 -0.5,-0.7 -0.7,-1.2 -0.3,-0.7 -0.6,-1.3 -0.8,-1.9 l -0.2,-0.5 c -0.5,-1.1 -0.8,-2.2 -1.1,-3.4 -0.3,-1.2 -0.5,-2.5 -0.5,-3.7 l 0,0 c 0,-0.6 0.1,-1.2 0.2,-1.8 0.1,-0.5 0.3,-1.1 0.6,-1.5 0.5,-0.8 1,-1.6 1.6,-2.3 0.6,-0.6 1.2,-1.3 1.8,-1.8 1,-0.9 2,-1.7 3.1,-2.4 1.1,-0.7 2.3,-1.4 3.5,-1.8 0.5,-0.2 1,-0.3 1.5,-0.4 0.5,-0.1 0.9,-0.1 1.4,0 l 0,0 c 0.8,0.1 1.6,0.4 2.4,0.7 0.6,0.3 1.2,0.5 1.6,0.8 0.4,0.3 0.6,0.3 1,0.5 0.8,0.5 1.6,1 2.4,1.5 0.9,0.6 1.8,1.4 2.6,2.1 1.3,1.2 2.6,2.4 3.8,3.7 0.5,0.5 0.8,0.9 1.1,1.2 l 0.3,0.3 0,0 0.1,0.1 0,0 0,0 0,0.2 z"
       id="path216"
       inkscape:connector-curvature="0" /><path
       d="m 859,544.7 0,0 0,0 0,0 0.3,-0.4 0.8,-1.1 c 0.9,-1.3 1.8,-2.4 2.5,-3.4 1.1,-1.4 2,-2.6 2.9,-3.6 0.4,-0.5 0.8,-0.9 1.2,-1.3 0.2,-0.2 0.5,-0.5 0.8,-0.6 0.5,-0.3 1.1,-0.5 1.7,-0.7 0.5,-0.1 1,-0.2 1.5,-0.2 0.4,0 0.8,0 1.1,0 0.3,0 0.7,0.1 1,0.1 0.3,0 0.6,0.1 1,0.2 0.9,0.2 1.8,0.5 2.7,0.8 1,0.4 2,1 2.9,1.6 1.1,0.8 2.1,1.4 3,1.9 0.5,0.3 1,0.7 1.4,1.1 0.3,0.3 0.6,0.5 0.8,0.8 l 0.1,0.2 c 0.3,0.4 0.5,0.8 0.7,1.3 0.2,0.6 0.3,1.3 0.4,2 l 0,0 c 0,0.9 0,1.8 -0.2,2.7 -0.2,0.9 -0.4,1.9 -0.7,2.8 l 0,0 c -0.2,0.6 -0.4,1.1 -0.8,1.6 -0.3,0.5 -0.7,1 -1,1.4 -0.5,0.6 -0.8,1.1 -1,1.4 -0.6,0.8 -1.3,1.5 -2,2.2 -0.6,0.6 -1.2,1.1 -1.8,1.6 -0.7,0.5 -1.4,1 -2.1,1.4 -0.5,0.3 -1.1,0.6 -1.7,0.8 -0.5,0.2 -1.1,0.3 -1.6,0.4 -0.4,0 -0.6,0.1 -0.6,0.1 0,0.1 0.2,0.2 0.5,0.2 0.5,0.1 1.1,0.1 1.6,0 0.8,-0.1 1.6,-0.3 2.3,-0.5 l 0,0 c 0.8,-0.3 1.6,-0.6 2.3,-1.1 0.8,-0.4 1.5,-1 2.3,-1.5 l 0,0 c 0.7,-0.6 1.4,-1.2 2,-1.8 0.6,-0.6 1,-1.2 1.5,-1.9 l 0.2,-0.3 c 0.7,-1.1 1.1,-2.2 1.4,-3.5 l 0,0 c 0.2,-1 0.3,-2 0.4,-3 0.1,-1 0,-1.9 -0.1,-2.9 -0.1,-0.7 -0.3,-1.4 -0.6,-2 -0.2,-0.6 -0.5,-1.1 -0.9,-1.6 -0.3,-0.3 -0.5,-0.7 -0.8,-1 -0.2,-0.2 -0.3,-0.4 -0.6,-0.6 -0.3,-0.2 -0.6,-0.5 -0.9,-0.8 -0.3,-0.3 -0.8,-0.7 -1.3,-1 -0.5,-0.3 -1,-0.8 -1.5,-1.2 l 0,0 c -0.8,-0.7 -1.8,-1.4 -2.8,-1.9 -1,-0.6 -2.1,-1 -3.2,-1.3 l 0,0 c -0.6,-0.2 -1.3,-0.3 -1.9,-0.3 -0.6,-0.1 -1.2,-0.1 -1.8,0 -0.6,0.1 -1.2,0.2 -1.8,0.4 -0.4,0.1 -0.8,0.3 -1.2,0.5 -0.2,0.1 -0.5,0.3 -0.7,0.5 -0.4,0.3 -0.7,0.6 -0.9,1 l 0,0 c -0.4,0.5 -0.7,1 -1.1,1.5 l 0,0 c -0.8,1.2 -1.7,2.6 -2.5,3.9 -0.8,1.3 -1.6,2.7 -2.2,3.7 l -0.7,1.2 -0.2,0.3 0,0 0,0.1 0,0 0,0 -0.1,0 z"
       id="path218"
       inkscape:connector-curvature="0" /><path
       class="st24"
       d="m 811.2,548.7 c 0,0 -3.9,3.5 -4.8,4.9 -1.1,1.5 -2.4,2.9 -3.9,4 -0.6,-0.1 -1.2,-0.2 -1.8,-0.4 -1.2,-1.3 -2.3,-2.7 -3.2,-4.2 -0.8,-1.6 -2.7,-3.1 -1.9,-5 0.8,-1.9 1.7,-5.1 3.7,-5.2 2,-0.2 4,-0.1 6,0.2 1,0.3 2,0.8 3,1.4 0.6,0.5 3.8,3.5 2.9,4.3 l 0,0 z"
       id="path220"
       inkscape:connector-curvature="0"
       style="fill:#834317" /><path
       class="st25"
       d="m 799.2,542.9 c -1.8,0.5 -2.6,3.3 -3.3,5.1 -0.7,1.8 1.1,3.3 1.9,5 0.9,1.5 2,3 3.2,4.2 0.6,0.2 1.2,0.3 1.8,0.4 0.4,-0.2 0.8,-0.5 1.1,-0.9 -0.3,0 -0.6,-0.1 -0.9,-0.1 -0.4,-0.1 -0.8,-0.2 -0.8,-0.2 0,0 -0.6,-0.7 -1.3,-1.5 -0.3,-0.4 -0.7,-0.9 -1.1,-1.4 -0.3,-0.4 -0.6,-0.9 -0.8,-1.4 -0.2,-0.4 -0.5,-0.8 -0.7,-1.2 -0.3,-0.4 -0.6,-0.8 -0.8,-1.2 -0.1,-0.2 -0.2,-0.4 -0.3,-0.6 -0.1,-0.2 -0.1,-0.4 -0.2,-0.6 0,-0.2 0,-0.4 0,-0.6 0,-0.2 0.1,-0.5 0.2,-0.7 0.2,-0.5 0.4,-1 0.6,-1.6 0.2,-0.6 0.5,-1.1 0.8,-1.7 0.1,-0.3 0.3,-0.5 0.5,-0.7 -0.1,-0.1 0,-0.2 0.1,-0.3 l 0,0 z"
       id="path222"
       inkscape:connector-curvature="0"
       style="fill:#5d381e" /><path
       d="m 811.3,548.6 c -0.7,0.4 -1.3,0.8 -1.9,1.2 -0.6,0.4 -1.1,0.8 -1.5,1.2 -0.4,0.4 -1.1,0.9 -1.5,1.4 -0.4,0.4 -0.8,0.8 -1.1,1.3 -0.3,0.4 -0.6,0.8 -1,1.2 -0.3,0.3 -0.6,0.6 -0.9,0.8 -0.3,0.3 -0.7,0.5 -1.1,0.7 -0.3,0.1 -0.5,0.2 -0.6,0.2 l 0.3,0 -0.2,-0.1 0,0 c -0.3,-0.2 -0.6,-0.4 -0.8,-0.7 -0.4,-0.3 -0.8,-0.7 -1.2,-1.1 -0.4,-0.4 -0.8,-0.9 -1.2,-1.3 -0.4,-0.4 -0.9,-1.1 -1.3,-1.7 -0.3,-0.4 -0.6,-0.9 -0.8,-1.4 -0.1,-0.2 -0.2,-0.4 -0.2,-0.5 -0.1,-0.3 -0.2,-0.7 -0.2,-1 0,-0.4 0,-0.8 0.1,-1.1 l 0,0 c 0.3,-0.7 0.7,-1.3 1.2,-1.8 0.5,-0.5 1.1,-1 1.8,-1.3 0.5,-0.3 1,-0.5 1.5,-0.7 l 1,-0.3 c 0.4,-0.1 0.7,-0.2 1.1,-0.3 0.3,0 0.5,0 0.8,0 0.3,0 0.7,0.1 1,0.1 l 0,0 c 0.7,0.2 1.4,0.4 2.1,0.7 0.6,0.3 1.2,0.5 1.7,0.8 l 0.3,0.1 0.2,0.1 0.2,0 0,0 0.3,-0.4 0,0 0.1,-0.2 0,0 -0.1,0.1 -0.2,0.4 c 0,0 0,0 0,0 0,-0.1 -0.1,-0.1 -0.1,-0.2 -0.1,-0.2 -0.3,-0.3 -0.4,-0.5 l 0,0 c -0.5,-0.5 -1,-0.9 -1.5,-1.3 -0.7,-0.5 -1.4,-0.9 -2.1,-1.2 -0.8,-0.4 -1.6,-0.5 -2.4,-0.5 -0.6,0 -1.1,0.1 -1.7,0.2 -0.5,0.1 -0.9,0.3 -1.3,0.5 -0.5,0.3 -1,0.6 -1.5,1 -0.7,0.6 -1.3,1.2 -1.8,2 -0.5,0.7 -0.8,1.5 -1,2.3 -0.1,0.5 -0.1,1 0,1.5 0.1,0.6 0.3,1.1 0.5,1.6 l 0.1,0.2 c 0.2,0.5 0.3,0.9 0.5,1.4 0.3,0.7 0.7,1.4 1.1,2 0.6,1.1 1.4,2.1 2.2,3 0.3,0.3 0.6,0.7 1,0.9 0.2,0.1 0.3,0.2 0.5,0.3 l 0,0 c 0.2,0.1 0.5,0.1 0.7,0.1 0.5,-0.1 0.9,-0.3 1.3,-0.5 0.5,-0.3 0.9,-0.6 1.2,-1 0.2,-0.2 0.4,-0.4 0.5,-0.6 0.5,-0.6 0.9,-1.3 1.2,-2 0.2,-0.5 0.5,-0.9 0.8,-1.3 0.4,-0.5 0.8,-1.1 1.2,-1.6 0.4,-0.5 0.7,-0.8 1.1,-1.2 0.4,-0.4 0.7,-0.7 1,-0.9 0.3,-0.1 0.6,-0.4 1,-0.6 l 0,0 z"
       id="path224"
       inkscape:connector-curvature="0" /><path
       class="st24"
       d="m 861.5,548.1 c 0,0 4,1.7 4.9,3.1 0.9,1.4 3.8,5 4.1,5.1 0.6,-0.1 1.2,-0.2 1.8,-0.4 1.2,-1.3 2.3,-2.7 3.2,-4.2 0.8,-1.6 1.8,-3.5 0.9,-5.4 -0.8,-1.9 -1.6,-4.5 -2.8,-4.8 -2,-0.4 -4,-0.3 -6,0.2 -1,0.3 -2,0.8 -3,1.4 -0.5,0.5 -4,4.7 -3.1,5 l 0,0 z"
       id="path226"
       inkscape:connector-curvature="0"
       style="fill:#834317" /><path
       d="m 861.1,548 0,0 0.1,0 0.5,0.2 c 0.5,0.2 1,0.5 1.5,0.8 0.8,0.5 1.5,1 2.1,1.7 0.5,0.5 0.8,1.1 1.1,1.7 0.4,0.8 0.8,1.5 1.4,2.2 0.4,0.5 0.9,0.9 1.4,1.3 0.4,0.3 0.8,0.5 1.2,0.7 0.2,0.1 0.4,0.1 0.6,0.2 0.3,0.1 0.7,0.1 1,0 0.4,-0.1 0.7,-0.3 1,-0.6 0.1,-0.1 0.2,-0.3 0.4,-0.4 l 0.7,-0.7 c 0.6,-0.7 1.1,-1.4 1.6,-2.1 0.3,-0.5 0.6,-1 0.8,-1.5 0.2,-0.4 0.3,-0.9 0.4,-1.3 0.1,-0.2 0.1,-0.5 0.1,-0.7 0,-0.2 0.1,-0.6 0.2,-1.1 0.1,-0.6 0.1,-1.1 0,-1.7 -0.1,-0.8 -0.3,-1.6 -0.7,-2.3 -0.4,-0.7 -0.9,-1.4 -1.4,-1.9 -0.5,-0.5 -1,-0.9 -1.6,-1.3 -0.4,-0.2 -0.8,-0.4 -1.3,-0.5 -1.1,-0.3 -2.3,-0.3 -3.4,0.1 -0.6,0.2 -1.1,0.4 -1.7,0.7 l 0,0 c -0.6,0.3 -1.1,0.6 -1.5,1 -0.4,0.4 -0.8,0.8 -1.2,1.3 -0.1,0.1 -0.2,0.2 -0.2,0.4 0,0.1 0,0.1 0,0.1 0.2,-0.1 0.4,-0.2 0.6,-0.4 0.4,-0.3 0.8,-0.5 1.2,-0.7 0.5,-0.3 1.1,-0.5 1.7,-0.6 0.5,-0.1 0.9,-0.2 1.4,-0.2 0.4,-0.1 0.9,-0.1 1.3,0 0.7,0.1 1.5,0.4 2.1,0.8 0.4,0.2 0.9,0.4 1.3,0.7 0.6,0.4 1.1,0.9 1.5,1.4 0.4,0.5 0.7,1.1 0.9,1.7 0.2,0.6 0.2,1.2 0.2,1.8 0,0.5 -0.1,0.9 -0.3,1.3 l 0,0 c -0.1,0.3 -0.3,0.7 -0.5,1 -0.3,0.5 -0.6,0.9 -1,1.4 l 0,0 c -0.5,0.6 -1.1,1.2 -1.7,1.7 l 0,0 -0.7,0.6 c -0.2,0.2 -0.4,0.3 -0.5,0.5 l 0,0 c -0.1,0 -0.2,0 -0.2,0 -0.4,-0.1 -0.8,-0.3 -1.1,-0.5 -0.5,-0.4 -1.1,-0.8 -1.5,-1.3 -0.4,-0.4 -0.8,-0.8 -1.2,-1.2 -0.5,-0.7 -1.2,-1.4 -1.9,-1.9 -0.7,-0.5 -1.5,-0.9 -2.3,-1.2 -0.5,-0.2 -1.1,-0.4 -1.7,-0.5 l -0.7,-0.7 0,0 0,0 0,0 0,0 z"
       id="path228"
       inkscape:connector-curvature="0" /><path
       d="m 813.2,542.1 c 1.6,-1.6 3.4,-3.1 5.4,-4.3 2.2,-1.4 4.6,-2.4 7.1,-3.1 0.8,-0.2 1.5,-0.4 2,-0.5 0.5,-0.1 1.3,-0.4 2.2,-0.6 0.9,-0.2 2,-0.5 3,-0.7 1,-0.2 2.2,-0.3 3.2,-0.4 1,-0.1 1.9,-0.1 2.6,-0.1 l 0.9,0 c 0.9,0.1 1.7,0.2 2.6,0.4 1.2,0.2 2.5,0.6 3.9,1 1.1,0.3 2.1,0.7 3,1 0.9,0.3 1.7,0.7 2.2,1 l 0.7,0.3 c 0.6,0.2 1.1,0.5 1.7,0.8 0.7,0.4 1.4,0.9 2.1,1.4 0.8,0.6 1.5,1.2 2.2,1.9 0.7,0.7 1.4,1.3 2,2 0.4,0.4 0.5,0.5 0.5,0.3 -0.1,-0.4 -0.3,-0.7 -0.5,-1.1 -0.9,-1.6 -2,-3 -3.2,-4.3 -0.7,-0.7 -1.4,-1.4 -2.2,-1.9 -0.7,-0.5 -1.5,-1 -2.3,-1.4 -0.3,-0.1 -0.7,-0.3 -1,-0.4 -1.6,-0.5 -3.2,-0.8 -4.8,-1 -1.6,-0.2 -3.1,-0.3 -4.4,-0.4 -1.3,-0.1 -2.4,-0.2 -3.2,-0.3 l -0.1,0 c -0.6,-0.1 -1.7,-0.2 -3,-0.2 -1.6,0 -3.1,0 -4.7,0.2 -1.6,0.2 -3.2,0.5 -4.8,1 -1.2,0.3 -2.3,0.8 -3.4,1.3 -1,0.6 -2,1.2 -2.9,1.8 -1.2,0.8 -2.3,1.7 -3.3,2.7 -0.9,0.8 -1.7,1.7 -2.5,2.6 -0.6,0.7 -1,1.2 -1,1.2 l 0,-0.2 z"
       id="path230"
       inkscape:connector-curvature="0" /><path
       d="m 796.9,562.1 c -0.1,1.1 -0.2,2.2 -0.5,3.2 l 0,0 c -0.3,1.2 -0.5,2.3 -0.7,3.4 -0.2,1.1 -0.2,2.3 -0.2,3.5 0,1 0.1,1.9 0.1,2.6 0,0.7 0.2,1.4 0.3,1.9 0.1,0.5 0.2,1 0.3,1.5 l 0.1,0.3 c 0.2,0.8 0.6,2 1.1,3.5 0.5,1.5 1.2,3 1.8,4.3 0.3,0.7 0.7,1.4 1,1.9 0.3,0.5 0.6,1 0.8,1.2 0.2,0.2 0.7,1.2 1.4,2.3 0.5,0.8 1.1,1.5 1.7,2.2 0.7,0.7 1.4,1.4 2.2,2.1 0.8,0.7 1.6,1.2 2.2,1.7 0.5,0.3 1,0.7 1.5,0.9 l 2.2,1.1 c 0.8,0.4 1.7,0.8 2.6,1.1 0.9,0.3 1.9,0.5 2.9,0.7 l 1.9,0.2 c 0.4,0.1 0.6,0 0.6,0 l 0,0 c -0.7,-0.5 -1.5,-0.8 -2.3,-1 -0.7,-0.3 -1.5,-0.7 -2.4,-1.1 -0.8,-0.4 -1.6,-0.9 -2.4,-1.5 -0.7,-0.5 -1.3,-0.9 -1.9,-1.3 -0.6,-0.4 -1.2,-0.7 -1.7,-1 -0.8,-0.4 -1.6,-0.8 -2.3,-1.3 -0.8,-0.5 -1.6,-1 -2.3,-1.6 -0.7,-0.5 -1.3,-1.2 -1.9,-1.8 -0.8,-0.9 -1.4,-1.8 -1.9,-2.9 -0.2,-0.5 -0.5,-1.3 -0.9,-2.4 -0.4,-1.1 -0.8,-2.5 -1.2,-3.9 -0.4,-1.4 -0.7,-2.9 -1.1,-4.3 -0.2,-0.8 -0.4,-1.5 -0.5,-2.2 -0.1,-0.7 -0.2,-1.2 -0.3,-1.6 -0.1,-0.4 -0.3,-1.3 -0.4,-2.2 -0.1,-1 -0.2,-1.9 -0.2,-2.9 0,-1.2 0.1,-2.4 0.2,-3.4 0.1,-1 0.1,-1.8 0.1,-2.4 0,-0.6 0.1,-0.7 0.1,-0.8 l 0,0 z"
       id="path232"
       inkscape:connector-curvature="0" /><path
       d="m 872.8,560.3 c 0.4,0.8 0.8,1.6 1.1,2.3 0.3,0.7 0.6,1.3 0.8,1.9 0.2,0.5 0.3,1.1 0.4,1.6 0.1,0.8 0.2,1.4 0.2,2 0,0.6 0,1.1 0.1,1.6 0,1.3 0,2.2 0,3 0,0.4 0,1 0.1,1.7 0.1,0.7 0.1,1.5 0.2,2.2 0.1,0.7 0.1,1.6 0.1,2.3 0,0.7 0,1.3 0,1.9 0,0.4 -0.1,0.8 -0.1,1.2 0,0.2 -0.1,0.3 -0.1,0.4 -0.2,0.6 -0.5,1.3 -0.8,1.9 -0.4,0.8 -0.8,1.6 -1.3,2.3 -0.4,0.6 -0.8,1.1 -1.3,1.7 -0.4,0.5 -0.8,0.9 -1.2,1.2 -0.4,0.3 -0.5,0.4 -0.6,0.6 -0.3,0.3 -0.6,0.6 -0.9,0.9 -0.4,0.3 -0.9,0.7 -1.4,1.1 -0.5,0.4 -1.3,0.9 -2,1.3 -0.7,0.4 -1.4,0.8 -2,1.1 -0.6,0.3 -0.3,0.4 0.7,0.3 1.4,-0.3 2.8,-0.7 4.2,-1.3 0.7,-0.3 1.4,-0.7 2,-1.1 0.6,-0.4 1.1,-0.8 1.6,-1.4 0.1,-0.1 0.2,-0.3 0.4,-0.5 0.7,-1 1.3,-2.1 1.8,-3.2 l 0,0 c 0.6,-1.5 1.1,-3.1 1.6,-4.7 0.1,-0.5 0.2,-0.9 0.3,-1.2 0.1,-0.3 0.2,-0.5 0.2,-1 0,-0.5 0.2,-0.9 0.3,-1.5 0.1,-0.6 0.2,-1.5 0.3,-2.3 0.1,-0.8 0.1,-1.6 0.2,-2.5 0.1,-1.6 0,-3.2 -0.2,-4.8 0,-0.2 0,-0.3 -0.1,-0.4 -0.2,-0.8 -0.5,-2 -0.9,-3.2 -0.2,-0.6 -0.5,-1.2 -0.8,-1.7 -0.4,-0.7 -0.7,-1.3 -1.1,-1.8 l -1.8,-1.9 0,0 z"
       id="path234"
       inkscape:connector-curvature="0" /><path
       class="st26"
       d="m 839.7,585.9 c 0.4,3.5 0.7,7 0.7,10.5"
       id="path236"
       inkscape:connector-curvature="0"
       style="fill:none;stroke:#000000;stroke-width:5" /><path
       class="st27"
       d="m 854.2,560.1 c -0.5,0 -0.8,1.1 -0.8,1.6 -0.2,0.5 0.1,1.1 0.6,1.3 0.5,0.2 1.1,-0.1 1.3,-0.6 0.1,-0.2 0.1,-0.4 0,-0.6 0,-0.6 -0.6,-1.7 -1.1,-1.7 z"
       id="path238"
       inkscape:connector-curvature="0"
       style="fill:#ddcebe" /><path
       class="st27"
       d="m 826.3,560.4 c -0.5,0 -0.8,1 -0.8,1.6 -0.2,0.5 0.1,1.1 0.7,1.3 0.5,0.2 1.1,-0.1 1.3,-0.7 0.1,-0.2 0.1,-0.4 0,-0.6 0,-0.5 -0.6,-1.6 -1.2,-1.6 z"
       id="path240"
       inkscape:connector-curvature="0"
       style="fill:#ddcebe" /><path
       d="m 839.6,575.2 c -3.6,0 -8.4,3.3 -6.6,6 1.3,2 3.8,5.8 6.6,6 2.8,0.2 4.7,-3.8 6.6,-6 2.1,-2.5 -2.9,-6 -6.6,-6 z"
       id="path242"
       inkscape:connector-curvature="0" /><path
       class="st27"
       d="m 842.6,576.6 c -0.8,0 -1.6,0 -1.6,0.8 0,0.8 0.8,0.7 1.6,0.7 0.8,0 2.7,1.5 2.7,0.7 0,-0.8 -1.9,-2.2 -2.7,-2.2 l 0,0 z"
       id="path244"
       inkscape:connector-curvature="0"
       style="fill:#ddcebe" /><path
       d="m 789.6,541.1 0,0 0,0 -0.1,0 -0.1,0 0,0 c -0.1,0 -0.2,0 -0.2,0 -0.2,0 -0.3,-0.1 -0.5,-0.2 -0.4,-0.2 -0.7,-0.5 -1,-0.8 l -0.3,-0.4 c -0.2,-0.2 -0.3,-0.4 -0.5,-0.6 -0.2,-0.2 -0.3,-0.5 -0.5,-0.7 -0.1,-0.1 -0.1,-0.2 -0.2,-0.4 -0.1,-0.1 -0.1,-0.2 -0.1,-0.4 0,-0.1 0.1,-0.3 0.1,-0.4 0.1,-0.1 0.3,-0.2 0.4,-0.3 0.2,-0.1 0.5,-0.1 0.7,0 0.3,0 0.6,0.1 0.8,0.3 l 0,0 c 0.4,0.2 0.7,0.5 1,0.8 0.2,0.2 0.3,0.4 0.4,0.6 0.3,0.4 0.4,1 0.5,1.5 0,0.2 0,0.4 -0.1,0.6 0,0.1 -0.1,0.1 -0.1,0.2 l 0,0 -0.1,0.1 0,0 -0.1,0.1 0,0 z"
       id="path246"
       inkscape:connector-curvature="0" /><path
       d="m 788.1,543.6 c -0.1,0.3 -0.5,0.4 -1,0.5 -0.6,0 -1.2,-0.1 -1.7,-0.2 l 0,0 -0.5,-0.1 c -0.6,-0.1 -1.1,-0.2 -1.6,-0.5 -0.2,-0.1 -0.3,-0.1 -0.5,-0.3 -0.1,-0.1 -0.2,-0.2 -0.3,-0.3 -0.1,-0.1 -0.2,-0.2 -0.2,-0.3 -0.1,-0.1 -0.1,-0.2 -0.1,-0.3 0,-0.1 0,-0.2 0.1,-0.3 0.1,-0.1 0.2,-0.2 0.3,-0.3 0.2,-0.1 0.3,-0.2 0.5,-0.2 0.2,-0.1 0.4,-0.1 0.6,-0.1 0.7,-0.1 1.3,0 2,0.1 l 0.5,0.1 0,0 c 0.6,0.3 1.2,0.6 1.6,1.1 0.3,0.5 0.4,0.8 0.3,1.1 l 0,0 z"
       id="path248"
       inkscape:connector-curvature="0" /><path
       d="m 871.6,534.5 c -0.4,-0.1 -0.6,-0.3 -0.8,-0.7 -0.2,-0.4 -0.3,-0.9 -0.3,-1.3 l 0,0 c 0,-0.1 0,-0.1 0,-0.2 0,-0.5 0,-0.9 0.2,-1.4 0.1,-0.2 0.1,-0.4 0.2,-0.5 0.1,-0.1 0.2,-0.3 0.4,-0.3 0.2,-0.1 0.4,-0.1 0.5,0 0.2,0.1 0.4,0.2 0.5,0.4 0.2,0.2 0.3,0.5 0.5,0.8 0.1,0.3 0.2,0.7 0.2,1 0,0.1 0,0.2 0,0.3 l 0,0 c 0,0.6 -0.2,1.1 -0.5,1.6 -0.1,0.2 -0.5,0.4 -0.9,0.3 l 0,0 z"
       id="path250"
       inkscape:connector-curvature="0" /><path
       d="m 875,534.8 c -0.3,-0.1 -0.4,-0.5 -0.4,-1 0,-0.6 0.2,-1.2 0.4,-1.8 0.1,-0.2 0.1,-0.3 0.2,-0.5 0.3,-0.7 0.6,-1.3 1,-1.9 0.1,-0.2 0.3,-0.4 0.5,-0.6 0.1,-0.1 0.3,-0.2 0.5,-0.2 0.2,0 0.4,0.1 0.5,0.3 0.1,0.2 0.2,0.5 0.3,0.8 0.1,0.4 0.1,0.8 0,1.1 -0.1,0.4 -0.2,0.9 -0.3,1.3 -0.1,0.2 -0.2,0.4 -0.2,0.5 l 0,0 c -0.3,0.6 -0.7,1.2 -1.2,1.6 -0.6,0.5 -1,0.6 -1.3,0.4 l 0,0 z"
       id="path252"
       inkscape:connector-curvature="0" /><path
       class="st22"
       d="m 827,581.8 c -0.5,0 -1,0.5 -1,1 0,0.5 0.4,0.7 0.9,0.7 0.5,0 1,-0.2 1,-0.7 0,-0.5 -0.4,-0.9 -0.9,-1 l 0,0 z"
       id="path254"
       inkscape:connector-curvature="0"
       style="fill:#956c45;stroke:#000000;stroke-width:3" /><path
       class="st22"
       d="m 823.7,586.1 c -0.8,0 -1.5,0.7 -1.5,1.5 0,0.8 0.6,1.1 1.4,1.1 0.8,0 1.5,-0.3 1.5,-1.1 0.1,-0.8 -0.6,-1.5 -1.4,-1.5 l 0,0 z"
       id="path256"
       inkscape:connector-curvature="0"
       style="fill:#956c45;stroke:#000000;stroke-width:3" /><path
       class="st22"
       d="m 829.7,587.1 c -0.8,0 -1.2,0.3 -1.2,1.2 0,0.9 0.5,1 1.3,1 0.8,0 1.1,-0.4 1.1,-1.2 0,-0.8 -0.4,-1 -1.2,-1 l 0,0 z"
       id="path258"
       inkscape:connector-curvature="0"
       style="fill:#956c45;stroke:#000000;stroke-width:3" /><path
       class="st22"
       d="m 851.1,585.5 c -0.5,0 -0.8,0.4 -0.8,0.9 0,0 0,0 0,0 0,0.5 0.2,0.7 0.6,0.7 0.4,0 0.8,-0.2 0.8,-0.6 0,-0.4 -0.2,-1 -0.6,-1 l 0,0 z"
       id="path260"
       inkscape:connector-curvature="0"
       style="fill:#956c45;stroke:#000000;stroke-width:3" /><path
       class="st22"
       d="m 856.2,582.9 c -0.8,0 -1.2,0.7 -1.2,1.6 0,0.9 0.3,1.1 1.1,1.1 0.8,0 1.5,-0.3 1.5,-1.1 0,-0.9 -0.6,-1.6 -1.4,-1.6 l 0,0 z"
       id="path262"
       inkscape:connector-curvature="0"
       style="fill:#956c45;stroke:#000000;stroke-width:3" /><path
       class="st22"
       d="m 854.6,588.6 c -0.6,0 -1.1,0.5 -1.1,1.1 0,0.6 0.4,1 1,1 0.5,0 0.9,-0.3 0.9,-0.8 0,-0.1 0,-0.1 0,-0.2 0,-0.6 -0.2,-1.2 -0.8,-1.1 l 0,0 z"
       id="path264"
       inkscape:connector-curvature="0"
       style="fill:#956c45;stroke:#000000;stroke-width:3" /><path
       d="m 819.9,539.5 0,0 -0.2,0 c -0.1,0 -0.2,0 -0.3,-0.1 -0.2,-0.1 -0.4,-0.2 -0.5,-0.4 -0.5,-0.4 -0.9,-0.9 -1.2,-1.5 -0.2,-0.2 -0.3,-0.5 -0.4,-0.7 -0.2,-0.4 -0.4,-0.8 -0.6,-1.2 l 0,0 c -0.2,-0.5 -0.4,-0.9 -0.5,-1.4 -0.1,-0.3 -0.1,-0.6 0.1,-0.9 0.2,-0.2 0.5,-0.2 0.9,0 0.5,0.3 1,0.6 1.4,1.1 l 0,0 c 0.3,0.4 0.6,0.8 0.9,1.3 0.2,0.3 0.3,0.6 0.4,0.8 0.3,0.6 0.4,1.3 0.5,2 0,0.2 0,0.5 -0.1,0.7 l 0,0 c 0,0.1 -0.1,0.2 -0.1,0.2 l -0.1,0.1 0,0 -0.2,0 0,0 z"
       id="path266"
       inkscape:connector-curvature="0" /><path
       d="m 823.4,537.4 c -0.5,0.1 -1.1,-0.6 -1.5,-1.6 l 0,0 c -0.1,-0.2 -0.2,-0.5 -0.3,-0.7 -0.1,-0.3 -0.2,-0.6 -0.3,-0.9 -0.1,-0.3 -0.1,-0.5 -0.1,-0.8 0,-0.2 0,-0.4 0,-0.6 0,-0.2 0.1,-0.3 0.2,-0.5 0.1,-0.1 0.3,-0.2 0.5,-0.1 0.3,0 0.5,0.1 0.7,0.3 0.3,0.2 0.5,0.5 0.7,0.8 0.4,0.6 0.7,1.3 0.8,2.1 l 0,0 c 0.1,1 -0.2,1.9 -0.7,2 l 0,0 z"
       id="path268"
       inkscape:connector-curvature="0" /><path
       d="m 836.1,566.6 c 0.4,0 0.8,-0.1 1.1,-0.1 0.5,0 1,0 1.3,-0.1 l 0.1,0 c 0.3,-0.1 0.6,-0.1 0.9,-0.2 0.3,0 0.7,0 1,0 0.1,0 0.2,0 0.1,-0.1 -0.2,-0.1 -0.3,-0.2 -0.5,-0.2 -0.3,-0.1 -0.6,-0.1 -0.8,-0.2 -0.3,0 -0.6,0 -0.8,0 l -0.2,0 -1.3,0.4 c -0.3,0.1 -0.7,0.2 -1,0.2 -0.2,0 -0.3,0.1 -0.3,0.2 -0.1,0.1 0.1,0.2 0.4,0.1 l 0,0 z"
       id="path270"
       inkscape:connector-curvature="0" /><path
       d="m 836.9,564 c 0.3,0 0.5,0 0.8,0 0.3,0 0.5,0.1 0.8,0.1 l 0,0 c 0.4,-0.1 0.8,-0.1 1.2,-0.1 0.2,0 0,-0.1 -0.3,-0.3 -0.3,-0.2 -0.7,-0.3 -1,-0.3 -0.1,0 -0.2,0 -0.3,0 l -0.9,0.2 c -0.2,0.1 -0.4,0.1 -0.7,0.1 -0.2,0 -0.2,0.1 -0.2,0.1 0,0 0.4,0.2 0.6,0.2 l 0,0 z"
       id="path272"
       inkscape:connector-curvature="0" /><path
       d="m 838.6,565.8 c 0,-0.9 0,-3 0.1,-5.6 0,-2.1 0.1,-4.6 0.2,-6.8 0,-0.9 0.1,-1.7 0.1,-2.5 0,-0.3 0,-0.6 0.1,-0.8 0,-0.2 0,-0.3 0.1,-0.5 0.1,-0.4 0.1,-0.7 0.2,-1.1 l 0,0 c 0.1,-0.7 0.1,-1.3 0.1,-1.7 0,0 0,-0.1 0,-0.1 0,-1 0,-2.6 -0.1,-4.3 0,-1.4 -0.1,-3 -0.3,-4.6 -0.1,-0.6 -0.2,-1.2 -0.3,-1.8 -0.1,-0.4 -0.2,-0.9 -0.4,-1.3 -0.4,-0.7 -0.7,-1.5 -1.1,-2.1 -0.1,-0.2 -0.2,-0.3 -0.3,-0.5 -0.1,-0.1 -0.2,-0.3 -0.4,-0.4 -0.1,-0.1 -0.2,-0.1 -0.3,-0.2 l -0.2,0 0,0 c 0.2,0.1 0.3,0.2 0.4,0.3 0.1,0.1 0.2,0.2 0.3,0.3 0.1,0.2 0.2,0.3 0.3,0.5 0.2,0.3 0.3,0.6 0.5,1 0.2,0.4 0.3,0.8 0.5,1.2 0.2,0.4 0.3,0.8 0.3,1.2 0.1,0.6 0.2,1.2 0.2,1.8 0.1,1.5 0.2,3 0.2,4.6 0,1.5 0,3.1 -0.1,4.4 l 0,0 c 0,0.6 0,1.2 -0.1,1.7 0,0.3 0,0.6 -0.1,0.8 0,0.1 0,0.1 0,0.2 l 0,0 c 0,0.2 -0.1,0.4 -0.1,0.6 l 0,0 c 0,0.3 0,0.6 0,0.9 l 0,0 c 0,0.8 0,1.7 -0.1,2.5 0,2.3 0,4.7 0,6.8 0,2.6 0,4.9 0,6.5 0,0.1 0,0.3 0,0.4 0,0.7 0,1.3 0,1.7 0,0.3 0,0.4 0,0.6 0,0 0,0.1 0,0.2 l 0,0 0,0 0,0 c 0,0 0,-0.1 0,-0.2 0,-0.1 0,-0.3 0,-0.6 0,-0.5 0,-1.2 0,-2.1 0,-0.3 0,-0.6 0,-0.9 l 0.3,-0.1 z"
       id="path274"
       inkscape:connector-curvature="0" /><path
       class="st28"
       d="m 839.7,596 c -1.4,0.1 -2.4,1.2 -2.4,2.5 0,1.4 1.2,1.5 2.5,1.5 1.3,0 2.3,0 2.3,-1.5 0,-1.3 -1,-2.4 -2.4,-2.5 z"
       id="path276"
       inkscape:connector-curvature="0"
       style="stroke:#000000;stroke-width:5" /><path
       class="st26"
       d="m 824.7,558.8 c 0,0 -2.8,0.3 -3.7,-1.5"
       id="path278"
       inkscape:connector-curvature="0"
       style="fill:none;stroke:#000000;stroke-width:5" /><path
       class="st26"
       d="m 852.8,559 c 0,0 2.8,0.3 3.7,-1.5"
       id="path280"
       inkscape:connector-curvature="0"
       style="fill:none;stroke:#000000;stroke-width:5" /><path
       d="m 806.3,648.7 c 0.4,-0.5 1.2,-0.4 2,0 l 0.3,0.2 c 0.2,0.2 0.4,0.4 0.6,0.6 0.2,0.2 0.3,0.5 0.3,0.8 0.1,0.2 0.1,0.5 0,0.7 -0.1,0.2 -0.3,0.4 -0.6,0.5 -0.3,0.1 -0.7,0 -1,-0.1 -0.3,-0.1 -0.6,-0.3 -0.9,-0.5 -0.1,-0.1 -0.2,-0.2 -0.3,-0.3 -0.6,-0.6 -0.8,-1.4 -0.4,-1.9 l 0,0 z"
       id="path282"
       inkscape:connector-curvature="0" /><path
       d="m 808.3,645.7 c 0.3,-0.3 0.6,-0.4 1,-0.3 0.5,0.1 1.1,0.3 1.5,0.5 l 0.1,0 c 0.4,0.2 0.7,0.5 1,0.8 0.1,0.1 0.2,0.2 0.3,0.3 0.1,0.2 0.2,0.4 0.2,0.6 0,0.1 0,0.2 0,0.3 0,0.1 -0.1,0.2 -0.1,0.3 -0.1,0.1 -0.2,0.2 -0.3,0.2 -0.2,0.1 -0.3,0.1 -0.5,0.1 -0.2,0 -0.3,0 -0.5,0 -0.5,-0.1 -0.9,-0.3 -1.3,-0.5 l -0.1,0 c -0.5,-0.3 -0.9,-0.7 -1.2,-1.2 -0.3,-0.4 -0.3,-0.8 -0.1,-1.1 l 0,0 z"
       id="path284"
       inkscape:connector-curvature="0" /><path
       d="m 840.4,657.9 c 0.1,-0.3 0.2,-0.8 0.3,-1.4 0.1,-0.7 0.3,-1.4 0.3,-2.1 0.1,-0.9 0.2,-1.9 0.3,-3.1 l 0,0 c 0.2,-2 0.3,-4.4 0.4,-6.7 l 0,0 c 0,-0.9 0,-1.7 0,-2.5 0,-1.2 -0.1,-2.3 -0.2,-3.4 -0.3,-3.4 -0.6,-6.2 -0.7,-7.5 l -0.1,-0.6 c -0.2,-1.8 -0.6,-4.4 -1,-7.4 l 0,0 c -0.1,-0.8 -0.2,-1.7 -0.4,-2.6 l 0,0 c 0,-0.3 -0.1,-0.6 -0.2,-0.8 -0.1,-0.2 -0.1,-0.3 -0.1,-0.5 l 0,-0.2 0,0 c 0,-0.2 0,-0.5 0,-0.7 0,-1 0,-2 0,-3 0,-1.5 -0.1,-3 -0.3,-4.4 0,-0.2 0,-0.4 -0.1,-0.6 0,-0.3 -0.1,-0.6 -0.1,-0.8 0,-0.2 0,-0.3 -0.1,-0.4 l 0,-0.1 0,0 c 0,0 0,0.1 0,0.1 0,0 0,0.2 0,0.4 0,0.3 0.1,0.8 0.1,1.3 0.1,1.5 0.2,2.9 0.1,4.4 0,0.9 0,1.9 0,3 0,0.2 0,0.5 0,0.7 0,0.1 0,0.1 0,0.2 l 0,0.1 c 0,0.2 0.1,0.3 0.1,0.5 0,0.2 0.1,0.5 0.1,0.8 0.1,0.8 0.2,1.7 0.3,2.6 0.3,2.5 0.6,5.1 0.8,7.4 0.2,1.6 0.3,3.1 0.5,4.3 0.2,1.2 0.3,2.5 0.4,3.8 0.1,1.3 0.2,2.3 0.3,3.4 l 0,0 c 0.1,0.8 0.1,1.7 0.1,2.5 0,2.3 -0.1,4.6 -0.2,6.7 l 0,0 c -0.1,1.1 -0.2,2.1 -0.3,3.1 -0.1,1 -0.2,2 -0.5,3 -0.2,0.8 -0.5,1.5 -0.8,2.3 l -0.3,0.6 c -1.6,3.1 -1.6,3.6 0.2,0.1 0.7,-0.9 0.9,-1.7 1.1,-2.5 l 0,0 z"
       id="path286"
       inkscape:connector-curvature="0" /><path
       d="m 841.1,620.1 c -0.4,0 -0.8,0.1 -1.1,0.1 -0.5,0 -1,0 -1.3,0.1 l -0.1,0 c -0.3,0.1 -0.6,0.1 -0.9,0.2 -0.3,0 -0.7,0 -1,0 -0.1,0 -0.2,0 -0.1,0.1 0.2,0.1 0.3,0.2 0.5,0.2 0.3,0.1 0.6,0.1 0.8,0.2 0.3,0 0.6,0 0.8,0 l 0.2,0 1.3,-0.4 c 0.3,-0.1 0.7,-0.2 1,-0.2 0.2,0 0.3,-0.1 0.3,-0.2 0,-0.1 -0.1,-0.2 -0.4,-0.1 l 0,0 z"
       id="path288"
       inkscape:connector-curvature="0" /><path
       d="m 840.3,618.1 c -0.3,0 -0.5,0 -0.8,0 -0.3,0 -0.5,-0.1 -0.8,-0.1 l 0,0 c -0.4,0.1 -0.8,0.1 -1.2,0.1 -0.2,0 0,0.1 0.3,0.3 0.3,0.2 0.7,0.3 1,0.3 0.1,0 0.2,0 0.3,0 l 0.9,-0.2 c 0.2,-0.1 0.4,-0.1 0.7,-0.1 0.2,0 0.2,-0.1 0.2,-0.1 0,0 -0.4,-0.2 -0.6,-0.2 l 0,0 z"
       id="path290"
       inkscape:connector-curvature="0" /><path
       class="st20"
       d="m 875,647.7 c 11.3,0 20.8,8.3 20.8,19.3 -0.1,11.1 -9.2,20.1 -20.4,19.9 -8.4,0 -16.6,-2.3 -19.7,-9.4 -1.2,-3.5 -1.6,-7.3 -1.2,-11 1.6,-10.9 9.3,-18.7 20.5,-18.8 l 0,0 z"
       id="path292"
       inkscape:connector-curvature="0"
       style="fill:#a06121" /><path
       class="st24"
       d="m 868.3,682.8 c 2.7,1.7 6.7,1.5 10.3,0.1 5.5,-2.2 8.4,-7.6 6.7,-12.1 -1.7,-4.5 -7.2,-8 -12.7,-5.8 -5.5,2.2 -8.9,9.2 -7.1,13.7 0.5,1.6 1.5,3 2.8,4.1 l 0,0 z"
       id="path294"
       inkscape:connector-curvature="0"
       style="fill:#834317" /><path
       d="m 868.3,682.9 c 0.9,0.6 1.9,1 3,1.2 0.9,0.2 1.9,0.3 2.9,0.3 0.9,0 1.7,-0.1 2.5,-0.3 0.7,-0.2 1.5,-0.4 2.2,-0.6 l 0,0 c 0.9,-0.3 1.7,-0.8 2.5,-1.3 0.7,-0.4 1.3,-0.9 1.9,-1.4 0.5,-0.4 0.9,-0.9 1.3,-1.4 0.3,-0.4 0.6,-0.8 0.9,-1.3 0.3,-0.5 0.6,-1 0.8,-1.5 0.3,-0.8 0.5,-1.7 0.5,-2.6 0,-0.6 0,-1.2 -0.1,-1.7 -0.1,-0.6 -0.3,-1.2 -0.5,-1.8 -0.3,-0.7 -0.7,-1.3 -1.1,-1.9 -0.8,-1.1 -1.8,-2.1 -3,-2.8 -0.5,-0.3 -0.9,-0.6 -1.4,-0.8 l 0,0 c -0.4,-0.2 -0.9,-0.4 -1.3,-0.5 -0.9,-0.3 -1.7,-0.5 -2.6,-0.6 -0.7,-0.1 -1.3,-0.1 -2,0 -0.8,0.1 -1.5,0.2 -2.2,0.5 -0.9,0.3 -1.8,0.7 -2.6,1.3 -1.4,0.9 -2.6,2.1 -3.6,3.5 -0.3,0.4 -0.6,0.9 -0.8,1.3 l 0,0.1 c -0.3,0.6 -0.5,1.2 -0.7,1.8 -0.2,0.8 -0.4,1.7 -0.5,2.5 -0.1,0.7 -0.1,1.3 0,2 0.1,1.5 0.8,2.9 1.9,4 0.5,0.5 1.1,1 1.7,1.4 0.2,0.1 0.4,0.3 0.7,0.4 l 0,0 0,0 c 0,0 -0.2,-0.2 -0.4,-0.3 -0.3,-0.2 -0.5,-0.5 -0.8,-0.8 -0.3,-0.4 -0.6,-0.8 -0.8,-1.2 -0.3,-0.5 -0.5,-1.1 -0.6,-1.7 -0.1,-0.6 -0.2,-1.1 -0.2,-1.7 0,-0.6 0.1,-1.2 0.2,-1.8 0.3,-1.3 0.8,-2.5 1.4,-3.6 0.3,-0.6 0.7,-1.2 1,-1.7 0.6,-0.9 1.2,-1.7 2,-2.5 0.8,-0.7 1.6,-1.4 2.6,-1.8 0.7,-0.3 1.4,-0.6 2.1,-0.7 0.7,-0.1 1.3,-0.2 2,-0.1 0.6,0 1.2,0.1 1.7,0.3 0.4,0.1 0.9,0.3 1.3,0.5 l 0.2,0.1 c 0.3,0.2 0.7,0.4 1,0.7 1,0.8 1.8,1.7 2.5,2.8 0.4,0.6 0.7,1.3 0.9,2 0.3,1.1 0.4,2.2 0.3,3.3 -0.2,1.1 -0.5,2.1 -1,3 -0.6,1 -1.3,1.9 -2.1,2.7 -0.4,0.4 -0.9,0.8 -1.3,1.2 -0.6,0.5 -1.3,0.9 -2,1.3 -1.1,0.5 -2.2,0.9 -3.3,1.2 -1.1,0.2 -2.3,0.3 -3.4,0.2 -0.9,-0.1 -1.7,-0.3 -2.5,-0.6 -0.3,-0.1 -0.5,-0.2 -0.7,-0.3 l -0.5,-0.3 0,0 z"
       id="path296"
       inkscape:connector-curvature="0" /><path
       class="st23"
       d="m 875,647.7 c -6.2,-0.1 -12.1,2.6 -15.9,7.5 0.4,-0.4 0.7,-0.8 1.1,-1.2 0.4,-0.4 0.9,-0.8 1.4,-1.2 0.5,-0.4 1,-0.7 1.5,-1 0.5,-0.3 1,-0.6 1.6,-0.9 0.6,-0.3 1.1,-0.5 1.7,-0.8 0.6,-0.3 1.2,-0.4 1.8,-0.6 0.6,-0.2 1.2,-0.3 1.9,-0.4 0.7,-0.1 1.3,-0.2 2,-0.3 0.7,-0.1 1.4,-0.1 2.1,-0.1 0.7,0 1.4,0 2.1,0.1 0.7,0.1 1.4,0.2 2,0.3 0.6,0.1 1.3,0.3 2,0.5 0.7,0.2 1.3,0.4 1.9,0.6 0.6,0.2 1.2,0.5 1.8,0.8 0.6,0.3 1.2,0.6 1.7,1 0.5,0.4 1.1,0.7 1.6,1.1 0.5,0.4 1,0.8 1.5,1.2 0.5,0.4 0.9,0.9 1.3,1.3 0.4,0.4 0.8,1 1.2,1.5 0.4,0.5 0.7,1 1,1.6 0.3,0.6 0.6,1.1 0.9,1.7 0.5,1.2 1,2.4 1.2,3.7 0.1,0.7 0.3,1.3 0.3,2 0.1,0.7 0.1,1.3 0.1,2 0,0.7 0,1.3 -0.1,2 -0.2,2 -0.7,3.9 -1.5,5.7 -0.3,0.6 -0.5,1.2 -0.8,1.7 -0.3,0.5 -0.7,1.1 -1,1.6 -0.2,0.3 -0.5,0.6 -0.7,0.9 3.3,-3.6 5.1,-8.3 5.1,-13.1 0,-10.9 -9.5,-19.2 -20.8,-19.2 l 0,0 z"
       id="path298"
       inkscape:connector-curvature="0"
       style="fill:#b8854f" /><path
       class="st21"
       d="m 857.9,657.2 c -1.7,2.8 -2.8,6 -3.3,9.3 -0.4,3.7 0.1,7.5 1.2,11 3.1,7.1 11.3,9.4 19.7,9.4 7.9,0 15.1,-4.5 18.5,-11.6 -0.2,0.3 -0.3,0.6 -0.5,0.8 -0.4,0.5 -0.8,1 -1.2,1.5 -0.4,0.5 -0.8,1 -1.3,1.4 -0.5,0.4 -0.9,0.9 -1.5,1.3 -0.6,0.4 -1,0.8 -1.6,1.2 -0.6,0.4 -1.1,0.7 -1.7,1 -0.6,0.3 -1.2,0.6 -1.8,0.8 -0.6,0.2 -1.2,0.5 -1.9,0.7 -0.7,0.2 -1.3,0.4 -2,0.5 -0.7,0.1 -1.3,0.2 -2,0.3 -0.7,0.1 -1.4,0.1 -2.1,0.1 -1,0 -2.1,0 -3.1,-0.1 -1,-0.1 -2.1,-0.2 -3,-0.4 -1,-0.2 -2,-0.4 -2.9,-0.6 -0.9,-0.3 -1.8,-0.6 -2.7,-0.9 -0.9,-0.4 -1.7,-0.8 -2.5,-1.3 -0.4,-0.2 -0.8,-0.5 -1.1,-0.8 -0.3,-0.3 -0.7,-0.6 -1,-0.9 -0.4,-0.3 -0.7,-0.6 -1,-1 -0.6,-0.7 -1.2,-1.4 -1.6,-2.2 -0.2,-0.4 -0.4,-0.8 -0.6,-1.3 -0.3,-0.7 -0.5,-1.5 -0.7,-2.3 -0.2,-1 -0.4,-2 -0.5,-3 -0.1,-1 -0.2,-2.1 -0.2,-3.1 0,-0.9 0,-1.8 0.1,-2.7 0.1,-0.7 0.2,-1.3 0.4,-2 0.2,-0.7 0.3,-1.3 0.5,-1.9 0.2,-0.6 0.4,-1.2 0.6,-1.8 0.2,-0.6 0.6,-1 0.8,-1.4 l 0,0 z"
       id="path300"
       inkscape:connector-curvature="0"
       style="fill:#6e4a25" /><path
       d="m 875.4,647.7 c 1.5,0 2.9,0.1 4.3,0.5 1.3,0.3 2.6,0.7 3.8,1.3 2.2,0.9 4.1,2.3 5.8,3.9 l 0,0 c 1.1,1.1 2.1,2.3 2.9,3.7 0.7,1.2 1.3,2.4 1.7,3.7 0.4,1.1 0.7,2.2 0.8,3.4 0.1,1 0.2,2 0.2,3 l 0,0 c 0,0.9 -0.1,1.8 -0.3,2.8 -0.1,0.8 -0.3,1.5 -0.6,2.3 -0.4,1.2 -0.9,2.4 -1.5,3.5 -0.4,0.8 -0.9,1.5 -1.3,2.2 -1.4,1.9 -3,3.6 -5,4.9 -1.1,0.7 -2.2,1.4 -3.4,1.9 -1.2,0.5 -2.5,0.9 -3.8,1.2 -1.2,0.3 -2.5,0.4 -3.7,0.5 -1.5,0 -2.9,0 -4.4,-0.1 -1.3,-0.1 -2.3,-0.3 -2.9,-0.4 -0.6,-0.1 -1.2,-0.3 -1.8,-0.4 -0.9,-0.3 -1.7,-0.6 -2.5,-0.9 -1.6,-0.7 -3.1,-1.7 -4.4,-2.9 -1.3,-1.2 -2.3,-2.7 -2.9,-4.3 -0.3,-0.7 -0.5,-1.4 -0.6,-2.2 -0.2,-1 -0.3,-1.9 -0.4,-2.9 -0.1,-1 -0.1,-2 -0.1,-3 0,-0.9 0.1,-1.7 0.2,-2.6 0.2,-0.9 0.4,-1.8 0.6,-2.7 0.2,-0.8 0.4,-1.4 0.5,-1.9 0.4,-1.4 1,-2.7 1.7,-4 0.9,-1.7 2.1,-3.3 3.5,-4.7 0.8,-0.8 1.7,-1.6 2.7,-2.3 1,-0.7 2,-1.3 3.1,-1.8 1,-0.5 2.1,-0.9 3.2,-1.2 1,-0.3 2.1,-0.5 3.1,-0.6 0.9,-0.1 1.3,-0.1 1.4,-0.1 l 0,0 0,0 c -0.5,-0.1 -1,-0.1 -1.5,-0.1 -1.2,0 -2.3,0.2 -3.5,0.4 -1.6,0.3 -3.2,0.8 -4.7,1.5 -1.8,0.8 -3.4,1.8 -4.9,3 -1.1,0.9 -2.1,2 -2.9,3.1 -0.9,1.1 -1.6,2.3 -2.2,3.6 -0.6,1.2 -1.1,2.4 -1.4,3.6 -0.3,1.1 -0.6,2.2 -0.7,3.3 0,0.2 0,0.3 -0.1,0.5 -0.2,2 -0.1,4 0.3,6 0.1,1 0.3,2 0.6,3 l 0,0 c 0.2,0.8 0.5,1.6 0.8,2.4 0.8,1.7 2,3.3 3.5,4.5 l 0,0 c 1.4,1.2 3.1,2.2 4.8,2.8 1.2,0.5 2.5,0.9 3.7,1.2 1.1,0.3 2.1,0.4 3,0.6 0.5,0.1 1.3,0.2 2.1,0.3 0.8,0.1 1.9,0.2 3.1,0.2 1.2,0 2.4,0 3.5,-0.2 2.8,-0.4 5.4,-1.3 7.8,-2.8 1.3,-0.8 2.5,-1.7 3.6,-2.7 1.1,-1.1 2.1,-2.3 3,-3.6 0.8,-1.3 1.5,-2.6 2,-4 0.5,-1.2 0.8,-2.5 1,-3.8 0.2,-1.1 0.3,-2.2 0.2,-3.3 0,-0.5 0,-1 -0.1,-1.4 -0.1,-1 -0.3,-1.9 -0.5,-2.8 -0.7,-2.5 -1.8,-4.8 -3.3,-6.8 -0.8,-1.1 -1.8,-2.2 -2.8,-3.1 -1.5,-1.3 -3.1,-2.4 -4.9,-3.2 -1.5,-0.7 -3.1,-1.2 -4.8,-1.5 -1.2,-0.2 -2.3,-0.3 -3.5,-0.4 -0.8,0 -1.3,0 -1.3,0 l 0.2,-0.1 z"
       id="path302"
       inkscape:connector-curvature="0" /><path
       class="st29"
       d="m 868.2,651.9 c -1,1 -1.1,2.7 -0.8,4.4 0.4,2.6 2.1,4.4 4.3,4 2.4,-0.4 4,-2.7 3.6,-5.1 -0.4,-2.6 -3,-4.7 -5.2,-4.3 -0.8,0.1 -1.4,0.4 -1.9,1 l 0,0 z"
       id="path304"
       inkscape:connector-curvature="0"
       style="fill:#834317;stroke:#000000;stroke-width:3" /><path
       class="st29"
       d="m 880.8,651.9 c -1.2,0.4 -1.9,1.7 -2.4,3.1 -0.7,2.2 -0.1,4.3 1.7,4.9 2.1,0.6 4.2,-0.5 4.9,-2.5 0.7,-2.2 -0.5,-4.9 -2.3,-5.5 -0.6,-0.2 -1.3,-0.2 -1.9,0 l 0,0 z"
       id="path306"
       inkscape:connector-curvature="0"
       style="fill:#834317;stroke:#000000;stroke-width:3" /><path
       class="st29"
       d="m 889.1,658.5 c -1.1,0.5 -1.9,1.4 -2.2,2.6 -0.7,1.9 -0.3,3.7 1.2,4.3 1.7,0.6 3.7,-0.2 4.4,-1.9 0.7,-1.9 -0.2,-4.3 -1.7,-4.9 -0.6,-0.2 -1.2,-0.3 -1.7,-0.1 z"
       id="path308"
       inkscape:connector-curvature="0"
       style="fill:#834317;stroke:#000000;stroke-width:3" /><path
       class="st20"
       d="m 808.8,653.2 c -11,-0.3 -20.2,8.3 -20.6,19.3 -0.4,11 8.3,20.2 19.3,20.6 0.4,0 0.8,0 1.3,0 8.4,0 16.6,-2.3 19.7,-9.4 1,-2.4 1.6,-9.7 1,-12.5 -2.1,-10.9 -9.4,-18 -20.7,-18 l 0,0 z"
       id="path310"
       inkscape:connector-curvature="0"
       style="fill:#a06121" /><path
       class="st24"
       d="m 816.5,688.5 c -3.1,1.7 -6.8,1.9 -10,0.5 -5.5,-2.2 -8.4,-7.6 -6.7,-12.1 1.7,-4.5 7.2,-8 12.7,-5.8 5.5,2.2 8.9,9.2 7.1,13.7 -0.6,1.6 -1.7,2.9 -3.1,3.7 z"
       id="path312"
       inkscape:connector-curvature="0"
       style="fill:#834317" /><path
       class="st21"
       d="m 793,660.6 c -2.9,3.5 -4.5,8 -4.5,12.5 0.1,11.1 9.2,20.1 20.4,19.9 0,0 0,0 0,0 7.8,0 15.3,-2 18.9,-7.9 l 0,0.1 c -0.3,0.4 -0.6,0.7 -1,1 -0.3,0.3 -0.7,0.6 -1,0.9 -0.3,0.3 -0.7,0.5 -1.1,0.8 -0.8,0.5 -1.6,0.9 -2.5,1.3 -0.9,0.4 -1.8,0.7 -2.7,1 -1,0.3 -1.9,0.5 -2.9,0.6 -1,0.2 -2,0.3 -3,0.4 -1,0.1 -2.1,0.1 -3.1,0.1 -0.7,0 -1.4,0 -2.1,-0.1 -0.7,-0.1 -1.4,-0.2 -2,-0.3 -0.6,-0.1 -1.3,-0.3 -2,-0.5 -0.7,-0.2 -1.3,-0.4 -1.9,-0.7 -0.6,-0.3 -1.2,-0.5 -1.8,-0.8 -0.6,-0.3 -1.1,-0.6 -1.7,-1 -0.6,-0.4 -1.1,-0.7 -1.6,-1.1 -0.5,-0.4 -1,-0.8 -1.5,-1.3 -0.5,-0.5 -0.9,-0.9 -1.3,-1.4 -0.4,-0.5 -0.8,-1 -1.2,-1.5 -0.4,-0.5 -0.7,-1.1 -1,-1.6 -0.3,-0.5 -0.6,-1.2 -0.9,-1.7 -0.8,-1.8 -1.3,-3.7 -1.5,-5.7 -0.1,-1.4 -0.1,-2.7 0,-4.1 0.2,-2 0.7,-3.9 1.5,-5.7 0.3,-0.6 0.5,-1.2 0.9,-1.7 0.2,-0.7 0.5,-1.1 0.6,-1.5 l 0,0 z"
       id="path314"
       inkscape:connector-curvature="0"
       style="fill:#6e4a25" /><path
       d="m 808.8,652.5 c -1.5,0 -3.1,0.2 -4.6,0.5 -1.4,0.3 -2.7,0.8 -4,1.3 -2.3,1 -4.4,2.4 -6.2,4.2 l 0,0 c -1.2,1.2 -2.2,2.5 -3.1,3.9 -0.8,1.2 -1.4,2.5 -1.9,3.9 -0.4,1.2 -0.8,2.4 -1,3.6 -0.2,1.1 -0.3,2.1 -0.3,3.2 l 0,0 c 0,1 0,2 0.2,3 0.1,0.9 0.3,1.7 0.5,2.6 0.4,1.4 0.9,2.7 1.5,4 0.4,0.8 0.9,1.6 1.5,2.4 0.7,1 1.5,1.9 2.4,2.8 1,0.9 2,1.8 3.2,2.5 2.4,1.5 5.1,2.5 7.9,3 1.3,0.2 2.7,0.3 4,0.3 1.5,0 3.1,-0.2 4.6,-0.4 1.3,-0.2 2.3,-0.4 3,-0.6 0.4,-0.1 1.1,-0.3 1.8,-0.5 0.9,-0.2 1.8,-0.5 2.6,-0.9 1.8,-0.7 3.4,-1.7 4.9,-2.9 1.5,-1.3 2.7,-2.8 3.5,-4.6 0.4,-0.9 0.6,-1.8 0.8,-2.7 0.3,-1.2 0.4,-2.4 0.5,-3.6 0.1,-1.2 0.2,-2.5 0.2,-3.7 l 0,0 c 0,-1 0,-2 -0.2,-3 -0.2,-1.2 -0.6,-2.5 -1,-3.7 -0.6,-1.6 -1.2,-3.1 -2.1,-4.5 -1.2,-2 -2.6,-3.7 -4.3,-5.2 -0.9,-0.8 -1.9,-1.4 -3,-2 -1,-0.6 -2.1,-1.1 -3.3,-1.4 -1.1,-0.4 -2.2,-0.7 -3.4,-0.9 -1.1,-0.2 -2.1,-0.3 -3.2,-0.3 -0.5,0 -0.8,0 -1.1,0 -0.1,0 -0.3,0 -0.5,0 l 0,0 0,0 c 0.1,0 0.7,0.1 1.5,0.2 1.1,0.1 2.2,0.3 3.3,0.6 1.5,0.4 2.9,1 4.3,1.7 1.6,0.9 3,1.9 4.2,3.2 0.9,0.9 1.7,1.9 2.4,3 0.7,1.1 1.3,2.2 1.8,3.3 0.9,2.1 1.6,4.2 2.1,6.4 0.1,0.2 0.1,0.5 0.1,0.7 0.1,0.6 0.1,1.2 0.2,1.9 0.1,1.2 0,2.3 0,3.5 0,1.2 -0.1,2.3 -0.3,3.5 -0.1,0.8 -0.3,1.7 -0.5,2.5 -0.7,1.7 -1.7,3.2 -2.9,4.4 l 0,0 c -1.3,1.3 -2.8,2.3 -4.5,3 -1.2,0.5 -2.3,0.9 -3.6,1.2 -1,0.2 -1.9,0.4 -2.9,0.5 -0.5,0.1 -1.3,0.1 -2.2,0.2 -0.9,0.1 -1.9,0 -3.1,0 -1.1,0 -2.3,-0.2 -3.4,-0.4 -2.6,-0.5 -5.1,-1.5 -7.3,-3 -1.2,-0.8 -2.2,-1.6 -3.2,-2.6 -1,-1 -1.9,-2.2 -2.7,-3.4 -1.3,-2.2 -2.3,-4.6 -2.7,-7.2 -0.2,-1 -0.3,-2 -0.3,-3 0,-0.5 0,-0.9 0,-1.3 0,-0.9 0.1,-1.8 0.3,-2.7 0.2,-1.1 0.5,-2.2 0.8,-3.3 0.4,-1.2 1,-2.4 1.6,-3.5 0.7,-1.2 1.5,-2.3 2.5,-3.3 1.3,-1.4 2.9,-2.7 4.6,-3.7 1.5,-0.9 3.1,-1.6 4.7,-2.1 1.2,-0.4 2.4,-0.6 3.6,-0.7 1.2,0.1 1.8,0.1 1.7,0.1 l 0,0 z"
       id="path316"
       inkscape:connector-curvature="0" /><path
       d="m 816.1,687.9 c -0.8,0.5 -1.7,0.9 -2.7,1.1 -0.8,0.2 -1.7,0.3 -2.6,0.3 -0.8,0 -1.5,-0.1 -2.3,-0.3 -0.7,-0.2 -1.3,-0.4 -1.9,-0.6 -0.8,-0.3 -1.5,-0.8 -2.2,-1.3 -0.6,-0.4 -1.1,-0.9 -1.5,-1.3 -0.4,-0.4 -0.7,-0.8 -1,-1.3 -0.2,-0.4 -0.5,-0.8 -0.7,-1.2 -0.2,-0.4 -0.4,-0.8 -0.5,-1.3 -0.2,-0.7 -0.4,-1.4 -0.4,-2.1 -0.1,-0.9 0,-1.9 0.3,-2.8 0.2,-0.6 0.5,-1.2 0.8,-1.7 0.3,-0.5 0.7,-1 1.1,-1.5 0.4,-0.4 0.8,-0.8 1.3,-1.2 0.4,-0.3 0.8,-0.6 1.2,-0.8 0.4,-0.2 0.7,-0.4 1.1,-0.6 0.3,-0.1 0.6,-0.2 1,-0.3 0.5,-0.1 1,-0.2 1.5,-0.2 0.6,0 1.2,0 1.8,0.2 0.7,0.1 1.3,0.3 1.9,0.6 0.8,0.4 1.5,0.8 2.1,1.3 0.6,0.5 1.2,1.1 1.7,1.7 0.4,0.5 0.8,1.1 1.1,1.6 0.3,0.5 0.5,0.9 0.7,1.2 l 0,0 c 0.3,0.5 0.5,1 0.7,1.5 0.3,0.7 0.5,1.4 0.6,2.1 0.1,0.6 0.1,1.1 0.1,1.7 0,0.6 -0.2,1.1 -0.3,1.7 -0.2,0.7 -0.5,1.3 -0.9,1.8 -0.3,0.5 -0.8,1 -1.2,1.4 -0.3,0.3 -0.4,0.4 -0.5,0.4 l 0,0 0,0 c 0.2,0 0.3,-0.1 0.4,-0.2 0.3,-0.2 0.6,-0.4 0.9,-0.6 0.4,-0.3 0.8,-0.6 1.2,-1 0.4,-0.5 0.8,-1 1.2,-1.5 0.3,-0.6 0.6,-1.2 0.7,-1.9 0.1,-0.7 0.2,-1.4 0.2,-2.1 0,-0.8 -0.1,-1.6 -0.3,-2.3 -0.2,-0.7 -0.4,-1.4 -0.8,-2.1 -0.3,-0.7 -0.7,-1.3 -1.2,-1.9 -0.8,-0.9 -1.7,-1.8 -2.7,-2.5 -1,-0.7 -2,-1.2 -3.2,-1.6 -0.8,-0.3 -1.6,-0.4 -2.4,-0.5 -0.7,0 -1.5,0 -2.2,0.1 -0.6,0.1 -1.2,0.2 -1.8,0.4 -0.5,0.2 -1,0.3 -1.4,0.5 l -0.2,0.1 c -1.6,0.7 -3.1,1.9 -4.2,3.3 -0.5,0.7 -0.9,1.4 -1.3,2.1 -0.3,0.6 -0.5,1.3 -0.6,1.9 -0.1,0.7 -0.1,1.3 -0.1,2 0.1,1.3 0.5,2.5 1.1,3.7 0.4,0.7 0.8,1.3 1.3,1.9 0.4,0.4 0.8,0.8 1.3,1.2 0.5,0.4 1.1,0.8 1.7,1.1 0.8,0.4 1.6,0.7 2.4,1 1.2,0.3 2.4,0.5 3.6,0.5 1.1,0 2.2,-0.2 3.3,-0.5 0.8,-0.2 1.5,-0.6 2.2,-1 0.3,-0.2 0.5,-0.3 0.8,-0.5 l -0.2,0.3 z"
       id="path318"
       inkscape:connector-curvature="0" /><path
       class="st29"
       d="m 816.3,657.8 c 1,0.8 1.3,2.4 1.3,4 -0.1,2.5 -1.5,4.4 -3.5,4.3 -2.3,-0.1 -4.1,-2.1 -4.1,-4.4 0.1,-2.5 2.3,-4.8 4.4,-4.7 0.7,0.1 1.3,0.3 1.9,0.8 l 0,0 z"
       id="path320"
       inkscape:connector-curvature="0"
       style="fill:#834317;stroke:#000000;stroke-width:3" /><path
       class="st29"
       d="m 804.3,658 c 1.2,0.4 1.9,1.7 2.4,3.1 0.7,2.2 0.1,4.3 -1.7,4.9 -2.1,0.6 -4.2,-0.5 -4.9,-2.6 -0.7,-2.2 0.5,-4.9 2.3,-5.5 0.6,-0.1 1.2,-0.1 1.9,0.1 l 0,0 z"
       id="path322"
       inkscape:connector-curvature="0"
       style="fill:#834317;stroke:#000000;stroke-width:3" /><path
       class="st29"
       d="m 795.7,664.4 c 1.2,0.4 2.1,1.3 2.5,2.5 0.9,1.9 0.6,3.8 -0.9,4.5 -1.7,0.8 -3.8,0.1 -4.7,-1.7 -0.9,-1.9 -0.1,-4.4 1.4,-5.2 0.5,-0.1 1.1,-0.2 1.7,-0.1 l 0,0 z"
       id="path324"
       inkscape:connector-curvature="0"
       style="fill:#834317;stroke:#000000;stroke-width:3" /><path
       d="m 799.8,650.7 0.1,0 0.1,0 0.2,0 c 0.2,0 0.3,0.1 0.5,0.1 0.3,0.2 0.6,0.4 0.9,0.8 0.1,0.1 0.1,0.2 0.2,0.3 0.1,0.2 0.3,0.5 0.3,0.8 0.1,0.3 0.1,0.6 0,0.8 0,0.2 -0.2,0.5 -0.3,0.6 -0.2,0.2 -0.5,0.2 -0.7,0.2 -0.3,-0.1 -0.6,-0.2 -0.9,-0.5 -0.2,-0.2 -0.5,-0.5 -0.6,-0.8 -0.1,-0.1 -0.1,-0.2 -0.2,-0.4 -0.2,-0.4 -0.2,-0.8 -0.2,-1.2 0,-0.2 0.1,-0.3 0.2,-0.5 0,-0.1 0.1,-0.1 0.2,-0.2 l 0.1,-0.1 0.1,0.1 0,0 z"
       id="path326"
       inkscape:connector-curvature="0" /><path
       class="st25"
       d="m 839.6,653.4 0,0 0.3,0.3 0.4,0.4 0.4,0.4 c 0.1,0.1 0.1,0.1 0.2,0.2 0,0.1 0.1,0.1 0.1,0.2 l 0.1,0.2 c 0.1,0.1 0.2,0.2 0.3,0.3 0.3,0.2 0.5,0.5 0.7,0.7 0,0.1 0.1,0.1 0.1,0 0,-0.1 0,-0.2 0,-0.3 -0.1,-0.3 -0.2,-0.6 -0.4,-0.9 0,-0.1 -0.1,-0.2 -0.1,-0.4 -0.1,-0.1 -0.2,-0.3 -0.3,-0.4 l 0,0 c -0.1,-0.1 -0.2,-0.1 -0.3,-0.2 l -0.5,-0.2 c -0.3,-0.1 -0.5,-0.3 -0.8,-0.5 l -0.2,-0.2 -0.1,-0.1 -0.1,0 c 0,0 0,0 -0.1,0 0,0 0,0 0,0.1 0,0 0,0.1 0,0.1 0.2,0.1 0.2,0.2 0.3,0.3 l 0,0 z"
       id="path328"
       inkscape:connector-curvature="0"
       style="fill:#5d381e" /><path
       d="m 839.7,653.2 0,0 c 0.3,0.3 0.6,0.6 0.8,0.9 0.2,0.2 0.4,0.5 0.6,0.7 0.1,0.1 0.2,0.2 0.4,0.3 0.2,0.1 0.3,0.3 0.4,0.4 0.1,0.1 0.2,0.3 0.3,0.4 0,0.1 0.1,0.1 0.1,0 0,-0.1 0,-0.2 0,-0.3 0,-0.2 -0.1,-0.3 -0.1,-0.5 -0.1,-0.2 -0.2,-0.3 -0.3,-0.5 -0.1,-0.2 -0.3,-0.5 -0.5,-0.6 l -0.5,-0.3 c -0.4,-0.3 -0.7,-0.5 -1,-0.7 l -0.2,-0.1 -0.1,-0.1 -0.1,0 0,0 c 0,0 0,0 0,0 l 0,0 c 0,0 0,0.1 0,0.1 0,0.1 0.1,0.2 0.2,0.3 l 0,0 z"
       id="path330"
       inkscape:connector-curvature="0" /><path
       d="m 839.7,655.8 0,0 c 0.1,-0.1 0.5,-0.4 0.9,-0.7 0.3,-0.2 0.5,-0.4 0.7,-0.6 l 0.4,-0.6 c 0.2,-0.3 0.4,-0.5 0.5,-0.8 0.1,-0.3 0,-0.1 -0.1,-0.1 -0.2,0.1 -0.3,0.2 -0.5,0.3 -0.2,0.1 -0.4,0.3 -0.6,0.4 -0.2,0.1 -0.3,0.3 -0.5,0.5 l -0.4,0.5 c -0.2,0.3 -0.4,0.6 -0.7,0.8 l -0.1,0.1 c 0,0 -0.1,0.1 -0.1,0.1 0,0 0,0.1 0,0.1 l 0,0 0,0 0,0 0.1,0 c 0.2,0.1 0.3,0 0.4,0 l 0,0 z"
       id="path332"
       inkscape:connector-curvature="0" /><g
       id="path3334">
       <!-- <image
         sodipodi:absref="/home/daniel/Projects/L2TOR_project/freeplay-sandbox/qt-gui/res/F00496F3.png"
         xlink:href="F00496F3.png"
         id="image335"
         transform="matrix(0.9792,0,0,0.9957,877,490)"
         height="233"
         width="48"
         style="overflow:visible;opacity:0.75;enable-background:new" /> -->
         <linearGradient
         id="SVGID_10_"
         gradientUnits="userSpaceOnUse"
         x1="1479.13"
         y1="790.37952"
         x2="1506.4"
         y2="788.43951"
         gradientTransform="translate(-601.88,-192.22)"><stop
           offset="0"
           style="stop-color:#4F2D17"
           id="stop338" /><stop
           offset="0.49"
           style="stop-color:#D28C5F"
           id="stop340" /><stop
           offset="1"
           style="stop-color:#482914"
           id="stop342" /></linearGradient><polygon
         class="st30"
         points="904.9,703.1 892.2,703.4 881.8,614.1 877.7,528.5 877.7,491.2 888.4,491.2 894.8,528.5 899.2,591 903,664.8 "
         id="polygon344"
         style="fill:url(#SVGID_10_)" /><polygon
         class="st19"
         points="904.9,703.1 892.2,703.4 881.8,614.1 877.7,528.5 877.7,491.2 888.4,491.2 894.8,528.5 899.2,591 903,664.8 "
         id="polygon346"
         style="fill:none;stroke:#000000" /></g><g
       id="g8423">
       <!-- <image
         sodipodi:absref="/home/daniel/Projects/L2TOR_project/freeplay-sandbox/qt-gui/res/F00496FC.png"
         xlink:href="F00496FC.png"
         id="image349"
         transform="matrix(0.9961,0,0,0.9851,707,448)"
         height="67"
         width="258"
         style="overflow:visible;opacity:0.75;enable-background:new" /> -->
         <path
         class="st7"
         d="m 708.5,463.1 0,16.1 c 5.1,1.8 10.4,3.1 15.8,4.1 6.6,1 86.8,10.7 90,10.7 3.2,0 48.6,0.6 53,0.6 4.4,0 24.3,-1.6 28.1,-1.6 3.8,0 49.3,-16.7 49.3,-16.7 l 0.3,-4.1 -0.6,-12.6 -4.1,-1.6 -115.5,-8.2 -12.3,-1 -20.5,0.6 -52.4,7 -26.8,4.7 -4.3,2 z"
         id="path351"
         inkscape:connector-curvature="0"
         style="fill:#d28c5f;stroke:#000000" /><path
         class="st19"
         d="m 708.8,463.4 c 0,0 27.1,8.2 36.3,8.2 9.2,0 79.2,6.6 84.6,6.6 5.4,0 59.7,0.3 59.7,0.3 0,0 7,-0.6 12,-1 5,-0.4 39.8,-13.2 41.7,-14.8 1.9,-1.6 1.2,-2.9 1.2,-2.9"
         id="path353"
         inkscape:connector-curvature="0"
         style="fill:none;stroke:#000000" /><linearGradient
         id="SVGID_11_"
         gradientUnits="userSpaceOnUse"
         x1="1536.9264"
         y1="663.92877"
         x2="1489.4865"
         y2="679.02881"
         gradientTransform="translate(-601.88,-192.22)"><stop
           offset="0"
           style="stop-color:#8F5228"
           id="stop356" /><stop
           offset="1"
           style="stop-color:#D28C5F"
           id="stop358" /></linearGradient><path
         class="st31"
         d="m 885.2,478.8 0.7,14.1 11.1,-0.4 24.5,-8.2 22.8,-8.3 0.3,-6.4 -0.5,-7.1 -18.9,7.8 c 0,0 -19.3,6.8 -25.1,7.7 -5,0.7 -9.9,0.9 -14.9,0.8 l 0,0 z"
         id="path360"
         inkscape:connector-curvature="0"
         style="fill:url(#SVGID_11_)" /></g><g
       id="layer1">
       <!-- <image
         sodipodi:absref="/home/daniel/Projects/L2TOR_project/freeplay-sandbox/qt-gui/res/F00496FF.png"
         xlink:href="F00496FF.png"
         id="image363"
         transform="matrix(0.9945,0,0,0.9945,722.07,329.32)"
         height="183"
         width="183"
         style="overflow:visible;opacity:0.75;enable-background:new" /> -->
         <path
         class="st32"
         d="m 738.3,361.8 c 0.1,-0.1 0.2,-0.1 0.3,-0.1 l 0.1,0 0.3,0.1 0.9,0.3 c 0.7,0.3 1.6,0.7 2.6,1.1 2,0.9 4.3,1.9 5.6,2.6 18.3,9.6 38.7,25.9 54.8,43.8 4.5,4.2 12.4,14.2 13.6,18.4 3.7,6.8 5.2,12.3 3.8,15.7 -0.4,1.1 -1.7,2.6 -4.6,5.5 -0.4,0.4 -1.3,1.1 -2.5,2.1 -1.2,1 -2.8,2.2 -4.3,3.3 -4.9,3.7 -6.1,4.5 -9.4,6.1 -6.7,3.3 -14.8,5.8 -19.3,5.8 -4.2,0 -9.8,-1.9 -14,-4.8 -7.3,-5 -14.6,-14.3 -19.9,-25.2 -9.3,-19.1 -13.4,-43.9 -10.6,-63.5 0.3,-2 0.8,-4.7 1.3,-7 0.3,-1.1 0.5,-2.1 0.7,-2.9 0.1,-0.4 0.2,-0.7 0.3,-0.9 0.1,-0.2 0.1,-0.2 0.1,-0.3 0.1,0 0.1,-0.1 0.2,-0.1 l 0,0 z"
         id="path365"
         inkscape:connector-curvature="0"
         style="fill:#beba10" /><path
         class="st33"
         d="m 722.6,360.4 c 0.8,-0.6 1.7,-0.9 2.7,-1.1 1.5,-0.2 3.1,-0.2 4.6,0 1.8,0.2 3.6,0.6 5.4,1.1 l 0,0 2.3,0.6 c 0.3,0.1 0.5,0.5 0.3,0.8 0,0.1 -0.1,0.2 -0.2,0.2 l -5.2,3.9 0,0 c -2.9,2.1 -5.5,4.5 -8,7 -9.6,10.1 -15.3,21.8 -16.4,33.6 -0.1,0.9 -0.2,1.7 -0.3,2.3 0,0.3 -0.1,0.5 -0.1,0.7 -0.1,1.5 0.1,4.5 0.3,6.1 -0.6,-2 -1.2,-4 -1.5,-6 0,-0.2 -0.1,-0.4 -0.1,-0.6 0,-0.5 -0.1,-1.1 -0.1,-1.8 -0.1,-1.5 -0.1,-3.3 -0.1,-4.9 0.2,-13.7 4.8,-26.9 12.9,-37.9 0.9,-1.4 2,-2.6 3.3,-3.8 l 0.2,-0.2 0,0 z"
         id="path367"
         inkscape:connector-curvature="0"
         style="fill:#6d1245" /><path
         class="st34"
         d="m 738.9,361.1 0,0 0.7,-0.4 3.3,-1.8 c 18.5,-10 41.6,-12 59.7,-5.1 10.2,3.9 19.3,10.9 24.1,18.8 8.7,14.2 10.5,33.8 4.7,51.3 -1.9,5.3 -4.4,10.3 -7.4,15.1 -0.5,0.8 -1,1.5 -1.4,2 -0.2,0.3 -0.4,0.5 -0.5,0.7 -0.5,0.7 -1.1,1.4 -1.8,2.1 0.3,-1.2 0.5,-2.3 0.5,-3.5 -0.1,-3.5 -1.8,-8.1 -4.9,-13.3 -3.8,-6.1 -8.1,-11.9 -12.9,-17.2 -11.9,-13.3 -25.3,-25 -40,-35 -7.7,-5.2 -16.2,-9.9 -22,-12.3 l -2,-0.8 c -0.2,-0.1 -0.2,-0.3 -0.2,-0.5 0.1,0 0.1,-0.1 0.1,-0.1 l 0,0 z"
         id="path369"
         inkscape:connector-curvature="0"
         style="fill:#c83d17" /><path
         class="st35"
         d="m 750.4,343.2 0.6,-0.4 c 2.2,-1.5 4.2,-2.2 7.7,-2.9 11,-2 22.4,-1.2 33,2.4 8.2,2.9 15.8,7.4 22.3,13.2 2.1,2 4.1,4.1 6,6.3 1,1.1 1.8,2.1 2.4,3 0.3,0.4 0.6,0.8 0.7,1 0.1,0.1 0.2,0.3 0.2,0.4 1,1.5 1.8,3.1 2.5,4.7 -0.2,0 -3.1,-3.9 -3.4,-4 -0.2,-0.2 -0.5,-0.4 -0.7,-0.6 -2.6,-2.6 -5.4,-4.9 -8.4,-7 -7.8,-5.1 -16,-8 -26.3,-9.1 -13.1,-1.4 -26.3,0.7 -38.4,6 -1.2,0.5 -3.3,1.5 -5.3,2.5 -1,0.5 -1.9,1 -2.6,1.3 -0.7,0.3 -1.3,0.7 -1.4,0.8 -0.1,0.1 -0.1,0.1 -0.2,0.1 -0.2,0 -0.3,-0.1 -0.5,-0.2 -0.2,-0.2 -0.1,-0.3 -0.1,-0.4 0,-0.2 0.1,-0.3 0.1,-0.5 0.1,-0.3 0.3,-0.8 0.5,-1.4 0.4,-1.1 1,-2.6 1.6,-3.8 0.8,-1.6 1.8,-3.2 2.8,-4.7 1.3,-2 2.9,-3.8 4.8,-5.3 1,-0.5 1.5,-0.9 2.1,-1.4 l 0,0 z"
         id="path371"
         inkscape:connector-curvature="0"
         style="fill:#f1c700" /><path
         class="st36"
         d="m 731.5,352.2 c 2.1,-1.6 4.2,-3.1 6.5,-4.4 3.4,-2 7,-3.6 10.7,-5 l 0,0 1.7,-0.5 c 0.7,-0.3 1.5,-0.5 2.3,-0.6 0.1,0.1 -1.8,1.1 -2,1.2 l -1,0.8 0,0 c -4.2,3.3 -8.1,9.1 -10.4,15.2 -0.2,0.6 -0.4,1.1 -0.6,1.5 -0.1,0.2 -0.1,0.3 -0.2,0.5 0,0.1 -0.1,0.1 -0.1,0.2 0,0 -0.1,0.1 -0.1,0.1 -0.1,0 -0.2,0.1 -0.3,0 l -0.4,-0.1 -0.7,-0.2 -2.1,-0.6 c -3.1,-0.9 -7.5,-1.4 -9.3,-1 l -1.4,0.3 c -0.1,0 -0.9,0.5 -1,0.4 -0.1,-0.1 0.6,-0.8 0.7,-0.9 l 1.9,-1.9 c 1.8,-1.8 3.7,-3.5 5.8,-5 l 0,0 z"
         id="path373"
         inkscape:connector-curvature="0"
         style="fill:#e78700" /><path
         class="st35"
         d="m 734.3,364.1 c 0.5,-0.4 1,-0.8 1.4,-1 0.4,-0.2 0.8,-0.5 1.1,-0.7 l 0.4,-0.2 c 0.4,-0.2 0.8,-0.4 1.1,-0.6 -0.2,0.3 -0.3,0.7 -0.3,1.1 0,0.2 -0.1,0.4 -0.1,0.6 -0.1,0.5 -0.4,1.2 -0.6,2 -5,19.7 -2.1,46 7.3,67.5 2.9,7.1 6.9,13.7 11.9,19.5 4.1,5.1 5.5,6.4 9.3,9.2 2.6,1.8 5.4,3.2 8.4,4.2 0.8,0.2 1.5,0.4 1.8,0.5 0.1,0 0.2,0.1 0.3,0.1 0.1,0.1 0.2,0.2 0.3,0.4 0,0.1 0,0.2 -0.1,0.3 0,0.1 -0.1,0.1 -0.2,0.1 -0.1,0 -0.2,0.1 -0.3,0.1 -0.8,0.1 -1.6,0.2 -2.5,0.2 -23.5,1.1 -45.6,-10.7 -57.9,-30.7 -7.7,-12.7 -9.8,-24.4 -6.7,-37.4 2.4,-10.1 8.9,-20.8 17.5,-28.9 1.4,-1.3 3.9,-3.4 6.2,-5.2 0.6,-0.3 1.2,-0.7 1.7,-1.1 l 0,0 z"
         id="path375"
         inkscape:connector-curvature="0"
         style="fill:#f1c700" /><ellipse
         transform="matrix(0.7915,-0.6111,0.6111,0.7915,-67.3225,526.4484)"
         class="st0"
         cx="738"
         cy="361.89999"
         rx="12.5"
         ry="7"
         id="ellipse377"
         style="fill:#ffffff" /><path
         class="st37"
         d="m 806.7,350 c 29.4,20 37,60.1 16.9,89.5 -20,29.4 -60.1,37 -89.5,16.9 -1.6,-1.1 -3.1,-2.2 -4.5,-3.4 29.4,19.9 69.5,12.2 89.4,-17.2 18.6,-27.5 13.3,-64.7 -12.3,-85.8 z"
         id="path379"
         inkscape:connector-curvature="0"
         style="opacity:0.33000004;fill:#d99b17;enable-background:new" /><linearGradient
         id="SVGID_12_"
         gradientUnits="userSpaceOnUse"
         x1="-2040.8101"
         y1="550.55719"
         x2="-2121.3601"
         y2="597.07721"
         gradientTransform="matrix(-0.87,0,0,0.87,-1070.1,-113.44)"><stop
           offset="0"
           style="stop-color:#FFFFFF;stop-opacity:0.67"
           id="stop382" /><stop
           offset="1"
           style="stop-color:#FFFFFF;stop-opacity:0"
           id="stop384" /></linearGradient><path
         class="st38"
         d="m 814.8,355 c -26.8,-24.1 -68.1,-21.8 -92.2,5 -24.1,26.8 -21.8,68.1 5,92.2 7.4,6.7 16.3,11.5 25.9,14.2"
         id="path386"
         inkscape:connector-curvature="0"
         style="fill:url(#SVGID_12_)" /></g></g></svg>
