<?xml version="1.0" encoding="UTF-8" standalone="no"?>
<!-- Generator: Adobe Illustrator 20.0.0, SVG Export Plug-In . SVG Version: 6.00 Build 0)  -->

<svg
   xmlns:dc="http://purl.org/dc/elements/1.1/"
   xmlns:cc="http://creativecommons.org/ns#"
   xmlns:rdf="http://www.w3.org/1999/02/22-rdf-syntax-ns#"
   xmlns:svg="http://www.w3.org/2000/svg"
   xmlns="http://www.w3.org/2000/svg"
   xmlns:xlink="http://www.w3.org/1999/xlink"
   xmlns:sodipodi="http://sodipodi.sourceforge.net/DTD/sodipodi-0.dtd"
   xmlns:inkscape="http://www.inkscape.org/namespaces/inkscape"
   version="1.1"
   id="svg16054"
   inkscape:version="0.91 r13725"
   sodipodi:docname="quiz4.svg"
   x="0px"
   y="0px"
   viewBox="0 0 2125.9999 1187"
   xml:space="preserve"
   width="2126"
   height="1187"><metadata
     id="metadata359"><rdf:RDF><cc:Work
         rdf:about=""><dc:format>image/svg+xml</dc:format><dc:type
           rdf:resource="http://purl.org/dc/dcmitype/StillImage" /><dc:title></dc:title></cc:Work></rdf:RDF></metadata><style
     type="text/css"
     id="style3">
	.st0{fill:#FFFFFF;}
	.st1{fill:#094B60;stroke:#000000;}
	.st2{fill:url(#SVGID_1_);stroke:#000000;}
	.st3{fill:#0C566E;stroke:#000000;}
	.st4{fill:#0B536B;stroke:#000000;}
	.st5{fill:url(#SVGID_2_);stroke:#000000;}
	.st6{fill:url(#SVGID_3_);stroke:#000000;}
	.st7{fill:url(#SVGID_4_);stroke:#000000;}
	.st8{fill:#089BC7;stroke:#000000;}
	.st9{fill:url(#SVGID_5_);stroke:#000000;}
	.st10{fill:url(#SVGID_6_);stroke:#000000;}
	.st11{fill:url(#SVGID_7_);stroke:#000000;}
	.st12{fill:url(#SVGID_8_);stroke:#000000;}
	.st13{fill:none;stroke:#000000;}
	.st14{fill:url(#SVGID_9_);stroke:#000000;stroke-width:1.02;}
	.st15{fill:url(#SVGID_10_);stroke:#000000;}
	.st16{fill:#094F65;}
	.st17{fill:#089BC7;stroke:#000000;stroke-width:1.02;}
	.st18{fill:url(#SVGID_11_);}
	.st19{fill:#A06121;}
	.st20{fill:#B8854F;}
	.st21{fill:#834317;stroke:#000000;stroke-width:1.67;}
	.st22{fill:#834317;stroke:#000000;stroke-width:3.36;}
	.st23{fill:#834317;stroke:#000000;stroke-width:3.78;}
	.st24{fill:#834317;stroke:#000000;stroke-width:2.63;}
	.st25{fill:#834317;}
	.st26{fill:#956C45;stroke:#000000;stroke-width:2.83;}
	.st27{fill:#6E4A25;}
	.st28{fill:#5D381E;}
	.st29{fill:#DDCEBE;}
	.st30{fill:none;stroke:#000000;stroke-width:5;}
	.st31{fill:none;stroke:#000000;stroke-width:4;}
	.st32{stroke:#000000;stroke-width:5;}
	.st33{fill:#956C45;stroke:#000000;stroke-width:3;}
	.st34{fill:#834317;stroke:#000000;stroke-width:1.99;}
</style><defs
     id="defs5"><inkscape:path-effect
       effect="spiro"
       id="path-effect5341"
       is_visible="true" /><inkscape:path-effect
       effect="spiro"
       id="path-effect17606"
       is_visible="true" /><inkscape:path-effect
       effect="spiro"
       id="path-effect16830"
       is_visible="true" /><inkscape:path-effect
       effect="spiro"
       id="path-effect16826"
       is_visible="true" /><inkscape:path-effect
       effect="spiro"
       id="path-effect16822"
       is_visible="true" /><inkscape:path-effect
       effect="spiro"
       id="path-effect16818"
       is_visible="true" /><inkscape:path-effect
       effect="spiro"
       id="path-effect16814"
       is_visible="true" /><inkscape:path-effect
       effect="spiro"
       id="path-effect16810"
       is_visible="true" /><inkscape:path-effect
       effect="spiro"
       id="path-effect16806"
       is_visible="true" /><inkscape:path-effect
       effect="spiro"
       id="path-effect16802"
       is_visible="true" /><inkscape:path-effect
       effect="spiro"
       id="path-effect16798"
       is_visible="true" /><inkscape:path-effect
       effect="spiro"
       id="path-effect16794"
       is_visible="true" /><inkscape:path-effect
       effect="spiro"
       id="path-effect16790"
       is_visible="true" /><inkscape:path-effect
       effect="spiro"
       id="path-effect16786"
       is_visible="true" /><inkscape:path-effect
       effect="spiro"
       id="path-effect16782"
       is_visible="true" /><inkscape:path-effect
       effect="spiro"
       id="path-effect16778"
       is_visible="true" /><inkscape:path-effect
       effect="spiro"
       id="path-effect16774"
       is_visible="true" /></defs><sodipodi:namedview
     bordercolor="#666666"
     borderlayer="true"
     borderopacity="1.0"
     fit-margin-bottom="0"
     fit-margin-left="0"
     fit-margin-right="0"
     fit-margin-top="0"
     id="base"
     inkscape:current-layer="svg16054"
     inkscape:cx="701.87495"
     inkscape:cy="448.34105"
     inkscape:document-units="cm"
     inkscape:pageopacity="0.0"
     inkscape:pageshadow="2"
     inkscape:window-height="744"
     inkscape:window-maximized="1"
     inkscape:window-width="1366"
     inkscape:window-x="0"
     inkscape:window-y="24"
     inkscape:zoom="0.35"
     pagecolor="#ffffff"
     showgrid="false"
     units="cm" /><g
     id="layer2"
     inkscape:groupmode="layer"
     inkscape:label="background"
     transform="translate(0,237.40002)"><rect
       id="rect4177"
       y="-241.83704"
       class="st0"
       width="2146.4292"
       height="1191.437"
       x="0"
       style="fill:#ffffff" /></g><g
     id="g27"
     transform="matrix(1.5,0,0,1.5,-235.93137,-108.16991)"><g
       id="layer1">
       <!-- <image
         sodipodi:absref="/home/daniel/Projects/L2TOR_project/freeplay-sandbox/qt-gui/res/3F8552F7.png"
         xlink:href="3F8552F7.png"
         id="image30"
         transform="matrix(0.9968,0,0,0.998,695,223)"
         height="503"
         width="309"
         style="overflow:visible;opacity:0.75;enable-background:new" /> -->
         <g
         id="g4378"><polygon
           class="st1"
           points="818.2,513.6 922.4,523.2 923.8,531.4 817.7,521.8 "
           id="polygon33"
           style="fill:#094b60;stroke:#000000" /><linearGradient
           id="SVGID_1_"
           gradientUnits="userSpaceOnUse"
           x1="1297.2297"
           y1="773.68182"
           x2="1324.9598"
           y2="776.9118"
           gradientTransform="translate(-600.88,-192.22)"><stop
             offset="0"
             style="stop-color:#114F5F"
             id="stop36" /><stop
             offset="0.49"
             style="stop-color:#1FB3D8"
             id="stop38" /><stop
             offset="1"
             style="stop-color:#0A3A47"
             id="stop40" /></linearGradient><polyline
           class="st2"
           points="707.2,683.5 696.5,679.7 705.5,581 717.3,484 730.5,484.6 727.4,548.4 719.8,609 711,681.6    "
           id="polyline42"
           style="fill:url(#SVGID_1_);stroke:#000000" /><polygon
           class="st3"
           points="795,633.7 805.1,635.5 813.3,568.6 817.7,523.8 818.3,493.5 805.1,493.5 799.4,561.7 796.8,614.1 "
           id="polygon44"
           style="fill:#0c566e;stroke:#000000" /><polygon
           class="st4"
           points="936.5,516.3 929.8,481 922.2,481 919.1,486.8 928.9,572.1 936.3,616.5 943.6,652.4 954.4,653.3 953.5,641.3 945.9,576.1 "
           id="polygon46"
           style="fill:#0b536b;stroke:#000000" /><linearGradient
           id="SVGID_2_"
           gradientUnits="userSpaceOnUse"
           x1="1400.3461"
           y1="796.70947"
           x2="1402.6261"
           y2="777.31952"
           gradientTransform="translate(-600.88,-192.22)"><stop
             offset="0"
             style="stop-color:#114F5F"
             id="stop49" /><stop
             offset="0.49"
             style="stop-color:#1FB3D8"
             id="stop51" /><stop
             offset="1"
             style="stop-color:#0A3A47"
             id="stop53" /></linearGradient><path
           class="st5"
           d="m 724,580.3 c 0,0 -4.6,2 -4.9,4.7 -0.4,3.1 2.7,4.9 2.7,4.9 l 159.8,19.4 -0.2,-10 -123.2,-14.1 -34.2,-4.9 z"
           id="path55"
           inkscape:connector-curvature="0"
           style="fill:url(#SVGID_2_);stroke:#000000" /><linearGradient
           id="SVGID_3_"
           gradientUnits="userSpaceOnUse"
           x1="1401.1271"
           y1="748.0097"
           x2="1403.317"
           y2="725.36969"
           gradientTransform="translate(-600.88,-192.22)"><stop
             offset="0"
             style="stop-color:#114F5F"
             id="stop58" /><stop
             offset="0.49"
             style="stop-color:#1FB3D8"
             id="stop60" /><stop
             offset="1"
             style="stop-color:#0A3A47"
             id="stop62" /></linearGradient><path
           class="st6"
           d="m 729.1,529.4 c 0,0 -5.1,1.1 -5.1,5.1 -0.1,2.2 1.3,4.3 3.3,5.1 l 151.4,15.2 -0.5,-10 -148.2,-15.1 -0.9,-0.3 z"
           id="path64"
           inkscape:connector-curvature="0"
           style="fill:url(#SVGID_3_);stroke:#000000" /><polygon
           class="st4"
           points="814.6,558 928.9,570.7 930.5,579.2 813.7,566 "
           id="polygon66"
           style="fill:#0b536b;stroke:#000000" /><linearGradient
           id="SVGID_4_"
           gradientUnits="userSpaceOnUse"
           x1="1478.0701"
           y1="792.96057"
           x2="1505.3401"
           y2="791.02063"
           gradientTransform="translate(-600.88,-192.22)"><stop
             offset="0"
             style="stop-color:#114F5F"
             id="stop69" /><stop
             offset="0.49"
             style="stop-color:#1FB3D8"
             id="stop71" /><stop
             offset="1"
             style="stop-color:#0A3A47"
             id="stop73" /></linearGradient><polygon
           class="st7"
           points="902.9,667.8 904.2,705 892.2,706.3 881.8,617 877.7,531.4 877.7,494.1 888.4,494.1 894.7,531.4 899.1,593.9 "
           id="polygon75"
           style="fill:url(#SVGID_4_);stroke:#000000" /><path
           class="st8"
           d="m 810.1,250.5 c 0,0 62.1,4.9 75.3,5.8 13.2,0.8 80.6,-0.4 80.6,-0.4 l -6,34.6 c 0,0 -67.3,0.6 -75.3,0 -8,-0.6 -75.5,-6.2 -75.5,-6.2 l -0.6,-34.1 1.5,0.3 z"
           id="path77"
           inkscape:connector-curvature="0"
           style="fill:#089bc7;stroke:#000000" /><path
           class="st8"
           d="m 708.5,466 0,16.1 c 5.1,1.8 10.4,3.1 15.8,4.1 6.6,1 86.8,10.7 90,10.7 3.2,0 48.6,0.6 53,0.6 4.4,0 24.3,-1.6 28.1,-1.6 3.8,0 49.3,-16.7 49.3,-16.7 l 0.3,-4.1 -0.7,-12.7 -4.1,-1.6 -115.5,-8.2 -12.3,-1 -20.5,0.6 -52.4,7 -26.8,4.7 -4.2,2.1 z"
           id="path79"
           inkscape:connector-curvature="0"
           style="fill:#089bc7;stroke:#000000" /><linearGradient
           id="SVGID_5_"
           gradientUnits="userSpaceOnUse"
           x1="1434.7001"
           y1="562.9386"
           x2="1446.62"
           y2="563.25861"
           gradientTransform="translate(-600.88,-192.22)"><stop
             offset="0"
             style="stop-color:#114F5F"
             id="stop82" /><stop
             offset="0.49"
             style="stop-color:#1FB3D8"
             id="stop84" /><stop
             offset="1"
             style="stop-color:#0A3A47"
             id="stop86" /></linearGradient><path
           class="st9"
           d="m 834.2,454.1 c 0,0 1.2,-76.5 1.2,-88.9 0,-12.4 3.8,-79.4 3.8,-79.4 l 4.9,0.5 c 0,0 -1.2,82.5 -1.2,97.4 0,14.9 -2,71.1 -2,71.1 -1,0.5 -2.2,0.8 -3.3,0.9 -1.3,-0.3 -2.4,-0.8 -3.4,-1.6 l 0,0 z"
           id="path88"
           inkscape:connector-curvature="0"
           style="fill:url(#SVGID_5_);stroke:#000000" /><linearGradient
           id="SVGID_6_"
           gradientUnits="userSpaceOnUse"
           x1="1458.8206"
           y1="565.04358"
           x2="1474.5405"
           y2="566.33362"
           gradientTransform="translate(-600.88,-192.22)"><stop
             offset="0"
             style="stop-color:#114F5F"
             id="stop91" /><stop
             offset="0.49"
             style="stop-color:#1FB3D8"
             id="stop93" /><stop
             offset="1"
             style="stop-color:#0A3A47"
             id="stop95" /></linearGradient><path
           class="st10"
           d="m 856,456.2 c 0,0 3.7,-63 5.3,-77.8 1.6,-14.8 8.8,-89.6 8.8,-89.6 l 5,0.5 -0.3,3.5 c 0,0 -4.5,87.2 -6.6,111.1 -2.1,23.9 -4.9,53.5 -4.9,53.5 -1.4,0.4 -2.8,0.6 -4.3,0.5 -1,-0.4 -2.1,-1 -3,-1.7 l 0,0 z"
           id="path97"
           inkscape:connector-curvature="0"
           style="fill:url(#SVGID_6_);stroke:#000000" /><linearGradient
           id="SVGID_7_"
           gradientUnits="userSpaceOnUse"
           x1="1486.7266"
           y1="566.03882"
           x2="1500.0966"
           y2="567.64868"
           gradientTransform="translate(-600.88,-192.22)"><stop
             offset="0"
             style="stop-color:#114F5F"
             id="stop100" /><stop
             offset="0.49"
             style="stop-color:#1FB3D8"
             id="stop102" /><stop
             offset="1"
             style="stop-color:#0A3A47"
             id="stop104" /></linearGradient><path
           class="st11"
           d="m 882.5,459.5 c -2.4,-0.5 -3,-1.5 -3,-1.5 0,0 5.7,-55.3 6.9,-65.9 1.2,-10.6 13.6,-102.3 13.6,-102.3 l 4.4,0.2 c 0,0 -8.9,89.7 -11.4,112.3 -2.5,22.6 -6.5,56.4 -6.5,56.4 -1.1,0.8 -2.6,1.1 -4,0.8 l 0,0 z"
           id="path106"
           inkscape:connector-curvature="0"
           style="fill:url(#SVGID_7_);stroke:#000000" /><linearGradient
           id="SVGID_8_"
           gradientUnits="userSpaceOnUse"
           x1="1514.0667"
           y1="566.88342"
           x2="1527.4366"
           y2="568.7934"
           gradientTransform="translate(-600.88,-192.22)"><stop
             offset="0"
             style="stop-color:#114F5F"
             id="stop109" /><stop
             offset="0.49"
             style="stop-color:#1FB3D8"
             id="stop111" /><stop
             offset="1"
             style="stop-color:#0A3A47"
             id="stop113" /></linearGradient><path
           class="st12"
           d="m 906.6,461.9 c -1.1,-0.6 -2.1,-1.3 -3.1,-2.1 0,0 7.2,-53 9.3,-64.1 2.1,-11.1 17,-106.2 17,-106.2 l 4.3,-0.1 c 0,0 -12.8,101.7 -14.8,119.8 -2,18.1 -7.7,52.1 -7.7,52.1 0,0 -3.5,1.3 -5,0.6 l 0,0 z"
           id="path115"
           inkscape:connector-curvature="0"
           style="fill:url(#SVGID_8_);stroke:#000000" /><path
           class="st13"
           d="m 708.8,466.3 c 0,0 27.2,8.2 36.3,8.2 9.1,0 79.2,6.6 84.6,6.6 5.4,0 59.7,0.3 59.7,0.3 0,0 7,-0.6 12,-1 5,-0.4 39.8,-13.2 41.7,-14.8 1.9,-1.6 1.2,-2.9 1.2,-2.9"
           id="path117"
           inkscape:connector-curvature="0"
           style="fill:none;stroke:#000000" /><linearGradient
           id="SVGID_9_"
           gradientUnits="userSpaceOnUse"
           x1="1547.0992"
           y1="537.01331"
           x2="1563.5592"
           y2="540.67328"
           gradientTransform="translate(-600.88,-192.22)"><stop
             offset="0"
             style="stop-color:#06485C"
             id="stop120" /><stop
             offset="0.47"
             style="stop-color:#089BC7"
             id="stop122" /><stop
             offset="1"
             style="stop-color:#046480"
             id="stop124" /></linearGradient><path
           class="st14"
           d="m 927.3,461.7 c 0,0 11.8,-71.6 12,-73 0.2,-1.4 2.7,-6.1 2.7,-6.1 -0.8,-1.4 -1.2,-2.9 -1.1,-4.5 0.2,-1.4 1.1,-2.6 2.3,-3.2 0,0 -2.1,-6 -0.9,-10.5 1.2,-4.5 13.8,-55.9 14.3,-58.6 0.5,-2.7 -0.4,-6.9 -0.2,-8.3 0.1,-0.8 0.8,-1.4 1.6,-1.5 0,0 -1.4,-2 -1.2,-3.3 0.2,-1.3 2,-2.3 2,-2.3 0,0 1.7,-12.1 2.7,-18.1 1.1,-6 4.8,-18.4 4.8,-18.4 0,0 -1.3,-1 -0.1,-4.3 1.2,-3.3 2.4,-5.4 2.8,-6.3 0.4,-0.9 -0.7,-3.4 -0.7,-3.4 0,0 -3.3,-13 9.7,-10.6 13.2,2.5 1.9,13.1 1.4,14.1 -1.9,3.6 1.6,3.7 0.9,9.6 -0.3,2.1 -2.6,3.9 -2.6,3.9 l -1.7,18.3 -4.7,18 c 0,0 1.3,0.2 1,2.3 -0.2,1.1 -0.7,2.2 -1.5,3 0.1,1.1 0,2.2 -0.3,3.3 -0.4,1.4 -2.7,1.1 -3,2.9 -0.3,1.8 -9.5,62.7 -10.1,64.9 -0.6,2.2 -3.9,7.3 -3.9,7.3 1.2,0.8 1.7,2.3 1.4,3.7 -0.3,1.6 -1.1,3.1 -2.3,4.2 0,0 -1.5,17.6 -2.2,21 l -12.6,57.7 c 0,0 -3.9,1 -5.6,0.7 -1.7,-0.3 -4.9,-2.5 -4.9,-2.5 l 0,0 z"
           id="path126"
           inkscape:connector-curvature="0"
           style="fill:url(#SVGID_9_);stroke:#000000;stroke-width:1.01999998" /><linearGradient
           id="SVGID_10_"
           gradientUnits="userSpaceOnUse"
           x1="1395.451"
           y1="531.60828"
           x2="1414.8611"
           y2="532.25818"
           gradientTransform="translate(-600.88,-192.22)"><stop
             offset="0"
             style="stop-color:#06485C"
             id="stop129" /><stop
             offset="0.47"
             style="stop-color:#089BC7"
             id="stop131" /><stop
             offset="1"
             style="stop-color:#046480"
             id="stop133" /></linearGradient><path
           class="st15"
           d="m 796,454.2 c 0,0 0.3,-71.9 0.3,-73.2 0,-1.3 1.8,-6.7 1.8,-6.7 0,0 -2.7,-1.3 -2.2,-3.6 0.5,-2.3 3.1,-4 3.1,-4 0,0 -4.5,-4.5 -4,-8.9 0.5,-4.4 4.5,-54 4.5,-56.7 0,-2.7 -2.2,-5.8 -2.2,-7.1 0,-1.3 1.8,-4 1.8,-4 0,0 -2.2,-1.9 -2.2,-3.1 0,-1.2 1.9,-2.4 1.9,-2.4 l 0.8,-35.5 c 0,0 -2.7,-0.7 -2,-4 0.7,-3.3 3.8,-6.3 4,-7.1 0.2,-0.8 -2.5,-2 -2.5,-2 0,0 -6.9,-13.2 6.5,-12.1 13.4,1.1 4.8,12.3 4.5,13.4 -1.2,3.8 1.6,2.9 1.9,8.6 0.1,2 -1.9,4.1 -1.9,4.1 l 0,35.5 c 0,0 2.4,0.6 2.4,2.6 0,1.2 -0.8,2.2 -1.9,2.5 0.7,0.9 1.2,2 1.3,3.2 0,1.3 -2.2,2 -2.2,3.8 0,1.8 1.6,60.3 1.3,62.5 -0.3,2.2 -2.7,7.6 -2.7,7.6 0,0 2.5,1.6 2.5,4 -0.1,1.5 -0.9,3 -2.2,3.8 0,0 1.8,16.8 1.7,20.1 -0.3,7.4 -3.3,58.7 -3.3,58.7 0,0 -3.5,1.8 -5.4,1.9 -1.9,0.1 -5.6,-2 -5.6,-1.9 l 0,0 z"
           id="path135"
           inkscape:connector-curvature="0"
           style="fill:url(#SVGID_10_);stroke:#000000" /><path
           class="st16"
           d="m 809.9,282.8 c 0,0 66.3,6.4 76.1,6.4 9.8,0 72.9,-0.5 72.9,-0.5 l -0.7,1.6 c 0,0 -66.8,0.9 -74.1,0.5 -7.3,-0.5 -74.3,-6.2 -74.3,-6.2 l 0,-1.8 z"
           id="path137"
           inkscape:connector-curvature="0"
           style="fill:#094f65" /><path
           class="st17"
           d="m 969.1,240.8 c 3.6,-0.5 7.2,0.1 10.5,1.7"
           id="path139"
           inkscape:connector-curvature="0"
           style="fill:#089bc7;stroke:#000000;stroke-width:1.01999998" /><path
           class="st17"
           d="m 966.2,253.3 c 0,0 8.3,-0.5 12.1,2.8"
           id="path141"
           inkscape:connector-curvature="0"
           style="fill:#089bc7;stroke:#000000;stroke-width:1.01999998" /><path
           class="st17"
           d="m 958,295.7 c 0,0 5.4,-1.3 12.5,2.2"
           id="path143"
           inkscape:connector-curvature="0"
           style="fill:#089bc7;stroke:#000000;stroke-width:1.01999998" /><path
           class="st17"
           d="m 956.8,301.5 c 0,0 7.3,-2 11.8,1.7"
           id="path145"
           inkscape:connector-curvature="0"
           style="fill:#089bc7;stroke:#000000;stroke-width:1.01999998" /><path
           class="st17"
           d="m 943.6,374.7 c 0,0 8.1,-0.4 10.9,1.9"
           id="path147"
           inkscape:connector-curvature="0"
           style="fill:#089bc7;stroke:#000000;stroke-width:1.01999998" /><path
           class="st17"
           d="m 942.3,382.4 c 0,0 6.1,-0.3 10.7,2.5"
           id="path149"
           inkscape:connector-curvature="0"
           style="fill:#089bc7;stroke:#000000;stroke-width:1.01999998" /><path
           class="st8"
           d="m 801.1,237 c 0,0 3.2,-1.5 8.5,0.1"
           id="path151"
           inkscape:connector-curvature="0"
           style="fill:#089bc7;stroke:#000000" /><path
           class="st8"
           d="m 799.3,248.7 c 0,0 6.8,-2 11,0.4"
           id="path153"
           inkscape:connector-curvature="0"
           style="fill:#089bc7;stroke:#000000" /><path
           class="st8"
           d="m 799.1,289.6 c 0,0 4.2,-1.7 11.8,0.4"
           id="path155"
           inkscape:connector-curvature="0"
           style="fill:#089bc7;stroke:#000000" /><path
           class="st8"
           d="m 797.9,295.1 c 0,0 7.7,-2.4 12.8,0.2"
           id="path157"
           inkscape:connector-curvature="0"
           style="fill:#089bc7;stroke:#000000" /><path
           class="st8"
           d="m 798.9,366.6 c 0,0 5.8,-1.2 8.9,0.5"
           id="path159"
           inkscape:connector-curvature="0"
           style="fill:#089bc7;stroke:#000000" /><path
           class="st8"
           d="m 798.1,374.3 c 0,0 5.9,-1.5 10.9,0.3"
           id="path161"
           inkscape:connector-curvature="0"
           style="fill:#089bc7;stroke:#000000" /><linearGradient
           id="SVGID_11_"
           gradientUnits="userSpaceOnUse"
           x1="1535.8584"
           y1="666.70508"
           x2="1443.3884"
           y2="696.45508"
           gradientTransform="translate(-600.88,-192.22)"><stop
             offset="0"
             style="stop-color:#06627E"
             id="stop164" /><stop
             offset="1"
             style="stop-color:#089BC7;stop-opacity:0"
             id="stop166" /></linearGradient><path
           class="st18"
           d="m 885.2,481.7 0.7,14.1 11.1,-0.4 24.6,-8.2 22.8,-8.3 0.3,-6.4 -0.5,-7.1 -18.9,7.8 c 0,0 -19.3,6.8 -25.1,7.7 -5.1,0.7 -10,1 -15,0.8 l 0,0 z"
           id="path168"
           inkscape:connector-curvature="0"
           style="fill:url(#SVGID_11_)" /></g></g>
           <!-- <image
       sodipodi:absref="/home/daniel/Projects/L2TOR_project/freeplay-sandbox/qt-gui/res/3F8552F5.png"
       xlink:href="3F8552F5.png"
       id="image170"
       transform="matrix(0.9945,0,0,0.9961,710,461)"
       height="258"
       width="183"
       style="overflow:visible;opacity:0.75;enable-background:new" /> -->
       <g
       id="g5420"><path
         d="m 739.1,613 c 0,0.2 0,0.4 -0.1,0.5 -0.1,0.2 -0.3,0.3 -0.5,0.4 -0.3,0.1 -0.6,0.2 -0.9,0.2 -0.3,0 -0.7,0 -1,0 -0.8,-0.1 -1.6,-0.3 -2.3,-0.5 -0.2,-0.1 -0.5,-0.2 -0.7,-0.3 -0.8,-0.4 -1.6,-0.9 -2.2,-1.6 -0.2,-0.3 -0.4,-0.5 -0.5,-0.9 0,-0.1 -0.1,-0.3 -0.1,-0.4 0,-0.1 0,-0.1 0,-0.2 l 0,0 0.1,-0.2 0,0 0,0 0,0 0.1,-0.1 0.1,-0.1 c 0.1,-0.1 0.2,-0.2 0.3,-0.2 0.3,-0.1 0.7,-0.2 1,-0.2 0.9,0 1.7,0.2 2.6,0.5 l 0.6,0.2 c 0.7,0.3 1.3,0.6 1.9,0.9 0.3,0.1 0.5,0.3 0.7,0.5 0.2,0.1 0.3,0.3 0.5,0.5 0.1,0.1 0.2,0.3 0.3,0.5 0,0.2 0.1,0.3 0.1,0.5 l 0,0 z"
         id="path173"
         inkscape:connector-curvature="0" /><path
         d="m 739.5,607.3 c 0,0.2 0,0.4 -0.1,0.5 -0.1,0.2 -0.2,0.3 -0.4,0.5 -0.4,0.3 -0.9,0.5 -1.4,0.6 -0.6,0.1 -1.2,0.1 -1.7,0.1 -0.2,0 -0.4,-0.1 -0.6,-0.1 -1.5,-0.4 -2.6,-1.3 -2.4,-2.2 l 0,0 c 0.2,-0.9 1.4,-1.5 3,-1.4 l 0.6,0 c 0.5,0.1 1,0.2 1.5,0.4 0.4,0.1 0.8,0.4 1.1,0.7 0.1,0.1 0.2,0.3 0.3,0.4 0.1,0.1 0.1,0.3 0.1,0.5 l 0,0 z"
         id="path175"
         inkscape:connector-curvature="0" /><path
         d="m 738.7,621.2 c 0.1,0.5 -0.1,1.1 -0.5,1.5 -0.5,0.5 -1.2,0.8 -1.9,0.9 -0.5,0.1 -1,0 -1.5,-0.1 -0.4,-0.1 -0.8,-0.3 -1.1,-0.7 -0.1,-0.1 -0.2,-0.3 -0.3,-0.5 0,-0.1 -0.1,-0.3 -0.1,-0.5 l 0,0 0,0 c 0,-0.2 0.1,-0.3 0.1,-0.5 0.1,-0.2 0.1,-0.3 0.2,-0.4 0.2,-0.3 0.5,-0.6 0.9,-0.7 0.4,-0.2 0.8,-0.3 1.2,-0.4 0.6,-0.1 1.3,0 1.8,0.2 0.6,0.3 1,0.7 1.2,1.2 l 0,0 z"
         id="path177"
         inkscape:connector-curvature="0" /><path
         class="st19"
         d="m 794.5,582.7 c -1.6,-1 -2.8,-0.5 -4.4,-0.3 -1.6,0.2 -3.3,2.2 -4,2.4 l -0.3,0 c -4,4.1 -9,7.1 -14.5,8.9 -14.4,4.9 -25.2,0.7 -36,14 -2,2.5 -0.3,12.1 2.7,16.9 3.7,6 13.4,6.5 22.5,3.2 11.5,-4.1 26.4,-17.1 33,-25.9 0.2,-0.6 0.4,-1.1 0.8,-1.5 0.8,-1.1 1.5,-2.4 2,-3.7 0.6,-1.4 2,-4.7 2.1,-6.2 0,-1.6 -0.3,-3.3 -0.8,-4.8 -0.6,-1.5 -1.5,-2 -3.1,-3 l 0,0 z"
         id="path179"
         inkscape:connector-curvature="0"
         style="fill:#a06121" /><path
         class="st20"
         d="m 798.4,588.7 c -0.5,1 -1,2 -1.5,3 -0.7,1.3 -1.4,2.5 -2.2,3.8 -0.8,1.3 -1.7,2.5 -2.7,3.7 -0.8,1 -1.8,2 -2.8,3.1 -1,1.1 -3.2,2.5 -4.4,3.8 -1.2,1.3 -2.6,2.6 -4,3.8 -1.4,1.2 -2.9,2.5 -4.4,3.8 -1.5,1.3 -3,2.4 -4.6,3.6 -1.6,1.2 -3.2,2.2 -4.7,3.2 -1.5,1 -3.1,1.9 -4.7,2.6 -1.5,0.8 -3,1.4 -4.5,2 -1.1,0.4 -2.3,0.8 -3.4,1 -1.1,0.3 -2.3,0.5 -3.4,0.7 -1.1,0.2 -2.2,0.3 -3.3,0.3 -1,0 -2.1,0 -3.1,-0.1 -1,-0.1 -1.9,-0.3 -2.9,-0.6 -0.9,-0.2 -1.7,-0.6 -2.6,-1 -0.4,-0.2 -0.7,-0.5 -1.1,-0.7 l 0,0.1 c 3.7,6 13.4,6.5 22.5,3.2 11.5,-4.1 26.4,-17.1 33,-25.9 0.2,-0.6 0.4,-1.1 0.8,-1.5 0.8,-1.1 1.5,-2.4 2,-3.7 0.6,-1.4 2,-4.7 2.1,-6.2 -0.1,-0.8 -0.1,-1.4 -0.1,-2 l 0,0 z"
         id="path181"
         inkscape:connector-curvature="0"
         style="fill:#b8854f" /><path
         d="m 798,586.1 c 0.1,1.3 0.2,2.5 0.3,3.7 -0.3,2.1 -1,4.2 -2,6.1 -1,1.8 -2.1,3.5 -3.3,5.1 -1,1.4 -2.1,2.7 -3.1,3.8 -1,1.1 -2.1,2.3 -3.1,3.3 -2.7,2.6 -5.5,5.1 -8.5,7.4 -3,2.4 -6.2,4.5 -9.5,6.4 -2,1.2 -3.7,2 -5.3,2.8 -1,0.5 -2.3,1 -3.8,1.6 -1.9,0.7 -3.9,1.3 -5.9,1.7 -2.3,0.5 -4.6,0.6 -6.9,0.4 l 0,0 c -1.8,-0.1 -3.5,-0.6 -5.1,-1.3 -1.4,-0.7 -2.6,-1.7 -3.5,-3 -0.8,-1.3 -1.5,-2.6 -2,-4.1 l 0,0 c -0.6,-1.6 -1,-3.2 -1.4,-4.8 -0.1,-0.5 -0.2,-0.9 -0.2,-1.3 -0.2,-1 -0.2,-2.1 -0.1,-3.1 0,-0.6 0.1,-1.1 0.3,-1.6 0.1,-0.4 0.3,-0.7 0.5,-1 1.1,-1.3 2.3,-2.5 3.6,-3.6 1.4,-1.2 3,-2.3 4.7,-3.2 l 0,0 c 1.3,-0.7 2.7,-1.2 4.1,-1.7 1.4,-0.4 2.9,-0.8 4.3,-1 1.6,-0.3 3.3,-0.5 4.8,-0.7 1.5,-0.2 3.1,-0.4 4.4,-0.6 1.6,-0.2 3,-0.5 4.3,-0.7 1.3,-0.2 2.2,-0.5 2.9,-0.7 0.9,-0.3 2.1,-0.6 3.4,-1.1 2.4,-0.8 4.7,-1.9 6.9,-3.1 1.5,-0.8 2.9,-1.8 4.1,-2.9 1,-0.9 2,-1.8 2.9,-2.7 l 0,0 c 1.1,-1 2.3,-1.9 3.5,-2.7 1,-0.7 2.2,-1 3.4,-1 0.8,0 1.7,0.3 2.3,0.8 l 1.1,1.3 c 0.8,1 1.3,1.4 1.3,1.3 l 0,0 c 1.1,-0.7 1.1,-0.7 0,0 l 0,0 c 0.1,-0.1 -0.6,-1.2 -1.9,-3.2 -0.4,-0.3 -0.8,-0.6 -1.2,-0.8 -0.5,-0.3 -1,-0.5 -1.6,-0.6 -0.7,-0.1 -1.4,-0.1 -2.1,0.1 -0.8,0.2 -1.5,0.4 -2.2,0.8 -1.4,0.7 -2.7,1.6 -4,2.6 -1,0.8 -2,1.7 -3.1,2.4 -1.2,0.9 -2.5,1.7 -3.9,2.3 -2.2,1 -4.4,1.8 -6.7,2.5 -3.3,1 -6.4,1.7 -9,2.2 l -1,0.2 c -3,0.6 -6.1,1.1 -9.3,1.9 -3.1,0.7 -6,1.9 -8.8,3.5 -1.7,1 -3.2,2.2 -4.7,3.6 -1.3,1.2 -2.5,2.6 -3.6,4 -0.3,0.4 -0.5,0.9 -0.6,1.4 -0.2,0.6 -0.2,1.2 -0.3,1.8 0,1.6 0.1,3.1 0.3,4.6 0.1,0.6 0.2,1.2 0.3,1.7 0.2,1.1 0.5,2.3 0.8,3.4 0.5,1.6 1.1,3.1 1.9,4.5 l 0,0 c 0.5,0.8 1,1.5 1.7,2.1 0.7,0.7 1.5,1.3 2.3,1.7 1.8,1 3.7,1.6 5.7,1.8 2.3,0.3 4.7,0.3 7.1,0 2.4,-0.3 4.7,-0.9 6.9,-1.6 l 0,0 c 3.4,-1.2 6.6,-2.7 9.6,-4.6 2.5,-1.5 4.9,-3.2 7.1,-5 0.7,-0.6 1.5,-1.3 2.3,-2 2.9,-2.6 5.6,-5.3 8.1,-8.1 l 0,0 c 2.2,-2.4 4.2,-4.9 6,-7.6 0.7,-1.1 1.4,-2.2 2,-3.3 0.6,-1 1.1,-2.1 1.5,-3.1 0.4,-0.9 0.7,-1.9 0.9,-2.9 0.2,-0.8 0.3,-1.6 0.4,-2.5 -0.3,-2.3 -0.5,-3.8 -0.5,-3.8 l 0.2,0.2 z"
         id="path183"
         inkscape:connector-curvature="0" /><path
         class="st21"
         d="m 743.6,614.8 c 0.1,1.4 1.2,2.5 2.6,2.4 0.3,-0.1 0.7,0.2 0.7,0.5 0,0 0,0 0,0 0.1,1.9 1.7,3.3 3.5,3.2 0,0 0,0 0,0 1.9,-0.1 3.9,-1.8 3.2,-3.5 -1.2,-2.9 -0.7,-4.2 -0.3,-6.6 0.2,-1.8 -1.7,-3.3 -3.5,-3.2 -1.8,0.1 -3.3,1.7 -3.2,3.5 0,0 0,0 0,0 0,0.4 0.1,0.7 -0.6,0.9 -1.4,0.2 -2.4,1.4 -2.4,2.8 l 0,0 z"
         id="path185"
         inkscape:connector-curvature="0"
         style="fill:#834317;stroke:#000000;stroke-width:1.66999996" /><circle
         transform="matrix(0.9986,-0.05285883,0.05285883,0.9986,-31.7123,40.1423)"
         class="st22"
         cx="743"
         cy="619.59998"
         id="ellipse187"
         r="2.0999999"
         style="fill:#834317;stroke:#000000;stroke-width:3.3599999" /><circle
         transform="matrix(0.9986,-0.05285883,0.05285883,0.9986,-31.386,39.9948)"
         class="st23"
         cx="740.40002"
         cy="613.40002"
         id="ellipse189"
         r="1.9"
         style="fill:#834317;stroke:#000000;stroke-width:3.77999997" /><circle
         transform="matrix(0.9986,-0.05285883,0.05285883,0.9986,-31.1018,40.1701)"
         class="st24"
         cx="743.90002"
         cy="608.09998"
         id="ellipse191"
         r="2.0999999"
         style="fill:#834317;stroke:#000000;stroke-width:2.63000011" /></g><path
       class="st19"
       d="m 739.9,637.1 c 0,0 4.1,9 4.5,13.7 0.4,4.7 -4.9,12 -5.6,14.8 -0.7,2.8 -7.5,12.9 -7.5,12.9 l 18,-0.2 8.8,-33 -2.1,-9.4 c -1.1,-0.1 -2.3,-0.3 -3.4,-0.6 -2.3,-0.6 -7.5,-0.2 -9,0.6 -1.1,0.6 -2.4,1 -3.7,1.2 l 0,0 z"
       id="path193"
       inkscape:connector-curvature="0"
       style="fill:#a06121" /><path
       d="m 727.4,679.7 c 1.3,0 2.5,0 3.8,0.1 1,0.1 2,0.3 3,0.5 0.3,0.1 0.6,0.1 0.9,0.2 0.5,0 0.9,0 1.4,-0.1 1,-0.2 2.3,-0.5 3.5,-0.8 1.2,-0.3 2.4,-0.7 3.1,-0.9 0,0 -0.9,-0.2 -2.3,-0.4 -1.3,-0.2 -3,-0.3 -4.5,-0.4 -0.8,-0.1 -1.5,-0.2 -2.1,-0.2 -0.4,0 -0.8,0 -1.1,0.1 l -1.9,0.7 c -1.7,0.4 -3.8,1.2 -3.8,1.2 l 0,0 z"
       id="path195"
       inkscape:connector-curvature="0" /><path
       class="st19"
       d="m 723.1,630.5 c 11.6,-1.8 21.9,10.1 21.6,24.3 -0.3,14.8 -11.8,26.9 -21.3,25.1 -6.7,-1.2 -13.5,-2.9 -16,-11.9 -1,-4.6 -1.3,-9.3 -1,-14 1.2,-13.7 7.6,-22.1 16.7,-23.5 l 0,0 z"
       id="path197"
       inkscape:connector-curvature="0"
       style="fill:#a06121" /><path
       d="m 736,673.8 c -0.7,1.1 -1.5,2.1 -2.4,2.9 -0.9,0.8 -1.8,1.4 -2.9,1.8 -1.5,0.6 -3.1,0.8 -4.6,0.8 -2.1,-0.1 -4.1,-0.4 -6.1,-0.9 -1.6,-0.4 -3.1,-1.1 -4.5,-1.9 -0.8,-0.5 -1.6,-1.1 -2.3,-1.7 -0.6,-0.6 -1.1,-1.2 -1.6,-1.8 -0.6,-0.9 -1.2,-1.8 -1.6,-2.8 -0.4,-0.8 -0.7,-1.6 -0.9,-2.5 -0.1,-0.4 -0.2,-0.9 -0.3,-1.3 -0.1,-0.4 -0.2,-0.8 -0.3,-1.4 -0.2,-1 -0.3,-2.2 -0.5,-3.6 -0.3,-2.3 -0.4,-4.7 -0.3,-7 0.1,-1.5 0.3,-3.1 0.5,-4.5 0.2,-1.4 0.6,-2.8 0.9,-4.1 0.3,-1.1 0.7,-2.2 1.1,-3.3 0.4,-0.9 0.7,-1.7 1,-2.2 0.6,-1.1 1.2,-2.1 2,-3 0.7,-0.9 1.6,-1.8 2.5,-2.5 1,-0.9 2.1,-1.6 3.3,-2.2 1.1,-0.5 2.2,-0.9 3.3,-1.2 1.1,-0.2 2.3,-0.3 3.5,-0.3 1.3,0.1 2.5,0.3 3.8,0.7 1,0.3 2,0.8 2.9,1.3 0.9,0.5 1.6,1 2,1.3 0.6,0.4 1.2,0.9 1.7,1.4 0.7,0.7 1.4,1.4 2,2.1 0.8,1 1.6,2.2 2.2,3.3 0.7,1.3 1.3,2.6 1.8,4 0.5,1.4 0.8,2.8 1.1,4.3 0.2,1.3 0.4,2.7 0.4,4 0,0.4 0,0.8 0.1,1.3 0,0.2 0.1,0.1 0.2,-0.2 0.3,-1.2 0.5,-2.5 0.5,-3.8 0,-2.3 -0.2,-4.6 -0.8,-6.9 -0.3,-1.3 -0.8,-2.7 -1.3,-3.9 -0.6,-1.3 -1.2,-2.6 -2,-3.8 l 0,0 c -0.9,-1.3 -1.9,-2.5 -3,-3.5 -1,-1 -2.2,-1.8 -3.4,-2.4 -0.5,-0.3 -1,-0.5 -1.5,-0.7 -4.7,-1.8 -10,-1.3 -14.3,1.3 -2.3,1.5 -4.3,3.4 -5.9,5.6 -1.1,1.6 -2.1,3.3 -3,5 -0.8,1.5 -1.5,3.1 -2.1,4.7 -0.4,1.1 -0.8,2.3 -1.1,3.6 -0.3,1.3 -0.6,2.7 -0.8,4.2 -0.3,2.5 -0.4,5 -0.2,7.5 0.1,1.3 0.2,2.6 0.4,3.8 0.1,1.1 0.3,2.1 0.6,3.1 0.4,1.2 0.8,2.3 1.4,3.4 0.5,0.9 1.1,1.8 1.7,2.6 0.5,0.6 1,1.1 1.6,1.6 1,0.8 2.1,1.5 3.3,2.1 1.7,0.8 3.6,1.4 5.5,1.7 2,0.3 4.1,0.4 6.2,0.3 1.7,-0.1 3.4,-0.5 4.9,-1.2 0.9,-0.4 1.7,-1 2.4,-1.7 0.6,-0.5 1.1,-1.1 1.6,-1.8 0.3,-0.4 0.6,-0.9 0.8,-1.3 0.4,-0.2 0.5,-0.3 0.5,-0.3 l 0,0 z"
       id="path199"
       inkscape:connector-curvature="0" /><path
       class="st25"
       d="m 710.8,674.7 c 1.5,2.1 3.7,2.2 5.7,0.4 3,-2.8 4.7,-9.8 3.7,-15.5 -1,-5.7 -4,-10.1 -7,-7.3 -3,2.8 -4.9,11.6 -3.9,17.3 0.1,1.7 0.6,3.5 1.5,5.1 l 0,0 z"
       id="path201"
       inkscape:connector-curvature="0"
       style="fill:#834317" /><path
       d="m 710.1,674.7 c 0.4,0.6 0.9,1 1.4,1.4 0.5,0.4 1.2,0.6 1.8,0.8 0.7,0.1 1.5,-0.1 2.2,-0.3 0.6,-0.2 1.1,-0.6 1.6,-1 0.6,-0.6 1.2,-1.2 1.6,-1.9 0.4,-0.6 0.8,-1.2 1.1,-1.9 0.5,-1 0.9,-2.1 1.2,-3.2 0.3,-0.9 0.5,-1.8 0.7,-2.8 0.1,-0.7 0.2,-1.4 0.3,-2.1 0,-0.6 0,-1.3 0,-1.9 -0.1,-0.9 -0.2,-1.7 -0.4,-2.5 -0.3,-1.4 -0.7,-2.7 -1.3,-4 -0.3,-0.6 -0.6,-1.2 -1,-1.8 -0.3,-0.5 -0.7,-1 -1.1,-1.4 -0.3,-0.3 -0.6,-0.6 -1,-0.8 -0.3,-0.2 -0.5,-0.3 -0.8,-0.4 -0.3,-0.1 -0.5,-0.2 -0.8,-0.2 -0.5,-0.1 -0.9,0 -1.4,0.1 -0.5,0.2 -1,0.4 -1.5,0.8 -0.5,0.4 -1,0.9 -1.4,1.4 -0.4,0.6 -0.8,1.1 -1.1,1.8 -0.8,1.5 -1.4,3 -1.9,4.6 -0.3,1 -0.5,2 -0.6,3 0,0.7 -0.1,1.8 0,3.1 0,1.4 0.2,2.8 0.5,4.2 0.2,0.7 0.5,1.5 0.8,2.2 0.3,0.7 0.7,1.4 1.1,2 0.1,0.2 0.3,0.4 0.5,0.5 l 0,0 0.1,0 c -0.2,-0.5 -0.4,-1.1 -0.6,-1.6 -0.1,-0.5 -0.2,-1 -0.2,-1.5 0,-0.6 0,-1.2 0.1,-1.8 0,-0.7 0.1,-1.5 0.2,-2.3 0.1,-0.8 0.2,-1.5 0.4,-2.3 0.3,-1.5 0.5,-2.8 0.6,-3.9 0,-0.3 0,-0.6 0.1,-0.8 0.1,-1.5 0.4,-3 0.8,-4.4 0.2,-0.6 0.4,-1.1 0.7,-1.7 0.2,-0.5 0.5,-1 0.9,-1.4 0.3,-0.3 0.6,-0.5 0.9,-0.7 0.3,-0.1 0.6,-0.2 0.9,-0.2 0.3,0 0.5,0.1 0.7,0.2 0.2,0.1 0.4,0.3 0.5,0.4 0.2,0.2 0.3,0.4 0.5,0.6 0.3,0.4 0.5,0.7 0.7,1.2 0.2,0.5 0.4,1 0.6,1.6 0.4,1.3 0.6,2.6 0.7,4 0.2,1.6 0.2,3.1 0,4.7 -0.2,1.4 -0.4,2.7 -0.5,3.5 l 0,0.3 c -0.1,1 -0.3,2 -0.5,3 -0.2,0.6 -0.4,1.2 -0.6,1.8 -0.3,0.6 -0.6,1.2 -1,1.7 l 0,0 c -0.4,0.5 -0.8,0.9 -1.3,1.2 -0.5,0.3 -1.1,0.4 -1.6,0.5 -0.5,0 -1,-0.1 -1.5,-0.3 -0.4,-0.2 -0.7,-0.4 -1,-0.6 -0.2,-0.2 -0.4,-0.3 -0.6,-0.5 l -0.2,-0.2 -0.3,-0.2 z"
       id="path203"
       inkscape:connector-curvature="0" /><path
       class="st21"
       d="m 727.3,640.1 c -1,1.6 -1.6,3.5 -1.9,5.3 -0.6,3.2 -0.3,5.5 1,5.2 1.3,-0.3 3.1,-2.9 3.7,-6.1 0.6,-3.2 -0.1,-5.9 -1.4,-5.6 -0.6,0.3 -1.1,0.7 -1.4,1.2 l 0,0 z"
       id="path205"
       inkscape:connector-curvature="0"
       style="fill:#834317;stroke:#000000;stroke-width:1.66999996" /><path
       class="st21"
       d="m 722.6,635.8 c -0.8,0.4 -1.6,1.9 -2.4,3.7 -1.1,2.7 -1.5,5.3 -0.7,6.1 0.8,0.8 2.4,-0.1 3.6,-2.8 1.2,-2.7 1.4,-6.1 0.6,-6.9 -0.3,-0.3 -0.8,-0.3 -1.1,-0.1 l 0,0 z"
       id="path207"
       inkscape:connector-curvature="0"
       style="fill:#834317;stroke:#000000;stroke-width:1.66999996" /><path
       class="st21"
       d="m 716,636.3 c -0.6,0.4 -1.2,1.7 -1.8,3.2 -0.8,2.4 -0.9,4.7 -0.2,5.4 0.7,0.7 2,-0.1 2.8,-2.4 0.8,-2.3 0.8,-5.4 0,-6.1 -0.2,-0.2 -0.6,-0.2 -0.8,-0.1 l 0,0 z"
       id="path209"
       inkscape:connector-curvature="0"
       style="fill:#834317;stroke:#000000;stroke-width:1.66999996" /><path
       d="m 721.6,632.3 1.5,0.2 c 1.1,0.2 2.1,0.7 3.1,1.3 0.7,0.5 1.4,1.1 1.9,1.8 0.5,0.6 0.9,1.3 1.2,1.9 0.4,0.8 0.6,1.6 0.8,2.5 0.1,0.7 0.2,1.3 0.3,2 0.1,1.2 0.1,2.1 0.1,2.9 0,0.1 0,0.1 0,0.2 0,1.1 0.2,2.8 0.3,4.8 0.1,2 0.2,4 0.2,5.7 0,1.2 0,2.2 0,2.8 -0.1,1.1 -0.3,2.2 -0.6,3.3 -0.4,1.6 -0.9,3.3 -1.5,4.8 -0.5,1.2 -0.9,2.4 -1.3,3.3 -0.4,0.9 -0.8,1.6 -0.9,2.1 -0.4,1.1 -0.9,2.2 -1.6,3.2 -0.7,1 -1.6,1.9 -2.6,2.7 -0.8,0.5 -1.7,0.9 -2.7,1.1 -0.4,0.1 -0.6,0.1 -0.6,0.2 0,0.1 0.2,0.2 0.5,0.3 0.5,0.1 1,0.2 1.5,0.2 0.7,0 1.5,-0.2 2.2,-0.4 0.7,-0.3 1.3,-0.6 2,-1 0.7,-0.4 1.3,-0.9 1.8,-1.5 0.8,-0.8 1.5,-1.7 2.1,-2.7 0.5,-0.8 0.9,-1.7 1.1,-2.6 0.3,-1.4 0.6,-2.7 0.8,-4.1 0.3,-2 0.4,-4 0.6,-5.6 0.2,-1.6 0.2,-3.1 0.4,-4 0.1,-0.4 0.2,-1 0.3,-1.8 l 0,0 c 0.2,-1.3 0.5,-3 0.7,-4.9 0.2,-1.9 0.3,-3.9 0.3,-5.8 0,-1 -0.1,-2.1 -0.2,-3.1 -0.1,-0.8 -0.3,-1.5 -0.6,-2.3 -0.4,-1 -1,-2 -1.6,-2.9 -0.6,-0.8 -1.2,-1.5 -1.9,-2.1 -0.7,-0.6 -1.5,-1.1 -2.4,-1.5 -0.6,-0.3 -1.3,-0.5 -1.9,-0.6 -0.5,-0.1 -1,-0.2 -1.6,-0.2 l -1.7,-0.2 0,0 z"
       id="path211"
       inkscape:connector-curvature="0" /><path
       class="st19"
       d="m 839.7,650.6 c 0,0 7.5,-6.5 12,-1.4 4.5,5.1 -3.2,18.5 -11.1,20.9 -7.9,2.4 -8.1,-0.4 -8.1,-0.4"
       id="path213"
       inkscape:connector-curvature="0"
       style="fill:#a06121" /><path
       class="st19"
       d="m 825.6,564.3 c 14.1,24.5 14.9,64 14.7,79.8 -0.1,11.7 -9.4,33.5 -25.3,38.3 -6.3,1.9 -38.4,18.1 -46.1,14.7 -12,-5.2 0.8,-34 -3.8,-36.6 -15.2,-8.6 -7,-34.7 -4.3,-44.5 3.5,-12.5 31.7,-43.5 59.2,-58"
       id="path215"
       inkscape:connector-curvature="0"
       style="fill:#a06121" /><path
       class="st26"
       d="m 772.6,604.8 c -7,0.3 -10.1,6.1 -13.6,17.7 -3.9,13.2 -3.6,30.2 3.4,34.3 7,4.1 15.6,-1.2 19.5,-14.4 3.9,-13.2 3.8,-33.7 -3.2,-36.7 -1.9,-0.5 -4,-0.8 -6.1,-0.9 l 0,0 z"
       id="path217"
       inkscape:connector-curvature="0"
       style="fill:#956c45;stroke:#000000;stroke-width:2.82999992" /><path
       d="m 762.8,655.7 c -0.4,-0.7 -0.7,-1.4 -1,-2.1 -0.3,-0.7 -0.5,-1.5 -0.7,-2.2 -0.2,-0.9 -0.3,-1.8 -0.2,-2.7 0.1,-0.7 0.1,-1.5 0.1,-2.3 0,-0.8 0,-1.6 0.1,-2.4 0.1,-1.6 0.2,-3.2 0.4,-4.8 0.2,-1.6 0.5,-3.4 0.7,-5.1 0.3,-1.9 0.7,-3.9 1.1,-5.8 0.4,-1.9 0.9,-3.7 1.5,-5.3 0.7,-2.2 1.6,-4.4 2.6,-6.5 0.8,-1.8 1.6,-3.2 2.1,-4 0.7,-1.3 1.5,-2.5 2.4,-3.6 0.4,-0.6 0.9,-1.1 1.4,-1.6 0.6,-0.5 1.2,-1 1.8,-1.5 1.4,-1 2.8,-1.9 4.2,-2.7 1.2,-0.7 2.5,-1.4 3.7,-2.1 0.4,-0.2 0.8,-0.5 1.2,-0.7 0.1,-0.1 0.3,-0.2 0.4,-0.3 0.1,-0.1 0.2,-0.2 0.3,-0.3 l 3.3,-6.8 c 0.7,-2.1 1.8,-4.1 3,-5.9 l 0.3,-0.5 c 0.3,-0.5 0.6,-0.8 0.8,-1.1 l 0.3,-0.4 0.1,-0.1 -0.1,-0.2 0,0 0,-0.1 0,0 0,0.1 0,0 0.1,0.2 0.3,0.1 -0.4,0.4 c -0.4,0.5 -0.9,1 -1.2,1.5 -0.6,0.8 -1.1,1.6 -1.6,2.5 -0.6,1.1 -1.2,2.2 -1.6,3.4 -1.1,2 -2.3,4.3 -3.5,6.7 l 0,0 c 0,0 0,0 -0.1,0.1 l 0,0 c -0.1,0.1 -0.2,0.2 -0.3,0.2 l 0,0 c -0.4,0.2 -0.8,0.5 -1.2,0.7 -1.2,0.7 -2.5,1.3 -3.8,2 -1.5,0.8 -3,1.7 -4.3,2.7 -1.3,0.9 -2.5,2 -3.5,3.2 -2.2,2.9 -4,6.1 -5.4,9.4 -0.7,1.6 -1.3,3.3 -1.8,5 -1.1,3.7 -1.9,7.5 -2.4,11.3 -0.5,3.3 -0.8,6.7 -1,10 -0.1,1.6 0,3.2 -0.1,4.6 -0.1,0.9 0,1.8 0.2,2.7 0.2,0.8 0.4,1.6 0.8,2.4 0.4,0.9 0.8,1.7 1.3,2.5 0.5,0.8 0.9,1.4 1.3,2 l 0.2,0.2 c 1.2,1.5 2.6,2.9 4,4.2 0.1,0 -1.1,-1.5 -3.9,-4.6 -0.8,-0.8 -1.3,-1.6 -1.9,-2.4 l 0,0 z"
       id="path219"
       inkscape:connector-curvature="0" /><path
       d="m 786.2,601.2 c -0.6,0 -1.1,-0.1 -1.7,-0.2 -0.8,-0.1 -1.5,-0.2 -1.9,-0.3 l -0.2,0 c -0.4,0 -0.9,0 -1.3,0 -0.5,0 -1,-0.1 -1.5,-0.3 -0.2,-0.1 -0.2,0 -0.1,0.1 0.2,0.2 0.4,0.4 0.7,0.5 0.4,0.2 0.8,0.4 1.2,0.5 0.4,0.1 0.8,0.2 1.3,0.2 l 0.4,0 c 0.7,-0.1 1.4,-0.2 2.1,-0.2 0.5,-0.1 1,-0.1 1.5,0 0.3,0 0.5,0 0.5,-0.1 0,-0.1 -0.5,-0.2 -1,-0.2 l 0,0 z"
       id="path221"
       inkscape:connector-curvature="0" /><path
       d="m 787.5,598 c -0.4,0 -0.8,-0.1 -1.2,-0.3 -0.4,-0.1 -0.8,-0.2 -1.2,-0.3 l 0,0 c -0.6,0 -1.2,-0.1 -1.9,-0.2 -0.3,0 -0.1,0.2 0.3,0.5 0.4,0.3 0.9,0.6 1.4,0.7 0.1,0 0.3,0 0.4,0 l 1.3,-0.1 c 0.3,0 0.7,0 1,0 0.2,0 0.3,-0.1 0.3,-0.2 0,-0.1 0,-0.2 -0.4,-0.1 l 0,0 z"
       id="path223"
       inkscape:connector-curvature="0" /><path
       d="m 824.8,564.8 c 1.9,3.4 3.7,6.8 5.2,10.4 1.4,3.3 2.5,6.4 3.4,9.3 l 0,0 c 1.2,4 2.3,8 3.1,12 0.7,3.5 1.2,6.5 1.6,9.1 0.4,2.9 0.7,5.4 0.8,7.5 0.1,2.1 0.3,3.9 0.4,5.6 0.1,1.7 0.3,4.1 0.4,7 0.1,2.4 0.2,5.2 0.2,8 0,2.8 -0.2,5.8 -0.5,8.6 -0.2,2.1 -0.5,4.2 -0.7,6.1 -0.3,1.8 -0.6,3.4 -0.9,4.8 -0.3,1.4 -0.6,2.7 -0.9,3.8 -0.2,0.7 -0.4,1.4 -0.5,1.8 -0.2,0.7 -0.6,1.8 -1.1,3 -0.6,1.5 -1.3,3 -2.2,4.4 -0.8,1.4 -1.7,2.8 -2.7,4.2 -1.1,1.4 -2.3,2.7 -3.6,3.9 l 0,0 c -1.7,1.5 -3.5,2.8 -5.5,3.9 -2.4,1.5 -4.9,2.7 -7.2,3.8 -4.1,1.9 -7.5,3.3 -9.1,4 -1.8,0.8 -4.5,2 -7.8,3.2 -2.4,0.9 -5,1.9 -7.8,2.9 -2.8,1 -5.6,1.9 -8.4,2.7 -2.1,0.7 -4.2,1.3 -6.2,1.8 l -2.1,0.5 c -0.9,0.2 -1.4,0.4 -1.7,0.5 -0.3,0.1 -0.3,0.2 0,0.2 0.5,0 0.9,0 1.4,0 0.7,-0.1 1.6,-0.2 2.7,-0.3 1.8,-0.3 4,-0.7 6.4,-1.2 2.4,-0.5 5.2,-1.2 8.1,-1.9 2.9,-0.7 5.8,-1.6 8.6,-2.5 2.6,-0.8 5.2,-1.8 7.5,-2.7 2.3,-0.9 4.5,-1.9 6.2,-2.8 1.2,-0.6 2.3,-1.2 3.5,-1.8 2.5,-1.3 4.9,-2.8 7.2,-4.4 2,-1.3 3.8,-2.9 5.5,-4.5 2.5,-2.6 4.5,-5.5 6.1,-8.8 l 0,0 c 1.5,-3.1 2.8,-6.3 3.8,-9.5 l 0.3,-1.1 c 0.5,-1.5 1.3,-4.1 2,-7.5 0.4,-1.9 0.8,-3.9 1.1,-6.2 l 0,0 c 0.4,-2.6 0.7,-5.4 0.9,-8.3 0.2,-2.9 0.2,-5.8 0.2,-8.7 l 0,0 c 0,-4 -0.3,-8 -0.6,-11.5 -0.3,-3.5 -0.8,-6.6 -1.2,-8.9 -0.1,-0.6 -0.2,-1.2 -0.3,-1.7 -0.5,-2.2 -1.2,-5.2 -2.2,-8.6 -1,-3.4 -2.2,-7.2 -3.6,-10.8 -1,-2.6 -2,-5.1 -3.1,-7.4 -1.1,-2.3 -2.2,-4.4 -3.1,-6.2 -1,-1.8 -1.8,-3.2 -2.4,-4.2 -0.6,-1 -1.2,-1.5 -1.2,-1.5 l 0,0 z M 757,640.6 c 0,-2.8 0.1,-5.6 0.3,-8.3 0.2,-2.2 0.6,-4.5 1.2,-6.6 l 0,0 c 0.5,-1.8 1.1,-3.6 1.9,-5.3 0.7,-1.5 1.4,-2.9 2,-4.1 0.6,-1.2 1.1,-2 1.7,-2.9 0.6,-0.9 1,-1.6 1.5,-2.3 0.6,-0.9 1.1,-1.6 1.6,-2.3 0.7,-1 1.7,-2.5 3,-4.3 1,-1.4 2.1,-3 3.2,-4.5 1.1,-1.5 2.3,-3.2 3.5,-4.6 2.3,-2.9 4.3,-5.4 5.2,-6.5 0.2,-0.2 0.4,-0.4 0.6,-0.7 0.8,-0.8 2,-2 3.4,-3.4 1.4,-1.4 3.2,-2.9 4.9,-4.4 1.7,-1.5 3.6,-3 5.3,-4.3 1.7,-1.3 3.2,-2.5 4.4,-3.4 0.7,-0.5 1.3,-1 1.6,-1.3 1.5,-1.3 4.3,-3.5 7.5,-5.7 1.6,-1.1 3.3,-2.2 5,-3.2 1.7,-1 3.3,-1.9 4.8,-2.7 0.7,-0.4 1,-0.6 1,-0.7 0,-0.1 -0.3,-0.1 -0.8,0 -1.9,0.5 -3.8,1.1 -5.6,1.9 -2.8,1.2 -5.5,2.5 -8.1,4.1 -2.6,1.5 -5,3.1 -7.3,5 -0.5,0.4 -0.9,0.8 -1.3,1.1 -2.9,2.7 -5.9,5.7 -8.6,8.6 -2.7,2.9 -5.1,5.6 -6.9,7.6 -0.7,0.8 -1.4,1.5 -1.9,2.1 -0.9,0.9 -2.8,2.8 -4.9,5.1 -2.1,2.3 -4.7,5.3 -7.1,8.3 -1.8,2.3 -3.5,4.6 -4.8,6.7 l 0,0 c -0.7,1.1 -1.3,2.1 -1.8,3.1 -0.4,0.8 -0.8,1.6 -1.2,2.5 l 0,0.1 c -0.4,1.1 -1,2.6 -1.5,4.3 -0.6,1.9 -1.1,3.8 -1.4,5.8 -0.3,1.8 -0.5,3.7 -0.5,5.5 -0.1,1.8 0,3.5 0,4.9 0,1.4 0.1,2.7 0.2,3.5 0.1,0.8 -0.1,1.2 -0.1,1.3 l 0,0 z"
       id="path225"
       inkscape:connector-curvature="0" /><g
       id="g4320"><path
         class="st19"
         d="m 828.3,572.4 c -2,-0.4 -3,0.6 -4.6,1.5 -1.6,0.9 -2.4,3.6 -3,4.1 l -0.3,0.1 c -2.4,5.8 -6.1,11 -10.9,15.1 -12.5,11 -25.1,11.3 -30.4,29.4 -1,3.4 4.8,12.3 9.8,15.9 6.3,4.5 16.3,0.9 24.1,-6.3 9.9,-9 19.5,-28.4 22.4,-40.1 -0.1,-0.6 0,-1.3 0.1,-1.9 0.4,-1.5 0.5,-3 0.5,-4.6 0,-1.6 0,-5.6 -0.5,-7.1 -0.7,-1.7 -1.6,-3.2 -2.9,-4.5 -1.2,-1 -2.4,-1.2 -4.3,-1.6 l 0,0 z"
         id="path228"
         inkscape:connector-curvature="0"
         style="fill:#a06121" /><path
         class="st20"
         d="m 834.7,576.9 c 0,1.2 -0.1,2.4 -0.2,3.7 -0.2,1.5 -0.4,3.1 -0.7,4.7 -0.3,1.6 -0.7,3.2 -1.1,4.8 -0.4,1.3 -0.9,2.8 -1.5,4.3 -0.6,1.5 -2.2,3.9 -2.9,5.7 -0.7,1.8 -1.5,3.7 -2.4,5.6 -0.9,1.9 -1.8,3.8 -2.8,5.7 -1,1.9 -2,3.7 -3.2,5.5 -1.2,1.8 -2.3,3.5 -3.4,5.2 -1.1,1.7 -2.4,3.2 -3.6,4.6 -1.2,1.4 -2.4,2.7 -3.7,3.9 -1,0.9 -2,1.7 -3,2.5 -1,0.8 -2.1,1.5 -3.2,2.1 -1,0.6 -2.1,1.2 -3.2,1.7 -1,0.5 -2.1,0.9 -3.2,1.2 -1,0.3 -2.1,0.5 -3.1,0.6 -1,0.1 -2,0.1 -3,0.1 -0.5,-0.1 -0.9,-0.2 -1.4,-0.3 l 0.1,0 c 6.3,4.5 16.3,0.9 24.1,-6.3 9.9,-9 19.5,-28.4 22.4,-40.1 -0.1,-0.6 0,-1.3 0.1,-1.9 0.4,-1.5 0.5,-3 0.5,-4.6 0,-1.6 0,-5.6 -0.5,-7.1 -0.4,-0.5 -0.7,-1 -1.1,-1.6 l 0,0 z"
         id="path230"
         inkscape:connector-curvature="0"
         style="fill:#b8854f" /><path
         d="m 833.3,574.5 1.9,3.6 c 0.6,2.3 0.8,4.7 0.5,7.1 -0.2,2.2 -0.6,4.4 -1.2,6.6 -0.5,1.8 -1,3.6 -1.5,5.2 -0.5,1.6 -1.2,3.2 -1.8,4.6 -1.6,3.8 -3.4,7.5 -5.4,11.1 -2,3.7 -4.3,7.2 -6.8,10.5 -1.5,2 -2.9,3.6 -4.2,5 -0.8,0.9 -1.8,2 -3.1,3.2 -1.6,1.5 -3.4,2.9 -5.3,4.2 -2.1,1.4 -4.4,2.5 -6.8,3.3 -1.8,0.6 -3.8,0.9 -5.7,0.8 -1.7,-0.1 -3.4,-0.6 -4.8,-1.6 -1.4,-0.9 -2.6,-2.1 -3.8,-3.3 -1.3,-1.3 -2.4,-2.8 -3.4,-4.3 -0.3,-0.5 -0.6,-0.9 -0.8,-1.2 -0.2,-0.3 -0.5,-0.8 -0.7,-1.3 -0.3,-0.6 -0.5,-1.2 -0.8,-1.8 -0.2,-0.6 -0.3,-1.2 -0.4,-1.8 -0.1,-0.4 0,-0.8 0.1,-1.2 0.6,-1.8 1.3,-3.5 2.1,-5.2 0.9,-1.9 2.1,-3.6 3.4,-5.2 l 0,0 c 1,-1.2 2.2,-2.4 3.4,-3.4 1.2,-1 2.5,-2 3.9,-2.9 l 0,0 c 1.5,-1 3.1,-1.9 4.6,-2.8 1.5,-0.9 2.9,-1.7 4.2,-2.4 1.5,-0.9 2.9,-1.8 4,-2.5 1.1,-0.7 2,-1.4 2.6,-1.9 0.8,-0.7 1.8,-1.5 3,-2.5 0.9,-0.8 1.8,-1.7 2.8,-2.7 1,-1.1 2,-2.2 2.9,-3.3 1.1,-1.4 2.2,-3 3,-4.6 0.7,-1.3 1.2,-2.7 1.8,-3.9 0.7,-1.5 1.5,-2.9 2.4,-4.2 0.7,-1.1 1.7,-2 3,-2.5 0.9,-0.3 1.9,-0.3 2.9,-0.1 0.6,0.1 1.1,0.3 1.6,0.6 0.3,0.1 0.5,0.3 0.7,0.4 0.7,0.5 1,0.6 1.1,0.6 l 0,0 c 0.8,-1 0.8,-1 0,0 l 0,0 c 0,-0.1 -0.2,-0.4 -0.8,-1 -0.3,-0.3 -0.6,-0.5 -1,-0.7 -0.4,-0.3 -0.9,-0.5 -1.4,-0.7 -0.5,-0.2 -1,-0.3 -1.6,-0.4 -0.6,-0.1 -1.3,0 -1.9,0.1 -0.8,0.2 -1.5,0.5 -2.1,1 -0.7,0.5 -1.3,1.1 -1.9,1.8 -1.1,1.3 -2.1,2.8 -2.9,4.3 -0.7,1.3 -1.3,2.5 -2.1,3.8 -0.9,1.4 -1.9,2.8 -3,4 -1.8,1.9 -3.7,3.7 -5.7,5.4 -2.6,2.1 -5.3,4.1 -8.2,6 l -1,0.7 c -2.8,1.8 -5.8,3.7 -8.6,5.8 l 0,0 c -2.8,2 -5.3,4.4 -7.3,7.2 -1.3,1.7 -2.3,3.6 -3.2,5.6 -0.8,1.8 -1.5,3.6 -2,5.5 -0.1,0.5 -0.2,1.1 -0.1,1.7 0.1,0.7 0.3,1.4 0.5,2 0.6,1.6 1.4,3.1 2.3,4.5 0.4,0.6 0.7,1.1 1,1.6 0.7,1.1 1.5,2.1 2.3,3.1 1.1,1.4 2.4,2.6 3.8,3.7 0.8,0.6 1.6,1.1 2.5,1.4 1,0.4 2,0.6 3,0.7 2.2,0.2 4.4,0 6.5,-0.6 2.5,-0.7 4.9,-1.7 7.1,-3 2.2,-1.3 4.3,-2.8 6.3,-4.6 2.9,-2.6 5.5,-5.5 7.7,-8.7 1.9,-2.6 3.5,-5.3 5,-8.1 0.5,-0.9 1,-1.9 1.5,-3 1.8,-3.8 3.4,-7.6 4.8,-11.6 l 0,0 c 1.3,-3.3 2.3,-6.7 3.1,-10.2 0.3,-1.4 0.5,-2.8 0.6,-4.1 0.1,-1.3 0.2,-2.5 0.2,-3.8 0,-1.1 -0.1,-2.2 -0.3,-3.3 -0.1,-0.9 -0.4,-1.8 -0.7,-2.7 l -1.8,-3.6 z"
         id="path232"
         inkscape:connector-curvature="0" /><path
         d="m 785.1,626.4 c 0.1,0.2 0.1,0.4 0,0.5 -0.1,0.2 -0.2,0.4 -0.4,0.6 -0.2,0.2 -0.5,0.4 -0.8,0.6 -0.3,0.2 -0.7,0.3 -1,0.4 -0.8,0.3 -1.7,0.4 -2.6,0.4 l -0.8,0 c -1,0 -2,-0.2 -2.9,-0.6 -0.3,-0.1 -0.6,-0.3 -0.9,-0.6 -0.1,-0.1 -0.2,-0.2 -0.2,-0.3 0,-0.1 0,-0.1 -0.1,-0.2 0,-0.1 0,-0.1 0,-0.2 l 0,0 0,0 0,0 c 0,0 0,-0.1 0,-0.2 l 0,0 c 0,-0.1 0,-0.1 0.1,-0.2 0.1,-0.1 0.2,-0.2 0.3,-0.3 0.3,-0.2 0.6,-0.4 0.9,-0.5 0.9,-0.3 1.8,-0.5 2.8,-0.6 l 0.7,0 c 0.8,0 1.6,0 2.3,0.1 0.3,0 0.6,0.1 0.9,0.2 0.2,0.1 0.5,0.2 0.7,0.3 0.2,0.1 0.4,0.2 0.5,0.3 0.1,0.1 0.3,0.2 0.4,0.4 l 0.1,-0.1 z"
         id="path234"
         inkscape:connector-curvature="0" /><path
         d="m 783.1,620.5 c 0.2,0.3 0.2,0.8 0,1.1 -0.3,0.5 -0.7,0.9 -1.1,1.2 -0.5,0.3 -1.1,0.6 -1.7,0.8 -0.2,0.1 -0.4,0.1 -0.6,0.2 -0.7,0.1 -1.5,0.1 -2.2,-0.1 -0.3,-0.1 -0.5,-0.2 -0.8,-0.4 -0.1,-0.1 -0.2,-0.2 -0.3,-0.3 0,-0.1 -0.1,-0.1 -0.1,-0.2 l 0,-0.2 0,0 0,0 0,0 c 0,0 0,-0.1 0,-0.2 0,-0.1 0,-0.1 0,-0.2 0,-0.1 0,-0.2 0.1,-0.4 0.1,-0.3 0.3,-0.5 0.5,-0.7 0.5,-0.5 1.2,-0.9 1.8,-1.1 l 0.6,-0.2 c 0.5,-0.2 1.1,-0.2 1.7,-0.3 0.5,0 0.9,0 1.4,0.2 0.3,0.1 0.7,0.3 0.9,0.6 l -0.2,0.2 z"
         id="path236"
         inkscape:connector-curvature="0" /><path
         d="m 788.2,634.9 c 0.3,0.5 0.3,1.1 0.1,1.6 -0.3,0.7 -0.9,1.3 -1.5,1.7 -0.5,0.3 -1,0.5 -1.5,0.5 -0.5,0.1 -0.9,0 -1.4,-0.2 -0.2,-0.1 -0.3,-0.2 -0.4,-0.3 -0.1,-0.1 -0.2,-0.3 -0.2,-0.4 l 0,0 0,0 0,0 c 0,-0.1 -0.1,-0.3 -0.1,-0.5 0,-0.2 0,-0.3 0.1,-0.5 0.1,-0.4 0.3,-0.7 0.6,-1 0.3,-0.3 0.7,-0.6 1,-0.9 0.6,-0.4 1.2,-0.6 1.9,-0.6 0.4,0 1,0.2 1.4,0.6 l 0,0 z"
         id="path238"
         inkscape:connector-curvature="0" /></g><g
       id="g4380"><g
         id="g4181"><path
           class="st19"
           d="m 784.3,511.7 c 0,0 -5.3,-2.9 -6.1,-4.1 -0.8,-1.2 -6.4,-10.6 -6.5,-15.7 -0.1,-5.1 0.1,-11.8 3,-16 2.9,-4.2 7.6,-8.4 9.5,-8.9 1.9,-0.5 6.9,2.9 7.8,4.4 0.9,1.5 7.4,11.1 7.8,12 0.4,0.9 -15.5,28.3 -15.5,28.3 z"
           id="path242"
           inkscape:connector-curvature="0"
           style="fill:#a06121" /><path
           class="st27"
           d="m 784.3,467.1 0,0 c -2,0.4 -6.8,4.7 -9.6,8.9 -2.8,4.2 -3.1,11 -3,16 0.1,5 5.8,14.5 6.5,15.7 0.7,1.2 6.1,4 6.1,4 l 1.8,-3.1 c -0.5,-0.3 -0.5,-0.3 -1.1,-0.6 -0.6,-0.3 -1.5,-0.9 -2,-1.3 -0.5,-0.3 -0.9,-0.7 -1.2,-1.1 -0.2,-0.3 -0.7,-1.1 -1.3,-2.3 -0.6,-1.2 -1.4,-2.6 -2.2,-4.1 -0.4,-0.8 -0.8,-1.6 -1.1,-2.4 -0.3,-0.8 -0.7,-1.6 -1,-2.5 -0.3,-0.8 -0.5,-1.5 -0.7,-2.3 -0.2,-0.7 -0.2,-1.4 -0.3,-2.1 0,-1.3 0,-2.6 0,-4 0.1,-1.4 0.2,-2.9 0.4,-4.3 0.1,-0.7 0.2,-1.4 0.4,-2.1 0.2,-0.7 0.3,-1.4 0.5,-2 0.2,-0.6 0.4,-1.3 0.7,-1.9 0.3,-0.6 0.6,-1.1 1,-1.7 0.7,-1.1 1.6,-2.1 2.4,-3.1 0.9,-1 1.8,-1.9 2.7,-2.8 0.3,-0.4 0.6,-0.6 1,-0.9 l 0,0 z"
           id="path244"
           inkscape:connector-curvature="0"
           style="fill:#6e4a25" /><path
           d="m 800.5,484.5 0,0 0,0 -0.1,-0.1 -0.3,-0.5 c -0.3,-0.7 -0.7,-1.3 -1,-2 l 0,0 c -1.2,-2.4 -2.3,-4.4 -3.3,-6.1 -0.9,-1.4 -1.7,-2.7 -2.5,-3.8 -0.8,-1.1 -1.5,-2 -2.2,-2.8 -0.8,-0.9 -1.7,-1.8 -2.6,-2.5 -0.8,-0.7 -1.8,-1.2 -2.8,-1.5 -0.3,-0.1 -0.5,-0.1 -0.8,-0.1 -0.5,0 -0.9,0.1 -1.3,0.2 -0.6,0.2 -1.1,0.5 -1.6,0.8 -0.7,0.4 -1.3,0.9 -1.8,1.5 -0.6,0.6 -1.2,1.3 -1.8,2 -0.6,0.8 -1.2,1.6 -1.8,2.5 -0.6,0.9 -1,1.7 -1.5,2.5 -0.9,1.6 -1.5,3.1 -1.8,3.8 -0.2,0.5 -0.5,1.2 -1,2.2 -0.3,0.8 -0.6,1.6 -0.8,2.4 -0.2,1 -0.4,2 -0.5,3 l 0,0 c -0.1,1 -0.1,2 -0.1,3 0,1 0,2.1 0.1,3.1 l 0,0 c 0.1,1.9 0.4,3.8 0.7,5.6 0.2,0.9 0.3,1.7 0.5,2.4 0.2,0.7 0.3,1.2 0.5,1.6 l 0,0 c 0.6,1.5 1.4,3 2.5,4.2 1,1.1 2.1,2.1 3.3,3 1,0.8 2.1,1.4 3.2,2 0.5,0.3 1,0.5 1.4,0.7 0.2,0.1 0.4,0.2 0.7,0.2 0.1,0 0.1,-0.1 -0.1,-0.3 -0.2,-0.2 -0.4,-0.4 -0.7,-0.6 l -1.1,-1 c -0.8,-0.8 -1.8,-1.7 -2.9,-2.8 -1,-1 -1.9,-2.1 -2.7,-3.3 -0.4,-0.6 -0.7,-1.2 -1.1,-1.8 -0.3,-0.6 -0.5,-1.1 -0.7,-1.8 -0.3,-1 -0.6,-2 -0.8,-2.9 l -0.2,-0.7 c -0.5,-1.7 -0.8,-3.4 -1.1,-5.1 -0.3,-1.8 -0.5,-3.7 -0.5,-5.6 l 0,0 c 0,-0.9 0.1,-1.8 0.2,-2.7 0.1,-0.8 0.3,-1.6 0.6,-2.3 0.4,-1.2 1,-2.3 1.6,-3.5 0.3,-0.6 0.9,-1.6 1.7,-2.8 0.9,-1.3 1.9,-2.5 3,-3.7 1,-1.1 2.1,-2 3.4,-2.7 0.5,-0.2 1,-0.4 1.5,-0.6 0.5,-0.1 0.9,-0.1 1.4,0 l 0,0 c 0.8,0.2 1.6,0.6 2.3,1.1 0.6,0.4 1.2,0.8 1.6,1.1 0.4,0.3 0.6,0.5 0.9,0.8 0.8,0.7 1.6,1.5 2.3,2.3 0.8,0.9 1.7,2 2.6,3.1 1.4,1.9 2.8,4 3.7,5.5 0.5,0.8 0.8,1.4 1.1,1.8 l 0.3,0.5 0,0 0.4,0.7 0,0 0,0 0,0 z"
           id="path246"
           inkscape:connector-curvature="0" /><path
           class="st25"
           d="m 796.8,491.6 c 0,0 -3.8,5.2 -4.6,7.4 -0.8,2.2 -3.5,6 -3.8,6 -0.6,-0.1 -1.2,-0.3 -1.8,-0.5 -1.2,-2 -2.3,-4.1 -3.1,-6.4 -0.8,-2.5 -2.6,-4.6 -1.8,-7.4 0.8,-2.8 1.6,-7.6 3.6,-7.8 2,-0.2 4.8,-0.2 5.9,0.3 1.1,0.5 2,1.3 2.9,2.1 0.5,0.6 3.6,5.2 2.7,6.3 l 0,0 z"
           id="path248"
           inkscape:connector-curvature="0"
           style="fill:#834317" /><path
           class="st28"
           d="m 785.1,482.8 c -1.7,0.7 -2.5,5 -3.3,7.6 -0.8,2.8 1.1,5 1.8,7.4 0.8,2.2 1.9,4.3 3.1,6.4 0.6,0.3 1.2,0.4 1.8,0.5 0.4,-0.4 0.8,-0.8 1,-1.3 -0.3,0 -0.6,-0.1 -0.9,-0.2 -0.4,-0.1 -0.8,-0.3 -0.8,-0.3 0,0 -0.6,-1 -1.3,-2.3 -0.3,-0.6 -0.7,-1.4 -1,-2.1 -0.3,-0.6 -0.6,-1.3 -0.8,-2 -0.2,-0.6 -0.4,-1.2 -0.7,-1.8 -0.3,-0.6 -0.5,-1.2 -0.8,-1.8 -0.1,-0.3 -0.2,-0.6 -0.3,-0.9 -0.1,-0.3 -0.1,-0.6 -0.2,-0.9 -0.1,-0.7 0,-1.4 0.2,-2 0.2,-0.7 0.4,-1.5 0.6,-2.4 0.2,-0.9 0.5,-1.7 0.7,-2.5 0.1,-0.4 0.3,-0.7 0.5,-1.1 0.3,0 0.4,-0.1 0.4,-0.3 l 0,0 z"
           id="path250"
           inkscape:connector-curvature="0"
           style="fill:#5d381e" /><path
           d="m 797,491.4 c -0.7,0.6 -1.3,1.2 -1.9,1.8 -0.6,0.6 -1,1.3 -1.5,1.9 -0.5,0.6 -1,1.4 -1.5,2.1 -0.4,0.6 -0.8,1.2 -1.1,1.9 -0.3,0.6 -0.6,1.2 -1,1.8 -0.3,0.4 -0.6,0.9 -0.9,1.3 -0.3,0.4 -0.6,0.8 -1,1.1 -0.3,0.2 -0.5,0.4 -0.6,0.3 0.1,0 0.2,0 0.3,0 l 0,0 -0.2,-0.2 c -0.3,-0.3 -0.6,-0.6 -0.8,-1 -0.4,-0.5 -0.7,-1 -1.1,-1.7 -0.4,-0.7 -0.8,-1.3 -1.2,-2 -0.5,-0.9 -0.9,-1.7 -1.2,-2.5 -0.3,-0.8 -0.6,-1.5 -0.8,-2.1 -0.1,-0.3 -0.2,-0.5 -0.2,-0.7 -0.1,-0.5 -0.2,-1 -0.2,-1.5 0,-0.6 0,-1.2 0.1,-1.7 l 0,0 c 0.2,-0.9 0.6,-1.8 1.2,-2.7 0.5,-0.8 1,-1.4 1.7,-2 0.5,-0.4 1,-0.7 1.5,-1 0.4,-0.2 0.8,-0.4 1,-0.5 0.3,-0.2 0.7,-0.3 1.1,-0.5 0.3,-0.1 0.5,-0.1 0.8,-0.1 0.3,0 0.7,0.1 1,0.2 0.7,0.3 1.4,0.6 2.1,1 0.7,0.5 1.4,1 2,1.5 0.3,0.2 0.4,0.3 0.5,0.2 l 0,0 c 0.1,-0.2 -0.8,-1.5 -2,-3 -0.6,-0.7 -1.4,-1.3 -2.2,-1.9 -0.7,-0.5 -1.5,-0.8 -2.3,-0.8 -0.6,0 -1.1,0.1 -1.6,0.3 -0.5,0.2 -0.9,0.5 -1.3,0.8 -0.5,0.4 -1,0.9 -1.4,1.5 -0.7,0.9 -1.3,1.9 -1.8,3 -0.5,1.1 -0.8,2.3 -1,3.4 -0.1,0.7 -0.1,1.5 0,2.3 0.1,0.8 0.3,1.6 0.5,2.5 l 0.1,0.3 c 0.1,0.5 0.3,1.2 0.5,2.1 0.2,0.9 0.6,2 1,3 0.6,1.5 1.3,3 2.1,4.5 0.3,0.5 0.6,1 1,1.4 0.1,0.2 0.3,0.3 0.5,0.5 0.2,0.2 0.4,0.2 0.7,0.2 0.5,-0.1 1,-0.4 1.3,-0.8 0.5,-0.5 0.9,-1 1.2,-1.5 0.2,-0.3 0.4,-0.6 0.5,-0.9 0.5,-1 0.9,-2 1.2,-3 0.2,-0.7 0.5,-1.3 0.8,-1.9 0.4,-0.8 0.8,-1.6 1.2,-2.4 0.4,-0.8 0.7,-1.2 1,-1.8 0.3,-0.6 0.7,-1 1,-1.4 0.2,-0.6 0.5,-1 0.9,-1.3 l 0,0 z"
           id="path252"
           inkscape:connector-curvature="0" /><path
           d="m 775.8,480.1 0,0 0,0 -0.1,0 -0.1,0 c -0.1,0 -0.2,0 -0.2,0 -0.2,-0.1 -0.3,-0.2 -0.5,-0.3 -0.4,-0.3 -0.7,-0.7 -1,-1.2 -0.1,-0.2 -0.2,-0.4 -0.3,-0.5 -0.1,-0.1 -0.3,-0.6 -0.5,-0.9 -0.2,-0.3 -0.3,-0.7 -0.5,-1.1 -0.1,-0.2 -0.1,-0.4 -0.2,-0.5 -0.1,-0.2 -0.1,-0.4 -0.1,-0.6 0,-0.2 0,-0.4 0.1,-0.5 0.1,-0.2 0.2,-0.3 0.4,-0.4 0.2,-0.1 0.5,-0.1 0.7,-0.1 0.3,0.1 0.6,0.2 0.8,0.4 0.4,0.3 0.7,0.7 1,1.1 0.2,0.3 0.3,0.6 0.4,0.9 0.3,0.7 0.4,1.5 0.4,2.2 0,0.3 0,0.6 -0.1,0.9 0,0.1 -0.1,0.2 -0.1,0.3 l 0,0 -0.1,0.1 0,0 0,0 0,0.2 z"
           id="path254"
           inkscape:connector-curvature="0" /><path
           d="m 774.3,484 c -0.1,0.4 -0.5,0.7 -0.9,0.7 -0.6,0 -1.2,-0.1 -1.7,-0.4 l -0.5,-0.1 c -0.6,-0.1 -1.1,-0.4 -1.6,-0.7 -0.2,-0.1 -0.3,-0.2 -0.5,-0.4 -0.1,-0.1 -0.2,-0.3 -0.3,-0.4 -0.1,-0.1 -0.2,-0.3 -0.2,-0.4 -0.1,-0.1 -0.1,-0.3 -0.1,-0.4 0,-0.2 0,-0.3 0.1,-0.5 0.1,-0.2 0.2,-0.3 0.3,-0.4 0.1,-0.1 0.3,-0.3 0.5,-0.3 0.2,-0.1 0.4,-0.1 0.6,-0.2 0.6,-0.1 1.3,0 1.9,0.1 l 0.5,0.2 0,0 c 0.6,0.4 1.2,1 1.6,1.6 0.2,0.5 0.4,1.1 0.3,1.6 l 0,0 z"
           id="path256"
           inkscape:connector-curvature="0" /></g><path
         class="st19"
         d="m 766.6,522.3 c 0,0 0.8,-15.2 2.1,-18.6 1.3,-3.4 5.4,-14.4 8.8,-17.6 3.4,-3.2 7.3,-8.4 13.5,-11.6 6.2,-3.2 23.8,-6.2 27.8,-6.2 4,0 12.1,3 14.9,4.3 2.8,1.3 9.4,10.1 12.8,14.5 3.4,4.4 10.5,20.6 11.4,24 0.9,3.4 3.8,17.6 3.2,22.7 -0.6,5.1 -1.7,13.9 -4.7,18.2 -3,4.3 -13.1,13.3 -16.9,14 -3.8,0.7 -32.4,11.8 -40.7,9.1 -8.3,-2.7 -23.4,-17 -24,-20.7 -0.5,-3.7 -8,-27.4 -8.2,-32.1 l 0,0 z"
         id="path258"
         inkscape:connector-curvature="0"
         style="fill:#a06121" /><path
         class="st28"
         d="m 818.8,468.3 c -3.9,0 -21.6,3 -27.8,6.2 -6.2,3.2 -10.1,8.4 -13.5,11.6 -3.4,3.2 -7.5,14.3 -8.8,17.6 -1.3,3.3 -2.1,18.6 -2.1,18.6 0.2,4.7 7.7,28.3 8.3,32.1 0.6,3.8 13.7,17.8 21.9,20.4 1.7,0.5 3.3,0.5 6.8,-0.8 -2.4,0.2 -3.7,0.6 -5.1,0.2 -8.3,-2.6 -21.3,-16.1 -21.8,-19.9 -0.5,-3.8 -8.1,-27.4 -8.3,-32.1 0,0 0.8,-15.2 2.1,-18.6 1.3,-3.4 5.4,-14.4 8.8,-17.6 3.4,-3.2 7.3,-8.4 13.5,-11.6 6,-3.1 22.8,-6 27.3,-6.2 l -1.3,0.1 0,0 z"
         id="path260"
         inkscape:connector-curvature="0"
         style="fill:#5d381e" /><path
         d="m 772.8,517.4 c 0.2,-0.1 0.4,-0.2 0.7,-0.2 0.2,0 0.3,0 0.5,0 0.1,0 0.3,0.1 0.4,0.1 0.1,0 0.2,0.1 0.4,0.1 0.2,0 0.5,0.1 0.7,0.2 0.3,0.1 0.5,0.3 0.8,0.5 0.1,0.1 0.2,0 0.1,-0.1 -0.1,-0.2 -0.1,-0.4 -0.3,-0.6 -0.1,-0.3 -0.3,-0.5 -0.6,-0.7 -0.2,-0.2 -0.5,-0.3 -0.8,-0.4 l -0.2,0 c -0.4,0 -0.8,0.1 -1.2,0.4 -0.3,0.2 -0.6,0.4 -0.8,0.4 -0.2,0.1 -0.2,0.2 -0.2,0.3 0.1,0.1 0.3,0.2 0.5,0 l 0,0 z"
         id="path262"
         inkscape:connector-curvature="0" /><path
         d="m 774,514.6 c 0.1,-0.1 0.3,-0.1 0.4,-0.1 0.1,0 0.3,0 0.4,0.1 0,0 0.1,0 0.1,0 0.1,0 0.2,0 0.3,0 0.2,0 0.3,0.1 0.5,0.1 0.1,0 0.1,0 0.1,-0.1 0,-0.1 -0.1,-0.3 -0.1,-0.4 -0.1,-0.2 -0.2,-0.3 -0.3,-0.4 -0.1,-0.1 -0.3,-0.2 -0.5,-0.1 l 0,0 c -0.2,0.1 -0.5,0.3 -0.7,0.5 -0.2,0.2 -0.3,0.3 -0.4,0.3 -0.1,0 -0.1,0.2 0,0.2 0,-0.1 0.1,0 0.2,-0.1 0,0 0,0 0,0 l 0,0 z"
         id="path264"
         inkscape:connector-curvature="0" /><path
         d="m 774.6,516 c 0.2,-1 0.5,-2.7 1,-4.8 0.5,-2.5 1.2,-5.8 1.9,-9.1 0.4,-2.1 0.9,-4.2 1.3,-6.3 0.3,-1.4 0.9,-2.8 1.7,-4.1 0.9,-1.6 2,-3.2 3.1,-4.7 1.3,-1.7 2.3,-3 3,-3.8 l 0.6,-0.7 c 0.8,-1 1.8,-2.1 3.1,-3.4 0.8,-0.8 1.7,-1.5 2.7,-2.2 1,-0.7 2.1,-1.4 3.3,-2 2.3,-1.3 4.7,-2.5 7.1,-3.5 2,-0.9 4,-1.7 5.7,-2.4 l 0.6,-0.2 c 0.5,-0.2 0.8,-0.4 1,-0.5 0.1,-0.1 0.3,-0.2 0.4,-0.3 0,-0.2 0.1,-0.3 0.1,-0.5 l 0,0 -0.1,-0.1 c -0.1,-0.1 -0.1,-0.1 -0.1,-0.1 l 0.1,0.1 0.1,0.1 0,0 c 0,0.1 0,0.3 -0.1,0.4 l 0,0 c -0.1,0.1 -0.3,0.2 -0.4,0.2 -0.4,0.1 -0.9,0.4 -1.6,0.6 -1.4,0.5 -3.5,1.3 -5.8,2.2 -2.5,1 -4.9,2.1 -7.3,3.3 -2.2,1.1 -4.3,2.5 -6.2,4.2 -1.1,1.1 -2.2,2.2 -3.2,3.4 l 0,0 c -1.3,1.5 -2.5,3 -3.6,4.6 l -0.1,0.1 c -1.1,1.5 -2.1,3.1 -3,4.8 l 0,0 c -0.8,1.3 -1.3,2.8 -1.6,4.3 -0.3,2.1 -0.7,4.3 -1.1,6.3 -0.6,3.3 -1.2,6.4 -1.7,9.1 -0.6,3 -1.1,5.5 -1.5,7.3 l -0.2,0.9 c -0.2,1.1 -0.4,2 -0.5,2.6 0,0.3 -0.1,0.6 -0.1,0.7 0,0.1 0,0.1 0,0.2 0,0 0,0 0,0.1 l 0,0 0,0 c 0,-0.1 0.1,-0.1 0.1,-0.2 0,-0.2 0.1,-0.4 0.2,-0.7 0.2,-0.6 0.3,-1.4 0.6,-2.6 0,-0.8 0.2,-1.9 0.5,-3.3 l 0,0 z"
         id="path266"
         inkscape:connector-curvature="0" /><path
         class="st20"
         d="m 818.7,468.3 -0.6,0 c 2.5,0.1 3.1,1.4 5.7,1.5 5.7,0.2 17.5,12.8 20.4,17.3 2.9,4.5 10.5,20.6 11.4,24 0.9,3.4 3.8,17.6 3.2,22.7 -0.6,5.1 -1.7,13.9 -4.7,18.2 -3,4.3 -13.1,13.3 -16.9,14 -2.9,0.6 -18.7,6.6 -30,6.9 11.1,0.2 29.2,-6.3 32.3,-6.9 3.8,-0.8 13.9,-9.7 16.9,-14 3,-4.3 4.1,-13.1 4.7,-18.2 0.6,-5.1 -2.3,-19.3 -3.2,-22.7 -0.9,-3.4 -8.3,-19.5 -11.4,-24 -3.1,-4.5 -11.4,-17.4 -20.4,-17.3 -3.1,0.1 -3.4,-1.5 -7.4,-1.5 l 0,0 z"
         id="path268"
         inkscape:connector-curvature="0"
         style="fill:#b8854f" /><path
         class="st27"
         d="m 790,514.4 c -1.5,-0.8 -1.8,-4 -2.6,-2.4 -1,2.1 -0.7,4.6 0.8,6.4 1,1 7.2,1.8 7.2,0 0,-1.8 -3.9,-3.1 -5.4,-4 l 0,0 z"
         id="path270"
         inkscape:connector-curvature="0"
         style="fill:#6e4a25" /><path
         d="m 793.4,506 c -3.5,0 -6.2,2.3 -6.2,5.7 0,3.4 1.5,6.8 4.9,7.1 3.8,0.4 6.4,-2.6 6.2,-6.3 -0.1,-3.4 -1.5,-6.5 -4.9,-6.5 z"
         id="path272"
         inkscape:connector-curvature="0" /><path
         class="st29"
         d="m 793.9,508.2 c -0.5,-0.6 -2,0.1 -2.7,0.6 -0.7,0.4 -0.8,1.3 -0.4,2 0.4,0.7 1.3,0.8 2,0.4 0.1,-0.1 0.1,-0.1 0.2,-0.2 0.7,-0.5 1.4,-2.2 0.9,-2.8 l 0,0 z"
         id="path274"
         inkscape:connector-curvature="0"
         style="fill:#ddcebe" /><path
         class="st30"
         d="m 793.4,507 c 0,0 4.2,0.4 5.5,-2.2"
         id="path276"
         inkscape:connector-curvature="0"
         style="fill:none;stroke:#000000;stroke-width:5" /><path
         d="m 856.6,507.6 0,0 0,0 0,0 0.1,0.3 0.2,0.9 c 0.3,1 0.5,1.9 0.7,2.8 0.3,1.1 0.6,2.3 0.8,3.3 0.2,1 0.4,1.9 0.5,2.7 0.3,2 0.5,3.8 0.6,5.5 l 0,0 c 0.2,2.7 0.3,5 0.3,7 0,2.3 -0.1,4.6 -0.3,6.9 -0.1,1.1 -0.3,2 -0.4,2.8 -0.1,0.7 -0.3,1.4 -0.6,2.1 l -0.3,0.8 c -0.4,1.1 -0.9,2.8 -1.6,4.6 -0.7,2 -1.5,4 -2.6,5.9 -0.7,1.2 -1.5,2.4 -2.5,3.5 -0.9,1 -1.8,2 -2.8,2.9 -1,0.8 -1.9,1.5 -2.7,2.1 -0.8,0.6 -1.5,1 -1.9,1.3 -0.2,0.2 -0.5,0.3 -0.9,0.5 -0.7,0.4 -1.5,0.7 -2.3,1.1 -0.9,0.4 -2,0.8 -3.1,1.1 l 0,0 c -2.1,0.7 -4.5,1.3 -6.9,1.9 -2.9,0.7 -5.8,1.3 -8.2,1.8 -2.4,0.5 -4.4,0.9 -5.4,1.2 l -1.9,0.5 c -1.7,0.5 -3.9,1 -6.3,1.6 -2.4,0.6 -4.9,1.2 -7.4,1.7 -1.6,0.4 -3.2,0.7 -4.7,1.1 l -1.1,0.3 -0.4,0.1 c -0.3,0.1 -0.5,0.2 -0.7,0.3 -0.2,0.1 -0.3,0.2 -0.2,0.2 0,0 0.2,0 0.4,0 0.2,0 0.5,0 0.7,-0.1 l 1.6,-0.1 c 1.3,-0.1 2.9,-0.2 4.8,-0.4 4.2,-0.4 9.5,-1 14,-1.8 2,-0.3 3.9,-0.8 5.8,-1.4 3.2,-1 6.5,-2.1 9.6,-3.2 2.4,-0.9 4.7,-1.7 6.8,-2.6 1.8,-0.8 3.6,-1.6 5.4,-2.6 1,-0.6 1.9,-1.1 2.7,-1.5 1.5,-0.8 2.8,-1.8 4.2,-2.8 2.1,-1.6 3.9,-3.5 5.4,-5.7 1.2,-1.8 2.2,-3.7 3,-5.7 0.8,-2 1.5,-4 2.2,-5.8 0.3,-1 0.6,-2 0.8,-3 0.2,-1 0.2,-1.9 0.3,-2.7 0.1,-1.1 0.1,-2.3 0,-3.4 -0.1,-1 -0.2,-2.3 -0.3,-3.7 -0.2,-2.1 -0.5,-4.6 -1,-7.1 -0.3,-1.9 -0.7,-3.7 -1.1,-5.5 -0.2,-1 -0.5,-1.9 -0.8,-2.7 -0.4,-1.2 -0.8,-2.3 -1.1,-3.3 -0.4,-1.1 -0.7,-2.1 -1,-2.7 l -0.3,-0.8 0,-0.2 -0.1,0 0,0 0,0 0,0 z"
         id="path278"
         inkscape:connector-curvature="0" /><path
         d="m 766.8,522.7 c 0,-1.2 0.1,-2.4 0.3,-3.7 0.2,-1.7 0.5,-3.3 0.8,-4.8 l 0,0 c 0.5,-2.5 1.1,-4.6 1.7,-6.5 0.6,-1.9 1.1,-3.6 1.7,-5.1 1,-2.8 2,-4.9 2.8,-6.5 0.8,-1.6 1.5,-3 2.1,-4.1 l 0.5,-0.9 c 0.6,-1.2 1.4,-2.7 2.4,-4.3 1,-1.7 2.3,-3.3 3.6,-4.8 l 0,0 c 1.5,-1.6 3.2,-3 5,-4.3 1.6,-1.1 2.9,-2 3.7,-2.4 1,-0.5 2,-1 3,-1.4 1.6,-0.6 3.3,-1.2 5,-1.6 1.5,-0.4 3.2,-0.8 4.8,-1.1 1.6,-0.3 3.3,-0.5 4.8,-0.7 3,-0.3 5.5,-0.4 6.7,-0.6 l 1.5,-0.1 c 1.8,-0.1 3.7,-0.1 5.5,0.1 2.2,0.2 4.4,0.7 6.5,1.4 1.4,0.4 2.7,1 4,1.4 0.4,0.2 0.9,0.4 1.4,0.5 0.4,0.2 0.8,0.2 1.2,0.3 0.2,0 0.2,-0.1 0,-0.2 -0.2,-0.1 -0.5,-0.3 -0.9,-0.5 -0.4,-0.2 -0.9,-0.6 -1.4,-0.9 -1.2,-0.8 -2.5,-1.5 -3.8,-2.1 -1.9,-0.9 -3.9,-1.7 -6,-2.2 -2.2,-0.5 -4.4,-0.8 -6.6,-0.8 -1.7,0 -3.4,0.1 -5.1,0.4 -2.2,0.4 -4.4,0.9 -6.6,1.5 -2.2,0.6 -4.3,1.3 -6.3,2.1 -2,0.8 -4,1.7 -5.6,2.5 -1.6,0.8 -3,1.5 -4,2 -0.7,0.4 -1.9,1 -3.3,1.8 -1.7,1 -3.3,2.2 -4.7,3.4 -1.5,1.3 -2.8,2.7 -4,4.3 -1.2,1.6 -2.2,3.2 -3.2,4.9 -1.7,2.8 -3,5.9 -4,9 -0.2,0.9 -0.5,1.9 -0.8,3.2 -0.4,1.7 -0.8,3.7 -1.2,5.8 -0.4,2.1 -0.7,4.3 -0.9,6.3 -0.2,1.8 -0.3,3.5 -0.4,5 0,1.1 0,2.1 0,2.7 0,0.6 0.1,1 0.1,1 l -0.3,0 z"
         id="path280"
         inkscape:connector-curvature="0" /><path
         class="st19"
         d="m 825.7,485.7 c 0,0 7.6,-11.3 9.5,-13.1 1.9,-1.8 2.5,-4.4 7.1,-5 4.6,-0.6 12,2.2 13.6,3.3 1.6,1.1 7.9,5.4 9.1,6.9 1.2,1.5 2.1,6.3 2,9.5 -0.1,3.2 -3.2,10.3 -4.4,11.5 -1.2,1.2 -7.9,7.5 -10.1,8.2 -2.2,0.7 -14.1,2.5 -14.1,2.5 l -12.7,-23.8 z"
         id="path282"
         inkscape:connector-curvature="0"
         style="fill:#a06121" /><path
         class="st20"
         d="m 845.7,508.2 c 2.1,-0.3 4.1,-0.7 6.1,-1.3 2.2,-0.8 8.9,-7 10.1,-8.2 1.2,-1.2 4.3,-8.2 4.4,-11.5 0.1,-3.3 -0.8,-8 -2,-9.5 -1.2,-1.5 -7.5,-5.8 -9.1,-6.9 -3.7,-2 -7.8,-3.1 -11.9,-3.4 1.2,0.2 2.3,0.4 3.5,0.8 1.2,0.3 2.4,0.8 3.5,1.2 0.8,0.3 1.5,0.7 2.2,1.1 0.8,0.5 2.8,1.9 4.7,3.3 1,0.7 1.9,1.4 2.7,2 0.6,0.5 1.2,1 1.7,1.6 0.4,0.5 0.6,1.1 0.8,1.7 0.3,0.8 0.5,1.6 0.6,2.4 0.2,0.9 0.3,1.8 0.4,2.8 0.1,0.9 0.1,1.8 0.1,2.7 -0.1,1 -0.3,2 -0.6,3 -0.3,1.2 -0.8,2.4 -1.2,3.5 -0.5,1.2 -1,2.3 -1.4,3.1 -0.3,0.7 -0.7,1.3 -1.2,1.9 -0.6,0.6 -2.6,2.5 -4.7,4.3 -1,0.9 -2.1,1.8 -3.1,2.5 -0.7,0.6 -1.5,1.1 -2.3,1.4 -0.8,0.2 -1.6,0.4 -2.4,0.6 l -3.7,0.7 2.8,0.2 z"
         id="path284"
         inkscape:connector-curvature="0"
         style="fill:#b8854f" /><path
         d="m 826,485.7 c 2,-2.8 3.9,-5.3 5.5,-7.5 1.6,-2.2 3.1,-3.9 4.4,-5.4 0.7,-0.7 1.3,-1.4 1.8,-2 0.3,-0.4 0.7,-0.7 1.2,-1 0.8,-0.4 1.6,-0.8 2.5,-1 0.7,-0.2 1.4,-0.3 2.2,-0.4 0.6,0 1.1,0 1.7,0 0.5,0 1,0.1 1.5,0.2 0.5,0.1 1,0.1 1.6,0.3 1.4,0.3 2.7,0.7 4,1.2 1.5,0.6 3,1.4 4.3,2.4 1.6,1.1 3.2,2 4.5,2.9 0.8,0.5 1.5,1 2.2,1.6 0.5,0.4 0.9,0.8 1.3,1.3 l 0.2,0.3 c 0.4,0.6 0.8,1.2 1,1.9 0.3,1 0.5,2 0.6,3.1 l 0,0 c 0,1.3 -0.1,2.7 -0.3,4 -0.3,1.4 -0.6,2.8 -1.1,4.1 l 0,0 c -0.3,0.9 -0.7,1.7 -1.2,2.4 -0.5,0.8 -1,1.4 -1.4,2 -0.7,0.9 -1.3,1.6 -1.6,2 -0.9,1.2 -1.9,2.3 -2.9,3.4 -0.8,0.8 -1.7,1.6 -2.7,2.3 -1,0.8 -2,1.5 -3.1,2.1 -0.8,0.4 -1.7,0.8 -2.5,1.1 -0.8,0.3 -1.6,0.5 -2.4,0.6 -0.7,0.1 -1,0.1 -1,0.2 0,0.1 0.3,0.2 0.8,0.3 0.8,0.1 1.6,0.2 2.4,0.1 1.2,-0.1 2.4,-0.4 3.5,-0.8 l 0,0 c 1.2,-0.4 2.4,-1 3.5,-1.6 1.2,-0.7 2.3,-1.4 3.4,-2.3 1.1,-0.8 2.1,-1.8 3,-2.8 0.8,-0.9 1.6,-1.8 2.2,-2.8 l 0.3,-0.5 c 1,-1.6 1.7,-3.4 2.1,-5.2 l 0,0 c 0.3,-1.5 0.5,-3 0.6,-4.6 0.1,-1.4 0,-2.9 -0.2,-4.3 -0.2,-1.1 -0.4,-2.1 -0.8,-3.1 -0.3,-0.8 -0.8,-1.6 -1.3,-2.4 -0.4,-0.5 -0.8,-1.1 -1.3,-1.5 -0.2,-0.3 -0.5,-0.6 -0.9,-0.9 -0.4,-0.3 -0.8,-0.8 -1.4,-1.2 -0.6,-0.4 -1.2,-1 -2,-1.5 -0.8,-0.5 -1.5,-1.1 -2.2,-1.8 l 0,0 c -1.3,-1.1 -2.6,-2.1 -4.1,-2.9 -1.5,-0.8 -3.1,-1.5 -4.8,-1.9 l 0,0 c -1,-0.2 -1.9,-0.4 -2.9,-0.5 -0.9,-0.1 -1.8,-0.1 -2.8,0 -0.9,0.1 -1.8,0.3 -2.6,0.6 -0.7,0.2 -1.3,0.5 -1.9,0.9 -0.4,0.2 -0.7,0.5 -1.1,0.7 -0.5,0.4 -1,0.9 -1.4,1.5 l 0,0 c -0.6,0.7 -1.1,1.5 -1.7,2.3 l 0,0 c -1.3,1.9 -2.6,3.9 -3.8,5.9 l -4.7,8 -0.2,0.2 z"
         id="path286"
         inkscape:connector-curvature="0" /><path
         class="st25"
         d="m 829.8,490.7 c 0,0 6,2.5 7.3,4.7 1.3,2.2 5.6,7.5 6.2,7.6 0.9,-0.1 1.8,-0.3 2.7,-0.5 0,0 3.6,-3.9 4.8,-6.4 1.2,-2.5 2.6,-5.2 1.4,-8 -1.2,-2.8 -2.4,-6.7 -4.2,-7.2 -3,-0.6 -6.1,-0.5 -9.1,0.3 -1.6,0.5 -3,1.2 -4.4,2.1 -0.8,0.6 -6.1,7 -4.7,7.4 l 0,0 z"
         id="path288"
         inkscape:connector-curvature="0"
         style="fill:#834317" /><path
         d="m 829.1,490.6 0,0 0.2,0.1 0.7,0.3 c 0.8,0.3 1.6,0.7 2.3,1.1 1.1,0.7 2.2,1.5 3.1,2.5 0.7,0.8 1.3,1.6 1.7,2.6 0.5,1.2 1.3,2.3 2.1,3.3 0.6,0.7 1.3,1.4 2.1,2 0.5,0.4 1.2,0.8 1.8,1 0.3,0.1 0.6,0.2 0.9,0.2 0.5,0.1 1,0.1 1.5,0 0.6,-0.1 1.1,-0.5 1.4,-0.9 0.1,-0.2 0.3,-0.4 0.6,-0.6 0.3,-0.2 0.6,-0.7 1,-1.1 0.9,-1 1.7,-2 2.3,-3.2 l 0,0 c 0.5,-0.7 0.8,-1.5 1.2,-2.3 0.3,-0.6 0.5,-1.3 0.6,-2 0.1,-0.4 0.1,-0.7 0.2,-1.1 0,-0.3 0.1,-0.9 0.2,-1.6 0.1,-0.9 0.1,-1.7 0,-2.6 -0.1,-1.2 -0.5,-2.4 -1,-3.4 -0.6,-1.1 -1.3,-2.1 -2.2,-2.9 -0.7,-0.8 -1.5,-1.4 -2.4,-1.9 -0.6,-0.4 -1.2,-0.6 -1.9,-0.8 -1.7,-0.4 -3.4,-0.4 -5,0.1 -0.9,0.2 -1.7,0.6 -2.5,1 l 0,0 c -0.8,0.4 -1.6,0.9 -2.3,1.5 -0.7,0.6 -1.3,1.2 -1.8,1.9 -0.1,0.2 -0.2,0.4 -0.3,0.6 0,0.1 0,0.2 0,0.2 0.3,-0.1 0.6,-0.3 0.9,-0.5 0.6,-0.4 1.2,-0.8 1.8,-1.1 0.8,-0.4 1.7,-0.7 2.5,-0.9 0.7,-0.2 1.4,-0.3 2.1,-0.4 0.7,-0.1 1.3,0 2,0.1 1.1,0.2 2.2,0.6 3.2,1.1 0.7,0.3 1.3,0.6 1.9,1 0.8,0.6 1.6,1.3 2.3,2.1 0.6,0.7 1.1,1.6 1.3,2.5 0.2,0.9 0.3,1.8 0.3,2.7 0,0.7 -0.2,1.4 -0.4,2 l 0,0 c -0.2,0.5 -0.5,1 -0.8,1.5 -0.4,0.7 -0.9,1.4 -1.5,2.1 l 0,0 c -0.8,0.9 -1.6,1.8 -2.5,2.5 l 0,0 -1.1,0.9 c -0.3,0.2 -0.6,0.5 -0.8,0.8 l 0,0 c -0.1,0 -0.2,0 -0.4,0 -0.6,-0.2 -1.1,-0.4 -1.6,-0.8 -0.8,-0.6 -1.6,-1.2 -2.3,-1.9 -0.6,-0.6 -1.2,-1.2 -1.7,-1.9 -0.8,-1.1 -1.7,-2.1 -2.8,-2.9 -1,-0.7 -2.2,-1.4 -3.4,-1.9 -0.8,-0.3 -1.7,-0.6 -2.5,-0.8 l -0.7,-0.2 0,0 -0.3,0 0,0 0,0 z"
         id="path290"
         inkscape:connector-curvature="0" /><path
         d="m 845,470.4 c -0.5,-0.1 -1,-0.5 -1.1,-1 -0.3,-0.6 -0.4,-1.3 -0.5,-2 0,-0.1 0,-0.2 0,-0.3 0,-0.7 0,-1.4 0.2,-2.1 0.1,-0.3 0.2,-0.6 0.4,-0.8 0.1,-0.2 0.3,-0.4 0.6,-0.5 0.3,-0.1 0.5,-0.1 0.8,0 0.3,0.1 0.6,0.3 0.8,0.6 0.3,0.3 0.5,0.7 0.7,1.1 0.2,0.5 0.3,1 0.3,1.6 0,0.1 0,0.3 0,0.4 l 0,0 c 0,0.8 -0.3,1.7 -0.8,2.3 -0.3,0.5 -0.8,0.8 -1.4,0.7 l 0,0 z"
         id="path292"
         inkscape:connector-curvature="0" /><path
         d="m 850,470.8 c -0.4,-0.2 -0.6,-0.8 -0.6,-1.6 0.1,-0.9 0.3,-1.9 0.6,-2.7 l 0,0 c 0.1,-0.2 0.2,-0.5 0.3,-0.7 0.4,-1 0.9,-2 1.5,-2.8 0.2,-0.3 0.5,-0.6 0.8,-0.8 0.2,-0.2 0.5,-0.3 0.8,-0.3 0.3,0.1 0.5,0.2 0.7,0.5 0.2,0.4 0.3,0.8 0.4,1.2 0.1,0.6 0.1,1.1 0,1.7 -0.1,0.7 -0.3,1.3 -0.5,2 -0.1,0.3 -0.2,0.5 -0.4,0.8 l 0,0 c -0.4,0.9 -1.1,1.7 -1.8,2.4 -0.7,0.3 -1.3,0.5 -1.8,0.3 l 0,0 z"
         id="path294"
         inkscape:connector-curvature="0" /><path
         class="st27"
         d="m 770.7,514.7 c 0.9,-0.8 1.9,-4.4 1.9,-2.6 0,1.8 0.3,4.6 -0.5,5.8 -0.7,1 -5.2,1.2 -5.2,-0.6 0,-1.8 2.8,-1.7 3.8,-2.6 l 0,0 z"
         id="path296"
         inkscape:connector-curvature="0"
         style="fill:#6e4a25" /><path
         d="m 768.4,505.7 c -2.2,0 -3.8,1.6 -3.8,5.1 0,3.4 1.5,7.1 3.8,7.4 2.4,0.4 4.1,-2.6 4,-6.2 -0.1,-3.5 -1.8,-6.3 -4,-6.3 z"
         id="path298"
         inkscape:connector-curvature="0" /><path
         class="st29"
         d="m 766.4,510.7 c 0.4,0.3 1.5,-0.9 2,-1.5 0.5,-0.6 0.5,-1.5 0.1,-1.8 -0.4,-0.3 -1.1,0 -1.6,0.7 -0.5,0.7 -0.9,2.3 -0.5,2.6 l 0,0 z"
         id="path300"
         inkscape:connector-curvature="0"
         style="fill:#ddcebe" /><path
         class="st31"
         d="m 768.3,506.7 c -1.6,0.2 -3.1,-0.7 -3.5,-2.2"
         id="path302"
         inkscape:connector-curvature="0"
         style="fill:none;stroke:#000000;stroke-width:4" /><path
         class="st25"
         d="m 783.6,524.2 c 1.1,2.3 5.1,9.6 6.5,12.5 0.3,0.7 5.7,5.9 6.1,6.6 8.3,16.8 11.3,30.9 -8,39.3 -25.2,0.6 -41.4,-28.5 -38.4,-46.5 0,0 1.5,-6.5 6.3,-9 3.9,-2 10.9,-2.9 26,-3.1"
         id="path304"
         inkscape:connector-curvature="0"
         style="fill:#834317" /><path
         class="st20"
         d="m 793.8,542.3 c 7.9,15.1 8.4,32.9 -8.5,40.1 1.5,0.2 3,0.2 4.4,0.2 18.2,-10.3 12.3,-22.8 6.4,-38.6 l -2.3,-1.7 z"
         id="path306"
         inkscape:connector-curvature="0"
         style="fill:#b8854f" /><path
         class="st28"
         d="m 750.8,545.2 c 1.2,1.9 1.6,1.2 1.8,3.3 0.3,2.2 2.3,10.7 7,15.7 l 0.1,-0.9 -5.2,-15 -3.7,-3.1 z"
         id="path308"
         inkscape:connector-curvature="0"
         style="fill:#5d381e" /><path
         d="m 754.8,530.9 c -4.2,0 -9.7,4.9 -7.5,9 1.5,3 4.4,8.6 7.5,9 3.1,0.4 5.4,-5.7 7.5,-9 2.5,-3.8 -3.3,-9 -7.5,-9 z"
         id="path310"
         inkscape:connector-curvature="0" /><path
         class="st28"
         d="m 751.8,531.2 c -0.7,1.3 -1.3,2.8 -1.7,4.2 -3,17.9 13.2,47.1 38.4,46.5 5,-2.2 8,-5.3 9.6,-9 -2,3.4 -5.2,6.1 -8.9,7.5 -25.2,0.6 -41.4,-28.5 -38.4,-46.5 0.3,-0.9 0.7,-1.8 1,-2.7 l 0,0 z"
         id="path312"
         inkscape:connector-curvature="0"
         style="fill:#5d381e" /><path
         d="m 784,524.3 c 0.9,2.1 1.8,4.1 2.7,6 0.8,1.8 1.8,3.6 2.8,5.4 1.1,1.7 2.3,3.3 3.7,4.8 1.3,1.4 2.4,3.1 3.2,4.8 0.8,1.8 1.6,3.7 2.2,5.6 0.5,1.6 0.9,3.3 1.2,5 0.3,1.9 0.5,3.9 0.5,5.9 0,1.6 -0.1,3.1 -0.4,4.7 -0.3,1.5 -0.7,2.9 -1.3,4.3 -0.5,1.1 -1,2.2 -1.7,3.2 -0.2,0.4 -0.5,0.8 -0.8,1.2 -0.9,1.2 -2,2.3 -3.1,3.2 -1.5,1.1 -3.2,2.1 -4.9,2.8 -1.4,0.1 -2.8,0 -4.2,-0.1 -1.4,-0.1 -2.9,-0.4 -4.3,-0.8 -2.7,-0.7 -5.3,-1.7 -7.8,-3 -1.6,-0.9 -3.2,-1.9 -4.6,-3 -1.3,-1 -2.2,-1.8 -2.9,-2.4 -0.8,-0.7 -1.5,-1.5 -2.2,-2.3 -1,-1.2 -2,-2.4 -2.9,-3.8 -3.2,-4.6 -5.5,-9.7 -6.8,-15.2 -0.3,-1.4 -0.6,-2.8 -0.8,-4.1 -0.2,-1.3 -0.3,-2.6 -0.4,-3.9 -0.1,-2.1 0,-4.2 0.4,-6.3 l 0,0 0,-0.2 c 0.1,-0.2 0.1,-0.5 0.2,-0.7 0.2,-0.7 0.5,-1.2 0.6,-1.7 0.1,-0.2 0.2,-0.4 0.3,-0.6 0.4,-0.9 1,-1.8 1.6,-2.6 0.7,-1 1.6,-1.7 2.7,-2.3 1.3,-0.7 2.7,-1.2 4.1,-1.6 1.5,-0.4 3.1,-0.8 4.7,-1.1 2.6,-0.5 5.3,-0.8 8,-1.1 2.7,-0.3 5.2,-0.3 7.5,-0.4 1.6,0 2.2,-0.1 2,-0.2 -0.9,-0.2 -1.9,-0.4 -2.8,-0.4 -1.6,-0.1 -3.8,-0.3 -6.4,-0.3 -2.9,0 -5.7,0.1 -8.6,0.4 -1.6,0.2 -3.3,0.4 -4.9,0.8 -1.7,0.4 -3.3,0.9 -4.8,1.6 l 0,0 c -1.3,0.6 -2.5,1.5 -3.5,2.6 -0.9,1 -1.7,2.1 -2.3,3.3 -0.5,0.9 -0.8,1.8 -1.2,2.7 -0.1,0.3 -0.2,0.6 -0.3,0.9 l 0,0 -0.1,0.3 0,0 0,0.1 0,0 0,0 c -0.2,1 -0.3,2.1 -0.3,3.1 0,2.1 0.1,4.2 0.5,6.3 0.4,2.1 0.9,4.1 1.5,6.1 0.9,2.9 2.1,5.7 3.6,8.3 2.3,4.3 5.2,8.2 8.6,11.7 1.3,1.3 2.5,2.4 3.5,3.3 1.6,1.4 3.4,2.8 5.2,3.9 2.4,1.5 5,2.7 7.7,3.5 3.2,1 6.5,1.5 9.8,1.5 1.9,-0.6 3.8,-1.5 5.4,-2.6 1.7,-1.1 3.2,-2.5 4.5,-4 l 0,0 c 1.2,-1.5 2.2,-3.2 2.9,-5 0.6,-1.6 1.1,-3.3 1.3,-5 0.3,-2.1 0.4,-4.1 0.2,-6.2 -0.2,-1.7 -0.5,-3.5 -0.9,-5.2 -0.4,-1.8 -1,-3.6 -1.6,-5.3 -0.7,-1.9 -1.6,-3.8 -2.5,-5.6 l 0,0 c -1,-1.8 -2.3,-3.4 -3.7,-4.9 -1.4,-1.4 -2.7,-2.9 -3.9,-4.5 -1,-1.5 -1.8,-2.9 -2.5,-4.3 -0.7,-1.4 -1.3,-2.5 -1.8,-3.5 -1.2,-1.9 -1.9,-3.1 -1.9,-3.1 l 0,0 z"
         id="path314"
         inkscape:connector-curvature="0" /><path
         class="st30"
         d="m 754.7,547.9 c 0,0 -0.3,6.9 5.6,14.2"
         id="path316"
         inkscape:connector-curvature="0"
         style="fill:none;stroke:#000000;stroke-width:5" /><path
         class="st32"
         d="m 762.5,561.3 c -2,0.6 -3.1,2.6 -2.5,4.6 0.5,2.1 2.2,1.7 4.1,1.3 1.9,-0.5 3.3,-0.9 2.8,-2.9 -0.5,-2.1 -2.4,-3.4 -4.4,-3 z"
         id="path318"
         inkscape:connector-curvature="0"
         style="stroke:#000000;stroke-width:5" /><path
         class="st33"
         d="m 768.9,546.8 c -0.7,0 -1.2,0.6 -1.2,1.3 0,0 0,0 0,0 0,0.7 0.2,1 0.9,1 0.7,0 1.3,-0.2 1.3,-1 0,-0.8 -0.3,-1.3 -1,-1.3 l 0,0 z"
         id="path320"
         inkscape:connector-curvature="0"
         style="fill:#956c45;stroke:#000000;stroke-width:3" /><path
         class="st33"
         d="m 776.5,542.9 c -1.2,0 -1.8,1.1 -1.8,2.4 0,1.3 0.5,1.6 1.7,1.6 1.2,0 2.3,-0.4 2.3,-1.7 0,-1.2 -1,-2.2 -2.2,-2.3 0,0 0,0 0,0 l 0,0 z"
         id="path322"
         inkscape:connector-curvature="0"
         style="fill:#956c45;stroke:#000000;stroke-width:3" /><path
         class="st33"
         d="m 774.1,551.4 c -0.9,0 -1.6,0.8 -1.6,1.7 0,0 0,0 0,0 -0.1,0.8 0.5,1.5 1.3,1.5 0.1,0 0.1,0 0.2,0 0.7,0.1 1.4,-0.5 1.4,-1.2 0,-0.1 0,-0.2 0,-0.3 0,-0.9 -0.4,-1.7 -1.3,-1.7 l 0,0 z"
         id="path324"
         inkscape:connector-curvature="0"
         style="fill:#956c45;stroke:#000000;stroke-width:3" /><path
         class="st29"
         d="m 755.9,533.4 c -1.2,0 -2.3,0 -2.3,1.2 0,1.2 1.1,1.1 2.3,1.1 1.2,0 4,2.3 4,1.1 0,-1.2 -2.8,-3.4 -4,-3.4 l 0,0 z"
         id="path326"
         inkscape:connector-curvature="0"
         style="fill:#ddcebe" /></g><g
       id="g4371"><path
         class="st28"
         d="m 763.5,647.3 -0.1,0.1 c -0.2,0.1 -0.5,0.2 -0.8,0.2 l -1.1,0.3 -1.1,0.3 c -0.2,0 -0.4,0.1 -0.7,0.2 -0.2,0.1 -0.4,0.2 -0.6,0.4 l -0.3,0.3 c -0.1,0.1 -0.2,0.2 -0.3,0.3 -0.6,0.3 -1.3,0.7 -1.8,1.1 -0.2,0.1 -0.2,0.1 -0.1,0.2 0.2,0 0.4,0 0.5,-0.1 0.5,-0.1 1.3,-0.3 2,-0.5 0.3,-0.1 0.6,-0.3 0.9,-0.5 l 0.4,-0.3 0,0 c 0.1,-0.1 0.3,-0.2 0.4,-0.2 l 0.9,-0.5 c 0.6,-0.3 1.2,-0.6 1.7,-0.8 0.1,-0.1 0.3,-0.1 0.4,-0.2 0.9,-0.4 0.6,-0.9 -0.3,-0.3 l 0,0 z"
         id="path329"
         inkscape:connector-curvature="0"
         style="fill:#5d381e" /><path
         d="m 763.4,647 -0.1,0.1 c -0.4,0.2 -1.4,0.5 -2.3,0.8 -0.6,0.2 -1.2,0.4 -1.7,0.7 l -0.8,0.5 -1,0.6 c -0.3,0.2 -0.6,0.4 -0.9,0.6 -0.3,0.2 -0.1,0.2 0,0.2 0.2,0 0.4,-0.1 0.6,-0.1 l 1,-0.3 c 0.4,-0.1 0.7,-0.2 1.1,-0.3 0.5,-0.1 1,-0.4 1.5,-0.6 l 0.9,-0.6 c 0.6,-0.4 1.2,-0.8 1.9,-1.1 l 0.4,-0.2 c 0.1,0 0.2,-0.1 0.3,-0.1 0.1,0 0.1,-0.1 0.1,-0.1 0,0 0,0 0,-0.1 0,0 0,-0.1 -0.1,-0.1 l -0.1,0 c -0.1,0 -0.2,0 -0.2,0 -0.3,-0.1 -0.5,0 -0.6,0.1 l 0,0 z"
         id="path331"
         inkscape:connector-curvature="0" /><path
         d="m 763.2,650.8 0,0 c -0.5,-0.4 -0.9,-0.9 -1.3,-1.4 -0.3,-0.4 -0.6,-0.8 -1,-1.2 -0.3,-0.3 -0.6,-0.6 -0.9,-0.9 -0.3,-0.3 -0.6,-0.7 -0.8,-1.1 -0.1,-0.2 -0.2,-0.1 -0.2,0 -0.1,0.3 -0.1,0.6 0,0.8 0.1,0.4 0.2,0.8 0.4,1.1 0.2,0.4 0.4,0.7 0.8,0.9 l 1,0.7 c 0.7,0.5 1.3,0.9 1.7,1.2 0.1,0.1 0.2,0.1 0.2,0.2 0.1,0.1 0.1,0.1 0.2,0.2 0.1,0 0.1,0.1 0.2,0.1 l 0.1,0 c 0,0 0.1,0 0.1,-0.1 0,0 0,0 0,0 0,-0.1 0,-0.1 0,-0.1 -0.2,-0.2 -0.4,-0.3 -0.5,-0.4 l 0,0 z"
         id="path333"
         inkscape:connector-curvature="0" /></g><path
       class="st19"
       d="m 761.7,640.1 c 13.8,-2.2 26.1,12 25.7,28.9 -0.3,17.5 -14,32 -25.4,29.9 -8,-1.5 -16,-3.5 -19,-14.1 -1,-3.6 -1.6,-11.9 -1.2,-16.6 1.5,-16.3 9.1,-26.4 19.9,-28.1 z"
       id="path335"
       inkscape:connector-curvature="0"
       style="fill:#a06121" /><path
       class="st27"
       d="m 778.5,689 c -5.5,10.9 -8.2,9.8 -17.3,9.5 -6.7,-1.2 -13.5,-2.8 -17.3,-9.7 3.7,7.3 10.6,9 17.5,10.3 8.3,-2 11.5,-2.4 17.1,-10.1 l 0,0 z"
       id="path337"
       inkscape:connector-curvature="0"
       style="fill:#6e4a25" /><path
       d="m 777.2,691.8 c -0.8,1.3 -1.8,2.5 -2.9,3.5 -1,0.9 -2.2,1.7 -3.5,2.2 -1.8,0.7 -3.7,1 -5.6,0.9 -2.5,-0.1 -4.9,-0.4 -7.3,-1 -1.9,-0.5 -3.7,-1.3 -5.4,-2.3 -1,-0.6 -1.9,-1.3 -2.7,-2.1 -0.7,-0.7 -1.4,-1.4 -2,-2.2 -0.8,-1.1 -1.5,-2.2 -2,-3.4 -0.4,-1 -0.8,-2 -1.1,-3 -0.2,-0.5 -0.3,-1.1 -0.4,-1.6 -0.1,-0.5 -0.2,-1 -0.3,-1.6 -0.2,-1.2 -0.4,-2.7 -0.6,-4.3 -0.3,-2.8 -0.4,-5.6 -0.3,-8.4 0.1,-1.8 0.4,-3.7 0.7,-5.4 0.3,-1.7 0.7,-3.3 1.2,-4.9 0.4,-1.3 0.9,-2.6 1.4,-3.9 0.5,-1.1 0.9,-2 1.2,-2.6 0.7,-1.3 1.5,-2.5 2.4,-3.6 0.9,-1.1 1.9,-2.1 2.9,-3 1.2,-1.1 2.6,-2 4,-2.7 l 0,0 c 1.3,-0.6 2.6,-1.1 4,-1.4 1.4,-0.3 2.8,-0.4 4.2,-0.4 l 0,0 c 1.5,0.1 3.1,0.3 4.5,0.8 1.2,0.4 2.4,0.9 3.5,1.6 0.8,0.5 1.7,1 2.4,1.6 0.7,0.5 1.4,1.1 2.1,1.7 0.8,0.8 1.6,1.7 2.4,2.6 1,1.3 1.9,2.6 2.7,4 0.8,1.5 1.5,3.1 2.1,4.8 0.6,1.7 1,3.4 1.3,5.1 0.3,1.6 0.5,3.2 0.5,4.8 0,0.5 0,1 0.1,1.5 0,0.2 0.1,0.1 0.2,-0.2 0.3,-1.5 0.5,-3 0.4,-4.5 0,-2.8 -0.4,-5.5 -1,-8.2 -0.4,-1.6 -1,-3.1 -1.6,-4.6 -0.7,-1.5 -1.5,-3 -2.5,-4.4 l 0,0 c -1,-1.5 -2.2,-2.9 -3.5,-4.1 -1.2,-1.1 -2.6,-2.1 -4,-2.9 -0.6,-0.3 -1.2,-0.6 -1.8,-0.8 -2.5,-1 -5.2,-1.4 -7.8,-1.3 l 0,0 c -1.6,0.1 -3.2,0.4 -4.8,0.8 -1.5,0.5 -2.9,1.1 -4.3,1.9 -1.4,0.9 -2.8,1.9 -4,3.1 -1.1,1.1 -2.1,2.2 -3,3.5 -1.4,1.9 -2.6,3.9 -3.6,6 -0.9,1.8 -1.7,3.7 -2.4,5.6 -0.4,1.3 -0.9,2.7 -1.3,4.3 -0.4,1.6 -0.7,3.2 -0.9,5 -0.2,1.5 -0.3,2.9 -0.3,4.4 0,1.5 0,3 0.1,4.5 0.1,1.5 0.2,3.1 0.4,4.5 0.2,1.2 0.4,2.5 0.8,3.7 0.4,1.4 1,2.7 1.7,4 0.6,1.1 1.3,2.2 2.1,3.1 0.6,0.7 1.2,1.3 1.9,1.9 1.2,1 2.4,1.8 3.8,2.5 1,0.5 2,0.9 3,1.2 1.1,0.4 2.3,0.7 3.4,0.9 2.4,0.4 4.9,0.6 7.3,0.5 1,0 2.1,-0.2 3.1,-0.4 1,-0.2 1.9,-0.6 2.8,-1 1.1,-0.5 2.1,-1.2 2.9,-2 0.7,-0.6 1.3,-1.3 1.9,-2.1 0.4,-0.5 0.7,-1 1,-1.6 0.2,-0.4 0.3,-0.6 0.3,-0.6 l 0.2,0 z"
       id="path339"
       inkscape:connector-curvature="0" /><path
       class="st25"
       d="m 747,692.7 c 1.8,2.5 4.4,2.6 6.8,0.4 3.6,-3.3 5.5,-11.7 4.4,-18.4 -1.1,-6.7 -4.7,-12 -8.3,-8.7 -3.6,3.3 -5.9,13.8 -4.7,20.5 0.3,2.4 0.9,4.9 1.8,6.2 l 0,0 z"
       id="path341"
       inkscape:connector-curvature="0"
       style="fill:#834317" /><path
       d="m 746.4,692.6 c 0.4,0.6 1,1.2 1.6,1.6 0.6,0.4 1.3,0.7 2.1,0.9 0.8,0.1 1.7,0 2.5,-0.4 0.7,-0.3 1.3,-0.7 1.8,-1.2 0.6,-0.5 1.1,-1.1 1.6,-1.8 0.4,-0.6 0.8,-1.1 1.1,-1.7 0.4,-0.8 0.8,-1.7 1.2,-2.5 0.3,-0.8 0.5,-1.5 0.7,-2.2 0.3,-1.1 0.6,-2.1 0.8,-3.2 0.2,-0.8 0.3,-1.6 0.3,-2.5 0.1,-0.7 0.1,-1.5 0,-2.2 -0.1,-1 -0.2,-2 -0.5,-3 -0.3,-1.6 -0.8,-3.2 -1.5,-4.7 -0.3,-0.7 -0.7,-1.4 -1.2,-2.1 -0.4,-0.6 -0.8,-1.1 -1.3,-1.6 -0.3,-0.4 -0.7,-0.7 -1.1,-0.9 -0.3,-0.2 -0.6,-0.4 -1,-0.5 -0.3,-0.1 -0.6,-0.2 -0.9,-0.3 -0.5,-0.1 -1.1,0 -1.6,0.1 -0.6,0.2 -1.2,0.5 -1.7,0.9 -0.6,0.5 -1.1,1.1 -1.6,1.7 -0.5,0.7 -0.9,1.3 -1.3,2.1 -0.5,0.9 -0.9,1.8 -1.3,2.8 -0.4,0.9 -0.7,1.8 -0.9,2.7 -0.4,1.1 -0.6,2.3 -0.7,3.5 0,0.9 -0.1,2.2 -0.1,3.7 0,1.7 0.2,3.3 0.5,4.9 0.3,0.9 0.6,1.8 0.9,2.6 0.4,0.8 0.8,1.6 1.3,2.3 0.2,0.2 0.3,0.5 0.5,0.7 l 0,0 c -0.3,-0.6 -0.5,-1.2 -0.7,-1.9 -0.2,-0.6 -0.3,-1.2 -0.3,-1.8 -0.1,-0.7 -0.1,-1.5 0,-2.2 0,-0.9 0.1,-1.8 0.2,-2.7 0.1,-0.9 0.2,-1.8 0.3,-2.7 0.3,-1.8 0.6,-3.4 0.7,-4.7 0,-0.3 0,-0.7 0.1,-1 0.2,-1.8 0.6,-3.6 1.1,-5.3 0.2,-0.7 0.5,-1.4 0.8,-2 0.3,-0.6 0.7,-1.1 1.1,-1.6 0.3,-0.3 0.7,-0.6 1.1,-0.8 0.4,-0.2 0.8,-0.2 1.2,-0.2 0.3,0 0.6,0.1 0.9,0.3 0.2,0.1 0.5,0.3 0.7,0.5 0.2,0.2 0.4,0.5 0.6,0.7 0.3,0.4 0.6,0.9 0.8,1.4 0.3,0.6 0.6,1.2 0.8,1.9 0.2,0.7 0.4,1.5 0.6,2.3 0.2,0.8 0.3,1.7 0.4,2.5 0.2,1.9 0.2,3.8 0,5.6 -0.2,1.7 -0.5,3.2 -0.6,4.3 l 0,0.3 c -0.2,1.4 -0.5,2.8 -0.9,4.2 -0.4,1.3 -1,2.4 -1.8,3.5 -0.4,0.5 -1,1 -1.6,1.3 -0.6,0.3 -1.2,0.5 -1.9,0.5 -0.6,0 -1.2,-0.2 -1.7,-0.4 -0.4,-0.2 -0.8,-0.4 -1.2,-0.7 -0.2,-0.2 -0.5,-0.4 -0.7,-0.6 l -0.2,-0.4 0,0 z"
       id="path343"
       inkscape:connector-curvature="0" /><path
       class="st34"
       d="m 750.8,646.4 c -1,2.1 -1.5,4.3 -1.6,6.5 -0.4,3.9 0.3,6.6 1.8,6 1.5,-0.6 3.3,-3.7 3.7,-7.6 0.4,-3.9 -0.9,-7 -2.3,-6.5 -0.8,0.3 -1.3,0.9 -1.6,1.6 l 0,0 z"
       id="path345"
       inkscape:connector-curvature="0"
       style="fill:#834317;stroke:#000000;stroke-width:1.99000001" /><path
       class="st34"
       d="m 761.3,646.4 c -0.9,0.6 -1.7,2.5 -2.3,4.7 -1,3.3 -1.1,6.5 -0.1,7.3 1,0.8 2.8,-0.5 3.9,-3.8 1.1,-3.3 0.9,-7.4 -0.2,-8.3 -0.4,-0.2 -0.9,-0.2 -1.3,0.1 l 0,0 z"
       id="path347"
       inkscape:connector-curvature="0"
       style="fill:#834317;stroke:#000000;stroke-width:1.99000001" /><path
       class="st34"
       d="m 767,656.3 c -0.8,0.4 -1.5,2 -2.1,3.8 -0.9,2.8 -1.1,5.6 -0.3,6.5 0.8,0.9 2.4,-0.1 3.4,-2.9 1,-2.8 0.9,-6.4 0,-7.3 -0.2,-0.3 -0.6,-0.4 -1,-0.1 z"
       id="path349"
       inkscape:connector-curvature="0"
       style="fill:#834317;stroke:#000000;stroke-width:1.99000001" /><path
       d="m 760,642.1 0.4,0 c 0.4,0 0.8,0.1 1.2,0.2 l 0,0 c 2.4,0.5 4.6,1.8 6.1,3.8 0.6,0.7 1,1.5 1.4,2.3 0.4,1 0.8,2 1,3 0.2,0.8 0.3,1.6 0.4,2.4 0.1,0.7 0.1,1.3 0.1,1.9 0,0.6 0,1.1 0,1.6 0,0.1 0,0.1 0,0.2 0,1.3 0.2,3.4 0.3,5.7 0.1,2.3 0.2,4.8 0.1,6.8 0,1.5 0,2.7 0,3.3 -0.1,1.3 -0.3,2.6 -0.7,3.9 -0.5,2 -1,3.9 -1.7,5.8 -0.5,1.5 -1.1,2.8 -1.5,4 -0.4,1.2 -0.9,2 -1.1,2.5 -0.5,1.3 -1.2,2.6 -2,3.8 -0.8,1.3 -1.9,2.3 -3.1,3.2 -1,0.7 -2.1,1.1 -3.3,1.3 -0.5,0.1 -0.7,0.2 -0.7,0.2 0,0 0.2,0.2 0.6,0.3 0.6,0.1 1.1,0.1 1.7,0.1 0.9,-0.1 1.7,-0.3 2.5,-0.6 0.8,-0.3 1.5,-0.7 2.2,-1.2 0.8,-0.5 1.4,-1.1 2.1,-1.8 0.9,-1 1.7,-2.1 2.4,-3.2 0.6,-1 1,-2 1.3,-3.1 0.4,-1.6 0.8,-3.2 1,-4.8 0.4,-2.3 0.6,-4.7 0.8,-6.7 0.2,-2 0.3,-3.7 0.5,-4.8 0.1,-0.5 0.2,-1.2 0.3,-2.1 0.2,-1.5 0.5,-3.6 0.7,-5.8 0.2,-2.2 0.3,-4.7 0.3,-6.8 0,-1.2 -0.1,-2.5 -0.3,-3.7 -0.1,-0.9 -0.4,-1.8 -0.7,-2.7 -0.5,-1.2 -1.1,-2.4 -1.8,-3.5 -0.6,-0.9 -1.4,-1.8 -2.2,-2.5 -0.8,-0.7 -1.8,-1.4 -2.8,-1.9 -0.7,-0.4 -1.5,-0.6 -2.3,-0.8 -0.6,-0.2 -1.3,-0.3 -1.9,-0.3 -0.4,0 -0.8,0 -1.3,0 l 0,0 -0.1,0 0.1,0 z"
       id="path351"
       inkscape:connector-curvature="0" /><path
       d="m 781.2,649.3 0,0 0,0 0.4,-0.1 0,0 1.1,-0.3 c 1.4,-0.3 2.6,-0.6 3.7,-0.8 1.8,-0.3 3.1,-0.5 4.2,-0.7 0.7,-0.1 1.3,-0.1 1.8,-0.1 0.5,0 0.9,0 1.3,0 l 0.5,0 c 0.5,0 1.4,-0.1 2.5,-0.2 1.1,-0.1 2.4,-0.1 3.8,-0.1 1.3,0 2.6,0.1 3.9,0.3 0.6,0.1 1.2,0.2 1.8,0.4 0.5,0.2 0.9,0.4 1.3,0.7 -0.2,-0.3 -0.4,-0.5 -0.7,-0.7 -0.3,-0.2 -0.6,-0.5 -0.9,-0.7 -0.4,-0.2 -0.8,-0.5 -1.3,-0.7 -1.3,-0.5 -2.6,-0.9 -4,-1.2 -1.2,-0.3 -2.5,-0.4 -3.7,-0.5 -1.1,-0.1 -2.3,-0.1 -3.4,-0.1 -0.7,0 -1.3,0.1 -2,0.2 -0.4,0.1 -0.8,0.2 -1.2,0.3 l -0.2,0.1 c -1,0.4 -2.5,1.1 -4,1.8 -1.3,0.6 -2.5,1.2 -3.5,1.7 l -1.1,0.5 -0.3,0.2 0,0 0,0 0,0 z"
       id="path353"
       inkscape:connector-curvature="0" /><path
       d="m 840.2,651.4 c 1.6,-1 3,-1.9 4.2,-2.6 l 0,0 c 0.6,-0.2 1.2,-0.4 1.9,-0.5 0.5,-0.1 1,-0.1 1.5,0 0.7,0.1 1.3,0.3 1.8,0.7 0.4,0.3 0.7,0.6 1,1 0.1,0.2 0.3,0.4 0.3,0.7 0.1,0.2 0.2,0.4 0.2,0.7 l 0.1,0.3 c 0.1,0.3 0.1,0.7 0.2,1 0,0.4 0.1,0.9 0.1,1.3 0,1.1 -0.2,2.2 -0.5,3.3 -0.3,1 -0.6,1.9 -1,2.9 -0.2,0.4 -0.3,0.7 -0.4,0.9 -0.4,0.7 -0.9,1.4 -1.5,2 -0.8,0.9 -1.8,1.8 -2.8,2.5 -0.8,0.6 -1.7,1.2 -2.7,1.7 -0.8,0.4 -1.4,0.7 -1.7,0.9 -0.3,0.2 -0.6,0.3 -0.9,0.4 l -1.5,0.5 c -0.5,0.2 -1.1,0.4 -1.6,0.5 -0.5,0.1 -1.1,0.2 -1.6,0.3 -0.5,0 -1,-0.1 -1.4,-0.2 -0.1,0 -0.2,-0.1 -0.3,-0.1 l 0,0 c 0,-0.1 -0.1,-0.1 -0.2,-0.1 l 0,0 c -0.1,0 -0.2,0.1 -0.2,0.3 -0.1,0.1 -0.1,0.2 0,0.4 0.1,0.2 0.2,0.3 0.4,0.5 0.4,0.3 0.9,0.6 1.4,0.8 0.6,0.2 1.3,0.4 1.9,0.4 0.7,0.1 1.4,0.1 2.1,0 0.7,-0.1 1.3,-0.2 2,-0.3 1.1,-0.2 2.1,-0.7 2.9,-1.3 1.1,-0.9 2.1,-1.9 3,-3 0.9,-1.1 1.7,-2.4 2.5,-3.6 0.7,-1.1 1.2,-2 1.6,-2.7 l 0.1,-0.2 c 0.5,-0.8 1,-1.6 1.5,-2.4 0.7,-1.3 1.1,-2.6 1.4,-4 0.2,-1.1 0.2,-2.2 0,-3.2 -0.2,-1.1 -0.7,-2 -1.4,-2.9 -0.5,-0.6 -1.2,-1.1 -2,-1.4 -0.9,-0.3 -1.8,-0.5 -2.7,-0.4 -0.7,0.1 -1.4,0.2 -2.1,0.5 -0.7,0.3 -1.3,0.6 -1.9,1 -2,1.8 -3.8,3.5 -3.8,3.5 l 0.1,-0.1 z"
       id="path355"
       inkscape:connector-curvature="0" /><path
       d="m 738.8,637.7 c 1.8,-0.2 3.5,-0.2 5.3,-0.1 1.8,0.1 2.7,0.3 3.5,0.3 0.2,0 0.4,0 0.6,0 0.9,-0.1 1.8,-0.2 2.7,-0.4 0.5,-0.1 1,-0.2 1.4,-0.4 0.5,-0.1 0.9,-0.3 1.3,-0.4 0.5,-0.1 1,-0.2 1.6,-0.2 0.5,0 0.9,0.1 1.3,0.2 -0.2,-0.2 -0.5,-0.4 -0.7,-0.5 -0.7,-0.4 -1.4,-0.6 -2.2,-0.7 -0.5,-0.1 -1,-0.1 -1.4,-0.1 -0.4,0 -1,0 -1.4,-0.1 -0.9,-0.1 -1.8,-0.2 -2.7,-0.2 -1,-0.1 -1.9,-0.1 -2.9,0.1 l -1.1,0.4 c -2.1,0.8 -5.3,2.1 -5.3,2.1 l 0,0 z"
       id="path357"
       inkscape:connector-curvature="0" /></g></svg>
