<?xml version="1.0" encoding="utf-8"?>
<!-- Generator: Adobe Illustrator 20.0.0, SVG Export Plug-In . SVG Version: 6.00 Build 0)  -->
<svg version="1.1"
	 id="svg16054" inkscape:version="0.91 r13725" sodipodi:docname="quiz3.svg" xmlns:cc="http://creativecommons.org/ns#" xmlns:dc="http://purl.org/dc/elements/1.1/" xmlns:inkscape="http://www.inkscape.org/namespaces/inkscape" xmlns:rdf="http://www.w3.org/1999/02/22-rdf-syntax-ns#" xmlns:sodipodi="http://sodipodi.sourceforge.net/DTD/sodipodi-0.dtd" xmlns:svg="http://www.w3.org/2000/svg"
	 xmlns="http://www.w3.org/2000/svg" xmlns:xlink="http://www.w3.org/1999/xlink" x="0px" y="0px" viewBox="0 0 1700.8 949.6"
	 style="enable-background:new 0 0 1700.8 949.6;" xml:space="preserve">
<style type="text/css">
	.st0{fill:#FFFFFF;}
	.st1{fill:#6B3C1F;stroke:#000000;}
	.st2{fill:#6B3C1F;stroke:#000000;stroke-linejoin:round;}
	.st3{fill:url(#SVGID_1_);stroke:#000000;}
	.st4{fill:#8D5027;stroke:#000000;}
	.st5{fill:url(#SVGID_2_);stroke:#000000;}
	.st6{fill:url(#SVGID_3_);stroke:#000000;}
	.st7{fill:#D28C5F;stroke:#000000;}
	.st8{fill:url(#SVGID_4_);stroke:#000000;}
	.st9{fill:url(#SVGID_5_);stroke:#000000;}
	.st10{fill:url(#SVGID_6_);stroke:#000000;}
	.st11{fill:url(#SVGID_7_);stroke:#000000;}
	.st12{fill:url(#SVGID_8_);stroke:#000000;stroke-width:1.02;}
	.st13{fill:url(#SVGID_9_);stroke:#000000;}
	.st14{fill:#855B3E;}
	.st15{fill:none;stroke:#000000;stroke-width:1.02;}
	.st16{fill:#A05B2B;stroke:#000000;stroke-width:1.02;}
	.st17{fill:#6C5353;stroke:#000000;stroke-width:1.02;}
	.st18{fill:#906F6F;stroke:#000000;stroke-width:1.02;}
	.st19{fill:none;stroke:#000000;}
	.st20{fill:#A06121;}
	.st21{fill:#6E4A25;}
	.st22{fill:#956C45;stroke:#000000;stroke-width:3;}
	.st23{fill:#B8854F;}
	.st24{fill:#834317;}
	.st25{fill:#5D381E;}
	.st26{fill:none;stroke:#000000;stroke-width:5;}
	.st27{fill:#DDCEBE;}
	.st28{stroke:#000000;stroke-width:5;}
	.st29{fill:#834317;stroke:#000000;stroke-width:3;}
	.st30{fill:url(#SVGID_10_);}
	.st31{fill:url(#SVGID_11_);}
	.st32{fill:#BEBA10;}
	.st33{fill:#6D1245;}
	.st34{fill:#C83D17;}
	.st35{fill:#F1C700;}
	.st36{fill:#E78700;}
	.st37{opacity:0.33;fill:#D99B17;enable-background:new    ;}
	.st38{fill:url(#SVGID_12_);}
</style>
<defs>
	
	<inkscape:path-effect  effect="spiro" id="path-effect5341" is_visible="true"></inkscape:path-effect>
	<inkscape:path-effect  effect="spiro" id="path-effect17606" is_visible="true"></inkscape:path-effect>
	<inkscape:path-effect  effect="spiro" id="path-effect16830" is_visible="true"></inkscape:path-effect>
	<inkscape:path-effect  effect="spiro" id="path-effect16826" is_visible="true"></inkscape:path-effect>
	<inkscape:path-effect  effect="spiro" id="path-effect16822" is_visible="true"></inkscape:path-effect>
	<inkscape:path-effect  effect="spiro" id="path-effect16818" is_visible="true"></inkscape:path-effect>
	<inkscape:path-effect  effect="spiro" id="path-effect16814" is_visible="true"></inkscape:path-effect>
	<inkscape:path-effect  effect="spiro" id="path-effect16810" is_visible="true"></inkscape:path-effect>
	<inkscape:path-effect  effect="spiro" id="path-effect16806" is_visible="true"></inkscape:path-effect>
	<inkscape:path-effect  effect="spiro" id="path-effect16802" is_visible="true"></inkscape:path-effect>
	<inkscape:path-effect  effect="spiro" id="path-effect16798" is_visible="true"></inkscape:path-effect>
	<inkscape:path-effect  effect="spiro" id="path-effect16794" is_visible="true"></inkscape:path-effect>
	<inkscape:path-effect  effect="spiro" id="path-effect16790" is_visible="true"></inkscape:path-effect>
	<inkscape:path-effect  effect="spiro" id="path-effect16786" is_visible="true"></inkscape:path-effect>
	<inkscape:path-effect  effect="spiro" id="path-effect16782" is_visible="true"></inkscape:path-effect>
	<inkscape:path-effect  effect="spiro" id="path-effect16778" is_visible="true"></inkscape:path-effect>
	<inkscape:path-effect  effect="spiro" id="path-effect16774" is_visible="true"></inkscape:path-effect>
</defs>
<sodipodi:namedview  bordercolor="#666666" borderlayer="true" borderopacity="1.0" fit-margin-bottom="0" fit-margin-left="0" fit-margin-right="0" fit-margin-top="0" id="base" inkscape:current-layer="layer3" inkscape:cx="217.58924" inkscape:cy="334.05534" inkscape:document-units="cm" inkscape:pageopacity="0.0" inkscape:pageshadow="2" inkscape:window-height="1056" inkscape:window-maximized="1" inkscape:window-width="1855" inkscape:window-x="1985" inkscape:window-y="24" inkscape:zoom="0.35" pagecolor="#ffffff" showgrid="false" units="cm">
	</sodipodi:namedview>
<g id="layer2" inkscape:groupmode="layer" inkscape:label="background">
	<rect id="rect4177" y="-3.5" class="st0" width="1716.6" height="953.1"/>
</g>
<g>
	
		<image style="overflow:visible;opacity:0.75;enable-background:new    ;" width="308" height="481" xlink:href="F00496F4.png"  transform="matrix(0.9968 0 0 0.9979 696 220)">
	</image>
	<polygon class="st1" points="922.2,478.1 919.1,483.9 928.9,569.2 936.3,613.6 943.7,649.5 953.7,649.1 953.5,638.4 945.9,573.2 
		936.5,513.4 929.8,478.1 	"/>
	<polygon class="st2" points="796,629.4 807.8,630.3 813.3,565.7 817.7,520.9 818.3,490.6 805.1,490.6 799.4,558.8 796.9,611.2 	"/>
	<g id="g8412">
		
			<linearGradient id="SVGID_1_" gradientUnits="userSpaceOnUse" x1="1305.8522" y1="782.307" x2="1402.0522" y2="751.457" gradientTransform="matrix(1 0 0 1 -601.88 -192.22)">
			<stop  offset="0" style="stop-color:#8D5027"/>
			<stop  offset="1" style="stop-color:#6B3C1F"/>
		</linearGradient>
		<path class="st3" d="M720.1,590.9l88.7-28.9c0.8-1.7,0.9-3.7,0.4-5.5c-1-2.9-4.6-2.9-4.6-2.9L767,563.9l-49.2,18L720.1,590.9z"/>
		<path class="st4" d="M772.5,564.9c0,0,45.7,2.6,68.6,4.6s72.8,9.5,72.8,9.5l-3.5,3.3l0.9,4.2c0,0-45.8-2.5-69-4.5s-70.5-9-70.5-9
			c-0.8-1.2-1.3-2.7-1.4-4.1C770.4,566.8,772.5,564.9,772.5,564.9L772.5,564.9z"/>
		
			<linearGradient id="SVGID_2_" gradientUnits="userSpaceOnUse" x1="1294.1635" y1="789.5859" x2="1365.4835" y2="747.0959" gradientTransform="matrix(1 0 0 1 -427.34 -177.79)">
			<stop  offset="0" style="stop-color:#C28156"/>
			<stop  offset="1" style="stop-color:#6B3C1F"/>
		</linearGradient>
		<path class="st5" d="M891.2,603.7l48.5-30.9c0.8-1.7,0.9-3.7,0.4-5.5c-1-2.9-4.6-2.9-4.6-2.9c-9.2,5.9-12.2,7.8-20,12.5
			s-26.8,15.7-26.8,15.7L891.2,603.7z"/>
	</g>
	
		<linearGradient id="SVGID_3_" gradientUnits="userSpaceOnUse" x1="1299.1405" y1="770.8557" x2="1325.9905" y2="774.0857" gradientTransform="matrix(1 0 0 1 -601.88 -192.22)">
		<stop  offset="0" style="stop-color:#492A16"/>
		<stop  offset="0.49" style="stop-color:#D28C5F"/>
		<stop  offset="1" style="stop-color:#593219"/>
	</linearGradient>
	<polyline class="st6" points="707.2,680.6 697.2,679.5 705.6,578.1 717.3,481.1 730.6,481.7 727.4,545.5 719.8,606.1 711,678.7 	
		"/>
	<g id="g8390">
		<path class="st7" d="M810.2,247.5c0,0,62.1,5,75.3,5.8s80.6-0.4,80.6-0.4l-6,34.6c0,0-67.3,0.6-75.3,0s-75.5-6.2-75.5-6.2
			l-0.6-34.1L810.2,247.5z"/>
		
			<linearGradient id="SVGID_4_" gradientUnits="userSpaceOnUse" x1="1435.7303" y1="560.0276" x2="1447.6504" y2="560.3475" gradientTransform="matrix(1 0 0 1 -601.88 -192.22)">
			<stop  offset="0" style="stop-color:#693B1D"/>
			<stop  offset="0.49" style="stop-color:#D28C5F"/>
			<stop  offset="1" style="stop-color:#563117"/>
		</linearGradient>
		<path class="st8" d="M834.2,451.2c0,0,1.3-76.5,1.3-88.9s3.8-79.4,3.8-79.4l4.9,0.5c0,0-1.2,82.5-1.2,97.3s-2,71.1-2,71.1
			c-1,0.5-2.2,0.8-3.3,0.9C836.4,452.5,835.2,452,834.2,451.2L834.2,451.2z"/>
		
			<linearGradient id="SVGID_5_" gradientUnits="userSpaceOnUse" x1="1459.851" y1="562.1386" x2="1475.5709" y2="563.4286" gradientTransform="matrix(1 0 0 1 -601.88 -192.22)">
			<stop  offset="0" style="stop-color:#492A16"/>
			<stop  offset="0.49" style="stop-color:#D28C5F"/>
			<stop  offset="1" style="stop-color:#5B3319"/>
		</linearGradient>
		<path class="st9" d="M856,453.3c0,0,3.7-63,5.3-77.8s8.8-89.6,8.8-89.6l5,0.5l-0.3,3.5c0,0-4.5,87.2-6.6,111.1s-4.9,53.5-4.9,53.5
			c-1.4,0.4-2.8,0.6-4.3,0.5C858,454.6,857,454,856,453.3L856,453.3z"/>
		
			<linearGradient id="SVGID_6_" gradientUnits="userSpaceOnUse" x1="1487.7596" y1="563.1127" x2="1501.1296" y2="564.7228" gradientTransform="matrix(1 0 0 1 -601.88 -192.22)">
			<stop  offset="0" style="stop-color:#5D351A"/>
			<stop  offset="0.49" style="stop-color:#D28C5F"/>
			<stop  offset="1" style="stop-color:#673A1C"/>
		</linearGradient>
		<path class="st10" d="M882.5,456.6c-2.4-0.5-3-1.5-3-1.5s5.7-55.3,6.9-65.9S900,286.9,900,286.9l4.4,0.2c0,0-8.9,89.7-11.3,112.3
			s-6.6,56.4-6.6,56.4C885.4,456.6,883.9,456.9,882.5,456.6L882.5,456.6z"/>
		
			<linearGradient id="SVGID_7_" gradientUnits="userSpaceOnUse" x1="1515.0898" y1="564.0217" x2="1528.4598" y2="565.9317" gradientTransform="matrix(1 0 0 1 -601.88 -192.22)">
			<stop  offset="0" style="stop-color:#5D351A"/>
			<stop  offset="0.49" style="stop-color:#D28C5F"/>
			<stop  offset="1" style="stop-color:#5D351A"/>
		</linearGradient>
		<path class="st11" d="M906.6,459c-1.1-0.6-2.1-1.3-3.1-2.1c0,0,7.2-53,9.3-64.1s17-106.1,17-106.1l4.3-0.1
			c0,0-12.7,101.7-14.8,119.8s-7.7,52.1-7.7,52.1S908.1,459.7,906.6,459L906.6,459z"/>
		
			<linearGradient id="SVGID_8_" gradientUnits="userSpaceOnUse" x1="1548.146" y1="534.0381" x2="1564.606" y2="537.6982" gradientTransform="matrix(1 0 0 1 -601.88 -192.22)">
			<stop  offset="0" style="stop-color:#563117"/>
			<stop  offset="0.47" style="stop-color:#D28C5F"/>
			<stop  offset="1" style="stop-color:#4F2D17"/>
		</linearGradient>
		<path class="st12" d="M927.4,458.8c0,0,11.8-71.6,12-73s2.7-6.1,2.7-6.1c-0.8-1.4-1.2-2.9-1.1-4.5c0.2-1.4,1.1-2.6,2.3-3.2
			c0,0-2.1-6-0.9-10.5s13.8-55.9,14.3-58.6c0.5-2.7-0.4-6.9-0.2-8.3c0.1-0.8,0.8-1.4,1.6-1.4c0,0-1.4-2-1.2-3.3s2-2.3,2-2.3
			s1.7-12.1,2.7-18.1c1.1-6,4.8-18.4,4.8-18.4s-1.3-1-0.1-4.3s2.4-5.4,2.8-6.3s-0.7-3.4-0.7-3.4s-3.3-13,9.7-10.6
			c13.2,2.5,1.9,13.1,1.4,14.1c-1.9,3.6,1.6,3.7,0.9,9.6c-0.3,2.1-2.6,3.9-2.6,3.9l-1.7,18.3l-4.7,18c0,0,1.3,0.2,1,2.3
			c-0.2,1.1-0.7,2.2-1.5,3c0.1,1.1,0,2.2-0.3,3.3c-0.4,1.4-2.7,1.1-3,2.9s-9.5,62.7-10.1,64.9s-3.9,7.3-3.9,7.3
			c1.2,0.8,1.7,2.3,1.4,3.7c-0.3,1.6-1.1,3.1-2.3,4.2c0,0-1.5,17.6-2.2,21L938,460.5c0,0-3.9,1-5.6,0.7s-5-2.5-5-2.5L927.4,458.8z"
			/>
		
			<linearGradient id="SVGID_9_" gradientUnits="userSpaceOnUse" x1="1396.488" y1="528.7886" x2="1415.8981" y2="529.4387" gradientTransform="matrix(1 0 0 1 -601.88 -192.22)">
			<stop  offset="0" style="stop-color:#4F2D17"/>
			<stop  offset="0.47" style="stop-color:#D28C5F"/>
			<stop  offset="1" style="stop-color:#4D2C16"/>
		</linearGradient>
		<path class="st13" d="M796,451.3c0,0,0.3-71.9,0.3-73.2s1.8-6.7,1.8-6.7s-2.7-1.3-2.2-3.6s3.1-4,3.1-4s-4.5-4.5-4-8.9
			s4.5-54,4.5-56.7c0-2.7-2.2-5.8-2.2-7.1s1.8-4,1.8-4s-2.2-1.9-2.2-3.1s1.9-2.4,1.9-2.4l0.8-35.5c0,0-2.7-0.7-2-4s3.8-6.3,4-7.1
			s-2.5-2-2.5-2s-6.9-13.2,6.5-12.1s4.8,12.3,4.5,13.4c-1.2,3.8,1.6,2.9,1.9,8.6c0.1,2-1.9,4.1-1.9,4.1v35.5c0,0,2.4,0.6,2.4,2.6
			c0,1.2-0.8,2.2-1.9,2.5c0.7,0.9,1.2,2,1.3,3.2c0,1.3-2.2,2-2.2,3.8s1.6,60.3,1.3,62.5s-2.7,7.6-2.7,7.6s2.5,1.6,2.5,4
			c-0.1,1.5-0.9,3-2.2,3.8c0,0,1.8,16.8,1.7,20.1c-0.3,7.4-3.3,58.7-3.3,58.7s-3.5,1.8-5.4,1.9S796,451.3,796,451.3L796,451.3z"/>
		<path class="st14" d="M810,279.9c0,0,66.3,6.4,76.1,6.4s72.9-0.5,72.9-0.5l-0.7,1.6c0,0-66.8,0.9-74.1,0.5s-74.3-6.2-74.3-6.2
			V279.9z"/>
		<path class="st15" d="M969.1,237.9c3.6-0.5,7.2,0.1,10.5,1.6"/>
		<path class="st15" d="M966.3,250.4c0,0,8.3-0.5,12.1,2.8"/>
		<path class="st15" d="M958.1,292.8c0,0,5.4-1.4,12.5,2.2"/>
		<path class="st16" d="M956.8,298.5c0,0,7.3-2,11.8,1.7"/>
		<path class="st17" d="M943.6,371.8c0,0,8.1-0.4,10.9,1.9"/>
		<path class="st18" d="M942.3,379.5c0,0,6.1-0.3,10.7,2.5"/>
		<path class="st19" d="M801.1,234.1c0,0,3.2-1.5,8.5,0.1"/>
		<path class="st19" d="M799.3,245.8c0,0,6.8-2,11,0.4"/>
		<path class="st19" d="M799.1,286.7c0,0,4.2-1.7,11.8,0.4"/>
		<path class="st19" d="M797.9,292.2c0,0,7.7-2.4,12.8,0.2"/>
		<path class="st19" d="M798.9,363.7c0,0,5.8-1.2,8.9,0.5"/>
		<path class="st19" d="M798.1,371.4c0,0,5.9-1.5,10.9,0.3"/>
	</g>
	
		<image style="overflow:visible;opacity:0.75;enable-background:new    ;" width="169" height="219" xlink:href="F00496F5.png"  transform="matrix(0.9941 0 0 0.9954 769.99 510.99)">
	</image>
	<path class="st20" d="M857.3,598.2c10.8,15.5,14.5,30.2,11.4,42.3c-3.9,15.2-20,22.2-36.6,22.7c-18.8,0.5-29.9-11-33.3-18
		c-4.1-8.6-7.6-29.9,10.9-47.3"/>
	<path class="st21" d="M809.4,608.2L809.4,608.2c-17.8,14.4-12.1,31.4-8.1,38.5c3.2,5.8,11.5,16.4,29.4,15.9
		c11.6-0.3,23-3.8,29.7-10.5l-0.2,0.2c-0.7,0.5-1.4,1-2.1,1.4s-1.5,0.9-2.3,1.3s-1.6,0.8-2.4,1.1s-1.7,0.7-2.5,1s-1.8,0.6-2.7,0.8
		s-1.8,0.5-2.8,0.7s-1.9,0.4-2.8,0.6s-1.9,0.3-2.9,0.4s-1.9,0.2-2.9,0.3s-2,0.1-3,0.1s-2.2,0-3.3,0s-2.1-0.1-3.1-0.3s-2-0.3-2.9-0.5
		s-1.9-0.4-2.8-0.6s-1.8-0.5-2.6-0.8s-1.6-0.6-2.4-0.9s-1.5-0.7-2.2-1s-1.4-0.8-2.1-1.1s-1.3-0.8-1.9-1.2s-1.2-0.8-1.7-1.3
		s-1.1-0.9-1.6-1.3s-1-0.9-1.4-1.3s-0.8-0.9-1.2-1.3s-0.7-0.8-1-1.3c-0.6-0.7-1.1-1.5-1.5-2.3c-0.2-0.4-0.5-0.9-0.7-1.5
		s-0.5-1.1-0.7-1.7s-0.4-1.2-0.6-1.9s-0.3-1.3-0.5-2.1s-0.3-1.5-0.4-2.2s-0.2-1.6-0.2-2.4s0-1.7,0-2.5s0.1-1.7,0.2-2.6
		s0.3-1.8,0.5-2.7s0.5-1.8,0.8-2.8s0.7-1.9,1.1-2.8s0.9-1.9,1.4-2.8s1.1-1.9,1.8-2.8s1.4-1.9,2.2-2.8s1.7-1.9,2.6-2.8L809.4,608.2
		L809.4,608.2z"/>
	<path class="st22" d="M834,624c-7.4,1.1-10.8,6.9-12.5,15c-2,9.2,6,18.7,14.3,20.5c8.2,1.9,16.4-3.1,18.3-11.2
		c0.1-0.2,0.1-0.5,0.2-0.8c2-9.2-1.3-22.6-9.2-23.7C844,623.6,835,623.8,834,624L834,624z"/>
	<path d="M845.9,584.4c2.9,3.2,5.6,6.3,7.8,9.3c2.1,2.7,4.1,5.6,5.9,8.6c2.8,4.6,5.1,9.6,6.8,14.7c0.8,2.5,1.4,5,1.8,7.6
		c0.3,2,0.5,4.1,0.5,6.2c0,1.7-0.1,3.3-0.3,5c-0.2,1.3-0.5,2.7-0.8,4c-0.1,0.4-0.2,0.9-0.4,1.3c-0.4,1.3-0.9,2.6-1.5,3.8
		c-0.8,1.6-1.8,3.1-2.9,4.5c-1.1,1.4-2.3,2.6-3.6,3.7c-1.4,1.2-2.9,2.3-4.5,3.3c-1.7,1-3.4,1.9-5.2,2.6c-1.7,0.7-3.5,1.3-5.4,1.8
		l0,0c-2.2,0.6-4.5,1.1-6.8,1.4c-2,0.3-3.8,0.4-5.1,0.5h-1.2c-1.5,0-3-0.1-4.5-0.3c-2.3-0.3-4.5-0.8-6.7-1.5
		c-6.3-2.1-11.9-5.9-16.1-11c-0.8-0.9-1.5-1.9-2.1-2.9c-0.6-0.9-1.2-1.9-1.6-2.9c-0.7-1.5-1.2-3-1.7-4.6c-0.4-1.4-0.7-2.7-0.9-3.8
		c-0.1-0.7-0.2-1.3-0.3-1.8c-0.2-1.4-0.4-2.8-0.5-4.3c-0.1-1.8-0.1-3.7,0.1-5.5c0.2-2.2,0.5-4.4,1.1-6.5c0.6-2.3,1.4-4.5,2.4-6.7
		c1-2.3,2.3-4.4,3.7-6.4c1.3-1.9,2.8-3.6,4.4-5.3l1.3-1.3c0.3-0.3,0.3-0.4,0.3-0.4c-0.7,0.4-1.3,0.9-1.9,1.5
		c-3.6,3.3-6.6,7.2-8.9,11.5l0,0c-1.1,2.1-2,4.2-2.7,6.5c-0.7,2.3-1.2,4.7-1.5,7.1c-0.2,2.1-0.3,4.2-0.2,6.3c0.1,2,0.3,3.9,0.7,5.8
		c0.3,1.7,0.8,3.4,1.3,5.1c0.4,1.3,1,2.5,1.6,3.7c1.1,2.2,2.6,4.2,4.2,6l0,0c4.6,5.1,10.5,8.8,17.1,10.7l0,0c2.3,0.7,4.6,1.1,7,1.3
		c1.9,0.2,3.8,0.3,5.8,0.2c0.8,0,1.6,0,2.2-0.1c1,0,2.4-0.1,4-0.3c2-0.2,4-0.6,5.9-1.1c1.8-0.4,3.6-1,5.4-1.6c2-0.7,3.8-1.6,5.7-2.6
		l0,0c1.6-0.9,3.2-2,4.7-3.2c1.5-1.2,2.9-2.5,4.1-4c1.3-1.5,2.4-3.2,3.3-4.9c0.9-1.7,1.5-3.5,2-5.3c0.8-2.9,1.1-6,1.1-9
		c0-2.2-0.3-4.5-0.7-6.7c-0.2-1-0.5-2.3-0.9-3.6s-0.8-2.8-1.4-4.3c-0.7-1.8-1.5-3.7-2.4-5.6s-1.9-3.8-3-5.7s-2.3-3.7-3.5-5.5
		s-2.5-3.4-3.7-5c-2.5-3.1-4.8-5.7-6.5-7.5S845.9,584.4,845.9,584.4L845.9,584.4z"/>
	<path class="st20" d="M797.1,660.5c-0.4-7.4,0.5-17.1,9.5-17.2c7.2-0.1,14.3,6.4,15.8,14.1"/>
	<path class="st20" d="M883.4,652.3c0,0-3.4-10.1-6.7-13.4c-0.9-0.9-4.4-3.5-7.5-2.8c-8.1,2-12.6,10.9-14.8,17.9
		c-0.3,1-1.7,4.9-0.5,7.6"/>
	<path class="st21" d="M854.9,659.9c-1.3-2.7,1.2-6.3,1.4-7.3c0.4-1.3,1.8-3.5,1.5-5c-1,2-2.7,4.7-3.3,6.7c-0.3,1-1.7,4.9-0.5,7.6
		C864.5,660.6,860.2,658.5,854.9,659.9L854.9,659.9z"/>
	<path d="M797.2,660.7c-0.2-1.9-0.1-3.8,0.1-5.7l0,0c0.1-1.1,0.3-2.1,0.7-3.2c0.2-0.7,0.5-1.5,0.8-2.2l0,0c0.2-0.5,0.5-1,0.8-1.4
		c0.3-0.4,0.5-0.7,0.8-1c0.4-0.5,0.9-1,1.4-1.4c0.7-0.6,1.4-1,2.2-1.3c0.8-0.3,1.7-0.5,2.6-0.6c0.8-0.1,1.6-0.1,2.5,0
		c0.4,0.1,0.7,0.2,1.1,0.3c0.6,0.2,1.1,0.4,1.6,0.7c0.8,0.4,1.6,1,2.4,1.5c0.7,0.6,1.4,1.2,2.1,1.9c0.8,0.8,1.3,1.5,1.7,1.8
		c0.4,0.4,0.8,0.8,1.1,1.2c0.5,0.6,0.9,1.2,1.3,1.8c0.4,0.7,0.8,1.4,1.1,2.1c0.3,0.7,0.5,1.4,0.7,2.1c0.1,0.3,0.1,0.5,0.2,0.5
		s0.1-0.2,0.2-0.4c0.1-1,0-1.9-0.2-2.9c-0.1-0.7-0.3-1.3-0.6-2c-0.3-0.7-0.6-1.4-0.9-2c-0.3-0.6-0.7-1.2-1.2-1.8
		c-0.4-0.5-0.8-0.9-1.3-1.3c-0.3-0.2-0.5-0.4-0.8-0.6c-0.8-0.6-1.7-1.2-2.7-1.7c-0.9-0.5-1.8-0.8-2.7-1.2c-0.7-0.2-1.4-0.4-2.1-0.6
		c-0.6-0.1-1.2-0.2-1.6-0.3c-0.6-0.1-1.2-0.2-1.8-0.3c-0.9-0.1-1.9,0-2.8,0.2c-1.1,0.2-2.2,0.7-3.1,1.3c-0.9,0.6-1.6,1.4-2.3,2.3
		c-0.5,0.7-0.9,1.5-1.2,2.3c-0.1,0.3-0.2,0.5-0.2,0.8c-0.2,0.7-0.3,1.5-0.4,2.3c-0.1,1-0.1,1.9-0.1,2.9c0,1.3,0.2,2.7,0.4,4
		C797.1,659.9,797.3,660.6,797.2,660.7L797.2,660.7z"/>
	<path class="st21" d="M869.9,636.6c-0.4,0-0.8,0-1.2,0.1c-3,0.8-5.7,2.4-7.7,4.7l0.1-0.1c0.4-0.3,0.8-0.7,1.2-1s0.8-0.6,1.2-0.9
		c0.4-0.3,0.9-0.5,1.3-0.7c0.5-0.2,0.9-0.4,1.4-0.6c0.5-0.2,1-0.3,1.5-0.5c0.4-0.1,0.8-0.1,1.2-0.1c0.4,0,0.8,0,1.2,0.1
		c0.4,0.1,0.8,0.2,1.2,0.3c0.4,0.1,0.7,0.3,1.1,0.5c0.6,0.3,1.2,0.7,1.8,1.1c0.4,0.3,0.8,0.6,1.1,0.9c0.5,0.5,0.9,1,1.2,1.5
		c0.4,0.6,0.8,1.3,1.2,2s0.8,1.4,1.1,2.2s0.7,1.5,1,2.3c0.6,1.5,1.2,2.8,1.5,3.8c0.2,0.6,0.3,0.7,0.3,1l1.3-0.4
		c0,0-3.4-10.1-6.7-13.4C875.5,638.8,872.7,636.7,869.9,636.6L869.9,636.6z"/>
	<path d="M883.3,651.5c-0.7-2-1.3-3.7-1.8-5.2l0,0c-0.7-1.7-1.3-3.2-1.9-4.3c-0.3-0.7-0.7-1.4-1.1-2.1c-0.4-0.6-0.7-1.1-1.2-1.6
		c-0.4-0.4-0.7-0.7-1.2-1c-0.5-0.4-1-0.8-1.6-1.1l-0.3-0.2c-0.7-0.4-1.4-0.6-2.2-0.8c-1-0.2-2.1-0.2-3.1,0.1l0,0
		c-1.1,0.3-2.2,0.8-3.2,1.4c-0.8,0.5-1.6,1.1-2.3,1.7c-0.5,0.4-0.8,0.8-1,1s-0.8,0.7-1.3,1.3c-0.7,0.7-1.4,1.4-2,2.2
		c-0.5,0.7-1.1,1.4-1.6,2.2s-1,1.5-1.4,2.2c-0.6,1.1-1.2,2.2-1.6,3.3c-0.2,0.7-0.6,1.9-1,3.2c-0.3,1.3-0.5,2.5-0.6,3.8
		c-0.1,0.8,0,1.7,0.1,2.5c0.1,0.5,0.3,1,0.6,1.4c0.1,0.1,0.2,0.3,0.3,0.4c0.1,0.1,0.1,0.1,0.2,0.2c0.1,0,0.1,0,0-0.2
		c-0.1-0.2-0.2-0.5-0.3-0.7c-0.1-0.4-0.2-0.8-0.2-1.2c0-0.4,0-0.7,0.1-1.1c0.1-0.4,0.2-0.8,0.3-1.2c0.3-1.2,0.7-2.3,1.1-3.4
		c0.4-0.9,0.8-1.7,1.1-2.5s0.6-1.5,0.8-2.1c0.4-1,0.8-2.1,1.3-3.2c0.5-1,1-2,1.6-3c0.6-0.9,1.2-1.8,1.9-2.6c0.5-0.6,1.1-1.1,1.7-1.6
		l0.4-0.3c0.7-0.5,1.4-0.9,2.2-1.2c1-0.5,2.1-0.8,3.2-1l0,0c0.7-0.1,1.4-0.1,2.1,0.1c0.7,0.2,1.4,0.5,2,0.8c0.6,0.3,1.1,0.6,1.7,1
		c0.3,0.2,0.7,0.5,1,0.8c0.3,0.3,0.6,0.6,0.9,0.9s0.5,0.5,0.7,0.9s0.6,0.8,0.9,1.2c0.9,1.3,1.6,2.6,2.4,4L883.3,651.5L883.3,651.5z"
		/>
	<path class="st20" d="M810.7,595.5c0,0-9.2,5.3-14.5,13.3c-4.4,6.7-9.5,20.3-9.4,29.1c0.1,7,3.9,13.8,9,14.8c4.1,0.8,10-1,11.2-2.9
		c6.4-10.7,0.7-16.8,0.4-27.7c-0.3-8.8,1-11.3,2.3-14.9c0.5-1.4,5-9.8,5-9.8"/>
	<path class="st20" d="M858.8,544.8c0,0,5-7.5,6.4-8.8s1.7-2.9,4.8-3.4s8,1.5,9.1,2.2s5.3,3.6,6.1,4.6s1.4,4.2,1.3,6.4
		c-0.4,2.7-1.4,5.4-2.9,7.7c-0.8,0.8-5.3,5-6.7,5.5c-1.5,0.5-9.3,1.7-9.3,1.7L858.8,544.8z"/>
	<path class="st21" d="M809.2,596.3c-2.7,1.8-9,6.2-13,12.4c-4.4,6.7-9.6,20.3-9.4,29.1c0.1,7,3.9,13.8,9,14.8
		c3.9,0.8,9.6-0.8,11-2.7c-0.3,0.1-0.5,0.3-0.8,0.4c-0.5,0.2-1,0.4-1.5,0.5c-0.5,0.2-1.1,0.3-1.7,0.4s-1.1,0.2-1.7,0.2
		c-0.6,0-1.1,0-1.7,0c-0.5,0-1.1-0.1-1.6-0.2c-0.3-0.1-0.6-0.1-0.9-0.3c-0.3-0.1-0.6-0.2-0.9-0.4c-0.6-0.3-1.2-0.7-1.7-1.1
		c-0.6-0.5-1.1-1-1.5-1.5c-0.5-0.6-0.9-1.2-1.3-1.9c-0.4-0.7-0.8-1.4-1.1-2.2c-0.3-0.8-0.6-1.5-0.8-2.3c-0.2-0.8-0.4-1.7-0.5-2.5
		c-0.1-0.9-0.2-1.7-0.2-2.6c0-1.2,0.1-2.4,0.2-3.5c0.1-1.2,0.3-2.5,0.6-3.8s0.6-2.6,1-4s0.8-2.7,1.2-4s1-2.6,1.5-3.9s1-2.5,1.6-3.7
		s1.1-2.3,1.7-3.3s1.1-2,1.7-2.8c0.7-1,1.4-2,2.1-2.9c0.8-0.9,1.5-1.8,2.3-2.6s1.6-1.6,2.4-2.3s1.6-1.3,2.3-1.9
		S808.6,596.8,809.2,596.3L809.2,596.3z"/>
	<path class="st20" d="M796.9,561.7c0,0-1.2,11.2-0.6,13c0.6,1.8,3.3,12,3.7,12.8s7.4,9,9.5,10s9.1,3.7,9.1,3.7s17.2,2.7,22.3,2.1
		s13-1.5,15.3-3.5c1.8-1.6,5.8-3.2,7.8-5c2.7-2.3,5.8-2.9,7.2-4.3s4.5-7.2,5-11.6s0-11.6-1.2-14.3c-1.3-2.9-2.7-5.4-3.5-7
		s-10.3-13.6-11.8-15.9c-1.5-2.3-7.8-7.4-9.7-7.9s-14.3-2.7-17.8-2.3c-3.5,0.4-12,4.3-13.8,5.6s-9.1,8.7-10.1,9.9
		C807.2,548.3,796.9,559.3,796.9,561.7L796.9,561.7z"/>
	<path class="st23" d="M827.1,602.4c5.2,0.6,11,1.2,13.8,0.9c5.2-0.6,13-1.4,15.3-3.5c1.8-1.6,5.8-3.2,7.9-5
		c2.7-2.3,5.8-2.9,7.2-4.3s4.5-7.2,5-11.6s0-11.6-1.2-14.3c-0.8-1.8-1.7-3.4-2.4-4.8c1.4-0.2,2.7-0.5,4.1-0.8
		c1.5-0.5,5.9-4.7,6.7-5.5c1.5-2.3,2.5-4.9,2.9-7.7c0.1-2.2-0.5-5.3-1.3-6.4c-0.8-1-5-3.9-6.1-4.6c-2.5-1.3-5.2-2.1-8-2.3
		c0.8,0.1,1.5,0.3,2.3,0.5c0.8,0.2,1.6,0.5,2.3,0.8c0.5,0.2,1,0.4,1.5,0.7c0.5,0.4,1.9,1.3,3.1,2.2c0.6,0.5,1.3,0.9,1.8,1.4
		c0.4,0.3,0.8,0.7,1.1,1c0.2,0.3,0.4,0.7,0.5,1.1c0.2,0.5,0.3,1.1,0.4,1.6c0.1,0.6,0.2,1.2,0.3,1.8c0.1,0.6,0.1,1.2,0.1,1.8
		c0,0.7-0.2,1.3-0.4,2c-0.2,0.8-0.5,1.6-0.8,2.3c-0.3,0.8-0.7,1.5-1,2.1c-0.2,0.4-0.5,0.9-0.8,1.2c-0.4,0.4-1.7,1.6-3.1,2.8
		c-0.7,0.6-1.4,1.2-2,1.7c-0.5,0.4-1,0.7-1.5,1c-0.5,0.2-1.1,0.3-1.6,0.4c-0.7,0.1-1.6,0.3-2.5,0.5c0.7,1.4,1.5,3,2.4,4.8
		c0.2,0.4,0.3,0.8,0.4,1.2c0.1,0.5,0.2,1,0.3,1.5c0.2,1.2,0.4,2.5,0.5,3.8c0.1,1.3,0.2,2.7,0.2,4.1s0,2.6-0.2,3.7
		c-0.1,0.6-0.1,1.1-0.3,1.7c-0.1,0.6-0.3,1.2-0.5,1.8c-0.4,1.2-0.8,2.3-1.3,3.4c-0.5,1-1,2-1.5,2.9c-0.4,0.6-0.8,1.3-1.3,1.8
		c-0.2,0.2-0.4,0.4-0.6,0.5c-0.2,0.2-0.5,0.3-0.8,0.5c-0.5,0.3-1.1,0.6-1.8,0.9s-1.3,0.7-2,1c-0.7,0.4-1.4,0.9-2.1,1.4
		c-0.6,0.5-1.2,0.9-1.8,1.3c-0.7,0.4-1.5,0.8-2.2,1.2s-1.5,0.8-2.1,1.2c-0.6,0.4-1.2,0.8-1.7,1.2c-0.3,0.3-0.7,0.5-1.1,0.7
		c-0.5,0.2-1,0.4-1.5,0.6c-0.6,0.2-1.2,0.4-1.8,0.5s-1.4,0.3-2.1,0.4c-1.5,0.3-3,0.5-4.5,0.7s-3,0.4-4.3,0.5
		c-0.8,0.1-1.6,0.1-2.5,0.1c-1,0-2.1-0.1-3.2-0.2C831.3,602.8,829.2,602.6,827.1,602.4L827.1,602.4z"/>
	<path class="st21" d="M850.5,563.9c-1-0.6-1.2-2.6-1.7-1.6c-0.6,1.4-0.4,3.1,0.5,4.3c0.7,0.7,4.8,1.2,4.8,0
		C854.1,565.4,851.5,564.5,850.5,563.9z"/>
	<path class="st21" d="M838.4,565.8c0-0.9,0-3,0.1-5.6c0-2.1,0.1-4.6,0.2-6.8c0-0.9,0.1-1.7,0.1-2.5c0-0.3,0-0.6,0.1-0.8
		c0-0.2,0-0.3,0.1-0.5c0.1-0.4,0.1-0.7,0.2-1.1l0,0c0.1-0.7,0.1-1.3,0.1-1.7c0,0,0-0.1,0-0.1c0-1,0-2.6-0.1-4.3c0-1.4-0.1-3-0.3-4.6
		c-0.1-0.6-0.2-1.2-0.3-1.8c-0.1-0.4-0.2-0.9-0.4-1.3c-0.4-0.7-0.7-1.5-1.1-2.1c-0.1-0.2-0.2-0.3-0.3-0.5c-0.1-0.1-0.2-0.3-0.4-0.4
		c-0.1-0.1-0.2-0.1-0.3-0.2H836l0,0c0.2,0.1,0.3,0.2,0.4,0.3c0.1,0.1,0.2,0.2,0.3,0.3c0.1,0.2,0.2,0.3,0.3,0.5
		c0.2,0.3,0.3,0.6,0.5,1s0.3,0.8,0.5,1.2c0.2,0.4,0.3,0.8,0.3,1.2c0.1,0.6,0.2,1.2,0.2,1.8c0.1,1.5,0.2,3,0.2,4.6
		c0,1.5,0,3.1-0.1,4.4l0,0c0,0.6,0,1.2-0.1,1.7c0,0.3,0,0.6-0.1,0.8c0,0.1,0,0.1,0,0.2l0,0c0,0.2-0.1,0.4-0.1,0.6l0,0
		c0,0.3,0,0.6,0,0.9l0,0c0,0.8,0,1.7-0.1,2.5l0,0c0,2.3,0,4.7,0,6.8c0,2.9,0,5.4,0,6.9C838.2,570.5,838.5,570.7,838.4,565.8
		L838.4,565.8z"/>
	<path d="M811.4,594.9l-5.6,3.8c-2,1.5-3.9,3.1-5.8,4.8c-1.6,1.5-3,3.1-4.3,4.8l0,0c-0.8,1.1-1.6,2.2-2.2,3.3
		c-0.6,1.1-1.2,2.1-1.7,3.1c-0.7,1.5-1.3,2.8-1.9,4.1s-1,2.4-1.3,3.5c-0.6,1.6-1,3-1.3,4.3s-0.6,2.4-0.8,3.5v0.2
		c-0.2,0.8-0.3,1.9-0.5,3.2c-0.1,1.4-0.2,2.8-0.2,4.3c0,1.4,0.1,2.7,0.3,4.1c0.2,1.5,0.6,2.9,1.2,4.2c0.6,1.1,1.3,2.2,2.2,3.1
		c0.8,0.8,1.8,1.6,2.8,2.2l0,0c0.8,0.5,1.7,0.9,2.6,1.2c0.8,0.3,1.7,0.4,2.5,0.5c1.3,0.1,2.5,0.1,3.8-0.1l0.4-0.1
		c0.4-0.1,0.9-0.2,1.5-0.4c0.7-0.2,1.4-0.5,2.1-0.8c0.6-0.3,1.1-0.6,1.6-1c0.6-0.4,1.1-0.9,1.5-1.5l0,0c0.7-0.9,1.3-1.8,1.7-2.8
		c0.5-1.1,0.8-2.2,1-3.4l0,0c0.2-1.1,0.2-2.2,0.1-3.3c-0.1-1.1-0.2-2.2-0.4-3.3l0,0c-0.2-1.3-0.5-2.5-0.7-3.7s-0.5-2.3-0.7-3.3
		c-0.3-1.5-0.5-2.8-0.6-3.9s-0.2-2-0.3-2.6c0-0.3-0.1-0.7-0.1-1.1c0-1.1-0.1-2.5-0.2-4c0-1.6,0-3.2,0.2-4.8c0.1-0.9,0.3-1.7,0.5-2.5
		c0.3-0.9,0.6-1.7,0.9-2.6c1-2.7,2.2-5.4,3.3-7.8l1.1-2.2c0.3-0.5,0.5-0.9,0.6-1.5l0,0c-0.9,1-1.6,2.2-2.3,3.4c-1.5,2.5-2.8,5-4,7.6
		c-0.8,1.7-1.4,3.5-1.8,5.4c-0.3,1.5-0.4,3.1-0.5,4.7c-0.1,1.5,0,3,0,4.4c0,2,0.3,4,0.7,6c0.1,0.6,0.3,1.3,0.4,1.9
		c0.6,2.3,1.3,4.6,1.8,6.9c0.2,1,0.4,2.1,0.5,3.1c0.1,1,0.1,2,0,3.1c-0.1,1.1-0.3,2.1-0.7,3.1c-0.4,1-0.9,1.9-1.5,2.7
		c-0.7,1-1.7,1.8-2.7,2.3c-1.8,1-3.8,1.4-5.8,1.4c-0.9,0-1.8-0.2-2.7-0.4c-1.3-0.3-2.5-0.9-3.6-1.6c-0.9-0.6-1.7-1.3-2.4-2.1
		c-0.8-0.8-1.4-1.8-1.9-2.8l0,0c-0.5-1.2-0.8-2.4-0.9-3.7c-0.1-1.3-0.2-2.7-0.2-4.1c0-2.4,0.3-4.8,0.8-7.1c0.5-2.6,1.2-5.2,2-7.8
		c0.4-1.3,0.8-2.5,1.1-3.4c0.4-1.1,0.9-2.6,1.6-4.2c0.9-2.2,2.1-4.4,3.5-6.4l0,0c1.4-2,2.9-3.8,4.6-5.5c1.5-1.6,3.2-3,4.9-4.5
		L811.4,594.9L811.4,594.9z"/>
	<path class="st21" d="M815.1,540c-2.8,2.7-6.2,6.2-6.9,7c-1,1.2-11.4,12.2-11.4,14.7c0,0-1.2,11.2-0.6,13s3.3,12,3.7,12.8
		s7.4,9,9.5,10s9.1,3.7,9.1,3.7s17.2,2.7,22.3,2.1s13-1.4,15.3-3.5c1.8-1.6,5.8-3.2,7.8-5c2.7-2.3,5.8-2.9,7.2-4.3
		c0.6-0.7,1.1-1.5,1.6-2.3l-1.2,0.6c-0.7,0.3-1.3,0.7-2,1c-0.7,0.4-1.4,0.9-2,1.4c-0.6,0.5-1.2,0.9-1.8,1.3
		c-0.7,0.4-1.5,0.8-2.2,1.2s-1.5,0.8-2.1,1.2c-0.6,0.4-1.2,0.8-1.7,1.2c-0.3,0.3-0.7,0.5-1.1,0.7c-0.5,0.2-1,0.4-1.5,0.6
		c-0.6,0.2-1.2,0.4-1.9,0.5s-1.4,0.3-2.1,0.4c-1.5,0.3-3,0.5-4.5,0.7s-3,0.4-4.3,0.5c-0.8,0.1-1.6,0.1-2.4,0.1c-1,0-2.1-0.1-3.2-0.2
		c-2.3-0.2-5-0.5-7.4-0.7c-4.9-0.6-9.2-1.3-9.2-1.3s-1.8-0.7-3.8-1.5s-4.3-1.7-5.3-2.3c-0.4-0.2-0.7-0.4-1-0.7
		c-0.4-0.3-0.8-0.7-1.3-1.2c-1-0.9-2-2-3.1-3.2s-2-2.2-2.8-3.1c-0.5-0.6-1-1.1-1.4-1.8c-0.2-0.4-1-3.2-1.8-6s-1.6-5.9-1.9-6.8
		c-0.1-0.4-0.2-0.7-0.2-1.1c0-0.5,0-1.1,0-1.7c0-1.3,0.1-2.9,0.2-4.4c0.2-3,0.5-5.8,0.5-5.8c0-0.2,0.1-0.4,0.1-0.6
		c0.1-0.3,0.2-0.5,0.3-0.7c0.4-0.6,0.8-1.3,1.2-1.9c0.5-0.7,1.1-1.5,1.7-2.2s1.3-1.6,2-2.4c1.4-1.6,2.8-3.2,3.9-4.4s2-2.2,2.2-2.5
		C812,543.2,813.8,541.4,815.1,540L815.1,540z"/>
	<path class="st20" d="M859,595.4c0,0,10.2,2.8,17.3,9.3c5.9,5.4,14.3,17.3,16.5,26.1c1.7,6.9,0.6,13.9-4.1,16.1
		c-3.7,1.8-10.8,2.3-12.5,0.7c-8.9-8.9-5-16.4-7.4-27.2c-2-8.7-6.3-11.8-6.8-13.2s-6.3-8.9-6.3-8.9"/>
	<path class="st23" d="M860.3,596l-1.8,1.7c0,0,1.3-0.9,2.2-0.6s2.2,0.9,3.7,1.7c0.8,0.4,1.5,0.8,2.4,1.3s1.7,1,2.5,1.6
		s1.7,1.2,2.6,1.9c0.9,0.7,1.7,1.4,2.5,2.2c0.7,0.7,1.3,1.4,2.1,2.3s1.6,2.5,2.4,3.5s1.7,2.1,2.5,3.2s1.6,2.3,2.4,3.5
		s1.5,2.4,2.2,3.6s1.3,2.5,1.9,3.7s1.1,2.4,1.6,3.6c0.4,1.1,0.8,2.2,1.1,3.4c0.2,0.9,0.4,1.7,0.5,2.6c0.1,0.8,0.2,1.7,0.2,2.5
		c0,0.8,0,1.6,0,2.4c-0.1,0.8-0.2,1.5-0.3,2.3c-0.2,0.7-0.4,1.4-0.6,2c-0.2,0.6-0.6,1.2-0.9,1.8c-0.2,0.3-0.4,0.5-0.6,0.7h0
		c4.6-2.2,5.7-9.2,4.1-16.1c-2.1-8.7-10.5-20.7-16.5-26.1C871.7,600.6,866.2,597.6,860.3,596L860.3,596z"/>
	<path d="M859.4,595.4l5.6,2.5c2.1,1,4.1,2.2,6.1,3.5c1.7,1.1,3.2,2.4,4.7,3.7c0.9,0.9,1.8,1.8,2.5,2.6s1.5,1.7,2.1,2.5
		c1.7,2.1,3.3,4.4,4.7,6.7c1,1.5,1.7,2.9,2.3,4.1s1.2,2.3,1.6,3.3l0.1,0.2c0.3,0.8,0.8,1.7,1.3,2.8c0.5,1.3,0.9,2.5,1.3,3.8
		c0.4,1.5,0.7,3.1,0.8,4.7c0.1,1.6,0.1,3.3-0.3,4.9c-0.2,1.3-0.7,2.5-1.4,3.6c-0.3,0.5-0.7,1-1.1,1.4c-0.4,0.4-0.9,0.7-1.4,1
		c-1,0.5-2.1,0.9-3.1,1.1c-0.8,0.2-1.5,0.3-2.3,0.5c-0.3,0-0.8,0.1-1.3,0.1s-0.9,0-1.5,0c-0.6,0-1.2-0.1-1.8-0.2
		c-0.4-0.1-0.8-0.2-1.2-0.3c-0.2-0.1-0.5-0.2-0.7-0.4c-0.9-0.9-1.7-1.9-2.4-2.9c-0.8-1.1-1.4-2.3-1.9-3.6l0,0
		c-0.8-2-1.2-4.1-1.4-6.3c-0.1-1.2-0.1-2.4-0.2-3.6s0-2.2-0.1-3.3s-0.1-2.1-0.2-3s-0.2-1.6-0.3-2.1c-0.1-0.8-0.3-1.7-0.6-2.8
		c-0.4-1.8-1-3.7-1.7-5.4l0,0c-0.5-1.2-1-2.4-1.7-3.5c-0.5-0.9-1.1-1.7-1.8-2.5l0,0c-0.6-0.8-1.2-1.5-1.7-2.3
		c-0.2-0.3-0.4-0.5-0.6-0.7l-0.9-1c-0.8-0.9-1.5-1.7-2.2-2.5l-1.9-2.1l-0.2-0.2c-0.3-0.3-0.5-0.5-0.7-0.7l-0.2-0.2h-0.1l0,0
		l-0.4,0.3l-0.1,0.1l0,0l0.1-0.1l0.3-0.3l0,0v0.1l0.1,0.2c0.1,0.2,0.3,0.5,0.5,0.8c0.4,0.6,1,1.5,1.8,2.5l2,2.7l0.8,1.1
		c0.2,0.2,0.3,0.5,0.5,0.7c0.5,0.8,1,1.6,1.6,2.4c0.5,0.8,1.1,1.6,1.5,2.4c0.6,1.1,1,2.2,1.4,3.4c0.5,1.7,1,3.5,1.3,5.3
		c0.3,1.3,0.5,2.6,0.6,3.8s0.3,2.3,0.3,3.4v0.3c0.2,2.2,0.3,4.5,0.6,6.9l0,0c0.3,2.3,0.9,4.5,1.9,6.6c1.2,2.5,2.9,4.7,4.9,6.6
		c0.3,0.3,0.6,0.5,1,0.6c0.4,0.2,0.9,0.3,1.3,0.3c1.1,0.1,2.3,0.2,3.4,0.1c1.3-0.1,2.5-0.3,3.7-0.6l0,0c0.4-0.1,0.9-0.2,1.5-0.3
		c0.7-0.2,1.3-0.4,1.9-0.7l0,0c0.6-0.3,1.1-0.6,1.6-1c0.5-0.5,1-1,1.4-1.6c0.8-1.2,1.4-2.6,1.7-4c0.4-1.6,0.6-3.3,0.5-5
		c0-1.8-0.3-3.5-0.7-5.2c-0.6-2.5-1.5-5-2.6-7.3c-1.2-2.6-2.6-5.1-4.2-7.5c-0.6-0.9-1.2-1.7-1.6-2.3c-0.9-1.2-2.1-2.7-3.6-4.3
		c-1.6-1.8-3.2-3.5-5-5c-1.8-1.5-3.7-2.8-5.7-4c-1.8-1-3.6-2-5.5-2.8l-5.8-2.2L859.4,595.4z"/>
	<path d="M880.3,645.2c0.1,0,0.2,0.1,0.3,0.1c0.1,0.1,0.2,0.3,0.2,0.4c0.1,0.2,0.1,0.4,0.1,0.7c0,0.2,0,0.5-0.1,0.7
		c-0.1,0.6-0.3,1.1-0.6,1.6c-0.1,0.2-0.2,0.3-0.3,0.5c-0.3,0.6-0.8,1.1-1.3,1.5c-0.2,0.1-0.4,0.3-0.6,0.3c-0.1,0-0.2,0-0.3,0h-0.1
		h-0.1l0,0l-0.1-0.1l-0.1-0.1l0,0c0-0.1-0.1-0.2-0.1-0.3c0-0.2,0-0.5,0-0.7c0.1-0.6,0.3-1.2,0.6-1.8l0.2-0.4
		c0.2-0.5,0.5-0.9,0.8-1.3c0.1-0.2,0.2-0.3,0.4-0.5c0.1-0.1,0.2-0.2,0.4-0.3c0.1-0.1,0.2-0.1,0.3-0.2
		C880.1,645.2,880.2,645.2,880.3,645.2L880.3,645.2z"/>
	<path d="M876.2,644.4c0.1,0,0.2,0,0.3,0.1c0.1,0.1,0.2,0.2,0.3,0.3c0.2,0.3,0.3,0.6,0.3,1c0,0.4,0,0.8-0.1,1.2
		c0,0.1-0.1,0.3-0.1,0.4c-0.1,0.5-0.4,0.9-0.8,1.3c-0.1,0.1-0.3,0.3-0.5,0.3c-0.1,0-0.2,0.1-0.2,0.1h-0.1h-0.1l0,0h-0.1l-0.1-0.1
		c-0.1,0-0.1-0.1-0.2-0.2c-0.1-0.2-0.2-0.3-0.2-0.5c-0.1-0.5-0.1-0.9-0.1-1.4c0-0.1,0-0.3,0.1-0.4c0.1-0.4,0.2-0.7,0.4-1.1
		c0.1-0.3,0.3-0.5,0.6-0.7c0.1-0.1,0.2-0.2,0.3-0.2C876,644.5,876.1,644.5,876.2,644.4L876.2,644.4z"/>
	<path d="M886.2,646.1c0.4-0.1,0.8,0.1,1,0.5c0.3,0.4,0.5,0.9,0.5,1.4c0,0.4,0,0.7-0.2,1.1c-0.1,0.3-0.3,0.6-0.5,0.8
		c-0.1,0.1-0.2,0.1-0.3,0.2c-0.1,0-0.2,0-0.3,0l0,0c-0.1,0-0.2-0.1-0.3-0.1c-0.1-0.1-0.2-0.1-0.3-0.2c-0.2-0.2-0.3-0.4-0.4-0.7
		c-0.1-0.3-0.2-0.6-0.2-0.9c0-0.5,0.1-0.9,0.3-1.3C885.6,646.4,885.9,646.2,886.2,646.1L886.2,646.1z"/>
	<path class="st24" d="M835.8,570.5h5.3l9.7,3.5l11.4,7c0,0,3.1,2.2,3.5,3.5s-1,7.2-1,7.2l-1.9,5.8c0,0-11.3,9.1-15.3,10.1
		s-21.6,0.7-24.5-2.5s-9.4-11.2-9.4-13.9s0-4.8,1.3-6.1s3.1-2.2,8.8-7.2c1.4-1.2,5.3-4.7,7-6S834.7,570.1,835.8,570.5L835.8,570.5z"
		/>
	<path class="st23" d="M835.1,570.4c-1.1,0.1-2.3,0.4-3.3,1c0.3-0.1,0.7-0.1,1-0.1c0.4,0,4.5-0.5,4.8-0.4l5,0.5l6.4,2.9l11.2,7.7
		c0,0,0.8,0.5,1.6,1.3c0.4,0.4,0.8,0.7,1.2,1.1c0.2,0.2,0.3,0.4,0.5,0.6c0.1,0.2,0.2,0.3,0.3,0.5c0.1,0.2,0.1,0.5,0.1,0.7
		c0,0.3,0,0.7,0,1c-0.1,0.7-0.2,1.6-0.4,2.4c-0.3,1.6-0.7,3.1-0.7,3.1l-1.9,5.8c0,0-0.7,0.6-1.8,1.4s-2.7,2-4.3,3.2
		c-0.8,0.6-1.7,1.2-2.5,1.8s-1.7,1.1-2.5,1.6s-1.5,0.9-2.2,1.2l0.3,0c4.1-1,14.8-10.4,14.8-10.4l2.5-5.5c0,0,1.5-5.8,1-7.2
		s-3.5-3.5-3.5-3.5l-11.4-7l-9.6-3.6h-5.3C835.9,570.4,835.5,570.3,835.1,570.4L835.1,570.4z"/>
	<path class="st25" d="M816.6,583.8c-0.6,0.4-1.1,0.9-1.7,1.4c-1.3,1.3-1.3,3.4-1.3,6.1s6.4,10.7,9.4,13.9s20.5,3.5,24.5,2.5
		s15.3-10.5,15.3-10.5l0.2-0.6c-1.1,0.8-2.3,2.3-3.9,3.4c-0.8,0.6-1.7,1.2-2.5,1.8s-1.7,1.1-2.5,1.6s-1.6,0.9-2.3,1.3
		c-0.6,0.3-1.2,0.5-1.8,0.7c-0.7,0.2-1.4,0.3-2.1,0.3c-0.9,0.1-1.9,0.2-3,0.2s-2.4,0-3.6,0s-2.6-0.1-3.9-0.2s-2.6-0.2-3.9-0.4
		s-2.4-0.3-3.5-0.6c-0.5-0.1-1-0.2-1.5-0.4c-0.4-0.1-0.9-0.3-1.3-0.5c-0.3-0.1-0.7-0.3-1-0.5c-0.3-0.2-0.5-0.3-0.7-0.6
		c-0.7-0.8-1.7-1.9-2.7-3.2s-2.1-2.6-3.1-4c-0.5-0.7-1-1.4-1.4-2s-0.8-1.3-1.1-1.9c-0.3-0.5-0.6-1.1-0.8-1.6
		c-0.2-0.4-0.3-0.8-0.3-1.2c0-0.7,0-1.3,0-1.9c0-0.6,0.1-1.1,0.1-1.7c0.1-0.5,0.2-1,0.4-1.4C816.5,584,816.6,583.9,816.6,583.8
		L816.6,583.8z"/>
	<path class="st25" d="M835.9,584.8c0.3,1.5,0.9,1.6,1.9,2.7s1,4.6,0.8,8.3l1.6,0.6l-0.9-9.2L835.9,584.8z"/>
	<path d="M815.9,584.6c2.8-2.2,5.4-4.3,7.7-6.3c1.8-1.5,3.4-3,5-4.2l0,0c1.1-0.9,2.3-1.7,3.7-2.4c1.2-0.5,2.4-0.8,3.7-0.9l0,0
		c1.2-0.1,2.3-0.1,3.5,0c1,0.1,2,0.2,3,0.4c0.9,0.2,1.8,0.5,2.7,0.9c0.8,0.3,1.5,0.7,2.2,1.1c1.2,0.6,2.2,1.3,3.1,1.8
		c0.9,0.6,1.8,1.1,2.6,1.6l1,0.6c1.7,1,4.4,2.5,7.7,4c1,0.4,1.8,1.2,2.4,2.1c0.6,1,1,2.1,1.1,3.3l0,0c0.2,1.4,0.1,2.8-0.2,4.2
		c-0.3,1.3-0.7,2.6-1.2,3.8l0,0c-0.4,0.9-1,1.8-1.6,2.6c-0.5,0.7-1.1,1.3-1.7,1.9c-0.5,0.5-1,1-1.3,1.3s-1,0.8-1.7,1.3
		s-1.7,1.1-2.7,1.8c-2.2,1.3-4.6,2.4-7.1,3.2c-1.2,0.4-2.4,0.7-3.6,0.9c-1.2,0.2-2.4,0.4-3.6,0.4c-1.5,0-2.9-0.1-4.4-0.2
		c-1.3-0.2-2.6-0.4-3.8-0.7c-1.7-0.4-3.4-1-5.1-1.7l-0.2-0.1c-0.9-0.4-1.7-0.7-2.6-1.2c-1.1-0.6-2.1-1.2-3-1.9
		c-1.5-1.1-2.8-2.5-3.8-4.1c-0.7-1.1-1.4-2.3-2-3.4c-0.6-1.1-1.1-2.3-1.5-3.6c-0.3-1.1-0.4-2.2-0.1-3.3c0.1-0.8,0.5-1.5,0.9-2.1
		c0.2-0.3,0.4-0.6,0.7-0.8c0.2-0.2,0.3-0.3,0.3-0.3l0,0l0,0c-0.1,0.1-0.2,0.1-0.3,0.2c-0.2,0.2-0.4,0.4-0.6,0.6
		c-0.3,0.3-0.6,0.6-0.8,1c-0.6,0.9-1,2-1.1,3.1c0,0.7,0,1.3,0.2,2c0.3,1.4,0.7,2.7,1.3,3.9c0.5,1.2,1.2,2.4,1.8,3.6
		c1,1.8,2.3,3.4,3.9,4.7c1.8,1.5,3.8,2.7,5.9,3.6c1.6,0.7,3.3,1.3,5.1,1.7c1.5,0.3,3.1,0.6,4.7,0.7c1.6,0.1,3.2,0.1,4.8,0
		c2.6-0.2,5.1-0.8,7.5-1.8c2.5-1,4.9-2.2,7.1-3.6l0,0c1.3-0.8,2.4-1.6,3.3-2.4s1.8-1.5,2.5-2.1l0.4-0.4c0.5-0.5,1-1,1.5-1.6
		c0.7-0.8,1.3-1.7,1.8-2.6c0.6-1.2,1.1-2.5,1.5-3.9c0.4-1.5,0.5-3.1,0.4-4.7c-0.1-1.4-0.5-2.7-1.1-3.9c-0.7-1.2-1.7-2.2-3-2.8
		c-3-1.5-5.8-3.1-8.4-4.7l0,0l-3-1.8c-1-0.6-1.9-1.1-2.8-1.6c-0.7-0.4-1.4-0.7-2.1-1c-0.6-0.2-1.2-0.4-1.8-0.6
		c-0.4-0.1-0.9-0.2-1.5-0.3c-1.1-0.2-2.1-0.3-3.2-0.3c-1.2,0-2.5,0.1-3.7,0.2c-1.4,0.1-2.7,0.5-4,1.2c-1.3,0.7-2.6,1.6-3.7,2.7
		c-1.7,1.5-3.3,3.1-4.8,4.5c-2.1,1.9-3.9,3.6-5.3,4.8S815.9,584.6,815.9,584.6L815.9,584.6z"/>
	<path class="st21" d="M822.6,564.1c-1-0.5-1.9-2.9-1.9-1.7c0,1.2,0.4,3.2,1.2,4c0.8,0.8,5.2,1.4,5.2,0.3
		C827.1,565.5,823.6,564.7,822.6,564.1L822.6,564.1z"/>
	<path d="M824.8,558.1c-2.3,0-3.9,1.1-3.9,3.4s1.6,4.7,3.9,4.9c2.1,0.2,3.9-1.2,4.2-3.3c0-0.3,0-0.6,0-0.9
		C828.9,560,827.1,558.2,824.8,558.1L824.8,558.1z"/>
	<path d="M852.7,558.3c-2.1-0.2-3.9,1.4-4.1,3.5c0,0.1,0,0.2,0,0.3c0,2.3,1,4.5,3.3,4.7c2.1,0.2,3.9-1.2,4.2-3.3c0-0.3,0-0.6,0-0.9
		C855.9,560.4,855,558.3,852.7,558.3z"/>
	<path class="st20" d="M798.3,562.1c0,0-5.5-1.9-6.2-2.7c-0.7-0.8-6.6-7.1-6.7-10.5c-0.1-3.4,0.2-7.9,3.1-10.7s7.8-5.6,9.8-5.9
		c2-0.3,7.1,1.9,8,2.9s7.6,7.4,8,8S798.3,562.1,798.3,562.1L798.3,562.1z"/>
	<path class="st21" d="M798.4,532.4L798.4,532.4c-2.1,0.3-6.9,3.1-9.9,5.9c-2.9,2.8-3.1,7.3-3.1,10.7s5.9,9.6,6.7,10.5
		s6.2,2.7,6.2,2.7l1.8-2.1c-0.5-0.2-0.6-0.2-1.2-0.4s-1.5-0.6-2.1-0.9c-0.5-0.2-0.9-0.4-1.3-0.8c-0.2-0.2-0.7-0.8-1.3-1.5
		s-1.5-1.7-2.2-2.8c-0.4-0.5-0.8-1.1-1.1-1.6s-0.7-1.1-1-1.6c-0.3-0.5-0.5-1-0.7-1.5c-0.2-0.4-0.2-0.9-0.3-1.4c0-0.8,0-1.8,0-2.7
		c0.1-1,0.2-1.9,0.4-2.9c0.1-0.5,0.2-0.9,0.4-1.4c0.2-0.5,0.3-0.9,0.5-1.3c0.2-0.4,0.5-0.9,0.8-1.3c0.3-0.4,0.6-0.8,1-1.1
		c0.8-0.7,1.6-1.4,2.5-2c0.9-0.7,1.8-1.3,2.8-1.8C797.7,532.7,798,532.5,798.4,532.4L798.4,532.4z"/>
	<path d="M815,544L815,544L815,544L815,544l-0.3-0.5c-0.3-0.5-0.7-0.9-1-1.3l0,0c-1.2-1.6-2.4-2.9-3.4-4c-0.9-1-1.7-1.8-2.5-2.5
		c-0.8-0.7-1.5-1.3-2.2-1.8c-0.8-0.6-1.7-1.2-2.7-1.7c-0.9-0.5-1.9-0.8-2.9-1c-0.3,0-0.5-0.1-0.8-0.1c-0.5,0-0.9,0-1.4,0.1
		c-0.6,0.1-1.1,0.3-1.7,0.5c-0.7,0.3-1.3,0.6-1.9,1c-0.6,0.4-1.2,0.8-1.8,1.3c-0.6,0.5-1.2,1.1-1.8,1.7c-0.6,0.6-1.1,1.1-1.5,1.7
		c-0.7,0.8-1.3,1.7-1.8,2.5c-0.2,0.3-0.5,0.8-1,1.5c-0.3,0.5-0.6,1-0.8,1.6c-0.2,0.6-0.4,1.3-0.5,2l0,0c-0.1,0.7-0.1,1.3-0.1,2
		c0,0.7,0,1.3,0.1,2l0,0c0.1,1.3,0.4,2.5,0.8,3.8c0.2,0.6,0.3,1.1,0.5,1.6c0.1,0.4,0.3,0.7,0.5,1.1l0,0c0.3,0.5,0.6,1,1,1.4
		c0.5,0.5,1,1,1.6,1.4l0,0c1.1,0.8,2.2,1.4,3.4,2c1.1,0.5,2.2,1,3.3,1.4c0.5,0.2,1,0.4,1.5,0.5c0.2,0.1,0.5,0.1,0.7,0.1
		c0.1,0,0.1-0.1-0.1-0.2s-0.4-0.2-0.7-0.4l-1.2-0.7c-0.8-0.5-1.9-1.1-3-1.9c-1-0.7-2-1.4-2.9-2.3c-0.4-0.4-0.8-0.8-1.1-1.2
		c-0.3-0.4-0.5-0.7-0.7-1.2c-0.3-0.7-0.6-1.3-0.8-1.9l-0.2-0.5c-0.5-1.1-0.8-2.2-1.1-3.4c-0.3-1.2-0.5-2.5-0.5-3.7l0,0
		c0-0.6,0.1-1.2,0.2-1.8c0.1-0.5,0.3-1.1,0.6-1.5c0.5-0.8,1-1.6,1.6-2.3c0.6-0.6,1.2-1.3,1.8-1.8c1-0.9,2-1.7,3.1-2.4
		c1.1-0.7,2.3-1.4,3.5-1.8c0.5-0.2,1-0.3,1.5-0.4c0.5-0.1,0.9-0.1,1.4,0l0,0c0.8,0.1,1.6,0.4,2.4,0.7c0.6,0.3,1.2,0.5,1.6,0.8
		s0.6,0.3,1,0.5c0.8,0.5,1.6,1,2.4,1.5c0.9,0.6,1.8,1.4,2.6,2.1c1.3,1.2,2.6,2.4,3.8,3.7c0.5,0.5,0.8,0.9,1.1,1.2l0.3,0.3l0,0
		l0.1,0.1l0,0l0,0L815,544z"/>
	<path d="M859,544.7L859,544.7L859,544.7L859,544.7l0.3-0.4l0.8-1.1c0.9-1.3,1.8-2.4,2.5-3.4c1.1-1.4,2-2.6,2.9-3.6
		c0.4-0.5,0.8-0.9,1.2-1.3c0.2-0.2,0.5-0.5,0.8-0.6c0.5-0.3,1.1-0.5,1.7-0.7c0.5-0.1,1-0.2,1.5-0.2c0.4,0,0.8,0,1.1,0
		c0.3,0,0.7,0.1,1,0.1s0.6,0.1,1,0.2c0.9,0.2,1.8,0.5,2.7,0.8c1,0.4,2,1,2.9,1.6c1.1,0.8,2.1,1.4,3,1.9c0.5,0.3,1,0.7,1.4,1.1
		c0.3,0.3,0.6,0.5,0.8,0.8l0.1,0.2c0.3,0.4,0.5,0.8,0.7,1.3c0.2,0.6,0.3,1.3,0.4,2l0,0c0,0.9,0,1.8-0.2,2.7
		c-0.2,0.9-0.4,1.9-0.7,2.8l0,0c-0.2,0.6-0.4,1.1-0.8,1.6c-0.3,0.5-0.7,1-1,1.4c-0.5,0.6-0.8,1.1-1,1.4c-0.6,0.8-1.3,1.5-2,2.2
		c-0.6,0.6-1.2,1.1-1.8,1.6c-0.7,0.5-1.4,1-2.1,1.4c-0.5,0.3-1.1,0.6-1.7,0.8c-0.5,0.2-1.1,0.3-1.6,0.4c-0.4,0-0.6,0.1-0.6,0.1
		c0,0.1,0.2,0.2,0.5,0.2c0.5,0.1,1.1,0.1,1.6,0c0.8-0.1,1.6-0.3,2.3-0.5l0,0c0.8-0.3,1.6-0.6,2.3-1.1c0.8-0.4,1.5-1,2.3-1.5l0,0
		c0.7-0.6,1.4-1.2,2-1.8c0.6-0.6,1-1.2,1.5-1.9l0.2-0.3c0.7-1.1,1.1-2.2,1.4-3.5l0,0c0.2-1,0.3-2,0.4-3c0.1-1,0-1.9-0.1-2.9
		c-0.1-0.7-0.3-1.4-0.6-2c-0.2-0.6-0.5-1.1-0.9-1.6c-0.3-0.3-0.5-0.7-0.8-1c-0.2-0.2-0.3-0.4-0.6-0.6s-0.6-0.5-0.9-0.8
		s-0.8-0.7-1.3-1s-1-0.8-1.5-1.2l0,0c-0.8-0.7-1.8-1.4-2.8-1.9c-1-0.6-2.1-1-3.2-1.3l0,0c-0.6-0.2-1.3-0.3-1.9-0.3
		c-0.6-0.1-1.2-0.1-1.8,0c-0.6,0.1-1.2,0.2-1.8,0.4c-0.4,0.1-0.8,0.3-1.2,0.5c-0.2,0.1-0.5,0.3-0.7,0.5c-0.4,0.3-0.7,0.6-0.9,1l0,0
		c-0.4,0.5-0.7,1-1.1,1.5l0,0c-0.8,1.2-1.7,2.6-2.5,3.9s-1.6,2.7-2.2,3.7l-0.7,1.2l-0.2,0.3l0,0v0.1l0,0l0,0H859z"/>
	<path class="st24" d="M811.2,548.7c0,0-3.9,3.5-4.8,4.9c-1.1,1.5-2.4,2.9-3.9,4c-0.6-0.1-1.2-0.2-1.8-0.4c-1.2-1.3-2.3-2.7-3.2-4.2
		c-0.8-1.6-2.7-3.1-1.9-5c0.8-1.9,1.7-5.1,3.7-5.2c2-0.2,4-0.1,6,0.2c1,0.3,2,0.8,3,1.4C808.9,544.9,812.1,547.9,811.2,548.7
		L811.2,548.7z"/>
	<path class="st25" d="M799.2,542.9c-1.8,0.5-2.6,3.3-3.3,5.1s1.1,3.3,1.9,5c0.9,1.5,2,3,3.2,4.2c0.6,0.2,1.2,0.3,1.8,0.4
		c0.4-0.2,0.8-0.5,1.1-0.9c-0.3,0-0.6-0.1-0.9-0.1c-0.4-0.1-0.8-0.2-0.8-0.2s-0.6-0.7-1.3-1.5c-0.3-0.4-0.7-0.9-1.1-1.4
		c-0.3-0.4-0.6-0.9-0.8-1.4c-0.2-0.4-0.5-0.8-0.7-1.2c-0.3-0.4-0.6-0.8-0.8-1.2c-0.1-0.2-0.2-0.4-0.3-0.6c-0.1-0.2-0.1-0.4-0.2-0.6
		c0-0.2,0-0.4,0-0.6c0-0.2,0.1-0.5,0.2-0.7c0.2-0.5,0.4-1,0.6-1.6c0.2-0.6,0.5-1.1,0.8-1.7c0.1-0.3,0.3-0.5,0.5-0.7
		C799,543.1,799.1,543,799.2,542.9L799.2,542.9z"/>
	<path d="M811.3,548.6c-0.7,0.4-1.3,0.8-1.9,1.2c-0.6,0.4-1.1,0.8-1.5,1.2s-1.1,0.9-1.5,1.4c-0.4,0.4-0.8,0.8-1.1,1.3
		c-0.3,0.4-0.6,0.8-1,1.2c-0.3,0.3-0.6,0.6-0.9,0.8c-0.3,0.3-0.7,0.5-1.1,0.7c-0.3,0.1-0.5,0.2-0.6,0.2h0.3l-0.2-0.1l0,0
		c-0.3-0.2-0.6-0.4-0.8-0.7c-0.4-0.3-0.8-0.7-1.2-1.1c-0.4-0.4-0.8-0.9-1.2-1.3s-0.9-1.1-1.3-1.7c-0.3-0.4-0.6-0.9-0.8-1.4
		c-0.1-0.2-0.2-0.4-0.2-0.5c-0.1-0.3-0.2-0.7-0.2-1c0-0.4,0-0.8,0.1-1.1l0,0c0.3-0.7,0.7-1.3,1.2-1.8c0.5-0.5,1.1-1,1.8-1.3
		c0.5-0.3,1-0.5,1.5-0.7l1-0.3c0.4-0.1,0.7-0.2,1.1-0.3c0.3,0,0.5,0,0.8,0c0.3,0,0.7,0.1,1,0.1l0,0c0.7,0.2,1.4,0.4,2.1,0.7
		c0.6,0.3,1.2,0.5,1.7,0.8l0.3,0.1l0.2,0.1h0.2l0,0l0.3-0.4l0,0l0.1-0.2l0,0l-0.1,0.1l-0.2,0.4c0,0,0,0,0,0c0-0.1-0.1-0.1-0.1-0.2
		c-0.1-0.2-0.3-0.3-0.4-0.5l0,0c-0.5-0.5-1-0.9-1.5-1.3c-0.7-0.5-1.4-0.9-2.1-1.2c-0.8-0.4-1.6-0.5-2.4-0.5c-0.6,0-1.1,0.1-1.7,0.2
		c-0.5,0.1-0.9,0.3-1.3,0.5c-0.5,0.3-1,0.6-1.5,1c-0.7,0.6-1.3,1.2-1.8,2c-0.5,0.7-0.8,1.5-1,2.3c-0.1,0.5-0.1,1,0,1.5
		c0.1,0.6,0.3,1.1,0.5,1.6l0.1,0.2c0.2,0.5,0.3,0.9,0.5,1.4c0.3,0.7,0.7,1.4,1.1,2c0.6,1.1,1.4,2.1,2.2,3c0.3,0.3,0.6,0.7,1,0.9
		c0.2,0.1,0.3,0.2,0.5,0.3l0,0c0.2,0.1,0.5,0.1,0.7,0.1c0.5-0.1,0.9-0.3,1.3-0.5c0.5-0.3,0.9-0.6,1.2-1c0.2-0.2,0.4-0.4,0.5-0.6
		c0.5-0.6,0.9-1.3,1.2-2c0.2-0.5,0.5-0.9,0.8-1.3c0.4-0.5,0.8-1.1,1.2-1.6s0.7-0.8,1.1-1.2s0.7-0.7,1-0.9
		C810.6,549.1,810.9,548.8,811.3,548.6L811.3,548.6z"/>
	<path class="st24" d="M861.5,548.1c0,0,4,1.7,4.9,3.1s3.8,5,4.1,5.1c0.6-0.1,1.2-0.2,1.8-0.4c1.2-1.3,2.3-2.7,3.2-4.2
		c0.8-1.6,1.8-3.5,0.9-5.4c-0.8-1.9-1.6-4.5-2.8-4.8c-2-0.4-4-0.3-6,0.2c-1,0.3-2,0.8-3,1.4C864.1,543.6,860.6,547.8,861.5,548.1
		L861.5,548.1z"/>
	<path d="M861.1,548L861.1,548h0.1l0.5,0.2c0.5,0.2,1,0.5,1.5,0.8c0.8,0.5,1.5,1,2.1,1.7c0.5,0.5,0.8,1.1,1.1,1.7
		c0.4,0.8,0.8,1.5,1.4,2.2c0.4,0.5,0.9,0.9,1.4,1.3c0.4,0.3,0.8,0.5,1.2,0.7c0.2,0.1,0.4,0.1,0.6,0.2c0.3,0.1,0.7,0.1,1,0
		c0.4-0.1,0.7-0.3,1-0.6c0.1-0.1,0.2-0.3,0.4-0.4l0.7-0.7c0.6-0.7,1.1-1.4,1.6-2.1c0.3-0.5,0.6-1,0.8-1.5c0.2-0.4,0.3-0.9,0.4-1.3
		c0.1-0.2,0.1-0.5,0.1-0.7c0-0.2,0.1-0.6,0.2-1.1c0.1-0.6,0.1-1.1,0-1.7c-0.1-0.8-0.3-1.6-0.7-2.3c-0.4-0.7-0.9-1.4-1.4-1.9
		c-0.5-0.5-1-0.9-1.6-1.3c-0.4-0.2-0.8-0.4-1.3-0.5c-1.1-0.3-2.3-0.3-3.4,0.1c-0.6,0.2-1.1,0.4-1.7,0.7l0,0c-0.6,0.3-1.1,0.6-1.5,1
		c-0.4,0.4-0.8,0.8-1.2,1.3c-0.1,0.1-0.2,0.2-0.2,0.4c0,0.1,0,0.1,0,0.1c0.2-0.1,0.4-0.2,0.6-0.4c0.4-0.3,0.8-0.5,1.2-0.7
		c0.5-0.3,1.1-0.5,1.7-0.6c0.5-0.1,0.9-0.2,1.4-0.2c0.4-0.1,0.9-0.1,1.3,0c0.7,0.1,1.5,0.4,2.1,0.8c0.4,0.2,0.9,0.4,1.3,0.7
		c0.6,0.4,1.1,0.9,1.5,1.4c0.4,0.5,0.7,1.1,0.9,1.7c0.2,0.6,0.2,1.2,0.2,1.8c0,0.5-0.1,0.9-0.3,1.3l0,0c-0.1,0.3-0.3,0.7-0.5,1
		c-0.3,0.5-0.6,0.9-1,1.4l0,0c-0.5,0.6-1.1,1.2-1.7,1.7l0,0l-0.7,0.6c-0.2,0.2-0.4,0.3-0.5,0.5l0,0c-0.1,0-0.2,0-0.2,0
		c-0.4-0.1-0.8-0.3-1.1-0.5c-0.5-0.4-1.1-0.8-1.5-1.3c-0.4-0.4-0.8-0.8-1.2-1.2c-0.5-0.7-1.2-1.4-1.9-1.9c-0.7-0.5-1.5-0.9-2.3-1.2
		c-0.5-0.2-1.1-0.4-1.7-0.5L861.1,548L861.1,548L861.1,548L861.1,548L861.1,548z"/>
	<path d="M813.2,542.1c1.6-1.6,3.4-3.1,5.4-4.3c2.2-1.4,4.6-2.4,7.1-3.1c0.8-0.2,1.5-0.4,2-0.5s1.3-0.4,2.2-0.6c0.9-0.2,2-0.5,3-0.7
		s2.2-0.3,3.2-0.4c1-0.1,1.9-0.1,2.6-0.1h0.9c0.9,0.1,1.7,0.2,2.6,0.4c1.2,0.2,2.5,0.6,3.9,1c1.1,0.3,2.1,0.7,3,1
		c0.9,0.3,1.7,0.7,2.2,1l0.7,0.3c0.6,0.2,1.1,0.5,1.7,0.8c0.7,0.4,1.4,0.9,2.1,1.4c0.8,0.6,1.5,1.2,2.2,1.9c0.7,0.7,1.4,1.3,2,2
		c0.4,0.4,0.5,0.5,0.5,0.3c-0.1-0.4-0.3-0.7-0.5-1.1c-0.9-1.6-2-3-3.2-4.3c-0.7-0.7-1.4-1.4-2.2-1.9c-0.7-0.5-1.5-1-2.3-1.4
		c-0.3-0.1-0.7-0.3-1-0.4c-1.6-0.5-3.2-0.8-4.8-1c-1.6-0.2-3.1-0.3-4.4-0.4c-1.3-0.1-2.4-0.2-3.2-0.3h-0.1c-0.6-0.1-1.7-0.2-3-0.2
		c-1.6,0-3.1,0-4.7,0.2c-1.6,0.2-3.2,0.5-4.8,1c-1.2,0.3-2.3,0.8-3.4,1.3c-1,0.6-2,1.2-2.9,1.8c-1.2,0.8-2.3,1.7-3.3,2.7
		c-0.9,0.8-1.7,1.7-2.5,2.6c-0.6,0.7-1,1.2-1,1.2L813.2,542.1z"/>
	<path d="M796.9,562.1c-0.1,1.1-0.2,2.2-0.5,3.2l0,0c-0.3,1.2-0.5,2.3-0.7,3.4c-0.2,1.1-0.2,2.3-0.2,3.5c0,1,0.1,1.9,0.1,2.6
		s0.2,1.4,0.3,1.9s0.2,1,0.3,1.5l0.1,0.3c0.2,0.8,0.6,2,1.1,3.5s1.2,3,1.8,4.3c0.3,0.7,0.7,1.4,1,1.9s0.6,1,0.8,1.2s0.7,1.2,1.4,2.3
		c0.5,0.8,1.1,1.5,1.7,2.2c0.7,0.7,1.4,1.4,2.2,2.1c0.8,0.7,1.6,1.2,2.2,1.7c0.5,0.3,1,0.7,1.5,0.9l2.2,1.1c0.8,0.4,1.7,0.8,2.6,1.1
		c0.9,0.3,1.9,0.5,2.9,0.7l1.9,0.2c0.4,0.1,0.6,0,0.6,0l0,0c-0.7-0.5-1.5-0.8-2.3-1c-0.7-0.3-1.5-0.7-2.4-1.1
		c-0.8-0.4-1.6-0.9-2.4-1.5c-0.7-0.5-1.3-0.9-1.9-1.3s-1.2-0.7-1.7-1c-0.8-0.4-1.6-0.8-2.3-1.3c-0.8-0.5-1.6-1-2.3-1.6
		c-0.7-0.5-1.3-1.2-1.9-1.8c-0.8-0.9-1.4-1.8-1.9-2.9c-0.2-0.5-0.5-1.3-0.9-2.4s-0.8-2.5-1.2-3.9s-0.7-2.9-1.1-4.3
		c-0.2-0.8-0.4-1.5-0.5-2.2s-0.2-1.2-0.3-1.6s-0.3-1.3-0.4-2.2c-0.1-1-0.2-1.9-0.2-2.9c0-1.2,0.1-2.4,0.2-3.4s0.1-1.8,0.1-2.4
		S796.9,562.2,796.9,562.1L796.9,562.1z"/>
	<path d="M872.8,560.3c0.4,0.8,0.8,1.6,1.1,2.3c0.3,0.7,0.6,1.3,0.8,1.9c0.2,0.5,0.3,1.1,0.4,1.6c0.1,0.8,0.2,1.4,0.2,2
		c0,0.6,0,1.1,0.1,1.6c0,1.3,0,2.2,0,3c0,0.4,0,1,0.1,1.7s0.1,1.5,0.2,2.2s0.1,1.6,0.1,2.3s0,1.3,0,1.9c0,0.4-0.1,0.8-0.1,1.2
		c0,0.2-0.1,0.3-0.1,0.4c-0.2,0.6-0.5,1.3-0.8,1.9c-0.4,0.8-0.8,1.6-1.3,2.3c-0.4,0.6-0.8,1.1-1.3,1.7c-0.4,0.5-0.8,0.9-1.2,1.2
		s-0.5,0.4-0.6,0.6c-0.3,0.3-0.6,0.6-0.9,0.9c-0.4,0.3-0.9,0.7-1.4,1.1s-1.3,0.9-2,1.3s-1.4,0.8-2,1.1s-0.3,0.4,0.7,0.3
		c1.4-0.3,2.8-0.7,4.2-1.3c0.7-0.3,1.4-0.7,2-1.1c0.6-0.4,1.1-0.8,1.6-1.4c0.1-0.1,0.2-0.3,0.4-0.5c0.7-1,1.3-2.1,1.8-3.2l0,0
		c0.6-1.5,1.1-3.1,1.6-4.7c0.1-0.5,0.2-0.9,0.3-1.2s0.2-0.5,0.2-1s0.2-0.9,0.3-1.5s0.2-1.5,0.3-2.3s0.1-1.6,0.2-2.5
		c0.1-1.6,0-3.2-0.2-4.8c0-0.2,0-0.3-0.1-0.4c-0.2-0.8-0.5-2-0.9-3.2c-0.2-0.6-0.5-1.2-0.8-1.7c-0.4-0.7-0.7-1.3-1.1-1.8
		L872.8,560.3L872.8,560.3z"/>
	<path class="st26" d="M839.7,585.9c0.4,3.5,0.7,7,0.7,10.5"/>
	<path class="st27" d="M854.2,560.1c-0.5,0-0.8,1.1-0.8,1.6c-0.2,0.5,0.1,1.1,0.6,1.3c0.5,0.2,1.1-0.1,1.3-0.6
		c0.1-0.2,0.1-0.4,0-0.6C855.3,561.2,854.7,560.1,854.2,560.1z"/>
	<path class="st27" d="M826.3,560.4c-0.5,0-0.8,1-0.8,1.6c-0.2,0.5,0.1,1.1,0.7,1.3c0.5,0.2,1.1-0.1,1.3-0.7c0.1-0.2,0.1-0.4,0-0.6
		C827.5,561.5,826.9,560.4,826.3,560.4z"/>
	<path d="M839.6,575.2c-3.6,0-8.4,3.3-6.6,6c1.3,2,3.8,5.8,6.6,6s4.7-3.8,6.6-6C848.3,578.7,843.3,575.2,839.6,575.2z"/>
	<path class="st27" d="M842.6,576.6c-0.8,0-1.6,0-1.6,0.8s0.8,0.7,1.6,0.7s2.7,1.5,2.7,0.7S843.4,576.6,842.6,576.6L842.6,576.6z"/>
	<path d="M789.6,541.1L789.6,541.1L789.6,541.1h-0.1h-0.1l0,0c-0.1,0-0.2,0-0.2,0c-0.2,0-0.3-0.1-0.5-0.2c-0.4-0.2-0.7-0.5-1-0.8
		l-0.3-0.4c-0.2-0.2-0.3-0.4-0.5-0.6c-0.2-0.2-0.3-0.5-0.5-0.7c-0.1-0.1-0.1-0.2-0.2-0.4c-0.1-0.1-0.1-0.2-0.1-0.4
		c0-0.1,0.1-0.3,0.1-0.4c0.1-0.1,0.3-0.2,0.4-0.3c0.2-0.1,0.5-0.1,0.7,0c0.3,0,0.6,0.1,0.8,0.3l0,0c0.4,0.2,0.7,0.5,1,0.8
		c0.2,0.2,0.3,0.4,0.4,0.6c0.3,0.4,0.4,1,0.5,1.5c0,0.2,0,0.4-0.1,0.6c0,0.1-0.1,0.1-0.1,0.2l0,0l-0.1,0.1l0,0L789.6,541.1
		L789.6,541.1z"/>
	<path d="M788.1,543.6c-0.1,0.3-0.5,0.4-1,0.5c-0.6,0-1.2-0.1-1.7-0.2l0,0l-0.5-0.1c-0.6-0.1-1.1-0.2-1.6-0.5
		c-0.2-0.1-0.3-0.1-0.5-0.3c-0.1-0.1-0.2-0.2-0.3-0.3c-0.1-0.1-0.2-0.2-0.2-0.3c-0.1-0.1-0.1-0.2-0.1-0.3c0-0.1,0-0.2,0.1-0.3
		c0.1-0.1,0.2-0.2,0.3-0.3c0.2-0.1,0.3-0.2,0.5-0.2c0.2-0.1,0.4-0.1,0.6-0.1c0.7-0.1,1.3,0,2,0.1l0.5,0.1l0,0
		c0.6,0.3,1.2,0.6,1.6,1.1C788.1,543,788.2,543.3,788.1,543.6L788.1,543.6z"/>
	<path d="M871.6,534.5c-0.4-0.1-0.6-0.3-0.8-0.7c-0.2-0.4-0.3-0.9-0.3-1.3l0,0c0-0.1,0-0.1,0-0.2c0-0.5,0-0.9,0.2-1.4
		c0.1-0.2,0.1-0.4,0.2-0.5c0.1-0.1,0.2-0.3,0.4-0.3c0.2-0.1,0.4-0.1,0.5,0c0.2,0.1,0.4,0.2,0.5,0.4c0.2,0.2,0.3,0.5,0.5,0.8
		c0.1,0.3,0.2,0.7,0.2,1c0,0.1,0,0.2,0,0.3l0,0c0,0.6-0.2,1.1-0.5,1.6C872.4,534.4,872,534.6,871.6,534.5L871.6,534.5z"/>
	<path d="M875,534.8c-0.3-0.1-0.4-0.5-0.4-1c0-0.6,0.2-1.2,0.4-1.8c0.1-0.2,0.1-0.3,0.2-0.5c0.3-0.7,0.6-1.3,1-1.9
		c0.1-0.2,0.3-0.4,0.5-0.6c0.1-0.1,0.3-0.2,0.5-0.2c0.2,0,0.4,0.1,0.5,0.3c0.1,0.2,0.2,0.5,0.3,0.8c0.1,0.4,0.1,0.8,0,1.1
		c-0.1,0.4-0.2,0.9-0.3,1.3c-0.1,0.2-0.2,0.4-0.2,0.5l0,0c-0.3,0.6-0.7,1.2-1.2,1.6C875.7,534.9,875.3,535,875,534.8L875,534.8z"/>
	<path class="st22" d="M827,581.8c-0.5,0-1,0.5-1,1c0,0.5,0.4,0.7,0.9,0.7s1-0.2,1-0.7C827.9,582.3,827.5,581.9,827,581.8L827,581.8
		z"/>
	<path class="st22" d="M823.7,586.1c-0.8,0-1.5,0.7-1.5,1.5c0,0.8,0.6,1.1,1.4,1.1s1.5-0.3,1.5-1.1
		C825.2,586.8,824.5,586.1,823.7,586.1L823.7,586.1z"/>
	<path class="st22" d="M829.7,587.1c-0.8,0-1.2,0.3-1.2,1.2s0.5,1,1.3,1s1.1-0.4,1.1-1.2S830.5,587.1,829.7,587.1L829.7,587.1z"/>
	<path class="st22" d="M851.1,585.5c-0.5,0-0.8,0.4-0.8,0.9c0,0,0,0,0,0c0,0.5,0.2,0.7,0.6,0.7s0.8-0.2,0.8-0.6
		S851.5,585.5,851.1,585.5L851.1,585.5z"/>
	<path class="st22" d="M856.2,582.9c-0.8,0-1.2,0.7-1.2,1.6s0.3,1.1,1.1,1.1s1.5-0.3,1.5-1.1C857.6,583.6,857,582.9,856.2,582.9
		L856.2,582.9z"/>
	<path class="st22" d="M854.6,588.6c-0.6,0-1.1,0.5-1.1,1.1c0,0.6,0.4,1,1,1c0.5,0,0.9-0.3,0.9-0.8c0-0.1,0-0.1,0-0.2
		C855.4,589.1,855.2,588.5,854.6,588.6L854.6,588.6z"/>
	<path d="M819.9,539.5L819.9,539.5h-0.2c-0.1,0-0.2,0-0.3-0.1c-0.2-0.1-0.4-0.2-0.5-0.4c-0.5-0.4-0.9-0.9-1.2-1.5
		c-0.2-0.2-0.3-0.5-0.4-0.7c-0.2-0.4-0.4-0.8-0.6-1.2l0,0c-0.2-0.5-0.4-0.9-0.5-1.4c-0.1-0.3-0.1-0.6,0.1-0.9c0.2-0.2,0.5-0.2,0.9,0
		c0.5,0.3,1,0.6,1.4,1.1l0,0c0.3,0.4,0.6,0.8,0.9,1.3c0.2,0.3,0.3,0.6,0.4,0.8c0.3,0.6,0.4,1.3,0.5,2c0,0.2,0,0.5-0.1,0.7l0,0
		c0,0.1-0.1,0.2-0.1,0.2l-0.1,0.1l0,0L819.9,539.5L819.9,539.5z"/>
	<path d="M823.4,537.4c-0.5,0.1-1.1-0.6-1.5-1.6l0,0c-0.1-0.2-0.2-0.5-0.3-0.7c-0.1-0.3-0.2-0.6-0.3-0.9c-0.1-0.3-0.1-0.5-0.1-0.8
		c0-0.2,0-0.4,0-0.6c0-0.2,0.1-0.3,0.2-0.5c0.1-0.1,0.3-0.2,0.5-0.1c0.3,0,0.5,0.1,0.7,0.3c0.3,0.2,0.5,0.5,0.7,0.8
		c0.4,0.6,0.7,1.3,0.8,2.1l0,0C824.2,536.4,823.9,537.3,823.4,537.4L823.4,537.4z"/>
	<path d="M836.1,566.6c0.4,0,0.8-0.1,1.1-0.1c0.5,0,1,0,1.3-0.1h0.1c0.3-0.1,0.6-0.1,0.9-0.2c0.3,0,0.7,0,1,0c0.1,0,0.2,0,0.1-0.1
		c-0.2-0.1-0.3-0.2-0.5-0.2c-0.3-0.1-0.6-0.1-0.8-0.2c-0.3,0-0.6,0-0.8,0h-0.2l-1.3,0.4c-0.3,0.1-0.7,0.2-1,0.2
		c-0.2,0-0.3,0.1-0.3,0.2C835.6,566.6,835.8,566.7,836.1,566.6L836.1,566.6z"/>
	<path d="M836.9,564c0.3,0,0.5,0,0.8,0c0.3,0,0.5,0.1,0.8,0.1l0,0c0.4-0.1,0.8-0.1,1.2-0.1c0.2,0,0-0.1-0.3-0.3
		c-0.3-0.2-0.7-0.3-1-0.3c-0.1,0-0.2,0-0.3,0l-0.9,0.2c-0.2,0.1-0.4,0.1-0.7,0.1c-0.2,0-0.2,0.1-0.2,0.1S836.7,564,836.9,564
		L836.9,564z"/>
	<path d="M838.6,565.8c0-0.9,0-3,0.1-5.6c0-2.1,0.1-4.6,0.2-6.8c0-0.9,0.1-1.7,0.1-2.5c0-0.3,0-0.6,0.1-0.8c0-0.2,0-0.3,0.1-0.5
		c0.1-0.4,0.1-0.7,0.2-1.1l0,0c0.1-0.7,0.1-1.3,0.1-1.7c0,0,0-0.1,0-0.1c0-1,0-2.6-0.1-4.3c0-1.4-0.1-3-0.3-4.6
		c-0.1-0.6-0.2-1.2-0.3-1.8c-0.1-0.4-0.2-0.9-0.4-1.3c-0.4-0.7-0.7-1.5-1.1-2.1c-0.1-0.2-0.2-0.3-0.3-0.5c-0.1-0.1-0.2-0.3-0.4-0.4
		c-0.1-0.1-0.2-0.1-0.3-0.2h-0.2l0,0c0.2,0.1,0.3,0.2,0.4,0.3c0.1,0.1,0.2,0.2,0.3,0.3c0.1,0.2,0.2,0.3,0.3,0.5
		c0.2,0.3,0.3,0.6,0.5,1s0.3,0.8,0.5,1.2c0.2,0.4,0.3,0.8,0.3,1.2c0.1,0.6,0.2,1.2,0.2,1.8c0.1,1.5,0.2,3,0.2,4.6
		c0,1.5,0,3.1-0.1,4.4l0,0c0,0.6,0,1.2-0.1,1.7c0,0.3,0,0.6-0.1,0.8c0,0.1,0,0.1,0,0.2l0,0c0,0.2-0.1,0.4-0.1,0.6l0,0
		c0,0.3,0,0.6,0,0.9l0,0c0,0.8,0,1.7-0.1,2.5c0,2.3,0,4.7,0,6.8c0,2.6,0,4.9,0,6.5c0,0.1,0,0.3,0,0.4c0,0.7,0,1.3,0,1.7
		c0,0.3,0,0.4,0,0.6c0,0,0,0.1,0,0.2l0,0l0,0l0,0c0,0,0-0.1,0-0.2c0-0.1,0-0.3,0-0.6c0-0.5,0-1.2,0-2.1c0-0.3,0-0.6,0-0.9
		L838.6,565.8z"/>
	<path class="st28" d="M839.7,596c-1.4,0.1-2.4,1.2-2.4,2.5c0,1.4,1.2,1.5,2.5,1.5s2.3,0,2.3-1.5C842.1,597.2,841.1,596.1,839.7,596
		z"/>
	<path class="st26" d="M824.7,558.8c0,0-2.8,0.3-3.7-1.5"/>
	<path class="st26" d="M852.8,559c0,0,2.8,0.3,3.7-1.5"/>
	<path d="M806.3,648.7c0.4-0.5,1.2-0.4,2,0l0.3,0.2c0.2,0.2,0.4,0.4,0.6,0.6c0.2,0.2,0.3,0.5,0.3,0.8c0.1,0.2,0.1,0.5,0,0.7
		c-0.1,0.2-0.3,0.4-0.6,0.5c-0.3,0.1-0.7,0-1-0.1c-0.3-0.1-0.6-0.3-0.9-0.5c-0.1-0.1-0.2-0.2-0.3-0.3
		C806.1,650,805.9,649.2,806.3,648.7L806.3,648.7z"/>
	<path d="M808.3,645.7c0.3-0.3,0.6-0.4,1-0.3c0.5,0.1,1.1,0.3,1.5,0.5h0.1c0.4,0.2,0.7,0.5,1,0.8c0.1,0.1,0.2,0.2,0.3,0.3
		c0.1,0.2,0.2,0.4,0.2,0.6c0,0.1,0,0.2,0,0.3c0,0.1-0.1,0.2-0.1,0.3c-0.1,0.1-0.2,0.2-0.3,0.2c-0.2,0.1-0.3,0.1-0.5,0.1
		c-0.2,0-0.3,0-0.5,0c-0.5-0.1-0.9-0.3-1.3-0.5l-0.1,0c-0.5-0.3-0.9-0.7-1.2-1.2C808.1,646.4,808.1,646,808.3,645.7L808.3,645.7z"/>
	<path d="M840.4,657.9c0.1-0.3,0.2-0.8,0.3-1.4c0.1-0.7,0.3-1.4,0.3-2.1c0.1-0.9,0.2-1.9,0.3-3.1l0,0c0.2-2,0.3-4.4,0.4-6.7l0,0
		c0-0.9,0-1.7,0-2.5c0-1.2-0.1-2.3-0.2-3.4c-0.3-3.4-0.6-6.2-0.7-7.5l-0.1-0.6c-0.2-1.8-0.6-4.4-1-7.4l0,0c-0.1-0.8-0.2-1.7-0.4-2.6
		l0,0c0-0.3-0.1-0.6-0.2-0.8s-0.1-0.3-0.1-0.5v-0.2l0,0c0-0.2,0-0.5,0-0.7c0-1,0-2,0-3c0-1.5-0.1-3-0.3-4.4c0-0.2,0-0.4-0.1-0.6
		c0-0.3-0.1-0.6-0.1-0.8s0-0.3-0.1-0.4v-0.1l0,0c0,0,0,0.1,0,0.1s0,0.2,0,0.4c0,0.3,0.1,0.8,0.1,1.3c0.1,1.5,0.2,2.9,0.1,4.4
		c0,0.9,0,1.9,0,3c0,0.2,0,0.5,0,0.7c0,0.1,0,0.1,0,0.2v0.1c0,0.2,0.1,0.3,0.1,0.5s0.1,0.5,0.1,0.8c0.1,0.8,0.2,1.7,0.3,2.6
		c0.3,2.5,0.6,5.1,0.8,7.4c0.2,1.6,0.3,3.1,0.5,4.3s0.3,2.5,0.4,3.8s0.2,2.3,0.3,3.4l0,0c0.1,0.8,0.1,1.7,0.1,2.5
		c0,2.3-0.1,4.6-0.2,6.7l0,0c-0.1,1.1-0.2,2.1-0.3,3.1c-0.1,1-0.2,2-0.5,3c-0.2,0.8-0.5,1.5-0.8,2.3l-0.3,0.6
		c-1.6,3.1-1.6,3.6,0.2,0.1C840,659.5,840.2,658.7,840.4,657.9L840.4,657.9z"/>
	<path d="M841.1,620.1c-0.4,0-0.8,0.1-1.1,0.1c-0.5,0-1,0-1.3,0.1h-0.1c-0.3,0.1-0.6,0.1-0.9,0.2c-0.3,0-0.7,0-1,0
		c-0.1,0-0.2,0-0.1,0.1c0.2,0.1,0.3,0.2,0.5,0.2c0.3,0.1,0.6,0.1,0.8,0.2c0.3,0,0.6,0,0.8,0h0.2l1.3-0.4c0.3-0.1,0.7-0.2,1-0.2
		c0.2,0,0.3-0.1,0.3-0.2S841.4,620,841.1,620.1L841.1,620.1z"/>
	<path d="M840.3,618.1c-0.3,0-0.5,0-0.8,0c-0.3,0-0.5-0.1-0.8-0.1l0,0c-0.4,0.1-0.8,0.1-1.2,0.1c-0.2,0,0,0.1,0.3,0.3
		c0.3,0.2,0.7,0.3,1,0.3c0.1,0,0.2,0,0.3,0l0.9-0.2c0.2-0.1,0.4-0.1,0.7-0.1c0.2,0,0.2-0.1,0.2-0.1S840.5,618.1,840.3,618.1
		L840.3,618.1z"/>
	<path class="st20" d="M875,647.7c11.3,0,20.8,8.3,20.8,19.3c-0.1,11.1-9.2,20.1-20.4,19.9c-8.4,0-16.6-2.3-19.7-9.4
		c-1.2-3.5-1.6-7.3-1.2-11C856.1,655.6,863.8,647.8,875,647.7L875,647.7z"/>
	<path class="st24" d="M868.3,682.8c2.7,1.7,6.7,1.5,10.3,0.1c5.5-2.2,8.4-7.6,6.7-12.1s-7.2-8-12.7-5.8s-8.9,9.2-7.1,13.7
		C866,680.3,867,681.7,868.3,682.8L868.3,682.8z"/>
	<path d="M868.3,682.9c0.9,0.6,1.9,1,3,1.2c0.9,0.2,1.9,0.3,2.9,0.3c0.9,0,1.7-0.1,2.5-0.3c0.7-0.2,1.5-0.4,2.2-0.6l0,0
		c0.9-0.3,1.7-0.8,2.5-1.3c0.7-0.4,1.3-0.9,1.9-1.4c0.5-0.4,0.9-0.9,1.3-1.4c0.3-0.4,0.6-0.8,0.9-1.3c0.3-0.5,0.6-1,0.8-1.5
		c0.3-0.8,0.5-1.7,0.5-2.6c0-0.6,0-1.2-0.1-1.7c-0.1-0.6-0.3-1.2-0.5-1.8c-0.3-0.7-0.7-1.3-1.1-1.9c-0.8-1.1-1.8-2.1-3-2.8
		c-0.5-0.3-0.9-0.6-1.4-0.8l0,0c-0.4-0.2-0.9-0.4-1.3-0.5c-0.9-0.3-1.7-0.5-2.6-0.6c-0.7-0.1-1.3-0.1-2,0c-0.8,0.1-1.5,0.2-2.2,0.5
		c-0.9,0.3-1.8,0.7-2.6,1.3c-1.4,0.9-2.6,2.1-3.6,3.5c-0.3,0.4-0.6,0.9-0.8,1.3v0.1c-0.3,0.6-0.5,1.2-0.7,1.8
		c-0.2,0.8-0.4,1.7-0.5,2.5c-0.1,0.7-0.1,1.3,0,2c0.1,1.5,0.8,2.9,1.9,4c0.5,0.5,1.1,1,1.7,1.4c0.2,0.1,0.4,0.3,0.7,0.4l0,0l0,0
		c0,0-0.2-0.2-0.4-0.3c-0.3-0.2-0.5-0.5-0.8-0.8c-0.3-0.4-0.6-0.8-0.8-1.2c-0.3-0.5-0.5-1.1-0.6-1.7c-0.1-0.6-0.2-1.1-0.2-1.7
		c0-0.6,0.1-1.2,0.2-1.8c0.3-1.3,0.8-2.5,1.4-3.6c0.3-0.6,0.7-1.2,1-1.7c0.6-0.9,1.2-1.7,2-2.5c0.8-0.7,1.6-1.4,2.6-1.8
		c0.7-0.3,1.4-0.6,2.1-0.7c0.7-0.1,1.3-0.2,2-0.1c0.6,0,1.2,0.1,1.7,0.3c0.4,0.1,0.9,0.3,1.3,0.5l0.2,0.1c0.3,0.2,0.7,0.4,1,0.7
		c1,0.8,1.8,1.7,2.5,2.8c0.4,0.6,0.7,1.3,0.9,2c0.3,1.1,0.4,2.2,0.3,3.3c-0.2,1.1-0.5,2.1-1,3c-0.6,1-1.3,1.9-2.1,2.7
		c-0.4,0.4-0.9,0.8-1.3,1.2c-0.6,0.5-1.3,0.9-2,1.3c-1.1,0.5-2.2,0.9-3.3,1.2c-1.1,0.2-2.3,0.3-3.4,0.2c-0.9-0.1-1.7-0.3-2.5-0.6
		c-0.3-0.1-0.5-0.2-0.7-0.3L868.3,682.9L868.3,682.9z"/>
	<path class="st23" d="M875,647.7c-6.2-0.1-12.1,2.6-15.9,7.5c0.4-0.4,0.7-0.8,1.1-1.2s0.9-0.8,1.4-1.2s1-0.7,1.5-1s1-0.6,1.6-0.9
		s1.1-0.5,1.7-0.8s1.2-0.4,1.8-0.6s1.2-0.3,1.9-0.4s1.3-0.2,2-0.3s1.4-0.1,2.1-0.1s1.4,0,2.1,0.1s1.4,0.2,2,0.3s1.3,0.3,2,0.5
		s1.3,0.4,1.9,0.6s1.2,0.5,1.8,0.8s1.2,0.6,1.7,1s1.1,0.7,1.6,1.1s1,0.8,1.5,1.2s0.9,0.9,1.3,1.3s0.8,1,1.2,1.5c0.4,0.5,0.7,1,1,1.6
		c0.3,0.6,0.6,1.1,0.9,1.7c0.5,1.2,1,2.4,1.2,3.7c0.1,0.7,0.3,1.3,0.3,2c0.1,0.7,0.1,1.3,0.1,2c0,0.7,0,1.3-0.1,2
		c-0.2,2-0.7,3.9-1.5,5.7c-0.3,0.6-0.5,1.2-0.8,1.7s-0.7,1.1-1,1.6c-0.2,0.3-0.5,0.6-0.7,0.9c3.3-3.6,5.1-8.3,5.1-13.1
		C895.8,656,886.3,647.7,875,647.7L875,647.7z"/>
	<path class="st21" d="M857.9,657.2c-1.7,2.8-2.8,6-3.3,9.3c-0.4,3.7,0.1,7.5,1.2,11c3.1,7.1,11.3,9.4,19.7,9.4
		c7.9,0,15.1-4.5,18.5-11.6c-0.2,0.3-0.3,0.6-0.5,0.8c-0.4,0.5-0.8,1-1.2,1.5s-0.8,1-1.3,1.4s-0.9,0.9-1.5,1.3s-1,0.8-1.6,1.2
		s-1.1,0.7-1.7,1s-1.2,0.6-1.8,0.8s-1.2,0.5-1.9,0.7s-1.3,0.4-2,0.5s-1.3,0.2-2,0.3s-1.4,0.1-2.1,0.1c-1,0-2.1,0-3.1-0.1
		s-2.1-0.2-3-0.4c-1-0.2-2-0.4-2.9-0.6c-0.9-0.3-1.8-0.6-2.7-0.9c-0.9-0.4-1.7-0.8-2.5-1.3c-0.4-0.2-0.8-0.5-1.1-0.8s-0.7-0.6-1-0.9
		c-0.4-0.3-0.7-0.6-1-1c-0.6-0.7-1.2-1.4-1.6-2.2c-0.2-0.4-0.4-0.8-0.6-1.3c-0.3-0.7-0.5-1.5-0.7-2.3c-0.2-1-0.4-2-0.5-3
		c-0.1-1-0.2-2.1-0.2-3.1c0-0.9,0-1.8,0.1-2.7c0.1-0.7,0.2-1.3,0.4-2s0.3-1.3,0.5-1.9s0.4-1.2,0.6-1.8S857.7,657.6,857.9,657.2
		L857.9,657.2z"/>
	<path d="M875.4,647.7c1.5,0,2.9,0.1,4.3,0.5c1.3,0.3,2.6,0.7,3.8,1.3c2.2,0.9,4.1,2.3,5.8,3.9l0,0c1.1,1.1,2.1,2.3,2.9,3.7
		c0.7,1.2,1.3,2.4,1.7,3.7c0.4,1.1,0.7,2.2,0.8,3.4c0.1,1,0.2,2,0.2,3l0,0c0,0.9-0.1,1.8-0.3,2.8c-0.1,0.8-0.3,1.5-0.6,2.3
		c-0.4,1.2-0.9,2.4-1.5,3.5c-0.4,0.8-0.9,1.5-1.3,2.2c-1.4,1.9-3,3.6-5,4.9c-1.1,0.7-2.2,1.4-3.4,1.9c-1.2,0.5-2.5,0.9-3.8,1.2
		c-1.2,0.3-2.5,0.4-3.7,0.5c-1.5,0-2.9,0-4.4-0.1c-1.3-0.1-2.3-0.3-2.9-0.4c-0.6-0.1-1.2-0.3-1.8-0.4c-0.9-0.3-1.7-0.6-2.5-0.9
		c-1.6-0.7-3.1-1.7-4.4-2.9c-1.3-1.2-2.3-2.7-2.9-4.3c-0.3-0.7-0.5-1.4-0.6-2.2c-0.2-1-0.3-1.9-0.4-2.9c-0.1-1-0.1-2-0.1-3
		c0-0.9,0.1-1.7,0.2-2.6c0.2-0.9,0.4-1.8,0.6-2.7c0.2-0.8,0.4-1.4,0.5-1.9c0.4-1.4,1-2.7,1.7-4c0.9-1.7,2.1-3.3,3.5-4.7
		c0.8-0.8,1.7-1.6,2.7-2.3c1-0.7,2-1.3,3.1-1.8c1-0.5,2.1-0.9,3.2-1.2c1-0.3,2.1-0.5,3.1-0.6c0.9-0.1,1.3-0.1,1.4-0.1l0,0l0,0
		c-0.5-0.1-1-0.1-1.5-0.1c-1.2,0-2.3,0.2-3.5,0.4c-1.6,0.3-3.2,0.8-4.7,1.5c-1.8,0.8-3.4,1.8-4.9,3c-1.1,0.9-2.1,2-2.9,3.1
		c-0.9,1.1-1.6,2.3-2.2,3.6c-0.6,1.2-1.1,2.4-1.4,3.6c-0.3,1.1-0.6,2.2-0.7,3.3c0,0.2,0,0.3-0.1,0.5c-0.2,2-0.1,4,0.3,6
		c0.1,1,0.3,2,0.6,3l0,0c0.2,0.8,0.5,1.6,0.8,2.4c0.8,1.7,2,3.3,3.5,4.5l0,0c1.4,1.2,3.1,2.2,4.8,2.8c1.2,0.5,2.5,0.9,3.7,1.2
		c1.1,0.3,2.1,0.4,3,0.6c0.5,0.1,1.3,0.2,2.1,0.3s1.9,0.2,3.1,0.2c1.2,0,2.4,0,3.5-0.2c2.8-0.4,5.4-1.3,7.8-2.8
		c1.3-0.8,2.5-1.7,3.6-2.7c1.1-1.1,2.1-2.3,3-3.6c0.8-1.3,1.5-2.6,2-4c0.5-1.2,0.8-2.5,1-3.8c0.2-1.1,0.3-2.2,0.2-3.3
		c0-0.5,0-1-0.1-1.4c-0.1-1-0.3-1.9-0.5-2.8c-0.7-2.5-1.8-4.8-3.3-6.8c-0.8-1.1-1.8-2.2-2.8-3.1c-1.5-1.3-3.1-2.4-4.9-3.2
		c-1.5-0.7-3.1-1.2-4.8-1.5c-1.2-0.2-2.3-0.3-3.5-0.4c-0.8,0-1.3,0-1.3,0L875.4,647.7z"/>
	<path class="st29" d="M868.2,651.9c-1,1-1.1,2.7-0.8,4.4c0.4,2.6,2.1,4.4,4.3,4c2.4-0.4,4-2.7,3.6-5.1c-0.4-2.6-3-4.7-5.2-4.3
		C869.3,651,868.7,651.3,868.2,651.9L868.2,651.9z"/>
	<path class="st29" d="M880.8,651.9c-1.2,0.4-1.9,1.7-2.4,3.1c-0.7,2.2-0.1,4.3,1.7,4.9c2.1,0.6,4.2-0.5,4.9-2.5
		c0.7-2.2-0.5-4.9-2.3-5.5C882.1,651.7,881.4,651.7,880.8,651.9L880.8,651.9z"/>
	<path class="st29" d="M889.1,658.5c-1.1,0.5-1.9,1.4-2.2,2.6c-0.7,1.9-0.3,3.7,1.2,4.3c1.7,0.6,3.7-0.2,4.4-1.9
		c0.7-1.9-0.2-4.3-1.7-4.9C890.2,658.4,889.6,658.3,889.1,658.5z"/>
	<path class="st20" d="M808.8,653.2c-11-0.3-20.2,8.3-20.6,19.3s8.3,20.2,19.3,20.6c0.4,0,0.8,0,1.3,0c8.4,0,16.6-2.3,19.7-9.4
		c1-2.4,1.6-9.7,1-12.5C827.4,660.3,820.1,653.2,808.8,653.2L808.8,653.2z"/>
	<path class="st24" d="M816.5,688.5c-3.1,1.7-6.8,1.9-10,0.5c-5.5-2.2-8.4-7.6-6.7-12.1s7.2-8,12.7-5.8s8.9,9.2,7.1,13.7
		C819,686.4,817.9,687.7,816.5,688.5z"/>
	<path class="st21" d="M793,660.6c-2.9,3.5-4.5,8-4.5,12.5c0.1,11.1,9.2,20.1,20.4,19.9c0,0,0,0,0,0c7.8,0,15.3-2,18.9-7.9v0.1
		c-0.3,0.4-0.6,0.7-1,1c-0.3,0.3-0.7,0.6-1,0.9s-0.7,0.5-1.1,0.8c-0.8,0.5-1.6,0.9-2.5,1.3c-0.9,0.4-1.8,0.7-2.7,1
		c-1,0.3-1.9,0.5-2.9,0.6c-1,0.2-2,0.3-3,0.4s-2.1,0.1-3.1,0.1c-0.7,0-1.4,0-2.1-0.1s-1.4-0.2-2-0.3s-1.3-0.3-2-0.5
		s-1.3-0.4-1.9-0.7s-1.2-0.5-1.8-0.8s-1.1-0.6-1.7-1s-1.1-0.7-1.6-1.1s-1-0.8-1.5-1.3s-0.9-0.9-1.3-1.4s-0.8-1-1.2-1.5
		s-0.7-1.1-1-1.6s-0.6-1.2-0.9-1.7c-0.8-1.8-1.3-3.7-1.5-5.7c-0.1-1.4-0.1-2.7,0-4.1c0.2-2,0.7-3.9,1.5-5.7c0.3-0.6,0.5-1.2,0.9-1.7
		C792.6,661.4,792.9,661,793,660.6L793,660.6z"/>
	<path d="M808.8,652.5c-1.5,0-3.1,0.2-4.6,0.5c-1.4,0.3-2.7,0.8-4,1.3c-2.3,1-4.4,2.4-6.2,4.2l0,0c-1.2,1.2-2.2,2.5-3.1,3.9
		c-0.8,1.2-1.4,2.5-1.9,3.9c-0.4,1.2-0.8,2.4-1,3.6c-0.2,1.1-0.3,2.1-0.3,3.2l0,0c0,1,0,2,0.2,3c0.1,0.9,0.3,1.7,0.5,2.6
		c0.4,1.4,0.9,2.7,1.5,4c0.4,0.8,0.9,1.6,1.5,2.4c0.7,1,1.5,1.9,2.4,2.8c1,0.9,2,1.8,3.2,2.5c2.4,1.5,5.1,2.5,7.9,3
		c1.3,0.2,2.7,0.3,4,0.3c1.5,0,3.1-0.2,4.6-0.4c1.3-0.2,2.3-0.4,3-0.6c0.4-0.1,1.1-0.3,1.8-0.5c0.9-0.2,1.8-0.5,2.6-0.9
		c1.8-0.7,3.4-1.7,4.9-2.9c1.5-1.3,2.7-2.8,3.5-4.6c0.4-0.9,0.6-1.8,0.8-2.7c0.3-1.2,0.4-2.4,0.5-3.6s0.2-2.5,0.2-3.7l0,0
		c0-1,0-2-0.2-3c-0.2-1.2-0.6-2.5-1-3.7c-0.6-1.6-1.2-3.1-2.1-4.5c-1.2-2-2.6-3.7-4.3-5.2c-0.9-0.8-1.9-1.4-3-2
		c-1-0.6-2.1-1.1-3.3-1.4c-1.1-0.4-2.2-0.7-3.4-0.9c-1.1-0.2-2.1-0.3-3.2-0.3c-0.5,0-0.8,0-1.1,0c-0.1,0-0.3,0-0.5,0l0,0l0,0
		c0.1,0,0.7,0.1,1.5,0.2c1.1,0.1,2.2,0.3,3.3,0.6c1.5,0.4,2.9,1,4.3,1.7c1.6,0.9,3,1.9,4.2,3.2c0.9,0.9,1.7,1.9,2.4,3
		c0.7,1.1,1.3,2.2,1.8,3.3c0.9,2.1,1.6,4.2,2.1,6.4c0.1,0.2,0.1,0.5,0.1,0.7c0.1,0.6,0.1,1.2,0.2,1.9c0.1,1.2,0,2.3,0,3.5
		s-0.1,2.3-0.3,3.5c-0.1,0.8-0.3,1.7-0.5,2.5c-0.7,1.7-1.7,3.2-2.9,4.4l0,0c-1.3,1.3-2.8,2.3-4.5,3c-1.2,0.5-2.3,0.9-3.6,1.2
		c-1,0.2-1.9,0.4-2.9,0.5c-0.5,0.1-1.3,0.1-2.2,0.2s-1.9,0-3.1,0c-1.1,0-2.3-0.2-3.4-0.4c-2.6-0.5-5.1-1.5-7.3-3
		c-1.2-0.8-2.2-1.6-3.2-2.6c-1-1-1.9-2.2-2.7-3.4c-1.3-2.2-2.3-4.6-2.7-7.2c-0.2-1-0.3-2-0.3-3c0-0.5,0-0.9,0-1.3
		c0-0.9,0.1-1.8,0.3-2.7c0.2-1.1,0.5-2.2,0.8-3.3c0.4-1.2,1-2.4,1.6-3.5c0.7-1.2,1.5-2.3,2.5-3.3c1.3-1.4,2.9-2.7,4.6-3.7
		c1.5-0.9,3.1-1.6,4.7-2.1c1.2-0.4,2.4-0.6,3.6-0.7C808.3,652.5,808.9,652.5,808.8,652.5L808.8,652.5z"/>
	<path d="M816.1,687.9c-0.8,0.5-1.7,0.9-2.7,1.1c-0.8,0.2-1.7,0.3-2.6,0.3c-0.8,0-1.5-0.1-2.3-0.3c-0.7-0.2-1.3-0.4-1.9-0.6
		c-0.8-0.3-1.5-0.8-2.2-1.3c-0.6-0.4-1.1-0.9-1.5-1.3c-0.4-0.4-0.7-0.8-1-1.3c-0.2-0.4-0.5-0.8-0.7-1.2c-0.2-0.4-0.4-0.8-0.5-1.3
		c-0.2-0.7-0.4-1.4-0.4-2.1c-0.1-0.9,0-1.9,0.3-2.8c0.2-0.6,0.5-1.2,0.8-1.7c0.3-0.5,0.7-1,1.1-1.5c0.4-0.4,0.8-0.8,1.3-1.2
		c0.4-0.3,0.8-0.6,1.2-0.8c0.4-0.2,0.7-0.4,1.1-0.6c0.3-0.1,0.6-0.2,1-0.3c0.5-0.1,1-0.2,1.5-0.2c0.6,0,1.2,0,1.8,0.2
		c0.7,0.1,1.3,0.3,1.9,0.6c0.8,0.4,1.5,0.8,2.1,1.3c0.6,0.5,1.2,1.1,1.7,1.7c0.4,0.5,0.8,1.1,1.1,1.6c0.3,0.5,0.5,0.9,0.7,1.2l0,0
		c0.3,0.5,0.5,1,0.7,1.5c0.3,0.7,0.5,1.4,0.6,2.1c0.1,0.6,0.1,1.1,0.1,1.7c0,0.6-0.2,1.1-0.3,1.7c-0.2,0.7-0.5,1.3-0.9,1.8
		c-0.3,0.5-0.8,1-1.2,1.4c-0.3,0.3-0.4,0.4-0.5,0.4l0,0l0,0c0.2,0,0.3-0.1,0.4-0.2c0.3-0.2,0.6-0.4,0.9-0.6c0.4-0.3,0.8-0.6,1.2-1
		c0.4-0.5,0.8-1,1.2-1.5c0.3-0.6,0.6-1.2,0.7-1.9c0.1-0.7,0.2-1.4,0.2-2.1c0-0.8-0.1-1.6-0.3-2.3c-0.2-0.7-0.4-1.4-0.8-2.1
		c-0.3-0.7-0.7-1.3-1.2-1.9c-0.8-0.9-1.7-1.8-2.7-2.5c-1-0.7-2-1.2-3.2-1.6c-0.8-0.3-1.6-0.4-2.4-0.5c-0.7,0-1.5,0-2.2,0.1
		c-0.6,0.1-1.2,0.2-1.8,0.4c-0.5,0.2-1,0.3-1.4,0.5l-0.2,0.1c-1.6,0.7-3.1,1.9-4.2,3.3c-0.5,0.7-0.9,1.4-1.3,2.1
		c-0.3,0.6-0.5,1.3-0.6,1.9c-0.1,0.7-0.1,1.3-0.1,2c0.1,1.3,0.5,2.5,1.1,3.7c0.4,0.7,0.8,1.3,1.3,1.9c0.4,0.4,0.8,0.8,1.3,1.2
		c0.5,0.4,1.1,0.8,1.7,1.1c0.8,0.4,1.6,0.7,2.4,1c1.2,0.3,2.4,0.5,3.6,0.5c1.1,0,2.2-0.2,3.3-0.5c0.8-0.2,1.5-0.6,2.2-1
		c0.3-0.2,0.5-0.3,0.8-0.5L816.1,687.9z"/>
	<path class="st29" d="M816.3,657.8c1,0.8,1.3,2.4,1.3,4c-0.1,2.5-1.5,4.4-3.5,4.3c-2.3-0.1-4.1-2.1-4.1-4.4
		c0.1-2.5,2.3-4.8,4.4-4.7C815.1,657.1,815.7,657.3,816.3,657.8L816.3,657.8z"/>
	<path class="st29" d="M804.3,658c1.2,0.4,1.9,1.7,2.4,3.1c0.7,2.2,0.1,4.3-1.7,4.9c-2.1,0.6-4.2-0.5-4.9-2.6
		c-0.7-2.2,0.5-4.9,2.3-5.5C803,657.8,803.6,657.8,804.3,658L804.3,658z"/>
	<path class="st29" d="M795.7,664.4c1.2,0.4,2.1,1.3,2.5,2.5c0.9,1.9,0.6,3.8-0.9,4.5c-1.7,0.8-3.8,0.1-4.7-1.7
		c-0.9-1.9-0.1-4.4,1.4-5.2C794.5,664.4,795.1,664.3,795.7,664.4L795.7,664.4z"/>
	<path d="M799.8,650.7h0.1h0.1h0.2c0.2,0,0.3,0.1,0.5,0.1c0.3,0.2,0.6,0.4,0.9,0.8c0.1,0.1,0.1,0.2,0.2,0.3c0.1,0.2,0.3,0.5,0.3,0.8
		c0.1,0.3,0.1,0.6,0,0.8c0,0.2-0.2,0.5-0.3,0.6c-0.2,0.2-0.5,0.2-0.7,0.2c-0.3-0.1-0.6-0.2-0.9-0.5c-0.2-0.2-0.5-0.5-0.6-0.8
		c-0.1-0.1-0.1-0.2-0.2-0.4c-0.2-0.4-0.2-0.8-0.2-1.2c0-0.2,0.1-0.3,0.2-0.5c0-0.1,0.1-0.1,0.2-0.2l0.1-0.1L799.8,650.7L799.8,650.7
		z"/>
	<path class="st25" d="M839.6,653.4L839.6,653.4l0.3,0.3l0.4,0.4l0.4,0.4c0.1,0.1,0.1,0.1,0.2,0.2c0,0.1,0.1,0.1,0.1,0.2l0.1,0.2
		c0.1,0.1,0.2,0.2,0.3,0.3c0.3,0.2,0.5,0.5,0.7,0.7c0,0.1,0.1,0.1,0.1,0c0-0.1,0-0.2,0-0.3c-0.1-0.3-0.2-0.6-0.4-0.9
		c0-0.1-0.1-0.2-0.1-0.4c-0.1-0.1-0.2-0.3-0.3-0.4l0,0c-0.1-0.1-0.2-0.1-0.3-0.2l-0.5-0.2c-0.3-0.1-0.5-0.3-0.8-0.5l-0.2-0.2
		l-0.1-0.1h-0.1c0,0,0,0-0.1,0c0,0,0,0,0,0.1c0,0,0,0.1,0,0.1C839.5,653.2,839.5,653.3,839.6,653.4L839.6,653.4z"/>
	<path d="M839.7,653.2L839.7,653.2c0.3,0.3,0.6,0.6,0.8,0.9c0.2,0.2,0.4,0.5,0.6,0.7c0.1,0.1,0.2,0.2,0.4,0.3s0.3,0.3,0.4,0.4
		c0.1,0.1,0.2,0.3,0.3,0.4c0,0.1,0.1,0.1,0.1,0c0-0.1,0-0.2,0-0.3c0-0.2-0.1-0.3-0.1-0.5c-0.1-0.2-0.2-0.3-0.3-0.5
		c-0.1-0.2-0.3-0.5-0.5-0.6l-0.5-0.3c-0.4-0.3-0.7-0.5-1-0.7l-0.2-0.1l-0.1-0.1h-0.1l0,0c0,0,0,0,0,0l0,0c0,0,0,0.1,0,0.1
		C839.5,653,839.6,653.1,839.7,653.2L839.7,653.2z"/>
	<path d="M839.7,655.8L839.7,655.8c0.1-0.1,0.5-0.4,0.9-0.7c0.3-0.2,0.5-0.4,0.7-0.6l0.4-0.6c0.2-0.3,0.4-0.5,0.5-0.8s0-0.1-0.1-0.1
		c-0.2,0.1-0.3,0.2-0.5,0.3c-0.2,0.1-0.4,0.3-0.6,0.4c-0.2,0.1-0.3,0.3-0.5,0.5l-0.4,0.5c-0.2,0.3-0.4,0.6-0.7,0.8l-0.1,0.1
		c0,0-0.1,0.1-0.1,0.1c0,0,0,0.1,0,0.1l0,0l0,0l0,0h0.1C839.5,655.9,839.6,655.8,839.7,655.8L839.7,655.8z"/>
	<g id="path3334">
		
			<image style="overflow:visible;opacity:0.75;enable-background:new    ;" width="48" height="233" xlink:href="F00496F3.png"  transform="matrix(0.9792 0 0 0.9957 877 490)">
		</image>
		
			<linearGradient id="SVGID_10_" gradientUnits="userSpaceOnUse" x1="1479.13" y1="790.3795" x2="1506.4" y2="788.4395" gradientTransform="matrix(1 0 0 1 -601.88 -192.22)">
			<stop  offset="0" style="stop-color:#4F2D17"/>
			<stop  offset="0.49" style="stop-color:#D28C5F"/>
			<stop  offset="1" style="stop-color:#482914"/>
		</linearGradient>
		<polygon class="st30" points="904.9,703.1 892.2,703.4 881.8,614.1 877.7,528.5 877.7,491.2 888.4,491.2 894.8,528.5 899.2,591 
			903,664.8 		"/>
		<polygon class="st19" points="904.9,703.1 892.2,703.4 881.8,614.1 877.7,528.5 877.7,491.2 888.4,491.2 894.8,528.5 899.2,591 
			903,664.8 		"/>
	</g>
	<g id="g8423">
		
			<image style="overflow:visible;opacity:0.75;enable-background:new    ;" width="258" height="67" xlink:href="F00496FC.png"  transform="matrix(0.9961 0 0 0.9851 707 448)">
		</image>
		<path class="st7" d="M708.5,463.1v16.1c5.1,1.8,10.4,3.1,15.8,4.1c6.6,1,86.8,10.7,90,10.7s48.6,0.6,53,0.6s24.3-1.6,28.1-1.6
			s49.3-16.7,49.3-16.7l0.3-4.1l-0.6-12.6l-4.1-1.6l-115.5-8.2l-12.3-1l-20.5,0.6l-52.4,7l-26.8,4.7L708.5,463.1z"/>
		<path class="st19" d="M708.8,463.4c0,0,27.1,8.2,36.3,8.2s79.2,6.6,84.6,6.6s59.7,0.3,59.7,0.3s7-0.6,12-1s39.8-13.2,41.7-14.8
			s1.2-2.9,1.2-2.9"/>
		
			<linearGradient id="SVGID_11_" gradientUnits="userSpaceOnUse" x1="1536.9264" y1="663.9288" x2="1489.4865" y2="679.0288" gradientTransform="matrix(1 0 0 1 -601.88 -192.22)">
			<stop  offset="0" style="stop-color:#8F5228"/>
			<stop  offset="1" style="stop-color:#D28C5F"/>
		</linearGradient>
		<path class="st31" d="M885.2,478.8l0.7,14.1l11.1-0.4l24.5-8.2l22.8-8.3l0.3-6.4l-0.5-7.1l-18.9,7.8c0,0-19.3,6.8-25.1,7.7
			C895.1,478.7,890.2,478.9,885.2,478.8L885.2,478.8z"/>
	</g>
	<g id="layer1">
		
			<image style="overflow:visible;opacity:0.75;enable-background:new    ;" width="183" height="183" xlink:href="F00496FF.png"  transform="matrix(0.9945 0 0 0.9945 722.07 329.32)">
		</image>
		<path class="st32" d="M738.3,361.8c0.1-0.1,0.2-0.1,0.3-0.1h0.1l0.3,0.1l0.9,0.3c0.7,0.3,1.6,0.7,2.6,1.1c2,0.9,4.3,1.9,5.6,2.6
			c18.3,9.6,38.7,25.9,54.8,43.8c4.5,4.2,12.4,14.2,13.6,18.4c3.7,6.8,5.2,12.3,3.8,15.7c-0.4,1.1-1.7,2.6-4.6,5.5
			c-0.4,0.4-1.3,1.1-2.5,2.1s-2.8,2.2-4.3,3.3c-4.9,3.7-6.1,4.5-9.4,6.1c-6.7,3.3-14.8,5.8-19.3,5.8c-4.2,0-9.8-1.9-14-4.8
			c-7.3-5-14.6-14.3-19.9-25.2c-9.3-19.1-13.4-43.9-10.6-63.5c0.3-2,0.8-4.7,1.3-7c0.3-1.1,0.5-2.1,0.7-2.9c0.1-0.4,0.2-0.7,0.3-0.9
			s0.1-0.2,0.1-0.3C738.2,361.9,738.2,361.8,738.3,361.8L738.3,361.8z"/>
		<path class="st33" d="M722.6,360.4c0.8-0.6,1.7-0.9,2.7-1.1c1.5-0.2,3.1-0.2,4.6,0c1.8,0.2,3.6,0.6,5.4,1.1l0,0l2.3,0.6
			c0.3,0.1,0.5,0.5,0.3,0.8c0,0.1-0.1,0.2-0.2,0.2l-5.2,3.9l0,0c-2.9,2.1-5.5,4.5-8,7c-9.6,10.1-15.3,21.8-16.4,33.6
			c-0.1,0.9-0.2,1.7-0.3,2.3c0,0.3-0.1,0.5-0.1,0.7c-0.1,1.5,0.1,4.5,0.3,6.1c-0.6-2-1.2-4-1.5-6c0-0.2-0.1-0.4-0.1-0.6
			c0-0.5-0.1-1.1-0.1-1.8c-0.1-1.5-0.1-3.3-0.1-4.9c0.2-13.7,4.8-26.9,12.9-37.9c0.9-1.4,2-2.6,3.3-3.8L722.6,360.4L722.6,360.4z"/>
		<path class="st34" d="M738.9,361.1L738.9,361.1l0.7-0.4l3.3-1.8c18.5-10,41.6-12,59.7-5.1c10.2,3.9,19.3,10.9,24.1,18.8
			c8.7,14.2,10.5,33.8,4.7,51.3c-1.9,5.3-4.4,10.3-7.4,15.1c-0.5,0.8-1,1.5-1.4,2c-0.2,0.3-0.4,0.5-0.5,0.7
			c-0.5,0.7-1.1,1.4-1.8,2.1c0.3-1.2,0.5-2.3,0.5-3.5c-0.1-3.5-1.8-8.1-4.9-13.3c-3.8-6.1-8.1-11.9-12.9-17.2
			c-11.9-13.3-25.3-25-40-35c-7.7-5.2-16.2-9.9-22-12.3l-2-0.8c-0.2-0.1-0.2-0.3-0.2-0.5C738.9,361.2,738.9,361.1,738.9,361.1
			L738.9,361.1z"/>
		<path class="st35" d="M750.4,343.2l0.6-0.4c2.2-1.5,4.2-2.2,7.7-2.9c11-2,22.4-1.2,33,2.4c8.2,2.9,15.8,7.4,22.3,13.2
			c2.1,2,4.1,4.1,6,6.3c1,1.1,1.8,2.1,2.4,3c0.3,0.4,0.6,0.8,0.7,1c0.1,0.1,0.2,0.3,0.2,0.4c1,1.5,1.8,3.1,2.5,4.7
			c-0.2,0-3.1-3.9-3.4-4c-0.2-0.2-0.5-0.4-0.7-0.6c-2.6-2.6-5.4-4.9-8.4-7c-7.8-5.1-16-8-26.3-9.1c-13.1-1.4-26.3,0.7-38.4,6
			c-1.2,0.5-3.3,1.5-5.3,2.5c-1,0.5-1.9,1-2.6,1.3s-1.3,0.7-1.4,0.8c-0.1,0.1-0.1,0.1-0.2,0.1c-0.2,0-0.3-0.1-0.5-0.2
			c-0.2-0.2-0.1-0.3-0.1-0.4c0-0.2,0.1-0.3,0.1-0.5c0.1-0.3,0.3-0.8,0.5-1.4c0.4-1.1,1-2.6,1.6-3.8c0.8-1.6,1.8-3.2,2.8-4.7
			c1.3-2,2.9-3.8,4.8-5.3C749.3,344.1,749.8,343.7,750.4,343.2L750.4,343.2z"/>
		<path class="st36" d="M731.5,352.2c2.1-1.6,4.2-3.1,6.5-4.4c3.4-2,7-3.6,10.7-5l0,0l1.7-0.5c0.7-0.3,1.5-0.5,2.3-0.6
			c0.1,0.1-1.8,1.1-2,1.2l-1,0.8l0,0c-4.2,3.3-8.1,9.1-10.4,15.2c-0.2,0.6-0.4,1.1-0.6,1.5c-0.1,0.2-0.1,0.3-0.2,0.5
			c0,0.1-0.1,0.1-0.1,0.2c0,0-0.1,0.1-0.1,0.1c-0.1,0-0.2,0.1-0.3,0l-0.4-0.1l-0.7-0.2l-2.1-0.6c-3.1-0.9-7.5-1.4-9.3-1l-1.4,0.3
			c-0.1,0-0.9,0.5-1,0.4s0.6-0.8,0.7-0.9l1.9-1.9C727.5,355.4,729.4,353.7,731.5,352.2L731.5,352.2z"/>
		<path class="st35" d="M734.3,364.1c0.5-0.4,1-0.8,1.4-1s0.8-0.5,1.1-0.7l0.4-0.2c0.4-0.2,0.8-0.4,1.1-0.6
			c-0.2,0.3-0.3,0.7-0.3,1.1c0,0.2-0.1,0.4-0.1,0.6c-0.1,0.5-0.4,1.2-0.6,2c-5,19.7-2.1,46,7.3,67.5c2.9,7.1,6.9,13.7,11.9,19.5
			c4.1,5.1,5.5,6.4,9.3,9.2c2.6,1.8,5.4,3.2,8.4,4.2c0.8,0.2,1.5,0.4,1.8,0.5c0.1,0,0.2,0.1,0.3,0.1c0.1,0.1,0.2,0.2,0.3,0.4
			c0,0.1,0,0.2-0.1,0.3c0,0.1-0.1,0.1-0.2,0.1c-0.1,0-0.2,0.1-0.3,0.1c-0.8,0.1-1.6,0.2-2.5,0.2c-23.5,1.1-45.6-10.7-57.9-30.7
			c-7.7-12.7-9.8-24.4-6.7-37.4c2.4-10.1,8.9-20.8,17.5-28.9c1.4-1.3,3.9-3.4,6.2-5.2C733.2,364.9,733.8,364.5,734.3,364.1
			L734.3,364.1z"/>
		<ellipse transform="matrix(0.7915 -0.6111 0.6111 0.7915 -67.3225 526.4484)" class="st0" cx="738" cy="361.9" rx="12.5" ry="7"/>
		<path class="st37" d="M806.7,350c29.4,20,37,60.1,16.9,89.5c-20,29.4-60.1,37-89.5,16.9c-1.6-1.1-3.1-2.2-4.5-3.4
			c29.4,19.9,69.5,12.2,89.4-17.2C837.6,408.3,832.3,371.1,806.7,350z"/>
		
			<linearGradient id="SVGID_12_" gradientUnits="userSpaceOnUse" x1="-2040.8101" y1="550.5572" x2="-2121.3601" y2="597.0772" gradientTransform="matrix(-0.87 0 0 0.87 -1070.1 -113.44)">
			<stop  offset="0" style="stop-color:#FFFFFF;stop-opacity:0.67"/>
			<stop  offset="1" style="stop-color:#FFFFFF;stop-opacity:0"/>
		</linearGradient>
		<path class="st38" d="M814.8,355c-26.8-24.1-68.1-21.8-92.2,5c-24.1,26.8-21.8,68.1,5,92.2c7.4,6.7,16.3,11.5,25.9,14.2"/>
	</g>
</g>
</svg>
