<?xml version="1.0" encoding="UTF-8" standalone="no"?>
<!-- Generator: Adobe Illustrator 20.0.0, SVG Export Plug-In . SVG Version: 6.00 Build 0)  -->

<svg
   xmlns:dc="http://purl.org/dc/elements/1.1/"
   xmlns:cc="http://creativecommons.org/ns#"
   xmlns:rdf="http://www.w3.org/1999/02/22-rdf-syntax-ns#"
   xmlns:svg="http://www.w3.org/2000/svg"
   xmlns="http://www.w3.org/2000/svg"
   xmlns:xlink="http://www.w3.org/1999/xlink"
   xmlns:sodipodi="http://sodipodi.sourceforge.net/DTD/sodipodi-0.dtd"
   xmlns:inkscape="http://www.inkscape.org/namespaces/inkscape"
   version="1.1"
   id="svg16054"
   inkscape:version="0.91 r13725"
   sodipodi:docname="quiz6.svg"
   x="0px"
   y="0px"
   viewBox="0 0 2125.9999 1187"
   xml:space="preserve"
   width="2126"
   height="1187"><metadata
     id="metadata359"><rdf:RDF><cc:Work
         rdf:about=""><dc:format>image/svg+xml</dc:format><dc:type
           rdf:resource="http://purl.org/dc/dcmitype/StillImage" /><dc:title></dc:title></cc:Work></rdf:RDF></metadata><style
     type="text/css"
     id="style3">
	.st0{fill:#FFFFFF;}
	.st1{fill:#6B3C1F;stroke:#000000;}
	.st2{fill:#6B3C1F;stroke:#000000;stroke-linejoin:round;}
	.st3{fill:url(#SVGID_1_);stroke:#000000;}
	.st4{fill:#8D5027;stroke:#000000;}
	.st5{fill:url(#SVGID_2_);stroke:#000000;}
	.st6{fill:url(#SVGID_3_);stroke:#000000;}
	.st7{fill:#D28C5F;stroke:#000000;}
	.st8{fill:url(#SVGID_4_);stroke:#000000;}
	.st9{fill:url(#SVGID_5_);stroke:#000000;}
	.st10{fill:url(#SVGID_6_);stroke:#000000;}
	.st11{fill:url(#SVGID_7_);stroke:#000000;}
	.st12{fill:url(#SVGID_8_);stroke:#000000;stroke-width:1.02;}
	.st13{fill:url(#SVGID_9_);stroke:#000000;}
	.st14{fill:#855B3E;}
	.st15{fill:none;stroke:#000000;stroke-width:1.02;}
	.st16{fill:#A05B2B;stroke:#000000;stroke-width:1.02;}
	.st17{fill:#6C5353;stroke:#000000;stroke-width:1.02;}
	.st18{fill:#906F6F;stroke:#000000;stroke-width:1.02;}
	.st19{fill:none;stroke:#000000;}
	.st20{fill:url(#SVGID_10_);}
	.st21{fill:url(#SVGID_11_);}
	.st22{fill:#A06121;}
	.st23{fill:#B8854F;}
	.st24{fill:#834317;stroke:#000000;stroke-width:1.67;}
	.st25{fill:#834317;stroke:#000000;stroke-width:3.36;}
	.st26{fill:#834317;stroke:#000000;stroke-width:3.78;}
	.st27{fill:#834317;stroke:#000000;stroke-width:2.63;}
	.st28{fill:#834317;}
	.st29{fill:#956C45;stroke:#000000;stroke-width:2.83;}
	.st30{fill:#6E4A25;}
	.st31{fill:#5D381E;}
	.st32{fill:#DDCEBE;}
	.st33{fill:none;stroke:#000000;stroke-width:5;}
	.st34{fill:none;stroke:#000000;stroke-width:4;}
	.st35{stroke:#000000;stroke-width:5;}
	.st36{fill:#956C45;stroke:#000000;stroke-width:3;}
	.st37{fill:#834317;stroke:#000000;stroke-width:1.99;}
</style><defs
     id="defs5"><inkscape:path-effect
       effect="spiro"
       id="path-effect5341"
       is_visible="true" /><inkscape:path-effect
       effect="spiro"
       id="path-effect17606"
       is_visible="true" /><inkscape:path-effect
       effect="spiro"
       id="path-effect16830"
       is_visible="true" /><inkscape:path-effect
       effect="spiro"
       id="path-effect16826"
       is_visible="true" /><inkscape:path-effect
       effect="spiro"
       id="path-effect16822"
       is_visible="true" /><inkscape:path-effect
       effect="spiro"
       id="path-effect16818"
       is_visible="true" /><inkscape:path-effect
       effect="spiro"
       id="path-effect16814"
       is_visible="true" /><inkscape:path-effect
       effect="spiro"
       id="path-effect16810"
       is_visible="true" /><inkscape:path-effect
       effect="spiro"
       id="path-effect16806"
       is_visible="true" /><inkscape:path-effect
       effect="spiro"
       id="path-effect16802"
       is_visible="true" /><inkscape:path-effect
       effect="spiro"
       id="path-effect16798"
       is_visible="true" /><inkscape:path-effect
       effect="spiro"
       id="path-effect16794"
       is_visible="true" /><inkscape:path-effect
       effect="spiro"
       id="path-effect16790"
       is_visible="true" /><inkscape:path-effect
       effect="spiro"
       id="path-effect16786"
       is_visible="true" /><inkscape:path-effect
       effect="spiro"
       id="path-effect16782"
       is_visible="true" /><inkscape:path-effect
       effect="spiro"
       id="path-effect16778"
       is_visible="true" /><inkscape:path-effect
       effect="spiro"
       id="path-effect16774"
       is_visible="true" /></defs><sodipodi:namedview
     bordercolor="#666666"
     borderlayer="true"
     borderopacity="1.0"
     fit-margin-bottom="0"
     fit-margin-left="0"
     fit-margin-right="0"
     fit-margin-top="0"
     id="base"
     inkscape:current-layer="layer2"
     inkscape:cx="789.01781"
     inkscape:cy="562.62677"
     inkscape:document-units="cm"
     inkscape:pageopacity="0.0"
     inkscape:pageshadow="2"
     inkscape:window-height="744"
     inkscape:window-maximized="1"
     inkscape:window-width="1366"
     inkscape:window-x="0"
     inkscape:window-y="24"
     inkscape:zoom="0.35"
     pagecolor="#ffffff"
     showgrid="false"
     units="cm" /><g
     id="layer2"
     inkscape:groupmode="layer"
     inkscape:label="background"
     transform="translate(0,237.40002)"><rect
       id="rect4177"
       y="-241.83704"
       class="st0"
       width="2146.4292"
       height="1191.437"
       x="0"
       style="fill:#ffffff" /></g>
       <!-- <image
     sodipodi:absref="/home/daniel/Projects/L2TOR_project/freeplay-sandbox/qt-gui/res/6221D42D.png"
     xlink:href="6221D42D.png"
     y="237.75766"
     x="824.10352"
     id="image27"
     height="719.98486"
     width="460.52161"
     style="overflow:visible;opacity:0.75;enable-background:new" /> -->
     <polygon
     class="st1"
     points="747,516.4 753.7,481.1 761.3,481.1 764.5,486.9 754.6,572.2 747.3,616.6 739.9,652.5 729.9,652.1 730.1,641.4 737.7,576.2 "
     id="polygon29"
     style="fill:#6b3c1f;stroke:#000000"
     transform="matrix(1.5,0,0,1.5,-222.89646,-96.742363)" /><polygon
     class="st2"
     points="887.6,632.4 875.8,633.3 870.3,568.7 865.8,523.9 865.2,493.6 878.5,493.6 884.2,561.8 886.7,614.2 "
     id="polygon31"
     style="fill:#6b3c1f;stroke:#000000;stroke-linejoin:round"
     transform="matrix(1.5,0,0,1.5,-222.89646,-96.742363)" /><g
     id="g8412"
     transform="matrix(1.5,0,0,1.5,-222.89646,-96.742363)"><linearGradient
       id="SVGID_1_"
       gradientUnits="userSpaceOnUse"
       x1="387.85172"
       y1="785.30542"
       x2="484.0517"
       y2="754.45538"
       gradientTransform="matrix(-1,0,0,1,1367.4399,-192.22)"><stop
         offset="0"
         style="stop-color:#8D5027"
         id="stop35" /><stop
         offset="1"
         style="stop-color:#6B3C1F"
         id="stop37" /></linearGradient><path
       class="st3"
       d="M 963.5,593.9 874.8,565 c -0.8,-1.7 -0.9,-3.7 -0.4,-5.5 1,-2.9 4.6,-2.9 4.6,-2.9 l 37.5,10.3 49.2,18 -2.2,9 z"
       id="path39"
       inkscape:connector-curvature="0"
       style="fill:url(#SVGID_1_);stroke:#000000" /><path
       class="st4"
       d="m 911,567.9 c 0,0 -45.7,2.6 -68.5,4.6 -22.8,2 -72.8,9.5 -72.8,9.5 l 3.5,3.3 -0.9,4.2 c 0,0 45.8,-2.5 69,-4.5 23.2,-2 70.5,-9 70.5,-9 0.8,-1.2 1.3,-2.7 1.4,-4.1 -0.1,-2.1 -2.2,-4 -2.2,-4 l 0,0 z"
       id="path41"
       inkscape:connector-curvature="0"
       style="fill:#8d5027;stroke:#000000" /><linearGradient
       id="SVGID_2_"
       gradientUnits="userSpaceOnUse"
       x1="376.16089"
       y1="792.58148"
       x2="447.4809"
       y2="750.09149"
       gradientTransform="matrix(-1,0,0,1,1192.89,-177.79)"><stop
         offset="0"
         style="stop-color:#C28156"
         id="stop44" /><stop
         offset="1"
         style="stop-color:#6B3C1F"
         id="stop46" /></linearGradient><path
       class="st5"
       d="m 792.3,606.7 -48.5,-30.9 c -0.8,-1.7 -0.9,-3.7 -0.4,-5.5 1,-2.9 4.6,-2.9 4.6,-2.9 9.2,5.9 12.2,7.8 20,12.5 7.8,4.7 26.8,15.7 26.8,15.7 l -2.5,11.1 z"
       id="path48"
       inkscape:connector-curvature="0"
       style="fill:url(#SVGID_2_);stroke:#000000" /></g><linearGradient
     id="SVGID_3_"
     gradientUnits="userSpaceOnUse"
     x1="381.14041"
     y1="773.85687"
     x2="407.99039"
     y2="777.08691"
     gradientTransform="matrix(-1,0,0,1,1367.4399,-192.22)"><stop
       offset="0"
       style="stop-color:#492A16"
       id="stop51" /><stop
       offset="0.49"
       style="stop-color:#D28C5F"
       id="stop53" /><stop
       offset="1"
       style="stop-color:#593219"
       id="stop55" /></linearGradient><polyline
     class="st6"
     points="976.3,683.6 986.4,682.5 978,581.1 966.2,484.1 953,484.7 956.1,548.5 963.7,609.1 972.5,681.7 "
     id="polyline57"
     style="fill:url(#SVGID_3_);stroke:#000000"
     transform="matrix(1.5,0,0,1.5,-222.89646,-96.742363)" /><g
     id="g8390"
     transform="matrix(1.5,0,0,1.5,-222.89646,-96.742363)"><path
       class="st7"
       d="m 873.4,250.5 c 0,0 -62.1,4.9 -75.3,5.8 -13.2,0.8 -80.6,-0.4 -80.6,-0.4 l 6,34.6 c 0,0 67.3,0.6 75.3,0 8,-0.6 75.5,-6.2 75.5,-6.2 l 0.6,-34.1 -1.5,0.3 z"
       id="path60"
       inkscape:connector-curvature="0"
       style="fill:#d28c5f;stroke:#000000" /><linearGradient
       id="SVGID_4_"
       gradientUnits="userSpaceOnUse"
       x1="517.73041"
       y1="563.02417"
       x2="529.65051"
       y2="563.34418"
       gradientTransform="matrix(-1,0,0,1,1367.4399,-192.22)"><stop
         offset="0"
         style="stop-color:#693B1D"
         id="stop63" /><stop
         offset="0.49"
         style="stop-color:#D28C5F"
         id="stop65" /><stop
         offset="1"
         style="stop-color:#563117"
         id="stop67" /></linearGradient><path
       class="st8"
       d="m 849.3,454.2 c 0,0 -1.2,-76.5 -1.2,-88.9 0,-12.4 -3.8,-79.4 -3.8,-79.4 l -4.9,0.5 c 0,0 1.2,82.5 1.2,97.4 0,14.9 2,71.1 2,71.1 1,0.5 2.2,0.8 3.3,0.9 1.4,-0.3 2.5,-0.8 3.4,-1.6 l 0,0 z"
       id="path69"
       inkscape:connector-curvature="0"
       style="fill:url(#SVGID_4_);stroke:#000000" /><linearGradient
       id="SVGID_5_"
       gradientUnits="userSpaceOnUse"
       x1="541.85101"
       y1="565.13782"
       x2="557.57098"
       y2="566.4278"
       gradientTransform="matrix(-1,0,0,1,1367.4399,-192.22)"><stop
         offset="0"
         style="stop-color:#492A16"
         id="stop72" /><stop
         offset="0.49"
         style="stop-color:#D28C5F"
         id="stop74" /><stop
         offset="1"
         style="stop-color:#5B3319"
         id="stop76" /></linearGradient><path
       class="st9"
       d="m 827.5,456.3 c 0,0 -3.7,-63 -5.3,-77.8 -1.6,-14.8 -8.8,-89.6 -8.8,-89.6 l -5,0.5 0.3,3.5 c 0,0 4.5,87.2 6.6,111.1 2.1,23.9 5,53.5 5,53.5 1.4,0.4 2.8,0.6 4.3,0.5 0.9,-0.4 2,-1 2.9,-1.7 l 0,0 z"
       id="path78"
       inkscape:connector-curvature="0"
       style="fill:url(#SVGID_5_);stroke:#000000" /><linearGradient
       id="SVGID_6_"
       gradientUnits="userSpaceOnUse"
       x1="569.76062"
       y1="566.10541"
       x2="583.13062"
       y2="567.71552"
       gradientTransform="matrix(-1,0,0,1,1367.4399,-192.22)"><stop
         offset="0"
         style="stop-color:#5D351A"
         id="stop81" /><stop
         offset="0.49"
         style="stop-color:#D28C5F"
         id="stop83" /><stop
         offset="1"
         style="stop-color:#673A1C"
         id="stop85" /></linearGradient><path
       class="st10"
       d="m 801,459.6 c 2.4,-0.5 3,-1.5 3,-1.5 0,0 -5.7,-55.3 -6.9,-65.9 -1.2,-10.6 -13.6,-102.3 -13.6,-102.3 l -4.4,0.2 c 0,0 8.9,89.7 11.4,112.3 2.5,22.6 6.6,56.4 6.6,56.4 1.1,0.8 2.6,1.1 3.9,0.8 l 0,0 z"
       id="path87"
       inkscape:connector-curvature="0"
       style="fill:url(#SVGID_6_);stroke:#000000" /><linearGradient
       id="SVGID_7_"
       gradientUnits="userSpaceOnUse"
       x1="597.08972"
       y1="567.0224"
       x2="610.45972"
       y2="568.93237"
       gradientTransform="matrix(-1,0,0,1,1367.4399,-192.22)"><stop
         offset="0"
         style="stop-color:#5D351A"
         id="stop90" /><stop
         offset="0.49"
         style="stop-color:#D28C5F"
         id="stop92" /><stop
         offset="1"
         style="stop-color:#5D351A"
         id="stop94" /></linearGradient><path
       class="st11"
       d="m 776.9,462 c 1.1,-0.6 2.1,-1.3 3.1,-2.1 0,0 -7.2,-53 -9.3,-64.1 -2.1,-11.1 -17,-106.1 -17,-106.1 l -4.3,-0.1 c 0,0 12.8,101.7 14.8,119.8 2,18.1 7.7,52.1 7.7,52.1 0,0 3.6,1.2 5,0.5 l 0,0 z"
       id="path96"
       inkscape:connector-curvature="0"
       style="fill:url(#SVGID_7_);stroke:#000000" /><linearGradient
       id="SVGID_8_"
       gradientUnits="userSpaceOnUse"
       x1="630.14618"
       y1="537.03711"
       x2="646.60632"
       y2="540.69708"
       gradientTransform="matrix(-1,0,0,1,1367.4399,-192.22)"><stop
         offset="0"
         style="stop-color:#563117"
         id="stop99" /><stop
         offset="0.47"
         style="stop-color:#D28C5F"
         id="stop101" /><stop
         offset="1"
         style="stop-color:#4F2D17"
         id="stop103" /></linearGradient><path
       class="st12"
       d="m 756.2,461.8 c 0,0 -11.8,-71.6 -12,-73 -0.2,-1.4 -2.7,-6.1 -2.7,-6.1 0.8,-1.4 1.2,-2.9 1.1,-4.5 -0.2,-1.4 -1.1,-2.6 -2.3,-3.2 0,0 2.1,-6 0.9,-10.5 -1.2,-4.5 -13.8,-55.9 -14.3,-58.6 -0.5,-2.7 0.4,-6.9 0.2,-8.3 -0.1,-0.8 -0.8,-1.4 -1.6,-1.5 0,0 1.4,-2 1.2,-3.3 -0.2,-1.3 -2,-2.3 -2,-2.3 0,0 -1.7,-12.1 -2.7,-18.1 -1.1,-6 -4.8,-18.4 -4.8,-18.4 0,0 1.4,-1 0.1,-4.3 -1.3,-3.3 -2.4,-5.4 -2.8,-6.3 -0.4,-0.9 0.7,-3.4 0.7,-3.4 0,0 3.3,-13 -9.7,-10.6 -13.2,2.5 -1.9,13.1 -1.4,14.1 1.9,3.6 -1.6,3.7 -0.9,9.6 0.3,2.1 2.6,3.9 2.6,3.9 l 1.7,18.3 4.6,18 c 0,0 -1.3,0.2 -1,2.3 0.2,1.1 0.7,2.2 1.5,3 -0.1,1.1 0,2.2 0.3,3.3 0.4,1.4 2.7,1.1 3,2.9 0.3,1.8 9.5,62.7 10.1,64.9 0.6,2.2 3.9,7.3 3.9,7.3 -1.2,0.8 -1.7,2.3 -1.4,3.7 0.3,1.6 1.1,3.1 2.3,4.2 0,0 1.5,17.6 2.2,21 l 12.5,57.6 c 0,0 3.9,1 5.6,0.7 1.7,-0.3 5,-2.5 5,-2.5 l 0.1,0.1 z"
       id="path105"
       inkscape:connector-curvature="0"
       style="fill:url(#SVGID_8_);stroke:#000000;stroke-width:1.01999998" /><linearGradient
       id="SVGID_9_"
       gradientUnits="userSpaceOnUse"
       x1="478.48801"
       y1="531.78802"
       x2="497.8981"
       y2="532.43799"
       gradientTransform="matrix(-1,0,0,1,1367.4399,-192.22)"><stop
         offset="0"
         style="stop-color:#4F2D17"
         id="stop108" /><stop
         offset="0.47"
         style="stop-color:#D28C5F"
         id="stop110" /><stop
         offset="1"
         style="stop-color:#4D2C16"
         id="stop112" /></linearGradient><path
       class="st13"
       d="m 887.5,454.3 c 0,0 -0.3,-71.9 -0.3,-73.2 0,-1.3 -1.8,-6.7 -1.8,-6.7 0,0 2.7,-1.3 2.2,-3.6 -0.5,-2.3 -3.1,-4 -3.1,-4 0,0 4.5,-4.5 4,-8.9 -0.5,-4.4 -4.5,-54 -4.5,-56.7 0,-2.7 2.2,-5.8 2.2,-7.1 0,-1.3 -1.8,-4 -1.8,-4 0,0 2.2,-1.9 2.2,-3.1 0,-1.2 -1.9,-2.4 -1.9,-2.4 L 884,249 c 0,0 2.7,-0.7 2,-4 -0.7,-3.3 -3.8,-6.3 -4,-7.1 -0.2,-0.8 2.5,-2 2.5,-2 0,0 6.9,-13.2 -6.5,-12.1 -13.4,1.1 -4.8,12.3 -4.5,13.4 1.2,3.8 -1.6,2.9 -1.9,8.6 -0.1,2 1.9,4.1 1.9,4.1 l 0,35.5 c 0,0 -2.4,0.6 -2.4,2.6 0,1.2 0.8,2.2 1.9,2.5 -0.7,0.9 -1.2,2 -1.3,3.2 0,1.3 2.2,2 2.2,3.8 0,1.8 -1.6,60.3 -1.3,62.5 0.3,2.2 2.7,7.6 2.7,7.6 0,0 -2.5,1.6 -2.5,4 0.1,1.5 0.9,3 2.2,3.8 0,0 -1.8,16.8 -1.7,20.1 0.3,7.4 3.3,58.7 3.3,58.7 0,0 3.5,1.8 5.4,1.9 1.9,0.1 5.5,-1.8 5.5,-1.8 l 0,0 z"
       id="path114"
       inkscape:connector-curvature="0"
       style="fill:url(#SVGID_9_);stroke:#000000" /><path
       class="st14"
       d="m 873.6,282.9 c 0,0 -66.3,6.4 -76.1,6.4 -9.8,0 -73,-0.5 -73,-0.5 l 0.7,1.6 c 0,0 66.8,0.9 74.1,0.5 7.3,-0.4 74.3,-6.2 74.3,-6.2 l 0,-1.8 z"
       id="path116"
       inkscape:connector-curvature="0"
       style="fill:#855b3e" /><path
       class="st15"
       d="m 714.4,240.9 c -3.6,-0.5 -7.2,0.1 -10.5,1.6"
       id="path118"
       inkscape:connector-curvature="0"
       style="fill:none;stroke:#000000;stroke-width:1.01999998" /><path
       class="st15"
       d="m 717.3,253.4 c 0,0 -8.3,-0.5 -12.1,2.8"
       id="path120"
       inkscape:connector-curvature="0"
       style="fill:none;stroke:#000000;stroke-width:1.01999998" /><path
       class="st15"
       d="m 725.5,295.8 c 0,0 -5.4,-1.4 -12.5,2.2"
       id="path122"
       inkscape:connector-curvature="0"
       style="fill:none;stroke:#000000;stroke-width:1.01999998" /><path
       class="st16"
       d="m 726.8,301.5 c 0,0 -7.3,-2 -11.8,1.7"
       id="path124"
       inkscape:connector-curvature="0"
       style="fill:#a05b2b;stroke:#000000;stroke-width:1.01999998" /><path
       class="st17"
       d="m 739.9,374.8 c 0,0 -8.1,-0.4 -10.9,1.9"
       id="path126"
       inkscape:connector-curvature="0"
       style="fill:#6c5353;stroke:#000000;stroke-width:1.01999998" /><path
       class="st18"
       d="m 741.2,382.5 c 0,0 -6.1,-0.3 -10.7,2.5"
       id="path128"
       inkscape:connector-curvature="0"
       style="fill:#906f6f;stroke:#000000;stroke-width:1.01999998" /><path
       class="st19"
       d="m 882.4,237.1 c 0,0 -3.2,-1.5 -8.5,0.1"
       id="path130"
       inkscape:connector-curvature="0"
       style="fill:none;stroke:#000000" /><path
       class="st19"
       d="m 884.2,248.8 c 0,0 -6.8,-2 -11,0.4"
       id="path132"
       inkscape:connector-curvature="0"
       style="fill:none;stroke:#000000" /><path
       class="st19"
       d="m 884.5,289.7 c 0,0 -4.2,-1.7 -11.8,0.4"
       id="path134"
       inkscape:connector-curvature="0"
       style="fill:none;stroke:#000000" /><path
       class="st19"
       d="m 885.7,295.2 c 0,0 -7.7,-2.4 -12.8,0.2"
       id="path136"
       inkscape:connector-curvature="0"
       style="fill:none;stroke:#000000" /><path
       class="st19"
       d="m 884.6,366.7 c 0,0 -5.8,-1.2 -8.9,0.5"
       id="path138"
       inkscape:connector-curvature="0"
       style="fill:none;stroke:#000000" /><path
       class="st19"
       d="m 885.4,374.4 c 0,0 -5.9,-1.5 -10.9,0.3"
       id="path140"
       inkscape:connector-curvature="0"
       style="fill:none;stroke:#000000" /></g><g
     id="path3334"
     transform="matrix(1.5,0,0,1.5,-222.89646,-96.742363)">
     <!-- <image
       sodipodi:absref="/home/daniel/Projects/L2TOR_project/freeplay-sandbox/qt-gui/res/6221D42F.png"
       xlink:href="6221D42F.png"
       id="image143"
       transform="matrix(0.9792,0,0,0.9957,778,493)"
       height="233"
       width="48"
       style="overflow:visible;opacity:0.75;enable-background:new" /> -->
       <linearGradient
       id="SVGID_10_"
       gradientUnits="userSpaceOnUse"
       x1="561.12988"
       y1="793.37921"
       x2="588.40002"
       y2="791.43909"
       gradientTransform="matrix(-1,0,0,1,1367.4399,-192.22)"><stop
         offset="0"
         style="stop-color:#4F2D17"
         id="stop146" /><stop
         offset="0.49"
         style="stop-color:#D28C5F"
         id="stop148" /><stop
         offset="1"
         style="stop-color:#482914"
         id="stop150" /></linearGradient><polygon
       class="st20"
       points="780.6,667.8 778.7,706.1 791.3,706.4 801.7,617.1 805.9,531.5 805.9,494.2 795.1,494.2 788.8,531.5 784.4,594 "
       id="polygon152"
       style="fill:url(#SVGID_10_)" /><polygon
       class="st19"
       points="780.6,667.8 778.7,706.1 791.3,706.4 801.7,617.1 805.9,531.5 805.9,494.2 795.1,494.2 788.8,531.5 784.4,594 "
       id="polygon154"
       style="fill:none;stroke:#000000" /></g><g
     id="g8423"
     transform="matrix(1.5,0,0,1.5,-222.89646,-96.742363)">
     <!-- <image
       sodipodi:absref="/home/daniel/Projects/L2TOR_project/freeplay-sandbox/qt-gui/res/6221D42A.png"
       xlink:href="6221D42A.png"
       id="image157"
       transform="matrix(0.9961,0,0,0.9851,738,451)"
       height="67"
       width="257"
       style="overflow:visible;opacity:0.75;enable-background:new" /> -->
       <path
       class="st7"
       d="m 975.1,466.1 0,16.1 c -5.1,1.8 -10.4,3.1 -15.8,4.1 -6.6,1 -86.8,10.7 -90,10.7 -3.2,0 -48.6,0.6 -53,0.6 -4.4,0 -24.3,-1.6 -28.1,-1.6 -3.8,0 -49.2,-16.6 -49.2,-16.6 l -0.3,-4.1 0.6,-12.6 4.1,-1.6 115.5,-8.2 12.3,-1 20.5,0.6 52.4,7 26.8,4.7 4.2,1.9 z"
       id="path159"
       inkscape:connector-curvature="0"
       style="fill:#d28c5f;stroke:#000000" /><path
       class="st19"
       d="m 974.8,466.4 c 0,0 -27.2,8.2 -36.3,8.2 -9.1,0 -79.2,6.6 -84.6,6.6 -5.4,0 -59.7,0.3 -59.7,0.3 0,0 -7,-0.6 -12,-1 -5,-0.4 -39.8,-13.2 -41.7,-14.8 -1.9,-1.6 -1.2,-2.9 -1.2,-2.9"
       id="path161"
       inkscape:connector-curvature="0"
       style="fill:none;stroke:#000000" /><linearGradient
       id="SVGID_11_"
       gradientUnits="userSpaceOnUse"
       x1="618.92682"
       y1="666.92999"
       x2="571.48682"
       y2="682.03003"
       gradientTransform="matrix(-1,0,0,1,1367.4399,-192.22)"><stop
         offset="0"
         style="stop-color:#8F5228"
         id="stop164" /><stop
         offset="1"
         style="stop-color:#D28C5F"
         id="stop166" /></linearGradient><path
       class="st21"
       d="m 798.3,481.8 -0.7,14.1 -11.1,-0.4 -24.6,-8.2 -22.8,-8.3 -0.3,-6.4 0.5,-7.1 18.9,7.8 c 0,0 19.3,6.8 25.1,7.7 5.1,0.7 10,0.9 15,0.8 l 0,0 z"
       id="path168"
       inkscape:connector-curvature="0"
       style="fill:url(#SVGID_11_)" /></g>
       <!-- <image
     sodipodi:absref="/home/daniel/Projects/L2TOR_project/freeplay-sandbox/qt-gui/res/6221D42B.png"
     xlink:href="6221D42B.png"
     y="356.24265"
     x="950.0885"
     id="image170"
     height="316.5054"
     width="243.00856"
     style="overflow:visible;opacity:0.75;enable-background:new" /> -->
     <g
     id="g5420"
     transform="matrix(1.5,0,0,1.5,-222.89646,-96.742363)"><path
       d="m 816.7,419.8 c 0,0.1 0,0.2 -0.1,0.3 -0.1,0.1 -0.2,0.2 -0.4,0.3 -0.2,0.1 -0.4,0.1 -0.6,0.2 -0.2,0 -0.4,0 -0.7,0 -0.5,0 -1.1,-0.2 -1.5,-0.4 L 813,420 c -0.6,-0.3 -1.1,-0.6 -1.5,-1.1 -0.1,-0.2 -0.3,-0.4 -0.3,-0.6 0,-0.1 0,-0.2 0,-0.3 0,0 0,-0.1 0,-0.1 l 0,0 0,-0.1 0,0 0,0 0.1,-0.1 0.1,-0.1 c 0.1,-0.1 0.1,-0.1 0.2,-0.1 0.2,-0.1 0.4,-0.1 0.7,-0.1 0.6,0 1.2,0.1 1.7,0.3 l 0.4,0.1 c 0.4,0.2 0.9,0.4 1.3,0.6 0.2,0.1 0.3,0.2 0.5,0.3 0.1,0.1 0.2,0.2 0.3,0.3 0.1,0.1 0.2,0.2 0.2,0.3 -0.1,0.3 0,0.5 0,0.5 l 0,0 z"
       id="path173"
       inkscape:connector-curvature="0" /><path
       d="m 817,416 c 0,0.1 0,0.2 0,0.4 -0.1,0.1 -0.1,0.2 -0.2,0.3 -0.3,0.2 -0.6,0.4 -0.9,0.4 -0.4,0.1 -0.8,0.1 -1.2,0 l -0.4,-0.1 c -1,-0.3 -1.7,-0.9 -1.6,-1.5 l 0,0 c 0.1,-0.6 1,-1 2,-0.9 l 0.4,0 c 0.3,0 0.7,0.1 1,0.3 0.3,0.1 0.5,0.3 0.7,0.5 0.1,0.1 0.2,0.2 0.2,0.3 0,0 0,0.2 0,0.3 l 0,0 z"
       id="path175"
       inkscape:connector-curvature="0" /><path
       d="m 816.4,425.3 c 0.1,0.4 0,0.7 -0.3,1 -0.3,0.3 -0.8,0.6 -1.3,0.6 -0.3,0.1 -0.7,0 -1,-0.1 -0.3,-0.1 -0.5,-0.2 -0.8,-0.5 -0.1,-0.1 -0.1,-0.2 -0.2,-0.3 0,-0.1 0,-0.2 0,-0.3 l 0,0 c 0,-0.1 0,-0.2 0.1,-0.3 0,-0.1 0.1,-0.2 0.2,-0.3 0.2,-0.2 0.4,-0.4 0.6,-0.5 0.2,-0.1 0.5,-0.2 0.8,-0.3 0.4,-0.1 0.8,0 1.2,0.1 0.4,0.3 0.6,0.6 0.7,0.9 l 0,0 z"
       id="path177"
       inkscape:connector-curvature="0" /><path
       class="st22"
       d="m 853.6,399.6 c -1,-0.7 -1.8,-0.4 -2.9,-0.2 -1.1,0.2 -2.2,1.4 -2.7,1.6 l -0.2,0 c -2.7,2.7 -6,4.8 -9.7,5.9 -9.6,3.3 -16.8,0.4 -24,9.4 -1.3,1.7 -0.2,8.1 1.8,11.3 2.5,4 8.9,4.3 15,2.1 7.7,-2.7 17.6,-11.4 22,-17.3 0.1,-0.4 0.3,-0.7 0.5,-1 0.5,-0.8 1,-1.6 1.4,-2.4 0.6,-1.3 1.1,-2.7 1.4,-4.1 0,-1.1 -0.2,-2.2 -0.6,-3.2 -0.3,-1 -0.9,-1.4 -2,-2.1 l 0,0 z"
       id="path179"
       inkscape:connector-curvature="0"
       style="fill:#a06121" /><path
       class="st23"
       d="m 856.2,403.6 c -0.3,0.7 -0.6,1.3 -1,2 -0.4,0.7 -0.9,1.7 -1.5,2.5 -0.5,0.8 -1.1,1.7 -1.8,2.4 -0.5,0.7 -1.2,1.4 -1.9,2.1 -0.7,0.7 -2.1,1.7 -3,2.5 -0.9,0.8 -1.7,1.7 -2.7,2.6 -1,0.9 -1.9,1.7 -2.9,2.5 -1,0.8 -2,1.6 -3.1,2.4 -1.1,0.8 -2.1,1.5 -3.2,2.1 -1.1,0.6 -2.1,1.2 -3.1,1.8 -1,0.5 -2,0.9 -3,1.3 -0.8,0.3 -1.5,0.5 -2.3,0.7 -0.7,0.2 -1.5,0.3 -2.3,0.5 -0.7,0.1 -1.5,0.2 -2.2,0.2 -0.7,0 -1.4,0 -2.1,-0.1 -0.6,-0.1 -1.3,-0.2 -1.9,-0.4 -0.6,-0.2 -1.2,-0.4 -1.7,-0.7 -0.2,-0.2 -0.5,-0.3 -0.7,-0.5 l 0,0 c 2.5,4 8.9,4.3 15,2.1 7.7,-2.7 17.6,-11.4 22,-17.3 0.1,-0.4 0.3,-0.7 0.5,-1 0.5,-0.8 1,-1.6 1.4,-2.4 0.6,-1.3 1.1,-2.7 1.4,-4.1 0.1,-0.4 0.1,-0.8 0.1,-1.2 l 0,0 z"
       id="path181"
       inkscape:connector-curvature="0"
       style="fill:#b8854f" /><path
       d="m 855.9,401.9 0.2,2.5 c -0.2,1.4 -0.6,2.8 -1.3,4.1 -0.6,1.2 -1.4,2.3 -2.2,3.4 -0.7,0.9 -1.4,1.8 -2.1,2.6 -0.7,0.8 -1.4,1.5 -2.1,2.2 -1.8,1.8 -3.7,3.4 -5.6,5 -2,1.6 -4.1,3 -6.3,4.3 -1.3,0.8 -2.5,1.4 -3.5,1.9 -0.7,0.3 -1.5,0.7 -2.5,1.1 -1.3,0.5 -2.6,0.8 -3.9,1.1 -1.5,0.3 -3.1,0.4 -4.6,0.3 l 0,0 c -1.2,-0.1 -2.3,-0.4 -3.4,-0.9 -0.9,-0.4 -1.7,-1.1 -2.3,-2 -0.5,-0.8 -1,-1.8 -1.3,-2.7 l 0,0 c -0.4,-1 -0.7,-2.1 -0.9,-3.2 -0.1,-0.3 -0.1,-0.6 -0.2,-0.9 -0.1,-0.7 -0.1,-1.4 -0.1,-2.1 0,-0.4 0.1,-0.7 0.2,-1.1 0.1,-0.2 0.2,-0.5 0.3,-0.6 0.7,-0.9 1.5,-1.7 2.4,-2.4 1,-0.8 2,-1.5 3.1,-2.1 l 0,0 c 0.9,-0.5 1.8,-0.8 2.7,-1.1 0.9,-0.3 1.9,-0.5 2.9,-0.7 1.1,-0.2 2.2,-0.3 3.2,-0.5 1,-0.2 2,-0.2 3,-0.4 1,-0.2 2,-0.3 2.8,-0.5 0.8,-0.2 1.5,-0.3 1.9,-0.5 0.6,-0.2 1.4,-0.4 2.3,-0.8 1.6,-0.6 3.1,-1.2 4.6,-2 1,-0.5 1.9,-1.2 2.8,-1.9 0.7,-0.6 1.3,-1.2 2,-1.8 l 0,0 c 0.7,-0.7 1.5,-1.3 2.3,-1.8 0.7,-0.5 1.5,-0.7 2.3,-0.7 0.6,0 1.1,0.2 1.6,0.6 l 0.7,0.9 c 0.5,0.6 0.8,0.9 0.9,0.9 l 0,0 c 0.7,-0.5 0.7,-0.5 0,0 l 0,0 c -0.3,-0.8 -0.7,-1.5 -1.3,-2.1 -0.2,-0.2 -0.5,-0.4 -0.8,-0.6 -0.3,-0.2 -0.7,-0.3 -1.1,-0.4 -0.5,-0.1 -0.9,-0.1 -1.4,0 -0.5,0.1 -1,0.3 -1.5,0.5 -0.9,0.5 -1.8,1.1 -2.7,1.7 -0.7,0.5 -1.4,1.1 -2,1.6 -0.8,0.6 -1.7,1.1 -2.6,1.5 -1.4,0.7 -2.9,1.2 -4.5,1.7 -2.2,0.7 -4.3,1.1 -6,1.5 l -0.7,0.1 c -2,0.4 -4.1,0.7 -6.2,1.3 -2,0.5 -4,1.3 -5.8,2.4 -1.1,0.7 -2.2,1.5 -3.1,2.4 -0.9,0.8 -1.7,1.7 -2.4,2.7 -0.2,0.3 -0.4,0.6 -0.4,0.9 -0.1,0.4 -0.2,0.8 -0.2,1.2 0,1 0,2.1 0.2,3.1 0.1,0.4 0.1,0.8 0.2,1.1 0.1,0.8 0.3,1.5 0.6,2.3 0.3,1 0.7,2.1 1.3,3 l 0,0 c 0.3,0.5 0.7,1 1.1,1.4 0.5,0.4 1,0.8 1.5,1.1 1.2,0.6 2.5,1 3.8,1.2 1.6,0.2 3.1,0.2 4.7,0 1.6,-0.2 3.1,-0.6 4.6,-1.1 l 0,0 c 2.2,-0.8 4.3,-1.8 6.3,-3.1 1.7,-1 3.2,-2.1 4.7,-3.4 0.5,-0.4 1,-0.8 1.5,-1.3 1.9,-1.7 3.7,-3.5 5.4,-5.4 l 0,0 c 1.5,-1.6 2.8,-3.3 4,-5.1 0.5,-0.7 0.9,-1.5 1.3,-2.2 0.4,-0.7 0.7,-1.4 1,-2.1 0.3,-0.6 0.5,-1.3 0.6,-1.9 0.1,-0.5 0.2,-1.1 0.3,-1.6 l -0.3,-2.6 0,0 z"
       id="path183"
       inkscape:connector-curvature="0" /><path
       class="st24"
       d="m 819.7,421 c 0,0.9 0.8,1.7 1.7,1.6 0,0 0,0 0,0 0.2,0 0.4,0.1 0.5,0.4 0.1,1.2 1.1,2.2 2.4,2.1 0,0 0,0 0,0 1.2,-0.1 2.6,-1.2 2.1,-2.4 -0.8,-1.9 -0.4,-2.8 -0.2,-4.4 0,-1.2 -0.9,-2.1 -2.1,-2.1 -0.1,0 -0.2,0 -0.3,0 -1.2,0.1 -2.2,1.1 -2.1,2.4 0,0 0,0 0,0 0,0.3 0.1,0.5 -0.4,0.6 -0.9,0.1 -1.6,0.9 -1.6,1.8 z"
       id="path185"
       inkscape:connector-curvature="0"
       style="fill:#834317;stroke:#000000;stroke-width:1.66999996" /><circle
       transform="matrix(0.9986,-0.05285883,0.05285883,0.9986,-21.2785,43.9002)"
       class="st25"
       cx="819.29999"
       cy="424.20001"
       id="ellipse187"
       r="1.4"
       style="fill:#834317;stroke:#000000;stroke-width:3.3599999" /><circle
       transform="matrix(0.9986,-0.05285883,0.05285883,0.9986,-21.061,43.8015)"
       class="st26"
       cx="817.5"
       cy="420.10001"
       id="ellipse189"
       r="1.3"
       style="fill:#834317;stroke:#000000;stroke-width:3.77999997" /><circle
       transform="matrix(0.9986,-0.05285883,0.05285883,0.9986,-20.8719,43.9182)"
       class="st27"
       cx="819.79999"
       cy="416.5"
       id="ellipse191"
       r="1.4"
       style="fill:#834317;stroke:#000000;stroke-width:2.63000011" /></g><path
     class="st22"
     d="m 1002.9035,557.10763 c 0,0 4.2,9 4.5,13.65 0.3,4.65 -4.95,12 -5.7,14.85 -0.75,2.85 -7.49996,12.9 -7.49996,12.9 l 17.99996,-0.15 8.85,-33 -2.1,-9.45 c -1.2,0 -2.25,-0.3 -3.45,-0.6 -3,-0.45 -6.15,-0.3 -9,0.6 -1.05,0.6 -2.25,1.05 -3.6,1.2 l 0,0 z"
     id="path193"
     inkscape:connector-curvature="0"
     style="fill:#a06121" /><path
     d="m 990.45354,599.70763 c 1.2,0 2.55,0 3.75,0.15 1.05,0.15 1.95,0.3 3,0.45 0.3,0 0.6,0.15 0.9,0.15 0.45,0 0.9,0 1.35,-0.15 1.04996,-0.15 2.24996,-0.45 3.44996,-0.75 1.2,-0.3 2.4,-0.75 3.15,-0.9 0,0 -0.9,-0.15 -2.25,-0.45 -1.35,-0.3 -3,-0.3 -4.49996,-0.45 -0.75,0 -1.5,-0.15 -2.1,-0.15 -0.3,0 -0.75,0 -1.2,0 l -1.95,0.75 -3.6,1.35 0,0 z"
     id="path195"
     inkscape:connector-curvature="0" /><path
     class="st22"
     d="m 986.10354,550.50763 c 11.7,-1.8 21.89996,10.05 21.59996,24.3 -0.3,14.7 -11.84996,26.85 -21.29996,25.2 -6.75,-1.2 -13.5,-2.85 -16.05,-11.85 -0.9,-4.65 -1.35,-9.3 -1.05,-13.95 1.35,-13.8 7.8,-22.35 16.8,-23.7 l 0,0 z"
     id="path197"
     inkscape:connector-curvature="0"
     style="fill:#a06121" /><path
     d="m 999.00354,593.85763 c -0.6,1.05 -1.5,2.1 -2.4,3 -0.9,0.75 -1.8,1.35 -2.85,1.8 -1.5,0.6 -3,0.9 -4.65,0.75 -2.1,0 -4.05,-0.3 -6.15,-0.9 -1.65,-0.45 -3.15,-1.05 -4.5,-1.95 -0.75,-0.45 -1.5,-1.05 -2.25,-1.8 -0.6,-0.6 -1.2,-1.2 -1.65,-1.8 -0.6,-0.9 -1.2,-1.8 -1.65,-2.85 -0.3,-0.75 -0.6,-1.65 -0.9,-2.55 -0.15,-0.45 -0.3,-0.9 -0.3,-1.35 0,-0.45 -0.15,-0.9 -0.3,-1.35 -0.15,-1.05 -0.3,-2.25 -0.45,-3.6 -0.3,-2.4 -0.45,-4.65 -0.3,-7.05 0.15,-1.5 0.3,-3 0.6,-4.5 0.3,-1.35 0.6,-2.7 0.9,-4.2 0.3,-1.05 0.75,-2.25 1.2,-3.3 0.45,-0.9 0.75,-1.65 1.05,-2.1 0.6,-1.05 1.2,-2.1 1.95,-3 0.75,-0.9 1.65,-1.8 2.55,-2.55 1.05,-0.9 2.1,-1.65 3.3,-2.25 1.05,-0.45 2.25,-0.9 3.3,-1.2 1.2,-0.3 2.25,-0.3 3.45,-0.3 1.35,0 2.55,0.3 3.75,0.75 1.05,0.3 1.95,0.75 2.85,1.35 0.9,0.6 1.5,1.05 1.95,1.35 0.6,0.45 1.2,0.9 1.8,1.35 0.74996,0.6 1.34996,1.35 1.94996,2.1 0.9,1.05 1.65,2.1 2.25,3.3 0.75,1.35 1.35,2.55 1.8,4.05 0.45,1.35 0.9,2.85 1.05,4.2 0.3,1.35 0.45,2.7 0.45,4.05 0,0.45 0,0.9 0.15,1.2 0,0.15 0.15,0.15 0.15,-0.15 0.3,-1.2 0.45,-2.55 0.45,-3.75 0,-2.4 -0.15,-4.65 -0.75,-6.9 -0.3,-1.35 -0.75,-2.7 -1.35,-3.9 -0.6,-1.35 -1.2,-2.55 -2.1,-3.75 l 0,0 c -0.9,-1.35 -1.8,-2.4 -3,-3.45 -1.04996,-0.9 -2.09996,-1.8 -3.44996,-2.4 -0.45,-0.3 -1.05,-0.45 -1.5,-0.75 -4.65,-1.8 -10.05,-1.35 -14.4,1.35 -2.25,1.5 -4.2,3.3 -5.85,5.55 -1.05,1.65 -2.1,3.3 -3,5.1 -0.75,1.5 -1.5,3.15 -2.1,4.65 -0.45,1.05 -0.75,2.25 -1.05,3.6 -0.3,1.35 -0.6,2.7 -0.75,4.2 -0.3,2.55 -0.45,4.95 -0.15,7.5 0,1.35 0.15,2.55 0.3,3.9 0.15,1.05 0.3,2.1 0.6,3.15 0.3,1.2 0.9,2.4 1.5,3.45 0.45,0.9 1.05,1.8 1.8,2.7 0.45,0.6 1.05,1.2 1.65,1.65 1.05,0.75 2.1,1.5 3.3,2.1 1.8,0.9 3.6,1.35 5.4,1.65 2.1,0.3 4.05,0.45 6.15,0.3 1.65,0 3.3,-0.45 4.95,-1.2 0.9,-0.45 1.65,-1.05 2.4,-1.65 0.6,-0.6 1.05,-1.2 1.5,-1.8 0.3,-0.45 0.6,-0.9 0.9,-1.35 l 0.45,-0.45 0,0 z"
     id="path199"
     inkscape:connector-curvature="0" /><path
     class="st28"
     d="m 973.80354,594.75763 c 1.5,2.1 3.75,2.25 5.7,0.3 3,-2.7 4.65,-9.75 3.75,-15.45 -0.9,-5.7 -4.05,-10.05 -7.05,-7.35 -3,2.7 -4.95,11.55 -3.9,17.25 0,1.8 0.6,3.6 1.5,5.25 l 0,0 z"
     id="path201"
     inkscape:connector-curvature="0"
     style="fill:#834317" /><path
     d="m 973.20354,594.75763 c 0.3,0.6 0.9,1.05 1.35,1.35 0.6,0.45 1.2,0.6 1.8,0.75 0.75,0 1.5,0 2.1,-0.3 0.6,-0.3 1.05,-0.6 1.5,-1.05 0.6,-0.6 1.2,-1.2 1.65,-1.95 0.45,-0.6 0.75,-1.2 1.05,-1.8 0.45,-1.05 0.9,-2.1 1.2,-3.15 0.3,-0.9 0.45,-1.8 0.75,-2.7 0.15,-0.75 0.3,-1.35 0.3,-2.1 0,-0.6 0,-1.2 0,-1.95 -0.15,-0.9 -0.15,-1.65 -0.45,-2.55 -0.3,-1.35 -0.75,-2.7 -1.35,-3.9 -0.3,-0.6 -0.6,-1.2 -1.05,-1.8 -0.3,-0.45 -0.75,-0.9 -1.2,-1.35 -0.3,-0.3 -0.6,-0.6 -0.9,-0.75 -0.3,-0.15 -0.6,-0.3 -0.75,-0.45 -0.3,-0.15 -0.45,-0.15 -0.75,-0.15 -0.45,0 -0.9,0 -1.35,0.15 -0.6,0.15 -1.05,0.45 -1.5,0.75 -0.45,0.45 -1.05,0.9 -1.35,1.5 -0.45,0.6 -0.75,1.2 -1.2,1.8 -0.75,1.5 -1.5,3 -1.95,4.65 -0.3,0.9 -0.6,1.95 -0.6,3 0,0.75 0,1.8 0,3.15 0,1.35 0.15,2.85 0.45,4.2 0.3,0.75 0.45,1.5 0.9,2.25 0.3,0.75 0.75,1.35 1.2,1.95 0.15,0.15 0.3,0.45 0.45,0.6 l 0,0 0,0 c -0.15,-0.6 -0.45,-1.05 -0.6,-1.65 -0.15,-0.45 -0.15,-1.05 -0.15,-1.5 0,-0.6 0,-1.2 0,-1.8 0,-0.75 0.15,-1.5 0.15,-2.25 0,-0.75 0.15,-1.5 0.3,-2.25 0.3,-1.5 0.6,-2.85 0.6,-3.9 0,-0.3 0,-0.6 0,-0.9 0.15,-1.5 0.45,-3 0.9,-4.5 0.15,-0.6 0.45,-1.2 0.6,-1.65 0.3,-0.45 0.6,-0.9 0.9,-1.35 0.3,-0.3 0.6,-0.45 0.9,-0.75 0.3,-0.15 0.6,-0.15 0.9,-0.15 0.3,0 0.45,0.15 0.75,0.3 0.15,0.15 0.45,0.3 0.6,0.45 0.15,0.15 0.3,0.45 0.45,0.6 0.3,0.3 0.45,0.75 0.75,1.2 0.3,0.45 0.45,1.05 0.6,1.5 0.3,1.35 0.6,2.7 0.75,4.05 0.15,1.5 0.15,3.15 0,4.65 -0.15,1.5 -0.45,2.7 -0.45,3.6 l 0,0.3 c -0.15,1.05 -0.3,1.95 -0.45,3 -0.15,0.6 -0.3,1.2 -0.6,1.8 -0.3,0.6 -0.6,1.2 -1.05,1.65 l 0,0 c -0.3,0.45 -0.75,0.9 -1.35,1.2 -0.45,0.3 -1.05,0.45 -1.65,0.45 -0.45,0 -1.05,-0.15 -1.5,-0.3 -0.3,-0.15 -0.75,-0.3 -1.05,-0.6 -0.15,-0.15 -0.45,-0.3 -0.6,-0.6 l 0,-0.75 0,0 z"
     id="path203"
     inkscape:connector-curvature="0" /><path
     class="st24"
     d="m 990.30354,560.10763 c -1.05,1.65 -1.65,3.45 -1.95,5.4 -0.6,3.3 -0.3,5.55 1.05,5.25 1.35,-0.3 3,-2.85 3.75,-6.15 0.75,-3.3 -0.15,-6 -1.5,-5.55 -0.6,0.15 -1.05,0.6 -1.35,1.05 l 0,0 z"
     id="path205"
     inkscape:connector-curvature="0"
     style="fill:#834317;stroke:#000000;stroke-width:2.50499988" /><path
     class="st24"
     d="m 985.65354,555.90763 c -1.05,1.05 -1.95,2.25 -2.4,3.75 -1.2,2.7 -1.5,5.25 -0.75,6.15 0.75,0.9 2.4,-0.15 3.6,-2.85 1.2,-2.7 1.35,-6.15 0.6,-6.9 -0.3,-0.3 -0.75,-0.3 -1.05,-0.15 l 0,0 z"
     id="path207"
     inkscape:connector-curvature="0"
     style="fill:#834317;stroke:#000000;stroke-width:2.50499988" /><path
     class="st24"
     d="m 979.05354,556.35763 c -0.9,0.9 -1.5,1.95 -1.8,3.3 -0.75,2.4 -0.9,4.65 -0.15,5.4 0.75,0.75 1.95,0 2.85,-2.4 0.9,-2.4 0.75,-5.4 0,-6.15 -0.3,-0.3 -0.75,-0.3 -0.9,-0.15 l 0,0 z"
     id="path209"
     inkscape:connector-curvature="0"
     style="fill:#834317;stroke:#000000;stroke-width:2.50499988" /><path
     d="m 984.60354,552.30763 1.5,0.15 c 1.05,0.3 2.1,0.75 3,1.35 0.75,0.45 1.35,1.05 1.95,1.8 0.45,0.6 0.9,1.2 1.2,1.95 0.3,0.75 0.6,1.65 0.9,2.4 0.15,0.6 0.3,1.35 0.3,1.95 0.15,1.2 0.15,2.1 0.15,3 0,0 0,0.15 0,0.15 0,1.05 0.15,2.85 0.3,4.8 0.15,1.95 0.15,4.05 0.15,5.7 0,1.2 0,2.25 0,2.85 -0.15,1.05 -0.3,2.25 -0.6,3.3 -0.45,1.65 -0.9,3.3 -1.5,4.8 -0.45,1.2 -0.9,2.4 -1.35,3.3 -0.45,0.9 -0.75,1.65 -0.9,2.1 -0.45,1.05 -0.9,2.25 -1.65,3.15 -0.75,1.05 -1.5,1.95 -2.55,2.7 -0.75,0.6 -1.65,0.9 -2.7,1.05 -0.45,0 -0.6,0.15 -0.6,0.15 0,0 0.15,0.15 0.45,0.3 0.45,0.15 1.05,0.15 1.5,0.15 0.75,0 1.5,-0.15 2.1,-0.45 0.75,-0.3 1.35,-0.6 1.95,-1.05 0.6,-0.45 1.2,-0.9 1.8,-1.5 0.75,-0.75 1.5,-1.8 2.1,-2.7 0.45,-0.75 0.9,-1.65 1.2,-2.7 0.3,-1.35 0.6,-2.7 0.75,-4.2 0.3,-1.95 0.45,-3.9 0.6,-5.7 0.15,-1.8 0.15,-3.15 0.45,-4.05 0,-0.45 0.15,-1.05 0.3,-1.8 l 0,0 c 0.3,-1.35 0.45,-3 0.75,-4.95 0.3,-1.95 0.3,-3.9 0.3,-5.7 0,-1.05 0,-2.1 -0.3,-3.15 -0.15,-0.75 -0.3,-1.5 -0.6,-2.25 -0.45,-1.05 -1.05,-2.1 -1.65,-3 -0.6,-0.75 -1.2,-1.5 -1.95,-2.1 -0.75,-0.6 -1.5,-1.05 -2.4,-1.5 -0.6,-0.3 -1.2,-0.45 -1.95,-0.6 -0.45,-0.15 -1.05,-0.15 -1.5,-0.15 l -1.5,0.45 0,0 z"
     id="path211"
     inkscape:connector-curvature="0" /><path
     class="st22"
     d="m 1102.6535,570.60763 c 0,0 7.5,-6.45 12,-1.35 4.5,5.1 -3.15,18.6 -11.1,20.85 -7.95,2.25 -8.1,-0.45 -8.1,-0.45"
     id="path213"
     inkscape:connector-curvature="0"
     style="fill:#a06121" /><path
     class="st22"
     d="m 1088.7035,484.35763 c 14.1,24.6 14.85,63.9 14.7,79.8 -0.15,11.7 -9.45,33.45 -25.35,38.4 -6.3,1.95 -38.4,18 -46.05,14.7 -12,-5.25 0.9,-34.05 -3.75,-36.6 -15.15,-8.55 -7.05,-34.65 -4.2,-44.4 3.45,-12.45 31.65,-43.5 59.25,-58.05"
     id="path215"
     inkscape:connector-curvature="0"
     style="fill:#a06121" /><path
     class="st29"
     d="m 1035.6035,524.85763 c -7.05,0.3 -10.2,6.15 -13.5,17.7 -3.9,13.2 -3.6,30.15 3.45,34.35 7.05,4.2 15.6,-1.2 19.5,-14.4 3.9,-13.2 3.75,-33.75 -3.15,-36.75 -2.1,-0.45 -4.2,-0.9 -6.3,-0.9 l 0,0 z"
     id="path217"
     inkscape:connector-curvature="0"
     style="fill:#956c45;stroke:#000000;stroke-width:4.24499989" /><path
     d="m 1025.8535,575.70763 c -0.45,-0.6 -0.75,-1.35 -1.05,-2.1 -0.3,-0.75 -0.6,-1.5 -0.75,-2.25 -0.15,-0.9 -0.3,-1.8 -0.15,-2.7 0,-0.75 0.15,-1.5 0.15,-2.25 0,-0.75 0,-1.5 0,-2.4 0,-1.5 0.3,-3.15 0.45,-4.8 0.15,-1.65 0.45,-3.3 0.75,-5.1 0.3,-1.95 0.75,-3.9 1.2,-5.7 0.45,-1.8 0.9,-3.75 1.5,-5.4 0.75,-2.25 1.65,-4.35 2.55,-6.45 0.9,-1.8 1.65,-3.15 2.1,-4.05 0.75,-1.2 1.5,-2.4 2.4,-3.6 0.45,-0.6 0.9,-1.05 1.5,-1.5 0.6,-0.6 1.2,-1.05 1.8,-1.5 1.35,-1.05 2.7,-1.95 4.2,-2.7 1.2,-0.75 2.4,-1.35 3.75,-2.1 0.45,-0.15 0.75,-0.45 1.2,-0.75 l 0.45,-0.3 c 0.15,-0.15 0.15,-0.15 0.3,-0.3 l 3.3,-6.75 c 0.75,-2.1 1.8,-4.05 3,-5.85 l 0.3,-0.45 c 0.3,-0.45 0.6,-0.75 0.75,-1.05 l 0.3,-0.45 0,-0.15 -0.15,-0.15 0,0 0,0 0,0 0,0 0,0 0.15,0.15 -0.15,0.15 -0.45,0.45 c -0.45,0.45 -0.9,1.05 -1.2,1.5 -0.6,0.75 -1.05,1.65 -1.65,2.4 -0.6,1.05 -1.2,2.25 -1.65,3.45 l -3.45,6.75 0,0 -0.15,0.15 0,0 -0.3,0.15 0,0 c -0.45,0.3 -0.75,0.45 -1.2,0.6 -1.2,0.6 -2.55,1.35 -3.75,1.95 -1.5,0.75 -3,1.65 -4.35,2.7 -1.35,0.9 -2.55,1.95 -3.45,3.15 -2.25,2.85 -4.05,6 -5.4,9.45 -0.75,1.65 -1.2,3.3 -1.8,5.1 -1.05,3.75 -1.95,7.5 -2.4,11.25 -0.45,3.3 -0.9,6.6 -1.05,10.05 0,1.65 0,3.15 -0.15,4.65 -0.15,0.9 0,1.8 0.15,2.7 0.15,0.75 0.45,1.65 0.75,2.4 0.45,0.9 0.75,1.8 1.35,2.55 0.45,0.75 0.9,1.5 1.35,1.95 l 0.15,0.15 c 1.2,1.5 2.55,2.85 4.05,4.2 -1.2,-1.65 -2.55,-3.15 -3.9,-4.65 -0.3,-0.9 -0.9,-1.8 -1.35,-2.55 l 0,0 z"
     id="path219"
     inkscape:connector-curvature="0" /><path
     d="m 1049.2535,521.25763 c -0.6,0 -1.2,-0.15 -1.65,-0.15 -0.75,-0.15 -1.5,-0.3 -1.95,-0.3 l -0.15,0 c -0.45,0 -0.9,0 -1.35,0 -0.45,0 -1.05,-0.15 -1.5,-0.3 -0.15,0 -0.3,0 -0.15,0.15 0.15,0.15 0.45,0.3 0.75,0.45 0.45,0.15 0.75,0.3 1.2,0.45 0.45,0.15 0.9,0.15 1.2,0.15 l 0.3,0 2.1,-0.15 c 0.45,0 1.05,0 1.5,0 0.3,0 0.45,0 0.45,-0.15 0,-0.15 -0.3,-0.15 -0.75,-0.15 l 0,0 z"
     id="path221"
     inkscape:connector-curvature="0" /><path
     d="m 1050.4535,517.95763 c -0.45,0 -0.75,-0.15 -1.2,-0.3 -0.45,-0.15 -0.75,-0.3 -1.2,-0.3 l 0,0 c -0.6,0 -1.2,-0.15 -1.8,-0.15 -0.3,0 0,0.15 0.3,0.45 0.45,0.3 0.9,0.6 1.35,0.75 0.15,0 0.3,0 0.45,0 l 1.35,-0.15 c 0.3,0 0.6,0 1.05,0 0.15,0 0.3,0 0.3,-0.15 0,-0.15 -0.15,-0.15 -0.6,-0.15 l 0,0 z"
     id="path223"
     inkscape:connector-curvature="0" /><path
     d="m 1087.8035,484.80763 c 1.95,3.45 3.6,6.9 5.1,10.5 1.35,3.3 2.55,6.45 3.45,9.3 l 0,0 c 1.2,3.9 2.25,7.95 3.15,12 0.75,3.45 1.2,6.45 1.5,9.15 0.45,3 0.6,5.4 0.75,7.5 0.15,2.1 0.3,3.9 0.45,5.7 0.15,1.8 0.3,4.2 0.45,6.9 0.15,2.4 0.15,5.25 0.15,8.1 0,2.85 -0.15,5.85 -0.45,8.7 -0.15,2.1 -0.45,4.2 -0.75,6.15 -0.3,1.95 -0.6,3.45 -0.9,4.8 -0.3,1.35 -0.6,2.7 -0.9,3.75 -0.15,0.75 -0.45,1.35 -0.45,1.8 0,0.45 -0.6,1.8 -1.2,3 -0.6,1.5 -1.35,3 -2.1,4.35 -0.75,1.35 -1.65,2.85 -2.7,4.05 -1.05,1.35 -2.25,2.7 -3.6,3.9 l 0,0 c -1.65,1.5 -3.45,2.85 -5.4,3.9 -2.4,1.5 -4.95,2.7 -7.2,3.75 -4.05,1.95 -7.5,3.3 -9.15,4.05 -1.65,0.75 -4.5,1.95 -7.8,3.3 -2.4,0.9 -4.95,1.95 -7.8,2.85 -2.85,0.9 -5.55,1.95 -8.4,2.7 -2.1,0.6 -4.2,1.2 -6.15,1.8 l -2.1,0.6 c -0.9,0.15 -1.5,0.3 -1.8,0.45 -0.3,0.15 -0.3,0.15 0,0.15 0.45,0 0.9,0 1.5,0 0.75,0 1.65,-0.15 2.7,-0.3 1.8,-0.3 3.9,-0.6 6.45,-1.2 2.55,-0.6 5.25,-1.2 8.1,-1.95 2.85,-0.75 5.7,-1.65 8.55,-2.55 2.85,-0.9 5.25,-1.8 7.5,-2.7 2.25,-0.9 4.5,-1.95 6.15,-2.85 1.2,-0.6 2.25,-1.2 3.45,-1.8 2.4,-1.35 4.8,-2.85 7.2,-4.5 1.95,-1.35 3.75,-2.85 5.55,-4.5 2.4,-2.55 4.5,-5.55 6,-8.7 l 0,0 c 1.5,-3.15 2.7,-6.3 3.6,-9.6 l 0.3,-1.05 c 0.45,-1.5 1.2,-4.2 1.95,-7.5 0.45,-1.8 0.75,-3.9 1.05,-6.15 l 0,0 c 0.45,-2.55 0.75,-5.4 0.9,-8.25 0.15,-2.85 0.3,-5.85 0.15,-8.7 l 0,0 c 0,-4.05 -0.3,-7.95 -0.6,-11.55 -0.3,-3.6 -0.75,-6.6 -1.2,-9 -0.15,-0.6 -0.3,-1.2 -0.3,-1.65 -0.45,-2.1 -1.2,-5.25 -2.25,-8.55 -1.05,-3.3 -2.25,-7.2 -3.6,-10.8 -1.05,-2.55 -2.1,-5.1 -3.15,-7.5 -1.05,-2.4 -2.1,-4.5 -3.15,-6.15 -1.05,-1.65 -1.8,-3.15 -2.4,-4.2 -0.6,-1.05 -0.6,-1.35 -0.6,-1.5 l 0,0 z m -67.8,75.9 c 0,-2.85 0.15,-5.55 0.3,-8.4 0.15,-2.25 0.6,-4.5 1.2,-6.6 l 0,0 c 0.45,-1.8 1.2,-3.6 1.95,-5.4 0.75,-1.5 1.35,-2.85 1.95,-4.05 0.6,-1.2 1.2,-2.1 1.65,-2.85 0.45,-0.75 1.05,-1.5 1.5,-2.25 l 1.65,-2.25 c 0.75,-1.05 1.65,-2.55 3,-4.35 1.05,-1.35 2.1,-3 3.15,-4.5 1.05,-1.5 2.25,-3.15 3.45,-4.65 2.25,-3 4.35,-5.4 5.25,-6.6 l 0.6,-0.75 c 0.75,-0.9 1.95,-2.1 3.45,-3.45 1.5,-1.35 3.15,-2.85 4.95,-4.35 1.8,-1.5 3.6,-3 5.25,-4.35 1.65,-1.35 3.3,-2.55 4.35,-3.45 0.75,-0.6 1.2,-0.9 1.65,-1.35 1.5,-1.35 4.2,-3.6 7.5,-5.7 1.65,-1.05 3.3,-2.25 4.95,-3.15 1.65,-0.9 3.3,-1.95 4.8,-2.7 0.75,-0.3 1.05,-0.6 1.05,-0.6 0,0 -0.3,0 -0.75,0 -1.95,0.45 -3.75,1.2 -5.7,1.95 -2.85,1.2 -5.55,2.55 -8.1,4.05 -2.55,1.5 -4.95,3.15 -7.35,5.1 -0.45,0.45 -0.9,0.75 -1.2,1.05 -3,2.7 -5.85,5.7 -8.55,8.55 -2.7,2.85 -5.1,5.55 -6.9,7.65 -0.75,0.75 -1.35,1.5 -1.95,2.1 -0.9,0.9 -2.7,2.7 -4.95,5.1 -2.25,2.4 -4.8,5.25 -7.05,8.25 -1.8,2.25 -3.45,4.65 -4.8,6.75 l 0,0 c -0.75,1.05 -1.35,2.1 -1.8,3 -0.45,0.75 -0.9,1.65 -1.2,2.55 l 0,0.15 c -0.45,1.05 -1.05,2.55 -1.5,4.35 -0.6,1.95 -1.05,3.75 -1.5,5.7 -0.3,1.8 -0.45,3.6 -0.6,5.55 0,1.8 0,3.45 0,4.95 0,1.5 0.15,2.7 0.15,3.6 0,0.9 0.15,1.35 0.15,1.35 l 0,0 z"
     id="path225"
     inkscape:connector-curvature="0" /><g
     id="g4320"
     transform="matrix(1.5,0,0,1.5,-222.89646,-96.742363)"><path
       class="st22"
       d="m 876.1,392.8 c -1.3,-0.3 -2,0.4 -3,1 -1,0.6 -1.6,2.4 -2,2.8 l -0.2,0.1 c -1.6,3.9 -4.1,7.3 -7.2,10.1 -8.3,7.4 -16.7,7.5 -20.3,19.6 -0.7,2.2 3.2,8.2 6.6,10.6 4.2,3 10.8,0.6 16.1,-4.2 6.6,-6 13,-18.9 14.9,-26.7 0,-0.4 0,-0.8 0.1,-1.3 0.2,-1 0.3,-2 0.3,-3 0.1,-1.6 -0.1,-3.2 -0.4,-4.8 -0.4,-1.1 -1.1,-2.1 -1.9,-3 -0.8,-0.8 -1.6,-0.9 -3,-1.2 l 0,0 z"
       id="path228"
       inkscape:connector-curvature="0"
       style="fill:#a06121" /><path
       class="st23"
       d="m 880.4,395.8 c 0,0.8 -0.1,1.6 -0.2,2.5 -0.1,1 -0.2,2.1 -0.4,3.2 -0.2,1.1 -0.4,2.2 -0.8,3.2 -0.3,0.9 -0.6,1.9 -1,2.9 -0.4,1 -1.4,2.6 -1.9,3.8 -0.5,1.2 -1,2.5 -1.6,3.7 -0.6,1.2 -1.2,2.5 -1.9,3.8 -0.7,1.3 -1.4,2.5 -2.1,3.7 -0.7,1.2 -1.5,2.4 -2.3,3.5 -0.8,1.1 -1.6,2.1 -2.4,3.1 -0.8,0.9 -1.6,1.8 -2.5,2.6 -0.7,0.6 -1.3,1.1 -2,1.7 -0.7,0.5 -1.4,1 -2.1,1.4 -0.7,0.4 -1.4,0.8 -2.2,1.1 -0.7,0.3 -1.4,0.6 -2.2,0.8 -0.7,0.2 -1.4,0.3 -2.1,0.4 -0.7,0.1 -1.3,0.1 -2,0 -0.3,0 -0.6,-0.1 -0.9,-0.2 l 0,0 c 4.2,3 10.8,0.6 16.1,-4.2 6.6,-6 13,-18.9 14.9,-26.7 0,-0.4 0,-0.8 0.1,-1.3 0.2,-1 0.3,-2 0.3,-3 0.1,-1.6 -0.1,-3.2 -0.4,-4.8 0,-0.5 -0.2,-0.9 -0.4,-1.2 l 0,0 z"
       id="path230"
       inkscape:connector-curvature="0"
       style="fill:#b8854f" /><path
       d="m 879.4,394.1 1.3,2.4 c 0.4,1.5 0.5,3.1 0.4,4.7 -0.1,1.5 -0.4,2.9 -0.8,4.4 -0.3,1.2 -0.7,2.4 -1,3.5 -0.3,1.1 -0.8,2.1 -1.2,3.1 -1.1,2.5 -2.3,5 -3.6,7.4 -1.3,2.4 -2.9,4.8 -4.5,7 -1,1.3 -1.9,2.4 -2.8,3.4 -0.5,0.6 -1.2,1.3 -2.1,2.1 -1.1,1 -2.3,2 -3.5,2.8 -1.4,0.9 -2.9,1.7 -4.5,2.2 -1.2,0.4 -2.5,0.6 -3.8,0.5 -1.1,0 -2.3,-0.4 -3.2,-1 -0.9,-0.6 -1.8,-1.4 -2.5,-2.2 -0.8,-0.9 -1.6,-1.9 -2.3,-2.9 -0.2,-0.3 -0.4,-0.6 -0.5,-0.8 -0.1,-0.2 -0.3,-0.5 -0.5,-0.9 -0.2,-0.4 -0.4,-0.8 -0.5,-1.2 -0.1,-0.4 -0.2,-0.8 -0.2,-1.2 0,-0.3 0,-0.5 0,-0.8 0.4,-1.2 0.8,-2.3 1.4,-3.4 0.6,-1.2 1.4,-2.4 2.3,-3.5 l 0,0 c 0.7,-0.8 1.4,-1.6 2.3,-2.3 0.8,-0.7 1.7,-1.3 2.6,-1.9 l 0,0 c 1,-0.7 2,-1.3 3,-1.8 1,-0.5 2,-1.1 2.8,-1.6 0.8,-0.5 1.9,-1.2 2.7,-1.7 0.8,-0.5 1.3,-1 1.7,-1.3 0.4,-0.3 1.2,-1 2,-1.7 0.6,-0.5 1.2,-1.1 1.8,-1.8 0.7,-0.7 1.4,-1.4 2,-2.2 0.8,-1 1.4,-2 2,-3.1 0.5,-0.9 0.8,-1.8 1.2,-2.6 0.5,-1 1,-1.9 1.6,-2.8 0.5,-0.8 1.2,-1.4 2.1,-1.7 0.6,-0.2 1.3,-0.2 1.9,0 0.4,0.1 0.7,0.2 1.1,0.4 l 0.5,0.3 c 0.5,0.3 0.7,0.4 0.7,0.4 l 0,0 c 0.5,-0.7 0.5,-0.7 0,0 l 0,0 c 0,0 -0.2,-0.3 -0.5,-0.6 -0.2,-0.2 -0.4,-0.3 -0.7,-0.5 -0.3,-0.2 -0.6,-0.3 -0.9,-0.5 -0.3,-0.1 -0.7,-0.2 -1.1,-0.2 -0.4,0 -0.8,0 -1.2,0.1 -0.5,0.1 -1,0.3 -1.4,0.6 -0.5,0.3 -0.9,0.7 -1.3,1.2 -0.7,0.9 -1.4,1.8 -1.9,2.9 -0.5,0.8 -0.9,1.7 -1.4,2.5 -0.6,1 -1.3,1.9 -2,2.7 -1.2,1.3 -2.5,2.5 -3.8,3.6 -1.7,1.4 -3.6,2.8 -5.5,4 l -0.6,0.4 c -1.8,1.2 -3.8,2.5 -5.7,3.9 l 0,0 c -1.9,1.3 -3.5,3 -4.9,4.8 -0.8,1.2 -1.6,2.4 -2.1,3.7 -0.5,1.2 -1,2.4 -1.3,3.7 -0.1,0.4 -0.1,0.7 0,1.1 0.1,0.4 0.2,0.9 0.3,1.3 0.4,1 0.9,2.1 1.5,3 0.2,0.4 0.5,0.7 0.7,1 0.5,0.7 1,1.4 1.5,2 0.7,0.9 1.6,1.8 2.5,2.5 0.5,0.4 1.1,0.7 1.7,0.9 0.6,0.3 1.3,0.4 2,0.5 1.5,0.1 2.9,0 4.3,-0.4 1.7,-0.5 3.2,-1.1 4.7,-2 1.5,-0.9 2.9,-1.9 4.2,-3 1.9,-1.7 3.6,-3.7 5.1,-5.8 1.2,-1.7 2.4,-3.5 3.3,-5.4 0.3,-0.6 0.6,-1.3 1,-2 1.2,-2.5 2.3,-5.1 3.2,-7.7 l 0,0 c 0.8,-2.2 1.4,-4.5 1.9,-6.8 0.2,-0.9 0.3,-1.9 0.4,-2.7 0.1,-0.8 0.1,-1.6 0.1,-2.5 0,-0.7 -0.1,-1.5 -0.2,-2.2 -0.1,-0.6 -0.2,-1.2 -0.4,-1.8 l -1.4,-2.5 0,0 z"
       id="path232"
       inkscape:connector-curvature="0" /><path
       d="m 847.3,428.8 c 0,0.1 0,0.2 0,0.4 -0.1,0.2 -0.1,0.3 -0.3,0.4 -0.2,0.2 -0.3,0.3 -0.5,0.4 -0.2,0.1 -0.4,0.2 -0.7,0.3 -0.6,0.2 -1.1,0.3 -1.7,0.3 l -0.5,0 c -0.7,0 -1.3,-0.2 -1.9,-0.4 -0.2,-0.1 -0.4,-0.2 -0.6,-0.4 -0.1,-0.1 -0.1,-0.1 -0.2,-0.2 0,0 0,-0.1 0,-0.1 0,-0.1 0,-0.1 0,-0.1 l 0,0 0,0 0,0 c 0,0 0,0 0,-0.1 l 0,0 c 0,0 0,-0.1 0,-0.1 0,-0.1 0.1,-0.1 0.2,-0.2 0.2,-0.2 0.4,-0.3 0.6,-0.4 0.6,-0.2 1.2,-0.3 1.9,-0.4 l 0.5,0 c 0.5,0 1,0 1.5,0.1 0.2,0 0.4,0.1 0.6,0.1 0.2,0 0.3,0.1 0.5,0.2 0.1,0.1 0.2,0.1 0.3,0.2 0.1,-0.1 0.2,-0.1 0.3,0 l 0,0 z"
       id="path234"
       inkscape:connector-curvature="0" /><path
       d="m 846,424.9 c 0.1,0.2 0.1,0.5 0,0.7 -0.2,0.3 -0.5,0.6 -0.8,0.8 -0.3,0.2 -0.7,0.4 -1.1,0.5 l -0.4,0.1 c -0.5,0.1 -1,0.1 -1.5,0 -0.2,-0.1 -0.4,-0.1 -0.5,-0.3 -0.1,-0.1 -0.1,-0.1 -0.2,-0.2 l -0.1,-0.1 0,-0.1 0,0 0,0 0,0 0,-0.1 c 0,0 0,-0.1 0,-0.1 0,-0.1 0,-0.2 0.1,-0.2 0.1,-0.2 0.2,-0.3 0.3,-0.5 0.4,-0.3 0.8,-0.6 1.2,-0.7 l 0.4,-0.1 c 0.4,-0.1 0.7,-0.2 1.1,-0.2 0.3,0 0.6,0 0.9,0.1 0.3,0.1 0.5,0.2 0.6,0.4 l 0,0 z"
       id="path236"
       inkscape:connector-curvature="0" /><path
       d="m 849.4,434.5 c 0.2,0.3 0.2,0.7 0,1.1 -0.2,0.5 -0.6,0.9 -1,1.1 -0.3,0.2 -0.6,0.3 -1,0.4 -0.3,0.1 -0.6,0 -0.9,-0.1 -0.1,0 -0.2,-0.1 -0.3,-0.2 -0.1,-0.1 -0.1,-0.2 -0.2,-0.3 l 0,0 c 0,-0.1 0,-0.2 0,-0.3 0,-0.1 0,-0.2 0,-0.3 0.1,-0.3 0.2,-0.5 0.4,-0.7 0.2,-0.2 0.4,-0.4 0.7,-0.6 0.4,-0.2 0.8,-0.4 1.3,-0.4 0.3,-0.2 0.7,0 1,0.3 l 0,0 z"
       id="path238"
       inkscape:connector-curvature="0" /></g><g
     id="g4380"
     transform="matrix(1.5,0,0,1.5,-222.89646,-96.742363)"><g
       id="g4181"><path
         class="st22"
         d="m 846.8,352.3 c 0,0 -3.6,-1.9 -4,-2.7 -0.4,-0.8 -4.3,-7.1 -4.4,-10.5 -0.1,-3.4 0.1,-7.9 2,-10.7 1.9,-2.8 5.1,-5.6 6.4,-5.9 1.3,-0.3 4.6,1.9 5.2,2.9 0.6,1 4.9,7.4 5.2,8 0.3,0.6 -10.4,18.9 -10.4,18.9 l 0,0 z"
         id="path242"
         inkscape:connector-curvature="0"
         style="fill:#a06121" /><path
         class="st30"
         d="m 846.8,322.6 0,0 c -1.3,0.3 -4.5,3.1 -6.4,5.9 -1.9,2.8 -2,7.3 -2,10.7 0,3.4 3.8,9.6 4.3,10.5 0.5,0.9 4,2.7 4,2.7 l 1.2,-2.1 c -0.3,-0.2 -0.4,-0.2 -0.8,-0.4 -0.4,-0.2 -1,-0.6 -1.4,-0.9 -0.3,-0.2 -0.6,-0.5 -0.8,-0.8 -0.1,-0.2 -0.4,-0.8 -0.9,-1.5 -0.5,-0.7 -1,-1.7 -1.5,-2.8 -0.3,-0.5 -0.5,-1.1 -0.7,-1.6 -0.2,-0.5 -0.5,-1.1 -0.6,-1.6 -0.2,-0.5 -0.3,-1 -0.5,-1.5 -0.1,-0.5 -0.2,-0.9 -0.2,-1.4 0,-0.8 0,-1.8 0,-2.7 0,-1 0.1,-1.9 0.2,-2.9 0.1,-0.5 0.2,-1 0.3,-1.4 0.1,-0.4 0.2,-0.9 0.4,-1.3 0.1,-0.4 0.3,-0.8 0.5,-1.3 0.2,-0.4 0.4,-0.8 0.6,-1.1 0.5,-0.7 1,-1.4 1.6,-2 0.6,-0.6 1.2,-1.3 1.8,-1.8 0.4,-0.4 0.7,-0.5 0.9,-0.7 l 0,0 z"
         id="path244"
         inkscape:connector-curvature="0"
         style="fill:#6e4a25" /><path
         d="m 857.6,334.2 0,0 0,0 0,-0.1 -0.2,-0.4 c -0.2,-0.5 -0.4,-0.9 -0.6,-1.3 l 0,0 c -0.8,-1.6 -1.5,-2.9 -2.2,-4 -0.6,-1 -1.1,-1.8 -1.6,-2.5 -0.5,-0.7 -1,-1.3 -1.4,-1.8 -0.5,-0.6 -1.1,-1.2 -1.8,-1.7 -0.5,-0.5 -1.2,-0.8 -1.9,-1 -0.2,0 -0.3,-0.1 -0.5,-0.1 -0.3,0 -0.6,0 -0.9,0.1 -0.4,0.1 -0.7,0.3 -1.1,0.5 -0.4,0.3 -0.9,0.6 -1.2,1 -0.4,0.4 -0.8,0.9 -1.2,1.3 -0.4,0.5 -0.8,1.1 -1.2,1.7 -0.4,0.6 -0.7,1.1 -1,1.7 -0.6,1.1 -1,2 -1.2,2.5 -0.1,0.3 -0.4,0.8 -0.6,1.5 -0.2,0.5 -0.4,1.1 -0.5,1.6 -0.2,0.7 -0.3,1.3 -0.3,2 l 0,0 c -0.1,0.7 -0.1,1.3 -0.1,2 0,0.7 0,1.4 0.1,2 l 0,0 c 0.1,1.3 0.3,2.5 0.5,3.8 0.1,0.6 0.2,1.1 0.3,1.6 0.1,0.5 0.2,0.8 0.3,1.1 l 0,0 c 0.4,1 1,2 1.7,2.8 0.7,0.7 1.4,1.4 2.2,2 0.7,0.5 1.4,1 2.1,1.4 0.3,0.2 0.6,0.4 1,0.5 0.1,0.1 0.3,0.1 0.5,0.1 0.1,0 0,-0.1 0,-0.2 0,-0.1 -0.3,-0.2 -0.5,-0.4 l -0.8,-0.7 c -0.5,-0.5 -1.2,-1.1 -1.9,-1.9 -0.7,-0.7 -1.3,-1.5 -1.9,-2.3 -0.3,-0.4 -0.5,-0.8 -0.7,-1.2 -0.2,-0.4 -0.4,-0.8 -0.5,-1.2 -0.2,-0.7 -0.4,-1.3 -0.5,-1.9 l -0.1,-0.5 c -0.3,-1.1 -0.5,-2.2 -0.7,-3.4 -0.2,-1.2 -0.3,-2.5 -0.3,-3.7 l 0,0 c 0,-0.6 0.1,-1.2 0.2,-1.8 0.1,-0.5 0.2,-1 0.4,-1.5 0.3,-0.8 0.6,-1.6 1,-2.3 0.2,-0.4 0.6,-1.1 1.2,-1.8 0.6,-0.9 1.3,-1.7 2,-2.5 0.7,-0.7 1.4,-1.3 2.3,-1.8 0.3,-0.2 0.7,-0.3 1,-0.4 0.3,-0.1 0.6,-0.1 0.9,0 l 0,0 c 0.6,0.1 1.1,0.4 1.5,0.7 0.4,0.3 0.8,0.6 1,0.8 0.2,0.2 0.4,0.3 0.6,0.5 0.6,0.5 1.1,1 1.6,1.5 0.6,0.6 1.2,1.4 1.7,2.1 1,1.3 1.8,2.6 2.5,3.7 0.3,0.5 0.5,0.9 0.7,1.2 l 0.2,0.3 0,0 0,0.1 0,0 0,0 -0.1,0.3 z"
         id="path246"
         inkscape:connector-curvature="0" /><path
         class="st28"
         d="m 855.2,338.9 c -1.2,1.6 -2.2,3.2 -3.1,4.9 -0.6,1.5 -1.5,2.8 -2.5,4 -0.4,-0.1 -0.8,-0.2 -1.2,-0.4 -0.8,-1.3 -1.5,-2.8 -2.1,-4.2 -0.5,-1.6 -1.8,-3.1 -1.2,-5 0.6,-1.9 1.1,-5.1 2.4,-5.2 1.3,-0.2 2.6,-0.1 3.9,0.2 0.7,0.4 1.4,0.8 1.9,1.4 0.4,0.5 2.5,3.5 1.9,4.3 l 0,0 z"
         id="path248"
         inkscape:connector-curvature="0"
         style="fill:#834317" /><path
         class="st31"
         d="m 847.3,333.1 c -1.2,0.5 -1.7,3.3 -2.2,5.1 -0.5,1.8 0.7,3.3 1.2,5 0.6,1.5 1.3,2.9 2.1,4.2 0.4,0.2 0.8,0.3 1.2,0.4 0.3,-0.2 0.5,-0.5 0.7,-0.9 -0.2,0 -0.4,-0.1 -0.6,-0.1 -0.3,-0.1 -0.5,-0.2 -0.5,-0.2 0,0 -0.4,-0.6 -0.8,-1.5 -0.2,-0.4 -0.5,-0.9 -0.7,-1.4 -0.2,-0.4 -0.4,-0.9 -0.5,-1.4 -0.1,-0.4 -0.3,-0.8 -0.5,-1.2 -0.2,-0.4 -0.4,-0.8 -0.5,-1.2 -0.1,-0.2 -0.1,-0.4 -0.2,-0.6 -0.1,-0.2 -0.1,-0.4 -0.1,-0.6 -0.1,-0.4 0,-0.9 0.1,-1.3 0.1,-0.5 0.3,-1 0.4,-1.6 0.1,-0.6 0.3,-1.1 0.5,-1.7 0.1,-0.2 0.2,-0.5 0.3,-0.7 0,-0.1 0.1,-0.2 0.1,-0.3 l 0,0 z"
         id="path250"
         inkscape:connector-curvature="0"
         style="fill:#5d381e" /><path
         d="m 855.2,338.8 c -0.4,0.4 -0.9,0.8 -1.3,1.2 -0.4,0.4 -0.7,0.8 -1,1.2 -0.3,0.4 -0.7,0.9 -1,1.4 -0.3,0.4 -0.5,0.8 -0.7,1.3 -0.2,0.4 -0.4,0.8 -0.7,1.2 -0.2,0.3 -0.4,0.6 -0.6,0.8 -0.2,0.3 -0.4,0.5 -0.7,0.7 -0.2,0.1 -0.3,0.2 -0.4,0.2 l 0.2,0 -0.1,-0.1 c -0.2,-0.2 -0.4,-0.4 -0.5,-0.7 -0.2,-0.3 -0.5,-0.7 -0.8,-1.1 -0.3,-0.4 -0.5,-0.9 -0.8,-1.3 -0.3,-0.4 -0.6,-1.1 -0.8,-1.7 -0.2,-0.6 -0.4,-1 -0.5,-1.4 -0.1,-0.2 -0.1,-0.4 -0.2,-0.5 -0.1,-0.3 -0.1,-0.7 -0.2,-1 0,-0.4 0,-0.8 0.1,-1.1 l 0,0 c 0.2,-0.6 0.4,-1.2 0.8,-1.8 0.3,-0.5 0.7,-0.9 1.2,-1.3 0.3,-0.3 0.6,-0.5 1,-0.7 l 0.7,-0.3 c 0.2,-0.1 0.5,-0.2 0.7,-0.3 0.2,0 0.3,0 0.5,0 0.2,0 0.4,0.1 0.7,0.1 0.5,0.2 0.9,0.4 1.4,0.7 0.5,0.3 0.9,0.7 1.3,1 0.2,0.1 0.3,0.2 0.3,0.1 l 0,0 c -0.3,-0.7 -0.8,-1.4 -1.3,-2 -0.4,-0.5 -0.9,-0.9 -1.4,-1.2 -0.4,-0.3 -1,-0.5 -1.6,-0.5 -0.4,0 -0.7,0.1 -1.1,0.2 -0.3,0.1 -0.6,0.3 -0.9,0.5 -0.3,0.3 -0.7,0.6 -1,1 -0.5,0.6 -0.9,1.3 -1.2,2 -0.3,0.7 -0.5,1.5 -0.6,2.3 -0.1,0.5 -0.1,1 0,1.5 0.1,0.6 0.2,1.1 0.3,1.6 l 0,0.2 c 0.1,0.3 0.2,0.8 0.3,1.4 0.1,0.6 0.4,1.3 0.7,2 0.4,1 0.9,2 1.4,3 0.2,0.3 0.4,0.6 0.7,0.9 0.1,0.1 0.2,0.2 0.3,0.3 0.1,0.1 0.3,0.1 0.5,0.1 0.3,-0.1 0.6,-0.3 0.9,-0.5 0.3,-0.3 0.6,-0.6 0.8,-1 0.1,-0.2 0.2,-0.4 0.3,-0.6 0.3,-0.6 0.6,-1.3 0.8,-2 0.1,-0.4 0.3,-0.9 0.5,-1.3 0.2,-0.5 0.5,-1.1 0.8,-1.6 0.3,-0.5 0.5,-0.8 0.7,-1.2 0.2,-0.4 0.5,-0.7 0.6,-0.9 0.5,-0.2 0.7,-0.5 0.9,-0.8 l 0,0 z"
         id="path252"
         inkscape:connector-curvature="0" /><path
         d="m 841.1,331.3 0,0 0,0 0,0 0,0 c -0.1,0 -0.2,0 -0.2,0 -0.1,0 -0.2,-0.1 -0.3,-0.2 -0.3,-0.2 -0.5,-0.5 -0.7,-0.8 l -0.2,-0.4 c -0.1,-0.2 -0.2,-0.4 -0.3,-0.6 -0.1,-0.2 -0.2,-0.5 -0.3,-0.7 0,-0.1 -0.1,-0.2 -0.1,-0.4 0,-0.1 -0.1,-0.2 -0.1,-0.4 0,-0.1 0,-0.2 0.1,-0.4 0.1,-0.1 0.2,-0.2 0.3,-0.3 0.1,-0.1 0.3,-0.1 0.5,0 0.2,0 0.4,0.1 0.5,0.3 0.3,0.2 0.5,0.5 0.6,0.8 0.1,0.2 0.2,0.4 0.3,0.6 0.2,0.5 0.3,1 0.3,1.5 0,0.2 0,0.4 -0.1,0.6 0,0.1 -0.1,0.1 -0.1,0.2 l 0,0 -0.1,0.1 0,0 0,0 -0.1,0.1 z"
         id="path254"
         inkscape:connector-curvature="0" /><path
         d="m 840.1,333.8 c -0.1,0.3 -0.3,0.5 -0.6,0.5 -0.4,0 -0.8,-0.1 -1.1,-0.2 l -0.3,-0.1 c -0.4,-0.1 -0.7,-0.2 -1.1,-0.5 -0.1,-0.1 -0.2,-0.2 -0.3,-0.3 -0.1,-0.1 -0.1,-0.2 -0.2,-0.3 -0.1,-0.1 -0.1,-0.2 -0.2,-0.3 0,-0.1 -0.1,-0.2 -0.1,-0.3 0,-0.1 0,-0.2 0,-0.3 0,-0.1 0.1,-0.2 0.2,-0.3 0.1,-0.1 0.2,-0.2 0.3,-0.2 0.1,-0.1 0.3,-0.1 0.4,-0.1 0.4,-0.1 0.9,0 1.3,0.1 l 0.3,0.1 0,0 c 0.4,0.3 0.8,0.7 1.1,1.1 0.3,0.4 0.4,0.8 0.3,1.1 l 0,0 z"
         id="path256"
         inkscape:connector-curvature="0" /></g><path
       class="st22"
       d="m 835,359.4 c 0,0 0.5,-10.1 1.4,-12.4 0.9,-2.3 3.6,-9.6 5.9,-11.8 2.3,-2.2 4.9,-5.6 9,-7.8 4.1,-2.2 15.9,-4.1 18.5,-4.1 2.6,0 8.1,2 10,2.9 1.9,0.9 6.3,6.8 8.5,9.6 2.2,2.8 7,13.8 7.6,16 0.6,2.2 2.5,11.8 2.1,15.1 -0.4,3.3 -1.1,9.3 -3.1,12.1 -2,2.8 -8.8,8.9 -11.3,9.4 -2.5,0.5 -21.6,7.8 -27.1,6.1 -5.5,-1.7 -15.6,-11.3 -16,-13.8 -0.4,-2.5 -5.3,-18.2 -5.5,-21.3 l 0,0 z"
       id="path258"
       inkscape:connector-curvature="0"
       style="fill:#a06121" /><path
       class="st31"
       d="m 869.8,323.4 c -2.6,0 -14.4,2 -18.5,4.1 -4.1,2.1 -6.8,5.6 -9,7.8 -2.2,2.2 -5,9.5 -5.9,11.8 -0.9,2.3 -1.4,12.4 -1.4,12.4 0.1,3.1 5.1,18.9 5.5,21.4 0.4,2.5 9.1,11.9 14.6,13.6 1.1,0.4 2.2,0.3 4.5,-0.5 -1.6,0.2 -2.5,0.4 -3.4,0.1 -5.5,-1.8 -14.2,-10.8 -14.6,-13.3 -0.4,-2.5 -5.4,-18.3 -5.5,-21.4 0,0 0.5,-10.1 1.4,-12.4 0.9,-2.3 3.6,-9.6 5.9,-11.8 2.3,-2.2 4.9,-5.6 9,-7.8 4.1,-2.2 15.2,-4 18.2,-4.1 l -0.8,0.1 0,0 z"
       id="path260"
       inkscape:connector-curvature="0"
       style="fill:#5d381e" /><path
       d="m 839.2,356.1 c 0.1,-0.1 0.3,-0.1 0.5,-0.1 0.1,0 0.2,0 0.3,0 0.1,0 0.2,0 0.3,0.1 0.1,0 0.2,0.1 0.2,0.1 0.2,0 0.3,0.1 0.4,0.2 0.2,0.1 0.4,0.2 0.5,0.3 0.1,0 0.1,0 0.1,-0.1 0,-0.1 -0.1,-0.3 -0.2,-0.4 -0.1,-0.2 -0.2,-0.3 -0.4,-0.5 -0.1,-0.1 -0.3,-0.2 -0.5,-0.2 l -0.1,0 c -0.3,0 -0.6,0.1 -0.8,0.2 -0.2,0.1 -0.4,0.2 -0.5,0.3 -0.1,0.1 -0.2,0.1 -0.1,0.2 0.1,0.1 0.1,0 0.3,-0.1 l 0,0 z"
       id="path262"
       inkscape:connector-curvature="0" /><path
       d="m 839.9,354.2 c 0.1,-0.1 0.2,-0.1 0.3,-0.1 0.1,0 0.2,0 0.3,0 l 0,0 c 0.1,0 0.1,0 0.2,0 0.1,0 0.2,0.1 0.3,0.1 0,0 0.1,0 0,-0.1 0,-0.1 0,-0.2 -0.1,-0.3 -0.1,-0.1 -0.1,-0.2 -0.2,-0.3 -0.1,-0.1 -0.2,-0.1 -0.3,-0.1 l 0,0 c -0.2,0.1 -0.3,0.2 -0.4,0.3 -0.1,0.1 -0.2,0.2 -0.3,0.2 -0.1,0 0.1,0.2 0.2,0.3 0,0 0,0.1 0,0 0.1,0 0.1,0 0,0 l 0,0 z"
       id="path264"
       inkscape:connector-curvature="0" /><path
       d="m 840.4,355.2 c 0.1,-0.6 0.3,-1.8 0.7,-3.2 0.3,-1.7 0.8,-3.8 1.3,-6.1 0.3,-1.4 0.6,-2.8 0.8,-4.2 0.2,-1 0.6,-1.9 1.1,-2.7 0.6,-1.1 1.3,-2.1 2.1,-3.1 0.8,-1.1 1.6,-2 2,-2.5 l 0.4,-0.5 c 0.5,-0.6 1.2,-1.4 2.1,-2.3 0.6,-0.5 1.2,-1 1.8,-1.5 0.7,-0.5 1.4,-0.9 2.2,-1.4 1.5,-0.9 3.1,-1.6 4.7,-2.4 1.3,-0.6 2.6,-1.1 3.8,-1.6 l 0.4,-0.2 c 0.3,-0.1 0.5,-0.2 0.7,-0.3 0.1,0 0.2,-0.1 0.3,-0.2 0,-0.1 0,-0.2 0,-0.3 l 0,0 -0.1,-0.1 -0.1,-0.1 0.1,0.1 0.1,0.1 0,0 c 0,0.1 0,0.2 0,0.3 l 0,0 c -0.1,0.1 -0.2,0.1 -0.3,0.1 l -1.1,0.4 c -1,0.4 -2.3,0.8 -3.9,1.5 -1.6,0.7 -3.3,1.4 -4.8,2.2 -1.5,0.8 -2.9,1.7 -4.2,2.8 -0.8,0.7 -1.5,1.5 -2.2,2.3 l 0,0 c -0.9,1 -1.7,2 -2.4,3 l -0.1,0.1 c -0.7,1 -1.4,2.1 -2,3.2 l 0,0 c -0.5,0.9 -0.9,1.9 -1.1,2.9 -0.2,1.4 -0.5,2.8 -0.7,4.2 -0.4,2.2 -0.8,4.3 -1.1,6.1 -0.4,2 -0.7,3.7 -1,4.9 l -0.1,0.6 c -0.2,0.8 -0.3,1.3 -0.3,1.7 0,0.2 0,0.4 -0.1,0.5 0,0 0,0.1 0,0.1 l 0,0 0,0 0,0 0,-0.1 c 0,-0.1 0.1,-0.3 0.1,-0.5 0.1,-0.4 0.2,-1 0.4,-1.7 0.2,-0.7 0.3,-1.4 0.4,-2.3 l 0.1,0.2 z"
       id="path266"
       inkscape:connector-curvature="0" /><path
       class="st23"
       d="m 869.7,323.4 -0.4,0 c 1.7,0 2,0.9 3.8,1 3.8,0.1 11.7,8.5 13.6,11.5 2.9,5.1 5.5,10.5 7.6,16 0.6,2.3 2.5,11.8 2.1,15.1 -0.4,3.3 -1.1,9.3 -3.1,12.1 -2,2.8 -8.8,8.9 -11.3,9.4 -2,0.4 -12.5,4.4 -20,4.6 7.4,0.2 19.4,-4.2 21.5,-4.6 2.5,-0.5 9.3,-6.5 11.3,-9.4 2,-2.9 2.8,-8.8 3.1,-12.1 0.3,-3.3 -1.5,-12.9 -2.1,-15.1 -2.1,-5.5 -4.6,-10.9 -7.6,-16 -2,-2.9 -7.6,-11.6 -13.6,-11.5 -2,0 -2.2,-1 -4.9,-1 l 0,0 z"
       id="path268"
       inkscape:connector-curvature="0"
       style="fill:#b8854f" /><path
       class="st30"
       d="m 850.6,354.1 c -1,-0.5 -1.2,-2.6 -1.7,-1.6 -0.6,1.4 -0.4,3.1 0.5,4.3 0.7,0.7 4.8,1.2 4.8,0 0,-1.2 -2.6,-2.1 -3.6,-2.7 l 0,0 z"
       id="path270"
       inkscape:connector-curvature="0"
       style="fill:#6e4a25" /><path
       d="m 852.9,348.5 c -2.1,-0.2 -3.9,1.4 -4.1,3.5 0,0.1 0,0.2 0,0.3 0,2.3 1,4.5 3.3,4.7 2.1,0.2 3.9,-1.2 4.2,-3.3 0,-0.3 0,-0.6 0,-0.9 -0.2,-2.2 -1.1,-4.3 -3.4,-4.3 z"
       id="path272"
       inkscape:connector-curvature="0" /><path
       class="st32"
       d="m 853.2,350 c -0.3,-0.4 -1.4,0 -1.8,0.4 -0.5,0.2 -0.8,0.8 -0.6,1.3 0.2,0.5 0.8,0.8 1.3,0.6 0.2,-0.1 0.4,-0.2 0.5,-0.4 0.4,-0.4 0.9,-1.5 0.6,-1.9 l 0,0 z"
       id="path274"
       inkscape:connector-curvature="0"
       style="fill:#ddcebe" /><path
       class="st33"
       d="m 852.9,349.2 c 0,0 2.8,0.3 3.7,-1.5"
       id="path276"
       inkscape:connector-curvature="0"
       style="fill:none;stroke:#000000;stroke-width:5" /><path
       d="m 895,349.6 0,0 0,0 0,0.2 0.2,0.6 c 0.2,0.7 0.3,1.3 0.5,1.9 0.2,0.8 0.4,1.5 0.5,2.2 0.1,0.6 0.3,1.2 0.4,1.8 0.2,1.3 0.3,2.5 0.4,3.7 l 0,0 c 0.1,1.8 0.2,3.3 0.2,4.7 0,1.5 -0.1,3.1 -0.2,4.6 -0.1,0.7 -0.2,1.4 -0.3,1.9 -0.1,0.5 -0.2,1 -0.4,1.4 l -0.2,0.5 c -0.3,0.7 -0.6,1.8 -1,3.1 -0.4,1.4 -1,2.7 -1.7,3.9 -0.5,0.8 -1,1.6 -1.6,2.3 -0.6,0.7 -1.2,1.3 -1.9,1.9 -0.6,0.6 -1.3,1 -1.8,1.4 -0.5,0.4 -1,0.7 -1.3,0.9 -0.2,0.1 -0.4,0.2 -0.6,0.4 -0.5,0.3 -1,0.5 -1.5,0.7 -0.6,0.3 -1.3,0.5 -2.1,0.8 l 0,0 c -1.4,0.5 -3,0.9 -4.6,1.3 -1.9,0.5 -3.8,0.9 -5.5,1.2 -1.7,0.3 -2.9,0.6 -3.6,0.8 l -1.3,0.4 c -1.1,0.3 -2.6,0.7 -4.2,1 -1.6,0.3 -3.3,0.8 -4.9,1.1 -1.1,0.2 -2.1,0.5 -3.1,0.7 l -0.7,0.2 -0.3,0.1 c -0.2,0 -0.3,0.1 -0.5,0.2 -0.1,0.1 -0.2,0.1 -0.2,0.1 0,0 0.1,0 0.2,0 l 0.5,0 1.1,-0.1 c 0.8,0 1.9,-0.1 3.2,-0.2 2.8,-0.2 6.3,-0.6 9.3,-1.2 1.3,-0.2 2.6,-0.5 3.9,-0.9 2.1,-0.6 4.3,-1.4 6.4,-2.1 1.6,-0.6 3.1,-1.2 4.5,-1.8 1.2,-0.5 2.4,-1.1 3.6,-1.7 0.7,-0.4 1.3,-0.7 1.8,-1 1,-0.6 1.9,-1.2 2.8,-1.9 1.4,-1.1 2.6,-2.4 3.6,-3.8 0.8,-1.2 1.5,-2.5 2,-3.8 0.6,-1.3 1,-2.6 1.5,-3.8 0.2,-0.6 0.4,-1.3 0.5,-2 0.1,-0.6 0.2,-1.2 0.2,-1.8 0,-0.8 0,-1.5 0,-2.3 0,-0.7 -0.1,-1.5 -0.2,-2.5 -0.2,-1.4 -0.4,-3 -0.7,-4.7 -0.2,-1.2 -0.5,-2.5 -0.7,-3.7 -0.2,-0.6 -0.3,-1.3 -0.5,-1.8 -0.3,-0.8 -0.5,-1.5 -0.7,-2.2 -0.2,-0.7 -0.5,-1.4 -0.6,-1.8 l -0.2,-0.6 -0.2,-0.3 0,0 0,0 0,0 z"
       id="path278"
       inkscape:connector-curvature="0" /><path
       d="m 835.1,359.6 c 0,-0.8 0.1,-1.6 0.2,-2.4 0.2,-1.1 0.3,-2.2 0.6,-3.2 l 0,0 c 0.3,-1.6 0.7,-3.1 1.1,-4.4 0.4,-1.3 0.8,-2.4 1.1,-3.4 0.7,-1.9 1.3,-3.2 1.8,-4.4 0.5,-1.2 1,-2 1.4,-2.7 l 0.3,-0.6 c 0.4,-0.8 1,-1.8 1.6,-2.9 0.7,-1.1 1.5,-2.2 2.4,-3.2 l 0,0 c 1,-1 2.1,-2 3.3,-2.9 1,-0.8 2,-1.3 2.5,-1.6 0.6,-0.4 1.3,-0.7 2,-0.9 1.1,-0.4 2.2,-0.8 3.3,-1.1 1,-0.3 2.1,-0.5 3.2,-0.7 1.1,-0.2 2.2,-0.4 3.2,-0.5 2,-0.2 3.7,-0.3 4.4,-0.4 l 1,-0.1 c 1.2,-0.1 2.4,-0.1 3.7,0 1.5,0.2 2.9,0.5 4.3,0.9 0.9,0.3 1.8,0.6 2.7,1 0.3,0.1 0.6,0.3 0.9,0.4 0.3,0.1 0.5,0.2 0.8,0.2 0.1,0 0.1,0 0,-0.1 l -0.6,-0.3 c -0.3,-0.2 -0.6,-0.4 -1,-0.6 -0.8,-0.5 -1.7,-1 -2.5,-1.4 -1.3,-0.6 -2.6,-1.1 -4,-1.4 -1.4,-0.4 -2.9,-0.5 -4.4,-0.5 -1.1,0 -2.3,0.1 -3.4,0.3 -1.5,0.3 -3,0.6 -4.4,1 -1.4,0.4 -2.9,0.9 -4.2,1.4 -1.3,0.5 -2.7,1.1 -3.8,1.6 -1.1,0.5 -2,1 -2.7,1.4 -0.5,0.2 -1.3,0.6 -2.2,1.2 -1.1,0.7 -2.2,1.4 -3.2,2.3 -1,0.9 -1.9,1.8 -2.7,2.9 -0.8,1 -1.5,2.1 -2.1,3.3 -1.1,1.9 -2,3.9 -2.7,6 -0.2,0.6 -0.3,1.3 -0.6,2.1 -0.3,1.1 -0.6,2.5 -0.8,3.9 -0.2,1.4 -0.5,2.8 -0.6,4.2 -0.1,1.4 -0.2,2.4 -0.3,3.3 0,0.8 0,1.4 0,1.8 0,0.4 0.3,0.5 0.4,0.5 l 0,0 z"
       id="path280"
       inkscape:connector-curvature="0" /><path
       class="st22"
       d="m 874.4,335 c 0,0 5,-7.5 6.4,-8.8 1.4,-1.3 1.7,-2.9 4.8,-3.4 3.1,-0.5 8,1.5 9.1,2.2 1.1,0.7 5.3,3.6 6.1,4.6 0.8,1 1.4,4.2 1.3,6.4 -0.4,2.7 -1.4,5.4 -2.9,7.7 -0.8,0.8 -5.3,5 -6.7,5.5 -1.4,0.5 -9.3,1.7 -9.3,1.7 L 874.4,335 Z"
       id="path282"
       inkscape:connector-curvature="0"
       style="fill:#a06121" /><path
       class="st23"
       d="m 887.8,350 c 1.4,-0.2 2.7,-0.5 4.1,-0.8 1.5,-0.5 5.9,-4.7 6.7,-5.5 1.5,-2.3 2.5,-4.9 2.9,-7.7 0.1,-2.2 -0.5,-5.3 -1.3,-6.4 -0.8,-1.1 -5,-3.9 -6.1,-4.6 -2.5,-1.3 -5.2,-2.1 -8,-2.3 0.8,0.1 1.5,0.3 2.3,0.5 0.8,0.2 1.6,0.5 2.3,0.8 0.5,0.2 1,0.4 1.5,0.7 0.5,0.4 1.9,1.3 3.1,2.2 0.6,0.5 1.3,0.9 1.8,1.4 0.4,0.3 0.8,0.7 1.1,1 0.2,0.3 0.4,0.7 0.5,1.1 0.2,0.5 0.3,1.1 0.4,1.6 0.1,0.6 0.2,1.2 0.3,1.8 0.1,0.6 0.1,1.2 0.1,1.8 0,0.7 -0.2,1.3 -0.4,2 -0.2,0.8 -0.5,1.6 -0.8,2.3 -0.3,0.8 -0.7,1.5 -1,2.1 -0.2,0.4 -0.5,0.9 -0.8,1.2 -0.4,0.4 -1.7,1.6 -3.1,2.8 -0.7,0.6 -1.4,1.2 -2,1.7 -0.5,0.4 -1,0.7 -1.5,1 -0.5,0.2 -1.1,0.3 -1.6,0.4 l -2.5,0.5 2,0.4 z"
       id="path284"
       inkscape:connector-curvature="0"
       style="fill:#b8854f" /><path
       d="m 874.6,335 c 1.4,-1.9 2.6,-3.5 3.7,-5 1.1,-1.5 2,-2.6 2.9,-3.6 0.4,-0.5 0.8,-0.9 1.2,-1.3 0.2,-0.2 0.5,-0.5 0.8,-0.6 0.5,-0.3 1.1,-0.5 1.7,-0.7 0.5,-0.1 1,-0.2 1.5,-0.2 0.4,0 0.8,0 1.1,0 0.3,0 0.7,0.1 1,0.1 0.3,0 0.6,0.1 1,0.2 0.9,0.2 1.8,0.5 2.7,0.8 1,0.4 2,1 2.9,1.6 1.1,0.8 2.1,1.4 3,1.9 0.5,0.3 1,0.7 1.4,1.1 0.3,0.3 0.6,0.5 0.8,0.8 l 0.1,0.2 c 0.3,0.4 0.5,0.8 0.7,1.3 0.2,0.6 0.3,1.3 0.4,2 l 0,0 c 0,0.9 0,1.8 -0.2,2.7 -0.2,0.9 -0.4,1.9 -0.7,2.8 l 0,0 c -0.2,0.6 -0.4,1.1 -0.8,1.6 -0.3,0.5 -0.7,1 -1,1.4 -0.5,0.6 -0.8,1.1 -1,1.4 -0.6,0.8 -1.3,1.5 -2,2.2 -0.6,0.6 -1.2,1.1 -1.8,1.6 -0.7,0.5 -1.4,1 -2.1,1.4 -0.5,0.3 -1.1,0.6 -1.7,0.8 -0.5,0.2 -1.1,0.3 -1.6,0.4 -0.4,0 -0.6,0.1 -0.6,0.1 0,0 0.2,0.2 0.5,0.2 0.5,0.1 1.1,0.1 1.6,0 0.8,-0.1 1.6,-0.2 2.4,-0.4 l 0,0 c 0.8,-0.3 1.6,-0.6 2.3,-1.1 0.8,-0.4 1.5,-1 2.3,-1.5 0.7,-0.6 1.4,-1.2 2,-1.8 0.5,-0.6 1,-1.2 1.4,-1.9 l 0.2,-0.3 c 0.7,-1.1 1.1,-2.2 1.4,-3.5 l 0,0 c 0.2,-1 0.3,-2 0.4,-3 0.1,-1 0,-1.9 -0.1,-2.9 -0.1,-0.7 -0.3,-1.4 -0.6,-2 -0.2,-0.6 -0.5,-1.1 -0.9,-1.6 -0.3,-0.3 -0.5,-0.7 -0.8,-1 -0.2,-0.2 -0.3,-0.4 -0.6,-0.6 -0.3,-0.2 -0.6,-0.5 -0.9,-0.8 -0.3,-0.3 -0.8,-0.7 -1.3,-1 -0.5,-0.3 -1,-0.8 -1.5,-1.2 l 0,0 c -0.8,-0.7 -1.8,-1.4 -2.8,-1.9 -1,-0.6 -2.1,-1 -3.2,-1.3 l 0,0 c -0.6,-0.2 -1.3,-0.3 -1.9,-0.3 -0.6,-0.1 -1.2,-0.1 -1.8,0 -0.6,0.1 -1.2,0.2 -1.8,0.4 -0.4,0.1 -0.9,0.3 -1.3,0.6 -0.2,0.1 -0.5,0.3 -0.7,0.5 -0.4,0.3 -0.7,0.6 -0.9,1 l 0,0 c -0.4,0.5 -0.7,1 -1.1,1.5 l 0,0 c -0.8,1.2 -1.7,2.6 -2.5,3.9 l -3.2,5.3 0,-0.3 z"
       id="path286"
       inkscape:connector-curvature="0" /><path
       class="st28"
       d="m 877.2,338.3 c 0,0 4,1.7 4.9,3.1 0.9,1.4 3.8,5 4.1,5.1 0.6,-0.1 1.2,-0.2 1.8,-0.4 1.2,-1.3 2.3,-2.7 3.2,-4.2 0.8,-1.6 1.8,-3.5 0.9,-5.4 -0.9,-1.9 -1.6,-4.5 -2.8,-4.8 -2,-0.4 -4,-0.3 -6,0.2 -1,0.3 -2,0.8 -3,1.4 -0.5,0.5 -4.1,4.7 -3.1,5 l 0,0 z"
       id="path288"
       inkscape:connector-curvature="0"
       style="fill:#834317" /><path
       d="m 876.7,338.2 0,0 0.1,0 0.5,0.2 c 0.5,0.2 1,0.5 1.5,0.8 0.8,0.5 1.5,1 2.1,1.7 0.5,0.5 0.8,1.1 1.1,1.7 0.4,0.8 0.8,1.5 1.4,2.2 0.4,0.5 0.9,0.9 1.4,1.3 0.4,0.3 0.8,0.5 1.2,0.7 0.2,0.1 0.4,0.1 0.6,0.2 0.3,0.1 0.7,0.1 1,0 0.4,-0.1 0.7,-0.3 1,-0.6 0.1,-0.1 0.2,-0.3 0.4,-0.4 l 0.7,-0.7 c 0.6,-0.7 1.1,-1.4 1.6,-2.1 l 0,0 c 0.3,-0.5 0.6,-1 0.8,-1.5 0.2,-0.4 0.3,-0.9 0.4,-1.3 0.1,-0.2 0.1,-0.5 0.1,-0.7 0,-0.2 0.1,-0.6 0.2,-1.1 0.1,-0.6 0.1,-1.1 0,-1.7 -0.1,-0.8 -0.3,-1.6 -0.7,-2.3 -0.4,-0.7 -0.9,-1.4 -1.4,-1.9 -0.5,-0.5 -1,-0.9 -1.6,-1.3 -0.4,-0.2 -0.8,-0.4 -1.3,-0.5 -1.1,-0.3 -2.3,-0.3 -3.4,0.1 -0.6,0.2 -1.1,0.4 -1.7,0.7 l 0,0 c -0.6,0.3 -1.1,0.6 -1.5,1 -0.4,0.4 -0.8,0.8 -1.2,1.3 -0.1,0.1 -0.2,0.2 -0.2,0.4 0,0.1 0,0.1 0,0.1 0.2,-0.1 0.4,-0.2 0.6,-0.4 0.4,-0.3 0.8,-0.5 1.2,-0.7 0.5,-0.3 1.1,-0.5 1.7,-0.6 0.5,-0.1 0.9,-0.2 1.4,-0.2 0.4,-0.1 0.9,-0.1 1.3,0 0.7,0.1 1.5,0.4 2.1,0.8 0.4,0.2 0.9,0.4 1.3,0.7 0.6,0.4 1.1,0.9 1.5,1.4 0.4,0.5 0.7,1.1 0.9,1.7 0.2,0.6 0.2,1.2 0.2,1.8 0,0.5 -0.1,0.9 -0.3,1.3 l 0,0 c -0.1,0.3 -0.3,0.7 -0.5,1 -0.3,0.5 -0.6,0.9 -1,1.4 l 0,0 c -0.5,0.6 -1.1,1.2 -1.7,1.7 l 0,0 -0.7,0.6 c -0.2,0.2 -0.4,0.3 -0.5,0.5 l 0,0 c -0.1,0 -0.2,0 -0.2,0 -0.4,-0.1 -0.8,-0.3 -1.1,-0.5 -0.5,-0.4 -1.1,-0.8 -1.5,-1.3 -0.4,-0.4 -0.8,-0.8 -1.2,-1.2 -0.5,-0.7 -1.2,-1.4 -1.9,-1.9 -0.7,-0.5 -1.5,-0.9 -2.3,-1.2 -0.5,-0.2 -1.1,-0.4 -1.7,-0.5 l -0.7,-0.7 0,0 0,0 0,0 0,0 z"
       id="path290"
       inkscape:connector-curvature="0" /><path
       d="m 887.3,324.8 c -0.4,-0.1 -0.6,-0.3 -0.8,-0.7 -0.2,-0.4 -0.3,-0.9 -0.3,-1.4 0,-0.1 0,-0.1 0,-0.2 0,-0.5 0,-0.9 0.2,-1.4 0.1,-0.2 0.1,-0.4 0.2,-0.5 0.1,-0.1 0.2,-0.3 0.4,-0.3 0.2,-0.1 0.4,-0.1 0.5,0 0.2,0.1 0.4,0.2 0.5,0.4 0.2,0.2 0.3,0.5 0.5,0.8 0.1,0.3 0.2,0.7 0.2,1 0,0.1 0,0.2 0,0.3 l 0,0 c 0,0.6 -0.2,1.1 -0.5,1.6 -0.2,0.2 -0.5,0.4 -0.9,0.4 l 0,0 z"
       id="path292"
       inkscape:connector-curvature="0" /><path
       d="m 890.6,325 c -0.3,-0.1 -0.4,-0.5 -0.4,-1 0,-0.6 0.2,-1.2 0.4,-1.8 l 0,0 c 0.1,-0.2 0.1,-0.3 0.2,-0.5 0.3,-0.7 0.6,-1.3 1,-1.9 0.1,-0.2 0.3,-0.4 0.5,-0.6 0.1,-0.1 0.3,-0.2 0.5,-0.2 0.2,0 0.4,0.1 0.5,0.3 0.1,0.2 0.2,0.5 0.3,0.8 0.1,0.4 0.1,0.8 0,1.1 -0.1,0.4 -0.2,0.9 -0.3,1.3 -0.1,0.2 -0.2,0.4 -0.2,0.5 l 0,0 c -0.3,0.6 -0.7,1.2 -1.2,1.6 -0.6,0.5 -0.9,0.6 -1.3,0.4 l 0,0 z"
       id="path294"
       inkscape:connector-curvature="0" /><path
       class="st30"
       d="m 837.7,354.3 c 0.6,-0.5 1.2,-2.9 1.2,-1.7 0,1.2 0.2,3.1 -0.3,3.9 -0.5,0.8 -3.5,0.8 -3.5,-0.4 0,-1.2 2,-1.2 2.6,-1.8 l 0,0 z"
       id="path296"
       inkscape:connector-curvature="0"
       style="fill:#6e4a25" /><path
       d="m 836.2,348.3 c -1.5,0 -2.5,1.1 -2.5,3.4 0,2.3 1,4.7 2.5,4.9 1.6,0.3 2.8,-1.7 2.7,-4.2 -0.1,-2.5 -1.2,-4.1 -2.7,-4.1 z"
       id="path298"
       inkscape:connector-curvature="0" /><path
       class="st32"
       d="m 834.9,351.6 c 0.3,0.2 1,-0.6 1.3,-1 0.3,-0.4 0.4,-1 0.1,-1.2 -0.3,-0.2 -0.8,0 -1.1,0.5 -0.3,0.5 -0.6,1.6 -0.3,1.7 l 0,0 z"
       id="path300"
       inkscape:connector-curvature="0"
       style="fill:#ddcebe" /><path
       class="st34"
       d="m 836.1,349 c -1,0.2 -2,-0.5 -2.3,-1.5"
       id="path302"
       inkscape:connector-curvature="0"
       style="fill:none;stroke:#000000;stroke-width:4" /><path
       class="st28"
       d="m 846.3,360.7 c 0.7,1.5 3.4,6.4 4.3,8.4 0.2,0.5 3.8,3.9 4,4.4 5.6,11.2 7.5,20.6 -5.3,26.2 -16.8,0.4 -27.6,-19 -25.6,-31 0,0 1,-4.4 4.2,-6 2.6,-1.3 7.2,-1.9 17.4,-2.1"
       id="path304"
       inkscape:connector-curvature="0"
       style="fill:#834317" /><path
       class="st23"
       d="m 853.2,372.7 c 5.2,10 5.6,21.9 -5.7,26.7 1,0.1 2,0.2 3,0.1 12.2,-6.9 8.2,-15.2 4.3,-25.8 l -1.6,-1 z"
       id="path306"
       inkscape:connector-curvature="0"
       style="fill:#b8854f" /><path
       class="st31"
       d="m 824.5,374.7 c 0.8,1.3 1,0.8 1.2,2.2 0.2,1.4 1.5,7.1 4.6,10.5 l 0.1,-0.6 -3.5,-10 -2.4,-2.1 z"
       id="path308"
       inkscape:connector-curvature="0"
       style="fill:#5d381e" /><path
       d="m 827.1,365.1 c -2.8,0 -6.5,3.3 -5,6 1,2 2.9,5.8 5,6 2.1,0.2 3.6,-3.8 5,-6 1.7,-2.5 -2.2,-6 -5,-6 z"
       id="path310"
       inkscape:connector-curvature="0" /><path
       class="st31"
       d="m 825.2,365.3 c -0.5,0.9 -0.9,1.8 -1.1,2.8 -2,12 8.8,31.4 25.6,31 2.8,-1.1 5.1,-3.2 6.4,-6 -1.4,2.3 -3.4,4 -5.9,5 -16.8,0.4 -27.6,-19 -25.6,-31 0.1,-0.6 0.3,-1.2 0.6,-1.8 z"
       id="path312"
       inkscape:connector-curvature="0"
       style="fill:#5d381e" /><path
       d="m 846.6,360.7 c 0.6,1.4 1.2,2.7 1.8,4 0.6,1.2 1.2,2.4 1.8,3.6 0.7,1.1 1.5,2.2 2.5,3.2 0.9,1 1.6,2 2.2,3.2 0.6,1.2 1,2.5 1.4,3.8 0.3,1.1 0.6,2.2 0.8,3.4 0.2,1.3 0.3,2.6 0.3,3.9 0,1 -0.1,2.1 -0.3,3.1 -0.2,1 -0.5,1.9 -0.8,2.9 -0.3,0.7 -0.7,1.5 -1.1,2.1 -0.2,0.2 -0.3,0.5 -0.6,0.8 -0.6,0.8 -1.3,1.5 -2.1,2.1 -1,0.8 -2.1,1.4 -3.3,1.8 -0.9,0 -1.9,0 -2.8,-0.1 -1,-0.1 -1.9,-0.3 -2.9,-0.5 -1.8,-0.4 -3.5,-1.1 -5.2,-2 -1.1,-0.6 -2.1,-1.3 -3.1,-2 -0.8,-0.6 -1.5,-1.2 -1.9,-1.6 -0.5,-0.5 -1,-1 -1.5,-1.5 -0.7,-0.8 -1.3,-1.6 -1.9,-2.5 -2.1,-3.1 -3.7,-6.5 -4.6,-10.1 -0.2,-0.9 -0.4,-1.8 -0.6,-2.7 -0.1,-0.9 -0.2,-1.7 -0.3,-2.6 -0.1,-1.4 0,-2.8 0.3,-4.2 l 0,0 0,-0.1 c 0,-0.2 0.1,-0.3 0.1,-0.5 0.2,-0.5 0.3,-0.8 0.4,-1.1 l 0.2,-0.4 c 0.3,-0.6 0.6,-1.2 1,-1.7 0.5,-0.6 1.1,-1.2 1.8,-1.5 0.9,-0.5 1.8,-0.8 2.7,-1.1 1,-0.3 2.1,-0.5 3.2,-0.7 1.8,-0.3 3.6,-0.6 5.3,-0.7 1.7,-0.1 3.5,-0.2 5,-0.3 1.1,0 1.5,-0.1 1.3,-0.2 -0.6,-0.2 -1.3,-0.3 -1.9,-0.3 -1.1,-0.1 -2.5,-0.2 -4.2,-0.2 -1.9,0 -3.8,0.1 -5.7,0.3 -1.1,0.1 -2.2,0.3 -3.2,0.5 -1.1,0.2 -2.2,0.6 -3.2,1 l 0,0 c -0.9,0.4 -1.7,1 -2.3,1.7 -0.6,0.7 -1.1,1.4 -1.5,2.2 -0.3,0.6 -0.6,1.2 -0.8,1.8 -0.1,0.2 -0.1,0.4 -0.2,0.6 l 0,0 0,0.2 0,0 0,0.1 0,0 0,0 c -0.1,0.7 -0.2,1.4 -0.2,2.1 0,1.4 0.1,2.8 0.3,4.2 0.2,1.4 0.6,2.7 1,4.1 0.6,1.9 1.4,3.8 2.4,5.5 1.5,2.8 3.5,5.5 5.7,7.8 0.9,0.9 1.7,1.6 2.3,2.2 1.1,1 2.2,1.8 3.5,2.6 1.6,1 3.3,1.8 5.1,2.3 2.1,0.7 4.3,1 6.6,1 1.3,-0.4 2.5,-1 3.6,-1.7 1.1,-0.7 2.1,-1.6 3,-2.6 l 0,0 c 0.8,-1 1.5,-2.2 1.9,-3.4 0.4,-1.1 0.7,-2.2 0.9,-3.3 0.2,-1.4 0.2,-2.8 0.1,-4.1 -0.1,-1.2 -0.3,-2.3 -0.6,-3.5 -0.3,-1.2 -0.7,-2.4 -1.1,-3.5 -0.5,-1.3 -1,-2.5 -1.7,-3.7 l 0,0 c -0.7,-1.2 -1.5,-2.3 -2.5,-3.2 -0.9,-0.9 -1.8,-1.9 -2.6,-3 -0.7,-1 -1.2,-2 -1.7,-2.9 -0.5,-0.9 -0.9,-1.7 -1.2,-2.4 l -0.9,-2.2 0,0 z"
       id="path314"
       inkscape:connector-curvature="0" /><path
       class="st33"
       d="m 827,376.5 c 0,0 -0.2,4.6 3.7,9.5"
       id="path316"
       inkscape:connector-curvature="0"
       style="fill:none;stroke:#000000;stroke-width:5" /><path
       class="st35"
       d="m 832.3,385.4 c -1.3,0.4 -2,1.7 -1.7,3 0.3,1.4 1.5,1.1 2.7,0.8 1.2,-0.3 2.2,-0.6 1.8,-1.9 -0.2,-1.3 -1.5,-2.2 -2.8,-1.9 l 0,0 z"
       id="path318"
       inkscape:connector-curvature="0"
       style="stroke:#000000;stroke-width:5" /><path
       class="st36"
       d="m 836.5,375.7 c -0.5,0 -0.8,0.4 -0.8,0.9 0,0 0,0 0,0 0,0.5 0.2,0.6 0.6,0.6 0.4,0 0.8,-0.2 0.8,-0.6 0,-0.4 -0.2,-0.9 -0.6,-0.9 l 0,0 z"
       id="path320"
       inkscape:connector-curvature="0"
       style="fill:#956c45;stroke:#000000;stroke-width:3" /><path
       class="st36"
       d="m 841.6,373.1 c -0.8,0 -1.2,0.7 -1.2,1.6 0,0.9 0.3,1.1 1.1,1.1 0.8,0 1.5,-0.3 1.5,-1.1 0.1,-0.9 -0.6,-1.6 -1.4,-1.6 l 0,0 z"
       id="path322"
       inkscape:connector-curvature="0"
       style="fill:#956c45;stroke:#000000;stroke-width:3" /><path
       class="st36"
       d="m 840,378.8 c -0.6,0 -1.1,0.5 -1.1,1.1 0,0.6 0.4,1 1,1 0.5,0 0.9,-0.3 0.9,-0.8 0,-0.1 0,-0.1 0,-0.2 0.1,-0.6 -0.2,-1.2 -0.8,-1.1 l 0,0 z"
       id="path324"
       inkscape:connector-curvature="0"
       style="fill:#956c45;stroke:#000000;stroke-width:3" /><path
       class="st32"
       d="m 827.9,366.8 c -0.8,0 -1.6,0 -1.6,0.8 0,0.8 0.8,0.7 1.6,0.7 0.8,0 2.7,1.5 2.7,0.7 0,-0.8 -1.9,-2.2 -2.7,-2.2 l 0,0 z"
       id="path326"
       inkscape:connector-curvature="0"
       style="fill:#ddcebe" /></g><g
     id="g4371"
     transform="matrix(1.5,0,0,1.5,-222.89646,-96.742363)"><path
       class="st31"
       d="m 832.9,442.7 0,0 c -0.2,0.1 -0.4,0.1 -0.6,0.2 l -0.7,0.2 -0.7,0.2 c -0.1,0 -0.3,0.1 -0.4,0.1 -0.2,0.1 -0.3,0.1 -0.4,0.3 l -0.2,0.2 c -0.1,0.1 -0.1,0.1 -0.2,0.2 -0.4,0.2 -0.9,0.5 -1.2,0.7 -0.1,0.1 -0.1,0.1 0,0.1 0.1,0 0.2,0 0.4,0 0.3,-0.1 0.9,-0.2 1.3,-0.3 0.2,-0.1 0.4,-0.2 0.6,-0.3 l 0.3,-0.2 0,0 c 0.1,-0.1 0.2,-0.1 0.3,-0.2 l 0.6,-0.3 c 0.4,-0.2 0.8,-0.4 1.1,-0.5 l 0.3,-0.1 c 0.4,-0.3 0.2,-0.6 -0.5,-0.3 l 0,0 z"
       id="path329"
       inkscape:connector-curvature="0"
       style="fill:#5d381e" /><path
       d="m 832.9,442.5 0,0 c -0.4,0.1 -1,0.3 -1.6,0.5 -0.4,0.1 -0.8,0.3 -1.2,0.5 l -0.6,0.4 -0.6,0.4 c -0.2,0.1 -0.4,0.3 -0.6,0.4 -0.2,0.1 -0.1,0.1 0,0.1 0.1,0 0.3,0 0.4,-0.1 l 0.6,-0.2 0.7,-0.2 c 0.3,-0.1 0.7,-0.2 1,-0.4 l 0.6,-0.4 c 0.4,-0.3 0.9,-0.5 1.3,-0.7 l 0.3,-0.1 0.2,-0.1 c 0,0 0.1,0 0.1,-0.1 l 0,0 c 0,0 0,0 0,-0.1 l -0.2,0 c -0.1,0 -0.2,0 -0.4,0.1 l 0,0 z"
       id="path331"
       inkscape:connector-curvature="0" /><path
       d="m 832.8,445 0,0 c -0.3,-0.3 -0.6,-0.6 -0.8,-0.9 -0.2,-0.3 -0.4,-0.6 -0.7,-0.8 -0.2,-0.2 -0.4,-0.4 -0.6,-0.6 -0.2,-0.2 -0.4,-0.5 -0.6,-0.8 -0.1,-0.1 -0.1,-0.1 -0.2,0 0,0.2 0,0.4 0,0.5 0,0.3 0.1,0.5 0.3,0.8 0.1,0.2 0.3,0.4 0.5,0.6 l 0.7,0.5 c 0.4,0.3 0.9,0.6 1.1,0.8 l 0.2,0.1 c 0,0 0.1,0.1 0.1,0.1 l 0.1,0 0,0 c 0,0 0,0 0.1,0 l 0,0 c 0,0 0,-0.1 0,-0.1 0,0 -0.1,-0.1 -0.2,-0.2 l 0,0 z"
       id="path333"
       inkscape:connector-curvature="0" /></g><path
     class="st22"
     d="m 1024.6535,560.10763 c 13.8,-2.25 26.1,12 25.8,28.95 -0.3,17.55 -14.1,31.95 -25.35,29.85 -7.95,-1.5 -16.05,-3.45 -19.05,-14.1 -1.2,-5.4 -1.5,-11.1 -1.2,-16.65 1.5,-16.2 9.15,-26.4 19.8,-28.05 l 0,0 z"
     id="path335"
     inkscape:connector-curvature="0"
     style="fill:#a06121" /><path
     class="st30"
     d="m 1041.4535,609.00763 c -5.55,10.95 -8.25,9.75 -17.25,9.45 -6.75,-1.2 -13.5,-2.85 -17.25,-9.75 3.75,7.35 10.65,9 17.55,10.2 8.25,-1.8 11.4,-2.1 16.95,-9.9 l 0,0 z"
     id="path337"
     inkscape:connector-curvature="0"
     style="fill:#6e4a25" /><path
     d="m 1040.2535,611.85763 c -0.75,1.35 -1.8,2.55 -2.85,3.45 -1.05,0.9 -2.25,1.65 -3.45,2.25 -1.8,0.75 -3.75,1.05 -5.55,0.9 -2.4,0 -4.95,-0.45 -7.35,-1.05 -1.95,-0.45 -3.75,-1.35 -5.4,-2.25 -1.05,-0.6 -1.95,-1.35 -2.7,-2.1 -0.75,-0.6 -1.35,-1.35 -1.95,-2.25 -0.75,-1.05 -1.5,-2.25 -1.95,-3.45 -0.45,-0.9 -0.75,-1.95 -1.05,-3 -0.15,-0.6 -0.3,-1.05 -0.45,-1.65 -0.15,-0.6 -0.15,-1.05 -0.3,-1.65 -0.15,-1.2 -0.45,-2.7 -0.6,-4.35 -0.3,-2.85 -0.45,-5.55 -0.3,-8.4 0.15,-1.8 0.45,-3.6 0.75,-5.4 0.3,-1.65 0.75,-3.3 1.2,-4.95 0.45,-1.35 0.9,-2.7 1.35,-3.9 0.45,-1.05 0.9,-1.95 1.2,-2.55 0.75,-1.35 1.5,-2.55 2.4,-3.6 0.9,-1.05 1.95,-2.1 3,-3 1.2,-1.05 2.55,-1.95 4.05,-2.7 l 0,0 c 1.35,-0.6 2.7,-1.05 4.05,-1.5 1.35,-0.3 2.7,-0.45 4.2,-0.45 l 0,0 c 1.5,0 3,0.3 4.5,0.75 1.2,0.45 2.4,0.9 3.45,1.65 0.9,0.45 1.65,1.05 2.4,1.65 0.75,0.45 1.35,1.05 2.1,1.65 0.9,0.75 1.65,1.65 2.4,2.55 1.05,1.2 1.95,2.55 2.7,4.05 0.9,1.5 1.5,3.15 2.1,4.8 0.6,1.65 1.05,3.3 1.35,5.1 0.3,1.65 0.45,3.15 0.45,4.8 0,0.45 0,1.05 0.15,1.5 0,0.15 0.15,0.15 0.15,-0.15 0.3,-1.5 0.45,-3 0.45,-4.5 0,-2.7 -0.3,-5.55 -1.05,-8.25 -0.45,-1.65 -0.9,-3.15 -1.65,-4.65 -0.75,-1.5 -1.5,-3.15 -2.4,-4.5 l 0,0 c -1.05,-1.5 -2.25,-2.85 -3.45,-4.05 -1.2,-1.05 -2.55,-2.1 -4.05,-2.85 -0.6,-0.3 -1.2,-0.6 -1.8,-0.75 -2.55,-1.05 -5.1,-1.5 -7.8,-1.35 l 0,0 c -1.65,0.15 -3.15,0.3 -4.8,0.9 -1.5,0.45 -2.85,1.05 -4.2,1.95 -1.5,0.9 -2.85,1.95 -4.05,3.15 -1.05,1.05 -2.1,2.25 -3,3.45 -1.35,1.95 -2.55,3.9 -3.6,6 -0.9,1.8 -1.8,3.6 -2.4,5.55 -0.45,1.35 -0.9,2.7 -1.2,4.35 -0.3,1.65 -0.75,3.3 -0.9,4.95 -0.15,1.5 -0.3,3 -0.3,4.5 0,1.5 0,3 0.15,4.5 0.15,1.5 0.3,3 0.45,4.5 0.15,1.2 0.45,2.4 0.75,3.6 0.45,1.35 1.05,2.7 1.65,4.05 0.6,1.05 1.35,2.1 2.1,3.15 0.6,0.75 1.2,1.35 1.95,1.95 1.2,1.05 2.4,1.8 3.75,2.55 0.9,0.45 1.95,0.9 3,1.2 1.05,0.3 2.25,0.6 3.45,0.9 2.4,0.45 4.8,0.6 7.35,0.45 1.05,0 2.1,-0.15 3.15,-0.45 0.9,-0.15 1.8,-0.6 2.7,-0.9 1.05,-0.45 2.1,-1.2 3,-1.95 0.75,-0.6 1.35,-1.35 1.95,-2.1 0.3,-0.45 0.75,-1.05 1.05,-1.5 -0.45,-0.45 -0.3,-0.75 -0.3,-0.6 l 0,0 z"
     id="path339"
     inkscape:connector-curvature="0" /><path
     class="st28"
     d="m 1010.1035,612.75763 c 1.8,2.55 4.35,2.55 6.75,0.45 3.6,-3.3 5.55,-11.7 4.35,-18.45 -1.2,-6.75 -4.8,-12 -8.25,-8.7 -3.45,3.3 -5.85,13.8 -4.65,20.55 0.15,2.1 0.75,4.2 1.8,6.15 l 0,0 z"
     id="path341"
     inkscape:connector-curvature="0"
     style="fill:#834317" /><path
     d="m 1009.3535,612.60763 c 0.45,0.6 1.05,1.2 1.65,1.65 0.6,0.45 1.35,0.75 2.1,0.9 0.9,0.15 1.65,0 2.4,-0.3 0.75,-0.3 1.35,-0.75 1.8,-1.2 0.6,-0.6 1.05,-1.05 1.5,-1.8 0.45,-0.6 0.75,-1.2 1.05,-1.8 0.45,-0.75 0.75,-1.65 1.2,-2.55 0.3,-0.75 0.6,-1.5 0.75,-2.1 0.3,-1.05 0.6,-2.1 0.75,-3.3 0.15,-0.75 0.3,-1.65 0.3,-2.4 0,-0.75 0,-1.5 0,-2.25 -0.15,-1.05 -0.3,-1.95 -0.45,-3 -0.3,-1.65 -0.9,-3.15 -1.5,-4.65 -0.3,-0.75 -0.75,-1.35 -1.2,-2.1 -0.45,-0.6 -0.9,-1.05 -1.35,-1.65 -0.3,-0.3 -0.75,-0.6 -1.05,-0.9 -0.3,-0.15 -0.6,-0.3 -0.9,-0.45 -0.3,-0.15 -0.6,-0.15 -0.9,-0.3 -0.45,0 -1.05,0 -1.5,0.15 -0.6,0.15 -1.2,0.45 -1.65,0.9 -0.6,0.45 -1.2,1.05 -1.65,1.65 -0.45,0.6 -0.9,1.35 -1.35,2.1 -0.45,0.9 -0.9,1.8 -1.2,2.85 -0.3,0.9 -0.6,1.8 -0.9,2.7 -0.3,1.2 -0.6,2.25 -0.75,3.45 0,0.9 -0.15,2.1 -0.15,3.75 0,1.65 0.15,3.3 0.45,4.95 0.3,0.9 0.6,1.8 0.9,2.55 0.3,0.75 0.75,1.65 1.35,2.25 0.15,0.3 0.3,0.45 0.6,0.6 l 0,0 c -0.3,-0.6 -0.45,-1.2 -0.75,-1.95 -0.15,-0.6 -0.3,-1.2 -0.3,-1.8 0,-0.75 0,-1.5 0,-2.25 0,-0.9 0,-1.8 0.15,-2.7 0.15,-0.9 0.15,-1.8 0.3,-2.7 0.3,-1.8 0.6,-3.45 0.75,-4.65 0,-0.3 0,-0.6 0.15,-1.05 0.15,-1.8 0.6,-3.6 1.05,-5.25 0.3,-0.75 0.45,-1.35 0.75,-1.95 0.3,-0.6 0.6,-1.2 1.05,-1.65 0.3,-0.3 0.75,-0.6 1.05,-0.75 0.3,-0.15 0.75,-0.3 1.2,-0.15 0.3,0 0.6,0.15 0.9,0.3 0.3,0.15 0.45,0.3 0.6,0.45 0.15,0.15 0.45,0.45 0.6,0.75 0.3,0.45 0.6,0.9 0.9,1.35 0.3,0.6 0.6,1.2 0.75,1.95 0.3,0.75 0.45,1.5 0.6,2.25 0.15,0.75 0.3,1.65 0.45,2.55 0.15,1.95 0.15,3.75 0,5.7 -0.15,1.65 -0.45,3.15 -0.6,4.2 l 0,0.3 c -0.15,1.5 -0.45,2.85 -0.9,4.2 -0.45,1.2 -1.05,2.4 -1.8,3.45 -0.45,0.6 -0.9,0.9 -1.5,1.35 -0.6,0.3 -1.2,0.45 -1.95,0.45 -0.6,0 -1.2,-0.15 -1.65,-0.45 -0.45,-0.15 -0.75,-0.45 -1.2,-0.75 -0.3,-0.15 -0.45,-0.45 -0.75,-0.6 l -0.3,-0.3 0.15,0 z"
     id="path343"
     inkscape:connector-curvature="0" /><path
     class="st37"
     d="m 1013.8535,566.40763 c -0.9,2.1 -1.5,4.35 -1.65,6.6 -0.3,3.9 0.3,6.6 1.8,6 1.5,-0.6 3.3,-3.75 3.6,-7.65 0.3,-3.9 -0.9,-7.05 -2.4,-6.45 -0.45,0.3 -1.05,0.75 -1.35,1.5 l 0,0 z"
     id="path345"
     inkscape:connector-curvature="0"
     style="fill:#834317;stroke:#000000;stroke-width:2.9849999" /><path
     class="st37"
     d="m 1024.3535,566.40763 c -1.2,1.35 -1.95,3 -2.4,4.65 -1.05,3.3 -1.2,6.45 0,7.35 1.2,0.9 2.85,-0.45 3.9,-3.75 1.05,-3.3 0.9,-7.35 -0.15,-8.25 -0.45,-0.3 -0.9,-0.3 -1.35,0 l 0,0 z"
     id="path347"
     inkscape:connector-curvature="0"
     style="fill:#834317;stroke:#000000;stroke-width:2.9849999" /><path
     class="st37"
     d="m 1030.0535,576.30763 c -1.05,1.05 -1.8,2.4 -2.1,3.9 -0.9,2.85 -1.2,5.55 -0.3,6.45 0.9,0.9 2.4,-0.15 3.3,-2.85 0.9,-2.7 0.9,-6.45 0,-7.35 -0.15,-0.3 -0.6,-0.3 -0.9,-0.15 z"
     id="path349"
     inkscape:connector-curvature="0"
     style="fill:#834317;stroke:#000000;stroke-width:2.9849999" /><path
     d="m 1023.0035,562.20763 0.45,0 c 0.45,0 0.75,0.15 1.2,0.15 l 0,0 c 2.4,0.45 4.65,1.8 6.15,3.75 0.6,0.75 1.05,1.5 1.5,2.4 0.45,0.9 0.75,1.95 1.05,3 0.15,0.75 0.3,1.65 0.45,2.4 0,0.75 0.15,1.35 0.15,1.95 0,0.6 0,1.05 0,1.5 l 0,0.3 c 0,1.35 0.15,3.45 0.3,5.7 0.15,2.25 0.15,4.8 0.15,6.75 0,1.5 0,2.7 0,3.3 -0.15,1.35 -0.3,2.7 -0.6,3.9 -0.45,1.95 -1.05,3.9 -1.8,5.7 -0.45,1.5 -1.05,2.85 -1.5,3.9 -0.45,1.05 -0.9,1.95 -1.05,2.4 -0.45,1.35 -1.2,2.55 -1.95,3.75 -0.9,1.2 -1.95,2.4 -3.15,3.15 -1.05,0.6 -2.1,1.05 -3.3,1.35 -0.45,0.15 -0.75,0.15 -0.75,0.3 0,0.15 0.15,0.15 0.6,0.3 0.6,0.15 1.2,0.15 1.65,0.15 0.9,0 1.65,-0.3 2.55,-0.6 0.75,-0.3 1.5,-0.75 2.25,-1.2 0.75,-0.6 1.5,-1.2 2.1,-1.8 0.9,-1.05 1.8,-2.1 2.4,-3.15 0.6,-1.05 1.05,-1.95 1.35,-3.15 0.45,-1.65 0.75,-3.15 1.05,-4.8 0.45,-2.4 0.6,-4.65 0.75,-6.6 0.15,-1.95 0.3,-3.6 0.45,-4.8 0,-0.45 0.15,-1.2 0.3,-2.1 0.3,-1.5 0.45,-3.6 0.75,-5.85 0.3,-2.25 0.3,-4.65 0.3,-6.75 0,-1.2 -0.15,-2.4 -0.3,-3.75 -0.15,-0.9 -0.45,-1.8 -0.75,-2.7 -0.45,-1.2 -1.05,-2.4 -1.8,-3.45 -0.6,-0.9 -1.35,-1.8 -2.25,-2.55 -0.75,-0.75 -1.8,-1.35 -2.7,-1.95 -0.75,-0.3 -1.5,-0.6 -2.25,-0.75 -0.6,-0.15 -1.2,-0.3 -1.95,-0.3 -0.45,0 -0.9,0 -1.2,0 l -0.3,0 -0.3,0.15 0,0 z"
     id="path351"
     inkscape:connector-curvature="0" /><path
     d="m 1044.1535,569.25763 0,0 0.45,-0.15 0,0 1.2,-0.3 c 1.35,-0.3 2.55,-0.6 3.6,-0.9 1.8,-0.3 3.15,-0.6 4.2,-0.6 0.75,0 1.35,-0.15 1.8,-0.15 0.45,0 0.9,0 1.2,0 l 0.45,0 c 0.45,0 1.35,0 2.4,-0.15 1.05,-0.15 2.4,-0.15 3.75,-0.15 1.35,0 2.55,0.15 3.9,0.3 0.6,0.15 1.2,0.3 1.8,0.45 0.45,0.15 0.9,0.45 1.35,0.6 -0.15,-0.3 -0.45,-0.45 -0.6,-0.75 -0.3,-0.3 -0.6,-0.45 -0.9,-0.6 -0.45,-0.3 -0.9,-0.45 -1.2,-0.6 -1.35,-0.6 -2.7,-0.9 -4.05,-1.2 -1.2,-0.3 -2.4,-0.45 -3.75,-0.6 -1.2,-0.15 -2.25,-0.15 -3.45,-0.15 -0.6,0 -1.35,0.15 -1.95,0.15 -0.45,0 -0.75,0.15 -1.2,0.3 l -0.15,0 c -0.9,0.45 -2.55,1.05 -4.05,1.8 -1.2,0.6 -2.55,1.2 -3.45,1.65 l -1.05,0.6 -0.3,0.45 0,0 0,0 0,0 z"
     id="path353"
     inkscape:connector-curvature="0" /><path
     d="m 1103.2535,571.50763 c 1.65,-1.05 3,-1.8 4.2,-2.55 l 0,0 c 0.6,-0.3 1.2,-0.45 1.8,-0.45 0.45,-0.15 1.05,-0.15 1.5,0 0.6,0.15 1.35,0.3 1.8,0.75 0.45,0.3 0.75,0.6 1.05,1.05 0.15,0.15 0.3,0.45 0.3,0.75 0.15,0.15 0.15,0.45 0.15,0.6 l 0.15,0.3 c 0.15,0.3 0.15,0.6 0.15,0.9 0,0.45 0,0.9 0,1.35 0,1.05 -0.15,2.25 -0.45,3.3 -0.3,0.9 -0.6,1.95 -0.9,2.85 -0.15,0.45 -0.3,0.75 -0.45,0.9 -0.45,0.75 -0.9,1.35 -1.5,1.95 -0.9,0.9 -1.8,1.8 -2.7,2.55 -0.9,0.6 -1.8,1.2 -2.7,1.65 -0.75,0.45 -1.5,0.75 -1.8,0.9 -0.3,0.15 -0.6,0.3 -0.9,0.45 l -1.5,0.6 c -0.6,0.15 -1.05,0.45 -1.65,0.6 -0.45,0.15 -1.05,0.3 -1.65,0.3 -0.45,0 -0.9,0 -1.35,-0.3 -0.15,0 -0.15,0 -0.3,-0.15 l 0,0 c 0,0 -0.15,-0.15 -0.15,-0.15 l 0,0 c -0.15,0 -0.15,0.15 -0.3,0.3 0,0.15 0,0.3 0,0.3 0.15,0.15 0.3,0.3 0.45,0.45 0.45,0.3 0.9,0.6 1.35,0.75 0.6,0.15 1.2,0.3 1.95,0.45 0.75,0 1.35,0 2.1,0 0.6,0 1.35,-0.15 1.95,-0.3 1.05,-0.15 2.1,-0.6 3,-1.35 1.05,-0.9 2.1,-1.95 3,-3 0.9,-1.2 1.65,-2.4 2.4,-3.6 0.6,-1.05 1.2,-2.1 1.5,-2.7 l 0.15,-0.15 c 0.6,-0.75 1.05,-1.65 1.5,-2.4 0.6,-1.2 1.2,-2.55 1.5,-4.05 0.15,-1.05 0.15,-2.1 0,-3.15 -0.15,-1.05 -0.6,-2.1 -1.35,-2.85 -0.6,-0.6 -1.2,-1.2 -1.95,-1.5 -0.9,-0.3 -1.8,-0.45 -2.7,-0.45 -0.75,0 -1.5,0.3 -2.1,0.45 -0.6,0.3 -1.35,0.6 -1.95,1.05 -2.1,1.8 -3.75,3.45 -3.75,3.45 l 0.15,0.15 z"
     id="path355"
     inkscape:connector-curvature="0" /><path
     d="m 1001.7035,557.70763 c 1.8,-0.15 3.6,-0.15 5.25,-0.15 1.8,0.15 2.7,0.3 3.45,0.3 l 0.6,0 c 0.9,-0.15 1.8,-0.3 2.7,-0.45 0.45,-0.15 0.9,-0.15 1.5,-0.3 0.45,-0.15 0.9,-0.3 1.35,-0.3 0.45,-0.15 1.05,-0.15 1.5,-0.15 0.45,0 0.9,0.15 1.35,0.15 -0.3,-0.15 -0.45,-0.45 -0.75,-0.6 -0.75,-0.45 -1.5,-0.6 -2.25,-0.75 -0.45,0 -0.9,0 -1.5,-0.15 -0.6,-0.15 -0.9,0 -1.35,0 -0.9,0 -1.8,-0.15 -2.7,-0.15 -0.9,-0.15 -1.95,-0.15 -2.85,0.15 l -1.2,0.45 c -1.95,0.75 -5.1,2.1 -5.1,1.95 l 0,0 z"
     id="path357"
     inkscape:connector-curvature="0" /></svg>
