<?xml version="1.0" encoding="utf-8"?>
<!-- Generator: Adobe Illustrator 20.0.0, SVG Export Plug-In . SVG Version: 6.00 Build 0)  -->
<svg version="1.1"
	 id="svg16054" inkscape:version="0.91 r13725" sodipodi:docname="quiz3.svg" xmlns:cc="http://creativecommons.org/ns#" xmlns:dc="http://purl.org/dc/elements/1.1/" xmlns:inkscape="http://www.inkscape.org/namespaces/inkscape" xmlns:rdf="http://www.w3.org/1999/02/22-rdf-syntax-ns#" xmlns:sodipodi="http://sodipodi.sourceforge.net/DTD/sodipodi-0.dtd" xmlns:svg="http://www.w3.org/2000/svg"
	 xmlns="http://www.w3.org/2000/svg" xmlns:xlink="http://www.w3.org/1999/xlink" x="0px" y="0px" viewBox="0 0 1700.8 949.6"
	 style="enable-background:new 0 0 1700.8 949.6;" xml:space="preserve">
<style type="text/css">
	.st0{fill:#FFFFFF;}
	.st1{fill:#6B3C1F;stroke:#000000;}
	.st2{fill:#6B3C1F;stroke:#000000;stroke-linejoin:round;}
	.st3{fill:url(#SVGID_1_);stroke:#000000;}
	.st4{fill:#8D5027;stroke:#000000;}
	.st5{fill:url(#SVGID_2_);stroke:#000000;}
	.st6{fill:url(#SVGID_3_);stroke:#000000;}
	.st7{fill:#D28C5F;stroke:#000000;}
	.st8{fill:url(#SVGID_4_);stroke:#000000;}
	.st9{fill:url(#SVGID_5_);stroke:#000000;}
	.st10{fill:url(#SVGID_6_);stroke:#000000;}
	.st11{fill:url(#SVGID_7_);stroke:#000000;}
	.st12{fill:url(#SVGID_8_);stroke:#000000;stroke-width:1.02;}
	.st13{fill:url(#SVGID_9_);stroke:#000000;}
	.st14{fill:#855B3E;}
	.st15{fill:none;stroke:#000000;stroke-width:1.02;}
	.st16{fill:#A05B2B;stroke:#000000;stroke-width:1.02;}
	.st17{fill:#6C5353;stroke:#000000;stroke-width:1.02;}
	.st18{fill:#906F6F;stroke:#000000;stroke-width:1.02;}
	.st19{fill:none;stroke:#000000;}
	.st20{fill:url(#SVGID_10_);}
	.st21{fill:url(#SVGID_11_);}
	.st22{fill:#A06121;}
	.st23{fill:#B8854F;}
	.st24{fill:#834317;stroke:#000000;stroke-width:1.67;}
	.st25{fill:#834317;stroke:#000000;stroke-width:3.36;}
	.st26{fill:#834317;stroke:#000000;stroke-width:3.78;}
	.st27{fill:#834317;stroke:#000000;stroke-width:2.63;}
	.st28{fill:#834317;}
	.st29{fill:#956C45;stroke:#000000;stroke-width:2.83;}
	.st30{fill:#6E4A25;}
	.st31{fill:#5D381E;}
	.st32{fill:#DDCEBE;}
	.st33{fill:none;stroke:#000000;stroke-width:5;}
	.st34{fill:none;stroke:#000000;stroke-width:4;}
	.st35{stroke:#000000;stroke-width:5;}
	.st36{fill:#956C45;stroke:#000000;stroke-width:3;}
	.st37{fill:#834317;stroke:#000000;stroke-width:1.99;}
</style>
<defs>
	
	<inkscape:path-effect  effect="spiro" id="path-effect5341" is_visible="true"></inkscape:path-effect>
	<inkscape:path-effect  effect="spiro" id="path-effect17606" is_visible="true"></inkscape:path-effect>
	<inkscape:path-effect  effect="spiro" id="path-effect16830" is_visible="true"></inkscape:path-effect>
	<inkscape:path-effect  effect="spiro" id="path-effect16826" is_visible="true"></inkscape:path-effect>
	<inkscape:path-effect  effect="spiro" id="path-effect16822" is_visible="true"></inkscape:path-effect>
	<inkscape:path-effect  effect="spiro" id="path-effect16818" is_visible="true"></inkscape:path-effect>
	<inkscape:path-effect  effect="spiro" id="path-effect16814" is_visible="true"></inkscape:path-effect>
	<inkscape:path-effect  effect="spiro" id="path-effect16810" is_visible="true"></inkscape:path-effect>
	<inkscape:path-effect  effect="spiro" id="path-effect16806" is_visible="true"></inkscape:path-effect>
	<inkscape:path-effect  effect="spiro" id="path-effect16802" is_visible="true"></inkscape:path-effect>
	<inkscape:path-effect  effect="spiro" id="path-effect16798" is_visible="true"></inkscape:path-effect>
	<inkscape:path-effect  effect="spiro" id="path-effect16794" is_visible="true"></inkscape:path-effect>
	<inkscape:path-effect  effect="spiro" id="path-effect16790" is_visible="true"></inkscape:path-effect>
	<inkscape:path-effect  effect="spiro" id="path-effect16786" is_visible="true"></inkscape:path-effect>
	<inkscape:path-effect  effect="spiro" id="path-effect16782" is_visible="true"></inkscape:path-effect>
	<inkscape:path-effect  effect="spiro" id="path-effect16778" is_visible="true"></inkscape:path-effect>
	<inkscape:path-effect  effect="spiro" id="path-effect16774" is_visible="true"></inkscape:path-effect>
</defs>
<sodipodi:namedview  bordercolor="#666666" borderlayer="true" borderopacity="1.0" fit-margin-bottom="0" fit-margin-left="0" fit-margin-right="0" fit-margin-top="0" id="base" inkscape:current-layer="layer3" inkscape:cx="217.58924" inkscape:cy="334.05534" inkscape:document-units="cm" inkscape:pageopacity="0.0" inkscape:pageshadow="2" inkscape:window-height="1056" inkscape:window-maximized="1" inkscape:window-width="1855" inkscape:window-x="1985" inkscape:window-y="24" inkscape:zoom="0.35" pagecolor="#ffffff" showgrid="false" units="cm">
	</sodipodi:namedview>
<g id="layer2" inkscape:groupmode="layer" inkscape:label="background">
	<rect id="rect4177" y="-3.5" class="st0" width="1716.6" height="953.1"/>
</g>
<image style="overflow:visible;opacity:0.75;enable-background:new    ;" width="308" height="481" xlink:href="6221D42D.png"  transform="matrix(0.9968 0 0 0.9979 698 223)">
</image>
<polygon class="st1" points="761.3,481.1 764.5,486.9 754.6,572.2 747.3,616.6 739.9,652.5 729.9,652.1 730.1,641.4 737.7,576.2 
	747,516.4 753.7,481.1 "/>
<polygon class="st2" points="887.6,632.4 875.8,633.3 870.3,568.7 865.8,523.9 865.2,493.6 878.5,493.6 884.2,561.8 886.7,614.2 "/>
<g id="g8412">
	
		<linearGradient id="SVGID_1_" gradientUnits="userSpaceOnUse" x1="387.8517" y1="785.3054" x2="484.0517" y2="754.4554" gradientTransform="matrix(-1 0 0 1 1367.4399 -192.22)">
		<stop  offset="0" style="stop-color:#8D5027"/>
		<stop  offset="1" style="stop-color:#6B3C1F"/>
	</linearGradient>
	<path class="st3" d="M963.5,593.9L874.8,565c-0.8-1.7-0.9-3.7-0.4-5.5c1-2.9,4.6-2.9,4.6-2.9l37.5,10.3l49.2,18L963.5,593.9z"/>
	<path class="st4" d="M911,567.9c0,0-45.7,2.6-68.5,4.6s-72.8,9.5-72.8,9.5l3.5,3.3l-0.9,4.2c0,0,45.8-2.5,69-4.5s70.5-9,70.5-9
		c0.8-1.2,1.3-2.7,1.4-4.1C913.1,569.8,911,567.9,911,567.9L911,567.9z"/>
	
		<linearGradient id="SVGID_2_" gradientUnits="userSpaceOnUse" x1="376.1609" y1="792.5815" x2="447.4809" y2="750.0915" gradientTransform="matrix(-1 0 0 1 1192.89 -177.79)">
		<stop  offset="0" style="stop-color:#C28156"/>
		<stop  offset="1" style="stop-color:#6B3C1F"/>
	</linearGradient>
	<path class="st5" d="M792.3,606.7l-48.5-30.9c-0.8-1.7-0.9-3.7-0.4-5.5c1-2.9,4.6-2.9,4.6-2.9c9.2,5.9,12.2,7.8,20,12.5
		s26.8,15.7,26.8,15.7L792.3,606.7z"/>
</g>
<linearGradient id="SVGID_3_" gradientUnits="userSpaceOnUse" x1="381.1404" y1="773.8569" x2="407.9904" y2="777.0869" gradientTransform="matrix(-1 0 0 1 1367.4399 -192.22)">
	<stop  offset="0" style="stop-color:#492A16"/>
	<stop  offset="0.49" style="stop-color:#D28C5F"/>
	<stop  offset="1" style="stop-color:#593219"/>
</linearGradient>
<polyline class="st6" points="976.3,683.6 986.4,682.5 978,581.1 966.2,484.1 953,484.7 956.1,548.5 963.7,609.1 972.5,681.7 "/>
<g id="g8390">
	<path class="st7" d="M873.4,250.5c0,0-62.1,4.9-75.3,5.8c-13.2,0.8-80.6-0.4-80.6-0.4l6,34.6c0,0,67.3,0.6,75.3,0
		s75.5-6.2,75.5-6.2l0.6-34.1L873.4,250.5z"/>
	
		<linearGradient id="SVGID_4_" gradientUnits="userSpaceOnUse" x1="517.7304" y1="563.0242" x2="529.6505" y2="563.3442" gradientTransform="matrix(-1 0 0 1 1367.4399 -192.22)">
		<stop  offset="0" style="stop-color:#693B1D"/>
		<stop  offset="0.49" style="stop-color:#D28C5F"/>
		<stop  offset="1" style="stop-color:#563117"/>
	</linearGradient>
	<path class="st8" d="M849.3,454.2c0,0-1.2-76.5-1.2-88.9s-3.8-79.4-3.8-79.4l-4.9,0.5c0,0,1.2,82.5,1.2,97.4s2,71.1,2,71.1
		c1,0.5,2.2,0.8,3.3,0.9C847.3,455.5,848.4,455,849.3,454.2L849.3,454.2z"/>
	
		<linearGradient id="SVGID_5_" gradientUnits="userSpaceOnUse" x1="541.851" y1="565.1378" x2="557.571" y2="566.4278" gradientTransform="matrix(-1 0 0 1 1367.4399 -192.22)">
		<stop  offset="0" style="stop-color:#492A16"/>
		<stop  offset="0.49" style="stop-color:#D28C5F"/>
		<stop  offset="1" style="stop-color:#5B3319"/>
	</linearGradient>
	<path class="st9" d="M827.5,456.3c0,0-3.7-63-5.3-77.8s-8.8-89.6-8.8-89.6l-5,0.5l0.3,3.5c0,0,4.5,87.2,6.6,111.1s5,53.5,5,53.5
		c1.4,0.4,2.8,0.6,4.3,0.5C825.5,457.6,826.6,457,827.5,456.3L827.5,456.3z"/>
	
		<linearGradient id="SVGID_6_" gradientUnits="userSpaceOnUse" x1="569.7606" y1="566.1054" x2="583.1306" y2="567.7155" gradientTransform="matrix(-1 0 0 1 1367.4399 -192.22)">
		<stop  offset="0" style="stop-color:#5D351A"/>
		<stop  offset="0.49" style="stop-color:#D28C5F"/>
		<stop  offset="1" style="stop-color:#673A1C"/>
	</linearGradient>
	<path class="st10" d="M801,459.6c2.4-0.5,3-1.5,3-1.5s-5.7-55.3-6.9-65.9s-13.6-102.3-13.6-102.3l-4.4,0.2c0,0,8.9,89.7,11.4,112.3
		s6.6,56.4,6.6,56.4C798.2,459.6,799.7,459.9,801,459.6L801,459.6z"/>
	
		<linearGradient id="SVGID_7_" gradientUnits="userSpaceOnUse" x1="597.0897" y1="567.0224" x2="610.4597" y2="568.9324" gradientTransform="matrix(-1 0 0 1 1367.4399 -192.22)">
		<stop  offset="0" style="stop-color:#5D351A"/>
		<stop  offset="0.49" style="stop-color:#D28C5F"/>
		<stop  offset="1" style="stop-color:#5D351A"/>
	</linearGradient>
	<path class="st11" d="M776.9,462c1.1-0.6,2.1-1.3,3.1-2.1c0,0-7.2-53-9.3-64.1s-17-106.1-17-106.1l-4.3-0.1
		c0,0,12.8,101.7,14.8,119.8s7.7,52.1,7.7,52.1S775.5,462.7,776.9,462L776.9,462z"/>
	
		<linearGradient id="SVGID_8_" gradientUnits="userSpaceOnUse" x1="630.1462" y1="537.0371" x2="646.6063" y2="540.6971" gradientTransform="matrix(-1 0 0 1 1367.4399 -192.22)">
		<stop  offset="0" style="stop-color:#563117"/>
		<stop  offset="0.47" style="stop-color:#D28C5F"/>
		<stop  offset="1" style="stop-color:#4F2D17"/>
	</linearGradient>
	<path class="st12" d="M756.2,461.8c0,0-11.8-71.6-12-73s-2.7-6.1-2.7-6.1c0.8-1.4,1.2-2.9,1.1-4.5c-0.2-1.4-1.1-2.6-2.3-3.2
		c0,0,2.1-6,0.9-10.5s-13.8-55.9-14.3-58.6c-0.5-2.7,0.4-6.9,0.2-8.3c-0.1-0.8-0.8-1.4-1.6-1.5c0,0,1.4-2,1.2-3.3s-2-2.3-2-2.3
		s-1.7-12.1-2.7-18.1c-1.1-6-4.8-18.4-4.8-18.4s1.4-1,0.1-4.3s-2.4-5.4-2.8-6.3c-0.4-0.9,0.7-3.4,0.7-3.4s3.3-13-9.7-10.6
		c-13.2,2.5-1.9,13.1-1.4,14.1c1.9,3.6-1.6,3.7-0.9,9.6c0.3,2.1,2.6,3.9,2.6,3.9l1.7,18.3l4.6,18c0,0-1.3,0.2-1,2.3
		c0.2,1.1,0.7,2.2,1.5,3c-0.1,1.1,0,2.2,0.3,3.3c0.4,1.4,2.7,1.1,3,2.9s9.5,62.7,10.1,64.9s3.9,7.3,3.9,7.3
		c-1.2,0.8-1.7,2.3-1.4,3.7c0.3,1.6,1.1,3.1,2.3,4.2c0,0,1.5,17.6,2.2,21l12.5,57.6c0,0,3.9,1,5.6,0.7s5-2.5,5-2.5L756.2,461.8z"/>
	
		<linearGradient id="SVGID_9_" gradientUnits="userSpaceOnUse" x1="478.488" y1="531.788" x2="497.8981" y2="532.438" gradientTransform="matrix(-1 0 0 1 1367.4399 -192.22)">
		<stop  offset="0" style="stop-color:#4F2D17"/>
		<stop  offset="0.47" style="stop-color:#D28C5F"/>
		<stop  offset="1" style="stop-color:#4D2C16"/>
	</linearGradient>
	<path class="st13" d="M887.5,454.3c0,0-0.3-71.9-0.3-73.2s-1.8-6.7-1.8-6.7s2.7-1.3,2.2-3.6s-3.1-4-3.1-4s4.5-4.5,4-8.9
		s-4.5-54-4.5-56.7c0-2.7,2.2-5.8,2.2-7.1s-1.8-4-1.8-4s2.2-1.9,2.2-3.1s-1.9-2.4-1.9-2.4L884,249c0,0,2.7-0.7,2-4s-3.8-6.3-4-7.1
		s2.5-2,2.5-2s6.9-13.2-6.5-12.1s-4.8,12.3-4.5,13.4c1.2,3.8-1.6,2.9-1.9,8.6c-0.1,2,1.9,4.1,1.9,4.1v35.5c0,0-2.4,0.6-2.4,2.6
		c0,1.2,0.8,2.2,1.9,2.5c-0.7,0.9-1.2,2-1.3,3.2c0,1.3,2.2,2,2.2,3.8s-1.6,60.3-1.3,62.5s2.7,7.6,2.7,7.6s-2.5,1.6-2.5,4
		c0.1,1.5,0.9,3,2.2,3.8c0,0-1.8,16.8-1.7,20.1c0.3,7.4,3.3,58.7,3.3,58.7s3.5,1.8,5.4,1.9S887.5,454.3,887.5,454.3L887.5,454.3z"/>
	<path class="st14" d="M873.6,282.9c0,0-66.3,6.4-76.1,6.4s-73-0.5-73-0.5l0.7,1.6c0,0,66.8,0.9,74.1,0.5s74.3-6.2,74.3-6.2
		L873.6,282.9z"/>
	<path class="st15" d="M714.4,240.9c-3.6-0.5-7.2,0.1-10.5,1.6"/>
	<path class="st15" d="M717.3,253.4c0,0-8.3-0.5-12.1,2.8"/>
	<path class="st15" d="M725.5,295.8c0,0-5.4-1.4-12.5,2.2"/>
	<path class="st16" d="M726.8,301.5c0,0-7.3-2-11.8,1.7"/>
	<path class="st17" d="M739.9,374.8c0,0-8.1-0.4-10.9,1.9"/>
	<path class="st18" d="M741.2,382.5c0,0-6.1-0.3-10.7,2.5"/>
	<path class="st19" d="M882.4,237.1c0,0-3.2-1.5-8.5,0.1"/>
	<path class="st19" d="M884.2,248.8c0,0-6.8-2-11,0.4"/>
	<path class="st19" d="M884.5,289.7c0,0-4.2-1.7-11.8,0.4"/>
	<path class="st19" d="M885.7,295.2c0,0-7.7-2.4-12.8,0.2"/>
	<path class="st19" d="M884.6,366.7c0,0-5.8-1.2-8.9,0.5"/>
	<path class="st19" d="M885.4,374.4c0,0-5.9-1.5-10.9,0.3"/>
</g>
<g id="path3334">
	
		<image style="overflow:visible;opacity:0.75;enable-background:new    ;" width="48" height="233" xlink:href="6221D42F.png"  transform="matrix(0.9792 0 0 0.9957 778 493)">
	</image>
	
		<linearGradient id="SVGID_10_" gradientUnits="userSpaceOnUse" x1="561.1299" y1="793.3792" x2="588.4" y2="791.4391" gradientTransform="matrix(-1 0 0 1 1367.4399 -192.22)">
		<stop  offset="0" style="stop-color:#4F2D17"/>
		<stop  offset="0.49" style="stop-color:#D28C5F"/>
		<stop  offset="1" style="stop-color:#482914"/>
	</linearGradient>
	<polygon class="st20" points="778.7,706.1 791.3,706.4 801.7,617.1 805.9,531.5 805.9,494.2 795.1,494.2 788.8,531.5 784.4,594 
		780.6,667.8 	"/>
	<polygon class="st19" points="778.7,706.1 791.3,706.4 801.7,617.1 805.9,531.5 805.9,494.2 795.1,494.2 788.8,531.5 784.4,594 
		780.6,667.8 	"/>
</g>
<g id="g8423">
	
		<image style="overflow:visible;opacity:0.75;enable-background:new    ;" width="257" height="67" xlink:href="6221D42A.png"  transform="matrix(0.9961 0 0 0.9851 738 451)">
	</image>
	<path class="st7" d="M975.1,466.1v16.1c-5.1,1.8-10.4,3.1-15.8,4.1c-6.6,1-86.8,10.7-90,10.7s-48.6,0.6-53,0.6s-24.3-1.6-28.1-1.6
		S739,479.4,739,479.4l-0.3-4.1l0.6-12.6l4.1-1.6l115.5-8.2l12.3-1l20.5,0.6l52.4,7l26.8,4.7L975.1,466.1z"/>
	<path class="st19" d="M974.8,466.4c0,0-27.2,8.2-36.3,8.2s-79.2,6.6-84.6,6.6s-59.7,0.3-59.7,0.3s-7-0.6-12-1s-39.8-13.2-41.7-14.8
		s-1.2-2.9-1.2-2.9"/>
	
		<linearGradient id="SVGID_11_" gradientUnits="userSpaceOnUse" x1="618.9268" y1="666.93" x2="571.4868" y2="682.03" gradientTransform="matrix(-1 0 0 1 1367.4399 -192.22)">
		<stop  offset="0" style="stop-color:#8F5228"/>
		<stop  offset="1" style="stop-color:#D28C5F"/>
	</linearGradient>
	<path class="st21" d="M798.3,481.8l-0.7,14.1l-11.1-0.4l-24.6-8.2l-22.8-8.3l-0.3-6.4l0.5-7.1l18.9,7.8c0,0,19.3,6.8,25.1,7.7
		C788.4,481.7,793.3,481.9,798.3,481.8L798.3,481.8z"/>
</g>
<image style="overflow:visible;opacity:0.75;enable-background:new    ;" width="163" height="212" xlink:href="6221D42B.png"  transform="matrix(0.9939 0 0 0.9953 781.99 301.99)">
</image>
<g id="g5420">
	<path d="M816.7,419.8c0,0.1,0,0.2-0.1,0.3c-0.1,0.1-0.2,0.2-0.4,0.3c-0.2,0.1-0.4,0.1-0.6,0.2c-0.2,0-0.4,0-0.7,0
		c-0.5,0-1.1-0.2-1.5-0.4l-0.4-0.2c-0.6-0.3-1.1-0.6-1.5-1.1c-0.1-0.2-0.3-0.4-0.3-0.6c0-0.1,0-0.2,0-0.3c0,0,0-0.1,0-0.1l0,0v-0.1
		l0,0l0,0l0.1-0.1l0.1-0.1c0.1-0.1,0.1-0.1,0.2-0.1c0.2-0.1,0.4-0.1,0.7-0.1c0.6,0,1.2,0.1,1.7,0.3l0.4,0.1c0.4,0.2,0.9,0.4,1.3,0.6
		c0.2,0.1,0.3,0.2,0.5,0.3c0.1,0.1,0.2,0.2,0.3,0.3c0.1,0.1,0.2,0.2,0.2,0.3C816.6,419.6,816.7,419.8,816.7,419.8L816.7,419.8z"/>
	<path d="M817,416c0,0.1,0,0.2,0,0.4c-0.1,0.1-0.1,0.2-0.2,0.3c-0.3,0.2-0.6,0.4-0.9,0.4c-0.4,0.1-0.8,0.1-1.2,0l-0.4-0.1
		c-1-0.3-1.7-0.9-1.6-1.5l0,0c0.1-0.6,1-1,2-0.9h0.4c0.3,0,0.7,0.1,1,0.3c0.3,0.1,0.5,0.3,0.7,0.5c0.1,0.1,0.2,0.2,0.2,0.3
		C817,415.7,817,415.9,817,416L817,416z"/>
	<path d="M816.4,425.3c0.1,0.4,0,0.7-0.3,1c-0.3,0.3-0.8,0.6-1.3,0.6c-0.3,0.1-0.7,0-1-0.1c-0.3-0.1-0.5-0.2-0.8-0.5
		c-0.1-0.1-0.1-0.2-0.2-0.3c0-0.1,0-0.2,0-0.3l0,0c0-0.1,0-0.2,0.1-0.3c0-0.1,0.1-0.2,0.2-0.3c0.2-0.2,0.4-0.4,0.6-0.5
		c0.2-0.1,0.5-0.2,0.8-0.3c0.4-0.1,0.8,0,1.2,0.1C816.1,424.7,816.3,425,816.4,425.3L816.4,425.3z"/>
	<path class="st22" d="M853.6,399.6c-1-0.7-1.8-0.4-2.9-0.2s-2.2,1.4-2.7,1.6h-0.2c-2.7,2.7-6,4.8-9.7,5.9c-9.6,3.3-16.8,0.4-24,9.4
		c-1.3,1.7-0.2,8.1,1.8,11.3c2.5,4,8.9,4.3,15,2.1c7.7-2.7,17.6-11.4,22-17.3c0.1-0.4,0.3-0.7,0.5-1c0.5-0.8,1-1.6,1.4-2.4
		c0.6-1.3,1.1-2.7,1.4-4.1c0-1.1-0.2-2.2-0.6-3.2C855.3,400.7,854.7,400.3,853.6,399.6L853.6,399.6z"/>
	<path class="st23" d="M856.2,403.6c-0.3,0.7-0.6,1.3-1,2s-0.9,1.7-1.5,2.5c-0.5,0.8-1.1,1.7-1.8,2.4c-0.5,0.7-1.2,1.4-1.9,2.1
		s-2.1,1.7-3,2.5s-1.7,1.7-2.7,2.6s-1.9,1.7-2.9,2.5s-2,1.6-3.1,2.4s-2.1,1.5-3.2,2.1s-2.1,1.2-3.1,1.8c-1,0.5-2,0.9-3,1.3
		c-0.8,0.3-1.5,0.5-2.3,0.7c-0.7,0.2-1.5,0.3-2.3,0.5c-0.7,0.1-1.5,0.2-2.2,0.2c-0.7,0-1.4,0-2.1-0.1c-0.6-0.1-1.3-0.2-1.9-0.4
		c-0.6-0.2-1.2-0.4-1.7-0.7c-0.2-0.2-0.5-0.3-0.7-0.5l0,0c2.5,4,8.9,4.3,15,2.1c7.7-2.7,17.6-11.4,22-17.3c0.1-0.4,0.3-0.7,0.5-1
		c0.5-0.8,1-1.6,1.4-2.4c0.6-1.3,1.1-2.7,1.4-4.1C856.2,404.4,856.2,404,856.2,403.6L856.2,403.6z"/>
	<path d="M855.9,401.9l0.2,2.5c-0.2,1.4-0.6,2.8-1.3,4.1c-0.6,1.2-1.4,2.3-2.2,3.4c-0.7,0.9-1.4,1.8-2.1,2.6s-1.4,1.5-2.1,2.2
		c-1.8,1.8-3.7,3.4-5.6,5c-2,1.6-4.1,3-6.3,4.3c-1.3,0.8-2.5,1.4-3.5,1.9c-0.7,0.3-1.5,0.7-2.5,1.1c-1.3,0.5-2.6,0.8-3.9,1.1
		c-1.5,0.3-3.1,0.4-4.6,0.3l0,0c-1.2-0.1-2.3-0.4-3.4-0.9c-0.9-0.4-1.7-1.1-2.3-2c-0.5-0.8-1-1.8-1.3-2.7l0,0
		c-0.4-1-0.7-2.1-0.9-3.2c-0.1-0.3-0.1-0.6-0.2-0.9c-0.1-0.7-0.1-1.4-0.1-2.1c0-0.4,0.1-0.7,0.2-1.1c0.1-0.2,0.2-0.5,0.3-0.6
		c0.7-0.9,1.5-1.7,2.4-2.4c1-0.8,2-1.5,3.1-2.1l0,0c0.9-0.5,1.8-0.8,2.7-1.1c0.9-0.3,1.9-0.5,2.9-0.7c1.1-0.2,2.2-0.3,3.2-0.5
		s2-0.2,3-0.4s2-0.3,2.8-0.5s1.5-0.3,1.9-0.5c0.6-0.2,1.4-0.4,2.3-0.8c1.6-0.6,3.1-1.2,4.6-2c1-0.5,1.9-1.2,2.8-1.9
		c0.7-0.6,1.3-1.2,2-1.8l0,0c0.7-0.7,1.5-1.3,2.3-1.8c0.7-0.5,1.5-0.7,2.3-0.7c0.6,0,1.1,0.2,1.6,0.6l0.7,0.9
		c0.5,0.6,0.8,0.9,0.9,0.9l0,0c0.7-0.5,0.7-0.5,0,0l0,0c-0.3-0.8-0.7-1.5-1.3-2.1c-0.2-0.2-0.5-0.4-0.8-0.6
		c-0.3-0.2-0.7-0.3-1.1-0.4c-0.5-0.1-0.9-0.1-1.4,0c-0.5,0.1-1,0.3-1.5,0.5c-0.9,0.5-1.8,1.1-2.7,1.7c-0.7,0.5-1.4,1.1-2,1.6
		c-0.8,0.6-1.7,1.1-2.6,1.5c-1.4,0.7-2.9,1.2-4.5,1.7c-2.2,0.7-4.3,1.1-6,1.5l-0.7,0.1c-2,0.4-4.1,0.7-6.2,1.3c-2,0.5-4,1.3-5.8,2.4
		c-1.1,0.7-2.2,1.5-3.1,2.4c-0.9,0.8-1.7,1.7-2.4,2.7c-0.2,0.3-0.4,0.6-0.4,0.9c-0.1,0.4-0.2,0.8-0.2,1.2c0,1,0,2.1,0.2,3.1
		c0.1,0.4,0.1,0.8,0.2,1.1c0.1,0.8,0.3,1.5,0.6,2.3c0.3,1,0.7,2.1,1.3,3l0,0c0.3,0.5,0.7,1,1.1,1.4c0.5,0.4,1,0.8,1.5,1.1
		c1.2,0.6,2.5,1,3.8,1.2c1.6,0.2,3.1,0.2,4.7,0c1.6-0.2,3.1-0.6,4.6-1.1l0,0c2.2-0.8,4.3-1.8,6.3-3.1c1.7-1,3.2-2.1,4.7-3.4
		c0.5-0.4,1-0.8,1.5-1.3c1.9-1.7,3.7-3.5,5.4-5.4l0,0c1.5-1.6,2.8-3.3,4-5.1c0.5-0.7,0.9-1.5,1.3-2.2c0.4-0.7,0.7-1.4,1-2.1
		c0.3-0.6,0.5-1.3,0.6-1.9c0.1-0.5,0.2-1.1,0.3-1.6L855.9,401.9L855.9,401.9z"/>
	<path class="st24" d="M819.7,421c0,0.9,0.8,1.7,1.7,1.6c0,0,0,0,0,0c0.2,0,0.4,0.1,0.5,0.4c0.1,1.2,1.1,2.2,2.4,2.1c0,0,0,0,0,0
		c1.2-0.1,2.6-1.2,2.1-2.4c-0.8-1.9-0.4-2.8-0.2-4.4c0-1.2-0.9-2.1-2.1-2.1c-0.1,0-0.2,0-0.3,0c-1.2,0.1-2.2,1.1-2.1,2.4
		c0,0,0,0,0,0c0,0.3,0.1,0.5-0.4,0.6C820.4,419.3,819.7,420.1,819.7,421z"/>
	
		<ellipse transform="matrix(0.9986 -5.285883e-02 5.285883e-02 0.9986 -21.2785 43.9002)" class="st25" cx="819.3" cy="424.2" rx="1.4" ry="1.4"/>
	
		<ellipse transform="matrix(0.9986 -5.285883e-02 5.285883e-02 0.9986 -21.061 43.8015)" class="st26" cx="817.5" cy="420.1" rx="1.3" ry="1.3"/>
	
		<ellipse transform="matrix(0.9986 -5.285883e-02 5.285883e-02 0.9986 -20.8719 43.9182)" class="st27" cx="819.8" cy="416.5" rx="1.4" ry="1.4"/>
</g>
<path class="st22" d="M817.2,435.9c0,0,2.8,6,3,9.1s-3.3,8-3.8,9.9s-5,8.6-5,8.6l12-0.1l5.9-22l-1.4-6.3c-0.8,0-1.5-0.2-2.3-0.4
	c-2-0.3-4.1-0.2-6,0.4C818.9,435.5,818.1,435.8,817.2,435.9L817.2,435.9z"/>
<path d="M808.9,464.3c0.8,0,1.7,0,2.5,0.1c0.7,0.1,1.3,0.2,2,0.3c0.2,0,0.4,0.1,0.6,0.1c0.3,0,0.6,0,0.9-0.1
	c0.7-0.1,1.5-0.3,2.3-0.5s1.6-0.5,2.1-0.6c0,0-0.6-0.1-1.5-0.3s-2-0.2-3-0.3c-0.5,0-1-0.1-1.4-0.1c-0.2,0-0.5,0-0.8,0l-1.3,0.5
	L808.9,464.3L808.9,464.3z"/>
<path class="st22" d="M806,431.5c7.8-1.2,14.6,6.7,14.4,16.2c-0.2,9.8-7.9,17.9-14.2,16.8c-4.5-0.8-9-1.9-10.7-7.9
	c-0.6-3.1-0.9-6.2-0.7-9.3C795.7,438.1,800,432.4,806,431.5L806,431.5z"/>
<path d="M814.6,460.4c-0.4,0.7-1,1.4-1.6,2c-0.6,0.5-1.2,0.9-1.9,1.2c-1,0.4-2,0.6-3.1,0.5c-1.4,0-2.7-0.2-4.1-0.6
	c-1.1-0.3-2.1-0.7-3-1.3c-0.5-0.3-1-0.7-1.5-1.2c-0.4-0.4-0.8-0.8-1.1-1.2c-0.4-0.6-0.8-1.2-1.1-1.9c-0.2-0.5-0.4-1.1-0.6-1.7
	c-0.1-0.3-0.2-0.6-0.2-0.9s-0.1-0.6-0.2-0.9c-0.1-0.7-0.2-1.5-0.3-2.4c-0.2-1.6-0.3-3.1-0.2-4.7c0.1-1,0.2-2,0.4-3
	c0.2-0.9,0.4-1.8,0.6-2.8c0.2-0.7,0.5-1.5,0.8-2.2c0.3-0.6,0.5-1.1,0.7-1.4c0.4-0.7,0.8-1.4,1.3-2c0.5-0.6,1.1-1.2,1.7-1.7
	c0.7-0.6,1.4-1.1,2.2-1.5c0.7-0.3,1.5-0.6,2.2-0.8c0.8-0.2,1.5-0.2,2.3-0.2c0.9,0,1.7,0.2,2.5,0.5c0.7,0.2,1.3,0.5,1.9,0.9
	c0.6,0.4,1,0.7,1.3,0.9c0.4,0.3,0.8,0.6,1.2,0.9c0.5,0.4,0.9,0.9,1.3,1.4c0.6,0.7,1.1,1.4,1.5,2.2c0.5,0.9,0.9,1.7,1.2,2.7
	c0.3,0.9,0.6,1.9,0.7,2.8c0.2,0.9,0.3,1.8,0.3,2.7c0,0.3,0,0.6,0.1,0.8c0,0.1,0.1,0.1,0.1-0.1c0.2-0.8,0.3-1.7,0.3-2.5
	c0-1.6-0.1-3.1-0.5-4.6c-0.2-0.9-0.5-1.8-0.9-2.6c-0.4-0.9-0.8-1.7-1.4-2.5l0,0c-0.6-0.9-1.2-1.6-2-2.3c-0.7-0.6-1.4-1.2-2.3-1.6
	c-0.3-0.2-0.7-0.3-1-0.5c-3.1-1.2-6.7-0.9-9.6,0.9c-1.5,1-2.8,2.2-3.9,3.7c-0.7,1.1-1.4,2.2-2,3.4c-0.5,1-1,2.1-1.4,3.1
	c-0.3,0.7-0.5,1.5-0.7,2.4s-0.4,1.8-0.5,2.8c-0.2,1.7-0.3,3.3-0.1,5c0,0.9,0.1,1.7,0.2,2.6c0.1,0.7,0.2,1.4,0.4,2.1
	c0.2,0.8,0.6,1.6,1,2.3c0.3,0.6,0.7,1.2,1.2,1.8c0.3,0.4,0.7,0.8,1.1,1.1c0.7,0.5,1.4,1,2.2,1.4c1.2,0.6,2.4,0.9,3.6,1.1
	c1.4,0.2,2.7,0.3,4.1,0.2c1.1,0,2.2-0.3,3.3-0.8c0.6-0.3,1.1-0.7,1.6-1.1c0.4-0.4,0.7-0.8,1-1.2c0.2-0.3,0.4-0.6,0.6-0.9
	L814.6,460.4L814.6,460.4z"/>
<path class="st28" d="M797.8,461c1,1.4,2.5,1.5,3.8,0.2c2-1.8,3.1-6.5,2.5-10.3s-2.7-6.7-4.7-4.9s-3.3,7.7-2.6,11.5
	C796.8,458.7,797.2,459.9,797.8,461L797.8,461z"/>
<path d="M797.4,461c0.2,0.4,0.6,0.7,0.9,0.9c0.4,0.3,0.8,0.4,1.2,0.5c0.5,0,1,0,1.4-0.2c0.4-0.2,0.7-0.4,1-0.7
	c0.4-0.4,0.8-0.8,1.1-1.3c0.3-0.4,0.5-0.8,0.7-1.2c0.3-0.7,0.6-1.4,0.8-2.1c0.2-0.6,0.3-1.2,0.5-1.8c0.1-0.5,0.2-0.9,0.2-1.4
	c0-0.4,0-0.8,0-1.3c-0.1-0.6-0.1-1.1-0.3-1.7c-0.2-0.9-0.5-1.8-0.9-2.6c-0.2-0.4-0.4-0.8-0.7-1.2c-0.2-0.3-0.5-0.6-0.8-0.9
	c-0.2-0.2-0.4-0.4-0.6-0.5c-0.2-0.1-0.4-0.2-0.5-0.3c-0.2-0.1-0.3-0.1-0.5-0.1c-0.3,0-0.6,0-0.9,0.1c-0.4,0.1-0.7,0.3-1,0.5
	c-0.3,0.3-0.7,0.6-0.9,1c-0.3,0.4-0.5,0.8-0.8,1.2c-0.5,1-1,2-1.3,3.1c-0.2,0.6-0.4,1.3-0.4,2c0,0.5,0,1.2,0,2.1
	c0,0.9,0.1,1.9,0.3,2.8c0.2,0.5,0.3,1,0.6,1.5c0.2,0.5,0.5,0.9,0.8,1.3c0.1,0.1,0.2,0.3,0.3,0.4l0,0l0,0c-0.1-0.4-0.3-0.7-0.4-1.1
	c-0.1-0.3-0.1-0.7-0.1-1c0-0.4,0-0.8,0-1.2c0-0.5,0.1-1,0.1-1.5s0.1-1,0.2-1.5c0.2-1,0.4-1.9,0.4-2.6c0-0.2,0-0.4,0-0.6
	c0.1-1,0.3-2,0.6-3c0.1-0.4,0.3-0.8,0.4-1.1c0.2-0.3,0.4-0.6,0.6-0.9c0.2-0.2,0.4-0.3,0.6-0.5c0.2-0.1,0.4-0.1,0.6-0.1
	c0.2,0,0.3,0.1,0.5,0.2c0.1,0.1,0.3,0.2,0.4,0.3c0.1,0.1,0.2,0.3,0.3,0.4c0.2,0.2,0.3,0.5,0.5,0.8c0.2,0.3,0.3,0.7,0.4,1
	c0.2,0.9,0.4,1.8,0.5,2.7c0.1,1,0.1,2.1,0,3.1c-0.1,1-0.3,1.8-0.3,2.4v0.2c-0.1,0.7-0.2,1.3-0.3,2c-0.1,0.4-0.2,0.8-0.4,1.2
	c-0.2,0.4-0.4,0.8-0.7,1.1l0,0c-0.2,0.3-0.5,0.6-0.9,0.8c-0.3,0.2-0.7,0.3-1.1,0.3c-0.3,0-0.7-0.1-1-0.2c-0.2-0.1-0.5-0.2-0.7-0.4
	c-0.1-0.1-0.3-0.2-0.4-0.4L797.4,461L797.4,461z"/>
<path class="st24" d="M808.8,437.9c-0.7,1.1-1.1,2.3-1.3,3.6c-0.4,2.2-0.2,3.7,0.7,3.5s2-1.9,2.5-4.1s-0.1-4-1-3.7
	C809.3,437.3,809,437.6,808.8,437.9L808.8,437.9z"/>
<path class="st24" d="M805.7,435.1c-0.7,0.7-1.3,1.5-1.6,2.5c-0.8,1.8-1,3.5-0.5,4.1s1.6-0.1,2.4-1.9s0.9-4.1,0.4-4.6
	C806.2,435,805.9,435,805.7,435.1L805.7,435.1z"/>
<path class="st24" d="M801.3,435.4c-0.6,0.6-1,1.3-1.2,2.2c-0.5,1.6-0.6,3.1-0.1,3.6s1.3,0,1.9-1.6s0.5-3.6,0-4.1
	C801.7,435.3,801.4,435.3,801.3,435.4L801.3,435.4z"/>
<path d="M805,432.7l1,0.1c0.7,0.2,1.4,0.5,2,0.9c0.5,0.3,0.9,0.7,1.3,1.2c0.3,0.4,0.6,0.8,0.8,1.3c0.2,0.5,0.4,1.1,0.6,1.6
	c0.1,0.4,0.2,0.9,0.2,1.3c0.1,0.8,0.1,1.4,0.1,2c0,0,0,0.1,0,0.1c0,0.7,0.1,1.9,0.2,3.2s0.1,2.7,0.1,3.8c0,0.8,0,1.5,0,1.9
	c-0.1,0.7-0.2,1.5-0.4,2.2c-0.3,1.1-0.6,2.2-1,3.2c-0.3,0.8-0.6,1.6-0.9,2.2s-0.5,1.1-0.6,1.4c-0.3,0.7-0.6,1.5-1.1,2.1
	c-0.5,0.7-1,1.3-1.7,1.8c-0.5,0.4-1.1,0.6-1.8,0.7c-0.3,0-0.4,0.1-0.4,0.1s0.1,0.1,0.3,0.2c0.3,0.1,0.7,0.1,1,0.1
	c0.5,0,1-0.1,1.4-0.3c0.5-0.2,0.9-0.4,1.3-0.7c0.4-0.3,0.8-0.6,1.2-1c0.5-0.5,1-1.2,1.4-1.8c0.3-0.5,0.6-1.1,0.8-1.8
	c0.2-0.9,0.4-1.8,0.5-2.8c0.2-1.3,0.3-2.6,0.4-3.8s0.1-2.1,0.3-2.7c0-0.3,0.1-0.7,0.2-1.2l0,0c0.2-0.9,0.3-2,0.5-3.3
	s0.2-2.6,0.2-3.8c0-0.7,0-1.4-0.2-2.1c-0.1-0.5-0.2-1-0.4-1.5c-0.3-0.7-0.7-1.4-1.1-2c-0.4-0.5-0.8-1-1.3-1.4c-0.5-0.4-1-0.7-1.6-1
	c-0.4-0.2-0.8-0.3-1.3-0.4c-0.3-0.1-0.7-0.1-1-0.1L805,432.7L805,432.7z"/>
<path class="st22" d="M883.7,444.9c0,0,5-4.3,8-0.9s-2.1,12.4-7.4,13.9s-5.4-0.3-5.4-0.3"/>
<path class="st22" d="M874.4,387.4c9.4,16.4,9.9,42.6,9.8,53.2c-0.1,7.8-6.3,22.3-16.9,25.6c-4.2,1.3-25.6,12-30.7,9.8
	c-8-3.5,0.6-22.7-2.5-24.4c-10.1-5.7-4.7-23.1-2.8-29.6c2.3-8.3,21.1-29,39.5-38.7"/>
<path class="st29" d="M839,414.4c-4.7,0.2-6.8,4.1-9,11.8c-2.6,8.8-2.4,20.1,2.3,22.9s10.4-0.8,13-9.6s2.5-22.5-2.1-24.5
	C841.8,414.7,840.4,414.4,839,414.4L839,414.4z"/>
<path d="M832.5,448.3c-0.3-0.4-0.5-0.9-0.7-1.4c-0.2-0.5-0.4-1-0.5-1.5c-0.1-0.6-0.2-1.2-0.1-1.8c0-0.5,0.1-1,0.1-1.5s0-1,0-1.6
	c0-1,0.2-2.1,0.3-3.2s0.3-2.2,0.5-3.4c0.2-1.3,0.5-2.6,0.8-3.8s0.6-2.5,1-3.6c0.5-1.5,1.1-2.9,1.7-4.3c0.6-1.2,1.1-2.1,1.4-2.7
	c0.5-0.8,1-1.6,1.6-2.4c0.3-0.4,0.6-0.7,1-1c0.4-0.4,0.8-0.7,1.2-1c0.9-0.7,1.8-1.3,2.8-1.8c0.8-0.5,1.6-0.9,2.5-1.4
	c0.3-0.1,0.5-0.3,0.8-0.5l0.3-0.2c0.1-0.1,0.1-0.1,0.2-0.2l2.2-4.5c0.5-1.4,1.2-2.7,2-3.9l0.2-0.3c0.2-0.3,0.4-0.5,0.5-0.7l0.2-0.3
	l0-0.1l-0.1-0.1l0,0l0,0l0,0l0,0l0,0l0.1,0.1l-0.1,0.1l-0.3,0.3c-0.3,0.3-0.6,0.7-0.8,1c-0.4,0.5-0.7,1.1-1.1,1.6
	c-0.4,0.7-0.8,1.5-1.1,2.3l-2.3,4.5l0,0l-0.1,0.1l0,0l-0.2,0.1l0,0c-0.3,0.2-0.5,0.3-0.8,0.4c-0.8,0.4-1.7,0.9-2.5,1.3
	c-1,0.5-2,1.1-2.9,1.8c-0.9,0.6-1.7,1.3-2.3,2.1c-1.5,1.9-2.7,4-3.6,6.3c-0.5,1.1-0.8,2.2-1.2,3.4c-0.7,2.5-1.3,5-1.6,7.5
	c-0.3,2.2-0.6,4.4-0.7,6.7c0,1.1,0,2.1-0.1,3.1c-0.1,0.6,0,1.2,0.1,1.8c0.1,0.5,0.3,1.1,0.5,1.6c0.3,0.6,0.5,1.2,0.9,1.7
	c0.3,0.5,0.6,1,0.9,1.3l0.1,0.1c0.8,1,1.7,1.9,2.7,2.8c-0.8-1.1-1.7-2.1-2.6-3.1C833.2,449.4,832.8,448.8,832.5,448.3L832.5,448.3z"
	/>
<path d="M848.1,412c-0.4,0-0.8-0.1-1.1-0.1c-0.5-0.1-1-0.2-1.3-0.2h-0.1c-0.3,0-0.6,0-0.9,0c-0.3,0-0.7-0.1-1-0.2
	c-0.1,0-0.2,0-0.1,0.1c0.1,0.1,0.3,0.2,0.5,0.3c0.3,0.1,0.5,0.2,0.8,0.3c0.3,0.1,0.6,0.1,0.8,0.1h0.2l1.4-0.1c0.3,0,0.7,0,1,0
	c0.2,0,0.3,0,0.3-0.1S848.4,412,848.1,412L848.1,412z"/>
<path d="M848.9,409.8c-0.3,0-0.5-0.1-0.8-0.2c-0.3-0.1-0.5-0.2-0.8-0.2l0,0c-0.4,0-0.8-0.1-1.2-0.1c-0.2,0,0,0.1,0.2,0.3
	c0.3,0.2,0.6,0.4,0.9,0.5c0.1,0,0.2,0,0.3,0l0.9-0.1c0.2,0,0.4,0,0.7,0c0.1,0,0.2,0,0.2-0.1S849.2,409.8,848.9,409.8L848.9,409.8z"
	/>
<path d="M873.8,387.7c1.3,2.3,2.4,4.6,3.4,7c0.9,2.2,1.7,4.3,2.3,6.2l0,0c0.8,2.6,1.5,5.3,2.1,8c0.5,2.3,0.8,4.3,1,6.1
	c0.3,2,0.4,3.6,0.5,5s0.2,2.6,0.3,3.8s0.2,2.8,0.3,4.6c0.1,1.6,0.1,3.5,0.1,5.4s-0.1,3.9-0.3,5.8c-0.1,1.4-0.3,2.8-0.5,4.1
	s-0.4,2.3-0.6,3.2s-0.4,1.8-0.6,2.5c-0.1,0.5-0.3,0.9-0.3,1.2s-0.4,1.2-0.8,2c-0.4,1-0.9,2-1.4,2.9c-0.5,0.9-1.1,1.9-1.8,2.7
	c-0.7,0.9-1.5,1.8-2.4,2.6l0,0c-1.1,1-2.3,1.9-3.6,2.6c-1.6,1-3.3,1.8-4.8,2.5c-2.7,1.3-5,2.2-6.1,2.7s-3,1.3-5.2,2.2
	c-1.6,0.6-3.3,1.3-5.2,1.9s-3.7,1.3-5.6,1.8c-1.4,0.4-2.8,0.8-4.1,1.2l-1.4,0.4c-0.6,0.1-1,0.2-1.2,0.3s-0.2,0.1,0,0.1
	c0.3,0,0.6,0,1,0c0.5,0,1.1-0.1,1.8-0.2c1.2-0.2,2.6-0.4,4.3-0.8s3.5-0.8,5.4-1.3s3.8-1.1,5.7-1.7s3.5-1.2,5-1.8s3-1.3,4.1-1.9
	c0.8-0.4,1.5-0.8,2.3-1.2c1.6-0.9,3.2-1.9,4.8-3c1.3-0.9,2.5-1.9,3.7-3c1.6-1.7,3-3.7,4-5.8l0,0c1-2.1,1.8-4.2,2.4-6.4l0.2-0.7
	c0.3-1,0.8-2.8,1.3-5c0.3-1.2,0.5-2.6,0.7-4.1l0,0c0.3-1.7,0.5-3.6,0.6-5.5s0.2-3.9,0.1-5.8l0,0c0-2.7-0.2-5.3-0.4-7.7
	s-0.5-4.4-0.8-6c-0.1-0.4-0.2-0.8-0.2-1.1c-0.3-1.4-0.8-3.5-1.5-5.7s-1.5-4.8-2.4-7.2c-0.7-1.7-1.4-3.4-2.1-5s-1.4-3-2.1-4.1
	s-1.2-2.1-1.6-2.8S873.8,387.8,873.8,387.7L873.8,387.7z M828.6,438.3c0-1.9,0.1-3.7,0.2-5.6c0.1-1.5,0.4-3,0.8-4.4l0,0
	c0.3-1.2,0.8-2.4,1.3-3.6c0.5-1,0.9-1.9,1.3-2.7s0.8-1.4,1.1-1.9s0.7-1,1-1.5l1.1-1.5c0.5-0.7,1.1-1.7,2-2.9c0.7-0.9,1.4-2,2.1-3
	s1.5-2.1,2.3-3.1c1.5-2,2.9-3.6,3.5-4.4l0.4-0.5c0.5-0.6,1.3-1.4,2.3-2.3s2.1-1.9,3.3-2.9s2.4-2,3.5-2.9s2.2-1.7,2.9-2.3
	c0.5-0.4,0.8-0.6,1.1-0.9c1-0.9,2.8-2.4,5-3.8c1.1-0.7,2.2-1.5,3.3-2.1s2.2-1.3,3.2-1.8c0.5-0.2,0.7-0.4,0.7-0.4s-0.2,0-0.5,0
	c-1.3,0.3-2.5,0.8-3.8,1.3c-1.9,0.8-3.7,1.7-5.4,2.7c-1.7,1-3.3,2.1-4.9,3.4c-0.3,0.3-0.6,0.5-0.8,0.7c-2,1.8-3.9,3.8-5.7,5.7
	s-3.4,3.7-4.6,5.1c-0.5,0.5-0.9,1-1.3,1.4c-0.6,0.6-1.8,1.8-3.3,3.4s-3.2,3.5-4.7,5.5c-1.2,1.5-2.3,3.1-3.2,4.5l0,0
	c-0.5,0.7-0.9,1.4-1.2,2c-0.3,0.5-0.6,1.1-0.8,1.7v0.1c-0.3,0.7-0.7,1.7-1,2.9c-0.4,1.3-0.7,2.5-1,3.8c-0.2,1.2-0.3,2.4-0.4,3.7
	c0,1.2,0,2.3,0,3.3s0.1,1.8,0.1,2.4s0.1,0.9,0.1,0.9L828.6,438.3z"/>
<g id="g4320">
	<path class="st22" d="M876.1,392.8c-1.3-0.3-2,0.4-3,1s-1.6,2.4-2,2.8l-0.2,0.1c-1.6,3.9-4.1,7.3-7.2,10.1
		c-8.3,7.4-16.7,7.5-20.3,19.6c-0.7,2.2,3.2,8.2,6.6,10.6c4.2,3,10.8,0.6,16.1-4.2c6.6-6,13-18.9,14.9-26.7c0-0.4,0-0.8,0.1-1.3
		c0.2-1,0.3-2,0.3-3c0.1-1.6-0.1-3.2-0.4-4.8c-0.4-1.1-1.1-2.1-1.9-3C878.3,393.2,877.5,393.1,876.1,392.8L876.1,392.8z"/>
	<path class="st23" d="M880.4,395.8c0,0.8-0.1,1.6-0.2,2.5c-0.1,1-0.2,2.1-0.4,3.2c-0.2,1.1-0.4,2.2-0.8,3.2c-0.3,0.9-0.6,1.9-1,2.9
		s-1.4,2.6-1.9,3.8s-1,2.5-1.6,3.7s-1.2,2.5-1.9,3.8s-1.4,2.5-2.1,3.7s-1.5,2.4-2.3,3.5s-1.6,2.1-2.4,3.1c-0.8,0.9-1.6,1.8-2.5,2.6
		c-0.7,0.6-1.3,1.1-2,1.7c-0.7,0.5-1.4,1-2.1,1.4c-0.7,0.4-1.4,0.8-2.2,1.1c-0.7,0.3-1.4,0.6-2.2,0.8c-0.7,0.2-1.4,0.3-2.1,0.4
		c-0.7,0.1-1.3,0.1-2,0c-0.3,0-0.6-0.1-0.9-0.2l0,0c4.2,3,10.8,0.6,16.1-4.2c6.6-6,13-18.9,14.9-26.7c0-0.4,0-0.8,0.1-1.3
		c0.2-1,0.3-2,0.3-3c0.1-1.6-0.1-3.2-0.4-4.8C880.8,396.5,880.6,396.1,880.4,395.8L880.4,395.8z"/>
	<path d="M879.4,394.1l1.3,2.4c0.4,1.5,0.5,3.1,0.4,4.7c-0.1,1.5-0.4,2.9-0.8,4.4c-0.3,1.2-0.7,2.4-1,3.5s-0.8,2.1-1.2,3.1
		c-1.1,2.5-2.3,5-3.6,7.4c-1.3,2.4-2.9,4.8-4.5,7c-1,1.3-1.9,2.4-2.8,3.4c-0.5,0.6-1.2,1.3-2.1,2.1c-1.1,1-2.3,2-3.5,2.8
		c-1.4,0.9-2.9,1.7-4.5,2.2c-1.2,0.4-2.5,0.6-3.8,0.5c-1.1,0-2.3-0.4-3.2-1c-0.9-0.6-1.8-1.4-2.5-2.2c-0.8-0.9-1.6-1.9-2.3-2.9
		c-0.2-0.3-0.4-0.6-0.5-0.8s-0.3-0.5-0.5-0.9c-0.2-0.4-0.4-0.8-0.5-1.2c-0.1-0.4-0.2-0.8-0.2-1.2c0-0.3,0-0.5,0-0.8
		c0.4-1.2,0.8-2.3,1.4-3.4c0.6-1.2,1.4-2.4,2.3-3.5l0,0c0.7-0.8,1.4-1.6,2.3-2.3c0.8-0.7,1.7-1.3,2.6-1.9l0,0c1-0.7,2-1.3,3-1.8
		s2-1.1,2.8-1.6s1.9-1.2,2.7-1.7s1.3-1,1.7-1.3s1.2-1,2-1.7c0.6-0.5,1.2-1.1,1.8-1.8c0.7-0.7,1.4-1.4,2-2.2c0.8-1,1.4-2,2-3.1
		c0.5-0.9,0.8-1.8,1.2-2.6c0.5-1,1-1.9,1.6-2.8c0.5-0.8,1.2-1.4,2.1-1.7c0.6-0.2,1.3-0.2,1.9,0c0.4,0.1,0.7,0.2,1.1,0.4l0.5,0.3
		c0.5,0.3,0.7,0.4,0.7,0.4l0,0c0.5-0.7,0.5-0.7,0,0l0,0c0,0-0.2-0.3-0.5-0.6c-0.2-0.2-0.4-0.3-0.7-0.5c-0.3-0.2-0.6-0.3-0.9-0.5
		c-0.3-0.1-0.7-0.2-1.1-0.2c-0.4,0-0.8,0-1.2,0.1c-0.5,0.1-1,0.3-1.4,0.6c-0.5,0.3-0.9,0.7-1.3,1.2c-0.7,0.9-1.4,1.8-1.9,2.9
		c-0.5,0.8-0.9,1.7-1.4,2.5c-0.6,1-1.3,1.9-2,2.7c-1.2,1.3-2.5,2.5-3.8,3.6c-1.7,1.4-3.6,2.8-5.5,4l-0.6,0.4
		c-1.8,1.2-3.8,2.5-5.7,3.9l0,0c-1.9,1.3-3.5,3-4.9,4.8c-0.8,1.2-1.6,2.4-2.1,3.7c-0.5,1.2-1,2.4-1.3,3.7c-0.1,0.4-0.1,0.7,0,1.1
		c0.1,0.4,0.2,0.9,0.3,1.3c0.4,1,0.9,2.1,1.5,3c0.2,0.4,0.5,0.7,0.7,1c0.5,0.7,1,1.4,1.5,2c0.7,0.9,1.6,1.8,2.5,2.5
		c0.5,0.4,1.1,0.7,1.7,0.9c0.6,0.3,1.3,0.4,2,0.5c1.5,0.1,2.9,0,4.3-0.4c1.7-0.5,3.2-1.1,4.7-2c1.5-0.9,2.9-1.9,4.2-3
		c1.9-1.7,3.6-3.7,5.1-5.8c1.2-1.7,2.4-3.5,3.3-5.4c0.3-0.6,0.6-1.3,1-2c1.2-2.5,2.3-5.1,3.2-7.7l0,0c0.8-2.2,1.4-4.5,1.9-6.8
		c0.2-0.9,0.3-1.9,0.4-2.7c0.1-0.8,0.1-1.6,0.1-2.5c0-0.7-0.1-1.5-0.2-2.2c-0.1-0.6-0.2-1.2-0.4-1.8L879.4,394.1L879.4,394.1z"/>
	<path d="M847.3,428.8c0,0.1,0,0.2,0,0.4c-0.1,0.2-0.1,0.3-0.3,0.4c-0.2,0.2-0.3,0.3-0.5,0.4c-0.2,0.1-0.4,0.2-0.7,0.3
		c-0.6,0.2-1.1,0.3-1.7,0.3h-0.5c-0.7,0-1.3-0.2-1.9-0.4c-0.2-0.1-0.4-0.2-0.6-0.4c-0.1-0.1-0.1-0.1-0.2-0.2c0,0,0-0.1,0-0.1
		c0-0.1,0-0.1,0-0.1l0,0l0,0l0,0c0,0,0,0,0-0.1l0,0c0,0,0-0.1,0-0.1c0-0.1,0.1-0.1,0.2-0.2c0.2-0.2,0.4-0.3,0.6-0.4
		c0.6-0.2,1.2-0.3,1.9-0.4h0.5c0.5,0,1,0,1.5,0.1c0.2,0,0.4,0.1,0.6,0.1c0.2,0,0.3,0.1,0.5,0.2c0.1,0.1,0.2,0.1,0.3,0.2
		C847.1,428.7,847.2,428.7,847.3,428.8L847.3,428.8z"/>
	<path d="M846,424.9c0.1,0.2,0.1,0.5,0,0.7c-0.2,0.3-0.5,0.6-0.8,0.8c-0.3,0.2-0.7,0.4-1.1,0.5l-0.4,0.1c-0.5,0.1-1,0.1-1.5,0
		c-0.2-0.1-0.4-0.1-0.5-0.3c-0.1-0.1-0.1-0.1-0.2-0.2l-0.1-0.1v-0.1l0,0l0,0l0,0v-0.1c0,0,0-0.1,0-0.1c0-0.1,0-0.2,0.1-0.2
		c0.1-0.2,0.2-0.3,0.3-0.5c0.4-0.3,0.8-0.6,1.2-0.7l0.4-0.1c0.4-0.1,0.7-0.2,1.1-0.2c0.3,0,0.6,0,0.9,0.1
		C845.7,424.6,845.9,424.7,846,424.9L846,424.9z"/>
	<path d="M849.4,434.5c0.2,0.3,0.2,0.7,0,1.1c-0.2,0.5-0.6,0.9-1,1.1c-0.3,0.2-0.6,0.3-1,0.4c-0.3,0.1-0.6,0-0.9-0.1
		c-0.1,0-0.2-0.1-0.3-0.2c-0.1-0.1-0.1-0.2-0.2-0.3l0,0c0-0.1,0-0.2,0-0.3c0-0.1,0-0.2,0-0.3c0.1-0.3,0.2-0.5,0.4-0.7
		c0.2-0.2,0.4-0.4,0.7-0.6c0.4-0.2,0.8-0.4,1.3-0.4C848.7,434,849.1,434.2,849.4,434.5L849.4,434.5z"/>
</g>
<g id="g4380">
	<g id="g4181">
		<path class="st22" d="M846.8,352.3c0,0-3.6-1.9-4-2.7s-4.3-7.1-4.4-10.5s0.1-7.9,2-10.7s5.1-5.6,6.4-5.9c1.3-0.3,4.6,1.9,5.2,2.9
			s4.9,7.4,5.2,8S846.8,352.3,846.8,352.3L846.8,352.3z"/>
		<path class="st30" d="M846.8,322.6L846.8,322.6c-1.3,0.3-4.5,3.1-6.4,5.9s-2,7.3-2,10.7s3.8,9.6,4.3,10.5s4,2.7,4,2.7l1.2-2.1
			c-0.3-0.2-0.4-0.2-0.8-0.4s-1-0.6-1.4-0.9c-0.3-0.2-0.6-0.5-0.8-0.8c-0.1-0.2-0.4-0.8-0.9-1.5s-1-1.7-1.5-2.8
			c-0.3-0.5-0.5-1.1-0.7-1.6s-0.5-1.1-0.6-1.6c-0.2-0.5-0.3-1-0.5-1.5c-0.1-0.5-0.2-0.9-0.2-1.4c0-0.8,0-1.8,0-2.7
			c0-1,0.1-1.9,0.2-2.9c0.1-0.5,0.2-1,0.3-1.4s0.2-0.9,0.4-1.3c0.1-0.4,0.3-0.8,0.5-1.3c0.2-0.4,0.4-0.8,0.6-1.1
			c0.5-0.7,1-1.4,1.6-2c0.6-0.6,1.2-1.3,1.8-1.8C846.3,322.9,846.6,322.8,846.8,322.6L846.8,322.6z"/>
		<path d="M857.6,334.2L857.6,334.2L857.6,334.2v-0.1l-0.2-0.4c-0.2-0.5-0.4-0.9-0.6-1.3l0,0c-0.8-1.6-1.5-2.9-2.2-4
			c-0.6-1-1.1-1.8-1.6-2.5s-1-1.3-1.4-1.8c-0.5-0.6-1.1-1.2-1.8-1.7c-0.5-0.5-1.2-0.8-1.9-1c-0.2,0-0.3-0.1-0.5-0.1
			c-0.3,0-0.6,0-0.9,0.1c-0.4,0.1-0.7,0.3-1.1,0.5c-0.4,0.3-0.9,0.6-1.2,1c-0.4,0.4-0.8,0.9-1.2,1.3c-0.4,0.5-0.8,1.1-1.2,1.7
			s-0.7,1.1-1,1.7c-0.6,1.1-1,2-1.2,2.5c-0.1,0.3-0.4,0.8-0.6,1.5c-0.2,0.5-0.4,1.1-0.5,1.6c-0.2,0.7-0.3,1.3-0.3,2l0,0
			c-0.1,0.7-0.1,1.3-0.1,2s0,1.4,0.1,2l0,0c0.1,1.3,0.3,2.5,0.5,3.8c0.1,0.6,0.2,1.1,0.3,1.6s0.2,0.8,0.3,1.1l0,0c0.4,1,1,2,1.7,2.8
			c0.7,0.7,1.4,1.4,2.2,2c0.7,0.5,1.4,1,2.1,1.4c0.3,0.2,0.6,0.4,1,0.5c0.1,0.1,0.3,0.1,0.5,0.1c0.1,0,0-0.1,0-0.2s-0.3-0.2-0.5-0.4
			l-0.8-0.7c-0.5-0.5-1.2-1.1-1.9-1.9c-0.7-0.7-1.3-1.5-1.9-2.3c-0.3-0.4-0.5-0.8-0.7-1.2c-0.2-0.4-0.4-0.8-0.5-1.2
			c-0.2-0.7-0.4-1.3-0.5-1.9l-0.1-0.5c-0.3-1.1-0.5-2.2-0.7-3.4c-0.2-1.2-0.3-2.5-0.3-3.7l0,0c0-0.6,0.1-1.2,0.2-1.8
			c0.1-0.5,0.2-1,0.4-1.5c0.3-0.8,0.6-1.6,1-2.3c0.2-0.4,0.6-1.1,1.2-1.8c0.6-0.9,1.3-1.7,2-2.5c0.7-0.7,1.4-1.3,2.3-1.8
			c0.3-0.2,0.7-0.3,1-0.4c0.3-0.1,0.6-0.1,0.9,0l0,0c0.6,0.1,1.1,0.4,1.5,0.7c0.4,0.3,0.8,0.6,1,0.8s0.4,0.3,0.6,0.5
			c0.6,0.5,1.1,1,1.6,1.5c0.6,0.6,1.2,1.4,1.7,2.1c1,1.3,1.8,2.6,2.5,3.7c0.3,0.5,0.5,0.9,0.7,1.2l0.2,0.3l0,0l0,0.1l0,0l0,0
			L857.6,334.2z"/>
		<path class="st28" d="M855.2,338.9c-1.2,1.6-2.2,3.2-3.1,4.9c-0.6,1.5-1.5,2.8-2.5,4c-0.4-0.1-0.8-0.2-1.2-0.4
			c-0.8-1.3-1.5-2.8-2.1-4.2c-0.5-1.6-1.8-3.1-1.2-5s1.1-5.1,2.4-5.2c1.3-0.2,2.6-0.1,3.9,0.2c0.7,0.4,1.4,0.8,1.9,1.4
			C853.7,335.1,855.8,338.1,855.2,338.9L855.2,338.9z"/>
		<path class="st31" d="M847.3,333.1c-1.2,0.5-1.7,3.3-2.2,5.1s0.7,3.3,1.2,5c0.6,1.5,1.3,2.9,2.1,4.2c0.4,0.2,0.8,0.3,1.2,0.4
			c0.3-0.2,0.5-0.5,0.7-0.9c-0.2,0-0.4-0.1-0.6-0.1c-0.3-0.1-0.5-0.2-0.5-0.2s-0.4-0.6-0.8-1.5c-0.2-0.4-0.5-0.9-0.7-1.4
			c-0.2-0.4-0.4-0.9-0.5-1.4c-0.1-0.4-0.3-0.8-0.5-1.2c-0.2-0.4-0.4-0.8-0.5-1.2c-0.1-0.2-0.1-0.4-0.2-0.6c-0.1-0.2-0.1-0.4-0.1-0.6
			c-0.1-0.4,0-0.9,0.1-1.3c0.1-0.5,0.3-1,0.4-1.6s0.3-1.1,0.5-1.7c0.1-0.2,0.2-0.5,0.3-0.7C847.2,333.3,847.3,333.2,847.3,333.1
			L847.3,333.1z"/>
		<path d="M855.2,338.8c-0.4,0.4-0.9,0.8-1.3,1.2c-0.4,0.4-0.7,0.8-1,1.2s-0.7,0.9-1,1.4c-0.3,0.4-0.5,0.8-0.7,1.3
			c-0.2,0.4-0.4,0.8-0.7,1.2c-0.2,0.3-0.4,0.6-0.6,0.8c-0.2,0.3-0.4,0.5-0.7,0.7c-0.2,0.1-0.3,0.2-0.4,0.2h0.2l-0.1-0.1
			c-0.2-0.2-0.4-0.4-0.5-0.7c-0.2-0.3-0.5-0.7-0.8-1.1s-0.5-0.9-0.8-1.3s-0.6-1.1-0.8-1.7s-0.4-1-0.5-1.4c-0.1-0.2-0.1-0.4-0.2-0.5
			c-0.1-0.3-0.1-0.7-0.2-1c0-0.4,0-0.8,0.1-1.1l0,0c0.2-0.6,0.4-1.2,0.8-1.8c0.3-0.5,0.7-0.9,1.2-1.3c0.3-0.3,0.6-0.5,1-0.7l0.7-0.3
			c0.2-0.1,0.5-0.2,0.7-0.3c0.2,0,0.3,0,0.5,0c0.2,0,0.4,0.1,0.7,0.1c0.5,0.2,0.9,0.4,1.4,0.7c0.5,0.3,0.9,0.7,1.3,1
			c0.2,0.1,0.3,0.2,0.3,0.1l0,0c-0.3-0.7-0.8-1.4-1.3-2c-0.4-0.5-0.9-0.9-1.4-1.2c-0.4-0.3-1-0.5-1.6-0.5c-0.4,0-0.7,0.1-1.1,0.2
			c-0.3,0.1-0.6,0.3-0.9,0.5c-0.3,0.3-0.7,0.6-1,1c-0.5,0.6-0.9,1.3-1.2,2c-0.3,0.7-0.5,1.5-0.6,2.3c-0.1,0.5-0.1,1,0,1.5
			c0.1,0.6,0.2,1.1,0.3,1.6v0.2c0.1,0.3,0.2,0.8,0.3,1.4s0.4,1.3,0.7,2c0.4,1,0.9,2,1.4,3c0.2,0.3,0.4,0.6,0.7,0.9
			c0.1,0.1,0.2,0.2,0.3,0.3c0.1,0.1,0.3,0.1,0.5,0.1c0.3-0.1,0.6-0.3,0.9-0.5c0.3-0.3,0.6-0.6,0.8-1c0.1-0.2,0.2-0.4,0.3-0.6
			c0.3-0.6,0.6-1.3,0.8-2c0.1-0.4,0.3-0.9,0.5-1.3c0.2-0.5,0.5-1.1,0.8-1.6s0.5-0.8,0.7-1.2s0.5-0.7,0.6-0.9
			C854.8,339.4,855,339.1,855.2,338.8L855.2,338.8z"/>
		<path d="M841.1,331.3L841.1,331.3L841.1,331.3L841.1,331.3L841.1,331.3c-0.1,0-0.2,0-0.2,0c-0.1,0-0.2-0.1-0.3-0.2
			c-0.3-0.2-0.5-0.5-0.7-0.8l-0.2-0.4c-0.1-0.2-0.2-0.4-0.3-0.6c-0.1-0.2-0.2-0.5-0.3-0.7c0-0.1-0.1-0.2-0.1-0.4
			c0-0.1-0.1-0.2-0.1-0.4c0-0.1,0-0.2,0.1-0.4c0.1-0.1,0.2-0.2,0.3-0.3c0.1-0.1,0.3-0.1,0.5,0c0.2,0,0.4,0.1,0.5,0.3
			c0.3,0.2,0.5,0.5,0.6,0.8c0.1,0.2,0.2,0.4,0.3,0.6c0.2,0.5,0.3,1,0.3,1.5c0,0.2,0,0.4-0.1,0.6c0,0.1-0.1,0.1-0.1,0.2l0,0l-0.1,0.1
			l0,0l0,0L841.1,331.3z"/>
		<path d="M840.1,333.8c-0.1,0.3-0.3,0.5-0.6,0.5c-0.4,0-0.8-0.1-1.1-0.2l-0.3-0.1c-0.4-0.1-0.7-0.2-1.1-0.5
			c-0.1-0.1-0.2-0.2-0.3-0.3c-0.1-0.1-0.1-0.2-0.2-0.3c-0.1-0.1-0.1-0.2-0.2-0.3c0-0.1-0.1-0.2-0.1-0.3c0-0.1,0-0.2,0-0.3
			c0-0.1,0.1-0.2,0.2-0.3c0.1-0.1,0.2-0.2,0.3-0.2c0.1-0.1,0.3-0.1,0.4-0.1c0.4-0.1,0.9,0,1.3,0.1l0.3,0.1l0,0
			c0.4,0.3,0.8,0.7,1.1,1.1C840.1,333.1,840.2,333.5,840.1,333.8L840.1,333.8z"/>
	</g>
	<path class="st22" d="M835,359.4c0,0,0.5-10.1,1.4-12.4s3.6-9.6,5.9-11.8s4.9-5.6,9-7.8s15.9-4.1,18.5-4.1s8.1,2,10,2.9
		s6.3,6.8,8.5,9.6s7,13.8,7.6,16s2.5,11.8,2.1,15.1s-1.1,9.3-3.1,12.1s-8.8,8.9-11.3,9.4s-21.6,7.8-27.1,6.1s-15.6-11.3-16-13.8
		S835.2,362.5,835,359.4L835,359.4z"/>
	<path class="st31" d="M869.8,323.4c-2.6,0-14.4,2-18.5,4.1s-6.8,5.6-9,7.8s-5,9.5-5.9,11.8s-1.4,12.4-1.4,12.4
		c0.1,3.1,5.1,18.9,5.5,21.4s9.1,11.9,14.6,13.6c1.1,0.4,2.2,0.3,4.5-0.5c-1.6,0.2-2.5,0.4-3.4,0.1c-5.5-1.8-14.2-10.8-14.6-13.3
		s-5.4-18.3-5.5-21.4c0,0,0.5-10.1,1.4-12.4s3.6-9.6,5.9-11.8s4.9-5.6,9-7.8s15.2-4,18.2-4.1L869.8,323.4L869.8,323.4z"/>
	<path d="M839.2,356.1c0.1-0.1,0.3-0.1,0.5-0.1c0.1,0,0.2,0,0.3,0c0.1,0,0.2,0,0.3,0.1c0.1,0,0.2,0.1,0.2,0.1c0.2,0,0.3,0.1,0.4,0.2
		c0.2,0.1,0.4,0.2,0.5,0.3c0.1,0,0.1,0,0.1-0.1c0-0.1-0.1-0.3-0.2-0.4c-0.1-0.2-0.2-0.3-0.4-0.5c-0.1-0.1-0.3-0.2-0.5-0.2h-0.1
		c-0.3,0-0.6,0.1-0.8,0.2c-0.2,0.1-0.4,0.2-0.5,0.3s-0.2,0.1-0.1,0.2S839,356.2,839.2,356.1L839.2,356.1z"/>
	<path d="M839.9,354.2c0.1-0.1,0.2-0.1,0.3-0.1c0.1,0,0.2,0,0.3,0h0c0.1,0,0.1,0,0.2,0c0.1,0,0.2,0.1,0.3,0.1c0,0,0.1,0,0-0.1
		c0-0.1,0-0.2-0.1-0.3c-0.1-0.1-0.1-0.2-0.2-0.3c-0.1-0.1-0.2-0.1-0.3-0.1l0,0c-0.2,0.1-0.3,0.2-0.4,0.3c-0.1,0.1-0.2,0.2-0.3,0.2
		S839.8,354.1,839.9,354.2C839.9,354.2,839.9,354.3,839.9,354.2C840,354.2,840,354.2,839.9,354.2L839.9,354.2z"/>
	<path d="M840.4,355.2c0.1-0.6,0.3-1.8,0.7-3.2c0.3-1.7,0.8-3.8,1.3-6.1c0.3-1.4,0.6-2.8,0.8-4.2c0.2-1,0.6-1.9,1.1-2.7
		c0.6-1.1,1.3-2.1,2.1-3.1c0.8-1.1,1.6-2,2-2.5l0.4-0.5c0.5-0.6,1.2-1.4,2.1-2.3c0.6-0.5,1.2-1,1.8-1.5c0.7-0.5,1.4-0.9,2.2-1.4
		c1.5-0.9,3.1-1.6,4.7-2.4c1.3-0.6,2.6-1.1,3.8-1.6l0.4-0.2c0.3-0.1,0.5-0.2,0.7-0.3c0.1,0,0.2-0.1,0.3-0.2c0-0.1,0-0.2,0-0.3l0,0
		l-0.1-0.1l-0.1-0.1l0.1,0.1l0.1,0.1l0,0c0,0.1,0,0.2,0,0.3l0,0c-0.1,0.1-0.2,0.1-0.3,0.1l-1.1,0.4c-1,0.4-2.3,0.8-3.9,1.5
		c-1.6,0.7-3.3,1.4-4.8,2.2c-1.5,0.8-2.9,1.7-4.2,2.8c-0.8,0.7-1.5,1.5-2.2,2.3l0,0c-0.9,1-1.7,2-2.4,3l-0.1,0.1
		c-0.7,1-1.4,2.1-2,3.2l0,0c-0.5,0.9-0.9,1.9-1.1,2.9c-0.2,1.4-0.5,2.8-0.7,4.2c-0.4,2.2-0.8,4.3-1.1,6.1c-0.4,2-0.7,3.7-1,4.9
		l-0.1,0.6c-0.2,0.8-0.3,1.3-0.3,1.7c0,0.2,0,0.4-0.1,0.5c0,0,0,0.1,0,0.1l0,0l0,0l0,0v-0.1c0-0.1,0.1-0.3,0.1-0.5
		c0.1-0.4,0.2-1,0.4-1.7s0.3-1.4,0.4-2.3L840.4,355.2z"/>
	<path class="st23" d="M869.7,323.4h-0.4c1.7,0,2,0.9,3.8,1c3.8,0.1,11.7,8.5,13.6,11.5c2.9,5.1,5.5,10.5,7.6,16
		c0.6,2.3,2.5,11.8,2.1,15.1s-1.1,9.3-3.1,12.1s-8.8,8.9-11.3,9.4c-2,0.4-12.5,4.4-20,4.6c7.4,0.2,19.4-4.2,21.5-4.6
		c2.5-0.5,9.3-6.5,11.3-9.4s2.8-8.8,3.1-12.1s-1.5-12.9-2.1-15.1c-2.1-5.5-4.6-10.9-7.6-16c-2-2.9-7.6-11.6-13.6-11.5
		C872.6,324.4,872.4,323.4,869.7,323.4L869.7,323.4z"/>
	<path class="st30" d="M850.6,354.1c-1-0.5-1.2-2.6-1.7-1.6c-0.6,1.4-0.4,3.1,0.5,4.3c0.7,0.7,4.8,1.2,4.8,0
		S851.6,354.7,850.6,354.1L850.6,354.1z"/>
	<path d="M852.9,348.5c-2.1-0.2-3.9,1.4-4.1,3.5c0,0.1,0,0.2,0,0.3c0,2.3,1,4.5,3.3,4.7c2.1,0.2,3.9-1.2,4.2-3.3c0-0.3,0-0.6,0-0.9
		C856.1,350.6,855.2,348.5,852.9,348.5z"/>
	<path class="st32" d="M853.2,350c-0.3-0.4-1.4,0-1.8,0.4c-0.5,0.2-0.8,0.8-0.6,1.3s0.8,0.8,1.3,0.6c0.2-0.1,0.4-0.2,0.5-0.4
		C853,351.5,853.5,350.4,853.2,350L853.2,350z"/>
	<path class="st33" d="M852.9,349.2c0,0,2.8,0.3,3.7-1.5"/>
	<path d="M895,349.6L895,349.6L895,349.6v0.2l0.2,0.6c0.2,0.7,0.3,1.3,0.5,1.9c0.2,0.8,0.4,1.5,0.5,2.2c0.1,0.6,0.3,1.2,0.4,1.8
		c0.2,1.3,0.3,2.5,0.4,3.7l0,0c0.1,1.8,0.2,3.3,0.2,4.7c0,1.5-0.1,3.1-0.2,4.6c-0.1,0.7-0.2,1.4-0.3,1.9c-0.1,0.5-0.2,1-0.4,1.4
		l-0.2,0.5c-0.3,0.7-0.6,1.8-1,3.1c-0.4,1.4-1,2.7-1.7,3.9c-0.5,0.8-1,1.6-1.6,2.3c-0.6,0.7-1.2,1.3-1.9,1.9c-0.6,0.6-1.3,1-1.8,1.4
		s-1,0.7-1.3,0.9c-0.2,0.1-0.4,0.2-0.6,0.4c-0.5,0.3-1,0.5-1.5,0.7c-0.6,0.3-1.3,0.5-2.1,0.8l0,0c-1.4,0.5-3,0.9-4.6,1.3
		c-1.9,0.5-3.8,0.9-5.5,1.2s-2.9,0.6-3.6,0.8l-1.3,0.4c-1.1,0.3-2.6,0.7-4.2,1s-3.3,0.8-4.9,1.1c-1.1,0.2-2.1,0.5-3.1,0.7l-0.7,0.2
		l-0.3,0.1c-0.2,0-0.3,0.1-0.5,0.2c-0.1,0.1-0.2,0.1-0.2,0.1s0.1,0,0.2,0h0.5l1.1-0.1c0.8,0,1.9-0.1,3.2-0.2
		c2.8-0.2,6.3-0.6,9.3-1.2c1.3-0.2,2.6-0.5,3.9-0.9c2.1-0.6,4.3-1.4,6.4-2.1c1.6-0.6,3.1-1.2,4.5-1.8c1.2-0.5,2.4-1.1,3.6-1.7
		c0.7-0.4,1.3-0.7,1.8-1c1-0.6,1.9-1.2,2.8-1.9c1.4-1.1,2.6-2.4,3.6-3.8c0.8-1.2,1.5-2.5,2-3.8c0.6-1.3,1-2.6,1.5-3.8
		c0.2-0.6,0.4-1.3,0.5-2c0.1-0.6,0.2-1.2,0.2-1.8c0-0.8,0-1.5,0-2.3c0-0.7-0.1-1.5-0.2-2.5c-0.2-1.4-0.4-3-0.7-4.7
		c-0.2-1.2-0.5-2.5-0.7-3.7c-0.2-0.6-0.3-1.3-0.5-1.8c-0.3-0.8-0.5-1.5-0.7-2.2s-0.5-1.4-0.6-1.8l-0.2-0.6L895,349.6L895,349.6
		L895,349.6L895,349.6z"/>
	<path d="M835.1,359.6c0-0.8,0.1-1.6,0.2-2.4c0.2-1.1,0.3-2.2,0.6-3.2l0,0c0.3-1.6,0.7-3.1,1.1-4.4s0.8-2.4,1.1-3.4
		c0.7-1.9,1.3-3.2,1.8-4.4s1-2,1.4-2.7l0.3-0.6c0.4-0.8,1-1.8,1.6-2.9c0.7-1.1,1.5-2.2,2.4-3.2l0,0c1-1,2.1-2,3.3-2.9
		c1-0.8,2-1.3,2.5-1.6c0.6-0.4,1.3-0.7,2-0.9c1.1-0.4,2.2-0.8,3.3-1.1c1-0.3,2.1-0.5,3.2-0.7s2.2-0.4,3.2-0.5c2-0.2,3.7-0.3,4.4-0.4
		l1-0.1c1.2-0.1,2.4-0.1,3.7,0c1.5,0.2,2.9,0.5,4.3,0.9c0.9,0.3,1.8,0.6,2.7,1c0.3,0.1,0.6,0.3,0.9,0.4c0.3,0.1,0.5,0.2,0.8,0.2
		c0.1,0,0.1,0,0-0.1l-0.6-0.3c-0.3-0.2-0.6-0.4-1-0.6c-0.8-0.5-1.7-1-2.5-1.4c-1.3-0.6-2.6-1.1-4-1.4c-1.4-0.4-2.9-0.5-4.4-0.5
		c-1.1,0-2.3,0.1-3.4,0.3c-1.5,0.3-3,0.6-4.4,1s-2.9,0.9-4.2,1.4s-2.7,1.1-3.8,1.6s-2,1-2.7,1.4c-0.5,0.2-1.3,0.6-2.2,1.2
		c-1.1,0.7-2.2,1.4-3.2,2.3c-1,0.9-1.9,1.8-2.7,2.9c-0.8,1-1.5,2.1-2.1,3.3c-1.1,1.9-2,3.9-2.7,6c-0.2,0.6-0.3,1.3-0.6,2.1
		c-0.3,1.1-0.6,2.5-0.8,3.9s-0.5,2.8-0.6,4.2s-0.2,2.4-0.3,3.3c0,0.8,0,1.4,0,1.8S835,359.6,835.1,359.6L835.1,359.6z"/>
	<path class="st22" d="M874.4,335c0,0,5-7.5,6.4-8.8s1.7-2.9,4.8-3.4s8,1.5,9.1,2.2s5.3,3.6,6.1,4.6s1.4,4.2,1.3,6.4
		c-0.4,2.7-1.4,5.4-2.9,7.7c-0.8,0.8-5.3,5-6.7,5.5s-9.3,1.7-9.3,1.7L874.4,335z"/>
	<path class="st23" d="M887.8,350c1.4-0.2,2.7-0.5,4.1-0.8c1.5-0.5,5.9-4.7,6.7-5.5c1.5-2.3,2.5-4.9,2.9-7.7
		c0.1-2.2-0.5-5.3-1.3-6.4s-5-3.9-6.1-4.6c-2.5-1.3-5.2-2.1-8-2.3c0.8,0.1,1.5,0.3,2.3,0.5c0.8,0.2,1.6,0.5,2.3,0.8
		c0.5,0.2,1,0.4,1.5,0.7c0.5,0.4,1.9,1.3,3.1,2.2c0.6,0.5,1.3,0.9,1.8,1.4c0.4,0.3,0.8,0.7,1.1,1c0.2,0.3,0.4,0.7,0.5,1.1
		c0.2,0.5,0.3,1.1,0.4,1.6c0.1,0.6,0.2,1.2,0.3,1.8c0.1,0.6,0.1,1.2,0.1,1.8c0,0.7-0.2,1.3-0.4,2c-0.2,0.8-0.5,1.6-0.8,2.3
		c-0.3,0.8-0.7,1.5-1,2.1c-0.2,0.4-0.5,0.9-0.8,1.2c-0.4,0.4-1.7,1.6-3.1,2.8c-0.7,0.6-1.4,1.2-2,1.7c-0.5,0.4-1,0.7-1.5,1
		c-0.5,0.2-1.1,0.3-1.6,0.4l-2.5,0.5L887.8,350z"/>
	<path d="M874.6,335c1.4-1.9,2.6-3.5,3.7-5s2-2.6,2.9-3.6c0.4-0.5,0.8-0.9,1.2-1.3c0.2-0.2,0.5-0.5,0.8-0.6c0.5-0.3,1.1-0.5,1.7-0.7
		c0.5-0.1,1-0.2,1.5-0.2c0.4,0,0.8,0,1.1,0c0.3,0,0.7,0.1,1,0.1c0.3,0,0.6,0.1,1,0.2c0.9,0.2,1.8,0.5,2.7,0.8c1,0.4,2,1,2.9,1.6
		c1.1,0.8,2.1,1.4,3,1.9c0.5,0.3,1,0.7,1.4,1.1c0.3,0.3,0.6,0.5,0.8,0.8l0.1,0.2c0.3,0.4,0.5,0.8,0.7,1.3c0.2,0.6,0.3,1.3,0.4,2l0,0
		c0,0.9,0,1.8-0.2,2.7c-0.2,0.9-0.4,1.9-0.7,2.8l0,0c-0.2,0.6-0.4,1.1-0.8,1.6c-0.3,0.5-0.7,1-1,1.4c-0.5,0.6-0.8,1.1-1,1.4
		c-0.6,0.8-1.3,1.5-2,2.2c-0.6,0.6-1.2,1.1-1.8,1.6c-0.7,0.5-1.4,1-2.1,1.4c-0.5,0.3-1.1,0.6-1.7,0.8c-0.5,0.2-1.1,0.3-1.6,0.4
		c-0.4,0-0.6,0.1-0.6,0.1s0.2,0.2,0.5,0.2c0.5,0.1,1.1,0.1,1.6,0c0.8-0.1,1.6-0.2,2.4-0.4l0,0c0.8-0.3,1.6-0.6,2.3-1.1
		c0.8-0.4,1.5-1,2.3-1.5c0.7-0.6,1.4-1.2,2-1.8c0.5-0.6,1-1.2,1.4-1.9l0.2-0.3c0.7-1.1,1.1-2.2,1.4-3.5l0,0c0.2-1,0.3-2,0.4-3
		c0.1-1,0-1.9-0.1-2.9c-0.1-0.7-0.3-1.4-0.6-2c-0.2-0.6-0.5-1.1-0.9-1.6c-0.3-0.3-0.5-0.7-0.8-1c-0.2-0.2-0.3-0.4-0.6-0.6
		s-0.6-0.5-0.9-0.8s-0.8-0.7-1.3-1s-1-0.8-1.5-1.2l0,0c-0.8-0.7-1.8-1.4-2.8-1.9c-1-0.6-2.1-1-3.2-1.3l0,0c-0.6-0.2-1.3-0.3-1.9-0.3
		c-0.6-0.1-1.2-0.1-1.8,0c-0.6,0.1-1.2,0.2-1.8,0.4c-0.4,0.1-0.9,0.3-1.3,0.6c-0.2,0.1-0.5,0.3-0.7,0.5c-0.4,0.3-0.7,0.6-0.9,1l0,0
		c-0.4,0.5-0.7,1-1.1,1.5l0,0c-0.8,1.2-1.7,2.6-2.5,3.9l-3.2,5.3L874.6,335z"/>
	<path class="st28" d="M877.2,338.3c0,0,4,1.7,4.9,3.1s3.8,5,4.1,5.1c0.6-0.1,1.2-0.2,1.8-0.4c1.2-1.3,2.3-2.7,3.2-4.2
		c0.8-1.6,1.8-3.5,0.9-5.4s-1.6-4.5-2.8-4.8c-2-0.4-4-0.3-6,0.2c-1,0.3-2,0.8-3,1.4C879.8,333.8,876.2,338,877.2,338.3L877.2,338.3z
		"/>
	<path d="M876.7,338.2L876.7,338.2h0.1l0.5,0.2c0.5,0.2,1,0.5,1.5,0.8c0.8,0.5,1.5,1,2.1,1.7c0.5,0.5,0.8,1.1,1.1,1.7
		c0.4,0.8,0.8,1.5,1.4,2.2c0.4,0.5,0.9,0.9,1.4,1.3c0.4,0.3,0.8,0.5,1.2,0.7c0.2,0.1,0.4,0.1,0.6,0.2c0.3,0.1,0.7,0.1,1,0
		c0.4-0.1,0.7-0.3,1-0.6c0.1-0.1,0.2-0.3,0.4-0.4l0.7-0.7c0.6-0.7,1.1-1.4,1.6-2.1l0,0c0.3-0.5,0.6-1,0.8-1.5
		c0.2-0.4,0.3-0.9,0.4-1.3c0.1-0.2,0.1-0.5,0.1-0.7c0-0.2,0.1-0.6,0.2-1.1c0.1-0.6,0.1-1.1,0-1.7c-0.1-0.8-0.3-1.6-0.7-2.3
		c-0.4-0.7-0.9-1.4-1.4-1.9c-0.5-0.5-1-0.9-1.6-1.3c-0.4-0.2-0.8-0.4-1.3-0.5c-1.1-0.3-2.3-0.3-3.4,0.1c-0.6,0.2-1.1,0.4-1.7,0.7
		l0,0c-0.6,0.3-1.1,0.6-1.5,1c-0.4,0.4-0.8,0.8-1.2,1.3c-0.1,0.1-0.2,0.2-0.2,0.4c0,0.1,0,0.1,0,0.1c0.2-0.1,0.4-0.2,0.6-0.4
		c0.4-0.3,0.8-0.5,1.2-0.7c0.5-0.3,1.1-0.5,1.7-0.6c0.5-0.1,0.9-0.2,1.4-0.2c0.4-0.1,0.9-0.1,1.3,0c0.7,0.1,1.5,0.4,2.1,0.8
		c0.4,0.2,0.9,0.4,1.3,0.7c0.6,0.4,1.1,0.9,1.5,1.4c0.4,0.5,0.7,1.1,0.9,1.7c0.2,0.6,0.2,1.2,0.2,1.8c0,0.5-0.1,0.9-0.3,1.3l0,0
		c-0.1,0.3-0.3,0.7-0.5,1c-0.3,0.5-0.6,0.9-1,1.4l0,0c-0.5,0.6-1.1,1.2-1.7,1.7l0,0l-0.7,0.6c-0.2,0.2-0.4,0.3-0.5,0.5l0,0
		c-0.1,0-0.2,0-0.2,0c-0.4-0.1-0.8-0.3-1.1-0.5c-0.5-0.4-1.1-0.8-1.5-1.3c-0.4-0.4-0.8-0.8-1.2-1.2c-0.5-0.7-1.2-1.4-1.9-1.9
		c-0.7-0.5-1.5-0.9-2.3-1.2c-0.5-0.2-1.1-0.4-1.7-0.5L876.7,338.2L876.7,338.2L876.7,338.2L876.7,338.2L876.7,338.2z"/>
	<path d="M887.3,324.8c-0.4-0.1-0.6-0.3-0.8-0.7c-0.2-0.4-0.3-0.9-0.3-1.4c0-0.1,0-0.1,0-0.2c0-0.5,0-0.9,0.2-1.4
		c0.1-0.2,0.1-0.4,0.2-0.5c0.1-0.1,0.2-0.3,0.4-0.3c0.2-0.1,0.4-0.1,0.5,0c0.2,0.1,0.4,0.2,0.5,0.4c0.2,0.2,0.3,0.5,0.5,0.8
		c0.1,0.3,0.2,0.7,0.2,1c0,0.1,0,0.2,0,0.3l0,0c0,0.6-0.2,1.1-0.5,1.6C888,324.6,887.7,324.8,887.3,324.8L887.3,324.8z"/>
	<path d="M890.6,325c-0.3-0.1-0.4-0.5-0.4-1c0-0.6,0.2-1.2,0.4-1.8l0,0c0.1-0.2,0.1-0.3,0.2-0.5c0.3-0.7,0.6-1.3,1-1.9
		c0.1-0.2,0.3-0.4,0.5-0.6c0.1-0.1,0.3-0.2,0.5-0.2c0.2,0,0.4,0.1,0.5,0.3c0.1,0.2,0.2,0.5,0.3,0.8c0.1,0.4,0.1,0.8,0,1.1
		c-0.1,0.4-0.2,0.9-0.3,1.3c-0.1,0.2-0.2,0.4-0.2,0.5l0,0c-0.3,0.6-0.7,1.2-1.2,1.6C891.3,325.1,891,325.2,890.6,325L890.6,325z"/>
	<path class="st30" d="M837.7,354.3c0.6-0.5,1.2-2.9,1.2-1.7s0.2,3.1-0.3,3.9s-3.5,0.8-3.5-0.4S837.1,354.9,837.7,354.3L837.7,354.3
		z"/>
	<path d="M836.2,348.3c-1.5,0-2.5,1.1-2.5,3.4s1,4.7,2.5,4.9c1.6,0.3,2.8-1.7,2.7-4.2S837.7,348.3,836.2,348.3z"/>
	<path class="st32" d="M834.9,351.6c0.3,0.2,1-0.6,1.3-1s0.4-1,0.1-1.2s-0.8,0-1.1,0.5S834.6,351.5,834.9,351.6L834.9,351.6z"/>
	<path class="st34" d="M836.1,349c-1,0.2-2-0.5-2.3-1.5"/>
	<path class="st28" d="M846.3,360.7c0.7,1.5,3.4,6.4,4.3,8.4c0.2,0.5,3.8,3.9,4,4.4c5.6,11.2,7.5,20.6-5.3,26.2
		c-16.8,0.4-27.6-19-25.6-31c0,0,1-4.4,4.2-6c2.6-1.3,7.2-1.9,17.4-2.1"/>
	<path class="st23" d="M853.2,372.7c5.2,10,5.6,21.9-5.7,26.7c1,0.1,2,0.2,3,0.1c12.2-6.9,8.2-15.2,4.3-25.8L853.2,372.7z"/>
	<path class="st31" d="M824.5,374.7c0.8,1.3,1,0.8,1.2,2.2s1.5,7.1,4.6,10.5l0.1-0.6l-3.5-10L824.5,374.7z"/>
	<path d="M827.1,365.1c-2.8,0-6.5,3.3-5,6c1,2,2.9,5.8,5,6s3.6-3.8,5-6C833.8,368.6,829.9,365.1,827.1,365.1z"/>
	<path class="st31" d="M825.2,365.3c-0.5,0.9-0.9,1.8-1.1,2.8c-2,12,8.8,31.4,25.6,31c2.8-1.1,5.1-3.2,6.4-6c-1.4,2.3-3.4,4-5.9,5
		c-16.8,0.4-27.6-19-25.6-31C824.7,366.5,824.9,365.9,825.2,365.3z"/>
	<path d="M846.6,360.7c0.6,1.4,1.2,2.7,1.8,4c0.6,1.2,1.2,2.4,1.8,3.6c0.7,1.1,1.5,2.2,2.5,3.2c0.9,1,1.6,2,2.2,3.2
		c0.6,1.2,1,2.5,1.4,3.8c0.3,1.1,0.6,2.2,0.8,3.4c0.2,1.3,0.3,2.6,0.3,3.9c0,1-0.1,2.1-0.3,3.1c-0.2,1-0.5,1.9-0.8,2.9
		c-0.3,0.7-0.7,1.5-1.1,2.1c-0.2,0.2-0.3,0.5-0.6,0.8c-0.6,0.8-1.3,1.5-2.1,2.1c-1,0.8-2.1,1.4-3.3,1.8c-0.9,0-1.9,0-2.8-0.1
		c-1-0.1-1.9-0.3-2.9-0.5c-1.8-0.4-3.5-1.1-5.2-2c-1.1-0.6-2.1-1.3-3.1-2c-0.8-0.6-1.5-1.2-1.9-1.6c-0.5-0.5-1-1-1.5-1.5
		c-0.7-0.8-1.3-1.6-1.9-2.5c-2.1-3.1-3.7-6.5-4.6-10.1c-0.2-0.9-0.4-1.8-0.6-2.7c-0.1-0.9-0.2-1.7-0.3-2.6c-0.1-1.4,0-2.8,0.3-4.2
		l0,0v-0.1c0-0.2,0.1-0.3,0.1-0.5c0.2-0.5,0.3-0.8,0.4-1.1l0.2-0.4c0.3-0.6,0.6-1.2,1-1.7c0.5-0.6,1.1-1.2,1.8-1.5
		c0.9-0.5,1.8-0.8,2.7-1.1c1-0.3,2.1-0.5,3.2-0.7c1.8-0.3,3.6-0.6,5.3-0.7s3.5-0.2,5-0.3c1.1,0,1.5-0.1,1.3-0.2
		c-0.6-0.2-1.3-0.3-1.9-0.3c-1.1-0.1-2.5-0.2-4.2-0.2c-1.9,0-3.8,0.1-5.7,0.3c-1.1,0.1-2.2,0.3-3.2,0.5c-1.1,0.2-2.2,0.6-3.2,1l0,0
		c-0.9,0.4-1.7,1-2.3,1.7c-0.6,0.7-1.1,1.4-1.5,2.2c-0.3,0.6-0.6,1.2-0.8,1.8c-0.1,0.2-0.1,0.4-0.2,0.6l0,0v0.2l0,0v0.1l0,0l0,0
		c-0.1,0.7-0.2,1.4-0.2,2.1c0,1.4,0.1,2.8,0.3,4.2c0.2,1.4,0.6,2.7,1,4.1c0.6,1.9,1.4,3.8,2.4,5.5c1.5,2.8,3.5,5.5,5.7,7.8
		c0.9,0.9,1.7,1.6,2.3,2.2c1.1,1,2.2,1.8,3.5,2.6c1.6,1,3.3,1.8,5.1,2.3c2.1,0.7,4.3,1,6.6,1c1.3-0.4,2.5-1,3.6-1.7
		c1.1-0.7,2.1-1.6,3-2.6l0,0c0.8-1,1.5-2.2,1.9-3.4c0.4-1.1,0.7-2.2,0.9-3.3c0.2-1.4,0.2-2.8,0.1-4.1c-0.1-1.2-0.3-2.3-0.6-3.5
		c-0.3-1.2-0.7-2.4-1.1-3.5c-0.5-1.3-1-2.5-1.7-3.7l0,0c-0.7-1.2-1.5-2.3-2.5-3.2c-0.9-0.9-1.8-1.9-2.6-3c-0.7-1-1.2-2-1.7-2.9
		s-0.9-1.7-1.2-2.4L846.6,360.7L846.6,360.7z"/>
	<path class="st33" d="M827,376.5c0,0-0.2,4.6,3.7,9.5"/>
	<path class="st35" d="M832.3,385.4c-1.3,0.4-2,1.7-1.7,3c0.3,1.4,1.5,1.1,2.7,0.8s2.2-0.6,1.8-1.9
		C834.9,386,833.6,385.1,832.3,385.4L832.3,385.4z"/>
	<path class="st36" d="M836.5,375.7c-0.5,0-0.8,0.4-0.8,0.9c0,0,0,0,0,0c0,0.5,0.2,0.6,0.6,0.6s0.8-0.2,0.8-0.6
		S836.9,375.7,836.5,375.7L836.5,375.7z"/>
	<path class="st36" d="M841.6,373.1c-0.8,0-1.2,0.7-1.2,1.6s0.3,1.1,1.1,1.1s1.5-0.3,1.5-1.1C843.1,373.8,842.4,373.1,841.6,373.1
		L841.6,373.1z"/>
	<path class="st36" d="M840,378.8c-0.6,0-1.1,0.5-1.1,1.1c0,0.6,0.4,1,1,1c0.5,0,0.9-0.3,0.9-0.8c0-0.1,0-0.1,0-0.2
		C840.9,379.3,840.6,378.7,840,378.8L840,378.8z"/>
	<path class="st32" d="M827.9,366.8c-0.8,0-1.6,0-1.6,0.8s0.8,0.7,1.6,0.7s2.7,1.5,2.7,0.7S828.7,366.8,827.9,366.8L827.9,366.8z"/>
</g>
<g id="g4371">
	<path class="st31" d="M832.9,442.7L832.9,442.7c-0.2,0.1-0.4,0.1-0.6,0.2l-0.7,0.2l-0.7,0.2c-0.1,0-0.3,0.1-0.4,0.1
		c-0.2,0.1-0.3,0.1-0.4,0.3l-0.2,0.2c-0.1,0.1-0.1,0.1-0.2,0.2c-0.4,0.2-0.9,0.5-1.2,0.7c-0.1,0.1-0.1,0.1,0,0.1c0.1,0,0.2,0,0.4,0
		c0.3-0.1,0.9-0.2,1.3-0.3c0.2-0.1,0.4-0.2,0.6-0.3l0.3-0.2l0,0c0.1-0.1,0.2-0.1,0.3-0.2l0.6-0.3c0.4-0.2,0.8-0.4,1.1-0.5l0.3-0.1
		C833.8,442.7,833.6,442.4,832.9,442.7L832.9,442.7z"/>
	<path d="M832.9,442.5L832.9,442.5c-0.4,0.1-1,0.3-1.6,0.5c-0.4,0.1-0.8,0.3-1.2,0.5l-0.6,0.4l-0.6,0.4c-0.2,0.1-0.4,0.3-0.6,0.4
		s-0.1,0.1,0,0.1c0.1,0,0.3,0,0.4-0.1l0.6-0.2l0.7-0.2c0.3-0.1,0.7-0.2,1-0.4l0.6-0.4c0.4-0.3,0.9-0.5,1.3-0.7l0.3-0.1l0.2-0.1
		c0,0,0.1,0,0.1-0.1l0,0c0,0,0,0,0-0.1h-0.2C833.2,442.4,833.1,442.4,832.9,442.5L832.9,442.5z"/>
	<path d="M832.8,445L832.8,445c-0.3-0.3-0.6-0.6-0.8-0.9c-0.2-0.3-0.4-0.6-0.7-0.8c-0.2-0.2-0.4-0.4-0.6-0.6
		c-0.2-0.2-0.4-0.5-0.6-0.8c-0.1-0.1-0.1-0.1-0.2,0c0,0.2,0,0.4,0,0.5c0,0.3,0.1,0.5,0.3,0.8c0.1,0.2,0.3,0.4,0.5,0.6l0.7,0.5
		c0.4,0.3,0.9,0.6,1.1,0.8l0.2,0.1c0,0,0.1,0.1,0.1,0.1h0.1h0c0,0,0,0,0.1,0l0,0c0,0,0-0.1,0-0.1C833,445.2,832.9,445.1,832.8,445
		L832.8,445z"/>
</g>
<path class="st22" d="M831.7,437.9c9.2-1.5,17.4,8,17.2,19.3c-0.2,11.7-9.4,21.3-16.9,19.9c-5.3-1-10.7-2.3-12.7-9.4
	c-0.8-3.6-1-7.4-0.8-11.1C819.5,445.8,824.6,439,831.7,437.9L831.7,437.9z"/>
<path class="st30" d="M842.9,470.5c-3.7,7.3-5.5,6.5-11.5,6.3c-4.5-0.8-9-1.9-11.5-6.5c2.5,4.9,7.1,6,11.7,6.8
	C837.1,475.9,839.2,475.7,842.9,470.5L842.9,470.5z"/>
<path d="M842.1,472.4c-0.5,0.9-1.2,1.7-1.9,2.3c-0.7,0.6-1.5,1.1-2.3,1.5c-1.2,0.5-2.5,0.7-3.7,0.6c-1.6,0-3.3-0.3-4.9-0.7
	c-1.3-0.3-2.5-0.9-3.6-1.5c-0.7-0.4-1.3-0.9-1.8-1.4c-0.5-0.4-0.9-0.9-1.3-1.5c-0.5-0.7-1-1.5-1.3-2.3c-0.3-0.6-0.5-1.3-0.7-2
	c-0.1-0.4-0.2-0.7-0.3-1.1s-0.1-0.7-0.2-1.1c-0.1-0.8-0.3-1.8-0.4-2.9c-0.2-1.9-0.3-3.7-0.2-5.6c0.1-1.2,0.3-2.4,0.5-3.6
	c0.2-1.1,0.5-2.2,0.8-3.3c0.3-0.9,0.6-1.8,0.9-2.6c0.3-0.7,0.6-1.3,0.8-1.7c0.5-0.9,1-1.7,1.6-2.4c0.6-0.7,1.3-1.4,2-2
	c0.8-0.7,1.7-1.3,2.7-1.8l0,0c0.9-0.4,1.8-0.7,2.7-1c0.9-0.2,1.8-0.3,2.8-0.3l0,0c1,0,2,0.2,3,0.5c0.8,0.3,1.6,0.6,2.3,1.1
	c0.6,0.3,1.1,0.7,1.6,1.1c0.5,0.3,0.9,0.7,1.4,1.1c0.6,0.5,1.1,1.1,1.6,1.7c0.7,0.8,1.3,1.7,1.8,2.7c0.6,1,1,2.1,1.4,3.2
	c0.4,1.1,0.7,2.2,0.9,3.4c0.2,1.1,0.3,2.1,0.3,3.2c0,0.3,0,0.7,0.1,1c0,0.1,0.1,0.1,0.1-0.1c0.2-1,0.3-2,0.3-3
	c0-1.8-0.2-3.7-0.7-5.5c-0.3-1.1-0.6-2.1-1.1-3.1c-0.5-1-1-2.1-1.6-3l0,0c-0.7-1-1.5-1.9-2.3-2.7c-0.8-0.7-1.7-1.4-2.7-1.9
	c-0.4-0.2-0.8-0.4-1.2-0.5c-1.7-0.7-3.4-1-5.2-0.9l0,0c-1.1,0.1-2.1,0.2-3.2,0.6c-1,0.3-1.9,0.7-2.8,1.3c-1,0.6-1.9,1.3-2.7,2.1
	c-0.7,0.7-1.4,1.5-2,2.3c-0.9,1.3-1.7,2.6-2.4,4c-0.6,1.2-1.2,2.4-1.6,3.7c-0.3,0.9-0.6,1.8-0.8,2.9s-0.5,2.2-0.6,3.3
	c-0.1,1-0.2,2-0.2,3c0,1,0,2,0.1,3s0.2,2,0.3,3c0.1,0.8,0.3,1.6,0.5,2.4c0.3,0.9,0.7,1.8,1.1,2.7c0.4,0.7,0.9,1.4,1.4,2.1
	c0.4,0.5,0.8,0.9,1.3,1.3c0.8,0.7,1.6,1.2,2.5,1.7c0.6,0.3,1.3,0.6,2,0.8c0.7,0.2,1.5,0.4,2.3,0.6c1.6,0.3,3.2,0.4,4.9,0.3
	c0.7,0,1.4-0.1,2.1-0.3c0.6-0.1,1.2-0.4,1.8-0.6c0.7-0.3,1.4-0.8,2-1.3c0.5-0.4,0.9-0.9,1.3-1.4c0.2-0.3,0.5-0.7,0.7-1
	C842,472.5,842.1,472.3,842.1,472.4L842.1,472.4z"/>
<path class="st28" d="M822,473c1.2,1.7,2.9,1.7,4.5,0.3c2.4-2.2,3.7-7.8,2.9-12.3s-3.2-8-5.5-5.8s-3.9,9.2-3.1,13.7
	C820.9,470.3,821.3,471.7,822,473L822,473z"/>
<path d="M821.5,472.9c0.3,0.4,0.7,0.8,1.1,1.1c0.4,0.3,0.9,0.5,1.4,0.6c0.6,0.1,1.1,0,1.6-0.2c0.5-0.2,0.9-0.5,1.2-0.8
	c0.4-0.4,0.7-0.7,1-1.2c0.3-0.4,0.5-0.8,0.7-1.2c0.3-0.5,0.5-1.1,0.8-1.7c0.2-0.5,0.4-1,0.5-1.4c0.2-0.7,0.4-1.4,0.5-2.2
	c0.1-0.5,0.2-1.1,0.2-1.6c0-0.5,0-1,0-1.5c-0.1-0.7-0.2-1.3-0.3-2c-0.2-1.1-0.6-2.1-1-3.1c-0.2-0.5-0.5-0.9-0.8-1.4
	c-0.3-0.4-0.6-0.7-0.9-1.1c-0.2-0.2-0.5-0.4-0.7-0.6c-0.2-0.1-0.4-0.2-0.6-0.3c-0.2-0.1-0.4-0.1-0.6-0.2c-0.3,0-0.7,0-1,0.1
	c-0.4,0.1-0.8,0.3-1.1,0.6c-0.4,0.3-0.8,0.7-1.1,1.1c-0.3,0.4-0.6,0.9-0.9,1.4c-0.3,0.6-0.6,1.2-0.8,1.9c-0.2,0.6-0.4,1.2-0.6,1.8
	c-0.2,0.8-0.4,1.5-0.5,2.3c0,0.6-0.1,1.4-0.1,2.5c0,1.1,0.1,2.2,0.3,3.3c0.2,0.6,0.4,1.2,0.6,1.7c0.2,0.5,0.5,1.1,0.9,1.5
	c0.1,0.2,0.2,0.3,0.4,0.4l0,0c-0.2-0.4-0.3-0.8-0.5-1.3c-0.1-0.4-0.2-0.8-0.2-1.2c0-0.5,0-1,0-1.5c0-0.6,0-1.2,0.1-1.8
	s0.1-1.2,0.2-1.8c0.2-1.2,0.4-2.3,0.5-3.1c0-0.2,0-0.4,0.1-0.7c0.1-1.2,0.4-2.4,0.7-3.5c0.2-0.5,0.3-0.9,0.5-1.3
	c0.2-0.4,0.4-0.8,0.7-1.1c0.2-0.2,0.5-0.4,0.7-0.5c0.2-0.1,0.5-0.2,0.8-0.1c0.2,0,0.4,0.1,0.6,0.2c0.2,0.1,0.3,0.2,0.4,0.3
	c0.1,0.1,0.3,0.3,0.4,0.5c0.2,0.3,0.4,0.6,0.6,0.9c0.2,0.4,0.4,0.8,0.5,1.3c0.2,0.5,0.3,1,0.4,1.5c0.1,0.5,0.2,1.1,0.3,1.7
	c0.1,1.3,0.1,2.5,0,3.8c-0.1,1.1-0.3,2.1-0.4,2.8v0.2c-0.1,1-0.3,1.9-0.6,2.8c-0.3,0.8-0.7,1.6-1.2,2.3c-0.3,0.4-0.6,0.6-1,0.9
	c-0.4,0.2-0.8,0.3-1.3,0.3c-0.4,0-0.8-0.1-1.1-0.3c-0.3-0.1-0.5-0.3-0.8-0.5c-0.2-0.1-0.3-0.3-0.5-0.4l-0.2-0.2L821.5,472.9z"/>
<path class="st37" d="M824.5,442.1c-0.6,1.4-1,2.9-1.1,4.4c-0.2,2.6,0.2,4.4,1.2,4s2.2-2.5,2.4-5.1s-0.6-4.7-1.6-4.3
	C825.1,441.3,824.7,441.6,824.5,442.1L824.5,442.1z"/>
<path class="st37" d="M831.5,442.1c-0.8,0.9-1.3,2-1.6,3.1c-0.7,2.2-0.8,4.3,0,4.9s1.9-0.3,2.6-2.5s0.6-4.9-0.1-5.5
	C832.1,441.9,831.8,441.9,831.5,442.1L831.5,442.1z"/>
<path class="st37" d="M835.3,448.7c-0.7,0.7-1.2,1.6-1.4,2.6c-0.6,1.9-0.8,3.7-0.2,4.3s1.6-0.1,2.2-1.9s0.6-4.3,0-4.9
	C835.8,448.6,835.5,448.6,835.3,448.7z"/>
<path d="M830.6,439.3h0.3c0.3,0,0.5,0.1,0.8,0.1l0,0c1.6,0.3,3.1,1.2,4.1,2.5c0.4,0.5,0.7,1,1,1.6c0.3,0.6,0.5,1.3,0.7,2
	c0.1,0.5,0.2,1.1,0.3,1.6c0,0.5,0.1,0.9,0.1,1.3s0,0.7,0,1v0.2c0,0.9,0.1,2.3,0.2,3.8s0.1,3.2,0.1,4.5c0,1,0,1.8,0,2.2
	c-0.1,0.9-0.2,1.8-0.4,2.6c-0.3,1.3-0.7,2.6-1.2,3.8c-0.3,1-0.7,1.9-1,2.6s-0.6,1.3-0.7,1.6c-0.3,0.9-0.8,1.7-1.3,2.5
	c-0.6,0.8-1.3,1.6-2.1,2.1c-0.7,0.4-1.4,0.7-2.2,0.9c-0.3,0.1-0.5,0.1-0.5,0.2s0.1,0.1,0.4,0.2c0.4,0.1,0.8,0.1,1.1,0.1
	c0.6,0,1.1-0.2,1.7-0.4c0.5-0.2,1-0.5,1.5-0.8c0.5-0.4,1-0.8,1.4-1.2c0.6-0.7,1.2-1.4,1.6-2.1c0.4-0.7,0.7-1.3,0.9-2.1
	c0.3-1.1,0.5-2.1,0.7-3.2c0.3-1.6,0.4-3.1,0.5-4.4s0.2-2.4,0.3-3.2c0-0.3,0.1-0.8,0.2-1.4c0.2-1,0.3-2.4,0.5-3.9s0.2-3.1,0.2-4.5
	c0-0.8-0.1-1.6-0.2-2.5c-0.1-0.6-0.3-1.2-0.5-1.8c-0.3-0.8-0.7-1.6-1.2-2.3c-0.4-0.6-0.9-1.2-1.5-1.7c-0.5-0.5-1.2-0.9-1.8-1.3
	c-0.5-0.2-1-0.4-1.5-0.5c-0.4-0.1-0.8-0.2-1.3-0.2c-0.3,0-0.6,0-0.8,0h-0.2L830.6,439.3L830.6,439.3z"/>
<path d="M844.7,444L844.7,444l0.3-0.1l0,0l0.8-0.2c0.9-0.2,1.7-0.4,2.4-0.6c1.2-0.2,2.1-0.4,2.8-0.4c0.5,0,0.9-0.1,1.2-0.1
	s0.6,0,0.8,0h0.3c0.3,0,0.9,0,1.6-0.1s1.6-0.1,2.5-0.1c0.9,0,1.7,0.1,2.6,0.2c0.4,0.1,0.8,0.2,1.2,0.3c0.3,0.1,0.6,0.3,0.9,0.4
	c-0.1-0.2-0.3-0.3-0.4-0.5c-0.2-0.2-0.4-0.3-0.6-0.4c-0.3-0.2-0.6-0.3-0.8-0.4c-0.9-0.4-1.8-0.6-2.7-0.8c-0.8-0.2-1.6-0.3-2.5-0.4
	c-0.8-0.1-1.5-0.1-2.3-0.1c-0.4,0-0.9,0.1-1.3,0.1c-0.3,0-0.5,0.1-0.8,0.2h-0.1c-0.6,0.3-1.7,0.7-2.7,1.2c-0.8,0.4-1.7,0.8-2.3,1.1
	l-0.7,0.4L844.7,444L844.7,444L844.7,444L844.7,444z"/>
<path d="M884.1,445.5c1.1-0.7,2-1.2,2.8-1.7l0,0c0.4-0.2,0.8-0.3,1.2-0.3c0.3-0.1,0.7-0.1,1,0c0.4,0.1,0.9,0.2,1.2,0.5
	c0.3,0.2,0.5,0.4,0.7,0.7c0.1,0.1,0.2,0.3,0.2,0.5c0.1,0.1,0.1,0.3,0.1,0.4l0.1,0.2c0.1,0.2,0.1,0.4,0.1,0.6c0,0.3,0,0.6,0,0.9
	c0,0.7-0.1,1.5-0.3,2.2c-0.2,0.6-0.4,1.3-0.6,1.9c-0.1,0.3-0.2,0.5-0.3,0.6c-0.3,0.5-0.6,0.9-1,1.3c-0.6,0.6-1.2,1.2-1.8,1.7
	c-0.6,0.4-1.2,0.8-1.8,1.1c-0.5,0.3-1,0.5-1.2,0.6c-0.2,0.1-0.4,0.2-0.6,0.3l-1,0.4c-0.4,0.1-0.7,0.3-1.1,0.4
	c-0.3,0.1-0.7,0.2-1.1,0.2c-0.3,0-0.6,0-0.9-0.2c-0.1,0-0.1,0-0.2-0.1l0,0c0,0-0.1-0.1-0.1-0.1l0,0c-0.1,0-0.1,0.1-0.2,0.2
	c0,0.1,0,0.2,0,0.2c0.1,0.1,0.2,0.2,0.3,0.3c0.3,0.2,0.6,0.4,0.9,0.5c0.4,0.1,0.8,0.2,1.3,0.3c0.5,0,0.9,0,1.4,0
	c0.4,0,0.9-0.1,1.3-0.2c0.7-0.1,1.4-0.4,2-0.9c0.7-0.6,1.4-1.3,2-2c0.6-0.8,1.1-1.6,1.6-2.4c0.4-0.7,0.8-1.4,1-1.8l0.1-0.1
	c0.4-0.5,0.7-1.1,1-1.6c0.4-0.8,0.8-1.7,1-2.7c0.1-0.7,0.1-1.4,0-2.1c-0.1-0.7-0.4-1.4-0.9-1.9c-0.4-0.4-0.8-0.8-1.3-1
	c-0.6-0.2-1.2-0.3-1.8-0.3c-0.5,0-1,0.2-1.4,0.3c-0.4,0.2-0.9,0.4-1.3,0.7c-1.4,1.2-2.5,2.3-2.5,2.3L884.1,445.5z"/>
<path d="M816.4,436.3c1.2-0.1,2.4-0.1,3.5-0.1c1.2,0.1,1.8,0.2,2.3,0.2h0.4c0.6-0.1,1.2-0.2,1.8-0.3c0.3-0.1,0.6-0.1,1-0.2
	c0.3-0.1,0.6-0.2,0.9-0.2c0.3-0.1,0.7-0.1,1-0.1c0.3,0,0.6,0.1,0.9,0.1c-0.2-0.1-0.3-0.3-0.5-0.4c-0.5-0.3-1-0.4-1.5-0.5
	c-0.3,0-0.6,0-1-0.1s-0.6,0-0.9,0c-0.6,0-1.2-0.1-1.8-0.1c-0.6-0.1-1.3-0.1-1.9,0.1l-0.8,0.3C818.5,435.5,816.4,436.4,816.4,436.3
	L816.4,436.3z"/>
</svg>
