<?xml version="1.0" encoding="UTF-8" standalone="no"?>
<!-- Generator: Adobe Illustrator 20.0.0, SVG Export Plug-In . SVG Version: 6.00 Build 0)  -->

<svg
   xmlns:dc="http://purl.org/dc/elements/1.1/"
   xmlns:cc="http://creativecommons.org/ns#"
   xmlns:rdf="http://www.w3.org/1999/02/22-rdf-syntax-ns#"
   xmlns:svg="http://www.w3.org/2000/svg"
   xmlns="http://www.w3.org/2000/svg"
   xmlns:xlink="http://www.w3.org/1999/xlink"
   xmlns:sodipodi="http://sodipodi.sourceforge.net/DTD/sodipodi-0.dtd"
   xmlns:inkscape="http://www.inkscape.org/namespaces/inkscape"
   version="1.1"
   id="svg16054"
   inkscape:version="0.91 r13725"
   sodipodi:docname="quiz5.svg"
   x="0px"
   y="0px"
   viewBox="0 0 2125.9999 1187"
   xml:space="preserve"
   width="2126"
   height="1187"><metadata
     id="metadata420"><rdf:RDF><cc:Work
         rdf:about=""><dc:format>image/svg+xml</dc:format><dc:type
           rdf:resource="http://purl.org/dc/dcmitype/StillImage" /><dc:title></dc:title></cc:Work></rdf:RDF></metadata><style
     type="text/css"
     id="style3">
	.st0{fill:#FFFFFF;}
	.st1{fill:#094B60;}
	.st2{fill:none;stroke:#000000;}
	.st3{fill:#0C566E;}
	.st4{fill:#0B536B;}
	.st5{fill:#A06121;}
	.st6{fill:#B8854F;}
	.st7{fill:#834317;stroke:#000000;stroke-width:1.67;}
	.st8{fill:#834317;stroke:#000000;stroke-width:3.36;}
	.st9{fill:#834317;stroke:#000000;stroke-width:3.78;}
	.st10{fill:#834317;stroke:#000000;stroke-width:2.63;}
	.st11{fill:#834317;}
	.st12{fill:#956C45;stroke:#000000;stroke-width:2.83;}
	.st13{fill:#6E4A25;}
	.st14{fill:#5D381E;}
	.st15{fill:#DDCEBE;}
	.st16{fill:none;stroke:#000000;stroke-width:5;}
	.st17{fill:none;stroke:#000000;stroke-width:4;}
	.st18{stroke:#000000;stroke-width:5;}
	.st19{fill:#956C45;stroke:#000000;stroke-width:3;}
	.st20{fill:#834317;stroke:#000000;stroke-width:1.99;}
	.st21{fill:url(#SVGID_1_);}
	.st22{fill:url(#SVGID_2_);}
	.st23{fill:url(#SVGID_3_);}
	.st24{fill:url(#SVGID_4_);}
	.st25{fill:url(#SVGID_5_);}
	.st26{fill:url(#SVGID_6_);}
	.st27{fill:url(#SVGID_7_);}
	.st28{fill:url(#SVGID_8_);}
	.st29{fill:url(#SVGID_9_);}
	.st30{fill:#094F65;}
	.st31{fill:#089BC7;stroke:#000000;}
	.st32{fill:url(#path4349_1_);}
	.st33{fill:#089BC7;}
	.st34{fill:url(#SVGID_10_);}
	.st35{fill:none;stroke:#000000;stroke-width:1.02;}
	.st36{fill:#089BC7;stroke:#000000;stroke-width:1.02;}
</style><defs
     id="defs5"><inkscape:path-effect
       effect="spiro"
       id="path-effect5341"
       is_visible="true" /><inkscape:path-effect
       effect="spiro"
       id="path-effect17606"
       is_visible="true" /><inkscape:path-effect
       effect="spiro"
       id="path-effect16830"
       is_visible="true" /><inkscape:path-effect
       effect="spiro"
       id="path-effect16826"
       is_visible="true" /><inkscape:path-effect
       effect="spiro"
       id="path-effect16822"
       is_visible="true" /><inkscape:path-effect
       effect="spiro"
       id="path-effect16818"
       is_visible="true" /><inkscape:path-effect
       effect="spiro"
       id="path-effect16814"
       is_visible="true" /><inkscape:path-effect
       effect="spiro"
       id="path-effect16810"
       is_visible="true" /><inkscape:path-effect
       effect="spiro"
       id="path-effect16806"
       is_visible="true" /><inkscape:path-effect
       effect="spiro"
       id="path-effect16802"
       is_visible="true" /><inkscape:path-effect
       effect="spiro"
       id="path-effect16798"
       is_visible="true" /><inkscape:path-effect
       effect="spiro"
       id="path-effect16794"
       is_visible="true" /><inkscape:path-effect
       effect="spiro"
       id="path-effect16790"
       is_visible="true" /><inkscape:path-effect
       effect="spiro"
       id="path-effect16786"
       is_visible="true" /><inkscape:path-effect
       effect="spiro"
       id="path-effect16782"
       is_visible="true" /><inkscape:path-effect
       effect="spiro"
       id="path-effect16778"
       is_visible="true" /><inkscape:path-effect
       effect="spiro"
       id="path-effect16774"
       is_visible="true" /></defs><sodipodi:namedview
     bordercolor="#666666"
     borderlayer="true"
     borderopacity="1.0"
     fit-margin-bottom="0"
     fit-margin-left="0"
     fit-margin-right="0"
     fit-margin-top="0"
     id="base"
     inkscape:current-layer="svg16054"
     inkscape:cx="701.87495"
     inkscape:cy="448.34105"
     inkscape:document-units="cm"
     inkscape:pageopacity="0.0"
     inkscape:pageshadow="2"
     inkscape:window-height="744"
     inkscape:window-maximized="1"
     inkscape:window-width="1366"
     inkscape:window-x="0"
     inkscape:window-y="24"
     inkscape:zoom="0.35"
     pagecolor="#ffffff"
     showgrid="false"
     units="cm" /><g
     id="layer2"
     inkscape:groupmode="layer"
     inkscape:label="background"
     transform="translate(0,237.40002)"><rect
       id="rect4177"
       y="-241.83704"
       class="st0"
       width="2146.4292"
       height="1191.437"
       x="0"
       style="fill:#ffffff" /></g><g
     id="g27"
     transform="matrix(1.5,0,0,1.5,-210.71469,-108.4198)"><g
       id="path3346">
       <!-- <image
         sodipodi:absref="/home/daniel/Projects/L2TOR_project/freeplay-sandbox/qt-gui/res/7E52D78D.png"
         xlink:href="7E52D78D.png"
         id="image30"
         transform="matrix(0.9921,0,0,0.9737,818,510)"
         height="38"
         width="127"
         style="overflow:visible;opacity:0.75;enable-background:new" /> -->
         <polygon
         class="st1"
         points="819.2,510.6 923.4,520.2 924.8,528.4 818.7,518.8 "
         id="polygon32"
         style="fill:#094b60" /><polygon
         class="st2"
         points="819.2,510.6 923.4,520.2 924.8,528.4 818.7,518.8 "
         id="polygon34"
         style="fill:none;stroke:#000000" /></g><g
       id="path3336">
       <!-- <image
         sodipodi:absref="/home/daniel/Projects/L2TOR_project/freeplay-sandbox/qt-gui/res/7E52D78F.png"
         xlink:href="7E52D78F.png"
         id="image37"
         transform="matrix(0.9773,0,0,0.9939,795,489)"
         height="164"
         width="44"
         style="overflow:visible;opacity:0.75;enable-background:new" /> -->
         <polygon
         class="st3"
         points="796,630.7 806.1,632.5 814.3,565.6 818.7,520.8 819.3,490.5 806.1,490.5 800.4,558.7 797.8,611.1 "
         id="polygon39"
         style="fill:#0c566e" /><polygon
         class="st2"
         points="796,630.7 806.1,632.5 814.3,565.6 818.7,520.8 819.3,490.5 806.1,490.5 800.4,558.7 797.8,611.1 "
         id="polygon41"
         style="fill:none;stroke:#000000" /></g><g
       id="path3338">
       <!-- <image
         sodipodi:absref="/home/daniel/Projects/L2TOR_project/freeplay-sandbox/qt-gui/res/7E52D78A.png"
         xlink:href="7E52D78A.png"
         id="image44"
         transform="matrix(0.9821,0,0,0.9948,919,477)"
         height="193"
         width="56"
         style="overflow:visible;opacity:0.75;enable-background:new" /> -->
         <polygon
         class="st4"
         points="937.5,513.3 930.8,478 923.2,478 920.1,483.8 929.9,569.1 937.3,613.5 944.6,649.4 955.4,650.3 954.5,638.3 946.9,573.1 "
         id="polygon46"
         style="fill:#0b536b" /><polygon
         class="st2"
         points="937.5,513.3 930.8,478 923.2,478 920.1,483.8 929.9,569.1 937.3,613.5 944.6,649.4 955.4,650.3 954.5,638.3 946.9,573.1 "
         id="polygon48"
         style="fill:none;stroke:#000000" /></g><g
       id="path3344">
       <!-- <image
         sodipodi:absref="/home/daniel/Projects/L2TOR_project/freeplay-sandbox/qt-gui/res/7E52D78B.png"
         xlink:href="7E52D78B.png"
         id="image51"
         transform="matrix(0.9928,0,0,0.9762,814,554)"
         height="42"
         width="138"
         style="overflow:visible;opacity:0.75;enable-background:new" /> -->
         <polygon
         class="st4"
         points="815.6,555 929.9,567.7 931.5,576.2 814.7,563 "
         id="polygon53"
         style="fill:#0b536b" /><polygon
         class="st2"
         points="815.6,555 929.9,567.7 931.5,576.2 814.7,563 "
         id="polygon55"
         style="fill:none;stroke:#000000" /></g>
         <!-- <image
       sodipodi:absref="/home/daniel/Projects/L2TOR_project/freeplay-sandbox/qt-gui/res/7E52D795.png"
       xlink:href="7E52D795.png"
       id="image57"
       transform="matrix(0.9939,0,0,0.9953,780.99,517.99)"
       height="212"
       width="163"
       style="overflow:visible;opacity:0.75;enable-background:new" /> -->
       <g
       id="g5420"><path
         d="m 815.7,635.8 c 0,0.1 0,0.2 -0.1,0.3 -0.1,0.1 -0.2,0.2 -0.4,0.3 -0.2,0.1 -0.4,0.1 -0.6,0.2 -0.2,0 -0.4,0 -0.7,0 -0.5,0 -1.1,-0.2 -1.5,-0.4 L 812,636 c -0.6,-0.3 -1.1,-0.6 -1.5,-1.1 -0.1,-0.2 -0.3,-0.4 -0.3,-0.6 0,-0.1 0,-0.2 0,-0.3 0,0 0,-0.1 0,-0.1 l 0,0 0,-0.1 0,0 0,0 0.1,-0.1 0.1,-0.1 c 0.1,-0.1 0.1,-0.1 0.2,-0.1 0.2,-0.1 0.4,-0.1 0.7,-0.1 0.6,0 1.2,0.1 1.7,0.3 l 0.4,0.2 c 0.4,0.2 0.9,0.4 1.3,0.6 0.2,0.1 0.3,0.2 0.5,0.3 0.1,0.1 0.2,0.2 0.3,0.3 0.1,0.1 0.2,0.2 0.2,0.3 -0.1,0.2 0,0.4 0,0.4 l 0,0 z"
         id="path60"
         inkscape:connector-curvature="0" /><path
         d="m 816,632 c 0,0.1 0,0.2 0,0.3 -0.1,0.1 -0.1,0.2 -0.2,0.3 -0.3,0.2 -0.6,0.4 -0.9,0.4 -0.4,0.1 -0.8,0.1 -1.2,0 l -0.4,-0.1 c -1,-0.3 -1.7,-0.9 -1.6,-1.5 l 0,0 c 0.1,-0.6 1,-1 2,-0.9 l 0.4,0 c 0.3,0 0.7,0.1 1,0.3 0.3,0.1 0.5,0.3 0.7,0.5 0.1,0.1 0.2,0.2 0.2,0.3 0,0.1 0,0.3 0,0.4 l 0,0 z"
         id="path62"
         inkscape:connector-curvature="0" /><path
         d="m 815.4,641.3 c 0.1,0.4 0,0.7 -0.3,1 -0.3,0.3 -0.8,0.6 -1.3,0.6 -0.3,0.1 -0.7,0 -1,-0.1 -0.3,-0.1 -0.5,-0.2 -0.8,-0.5 -0.1,-0.1 -0.1,-0.2 -0.2,-0.3 0,-0.1 0,-0.2 0,-0.3 l 0,0 c 0,-0.1 0,-0.2 0.1,-0.3 0,-0.1 0.1,-0.2 0.2,-0.3 0.2,-0.2 0.4,-0.4 0.6,-0.5 0.2,-0.1 0.5,-0.2 0.8,-0.3 0.4,-0.1 0.8,0 1.2,0.1 0.4,0.3 0.6,0.6 0.7,0.9 l 0,0 z"
         id="path64"
         inkscape:connector-curvature="0" /><path
         class="st5"
         d="m 852.6,615.6 c -1,-0.7 -1.8,-0.4 -2.9,-0.2 -1.1,0.2 -2.2,1.4 -2.7,1.6 l -0.2,0 c -2.7,2.7 -6,4.8 -9.7,5.9 -9.6,3.3 -16.8,0.4 -24,9.4 -1.3,1.7 -0.2,8.1 1.8,11.3 2.5,4 8.9,4.3 15,2.1 7.7,-2.7 17.6,-11.4 22,-17.3 0.1,-0.4 0.3,-0.7 0.5,-1 0.5,-0.8 1,-1.6 1.4,-2.4 0.6,-1.3 1.1,-2.7 1.4,-4.1 0,-1.1 -0.2,-2.2 -0.6,-3.2 -0.3,-1 -0.9,-1.4 -2,-2.1 l 0,0 z"
         id="path66"
         inkscape:connector-curvature="0"
         style="fill:#a06121" /><path
         class="st6"
         d="m 855.2,619.6 c -0.3,0.7 -0.6,1.3 -1,2 -0.4,0.7 -0.9,1.7 -1.5,2.5 -0.5,0.8 -1.1,1.7 -1.8,2.4 -0.5,0.7 -1.2,1.4 -1.9,2.1 -0.7,0.7 -2.1,1.7 -3,2.5 -0.9,0.8 -1.7,1.7 -2.7,2.6 -1,0.9 -1.9,1.7 -2.9,2.5 -1,0.8 -2,1.6 -3.1,2.4 -1.1,0.8 -2.1,1.5 -3.2,2.1 -1.1,0.6 -2.1,1.2 -3.1,1.8 -1,0.5 -2,0.9 -3,1.3 -0.8,0.3 -1.5,0.5 -2.3,0.7 -0.7,0.2 -1.5,0.3 -2.3,0.5 -0.7,0.1 -1.5,0.2 -2.2,0.2 -0.7,0 -1.4,0 -2.1,-0.1 -0.6,-0.1 -1.3,-0.2 -1.9,-0.4 -0.6,-0.2 -1.2,-0.4 -1.7,-0.7 -0.2,-0.2 -0.5,-0.3 -0.7,-0.5 l 0,0 c 2.5,4 8.9,4.3 15,2.2 7.7,-2.7 17.6,-11.4 22,-17.3 0.1,-0.4 0.3,-0.7 0.5,-1 0.5,-0.8 1,-1.6 1.4,-2.4 0.6,-1.3 1.1,-2.7 1.4,-4.1 0.1,-0.5 0.1,-0.9 0.1,-1.3 l 0,0 z"
         id="path68"
         inkscape:connector-curvature="0"
         style="fill:#b8854f" /><path
         d="m 854.9,617.9 0.2,2.5 c -0.2,1.4 -0.6,2.8 -1.3,4.1 -0.6,1.2 -1.4,2.3 -2.2,3.4 -0.7,0.9 -1.4,1.8 -2.1,2.6 -0.7,0.8 -1.4,1.5 -2.1,2.2 -1.8,1.8 -3.7,3.4 -5.6,5 -2,1.6 -4.1,3 -6.3,4.3 -1.3,0.8 -2.5,1.4 -3.5,1.8 -0.7,0.3 -1.5,0.7 -2.5,1.1 -1.3,0.5 -2.6,0.8 -3.9,1.1 -1.5,0.3 -3.1,0.4 -4.6,0.3 l 0,0 c -1.2,-0.1 -2.3,-0.4 -3.4,-0.9 -0.9,-0.4 -1.7,-1.1 -2.3,-2 -0.5,-0.8 -1,-1.8 -1.3,-2.7 l 0,0 c -0.4,-1 -0.7,-2.1 -0.9,-3.2 -0.1,-0.3 -0.1,-0.6 -0.2,-0.8 -0.1,-0.7 -0.1,-1.4 -0.1,-2.1 0,-0.4 0.1,-0.7 0.2,-1.1 0.1,-0.2 0.2,-0.5 0.3,-0.7 0.7,-0.9 1.5,-1.7 2.4,-2.4 1,-0.8 2,-1.5 3.1,-2.1 l 0,0 c 0.9,-0.5 1.8,-0.8 2.7,-1.1 0.9,-0.3 1.9,-0.5 2.9,-0.7 1.1,-0.2 2.2,-0.3 3.2,-0.5 1,-0.2 2,-0.2 3,-0.4 1,-0.2 2,-0.3 2.8,-0.5 0.8,-0.2 1.5,-0.3 1.9,-0.5 0.6,-0.2 1.4,-0.4 2.3,-0.8 1.6,-0.6 3.1,-1.2 4.6,-2 1,-0.5 1.9,-1.2 2.8,-1.9 0.7,-0.6 1.3,-1.2 2,-1.8 l 0,0 c 0.7,-0.7 1.5,-1.3 2.3,-1.8 0.7,-0.5 1.5,-0.7 2.3,-0.7 0.6,0 1.1,0.2 1.6,0.6 l 0.7,0.8 c 0.5,0.7 0.8,0.9 0.9,0.9 l 0,0 c 0.7,-0.5 0.7,-0.5 0,0 l 0,0 c -0.3,-0.8 -0.7,-1.5 -1.3,-2.1 -0.2,-0.2 -0.5,-0.4 -0.8,-0.6 -0.3,-0.2 -0.7,-0.3 -1.1,-0.4 -0.5,-0.1 -0.9,-0.1 -1.4,0 -0.5,0.1 -1,0.3 -1.5,0.5 -0.9,0.5 -1.8,1.1 -2.7,1.7 -0.7,0.5 -1.4,1.1 -2,1.6 -0.8,0.6 -1.7,1.1 -2.6,1.5 -1.4,0.7 -2.9,1.2 -4.5,1.7 -2.2,0.7 -4.3,1.1 -6,1.5 l -0.7,0.1 c -2,0.4 -4.1,0.7 -6.2,1.3 -2,0.5 -4,1.3 -5.8,2.3 -1.1,0.7 -2.2,1.5 -3.1,2.4 -0.9,0.8 -1.7,1.7 -2.4,2.7 -0.2,0.3 -0.4,0.6 -0.4,0.9 -0.1,0.4 -0.2,0.8 -0.2,1.2 0,1 0,2.1 0.2,3.1 0.1,0.4 0.1,0.8 0.2,1.1 0.1,0.8 0.3,1.5 0.6,2.3 0.3,1 0.7,2.1 1.3,3 l 0,0 c 0.3,0.5 0.7,1 1.1,1.4 0.5,0.4 1,0.8 1.5,1.1 1.2,0.6 2.5,1 3.8,1.2 1.6,0.2 3.1,0.2 4.7,0 1.6,-0.2 3.1,-0.6 4.6,-1.1 l 0,0 c 2.2,-0.8 4.3,-1.8 6.3,-3.1 1.7,-1 3.2,-2.1 4.7,-3.4 0.5,-0.4 1,-0.8 1.5,-1.3 1.9,-1.7 3.7,-3.5 5.4,-5.4 l 0,0 c 1.5,-1.6 2.8,-3.3 4,-5.1 0.5,-0.7 0.9,-1.5 1.3,-2.2 0.4,-0.7 0.7,-1.4 1,-2.1 0.3,-0.6 0.5,-1.3 0.6,-1.9 0.1,-0.5 0.2,-1.1 0.3,-1.7 l -0.3,-2.2 0,0 z"
         id="path70"
         inkscape:connector-curvature="0" /><path
         class="st7"
         d="m 818.7,637 c 0,0.9 0.8,1.7 1.7,1.6 0,0 0,0 0,0 0.2,0 0.4,0.1 0.5,0.4 0.1,1.2 1.1,2.2 2.4,2.1 0,0 0,0 0,0 1.2,-0.1 2.6,-1.2 2.1,-2.4 -0.8,-1.9 -0.4,-2.8 -0.2,-4.4 0,-1.2 -0.9,-2.1 -2.1,-2.1 -0.1,0 -0.2,0 -0.3,0 -1.2,0.1 -2.2,1.1 -2.1,2.4 0,0 0,0 0,0 0,0.3 0.1,0.5 -0.4,0.6 -0.9,0.1 -1.6,0.9 -1.6,1.8 z"
         id="path72"
         inkscape:connector-curvature="0"
         style="fill:#834317;stroke:#000000;stroke-width:1.66999996" /><circle
         transform="matrix(0.9986,-0.05285883,0.05285883,0.9986,-32.6976,44.1501)"
         class="st8"
         cx="818.29999"
         cy="640.20001"
         id="ellipse74"
         r="1.4"
         style="fill:#834317;stroke:#000000;stroke-width:3.3599999" /><circle
         transform="matrix(0.9986,-0.05285883,0.05285883,0.9986,-32.4801,44.0514)"
         class="st9"
         cx="816.59998"
         cy="636.09998"
         id="ellipse76"
         r="1.3"
         style="fill:#834317;stroke:#000000;stroke-width:3.77999997" /><circle
         transform="matrix(0.9986,-0.05285883,0.05285883,0.9986,-32.291,44.1681)"
         class="st10"
         cx="818.90002"
         cy="632.5"
         id="ellipse78"
         r="1.4"
         style="fill:#834317;stroke:#000000;stroke-width:2.63000011" /></g><path
       class="st5"
       d="m 816.2,651.9 c 0,0 2.8,6 3,9.1 0.2,3.1 -3.3,8 -3.8,9.9 -0.5,1.9 -5,8.6 -5,8.6 l 12,-0.1 5.9,-22 -1.4,-6.3 c -0.8,0 -1.5,-0.2 -2.3,-0.4 -2,-0.3 -4.1,-0.2 -6,0.4 -0.7,0.4 -1.5,0.7 -2.4,0.8 l 0,0 z"
       id="path80"
       inkscape:connector-curvature="0"
       style="fill:#a06121" /><path
       d="m 807.9,680.3 c 0.8,0 1.7,0 2.5,0.1 0.7,0.1 1.3,0.2 2,0.3 0.2,0 0.4,0.1 0.6,0.1 0.3,0 0.6,0 0.9,-0.1 0.7,-0.1 1.5,-0.3 2.3,-0.5 0.8,-0.2 1.6,-0.5 2.1,-0.6 0,0 -0.6,-0.1 -1.5,-0.3 -0.9,-0.2 -2,-0.2 -3,-0.3 -0.5,0 -1,-0.1 -1.4,-0.1 -0.2,0 -0.5,0 -0.8,0 l -1.3,0.5 -2.4,0.9 0,0 z"
       id="path82"
       inkscape:connector-curvature="0" /><path
       class="st5"
       d="m 805,647.5 c 7.8,-1.2 14.6,6.7 14.4,16.2 -0.2,9.8 -7.9,17.9 -14.2,16.8 -4.5,-0.8 -9,-1.9 -10.7,-7.9 -0.6,-3.1 -0.9,-6.2 -0.7,-9.3 0.9,-9.2 5.2,-14.9 11.2,-15.8 z"
       id="path84"
       inkscape:connector-curvature="0"
       style="fill:#a06121" /><path
       d="m 813.6,676.4 c -0.4,0.7 -1,1.4 -1.6,2 -0.6,0.5 -1.2,0.9 -1.9,1.2 -1,0.4 -2,0.6 -3.1,0.5 -1.4,0 -2.7,-0.2 -4.1,-0.6 -1.1,-0.3 -2.1,-0.7 -3,-1.3 -0.5,-0.3 -1,-0.7 -1.5,-1.2 -0.4,-0.4 -0.8,-0.8 -1.1,-1.2 -0.4,-0.6 -0.8,-1.2 -1.1,-1.9 -0.2,-0.5 -0.4,-1.1 -0.6,-1.7 -0.1,-0.3 -0.2,-0.6 -0.2,-0.9 0,-0.3 -0.1,-0.6 -0.2,-0.9 -0.1,-0.7 -0.2,-1.5 -0.3,-2.4 -0.2,-1.6 -0.3,-3.1 -0.2,-4.7 0.1,-1 0.2,-2 0.4,-3 0.2,-0.9 0.4,-1.8 0.6,-2.8 0.2,-0.7 0.5,-1.5 0.8,-2.2 0.3,-0.6 0.5,-1.1 0.7,-1.4 0.4,-0.7 0.8,-1.4 1.3,-2 0.5,-0.6 1.1,-1.2 1.7,-1.7 0.7,-0.6 1.4,-1.1 2.2,-1.5 0.7,-0.3 1.5,-0.6 2.2,-0.8 0.8,-0.2 1.5,-0.2 2.3,-0.2 0.9,0 1.7,0.2 2.5,0.5 0.7,0.2 1.3,0.5 1.9,0.9 0.6,0.3 1,0.7 1.3,0.9 0.4,0.3 0.8,0.6 1.2,0.9 0.5,0.4 0.9,0.9 1.3,1.4 0.6,0.7 1.1,1.4 1.5,2.2 0.5,0.9 0.9,1.7 1.2,2.7 0.3,0.9 0.6,1.9 0.7,2.8 0.2,0.9 0.3,1.8 0.3,2.7 0,0.3 0,0.6 0.1,0.8 0,0.1 0.1,0.1 0.1,-0.1 0.2,-0.8 0.3,-1.7 0.3,-2.5 0,-1.6 -0.1,-3.1 -0.5,-4.6 -0.2,-0.9 -0.5,-1.8 -0.9,-2.6 -0.4,-0.9 -0.8,-1.7 -1.4,-2.5 l 0,0 c -0.6,-0.9 -1.2,-1.6 -2,-2.3 -0.7,-0.6 -1.4,-1.2 -2.3,-1.6 -0.3,-0.2 -0.7,-0.3 -1,-0.5 -3.1,-1.2 -6.7,-0.9 -9.6,0.9 -1.5,1 -2.8,2.2 -3.9,3.7 -0.7,1.1 -1.4,2.2 -2,3.3 -0.5,1 -1,2.1 -1.4,3.1 -0.3,0.7 -0.5,1.5 -0.7,2.4 -0.2,0.9 -0.4,1.8 -0.5,2.8 -0.2,1.7 -0.3,3.3 -0.1,5 0,0.9 0.1,1.7 0.2,2.6 0.1,0.7 0.2,1.4 0.4,2.1 0.2,0.8 0.6,1.6 1,2.3 0.3,0.6 0.7,1.2 1.2,1.8 0.3,0.4 0.7,0.8 1.1,1.1 0.7,0.5 1.4,1 2.2,1.4 1.2,0.6 2.4,0.9 3.6,1.2 1.4,0.2 2.7,0.3 4.1,0.2 1.1,0 2.2,-0.3 3.3,-0.8 0.6,-0.3 1.1,-0.7 1.6,-1.1 0.4,-0.4 0.7,-0.8 1,-1.2 0.2,-0.3 0.4,-0.6 0.6,-0.9 l 0.3,-0.3 0,0 z"
       id="path86"
       inkscape:connector-curvature="0" /><path
       class="st11"
       d="m 796.8,677 c 1,1.4 2.5,1.5 3.8,0.2 2,-1.8 3.1,-6.5 2.5,-10.3 -0.6,-3.8 -2.7,-6.7 -4.7,-4.9 -2,1.8 -3.3,7.7 -2.6,11.5 0,1.2 0.4,2.4 1,3.5 l 0,0 z"
       id="path88"
       inkscape:connector-curvature="0"
       style="fill:#834317" /><path
       d="m 796.4,677 c 0.2,0.4 0.6,0.7 0.9,0.9 0.4,0.3 0.8,0.4 1.2,0.5 0.5,0 1,0 1.4,-0.2 0.4,-0.2 0.7,-0.4 1,-0.7 0.4,-0.4 0.8,-0.8 1.1,-1.3 0.3,-0.4 0.5,-0.8 0.7,-1.2 0.3,-0.7 0.6,-1.4 0.8,-2.1 0.2,-0.6 0.3,-1.2 0.5,-1.8 0.1,-0.5 0.2,-0.9 0.2,-1.4 0,-0.4 0,-0.8 0,-1.3 -0.1,-0.6 -0.1,-1.1 -0.3,-1.7 -0.2,-0.9 -0.5,-1.8 -0.9,-2.7 -0.2,-0.4 -0.4,-0.8 -0.7,-1.2 -0.2,-0.3 -0.5,-0.6 -0.8,-0.9 -0.2,-0.2 -0.4,-0.4 -0.6,-0.5 -0.2,-0.1 -0.4,-0.2 -0.5,-0.3 -0.2,-0.1 -0.3,-0.1 -0.5,-0.1 -0.3,0 -0.6,0 -0.9,0.1 -0.4,0.1 -0.7,0.3 -1,0.5 -0.3,0.3 -0.7,0.6 -0.9,1 -0.3,0.4 -0.5,0.8 -0.8,1.2 -0.5,1 -1,2 -1.3,3.1 -0.2,0.6 -0.4,1.3 -0.4,2 0,0.5 0,1.2 0,2.1 0,0.9 0.1,1.9 0.3,2.8 0.2,0.5 0.3,1 0.6,1.5 0.2,0.5 0.5,0.9 0.8,1.3 0.1,0.1 0.2,0.3 0.3,0.4 l 0,0 0,0 c -0.1,-0.4 -0.3,-0.7 -0.4,-1.1 -0.1,-0.3 -0.1,-0.7 -0.1,-1 0,-0.4 0,-0.8 0,-1.2 0,-0.5 0.1,-1 0.1,-1.5 0,-0.5 0.1,-1 0.2,-1.5 0.2,-1 0.4,-1.9 0.4,-2.6 0,-0.2 0,-0.4 0,-0.6 0.1,-1 0.3,-2 0.6,-3 0.1,-0.4 0.3,-0.8 0.4,-1.1 0.2,-0.3 0.4,-0.6 0.6,-0.9 0.2,-0.2 0.4,-0.3 0.6,-0.5 0.2,-0.1 0.4,-0.1 0.6,-0.1 0.2,0 0.3,0.1 0.5,0.2 0.1,0.1 0.3,0.2 0.4,0.3 0.1,0.1 0.2,0.3 0.3,0.4 0.2,0.2 0.3,0.5 0.5,0.8 0.2,0.3 0.3,0.7 0.4,1 0.2,0.9 0.4,1.8 0.5,2.7 0.1,1 0.1,2.1 0,3.1 -0.1,1 -0.3,1.8 -0.3,2.4 l 0,0.2 c -0.1,0.7 -0.2,1.3 -0.3,2 -0.1,0.4 -0.2,0.8 -0.4,1.2 -0.2,0.4 -0.4,0.8 -0.7,1.1 l 0,0 c -0.2,0.3 -0.5,0.6 -0.9,0.8 -0.3,0.2 -0.7,0.3 -1.1,0.3 -0.3,0 -0.7,-0.1 -1,-0.2 -0.2,-0.1 -0.5,-0.2 -0.7,-0.4 -0.1,-0.1 -0.3,-0.2 -0.4,-0.3 l 0,-0.5 0,0 z"
       id="path90"
       inkscape:connector-curvature="0" /><path
       class="st7"
       d="m 807.8,653.9 c -0.7,1.1 -1.1,2.3 -1.3,3.6 -0.4,2.2 -0.2,3.7 0.7,3.5 0.9,-0.2 2,-1.9 2.5,-4.1 0.5,-2.2 -0.1,-4 -1,-3.7 -0.4,0.1 -0.7,0.4 -0.9,0.7 l 0,0 z"
       id="path92"
       inkscape:connector-curvature="0"
       style="fill:#834317;stroke:#000000;stroke-width:1.66999996" /><path
       class="st7"
       d="m 804.7,651.1 c -0.7,0.7 -1.3,1.5 -1.6,2.5 -0.8,1.8 -1,3.5 -0.5,4.1 0.5,0.6 1.6,-0.1 2.4,-1.9 0.8,-1.8 0.9,-4.1 0.4,-4.6 -0.2,-0.2 -0.5,-0.2 -0.7,-0.1 l 0,0 z"
       id="path94"
       inkscape:connector-curvature="0"
       style="fill:#834317;stroke:#000000;stroke-width:1.66999996" /><path
       class="st7"
       d="m 800.3,651.4 c -0.6,0.6 -1,1.3 -1.2,2.2 -0.5,1.6 -0.6,3.1 -0.1,3.6 0.5,0.5 1.3,0 1.9,-1.6 0.6,-1.6 0.5,-3.6 0,-4.1 -0.2,-0.2 -0.5,-0.2 -0.6,-0.1 l 0,0 z"
       id="path96"
       inkscape:connector-curvature="0"
       style="fill:#834317;stroke:#000000;stroke-width:1.66999996" /><path
       d="m 804,648.7 1,0.1 c 0.7,0.2 1.4,0.5 2,0.9 0.5,0.3 0.9,0.7 1.3,1.2 0.3,0.4 0.6,0.8 0.8,1.3 0.2,0.5 0.4,1.1 0.6,1.7 0.1,0.4 0.2,0.9 0.2,1.3 0.1,0.8 0.1,1.4 0.1,2 0,0 0,0.1 0,0.1 0,0.7 0.1,1.9 0.2,3.2 0.1,1.3 0.1,2.7 0.1,3.8 0,0.8 0,1.5 0,1.8 -0.1,0.7 -0.2,1.5 -0.4,2.2 -0.3,1.1 -0.6,2.2 -1,3.2 -0.3,0.8 -0.6,1.6 -0.9,2.2 -0.3,0.6 -0.5,1.1 -0.6,1.4 -0.3,0.7 -0.6,1.5 -1.1,2.1 -0.5,0.7 -1,1.3 -1.7,1.8 -0.5,0.4 -1.1,0.6 -1.8,0.7 -0.3,0 -0.4,0.1 -0.4,0.2 0,0.1 0.1,0.1 0.3,0.2 0.3,0.1 0.7,0.1 1,0.1 0.5,0 1,-0.1 1.4,-0.3 0.5,-0.2 0.9,-0.4 1.3,-0.7 0.4,-0.3 0.8,-0.6 1.2,-1 0.5,-0.5 1,-1.2 1.4,-1.8 0.3,-0.5 0.6,-1.1 0.8,-1.8 0.2,-0.9 0.4,-1.8 0.5,-2.8 0.2,-1.3 0.3,-2.6 0.4,-3.8 0.1,-1.2 0.1,-2.1 0.3,-2.7 0,-0.3 0.1,-0.7 0.2,-1.2 l 0,0 c 0.2,-0.9 0.3,-2 0.5,-3.3 0.2,-1.3 0.2,-2.6 0.2,-3.8 0,-0.7 0,-1.4 -0.2,-2.1 -0.1,-0.5 -0.2,-1 -0.4,-1.5 -0.3,-0.7 -0.7,-1.4 -1.1,-2 -0.4,-0.5 -0.8,-1 -1.3,-1.4 -0.5,-0.4 -1,-0.7 -1.6,-1 -0.4,-0.2 -0.8,-0.3 -1.3,-0.4 -0.3,-0.1 -0.7,-0.1 -1,-0.1 l -1,0.2 0,0 z"
       id="path98"
       inkscape:connector-curvature="0" /><path
       class="st5"
       d="m 882.7,660.9 c 0,0 5,-4.3 8,-0.9 3,3.4 -2.1,12.3 -7.4,13.9 -5.3,1.6 -5.4,-0.3 -5.4,-0.3"
       id="path100"
       inkscape:connector-curvature="0"
       style="fill:#a06121" /><path
       class="st5"
       d="m 873.4,603.4 c 9.4,16.4 9.9,42.6 9.8,53.2 -0.1,7.8 -6.3,22.3 -16.9,25.6 -4.2,1.3 -25.6,12 -30.7,9.8 -8,-3.5 0.6,-22.7 -2.5,-24.4 -10.1,-5.7 -4.7,-23.1 -2.8,-29.7 2.3,-8.3 21.1,-29 39.5,-38.7"
       id="path102"
       inkscape:connector-curvature="0"
       style="fill:#a06121" /><path
       class="st12"
       d="m 838,630.4 c -4.7,0.2 -6.8,4.1 -9,11.8 -2.6,8.8 -2.4,20.1 2.3,22.8 4.7,2.7 10.4,-0.8 13,-9.6 2.6,-8.8 2.5,-22.5 -2.1,-24.5 -1.4,-0.2 -2.8,-0.5 -4.2,-0.5 l 0,0 z"
       id="path104"
       inkscape:connector-curvature="0"
       style="fill:#956c45;stroke:#000000;stroke-width:2.82999992" /><path
       d="m 831.5,664.3 c -0.3,-0.4 -0.5,-0.9 -0.7,-1.4 -0.2,-0.5 -0.4,-1 -0.5,-1.5 -0.1,-0.6 -0.2,-1.2 -0.1,-1.8 0,-0.5 0.1,-1 0.1,-1.5 0,-0.5 0,-1 0,-1.6 0,-1 0.2,-2.1 0.3,-3.2 0.1,-1.1 0.3,-2.2 0.5,-3.4 0.2,-1.3 0.5,-2.6 0.8,-3.8 0.3,-1.2 0.6,-2.5 1,-3.6 0.5,-1.5 1.1,-2.9 1.7,-4.3 0.6,-1.2 1.1,-2.1 1.4,-2.7 0.5,-0.8 1,-1.6 1.6,-2.4 0.3,-0.4 0.6,-0.7 1,-1 0.4,-0.4 0.8,-0.7 1.2,-1 0.9,-0.7 1.8,-1.3 2.8,-1.8 0.8,-0.5 1.6,-0.9 2.5,-1.4 0.3,-0.2 0.5,-0.3 0.8,-0.5 l 0.3,-0.2 c 0.1,-0.1 0.1,-0.1 0.2,-0.2 l 2.2,-4.5 c 0.5,-1.4 1.2,-2.7 2,-3.9 l 0.2,-0.3 c 0.2,-0.3 0.4,-0.5 0.5,-0.7 l 0.2,-0.3 0,-0.1 -0.1,-0.1 0,0 0,0 0,0 0,0 0,0 0.1,0.1 -0.1,0.1 -0.3,0.3 c -0.3,0.3 -0.6,0.7 -0.8,1 -0.4,0.5 -0.7,1.1 -1.1,1.6 -0.4,0.7 -0.8,1.5 -1.1,2.3 l -2.3,4.5 0,0 -0.1,0.1 0,0 -0.2,0.2 0,0 c -0.3,0.2 -0.5,0.3 -0.8,0.4 -0.8,0.4 -1.7,0.9 -2.5,1.3 -1,0.5 -2,1.1 -2.9,1.8 -0.9,0.6 -1.7,1.3 -2.3,2.1 -1.5,1.9 -2.7,4 -3.6,6.3 -0.5,1.1 -0.8,2.2 -1.2,3.4 -0.7,2.5 -1.3,5 -1.6,7.5 -0.3,2.2 -0.6,4.4 -0.7,6.7 0,1.1 0,2.1 -0.1,3.1 -0.1,0.6 0,1.2 0.1,1.8 0.1,0.5 0.3,1.1 0.5,1.6 0.3,0.6 0.5,1.2 0.9,1.7 0.3,0.5 0.6,1 0.9,1.3 l 0.1,0.1 c 0.8,1 1.7,1.9 2.7,2.8 -0.8,-1.1 -1.7,-2.1 -2.6,-3.1 -0.2,-0.7 -0.6,-1.3 -0.9,-1.8 l 0,0 z"
       id="path106"
       inkscape:connector-curvature="0" /><path
       d="m 847.1,628 c -0.4,0 -0.8,-0.1 -1.1,-0.1 -0.5,-0.1 -1,-0.2 -1.3,-0.2 l -0.1,0 c -0.3,0 -0.6,0 -0.9,0 -0.3,0 -0.7,-0.1 -1,-0.2 -0.1,0 -0.2,0 -0.1,0.1 0.1,0.1 0.3,0.2 0.5,0.3 0.3,0.1 0.5,0.2 0.8,0.3 0.3,0.1 0.6,0.1 0.8,0.2 l 0.2,0 1.4,-0.1 c 0.3,0 0.7,0 1,0 0.2,0 0.3,0 0.3,-0.1 0,-0.1 -0.2,-0.2 -0.5,-0.2 l 0,0 z"
       id="path108"
       inkscape:connector-curvature="0" /><path
       d="m 847.9,625.8 c -0.3,0 -0.5,-0.1 -0.8,-0.2 -0.3,-0.1 -0.5,-0.2 -0.8,-0.2 l 0,0 c -0.4,0 -0.8,-0.1 -1.2,-0.1 -0.2,0 0,0.1 0.2,0.3 0.3,0.2 0.6,0.4 0.9,0.5 0.1,0 0.2,0 0.3,0 l 0.9,-0.1 c 0.2,0 0.4,0 0.7,0 0.1,0 0.2,0 0.2,-0.1 0,-0.1 -0.1,-0.1 -0.4,-0.1 l 0,0 z"
       id="path110"
       inkscape:connector-curvature="0" /><path
       d="m 872.8,603.7 c 1.3,2.3 2.4,4.6 3.4,7 0.9,2.2 1.7,4.3 2.3,6.2 l 0,0 c 0.8,2.6 1.5,5.3 2.1,8 0.5,2.3 0.8,4.3 1,6.1 0.3,2 0.4,3.6 0.5,5 0.1,1.4 0.2,2.6 0.3,3.8 0.1,1.2 0.2,2.8 0.3,4.7 0.1,1.6 0.1,3.5 0.1,5.3 0,1.8 -0.1,3.9 -0.3,5.8 -0.1,1.4 -0.3,2.8 -0.5,4.1 -0.2,1.3 -0.4,2.3 -0.6,3.2 -0.2,0.9 -0.4,1.8 -0.6,2.5 -0.1,0.5 -0.3,0.9 -0.3,1.2 0,0.3 -0.4,1.2 -0.8,2 -0.4,1 -0.9,2 -1.4,2.9 -0.5,0.9 -1.1,1.9 -1.8,2.7 -0.7,0.9 -1.5,1.8 -2.4,2.6 l 0,0 c -1.1,1 -2.3,1.9 -3.6,2.6 -1.6,1 -3.3,1.8 -4.8,2.5 -2.7,1.3 -5,2.2 -6.1,2.7 -1.1,0.5 -3,1.3 -5.2,2.2 -1.6,0.6 -3.3,1.3 -5.2,1.9 -1.9,0.6 -3.7,1.3 -5.6,1.8 -1.4,0.4 -2.8,0.8 -4.1,1.2 l -1.4,0.4 c -0.6,0.1 -1,0.2 -1.2,0.3 -0.2,0.1 -0.2,0.1 0,0.1 0.3,0 0.6,0 1,0 0.5,0 1.1,-0.1 1.8,-0.2 1.2,-0.2 2.6,-0.4 4.3,-0.8 1.7,-0.4 3.5,-0.8 5.4,-1.3 1.9,-0.5 3.8,-1.1 5.7,-1.7 1.9,-0.6 3.5,-1.2 5,-1.8 1.5,-0.6 3,-1.3 4.1,-1.8 0.8,-0.4 1.5,-0.8 2.3,-1.2 1.6,-0.9 3.2,-1.9 4.8,-3 1.3,-0.9 2.5,-1.9 3.7,-3 1.6,-1.7 3,-3.7 4,-5.8 l 0,0 c 1,-2.1 1.8,-4.2 2.4,-6.4 l 0.2,-0.7 c 0.3,-1 0.8,-2.8 1.3,-5 0.3,-1.2 0.5,-2.6 0.7,-4.1 l 0,0 c 0.3,-1.7 0.5,-3.6 0.6,-5.5 0.1,-1.9 0.2,-3.9 0.1,-5.8 l 0,0 c 0,-2.7 -0.2,-5.3 -0.4,-7.7 -0.2,-2.4 -0.5,-4.4 -0.8,-6 -0.1,-0.4 -0.2,-0.8 -0.2,-1.1 -0.3,-1.4 -0.8,-3.5 -1.5,-5.7 -0.7,-2.2 -1.5,-4.8 -2.4,-7.2 -0.7,-1.7 -1.4,-3.4 -2.1,-5 -0.7,-1.6 -1.4,-3 -2.1,-4.1 -0.7,-1.1 -1.2,-2.1 -1.6,-2.8 -0.4,-0.7 -0.7,-1 -0.7,-1 l 0.3,-0.1 z m -45.2,50.6 c 0,-1.9 0.1,-3.7 0.2,-5.6 0.1,-1.5 0.4,-3 0.8,-4.4 l 0,0 c 0.3,-1.2 0.8,-2.4 1.3,-3.6 0.5,-1 0.9,-1.9 1.3,-2.7 0.4,-0.8 0.8,-1.4 1.1,-1.9 0.3,-0.5 0.7,-1 1,-1.5 l 1.1,-1.5 c 0.5,-0.7 1.1,-1.7 2,-2.9 0.7,-0.9 1.4,-2 2.1,-3 0.7,-1 1.5,-2.1 2.3,-3.1 1.5,-2 2.9,-3.6 3.5,-4.3 l 0.4,-0.5 c 0.5,-0.6 1.3,-1.4 2.3,-2.3 1,-0.9 2.1,-1.9 3.3,-2.9 1.2,-1 2.4,-2 3.5,-2.9 1.1,-0.9 2.2,-1.7 2.9,-2.3 0.5,-0.4 0.8,-0.7 1.1,-0.9 1,-0.9 2.8,-2.3 5,-3.8 1.1,-0.7 2.2,-1.5 3.3,-2.1 1.1,-0.6 2.2,-1.3 3.2,-1.8 0.5,-0.2 0.7,-0.4 0.7,-0.4 0,0 -0.2,0 -0.5,0 -1.3,0.3 -2.5,0.8 -3.8,1.3 -1.9,0.8 -3.7,1.7 -5.4,2.7 -1.7,1 -3.3,2.1 -4.9,3.4 -0.3,0.3 -0.6,0.5 -0.8,0.7 -2,1.8 -3.9,3.8 -5.7,5.7 -1.8,1.9 -3.4,3.7 -4.6,5.1 -0.5,0.5 -0.9,1 -1.3,1.4 -0.6,0.6 -1.8,1.8 -3.3,3.4 -1.5,1.6 -3.2,3.5 -4.7,5.5 -1.2,1.5 -2.3,3.1 -3.2,4.5 l 0,0 c -0.5,0.7 -0.9,1.4 -1.2,2 -0.3,0.5 -0.6,1.1 -0.8,1.7 l 0,0.1 c -0.3,0.7 -0.7,1.7 -1,2.9 -0.4,1.3 -0.7,2.5 -1,3.8 -0.2,1.2 -0.3,2.4 -0.4,3.7 0,1.2 0,2.3 0,3.3 0,1 0.1,1.8 0.1,2.3 0,0.5 0.1,0.9 0.1,0.9 l 0,0 z"
       id="path112"
       inkscape:connector-curvature="0" /><g
       id="g4320"><path
         class="st5"
         d="m 875.1,608.8 c -1.3,-0.3 -2,0.4 -3,1 -1,0.6 -1.6,2.4 -2,2.8 l -0.2,0.1 c -1.6,3.9 -4.1,7.3 -7.2,10.1 -8.3,7.4 -16.7,7.5 -20.3,19.6 -0.7,2.2 3.2,8.2 6.6,10.6 4.2,3 10.8,0.6 16.1,-4.2 6.6,-6 13,-18.9 14.9,-26.7 0,-0.4 0,-0.8 0.1,-1.3 0.2,-1 0.3,-2 0.3,-3 0.1,-1.6 -0.1,-3.2 -0.4,-4.8 -0.4,-1.1 -1.1,-2.1 -1.9,-3 -0.8,-0.8 -1.6,-0.9 -3,-1.2 l 0,0 z"
         id="path115"
         inkscape:connector-curvature="0"
         style="fill:#a06121" /><path
         class="st6"
         d="m 879.4,611.8 c 0,0.8 -0.1,1.6 -0.2,2.5 -0.1,1 -0.2,2.1 -0.4,3.2 -0.2,1.1 -0.4,2.2 -0.8,3.2 -0.3,0.9 -0.6,1.9 -1,2.9 -0.4,1 -1.4,2.6 -1.9,3.8 -0.5,1.2 -1,2.5 -1.6,3.7 -0.6,1.2 -1.2,2.5 -1.9,3.8 -0.7,1.3 -1.4,2.5 -2.1,3.7 -0.7,1.2 -1.5,2.4 -2.3,3.5 -0.8,1.1 -1.6,2.1 -2.4,3.1 -0.8,0.9 -1.6,1.8 -2.5,2.6 -0.7,0.6 -1.3,1.2 -2,1.7 -0.7,0.5 -1.4,1 -2.1,1.4 -0.7,0.4 -1.4,0.8 -2.2,1.1 -0.7,0.3 -1.4,0.6 -2.2,0.8 -0.7,0.2 -1.4,0.3 -2.1,0.4 -0.7,0.1 -1.3,0.1 -2,0 -0.3,0 -0.6,-0.1 -0.9,-0.2 l 0,0 c 4.2,3 10.8,0.6 16.1,-4.2 6.6,-6 13,-18.9 14.9,-26.7 0,-0.4 0,-0.8 0.1,-1.3 0.2,-1 0.3,-2 0.3,-3 0.1,-1.6 -0.1,-3.2 -0.4,-4.8 0,-0.5 -0.2,-0.9 -0.4,-1.2 l 0,0 z"
         id="path117"
         inkscape:connector-curvature="0"
         style="fill:#b8854f" /><path
         d="m 878.4,610.2 1.3,2.4 c 0.4,1.5 0.5,3.1 0.4,4.7 -0.1,1.5 -0.4,2.9 -0.8,4.4 -0.3,1.2 -0.7,2.4 -1,3.5 -0.3,1.1 -0.8,2.1 -1.2,3.1 -1.1,2.5 -2.3,5 -3.6,7.4 -1.3,2.4 -2.9,4.8 -4.5,7 -1,1.3 -1.9,2.4 -2.8,3.4 -0.5,0.6 -1.2,1.3 -2.1,2.1 -1.1,1 -2.3,2 -3.5,2.8 -1.4,0.9 -2.9,1.7 -4.5,2.2 -1.2,0.4 -2.5,0.6 -3.8,0.5 -1.1,0 -2.3,-0.4 -3.2,-1 -0.9,-0.6 -1.8,-1.4 -2.5,-2.2 -0.8,-0.9 -1.6,-1.9 -2.3,-2.9 -0.2,-0.3 -0.4,-0.6 -0.5,-0.8 -0.1,-0.2 -0.3,-0.5 -0.5,-0.9 -0.2,-0.4 -0.4,-0.8 -0.5,-1.2 -0.1,-0.4 -0.2,-0.8 -0.2,-1.2 0,-0.3 0,-0.5 0,-0.8 0.4,-1.2 0.8,-2.3 1.4,-3.4 0.6,-1.2 1.4,-2.4 2.3,-3.5 l 0,0 c 0.7,-0.8 1.4,-1.6 2.3,-2.3 0.8,-0.7 1.7,-1.3 2.6,-1.9 l 0,0 c 1,-0.7 2,-1.3 3,-1.8 1,-0.5 2,-1.1 2.8,-1.6 0.8,-0.5 1.9,-1.2 2.7,-1.7 0.8,-0.5 1.3,-1 1.7,-1.3 0.4,-0.3 1.2,-1 2,-1.7 0.6,-0.5 1.2,-1.1 1.8,-1.8 0.7,-0.7 1.4,-1.4 2,-2.2 0.8,-1 1.4,-2 2,-3.1 0.5,-0.9 0.8,-1.8 1.2,-2.6 0.5,-1 1,-1.9 1.6,-2.8 0.5,-0.8 1.2,-1.4 2.1,-1.7 0.6,-0.2 1.3,-0.2 1.9,0 0.4,0.1 0.7,0.2 1.1,0.4 l 0.5,0.3 c 0.5,0.3 0.7,0.4 0.7,0.4 l 0,0 c 0.5,-0.7 0.5,-0.7 0,0 l 0,0 c 0,0 -0.2,-0.3 -0.5,-0.6 -0.2,-0.2 -0.4,-0.3 -0.7,-0.5 -0.3,-0.2 -0.6,-0.3 -0.9,-0.5 -0.3,-0.1 -0.7,-0.2 -1.1,-0.2 -0.4,0 -0.8,0 -1.2,0.1 -0.5,0.1 -1,0.3 -1.4,0.6 -0.5,0.3 -0.9,0.7 -1.3,1.2 -0.7,0.9 -1.4,1.8 -1.9,2.8 -0.5,0.8 -0.9,1.7 -1.4,2.5 -0.6,1 -1.3,1.9 -2,2.7 -1.2,1.3 -2.5,2.5 -3.8,3.6 -1.7,1.4 -3.6,2.8 -5.5,4 l -0.6,0.4 c -1.8,1.2 -3.8,2.5 -5.7,3.9 l 0,0 c -1.9,1.3 -3.5,3 -4.9,4.8 -0.8,1.2 -1.6,2.4 -2.1,3.7 -0.5,1.2 -1,2.4 -1.3,3.7 -0.1,0.4 -0.1,0.7 0,1.1 0.1,0.4 0.2,0.9 0.3,1.3 0.4,1 0.9,2.1 1.5,3 0.2,0.4 0.5,0.7 0.7,1 0.5,0.7 1,1.4 1.5,2 0.7,0.9 1.6,1.8 2.5,2.5 0.5,0.4 1.1,0.7 1.7,0.9 0.6,0.3 1.3,0.4 2,0.5 1.5,0.1 2.9,0 4.3,-0.4 1.7,-0.5 3.2,-1.1 4.7,-2 1.5,-0.9 2.9,-1.9 4.2,-3 1.9,-1.7 3.6,-3.7 5.1,-5.8 1.2,-1.7 2.4,-3.5 3.3,-5.4 0.3,-0.6 0.6,-1.3 1,-2 1.2,-2.5 2.3,-5.1 3.2,-7.7 l 0,0 c 0.8,-2.2 1.4,-4.5 1.9,-6.8 0.2,-0.9 0.3,-1.8 0.4,-2.7 0.1,-0.8 0.1,-1.6 0.1,-2.5 0,-0.7 -0.1,-1.5 -0.2,-2.2 -0.1,-0.6 -0.2,-1.2 -0.4,-1.8 l -1.4,-2.4 0,0 z"
         id="path119"
         inkscape:connector-curvature="0" /><path
         d="m 846.3,644.8 c 0,0.1 0,0.2 0,0.3 -0.1,0.2 -0.1,0.3 -0.3,0.4 -0.2,0.2 -0.3,0.3 -0.5,0.4 -0.2,0.1 -0.4,0.2 -0.7,0.3 -0.6,0.2 -1.1,0.3 -1.7,0.3 l -0.5,0 c -0.7,0 -1.3,-0.2 -1.9,-0.4 -0.2,-0.1 -0.4,-0.2 -0.6,-0.4 -0.1,-0.1 -0.1,-0.1 -0.2,-0.2 0,0 0,-0.1 0,-0.1 0,-0.1 0,-0.1 0,-0.1 l 0,0 0,0 0,0 c 0,0 0,0 0,-0.1 l 0,0 c 0,0 0,-0.1 0,-0.1 0,-0.1 0.1,-0.1 0.2,-0.2 0.2,-0.2 0.4,-0.3 0.6,-0.3 0.6,-0.2 1.2,-0.3 1.9,-0.4 l 0.5,0 c 0.5,0 1,0 1.5,0.1 0.2,0 0.4,0.1 0.6,0.1 0.2,0 0.3,0.1 0.5,0.2 0.1,0.1 0.2,0.1 0.3,0.2 0.1,-0.1 0.2,-0.1 0.3,0 l 0,0 z"
         id="path121"
         inkscape:connector-curvature="0" /><path
         d="m 845,640.9 c 0.1,0.2 0.1,0.5 0,0.7 -0.2,0.3 -0.5,0.6 -0.8,0.8 -0.3,0.2 -0.7,0.4 -1.1,0.5 l -0.4,0.1 c -0.5,0.1 -1,0.1 -1.5,0 -0.2,-0.1 -0.4,-0.1 -0.5,-0.3 -0.1,-0.1 -0.1,-0.1 -0.2,-0.2 l -0.1,-0.1 0,-0.1 0,0 0,0 0,0 0,-0.1 c 0,0 0,-0.1 0,-0.1 0,-0.1 0,-0.2 0.1,-0.2 0.1,-0.2 0.2,-0.3 0.3,-0.5 0.4,-0.3 0.8,-0.6 1.2,-0.7 l 0.4,-0.1 c 0.4,-0.1 0.7,-0.2 1.1,-0.2 0.3,0 0.6,0 0.9,0.1 0.3,0.1 0.5,0.2 0.6,0.4 l 0,0 z"
         id="path123"
         inkscape:connector-curvature="0" /><path
         d="m 848.4,650.5 c 0.2,0.3 0.2,0.7 0,1.1 -0.2,0.5 -0.6,0.9 -1,1.1 -0.3,0.2 -0.6,0.3 -1,0.4 -0.3,0.1 -0.6,0 -0.9,-0.1 -0.1,0 -0.2,-0.1 -0.3,-0.2 -0.1,-0.1 -0.1,-0.2 -0.2,-0.3 l 0,0 c 0,-0.1 0,-0.2 0,-0.3 0,-0.1 0,-0.2 0,-0.3 0.1,-0.3 0.2,-0.5 0.4,-0.7 0.2,-0.2 0.4,-0.4 0.7,-0.6 0.4,-0.2 0.8,-0.4 1.3,-0.4 0.3,-0.2 0.7,0 1,0.3 l 0,0 z"
         id="path125"
         inkscape:connector-curvature="0" /></g><g
       id="g4380"><g
         id="g4181"><path
           class="st5"
           d="m 845.8,568.3 c 0,0 -3.6,-1.9 -4,-2.7 -0.4,-0.8 -4.3,-7.1 -4.4,-10.5 -0.1,-3.4 0.1,-7.9 2,-10.7 1.9,-2.8 5.1,-5.6 6.4,-5.9 1.3,-0.3 4.6,1.9 5.2,2.9 0.6,1 4.9,7.4 5.2,8 0.3,0.6 -10.4,18.9 -10.4,18.9 l 0,0 z"
           id="path129"
           inkscape:connector-curvature="0"
           style="fill:#a06121" /><path
           class="st13"
           d="m 845.8,538.6 0,0 c -1.3,0.3 -4.5,3.1 -6.4,5.9 -1.9,2.8 -2,7.3 -2,10.7 0,3.4 3.8,9.7 4.3,10.5 0.5,0.8 4,2.7 4,2.7 l 1.2,-2.1 c -0.3,-0.2 -0.4,-0.2 -0.8,-0.4 -0.4,-0.2 -1,-0.6 -1.4,-0.9 -0.3,-0.2 -0.6,-0.5 -0.8,-0.8 -0.1,-0.2 -0.4,-0.8 -0.9,-1.5 -0.5,-0.7 -1,-1.7 -1.5,-2.8 -0.3,-0.5 -0.5,-1.1 -0.7,-1.6 -0.2,-0.5 -0.5,-1.1 -0.6,-1.6 -0.2,-0.5 -0.3,-1 -0.5,-1.5 -0.1,-0.5 -0.2,-0.9 -0.2,-1.4 0,-0.8 0,-1.8 0,-2.7 0,-1 0.1,-1.9 0.2,-2.9 0.1,-0.5 0.2,-1 0.3,-1.4 0.1,-0.5 0.2,-0.9 0.4,-1.3 0.1,-0.4 0.3,-0.8 0.5,-1.3 0.2,-0.4 0.4,-0.8 0.6,-1.1 0.5,-0.7 1,-1.4 1.6,-2 0.6,-0.6 1.2,-1.3 1.8,-1.8 0.4,-0.4 0.7,-0.5 0.9,-0.7 l 0,0 z"
           id="path131"
           inkscape:connector-curvature="0"
           style="fill:#6e4a25" /><path
           d="m 856.6,550.2 0,0 0,0 0,-0.1 -0.2,-0.4 c -0.2,-0.5 -0.4,-0.9 -0.6,-1.3 l 0,0 c -0.8,-1.6 -1.5,-2.9 -2.2,-4.1 -0.6,-1 -1.1,-1.8 -1.6,-2.5 -0.5,-0.7 -1,-1.3 -1.4,-1.8 -0.5,-0.6 -1.1,-1.2 -1.8,-1.7 -0.5,-0.5 -1.2,-0.8 -1.9,-1 -0.2,0 -0.3,-0.1 -0.5,-0.1 -0.3,0 -0.6,0 -0.9,0.1 -0.4,0.1 -0.7,0.3 -1.1,0.5 -0.4,0.3 -0.9,0.6 -1.2,1 -0.4,0.4 -0.8,0.9 -1.2,1.3 -0.4,0.5 -0.8,1.1 -1.2,1.7 -0.4,0.6 -0.7,1.2 -1,1.7 -0.6,1.1 -1,2 -1.2,2.5 -0.1,0.3 -0.4,0.8 -0.6,1.5 -0.2,0.5 -0.4,1.1 -0.5,1.6 -0.2,0.7 -0.3,1.3 -0.3,2 l 0,0 c -0.1,0.7 -0.1,1.3 -0.1,2 0,0.7 0,1.4 0.1,2 l 0,0 c 0.1,1.3 0.3,2.5 0.5,3.8 0.1,0.6 0.2,1.2 0.3,1.6 0.1,0.4 0.2,0.8 0.3,1.1 l 0,0 c 0.4,1 1,2 1.7,2.8 0.7,0.7 1.4,1.4 2.2,2 0.7,0.5 1.4,1 2.1,1.4 0.3,0.2 0.6,0.3 1,0.5 0.1,0.1 0.3,0.1 0.5,0.1 0.1,0 0,-0.1 0,-0.2 0,-0.1 -0.3,-0.2 -0.5,-0.4 l -0.8,-0.7 c -0.5,-0.5 -1.2,-1.1 -1.9,-1.9 -0.7,-0.7 -1.3,-1.5 -1.9,-2.3 -0.3,-0.4 -0.5,-0.8 -0.7,-1.2 -0.2,-0.4 -0.4,-0.8 -0.5,-1.2 -0.2,-0.7 -0.4,-1.3 -0.5,-1.9 l -0.1,-0.5 c -0.3,-1.1 -0.5,-2.2 -0.7,-3.4 -0.2,-1.2 -0.3,-2.5 -0.3,-3.7 l 0,0 c 0,-0.6 0.1,-1.2 0.2,-1.8 0.1,-0.5 0.2,-1 0.4,-1.5 0.3,-0.8 0.6,-1.6 1,-2.3 0.2,-0.4 0.6,-1.1 1.2,-1.8 0.6,-0.9 1.3,-1.7 2,-2.5 0.7,-0.7 1.4,-1.3 2.3,-1.8 0.3,-0.2 0.7,-0.3 1,-0.4 0.3,-0.1 0.6,-0.1 0.9,0 l 0,0 c 0.6,0.1 1.1,0.4 1.5,0.7 0.4,0.3 0.8,0.5 1,0.8 0.2,0.3 0.4,0.3 0.6,0.5 0.6,0.5 1.1,1 1.6,1.5 0.6,0.6 1.2,1.3 1.7,2.1 1,1.3 1.8,2.6 2.5,3.7 0.3,0.5 0.5,0.9 0.7,1.2 l 0.2,0.3 0,0 0,0.1 0,0 0,0 -0.1,0.4 z"
           id="path133"
           inkscape:connector-curvature="0" /><path
           class="st11"
           d="m 854.2,554.9 c -1.2,1.6 -2.2,3.2 -3.1,4.9 -0.6,1.5 -1.5,2.8 -2.5,4 -0.4,-0.1 -0.8,-0.2 -1.2,-0.4 -0.8,-1.3 -1.5,-2.8 -2.1,-4.2 -0.5,-1.6 -1.8,-3.1 -1.2,-5 0.6,-1.9 1.1,-5.1 2.4,-5.2 1.3,-0.2 2.6,-0.1 3.9,0.2 0.7,0.4 1.4,0.8 1.9,1.4 0.4,0.5 2.5,3.5 1.9,4.3 l 0,0 z"
           id="path135"
           inkscape:connector-curvature="0"
           style="fill:#834317" /><path
           class="st14"
           d="m 846.3,549.1 c -1.2,0.5 -1.7,3.3 -2.2,5.1 -0.5,1.8 0.7,3.3 1.2,5 0.6,1.5 1.3,2.9 2.1,4.2 0.4,0.2 0.8,0.3 1.2,0.4 0.3,-0.2 0.5,-0.5 0.7,-0.8 -0.2,0 -0.4,-0.1 -0.6,-0.1 -0.3,-0.1 -0.5,-0.2 -0.5,-0.2 0,0 -0.4,-0.6 -0.8,-1.5 -0.2,-0.4 -0.5,-0.9 -0.7,-1.4 -0.2,-0.4 -0.4,-0.9 -0.5,-1.4 -0.1,-0.4 -0.3,-0.8 -0.5,-1.2 -0.2,-0.4 -0.4,-0.8 -0.5,-1.2 -0.1,-0.2 -0.1,-0.4 -0.2,-0.6 -0.1,-0.2 -0.1,-0.4 -0.1,-0.6 -0.1,-0.4 0,-0.9 0.1,-1.3 0.1,-0.5 0.3,-1 0.4,-1.6 0.1,-0.6 0.3,-1.2 0.5,-1.7 0.1,-0.2 0.2,-0.5 0.3,-0.7 0,-0.2 0.1,-0.3 0.1,-0.4 l 0,0 z"
           id="path137"
           inkscape:connector-curvature="0"
           style="fill:#5d381e" /><path
           d="m 854.2,554.8 c -0.4,0.4 -0.9,0.8 -1.3,1.2 -0.4,0.4 -0.7,0.8 -1,1.2 -0.3,0.4 -0.7,0.9 -1,1.4 -0.3,0.4 -0.5,0.8 -0.7,1.3 -0.2,0.4 -0.4,0.8 -0.7,1.2 -0.2,0.3 -0.4,0.6 -0.6,0.8 -0.2,0.3 -0.4,0.5 -0.7,0.7 -0.2,0.2 -0.3,0.2 -0.4,0.2 l 0.2,0 -0.1,-0.1 c -0.2,-0.2 -0.4,-0.4 -0.5,-0.7 -0.2,-0.3 -0.5,-0.7 -0.8,-1.1 -0.3,-0.4 -0.5,-0.9 -0.8,-1.3 -0.3,-0.4 -0.6,-1.1 -0.8,-1.7 -0.2,-0.5 -0.4,-1 -0.5,-1.4 -0.1,-0.2 -0.1,-0.3 -0.2,-0.5 -0.1,-0.3 -0.1,-0.7 -0.2,-1 0,-0.4 0,-0.8 0.1,-1.2 l 0,0 c 0.2,-0.6 0.4,-1.2 0.8,-1.8 0.3,-0.5 0.7,-0.9 1.2,-1.3 0.3,-0.3 0.6,-0.5 1,-0.7 l 0.7,-0.3 c 0.2,-0.1 0.5,-0.2 0.7,-0.3 0.2,0 0.3,0 0.5,0 0.2,0 0.4,0.1 0.7,0.2 0.5,0.2 0.9,0.4 1.4,0.7 0.5,0.3 0.9,0.7 1.3,1 0.2,0.1 0.3,0.2 0.3,0.1 l 0,0 c -0.3,-0.7 -0.8,-1.4 -1.3,-2 -0.4,-0.5 -0.9,-0.9 -1.4,-1.2 -0.4,-0.3 -1,-0.5 -1.6,-0.5 -0.4,0 -0.7,0.1 -1.1,0.2 -0.3,0.1 -0.6,0.3 -0.9,0.5 -0.3,0.3 -0.7,0.6 -1,1 -0.5,0.6 -0.9,1.3 -1.2,2 -0.3,0.7 -0.5,1.5 -0.6,2.3 -0.1,0.5 -0.1,1 0,1.5 0.1,0.6 0.2,1.1 0.3,1.6 l 0,0.2 c 0.1,0.3 0.2,0.8 0.3,1.4 0.1,0.6 0.4,1.3 0.7,2 0.4,1 0.9,2 1.4,3 0.2,0.3 0.4,0.6 0.7,0.9 0.1,0.1 0.2,0.2 0.3,0.3 0.1,0.1 0.3,0.1 0.5,0.1 0.3,-0.1 0.6,-0.3 0.9,-0.5 0.3,-0.3 0.6,-0.6 0.8,-1 0.1,-0.2 0.2,-0.4 0.3,-0.6 0.3,-0.6 0.6,-1.3 0.8,-2 0.1,-0.4 0.3,-0.9 0.5,-1.3 0.2,-0.5 0.5,-1.1 0.8,-1.6 0.3,-0.5 0.5,-0.8 0.7,-1.2 0.2,-0.4 0.5,-0.7 0.6,-0.9 0.5,-0.2 0.7,-0.5 0.9,-0.8 l 0,0 z"
           id="path139"
           inkscape:connector-curvature="0" /><path
           d="m 840.1,547.3 0,0 0,0 0,0 0,0 c -0.1,0 -0.2,0 -0.2,0 -0.1,0 -0.2,-0.1 -0.3,-0.2 -0.3,-0.2 -0.5,-0.5 -0.7,-0.8 l -0.2,-0.4 c -0.1,-0.2 -0.2,-0.4 -0.3,-0.6 -0.1,-0.2 -0.2,-0.5 -0.3,-0.7 0,-0.1 -0.1,-0.2 -0.1,-0.3 0,-0.1 -0.1,-0.2 -0.1,-0.4 0,-0.1 0,-0.2 0.1,-0.4 0.1,-0.1 0.2,-0.2 0.3,-0.3 0.1,-0.1 0.3,-0.1 0.5,-0.1 0.2,0 0.4,0.1 0.5,0.3 0.3,0.2 0.5,0.5 0.6,0.8 0.1,0.2 0.2,0.4 0.3,0.6 0.2,0.5 0.3,1 0.3,1.5 0,0.2 0,0.4 -0.1,0.6 0,0.1 -0.1,0.1 -0.1,0.2 l 0,0 -0.1,0.1 0,0 0,0 -0.1,0.1 z"
           id="path141"
           inkscape:connector-curvature="0" /><path
           d="m 839.1,549.8 c -0.1,0.3 -0.3,0.5 -0.6,0.5 -0.4,0 -0.8,-0.1 -1.1,-0.2 l -0.3,-0.1 c -0.4,-0.1 -0.7,-0.2 -1.1,-0.5 -0.1,-0.1 -0.2,-0.2 -0.3,-0.3 -0.1,-0.1 -0.1,-0.2 -0.2,-0.3 -0.1,-0.1 -0.1,-0.2 -0.2,-0.3 0,-0.1 -0.1,-0.2 -0.1,-0.3 0,-0.1 0,-0.2 0,-0.3 0,-0.1 0.1,-0.2 0.2,-0.3 0.1,-0.1 0.2,-0.2 0.3,-0.2 0.1,-0.1 0.3,-0.1 0.4,-0.1 0.4,-0.1 0.9,0 1.3,0.1 l 0.3,0.1 0,0 c 0.4,0.3 0.8,0.7 1.1,1.1 0.3,0.4 0.4,0.8 0.3,1.1 l 0,0 z"
           id="path143"
           inkscape:connector-curvature="0" /></g><path
         class="st5"
         d="m 834,575.4 c 0,0 0.5,-10.1 1.4,-12.4 0.9,-2.3 3.6,-9.6 5.9,-11.8 2.3,-2.2 4.9,-5.6 9,-7.8 4.1,-2.2 15.9,-4.1 18.5,-4.1 2.6,0 8.1,2 10,2.9 1.9,0.9 6.3,6.8 8.5,9.6 2.2,2.8 7,13.8 7.6,16 0.6,2.2 2.5,11.8 2.1,15.1 -0.4,3.3 -1.1,9.3 -3.1,12.1 -2,2.8 -8.8,8.8 -11.3,9.3 -2.5,0.5 -21.6,7.8 -27.1,6.1 -5.5,-1.7 -15.6,-11.3 -16,-13.8 -0.4,-2.5 -5.3,-18.1 -5.5,-21.2 l 0,0 z"
         id="path145"
         inkscape:connector-curvature="0"
         style="fill:#a06121" /><path
         class="st14"
         d="m 868.8,539.4 c -2.6,0 -14.4,2 -18.5,4.1 -4.1,2.1 -6.8,5.6 -9,7.8 -2.2,2.2 -5,9.5 -5.9,11.8 -0.9,2.3 -1.4,12.4 -1.4,12.4 0.1,3.1 5.1,18.9 5.5,21.4 0.4,2.5 9.1,11.9 14.6,13.6 1.1,0.4 2.2,0.3 4.5,-0.5 -1.6,0.2 -2.5,0.4 -3.4,0.1 -5.5,-1.8 -14.2,-10.8 -14.6,-13.3 -0.4,-2.5 -5.4,-18.3 -5.5,-21.4 0,0 0.5,-10.1 1.4,-12.4 0.9,-2.3 3.6,-9.6 5.9,-11.8 2.3,-2.2 4.9,-5.6 9,-7.8 4.1,-2.2 15.2,-4 18.2,-4.1 l -0.8,0.1 0,0 z"
         id="path147"
         inkscape:connector-curvature="0"
         style="fill:#5d381e" /><path
         d="m 838.2,572.1 c 0.1,-0.1 0.3,-0.1 0.5,-0.1 0.1,0 0.2,0 0.3,0 0.1,0 0.2,0 0.3,0.1 0.1,0 0.2,0.1 0.2,0.1 0.2,0 0.3,0.1 0.4,0.2 0.2,0.1 0.4,0.2 0.5,0.3 0.1,0 0.1,0 0.1,-0.1 0,-0.1 -0.1,-0.3 -0.2,-0.4 -0.1,-0.2 -0.2,-0.3 -0.4,-0.5 -0.1,-0.1 -0.3,-0.2 -0.5,-0.2 l -0.1,0 c -0.3,0 -0.6,0.1 -0.8,0.2 -0.2,0.1 -0.4,0.2 -0.5,0.3 -0.1,0 -0.2,0.2 -0.1,0.2 0,0 0.1,0 0.3,-0.1 l 0,0 z"
         id="path149"
         inkscape:connector-curvature="0" /><path
         d="m 838.9,570.2 c 0.1,-0.1 0.2,-0.1 0.3,-0.1 0.1,0 0.2,0 0.3,0 l 0,0 c 0.1,0 0.1,0 0.2,0 0.1,0 0.2,0.1 0.3,0.1 0,0 0.1,0 0,-0.1 0,-0.1 0,-0.2 -0.1,-0.3 -0.1,-0.1 -0.1,-0.2 -0.2,-0.3 -0.1,-0.1 -0.2,-0.1 -0.3,-0.1 l 0,0 c -0.2,0.1 -0.3,0.2 -0.4,0.3 -0.1,0.1 -0.2,0.2 -0.3,0.2 0.1,0.1 0.1,0.2 0.2,0.3 0,0 0,0.1 0,0 0.1,0 0.1,0 0,0 l 0,0 z"
         id="path151"
         inkscape:connector-curvature="0" /><path
         d="m 839.4,571.2 c 0.1,-0.6 0.3,-1.8 0.7,-3.2 0.3,-1.7 0.8,-3.8 1.3,-6.1 0.3,-1.4 0.6,-2.8 0.8,-4.2 0.2,-1 0.6,-1.9 1.1,-2.7 0.6,-1.1 1.3,-2.1 2.1,-3.2 0.8,-1.1 1.6,-2 2,-2.5 l 0.4,-0.5 c 0.5,-0.6 1.2,-1.4 2.1,-2.3 0.6,-0.5 1.2,-1 1.8,-1.5 0.7,-0.5 1.4,-0.9 2.2,-1.4 1.5,-0.9 3.1,-1.7 4.7,-2.4 1.3,-0.6 2.6,-1.1 3.8,-1.6 l 0.4,-0.2 c 0.3,-0.1 0.5,-0.2 0.7,-0.3 0.1,0 0.2,-0.1 0.3,-0.2 0,-0.1 0,-0.2 0,-0.3 l 0,0 -0.1,-0.1 -0.1,-0.1 0.1,0.1 0.1,0.1 0,0 c 0,0.1 0,0.2 0,0.3 l 0,0 c -0.1,0.1 -0.2,0.1 -0.3,0.1 l -1.1,0.4 c -1,0.4 -2.3,0.8 -3.9,1.5 -1.6,0.7 -3.3,1.4 -4.8,2.2 -1.5,0.8 -2.9,1.7 -4.2,2.8 -0.8,0.7 -1.5,1.5 -2.2,2.3 l 0,0 c -0.9,1 -1.7,2 -2.4,3 l -0.1,0.1 c -0.7,1 -1.4,2.1 -2,3.2 l 0,0 c -0.5,0.9 -0.9,1.9 -1.1,2.9 -0.2,1.4 -0.5,2.8 -0.7,4.2 -0.4,2.2 -0.8,4.3 -1.1,6.1 -0.4,2 -0.7,3.7 -1,4.9 l -0.1,0.6 c -0.2,0.8 -0.3,1.3 -0.3,1.7 0,0.2 0,0.4 -0.1,0.5 0,0 0,0.1 0,0.1 l 0,0 0,0 0,0 0,-0.1 c 0,-0.1 0.1,-0.3 0.1,-0.5 0.1,-0.4 0.2,-1 0.4,-1.7 0.2,-0.7 0.3,-1.4 0.4,-2.3 l 0.1,0.3 z"
         id="path153"
         inkscape:connector-curvature="0" /><path
         class="st6"
         d="m 868.7,539.4 -0.4,0 c 1.7,0 2,0.9 3.8,1 3.8,0.1 11.7,8.5 13.6,11.5 2.9,5.1 5.5,10.5 7.6,16 0.6,2.3 2.5,11.8 2.1,15.1 -0.4,3.3 -1.1,9.3 -3.1,12.1 -2,2.8 -8.8,8.8 -11.3,9.3 -2,0.4 -12.5,4.4 -20,4.6 7.4,0.2 19.4,-4.2 21.5,-4.6 2.5,-0.5 9.3,-6.5 11.3,-9.3 2,-2.8 2.8,-8.8 3.1,-12.1 0.3,-3.3 -1.5,-12.9 -2.1,-15.1 -2.1,-5.5 -4.6,-10.9 -7.6,-16 -2,-2.9 -7.6,-11.6 -13.6,-11.5 -2,0 -2.2,-1 -4.9,-1 l 0,0 z"
         id="path155"
         inkscape:connector-curvature="0"
         style="fill:#b8854f" /><path
         class="st13"
         d="m 849.6,570.1 c -1,-0.5 -1.2,-2.6 -1.7,-1.6 -0.6,1.4 -0.4,3.1 0.5,4.3 0.7,0.7 4.8,1.2 4.8,0 0,-1.2 -2.6,-2.1 -3.6,-2.7 l 0,0 z"
         id="path157"
         inkscape:connector-curvature="0"
         style="fill:#6e4a25" /><path
         d="m 851.9,564.5 c -2.1,-0.2 -3.9,1.4 -4.1,3.5 0,0.1 0,0.2 0,0.3 0,2.3 1,4.5 3.3,4.7 2.1,0.2 3.9,-1.2 4.2,-3.3 0,-0.3 0,-0.6 0,-0.9 -0.2,-2.2 -1.1,-4.3 -3.4,-4.3 z"
         id="path159"
         inkscape:connector-curvature="0" /><path
         class="st15"
         d="m 852.2,566 c -0.3,-0.4 -1.4,0 -1.8,0.4 -0.5,0.2 -0.8,0.8 -0.6,1.3 0.2,0.5 0.8,0.8 1.3,0.6 0.2,-0.1 0.4,-0.2 0.5,-0.4 0.4,-0.4 0.9,-1.5 0.6,-1.9 l 0,0 z"
         id="path161"
         inkscape:connector-curvature="0"
         style="fill:#ddcebe" /><path
         class="st16"
         d="m 851.9,565.2 c 0,0 2.8,0.3 3.7,-1.5"
         id="path163"
         inkscape:connector-curvature="0"
         style="fill:none;stroke:#000000;stroke-width:5" /><path
         d="m 894,565.6 0,0 0,0 0,0.2 0.2,0.6 c 0.2,0.7 0.3,1.3 0.5,1.9 0.2,0.8 0.4,1.5 0.5,2.2 0.1,0.6 0.3,1.2 0.4,1.8 0.2,1.3 0.3,2.5 0.4,3.7 l 0,0 c 0.1,1.8 0.2,3.3 0.2,4.7 0,1.5 -0.1,3.1 -0.2,4.6 -0.1,0.7 -0.2,1.3 -0.3,1.9 -0.1,0.5 -0.2,1 -0.4,1.4 l -0.2,0.5 c -0.3,0.7 -0.6,1.8 -1,3.1 -0.4,1.4 -1,2.7 -1.7,3.9 -0.5,0.8 -1,1.6 -1.6,2.3 -0.6,0.7 -1.2,1.3 -1.9,1.9 -0.6,0.6 -1.3,1 -1.8,1.4 -0.5,0.4 -1,0.7 -1.3,0.9 -0.2,0.1 -0.4,0.2 -0.6,0.3 -0.5,0.3 -1,0.5 -1.5,0.7 -0.6,0.3 -1.3,0.5 -2.1,0.8 l 0,0 c -1.4,0.5 -3,0.9 -4.6,1.3 -1.9,0.5 -3.8,0.9 -5.5,1.2 -1.7,0.3 -2.9,0.6 -3.6,0.8 l -1.3,0.3 c -1.1,0.3 -2.6,0.7 -4.2,1 -1.6,0.3 -3.3,0.8 -4.9,1.2 -1.1,0.2 -2.1,0.5 -3.1,0.7 l -0.7,0.2 -0.3,0.1 c -0.2,0 -0.3,0.1 -0.5,0.2 -0.1,0.1 -0.2,0.1 -0.2,0.1 0,0 0.1,0 0.2,0 l 0.5,0 1.1,-0.1 c 0.8,0 1.9,-0.1 3.2,-0.2 2.8,-0.2 6.3,-0.6 9.3,-1.2 1.3,-0.2 2.6,-0.5 3.9,-0.9 2.1,-0.7 4.3,-1.4 6.4,-2.1 1.6,-0.6 3.1,-1.2 4.5,-1.8 1.2,-0.5 2.4,-1.1 3.6,-1.7 0.7,-0.4 1.3,-0.7 1.8,-1 1,-0.6 1.9,-1.2 2.8,-1.9 1.4,-1.1 2.6,-2.4 3.6,-3.8 0.8,-1.2 1.5,-2.5 2,-3.8 0.6,-1.3 1,-2.6 1.5,-3.8 0.2,-0.6 0.4,-1.3 0.5,-2 0.1,-0.6 0.2,-1.2 0.2,-1.8 0,-0.8 0,-1.5 0,-2.3 0,-0.7 -0.1,-1.5 -0.2,-2.5 -0.2,-1.4 -0.4,-3 -0.7,-4.7 -0.2,-1.2 -0.5,-2.5 -0.7,-3.7 -0.2,-0.6 -0.3,-1.3 -0.5,-1.8 -0.3,-0.8 -0.5,-1.5 -0.7,-2.2 -0.2,-0.7 -0.5,-1.4 -0.6,-1.8 l -0.2,-0.6 -0.2,-0.2 0,0 0,0 0,0 z"
         id="path165"
         inkscape:connector-curvature="0" /><path
         d="m 834.1,575.6 c 0,-0.8 0.1,-1.6 0.2,-2.4 0.2,-1.1 0.3,-2.2 0.6,-3.2 l 0,0 c 0.3,-1.6 0.7,-3.1 1.1,-4.3 0.4,-1.2 0.8,-2.4 1.1,-3.4 0.7,-1.9 1.3,-3.2 1.8,-4.4 0.5,-1.2 1,-2 1.4,-2.7 l 0.3,-0.6 c 0.4,-0.8 1,-1.8 1.6,-2.9 0.7,-1.1 1.5,-2.2 2.4,-3.2 l 0,0 c 1,-1 2.1,-2 3.3,-2.9 1,-0.8 2,-1.3 2.5,-1.6 0.6,-0.4 1.3,-0.7 2,-0.9 1.1,-0.4 2.2,-0.8 3.3,-1.1 1,-0.3 2.1,-0.5 3.2,-0.7 1.1,-0.2 2.2,-0.3 3.2,-0.5 2,-0.2 3.7,-0.3 4.4,-0.4 l 1,-0.1 c 1.2,-0.1 2.4,-0.1 3.7,0 1.5,0.2 2.9,0.5 4.3,0.9 0.9,0.3 1.8,0.6 2.7,1 0.3,0.1 0.6,0.3 0.9,0.4 0.3,0.1 0.5,0.2 0.8,0.2 0.1,0 0.1,0 0,-0.1 l -0.6,-0.3 c -0.3,-0.2 -0.6,-0.4 -1,-0.6 -0.8,-0.5 -1.7,-1 -2.5,-1.4 -1.3,-0.6 -2.6,-1.1 -4,-1.4 -1.4,-0.4 -2.9,-0.5 -4.4,-0.5 -1.1,0 -2.3,0.1 -3.4,0.3 -1.5,0.3 -3,0.6 -4.4,1 -1.4,0.4 -2.9,0.9 -4.2,1.4 -1.3,0.5 -2.7,1.1 -3.8,1.6 -1.1,0.5 -2,1 -2.7,1.4 -0.5,0.2 -1.3,0.6 -2.2,1.2 -1.1,0.7 -2.2,1.4 -3.2,2.3 -1,0.9 -1.9,1.8 -2.7,2.9 -0.8,1 -1.5,2.1 -2.1,3.3 -1.1,1.9 -2,3.9 -2.7,6 -0.2,0.6 -0.3,1.3 -0.6,2.1 -0.3,1.1 -0.6,2.5 -0.8,3.9 -0.2,1.4 -0.5,2.8 -0.6,4.2 -0.1,1.4 -0.2,2.4 -0.3,3.3 0,0.8 0,1.4 0,1.8 0,0.4 0.3,0.4 0.4,0.4 l 0,0 z"
         id="path167"
         inkscape:connector-curvature="0" /><path
         class="st5"
         d="m 873.4,551 c 0,0 5,-7.5 6.4,-8.8 1.4,-1.3 1.7,-2.9 4.8,-3.4 3.1,-0.4 8,1.5 9.1,2.2 1.1,0.7 5.3,3.6 6.1,4.6 0.8,1 1.4,4.2 1.3,6.4 -0.4,2.7 -1.4,5.4 -2.9,7.7 -0.8,0.8 -5.3,5 -6.7,5.5 -1.4,0.5 -9.3,1.7 -9.3,1.7 L 873.4,551 Z"
         id="path169"
         inkscape:connector-curvature="0"
         style="fill:#a06121" /><path
         class="st6"
         d="m 886.8,566 c 1.4,-0.2 2.7,-0.5 4.1,-0.8 1.5,-0.5 5.9,-4.7 6.7,-5.5 1.5,-2.3 2.5,-4.9 2.9,-7.7 0.1,-2.2 -0.5,-5.3 -1.3,-6.4 -0.8,-1 -5,-3.9 -6.1,-4.6 -2.5,-1.3 -5.2,-2.1 -8,-2.3 0.8,0.1 1.5,0.3 2.3,0.5 0.8,0.2 1.6,0.5 2.3,0.8 0.5,0.2 1,0.4 1.5,0.7 0.5,0.4 1.9,1.3 3.1,2.2 0.6,0.5 1.3,0.9 1.8,1.4 0.4,0.3 0.8,0.7 1.1,1 0.2,0.3 0.4,0.7 0.5,1.1 0.2,0.5 0.3,1.1 0.4,1.6 0.1,0.6 0.2,1.2 0.3,1.8 0.1,0.6 0.1,1.2 0.1,1.8 0,0.7 -0.2,1.3 -0.4,2 -0.2,0.8 -0.5,1.6 -0.8,2.3 -0.3,0.8 -0.7,1.5 -1,2.1 -0.2,0.4 -0.5,0.9 -0.8,1.2 -0.4,0.4 -1.7,1.6 -3.1,2.8 -0.7,0.6 -1.4,1.2 -2,1.7 -0.5,0.4 -1,0.7 -1.5,1 -0.5,0.2 -1.1,0.3 -1.6,0.4 l -2.5,0.5 2,0.4 z"
         id="path171"
         inkscape:connector-curvature="0"
         style="fill:#b8854f" /><path
         d="m 873.6,551 c 1.4,-1.9 2.6,-3.5 3.7,-5 1.1,-1.5 2,-2.6 2.9,-3.6 0.4,-0.5 0.8,-0.9 1.2,-1.3 0.2,-0.2 0.5,-0.5 0.8,-0.6 0.5,-0.3 1.1,-0.5 1.7,-0.7 0.5,-0.1 1,-0.2 1.5,-0.2 0.4,0 0.8,0 1.1,0 0.3,0 0.7,0.1 1,0.1 0.3,0 0.6,0.1 1,0.2 0.9,0.2 1.8,0.5 2.7,0.8 1,0.4 2,1 2.9,1.6 1.1,0.8 2.1,1.4 3,1.9 0.5,0.3 1,0.7 1.4,1.1 0.3,0.3 0.6,0.5 0.8,0.8 l 0.1,0.2 c 0.3,0.4 0.5,0.8 0.7,1.3 0.2,0.6 0.3,1.3 0.4,2 l 0,0 c 0,0.9 0,1.8 -0.2,2.7 -0.2,0.9 -0.4,1.9 -0.7,2.8 l 0,0 c -0.2,0.6 -0.4,1.1 -0.8,1.6 -0.3,0.5 -0.7,1 -1,1.4 -0.5,0.6 -0.8,1.1 -1,1.4 -0.6,0.8 -1.3,1.5 -2,2.2 -0.6,0.6 -1.2,1.1 -1.8,1.6 -0.7,0.5 -1.4,1 -2.1,1.4 -0.5,0.3 -1.1,0.6 -1.7,0.8 -0.5,0.2 -1.1,0.3 -1.6,0.4 -0.4,0 -0.6,0.1 -0.6,0.1 0,0.1 0.2,0.2 0.5,0.2 0.5,0.1 1.1,0.1 1.6,0 0.8,-0.1 1.6,-0.2 2.4,-0.4 l 0,0 c 0.8,-0.3 1.6,-0.6 2.3,-1.1 0.8,-0.4 1.5,-1 2.3,-1.5 0.7,-0.6 1.4,-1.2 2,-1.8 0.5,-0.6 1,-1.2 1.4,-1.9 l 0.2,-0.3 c 0.7,-1.1 1.1,-2.2 1.4,-3.5 l 0,0 c 0.2,-1 0.3,-2 0.4,-3 0.1,-1 0,-1.9 -0.1,-2.9 -0.1,-0.7 -0.3,-1.4 -0.6,-2 -0.2,-0.6 -0.5,-1.1 -0.9,-1.6 -0.3,-0.3 -0.5,-0.7 -0.8,-1 -0.2,-0.2 -0.3,-0.4 -0.6,-0.6 -0.3,-0.2 -0.6,-0.5 -0.9,-0.8 -0.3,-0.3 -0.8,-0.7 -1.3,-1 -0.5,-0.3 -1,-0.8 -1.5,-1.2 l 0,0 c -0.8,-0.7 -1.8,-1.4 -2.8,-1.9 -1,-0.6 -2.1,-1 -3.2,-1.3 l 0,0 c -0.6,-0.2 -1.3,-0.3 -1.9,-0.3 -0.6,-0.1 -1.2,-0.1 -1.8,0 -0.6,0.1 -1.2,0.2 -1.8,0.4 -0.4,0.1 -0.9,0.3 -1.3,0.6 -0.2,0.1 -0.5,0.3 -0.7,0.5 -0.4,0.3 -0.7,0.6 -0.9,1 l 0,0 c -0.4,0.5 -0.7,1 -1.1,1.5 l 0,0 c -0.8,1.2 -1.7,2.6 -2.5,3.9 l -3.2,5.3 0,-0.3 z"
         id="path173"
         inkscape:connector-curvature="0" /><path
         class="st11"
         d="m 876.2,554.3 c 0,0 4,1.7 4.9,3.1 0.9,1.4 3.8,5 4.1,5.1 0.6,-0.1 1.2,-0.2 1.8,-0.4 1.2,-1.3 2.3,-2.7 3.2,-4.2 0.8,-1.7 1.8,-3.5 0.9,-5.3 -0.8,-1.9 -1.6,-4.5 -2.8,-4.8 -2,-0.4 -4,-0.3 -6,0.2 -1,0.3 -2,0.8 -3,1.4 -0.5,0.4 -4.1,4.6 -3.1,4.9 l 0,0 z"
         id="path175"
         inkscape:connector-curvature="0"
         style="fill:#834317" /><path
         d="m 875.7,554.2 0,0 0.1,0 0.5,0.2 c 0.5,0.2 1,0.5 1.5,0.8 0.8,0.5 1.5,1 2.1,1.7 0.5,0.5 0.8,1.1 1.1,1.7 0.4,0.8 0.8,1.5 1.4,2.2 0.4,0.5 0.9,0.9 1.4,1.3 0.4,0.3 0.8,0.5 1.2,0.7 0.2,0.1 0.4,0.1 0.6,0.2 0.3,0.1 0.7,0.1 1,0 0.4,-0.1 0.7,-0.3 1,-0.6 0.1,-0.1 0.2,-0.3 0.4,-0.4 l 0.7,-0.7 c 0.6,-0.7 1.1,-1.4 1.6,-2.1 l 0,0 c 0.3,-0.5 0.6,-1 0.8,-1.5 0.2,-0.4 0.3,-0.9 0.4,-1.3 0.1,-0.2 0.1,-0.5 0.1,-0.7 0,-0.2 0.1,-0.6 0.2,-1.1 0.1,-0.6 0.1,-1.1 0,-1.7 -0.1,-0.8 -0.3,-1.6 -0.7,-2.3 -0.4,-0.7 -0.9,-1.4 -1.4,-1.9 -0.5,-0.5 -1,-0.9 -1.6,-1.3 -0.4,-0.2 -0.8,-0.4 -1.3,-0.6 -1.1,-0.3 -2.3,-0.3 -3.4,0.1 -0.6,0.2 -1.1,0.4 -1.7,0.7 l 0,0 c -0.6,0.3 -1.1,0.6 -1.5,1 -0.4,0.4 -0.8,0.8 -1.2,1.3 -0.1,0.1 -0.2,0.2 -0.2,0.4 0,0.1 0,0.1 0,0.1 0.2,-0.1 0.4,-0.2 0.6,-0.3 0.4,-0.3 0.8,-0.5 1.2,-0.7 0.5,-0.3 1.1,-0.5 1.7,-0.6 0.5,-0.1 0.9,-0.2 1.4,-0.2 0.4,-0.1 0.9,-0.1 1.3,0 0.7,0.1 1.5,0.4 2.1,0.8 0.4,0.2 0.9,0.4 1.3,0.7 0.6,0.4 1.1,0.9 1.5,1.4 0.4,0.5 0.7,1.1 0.9,1.7 0.2,0.6 0.2,1.2 0.2,1.8 0,0.5 -0.1,0.9 -0.3,1.3 l 0,0 c -0.1,0.3 -0.3,0.7 -0.5,1 -0.3,0.5 -0.6,0.9 -1,1.4 l 0,0 c -0.5,0.6 -1.1,1.2 -1.7,1.7 l 0,0 -0.7,0.6 c -0.2,0.2 -0.4,0.3 -0.5,0.5 l 0,0 c -0.1,0 -0.2,0 -0.2,0 -0.4,-0.1 -0.8,-0.3 -1.1,-0.5 -0.5,-0.4 -1.1,-0.8 -1.5,-1.3 -0.4,-0.4 -0.8,-0.8 -1.2,-1.2 -0.5,-0.7 -1.2,-1.4 -1.9,-1.9 -0.7,-0.5 -1.5,-0.9 -2.3,-1.2 -0.5,-0.2 -1.1,-0.4 -1.7,-0.5 l -0.7,-0.7 0,0 0,0 0,0 0,0 z"
         id="path177"
         inkscape:connector-curvature="0" /><path
         d="m 886.3,540.8 c -0.4,-0.1 -0.6,-0.3 -0.8,-0.7 -0.2,-0.4 -0.3,-0.9 -0.3,-1.4 0,-0.1 0,-0.1 0,-0.2 0,-0.5 0,-0.9 0.2,-1.4 0.1,-0.2 0.1,-0.4 0.2,-0.5 0.1,-0.1 0.2,-0.3 0.4,-0.3 0.2,-0.1 0.4,-0.1 0.5,0 0.2,0.1 0.4,0.2 0.5,0.4 0.2,0.2 0.3,0.5 0.5,0.8 0.1,0.3 0.2,0.7 0.2,1 0,0.1 0,0.2 0,0.3 l 0,0 c 0,0.6 -0.2,1.1 -0.5,1.6 -0.2,0.2 -0.5,0.4 -0.9,0.4 l 0,0 z"
         id="path179"
         inkscape:connector-curvature="0" /><path
         d="m 889.6,541 c -0.3,-0.1 -0.4,-0.5 -0.4,-1 0,-0.6 0.2,-1.2 0.4,-1.8 l 0,0 c 0.1,-0.2 0.1,-0.3 0.2,-0.5 0.3,-0.7 0.6,-1.3 1,-1.9 0.1,-0.2 0.3,-0.4 0.5,-0.6 0.1,-0.1 0.3,-0.2 0.5,-0.2 0.2,0 0.4,0.1 0.5,0.3 0.1,0.2 0.2,0.5 0.3,0.8 0.1,0.4 0.1,0.8 0,1.1 -0.1,0.4 -0.2,0.9 -0.3,1.3 -0.1,0.2 -0.2,0.4 -0.2,0.5 l 0,0 c -0.3,0.6 -0.7,1.2 -1.2,1.6 -0.6,0.5 -0.9,0.6 -1.3,0.4 l 0,0 z"
         id="path181"
         inkscape:connector-curvature="0" /><path
         class="st13"
         d="m 836.7,570.3 c 0.6,-0.5 1.2,-2.9 1.2,-1.7 0,1.2 0.2,3.1 -0.3,3.9 -0.5,0.8 -3.5,0.8 -3.5,-0.4 0,-1.2 2,-1.2 2.6,-1.8 l 0,0 z"
         id="path183"
         inkscape:connector-curvature="0"
         style="fill:#6e4a25" /><path
         d="m 835.2,564.3 c -1.5,0 -2.5,1.1 -2.5,3.4 0,2.3 1,4.7 2.5,4.9 1.6,0.3 2.8,-1.7 2.7,-4.2 -0.1,-2.5 -1.2,-4.1 -2.7,-4.1 z"
         id="path185"
         inkscape:connector-curvature="0" /><path
         class="st15"
         d="m 833.9,567.7 c 0.3,0.2 1,-0.6 1.3,-1 0.3,-0.4 0.4,-1 0.1,-1.2 -0.3,-0.2 -0.8,0 -1.1,0.5 -0.3,0.5 -0.6,1.5 -0.3,1.7 l 0,0 z"
         id="path187"
         inkscape:connector-curvature="0"
         style="fill:#ddcebe" /><path
         class="st17"
         d="m 835.1,565 c -1,0.2 -2,-0.5 -2.3,-1.5"
         id="path189"
         inkscape:connector-curvature="0"
         style="fill:none;stroke:#000000;stroke-width:4" /><path
         class="st11"
         d="m 845.3,576.7 c 0.7,1.5 3.4,6.4 4.3,8.3 0.2,0.5 3.8,3.9 4,4.4 5.6,11.2 7.5,20.6 -5.3,26.2 -16.8,0.4 -27.6,-19 -25.6,-31 0,0 1,-4.4 4.2,-6 2.6,-1.3 7.2,-1.9 17.4,-2.1"
         id="path191"
         inkscape:connector-curvature="0"
         style="fill:#834317" /><path
         class="st6"
         d="m 852.2,588.7 c 5.2,10 5.6,21.9 -5.7,26.7 1,0.1 2,0.2 3,0.1 12.2,-6.9 8.2,-15.2 4.3,-25.8 l -1.6,-1 z"
         id="path193"
         inkscape:connector-curvature="0"
         style="fill:#b8854f" /><path
         class="st14"
         d="m 823.5,590.7 c 0.8,1.3 1,0.8 1.2,2.2 0.2,1.4 1.5,7.1 4.6,10.5 l 0.1,-0.6 -3.5,-10 -2.4,-2.1 z"
         id="path195"
         inkscape:connector-curvature="0"
         style="fill:#5d381e" /><path
         d="m 826.1,581.1 c -2.8,0 -6.5,3.3 -5,6 1,2 2.9,5.8 5,6 2.1,0.2 3.6,-3.8 5,-6 1.7,-2.5 -2.2,-6 -5,-6 z"
         id="path197"
         inkscape:connector-curvature="0" /><path
         class="st14"
         d="m 824.2,581.3 c -0.5,0.9 -0.9,1.8 -1.1,2.8 -2,12 8.8,31.4 25.6,31 2.8,-1.1 5.1,-3.2 6.4,-6 -1.4,2.3 -3.4,4 -5.9,5 -16.8,0.4 -27.6,-19 -25.6,-31 0.1,-0.6 0.3,-1.2 0.6,-1.8 z"
         id="path199"
         inkscape:connector-curvature="0"
         style="fill:#5d381e" /><path
         d="m 845.6,576.7 c 0.6,1.4 1.2,2.7 1.8,4 0.6,1.2 1.2,2.4 1.8,3.6 0.7,1.1 1.5,2.2 2.5,3.2 0.9,1 1.6,2 2.2,3.2 0.6,1.2 1,2.5 1.4,3.8 0.3,1.1 0.6,2.2 0.8,3.4 0.2,1.3 0.3,2.6 0.3,3.9 0,1 -0.1,2.1 -0.3,3.1 -0.2,1 -0.5,1.9 -0.8,2.9 -0.3,0.7 -0.7,1.5 -1.1,2.1 -0.2,0.2 -0.3,0.5 -0.6,0.8 -0.6,0.8 -1.3,1.5 -2.1,2.1 -1,0.8 -2.1,1.4 -3.3,1.8 -0.9,0 -1.9,0 -2.8,-0.1 -1,-0.1 -1.9,-0.3 -2.9,-0.5 -1.8,-0.4 -3.5,-1.1 -5.2,-2 -1.1,-0.6 -2.1,-1.3 -3.1,-2 -0.8,-0.6 -1.5,-1.2 -1.9,-1.6 -0.5,-0.5 -1,-1 -1.5,-1.5 -0.7,-0.8 -1.3,-1.6 -1.9,-2.5 -2.1,-3.1 -3.7,-6.5 -4.6,-10.1 -0.2,-0.9 -0.4,-1.8 -0.6,-2.7 -0.1,-0.9 -0.2,-1.7 -0.3,-2.6 -0.1,-1.4 0,-2.8 0.3,-4.2 l 0,0 0,-0.1 c 0,-0.2 0.1,-0.3 0.1,-0.5 0.2,-0.5 0.3,-0.8 0.4,-1.1 l 0.2,-0.4 c 0.3,-0.6 0.6,-1.2 1,-1.7 0.5,-0.6 1.1,-1.2 1.8,-1.5 0.9,-0.5 1.8,-0.8 2.7,-1.1 1,-0.3 2.1,-0.5 3.2,-0.7 1.8,-0.3 3.6,-0.6 5.3,-0.7 1.8,-0.1 3.5,-0.2 5,-0.3 1.1,0 1.5,-0.1 1.3,-0.2 -0.6,-0.2 -1.3,-0.3 -1.9,-0.3 -1.1,-0.1 -2.5,-0.2 -4.2,-0.2 -1.9,0 -3.8,0.1 -5.7,0.3 -1.1,0.1 -2.2,0.3 -3.2,0.5 -1.1,0.2 -2.2,0.6 -3.2,1 l 0,0 c -0.9,0.4 -1.7,1 -2.3,1.7 -0.6,0.7 -1.1,1.4 -1.5,2.2 -0.3,0.6 -0.6,1.2 -0.8,1.8 -0.1,0.2 -0.1,0.4 -0.2,0.6 l 0,0 0,0.2 0,0 0,0.1 0,0 0,0 c -0.1,0.7 -0.2,1.4 -0.2,2.1 0,1.4 0.1,2.8 0.3,4.2 0.2,1.4 0.6,2.7 1,4.1 0.6,1.9 1.4,3.8 2.4,5.5 1.5,2.8 3.5,5.5 5.7,7.8 0.9,0.9 1.7,1.6 2.3,2.2 1.1,1 2.2,1.8 3.5,2.6 1.6,1 3.3,1.8 5.1,2.3 2.1,0.7 4.3,1 6.6,1 1.3,-0.4 2.5,-1 3.6,-1.7 1.1,-0.7 2.1,-1.6 3,-2.7 l 0,0 c 0.8,-1 1.5,-2.2 1.9,-3.4 0.4,-1.1 0.7,-2.2 0.9,-3.3 0.2,-1.4 0.2,-2.8 0.1,-4.1 -0.1,-1.2 -0.3,-2.3 -0.6,-3.5 -0.3,-1.2 -0.7,-2.4 -1.1,-3.5 -0.5,-1.3 -1,-2.5 -1.7,-3.7 l 0,0 c -0.7,-1.2 -1.5,-2.3 -2.5,-3.2 -0.9,-0.9 -1.8,-1.9 -2.6,-3 -0.7,-1 -1.2,-2 -1.7,-2.8 -0.5,-0.8 -0.9,-1.7 -1.2,-2.4 l -0.9,-2.2 0,0 z"
         id="path201"
         inkscape:connector-curvature="0" /><path
         class="st16"
         d="m 826,592.5 c 0,0 -0.2,4.6 3.7,9.5"
         id="path203"
         inkscape:connector-curvature="0"
         style="fill:none;stroke:#000000;stroke-width:5" /><path
         class="st18"
         d="m 831.3,601.4 c -1.3,0.4 -2,1.7 -1.7,3 0.3,1.4 1.5,1.2 2.7,0.8 1.2,-0.4 2.2,-0.6 1.8,-1.9 -0.2,-1.3 -1.5,-2.2 -2.8,-1.9 l 0,0 z"
         id="path205"
         inkscape:connector-curvature="0"
         style="stroke:#000000;stroke-width:5" /><path
         class="st19"
         d="m 835.5,591.7 c -0.5,0 -0.8,0.4 -0.8,0.9 0,0 0,0 0,0 0,0.5 0.2,0.7 0.6,0.7 0.4,0 0.8,-0.2 0.8,-0.6 0,-0.4 -0.2,-1 -0.6,-1 l 0,0 z"
         id="path207"
         inkscape:connector-curvature="0"
         style="fill:#956c45;stroke:#000000;stroke-width:3" /><path
         class="st19"
         d="m 840.6,589.1 c -0.8,0 -1.2,0.7 -1.2,1.6 0,0.9 0.3,1.1 1.1,1.1 0.8,0 1.5,-0.3 1.5,-1.1 0.1,-0.9 -0.6,-1.6 -1.4,-1.6 l 0,0 z"
         id="path209"
         inkscape:connector-curvature="0"
         style="fill:#956c45;stroke:#000000;stroke-width:3" /><path
         class="st19"
         d="m 839,594.8 c -0.6,0 -1.1,0.5 -1.1,1.1 0,0.6 0.4,1 1,1 0.5,0 0.9,-0.3 0.9,-0.8 0,-0.1 0,-0.1 0,-0.2 0.1,-0.6 -0.2,-1.2 -0.8,-1.1 l 0,0 z"
         id="path211"
         inkscape:connector-curvature="0"
         style="fill:#956c45;stroke:#000000;stroke-width:3" /><path
         class="st15"
         d="m 826.9,582.8 c -0.8,0 -1.6,0 -1.6,0.8 0,0.8 0.8,0.7 1.6,0.7 0.8,0 2.7,1.5 2.7,0.7 0,-0.8 -1.9,-2.2 -2.7,-2.2 l 0,0 z"
         id="path213"
         inkscape:connector-curvature="0"
         style="fill:#ddcebe" /></g><g
       id="g4371"><path
         class="st14"
         d="m 831.9,658.7 0,0 c -0.2,0.1 -0.4,0.1 -0.6,0.2 l -0.7,0.2 -0.7,0.2 c -0.1,0 -0.3,0.1 -0.4,0.1 -0.2,0.1 -0.3,0.1 -0.4,0.3 l -0.2,0.2 c -0.1,0.1 -0.1,0.1 -0.2,0.2 -0.4,0.2 -0.9,0.5 -1.2,0.7 -0.1,0.1 -0.1,0.1 0,0.1 0.1,0 0.2,0 0.4,0 0.3,-0.1 0.9,-0.2 1.3,-0.3 0.2,-0.1 0.4,-0.2 0.6,-0.3 l 0.3,-0.2 0,0 c 0.1,-0.1 0.2,-0.1 0.3,-0.2 l 0.6,-0.3 c 0.4,-0.2 0.8,-0.4 1.1,-0.5 l 0.3,-0.1 c 0.4,-0.3 0.2,-0.6 -0.5,-0.3 l 0,0 z"
         id="path216"
         inkscape:connector-curvature="0"
         style="fill:#5d381e" /><path
         d="m 831.9,658.5 0,0 c -0.4,0.1 -1,0.3 -1.6,0.5 -0.4,0.1 -0.8,0.3 -1.2,0.5 l -0.6,0.3 -0.6,0.4 c -0.2,0.1 -0.4,0.3 -0.6,0.4 -0.2,0.1 -0.1,0.1 0,0.1 0.1,0 0.3,0 0.4,-0.1 l 0.6,-0.2 0.7,-0.2 c 0.3,-0.1 0.7,-0.2 1,-0.4 l 0.6,-0.4 c 0.4,-0.3 0.9,-0.5 1.3,-0.7 l 0.3,-0.1 0.2,-0.1 c 0,0 0.1,0 0.1,-0.1 l 0,0 c 0,0 0,0 0,-0.1 l -0.2,0 c -0.1,0.1 -0.2,0.1 -0.4,0.2 l 0,0 z"
         id="path218"
         inkscape:connector-curvature="0" /><path
         d="m 831.8,661 0,0 c -0.3,-0.3 -0.6,-0.6 -0.8,-0.9 -0.2,-0.3 -0.4,-0.6 -0.7,-0.8 -0.2,-0.2 -0.4,-0.4 -0.6,-0.6 -0.2,-0.2 -0.4,-0.5 -0.6,-0.8 -0.1,-0.1 -0.1,-0.1 -0.2,0 0,0.2 0,0.4 0,0.5 0,0.3 0.1,0.5 0.3,0.8 0.1,0.2 0.3,0.4 0.5,0.6 l 0.7,0.5 c 0.4,0.3 0.9,0.6 1.1,0.8 l 0.2,0.2 c 0,0 0.1,0.1 0.1,0.1 l 0.1,0 0,0 c 0,0 0,0 0.1,0 l 0,0 c 0,0 0,-0.1 0,-0.1 0,-0.1 -0.1,-0.2 -0.2,-0.3 l 0,0 z"
         id="path220"
         inkscape:connector-curvature="0" /></g><path
       class="st5"
       d="m 830.7,653.9 c 9.2,-1.5 17.4,8 17.2,19.3 -0.2,11.7 -9.4,21.3 -16.9,19.9 -5.3,-1 -10.7,-2.3 -12.7,-9.4 -0.8,-3.6 -1,-7.4 -0.8,-11.1 1,-10.8 6.1,-17.6 13.2,-18.7 l 0,0 z"
       id="path222"
       inkscape:connector-curvature="0"
       style="fill:#a06121" /><path
       class="st13"
       d="m 841.9,686.5 c -3.7,7.3 -5.5,6.5 -11.5,6.3 -4.5,-0.8 -9,-1.9 -11.5,-6.5 2.5,4.9 7.1,6 11.7,6.8 5.5,-1.2 7.6,-1.4 11.3,-6.6 l 0,0 z"
       id="path224"
       inkscape:connector-curvature="0"
       style="fill:#6e4a25" /><path
       d="m 841.1,688.3 c -0.5,0.9 -1.2,1.7 -1.9,2.3 -0.7,0.6 -1.5,1.1 -2.3,1.5 -1.2,0.5 -2.5,0.7 -3.7,0.6 -1.6,0 -3.3,-0.3 -4.9,-0.7 -1.3,-0.3 -2.5,-0.9 -3.6,-1.5 -0.7,-0.4 -1.3,-0.9 -1.8,-1.4 -0.5,-0.4 -0.9,-0.9 -1.3,-1.5 -0.5,-0.7 -1,-1.5 -1.3,-2.3 -0.3,-0.6 -0.5,-1.3 -0.7,-2 -0.1,-0.4 -0.2,-0.7 -0.3,-1.1 -0.1,-0.4 -0.1,-0.7 -0.2,-1.1 -0.1,-0.8 -0.3,-1.8 -0.4,-2.9 -0.2,-1.9 -0.3,-3.7 -0.2,-5.6 0.1,-1.2 0.3,-2.4 0.5,-3.6 0.2,-1.1 0.5,-2.2 0.8,-3.3 0.3,-0.9 0.6,-1.8 0.9,-2.6 0.3,-0.7 0.6,-1.3 0.8,-1.7 0.5,-0.9 1,-1.7 1.6,-2.4 0.6,-0.7 1.3,-1.4 2,-2 0.8,-0.7 1.7,-1.3 2.7,-1.8 l 0,0 c 0.9,-0.4 1.8,-0.7 2.7,-1 0.9,-0.2 1.8,-0.3 2.8,-0.3 l 0,0 c 1,0 2,0.2 3,0.5 0.8,0.3 1.6,0.6 2.3,1.1 0.6,0.3 1.1,0.7 1.6,1.1 0.5,0.3 0.9,0.7 1.4,1.1 0.6,0.5 1.1,1.1 1.6,1.7 0.7,0.8 1.3,1.7 1.8,2.7 0.6,1 1,2.1 1.4,3.2 0.4,1.1 0.7,2.2 0.9,3.4 0.2,1.1 0.3,2.1 0.3,3.2 0,0.3 0,0.7 0.1,1 0,0.1 0.1,0.1 0.1,-0.1 0.2,-1 0.3,-2 0.3,-3 0,-1.8 -0.2,-3.7 -0.7,-5.5 -0.3,-1.1 -0.6,-2.1 -1.1,-3.1 -0.5,-1 -1,-2.1 -1.6,-3 l 0,0 c -0.7,-1 -1.5,-1.9 -2.3,-2.7 -0.8,-0.7 -1.7,-1.4 -2.7,-1.9 -0.4,-0.2 -0.8,-0.4 -1.2,-0.5 -1.7,-0.7 -3.4,-1 -5.2,-0.9 l 0,0 c -1.1,0.1 -2.1,0.2 -3.2,0.6 -1,0.3 -1.9,0.7 -2.8,1.3 -1,0.6 -1.9,1.3 -2.7,2.1 -0.7,0.7 -1.4,1.5 -2,2.3 -0.9,1.3 -1.7,2.6 -2.4,4 -0.6,1.2 -1.2,2.4 -1.6,3.7 -0.3,0.9 -0.6,1.8 -0.8,2.9 -0.2,1.1 -0.5,2.2 -0.6,3.3 -0.1,1 -0.2,2 -0.2,3 0,1 0,2 0.1,3 0.1,1 0.2,2 0.3,3 0.1,0.8 0.3,1.6 0.5,2.4 0.3,0.9 0.7,1.8 1.1,2.7 0.4,0.7 0.9,1.4 1.4,2.1 0.4,0.5 0.8,0.9 1.3,1.3 0.8,0.7 1.6,1.2 2.5,1.7 0.6,0.3 1.3,0.6 2,0.8 0.7,0.2 1.5,0.4 2.3,0.6 1.6,0.3 3.2,0.4 4.9,0.3 0.7,0 1.4,-0.1 2.1,-0.3 0.6,-0.1 1.2,-0.4 1.8,-0.6 0.7,-0.3 1.4,-0.8 2,-1.3 0.5,-0.4 0.9,-0.9 1.3,-1.4 0.2,-0.3 0.5,-0.7 0.7,-1 -0.3,-0.2 -0.2,-0.4 -0.2,-0.4 l 0,0 z"
       id="path226"
       inkscape:connector-curvature="0" /><path
       class="st11"
       d="m 821,689 c 1.2,1.7 2.9,1.7 4.5,0.3 2.4,-2.2 3.7,-7.8 2.9,-12.3 -0.8,-4.5 -3.2,-8 -5.5,-5.8 -2.3,2.2 -3.9,9.2 -3.1,13.7 0.1,1.4 0.5,2.8 1.2,4.1 l 0,0 z"
       id="path228"
       inkscape:connector-curvature="0"
       style="fill:#834317" /><path
       d="m 820.5,688.9 c 0.3,0.4 0.7,0.8 1.1,1.1 0.4,0.3 0.9,0.5 1.4,0.6 0.6,0.1 1.1,0 1.6,-0.2 0.5,-0.2 0.9,-0.5 1.2,-0.8 0.4,-0.4 0.7,-0.7 1,-1.2 0.3,-0.4 0.5,-0.8 0.7,-1.2 0.3,-0.5 0.5,-1.1 0.8,-1.7 0.2,-0.5 0.4,-1 0.5,-1.4 0.2,-0.7 0.4,-1.4 0.5,-2.2 0.1,-0.5 0.2,-1.1 0.2,-1.6 0,-0.5 0,-1 0,-1.5 -0.1,-0.7 -0.2,-1.3 -0.3,-2 -0.2,-1.1 -0.6,-2.1 -1,-3.1 -0.2,-0.5 -0.5,-0.9 -0.8,-1.4 -0.3,-0.4 -0.6,-0.7 -0.9,-1.1 -0.2,-0.2 -0.5,-0.4 -0.7,-0.6 -0.2,-0.1 -0.4,-0.2 -0.6,-0.3 -0.2,-0.1 -0.4,-0.1 -0.6,-0.2 -0.3,0 -0.7,0 -1,0.1 -0.4,0.1 -0.8,0.3 -1.1,0.6 -0.4,0.3 -0.8,0.7 -1.1,1.1 -0.3,0.4 -0.6,0.9 -0.9,1.4 -0.3,0.6 -0.6,1.2 -0.8,1.9 -0.2,0.6 -0.4,1.2 -0.6,1.8 -0.2,0.8 -0.4,1.5 -0.5,2.3 0,0.6 -0.1,1.4 -0.1,2.5 0,1.1 0.1,2.2 0.3,3.3 0.2,0.6 0.4,1.2 0.6,1.7 0.2,0.5 0.5,1.1 0.9,1.5 0.1,0.2 0.2,0.3 0.4,0.4 l 0,0 c -0.2,-0.4 -0.3,-0.8 -0.5,-1.3 -0.1,-0.4 -0.2,-0.8 -0.2,-1.2 0,-0.5 0,-1 0,-1.5 0,-0.6 0,-1.2 0.1,-1.8 0.1,-0.6 0.1,-1.2 0.2,-1.8 0.2,-1.2 0.4,-2.3 0.5,-3.2 0,-0.2 0,-0.4 0.1,-0.7 0.1,-1.2 0.4,-2.4 0.7,-3.5 0.2,-0.5 0.3,-0.9 0.5,-1.3 0.2,-0.4 0.4,-0.8 0.7,-1.1 0.2,-0.2 0.5,-0.4 0.7,-0.5 0.2,-0.1 0.5,-0.2 0.8,-0.1 0.2,0 0.4,0.1 0.6,0.2 0.2,0.1 0.3,0.2 0.4,0.3 0.1,0.1 0.3,0.3 0.4,0.5 0.2,0.3 0.4,0.6 0.6,0.9 0.2,0.4 0.4,0.8 0.5,1.3 0.2,0.5 0.3,1 0.4,1.5 0.1,0.5 0.2,1.1 0.3,1.7 0.1,1.3 0.1,2.5 0,3.8 -0.1,1.2 -0.3,2.2 -0.4,2.8 l 0,0.2 c -0.1,1 -0.3,1.9 -0.6,2.8 -0.3,0.8 -0.7,1.6 -1.2,2.3 -0.3,0.4 -0.6,0.6 -1,0.9 -0.4,0.2 -0.8,0.3 -1.3,0.3 -0.4,0 -0.8,-0.1 -1.1,-0.3 -0.3,-0.1 -0.5,-0.3 -0.8,-0.5 -0.2,-0.1 -0.3,-0.3 -0.5,-0.4 l -0.2,-0.2 0.1,0.1 z"
       id="path230"
       inkscape:connector-curvature="0" /><path
       class="st20"
       d="m 823.5,658.1 c -0.6,1.4 -1,2.9 -1.1,4.4 -0.2,2.6 0.2,4.4 1.2,4 1,-0.4 2.2,-2.5 2.4,-5.1 0.2,-2.6 -0.6,-4.7 -1.6,-4.3 -0.3,0.2 -0.7,0.5 -0.9,1 l 0,0 z"
       id="path232"
       inkscape:connector-curvature="0"
       style="fill:#834317;stroke:#000000;stroke-width:1.99000001" /><path
       class="st20"
       d="m 830.5,658.1 c -0.8,0.9 -1.3,2 -1.6,3.1 -0.7,2.2 -0.8,4.3 0,4.9 0.8,0.6 1.9,-0.3 2.6,-2.5 0.7,-2.2 0.6,-4.9 -0.1,-5.5 -0.3,-0.2 -0.6,-0.2 -0.9,0 l 0,0 z"
       id="path234"
       inkscape:connector-curvature="0"
       style="fill:#834317;stroke:#000000;stroke-width:1.99000001" /><path
       class="st20"
       d="m 834.3,664.7 c -0.7,0.7 -1.2,1.6 -1.4,2.6 -0.6,1.9 -0.8,3.7 -0.2,4.3 0.6,0.6 1.6,-0.1 2.2,-1.9 0.6,-1.8 0.6,-4.3 0,-4.9 -0.1,-0.2 -0.4,-0.2 -0.6,-0.1 z"
       id="path236"
       inkscape:connector-curvature="0"
       style="fill:#834317;stroke:#000000;stroke-width:1.99000001" /><path
       d="m 829.6,655.3 0.3,0 c 0.3,0 0.5,0.1 0.8,0.1 l 0,0 c 1.6,0.3 3.1,1.2 4.1,2.5 0.4,0.5 0.7,1 1,1.6 0.3,0.6 0.5,1.3 0.7,2 0.1,0.5 0.2,1.1 0.3,1.6 0,0.5 0.1,0.9 0.1,1.3 0,0.4 0,0.7 0,1 l 0,0.2 c 0,0.8 0.1,2.3 0.2,3.8 0.1,1.5 0.1,3.2 0.1,4.5 0,1 0,1.8 0,2.2 -0.1,0.9 -0.2,1.8 -0.4,2.6 -0.3,1.3 -0.7,2.6 -1.2,3.8 -0.3,1 -0.7,1.9 -1,2.7 -0.3,0.8 -0.6,1.3 -0.7,1.7 -0.3,0.9 -0.8,1.7 -1.3,2.5 -0.6,0.8 -1.3,1.6 -2.1,2.1 -0.7,0.4 -1.4,0.7 -2.2,0.9 -0.3,0.1 -0.5,0.1 -0.5,0.2 0,0.1 0.1,0.1 0.4,0.2 0.4,0.1 0.8,0.1 1.1,0.1 0.6,0 1.1,-0.2 1.7,-0.4 0.5,-0.2 1,-0.5 1.5,-0.8 0.5,-0.4 1,-0.8 1.4,-1.2 0.6,-0.7 1.2,-1.4 1.6,-2.2 0.4,-0.7 0.7,-1.3 0.9,-2.1 0.3,-1.1 0.5,-2.1 0.7,-3.2 0.3,-1.6 0.4,-3.1 0.5,-4.4 0.1,-1.3 0.2,-2.4 0.3,-3.2 0,-0.3 0.1,-0.8 0.2,-1.4 0.2,-1 0.3,-2.4 0.5,-3.9 0.2,-1.5 0.2,-3.1 0.2,-4.5 0,-0.8 -0.1,-1.6 -0.2,-2.5 -0.1,-0.6 -0.3,-1.2 -0.5,-1.8 -0.3,-0.8 -0.7,-1.6 -1.2,-2.3 -0.4,-0.6 -0.9,-1.2 -1.5,-1.7 -0.5,-0.5 -1.2,-0.9 -1.8,-1.3 -0.5,-0.2 -1,-0.4 -1.5,-0.5 -0.4,-0.1 -0.8,-0.2 -1.3,-0.2 -0.3,0 -0.6,0 -0.8,0 l -0.2,0 -0.2,0 0,0 z"
       id="path238"
       inkscape:connector-curvature="0" /><path
       d="m 843.7,660 0,0 0.3,-0.1 0,0 0.8,-0.2 c 0.9,-0.2 1.7,-0.4 2.4,-0.6 1.2,-0.2 2.1,-0.4 2.8,-0.4 0.5,0 0.9,-0.1 1.2,-0.1 0.3,0 0.6,0 0.8,0 l 0.3,0 c 0.3,0 0.9,0 1.6,-0.1 0.7,-0.1 1.6,-0.1 2.5,-0.1 0.9,0 1.7,0.1 2.6,0.2 0.4,0.1 0.8,0.2 1.2,0.3 0.3,0.1 0.6,0.3 0.9,0.4 -0.1,-0.2 -0.3,-0.3 -0.4,-0.5 -0.2,-0.2 -0.4,-0.3 -0.6,-0.4 -0.3,-0.2 -0.6,-0.3 -0.8,-0.4 -0.9,-0.4 -1.8,-0.6 -2.7,-0.8 -0.8,-0.2 -1.6,-0.3 -2.5,-0.4 -0.8,-0.1 -1.5,-0.1 -2.3,-0.1 -0.4,0 -0.9,0.1 -1.3,0.1 -0.3,0 -0.5,0.1 -0.8,0.2 l -0.1,0 c -0.6,0.3 -1.7,0.7 -2.7,1.2 -0.8,0.4 -1.7,0.8 -2.3,1.1 l -0.7,0.4 -0.2,0.3 0,0 0,0 0,0 z"
       id="path240"
       inkscape:connector-curvature="0" /><path
       d="m 883.1,661.5 c 1.1,-0.7 2,-1.2 2.8,-1.7 l 0,0 c 0.4,-0.2 0.8,-0.3 1.2,-0.3 0.3,-0.1 0.7,-0.1 1,0 0.4,0.1 0.9,0.2 1.2,0.5 0.3,0.2 0.5,0.4 0.7,0.7 0.1,0.1 0.2,0.3 0.2,0.5 0.1,0.1 0.1,0.3 0.1,0.4 l 0.1,0.2 c 0.1,0.2 0.1,0.4 0.1,0.7 0,0.3 0,0.6 0,0.9 0,0.7 -0.1,1.5 -0.3,2.2 -0.2,0.6 -0.4,1.3 -0.6,1.9 -0.1,0.3 -0.2,0.5 -0.3,0.6 -0.3,0.5 -0.6,0.9 -1,1.3 -0.6,0.6 -1.2,1.2 -1.8,1.7 -0.6,0.4 -1.2,0.8 -1.8,1.1 -0.5,0.3 -1,0.5 -1.2,0.6 -0.2,0.1 -0.4,0.2 -0.6,0.3 l -1,0.3 c -0.4,0.1 -0.7,0.3 -1.1,0.3 -0.3,0.1 -0.7,0.2 -1.1,0.2 -0.3,0 -0.6,0 -0.9,-0.2 -0.1,0 -0.1,0 -0.2,-0.1 l 0,0 c 0,0 -0.1,-0.1 -0.1,-0.1 l 0,0 c -0.1,0 -0.1,0.1 -0.2,0.2 0,0.1 0,0.2 0,0.2 0.1,0.1 0.2,0.2 0.3,0.3 0.3,0.2 0.6,0.4 0.9,0.5 0.4,0.1 0.8,0.2 1.3,0.3 0.5,0 0.9,0 1.4,0 0.4,0 0.9,-0.1 1.3,-0.2 0.7,-0.1 1.4,-0.4 2,-0.9 0.7,-0.6 1.4,-1.3 2,-2 0.6,-0.8 1.1,-1.6 1.6,-2.4 0.4,-0.7 0.8,-1.4 1,-1.8 l 0.1,-0.1 c 0.4,-0.5 0.7,-1.1 1,-1.6 0.4,-0.8 0.8,-1.7 1,-2.7 0.1,-0.7 0.1,-1.4 0,-2.2 -0.1,-0.7 -0.4,-1.4 -0.9,-1.9 -0.4,-0.4 -0.8,-0.8 -1.3,-1 -0.6,-0.2 -1.2,-0.3 -1.8,-0.3 -0.5,0 -1,0.2 -1.4,0.3 -0.4,0.2 -0.9,0.4 -1.3,0.7 -1.4,1.2 -2.5,2.3 -2.5,2.3 l 0.1,0.3 z"
       id="path242"
       inkscape:connector-curvature="0" /><path
       d="m 815.4,652.3 c 1.2,-0.1 2.4,-0.1 3.5,-0.1 1.2,0.1 1.8,0.2 2.3,0.2 l 0.4,0 c 0.6,-0.1 1.2,-0.2 1.8,-0.3 0.3,-0.1 0.6,-0.1 1,-0.2 0.3,-0.1 0.6,-0.2 0.9,-0.2 0.3,-0.1 0.7,-0.1 1,-0.1 0.3,0 0.6,0.1 0.9,0.1 -0.2,-0.1 -0.3,-0.3 -0.5,-0.3 -0.5,-0.3 -1,-0.4 -1.5,-0.5 -0.3,0 -0.6,0 -1,-0.1 -0.4,-0.1 -0.6,0 -0.9,0 -0.6,0 -1.2,-0.1 -1.8,-0.1 -0.6,-0.1 -1.3,-0.1 -1.9,0.1 l -0.8,0.3 c -1.3,0.4 -3.4,1.3 -3.4,1.2 l 0,0 z"
       id="path244"
       inkscape:connector-curvature="0" /><g
       id="path3332">
       <!-- <image
         sodipodi:absref="/home/daniel/Projects/L2TOR_project/freeplay-sandbox/qt-gui/res/7E52D797.png"
         xlink:href="7E52D797.png"
         id="image247"
         transform="matrix(0.9821,0,0,0.9955,696,480)"
         height="221"
         width="56"
         style="overflow:visible;opacity:0.75;enable-background:new" /> -->
         <linearGradient
         id="SVGID_1_"
         gradientUnits="userSpaceOnUse"
         x1="1298.2297"
         y1="770.68182"
         x2="1325.9598"
         y2="773.9118"
         gradientTransform="translate(-600.88,-192.22)"><stop
           offset="0"
           style="stop-color:#114F5F"
           id="stop250" /><stop
           offset="0.49"
           style="stop-color:#1FB3D8"
           id="stop252" /><stop
           offset="1"
           style="stop-color:#0A3A47"
           id="stop254" /></linearGradient><polyline
         class="st21"
         points="708.2,680.5 697.5,676.7 706.5,578 718.3,481 731.5,481.6 728.4,545.4 720.8,606 712,678.6   "
         id="polyline256"
         style="fill:url(#SVGID_1_)" /><polyline
         class="st2"
         points="708.2,680.5 697.5,676.7 706.5,578 718.3,481 731.5,481.6 728.4,545.4 720.8,606 712,678.6   "
         id="polyline258"
         style="fill:none;stroke:#000000" /></g><g
       id="path3340">
       <!-- <image
         sodipodi:absref="/home/daniel/Projects/L2TOR_project/freeplay-sandbox/qt-gui/res/7E52D79A.png"
         xlink:href="7E52D79A.png"
         id="image261"
         transform="matrix(0.9946,0,0,0.98,719,576)"
         height="50"
         width="184"
         style="overflow:visible;opacity:0.75;enable-background:new" /> -->
         <linearGradient
         id="SVGID_2_"
         gradientUnits="userSpaceOnUse"
         x1="1401.3461"
         y1="793.70947"
         x2="1403.6261"
         y2="774.31952"
         gradientTransform="translate(-600.88,-192.22)"><stop
           offset="0"
           style="stop-color:#114F5F"
           id="stop264" /><stop
           offset="0.49"
           style="stop-color:#1FB3D8"
           id="stop266" /><stop
           offset="1"
           style="stop-color:#0A3A47"
           id="stop268" /></linearGradient><path
         class="st22"
         d="m 725,577.3 c 0,0 -4.6,2 -4.9,4.7 -0.4,3.1 2.7,4.9 2.7,4.9 l 159.8,19.4 -0.2,-10 -123.2,-14.1 -34.2,-4.9 z"
         id="path270"
         style="fill:url(#SVGID_2_)"
         inkscape:connector-curvature="0" /><path
         class="st2"
         d="m 725,577.3 c 0,0 -4.6,2 -4.9,4.7 -0.4,3.1 2.7,4.9 2.7,4.9 l 159.8,19.4 -0.2,-10 -123.2,-14.1 -34.2,-4.9 z"
         id="path272"
         inkscape:connector-curvature="0"
         style="fill:none;stroke:#000000" /></g><g
       id="path3342">
       <!-- <image
         sodipodi:absref="/home/daniel/Projects/L2TOR_project/freeplay-sandbox/qt-gui/res/7E52D79B.png"
         xlink:href="7E52D79B.png"
         id="image275"
         transform="matrix(0.9943,0,0,0.9787,724,525)"
         height="47"
         width="176"
         style="overflow:visible;opacity:0.75;enable-background:new" /> -->
         <linearGradient
         id="SVGID_3_"
         gradientUnits="userSpaceOnUse"
         x1="1402.1271"
         y1="745.0097"
         x2="1404.317"
         y2="722.36969"
         gradientTransform="translate(-600.88,-192.22)"><stop
           offset="0"
           style="stop-color:#114F5F"
           id="stop278" /><stop
           offset="0.49"
           style="stop-color:#1FB3D8"
           id="stop280" /><stop
           offset="1"
           style="stop-color:#0A3A47"
           id="stop282" /></linearGradient><path
         class="st23"
         d="m 730.1,526.4 c 0,0 -5.1,1.1 -5.1,5.1 -0.1,2.2 1.3,4.3 3.3,5.1 l 151.4,15.2 -0.5,-10 -148.2,-15.1 -0.9,-0.3 z"
         id="path284"
         style="fill:url(#SVGID_3_)"
         inkscape:connector-curvature="0" /><path
         class="st2"
         d="m 730.1,526.4 c 0,0 -5.1,1.1 -5.1,5.1 -0.1,2.2 1.3,4.3 3.3,5.1 l 151.4,15.2 -0.5,-10 -148.2,-15.1 -0.9,-0.3 z"
         id="path286"
         inkscape:connector-curvature="0"
         style="fill:none;stroke:#000000" /></g><g
       id="path3334">
       <!-- <image
         sodipodi:absref="/home/daniel/Projects/L2TOR_project/freeplay-sandbox/qt-gui/res/7E52D79D.png"
         xlink:href="7E52D79D.png"
         id="image289"
         transform="matrix(0.9787,0,0,0.9957,878,490)"
         height="233"
         width="47"
         style="overflow:visible;opacity:0.75;enable-background:new" /> -->
         <linearGradient
         id="SVGID_4_"
         gradientUnits="userSpaceOnUse"
         x1="1479.0701"
         y1="789.96057"
         x2="1506.3401"
         y2="788.02063"
         gradientTransform="translate(-600.88,-192.22)"><stop
           offset="0"
           style="stop-color:#114F5F"
           id="stop292" /><stop
           offset="0.49"
           style="stop-color:#1FB3D8"
           id="stop294" /><stop
           offset="1"
           style="stop-color:#0A3A47"
           id="stop296" /></linearGradient><polygon
         class="st24"
         points="903.9,664.8 905.2,702 893.2,703.3 882.8,614 878.7,528.4 878.7,491.1 889.4,491.1 895.7,528.4 900.1,590.9 "
         id="polygon298"
         style="fill:url(#SVGID_4_)" /><polygon
         class="st2"
         points="903.9,664.8 905.2,702 893.2,703.3 882.8,614 878.7,528.4 878.7,491.1 889.4,491.1 895.7,528.4 900.1,590.9 "
         id="polygon300"
         style="fill:none;stroke:#000000" /></g><g
       id="path3393">
       <!-- <image
         sodipodi:absref="/home/daniel/Projects/L2TOR_project/freeplay-sandbox/qt-gui/res/41F92766.png"
         xlink:href="41F92766.png"
         id="image303"
         transform="matrix(0.9677,0,0,0.9948,834,282)"
         height="191"
         width="31"
         style="overflow:visible;opacity:0.75;enable-background:new" /> -->
         <linearGradient
         id="SVGID_5_"
         gradientUnits="userSpaceOnUse"
         x1="1435.7001"
         y1="559.9386"
         x2="1447.62"
         y2="560.25861"
         gradientTransform="translate(-600.88,-192.22)"><stop
           offset="0"
           style="stop-color:#114F5F"
           id="stop306" /><stop
           offset="0.49"
           style="stop-color:#1FB3D8"
           id="stop308" /><stop
           offset="1"
           style="stop-color:#0A3A47"
           id="stop310" /></linearGradient><path
         class="st25"
         d="m 835.2,451.1 c 0,0 1.2,-76.5 1.2,-88.9 0,-12.4 3.8,-79.4 3.8,-79.4 l 4.9,0.5 c 0,0 -1.2,82.5 -1.2,97.4 0,14.9 -2,71.1 -2,71.1 -1,0.5 -2.2,0.8 -3.3,0.9 -1.3,-0.3 -2.4,-0.8 -3.4,-1.6 l 0,0 z"
         id="path312"
         style="fill:url(#SVGID_5_)"
         inkscape:connector-curvature="0" /><path
         class="st2"
         d="m 835.2,451.1 c 0,0 1.2,-76.5 1.2,-88.9 0,-12.4 3.8,-79.4 3.8,-79.4 l 4.9,0.5 c 0,0 -1.2,82.5 -1.2,97.4 0,14.9 -2,71.1 -2,71.1 -1,0.5 -2.2,0.8 -3.3,0.9 -1.3,-0.3 -2.4,-0.8 -3.4,-1.6 l 0,0 z"
         id="path314"
         inkscape:connector-curvature="0"
         style="fill:none;stroke:#000000" /></g><g
       id="path3395">
       <!-- <image
         sodipodi:absref="/home/daniel/Projects/L2TOR_project/freeplay-sandbox/qt-gui/res/41F92761.png"
         xlink:href="41F92761.png"
         id="image317"
         transform="matrix(0.975,0,0,0.9947,856,285)"
         height="190"
         width="40"
         style="overflow:visible;opacity:0.75;enable-background:new" /> -->
         <linearGradient
         id="SVGID_6_"
         gradientUnits="userSpaceOnUse"
         x1="1459.8206"
         y1="562.04358"
         x2="1475.5405"
         y2="563.33362"
         gradientTransform="translate(-600.88,-192.22)"><stop
           offset="0"
           style="stop-color:#114F5F"
           id="stop320" /><stop
           offset="0.49"
           style="stop-color:#1FB3D8"
           id="stop322" /><stop
           offset="1"
           style="stop-color:#0A3A47"
           id="stop324" /></linearGradient><path
         class="st26"
         d="m 857,453.2 c 0,0 3.7,-63 5.3,-77.8 1.6,-14.8 8.8,-89.6 8.8,-89.6 l 5,0.5 -0.3,3.5 c 0,0 -4.5,87.2 -6.6,111.1 -2.1,23.9 -4.9,53.5 -4.9,53.5 -1.4,0.4 -2.8,0.6 -4.3,0.5 -1,-0.4 -2.1,-1 -3,-1.7 l 0,0 z"
         id="path326"
         style="fill:url(#SVGID_6_)"
         inkscape:connector-curvature="0" /><path
         class="st2"
         d="m 857,453.2 c 0,0 3.7,-63 5.3,-77.8 1.6,-14.8 8.8,-89.6 8.8,-89.6 l 5,0.5 -0.3,3.5 c 0,0 -4.5,87.2 -6.6,111.1 -2.1,23.9 -4.9,53.5 -4.9,53.5 -1.4,0.4 -2.8,0.6 -4.3,0.5 -1,-0.4 -2.1,-1 -3,-1.7 l 0,0 z"
         id="path328"
         inkscape:connector-curvature="0"
         style="fill:none;stroke:#000000" /></g><g
       id="path3397">
       <!-- <image
         sodipodi:absref="/home/daniel/Projects/L2TOR_project/freeplay-sandbox/qt-gui/res/41F92762.png"
         xlink:href="41F92762.png"
         id="image331"
         transform="matrix(0.9778,0,0,0.9948,880,286)"
         height="191"
         width="45"
         style="overflow:visible;opacity:0.75;enable-background:new" /> -->
         <linearGradient
         id="SVGID_7_"
         gradientUnits="userSpaceOnUse"
         x1="1487.7266"
         y1="563.03882"
         x2="1501.0966"
         y2="564.64868"
         gradientTransform="translate(-600.88,-192.22)"><stop
           offset="0"
           style="stop-color:#114F5F"
           id="stop334" /><stop
           offset="0.49"
           style="stop-color:#1FB3D8"
           id="stop336" /><stop
           offset="1"
           style="stop-color:#0A3A47"
           id="stop338" /></linearGradient><path
         class="st27"
         d="m 883.5,456.5 c -2.4,-0.5 -3,-1.5 -3,-1.5 0,0 5.7,-55.3 6.9,-65.9 1.2,-10.6 13.6,-102.3 13.6,-102.3 l 4.4,0.2 c 0,0 -8.9,89.7 -11.4,112.3 -2.5,22.6 -6.5,56.4 -6.5,56.4 -1.1,0.8 -2.6,1.1 -4,0.8 l 0,0 z"
         id="path340"
         style="fill:url(#SVGID_7_)"
         inkscape:connector-curvature="0" /><path
         class="st2"
         d="m 883.5,456.5 c -2.4,-0.5 -3,-1.5 -3,-1.5 0,0 5.7,-55.3 6.9,-65.9 1.2,-10.6 13.6,-102.3 13.6,-102.3 l 4.4,0.2 c 0,0 -8.9,89.7 -11.4,112.3 -2.5,22.6 -6.5,56.4 -6.5,56.4 -1.1,0.8 -2.6,1.1 -4,0.8 l 0,0 z"
         id="path342"
         inkscape:connector-curvature="0"
         style="fill:none;stroke:#000000" /></g><g
       id="path3399">
       <!-- <image
         sodipodi:absref="/home/daniel/Projects/L2TOR_project/freeplay-sandbox/qt-gui/res/41F92760.png"
         xlink:href="41F92760.png"
         id="image345"
         transform="matrix(0.9808,0,0,0.9948,903,285)"
         height="194"
         width="52"
         style="overflow:visible;opacity:0.75;enable-background:new" /> -->
         <linearGradient
         id="SVGID_8_"
         gradientUnits="userSpaceOnUse"
         x1="1515.0667"
         y1="563.88342"
         x2="1528.4366"
         y2="565.7934"
         gradientTransform="translate(-600.88,-192.22)"><stop
           offset="0"
           style="stop-color:#114F5F"
           id="stop348" /><stop
           offset="0.49"
           style="stop-color:#1FB3D8"
           id="stop350" /><stop
           offset="1"
           style="stop-color:#0A3A47"
           id="stop352" /></linearGradient><path
         class="st28"
         d="m 907.6,458.9 c -1.1,-0.6 -2.1,-1.3 -3.1,-2.1 0,0 7.2,-53 9.3,-64.1 2.1,-11.1 17,-106.2 17,-106.2 l 4.3,-0.1 c 0,0 -12.8,101.7 -14.8,119.8 -2,18.1 -7.7,52.1 -7.7,52.1 0,0 -3.5,1.3 -5,0.6 l 0,0 z"
         id="path354"
         style="fill:url(#SVGID_8_)"
         inkscape:connector-curvature="0" /><path
         class="st2"
         d="m 907.6,458.9 c -1.1,-0.6 -2.1,-1.3 -3.1,-2.1 0,0 7.2,-53 9.3,-64.1 2.1,-11.1 17,-106.2 17,-106.2 l 4.3,-0.1 c 0,0 -12.8,101.7 -14.8,119.8 -2,18.1 -7.7,52.1 -7.7,52.1 0,0 -3.5,1.3 -5,0.6 l 0,0 z"
         id="path356"
         inkscape:connector-curvature="0"
         style="fill:none;stroke:#000000" /></g><g
       id="path3352">
       <!-- <image
         sodipodi:absref="/home/daniel/Projects/L2TOR_project/freeplay-sandbox/qt-gui/res/41F9277E.png"
         xlink:href="41F9277E.png"
         id="image359"
         transform="matrix(0.9744,0,0,0.996,795,220)"
         height="253"
         width="39"
         style="overflow:visible;opacity:0.75;enable-background:new" /> -->
         <linearGradient
         id="SVGID_9_"
         gradientUnits="userSpaceOnUse"
         x1="1396.451"
         y1="528.60828"
         x2="1415.8611"
         y2="529.25818"
         gradientTransform="translate(-600.88,-192.22)"><stop
           offset="0"
           style="stop-color:#06485C"
           id="stop362" /><stop
           offset="0.47"
           style="stop-color:#089BC7"
           id="stop364" /><stop
           offset="1"
           style="stop-color:#046480"
           id="stop366" /></linearGradient><path
         class="st29"
         d="m 797,451.2 c 0,0 0.3,-71.9 0.3,-73.2 0,-1.3 1.8,-6.7 1.8,-6.7 0,0 -2.7,-1.3 -2.2,-3.6 0.5,-2.3 3.1,-4 3.1,-4 0,0 -4.5,-4.5 -4,-8.9 0.5,-4.4 4.5,-54 4.5,-56.7 0,-2.7 -2.2,-5.8 -2.2,-7.1 0,-1.3 1.8,-4 1.8,-4 0,0 -2.2,-1.9 -2.2,-3.1 0,-1.2 1.9,-2.4 1.9,-2.4 l 0.8,-35.5 c 0,0 -2.7,-0.7 -2,-4 0.7,-3.3 3.8,-6.3 4,-7.1 0.2,-0.8 -2.5,-2 -2.5,-2 0,0 -6.9,-13.2 6.5,-12.1 13.4,1.1 4.8,12.3 4.5,13.4 -1.2,3.8 1.6,2.9 1.9,8.6 0.1,2 -1.9,4.1 -1.9,4.1 l 0,35.5 c 0,0 2.4,0.6 2.4,2.6 0,1.2 -0.8,2.2 -1.9,2.5 0.7,0.9 1.2,2 1.3,3.2 0,1.3 -2.2,2 -2.2,3.8 0,1.8 1.6,60.3 1.3,62.5 -0.3,2.2 -2.7,7.6 -2.7,7.6 0,0 2.5,1.6 2.5,4 -0.1,1.5 -0.9,3 -2.2,3.8 0,0 1.8,16.8 1.7,20.1 -0.3,7.4 -3.3,58.7 -3.3,58.7 0,0 -3.5,1.8 -5.4,1.9 -1.9,0.1 -5.6,-2 -5.6,-1.9 l 0,0 z"
         id="path368"
         style="fill:url(#SVGID_9_)"
         inkscape:connector-curvature="0" /><path
         class="st2"
         d="m 797,451.2 c 0,0 0.3,-71.9 0.3,-73.2 0,-1.3 1.8,-6.7 1.8,-6.7 0,0 -2.7,-1.3 -2.2,-3.6 0.5,-2.3 3.1,-4 3.1,-4 0,0 -4.5,-4.5 -4,-8.9 0.5,-4.4 4.5,-54 4.5,-56.7 0,-2.7 -2.2,-5.8 -2.2,-7.1 0,-1.3 1.8,-4 1.8,-4 0,0 -2.2,-1.9 -2.2,-3.1 0,-1.2 1.9,-2.4 1.9,-2.4 l 0.8,-35.5 c 0,0 -2.7,-0.7 -2,-4 0.7,-3.3 3.8,-6.3 4,-7.1 0.2,-0.8 -2.5,-2 -2.5,-2 0,0 -6.9,-13.2 6.5,-12.1 13.4,1.1 4.8,12.3 4.5,13.4 -1.2,3.8 1.6,2.9 1.9,8.6 0.1,2 -1.9,4.1 -1.9,4.1 l 0,35.5 c 0,0 2.4,0.6 2.4,2.6 0,1.2 -0.8,2.2 -1.9,2.5 0.7,0.9 1.2,2 1.3,3.2 0,1.3 -2.2,2 -2.2,3.8 0,1.8 1.6,60.3 1.3,62.5 -0.3,2.2 -2.7,7.6 -2.7,7.6 0,0 2.5,1.6 2.5,4 -0.1,1.5 -0.9,3 -2.2,3.8 0,0 1.8,16.8 1.7,20.1 -0.3,7.4 -3.3,58.7 -3.3,58.7 0,0 -3.5,1.8 -5.4,1.9 -1.9,0.1 -5.6,-2 -5.6,-1.9 l 0,0 z"
         id="path370"
         inkscape:connector-curvature="0"
         style="fill:none;stroke:#000000" /></g><path
       id="path4187"
       class="st30"
       d="m 810.9,279.8 c 0,0 66.3,6.4 76.1,6.4 9.8,0 72.9,-0.5 72.9,-0.5 l -0.7,1.6 c 0,0 -66.8,0.9 -74.1,0.5 -7.3,-0.5 -74.3,-6.2 -74.3,-6.2 l 0,-1.8 z"
       inkscape:connector-curvature="0"
       style="fill:#094f65" /><path
       id="path3354"
       class="st31"
       d="m 802.1,234 c 0,0 3.2,-1.5 8.5,0.1"
       inkscape:connector-curvature="0"
       style="fill:#089bc7;stroke:#000000" /><path
       id="path3356"
       class="st31"
       d="m 800.3,245.7 c 0,0 6.8,-2 11,0.4"
       inkscape:connector-curvature="0"
       style="fill:#089bc7;stroke:#000000" /><path
       id="path3358"
       class="st31"
       d="m 800.1,286.6 c 0,0 4.2,-1.7 11.8,0.4"
       inkscape:connector-curvature="0"
       style="fill:#089bc7;stroke:#000000" /><path
       id="path3360"
       class="st31"
       d="m 798.9,292.1 c 0,0 7.7,-2.4 12.8,0.2"
       inkscape:connector-curvature="0"
       style="fill:#089bc7;stroke:#000000" /><path
       id="path3362"
       class="st31"
       d="m 799.9,363.6 c 0,0 5.8,-1.2 8.9,0.5"
       inkscape:connector-curvature="0"
       style="fill:#089bc7;stroke:#000000" /><path
       id="path3364"
       class="st31"
       d="m 799.1,371.3 c 0,0 5.9,-1.5 10.9,0.3"
       inkscape:connector-curvature="0"
       style="fill:#089bc7;stroke:#000000" /><linearGradient
       id="path4349_1_"
       gradientUnits="userSpaceOnUse"
       x1="1536.8584"
       y1="663.70508"
       x2="1444.3884"
       y2="693.45508"
       gradientTransform="translate(-600.88,-192.22)"><stop
         offset="0"
         style="stop-color:#06627E"
         id="stop380" /><stop
         offset="1"
         style="stop-color:#089BC7;stop-opacity:0"
         id="stop382" /></linearGradient><path
       id="path4349"
       class="st32"
       d="m 886.2,478.7 0.7,14.1 11.1,-0.4 24.6,-8.2 22.8,-8.3 0.3,-6.4 -0.5,-7.1 -18.9,7.8 c 0,0 -19.3,6.8 -25.1,7.7 -5.1,0.7 -10,1 -15,0.8 l 0,0 z"
       style="fill:url(#path4349_1_)"
       inkscape:connector-curvature="0" /><g
       id="path3348">
       <!-- <image
         sodipodi:absref="/home/daniel/Projects/L2TOR_project/freeplay-sandbox/qt-gui/res/41F92763.png"
         xlink:href="41F92763.png"
         id="image386"
         transform="matrix(0.9961,0,0,0.9851,708,448)"
         height="67"
         width="258"
         style="overflow:visible;opacity:0.75;enable-background:new" /> -->
         <path
         class="st33"
         d="m 709.5,463 0,16.1 c 5.1,1.8 10.4,3.1 15.8,4.1 6.6,1 86.8,10.7 90,10.7 3.2,0 48.6,0.6 53,0.6 4.4,0 24.3,-1.6 28.1,-1.6 3.8,0 49.3,-16.7 49.3,-16.7 l 0.3,-4.1 -0.7,-12.7 -4.1,-1.6 -115.5,-8.2 -12.3,-1 -20.5,0.6 -52.4,7 -26.8,4.7 -4.2,2.1 z"
         id="path388"
         inkscape:connector-curvature="0"
         style="fill:#089bc7" /><path
         class="st2"
         d="m 709.5,463 0,16.1 c 5.1,1.8 10.4,3.1 15.8,4.1 6.6,1 86.8,10.7 90,10.7 3.2,0 48.6,0.6 53,0.6 4.4,0 24.3,-1.6 28.1,-1.6 3.8,0 49.3,-16.7 49.3,-16.7 l 0.3,-4.1 -0.7,-12.7 -4.1,-1.6 -115.5,-8.2 -12.3,-1 -20.5,0.6 -52.4,7 -26.8,4.7 -4.2,2.1 z"
         id="path390"
         inkscape:connector-curvature="0"
         style="fill:none;stroke:#000000" /></g><path
       id="path3350"
       class="st2"
       d="m 709.8,463.3 c 0,0 27.2,8.2 36.3,8.2 9.1,0 79.2,6.6 84.6,6.6 5.4,0 59.7,0.3 59.7,0.3 0,0 7,-0.6 12,-1 5,-0.4 39.8,-13.2 41.7,-14.8 1.9,-1.6 1.2,-2.9 1.2,-2.9"
       inkscape:connector-curvature="0"
       style="fill:none;stroke:#000000" /><g
       id="path3391">
       <!-- <image
         sodipodi:absref="/home/daniel/Projects/L2TOR_project/freeplay-sandbox/qt-gui/res/41F92767.png"
         xlink:href="41F92767.png"
         id="image394"
         transform="matrix(0.9944,0,0,0.9839,809,246)"
         height="62"
         width="178"
         style="overflow:visible;opacity:0.75;enable-background:new" /> -->
         <path
         class="st33"
         d="m 811.1,247.5 c 0,0 62.1,4.9 75.3,5.8 13.2,0.9 80.6,-0.4 80.6,-0.4 l -6,34.6 c 0,0 -67.3,0.6 -75.3,0 -8,-0.6 -75.5,-6.2 -75.5,-6.2 l -0.6,-34.1 1.5,0.3 z"
         id="path396"
         inkscape:connector-curvature="0"
         style="fill:#089bc7" /><path
         class="st2"
         d="m 811.1,247.5 c 0,0 62.1,4.9 75.3,5.8 13.2,0.9 80.6,-0.4 80.6,-0.4 l -6,34.6 c 0,0 -67.3,0.6 -75.3,0 -8,-0.6 -75.5,-6.2 -75.5,-6.2 l -0.6,-34.1 1.5,0.3 z"
         id="path398"
         inkscape:connector-curvature="0"
         style="fill:none;stroke:#000000" /></g><g
       id="path3377">
       <!-- <image
         sodipodi:absref="/home/daniel/Projects/L2TOR_project/freeplay-sandbox/qt-gui/res/41F92765.png"
         xlink:href="41F92765.png"
         id="image401"
         transform="matrix(0.9872,0,0,0.9961,927,225)"
         height="256"
         width="78"
         style="overflow:visible;opacity:0.75;enable-background:new" /> -->
         <linearGradient
         id="SVGID_10_"
         gradientUnits="userSpaceOnUse"
         x1="1548.0992"
         y1="534.01331"
         x2="1564.5592"
         y2="537.67328"
         gradientTransform="translate(-600.88,-192.22)"><stop
           offset="0"
           style="stop-color:#06485C"
           id="stop404" /><stop
           offset="0.47"
           style="stop-color:#089BC7"
           id="stop406" /><stop
           offset="1"
           style="stop-color:#046480"
           id="stop408" /></linearGradient><path
         class="st34"
         d="m 928.3,458.7 c 0,0 11.8,-71.6 12,-73 0.2,-1.4 2.7,-6.1 2.7,-6.1 -0.8,-1.4 -1.2,-2.9 -1.1,-4.5 0.2,-1.4 1.1,-2.6 2.3,-3.2 0,0 -2.1,-6 -0.9,-10.5 1.2,-4.5 13.8,-55.9 14.3,-58.6 0.5,-2.7 -0.4,-6.9 -0.2,-8.3 0.1,-0.8 0.8,-1.4 1.6,-1.5 0,0 -1.4,-2 -1.2,-3.3 0.2,-1.3 2,-2.3 2,-2.3 0,0 1.7,-12.1 2.7,-18.1 1.1,-6 4.8,-18.4 4.8,-18.4 0,0 -1.3,-1 -0.1,-4.3 1.2,-3.3 2.4,-5.4 2.8,-6.3 0.4,-0.9 -0.7,-3.4 -0.7,-3.4 0,0 -3.3,-13 9.7,-10.6 13.2,2.5 1.9,13.1 1.4,14.1 -1.9,3.6 1.6,3.7 0.9,9.6 -0.3,2.1 -2.6,3.9 -2.6,3.9 l -1.7,18.3 -4.7,18 c 0,0 1.3,0.2 1,2.3 -0.2,1.1 -0.7,2.2 -1.5,3 0.1,1.1 0,2.2 -0.3,3.3 -0.4,1.4 -2.7,1.1 -3,2.9 -0.3,1.8 -9.5,62.7 -10.1,64.9 -0.6,2.2 -3.9,7.3 -3.9,7.3 1.2,0.8 1.7,2.3 1.4,3.7 -0.3,1.6 -1.1,3.1 -2.3,4.2 0,0 -1.5,17.6 -2.2,21 l -12.6,57.7 c 0,0 -3.9,1 -5.6,0.7 -1.7,-0.3 -4.9,-2.5 -4.9,-2.5 l 0,0 z"
         id="path410"
         style="fill:url(#SVGID_10_)"
         inkscape:connector-curvature="0" /><path
         class="st35"
         d="m 928.3,458.7 c 0,0 11.8,-71.6 12,-73 0.2,-1.4 2.7,-6.1 2.7,-6.1 -0.8,-1.4 -1.2,-2.9 -1.1,-4.5 0.2,-1.4 1.1,-2.6 2.3,-3.2 0,0 -2.1,-6 -0.9,-10.5 1.2,-4.5 13.8,-55.9 14.3,-58.6 0.5,-2.7 -0.4,-6.9 -0.2,-8.3 0.1,-0.8 0.8,-1.4 1.6,-1.5 0,0 -1.4,-2 -1.2,-3.3 0.2,-1.3 2,-2.3 2,-2.3 0,0 1.7,-12.1 2.7,-18.1 1.1,-6 4.8,-18.4 4.8,-18.4 0,0 -1.3,-1 -0.1,-4.3 1.2,-3.3 2.4,-5.4 2.8,-6.3 0.4,-0.9 -0.7,-3.4 -0.7,-3.4 0,0 -3.3,-13 9.7,-10.6 13.2,2.5 1.9,13.1 1.4,14.1 -1.9,3.6 1.6,3.7 0.9,9.6 -0.3,2.1 -2.6,3.9 -2.6,3.9 l -1.7,18.3 -4.7,18 c 0,0 1.3,0.2 1,2.3 -0.2,1.1 -0.7,2.2 -1.5,3 0.1,1.1 0,2.2 -0.3,3.3 -0.4,1.4 -2.7,1.1 -3,2.9 -0.3,1.8 -9.5,62.7 -10.1,64.9 -0.6,2.2 -3.9,7.3 -3.9,7.3 1.2,0.8 1.7,2.3 1.4,3.7 -0.3,1.6 -1.1,3.1 -2.3,4.2 0,0 -1.5,17.6 -2.2,21 l -12.6,57.7 c 0,0 -3.9,1 -5.6,0.7 -1.7,-0.3 -4.9,-2.5 -4.9,-2.5 l 0,0 z"
         id="path412"
         inkscape:connector-curvature="0"
         style="fill:none;stroke:#000000;stroke-width:1.01999998" /></g><path
       id="path3379"
       class="st36"
       d="m 970.1,237.8 c 3.6,-0.5 7.2,0.1 10.5,1.7"
       inkscape:connector-curvature="0"
       style="fill:#089bc7;stroke:#000000;stroke-width:1.01999998" /><path
       id="path3381"
       class="st36"
       d="m 967.2,250.3 c 0,0 8.3,-0.5 12.1,2.8"
       inkscape:connector-curvature="0"
       style="fill:#089bc7;stroke:#000000;stroke-width:1.01999998" /><path
       id="path3387"
       class="st36"
       d="m 944.6,371.7 c 0,0 8.1,-0.4 10.9,1.9"
       inkscape:connector-curvature="0"
       style="fill:#089bc7;stroke:#000000;stroke-width:1.01999998" /><path
       id="path3389"
       class="st36"
       d="m 943.3,379.4 c 0,0 6.1,-0.3 10.7,2.5"
       inkscape:connector-curvature="0"
       style="fill:#089bc7;stroke:#000000;stroke-width:1.01999998" /><path
       id="path3383"
       class="st36"
       d="m 959,292.7 c 0,0 5.4,-1.3 12.5,2.2"
       inkscape:connector-curvature="0"
       style="fill:#089bc7;stroke:#000000;stroke-width:1.01999998" /><path
       id="path3385"
       class="st36"
       d="m 957.8,298.5 c 0,0 7.3,-2 11.8,1.7"
       inkscape:connector-curvature="0"
       style="fill:#089bc7;stroke:#000000;stroke-width:1.01999998" /></g></svg>
