<?xml version="1.0" encoding="UTF-8" standalone="no"?>
<!-- Generator: Adobe Illustrator 20.0.0, SVG Export Plug-In . SVG Version: 6.00 Build 0)  -->

<svg
   xmlns:dc="http://purl.org/dc/elements/1.1/"
   xmlns:cc="http://creativecommons.org/ns#"
   xmlns:rdf="http://www.w3.org/1999/02/22-rdf-syntax-ns#"
   xmlns:svg="http://www.w3.org/2000/svg"
   xmlns="http://www.w3.org/2000/svg"
   xmlns:xlink="http://www.w3.org/1999/xlink"
   xmlns:sodipodi="http://sodipodi.sourceforge.net/DTD/sodipodi-0.dtd"
   xmlns:inkscape="http://www.inkscape.org/namespaces/inkscape"
   version="1.1"
   id="svg16054"
   inkscape:version="0.91 r13725"
   sodipodi:docname="quiz2.svg"
   x="0px"
   y="0px"
   viewBox="0 0 2125.9999 1187"
   xml:space="preserve"
   width="2126"
   height="1187"><metadata
     id="metadata373"><rdf:RDF><cc:Work
         rdf:about=""><dc:format>image/svg+xml</dc:format><dc:type
           rdf:resource="http://purl.org/dc/dcmitype/StillImage" /><dc:title></dc:title></cc:Work></rdf:RDF></metadata><style
     type="text/css"
     id="style3">
	.st0{fill:#FFFFFF;}
	.st1{fill:#6B3C1F;}
	.st2{fill:none;stroke:#000000;}
	.st3{fill:#6B3C1F;stroke:#000000;stroke-linejoin:round;}
	.st4{fill:url(#SVGID_1_);stroke:#000000;}
	.st5{fill:#8D5027;stroke:#000000;}
	.st6{fill:url(#SVGID_2_);stroke:#000000;}
	.st7{fill:url(#SVGID_3_);}
	.st8{fill:#D28C5F;stroke:#000000;}
	.st9{fill:url(#SVGID_4_);stroke:#000000;}
	.st10{fill:url(#SVGID_5_);stroke:#000000;}
	.st11{fill:url(#SVGID_6_);stroke:#000000;}
	.st12{fill:url(#SVGID_7_);stroke:#000000;}
	.st13{fill:url(#SVGID_8_);stroke:#000000;stroke-width:1.02;}
	.st14{fill:url(#SVGID_9_);stroke:#000000;}
	.st15{fill:#855B3E;}
	.st16{fill:none;stroke:#000000;stroke-width:1.02;}
	.st17{fill:#A05B2B;stroke:#000000;stroke-width:1.02;}
	.st18{fill:#6C5353;stroke:#000000;stroke-width:1.02;}
	.st19{fill:#906F6F;stroke:#000000;stroke-width:1.02;}
	.st20{fill:#A06121;}
	.st21{fill:#6E4A25;}
	.st22{fill:#956C45;stroke:#000000;stroke-width:3;}
	.st23{fill:#B8854F;}
	.st24{fill:#834317;}
	.st25{fill:#5D381E;}
	.st26{fill:none;stroke:#000000;stroke-width:5;}
	.st27{fill:#DDCEBE;}
	.st28{stroke:#000000;stroke-width:5;}
	.st29{fill:#834317;stroke:#000000;stroke-width:3;}
	.st30{fill:url(#SVGID_10_);}
	.st31{fill:url(#SVGID_11_);}
</style><defs
     id="defs5"><inkscape:path-effect
       effect="spiro"
       id="path-effect5341"
       is_visible="true" /><inkscape:path-effect
       effect="spiro"
       id="path-effect17606"
       is_visible="true" /><inkscape:path-effect
       effect="spiro"
       id="path-effect16830"
       is_visible="true" /><inkscape:path-effect
       effect="spiro"
       id="path-effect16826"
       is_visible="true" /><inkscape:path-effect
       effect="spiro"
       id="path-effect16822"
       is_visible="true" /><inkscape:path-effect
       effect="spiro"
       id="path-effect16818"
       is_visible="true" /><inkscape:path-effect
       effect="spiro"
       id="path-effect16814"
       is_visible="true" /><inkscape:path-effect
       effect="spiro"
       id="path-effect16810"
       is_visible="true" /><inkscape:path-effect
       effect="spiro"
       id="path-effect16806"
       is_visible="true" /><inkscape:path-effect
       effect="spiro"
       id="path-effect16802"
       is_visible="true" /><inkscape:path-effect
       effect="spiro"
       id="path-effect16798"
       is_visible="true" /><inkscape:path-effect
       effect="spiro"
       id="path-effect16794"
       is_visible="true" /><inkscape:path-effect
       effect="spiro"
       id="path-effect16790"
       is_visible="true" /><inkscape:path-effect
       effect="spiro"
       id="path-effect16786"
       is_visible="true" /><inkscape:path-effect
       effect="spiro"
       id="path-effect16782"
       is_visible="true" /><inkscape:path-effect
       effect="spiro"
       id="path-effect16778"
       is_visible="true" /><inkscape:path-effect
       effect="spiro"
       id="path-effect16774"
       is_visible="true" /></defs><sodipodi:namedview
     bordercolor="#666666"
     borderlayer="true"
     borderopacity="1.0"
     fit-margin-bottom="0"
     fit-margin-left="0"
     fit-margin-right="0"
     fit-margin-top="0"
     id="base"
     inkscape:current-layer="svg16054"
     inkscape:cx="701.87495"
     inkscape:cy="334.05534"
     inkscape:document-units="cm"
     inkscape:pageopacity="0.0"
     inkscape:pageshadow="2"
     inkscape:window-height="744"
     inkscape:window-maximized="1"
     inkscape:window-width="1366"
     inkscape:window-x="0"
     inkscape:window-y="24"
     inkscape:zoom="0.35"
     pagecolor="#ffffff"
     showgrid="false"
     units="cm" /><g
     id="layer2"
     inkscape:groupmode="layer"
     inkscape:label="background"
     transform="translate(0,237.40002)"><rect
       id="rect4177"
       y="-241.83704"
       class="st0"
       width="2146.4292"
       height="1191.437"
       x="0"
       style="fill:#ffffff" /></g><g
     id="g27"
     transform="matrix(1.5,0,0,1.5,-253.32168,-159.84563)"><g
       id="path3338">
       <!-- <image
         sodipodi:absref="/home/daniel/Projects/L2TOR_project/freeplay-sandbox/qt-gui/res/E55F6EF6.png"
         xlink:href="E55F6EF6.png"
         id="image30"
         transform="matrix(0.9818,0,0,0.9948,727,477)"
         height="193"
         width="55"
         style="overflow:visible;opacity:0.75;enable-background:new" /> -->
         <polygon
         class="st1"
         points="762,513.4 768.7,478.1 776.3,478.1 779.5,483.9 769.6,569.2 762.3,613.6 754.9,649.5 744.8,649.1 745.1,638.4 752.7,573.2 "
         id="polygon32"
         style="fill:#6b3c1f" /><polygon
         class="st2"
         points="762,513.4 768.7,478.1 776.3,478.1 779.5,483.9 769.6,569.2 762.3,613.6 754.9,649.5 744.8,649.1 745.1,638.4 752.7,573.2 "
         id="polygon34"
         style="fill:none;stroke:#000000" /></g><path
       id="path3336"
       class="st3"
       d="m 902.6,629.4 -11.8,0.9 -5.5,-64.6 -4.4,-44.8 -0.6,-30.3 13.3,0 5.7,68.2 2.5,52.4 0.8,18.2 z"
       inkscape:connector-curvature="0"
       style="fill:#6b3c1f;stroke:#000000;stroke-linejoin:round" /><g
       id="g8412">
       <!-- <image
         sodipodi:absref="/home/daniel/Projects/L2TOR_project/freeplay-sandbox/qt-gui/res/E55F6EFA.png"
         xlink:href="E55F6EFA.png"
         id="image38"
         transform="matrix(0.9959,0,0,0.9859,740,553)"
         height="71"
         width="244"
         style="overflow:visible;opacity:0.75;enable-background:new" /> -->
         <linearGradient
         id="SVGID_1_"
         gradientUnits="userSpaceOnUse"
         x1="389.85172"
         y1="782.30542"
         x2="486.0517"
         y2="751.45538"
         gradientTransform="matrix(-1,0,0,1,1384.4399,-192.22)"><stop
           offset="0"
           style="stop-color:#8D5027"
           id="stop41" /><stop
           offset="1"
           style="stop-color:#6B3C1F"
           id="stop43" /></linearGradient><path
         class="st4"
         d="M 978.5,590.9 889.8,562 c -0.8,-1.7 -0.9,-3.7 -0.4,-5.5 1,-2.9 4.6,-2.9 4.6,-2.9 l 37.5,10.3 49.2,18 -2.2,9 z"
         id="path45"
         inkscape:connector-curvature="0"
         style="fill:url(#SVGID_1_);stroke:#000000" /><path
         class="st5"
         d="m 926,564.9 c 0,0 -45.7,2.6 -68.5,4.6 -22.8,2 -72.8,9.5 -72.8,9.5 l 3.5,3.3 -0.9,4.2 c 0,0 45.8,-2.5 69,-4.5 23.2,-2 70.5,-9 70.5,-9 0.8,-1.2 1.3,-2.7 1.4,-4.1 -0.1,-2.1 -2.2,-4 -2.2,-4 l 0,0 z"
         id="path47"
         inkscape:connector-curvature="0"
         style="fill:#8d5027;stroke:#000000" /><linearGradient
         id="SVGID_2_"
         gradientUnits="userSpaceOnUse"
         x1="378.16089"
         y1="789.58148"
         x2="449.4809"
         y2="747.09149"
         gradientTransform="matrix(-1,0,0,1,1209.89,-177.79)"><stop
           offset="0"
           style="stop-color:#C28156"
           id="stop50" /><stop
           offset="1"
           style="stop-color:#6B3C1F"
           id="stop52" /></linearGradient><path
         class="st6"
         d="m 807.3,603.7 -48.5,-30.9 c -0.8,-1.7 -0.9,-3.7 -0.4,-5.5 1,-2.9 4.6,-2.9 4.6,-2.9 9.2,5.9 12.2,7.8 20,12.5 7.8,4.7 26.8,15.7 26.8,15.7 l -2.5,11.1 z"
         id="path54"
         inkscape:connector-curvature="0"
         style="fill:url(#SVGID_2_);stroke:#000000" /></g><g
       id="path3332">
       <!-- <image
         sodipodi:absref="/home/daniel/Projects/L2TOR_project/freeplay-sandbox/qt-gui/res/E55F6EFD.png"
         xlink:href="E55F6EFD.png"
         id="image57"
         transform="matrix(0.9815,0,0,0.9955,950,480)"
         height="221"
         width="54"
         style="overflow:visible;opacity:0.75;enable-background:new" /> -->
         <linearGradient
         id="SVGID_3_"
         gradientUnits="userSpaceOnUse"
         x1="383.14041"
         y1="770.85687"
         x2="409.99039"
         y2="774.08691"
         gradientTransform="matrix(-1,0,0,1,1384.4399,-192.22)"><stop
           offset="0"
           style="stop-color:#492A16"
           id="stop60" /><stop
           offset="0.49"
           style="stop-color:#D28C5F"
           id="stop62" /><stop
           offset="1"
           style="stop-color:#593219"
           id="stop64" /></linearGradient><polyline
         class="st7"
         points="991.3,680.6 1001.4,679.5 993,578.1 981.2,481.1 968,481.7 971.1,545.5 978.7,606.1 987.5,678.7       "
         id="polyline66"
         style="fill:url(#SVGID_3_)" /><polyline
         class="st2"
         points="991.3,680.6 1001.4,679.5 993,578.1 981.2,481.1 968,481.7 971.1,545.5 978.7,606.1 987.5,678.7       "
         id="polyline68"
         style="fill:none;stroke:#000000" /></g><g
       id="g8390">
       <!-- <image
         sodipodi:absref="/home/daniel/Projects/L2TOR_project/freeplay-sandbox/qt-gui/res/E55F6EFE.png"
         xlink:href="E55F6EFE.png"
         id="image71"
         transform="matrix(0.9953,0,0,0.9962,696,220)"
         height="261"
         width="211"
         style="overflow:visible;opacity:0.75;enable-background:new" /> -->
         <path
         class="st8"
         d="m 888.4,247.5 c 0,0 -62.1,4.9 -75.3,5.8 -13.2,0.9 -80.6,-0.4 -80.6,-0.4 l 6,34.6 c 0,0 67.3,0.6 75.3,0 8,-0.6 75.5,-6.2 75.5,-6.2 l 0.6,-34.1 -1.5,0.3 z"
         id="path73"
         inkscape:connector-curvature="0"
         style="fill:#d28c5f;stroke:#000000" /><linearGradient
         id="SVGID_4_"
         gradientUnits="userSpaceOnUse"
         x1="519.73041"
         y1="560.02417"
         x2="531.65051"
         y2="560.34418"
         gradientTransform="matrix(-1,0,0,1,1384.4399,-192.22)"><stop
           offset="0"
           style="stop-color:#693B1D"
           id="stop76" /><stop
           offset="0.49"
           style="stop-color:#D28C5F"
           id="stop78" /><stop
           offset="1"
           style="stop-color:#563117"
           id="stop80" /></linearGradient><path
         class="st9"
         d="m 864.3,451.2 c 0,0 -1.2,-76.5 -1.2,-88.9 0,-12.4 -3.8,-79.4 -3.8,-79.4 l -4.9,0.5 c 0,0 1.2,82.5 1.2,97.4 0,14.9 2,71.1 2,71.1 1,0.5 2.2,0.8 3.3,0.9 1.4,-0.3 2.5,-0.8 3.4,-1.6 l 0,0 z"
         id="path82"
         inkscape:connector-curvature="0"
         style="fill:url(#SVGID_4_);stroke:#000000" /><linearGradient
         id="SVGID_5_"
         gradientUnits="userSpaceOnUse"
         x1="543.85022"
         y1="562.1377"
         x2="559.57019"
         y2="563.42767"
         gradientTransform="matrix(-1,0,0,1,1384.4399,-192.22)"><stop
           offset="0"
           style="stop-color:#492A16"
           id="stop85" /><stop
           offset="0.49"
           style="stop-color:#D28C5F"
           id="stop87" /><stop
           offset="1"
           style="stop-color:#5B3319"
           id="stop89" /></linearGradient><path
         class="st10"
         d="m 842.5,453.3 c 0,0 -3.7,-63 -5.3,-77.8 -1.6,-14.8 -8.8,-89.6 -8.8,-89.6 l -5,0.5 0.3,3.5 c 0,0 4.5,87.2 6.6,111.1 2.1,23.9 5,53.5 5,53.5 1.4,0.4 2.8,0.6 4.3,0.5 0.9,-0.4 2,-1 2.9,-1.7 l 0,0 z"
         id="path91"
         inkscape:connector-curvature="0"
         style="fill:url(#SVGID_5_);stroke:#000000" /><linearGradient
         id="SVGID_6_"
         gradientUnits="userSpaceOnUse"
         x1="571.76062"
         y1="563.10541"
         x2="585.13062"
         y2="564.71552"
         gradientTransform="matrix(-1,0,0,1,1384.4399,-192.22)"><stop
           offset="0"
           style="stop-color:#5D351A"
           id="stop94" /><stop
           offset="0.49"
           style="stop-color:#D28C5F"
           id="stop96" /><stop
           offset="1"
           style="stop-color:#673A1C"
           id="stop98" /></linearGradient><path
         class="st11"
         d="m 816,456.6 c 2.4,-0.5 3,-1.5 3,-1.5 0,0 -5.7,-55.3 -6.9,-65.9 -1.2,-10.6 -13.6,-102.3 -13.6,-102.3 l -4.4,0.2 c 0,0 8.9,89.7 11.4,112.3 2.5,22.6 6.6,56.4 6.6,56.4 1.1,0.8 2.6,1.1 3.9,0.8 l 0,0 z"
         id="path100"
         inkscape:connector-curvature="0"
         style="fill:url(#SVGID_6_);stroke:#000000" /><linearGradient
         id="SVGID_7_"
         gradientUnits="userSpaceOnUse"
         x1="599.08972"
         y1="564.0224"
         x2="612.45972"
         y2="565.93237"
         gradientTransform="matrix(-1,0,0,1,1384.4399,-192.22)"><stop
           offset="0"
           style="stop-color:#5D351A"
           id="stop103" /><stop
           offset="0.49"
           style="stop-color:#D28C5F"
           id="stop105" /><stop
           offset="1"
           style="stop-color:#5D351A"
           id="stop107" /></linearGradient><path
         class="st12"
         d="m 791.9,459 c 1.1,-0.6 2.1,-1.3 3.1,-2.1 0,0 -7.2,-53 -9.3,-64.1 -2.1,-11.1 -17,-106.1 -17,-106.1 l -4.3,-0.1 c 0,0 12.8,101.7 14.8,119.8 2,18.1 7.7,52.1 7.7,52.1 0,0 3.6,1.2 5,0.5 l 0,0 z"
         id="path109"
         inkscape:connector-curvature="0"
         style="fill:url(#SVGID_7_);stroke:#000000" /><linearGradient
         id="SVGID_8_"
         gradientUnits="userSpaceOnUse"
         x1="632.14618"
         y1="534.03711"
         x2="648.60632"
         y2="537.69708"
         gradientTransform="matrix(-1,0,0,1,1384.4399,-192.22)"><stop
           offset="0"
           style="stop-color:#563117"
           id="stop112" /><stop
           offset="0.47"
           style="stop-color:#D28C5F"
           id="stop114" /><stop
           offset="1"
           style="stop-color:#4F2D17"
           id="stop116" /></linearGradient><path
         class="st13"
         d="m 771.2,458.8 c 0,0 -11.8,-71.6 -12,-73 -0.2,-1.4 -2.7,-6.1 -2.7,-6.1 0.8,-1.4 1.2,-2.9 1.1,-4.5 -0.2,-1.4 -1.1,-2.6 -2.3,-3.2 0,0 2.1,-6 0.9,-10.5 -1.2,-4.5 -13.8,-55.9 -14.3,-58.6 -0.5,-2.7 0.4,-6.9 0.2,-8.3 -0.1,-0.8 -0.8,-1.4 -1.6,-1.5 0,0 1.4,-2 1.2,-3.3 -0.2,-1.3 -2,-2.3 -2,-2.3 0,0 -1.7,-12.1 -2.7,-18.1 -1.1,-6 -4.8,-18.4 -4.8,-18.4 0,0 1.4,-1 0.1,-4.3 -1.3,-3.3 -2.4,-5.4 -2.8,-6.3 -0.4,-0.9 0.7,-3.4 0.7,-3.4 0,0 3.3,-13 -9.7,-10.6 -13.2,2.5 -1.9,13.1 -1.4,14.1 1.9,3.6 -1.6,3.7 -0.9,9.6 0.3,2.1 2.6,3.9 2.6,3.9 l 1.7,18.3 4.6,18 c 0,0 -1.3,0.2 -1,2.3 0.2,1.1 0.7,2.2 1.5,3 -0.1,1.1 0,2.2 0.3,3.3 0.4,1.4 2.7,1.1 3,2.9 0.3,1.8 9.5,62.7 10.1,64.9 0.6,2.2 3.9,7.3 3.9,7.3 -1.2,0.8 -1.7,2.3 -1.4,3.7 0.3,1.6 1.1,3.1 2.3,4.2 0,0 1.5,17.6 2.2,21 l 12.5,57.6 c 0,0 3.9,1 5.6,0.7 1.7,-0.3 5,-2.5 5,-2.5 l 0.1,0.1 z"
         id="path118"
         inkscape:connector-curvature="0"
         style="fill:url(#SVGID_8_);stroke:#000000;stroke-width:1.01999998" /><linearGradient
         id="SVGID_9_"
         gradientUnits="userSpaceOnUse"
         x1="480.48801"
         y1="528.78802"
         x2="499.8981"
         y2="529.43799"
         gradientTransform="matrix(-1,0,0,1,1384.4399,-192.22)"><stop
           offset="0"
           style="stop-color:#4F2D17"
           id="stop121" /><stop
           offset="0.47"
           style="stop-color:#D28C5F"
           id="stop123" /><stop
           offset="1"
           style="stop-color:#4D2C16"
           id="stop125" /></linearGradient><path
         class="st14"
         d="m 902.5,451.3 c 0,0 -0.3,-71.9 -0.3,-73.2 0,-1.3 -1.8,-6.7 -1.8,-6.7 0,0 2.7,-1.3 2.2,-3.6 -0.5,-2.3 -3.1,-4 -3.1,-4 0,0 4.5,-4.5 4,-8.9 -0.5,-4.4 -4.5,-54 -4.5,-56.7 0,-2.7 2.2,-5.8 2.2,-7.1 0,-1.3 -1.8,-4 -1.8,-4 0,0 2.2,-1.9 2.2,-3.1 0,-1.2 -1.9,-2.4 -1.9,-2.4 L 899,246 c 0,0 2.7,-0.7 2,-4 -0.7,-3.3 -3.8,-6.3 -4,-7.1 -0.2,-0.8 2.5,-2 2.5,-2 0,0 6.9,-13.2 -6.5,-12.1 -13.4,1.1 -4.8,12.3 -4.5,13.4 1.2,3.8 -1.6,2.9 -1.9,8.6 -0.1,2 1.9,4.1 1.9,4.1 l 0,35.5 c 0,0 -2.4,0.6 -2.4,2.6 0,1.2 0.8,2.2 1.9,2.5 -0.7,0.9 -1.2,2 -1.3,3.2 0,1.3 2.2,2 2.2,3.8 0,1.8 -1.6,60.3 -1.3,62.5 0.3,2.2 2.7,7.6 2.7,7.6 0,0 -2.5,1.6 -2.5,4 0.1,1.5 0.9,3 2.2,3.8 0,0 -1.8,16.8 -1.7,20.1 0.3,7.4 3.3,58.7 3.3,58.7 0,0 3.5,1.8 5.4,1.9 1.9,0.1 5.5,-1.8 5.5,-1.8 l 0,0 z"
         id="path127"
         inkscape:connector-curvature="0"
         style="fill:url(#SVGID_9_);stroke:#000000" /><path
         class="st15"
         d="m 888.6,279.9 c 0,0 -66.3,6.4 -76.1,6.4 -9.8,0 -72.9,-0.5 -72.9,-0.5 l 0.7,1.6 c 0,0 66.8,0.9 74.1,0.5 7.3,-0.4 74.3,-6.2 74.3,-6.2 l 0,-1.8 z"
         id="path129"
         inkscape:connector-curvature="0"
         style="fill:#855b3e" /><path
         class="st16"
         d="m 729.4,237.9 c -3.6,-0.5 -7.2,0.1 -10.5,1.6"
         id="path131"
         inkscape:connector-curvature="0"
         style="fill:none;stroke:#000000;stroke-width:1.01999998" /><path
         class="st16"
         d="m 732.3,250.4 c 0,0 -8.3,-0.5 -12.1,2.8"
         id="path133"
         inkscape:connector-curvature="0"
         style="fill:none;stroke:#000000;stroke-width:1.01999998" /><path
         class="st16"
         d="m 740.5,292.8 c 0,0 -5.4,-1.4 -12.5,2.2"
         id="path135"
         inkscape:connector-curvature="0"
         style="fill:none;stroke:#000000;stroke-width:1.01999998" /><path
         class="st17"
         d="m 741.8,298.5 c 0,0 -7.3,-2 -11.8,1.7"
         id="path137"
         inkscape:connector-curvature="0"
         style="fill:#a05b2b;stroke:#000000;stroke-width:1.01999998" /><path
         class="st18"
         d="m 754.9,371.8 c 0,0 -8.1,-0.4 -10.9,1.9"
         id="path139"
         inkscape:connector-curvature="0"
         style="fill:#6c5353;stroke:#000000;stroke-width:1.01999998" /><path
         class="st19"
         d="m 756.2,379.5 c 0,0 -6.1,-0.3 -10.7,2.5"
         id="path141"
         inkscape:connector-curvature="0"
         style="fill:#906f6f;stroke:#000000;stroke-width:1.01999998" /><path
         class="st2"
         d="m 897.4,234.1 c 0,0 -3.2,-1.5 -8.5,0.1"
         id="path143"
         inkscape:connector-curvature="0"
         style="fill:none;stroke:#000000" /><path
         class="st2"
         d="m 899.2,245.8 c 0,0 -6.8,-2 -11,0.4"
         id="path145"
         inkscape:connector-curvature="0"
         style="fill:none;stroke:#000000" /><path
         class="st2"
         d="m 899.5,286.7 c 0,0 -4.2,-1.7 -11.8,0.4"
         id="path147"
         inkscape:connector-curvature="0"
         style="fill:none;stroke:#000000" /><path
         class="st2"
         d="m 900.7,292.2 c 0,0 -7.7,-2.4 -12.8,0.2"
         id="path149"
         inkscape:connector-curvature="0"
         style="fill:none;stroke:#000000" /><path
         class="st2"
         d="m 899.6,363.7 c 0,0 -5.8,-1.2 -8.9,0.5"
         id="path151"
         inkscape:connector-curvature="0"
         style="fill:none;stroke:#000000" /><path
         class="st2"
         d="m 900.4,371.4 c 0,0 -5.9,-1.5 -10.9,0.3"
         id="path153"
         inkscape:connector-curvature="0"
         style="fill:none;stroke:#000000" /></g>
         <!-- <image
       sodipodi:absref="/home/daniel/Projects/L2TOR_project/freeplay-sandbox/qt-gui/res/E55F6EFC.png"
       xlink:href="E55F6EFC.png"
       id="image155"
       transform="matrix(0.9941,0,0,0.9954,763.99,510.99)"
       height="219"
       width="169"
       style="overflow:visible;opacity:0.75;enable-background:new" /> -->
       <path
       class="st20"
       d="m 879.8,598.2 c 10.8,15.5 14.5,30.2 11.4,42.3 -3.9,15.2 -20,22.2 -36.6,22.7 -18.8,0.5 -29.9,-11 -33.3,-18 -4.1,-8.6 -7.6,-29.9 10.9,-47.3"
       id="path157"
       inkscape:connector-curvature="0"
       style="fill:#a06121" /><path
       class="st21"
       d="m 831.9,608.2 0,0 c -17.8,14.4 -12.1,31.4 -8.1,38.5 3.2,5.8 11.5,16.4 29.4,15.9 11.6,-0.3 23,-3.8 29.7,-10.5 l -0.2,0.2 c -0.7,0.5 -1.4,1 -2.1,1.4 -0.7,0.4 -1.5,0.9 -2.3,1.3 -0.8,0.4 -1.6,0.8 -2.4,1.1 -0.8,0.3 -1.7,0.7 -2.5,1 -0.8,0.3 -1.8,0.6 -2.7,0.8 -0.9,0.2 -1.8,0.5 -2.8,0.7 -1,0.2 -1.9,0.4 -2.8,0.6 -0.9,0.2 -1.9,0.3 -2.9,0.4 -1,0.1 -1.9,0.2 -2.9,0.3 -1,0.1 -2,0.1 -3,0.1 -1,0 -2.2,0 -3.3,0 -1.1,0 -2.1,-0.1 -3.1,-0.3 -1,-0.2 -2,-0.3 -2.9,-0.5 -0.9,-0.2 -1.9,-0.4 -2.8,-0.6 -0.9,-0.2 -1.8,-0.5 -2.6,-0.8 -0.8,-0.3 -1.6,-0.6 -2.4,-0.9 -0.8,-0.3 -1.5,-0.7 -2.2,-1 -0.7,-0.3 -1.4,-0.8 -2.1,-1.1 -0.7,-0.3 -1.3,-0.8 -1.9,-1.2 -0.6,-0.4 -1.2,-0.8 -1.7,-1.3 -0.5,-0.5 -1.1,-0.9 -1.6,-1.3 -0.5,-0.4 -1,-0.9 -1.4,-1.3 -0.4,-0.4 -0.8,-0.9 -1.2,-1.3 -0.4,-0.4 -0.7,-0.8 -1,-1.3 -0.6,-0.7 -1.1,-1.5 -1.5,-2.3 -0.2,-0.4 -0.5,-0.9 -0.7,-1.5 -0.2,-0.6 -0.5,-1.1 -0.7,-1.7 -0.2,-0.6 -0.4,-1.2 -0.6,-1.9 -0.2,-0.7 -0.3,-1.3 -0.5,-2.1 -0.2,-0.8 -0.3,-1.5 -0.4,-2.2 -0.1,-0.7 -0.2,-1.6 -0.2,-2.4 0,-0.8 0,-1.7 0,-2.5 0,-0.8 0.1,-1.7 0.2,-2.6 0.1,-0.9 0.3,-1.8 0.5,-2.7 0.2,-0.9 0.5,-1.8 0.8,-2.8 0.3,-1 0.7,-1.9 1.1,-2.8 0.4,-0.9 0.9,-1.9 1.4,-2.8 0.5,-0.9 1.1,-1.9 1.8,-2.8 0.7,-0.9 1.4,-1.9 2.2,-2.8 0.8,-0.9 1.7,-1.9 2.6,-2.8 l -0.2,-0.2 0,0 z"
       id="path159"
       inkscape:connector-curvature="0"
       style="fill:#6e4a25" /><path
       class="st22"
       d="m 856.5,624 c -7.4,1.1 -10.8,6.9 -12.5,15 -2,9.2 6,18.7 14.3,20.5 8.2,1.9 16.4,-3.1 18.3,-11.2 0.1,-0.2 0.1,-0.5 0.2,-0.8 2,-9.2 -1.3,-22.6 -9.2,-23.7 -1.1,-0.2 -10.1,0 -11.1,0.2 l 0,0 z"
       id="path161"
       inkscape:connector-curvature="0"
       style="fill:#956c45;stroke:#000000;stroke-width:3" /><path
       d="m 868.4,584.4 c 2.9,3.2 5.6,6.3 7.8,9.3 2.1,2.7 4.1,5.6 5.9,8.6 2.9,4.6 5.2,9.6 6.9,14.7 0.8,2.5 1.4,5 1.8,7.6 0.3,2 0.5,4.1 0.5,6.2 0,1.7 -0.1,3.3 -0.3,5 -0.2,1.3 -0.5,2.7 -0.8,4 -0.1,0.4 -0.2,0.9 -0.4,1.3 -0.4,1.3 -0.9,2.6 -1.5,3.8 -0.8,1.6 -1.8,3.1 -2.9,4.5 -1.1,1.4 -2.3,2.6 -3.6,3.7 -1.4,1.2 -2.9,2.3 -4.5,3.3 -1.7,1 -3.4,1.9 -5.2,2.6 -1.7,0.7 -3.5,1.3 -5.4,1.8 l 0,0 c -2.2,0.6 -4.5,1.1 -6.8,1.4 -2,0.3 -3.8,0.4 -5.1,0.5 l -1.2,0 c -1.5,0 -3,-0.1 -4.5,-0.3 -2.3,-0.3 -4.5,-0.8 -6.7,-1.5 -6.3,-2.1 -11.9,-5.9 -16.1,-11 -0.8,-0.9 -1.5,-1.9 -2.1,-2.9 -0.6,-0.9 -1.2,-1.9 -1.6,-2.9 -0.7,-1.5 -1.2,-3 -1.7,-4.6 -0.4,-1.4 -0.7,-2.7 -0.9,-3.8 -0.1,-0.7 -0.2,-1.3 -0.3,-1.8 -0.2,-1.4 -0.4,-2.8 -0.5,-4.3 -0.1,-1.8 -0.1,-3.7 0.1,-5.5 0.2,-2.2 0.5,-4.4 1.1,-6.5 0.6,-2.3 1.4,-4.5 2.4,-6.7 1,-2.3 2.3,-4.4 3.7,-6.4 1.3,-1.9 2.8,-3.6 4.4,-5.3 l 1.3,-1.3 c 0.3,-0.3 0.3,-0.4 0.3,-0.4 -0.7,0.4 -1.3,0.9 -1.9,1.5 -3.6,3.3 -6.6,7.2 -8.9,11.5 l 0,0 c -1.1,2.1 -2,4.2 -2.7,6.5 -0.7,2.3 -1.2,4.7 -1.5,7.1 -0.2,2.1 -0.3,4.2 -0.2,6.3 0.1,2 0.3,3.9 0.7,5.8 0.3,1.7 0.8,3.4 1.3,5.1 0.4,1.3 1,2.5 1.6,3.7 1.1,2.2 2.6,4.2 4.2,6 l 0,0 c 4.6,5.1 10.5,8.8 17.1,10.7 l 0,0 c 2.3,0.7 4.6,1.1 7,1.3 1.9,0.2 3.8,0.3 5.8,0.2 0.8,0 1.6,0 2.2,-0.1 1,0 2.4,-0.1 4,-0.3 2,-0.2 4,-0.6 5.9,-1.1 1.8,-0.4 3.6,-1 5.4,-1.6 2,-0.7 3.8,-1.6 5.7,-2.6 l 0,0 c 1.6,-0.9 3.2,-2 4.7,-3.2 1.5,-1.2 2.9,-2.5 4.1,-4 1.3,-1.5 2.4,-3.2 3.3,-4.9 0.9,-1.7 1.5,-3.5 2,-5.3 0.8,-2.9 1.1,-6 1.1,-9 0,-2.3 -0.3,-4.5 -0.7,-6.7 -0.2,-1 -0.5,-2.3 -0.9,-3.6 -0.4,-1.3 -0.8,-2.8 -1.4,-4.3 -0.7,-1.8 -1.5,-3.7 -2.4,-5.6 -0.9,-1.9 -1.9,-3.8 -3,-5.7 -1.1,-1.9 -2.3,-3.7 -3.5,-5.5 -1.2,-1.8 -2.5,-3.4 -3.7,-5 -2.5,-3.1 -4.8,-5.7 -6.5,-7.5 -1.7,-1.8 -2.9,-2.8 -2.9,-2.8 l 0,0 z"
       id="path163"
       inkscape:connector-curvature="0" /><path
       class="st20"
       d="m 819.6,660.5 c -0.4,-7.4 0.5,-17.1 9.5,-17.2 7.2,-0.1 14.3,6.4 15.8,14.1"
       id="path165"
       inkscape:connector-curvature="0"
       style="fill:#a06121" /><path
       class="st20"
       d="m 905.9,652.3 c 0,0 -3.4,-10.1 -6.7,-13.4 -0.9,-0.9 -4.4,-3.5 -7.5,-2.8 -8.1,2 -12.6,10.9 -14.8,17.9 -0.3,1 -1.7,4.9 -0.5,7.6"
       id="path167"
       inkscape:connector-curvature="0"
       style="fill:#a06121" /><path
       class="st21"
       d="m 877.4,659.9 c -1.3,-2.7 1.2,-6.3 1.4,-7.3 0.4,-1.3 1.8,-3.5 1.5,-5 -1,2 -2.7,4.7 -3.3,6.7 -0.3,1 -1.7,4.9 -0.5,7.6 10.5,-1.3 6.2,-3.4 0.9,-2 l 0,0 z"
       id="path169"
       inkscape:connector-curvature="0"
       style="fill:#6e4a25" /><path
       d="m 819.7,660.7 c -0.2,-1.9 -0.1,-3.8 0.1,-5.7 l 0,0 c 0.1,-1.1 0.3,-2.1 0.7,-3.2 0.2,-0.7 0.5,-1.5 0.8,-2.2 l 0,0 c 0.2,-0.5 0.5,-1 0.8,-1.4 0.3,-0.4 0.5,-0.7 0.8,-1 0.4,-0.5 0.9,-1 1.4,-1.4 0.7,-0.6 1.4,-1 2.2,-1.3 0.8,-0.3 1.7,-0.5 2.6,-0.6 0.8,-0.1 1.6,-0.1 2.5,0 0.4,0.1 0.7,0.2 1.1,0.3 0.6,0.2 1.1,0.4 1.6,0.7 0.8,0.4 1.6,1 2.4,1.5 0.7,0.6 1.4,1.2 2.1,1.9 0.8,0.8 1.3,1.5 1.7,1.8 0.4,0.4 0.8,0.8 1.1,1.2 0.5,0.6 0.9,1.2 1.3,1.8 0.4,0.7 0.8,1.4 1.1,2.1 0.3,0.7 0.5,1.4 0.7,2.1 0.1,0.3 0.1,0.5 0.2,0.5 0.1,0 0.1,-0.2 0.2,-0.4 0.1,-1 0,-1.9 -0.2,-2.9 -0.1,-0.7 -0.3,-1.3 -0.6,-2 -0.3,-0.7 -0.6,-1.4 -0.9,-2 -0.3,-0.6 -0.7,-1.2 -1.2,-1.8 -0.4,-0.5 -0.8,-0.9 -1.3,-1.3 -0.3,-0.2 -0.5,-0.4 -0.8,-0.6 -0.8,-0.6 -1.7,-1.2 -2.7,-1.7 -0.9,-0.5 -1.8,-0.8 -2.7,-1.2 -0.7,-0.2 -1.4,-0.4 -2.2,-0.5 -0.6,-0.1 -1.2,-0.2 -1.6,-0.3 -0.6,-0.1 -1.2,-0.2 -1.8,-0.3 -0.9,-0.1 -1.9,0 -2.8,0.2 -1.1,0.2 -2.2,0.7 -3.1,1.3 -0.9,0.6 -1.6,1.4 -2.3,2.3 -0.5,0.7 -0.9,1.5 -1.2,2.3 -0.1,0.3 -0.2,0.5 -0.2,0.8 -0.2,0.7 -0.3,1.5 -0.4,2.3 -0.1,1 -0.1,1.9 -0.1,2.9 0,1.3 0.2,2.7 0.4,4 0.2,1.1 0.3,1.8 0.3,1.8 l 0,0 z"
       id="path171"
       inkscape:connector-curvature="0" /><path
       class="st21"
       d="m 892.4,636.6 c -0.4,0 -0.8,0 -1.2,0.1 -3,0.8 -5.7,2.4 -7.7,4.7 l 0.1,-0.1 c 0.4,-0.3 0.8,-0.7 1.2,-1 0.4,-0.3 0.8,-0.6 1.2,-0.9 0.4,-0.3 0.9,-0.5 1.3,-0.7 0.5,-0.2 0.9,-0.4 1.4,-0.6 0.5,-0.2 1,-0.3 1.5,-0.5 0.4,-0.1 0.8,-0.1 1.2,-0.1 0.4,0 0.8,0 1.2,0.1 0.4,0.1 0.8,0.2 1.2,0.3 0.4,0.1 0.7,0.3 1.1,0.5 0.6,0.3 1.2,0.7 1.8,1.1 0.4,0.3 0.8,0.6 1.1,0.9 0.5,0.5 0.9,1 1.2,1.5 0.4,0.6 0.8,1.3 1.2,2 0.4,0.7 0.8,1.4 1.1,2.2 0.3,0.8 0.7,1.5 1,2.3 0.6,1.5 1.2,2.8 1.5,3.8 0.2,0.6 0.3,0.7 0.3,1 l 1.3,-0.4 c 0,0 -3.4,-10.1 -6.7,-13.4 -0.7,-0.6 -3.5,-2.7 -6.3,-2.8 l 0,0 z"
       id="path173"
       inkscape:connector-curvature="0"
       style="fill:#6e4a25" /><path
       d="m 905.8,651.5 c -0.7,-2 -1.3,-3.7 -1.8,-5.2 l 0,0 c -0.7,-1.7 -1.3,-3.2 -1.9,-4.3 -0.3,-0.7 -0.7,-1.4 -1.1,-2.1 -0.4,-0.6 -0.7,-1.1 -1.2,-1.6 -0.4,-0.4 -0.7,-0.7 -1.2,-1 -0.5,-0.4 -1,-0.8 -1.6,-1.1 l -0.3,-0.2 c -0.7,-0.4 -1.4,-0.6 -2.2,-0.8 -1,-0.2 -2.1,-0.2 -3.1,0.1 l 0,0 c -1.1,0.3 -2.2,0.8 -3.2,1.4 -0.8,0.5 -1.6,1.1 -2.3,1.7 -0.5,0.4 -0.8,0.8 -1,1 -0.2,0.2 -0.8,0.7 -1.3,1.3 -0.7,0.7 -1.4,1.4 -2,2.2 -0.5,0.7 -1.1,1.4 -1.6,2.2 -0.5,0.8 -1,1.5 -1.4,2.2 -0.6,1.1 -1.2,2.2 -1.6,3.3 -0.2,0.7 -0.6,1.9 -1,3.2 -0.3,1.3 -0.5,2.5 -0.6,3.8 -0.1,0.8 0,1.7 0.1,2.5 0.1,0.5 0.3,1 0.6,1.4 0.1,0.1 0.2,0.3 0.3,0.4 0.1,0.1 0.1,0.1 0.2,0.2 0.1,0 0.1,0 0,-0.2 -0.1,-0.2 -0.2,-0.5 -0.3,-0.7 -0.1,-0.4 -0.2,-0.8 -0.2,-1.2 0,-0.4 0,-0.7 0.1,-1.1 0.1,-0.4 0.2,-0.8 0.3,-1.2 0.3,-1.2 0.7,-2.3 1.1,-3.4 0.4,-0.9 0.8,-1.7 1.1,-2.5 0.3,-0.8 0.6,-1.5 0.8,-2.1 0.4,-1 0.8,-2.1 1.3,-3.2 0.5,-1 1,-2 1.6,-3 0.6,-0.9 1.2,-1.8 1.9,-2.6 0.5,-0.6 1.1,-1.1 1.7,-1.6 l 0.4,-0.3 c 0.7,-0.5 1.4,-0.9 2.2,-1.2 1,-0.5 2.1,-0.8 3.2,-1 l 0,0 c 0.7,-0.1 1.4,-0.1 2.1,0.1 0.7,0.2 1.4,0.5 2,0.8 0.6,0.3 1.1,0.6 1.7,1 0.3,0.2 0.7,0.5 1,0.8 0.3,0.3 0.6,0.6 0.9,0.9 0.3,0.3 0.5,0.5 0.7,0.9 0.2,0.4 0.6,0.8 0.9,1.2 0.9,1.3 1.6,2.6 2.4,4 l 2.3,5 0,0 z"
       id="path175"
       inkscape:connector-curvature="0" /><path
       class="st20"
       d="m 833.2,595.5 c 0,0 -9.2,5.3 -14.5,13.3 -4.4,6.7 -9.5,20.3 -9.4,29.1 0.1,7 3.9,13.8 9,14.8 4.1,0.8 10,-1 11.2,-2.9 6.4,-10.7 0.7,-16.8 0.4,-27.7 -0.3,-8.8 1,-11.3 2.3,-14.9 0.5,-1.4 5,-9.8 5,-9.8"
       id="path177"
       inkscape:connector-curvature="0"
       style="fill:#a06121" /><path
       class="st20"
       d="m 881.3,544.8 c 0,0 5,-7.5 6.4,-8.8 1.4,-1.3 1.7,-2.9 4.8,-3.4 3.1,-0.5 8,1.5 9.1,2.2 1.1,0.7 5.3,3.6 6.1,4.6 0.8,1 1.4,4.2 1.3,6.4 -0.4,2.7 -1.4,5.4 -2.9,7.7 -0.8,0.8 -5.3,5 -6.7,5.5 -1.5,0.5 -9.3,1.7 -9.3,1.7 l -8.8,-15.9 z"
       id="path179"
       inkscape:connector-curvature="0"
       style="fill:#a06121" /><path
       class="st21"
       d="m 831.7,596.3 c -2.7,1.8 -9,6.2 -13,12.4 -4.4,6.7 -9.6,20.3 -9.4,29.1 0.1,7 3.9,13.8 9,14.8 3.9,0.8 9.6,-0.8 11,-2.7 -0.3,0.1 -0.5,0.3 -0.8,0.4 -0.5,0.2 -1,0.4 -1.5,0.5 -0.5,0.2 -1.1,0.3 -1.7,0.4 -0.6,0.1 -1.1,0.2 -1.7,0.2 -0.6,0 -1.1,0 -1.7,0 -0.5,0 -1.1,-0.1 -1.6,-0.2 -0.3,-0.1 -0.6,-0.1 -0.9,-0.3 -0.3,-0.1 -0.6,-0.2 -0.9,-0.4 -0.6,-0.3 -1.2,-0.7 -1.7,-1.1 -0.6,-0.5 -1.1,-1 -1.5,-1.5 -0.5,-0.6 -0.9,-1.2 -1.3,-1.9 -0.4,-0.7 -0.8,-1.4 -1.1,-2.2 -0.3,-0.8 -0.6,-1.6 -0.8,-2.4 -0.2,-0.8 -0.4,-1.7 -0.5,-2.5 -0.1,-0.9 -0.2,-1.7 -0.2,-2.6 0,-1.2 0.1,-2.4 0.2,-3.5 0.1,-1.2 0.3,-2.5 0.6,-3.8 0.3,-1.3 0.6,-2.6 1,-4 0.4,-1.4 0.8,-2.7 1.2,-4 0.4,-1.3 1,-2.6 1.5,-3.9 0.5,-1.3 1,-2.5 1.6,-3.7 0.6,-1.2 1.1,-2.3 1.7,-3.3 0.6,-1 1.1,-2 1.7,-2.8 0.7,-1 1.4,-2 2.1,-2.9 0.8,-0.9 1.5,-1.8 2.3,-2.6 0.8,-0.8 1.6,-1.6 2.4,-2.3 0.8,-0.7 1.6,-1.3 2.3,-1.9 0.7,-0.6 1.1,-0.8 1.7,-1.3 l 0,0 z"
       id="path181"
       inkscape:connector-curvature="0"
       style="fill:#6e4a25" /><path
       class="st20"
       d="m 819.4,561.7 c 0,0 -1.2,11.2 -0.6,13 0.6,1.8 3.3,12 3.7,12.8 0.4,0.8 7.4,8.9 9.5,9.9 2.1,1 9.1,3.7 9.1,3.7 0,0 17.2,2.7 22.3,2.1 5.1,-0.6 13,-1.5 15.3,-3.5 1.8,-1.6 5.8,-3.2 7.8,-5 2.7,-2.3 5.8,-2.9 7.2,-4.3 1.4,-1.4 4.5,-7.2 5,-11.6 0.5,-4.4 0,-11.6 -1.2,-14.3 -1.3,-2.9 -2.7,-5.4 -3.5,-7 -0.8,-1.6 -10.3,-13.6 -11.8,-15.9 -1.5,-2.3 -7.8,-7.4 -9.7,-7.9 -1.9,-0.5 -14.3,-2.7 -17.8,-2.3 -3.5,0.4 -12,4.3 -13.8,5.6 -1.8,1.3 -9.1,8.7 -10.1,9.9 -1.1,1.4 -11.4,12.3 -11.4,14.8 l 0,0 z"
       id="path183"
       inkscape:connector-curvature="0"
       style="fill:#a06121" /><path
       class="st23"
       d="m 849.6,602.4 c 5.2,0.6 11,1.2 13.8,0.9 5.2,-0.6 13,-1.4 15.3,-3.5 1.8,-1.6 5.8,-3.2 7.9,-5 2.7,-2.3 5.8,-2.9 7.2,-4.3 1.4,-1.4 4.5,-7.2 5,-11.6 0.5,-4.4 0,-11.6 -1.2,-14.3 -0.8,-1.8 -1.7,-3.4 -2.4,-4.8 1.4,-0.2 2.7,-0.5 4.1,-0.8 1.5,-0.5 5.9,-4.7 6.7,-5.5 1.5,-2.3 2.5,-4.9 2.9,-7.7 0.1,-2.2 -0.5,-5.3 -1.3,-6.4 -0.8,-1 -5,-3.9 -6.1,-4.6 -2.5,-1.3 -5.2,-2.1 -8,-2.3 0.8,0.1 1.5,0.3 2.3,0.5 0.8,0.2 1.6,0.5 2.3,0.8 0.5,0.2 1,0.4 1.5,0.7 0.5,0.4 1.9,1.3 3.1,2.2 0.6,0.5 1.3,0.9 1.8,1.4 0.4,0.3 0.8,0.7 1.1,1 0.2,0.3 0.4,0.7 0.5,1.1 0.2,0.5 0.3,1.1 0.4,1.6 0.1,0.6 0.2,1.2 0.3,1.8 0.1,0.6 0.1,1.2 0.1,1.8 0,0.7 -0.2,1.3 -0.4,2 -0.2,0.8 -0.5,1.6 -0.8,2.3 -0.3,0.8 -0.7,1.5 -1,2.1 -0.2,0.4 -0.5,0.9 -0.8,1.2 -0.4,0.4 -1.7,1.6 -3.1,2.8 -0.7,0.6 -1.4,1.2 -2,1.7 -0.5,0.4 -1,0.7 -1.5,1 -0.5,0.2 -1.1,0.3 -1.6,0.4 -0.7,0.1 -1.6,0.3 -2.5,0.5 0.7,1.4 1.5,3 2.4,4.8 0.2,0.4 0.3,0.8 0.4,1.2 0.1,0.5 0.2,1 0.3,1.5 0.2,1.2 0.4,2.5 0.5,3.8 0.1,1.3 0.2,2.7 0.2,4.1 0,1.4 0,2.6 -0.2,3.7 -0.1,0.6 -0.1,1.1 -0.3,1.7 -0.1,0.6 -0.3,1.2 -0.5,1.8 -0.4,1.2 -0.8,2.3 -1.3,3.4 -0.5,1 -1,2 -1.5,2.9 -0.4,0.6 -0.8,1.3 -1.3,1.8 -0.2,0.2 -0.4,0.4 -0.6,0.5 -0.2,0.2 -0.5,0.3 -0.8,0.5 -0.5,0.3 -1.1,0.6 -1.8,0.9 -0.7,0.3 -1.3,0.7 -2,1 -0.7,0.4 -1.4,0.9 -2.1,1.4 -0.6,0.5 -1.2,0.9 -1.8,1.3 -0.7,0.4 -1.5,0.8 -2.2,1.2 -0.7,0.4 -1.5,0.8 -2.1,1.2 -0.6,0.4 -1.2,0.8 -1.7,1.2 -0.3,0.3 -0.7,0.5 -1.1,0.7 -0.5,0.2 -1,0.4 -1.5,0.6 -0.6,0.2 -1.2,0.4 -1.8,0.5 -0.6,0.1 -1.4,0.3 -2.1,0.4 -1.5,0.3 -3,0.5 -4.5,0.7 -1.5,0.2 -3,0.4 -4.3,0.5 -0.8,0.1 -1.6,0.1 -2.5,0.1 -1,0 -2.1,-0.1 -3.2,-0.2 -2,0.2 -4.1,0 -6.2,-0.2 l 0,0 z"
       id="path185"
       inkscape:connector-curvature="0"
       style="fill:#b8854f" /><path
       class="st21"
       d="m 873,563.9 c -1,-0.6 -1.2,-2.6 -1.7,-1.6 -0.6,1.4 -0.4,3.1 0.5,4.3 0.7,0.7 4.8,1.2 4.8,0 -0.1,-1.2 -2.6,-2.1 -3.6,-2.7 l 0,0 z"
       id="path187"
       inkscape:connector-curvature="0"
       style="fill:#6e4a25" /><path
       class="st21"
       d="m 860.9,565.8 c 0,-0.9 0,-3 0.1,-5.6 0,-2.1 0.1,-4.6 0.2,-6.8 0,-0.9 0.1,-1.7 0.1,-2.5 0,-0.3 0,-0.6 0.1,-0.8 0,-0.2 0,-0.3 0.1,-0.5 0.1,-0.4 0.1,-0.7 0.2,-1.1 l 0,0 c 0.1,-0.7 0.1,-1.3 0.1,-1.7 0,0 0,-0.1 0,-0.1 0,-1 0,-2.6 -0.1,-4.3 0,-1.4 -0.1,-3 -0.3,-4.6 -0.1,-0.6 -0.2,-1.2 -0.3,-1.8 -0.1,-0.4 -0.2,-0.9 -0.4,-1.3 -0.4,-0.7 -0.7,-1.5 -1.1,-2.1 -0.1,-0.2 -0.2,-0.3 -0.3,-0.5 -0.1,-0.1 -0.2,-0.3 -0.4,-0.4 -0.1,-0.1 -0.2,-0.1 -0.3,-0.2 l -0.2,0 0,0 c 0.2,0.1 0.3,0.2 0.4,0.3 0.1,0.1 0.2,0.2 0.3,0.3 0.1,0.2 0.2,0.3 0.3,0.5 0.2,0.3 0.3,0.6 0.5,1 0.2,0.4 0.3,0.8 0.5,1.2 0.2,0.4 0.3,0.8 0.3,1.2 0.1,0.6 0.2,1.2 0.2,1.8 0.1,1.5 0.2,3 0.2,4.6 0,1.5 0,3.1 -0.1,4.4 l 0,0 c 0,0.6 0,1.2 -0.1,1.7 0,0.3 0,0.6 -0.1,0.8 0,0.1 0,0.1 0,0.2 l 0,0 c 0,0.2 -0.1,0.4 -0.1,0.6 l 0,0 c 0,0.3 0,0.6 0,0.9 l 0,0 c 0,0.8 0,1.7 -0.1,2.5 l 0,0 c 0,2.3 0,4.7 0,6.8 0,2.9 0,5.4 0,6.9 0.1,3.3 0.4,3.5 0.3,-1.4 l 0,0 z"
       id="path189"
       inkscape:connector-curvature="0"
       style="fill:#6e4a25" /><path
       d="m 833.9,594.9 -5.6,3.8 c -2,1.5 -3.9,3.1 -5.8,4.8 -1.6,1.5 -3,3.1 -4.3,4.8 l 0,0 c -0.8,1.1 -1.6,2.2 -2.2,3.3 -0.6,1.1 -1.2,2.1 -1.7,3.1 -0.7,1.5 -1.3,2.8 -1.9,4.1 -0.6,1.3 -1,2.4 -1.3,3.5 -0.6,1.6 -1,3 -1.3,4.3 -0.3,1.3 -0.6,2.4 -0.8,3.5 l 0,0.2 c -0.2,0.8 -0.3,1.9 -0.5,3.2 -0.1,1.4 -0.2,2.8 -0.2,4.3 0,1.4 0.1,2.7 0.3,4.1 0.2,1.5 0.6,2.9 1.2,4.2 0.6,1.1 1.3,2.2 2.2,3.1 0.8,0.8 1.8,1.6 2.8,2.2 l 0,0 c 0.8,0.5 1.7,0.9 2.7,1.2 0.8,0.3 1.7,0.4 2.5,0.5 1.3,0.1 2.5,0.1 3.8,-0.1 l 0.4,-0.1 c 0.4,-0.1 0.9,-0.2 1.5,-0.4 0.7,-0.2 1.4,-0.5 2.1,-0.8 0.6,-0.3 1.1,-0.6 1.6,-1 0.6,-0.4 1.1,-0.9 1.5,-1.5 l 0,0 c 0.7,-0.9 1.3,-1.8 1.7,-2.8 0.5,-1.1 0.8,-2.2 1,-3.4 l 0,0 c 0.2,-1.1 0.2,-2.2 0.1,-3.3 -0.1,-1.1 -0.2,-2.2 -0.4,-3.3 l 0,0 c -0.2,-1.3 -0.5,-2.5 -0.7,-3.7 -0.2,-1.2 -0.5,-2.3 -0.7,-3.3 -0.3,-1.5 -0.5,-2.8 -0.6,-3.9 -0.1,-1.1 -0.2,-2 -0.3,-2.6 0,-0.3 -0.1,-0.7 -0.1,-1.1 0,-1.1 -0.1,-2.5 -0.2,-4 0,-1.6 0,-3.2 0.2,-4.8 0.1,-0.9 0.3,-1.7 0.5,-2.5 0.3,-0.9 0.6,-1.7 0.9,-2.6 1,-2.7 2.2,-5.4 3.3,-7.8 l 1.1,-2.2 c 0.3,-0.5 0.5,-0.9 0.6,-1.5 l 0,0 c -0.9,1 -1.6,2.2 -2.3,3.4 -1.5,2.5 -2.8,5 -4,7.6 -0.8,1.7 -1.4,3.5 -1.8,5.4 -0.3,1.5 -0.4,3.1 -0.5,4.7 -0.1,1.5 0,3 0,4.4 0,2 0.3,4 0.7,6 0.1,0.6 0.3,1.3 0.4,1.9 0.6,2.3 1.3,4.6 1.8,6.9 0.2,1 0.4,2.1 0.5,3.1 0.1,1 0.1,2 0,3.1 -0.1,1.1 -0.3,2.1 -0.7,3.1 -0.4,1 -0.9,1.9 -1.5,2.7 -0.7,1 -1.7,1.8 -2.7,2.3 -1.8,1 -3.8,1.5 -5.8,1.5 -0.9,0 -1.8,-0.2 -2.7,-0.4 -1.3,-0.3 -2.5,-0.9 -3.6,-1.6 -0.9,-0.6 -1.7,-1.3 -2.4,-2.1 -0.8,-0.8 -1.4,-1.8 -1.9,-2.8 l 0,0 c -0.5,-1.2 -0.8,-2.4 -0.9,-3.7 -0.1,-1.3 -0.2,-2.7 -0.2,-4.1 0,-2.4 0.3,-4.8 0.8,-7.1 0.5,-2.6 1.2,-5.2 2,-7.8 0.4,-1.3 0.8,-2.5 1.1,-3.4 0.4,-1.1 0.9,-2.6 1.6,-4.2 0.9,-2.2 2.1,-4.4 3.5,-6.4 l 0,0 c 1.4,-2 2.9,-3.8 4.6,-5.5 1.5,-1.6 3.2,-3 4.9,-4.5 l 5.7,-4 0,0 z"
       id="path191"
       inkscape:connector-curvature="0" /><path
       class="st21"
       d="m 837.6,540 c -2.8,2.7 -6.2,6.2 -6.9,7 -1,1.2 -11.4,12.2 -11.4,14.7 0,0 -1.2,11.2 -0.6,13 0.6,1.8 3.3,12 3.7,12.8 0.4,0.8 7.4,8.9 9.5,9.9 2.1,1 9.1,3.7 9.1,3.7 0,0 17.2,2.7 22.3,2.1 5.1,-0.6 13,-1.4 15.3,-3.5 1.8,-1.6 5.8,-3.2 7.8,-5 2.7,-2.3 5.8,-2.9 7.2,-4.3 0.6,-0.7 1.1,-1.5 1.6,-2.3 l -1.2,0.6 c -0.7,0.3 -1.3,0.7 -2,1 -0.7,0.4 -1.4,0.9 -2,1.4 -0.6,0.5 -1.2,0.9 -1.8,1.3 -0.7,0.4 -1.5,0.8 -2.2,1.2 -0.7,0.4 -1.5,0.8 -2.1,1.2 -0.6,0.4 -1.2,0.8 -1.7,1.2 -0.3,0.3 -0.7,0.5 -1.1,0.7 -0.5,0.2 -1,0.4 -1.5,0.6 -0.6,0.2 -1.2,0.4 -1.9,0.5 -0.7,0.1 -1.4,0.3 -2.1,0.4 -1.5,0.3 -3,0.5 -4.5,0.7 -1.5,0.2 -3,0.4 -4.3,0.5 -0.8,0.1 -1.6,0.1 -2.4,0.1 -1,0 -2.1,-0.1 -3.2,-0.2 -2.3,-0.2 -5,-0.5 -7.4,-0.7 -4.9,-0.6 -9.2,-1.3 -9.2,-1.3 0,0 -1.8,-0.7 -3.8,-1.5 -2,-0.8 -4.3,-1.6 -5.3,-2.1 -0.4,-0.2 -0.7,-0.4 -1,-0.7 -0.4,-0.3 -0.8,-0.7 -1.3,-1.2 -1,-0.9 -2,-2 -3.1,-3.2 -1.1,-1.2 -2,-2.2 -2.8,-3.1 -0.5,-0.6 -1,-1.1 -1.4,-1.8 -0.2,-0.4 -1,-3.2 -1.8,-6 -0.8,-2.8 -1.6,-5.9 -1.9,-6.8 -0.1,-0.4 -0.2,-0.7 -0.2,-1.1 0,-0.5 0,-1.1 0,-1.7 0,-1.3 0.1,-2.9 0.2,-4.4 0.2,-3 0.5,-5.8 0.5,-5.8 0,-0.2 0.1,-0.4 0.1,-0.6 0.1,-0.3 0.2,-0.5 0.3,-0.7 0.4,-0.6 0.8,-1.3 1.2,-1.9 0.5,-0.7 1.1,-1.5 1.7,-2.2 0.6,-0.7 1.3,-1.6 2,-2.4 1.4,-1.6 2.8,-3.2 3.9,-4.4 1.1,-1.2 2,-2.2 2.2,-2.5 0.4,0.1 2.2,-1.7 3.5,-3.2 l 0,0 z"
       id="path193"
       inkscape:connector-curvature="0"
       style="fill:#6e4a25" /><path
       class="st20"
       d="m 881.5,595.4 c 0,0 10.2,2.8 17.3,9.3 5.9,5.4 14.3,17.3 16.5,26.1 1.7,6.9 0.6,13.9 -4.1,16.1 -3.7,1.8 -10.8,2.3 -12.5,0.7 -8.9,-8.9 -5,-16.4 -7.4,-27.2 -2,-8.7 -6.3,-11.8 -6.8,-13.2 -0.5,-1.4 -6.3,-8.9 -6.3,-8.9"
       id="path195"
       inkscape:connector-curvature="0"
       style="fill:#a06121" /><path
       class="st23"
       d="m 882.8,596 -1.8,1.7 c 0,0 1.3,-0.9 2.2,-0.6 0.9,0.3 2.2,0.9 3.7,1.7 0.8,0.4 1.5,0.8 2.4,1.3 0.9,0.5 1.7,1 2.5,1.6 0.8,0.6 1.7,1.2 2.6,1.9 0.9,0.7 1.7,1.4 2.5,2.2 0.7,0.7 1.3,1.4 2.1,2.3 0.8,0.9 1.6,2.5 2.4,3.5 0.8,1 1.7,2.1 2.5,3.2 0.8,1.1 1.6,2.3 2.4,3.5 0.8,1.2 1.5,2.4 2.2,3.6 0.7,1.2 1.3,2.5 1.9,3.7 0.6,1.2 1.1,2.4 1.6,3.6 0.4,1.1 0.8,2.3 1.1,3.4 0.2,0.9 0.4,1.7 0.5,2.6 0.1,0.8 0.2,1.7 0.2,2.5 0,0.8 0,1.6 0,2.4 -0.1,0.8 -0.2,1.5 -0.3,2.3 -0.2,0.7 -0.4,1.4 -0.6,2 -0.2,0.6 -0.6,1.2 -0.9,1.8 -0.2,0.3 -0.4,0.5 -0.6,0.7 l 0,0 c 4.6,-2.2 5.7,-9.2 4.1,-16.1 -2.1,-8.7 -10.5,-20.7 -16.5,-26.1 -4.9,-4.1 -10.4,-7.1 -16.2,-8.7 l 0,0 z"
       id="path197"
       inkscape:connector-curvature="0"
       style="fill:#b8854f" /><path
       d="m 881.9,595.4 5.6,2.5 c 2.1,1 4.1,2.2 6.1,3.5 1.7,1.1 3.2,2.4 4.7,3.7 0.9,0.9 1.8,1.8 2.5,2.6 0.7,0.8 1.5,1.7 2.1,2.5 1.7,2.1 3.3,4.4 4.7,6.7 1,1.5 1.7,2.9 2.3,4.1 0.6,1.2 1.2,2.3 1.6,3.3 l 0.1,0.2 c 0.3,0.8 0.8,1.7 1.3,2.8 0.5,1.3 0.9,2.5 1.3,3.8 0.4,1.5 0.7,3.1 0.8,4.7 0.1,1.6 0.1,3.3 -0.3,4.9 -0.2,1.3 -0.7,2.5 -1.4,3.6 -0.3,0.5 -0.7,1 -1.1,1.4 -0.4,0.4 -0.9,0.7 -1.4,1 -1,0.5 -2.1,0.9 -3.1,1.1 -0.8,0.2 -1.5,0.3 -2.3,0.5 -0.3,0 -0.8,0.1 -1.3,0.1 -0.5,0 -0.9,0 -1.5,0 -0.6,0 -1.2,-0.1 -1.8,-0.2 -0.4,-0.1 -0.8,-0.2 -1.2,-0.3 -0.2,-0.1 -0.5,-0.2 -0.7,-0.4 -0.9,-0.9 -1.7,-1.9 -2.4,-2.9 -0.8,-1.1 -1.4,-2.3 -1.9,-3.6 l 0,0 c -0.8,-2 -1.2,-4.1 -1.4,-6.3 -0.1,-1.2 -0.1,-2.4 -0.2,-3.6 -0.1,-1.2 0,-2.2 -0.1,-3.3 -0.1,-1.1 -0.1,-2.1 -0.2,-3 -0.1,-0.9 -0.2,-1.6 -0.3,-2.1 -0.1,-0.8 -0.3,-1.7 -0.6,-2.8 -0.4,-1.8 -1,-3.7 -1.7,-5.4 l 0,0 c -0.5,-1.2 -1,-2.4 -1.7,-3.5 -0.5,-0.9 -1.1,-1.7 -1.8,-2.5 l 0,0 c -0.6,-0.8 -1.2,-1.5 -1.7,-2.3 -0.2,-0.3 -0.4,-0.5 -0.6,-0.7 l -0.9,-1 c -0.8,-0.9 -1.5,-1.7 -2.2,-2.5 l -1.9,-2.1 -0.2,-0.2 c -0.3,-0.3 -0.5,-0.5 -0.7,-0.7 l -0.2,-0.2 -0.1,0 0,0 -0.4,0.3 -0.1,0.1 0,0 0.1,-0.1 0.3,-0.3 0,0 0,0.1 0.1,0.2 c 0.1,0.2 0.3,0.5 0.5,0.8 0.4,0.6 1,1.5 1.8,2.5 l 2,2.7 0.8,1.1 c 0.2,0.2 0.3,0.5 0.5,0.7 0.5,0.8 1,1.6 1.6,2.4 0.5,0.8 1.1,1.6 1.5,2.4 0.6,1.1 1,2.2 1.4,3.4 0.5,1.7 1,3.5 1.3,5.3 0.3,1.3 0.5,2.6 0.6,3.8 0.1,1.2 0.3,2.3 0.3,3.4 l 0,0.3 c 0.2,2.2 0.3,4.5 0.6,6.9 l 0,0 c 0.3,2.3 0.9,4.5 1.9,6.6 1.2,2.5 2.9,4.7 4.9,6.6 0.3,0.3 0.6,0.5 1,0.6 0.4,0.2 0.9,0.3 1.3,0.3 1.1,0.1 2.3,0.2 3.4,0.1 1.2,-0.1 2.5,-0.3 3.7,-0.5 l 0.1,0 c 0.4,-0.1 0.9,-0.2 1.5,-0.3 0.7,-0.2 1.3,-0.4 1.9,-0.7 l 0,0 c 0.6,-0.3 1.1,-0.6 1.6,-1 0.5,-0.5 1,-1 1.4,-1.6 0.8,-1.2 1.4,-2.6 1.7,-4 0.4,-1.6 0.6,-3.3 0.5,-5 0,-1.8 -0.3,-3.5 -0.7,-5.2 -0.6,-2.5 -1.5,-4.9 -2.6,-7.3 -1.2,-2.6 -2.6,-5.1 -4.2,-7.5 -0.6,-0.9 -1.2,-1.7 -1.6,-2.3 -0.9,-1.2 -2.1,-2.7 -3.6,-4.3 -1.6,-1.8 -3.2,-3.5 -5,-5 -1.8,-1.5 -3.7,-2.8 -5.7,-4 -1.8,-1 -3.6,-2 -5.5,-2.8 l -5.1,-2.1 0,0 z"
       id="path199"
       inkscape:connector-curvature="0" /><path
       d="m 902.8,645.2 c 0.1,0 0.2,0.1 0.3,0.1 0.1,0.1 0.2,0.3 0.2,0.4 0.1,0.2 0.1,0.4 0.1,0.7 0,0.2 0,0.5 -0.1,0.7 -0.1,0.6 -0.3,1.1 -0.6,1.6 -0.1,0.2 -0.2,0.3 -0.3,0.5 -0.3,0.6 -0.8,1.1 -1.3,1.5 -0.2,0.1 -0.4,0.3 -0.6,0.3 -0.1,0 -0.2,0 -0.3,0 l -0.1,0 -0.1,0 0,0 -0.1,-0.1 -0.1,-0.1 0,0 c 0,-0.1 -0.1,-0.2 -0.1,-0.3 0,-0.2 0,-0.5 0,-0.7 0.1,-0.6 0.3,-1.2 0.6,-1.8 l 0.2,-0.4 c 0.2,-0.5 0.5,-0.9 0.8,-1.3 0.1,-0.2 0.2,-0.3 0.4,-0.5 0.1,-0.1 0.2,-0.2 0.4,-0.3 0.1,-0.1 0.2,-0.1 0.3,-0.2 0.2,-0.1 0.3,-0.1 0.4,-0.1 l 0,0 z"
       id="path201"
       inkscape:connector-curvature="0" /><path
       d="m 898.7,644.4 c 0.1,0 0.2,0 0.3,0.1 0.1,0.1 0.2,0.2 0.3,0.3 0.2,0.3 0.3,0.6 0.3,1 0,0.4 0,0.8 -0.1,1.2 0,0.1 -0.1,0.3 -0.1,0.4 -0.1,0.5 -0.4,0.9 -0.8,1.3 -0.1,0.1 -0.3,0.3 -0.5,0.3 -0.1,0 -0.2,0.1 -0.2,0.1 l -0.1,0 -0.1,0 0,0 -0.1,0 -0.1,-0.1 c -0.1,0 -0.1,-0.1 -0.2,-0.2 -0.1,-0.2 -0.2,-0.3 -0.2,-0.5 -0.1,-0.5 -0.1,-0.9 -0.1,-1.4 0,-0.1 0,-0.3 0.1,-0.4 0.1,-0.4 0.2,-0.7 0.3,-1.1 0.1,-0.3 0.3,-0.5 0.6,-0.7 0.1,-0.1 0.2,-0.2 0.3,-0.2 0.2,0 0.3,0 0.4,-0.1 l 0,0 z"
       id="path203"
       inkscape:connector-curvature="0" /><path
       d="m 908.7,646.1 c 0.4,-0.1 0.8,0.1 1,0.5 0.3,0.4 0.5,0.9 0.5,1.4 0,0.4 0,0.7 -0.2,1.1 -0.1,0.3 -0.3,0.6 -0.5,0.8 -0.1,0.1 -0.2,0.1 -0.3,0.2 -0.1,0 -0.2,0 -0.3,0 l 0,0 c -0.1,0 -0.2,-0.1 -0.3,-0.1 -0.1,-0.1 -0.2,-0.1 -0.3,-0.2 -0.2,-0.2 -0.3,-0.4 -0.4,-0.7 -0.1,-0.3 -0.2,-0.6 -0.2,-0.9 0,-0.5 0.1,-0.9 0.3,-1.3 0.1,-0.5 0.4,-0.7 0.7,-0.8 l 0,0 z"
       id="path205"
       inkscape:connector-curvature="0" /><path
       class="st24"
       d="m 858.3,570.5 5.3,0 9.7,3.5 11.4,7 c 0,0 3.1,2.2 3.5,3.5 0.4,1.3 -1,7.2 -1,7.2 l -1.9,5.8 c 0,0 -11.3,9.1 -15.3,10.1 -4,1 -21.6,0.7 -24.5,-2.5 -2.9,-3.2 -9.3,-11.3 -9.3,-13.9 0,-2.6 0,-4.8 1.3,-6.1 1.3,-1.3 3.1,-2.2 8.8,-7.2 1.4,-1.2 5.3,-4.7 7,-6 1.7,-1.3 3.9,-1.8 5,-1.4 l 0,0 z"
       id="path207"
       inkscape:connector-curvature="0"
       style="fill:#834317" /><path
       class="st23"
       d="m 857.6,570.4 c -1.1,0.1 -2.3,0.4 -3.3,1 0.3,-0.1 0.7,-0.1 1,-0.1 0.4,0 4.5,-0.5 4.8,-0.4 l 5,0.5 6.4,2.9 11.2,7.7 c 0,0 0.8,0.5 1.6,1.3 0.4,0.4 0.8,0.7 1.2,1.1 0.2,0.2 0.3,0.4 0.5,0.6 0.1,0.2 0.2,0.3 0.3,0.5 0.1,0.2 0.1,0.5 0.1,0.7 0,0.3 0,0.7 0,1 -0.1,0.7 -0.2,1.6 -0.4,2.4 -0.3,1.6 -0.7,3.1 -0.7,3.1 l -1.9,5.8 c 0,0 -0.7,0.6 -1.8,1.4 -1.1,0.8 -2.7,2 -4.3,3.2 -0.8,0.6 -1.7,1.2 -2.5,1.8 -0.8,0.6 -1.7,1.1 -2.5,1.6 -0.8,0.5 -1.5,0.9 -2.2,1.2 l 0.3,0 c 4.1,-1 14.8,-10.4 14.8,-10.4 l 2.5,-5.6 c 0,0 1.5,-5.8 1,-7.2 -0.5,-1.4 -3.7,-3.5 -3.7,-3.5 l -11.4,-7 -9.6,-3.5 -5.3,0 c -0.3,-0.1 -0.7,-0.2 -1.1,-0.1 l 0,0 z"
       id="path209"
       inkscape:connector-curvature="0"
       style="fill:#b8854f" /><path
       class="st25"
       d="m 839.1,583.8 c -0.6,0.4 -1.1,0.9 -1.7,1.4 -1.3,1.3 -1.3,3.4 -1.3,6.1 0,2.7 6.4,10.7 9.4,13.9 3,3.2 20.5,3.5 24.5,2.5 4,-1 15.3,-10.5 15.3,-10.5 l 0.2,-0.6 c -1.1,0.8 -2.3,2.3 -3.9,3.4 -0.8,0.6 -1.7,1.2 -2.5,1.8 -0.8,0.6 -1.7,1.1 -2.5,1.6 -0.8,0.5 -1.6,0.9 -2.3,1.3 -0.6,0.3 -1.2,0.5 -1.8,0.7 -0.7,0.2 -1.4,0.3 -2.1,0.3 -0.9,0.1 -1.9,0.2 -3,0.2 -1.1,0 -2.4,0 -3.6,0 -1.2,0 -2.6,-0.1 -3.9,-0.2 -1.3,-0.1 -2.6,-0.2 -3.9,-0.4 -1.3,-0.2 -2.4,-0.3 -3.5,-0.6 -0.5,-0.1 -1,-0.2 -1.5,-0.4 -0.4,-0.1 -0.9,-0.3 -1.3,-0.5 -0.3,-0.1 -0.7,-0.3 -1,-0.5 -0.3,-0.2 -0.5,-0.3 -0.7,-0.6 -0.7,-0.8 -1.7,-1.9 -2.7,-3.2 -1,-1.3 -2.1,-2.6 -3.1,-4 -0.5,-0.7 -1,-1.4 -1.4,-2 -0.4,-0.6 -0.8,-1.3 -1.1,-1.9 -0.3,-0.5 -0.6,-1.1 -0.8,-1.6 -0.2,-0.4 -0.3,-0.8 -0.3,-1.2 0,-0.7 0,-1.3 0,-1.9 0,-0.6 0.1,-1.1 0.1,-1.7 0.1,-0.5 0.2,-1 0.4,-1.4 -0.1,0.2 0,0.1 0,0 l 0,0 z"
       id="path211"
       inkscape:connector-curvature="0"
       style="fill:#5d381e" /><path
       class="st25"
       d="m 858.4,584.8 c 0.3,1.5 0.9,1.6 1.9,2.7 1,1.1 1,4.6 0.8,8.3 l 1.6,0.6 -0.9,-9.2 -3.4,-2.4 z"
       id="path213"
       inkscape:connector-curvature="0"
       style="fill:#5d381e" /><path
       d="m 838.4,584.6 c 2.8,-2.2 5.4,-4.3 7.7,-6.3 1.8,-1.5 3.4,-3 5,-4.2 l 0,0 c 1.1,-0.9 2.3,-1.7 3.7,-2.4 1.2,-0.5 2.4,-0.8 3.7,-0.9 l 0,0 c 1.2,-0.1 2.3,-0.1 3.5,0 1,0.1 2,0.2 3,0.4 0.9,0.2 1.8,0.5 2.7,0.9 0.8,0.3 1.5,0.7 2.2,1.1 1.2,0.6 2.2,1.3 3.1,1.8 0.9,0.6 1.8,1.1 2.6,1.6 l 1,0.6 c 1.7,1 4.4,2.5 7.7,4 1,0.4 1.8,1.2 2.4,2.1 0.6,1 1,2.1 1.1,3.3 l 0,0 c 0.2,1.4 0.1,2.8 -0.2,4.2 -0.3,1.3 -0.7,2.6 -1.2,3.8 l 0,0 c -0.4,0.9 -1,1.8 -1.6,2.6 -0.5,0.7 -1.1,1.3 -1.7,1.9 -0.5,0.5 -1,1 -1.3,1.3 -0.3,0.3 -1,0.8 -1.7,1.3 -0.7,0.5 -1.7,1.1 -2.7,1.8 -2.2,1.3 -4.6,2.4 -7.1,3.2 -1.2,0.4 -2.3,0.7 -3.6,0.9 -1.2,0.2 -2.4,0.4 -3.6,0.4 -1.5,0 -2.9,-0.1 -4.4,-0.2 -1.3,-0.2 -2.6,-0.4 -3.8,-0.7 -1.7,-0.4 -3.4,-1 -5.1,-1.7 l -0.2,-0.1 c -0.9,-0.4 -1.7,-0.7 -2.6,-1.2 -1.1,-0.6 -2.1,-1.2 -3,-1.9 -1.5,-1.1 -2.8,-2.5 -3.8,-4.1 -0.7,-1.1 -1.4,-2.3 -2,-3.4 -0.6,-1.1 -1.1,-2.3 -1.5,-3.6 -0.3,-1.1 -0.4,-2.2 -0.1,-3.3 0.1,-0.8 0.5,-1.5 0.9,-2.1 0.2,-0.3 0.4,-0.6 0.7,-0.8 0.2,-0.2 0.3,-0.3 0.3,-0.3 l 0,0 0,0 c -0.1,0.1 -0.2,0.1 -0.3,0.2 -0.2,0.2 -0.4,0.4 -0.6,0.6 -0.3,0.3 -0.6,0.6 -0.8,1 -0.6,0.9 -1,2 -1.1,3.1 0,0.7 0,1.3 0.2,2 0.3,1.4 0.7,2.7 1.3,3.9 0.5,1.2 1.2,2.4 1.8,3.6 1,1.8 2.3,3.4 3.9,4.7 1.8,1.5 3.8,2.7 5.9,3.6 1.6,0.7 3.3,1.3 5.1,1.7 1.5,0.3 3.1,0.6 4.7,0.7 1.6,0.1 3.2,0.1 4.8,0 2.6,-0.2 5.1,-0.8 7.5,-1.8 2.5,-1 4.9,-2.2 7.1,-3.6 l 0,0 c 1.3,-0.8 2.4,-1.6 3.3,-2.4 0.9,-0.8 1.8,-1.5 2.5,-2.1 l 0.4,-0.4 c 0.5,-0.5 1,-1 1.5,-1.6 0.7,-0.8 1.3,-1.7 1.8,-2.6 0.6,-1.2 1.1,-2.5 1.5,-3.9 0.4,-1.5 0.5,-3.1 0.4,-4.7 -0.1,-1.4 -0.5,-2.7 -1.1,-3.9 -0.7,-1.2 -1.7,-2.2 -3,-2.8 -3,-1.5 -5.8,-3.1 -8.4,-4.7 l 0,0 -3,-1.8 c -1,-0.6 -1.9,-1.1 -2.8,-1.6 -0.7,-0.4 -1.4,-0.7 -2.1,-1 -0.6,-0.2 -1.2,-0.4 -1.8,-0.6 -0.4,-0.1 -0.9,-0.2 -1.5,-0.3 -1.1,-0.2 -2.1,-0.3 -3.2,-0.3 -1.2,0 -2.5,0.1 -3.7,0.2 -1.4,0.1 -2.7,0.5 -4,1.2 -1.3,0.7 -2.6,1.6 -3.7,2.7 -1.7,1.5 -3.3,3.1 -4.8,4.5 -2.1,1.9 -3.9,3.6 -5.3,4.8 -1.4,1.2 -2.5,1.6 -2.6,1.6 l 0,0 z"
       id="path215"
       inkscape:connector-curvature="0" /><path
       class="st21"
       d="m 845.1,564.1 c -1,-0.5 -1.9,-2.9 -1.9,-1.7 0,1.2 0.4,3.2 1.2,4 0.8,0.8 5.2,1.4 5.2,0.3 0,-1.2 -3.5,-2 -4.5,-2.6 l 0,0 z"
       id="path217"
       inkscape:connector-curvature="0"
       style="fill:#6e4a25" /><path
       d="m 847.3,558.1 c -2.3,0 -3.9,1.1 -3.9,3.4 0,2.3 1.6,4.7 3.9,4.9 2.1,0.2 3.9,-1.2 4.2,-3.3 0,-0.3 0,-0.6 0,-0.9 -0.1,-2.2 -1.9,-4 -4.2,-4.1 l 0,0 z"
       id="path219"
       inkscape:connector-curvature="0" /><path
       d="m 875.2,558.3 c -2.1,-0.2 -3.9,1.4 -4.1,3.5 0,0.1 0,0.2 0,0.3 0,2.3 1,4.5 3.3,4.7 2.1,0.2 3.9,-1.2 4.2,-3.3 0,-0.3 0,-0.6 0,-0.9 -0.2,-2.2 -1.1,-4.3 -3.4,-4.3 z"
       id="path221"
       inkscape:connector-curvature="0" /><path
       class="st20"
       d="m 820.8,562.1 c 0,0 -5.5,-1.9 -6.2,-2.7 -0.7,-0.8 -6.6,-7.1 -6.7,-10.5 -0.1,-3.4 0.2,-7.9 3.1,-10.7 2.9,-2.8 7.8,-5.6 9.8,-5.9 2,-0.3 7.1,1.9 8,2.9 0.9,1 7.6,7.4 8,8 0.4,0.6 -16,18.9 -16,18.9 l 0,0 z"
       id="path223"
       inkscape:connector-curvature="0"
       style="fill:#a06121" /><path
       class="st21"
       d="m 820.9,532.4 0,0 c -2.1,0.3 -6.9,3.1 -9.9,5.9 -2.9,2.8 -3.1,7.3 -3.1,10.7 0,3.4 5.9,9.6 6.7,10.5 0.8,0.9 6.2,2.7 6.2,2.7 l 1.8,-2.1 c -0.5,-0.2 -0.6,-0.2 -1.2,-0.4 -0.6,-0.2 -1.5,-0.6 -2.1,-0.9 -0.5,-0.2 -0.9,-0.4 -1.3,-0.8 -0.2,-0.2 -0.7,-0.8 -1.3,-1.5 -0.6,-0.7 -1.5,-1.7 -2.2,-2.8 -0.4,-0.5 -0.8,-1.1 -1.1,-1.6 -0.3,-0.5 -0.7,-1.1 -1,-1.6 -0.3,-0.5 -0.5,-1 -0.7,-1.5 -0.1,-0.4 -0.2,-0.9 -0.2,-1.4 0,-0.8 0,-1.8 0,-2.7 0.1,-1 0.2,-1.9 0.4,-2.9 0.1,-0.5 0.2,-0.9 0.4,-1.4 0.2,-0.5 0.3,-0.9 0.5,-1.3 0.2,-0.4 0.5,-0.9 0.8,-1.3 0.3,-0.4 0.6,-0.8 1,-1.1 0.8,-0.7 1.6,-1.4 2.5,-2 0.9,-0.7 1.8,-1.3 2.8,-1.8 0.3,-0.4 0.6,-0.5 1,-0.7 l 0,0 z"
       id="path225"
       inkscape:connector-curvature="0"
       style="fill:#6e4a25" /><path
       d="m 837.5,544 0,0 0,0 0,0 -0.3,-0.5 c -0.3,-0.5 -0.7,-0.9 -1,-1.3 l 0,0 c -1.2,-1.6 -2.4,-2.9 -3.4,-4 -0.9,-1 -1.7,-1.8 -2.5,-2.5 -0.8,-0.7 -1.5,-1.3 -2.2,-1.8 -0.8,-0.6 -1.7,-1.2 -2.7,-1.7 -0.9,-0.5 -1.9,-0.8 -2.9,-1 -0.3,0 -0.5,-0.1 -0.8,-0.1 -0.5,0 -0.9,0 -1.4,0.1 -0.6,0.1 -1.1,0.3 -1.7,0.5 -0.7,0.3 -1.3,0.6 -1.9,1 -0.6,0.4 -1.2,0.8 -1.8,1.3 -0.6,0.5 -1.2,1.1 -1.8,1.7 -0.6,0.6 -1.1,1.1 -1.5,1.7 -0.7,0.8 -1.3,1.7 -1.8,2.5 -0.2,0.3 -0.5,0.8 -1,1.5 -0.3,0.5 -0.6,1 -0.8,1.6 -0.2,0.6 -0.4,1.3 -0.5,2 l 0,0 c -0.1,0.7 -0.1,1.3 -0.1,2 0,0.7 0,1.3 0.1,2 l 0,0 c 0.1,1.3 0.4,2.5 0.8,3.8 0.2,0.6 0.3,1.1 0.5,1.6 0.1,0.4 0.3,0.7 0.5,1.1 l 0,0 c 0.3,0.5 0.6,1 1,1.4 0.5,0.5 1,1 1.6,1.4 l 0,0 c 1.1,0.8 2.2,1.4 3.4,2 1.1,0.5 2.2,1 3.3,1.4 0.5,0.2 1,0.4 1.5,0.5 0.2,0.1 0.5,0.1 0.7,0.1 0.1,0 0.1,-0.1 -0.1,-0.2 -0.2,-0.1 -0.4,-0.2 -0.7,-0.4 l -1.2,-0.7 c -0.8,-0.5 -1.9,-1.1 -3,-1.9 -1,-0.7 -2,-1.4 -2.9,-2.3 -0.4,-0.4 -0.8,-0.8 -1.1,-1.2 -0.3,-0.4 -0.5,-0.7 -0.7,-1.2 -0.3,-0.7 -0.6,-1.3 -0.8,-1.9 l -0.2,-0.5 c -0.5,-1.1 -0.8,-2.2 -1.1,-3.4 -0.3,-1.2 -0.5,-2.5 -0.5,-3.7 l 0,0 c 0,-0.6 0.1,-1.2 0.2,-1.8 0.1,-0.5 0.3,-1.1 0.6,-1.5 0.5,-0.8 1,-1.6 1.6,-2.3 0.6,-0.6 1.2,-1.3 1.8,-1.8 1,-0.9 2,-1.7 3.1,-2.4 1.1,-0.7 2.3,-1.4 3.5,-1.8 0.5,-0.2 1,-0.3 1.5,-0.4 0.5,-0.1 0.9,-0.1 1.4,0 l 0,0 c 0.8,0.1 1.6,0.4 2.4,0.7 0.6,0.3 1.2,0.5 1.6,0.8 0.4,0.3 0.6,0.3 1,0.5 0.8,0.5 1.6,1 2.4,1.6 0.9,0.6 1.8,1.3 2.6,2.1 1.3,1.2 2.6,2.4 3.8,3.7 0.5,0.5 0.8,0.9 1.1,1.2 l 0.3,0.3 0,0 0.1,0.2 0,0 0,0 0,0 z"
       id="path227"
       inkscape:connector-curvature="0" /><path
       d="m 881.5,544.7 0,0 0,0 0,0 0.3,-0.4 0.8,-1.1 c 0.9,-1.3 1.8,-2.4 2.5,-3.4 1.1,-1.4 2,-2.6 2.9,-3.6 0.4,-0.5 0.8,-0.9 1.2,-1.3 0.2,-0.2 0.5,-0.5 0.8,-0.6 0.5,-0.3 1.1,-0.5 1.7,-0.7 0.5,-0.1 1,-0.2 1.5,-0.2 0.4,0 0.8,0 1.1,0 0.3,0 0.7,0.1 1,0.1 0.3,0 0.6,0.1 1,0.2 0.9,0.2 1.8,0.5 2.7,0.8 1,0.4 2,1 2.9,1.6 1.1,0.8 2.1,1.4 3,1.9 0.5,0.3 1,0.7 1.4,1.1 0.3,0.3 0.6,0.5 0.8,0.8 l 0.1,0.2 c 0.3,0.4 0.5,0.8 0.7,1.3 0.2,0.6 0.3,1.3 0.4,2 l 0,0 c 0,0.9 0,1.8 -0.2,2.7 -0.2,0.9 -0.4,1.9 -0.7,2.8 l 0,0 c -0.2,0.6 -0.4,1.1 -0.8,1.6 -0.3,0.5 -0.7,1 -1,1.4 -0.5,0.6 -0.8,1.1 -1,1.4 -0.6,0.8 -1.3,1.5 -2,2.2 -0.6,0.6 -1.2,1.1 -1.8,1.6 -0.7,0.5 -1.4,1 -2.1,1.4 -0.5,0.3 -1.1,0.6 -1.7,0.8 -0.5,0.2 -1,0.3 -1.5,0.4 -0.4,0 -0.6,0.1 -0.6,0.1 0,0 0.2,0.2 0.5,0.2 0.5,0.1 1.1,0.1 1.6,0 0.8,-0.1 1.6,-0.3 2.3,-0.5 l 0,0 c 0.8,-0.3 1.6,-0.6 2.3,-1.1 0.8,-0.4 1.5,-1 2.3,-1.5 l 0,0 c 0.7,-0.6 1.4,-1.2 2,-1.8 0.6,-0.6 1,-1.2 1.5,-1.9 l 0.2,-0.3 c 0.7,-1.1 1.1,-2.2 1.4,-3.5 l 0,0 c 0.2,-1 0.3,-2 0.4,-3 0.1,-1 0,-1.9 -0.1,-2.9 -0.1,-0.7 -0.3,-1.4 -0.6,-2 -0.2,-0.6 -0.5,-1.1 -0.9,-1.6 -0.3,-0.3 -0.5,-0.7 -0.8,-1 -0.2,-0.2 -0.3,-0.4 -0.6,-0.6 -0.3,-0.2 -0.6,-0.5 -0.9,-0.8 -0.3,-0.3 -0.8,-0.7 -1.3,-1 -0.5,-0.3 -1,-0.8 -1.5,-1.2 l 0,0 c -0.8,-0.7 -1.8,-1.4 -2.8,-1.9 -1,-0.6 -2.1,-1 -3.2,-1.3 l 0,0 c -0.6,-0.2 -1.3,-0.3 -1.9,-0.3 -0.6,-0.1 -1.2,-0.1 -1.8,0 -0.6,0.1 -1.2,0.2 -1.8,0.4 -0.4,0.1 -0.9,0.3 -1.3,0.6 -0.2,0.1 -0.5,0.3 -0.7,0.5 -0.4,0.3 -0.7,0.6 -0.9,1 l 0,0 c -0.4,0.5 -0.7,1 -1.1,1.5 l 0,0 c -0.8,1.2 -1.7,2.6 -2.5,3.9 -0.8,1.3 -1.6,2.7 -2.2,3.7 l -0.7,1.2 -0.3,0.1 0,0 0.1,0.1 0,0 0,0 -0.1,-0.1 z"
       id="path229"
       inkscape:connector-curvature="0" /><path
       class="st24"
       d="m 833.7,548.7 c 0,0 -3.9,3.5 -4.8,4.9 -1.1,1.5 -2.4,2.9 -3.9,4 -0.6,-0.1 -1.2,-0.2 -1.8,-0.4 -1.2,-1.3 -2.3,-2.7 -3.2,-4.2 -0.8,-1.6 -2.7,-3.1 -1.9,-5 0.8,-1.9 1.7,-5.1 3.7,-5.2 2,-0.2 4,-0.1 6,0.2 1,0.3 2,0.8 3,1.4 0.6,0.5 3.8,3.5 2.9,4.3 l 0,0 z"
       id="path231"
       inkscape:connector-curvature="0"
       style="fill:#834317" /><path
       class="st25"
       d="m 821.7,542.9 c -1.8,0.5 -2.6,3.3 -3.3,5.1 -0.7,1.8 1.1,3.3 1.9,5 0.9,1.5 2,3 3.2,4.2 0.6,0.2 1.2,0.3 1.8,0.4 0.4,-0.2 0.8,-0.5 1.1,-0.9 -0.3,0 -0.6,-0.1 -0.9,-0.1 -0.4,-0.1 -0.8,-0.2 -0.8,-0.2 0,0 -0.6,-0.7 -1.3,-1.5 -0.3,-0.4 -0.7,-0.9 -1.1,-1.4 -0.3,-0.4 -0.6,-0.9 -0.8,-1.4 -0.2,-0.4 -0.5,-0.8 -0.7,-1.2 -0.3,-0.4 -0.6,-0.8 -0.8,-1.2 -0.1,-0.2 -0.2,-0.4 -0.3,-0.6 -0.1,-0.2 -0.1,-0.4 -0.2,-0.6 0,-0.2 0,-0.4 0,-0.6 0,-0.2 0.1,-0.5 0.2,-0.7 0.2,-0.5 0.4,-1 0.6,-1.6 0.2,-0.6 0.5,-1.1 0.8,-1.7 0.1,-0.3 0.3,-0.5 0.5,-0.7 -0.1,-0.1 0,-0.2 0.1,-0.3 l 0,0 z"
       id="path233"
       inkscape:connector-curvature="0"
       style="fill:#5d381e" /><path
       d="m 833.8,548.6 c -0.7,0.4 -1.3,0.8 -1.9,1.2 -0.6,0.4 -1.1,0.8 -1.5,1.2 -0.4,0.4 -1.1,0.9 -1.5,1.4 -0.4,0.4 -0.8,0.8 -1.1,1.3 -0.3,0.4 -0.6,0.8 -1,1.2 -0.3,0.3 -0.6,0.6 -0.9,0.8 -0.3,0.3 -0.7,0.5 -1.1,0.7 -0.3,0.1 -0.5,0.2 -0.6,0.2 l 0.3,0 -0.2,-0.1 0,0 c -0.3,-0.2 -0.6,-0.4 -0.8,-0.7 -0.4,-0.3 -0.8,-0.7 -1.2,-1.1 -0.4,-0.4 -0.8,-0.9 -1.2,-1.3 -0.4,-0.4 -0.9,-1.1 -1.3,-1.7 -0.3,-0.4 -0.6,-0.9 -0.8,-1.4 -0.1,-0.2 -0.2,-0.4 -0.2,-0.5 -0.1,-0.3 -0.2,-0.7 -0.2,-1 0,-0.4 0,-0.8 0.1,-1.1 l 0,0 c 0.3,-0.7 0.7,-1.3 1.2,-1.8 0.5,-0.5 1.1,-1 1.8,-1.3 0.5,-0.3 1,-0.5 1.5,-0.7 l 1,-0.3 c 0.4,-0.1 0.7,-0.2 1.1,-0.3 0.3,0 0.5,0 0.8,0 0.3,0 0.7,0.1 1,0.1 l 0,0 c 0.7,0.2 1.4,0.4 2.1,0.7 0.6,0.3 1.2,0.5 1.7,0.8 l 0.3,0.1 0.2,0.1 0.2,0 0,0 0.3,-0.4 0,0 0.1,-0.2 0,0 -0.1,0.1 -0.2,0.4 c 0,0 0,0 0,0 0,-0.1 -0.1,-0.1 -0.1,-0.2 -0.1,-0.2 -0.3,-0.3 -0.4,-0.5 l 0,0 c -0.5,-0.5 -1,-0.9 -1.5,-1.3 -0.7,-0.5 -1.4,-0.9 -2.1,-1.2 -0.8,-0.4 -1.6,-0.5 -2.4,-0.5 -0.6,0 -1.1,0.1 -1.7,0.2 -0.5,0.1 -0.9,0.3 -1.3,0.5 -0.5,0.3 -1,0.6 -1.5,1 -0.7,0.6 -1.3,1.2 -1.8,2 -0.5,0.7 -0.8,1.5 -1,2.3 -0.1,0.5 -0.1,1 0,1.5 0.1,0.6 0.3,1.1 0.5,1.6 l 0.1,0.2 c 0.2,0.5 0.3,0.9 0.5,1.4 0.3,0.7 0.7,1.4 1.1,2 0.6,1.1 1.4,2.1 2.2,3 0.3,0.3 0.6,0.7 1,0.9 0.2,0.1 0.3,0.2 0.5,0.3 l 0,0 c 0.2,0.1 0.5,0.1 0.7,0.1 0.5,-0.1 0.9,-0.3 1.3,-0.5 0.5,-0.3 0.9,-0.6 1.2,-1 0.2,-0.2 0.4,-0.4 0.5,-0.6 0.5,-0.6 0.9,-1.3 1.2,-2 0.2,-0.5 0.5,-0.9 0.8,-1.3 0.4,-0.5 0.8,-1.1 1.2,-1.6 0.4,-0.5 0.7,-0.8 1.1,-1.2 0.4,-0.4 0.7,-0.7 1,-0.9 0.3,-0.1 0.6,-0.4 1,-0.6 l 0,0 z"
       id="path235"
       inkscape:connector-curvature="0" /><path
       class="st24"
       d="m 884,548.1 c 0,0 4,1.7 4.9,3.1 0.9,1.4 3.8,5 4.1,5.1 0.6,-0.1 1.2,-0.2 1.8,-0.4 1.2,-1.3 2.3,-2.7 3.2,-4.2 0.8,-1.6 1.8,-3.5 0.9,-5.4 -0.8,-1.9 -1.6,-4.5 -2.8,-4.8 -2,-0.4 -4,-0.3 -6,0.2 -1,0.3 -2,0.8 -3,1.4 -0.4,0.5 -4,4.7 -3.1,5 l 0,0 z"
       id="path237"
       inkscape:connector-curvature="0"
       style="fill:#834317" /><path
       d="m 883.5,548 0,0 0.1,0 0.5,0.2 c 0.5,0.2 1,0.5 1.5,0.8 0.8,0.5 1.5,1 2.1,1.7 0.5,0.5 0.8,1.1 1.1,1.7 0.4,0.8 0.8,1.5 1.4,2.2 0.4,0.5 0.9,0.9 1.4,1.3 0.4,0.3 0.8,0.5 1.2,0.7 0.2,0.1 0.4,0.1 0.6,0.2 0.3,0.1 0.7,0.1 1,0 0.4,-0.1 0.7,-0.3 1,-0.6 0.1,-0.1 0.2,-0.3 0.4,-0.4 l 0.7,-0.7 c 0.6,-0.7 1.1,-1.4 1.6,-2.1 0.3,-0.5 0.6,-1 0.8,-1.5 0.2,-0.4 0.3,-0.9 0.4,-1.3 0.1,-0.2 0.1,-0.5 0.1,-0.7 0,-0.2 0.1,-0.6 0.2,-1.1 0.1,-0.6 0.1,-1.1 0,-1.7 -0.1,-0.8 -0.3,-1.6 -0.7,-2.3 -0.4,-0.7 -0.9,-1.4 -1.4,-1.9 -0.5,-0.5 -1,-0.9 -1.6,-1.3 -0.4,-0.2 -0.8,-0.4 -1.3,-0.5 -1.1,-0.3 -2.3,-0.3 -3.4,0.1 -0.6,0.2 -1.1,0.4 -1.7,0.7 l 0,0 c -0.6,0.3 -1.1,0.6 -1.5,1 -0.4,0.4 -0.8,0.8 -1.2,1.3 -0.1,0.1 -0.2,0.2 -0.2,0.4 0,0.1 0,0.1 0,0.1 0.2,-0.1 0.4,-0.2 0.6,-0.4 0.4,-0.3 0.8,-0.5 1.2,-0.7 0.5,-0.3 1.1,-0.5 1.7,-0.6 0.5,-0.1 0.9,-0.2 1.4,-0.2 0.4,-0.1 0.9,-0.1 1.3,0 0.7,0.1 1.5,0.4 2.1,0.8 0.4,0.2 0.9,0.4 1.3,0.7 0.6,0.4 1.1,0.9 1.5,1.4 0.4,0.5 0.7,1.1 0.9,1.7 0.2,0.6 0.2,1.2 0.2,1.8 0,0.5 -0.1,0.9 -0.3,1.3 l 0,0 c -0.1,0.3 -0.3,0.7 -0.5,1 -0.3,0.5 -0.6,0.9 -1,1.4 l 0,0 c -0.5,0.6 -1.1,1.2 -1.7,1.7 l 0,0 -0.7,0.6 c -0.2,0.2 -0.4,0.3 -0.5,0.5 l 0,0 c -0.1,0 -0.2,0 -0.2,0 -0.4,-0.1 -0.8,-0.3 -1.1,-0.5 -0.5,-0.4 -1.1,-0.8 -1.5,-1.3 -0.4,-0.4 -0.8,-0.8 -1.2,-1.2 -0.5,-0.7 -1.2,-1.4 -1.9,-1.9 -0.7,-0.5 -1.5,-0.9 -2.3,-1.2 -0.5,-0.2 -1.1,-0.4 -1.7,-0.5 l -0.7,-0.7 0,0 0,0 0,0 0,0 z"
       id="path239"
       inkscape:connector-curvature="0" /><path
       d="m 835.6,542.1 c 1.6,-1.6 3.4,-3.1 5.4,-4.3 2.2,-1.4 4.6,-2.4 7.1,-3.1 0.8,-0.2 1.5,-0.4 2,-0.5 0.5,-0.1 1.3,-0.4 2.2,-0.6 0.9,-0.2 2,-0.5 3,-0.7 1,-0.2 2.2,-0.3 3.2,-0.4 1,-0.1 1.9,-0.1 2.6,-0.1 l 0.9,0 c 0.9,0.1 1.7,0.2 2.6,0.4 1.2,0.2 2.5,0.6 3.9,1 1.1,0.3 2.1,0.7 3,1 0.9,0.3 1.7,0.7 2.2,1 l 0.7,0.3 c 0.6,0.2 1.1,0.5 1.7,0.8 0.7,0.4 1.4,0.9 2.1,1.4 0.8,0.6 1.5,1.2 2.2,1.9 0.7,0.7 1.4,1.3 2,2 0.4,0.4 0.5,0.5 0.5,0.3 -0.1,-0.4 -0.3,-0.7 -0.5,-1.1 -0.9,-1.6 -2,-3 -3.2,-4.3 -0.7,-0.7 -1.4,-1.4 -2.2,-1.9 -0.7,-0.5 -1.5,-1 -2.3,-1.4 -0.3,-0.1 -0.7,-0.3 -1,-0.4 -1.6,-0.5 -3.2,-0.8 -4.8,-1 -1.6,-0.2 -3.1,-0.3 -4.4,-0.4 -1.3,-0.1 -2.4,-0.2 -3.2,-0.3 l -0.1,0 c -0.6,-0.1 -1.7,-0.2 -3,-0.2 -1.6,0 -3.1,0 -4.7,0.2 -1.6,0.2 -3.2,0.5 -4.8,1 -1.2,0.3 -2.3,0.8 -3.4,1.3 -1,0.6 -2,1.2 -2.9,1.8 -1.2,0.8 -2.3,1.7 -3.3,2.7 -0.9,0.8 -1.7,1.7 -2.5,2.6 -0.6,0.7 -1,1.2 -1,1.2 l 0,-0.2 z"
       id="path241"
       inkscape:connector-curvature="0" /><path
       d="m 819.4,562.1 c -0.1,1.1 -0.2,2.2 -0.5,3.2 l 0,0 c -0.3,1.2 -0.5,2.3 -0.7,3.4 -0.2,1.1 -0.2,2.3 -0.2,3.5 0,1 0.1,1.9 0.1,2.6 0,0.7 0.2,1.4 0.3,1.9 0.1,0.5 0.2,1 0.3,1.5 l 0.1,0.3 c 0.2,0.8 0.6,2 1.1,3.5 0.5,1.5 1.2,3 1.8,4.3 0.3,0.7 0.7,1.4 1,1.9 0.3,0.5 0.6,1 0.8,1.2 0.2,0.2 0.7,1.2 1.4,2.3 0.5,0.8 1.1,1.5 1.7,2.2 0.7,0.7 1.4,1.4 2.2,2.1 0.8,0.7 1.6,1.2 2.2,1.7 0.5,0.3 1,0.7 1.5,0.9 l 2.2,1.1 c 0.8,0.4 1.7,0.8 2.6,1.1 0.9,0.3 1.9,0.5 2.9,0.7 l 1.9,0.2 c 0.4,0.1 0.6,0 0.6,0 l 0,0 c -0.7,-0.5 -1.5,-0.8 -2.3,-1 -0.7,-0.3 -1.5,-0.7 -2.4,-1.1 -0.8,-0.4 -1.6,-0.9 -2.4,-1.5 -0.7,-0.5 -1.3,-0.9 -1.9,-1.3 -0.6,-0.4 -1.2,-0.7 -1.7,-1 -0.8,-0.4 -1.6,-0.8 -2.3,-1.3 -0.8,-0.5 -1.6,-1 -2.3,-1.6 -0.7,-0.5 -1.3,-1.2 -1.9,-1.8 -0.8,-0.9 -1.4,-1.8 -1.9,-2.9 -0.2,-0.5 -0.5,-1.3 -0.9,-2.4 -0.4,-1.1 -0.8,-2.5 -1.2,-3.9 -0.4,-1.4 -0.7,-2.9 -1.1,-4.3 -0.2,-0.8 -0.4,-1.5 -0.5,-2.2 -0.1,-0.7 -0.2,-1.2 -0.3,-1.6 -0.1,-0.4 -0.3,-1.3 -0.4,-2.2 -0.1,-1 -0.2,-1.9 -0.2,-2.9 0,-1.2 0.1,-2.4 0.2,-3.4 0.1,-1 0.1,-1.8 0.1,-2.4 0,-0.6 0.1,-0.7 0.1,-0.8 l 0,0 z"
       id="path243"
       inkscape:connector-curvature="0" /><path
       d="m 895.3,560.3 c 0.4,0.8 0.8,1.6 1.1,2.3 0.3,0.7 0.6,1.3 0.8,1.9 0.2,0.5 0.3,1.1 0.4,1.6 0.1,0.8 0.2,1.4 0.2,2 0,0.6 0,1.1 0.1,1.6 0,1.3 0,2.2 0,3 0,0.4 0,1 0.1,1.7 0.1,0.7 0.1,1.5 0.2,2.2 0.1,0.7 0.1,1.6 0.1,2.3 0,0.7 0,1.3 0,1.9 0,0.4 -0.1,0.8 -0.1,1.2 0,0.2 -0.1,0.3 -0.1,0.4 -0.2,0.6 -0.5,1.3 -0.8,1.9 -0.4,0.8 -0.8,1.6 -1.3,2.3 -0.4,0.6 -0.8,1.1 -1.3,1.7 -0.4,0.5 -0.8,0.9 -1.2,1.2 -0.4,0.3 -0.5,0.4 -0.6,0.6 -0.3,0.3 -0.6,0.6 -0.9,0.9 -0.4,0.3 -0.9,0.7 -1.4,1.1 -0.5,0.4 -1.3,0.9 -2,1.3 -0.7,0.4 -1.4,0.8 -2,1.1 -0.6,0.3 -0.3,0.4 0.7,0.3 1.4,-0.3 2.8,-0.7 4.2,-1.3 0.7,-0.3 1.4,-0.7 2,-1.1 0.6,-0.4 1.1,-0.8 1.6,-1.4 0.1,-0.1 0.2,-0.3 0.4,-0.5 0.7,-1 1.3,-2.1 1.8,-3.2 l 0,0 c 0.6,-1.5 1.1,-3.1 1.6,-4.7 0.1,-0.5 0.2,-0.9 0.3,-1.2 0.1,-0.3 0.2,-0.5 0.2,-1 0,-0.5 0.2,-0.9 0.3,-1.5 0.1,-0.6 0.2,-1.5 0.3,-2.3 0.1,-0.8 0.1,-1.6 0.2,-2.5 0.1,-1.6 0,-3.2 -0.2,-4.8 0,-0.2 0,-0.3 -0.1,-0.4 -0.2,-0.8 -0.5,-2 -0.9,-3.2 -0.2,-0.6 -0.5,-1.2 -0.8,-1.7 -0.4,-0.7 -0.7,-1.3 -1.1,-1.8 l -1.8,-1.9 0,0 z"
       id="path245"
       inkscape:connector-curvature="0" /><path
       class="st26"
       d="m 862.2,585.9 c 0.4,3.5 0.7,7 0.7,10.5"
       id="path247"
       inkscape:connector-curvature="0"
       style="fill:none;stroke:#000000;stroke-width:5" /><path
       class="st27"
       d="m 876.7,560.1 c -0.5,0 -0.8,1.1 -0.8,1.6 -0.2,0.5 0.1,1.1 0.6,1.3 0.5,0.2 1.1,-0.1 1.3,-0.6 0.1,-0.2 0.1,-0.4 0,-0.6 0,-0.6 -0.6,-1.7 -1.1,-1.7 z"
       id="path249"
       inkscape:connector-curvature="0"
       style="fill:#ddcebe" /><path
       class="st27"
       d="m 848.8,560.4 c -0.5,0 -0.8,1 -0.8,1.6 -0.2,0.5 0.1,1.1 0.7,1.3 0.5,0.2 1.1,-0.1 1.3,-0.7 0.1,-0.2 0.1,-0.4 0,-0.6 0,-0.5 -0.6,-1.6 -1.2,-1.6 z"
       id="path251"
       inkscape:connector-curvature="0"
       style="fill:#ddcebe" /><path
       d="m 862.1,575.2 c -3.6,0 -8.4,3.3 -6.6,6 1.3,2 3.8,5.8 6.6,6 2.8,0.2 4.7,-3.8 6.6,-6 2.1,-2.5 -2.9,-6 -6.6,-6 z"
       id="path253"
       inkscape:connector-curvature="0" /><path
       class="st27"
       d="m 865.1,576.6 c -0.8,0 -1.6,0 -1.6,0.8 0,0.8 0.8,0.7 1.6,0.7 0.8,0 2.7,1.5 2.7,0.7 0,-0.8 -1.9,-2.2 -2.7,-2.2 l 0,0 z"
       id="path255"
       inkscape:connector-curvature="0"
       style="fill:#ddcebe" /><path
       d="m 812.1,541.1 0,0 0,0 -0.1,0 -0.1,0 0,0 c -0.1,0 -0.2,0 -0.2,0 -0.2,0 -0.3,-0.1 -0.5,-0.2 -0.4,-0.2 -0.7,-0.5 -1,-0.8 l -0.3,-0.4 c -0.2,-0.2 -0.3,-0.4 -0.5,-0.6 -0.2,-0.2 -0.3,-0.5 -0.5,-0.7 -0.1,-0.1 -0.1,-0.2 -0.2,-0.4 -0.1,-0.1 -0.1,-0.2 -0.1,-0.4 0,-0.1 0.1,-0.3 0.1,-0.4 0.1,-0.1 0.3,-0.2 0.4,-0.3 0.2,-0.1 0.5,-0.1 0.7,0 0.3,0 0.6,0.1 0.8,0.3 l 0,0 c 0.4,0.2 0.7,0.5 1,0.8 0.2,0.2 0.3,0.4 0.4,0.6 0.3,0.4 0.4,1 0.5,1.5 0,0.2 0,0.4 -0.1,0.6 0,0.1 -0.1,0.1 -0.1,0.2 l 0,0 -0.1,0.1 0,0 -0.1,0.1 0,0 z"
       id="path257"
       inkscape:connector-curvature="0" /><path
       d="m 810.6,543.6 c -0.1,0.3 -0.5,0.4 -1,0.5 -0.6,0 -1.2,-0.1 -1.7,-0.2 l 0,0 -0.5,-0.1 c -0.6,-0.1 -1.1,-0.2 -1.6,-0.5 -0.2,-0.1 -0.3,-0.1 -0.5,-0.3 -0.1,-0.1 -0.2,-0.2 -0.3,-0.3 -0.1,-0.1 -0.2,-0.2 -0.2,-0.3 -0.1,-0.1 -0.1,-0.2 -0.1,-0.3 0,-0.1 0,-0.2 0.1,-0.3 0.1,-0.1 0.2,-0.2 0.3,-0.3 0.2,-0.1 0.3,-0.2 0.5,-0.2 0.2,-0.1 0.4,-0.1 0.6,-0.1 0.7,-0.1 1.3,0 2,0.1 l 0.5,0.1 0,0 c 0.6,0.3 1.2,0.6 1.6,1.1 0.3,0.5 0.4,0.8 0.3,1.1 l 0,0 z"
       id="path259"
       inkscape:connector-curvature="0" /><path
       d="m 894.1,534.5 c -0.4,-0.1 -0.6,-0.3 -0.8,-0.7 -0.2,-0.4 -0.3,-0.9 -0.3,-1.3 l 0,0 c 0,-0.1 0,-0.1 0,-0.2 0,-0.5 0,-0.9 0.2,-1.4 0.1,-0.2 0.1,-0.4 0.2,-0.5 0.1,-0.1 0.2,-0.3 0.4,-0.3 0.2,-0.1 0.4,-0.1 0.5,0 0.2,0.1 0.4,0.2 0.5,0.4 0.2,0.2 0.3,0.5 0.5,0.8 0.1,0.3 0.2,0.7 0.2,1 0,0.1 0,0.2 0,0.3 l 0,0 c 0,0.6 -0.2,1.1 -0.5,1.6 -0.1,0.2 -0.5,0.4 -0.9,0.3 l 0,0 z"
       id="path261"
       inkscape:connector-curvature="0" /><path
       d="m 897.5,534.8 c -0.3,-0.1 -0.4,-0.5 -0.4,-1 0,-0.6 0.2,-1.2 0.4,-1.8 0.1,-0.2 0.1,-0.3 0.2,-0.5 0.3,-0.7 0.6,-1.3 1,-1.9 0.1,-0.2 0.3,-0.4 0.5,-0.6 0.1,-0.1 0.3,-0.2 0.5,-0.2 0.2,0 0.4,0.1 0.5,0.3 0.1,0.2 0.2,0.5 0.3,0.8 0.1,0.4 0.1,0.8 0,1.1 -0.1,0.4 -0.2,0.9 -0.3,1.3 -0.1,0.2 -0.2,0.4 -0.2,0.5 l 0,0 c -0.3,0.6 -0.7,1.2 -1.2,1.6 -0.6,0.5 -1,0.6 -1.3,0.4 l 0,0 z"
       id="path263"
       inkscape:connector-curvature="0" /><path
       class="st22"
       d="m 849.5,581.8 c -0.5,0 -1,0.5 -1,1 0,0.5 0.4,0.7 0.9,0.7 0.5,0 1,-0.2 1,-0.7 0.1,-0.5 -0.3,-0.9 -0.9,-1 l 0,0 z"
       id="path265"
       inkscape:connector-curvature="0"
       style="fill:#956c45;stroke:#000000;stroke-width:3" /><path
       class="st22"
       d="m 846.2,586.1 c -0.8,0 -1.5,0.7 -1.5,1.5 0,0.8 0.6,1.1 1.4,1.1 0.8,0 1.5,-0.3 1.5,-1.1 0.1,-0.8 -0.6,-1.5 -1.4,-1.5 l 0,0 z"
       id="path267"
       inkscape:connector-curvature="0"
       style="fill:#956c45;stroke:#000000;stroke-width:3" /><path
       class="st22"
       d="m 852.2,587.1 c -0.8,0 -1.2,0.3 -1.2,1.2 0,0.9 0.5,1 1.3,1 0.8,0 1.1,-0.4 1.1,-1.2 0,-0.8 -0.4,-1 -1.2,-1 l 0,0 z"
       id="path269"
       inkscape:connector-curvature="0"
       style="fill:#956c45;stroke:#000000;stroke-width:3" /><path
       class="st22"
       d="m 873.6,585.5 c -0.5,0 -0.8,0.4 -0.8,0.9 0,0 0,0 0,0 0,0.5 0.2,0.7 0.6,0.7 0.4,0 0.8,-0.2 0.8,-0.6 0,-0.4 -0.2,-1 -0.6,-1 l 0,0 z"
       id="path271"
       inkscape:connector-curvature="0"
       style="fill:#956c45;stroke:#000000;stroke-width:3" /><path
       class="st22"
       d="m 878.6,582.9 c -0.8,0 -1.2,0.7 -1.2,1.6 0,0.9 0.3,1.1 1.1,1.1 0.8,0 1.5,-0.3 1.5,-1.1 0.1,-0.9 -0.5,-1.6 -1.4,-1.6 l 0,0 z"
       id="path273"
       inkscape:connector-curvature="0"
       style="fill:#956c45;stroke:#000000;stroke-width:3" /><path
       class="st22"
       d="m 877.1,588.6 c -0.6,0 -1.1,0.5 -1.1,1.1 0,0.6 0.4,1 1,1 0.5,0 0.9,-0.3 0.9,-0.8 0,-0.1 0,-0.1 0,-0.2 0,-0.6 -0.2,-1.2 -0.8,-1.1 l 0,0 z"
       id="path275"
       inkscape:connector-curvature="0"
       style="fill:#956c45;stroke:#000000;stroke-width:3" /><path
       d="m 842.4,539.5 0,0 -0.2,0 c -0.1,0 -0.2,0 -0.3,-0.1 -0.2,-0.1 -0.4,-0.2 -0.5,-0.4 -0.5,-0.4 -0.9,-0.9 -1.2,-1.5 -0.2,-0.2 -0.3,-0.5 -0.4,-0.7 -0.2,-0.4 -0.4,-0.8 -0.6,-1.2 l 0,0 c -0.2,-0.5 -0.4,-0.9 -0.5,-1.4 -0.1,-0.3 -0.1,-0.6 0.1,-0.9 0.2,-0.2 0.5,-0.2 0.9,0 0.5,0.3 1,0.6 1.4,1.1 l 0,0 c 0.3,0.4 0.6,0.8 0.9,1.3 0.2,0.3 0.3,0.6 0.4,0.8 0.3,0.6 0.4,1.3 0.5,2 0,0.2 0,0.5 -0.1,0.7 l 0,0 c 0,0.1 -0.1,0.2 -0.1,0.2 l -0.1,0.1 0,0 -0.2,0 0,0 z"
       id="path277"
       inkscape:connector-curvature="0" /><path
       d="m 845.9,537.4 c -0.5,0.1 -1.1,-0.6 -1.5,-1.6 l 0,0 c -0.1,-0.2 -0.2,-0.5 -0.3,-0.7 -0.1,-0.3 -0.2,-0.6 -0.3,-0.9 -0.1,-0.3 -0.1,-0.5 -0.1,-0.8 0,-0.2 0,-0.4 0,-0.6 0,-0.2 0.1,-0.3 0.2,-0.5 0.1,-0.1 0.3,-0.2 0.5,-0.1 0.3,0 0.5,0.1 0.7,0.3 0.3,0.2 0.5,0.5 0.7,0.8 0.4,0.6 0.7,1.3 0.8,2.1 l 0,0 c 0.1,1 -0.2,1.9 -0.7,2 l 0,0 z"
       id="path279"
       inkscape:connector-curvature="0" /><path
       d="m 858.6,566.6 c 0.4,0 0.8,-0.1 1.1,-0.1 0.5,0 1,0 1.3,-0.1 l 0.1,0 c 0.3,-0.1 0.6,-0.1 0.9,-0.2 0.3,0 0.7,0 1,0 0.1,0 0.2,0 0.1,-0.1 -0.2,-0.1 -0.3,-0.2 -0.5,-0.2 -0.3,-0.1 -0.6,-0.1 -0.8,-0.2 -0.3,0 -0.6,0 -0.8,0 l -0.2,0 -1.3,0.4 c -0.3,0.1 -0.7,0.2 -1,0.2 -0.2,0 -0.3,0.1 -0.3,0.2 -0.1,0.1 0.1,0.2 0.4,0.1 l 0,0 z"
       id="path281"
       inkscape:connector-curvature="0" /><path
       d="m 859.4,564 c 0.3,0 0.5,0 0.8,0 0.3,0 0.5,0.1 0.8,0.1 l 0,0 c 0.4,-0.1 0.8,-0.1 1.2,-0.1 0.2,0 0,-0.1 -0.3,-0.3 -0.3,-0.2 -0.7,-0.3 -1,-0.3 -0.1,0 -0.2,0 -0.3,0 l -0.9,0.2 c -0.2,0.1 -0.4,0.1 -0.7,0.1 -0.2,0 -0.2,0.1 -0.2,0.1 0,0 0.4,0.2 0.6,0.2 l 0,0 z"
       id="path283"
       inkscape:connector-curvature="0" /><path
       d="m 861.1,565.8 c 0,-0.9 0,-3 0.1,-5.6 0,-2.1 0.1,-4.6 0.2,-6.8 0,-0.9 0.1,-1.7 0.1,-2.5 0,-0.3 0,-0.6 0.1,-0.8 0,-0.2 0,-0.3 0.1,-0.5 0.1,-0.4 0.1,-0.7 0.2,-1.1 l 0,0 c 0.1,-0.7 0.1,-1.3 0.1,-1.7 0,0 0,-0.1 0,-0.1 0,-1 0,-2.6 -0.1,-4.3 0,-1.4 -0.1,-3 -0.3,-4.6 -0.1,-0.6 -0.2,-1.2 -0.3,-1.8 -0.1,-0.4 -0.2,-0.9 -0.4,-1.3 -0.4,-0.7 -0.7,-1.5 -1.1,-2.1 -0.1,-0.2 -0.2,-0.3 -0.3,-0.5 -0.1,-0.1 -0.2,-0.3 -0.4,-0.4 -0.1,-0.1 -0.2,-0.1 -0.3,-0.2 l -0.2,0 0,0 c 0.2,0.1 0.3,0.2 0.4,0.3 0.1,0.1 0.2,0.2 0.3,0.3 0.1,0.2 0.2,0.3 0.3,0.5 0.2,0.3 0.3,0.6 0.5,1 0.2,0.4 0.3,0.8 0.5,1.2 0.2,0.4 0.3,0.8 0.3,1.2 0.1,0.6 0.2,1.2 0.2,1.8 0.1,1.5 0.2,3 0.2,4.6 0,1.5 0,3.1 -0.1,4.4 l 0,0 c 0,0.6 0,1.2 -0.1,1.7 0,0.3 0,0.6 -0.1,0.8 0,0.1 0,0.1 0,0.2 l 0,0 c 0,0.2 -0.1,0.4 -0.1,0.6 l 0,0 c 0,0.3 0,0.6 0,0.9 l 0,0 c 0,0.8 0,1.7 -0.1,2.5 0,2.3 0,4.7 0,6.8 0,2.6 0,4.9 0,6.5 0,0.1 0,0.3 0,0.4 0,0.7 0,1.3 0,1.7 0,0.3 0,0.4 0,0.6 0,0 0,0.1 0,0.2 l 0,0 0,0 0,0 c 0,0 0,-0.1 0,-0.2 0,-0.1 0,-0.3 0,-0.6 0,-0.5 0,-1.2 0,-2.1 0,-0.3 0,-0.6 0,-0.9 l 0.3,-0.1 z"
       id="path285"
       inkscape:connector-curvature="0" /><path
       class="st28"
       d="m 862.2,596 c -1.4,0.1 -2.4,1.2 -2.4,2.5 0,1.4 1.2,1.5 2.5,1.5 1.3,0 2.3,0 2.3,-1.5 0,-1.3 -1,-2.4 -2.4,-2.5 z"
       id="path287"
       inkscape:connector-curvature="0"
       style="stroke:#000000;stroke-width:5" /><path
       class="st26"
       d="m 847.2,558.8 c 0,0 -2.8,0.3 -3.7,-1.5"
       id="path289"
       inkscape:connector-curvature="0"
       style="fill:none;stroke:#000000;stroke-width:5" /><path
       class="st26"
       d="m 875.3,559 c 0,0 2.8,0.3 3.7,-1.5"
       id="path291"
       inkscape:connector-curvature="0"
       style="fill:none;stroke:#000000;stroke-width:5" /><path
       d="m 828.8,648.7 c 0.4,-0.5 1.2,-0.4 2,0 l 0.3,0.2 c 0.2,0.2 0.4,0.4 0.6,0.6 0.2,0.2 0.3,0.5 0.3,0.8 0.1,0.2 0.1,0.5 0,0.7 -0.1,0.2 -0.3,0.4 -0.6,0.5 -0.3,0.1 -0.7,0 -1,-0.1 -0.3,-0.1 -0.6,-0.3 -0.9,-0.5 -0.1,-0.1 -0.2,-0.2 -0.3,-0.3 -0.6,-0.6 -0.8,-1.4 -0.4,-1.9 l 0,0 z"
       id="path293"
       inkscape:connector-curvature="0" /><path
       d="m 830.8,645.7 c 0.3,-0.3 0.6,-0.4 1,-0.3 0.5,0.1 1.1,0.3 1.5,0.5 l 0.1,0 c 0.4,0.2 0.7,0.5 1,0.8 0.1,0.1 0.2,0.2 0.3,0.3 0.1,0.2 0.2,0.4 0.2,0.6 0,0.1 0,0.2 0,0.3 0,0.1 -0.1,0.2 -0.1,0.3 -0.1,0.1 -0.2,0.2 -0.3,0.2 -0.2,0.1 -0.3,0.1 -0.5,0.1 -0.2,0 -0.3,0 -0.5,0 -0.5,-0.1 -0.9,-0.3 -1.3,-0.5 l -0.1,0 c -0.5,-0.3 -0.9,-0.7 -1.2,-1.2 -0.3,-0.4 -0.3,-0.8 -0.1,-1.1 l 0,0 z"
       id="path295"
       inkscape:connector-curvature="0" /><path
       d="m 862.9,657.9 c 0.1,-0.3 0.2,-0.8 0.3,-1.4 0.1,-0.7 0.3,-1.4 0.3,-2.1 0.1,-0.9 0.2,-1.9 0.3,-3.1 l 0,0 c 0.2,-2 0.3,-4.4 0.4,-6.7 l 0,0 c 0,-0.9 0,-1.7 0,-2.5 0,-1.2 -0.1,-2.3 -0.2,-3.4 -0.3,-3.4 -0.6,-6.2 -0.7,-7.5 l -0.1,-0.6 c -0.2,-1.8 -0.6,-4.4 -1,-7.4 l 0,0 c -0.1,-0.8 -0.2,-1.7 -0.4,-2.6 l 0,0 c 0,-0.3 -0.1,-0.6 -0.2,-0.8 -0.1,-0.2 -0.1,-0.3 -0.1,-0.5 l 0,-0.2 0,0 c 0,-0.2 0,-0.5 0,-0.7 0,-1 0,-2 0,-3 0,-1.5 -0.1,-3 -0.3,-4.4 0,-0.2 0,-0.4 -0.1,-0.6 0,-0.3 -0.1,-0.6 -0.1,-0.8 0,-0.2 0,-0.3 -0.1,-0.4 l 0,-0.1 0,0 c 0,0 0,0.1 0,0.1 0,0 0,0.2 0,0.4 0,0.3 0.1,0.8 0.1,1.3 0.1,1.5 0.2,2.9 0.1,4.4 0,0.9 0,1.9 0,3 0,0.2 0,0.5 0,0.7 0,0.1 0,0.1 0,0.2 l 0,0.1 c 0,0.2 0.1,0.3 0.1,0.5 0,0.2 0.1,0.5 0.1,0.8 0.1,0.8 0.2,1.7 0.3,2.6 0.3,2.5 0.6,5.1 0.8,7.4 0.2,1.6 0.3,3.1 0.5,4.3 0.2,1.2 0.3,2.5 0.4,3.8 0.1,1.3 0.2,2.3 0.3,3.4 l 0,0 c 0.1,0.8 0.1,1.7 0.1,2.5 0,2.3 -0.1,4.6 -0.2,6.7 l 0,0 c -0.1,1.1 -0.2,2.1 -0.3,3.1 -0.1,1 -0.2,2 -0.5,3 -0.2,0.8 -0.5,1.5 -0.8,2.3 l -0.3,0.6 c -1.6,3.1 -1.6,3.6 0.2,0.1 0.7,-0.9 0.9,-1.7 1.1,-2.5 l 0,0 z"
       id="path297"
       inkscape:connector-curvature="0" /><path
       d="m 863.6,620.1 c -0.4,0 -0.8,0.1 -1.1,0.1 -0.5,0 -1,0 -1.3,0.1 l -0.2,0 c -0.3,0.1 -0.6,0.1 -0.9,0.2 -0.3,0 -0.7,0 -1,0 -0.1,0 -0.2,0 -0.1,0.1 0.2,0.1 0.3,0.2 0.5,0.2 0.3,0.1 0.6,0.1 0.8,0.2 0.3,0 0.6,0 0.8,0 l 0.2,0 1.3,-0.4 c 0.3,-0.1 0.7,-0.2 1,-0.2 0.2,0 0.3,-0.1 0.3,-0.2 0,-0.1 0,-0.2 -0.3,-0.1 l 0,0 z"
       id="path299"
       inkscape:connector-curvature="0" /><path
       d="m 862.8,618.1 c -0.3,0 -0.5,0 -0.8,0 -0.3,0 -0.5,-0.1 -0.8,-0.1 l 0,0 c -0.4,0.1 -0.8,0.1 -1.2,0.1 -0.2,0 0,0.1 0.3,0.3 0.3,0.2 0.7,0.3 1,0.3 0.1,0 0.2,0 0.3,0 l 0.9,-0.2 c 0.2,-0.1 0.4,-0.1 0.7,-0.1 0.2,0 0.2,-0.1 0.2,-0.1 0,0 -0.4,-0.2 -0.6,-0.2 l 0,0 z"
       id="path301"
       inkscape:connector-curvature="0" /><path
       class="st20"
       d="m 897.5,647.7 c 11.3,0 20.8,8.3 20.8,19.3 -0.1,11.1 -9.2,20.1 -20.4,19.9 -8.4,0 -16.6,-2.3 -19.7,-9.4 -1.2,-3.5 -1.6,-7.3 -1.2,-11 1.5,-10.9 9.3,-18.7 20.5,-18.8 l 0,0 z"
       id="path303"
       inkscape:connector-curvature="0"
       style="fill:#a06121" /><path
       class="st24"
       d="m 890.8,682.8 c 2.7,1.7 6.7,1.5 10.3,0.1 5.5,-2.2 8.4,-7.6 6.7,-12.1 -1.7,-4.5 -7.2,-8 -12.7,-5.8 -5.5,2.2 -8.9,9.2 -7.1,13.7 0.5,1.6 1.5,3 2.8,4.1 l 0,0 z"
       id="path305"
       inkscape:connector-curvature="0"
       style="fill:#834317" /><path
       d="m 890.8,682.9 c 0.9,0.6 1.9,1 3,1.2 0.9,0.2 1.9,0.3 2.9,0.3 0.9,0 1.7,-0.1 2.5,-0.3 0.7,-0.2 1.5,-0.4 2.2,-0.6 l 0,0 c 0.9,-0.3 1.7,-0.8 2.5,-1.3 0.7,-0.4 1.3,-0.9 1.9,-1.4 0.5,-0.4 0.9,-0.9 1.4,-1.4 0.3,-0.4 0.6,-0.8 0.9,-1.3 0.3,-0.5 0.6,-1 0.8,-1.5 0.3,-0.8 0.5,-1.7 0.5,-2.6 0,-0.6 0,-1.2 -0.1,-1.7 -0.1,-0.6 -0.3,-1.2 -0.5,-1.8 -0.3,-0.7 -0.7,-1.3 -1.1,-1.9 -0.8,-1.1 -1.8,-2.1 -3,-2.8 -0.5,-0.3 -0.9,-0.6 -1.4,-0.8 l 0,0 c -0.4,-0.2 -0.9,-0.4 -1.3,-0.5 -0.9,-0.3 -1.7,-0.5 -2.6,-0.6 -0.7,-0.1 -1.3,-0.1 -2,0 -0.8,0.1 -1.5,0.2 -2.2,0.5 -0.9,0.3 -1.8,0.7 -2.6,1.3 -1.4,0.9 -2.6,2.1 -3.6,3.5 -0.3,0.4 -0.6,0.9 -0.8,1.3 l 0,0.1 c -0.3,0.6 -0.5,1.2 -0.7,1.8 -0.2,0.8 -0.4,1.7 -0.5,2.5 -0.1,0.7 -0.1,1.3 0,2 0.1,1.5 0.8,2.9 1.9,4 0.5,0.5 1.1,1 1.7,1.4 0.2,0.1 0.4,0.3 0.7,0.4 l 0,0 0,0 c 0,0 -0.2,-0.2 -0.4,-0.3 -0.3,-0.2 -0.5,-0.5 -0.8,-0.8 -0.3,-0.4 -0.6,-0.8 -0.8,-1.2 -0.3,-0.5 -0.5,-1.1 -0.6,-1.7 -0.1,-0.6 -0.2,-1.1 -0.2,-1.7 0,-0.6 0.1,-1.2 0.2,-1.8 0.3,-1.3 0.8,-2.5 1.4,-3.6 0.3,-0.6 0.7,-1.2 1,-1.7 0.6,-0.9 1.2,-1.7 2,-2.5 0.8,-0.7 1.6,-1.4 2.6,-1.8 0.7,-0.3 1.4,-0.6 2.1,-0.7 0.7,-0.1 1.3,-0.2 2,-0.1 0.6,0 1.2,0.1 1.7,0.3 0.4,0.1 0.9,0.3 1.3,0.5 l 0.2,0.1 c 0.3,0.2 0.7,0.4 1,0.7 1,0.8 1.8,1.7 2.5,2.8 0.4,0.6 0.7,1.3 0.9,2 0.3,1.1 0.4,2.2 0.3,3.3 -0.2,1.1 -0.5,2.1 -1,3 -0.6,1 -1.3,1.9 -2.1,2.7 -0.4,0.4 -0.9,0.8 -1.3,1.2 -0.6,0.5 -1.3,0.9 -2,1.3 -1.1,0.5 -2.2,0.9 -3.3,1.2 -1.1,0.2 -2.3,0.3 -3.4,0.2 -0.9,-0.1 -1.7,-0.3 -2.5,-0.6 -0.3,-0.1 -0.5,-0.2 -0.7,-0.3 l -0.6,-0.3 0,0 z"
       id="path307"
       inkscape:connector-curvature="0" /><path
       class="st23"
       d="m 897.5,647.7 c -6.2,-0.1 -12.1,2.6 -15.9,7.5 0.4,-0.4 0.7,-0.8 1.1,-1.2 0.4,-0.4 0.9,-0.8 1.4,-1.2 0.5,-0.4 1,-0.7 1.5,-1 0.5,-0.3 1,-0.6 1.6,-0.9 0.6,-0.3 1.1,-0.5 1.7,-0.8 0.6,-0.3 1.2,-0.4 1.8,-0.6 0.6,-0.2 1.2,-0.3 1.9,-0.4 0.7,-0.1 1.3,-0.2 2,-0.3 0.7,-0.1 1.4,-0.1 2.1,-0.1 0.7,0 1.4,0 2.1,0.1 0.7,0.1 1.4,0.2 2,0.3 0.6,0.1 1.3,0.3 2,0.5 0.7,0.2 1.3,0.4 1.9,0.6 0.6,0.2 1.2,0.5 1.8,0.8 0.6,0.3 1.2,0.6 1.7,1 0.5,0.4 1.1,0.7 1.6,1.1 0.5,0.4 1,0.8 1.5,1.2 0.5,0.4 0.9,0.9 1.3,1.3 0.4,0.4 0.8,1 1.2,1.5 0.4,0.5 0.7,1 1,1.6 0.3,0.6 0.6,1.1 0.9,1.7 0.5,1.2 1,2.4 1.2,3.7 0.1,0.7 0.3,1.3 0.3,2 0.1,0.7 0.1,1.3 0.1,2 0,0.7 0,1.3 -0.1,2 -0.2,2 -0.7,3.9 -1.5,5.7 -0.3,0.6 -0.5,1.2 -0.8,1.7 -0.3,0.5 -0.7,1.1 -1,1.6 -0.2,0.3 -0.5,0.6 -0.7,0.9 3.3,-3.6 5.1,-8.3 5.1,-13.1 -0.1,-10.9 -9.6,-19.2 -20.8,-19.2 l 0,0 z"
       id="path309"
       inkscape:connector-curvature="0"
       style="fill:#b8854f" /><path
       class="st21"
       d="m 880.4,657.2 c -1.7,2.8 -2.8,6 -3.3,9.3 -0.4,3.7 0.1,7.5 1.3,11 3.1,7.1 11.3,9.4 19.7,9.4 7.9,0 15.1,-4.5 18.5,-11.6 -0.2,0.3 -0.3,0.6 -0.5,0.8 -0.4,0.5 -0.8,1 -1.2,1.5 -0.4,0.5 -0.8,1 -1.3,1.4 -0.5,0.4 -0.9,0.9 -1.5,1.3 -0.6,0.4 -1,0.8 -1.6,1.2 -0.6,0.4 -1.1,0.7 -1.7,1 -0.6,0.3 -1.2,0.6 -1.8,0.8 -0.6,0.2 -1.2,0.5 -1.9,0.7 -0.7,0.2 -1.3,0.4 -2,0.5 -0.7,0.1 -1.3,0.2 -2,0.3 -0.7,0.1 -1.4,0.1 -2.1,0.1 -1,0 -2.1,0 -3.1,-0.1 -1,-0.1 -2.1,-0.2 -3,-0.4 -1,-0.2 -2,-0.4 -2.9,-0.6 -0.9,-0.3 -1.8,-0.6 -2.7,-0.9 -0.9,-0.4 -1.7,-0.8 -2.5,-1.3 -0.4,-0.2 -0.8,-0.5 -1.1,-0.8 -0.3,-0.3 -0.7,-0.6 -1,-0.9 -0.4,-0.3 -0.7,-0.6 -1,-1 -0.6,-0.7 -1.2,-1.4 -1.6,-2.2 -0.2,-0.4 -0.4,-0.8 -0.6,-1.3 -0.3,-0.7 -0.5,-1.5 -0.7,-2.3 -0.2,-1 -0.4,-2 -0.5,-3 -0.1,-1 -0.2,-2.1 -0.2,-3.1 0,-0.9 0,-1.8 0.1,-2.7 0.1,-0.7 0.2,-1.3 0.4,-2 0.2,-0.7 0.3,-1.3 0.5,-1.9 0.2,-0.6 0.4,-1.2 0.6,-1.8 0.2,-0.6 0.5,-1 0.7,-1.4 l 0,0 z"
       id="path311"
       inkscape:connector-curvature="0"
       style="fill:#6e4a25" /><path
       d="m 897.9,647.7 c 1.5,0 2.9,0.1 4.3,0.5 1.3,0.3 2.6,0.7 3.8,1.3 2.2,0.9 4.1,2.3 5.8,3.9 l 0,0 c 1.1,1.1 2.1,2.3 2.9,3.7 0.7,1.2 1.3,2.4 1.7,3.7 0.4,1.1 0.7,2.2 0.8,3.4 0.1,1 0.2,2 0.2,3 l 0,0 c 0,0.9 -0.1,1.8 -0.3,2.8 -0.1,0.8 -0.3,1.5 -0.6,2.3 -0.4,1.2 -0.9,2.4 -1.5,3.5 -0.4,0.8 -0.9,1.5 -1.3,2.2 -1.4,1.9 -3,3.6 -5,4.9 -1.1,0.7 -2.2,1.4 -3.4,1.9 -1.2,0.5 -2.5,0.9 -3.8,1.2 -1.2,0.3 -2.5,0.4 -3.7,0.5 -1.5,0 -2.9,0 -4.4,-0.1 -1.3,-0.1 -2.3,-0.3 -2.9,-0.4 -0.6,-0.1 -1.2,-0.3 -1.8,-0.4 -0.9,-0.3 -1.7,-0.6 -2.5,-0.9 -1.6,-0.7 -3.1,-1.7 -4.4,-2.9 -1.3,-1.2 -2.3,-2.7 -2.9,-4.3 -0.3,-0.7 -0.5,-1.4 -0.6,-2.2 -0.2,-1 -0.3,-1.9 -0.4,-2.9 -0.1,-1 -0.1,-2 -0.1,-3 0,-0.9 0.1,-1.7 0.2,-2.6 0.2,-0.9 0.4,-1.8 0.6,-2.7 0.2,-0.8 0.4,-1.4 0.5,-1.9 0.4,-1.4 1,-2.7 1.7,-4 0.9,-1.7 2.1,-3.3 3.5,-4.7 0.8,-0.8 1.7,-1.6 2.7,-2.3 1,-0.7 2,-1.3 3.1,-1.8 1,-0.5 2.1,-0.9 3.2,-1.2 1,-0.3 2.1,-0.5 3.2,-0.6 0.9,-0.1 1.3,-0.1 1.4,-0.1 l 0,0 0,0 c -0.5,-0.1 -1,-0.1 -1.5,-0.1 -1.2,0 -2.3,0.2 -3.5,0.4 -1.6,0.3 -3.2,0.8 -4.7,1.5 -1.8,0.8 -3.4,1.8 -4.9,3 -1.1,0.9 -2.1,2 -2.9,3.1 -0.9,1.1 -1.6,2.3 -2.2,3.6 -0.6,1.2 -1.1,2.4 -1.4,3.6 -0.3,1.1 -0.6,2.2 -0.7,3.3 0,0.2 0,0.3 -0.1,0.5 -0.2,2 -0.1,4 0.3,6 0.1,1 0.3,2 0.6,3 l 0,0 c 0.2,0.8 0.5,1.6 0.8,2.4 0.8,1.7 2,3.3 3.5,4.5 l 0,0 c 1.4,1.2 3.1,2.2 4.8,2.8 1.2,0.5 2.5,0.9 3.7,1.2 1.1,0.3 2.1,0.4 3,0.6 0.5,0.1 1.3,0.2 2.1,0.3 0.8,0.1 1.9,0.2 3.1,0.2 1.2,0 2.4,0 3.5,-0.2 2.8,-0.4 5.4,-1.3 7.8,-2.8 1.3,-0.8 2.5,-1.7 3.6,-2.7 1.1,-1.1 2.1,-2.3 3,-3.6 0.8,-1.3 1.5,-2.6 2,-4 0.5,-1.2 0.8,-2.5 1,-3.8 0.2,-1.1 0.3,-2.2 0.2,-3.3 0,-0.5 0,-1 -0.1,-1.4 -0.1,-1 -0.3,-1.9 -0.5,-2.8 -0.7,-2.5 -1.8,-4.8 -3.3,-6.8 -0.8,-1.1 -1.8,-2.2 -2.8,-3.1 -1.5,-1.3 -3.1,-2.3 -4.9,-3.1 -1.5,-0.7 -3.1,-1.2 -4.8,-1.5 -1.2,-0.2 -2.3,-0.3 -3.5,-0.4 -0.7,-0.2 -1.2,-0.2 -1.2,-0.2 l 0,0 z"
       id="path313"
       inkscape:connector-curvature="0" /><path
       class="st29"
       d="m 890.7,651.9 c -1,1 -1.1,2.7 -0.8,4.4 0.4,2.6 2.1,4.4 4.3,4 2.4,-0.4 4,-2.7 3.6,-5.1 -0.4,-2.6 -3,-4.7 -5.2,-4.3 -0.8,0.1 -1.4,0.4 -1.9,1 l 0,0 z"
       id="path315"
       inkscape:connector-curvature="0"
       style="fill:#834317;stroke:#000000;stroke-width:3" /><path
       class="st29"
       d="m 903.3,651.9 c -1.2,0.4 -1.9,1.7 -2.4,3.1 -0.7,2.2 -0.1,4.3 1.7,4.9 2.1,0.6 4.2,-0.5 4.9,-2.5 0.7,-2.2 -0.5,-4.9 -2.3,-5.5 -0.6,-0.2 -1.3,-0.2 -1.9,0 l 0,0 z"
       id="path317"
       inkscape:connector-curvature="0"
       style="fill:#834317;stroke:#000000;stroke-width:3" /><path
       class="st29"
       d="m 911.6,658.5 c -1.1,0.5 -1.9,1.4 -2.2,2.6 -0.7,1.9 -0.3,3.7 1.2,4.3 1.7,0.6 3.7,-0.2 4.4,-1.9 0.7,-1.9 -0.2,-4.3 -1.7,-4.9 -0.6,-0.2 -1.2,-0.3 -1.7,-0.1 z"
       id="path319"
       inkscape:connector-curvature="0"
       style="fill:#834317;stroke:#000000;stroke-width:3" /><path
       class="st20"
       d="m 831.3,653.2 c -11,-0.3 -20.2,8.3 -20.6,19.3 -0.4,11 8.3,20.2 19.3,20.6 0.4,0 0.8,0 1.3,0 8.4,0 16.6,-2.3 19.7,-9.4 1,-2.4 1.6,-9.7 1,-12.5 -2.1,-10.9 -9.4,-18 -20.7,-18 l 0,0 z"
       id="path321"
       inkscape:connector-curvature="0"
       style="fill:#a06121" /><path
       class="st24"
       d="m 839,688.5 c -3.1,1.7 -6.8,1.9 -10,0.5 -5.5,-2.2 -8.4,-7.6 -6.7,-12.1 1.7,-4.5 7.2,-8 12.7,-5.8 5.5,2.2 8.9,9.2 7.1,13.7 -0.6,1.6 -1.7,2.8 -3.1,3.7 l 0,0 z"
       id="path323"
       inkscape:connector-curvature="0"
       style="fill:#834317" /><path
       class="st21"
       d="m 815.5,660.6 c -2.9,3.5 -4.6,8 -4.5,12.5 0.1,11.1 9.2,20.1 20.4,19.9 0,0 0,0 0,0 7.8,0 15.3,-2 18.9,-7.9 l 0,0.1 c -0.3,0.4 -0.6,0.7 -1,1 -0.3,0.3 -0.7,0.6 -1,0.9 -0.3,0.3 -0.7,0.5 -1.1,0.8 -0.8,0.5 -1.6,0.9 -2.5,1.3 -0.9,0.4 -1.8,0.7 -2.7,1 -1,0.3 -1.9,0.5 -2.9,0.6 -1,0.2 -2,0.3 -3,0.4 -1,0.1 -2.1,0.1 -3.1,0.1 -0.7,0 -1.4,0 -2.1,-0.1 -0.7,-0.1 -1.4,-0.2 -2,-0.3 -0.6,-0.1 -1.3,-0.3 -2,-0.5 -0.7,-0.2 -1.3,-0.4 -1.9,-0.7 -0.6,-0.3 -1.2,-0.5 -1.8,-0.8 -0.6,-0.3 -1.1,-0.6 -1.7,-1 -0.6,-0.4 -1.1,-0.7 -1.6,-1.1 -0.5,-0.4 -1,-0.8 -1.5,-1.3 -0.5,-0.5 -0.9,-0.9 -1.3,-1.4 -0.4,-0.5 -0.8,-1 -1.2,-1.5 -0.4,-0.5 -0.7,-1.1 -1,-1.6 -0.3,-0.5 -0.6,-1.2 -0.9,-1.7 -0.8,-1.8 -1.3,-3.7 -1.5,-5.7 -0.1,-1.4 -0.1,-2.7 0,-4.1 0.2,-2 0.7,-3.9 1.5,-5.7 0.3,-0.6 0.5,-1.2 0.9,-1.7 0.2,-0.7 0.4,-1.1 0.6,-1.5 l 0,0 z"
       id="path325"
       inkscape:connector-curvature="0"
       style="fill:#6e4a25" /><path
       d="m 831.3,652.5 c -1.5,0 -3.1,0.2 -4.6,0.5 -1.4,0.3 -2.7,0.8 -4,1.3 -2.3,1 -4.4,2.4 -6.2,4.2 l 0,0 c -1.2,1.2 -2.2,2.5 -3.1,3.9 -0.8,1.2 -1.4,2.5 -1.9,3.9 -0.4,1.2 -0.8,2.4 -1,3.6 -0.2,1.1 -0.3,2.1 -0.3,3.2 l 0,0 c 0,1 0,2 0.2,3 0.1,0.9 0.3,1.7 0.5,2.6 0.4,1.4 0.9,2.7 1.5,4 0.4,0.8 0.9,1.6 1.5,2.4 0.7,1 1.5,1.9 2.4,2.8 1,0.9 2,1.8 3.2,2.5 2.4,1.5 5.1,2.5 7.9,3 1.3,0.2 2.7,0.3 4,0.3 1.5,0 3.1,-0.2 4.6,-0.4 1.3,-0.2 2.3,-0.4 3,-0.6 0.4,-0.1 1.1,-0.3 1.8,-0.5 0.9,-0.2 1.8,-0.5 2.6,-0.9 1.8,-0.7 3.4,-1.7 4.9,-2.9 1.5,-1.3 2.7,-2.8 3.5,-4.6 0.4,-0.9 0.6,-1.8 0.8,-2.7 0.3,-1.2 0.4,-2.4 0.5,-3.6 0.1,-1.2 0.2,-2.5 0.2,-3.7 l 0,0 c 0,-1 0,-2 -0.2,-3 -0.2,-1.2 -0.6,-2.5 -1,-3.7 -0.6,-1.6 -1.3,-3.1 -2.2,-4.5 -1.2,-2 -2.6,-3.7 -4.3,-5.2 -0.9,-0.8 -1.9,-1.4 -3,-2 -1,-0.6 -2.1,-1.1 -3.3,-1.4 -1.1,-0.4 -2.2,-0.7 -3.4,-0.9 -1.1,-0.2 -2.1,-0.3 -3.2,-0.3 -0.5,0 -0.8,0 -1.1,0 -0.1,0 -0.3,0 -0.5,0 l 0,0 0,0 c 0.1,0 0.7,0.1 1.5,0.2 1.1,0.1 2.2,0.3 3.3,0.6 1.5,0.4 2.9,1 4.3,1.7 1.6,0.9 3,1.9 4.2,3.2 0.9,0.9 1.7,1.9 2.4,3 0.7,1.1 1.3,2.2 1.8,3.3 0.9,2.1 1.6,4.2 2.1,6.4 0.1,0.2 0.1,0.5 0.1,0.7 0.1,0.6 0.1,1.2 0.2,1.9 0.1,1.2 0,2.3 0,3.5 0,1.2 -0.1,2.3 -0.3,3.5 -0.1,0.8 -0.3,1.7 -0.5,2.5 -0.7,1.7 -1.7,3.2 -2.9,4.4 l 0,0 c -1.3,1.3 -2.8,2.3 -4.5,3 -1.2,0.5 -2.3,0.9 -3.6,1.2 -1,0.2 -1.9,0.4 -2.9,0.5 -0.5,0.1 -1.3,0.1 -2.2,0.2 -0.9,0.1 -1.9,0 -3.1,0 -1.1,0 -2.3,-0.2 -3.4,-0.4 -2.6,-0.5 -5.1,-1.5 -7.3,-3 -1.2,-0.8 -2.2,-1.6 -3.2,-2.6 -1,-1 -1.9,-2.2 -2.7,-3.4 -1.3,-2.2 -2.3,-4.6 -2.7,-7.2 -0.2,-1 -0.3,-2 -0.3,-3 0,-0.5 0,-0.9 0,-1.3 0,-0.9 0.1,-1.8 0.3,-2.7 0.2,-1.1 0.5,-2.2 0.8,-3.3 0.4,-1.2 1,-2.4 1.6,-3.5 0.7,-1.2 1.5,-2.3 2.5,-3.3 1.3,-1.4 2.9,-2.7 4.6,-3.7 1.5,-0.9 3.1,-1.6 4.7,-2.1 1.2,-0.4 2.4,-0.6 3.6,-0.7 1.3,0.1 1.8,0.1 1.8,0.1 l 0,0 z"
       id="path327"
       inkscape:connector-curvature="0" /><path
       d="m 838.6,687.9 c -0.8,0.5 -1.7,0.9 -2.7,1.1 -0.8,0.2 -1.7,0.3 -2.6,0.3 -0.8,0 -1.5,-0.1 -2.3,-0.3 -0.7,-0.2 -1.3,-0.4 -1.9,-0.6 -0.8,-0.3 -1.5,-0.8 -2.2,-1.3 -0.6,-0.4 -1.1,-0.9 -1.5,-1.3 -0.4,-0.4 -0.7,-0.8 -1,-1.3 -0.2,-0.4 -0.5,-0.8 -0.7,-1.2 -0.2,-0.4 -0.4,-0.8 -0.5,-1.3 -0.2,-0.7 -0.4,-1.4 -0.4,-2.1 -0.1,-0.9 0,-1.9 0.3,-2.8 0.2,-0.6 0.5,-1.2 0.8,-1.7 0.3,-0.5 0.7,-1 1.1,-1.5 0.4,-0.4 0.8,-0.8 1.3,-1.2 0.4,-0.3 0.8,-0.6 1.2,-0.8 0.4,-0.2 0.7,-0.4 1.1,-0.6 0.3,-0.1 0.6,-0.2 1,-0.3 0.5,-0.1 1,-0.2 1.5,-0.2 0.6,0 1.2,0 1.8,0.2 0.7,0.1 1.3,0.3 1.9,0.6 0.8,0.4 1.5,0.8 2.1,1.3 0.6,0.5 1.2,1.1 1.7,1.7 0.4,0.5 0.8,1.1 1.1,1.6 0.3,0.5 0.5,0.9 0.7,1.2 l 0,0 c 0.3,0.5 0.5,1 0.7,1.5 0.3,0.7 0.5,1.4 0.6,2.1 0.1,0.6 0.1,1.1 0.1,1.7 0,0.6 -0.2,1.1 -0.3,1.7 -0.2,0.7 -0.5,1.3 -0.9,1.8 -0.3,0.5 -0.8,1 -1.2,1.4 -0.3,0.3 -0.4,0.4 -0.5,0.4 l 0,0 0,0 c 0.2,0 0.3,-0.1 0.4,-0.2 0.3,-0.2 0.6,-0.4 0.9,-0.6 0.4,-0.3 0.8,-0.6 1.2,-1 0.4,-0.5 0.8,-1 1.2,-1.5 0.3,-0.6 0.6,-1.2 0.7,-1.9 0.1,-0.7 0.2,-1.4 0.2,-2.1 0,-0.8 -0.1,-1.6 -0.3,-2.3 -0.2,-0.7 -0.4,-1.4 -0.8,-2.1 -0.3,-0.7 -0.7,-1.3 -1.2,-1.9 -0.8,-0.9 -1.7,-1.8 -2.7,-2.5 -1,-0.7 -2,-1.2 -3.2,-1.6 -0.8,-0.3 -1.6,-0.4 -2.4,-0.5 -0.7,0 -1.5,0 -2.2,0.1 -0.6,0.1 -1.2,0.2 -1.8,0.4 -0.5,0.2 -1,0.3 -1.4,0.5 l -0.2,0.1 c -1.6,0.7 -3.1,1.9 -4.2,3.3 -0.5,0.7 -0.9,1.4 -1.3,2.1 -0.3,0.6 -0.5,1.3 -0.6,1.9 -0.1,0.7 -0.1,1.3 -0.1,2 0.1,1.3 0.5,2.5 1.1,3.7 0.4,0.7 0.8,1.3 1.3,1.9 0.4,0.4 0.8,0.8 1.3,1.2 0.5,0.4 1.1,0.8 1.7,1.1 0.8,0.4 1.6,0.7 2.4,1 1.2,0.3 2.4,0.5 3.6,0.5 1.1,0 2.2,-0.2 3.3,-0.5 0.8,-0.2 1.5,-0.6 2.2,-1 0.3,-0.2 0.5,-0.3 0.8,-0.5 l -0.2,0.3 z"
       id="path329"
       inkscape:connector-curvature="0" /><path
       class="st29"
       d="m 838.8,657.8 c 1,0.8 1.3,2.4 1.3,4 -0.1,2.5 -1.5,4.4 -3.5,4.3 -2.3,-0.1 -4.1,-2.1 -4.1,-4.4 0.1,-2.5 2.3,-4.8 4.4,-4.7 0.7,0.1 1.3,0.3 1.9,0.8 l 0,0 z"
       id="path331"
       inkscape:connector-curvature="0"
       style="fill:#834317;stroke:#000000;stroke-width:3" /><path
       class="st29"
       d="m 826.8,658 c 1.2,0.4 1.9,1.7 2.4,3.1 0.7,2.2 0.1,4.3 -1.7,4.9 -2.1,0.6 -4.2,-0.5 -4.9,-2.6 -0.7,-2.2 0.5,-4.9 2.3,-5.5 0.6,-0.1 1.2,-0.1 1.9,0.1 l 0,0 z"
       id="path333"
       inkscape:connector-curvature="0"
       style="fill:#834317;stroke:#000000;stroke-width:3" /><path
       class="st29"
       d="m 818.2,664.4 c 1.2,0.4 2.1,1.3 2.5,2.5 0.9,1.9 0.6,3.8 -0.9,4.5 -1.7,0.8 -3.8,0.1 -4.7,-1.7 -0.9,-1.9 -0.1,-4.4 1.4,-5.2 0.5,-0.1 1.1,-0.2 1.7,-0.1 l 0,0 z"
       id="path335"
       inkscape:connector-curvature="0"
       style="fill:#834317;stroke:#000000;stroke-width:3" /><path
       d="m 822.3,650.7 0.1,0 0.1,0 0.2,0 c 0.2,0 0.3,0.1 0.5,0.1 0.3,0.2 0.6,0.4 0.9,0.8 0.1,0.1 0.1,0.2 0.2,0.3 0.1,0.2 0.3,0.5 0.3,0.8 0.1,0.3 0.1,0.6 0,0.8 0,0.2 -0.2,0.5 -0.3,0.6 -0.2,0.2 -0.5,0.2 -0.7,0.2 -0.3,-0.1 -0.6,-0.2 -0.9,-0.5 -0.2,-0.2 -0.5,-0.5 -0.6,-0.8 -0.1,-0.1 -0.1,-0.2 -0.2,-0.4 -0.2,-0.4 -0.2,-0.8 -0.2,-1.2 0,-0.2 0.1,-0.3 0.2,-0.5 0,-0.1 0.1,-0.1 0.2,-0.2 l 0.1,-0.1 0.1,0.1 0,0 z"
       id="path337"
       inkscape:connector-curvature="0" /><path
       class="st25"
       d="m 862.1,653.4 0,0 0.3,0.3 0.4,0.4 0.4,0.4 c 0.1,0.1 0.1,0.1 0.2,0.2 0,0.1 0.1,0.1 0.1,0.2 l 0.1,0.2 c 0.1,0.1 0.2,0.2 0.3,0.3 0.3,0.2 0.5,0.5 0.7,0.7 0,0.1 0.1,0.1 0.1,0 0,-0.1 0,-0.2 0,-0.3 -0.1,-0.3 -0.2,-0.6 -0.4,-0.9 0,-0.1 -0.1,-0.2 -0.1,-0.4 -0.1,-0.1 -0.2,-0.3 -0.3,-0.4 l 0,0 c -0.1,-0.1 -0.2,-0.1 -0.3,-0.2 l -0.5,-0.2 c -0.3,-0.1 -0.5,-0.3 -0.8,-0.5 l -0.2,-0.2 -0.1,-0.1 0,0 c 0,0 0,0 -0.1,0 0,0 0,0 0,0.1 0,0 0,0.1 0,0.1 0.1,0.1 0.1,0.2 0.2,0.3 l 0,0 z"
       id="path339"
       inkscape:connector-curvature="0"
       style="fill:#5d381e" /><path
       d="m 862.2,653.2 0,0 c 0.3,0.3 0.6,0.6 0.8,0.9 0.2,0.2 0.4,0.5 0.6,0.7 0.1,0.1 0.2,0.2 0.4,0.3 0.2,0.1 0.3,0.3 0.4,0.4 0.1,0.1 0.2,0.3 0.3,0.4 0,0.1 0.1,0.1 0.1,0 0,-0.1 0,-0.2 0,-0.3 0,-0.2 -0.1,-0.3 -0.1,-0.5 -0.1,-0.2 -0.2,-0.3 -0.3,-0.5 -0.1,-0.2 -0.3,-0.5 -0.5,-0.6 l -0.5,-0.3 c -0.4,-0.3 -0.7,-0.5 -1,-0.7 l -0.2,-0.1 -0.1,-0.1 -0.1,0 0,0 c 0,0 0,0 0,0 l 0,0 c 0,0 0,0.1 0,0.1 0,0.1 0.1,0.2 0.2,0.3 l 0,0 z"
       id="path341"
       inkscape:connector-curvature="0" /><path
       d="m 862.2,655.8 0,0 c 0.1,-0.1 0.5,-0.4 0.9,-0.7 0.3,-0.2 0.5,-0.4 0.7,-0.6 l 0.4,-0.6 c 0.2,-0.3 0.4,-0.5 0.5,-0.8 0.1,-0.3 0,-0.1 -0.1,-0.1 -0.2,0.1 -0.3,0.2 -0.5,0.3 -0.2,0.1 -0.4,0.3 -0.6,0.4 -0.2,0.1 -0.3,0.3 -0.5,0.5 l -0.4,0.5 c -0.2,0.3 -0.4,0.6 -0.7,0.8 l -0.1,0.1 c 0,0 -0.1,0.1 -0.1,0.1 0,0 0,0.1 0,0.1 l 0,0 0,0 0,0 0.1,0 c 0.2,0.1 0.3,0 0.4,0 l 0,0 z"
       id="path343"
       inkscape:connector-curvature="0" /><g
       id="path3334">
       <!-- <image
         sodipodi:absref="/home/daniel/Projects/L2TOR_project/freeplay-sandbox/qt-gui/res/E55F6EFB.png"
         xlink:href="E55F6EFB.png"
         id="image346"
         transform="matrix(0.9792,0,0,0.9957,776,490)"
         height="233"
         width="48"
         style="overflow:visible;opacity:0.75;enable-background:new" /> -->
         <linearGradient
         id="SVGID_10_"
         gradientUnits="userSpaceOnUse"
         x1="563.13031"
         y1="790.37402"
         x2="590.40033"
         y2="788.44397"
         gradientTransform="matrix(-1,0,0,1,1384.4399,-192.22)"><stop
           offset="0"
           style="stop-color:#4F2D17"
           id="stop349" /><stop
           offset="0.49"
           style="stop-color:#D28C5F"
           id="stop351" /><stop
           offset="1"
           style="stop-color:#482914"
           id="stop353" /></linearGradient><polygon
         class="st30"
         points="795.6,664.8 793.7,703.1 806.3,703.4 816.7,614.1 820.9,528.5 820.9,491.2 810.1,491.2 803.8,528.5 799.4,591 "
         id="polygon355"
         style="fill:url(#SVGID_10_)" /><polygon
         class="st2"
         points="795.6,664.8 793.7,703.1 806.3,703.4 816.7,614.1 820.9,528.5 820.9,491.2 810.1,491.2 803.8,528.5 799.4,591 "
         id="polygon357"
         style="fill:none;stroke:#000000" /></g><g
       id="g8423">
       <!-- <image
         sodipodi:absref="/home/daniel/Projects/L2TOR_project/freeplay-sandbox/qt-gui/res/E55F6EF5.png"
         xlink:href="E55F6EF5.png"
         id="image360"
         transform="matrix(0.9961,0,0,0.9851,736,448)"
         height="67"
         width="257"
         style="overflow:visible;opacity:0.75;enable-background:new" /> -->
         <path
         class="st8"
         d="m 990.1,463.1 0,16.1 c -5.1,1.8 -10.4,3.1 -15.8,4.1 -6.6,1 -86.8,10.7 -90,10.7 -3.2,0 -48.6,0.6 -53,0.6 -4.4,0 -24.3,-1.6 -28.1,-1.6 -3.8,0 -49.2,-16.6 -49.2,-16.6 l -0.3,-4.1 0.6,-12.6 4.1,-1.6 115.5,-8.2 12.3,-1 20.5,0.6 52.4,7 26.8,4.7 4.2,1.9 z"
         id="path362"
         inkscape:connector-curvature="0"
         style="fill:#d28c5f;stroke:#000000" /><path
         class="st2"
         d="m 989.8,463.4 c 0,0 -27.2,8.2 -36.3,8.2 -9.1,0 -79.2,6.6 -84.6,6.6 -5.4,0 -59.7,0.3 -59.7,0.3 0,0 -7,-0.6 -12,-1 -5,-0.4 -39.8,-13.2 -41.7,-14.8 -1.9,-1.6 -1.2,-2.9 -1.2,-2.9"
         id="path364"
         inkscape:connector-curvature="0"
         style="fill:none;stroke:#000000" /><linearGradient
         id="SVGID_11_"
         gradientUnits="userSpaceOnUse"
         x1="620.92682"
         y1="663.92999"
         x2="573.48682"
         y2="679.03003"
         gradientTransform="matrix(-1,0,0,1,1384.4399,-192.22)"><stop
           offset="0"
           style="stop-color:#8F5228"
           id="stop367" /><stop
           offset="1"
           style="stop-color:#D28C5F"
           id="stop369" /></linearGradient><path
         class="st31"
         d="m 813.3,478.8 -0.7,14.1 -11.1,-0.4 -24.6,-8.2 -22.8,-8.3 -0.3,-6.4 0.5,-7.1 18.9,7.8 c 0,0 19.3,6.8 25.1,7.7 5.1,0.7 10,0.9 15,0.8 l 0,0 z"
         id="path371"
         inkscape:connector-curvature="0"
         style="fill:url(#SVGID_11_)" /></g></g></svg>
