<?xml version="1.0" encoding="utf-8"?>
<!-- Generator: Adobe Illustrator 20.0.0, SVG Export Plug-In . SVG Version: 6.00 Build 0)  -->
<svg version="1.1"
	 id="svg16054" inkscape:version="0.91 r13725" sodipodi:docname="quiz1.svg" xmlns:cc="http://creativecommons.org/ns#" xmlns:dc="http://purl.org/dc/elements/1.1/" xmlns:inkscape="http://www.inkscape.org/namespaces/inkscape" xmlns:rdf="http://www.w3.org/1999/02/22-rdf-syntax-ns#" xmlns:sodipodi="http://sodipodi.sourceforge.net/DTD/sodipodi-0.dtd" xmlns:svg="http://www.w3.org/2000/svg"
	 xmlns="http://www.w3.org/2000/svg" xmlns:xlink="http://www.w3.org/1999/xlink" x="0px" y="0px" viewBox="0 0 1700.8 949.6"
	 style="enable-background:new 0 0 1700.8 949.6;" xml:space="preserve">
<style type="text/css">
	.st0{fill:#FFFFFF;}
	.st1{fill:#094B60;}
	.st2{fill:none;stroke:#000000;}
	.st3{fill:#0C566E;}
	.st4{fill:#0B536B;}
	.st5{fill:#A06121;}
	.st6{fill:#B8854F;}
	.st7{fill:#834317;stroke:#000000;stroke-width:1.67;}
	.st8{fill:#834317;stroke:#000000;stroke-width:3.36;}
	.st9{fill:#834317;stroke:#000000;stroke-width:3.78;}
	.st10{fill:#834317;stroke:#000000;stroke-width:2.63;}
	.st11{fill:#834317;}
	.st12{fill:#956C45;stroke:#000000;stroke-width:2.83;}
	.st13{fill:#6E4A25;}
	.st14{fill:#5D381E;}
	.st15{fill:#DDCEBE;}
	.st16{fill:none;stroke:#000000;stroke-width:5;}
	.st17{fill:none;stroke:#000000;stroke-width:4;}
	.st18{stroke:#000000;stroke-width:5;}
	.st19{fill:#956C45;stroke:#000000;stroke-width:3;}
	.st20{fill:#834317;stroke:#000000;stroke-width:1.99;}
	.st21{fill:url(#SVGID_1_);}
	.st22{fill:url(#SVGID_2_);}
	.st23{fill:url(#SVGID_3_);}
	.st24{fill:url(#SVGID_4_);}
	.st25{fill:url(#SVGID_5_);}
	.st26{fill:url(#SVGID_6_);}
	.st27{fill:url(#SVGID_7_);}
	.st28{fill:url(#SVGID_8_);}
	.st29{fill:url(#SVGID_9_);}
	.st30{fill:#094F65;}
	.st31{fill:#089BC7;stroke:#000000;}
	.st32{fill:url(#path4349_1_);}
	.st33{fill:#089BC7;}
	.st34{fill:url(#SVGID_10_);}
	.st35{fill:none;stroke:#000000;stroke-width:1.02;}
	.st36{fill:#089BC7;stroke:#000000;stroke-width:1.02;}
</style>
<defs>
	
	<inkscape:path-effect  effect="spiro" id="path-effect5341" is_visible="true"></inkscape:path-effect>
	<inkscape:path-effect  effect="spiro" id="path-effect17606" is_visible="true"></inkscape:path-effect>
	<inkscape:path-effect  effect="spiro" id="path-effect16830" is_visible="true"></inkscape:path-effect>
	<inkscape:path-effect  effect="spiro" id="path-effect16826" is_visible="true"></inkscape:path-effect>
	<inkscape:path-effect  effect="spiro" id="path-effect16822" is_visible="true"></inkscape:path-effect>
	<inkscape:path-effect  effect="spiro" id="path-effect16818" is_visible="true"></inkscape:path-effect>
	<inkscape:path-effect  effect="spiro" id="path-effect16814" is_visible="true"></inkscape:path-effect>
	<inkscape:path-effect  effect="spiro" id="path-effect16810" is_visible="true"></inkscape:path-effect>
	<inkscape:path-effect  effect="spiro" id="path-effect16806" is_visible="true"></inkscape:path-effect>
	<inkscape:path-effect  effect="spiro" id="path-effect16802" is_visible="true"></inkscape:path-effect>
	<inkscape:path-effect  effect="spiro" id="path-effect16798" is_visible="true"></inkscape:path-effect>
	<inkscape:path-effect  effect="spiro" id="path-effect16794" is_visible="true"></inkscape:path-effect>
	<inkscape:path-effect  effect="spiro" id="path-effect16790" is_visible="true"></inkscape:path-effect>
	<inkscape:path-effect  effect="spiro" id="path-effect16786" is_visible="true"></inkscape:path-effect>
	<inkscape:path-effect  effect="spiro" id="path-effect16782" is_visible="true"></inkscape:path-effect>
	<inkscape:path-effect  effect="spiro" id="path-effect16778" is_visible="true"></inkscape:path-effect>
	<inkscape:path-effect  effect="spiro" id="path-effect16774" is_visible="true"></inkscape:path-effect>
</defs>
<sodipodi:namedview  bordercolor="#666666" borderlayer="true" borderopacity="1.0" fit-margin-bottom="0" fit-margin-left="0" fit-margin-right="0" fit-margin-top="0" id="base" inkscape:current-layer="layer3" inkscape:cx="701.87495" inkscape:cy="334.05534" inkscape:document-units="cm" inkscape:pageopacity="0.0" inkscape:pageshadow="2" inkscape:window-height="1056" inkscape:window-maximized="1" inkscape:window-width="1855" inkscape:window-x="1985" inkscape:window-y="24" inkscape:zoom="0.35" pagecolor="#ffffff" showgrid="false" units="cm">
	</sodipodi:namedview>
<g id="layer2" inkscape:groupmode="layer" inkscape:label="background">
	<rect id="rect4177" y="-3.5" class="st0" width="1716.6" height="953.1"/>
</g>
<g>
	<g id="path3346">
		
			<image style="overflow:visible;opacity:0.75;enable-background:new    ;" width="127" height="38" xlink:href="7E52D78D.png"  transform="matrix(0.9921 0 0 0.9737 818 510)">
		</image>
		<polygon class="st1" points="819.2,510.6 923.4,520.2 924.8,528.4 818.7,518.8 		"/>
		<polygon class="st2" points="819.2,510.6 923.4,520.2 924.8,528.4 818.7,518.8 		"/>
	</g>
	<g id="path3336">
		
			<image style="overflow:visible;opacity:0.75;enable-background:new    ;" width="44" height="164" xlink:href="7E52D78F.png"  transform="matrix(0.9773 0 0 0.9939 795 489)">
		</image>
		<polygon class="st3" points="796,630.7 806.1,632.5 814.3,565.6 818.7,520.8 819.3,490.5 806.1,490.5 800.4,558.7 797.8,611.1 		
			"/>
		<polygon class="st2" points="796,630.7 806.1,632.5 814.3,565.6 818.7,520.8 819.3,490.5 806.1,490.5 800.4,558.7 797.8,611.1 		
			"/>
	</g>
	<g id="path3338">
		
			<image style="overflow:visible;opacity:0.75;enable-background:new    ;" width="56" height="193" xlink:href="7E52D78A.png"  transform="matrix(0.9821 0 0 0.9948 919 477)">
		</image>
		<polygon class="st4" points="923.2,478 920.1,483.8 929.9,569.1 937.3,613.5 944.6,649.4 955.4,650.3 954.5,638.3 946.9,573.1 
			937.5,513.3 930.8,478 		"/>
		<polygon class="st2" points="923.2,478 920.1,483.8 929.9,569.1 937.3,613.5 944.6,649.4 955.4,650.3 954.5,638.3 946.9,573.1 
			937.5,513.3 930.8,478 		"/>
	</g>
	<g id="path3344">
		
			<image style="overflow:visible;opacity:0.75;enable-background:new    ;" width="138" height="42" xlink:href="7E52D78B.png"  transform="matrix(0.9928 0 0 0.9762 814 554)">
		</image>
		<polygon class="st4" points="815.6,555 929.9,567.7 931.5,576.2 814.7,563 		"/>
		<polygon class="st2" points="815.6,555 929.9,567.7 931.5,576.2 814.7,563 		"/>
	</g>
	
		<image style="overflow:visible;opacity:0.75;enable-background:new    ;" width="163" height="212" xlink:href="7E52D795.png"  transform="matrix(0.9939 0 0 0.9953 780.99 517.99)">
	</image>
	<g id="g5420">
		<path d="M815.7,635.8c0,0.1,0,0.2-0.1,0.3c-0.1,0.1-0.2,0.2-0.4,0.3c-0.2,0.1-0.4,0.1-0.6,0.2c-0.2,0-0.4,0-0.7,0
			c-0.5,0-1.1-0.2-1.5-0.4l-0.4-0.2c-0.6-0.3-1.1-0.6-1.5-1.1c-0.1-0.2-0.3-0.4-0.3-0.6c0-0.1,0-0.2,0-0.3c0,0,0-0.1,0-0.1l0,0v-0.1
			l0,0l0,0l0.1-0.1l0.1-0.1c0.1-0.1,0.1-0.1,0.2-0.1c0.2-0.1,0.4-0.1,0.7-0.1c0.6,0,1.2,0.1,1.7,0.3l0.4,0.2
			c0.4,0.2,0.9,0.4,1.3,0.6c0.2,0.1,0.3,0.2,0.5,0.3c0.1,0.1,0.2,0.2,0.3,0.3c0.1,0.1,0.2,0.2,0.2,0.3
			C815.6,635.6,815.7,635.8,815.7,635.8L815.7,635.8z"/>
		<path d="M816,632c0,0.1,0,0.2,0,0.3c-0.1,0.1-0.1,0.2-0.2,0.3c-0.3,0.2-0.6,0.4-0.9,0.4c-0.4,0.1-0.8,0.1-1.2,0l-0.4-0.1
			c-1-0.3-1.7-0.9-1.6-1.5l0,0c0.1-0.6,1-1,2-0.9h0.4c0.3,0,0.7,0.1,1,0.3c0.3,0.1,0.5,0.3,0.7,0.5c0.1,0.1,0.2,0.2,0.2,0.3
			C816,631.7,816,631.9,816,632L816,632z"/>
		<path d="M815.4,641.3c0.1,0.4,0,0.7-0.3,1c-0.3,0.3-0.8,0.6-1.3,0.6c-0.3,0.1-0.7,0-1-0.1c-0.3-0.1-0.5-0.2-0.8-0.5
			c-0.1-0.1-0.1-0.2-0.2-0.3c0-0.1,0-0.2,0-0.3l0,0c0-0.1,0-0.2,0.1-0.3c0-0.1,0.1-0.2,0.2-0.3c0.2-0.2,0.4-0.4,0.6-0.5
			c0.2-0.1,0.5-0.2,0.8-0.3c0.4-0.1,0.8,0,1.2,0.1C815.1,640.7,815.3,641,815.4,641.3L815.4,641.3z"/>
		<path class="st5" d="M852.6,615.6c-1-0.7-1.8-0.4-2.9-0.2s-2.2,1.4-2.7,1.6h-0.2c-2.7,2.7-6,4.8-9.7,5.9c-9.6,3.3-16.8,0.4-24,9.4
			c-1.3,1.7-0.2,8.1,1.8,11.3c2.5,4,8.9,4.3,15,2.1c7.7-2.7,17.6-11.4,22-17.3c0.1-0.4,0.3-0.7,0.5-1c0.5-0.8,1-1.6,1.4-2.4
			c0.6-1.3,1.1-2.7,1.4-4.1c0-1.1-0.2-2.2-0.6-3.2C854.3,616.7,853.7,616.3,852.6,615.6L852.6,615.6z"/>
		<path class="st6" d="M855.2,619.6c-0.3,0.7-0.6,1.3-1,2s-0.9,1.7-1.5,2.5c-0.5,0.8-1.1,1.7-1.8,2.4c-0.5,0.7-1.2,1.4-1.9,2.1
			s-2.1,1.7-3,2.5s-1.7,1.7-2.7,2.6s-1.9,1.7-2.9,2.5s-2,1.6-3.1,2.4s-2.1,1.5-3.2,2.1s-2.1,1.2-3.1,1.8c-1,0.5-2,0.9-3,1.3
			c-0.8,0.3-1.5,0.5-2.3,0.7c-0.7,0.2-1.5,0.3-2.3,0.5c-0.7,0.1-1.5,0.2-2.2,0.2c-0.7,0-1.4,0-2.1-0.1c-0.6-0.1-1.3-0.2-1.9-0.4
			c-0.6-0.2-1.2-0.4-1.7-0.7c-0.2-0.2-0.5-0.3-0.7-0.5l0,0c2.5,4,8.9,4.3,15,2.2c7.7-2.7,17.6-11.4,22-17.3c0.1-0.4,0.3-0.7,0.5-1
			c0.5-0.8,1-1.6,1.4-2.4c0.6-1.3,1.1-2.7,1.4-4.1C855.2,620.4,855.2,620,855.2,619.6L855.2,619.6z"/>
		<path d="M854.9,617.9l0.2,2.5c-0.2,1.4-0.6,2.8-1.3,4.1c-0.6,1.2-1.4,2.3-2.2,3.4c-0.7,0.9-1.4,1.8-2.1,2.6s-1.4,1.5-2.1,2.2
			c-1.8,1.8-3.7,3.4-5.6,5c-2,1.6-4.1,3-6.3,4.3c-1.3,0.8-2.5,1.4-3.5,1.8c-0.7,0.3-1.5,0.7-2.5,1.1c-1.3,0.5-2.6,0.8-3.9,1.1
			c-1.5,0.3-3.1,0.4-4.6,0.3l0,0c-1.2-0.1-2.3-0.4-3.4-0.9c-0.9-0.4-1.7-1.1-2.3-2c-0.5-0.8-1-1.8-1.3-2.7l0,0
			c-0.4-1-0.7-2.1-0.9-3.2c-0.1-0.3-0.1-0.6-0.2-0.8c-0.1-0.7-0.1-1.4-0.1-2.1c0-0.4,0.1-0.7,0.2-1.1c0.1-0.2,0.2-0.5,0.3-0.7
			c0.7-0.9,1.5-1.7,2.4-2.4c1-0.8,2-1.5,3.1-2.1l0,0c0.9-0.5,1.8-0.8,2.7-1.1c0.9-0.3,1.9-0.5,2.9-0.7c1.1-0.2,2.2-0.3,3.2-0.5
			s2-0.2,3-0.4s2-0.3,2.8-0.5s1.5-0.3,1.9-0.5c0.6-0.2,1.4-0.4,2.3-0.8c1.6-0.6,3.1-1.2,4.6-2c1-0.5,1.9-1.2,2.8-1.9
			c0.7-0.6,1.3-1.2,2-1.8l0,0c0.7-0.7,1.5-1.3,2.3-1.8c0.7-0.5,1.5-0.7,2.3-0.7c0.6,0,1.1,0.2,1.6,0.6l0.7,0.8
			c0.5,0.7,0.8,0.9,0.9,0.9l0,0c0.7-0.5,0.7-0.5,0,0l0,0c-0.3-0.8-0.7-1.5-1.3-2.1c-0.2-0.2-0.5-0.4-0.8-0.6
			c-0.3-0.2-0.7-0.3-1.1-0.4c-0.5-0.1-0.9-0.1-1.4,0c-0.5,0.1-1,0.3-1.5,0.5c-0.9,0.5-1.8,1.1-2.7,1.7c-0.7,0.5-1.4,1.1-2,1.6
			c-0.8,0.6-1.7,1.1-2.6,1.5c-1.4,0.7-2.9,1.2-4.5,1.7c-2.2,0.7-4.3,1.1-6,1.5l-0.7,0.1c-2,0.4-4.1,0.7-6.2,1.3
			c-2,0.5-4,1.3-5.8,2.3c-1.1,0.7-2.2,1.5-3.1,2.4c-0.9,0.8-1.7,1.7-2.4,2.7c-0.2,0.3-0.4,0.6-0.4,0.9c-0.1,0.4-0.2,0.8-0.2,1.2
			c0,1,0,2.1,0.2,3.1c0.1,0.4,0.1,0.8,0.2,1.1c0.1,0.8,0.3,1.5,0.6,2.3c0.3,1,0.7,2.1,1.3,3l0,0c0.3,0.5,0.7,1,1.1,1.4
			c0.5,0.4,1,0.8,1.5,1.1c1.2,0.6,2.5,1,3.8,1.2c1.6,0.2,3.1,0.2,4.7,0c1.6-0.2,3.1-0.6,4.6-1.1l0,0c2.2-0.8,4.3-1.8,6.3-3.1
			c1.7-1,3.2-2.1,4.7-3.4c0.5-0.4,1-0.8,1.5-1.3c1.9-1.7,3.7-3.5,5.4-5.4l0,0c1.5-1.6,2.8-3.3,4-5.1c0.5-0.7,0.9-1.5,1.3-2.2
			c0.4-0.7,0.7-1.4,1-2.1c0.3-0.6,0.5-1.3,0.6-1.9c0.1-0.5,0.2-1.1,0.3-1.7L854.9,617.9L854.9,617.9z"/>
		<path class="st7" d="M818.7,637c0,0.9,0.8,1.7,1.7,1.6c0,0,0,0,0,0c0.2,0,0.4,0.1,0.5,0.4c0.1,1.2,1.1,2.2,2.4,2.1c0,0,0,0,0,0
			c1.2-0.1,2.6-1.2,2.1-2.4c-0.8-1.9-0.4-2.8-0.2-4.4c0-1.2-0.9-2.1-2.1-2.1c-0.1,0-0.2,0-0.3,0c-1.2,0.1-2.2,1.1-2.1,2.4
			c0,0,0,0,0,0c0,0.3,0.1,0.5-0.4,0.6C819.4,635.3,818.7,636.1,818.7,637z"/>
		
			<ellipse transform="matrix(0.9986 -5.285883e-02 5.285883e-02 0.9986 -32.6976 44.1501)" class="st8" cx="818.3" cy="640.2" rx="1.4" ry="1.4"/>
		
			<ellipse transform="matrix(0.9986 -5.285883e-02 5.285883e-02 0.9986 -32.4801 44.0514)" class="st9" cx="816.6" cy="636.1" rx="1.3" ry="1.3"/>
		
			<ellipse transform="matrix(0.9986 -5.285883e-02 5.285883e-02 0.9986 -32.291 44.1681)" class="st10" cx="818.9" cy="632.5" rx="1.4" ry="1.4"/>
	</g>
	<path class="st5" d="M816.2,651.9c0,0,2.8,6,3,9.1s-3.3,8-3.8,9.9s-5,8.6-5,8.6l12-0.1l5.9-22l-1.4-6.3c-0.8,0-1.5-0.2-2.3-0.4
		c-2-0.3-4.1-0.2-6,0.4C817.9,651.5,817.1,651.8,816.2,651.9L816.2,651.9z"/>
	<path d="M807.9,680.3c0.8,0,1.7,0,2.5,0.1c0.7,0.1,1.3,0.2,2,0.3c0.2,0,0.4,0.1,0.6,0.1c0.3,0,0.6,0,0.9-0.1
		c0.7-0.1,1.5-0.3,2.3-0.5s1.6-0.5,2.1-0.6c0,0-0.6-0.1-1.5-0.3s-2-0.2-3-0.3c-0.5,0-1-0.1-1.4-0.1c-0.2,0-0.5,0-0.8,0l-1.3,0.5
		L807.9,680.3L807.9,680.3z"/>
	<path class="st5" d="M805,647.5c7.8-1.2,14.6,6.7,14.4,16.2c-0.2,9.8-7.9,17.9-14.2,16.8c-4.5-0.8-9-1.9-10.7-7.9
		c-0.6-3.1-0.9-6.2-0.7-9.3C794.7,654.1,799,648.4,805,647.5z"/>
	<path d="M813.6,676.4c-0.4,0.7-1,1.4-1.6,2c-0.6,0.5-1.2,0.9-1.9,1.2c-1,0.4-2,0.6-3.1,0.5c-1.4,0-2.7-0.2-4.1-0.6
		c-1.1-0.3-2.1-0.7-3-1.3c-0.5-0.3-1-0.7-1.5-1.2c-0.4-0.4-0.8-0.8-1.1-1.2c-0.4-0.6-0.8-1.2-1.1-1.9c-0.2-0.5-0.4-1.1-0.6-1.7
		c-0.1-0.3-0.2-0.6-0.2-0.9s-0.1-0.6-0.2-0.9c-0.1-0.7-0.2-1.5-0.3-2.4c-0.2-1.6-0.3-3.1-0.2-4.7c0.1-1,0.2-2,0.4-3
		c0.2-0.9,0.4-1.8,0.6-2.8c0.2-0.7,0.5-1.5,0.8-2.2c0.3-0.6,0.5-1.1,0.7-1.4c0.4-0.7,0.8-1.4,1.3-2c0.5-0.6,1.1-1.2,1.7-1.7
		c0.7-0.6,1.4-1.1,2.2-1.5c0.7-0.3,1.5-0.6,2.2-0.8c0.8-0.2,1.5-0.2,2.3-0.2c0.9,0,1.7,0.2,2.5,0.5c0.7,0.2,1.3,0.5,1.9,0.9
		c0.6,0.3,1,0.7,1.3,0.9c0.4,0.3,0.8,0.6,1.2,0.9c0.5,0.4,0.9,0.9,1.3,1.4c0.6,0.7,1.1,1.4,1.5,2.2c0.5,0.9,0.9,1.7,1.2,2.7
		c0.3,0.9,0.6,1.9,0.7,2.8c0.2,0.9,0.3,1.8,0.3,2.7c0,0.3,0,0.6,0.1,0.8c0,0.1,0.1,0.1,0.1-0.1c0.2-0.8,0.3-1.7,0.3-2.5
		c0-1.6-0.1-3.1-0.5-4.6c-0.2-0.9-0.5-1.8-0.9-2.6c-0.4-0.9-0.8-1.7-1.4-2.5l0,0c-0.6-0.9-1.2-1.6-2-2.3c-0.7-0.6-1.4-1.2-2.3-1.6
		c-0.3-0.2-0.7-0.3-1-0.5c-3.1-1.2-6.7-0.9-9.6,0.9c-1.5,1-2.8,2.2-3.9,3.7c-0.7,1.1-1.4,2.2-2,3.3c-0.5,1-1,2.1-1.4,3.1
		c-0.3,0.7-0.5,1.5-0.7,2.4s-0.4,1.8-0.5,2.8c-0.2,1.7-0.3,3.3-0.1,5c0,0.9,0.1,1.7,0.2,2.6c0.1,0.7,0.2,1.4,0.4,2.1
		c0.2,0.8,0.6,1.6,1,2.3c0.3,0.6,0.7,1.2,1.2,1.8c0.3,0.4,0.7,0.8,1.1,1.1c0.7,0.5,1.4,1,2.2,1.4c1.2,0.6,2.4,0.9,3.6,1.2
		c1.4,0.2,2.7,0.3,4.1,0.2c1.1,0,2.2-0.3,3.3-0.8c0.6-0.3,1.1-0.7,1.6-1.1c0.4-0.4,0.7-0.8,1-1.2c0.2-0.3,0.4-0.6,0.6-0.9
		L813.6,676.4L813.6,676.4z"/>
	<path class="st11" d="M796.8,677c1,1.4,2.5,1.5,3.8,0.2c2-1.8,3.1-6.5,2.5-10.3s-2.7-6.7-4.7-4.9s-3.3,7.7-2.6,11.5
		C795.8,674.7,796.2,675.9,796.8,677L796.8,677z"/>
	<path d="M796.4,677c0.2,0.4,0.6,0.7,0.9,0.9c0.4,0.3,0.8,0.4,1.2,0.5c0.5,0,1,0,1.4-0.2c0.4-0.2,0.7-0.4,1-0.7
		c0.4-0.4,0.8-0.8,1.1-1.3c0.3-0.4,0.5-0.8,0.7-1.2c0.3-0.7,0.6-1.4,0.8-2.1c0.2-0.6,0.3-1.2,0.5-1.8c0.1-0.5,0.2-0.9,0.2-1.4
		c0-0.4,0-0.8,0-1.3c-0.1-0.6-0.1-1.1-0.3-1.7c-0.2-0.9-0.5-1.8-0.9-2.7c-0.2-0.4-0.4-0.8-0.7-1.2c-0.2-0.3-0.5-0.6-0.8-0.9
		c-0.2-0.2-0.4-0.4-0.6-0.5c-0.2-0.1-0.4-0.2-0.5-0.3c-0.2-0.1-0.3-0.1-0.5-0.1c-0.3,0-0.6,0-0.9,0.1c-0.4,0.1-0.7,0.3-1,0.5
		c-0.3,0.3-0.7,0.6-0.9,1c-0.3,0.4-0.5,0.8-0.8,1.2c-0.5,1-1,2-1.3,3.1c-0.2,0.6-0.4,1.3-0.4,2c0,0.5,0,1.2,0,2.1
		c0,0.9,0.1,1.9,0.3,2.8c0.2,0.5,0.3,1,0.6,1.5c0.2,0.5,0.5,0.9,0.8,1.3c0.1,0.1,0.2,0.3,0.3,0.4l0,0l0,0c-0.1-0.4-0.3-0.7-0.4-1.1
		c-0.1-0.3-0.1-0.7-0.1-1c0-0.4,0-0.8,0-1.2c0-0.5,0.1-1,0.1-1.5s0.1-1,0.2-1.5c0.2-1,0.4-1.9,0.4-2.6c0-0.2,0-0.4,0-0.6
		c0.1-1,0.3-2,0.6-3c0.1-0.4,0.3-0.8,0.4-1.1c0.2-0.3,0.4-0.6,0.6-0.9c0.2-0.2,0.4-0.3,0.6-0.5c0.2-0.1,0.4-0.1,0.6-0.1
		c0.2,0,0.3,0.1,0.5,0.2c0.1,0.1,0.3,0.2,0.4,0.3c0.1,0.1,0.2,0.3,0.3,0.4c0.2,0.2,0.3,0.5,0.5,0.8c0.2,0.3,0.3,0.7,0.4,1
		c0.2,0.9,0.4,1.8,0.5,2.7c0.1,1,0.1,2.1,0,3.1c-0.1,1-0.3,1.8-0.3,2.4v0.2c-0.1,0.7-0.2,1.3-0.3,2c-0.1,0.4-0.2,0.8-0.4,1.2
		c-0.2,0.4-0.4,0.8-0.7,1.1l0,0c-0.2,0.3-0.5,0.6-0.9,0.8c-0.3,0.2-0.7,0.3-1.1,0.3c-0.3,0-0.7-0.1-1-0.2c-0.2-0.1-0.5-0.2-0.7-0.4
		c-0.1-0.1-0.3-0.2-0.4-0.3L796.4,677L796.4,677z"/>
	<path class="st7" d="M807.8,653.9c-0.7,1.1-1.1,2.3-1.3,3.6c-0.4,2.2-0.2,3.7,0.7,3.5s2-1.9,2.5-4.1s-0.1-4-1-3.7
		C808.3,653.3,808,653.6,807.8,653.9L807.8,653.9z"/>
	<path class="st7" d="M804.7,651.1c-0.7,0.7-1.3,1.5-1.6,2.5c-0.8,1.8-1,3.5-0.5,4.1s1.6-0.1,2.4-1.9s0.9-4.1,0.4-4.6
		C805.2,651,804.9,651,804.7,651.1L804.7,651.1z"/>
	<path class="st7" d="M800.3,651.4c-0.6,0.6-1,1.3-1.2,2.2c-0.5,1.6-0.6,3.1-0.1,3.6s1.3,0,1.9-1.6s0.5-3.6,0-4.1
		C800.7,651.3,800.4,651.3,800.3,651.4L800.3,651.4z"/>
	<path d="M804,648.7l1,0.1c0.7,0.2,1.4,0.5,2,0.9c0.5,0.3,0.9,0.7,1.3,1.2c0.3,0.4,0.6,0.8,0.8,1.3c0.2,0.5,0.4,1.1,0.6,1.7
		c0.1,0.4,0.2,0.9,0.2,1.3c0.1,0.8,0.1,1.4,0.1,2c0,0,0,0.1,0,0.1c0,0.7,0.1,1.9,0.2,3.2s0.1,2.7,0.1,3.8c0,0.8,0,1.5,0,1.8
		c-0.1,0.7-0.2,1.5-0.4,2.2c-0.3,1.1-0.6,2.2-1,3.2c-0.3,0.8-0.6,1.6-0.9,2.2s-0.5,1.1-0.6,1.4c-0.3,0.7-0.6,1.5-1.1,2.1
		c-0.5,0.7-1,1.3-1.7,1.8c-0.5,0.4-1.1,0.6-1.8,0.7c-0.3,0-0.4,0.1-0.4,0.2s0.1,0.1,0.3,0.2c0.3,0.1,0.7,0.1,1,0.1
		c0.5,0,1-0.1,1.4-0.3c0.5-0.2,0.9-0.4,1.3-0.7c0.4-0.3,0.8-0.6,1.2-1c0.5-0.5,1-1.2,1.4-1.8c0.3-0.5,0.6-1.1,0.8-1.8
		c0.2-0.9,0.4-1.8,0.5-2.8c0.2-1.3,0.3-2.6,0.4-3.8s0.1-2.1,0.3-2.7c0-0.3,0.1-0.7,0.2-1.2l0,0c0.2-0.9,0.3-2,0.5-3.3
		s0.2-2.6,0.2-3.8c0-0.7,0-1.4-0.2-2.1c-0.1-0.5-0.2-1-0.4-1.5c-0.3-0.7-0.7-1.4-1.1-2c-0.4-0.5-0.8-1-1.3-1.4c-0.5-0.4-1-0.7-1.6-1
		c-0.4-0.2-0.8-0.3-1.3-0.4c-0.3-0.1-0.7-0.1-1-0.1L804,648.7L804,648.7z"/>
	<path class="st5" d="M882.7,660.9c0,0,5-4.3,8-0.9s-2.1,12.3-7.4,13.9s-5.4-0.3-5.4-0.3"/>
	<path class="st5" d="M873.4,603.4c9.4,16.4,9.9,42.6,9.8,53.2c-0.1,7.8-6.3,22.3-16.9,25.6c-4.2,1.3-25.6,12-30.7,9.8
		c-8-3.5,0.6-22.7-2.5-24.4c-10.1-5.7-4.7-23.1-2.8-29.7c2.3-8.3,21.1-29,39.5-38.7"/>
	<path class="st12" d="M838,630.4c-4.7,0.2-6.8,4.1-9,11.8c-2.6,8.8-2.4,20.1,2.3,22.8s10.4-0.8,13-9.6s2.5-22.5-2.1-24.5
		C840.8,630.7,839.4,630.4,838,630.4L838,630.4z"/>
	<path d="M831.5,664.3c-0.3-0.4-0.5-0.9-0.7-1.4c-0.2-0.5-0.4-1-0.5-1.5c-0.1-0.6-0.2-1.2-0.1-1.8c0-0.5,0.1-1,0.1-1.5s0-1,0-1.6
		c0-1,0.2-2.1,0.3-3.2s0.3-2.2,0.5-3.4c0.2-1.3,0.5-2.6,0.8-3.8s0.6-2.5,1-3.6c0.5-1.5,1.1-2.9,1.7-4.3c0.6-1.2,1.1-2.1,1.4-2.7
		c0.5-0.8,1-1.6,1.6-2.4c0.3-0.4,0.6-0.7,1-1c0.4-0.4,0.8-0.7,1.2-1c0.9-0.7,1.8-1.3,2.8-1.8c0.8-0.5,1.6-0.9,2.5-1.4
		c0.3-0.2,0.5-0.3,0.8-0.5l0.3-0.2c0.1-0.1,0.1-0.1,0.2-0.2l2.2-4.5c0.5-1.4,1.2-2.7,2-3.9l0.2-0.3c0.2-0.3,0.4-0.5,0.5-0.7l0.2-0.3
		l0-0.1l-0.1-0.1l0,0l0,0l0,0l0,0l0,0l0.1,0.1l-0.1,0.1l-0.3,0.3c-0.3,0.3-0.6,0.7-0.8,1c-0.4,0.5-0.7,1.1-1.1,1.6
		c-0.4,0.7-0.8,1.5-1.1,2.3l-2.3,4.5l0,0l-0.1,0.1l0,0l-0.2,0.2l0,0c-0.3,0.2-0.5,0.3-0.8,0.4c-0.8,0.4-1.7,0.9-2.5,1.3
		c-1,0.5-2,1.1-2.9,1.8c-0.9,0.6-1.7,1.3-2.3,2.1c-1.5,1.9-2.7,4-3.6,6.3c-0.5,1.1-0.8,2.2-1.2,3.4c-0.7,2.5-1.3,5-1.6,7.5
		c-0.3,2.2-0.6,4.4-0.7,6.7c0,1.1,0,2.1-0.1,3.1c-0.1,0.6,0,1.2,0.1,1.8c0.1,0.5,0.3,1.1,0.5,1.6c0.3,0.6,0.5,1.2,0.9,1.7
		c0.3,0.5,0.6,1,0.9,1.3l0.1,0.1c0.8,1,1.7,1.9,2.7,2.8c-0.8-1.1-1.7-2.1-2.6-3.1C832.2,665.4,831.8,664.8,831.5,664.3L831.5,664.3z
		"/>
	<path d="M847.1,628c-0.4,0-0.8-0.1-1.1-0.1c-0.5-0.1-1-0.2-1.3-0.2h-0.1c-0.3,0-0.6,0-0.9,0c-0.3,0-0.7-0.1-1-0.2
		c-0.1,0-0.2,0-0.1,0.1c0.1,0.1,0.3,0.2,0.5,0.3c0.3,0.1,0.5,0.2,0.8,0.3c0.3,0.1,0.6,0.1,0.8,0.2h0.2l1.4-0.1c0.3,0,0.7,0,1,0
		c0.2,0,0.3,0,0.3-0.1S847.4,628,847.1,628L847.1,628z"/>
	<path d="M847.9,625.8c-0.3,0-0.5-0.1-0.8-0.2c-0.3-0.1-0.5-0.2-0.8-0.2l0,0c-0.4,0-0.8-0.1-1.2-0.1c-0.2,0,0,0.1,0.2,0.3
		c0.3,0.2,0.6,0.4,0.9,0.5c0.1,0,0.2,0,0.3,0l0.9-0.1c0.2,0,0.4,0,0.7,0c0.1,0,0.2,0,0.2-0.1S848.2,625.8,847.9,625.8L847.9,625.8z"
		/>
	<path d="M872.8,603.7c1.3,2.3,2.4,4.6,3.4,7c0.9,2.2,1.7,4.3,2.3,6.2l0,0c0.8,2.6,1.5,5.3,2.1,8c0.5,2.3,0.8,4.3,1,6.1
		c0.3,2,0.4,3.6,0.5,5s0.2,2.6,0.3,3.8s0.2,2.8,0.3,4.7c0.1,1.6,0.1,3.5,0.1,5.3s-0.1,3.9-0.3,5.8c-0.1,1.4-0.3,2.8-0.5,4.1
		s-0.4,2.3-0.6,3.2s-0.4,1.8-0.6,2.5c-0.1,0.5-0.3,0.9-0.3,1.2s-0.4,1.2-0.8,2c-0.4,1-0.9,2-1.4,2.9c-0.5,0.9-1.1,1.9-1.8,2.7
		c-0.7,0.9-1.5,1.8-2.4,2.6l0,0c-1.1,1-2.3,1.9-3.6,2.6c-1.6,1-3.3,1.8-4.8,2.5c-2.7,1.3-5,2.2-6.1,2.7s-3,1.3-5.2,2.2
		c-1.6,0.6-3.3,1.3-5.2,1.9s-3.7,1.3-5.6,1.8c-1.4,0.4-2.8,0.8-4.1,1.2l-1.4,0.4c-0.6,0.1-1,0.2-1.2,0.3s-0.2,0.1,0,0.1
		c0.3,0,0.6,0,1,0c0.5,0,1.1-0.1,1.8-0.2c1.2-0.2,2.6-0.4,4.3-0.8s3.5-0.8,5.4-1.3s3.8-1.1,5.7-1.7s3.5-1.2,5-1.8s3-1.3,4.1-1.8
		c0.8-0.4,1.5-0.8,2.3-1.2c1.6-0.9,3.2-1.9,4.8-3c1.3-0.9,2.5-1.9,3.7-3c1.6-1.7,3-3.7,4-5.8l0,0c1-2.1,1.8-4.2,2.4-6.4l0.2-0.7
		c0.3-1,0.8-2.8,1.3-5c0.3-1.2,0.5-2.6,0.7-4.1l0,0c0.3-1.7,0.5-3.6,0.6-5.5s0.2-3.9,0.1-5.8l0,0c0-2.7-0.2-5.3-0.4-7.7
		s-0.5-4.4-0.8-6c-0.1-0.4-0.2-0.8-0.2-1.1c-0.3-1.4-0.8-3.5-1.5-5.7s-1.5-4.8-2.4-7.2c-0.7-1.7-1.4-3.4-2.1-5s-1.4-3-2.1-4.1
		s-1.2-2.1-1.6-2.8s-0.7-1-0.7-1L872.8,603.7z M827.6,654.3c0-1.9,0.1-3.7,0.2-5.6c0.1-1.5,0.4-3,0.8-4.4l0,0
		c0.3-1.2,0.8-2.4,1.3-3.6c0.5-1,0.9-1.9,1.3-2.7s0.8-1.4,1.1-1.9s0.7-1,1-1.5l1.1-1.5c0.5-0.7,1.1-1.7,2-2.9c0.7-0.9,1.4-2,2.1-3
		s1.5-2.1,2.3-3.1c1.5-2,2.9-3.6,3.5-4.3l0.4-0.5c0.5-0.6,1.3-1.4,2.3-2.3s2.1-1.9,3.3-2.9s2.4-2,3.5-2.9s2.2-1.7,2.9-2.3
		c0.5-0.4,0.8-0.7,1.1-0.9c1-0.9,2.8-2.3,5-3.8c1.1-0.7,2.2-1.5,3.3-2.1s2.2-1.3,3.2-1.8c0.5-0.2,0.7-0.4,0.7-0.4s-0.2,0-0.5,0
		c-1.3,0.3-2.5,0.8-3.8,1.3c-1.9,0.8-3.7,1.7-5.4,2.7c-1.7,1-3.3,2.1-4.9,3.4c-0.3,0.3-0.6,0.5-0.8,0.7c-2,1.8-3.9,3.8-5.7,5.7
		s-3.4,3.7-4.6,5.1c-0.5,0.5-0.9,1-1.3,1.4c-0.6,0.6-1.8,1.8-3.3,3.4s-3.2,3.5-4.7,5.5c-1.2,1.5-2.3,3.1-3.2,4.5l0,0
		c-0.5,0.7-0.9,1.4-1.2,2c-0.3,0.5-0.6,1.1-0.8,1.7v0.1c-0.3,0.7-0.7,1.7-1,2.9c-0.4,1.3-0.7,2.5-1,3.8c-0.2,1.2-0.3,2.4-0.4,3.7
		c0,1.2,0,2.3,0,3.3s0.1,1.8,0.1,2.3s0.1,0.9,0.1,0.9L827.6,654.3z"/>
	<g id="g4320">
		<path class="st5" d="M875.1,608.8c-1.3-0.3-2,0.4-3,1s-1.6,2.4-2,2.8l-0.2,0.1c-1.6,3.9-4.1,7.3-7.2,10.1
			c-8.3,7.4-16.7,7.5-20.3,19.6c-0.7,2.2,3.2,8.2,6.6,10.6c4.2,3,10.8,0.6,16.1-4.2c6.6-6,13-18.9,14.9-26.7c0-0.4,0-0.8,0.1-1.3
			c0.2-1,0.3-2,0.3-3c0.1-1.6-0.1-3.2-0.4-4.8c-0.4-1.1-1.1-2.1-1.9-3C877.3,609.2,876.5,609.1,875.1,608.8L875.1,608.8z"/>
		<path class="st6" d="M879.4,611.8c0,0.8-0.1,1.6-0.2,2.5c-0.1,1-0.2,2.1-0.4,3.2c-0.2,1.1-0.4,2.2-0.8,3.2c-0.3,0.9-0.6,1.9-1,2.9
			s-1.4,2.6-1.9,3.8s-1,2.5-1.6,3.7s-1.2,2.5-1.9,3.8s-1.4,2.5-2.1,3.7s-1.5,2.4-2.3,3.5s-1.6,2.1-2.4,3.1c-0.8,0.9-1.6,1.8-2.5,2.6
			c-0.7,0.6-1.3,1.2-2,1.7c-0.7,0.5-1.4,1-2.1,1.4c-0.7,0.4-1.4,0.8-2.2,1.1c-0.7,0.3-1.4,0.6-2.2,0.8c-0.7,0.2-1.4,0.3-2.1,0.4
			c-0.7,0.1-1.3,0.1-2,0c-0.3,0-0.6-0.1-0.9-0.2l0,0c4.2,3,10.8,0.6,16.1-4.2c6.6-6,13-18.9,14.9-26.7c0-0.4,0-0.8,0.1-1.3
			c0.2-1,0.3-2,0.3-3c0.1-1.6-0.1-3.2-0.4-4.8C879.8,612.5,879.6,612.1,879.4,611.8L879.4,611.8z"/>
		<path d="M878.4,610.2l1.3,2.4c0.4,1.5,0.5,3.1,0.4,4.7c-0.1,1.5-0.4,2.9-0.8,4.4c-0.3,1.2-0.7,2.4-1,3.5s-0.8,2.1-1.2,3.1
			c-1.1,2.5-2.3,5-3.6,7.4c-1.3,2.4-2.9,4.8-4.5,7c-1,1.3-1.9,2.4-2.8,3.4c-0.5,0.6-1.2,1.3-2.1,2.1c-1.1,1-2.3,2-3.5,2.8
			c-1.4,0.9-2.9,1.7-4.5,2.2c-1.2,0.4-2.5,0.6-3.8,0.5c-1.1,0-2.3-0.4-3.2-1c-0.9-0.6-1.8-1.4-2.5-2.2c-0.8-0.9-1.6-1.9-2.3-2.9
			c-0.2-0.3-0.4-0.6-0.5-0.8s-0.3-0.5-0.5-0.9c-0.2-0.4-0.4-0.8-0.5-1.2c-0.1-0.4-0.2-0.8-0.2-1.2c0-0.3,0-0.5,0-0.8
			c0.4-1.2,0.8-2.3,1.4-3.4c0.6-1.2,1.4-2.4,2.3-3.5l0,0c0.7-0.8,1.4-1.6,2.3-2.3c0.8-0.7,1.7-1.3,2.6-1.9l0,0c1-0.7,2-1.3,3-1.8
			s2-1.1,2.8-1.6s1.9-1.2,2.7-1.7s1.3-1,1.7-1.3s1.2-1,2-1.7c0.6-0.5,1.2-1.1,1.8-1.8c0.7-0.7,1.4-1.4,2-2.2c0.8-1,1.4-2,2-3.1
			c0.5-0.9,0.8-1.8,1.2-2.6c0.5-1,1-1.9,1.6-2.8c0.5-0.8,1.2-1.4,2.1-1.7c0.6-0.2,1.3-0.2,1.9,0c0.4,0.1,0.7,0.2,1.1,0.4l0.5,0.3
			c0.5,0.3,0.7,0.4,0.7,0.4l0,0c0.5-0.7,0.5-0.7,0,0l0,0c0,0-0.2-0.3-0.5-0.6c-0.2-0.2-0.4-0.3-0.7-0.5c-0.3-0.2-0.6-0.3-0.9-0.5
			c-0.3-0.1-0.7-0.2-1.1-0.2c-0.4,0-0.8,0-1.2,0.1c-0.5,0.1-1,0.3-1.4,0.6c-0.5,0.3-0.9,0.7-1.3,1.2c-0.7,0.9-1.4,1.8-1.9,2.8
			c-0.5,0.8-0.9,1.7-1.4,2.5c-0.6,1-1.3,1.9-2,2.7c-1.2,1.3-2.5,2.5-3.8,3.6c-1.7,1.4-3.6,2.8-5.5,4l-0.6,0.4
			c-1.8,1.2-3.8,2.5-5.7,3.9l0,0c-1.9,1.3-3.5,3-4.9,4.8c-0.8,1.2-1.6,2.4-2.1,3.7c-0.5,1.2-1,2.4-1.3,3.7c-0.1,0.4-0.1,0.7,0,1.1
			c0.1,0.4,0.2,0.9,0.3,1.3c0.4,1,0.9,2.1,1.5,3c0.2,0.4,0.5,0.7,0.7,1c0.5,0.7,1,1.4,1.5,2c0.7,0.9,1.6,1.8,2.5,2.5
			c0.5,0.4,1.1,0.7,1.7,0.9c0.6,0.3,1.3,0.4,2,0.5c1.5,0.1,2.9,0,4.3-0.4c1.7-0.5,3.2-1.1,4.7-2c1.5-0.9,2.9-1.9,4.2-3
			c1.9-1.7,3.6-3.7,5.1-5.8c1.2-1.7,2.4-3.5,3.3-5.4c0.3-0.6,0.6-1.3,1-2c1.2-2.5,2.3-5.1,3.2-7.7l0,0c0.8-2.2,1.4-4.5,1.9-6.8
			c0.2-0.9,0.3-1.8,0.4-2.7c0.1-0.8,0.1-1.6,0.1-2.5c0-0.7-0.1-1.5-0.2-2.2c-0.1-0.6-0.2-1.2-0.4-1.8L878.4,610.2L878.4,610.2z"/>
		<path d="M846.3,644.8c0,0.1,0,0.2,0,0.3c-0.1,0.2-0.1,0.3-0.3,0.4c-0.2,0.2-0.3,0.3-0.5,0.4c-0.2,0.1-0.4,0.2-0.7,0.3
			c-0.6,0.2-1.1,0.3-1.7,0.3h-0.5c-0.7,0-1.3-0.2-1.9-0.4c-0.2-0.1-0.4-0.2-0.6-0.4c-0.1-0.1-0.1-0.1-0.2-0.2c0,0,0-0.1,0-0.1
			c0-0.1,0-0.1,0-0.1l0,0l0,0l0,0c0,0,0,0,0-0.1l0,0c0,0,0-0.1,0-0.1c0-0.1,0.1-0.1,0.2-0.2c0.2-0.2,0.4-0.3,0.6-0.3
			c0.6-0.2,1.2-0.3,1.9-0.4h0.5c0.5,0,1,0,1.5,0.1c0.2,0,0.4,0.1,0.6,0.1c0.2,0,0.3,0.1,0.5,0.2c0.1,0.1,0.2,0.1,0.3,0.2
			C846.1,644.7,846.2,644.7,846.3,644.8L846.3,644.8z"/>
		<path d="M845,640.9c0.1,0.2,0.1,0.5,0,0.7c-0.2,0.3-0.5,0.6-0.8,0.8c-0.3,0.2-0.7,0.4-1.1,0.5l-0.4,0.1c-0.5,0.1-1,0.1-1.5,0
			c-0.2-0.1-0.4-0.1-0.5-0.3c-0.1-0.1-0.1-0.1-0.2-0.2l-0.1-0.1v-0.1l0,0l0,0l0,0v-0.1c0,0,0-0.1,0-0.1c0-0.1,0-0.2,0.1-0.2
			c0.1-0.2,0.2-0.3,0.3-0.5c0.4-0.3,0.8-0.6,1.2-0.7l0.4-0.1c0.4-0.1,0.7-0.2,1.1-0.2c0.3,0,0.6,0,0.9,0.1
			C844.7,640.6,844.9,640.7,845,640.9L845,640.9z"/>
		<path d="M848.4,650.5c0.2,0.3,0.2,0.7,0,1.1c-0.2,0.5-0.6,0.9-1,1.1c-0.3,0.2-0.6,0.3-1,0.4c-0.3,0.1-0.6,0-0.9-0.1
			c-0.1,0-0.2-0.1-0.3-0.2c-0.1-0.1-0.1-0.2-0.2-0.3l0,0c0-0.1,0-0.2,0-0.3c0-0.1,0-0.2,0-0.3c0.1-0.3,0.2-0.5,0.4-0.7
			c0.2-0.2,0.4-0.4,0.7-0.6c0.4-0.2,0.8-0.4,1.3-0.4C847.7,650,848.1,650.2,848.4,650.5L848.4,650.5z"/>
	</g>
	<g id="g4380">
		<g id="g4181">
			<path class="st5" d="M845.8,568.3c0,0-3.6-1.9-4-2.7s-4.3-7.1-4.4-10.5c-0.1-3.4,0.1-7.9,2-10.7s5.1-5.6,6.4-5.9
				c1.3-0.3,4.6,1.9,5.2,2.9s4.9,7.4,5.2,8S845.8,568.3,845.8,568.3L845.8,568.3z"/>
			<path class="st13" d="M845.8,538.6L845.8,538.6c-1.3,0.3-4.5,3.1-6.4,5.9c-1.9,2.8-2,7.3-2,10.7s3.8,9.7,4.3,10.5s4,2.7,4,2.7
				l1.2-2.1c-0.3-0.2-0.4-0.2-0.8-0.4s-1-0.6-1.4-0.9c-0.3-0.2-0.6-0.5-0.8-0.8c-0.1-0.2-0.4-0.8-0.9-1.5s-1-1.7-1.5-2.8
				c-0.3-0.5-0.5-1.1-0.7-1.6s-0.5-1.1-0.6-1.6c-0.2-0.5-0.3-1-0.5-1.5c-0.1-0.5-0.2-0.9-0.2-1.4c0-0.8,0-1.8,0-2.7
				c0-1,0.1-1.9,0.2-2.9c0.1-0.5,0.2-1,0.3-1.4c0.1-0.5,0.2-0.9,0.4-1.3c0.1-0.4,0.3-0.8,0.5-1.3c0.2-0.4,0.4-0.8,0.6-1.1
				c0.5-0.7,1-1.4,1.6-2c0.6-0.6,1.2-1.3,1.8-1.8C845.3,538.9,845.6,538.8,845.8,538.6L845.8,538.6z"/>
			<path d="M856.6,550.2L856.6,550.2L856.6,550.2v-0.1l-0.2-0.4c-0.2-0.5-0.4-0.9-0.6-1.3l0,0c-0.8-1.6-1.5-2.9-2.2-4.1
				c-0.6-1-1.1-1.8-1.6-2.5c-0.5-0.7-1-1.3-1.4-1.8c-0.5-0.6-1.1-1.2-1.8-1.7c-0.5-0.5-1.2-0.8-1.9-1c-0.2,0-0.3-0.1-0.5-0.1
				c-0.3,0-0.6,0-0.9,0.1c-0.4,0.1-0.7,0.3-1.1,0.5c-0.4,0.3-0.9,0.6-1.2,1c-0.4,0.4-0.8,0.9-1.2,1.3c-0.4,0.5-0.8,1.1-1.2,1.7
				s-0.7,1.2-1,1.7c-0.6,1.1-1,2-1.2,2.5c-0.1,0.3-0.4,0.8-0.6,1.5c-0.2,0.5-0.4,1.1-0.5,1.6c-0.2,0.7-0.3,1.3-0.3,2l0,0
				c-0.1,0.7-0.1,1.3-0.1,2c0,0.7,0,1.4,0.1,2l0,0c0.1,1.3,0.3,2.5,0.5,3.8c0.1,0.6,0.2,1.2,0.3,1.6s0.2,0.8,0.3,1.1l0,0
				c0.4,1,1,2,1.7,2.8c0.7,0.7,1.4,1.4,2.2,2c0.7,0.5,1.4,1,2.1,1.4c0.3,0.2,0.6,0.3,1,0.5c0.1,0.1,0.3,0.1,0.5,0.1
				c0.1,0,0-0.1,0-0.2s-0.3-0.2-0.5-0.4l-0.8-0.7c-0.5-0.5-1.2-1.1-1.9-1.9c-0.7-0.7-1.3-1.5-1.9-2.3c-0.3-0.4-0.5-0.8-0.7-1.2
				c-0.2-0.4-0.4-0.8-0.5-1.2c-0.2-0.7-0.4-1.3-0.5-1.9l-0.1-0.5c-0.3-1.1-0.5-2.2-0.7-3.4c-0.2-1.2-0.3-2.5-0.3-3.7l0,0
				c0-0.6,0.1-1.2,0.2-1.8c0.1-0.5,0.2-1,0.4-1.5c0.3-0.8,0.6-1.6,1-2.3c0.2-0.4,0.6-1.1,1.2-1.8c0.6-0.9,1.3-1.7,2-2.5
				c0.7-0.7,1.4-1.3,2.3-1.8c0.3-0.2,0.7-0.3,1-0.4c0.3-0.1,0.6-0.1,0.9,0l0,0c0.6,0.1,1.1,0.4,1.5,0.7c0.4,0.3,0.8,0.5,1,0.8
				s0.4,0.3,0.6,0.5c0.6,0.5,1.1,1,1.6,1.5c0.6,0.6,1.2,1.3,1.7,2.1c1,1.3,1.8,2.6,2.5,3.7c0.3,0.5,0.5,0.9,0.7,1.2l0.2,0.3l0,0
				l0,0.1l0,0l0,0L856.6,550.2z"/>
			<path class="st11" d="M854.2,554.9c-1.2,1.6-2.2,3.2-3.1,4.9c-0.6,1.5-1.5,2.8-2.5,4c-0.4-0.1-0.8-0.2-1.2-0.4
				c-0.8-1.3-1.5-2.8-2.1-4.2c-0.5-1.6-1.8-3.1-1.2-5s1.1-5.1,2.4-5.2c1.3-0.2,2.6-0.1,3.9,0.2c0.7,0.4,1.4,0.8,1.9,1.4
				C852.7,551.1,854.8,554.1,854.2,554.9L854.2,554.9z"/>
			<path class="st14" d="M846.3,549.1c-1.2,0.5-1.7,3.3-2.2,5.1s0.7,3.3,1.2,5c0.6,1.5,1.3,2.9,2.1,4.2c0.4,0.2,0.8,0.3,1.2,0.4
				c0.3-0.2,0.5-0.5,0.7-0.8c-0.2,0-0.4-0.1-0.6-0.1c-0.3-0.1-0.5-0.2-0.5-0.2s-0.4-0.6-0.8-1.5c-0.2-0.4-0.5-0.9-0.7-1.4
				c-0.2-0.4-0.4-0.9-0.5-1.4c-0.1-0.4-0.3-0.8-0.5-1.2c-0.2-0.4-0.4-0.8-0.5-1.2c-0.1-0.2-0.1-0.4-0.2-0.6
				c-0.1-0.2-0.1-0.4-0.1-0.6c-0.1-0.4,0-0.9,0.1-1.3c0.1-0.5,0.3-1,0.4-1.6c0.1-0.6,0.3-1.2,0.5-1.7c0.1-0.2,0.2-0.5,0.3-0.7
				C846.2,549.3,846.3,549.2,846.3,549.1L846.3,549.1z"/>
			<path d="M854.2,554.8c-0.4,0.4-0.9,0.8-1.3,1.2c-0.4,0.4-0.7,0.8-1,1.2s-0.7,0.9-1,1.4c-0.3,0.4-0.5,0.8-0.7,1.3
				c-0.2,0.4-0.4,0.8-0.7,1.2c-0.2,0.3-0.4,0.6-0.6,0.8c-0.2,0.3-0.4,0.5-0.7,0.7c-0.2,0.2-0.3,0.2-0.4,0.2h0.2l-0.1-0.1
				c-0.2-0.2-0.4-0.4-0.5-0.7c-0.2-0.3-0.5-0.7-0.8-1.1c-0.3-0.4-0.5-0.9-0.8-1.3s-0.6-1.1-0.8-1.7c-0.2-0.5-0.4-1-0.5-1.4
				c-0.1-0.2-0.1-0.3-0.2-0.5c-0.1-0.3-0.1-0.7-0.2-1c0-0.4,0-0.8,0.1-1.2l0,0c0.2-0.6,0.4-1.2,0.8-1.8c0.3-0.5,0.7-0.9,1.2-1.3
				c0.3-0.3,0.6-0.5,1-0.7l0.7-0.3c0.2-0.1,0.5-0.2,0.7-0.3c0.2,0,0.3,0,0.5,0c0.2,0,0.4,0.1,0.7,0.2c0.5,0.2,0.9,0.4,1.4,0.7
				c0.5,0.3,0.9,0.7,1.3,1c0.2,0.1,0.3,0.2,0.3,0.1l0,0c-0.3-0.7-0.8-1.4-1.3-2c-0.4-0.5-0.9-0.9-1.4-1.2c-0.4-0.3-1-0.5-1.6-0.5
				c-0.4,0-0.7,0.1-1.1,0.2c-0.3,0.1-0.6,0.3-0.9,0.5c-0.3,0.3-0.7,0.6-1,1c-0.5,0.6-0.9,1.3-1.2,2c-0.3,0.7-0.5,1.5-0.6,2.3
				c-0.1,0.5-0.1,1,0,1.5c0.1,0.6,0.2,1.1,0.3,1.6v0.2c0.1,0.3,0.2,0.8,0.3,1.4s0.4,1.3,0.7,2c0.4,1,0.9,2,1.4,3
				c0.2,0.3,0.4,0.6,0.7,0.9c0.1,0.1,0.2,0.2,0.3,0.3c0.1,0.1,0.3,0.1,0.5,0.1c0.3-0.1,0.6-0.3,0.9-0.5c0.3-0.3,0.6-0.6,0.8-1
				c0.1-0.2,0.2-0.4,0.3-0.6c0.3-0.6,0.6-1.3,0.8-2c0.1-0.4,0.3-0.9,0.5-1.3c0.2-0.5,0.5-1.1,0.8-1.6s0.5-0.8,0.7-1.2
				s0.5-0.7,0.6-0.9C853.8,555.4,854,555.1,854.2,554.8L854.2,554.8z"/>
			<path d="M840.1,547.3L840.1,547.3L840.1,547.3L840.1,547.3L840.1,547.3c-0.1,0-0.2,0-0.2,0c-0.1,0-0.2-0.1-0.3-0.2
				c-0.3-0.2-0.5-0.5-0.7-0.8l-0.2-0.4c-0.1-0.2-0.2-0.4-0.3-0.6c-0.1-0.2-0.2-0.5-0.3-0.7c0-0.1-0.1-0.2-0.1-0.3
				c0-0.1-0.1-0.2-0.1-0.4c0-0.1,0-0.2,0.1-0.4c0.1-0.1,0.2-0.2,0.3-0.3c0.1-0.1,0.3-0.1,0.5-0.1c0.2,0,0.4,0.1,0.5,0.3
				c0.3,0.2,0.5,0.5,0.6,0.8c0.1,0.2,0.2,0.4,0.3,0.6c0.2,0.5,0.3,1,0.3,1.5c0,0.2,0,0.4-0.1,0.6c0,0.1-0.1,0.1-0.1,0.2l0,0
				l-0.1,0.1l0,0l0,0L840.1,547.3z"/>
			<path d="M839.1,549.8c-0.1,0.3-0.3,0.5-0.6,0.5c-0.4,0-0.8-0.1-1.1-0.2l-0.3-0.1c-0.4-0.1-0.7-0.2-1.1-0.5
				c-0.1-0.1-0.2-0.2-0.3-0.3c-0.1-0.1-0.1-0.2-0.2-0.3c-0.1-0.1-0.1-0.2-0.2-0.3c0-0.1-0.1-0.2-0.1-0.3c0-0.1,0-0.2,0-0.3
				c0-0.1,0.1-0.2,0.2-0.3c0.1-0.1,0.2-0.2,0.3-0.2c0.1-0.1,0.3-0.1,0.4-0.1c0.4-0.1,0.9,0,1.3,0.1l0.3,0.1l0,0
				c0.4,0.3,0.8,0.7,1.1,1.1C839.1,549.1,839.2,549.5,839.1,549.8L839.1,549.8z"/>
		</g>
		<path class="st5" d="M834,575.4c0,0,0.5-10.1,1.4-12.4s3.6-9.6,5.9-11.8s4.9-5.6,9-7.8s15.9-4.1,18.5-4.1s8.1,2,10,2.9
			s6.3,6.8,8.5,9.6s7,13.8,7.6,16s2.5,11.8,2.1,15.1s-1.1,9.3-3.1,12.1s-8.8,8.8-11.3,9.3s-21.6,7.8-27.1,6.1s-15.6-11.3-16-13.8
			S834.2,578.5,834,575.4L834,575.4z"/>
		<path class="st14" d="M868.8,539.4c-2.6,0-14.4,2-18.5,4.1s-6.8,5.6-9,7.8s-5,9.5-5.9,11.8s-1.4,12.4-1.4,12.4
			c0.1,3.1,5.1,18.9,5.5,21.4s9.1,11.9,14.6,13.6c1.1,0.4,2.2,0.3,4.5-0.5c-1.6,0.2-2.5,0.4-3.4,0.1c-5.5-1.8-14.2-10.8-14.6-13.3
			s-5.4-18.3-5.5-21.4c0,0,0.5-10.1,1.4-12.4s3.6-9.6,5.9-11.8s4.9-5.6,9-7.8s15.2-4,18.2-4.1L868.8,539.4L868.8,539.4z"/>
		<path d="M838.2,572.1c0.1-0.1,0.3-0.1,0.5-0.1c0.1,0,0.2,0,0.3,0c0.1,0,0.2,0,0.3,0.1c0.1,0,0.2,0.1,0.2,0.1
			c0.2,0,0.3,0.1,0.4,0.2c0.2,0.1,0.4,0.2,0.5,0.3c0.1,0,0.1,0,0.1-0.1c0-0.1-0.1-0.3-0.2-0.4c-0.1-0.2-0.2-0.3-0.4-0.5
			c-0.1-0.1-0.3-0.2-0.5-0.2h-0.1c-0.3,0-0.6,0.1-0.8,0.2c-0.2,0.1-0.4,0.2-0.5,0.3c-0.1,0-0.2,0.2-0.1,0.2
			C837.9,572.2,838,572.2,838.2,572.1L838.2,572.1z"/>
		<path d="M838.9,570.2c0.1-0.1,0.2-0.1,0.3-0.1c0.1,0,0.2,0,0.3,0h0c0.1,0,0.1,0,0.2,0c0.1,0,0.2,0.1,0.3,0.1c0,0,0.1,0,0-0.1
			c0-0.1,0-0.2-0.1-0.3c-0.1-0.1-0.1-0.2-0.2-0.3c-0.1-0.1-0.2-0.1-0.3-0.1l0,0c-0.2,0.1-0.3,0.2-0.4,0.3c-0.1,0.1-0.2,0.2-0.3,0.2
			C838.8,570,838.8,570.1,838.9,570.2C838.9,570.2,838.9,570.3,838.9,570.2C839,570.2,839,570.2,838.9,570.2L838.9,570.2z"/>
		<path d="M839.4,571.2c0.1-0.6,0.3-1.8,0.7-3.2c0.3-1.7,0.8-3.8,1.3-6.1c0.3-1.4,0.6-2.8,0.8-4.2c0.2-1,0.6-1.9,1.1-2.7
			c0.6-1.1,1.3-2.1,2.1-3.2c0.8-1.1,1.6-2,2-2.5l0.4-0.5c0.5-0.6,1.2-1.4,2.1-2.3c0.6-0.5,1.2-1,1.8-1.5c0.7-0.5,1.4-0.9,2.2-1.4
			c1.5-0.9,3.1-1.7,4.7-2.4c1.3-0.6,2.6-1.1,3.8-1.6l0.4-0.2c0.3-0.1,0.5-0.2,0.7-0.3c0.1,0,0.2-0.1,0.3-0.2c0-0.1,0-0.2,0-0.3l0,0
			l-0.1-0.1l-0.1-0.1l0.1,0.1l0.1,0.1l0,0c0,0.1,0,0.2,0,0.3l0,0c-0.1,0.1-0.2,0.1-0.3,0.1l-1.1,0.4c-1,0.4-2.3,0.8-3.9,1.5
			c-1.6,0.7-3.3,1.4-4.8,2.2c-1.5,0.8-2.9,1.7-4.2,2.8c-0.8,0.7-1.5,1.5-2.2,2.3l0,0c-0.9,1-1.7,2-2.4,3l-0.1,0.1
			c-0.7,1-1.4,2.1-2,3.2l0,0c-0.5,0.9-0.9,1.9-1.1,2.9c-0.2,1.4-0.5,2.8-0.7,4.2c-0.4,2.2-0.8,4.3-1.1,6.1c-0.4,2-0.7,3.7-1,4.9
			l-0.1,0.6c-0.2,0.8-0.3,1.3-0.3,1.7c0,0.2,0,0.4-0.1,0.5c0,0,0,0.1,0,0.1l0,0l0,0l0,0v-0.1c0-0.1,0.1-0.3,0.1-0.5
			c0.1-0.4,0.2-1,0.4-1.7s0.3-1.4,0.4-2.3L839.4,571.2z"/>
		<path class="st6" d="M868.7,539.4h-0.4c1.7,0,2,0.9,3.8,1c3.8,0.1,11.7,8.5,13.6,11.5c2.9,5.1,5.5,10.5,7.6,16
			c0.6,2.3,2.5,11.8,2.1,15.1s-1.1,9.3-3.1,12.1s-8.8,8.8-11.3,9.3c-2,0.4-12.5,4.4-20,4.6c7.4,0.2,19.4-4.2,21.5-4.6
			c2.5-0.5,9.3-6.5,11.3-9.3s2.8-8.8,3.1-12.1s-1.5-12.9-2.1-15.1c-2.1-5.5-4.6-10.9-7.6-16c-2-2.9-7.6-11.6-13.6-11.5
			C871.6,540.4,871.4,539.4,868.7,539.4L868.7,539.4z"/>
		<path class="st13" d="M849.6,570.1c-1-0.5-1.2-2.6-1.7-1.6c-0.6,1.4-0.4,3.1,0.5,4.3c0.7,0.7,4.8,1.2,4.8,0
			S850.6,570.7,849.6,570.1L849.6,570.1z"/>
		<path d="M851.9,564.5c-2.1-0.2-3.9,1.4-4.1,3.5c0,0.1,0,0.2,0,0.3c0,2.3,1,4.5,3.3,4.7c2.1,0.2,3.9-1.2,4.2-3.3c0-0.3,0-0.6,0-0.9
			C855.1,566.6,854.2,564.5,851.9,564.5z"/>
		<path class="st15" d="M852.2,566c-0.3-0.4-1.4,0-1.8,0.4c-0.5,0.2-0.8,0.8-0.6,1.3c0.2,0.5,0.8,0.8,1.3,0.6
			c0.2-0.1,0.4-0.2,0.5-0.4C852,567.5,852.5,566.4,852.2,566L852.2,566z"/>
		<path class="st16" d="M851.9,565.2c0,0,2.8,0.3,3.7-1.5"/>
		<path d="M894,565.6L894,565.6L894,565.6v0.2l0.2,0.6c0.2,0.7,0.3,1.3,0.5,1.9c0.2,0.8,0.4,1.5,0.5,2.2c0.1,0.6,0.3,1.2,0.4,1.8
			c0.2,1.3,0.3,2.5,0.4,3.7l0,0c0.1,1.8,0.2,3.3,0.2,4.7c0,1.5-0.1,3.1-0.2,4.6c-0.1,0.7-0.2,1.3-0.3,1.9c-0.1,0.5-0.2,1-0.4,1.4
			l-0.2,0.5c-0.3,0.7-0.6,1.8-1,3.1c-0.4,1.4-1,2.7-1.7,3.9c-0.5,0.8-1,1.6-1.6,2.3c-0.6,0.7-1.2,1.3-1.9,1.9
			c-0.6,0.6-1.3,1-1.8,1.4s-1,0.7-1.3,0.9c-0.2,0.1-0.4,0.2-0.6,0.3c-0.5,0.3-1,0.5-1.5,0.7c-0.6,0.3-1.3,0.5-2.1,0.8l0,0
			c-1.4,0.5-3,0.9-4.6,1.3c-1.9,0.5-3.8,0.9-5.5,1.2s-2.9,0.6-3.6,0.8l-1.3,0.3c-1.1,0.3-2.6,0.7-4.2,1s-3.3,0.8-4.9,1.2
			c-1.1,0.2-2.1,0.5-3.1,0.7l-0.7,0.2l-0.3,0.1c-0.2,0-0.3,0.1-0.5,0.2c-0.1,0.1-0.2,0.1-0.2,0.1s0.1,0,0.2,0h0.5l1.1-0.1
			c0.8,0,1.9-0.1,3.2-0.2c2.8-0.2,6.3-0.6,9.3-1.2c1.3-0.2,2.6-0.5,3.9-0.9c2.1-0.7,4.3-1.4,6.4-2.1c1.6-0.6,3.1-1.2,4.5-1.8
			c1.2-0.5,2.4-1.1,3.6-1.7c0.7-0.4,1.3-0.7,1.8-1c1-0.6,1.9-1.2,2.8-1.9c1.4-1.1,2.6-2.4,3.6-3.8c0.8-1.2,1.5-2.5,2-3.8
			c0.6-1.3,1-2.6,1.5-3.8c0.2-0.6,0.4-1.3,0.5-2c0.1-0.6,0.2-1.2,0.2-1.8c0-0.8,0-1.5,0-2.3c0-0.7-0.1-1.5-0.2-2.5
			c-0.2-1.4-0.4-3-0.7-4.7c-0.2-1.2-0.5-2.5-0.7-3.7c-0.2-0.6-0.3-1.3-0.5-1.8c-0.3-0.8-0.5-1.5-0.7-2.2s-0.5-1.4-0.6-1.8l-0.2-0.6
			L894,565.6L894,565.6L894,565.6L894,565.6z"/>
		<path d="M834.1,575.6c0-0.8,0.1-1.6,0.2-2.4c0.2-1.1,0.3-2.2,0.6-3.2l0,0c0.3-1.6,0.7-3.1,1.1-4.3s0.8-2.4,1.1-3.4
			c0.7-1.9,1.3-3.2,1.8-4.4s1-2,1.4-2.7l0.3-0.6c0.4-0.8,1-1.8,1.6-2.9c0.7-1.1,1.5-2.2,2.4-3.2l0,0c1-1,2.1-2,3.3-2.9
			c1-0.8,2-1.3,2.5-1.6c0.6-0.4,1.3-0.7,2-0.9c1.1-0.4,2.2-0.8,3.3-1.1c1-0.3,2.1-0.5,3.2-0.7c1.1-0.2,2.2-0.3,3.2-0.5
			c2-0.2,3.7-0.3,4.4-0.4l1-0.1c1.2-0.1,2.4-0.1,3.7,0c1.5,0.2,2.9,0.5,4.3,0.9c0.9,0.3,1.8,0.6,2.7,1c0.3,0.1,0.6,0.3,0.9,0.4
			c0.3,0.1,0.5,0.2,0.8,0.2c0.1,0,0.1,0,0-0.1l-0.6-0.3c-0.3-0.2-0.6-0.4-1-0.6c-0.8-0.5-1.7-1-2.5-1.4c-1.3-0.6-2.6-1.1-4-1.4
			c-1.4-0.4-2.9-0.5-4.4-0.5c-1.1,0-2.3,0.1-3.4,0.3c-1.5,0.3-3,0.6-4.4,1c-1.4,0.4-2.9,0.9-4.2,1.4s-2.7,1.1-3.8,1.6s-2,1-2.7,1.4
			c-0.5,0.2-1.3,0.6-2.2,1.2c-1.1,0.7-2.2,1.4-3.2,2.3c-1,0.9-1.9,1.8-2.7,2.9c-0.8,1-1.5,2.1-2.1,3.3c-1.1,1.9-2,3.9-2.7,6
			c-0.2,0.6-0.3,1.3-0.6,2.1c-0.3,1.1-0.6,2.5-0.8,3.9s-0.5,2.8-0.6,4.2s-0.2,2.4-0.3,3.3c0,0.8,0,1.4,0,1.8S834,575.6,834.1,575.6
			L834.1,575.6z"/>
		<path class="st5" d="M873.4,551c0,0,5-7.5,6.4-8.8s1.7-2.9,4.8-3.4c3.1-0.4,8,1.5,9.1,2.2c1.1,0.7,5.3,3.6,6.1,4.6
			s1.4,4.2,1.3,6.4c-0.4,2.7-1.4,5.4-2.9,7.7c-0.8,0.8-5.3,5-6.7,5.5s-9.3,1.7-9.3,1.7L873.4,551z"/>
		<path class="st6" d="M886.8,566c1.4-0.2,2.7-0.5,4.1-0.8c1.5-0.5,5.9-4.7,6.7-5.5c1.5-2.3,2.5-4.9,2.9-7.7
			c0.1-2.2-0.5-5.3-1.3-6.4c-0.8-1-5-3.9-6.1-4.6c-2.5-1.3-5.2-2.1-8-2.3c0.8,0.1,1.5,0.3,2.3,0.5c0.8,0.2,1.6,0.5,2.3,0.8
			c0.5,0.2,1,0.4,1.5,0.7c0.5,0.4,1.9,1.3,3.1,2.2c0.6,0.5,1.3,0.9,1.8,1.4c0.4,0.3,0.8,0.7,1.1,1c0.2,0.3,0.4,0.7,0.5,1.1
			c0.2,0.5,0.3,1.1,0.4,1.6c0.1,0.6,0.2,1.2,0.3,1.8c0.1,0.6,0.1,1.2,0.1,1.8c0,0.7-0.2,1.3-0.4,2c-0.2,0.8-0.5,1.6-0.8,2.3
			c-0.3,0.8-0.7,1.5-1,2.1c-0.2,0.4-0.5,0.9-0.8,1.2c-0.4,0.4-1.7,1.6-3.1,2.8c-0.7,0.6-1.4,1.2-2,1.7c-0.5,0.4-1,0.7-1.5,1
			c-0.5,0.2-1.1,0.3-1.6,0.4l-2.5,0.5L886.8,566z"/>
		<path d="M873.6,551c1.4-1.9,2.6-3.5,3.7-5c1.1-1.5,2-2.6,2.9-3.6c0.4-0.5,0.8-0.9,1.2-1.3c0.2-0.2,0.5-0.5,0.8-0.6
			c0.5-0.3,1.1-0.5,1.7-0.7c0.5-0.1,1-0.2,1.5-0.2c0.4,0,0.8,0,1.1,0c0.3,0,0.7,0.1,1,0.1s0.6,0.1,1,0.2c0.9,0.2,1.8,0.5,2.7,0.8
			c1,0.4,2,1,2.9,1.6c1.1,0.8,2.1,1.4,3,1.9c0.5,0.3,1,0.7,1.4,1.1c0.3,0.3,0.6,0.5,0.8,0.8l0.1,0.2c0.3,0.4,0.5,0.8,0.7,1.3
			c0.2,0.6,0.3,1.3,0.4,2l0,0c0,0.9,0,1.8-0.2,2.7c-0.2,0.9-0.4,1.9-0.7,2.8l0,0c-0.2,0.6-0.4,1.1-0.8,1.6c-0.3,0.5-0.7,1-1,1.4
			c-0.5,0.6-0.8,1.1-1,1.4c-0.6,0.8-1.3,1.5-2,2.2c-0.6,0.6-1.2,1.1-1.8,1.6c-0.7,0.5-1.4,1-2.1,1.4c-0.5,0.3-1.1,0.6-1.7,0.8
			c-0.5,0.2-1.1,0.3-1.6,0.4c-0.4,0-0.6,0.1-0.6,0.1c0,0.1,0.2,0.2,0.5,0.2c0.5,0.1,1.1,0.1,1.6,0c0.8-0.1,1.6-0.2,2.4-0.4l0,0
			c0.8-0.3,1.6-0.6,2.3-1.1c0.8-0.4,1.5-1,2.3-1.5c0.7-0.6,1.4-1.2,2-1.8c0.5-0.6,1-1.2,1.4-1.9l0.2-0.3c0.7-1.1,1.1-2.2,1.4-3.5
			l0,0c0.2-1,0.3-2,0.4-3c0.1-1,0-1.9-0.1-2.9c-0.1-0.7-0.3-1.4-0.6-2c-0.2-0.6-0.5-1.1-0.9-1.6c-0.3-0.3-0.5-0.7-0.8-1
			c-0.2-0.2-0.3-0.4-0.6-0.6s-0.6-0.5-0.9-0.8c-0.3-0.3-0.8-0.7-1.3-1c-0.5-0.3-1-0.8-1.5-1.2l0,0c-0.8-0.7-1.8-1.4-2.8-1.9
			c-1-0.6-2.1-1-3.2-1.3l0,0c-0.6-0.2-1.3-0.3-1.9-0.3c-0.6-0.1-1.2-0.1-1.8,0c-0.6,0.1-1.2,0.2-1.8,0.4c-0.4,0.1-0.9,0.3-1.3,0.6
			c-0.2,0.1-0.5,0.3-0.7,0.5c-0.4,0.3-0.7,0.6-0.9,1l0,0c-0.4,0.5-0.7,1-1.1,1.5l0,0c-0.8,1.2-1.7,2.6-2.5,3.9l-3.2,5.3L873.6,551z"
			/>
		<path class="st11" d="M876.2,554.3c0,0,4,1.7,4.9,3.1s3.8,5,4.1,5.1c0.6-0.1,1.2-0.2,1.8-0.4c1.2-1.3,2.3-2.7,3.2-4.2
			c0.8-1.7,1.8-3.5,0.9-5.3c-0.8-1.9-1.6-4.5-2.8-4.8c-2-0.4-4-0.3-6,0.2c-1,0.3-2,0.8-3,1.4C878.8,549.8,875.2,554,876.2,554.3
			L876.2,554.3z"/>
		<path d="M875.7,554.2L875.7,554.2h0.1l0.5,0.2c0.5,0.2,1,0.5,1.5,0.8c0.8,0.5,1.5,1,2.1,1.7c0.5,0.5,0.8,1.1,1.1,1.7
			c0.4,0.8,0.8,1.5,1.4,2.2c0.4,0.5,0.9,0.9,1.4,1.3c0.4,0.3,0.8,0.5,1.2,0.7c0.2,0.1,0.4,0.1,0.6,0.2c0.3,0.1,0.7,0.1,1,0
			c0.4-0.1,0.7-0.3,1-0.6c0.1-0.1,0.2-0.3,0.4-0.4l0.7-0.7c0.6-0.7,1.1-1.4,1.6-2.1l0,0c0.3-0.5,0.6-1,0.8-1.5
			c0.2-0.4,0.3-0.9,0.4-1.3c0.1-0.2,0.1-0.5,0.1-0.7c0-0.2,0.1-0.6,0.2-1.1c0.1-0.6,0.1-1.1,0-1.7c-0.1-0.8-0.3-1.6-0.7-2.3
			c-0.4-0.7-0.9-1.4-1.4-1.9c-0.5-0.5-1-0.9-1.6-1.3c-0.4-0.2-0.8-0.4-1.3-0.6c-1.1-0.3-2.3-0.3-3.4,0.1c-0.6,0.2-1.1,0.4-1.7,0.7
			l0,0c-0.6,0.3-1.1,0.6-1.5,1c-0.4,0.4-0.8,0.8-1.2,1.3c-0.1,0.1-0.2,0.2-0.2,0.4c0,0.1,0,0.1,0,0.1c0.2-0.1,0.4-0.2,0.6-0.3
			c0.4-0.3,0.8-0.5,1.2-0.7c0.5-0.3,1.1-0.5,1.7-0.6c0.5-0.1,0.9-0.2,1.4-0.2c0.4-0.1,0.9-0.1,1.3,0c0.7,0.1,1.5,0.4,2.1,0.8
			c0.4,0.2,0.9,0.4,1.3,0.7c0.6,0.4,1.1,0.9,1.5,1.4c0.4,0.5,0.7,1.1,0.9,1.7c0.2,0.6,0.2,1.2,0.2,1.8c0,0.5-0.1,0.9-0.3,1.3l0,0
			c-0.1,0.3-0.3,0.7-0.5,1c-0.3,0.5-0.6,0.9-1,1.4l0,0c-0.5,0.6-1.1,1.2-1.7,1.7l0,0l-0.7,0.6c-0.2,0.2-0.4,0.3-0.5,0.5l0,0
			c-0.1,0-0.2,0-0.2,0c-0.4-0.1-0.8-0.3-1.1-0.5c-0.5-0.4-1.1-0.8-1.5-1.3c-0.4-0.4-0.8-0.8-1.2-1.2c-0.5-0.7-1.2-1.4-1.9-1.9
			c-0.7-0.5-1.5-0.9-2.3-1.2c-0.5-0.2-1.1-0.4-1.7-0.5L875.7,554.2L875.7,554.2L875.7,554.2L875.7,554.2L875.7,554.2z"/>
		<path d="M886.3,540.8c-0.4-0.1-0.6-0.3-0.8-0.7c-0.2-0.4-0.3-0.9-0.3-1.4c0-0.1,0-0.1,0-0.2c0-0.5,0-0.9,0.2-1.4
			c0.1-0.2,0.1-0.4,0.2-0.5c0.1-0.1,0.2-0.3,0.4-0.3c0.2-0.1,0.4-0.1,0.5,0c0.2,0.1,0.4,0.2,0.5,0.4c0.2,0.2,0.3,0.5,0.5,0.8
			c0.1,0.3,0.2,0.7,0.2,1c0,0.1,0,0.2,0,0.3l0,0c0,0.6-0.2,1.1-0.5,1.6C887,540.6,886.7,540.8,886.3,540.8L886.3,540.8z"/>
		<path d="M889.6,541c-0.3-0.1-0.4-0.5-0.4-1c0-0.6,0.2-1.2,0.4-1.8l0,0c0.1-0.2,0.1-0.3,0.2-0.5c0.3-0.7,0.6-1.3,1-1.9
			c0.1-0.2,0.3-0.4,0.5-0.6c0.1-0.1,0.3-0.2,0.5-0.2c0.2,0,0.4,0.1,0.5,0.3c0.1,0.2,0.2,0.5,0.3,0.8c0.1,0.4,0.1,0.8,0,1.1
			c-0.1,0.4-0.2,0.9-0.3,1.3c-0.1,0.2-0.2,0.4-0.2,0.5l0,0c-0.3,0.6-0.7,1.2-1.2,1.6C890.3,541.1,890,541.2,889.6,541L889.6,541z"/>
		<path class="st13" d="M836.7,570.3c0.6-0.5,1.2-2.9,1.2-1.7s0.2,3.1-0.3,3.9s-3.5,0.8-3.5-0.4S836.1,570.9,836.7,570.3
			L836.7,570.3z"/>
		<path d="M835.2,564.3c-1.5,0-2.5,1.1-2.5,3.4c0,2.3,1,4.7,2.5,4.9c1.6,0.3,2.8-1.7,2.7-4.2S836.7,564.3,835.2,564.3z"/>
		<path class="st15" d="M833.9,567.7c0.3,0.2,1-0.6,1.3-1c0.3-0.4,0.4-1,0.1-1.2c-0.3-0.2-0.8,0-1.1,0.5S833.6,567.5,833.9,567.7
			L833.9,567.7z"/>
		<path class="st17" d="M835.1,565c-1,0.2-2-0.5-2.3-1.5"/>
		<path class="st11" d="M845.3,576.7c0.7,1.5,3.4,6.4,4.3,8.3c0.2,0.5,3.8,3.9,4,4.4c5.6,11.2,7.5,20.6-5.3,26.2
			c-16.8,0.4-27.6-19-25.6-31c0,0,1-4.4,4.2-6c2.6-1.3,7.2-1.9,17.4-2.1"/>
		<path class="st6" d="M852.2,588.7c5.2,10,5.6,21.9-5.7,26.7c1,0.1,2,0.2,3,0.1c12.2-6.9,8.2-15.2,4.3-25.8L852.2,588.7z"/>
		<path class="st14" d="M823.5,590.7c0.8,1.3,1,0.8,1.2,2.2s1.5,7.1,4.6,10.5l0.1-0.6l-3.5-10L823.5,590.7z"/>
		<path d="M826.1,581.1c-2.8,0-6.5,3.3-5,6c1,2,2.9,5.8,5,6s3.6-3.8,5-6C832.8,584.6,828.9,581.1,826.1,581.1z"/>
		<path class="st14" d="M824.2,581.3c-0.5,0.9-0.9,1.8-1.1,2.8c-2,12,8.8,31.4,25.6,31c2.8-1.1,5.1-3.2,6.4-6c-1.4,2.3-3.4,4-5.9,5
			c-16.8,0.4-27.6-19-25.6-31C823.7,582.5,823.9,581.9,824.2,581.3z"/>
		<path d="M845.6,576.7c0.6,1.4,1.2,2.7,1.8,4c0.6,1.2,1.2,2.4,1.8,3.6c0.7,1.1,1.5,2.2,2.5,3.2c0.9,1,1.6,2,2.2,3.2
			c0.6,1.2,1,2.5,1.4,3.8c0.3,1.1,0.6,2.2,0.8,3.4c0.2,1.3,0.3,2.6,0.3,3.9c0,1-0.1,2.1-0.3,3.1c-0.2,1-0.5,1.9-0.8,2.9
			c-0.3,0.7-0.7,1.5-1.1,2.1c-0.2,0.2-0.3,0.5-0.6,0.8c-0.6,0.8-1.3,1.5-2.1,2.1c-1,0.8-2.1,1.4-3.3,1.8c-0.9,0-1.9,0-2.8-0.1
			c-1-0.1-1.9-0.3-2.9-0.5c-1.8-0.4-3.5-1.1-5.2-2c-1.1-0.6-2.1-1.3-3.1-2c-0.8-0.6-1.5-1.2-1.9-1.6c-0.5-0.5-1-1-1.5-1.5
			c-0.7-0.8-1.3-1.6-1.9-2.5c-2.1-3.1-3.7-6.5-4.6-10.1c-0.2-0.9-0.4-1.8-0.6-2.7c-0.1-0.9-0.2-1.7-0.3-2.6c-0.1-1.4,0-2.8,0.3-4.2
			l0,0v-0.1c0-0.2,0.1-0.3,0.1-0.5c0.2-0.5,0.3-0.8,0.4-1.1l0.2-0.4c0.3-0.6,0.6-1.2,1-1.7c0.5-0.6,1.1-1.2,1.8-1.5
			c0.9-0.5,1.8-0.8,2.7-1.1c1-0.3,2.1-0.5,3.2-0.7c1.8-0.3,3.6-0.6,5.3-0.7c1.8-0.1,3.5-0.2,5-0.3c1.1,0,1.5-0.1,1.3-0.2
			c-0.6-0.2-1.3-0.3-1.9-0.3c-1.1-0.1-2.5-0.2-4.2-0.2c-1.9,0-3.8,0.1-5.7,0.3c-1.1,0.1-2.2,0.3-3.2,0.5c-1.1,0.2-2.2,0.6-3.2,1l0,0
			c-0.9,0.4-1.7,1-2.3,1.7c-0.6,0.7-1.1,1.4-1.5,2.2c-0.3,0.6-0.6,1.2-0.8,1.8c-0.1,0.2-0.1,0.4-0.2,0.6l0,0v0.2l0,0v0.1l0,0l0,0
			c-0.1,0.7-0.2,1.4-0.2,2.1c0,1.4,0.1,2.8,0.3,4.2c0.2,1.4,0.6,2.7,1,4.1c0.6,1.9,1.4,3.8,2.4,5.5c1.5,2.8,3.5,5.5,5.7,7.8
			c0.9,0.9,1.7,1.6,2.3,2.2c1.1,1,2.2,1.8,3.5,2.6c1.6,1,3.3,1.8,5.1,2.3c2.1,0.7,4.3,1,6.6,1c1.3-0.4,2.5-1,3.6-1.7
			c1.1-0.7,2.1-1.6,3-2.7l0,0c0.8-1,1.5-2.2,1.9-3.4c0.4-1.1,0.7-2.2,0.9-3.3c0.2-1.4,0.2-2.8,0.1-4.1c-0.1-1.2-0.3-2.3-0.6-3.5
			c-0.3-1.2-0.7-2.4-1.1-3.5c-0.5-1.3-1-2.5-1.7-3.7l0,0c-0.7-1.2-1.5-2.3-2.5-3.2c-0.9-0.9-1.8-1.9-2.6-3c-0.7-1-1.2-2-1.7-2.8
			s-0.9-1.7-1.2-2.4L845.6,576.7L845.6,576.7z"/>
		<path class="st16" d="M826,592.5c0,0-0.2,4.6,3.7,9.5"/>
		<path class="st18" d="M831.3,601.4c-1.3,0.4-2,1.7-1.7,3c0.3,1.4,1.5,1.2,2.7,0.8s2.2-0.6,1.8-1.9
			C833.9,602,832.6,601.1,831.3,601.4L831.3,601.4z"/>
		<path class="st19" d="M835.5,591.7c-0.5,0-0.8,0.4-0.8,0.9c0,0,0,0,0,0c0,0.5,0.2,0.7,0.6,0.7s0.8-0.2,0.8-0.6
			S835.9,591.7,835.5,591.7L835.5,591.7z"/>
		<path class="st19" d="M840.6,589.1c-0.8,0-1.2,0.7-1.2,1.6s0.3,1.1,1.1,1.1s1.5-0.3,1.5-1.1C842.1,589.8,841.4,589.1,840.6,589.1
			L840.6,589.1z"/>
		<path class="st19" d="M839,594.8c-0.6,0-1.1,0.5-1.1,1.1c0,0.6,0.4,1,1,1c0.5,0,0.9-0.3,0.9-0.8c0-0.1,0-0.1,0-0.2
			C839.9,595.3,839.6,594.7,839,594.8L839,594.8z"/>
		<path class="st15" d="M826.9,582.8c-0.8,0-1.6,0-1.6,0.8s0.8,0.7,1.6,0.7s2.7,1.5,2.7,0.7S827.7,582.8,826.9,582.8L826.9,582.8z"
			/>
	</g>
	<g id="g4371">
		<path class="st14" d="M831.9,658.7L831.9,658.7c-0.2,0.1-0.4,0.1-0.6,0.2l-0.7,0.2l-0.7,0.2c-0.1,0-0.3,0.1-0.4,0.1
			c-0.2,0.1-0.3,0.1-0.4,0.3l-0.2,0.2c-0.1,0.1-0.1,0.1-0.2,0.2c-0.4,0.2-0.9,0.5-1.2,0.7c-0.1,0.1-0.1,0.1,0,0.1c0.1,0,0.2,0,0.4,0
			c0.3-0.1,0.9-0.2,1.3-0.3c0.2-0.1,0.4-0.2,0.6-0.3l0.3-0.2l0,0c0.1-0.1,0.2-0.1,0.3-0.2l0.6-0.3c0.4-0.2,0.8-0.4,1.1-0.5l0.3-0.1
			C832.8,658.7,832.6,658.4,831.9,658.7L831.9,658.7z"/>
		<path d="M831.9,658.5L831.9,658.5c-0.4,0.1-1,0.3-1.6,0.5c-0.4,0.1-0.8,0.3-1.2,0.5l-0.6,0.3l-0.6,0.4c-0.2,0.1-0.4,0.3-0.6,0.4
			s-0.1,0.1,0,0.1c0.1,0,0.3,0,0.4-0.1l0.6-0.2l0.7-0.2c0.3-0.1,0.7-0.2,1-0.4l0.6-0.4c0.4-0.3,0.9-0.5,1.3-0.7l0.3-0.1l0.2-0.1
			c0,0,0.1,0,0.1-0.1l0,0c0,0,0,0,0-0.1h-0.2C832.2,658.4,832.1,658.4,831.9,658.5L831.9,658.5z"/>
		<path d="M831.8,661L831.8,661c-0.3-0.3-0.6-0.6-0.8-0.9c-0.2-0.3-0.4-0.6-0.7-0.8c-0.2-0.2-0.4-0.4-0.6-0.6
			c-0.2-0.2-0.4-0.5-0.6-0.8c-0.1-0.1-0.1-0.1-0.2,0c0,0.2,0,0.4,0,0.5c0,0.3,0.1,0.5,0.3,0.8c0.1,0.2,0.3,0.4,0.5,0.6l0.7,0.5
			c0.4,0.3,0.9,0.6,1.1,0.8l0.2,0.2c0,0,0.1,0.1,0.1,0.1h0.1h0c0,0,0,0,0.1,0l0,0c0,0,0-0.1,0-0.1C832,661.2,831.9,661.1,831.8,661
			L831.8,661z"/>
	</g>
	<path class="st5" d="M830.7,653.9c9.2-1.5,17.4,8,17.2,19.3c-0.2,11.7-9.4,21.3-16.9,19.9c-5.3-1-10.7-2.3-12.7-9.4
		c-0.8-3.6-1-7.4-0.8-11.1C818.5,661.8,823.6,655,830.7,653.9L830.7,653.9z"/>
	<path class="st13" d="M841.9,686.5c-3.7,7.3-5.5,6.5-11.5,6.3c-4.5-0.8-9-1.9-11.5-6.5c2.5,4.9,7.1,6,11.7,6.8
		C836.1,691.9,838.2,691.7,841.9,686.5L841.9,686.5z"/>
	<path d="M841.1,688.3c-0.5,0.9-1.2,1.7-1.9,2.3c-0.7,0.6-1.5,1.1-2.3,1.5c-1.2,0.5-2.5,0.7-3.7,0.6c-1.6,0-3.3-0.3-4.9-0.7
		c-1.3-0.3-2.5-0.9-3.6-1.5c-0.7-0.4-1.3-0.9-1.8-1.4c-0.5-0.4-0.9-0.9-1.3-1.5c-0.5-0.7-1-1.5-1.3-2.3c-0.3-0.6-0.5-1.3-0.7-2
		c-0.1-0.4-0.2-0.7-0.3-1.1s-0.1-0.7-0.2-1.1c-0.1-0.8-0.3-1.8-0.4-2.9c-0.2-1.9-0.3-3.7-0.2-5.6c0.1-1.2,0.3-2.4,0.5-3.6
		c0.2-1.1,0.5-2.2,0.8-3.3c0.3-0.9,0.6-1.8,0.9-2.6c0.3-0.7,0.6-1.3,0.8-1.7c0.5-0.9,1-1.7,1.6-2.4c0.6-0.7,1.3-1.4,2-2
		c0.8-0.7,1.7-1.3,2.7-1.8l0,0c0.9-0.4,1.8-0.7,2.7-1c0.9-0.2,1.8-0.3,2.8-0.3l0,0c1,0,2,0.2,3,0.5c0.8,0.3,1.6,0.6,2.3,1.1
		c0.6,0.3,1.1,0.7,1.6,1.1c0.5,0.3,0.9,0.7,1.4,1.1c0.6,0.5,1.1,1.1,1.6,1.7c0.7,0.8,1.3,1.7,1.8,2.7c0.6,1,1,2.1,1.4,3.2
		c0.4,1.1,0.7,2.2,0.9,3.4c0.2,1.1,0.3,2.1,0.3,3.2c0,0.3,0,0.7,0.1,1c0,0.1,0.1,0.1,0.1-0.1c0.2-1,0.3-2,0.3-3
		c0-1.8-0.2-3.7-0.7-5.5c-0.3-1.1-0.6-2.1-1.1-3.1c-0.5-1-1-2.1-1.6-3l0,0c-0.7-1-1.5-1.9-2.3-2.7c-0.8-0.7-1.7-1.4-2.7-1.9
		c-0.4-0.2-0.8-0.4-1.2-0.5c-1.7-0.7-3.4-1-5.2-0.9l0,0c-1.1,0.1-2.1,0.2-3.2,0.6c-1,0.3-1.9,0.7-2.8,1.3c-1,0.6-1.9,1.3-2.7,2.1
		c-0.7,0.7-1.4,1.5-2,2.3c-0.9,1.3-1.7,2.6-2.4,4c-0.6,1.2-1.2,2.4-1.6,3.7c-0.3,0.9-0.6,1.8-0.8,2.9s-0.5,2.2-0.6,3.3
		c-0.1,1-0.2,2-0.2,3c0,1,0,2,0.1,3s0.2,2,0.3,3c0.1,0.8,0.3,1.6,0.5,2.4c0.3,0.9,0.7,1.8,1.1,2.7c0.4,0.7,0.9,1.4,1.4,2.1
		c0.4,0.5,0.8,0.9,1.3,1.3c0.8,0.7,1.6,1.2,2.5,1.7c0.6,0.3,1.3,0.6,2,0.8c0.7,0.2,1.5,0.4,2.3,0.6c1.6,0.3,3.2,0.4,4.9,0.3
		c0.7,0,1.4-0.1,2.1-0.3c0.6-0.1,1.2-0.4,1.8-0.6c0.7-0.3,1.4-0.8,2-1.3c0.5-0.4,0.9-0.9,1.3-1.4c0.2-0.3,0.5-0.7,0.7-1
		C841,688.5,841.1,688.3,841.1,688.3L841.1,688.3z"/>
	<path class="st11" d="M821,689c1.2,1.7,2.9,1.7,4.5,0.3c2.4-2.2,3.7-7.8,2.9-12.3s-3.2-8-5.5-5.8s-3.9,9.2-3.1,13.7
		C819.9,686.3,820.3,687.7,821,689L821,689z"/>
	<path d="M820.5,688.9c0.3,0.4,0.7,0.8,1.1,1.1c0.4,0.3,0.9,0.5,1.4,0.6c0.6,0.1,1.1,0,1.6-0.2c0.5-0.2,0.9-0.5,1.2-0.8
		c0.4-0.4,0.7-0.7,1-1.2c0.3-0.4,0.5-0.8,0.7-1.2c0.3-0.5,0.5-1.1,0.8-1.7c0.2-0.5,0.4-1,0.5-1.4c0.2-0.7,0.4-1.4,0.5-2.2
		c0.1-0.5,0.2-1.1,0.2-1.6c0-0.5,0-1,0-1.5c-0.1-0.7-0.2-1.3-0.3-2c-0.2-1.1-0.6-2.1-1-3.1c-0.2-0.5-0.5-0.9-0.8-1.4
		c-0.3-0.4-0.6-0.7-0.9-1.1c-0.2-0.2-0.5-0.4-0.7-0.6c-0.2-0.1-0.4-0.2-0.6-0.3c-0.2-0.1-0.4-0.1-0.6-0.2c-0.3,0-0.7,0-1,0.1
		c-0.4,0.1-0.8,0.3-1.1,0.6c-0.4,0.3-0.8,0.7-1.1,1.1c-0.3,0.4-0.6,0.9-0.9,1.4c-0.3,0.6-0.6,1.2-0.8,1.9c-0.2,0.6-0.4,1.2-0.6,1.8
		c-0.2,0.8-0.4,1.5-0.5,2.3c0,0.6-0.1,1.4-0.1,2.5c0,1.1,0.1,2.2,0.3,3.3c0.2,0.6,0.4,1.2,0.6,1.7c0.2,0.5,0.5,1.1,0.9,1.5
		c0.1,0.2,0.2,0.3,0.4,0.4l0,0c-0.2-0.4-0.3-0.8-0.5-1.3c-0.1-0.4-0.2-0.8-0.2-1.2c0-0.5,0-1,0-1.5c0-0.6,0-1.2,0.1-1.8
		s0.1-1.2,0.2-1.8c0.2-1.2,0.4-2.3,0.5-3.2c0-0.2,0-0.4,0.1-0.7c0.1-1.2,0.4-2.4,0.7-3.5c0.2-0.5,0.3-0.9,0.5-1.3
		c0.2-0.4,0.4-0.8,0.7-1.1c0.2-0.2,0.5-0.4,0.7-0.5c0.2-0.1,0.5-0.2,0.8-0.1c0.2,0,0.4,0.1,0.6,0.2c0.2,0.1,0.3,0.2,0.4,0.3
		c0.1,0.1,0.3,0.3,0.4,0.5c0.2,0.3,0.4,0.6,0.6,0.9c0.2,0.4,0.4,0.8,0.5,1.3c0.2,0.5,0.3,1,0.4,1.5c0.1,0.5,0.2,1.1,0.3,1.7
		c0.1,1.3,0.1,2.5,0,3.8c-0.1,1.2-0.3,2.2-0.4,2.8v0.2c-0.1,1-0.3,1.9-0.6,2.8c-0.3,0.8-0.7,1.6-1.2,2.3c-0.3,0.4-0.6,0.6-1,0.9
		c-0.4,0.2-0.8,0.3-1.3,0.3c-0.4,0-0.8-0.1-1.1-0.3c-0.3-0.1-0.5-0.3-0.8-0.5c-0.2-0.1-0.3-0.3-0.5-0.4l-0.2-0.2L820.5,688.9z"/>
	<path class="st20" d="M823.5,658.1c-0.6,1.4-1,2.9-1.1,4.4c-0.2,2.6,0.2,4.4,1.2,4s2.2-2.5,2.4-5.1s-0.6-4.7-1.6-4.3
		C824.1,657.3,823.7,657.6,823.5,658.1L823.5,658.1z"/>
	<path class="st20" d="M830.5,658.1c-0.8,0.9-1.3,2-1.6,3.1c-0.7,2.2-0.8,4.3,0,4.9s1.9-0.3,2.6-2.5s0.6-4.9-0.1-5.5
		C831.1,657.9,830.8,657.9,830.5,658.1L830.5,658.1z"/>
	<path class="st20" d="M834.3,664.7c-0.7,0.7-1.2,1.6-1.4,2.6c-0.6,1.9-0.8,3.7-0.2,4.3s1.6-0.1,2.2-1.9s0.6-4.3,0-4.9
		C834.8,664.6,834.5,664.6,834.3,664.7z"/>
	<path d="M829.6,655.3h0.3c0.3,0,0.5,0.1,0.8,0.1l0,0c1.6,0.3,3.1,1.2,4.1,2.5c0.4,0.5,0.7,1,1,1.6c0.3,0.6,0.5,1.3,0.7,2
		c0.1,0.5,0.2,1.1,0.3,1.6c0,0.5,0.1,0.9,0.1,1.3s0,0.7,0,1v0.2c0,0.8,0.1,2.3,0.2,3.8s0.1,3.2,0.1,4.5c0,1,0,1.8,0,2.2
		c-0.1,0.9-0.2,1.8-0.4,2.6c-0.3,1.3-0.7,2.6-1.2,3.8c-0.3,1-0.7,1.9-1,2.7s-0.6,1.3-0.7,1.7c-0.3,0.9-0.8,1.7-1.3,2.5
		c-0.6,0.8-1.3,1.6-2.1,2.1c-0.7,0.4-1.4,0.7-2.2,0.9c-0.3,0.1-0.5,0.1-0.5,0.2s0.1,0.1,0.4,0.2c0.4,0.1,0.8,0.1,1.1,0.1
		c0.6,0,1.1-0.2,1.7-0.4c0.5-0.2,1-0.5,1.5-0.8c0.5-0.4,1-0.8,1.4-1.2c0.6-0.7,1.2-1.4,1.6-2.2c0.4-0.7,0.7-1.3,0.9-2.1
		c0.3-1.1,0.5-2.1,0.7-3.2c0.3-1.6,0.4-3.1,0.5-4.4s0.2-2.4,0.3-3.2c0-0.3,0.1-0.8,0.2-1.4c0.2-1,0.3-2.4,0.5-3.9s0.2-3.1,0.2-4.5
		c0-0.8-0.1-1.6-0.2-2.5c-0.1-0.6-0.3-1.2-0.5-1.8c-0.3-0.8-0.7-1.6-1.2-2.3c-0.4-0.6-0.9-1.2-1.5-1.7c-0.5-0.5-1.2-0.9-1.8-1.3
		c-0.5-0.2-1-0.4-1.5-0.5c-0.4-0.1-0.8-0.2-1.3-0.2c-0.3,0-0.6,0-0.8,0h-0.2L829.6,655.3L829.6,655.3z"/>
	<path d="M843.7,660L843.7,660l0.3-0.1l0,0l0.8-0.2c0.9-0.2,1.7-0.4,2.4-0.6c1.2-0.2,2.1-0.4,2.8-0.4c0.5,0,0.9-0.1,1.2-0.1
		s0.6,0,0.8,0h0.3c0.3,0,0.9,0,1.6-0.1s1.6-0.1,2.5-0.1c0.9,0,1.7,0.1,2.6,0.2c0.4,0.1,0.8,0.2,1.2,0.3c0.3,0.1,0.6,0.3,0.9,0.4
		c-0.1-0.2-0.3-0.3-0.4-0.5c-0.2-0.2-0.4-0.3-0.6-0.4c-0.3-0.2-0.6-0.3-0.8-0.4c-0.9-0.4-1.8-0.6-2.7-0.8c-0.8-0.2-1.6-0.3-2.5-0.4
		c-0.8-0.1-1.5-0.1-2.3-0.1c-0.4,0-0.9,0.1-1.3,0.1c-0.3,0-0.5,0.1-0.8,0.2h-0.1c-0.6,0.3-1.7,0.7-2.7,1.2c-0.8,0.4-1.7,0.8-2.3,1.1
		l-0.7,0.4L843.7,660L843.7,660L843.7,660L843.7,660z"/>
	<path d="M883.1,661.5c1.1-0.7,2-1.2,2.8-1.7l0,0c0.4-0.2,0.8-0.3,1.2-0.3c0.3-0.1,0.7-0.1,1,0c0.4,0.1,0.9,0.2,1.2,0.5
		c0.3,0.2,0.5,0.4,0.7,0.7c0.1,0.1,0.2,0.3,0.2,0.5c0.1,0.1,0.1,0.3,0.1,0.4l0.1,0.2c0.1,0.2,0.1,0.4,0.1,0.7c0,0.3,0,0.6,0,0.9
		c0,0.7-0.1,1.5-0.3,2.2c-0.2,0.6-0.4,1.3-0.6,1.9c-0.1,0.3-0.2,0.5-0.3,0.6c-0.3,0.5-0.6,0.9-1,1.3c-0.6,0.6-1.2,1.2-1.8,1.7
		c-0.6,0.4-1.2,0.8-1.8,1.1c-0.5,0.3-1,0.5-1.2,0.6c-0.2,0.1-0.4,0.2-0.6,0.3l-1,0.3c-0.4,0.1-0.7,0.3-1.1,0.3
		c-0.3,0.1-0.7,0.2-1.1,0.2c-0.3,0-0.6,0-0.9-0.2c-0.1,0-0.1,0-0.2-0.1l0,0c0,0-0.1-0.1-0.1-0.1l0,0c-0.1,0-0.1,0.1-0.2,0.2
		c0,0.1,0,0.2,0,0.2c0.1,0.1,0.2,0.2,0.3,0.3c0.3,0.2,0.6,0.4,0.9,0.5c0.4,0.1,0.8,0.2,1.3,0.3c0.5,0,0.9,0,1.4,0
		c0.4,0,0.9-0.1,1.3-0.2c0.7-0.1,1.4-0.4,2-0.9c0.7-0.6,1.4-1.3,2-2c0.6-0.8,1.1-1.6,1.6-2.4c0.4-0.7,0.8-1.4,1-1.8l0.1-0.1
		c0.4-0.5,0.7-1.1,1-1.6c0.4-0.8,0.8-1.7,1-2.7c0.1-0.7,0.1-1.4,0-2.2c-0.1-0.7-0.4-1.4-0.9-1.9c-0.4-0.4-0.8-0.8-1.3-1
		c-0.6-0.2-1.2-0.3-1.8-0.3c-0.5,0-1,0.2-1.4,0.3c-0.4,0.2-0.9,0.4-1.3,0.7c-1.4,1.2-2.5,2.3-2.5,2.3L883.1,661.5z"/>
	<path d="M815.4,652.3c1.2-0.1,2.4-0.1,3.5-0.1c1.2,0.1,1.8,0.2,2.3,0.2h0.4c0.6-0.1,1.2-0.2,1.8-0.3c0.3-0.1,0.6-0.1,1-0.2
		c0.3-0.1,0.6-0.2,0.9-0.2c0.3-0.1,0.7-0.1,1-0.1c0.3,0,0.6,0.1,0.9,0.1c-0.2-0.1-0.3-0.3-0.5-0.3c-0.5-0.3-1-0.4-1.5-0.5
		c-0.3,0-0.6,0-1-0.1s-0.6,0-0.9,0c-0.6,0-1.2-0.1-1.8-0.1c-0.6-0.1-1.3-0.1-1.9,0.1l-0.8,0.3C817.5,651.5,815.4,652.4,815.4,652.3
		L815.4,652.3z"/>
	<g id="path3332">
		
			<image style="overflow:visible;opacity:0.75;enable-background:new    ;" width="56" height="221" xlink:href="7E52D797.png"  transform="matrix(0.9821 0 0 0.9955 696 480)">
		</image>
		
			<linearGradient id="SVGID_1_" gradientUnits="userSpaceOnUse" x1="1298.2297" y1="770.6818" x2="1325.9598" y2="773.9118" gradientTransform="matrix(1 0 0 1 -600.88 -192.22)">
			<stop  offset="0" style="stop-color:#114F5F"/>
			<stop  offset="0.49" style="stop-color:#1FB3D8"/>
			<stop  offset="1" style="stop-color:#0A3A47"/>
		</linearGradient>
		<polyline class="st21" points="708.2,680.5 697.5,676.7 706.5,578 718.3,481 731.5,481.6 728.4,545.4 720.8,606 712,678.6 		"/>
		<polyline class="st2" points="708.2,680.5 697.5,676.7 706.5,578 718.3,481 731.5,481.6 728.4,545.4 720.8,606 712,678.6 		"/>
	</g>
	<g id="path3340">
		
			<image style="overflow:visible;opacity:0.75;enable-background:new    ;" width="184" height="50" xlink:href="7E52D79A.png"  transform="matrix(0.9946 0 0 0.98 719 576)">
		</image>
		
			<linearGradient id="SVGID_2_" gradientUnits="userSpaceOnUse" x1="1401.3461" y1="793.7095" x2="1403.6261" y2="774.3195" gradientTransform="matrix(1 0 0 1 -600.88 -192.22)">
			<stop  offset="0" style="stop-color:#114F5F"/>
			<stop  offset="0.49" style="stop-color:#1FB3D8"/>
			<stop  offset="1" style="stop-color:#0A3A47"/>
		</linearGradient>
		<path class="st22" d="M725,577.3c0,0-4.6,2-4.9,4.7c-0.4,3.1,2.7,4.9,2.7,4.9l159.8,19.4l-0.2-10l-123.2-14.1L725,577.3z"/>
		<path class="st2" d="M725,577.3c0,0-4.6,2-4.9,4.7c-0.4,3.1,2.7,4.9,2.7,4.9l159.8,19.4l-0.2-10l-123.2-14.1L725,577.3z"/>
	</g>
	<g id="path3342">
		
			<image style="overflow:visible;opacity:0.75;enable-background:new    ;" width="176" height="47" xlink:href="7E52D79B.png"  transform="matrix(0.9943 0 0 0.9787 724 525)">
		</image>
		
			<linearGradient id="SVGID_3_" gradientUnits="userSpaceOnUse" x1="1402.1271" y1="745.0097" x2="1404.317" y2="722.3697" gradientTransform="matrix(1 0 0 1 -600.88 -192.22)">
			<stop  offset="0" style="stop-color:#114F5F"/>
			<stop  offset="0.49" style="stop-color:#1FB3D8"/>
			<stop  offset="1" style="stop-color:#0A3A47"/>
		</linearGradient>
		<path class="st23" d="M730.1,526.4c0,0-5.1,1.1-5.1,5.1c-0.1,2.2,1.3,4.3,3.3,5.1l151.4,15.2l-0.5-10L731,526.7L730.1,526.4z"/>
		<path class="st2" d="M730.1,526.4c0,0-5.1,1.1-5.1,5.1c-0.1,2.2,1.3,4.3,3.3,5.1l151.4,15.2l-0.5-10L731,526.7L730.1,526.4z"/>
	</g>
	<g id="path3334">
		
			<image style="overflow:visible;opacity:0.75;enable-background:new    ;" width="47" height="233" xlink:href="7E52D79D.png"  transform="matrix(0.9787 0 0 0.9957 878 490)">
		</image>
		
			<linearGradient id="SVGID_4_" gradientUnits="userSpaceOnUse" x1="1479.0701" y1="789.9606" x2="1506.3401" y2="788.0206" gradientTransform="matrix(1 0 0 1 -600.88 -192.22)">
			<stop  offset="0" style="stop-color:#114F5F"/>
			<stop  offset="0.49" style="stop-color:#1FB3D8"/>
			<stop  offset="1" style="stop-color:#0A3A47"/>
		</linearGradient>
		<polygon class="st24" points="905.2,702 893.2,703.3 882.8,614 878.7,528.4 878.7,491.1 889.4,491.1 895.7,528.4 900.1,590.9 
			903.9,664.8 		"/>
		<polygon class="st2" points="905.2,702 893.2,703.3 882.8,614 878.7,528.4 878.7,491.1 889.4,491.1 895.7,528.4 900.1,590.9 
			903.9,664.8 		"/>
	</g>
	<g id="path3393">
		
			<image style="overflow:visible;opacity:0.75;enable-background:new    ;" width="31" height="191" xlink:href="41F92766.png"  transform="matrix(0.9677 0 0 0.9948 834 282)">
		</image>
		
			<linearGradient id="SVGID_5_" gradientUnits="userSpaceOnUse" x1="1435.7001" y1="559.9386" x2="1447.62" y2="560.2586" gradientTransform="matrix(1 0 0 1 -600.88 -192.22)">
			<stop  offset="0" style="stop-color:#114F5F"/>
			<stop  offset="0.49" style="stop-color:#1FB3D8"/>
			<stop  offset="1" style="stop-color:#0A3A47"/>
		</linearGradient>
		<path class="st25" d="M835.2,451.1c0,0,1.2-76.5,1.2-88.9s3.8-79.4,3.8-79.4l4.9,0.5c0,0-1.2,82.5-1.2,97.4s-2,71.1-2,71.1
			c-1,0.5-2.2,0.8-3.3,0.9C837.3,452.4,836.2,451.9,835.2,451.1L835.2,451.1z"/>
		<path class="st2" d="M835.2,451.1c0,0,1.2-76.5,1.2-88.9s3.8-79.4,3.8-79.4l4.9,0.5c0,0-1.2,82.5-1.2,97.4s-2,71.1-2,71.1
			c-1,0.5-2.2,0.8-3.3,0.9C837.3,452.4,836.2,451.9,835.2,451.1L835.2,451.1z"/>
	</g>
	<g id="path3395">
		
			<image style="overflow:visible;opacity:0.75;enable-background:new    ;" width="40" height="190" xlink:href="41F92761.png"  transform="matrix(0.975 0 0 0.9947 856 285)">
		</image>
		
			<linearGradient id="SVGID_6_" gradientUnits="userSpaceOnUse" x1="1459.8206" y1="562.0436" x2="1475.5405" y2="563.3336" gradientTransform="matrix(1 0 0 1 -600.88 -192.22)">
			<stop  offset="0" style="stop-color:#114F5F"/>
			<stop  offset="0.49" style="stop-color:#1FB3D8"/>
			<stop  offset="1" style="stop-color:#0A3A47"/>
		</linearGradient>
		<path class="st26" d="M857,453.2c0,0,3.7-63,5.3-77.8s8.8-89.6,8.8-89.6l5,0.5l-0.3,3.5c0,0-4.5,87.2-6.6,111.1
			s-4.9,53.5-4.9,53.5c-1.4,0.4-2.8,0.6-4.3,0.5C859,454.5,857.9,453.9,857,453.2L857,453.2z"/>
		<path class="st2" d="M857,453.2c0,0,3.7-63,5.3-77.8s8.8-89.6,8.8-89.6l5,0.5l-0.3,3.5c0,0-4.5,87.2-6.6,111.1s-4.9,53.5-4.9,53.5
			c-1.4,0.4-2.8,0.6-4.3,0.5C859,454.5,857.9,453.9,857,453.2L857,453.2z"/>
	</g>
	<g id="path3397">
		
			<image style="overflow:visible;opacity:0.75;enable-background:new    ;" width="45" height="191" xlink:href="41F92762.png"  transform="matrix(0.9778 0 0 0.9948 880 286)">
		</image>
		
			<linearGradient id="SVGID_7_" gradientUnits="userSpaceOnUse" x1="1487.7266" y1="563.0388" x2="1501.0966" y2="564.6487" gradientTransform="matrix(1 0 0 1 -600.88 -192.22)">
			<stop  offset="0" style="stop-color:#114F5F"/>
			<stop  offset="0.49" style="stop-color:#1FB3D8"/>
			<stop  offset="1" style="stop-color:#0A3A47"/>
		</linearGradient>
		<path class="st27" d="M883.5,456.5c-2.4-0.5-3-1.5-3-1.5s5.7-55.3,6.9-65.9S901,286.8,901,286.8l4.4,0.2c0,0-8.9,89.7-11.4,112.3
			s-6.5,56.4-6.5,56.4C886.4,456.5,884.9,456.8,883.5,456.5L883.5,456.5z"/>
		<path class="st2" d="M883.5,456.5c-2.4-0.5-3-1.5-3-1.5s5.7-55.3,6.9-65.9S901,286.8,901,286.8l4.4,0.2c0,0-8.9,89.7-11.4,112.3
			s-6.5,56.4-6.5,56.4C886.4,456.5,884.9,456.8,883.5,456.5L883.5,456.5z"/>
	</g>
	<g id="path3399">
		
			<image style="overflow:visible;opacity:0.75;enable-background:new    ;" width="52" height="194" xlink:href="41F92760.png"  transform="matrix(0.9808 0 0 0.9948 903 285)">
		</image>
		
			<linearGradient id="SVGID_8_" gradientUnits="userSpaceOnUse" x1="1515.0667" y1="563.8834" x2="1528.4366" y2="565.7934" gradientTransform="matrix(1 0 0 1 -600.88 -192.22)">
			<stop  offset="0" style="stop-color:#114F5F"/>
			<stop  offset="0.49" style="stop-color:#1FB3D8"/>
			<stop  offset="1" style="stop-color:#0A3A47"/>
		</linearGradient>
		<path class="st28" d="M907.6,458.9c-1.1-0.6-2.1-1.3-3.1-2.1c0,0,7.2-53,9.3-64.1s17-106.2,17-106.2l4.3-0.1
			c0,0-12.8,101.7-14.8,119.8s-7.7,52.1-7.7,52.1S909.1,459.6,907.6,458.9L907.6,458.9z"/>
		<path class="st2" d="M907.6,458.9c-1.1-0.6-2.1-1.3-3.1-2.1c0,0,7.2-53,9.3-64.1s17-106.2,17-106.2l4.3-0.1
			c0,0-12.8,101.7-14.8,119.8s-7.7,52.1-7.7,52.1S909.1,459.6,907.6,458.9L907.6,458.9z"/>
	</g>
	<g id="path3352">
		
			<image style="overflow:visible;opacity:0.75;enable-background:new    ;" width="39" height="253" xlink:href="41F9277E.png"  transform="matrix(0.9744 0 0 0.996 795 220)">
		</image>
		
			<linearGradient id="SVGID_9_" gradientUnits="userSpaceOnUse" x1="1396.451" y1="528.6083" x2="1415.8611" y2="529.2582" gradientTransform="matrix(1 0 0 1 -600.88 -192.22)">
			<stop  offset="0" style="stop-color:#06485C"/>
			<stop  offset="0.47" style="stop-color:#089BC7"/>
			<stop  offset="1" style="stop-color:#046480"/>
		</linearGradient>
		<path class="st29" d="M797,451.2c0,0,0.3-71.9,0.3-73.2s1.8-6.7,1.8-6.7s-2.7-1.3-2.2-3.6s3.1-4,3.1-4s-4.5-4.5-4-8.9
			s4.5-54,4.5-56.7c0-2.7-2.2-5.8-2.2-7.1s1.8-4,1.8-4s-2.2-1.9-2.2-3.1s1.9-2.4,1.9-2.4l0.8-35.5c0,0-2.7-0.7-2-4s3.8-6.3,4-7.1
			s-2.5-2-2.5-2s-6.9-13.2,6.5-12.1s4.8,12.3,4.5,13.4c-1.2,3.8,1.6,2.9,1.9,8.6c0.1,2-1.9,4.1-1.9,4.1v35.5c0,0,2.4,0.6,2.4,2.6
			c0,1.2-0.8,2.2-1.9,2.5c0.7,0.9,1.2,2,1.3,3.2c0,1.3-2.2,2-2.2,3.8s1.6,60.3,1.3,62.5s-2.7,7.6-2.7,7.6s2.5,1.6,2.5,4
			c-0.1,1.5-0.9,3-2.2,3.8c0,0,1.8,16.8,1.7,20.1c-0.3,7.4-3.3,58.7-3.3,58.7s-3.5,1.8-5.4,1.9S797,451.1,797,451.2L797,451.2z"/>
		<path class="st2" d="M797,451.2c0,0,0.3-71.9,0.3-73.2s1.8-6.7,1.8-6.7s-2.7-1.3-2.2-3.6s3.1-4,3.1-4s-4.5-4.5-4-8.9
			s4.5-54,4.5-56.7c0-2.7-2.2-5.8-2.2-7.1s1.8-4,1.8-4s-2.2-1.9-2.2-3.1s1.9-2.4,1.9-2.4l0.8-35.5c0,0-2.7-0.7-2-4s3.8-6.3,4-7.1
			s-2.5-2-2.5-2s-6.9-13.2,6.5-12.1s4.8,12.3,4.5,13.4c-1.2,3.8,1.6,2.9,1.9,8.6c0.1,2-1.9,4.1-1.9,4.1v35.5c0,0,2.4,0.6,2.4,2.6
			c0,1.2-0.8,2.2-1.9,2.5c0.7,0.9,1.2,2,1.3,3.2c0,1.3-2.2,2-2.2,3.8s1.6,60.3,1.3,62.5s-2.7,7.6-2.7,7.6s2.5,1.6,2.5,4
			c-0.1,1.5-0.9,3-2.2,3.8c0,0,1.8,16.8,1.7,20.1c-0.3,7.4-3.3,58.7-3.3,58.7s-3.5,1.8-5.4,1.9S797,451.1,797,451.2L797,451.2z"/>
	</g>
	<path id="path4187" class="st30" d="M810.9,279.8c0,0,66.3,6.4,76.1,6.4s72.9-0.5,72.9-0.5l-0.7,1.6c0,0-66.8,0.9-74.1,0.5
		c-7.3-0.5-74.3-6.2-74.3-6.2V279.8z"/>
	<path id="path3354" class="st31" d="M802.1,234c0,0,3.2-1.5,8.5,0.1"/>
	<path id="path3356" class="st31" d="M800.3,245.7c0,0,6.8-2,11,0.4"/>
	<path id="path3358" class="st31" d="M800.1,286.6c0,0,4.2-1.7,11.8,0.4"/>
	<path id="path3360" class="st31" d="M798.9,292.1c0,0,7.7-2.4,12.8,0.2"/>
	<path id="path3362" class="st31" d="M799.9,363.6c0,0,5.8-1.2,8.9,0.5"/>
	<path id="path3364" class="st31" d="M799.1,371.3c0,0,5.9-1.5,10.9,0.3"/>
	
		<linearGradient id="path4349_1_" gradientUnits="userSpaceOnUse" x1="1536.8584" y1="663.7051" x2="1444.3884" y2="693.4551" gradientTransform="matrix(1 0 0 1 -600.88 -192.22)">
		<stop  offset="0" style="stop-color:#06627E"/>
		<stop  offset="1" style="stop-color:#089BC7;stop-opacity:0"/>
	</linearGradient>
	<path id="path4349" class="st32" d="M886.2,478.7l0.7,14.1l11.1-0.4l24.6-8.2l22.8-8.3l0.3-6.4l-0.5-7.1l-18.9,7.8
		c0,0-19.3,6.8-25.1,7.7C896.1,478.6,891.2,478.9,886.2,478.7L886.2,478.7z"/>
	<g id="path3348">
		
			<image style="overflow:visible;opacity:0.75;enable-background:new    ;" width="258" height="67" xlink:href="41F92763.png"  transform="matrix(0.9961 0 0 0.9851 708 448)">
		</image>
		<path class="st33" d="M709.5,463v16.1c5.1,1.8,10.4,3.1,15.8,4.1c6.6,1,86.8,10.7,90,10.7s48.6,0.6,53,0.6s24.3-1.6,28.1-1.6
			s49.3-16.7,49.3-16.7l0.3-4.1l-0.7-12.7l-4.1-1.6l-115.5-8.2l-12.3-1l-20.5,0.6l-52.4,7l-26.8,4.7L709.5,463z"/>
		<path class="st2" d="M709.5,463v16.1c5.1,1.8,10.4,3.1,15.8,4.1c6.6,1,86.8,10.7,90,10.7s48.6,0.6,53,0.6s24.3-1.6,28.1-1.6
			s49.3-16.7,49.3-16.7l0.3-4.1l-0.7-12.7l-4.1-1.6l-115.5-8.2l-12.3-1l-20.5,0.6l-52.4,7l-26.8,4.7L709.5,463z"/>
	</g>
	<path id="path3350" class="st2" d="M709.8,463.3c0,0,27.2,8.2,36.3,8.2s79.2,6.6,84.6,6.6s59.7,0.3,59.7,0.3s7-0.6,12-1
		s39.8-13.2,41.7-14.8s1.2-2.9,1.2-2.9"/>
	<g id="path3391">
		
			<image style="overflow:visible;opacity:0.75;enable-background:new    ;" width="178" height="62" xlink:href="41F92767.png"  transform="matrix(0.9944 0 0 0.9839 809 246)">
		</image>
		<path class="st33" d="M811.1,247.5c0,0,62.1,4.9,75.3,5.8s80.6-0.4,80.6-0.4l-6,34.6c0,0-67.3,0.6-75.3,0s-75.5-6.2-75.5-6.2
			l-0.6-34.1L811.1,247.5z"/>
		<path class="st2" d="M811.1,247.5c0,0,62.1,4.9,75.3,5.8s80.6-0.4,80.6-0.4l-6,34.6c0,0-67.3,0.6-75.3,0s-75.5-6.2-75.5-6.2
			l-0.6-34.1L811.1,247.5z"/>
	</g>
	<g id="path3377">
		
			<image style="overflow:visible;opacity:0.75;enable-background:new    ;" width="78" height="256" xlink:href="41F92765.png"  transform="matrix(0.9872 0 0 0.9961 927 225)">
		</image>
		
			<linearGradient id="SVGID_10_" gradientUnits="userSpaceOnUse" x1="1548.0992" y1="534.0133" x2="1564.5592" y2="537.6733" gradientTransform="matrix(1 0 0 1 -600.88 -192.22)">
			<stop  offset="0" style="stop-color:#06485C"/>
			<stop  offset="0.47" style="stop-color:#089BC7"/>
			<stop  offset="1" style="stop-color:#046480"/>
		</linearGradient>
		<path class="st34" d="M928.3,458.7c0,0,11.8-71.6,12-73s2.7-6.1,2.7-6.1c-0.8-1.4-1.2-2.9-1.1-4.5c0.2-1.4,1.1-2.6,2.3-3.2
			c0,0-2.1-6-0.9-10.5s13.8-55.9,14.3-58.6c0.5-2.7-0.4-6.9-0.2-8.3c0.1-0.8,0.8-1.4,1.6-1.5c0,0-1.4-2-1.2-3.3s2-2.3,2-2.3
			s1.7-12.1,2.7-18.1c1.1-6,4.8-18.4,4.8-18.4s-1.3-1-0.1-4.3s2.4-5.4,2.8-6.3s-0.7-3.4-0.7-3.4s-3.3-13,9.7-10.6
			c13.2,2.5,1.9,13.1,1.4,14.1c-1.9,3.6,1.6,3.7,0.9,9.6c-0.3,2.1-2.6,3.9-2.6,3.9l-1.7,18.3l-4.7,18c0,0,1.3,0.2,1,2.3
			c-0.2,1.1-0.7,2.2-1.5,3c0.1,1.1,0,2.2-0.3,3.3c-0.4,1.4-2.7,1.1-3,2.9s-9.5,62.7-10.1,64.9s-3.9,7.3-3.9,7.3
			c1.2,0.8,1.7,2.3,1.4,3.7c-0.3,1.6-1.1,3.1-2.3,4.2c0,0-1.5,17.6-2.2,21l-12.6,57.7c0,0-3.9,1-5.6,0.7S928.3,458.7,928.3,458.7
			L928.3,458.7z"/>
		<path class="st35" d="M928.3,458.7c0,0,11.8-71.6,12-73s2.7-6.1,2.7-6.1c-0.8-1.4-1.2-2.9-1.1-4.5c0.2-1.4,1.1-2.6,2.3-3.2
			c0,0-2.1-6-0.9-10.5s13.8-55.9,14.3-58.6c0.5-2.7-0.4-6.9-0.2-8.3c0.1-0.8,0.8-1.4,1.6-1.5c0,0-1.4-2-1.2-3.3s2-2.3,2-2.3
			s1.7-12.1,2.7-18.1c1.1-6,4.8-18.4,4.8-18.4s-1.3-1-0.1-4.3s2.4-5.4,2.8-6.3s-0.7-3.4-0.7-3.4s-3.3-13,9.7-10.6
			c13.2,2.5,1.9,13.1,1.4,14.1c-1.9,3.6,1.6,3.7,0.9,9.6c-0.3,2.1-2.6,3.9-2.6,3.9l-1.7,18.3l-4.7,18c0,0,1.3,0.2,1,2.3
			c-0.2,1.1-0.7,2.2-1.5,3c0.1,1.1,0,2.2-0.3,3.3c-0.4,1.4-2.7,1.1-3,2.9s-9.5,62.7-10.1,64.9s-3.9,7.3-3.9,7.3
			c1.2,0.8,1.7,2.3,1.4,3.7c-0.3,1.6-1.1,3.1-2.3,4.2c0,0-1.5,17.6-2.2,21l-12.6,57.7c0,0-3.9,1-5.6,0.7S928.3,458.7,928.3,458.7
			L928.3,458.7z"/>
	</g>
	<path id="path3379" class="st36" d="M970.1,237.8c3.6-0.5,7.2,0.1,10.5,1.7"/>
	<path id="path3381" class="st36" d="M967.2,250.3c0,0,8.3-0.5,12.1,2.8"/>
	<path id="path3387" class="st36" d="M944.6,371.7c0,0,8.1-0.4,10.9,1.9"/>
	<path id="path3389" class="st36" d="M943.3,379.4c0,0,6.1-0.3,10.7,2.5"/>
	<path id="path3383" class="st36" d="M959,292.7c0,0,5.4-1.3,12.5,2.2"/>
	<path id="path3385" class="st36" d="M957.8,298.5c0,0,7.3-2,11.8,1.7"/>
</g>
</svg>
